<?xml version="1.0" encoding="utf-8"?>
<!-- Generator: Adobe Illustrator 17.1.0, SVG Export Plug-In . SVG Version: 6.00 Build 0)  -->
<!DOCTYPE svg PUBLIC "-//W3C//DTD SVG 1.1//EN" "http://www.w3.org/Graphics/SVG/1.1/DTD/svg11.dtd">
<svg version="1.1" id="Layer_1" xmlns="http://www.w3.org/2000/svg" xmlns:xlink="http://www.w3.org/1999/xlink" x="0px" y="0px"
	 width="240px" height="40px" viewBox="0 0 240 40" enable-background="new 0 0 240 40" xml:space="preserve">
<path fill="none" stroke="#42BDAE" stroke-width="0.9894" stroke-miterlimit="10" d="M13.9,20"/>
<polyline fill="none" stroke="#EC1E24" stroke-width="0.75" stroke-miterlimit="10" points="14.7,18.5 10.2,18.5 7,13 10.2,7.5 
	14.7,7.5 "/>
<polyline fill="none" stroke="#EC1E24" stroke-width="0.75" stroke-miterlimit="10" points="1.2,14.2 5.7,14.2 8.8,19.7 5.7,25.2 
	1.2,25.2 "/>
<g>
	<g>
		
			<line fill="none" stroke="#FE0202" stroke-width="0.9" stroke-linecap="round" stroke-miterlimit="10" x1="1.1" y1="1.3" x2="1.1" y2="1.3"/>
		
			<line fill="none" stroke="#FE0202" stroke-width="0.9" stroke-linecap="round" stroke-miterlimit="10" stroke-dasharray="0,1.4922" x1="2.6" y1="1.3" x2="4.8" y2="1.3"/>
		
			<line fill="none" stroke="#FE0202" stroke-width="0.9" stroke-linecap="round" stroke-miterlimit="10" x1="5.6" y1="1.3" x2="5.6" y2="1.3"/>
		
			<line fill="none" stroke="#FE0202" stroke-width="0.9" stroke-linecap="round" stroke-miterlimit="10" stroke-dasharray="0,1.5875" x1="6.4" y1="2.7" x2="8.3" y2="6.1"/>
		
			<line fill="none" stroke="#FE0202" stroke-width="0.9" stroke-linecap="round" stroke-miterlimit="10" x1="8.7" y1="6.8" x2="8.7" y2="6.8"/>
		
			<line fill="none" stroke="#FE0202" stroke-width="0.9" stroke-linecap="round" stroke-miterlimit="10" stroke-dasharray="0,1.5875" x1="8" y1="8.2" x2="6" y2="11.6"/>
		
			<line fill="none" stroke="#FE0202" stroke-width="0.9" stroke-linecap="round" stroke-miterlimit="10" x1="5.6" y1="12.3" x2="5.6" y2="12.3"/>
		
			<line fill="none" stroke="#FE0202" stroke-width="0.9" stroke-linecap="round" stroke-miterlimit="10" stroke-dasharray="0,1.4922" x1="4.1" y1="12.3" x2="1.8" y2="12.3"/>
		
			<line fill="none" stroke="#FE0202" stroke-width="0.9" stroke-linecap="round" stroke-miterlimit="10" x1="1.1" y1="12.3" x2="1.1" y2="12.3"/>
	</g>
</g>
<path fill="none" stroke="#000000" stroke-width="0.6752" stroke-miterlimit="10" d="M3,14.1"/>
<g>
	<path fill="#777777" d="M18.7,16.6V9.5c0-0.1,0-0.1,0-0.1s0.1,0,0.1,0h1.3c0.1,0,0.1,0,0.1,0c0,0,0,0,0.1,0.1l2,5.2
		c0,0.1,0,0.1,0.1,0.1c0,0,0,0,0.1-0.1l2-5.2c0-0.1,0.1-0.2,0.2-0.2H26c0.1,0,0.1,0,0.1,0.2v7.1c0,0.1,0,0.1,0,0.1c0,0-0.1,0-0.1,0
		H25c-0.1,0-0.1,0-0.1,0c0,0,0-0.1,0-0.1v-5.5c0,0,0,0,0,0c0,0,0,0,0,0.1l-2.1,5.5c0,0.1-0.1,0.1-0.2,0.1H22c-0.1,0-0.2,0-0.2-0.1
		l-2-5.4c0,0,0-0.1,0-0.1c0,0,0,0,0,0.1v5.4c0,0.1,0,0.1,0,0.1c0,0-0.1,0-0.1,0h-0.7C18.7,16.8,18.7,16.7,18.7,16.6z"/>
	<path fill="#777777" d="M28.1,15.3c0.1,0.2,0.3,0.4,0.6,0.6s0.5,0.2,0.8,0.2c0.3,0,0.6-0.1,0.8-0.2c0.2-0.1,0.5-0.3,0.7-0.6
		c0,0,0,0,0.1,0c0,0,0.1,0,0.1,0l0.5,0.2c0,0,0.1,0,0.1,0.1c0,0,0,0,0,0.1c-0.3,0.4-0.6,0.7-1,0.9c-0.4,0.2-0.8,0.3-1.3,0.3
		c-0.5,0-0.9-0.1-1.3-0.3s-0.7-0.5-0.9-1s-0.3-0.9-0.3-1.4c0-0.6,0.1-1.1,0.3-1.5c0.2-0.4,0.5-0.8,0.9-1c0.4-0.2,0.8-0.3,1.3-0.3
		c0.5,0,0.9,0.1,1.3,0.3c0.4,0.2,0.7,0.5,0.9,0.9c0.2,0.4,0.3,0.9,0.3,1.5v0c0,0.1,0,0.1,0,0.1c0,0-0.1,0-0.1,0H28
		c-0.1,0-0.1,0.1-0.1,0.2C27.9,14.8,27.9,15.1,28.1,15.3z M30.6,13.7c0.1,0,0.1,0,0.1,0c0,0,0-0.1,0-0.1c0-0.3-0.1-0.5-0.2-0.7
		c-0.1-0.2-0.3-0.4-0.5-0.5c-0.2-0.1-0.5-0.2-0.7-0.2c-0.3,0-0.6,0.1-0.8,0.2c-0.2,0.1-0.4,0.3-0.5,0.6c-0.1,0.2-0.2,0.5-0.2,0.8
		L30.6,13.7z"/>
	<path fill="#777777" d="M34.3,12.3C34.2,12.3,34.2,12.3,34.3,12.3l-0.1,3c0,0.3,0.1,0.5,0.2,0.6c0.1,0.1,0.3,0.2,0.5,0.2h0.6
		c0.1,0,0.1,0,0.1,0.1v0.4c0,0.1-0.1,0.1-0.2,0.2c-0.2,0-0.6,0-1,0c-0.4,0-0.8-0.1-1-0.3s-0.3-0.5-0.3-0.9v-3.2c0-0.1,0-0.1-0.1-0.1
		h-0.8c-0.1,0-0.1,0-0.1-0.1v-0.5c0-0.1,0-0.1,0.1-0.1h0.8c0.1,0,0.1,0,0.1-0.1l0.1-1.6c0-0.1,0.1-0.1,0.1-0.1h0.7
		c0.1,0,0.1,0.1,0.1,0.2v1.6c0,0.1,0,0.1,0.1,0.1h1.2c0.1,0,0.1,0,0.1,0.1v0.5c0,0.1,0,0.1-0.1,0.1H34.3z"/>
	<path fill="#777777" d="M37.9,16.9c-0.5,0-0.9-0.1-1.2-0.4c-0.3-0.3-0.4-0.6-0.4-1.1c0-0.5,0.2-1,0.7-1.3c0.5-0.3,1.1-0.5,2-0.5
		l0.7-0.1c0.1,0,0.2-0.1,0.2-0.1v-0.2c0-0.3-0.1-0.6-0.3-0.8c-0.2-0.2-0.5-0.3-0.8-0.3c-0.5,0-1,0.2-1.3,0.7c0,0,0,0.1-0.1,0.1
		s-0.1,0-0.1,0l-0.7-0.2c0,0-0.1,0-0.1-0.1c0,0,0-0.1,0-0.1c0.2-0.4,0.5-0.6,0.9-0.8c0.4-0.2,0.8-0.3,1.4-0.3c0.7,0,1.2,0.2,1.6,0.5
		s0.5,0.7,0.5,1.2v3.5c0,0.1,0,0.1,0,0.1c0,0-0.1,0-0.1,0H40c-0.1,0-0.1-0.1-0.2-0.2l0-0.4c0-0.1,0-0.1-0.1-0.1c0,0-0.1,0-0.1,0.1
		C39.2,16.7,38.6,16.9,37.9,16.9z M39.7,14.2l-0.5,0c-0.6,0-1,0.1-1.3,0.3c-0.3,0.2-0.5,0.5-0.5,0.8c0,0.3,0.1,0.5,0.3,0.6
		c0.2,0.2,0.4,0.2,0.8,0.2c0.4,0,0.7-0.1,1-0.4c0.3-0.2,0.4-0.5,0.4-0.7v-0.8C39.8,14.2,39.8,14.1,39.7,14.2z"/>
	<path fill="#777777" d="M42.3,16.8c-0.1,0-0.1,0-0.1,0c0,0,0-0.1,0-0.1V9.5c0-0.1,0-0.2,0.1-0.2h0.8c0.1,0,0.1,0,0.1,0.2v2.4
		c0,0.1,0,0.1,0.1,0.1c0,0,0.1,0,0.1,0c0.4-0.4,0.9-0.6,1.5-0.6c0.7,0,1.2,0.2,1.6,0.8c0.4,0.5,0.5,1.2,0.5,2c0,0.9-0.2,1.5-0.6,2
		c-0.4,0.5-1,0.7-1.7,0.7c-0.4,0-0.7-0.1-1-0.2c-0.3-0.2-0.5-0.3-0.6-0.6c0,0-0.1,0-0.1,0c0,0,0,0,0,0.1l-0.1,0.5
		c0,0.1,0,0.1-0.1,0.1s-0.1,0-0.1,0H42.3z M43.2,15c0,0.2,0.1,0.4,0.2,0.6c0.1,0.2,0.3,0.3,0.5,0.4c0.2,0.1,0.4,0.2,0.6,0.2
		c0.4,0,0.8-0.2,1-0.5c0.3-0.3,0.4-0.9,0.4-1.5c0-0.7-0.1-1.2-0.4-1.5c-0.2-0.3-0.6-0.5-1-0.5c-0.3,0-0.5,0.1-0.7,0.2
		c-0.2,0.1-0.4,0.3-0.6,0.5V15z"/>
	<path fill="#777777" d="M49.1,16.5c-0.4-0.2-0.7-0.6-0.9-1c-0.2-0.4-0.3-0.9-0.3-1.4c0-0.5,0.1-1,0.3-1.4c0.2-0.4,0.5-0.8,0.9-1
		s0.8-0.4,1.3-0.4c0.5,0,1,0.1,1.3,0.4c0.4,0.2,0.7,0.6,0.9,1c0.2,0.4,0.3,0.9,0.3,1.4c0,0.5-0.1,1-0.3,1.4c-0.2,0.4-0.5,0.7-0.9,1
		s-0.8,0.3-1.3,0.3C49.9,16.9,49.5,16.8,49.1,16.5z M51.6,15.6c0.3-0.4,0.4-0.8,0.4-1.5c0-0.6-0.1-1.1-0.4-1.5
		c-0.3-0.4-0.6-0.5-1.1-0.5s-0.8,0.2-1.1,0.5S49,13.5,49,14.1c0,0.6,0.1,1.1,0.4,1.5s0.6,0.5,1.1,0.5C50.9,16.1,51.3,16,51.6,15.6z"
		/>
	<path fill="#777777" d="M55.2,16.6c0,0.1,0,0.1,0,0.2c0,0-0.1,0-0.2,0h-0.7c-0.1,0-0.1,0-0.1,0c0,0,0-0.1,0-0.1l0-7.1
		c0-0.1,0-0.2,0.1-0.2h0.8c0.1,0,0.1,0,0.1,0.2V16.6z"/>
	<path fill="#777777" d="M56.6,16.6v-5c0-0.1,0-0.1,0.1-0.1h0.8c0.1,0,0.1,0,0.1,0.1v0.5c0,0,0,0.1,0,0.1c0,0,0,0,0.1,0
		c0.3-0.3,0.6-0.5,0.9-0.6c0.3-0.1,0.5-0.2,0.9-0.2c0.4,0,0.7,0.1,0.9,0.2c0.2,0.2,0.4,0.4,0.5,0.7c0,0,0,0,0,0c0,0,0.1,0,0.1,0
		c0.3-0.3,0.6-0.5,0.9-0.7c0.3-0.2,0.6-0.2,0.9-0.2c0.5,0,0.9,0.1,1.1,0.4c0.3,0.3,0.4,0.7,0.4,1.1v3.7c0,0.1-0.1,0.2-0.2,0.2h-0.7
		c-0.1,0-0.1,0-0.1,0s0-0.1,0-0.1v-3.5c0-0.3-0.1-0.5-0.2-0.7c-0.1-0.2-0.4-0.2-0.7-0.2c-0.4,0-0.8,0.2-1.3,0.6c0,0-0.1,0.1-0.1,0.1
		s0,0.1,0,0.2v3.5c0,0.1-0.1,0.2-0.2,0.2h-0.7c-0.1,0-0.2-0.1-0.2-0.2v-3.5c0-0.3-0.1-0.5-0.2-0.7c-0.1-0.2-0.4-0.2-0.7-0.2
		c-0.2,0-0.5,0.1-0.7,0.2c-0.2,0.1-0.5,0.3-0.7,0.6v3.7c0,0.1,0,0.1,0,0.1c0,0-0.1,0-0.1,0h-0.7C56.7,16.8,56.6,16.7,56.6,16.6z"/>
	<path fill="#777777" d="M66.8,10.4c0,0.1,0,0.1,0,0.2c0,0-0.1,0-0.2,0h-0.7c-0.1,0-0.1,0-0.1,0c0,0,0-0.1,0-0.1V9.5
		c0-0.1,0.1-0.2,0.1-0.2h0.8c0,0,0.1,0,0.1,0c0,0,0,0.1,0,0.1V10.4z M66.8,16.6c0,0.1,0,0.1,0,0.2c0,0-0.1,0-0.2,0h-0.7
		c-0.1,0-0.1,0-0.1,0c0,0,0-0.1,0-0.1v-5c0-0.1,0-0.1,0-0.1s0.1,0,0.1,0h0.8c0.1,0,0.1,0,0.1,0.1V16.6z"/>
	<path fill="#777777" d="M71.8,11.8c0.4,0.2,0.6,0.6,0.8,1c0,0,0,0.1,0,0.1c0,0,0,0.1-0.1,0.1L71.8,13h0c0,0-0.1,0-0.1-0.1
		c-0.2-0.3-0.4-0.5-0.5-0.6s-0.4-0.2-0.6-0.2c-0.5,0-0.8,0.2-1.1,0.5C69.1,13,69,13.5,69,14.1c0,0.6,0.1,1.1,0.4,1.5
		c0.3,0.4,0.7,0.5,1.1,0.5c0.3,0,0.6-0.1,0.8-0.2s0.4-0.4,0.6-0.7c0,0,0,0,0.1,0c0,0,0,0,0.1,0l0.5,0.2c0.1,0,0.1,0.1,0,0.1
		c-0.2,0.4-0.5,0.7-0.8,1c-0.4,0.3-0.8,0.4-1.4,0.4c-0.5,0-0.9-0.1-1.3-0.3c-0.4-0.2-0.7-0.6-0.9-1c-0.2-0.4-0.3-0.9-0.3-1.4
		s0.1-1,0.3-1.4c0.2-0.4,0.5-0.7,0.9-1c0.4-0.2,0.8-0.4,1.3-0.4C71,11.4,71.4,11.5,71.8,11.8z"/>
	<path fill="#777777" d="M76.3,12.3c-0.2-0.1-0.5-0.2-0.8-0.2c-0.3,0-0.6,0.1-0.8,0.2s-0.3,0.3-0.3,0.6c0,0.1,0.1,0.3,0.2,0.4
		c0.1,0.1,0.3,0.2,0.6,0.3l1.2,0.3c0.5,0.1,0.8,0.3,1,0.6c0.2,0.2,0.3,0.5,0.3,0.9c0,0.3-0.1,0.6-0.3,0.8s-0.5,0.4-0.8,0.6
		c-0.3,0.1-0.7,0.2-1.1,0.2c-0.5,0-1-0.1-1.4-0.3s-0.7-0.5-0.9-0.8c0,0,0-0.1,0-0.1c0,0,0-0.1,0-0.1l0.5-0.3c0,0,0.1,0,0.1,0
		c0,0,0.1,0,0.1,0c0.4,0.5,0.9,0.8,1.6,0.8c0.4,0,0.7-0.1,0.9-0.2c0.2-0.1,0.4-0.3,0.4-0.6c0-0.2-0.1-0.3-0.2-0.4
		c-0.1-0.1-0.4-0.2-0.7-0.3l-1-0.3c-0.5-0.1-0.9-0.3-1.1-0.5c-0.2-0.2-0.3-0.5-0.3-0.9c0-0.3,0.1-0.6,0.3-0.8s0.4-0.4,0.7-0.6
		c0.3-0.1,0.7-0.2,1.1-0.2c0.5,0,0.9,0.1,1.2,0.3c0.4,0.2,0.6,0.4,0.8,0.7c0,0,0,0.1,0,0.1c0,0,0,0.1,0,0.1L77,12.8c0,0,0,0-0.1,0
		c0,0-0.1,0-0.1,0C76.7,12.5,76.5,12.4,76.3,12.3z"/>
</g>
<circle fill="#EC1E24" cx="12.9" cy="13" r="1.3"/>
<path fill="none" stroke="#42BDAE" stroke-width="0.9894" stroke-miterlimit="10" d="M133.9,20"/>
<polyline fill="none" stroke="#CCCCCC" stroke-width="0.75" stroke-miterlimit="10" points="134.7,18.5 130.2,18.5 127,13 
	130.2,7.5 134.7,7.5 "/>
<polyline fill="none" stroke="#CCCCCC" stroke-width="0.75" stroke-miterlimit="10" points="121.2,14.2 125.7,14.2 128.8,19.7 
	125.7,25.2 121.2,25.2 "/>
<g>
	<g>
		
			<line fill="none" stroke="#CCCCCC" stroke-width="0.9" stroke-linecap="round" stroke-miterlimit="10" x1="121.1" y1="1.3" x2="121.1" y2="1.3"/>
		
			<line fill="none" stroke="#CCCCCC" stroke-width="0.9" stroke-linecap="round" stroke-miterlimit="10" stroke-dasharray="0,1.4922" x1="122.6" y1="1.3" x2="124.8" y2="1.3"/>
		
			<line fill="none" stroke="#CCCCCC" stroke-width="0.9" stroke-linecap="round" stroke-miterlimit="10" x1="125.6" y1="1.3" x2="125.6" y2="1.3"/>
		
			<line fill="none" stroke="#CCCCCC" stroke-width="0.9" stroke-linecap="round" stroke-miterlimit="10" stroke-dasharray="0,1.5875" x1="126.4" y1="2.7" x2="128.3" y2="6.1"/>
		
			<line fill="none" stroke="#CCCCCC" stroke-width="0.9" stroke-linecap="round" stroke-miterlimit="10" x1="128.7" y1="6.8" x2="128.7" y2="6.8"/>
		
			<line fill="none" stroke="#CCCCCC" stroke-width="0.9" stroke-linecap="round" stroke-miterlimit="10" stroke-dasharray="0,1.5875" x1="128" y1="8.2" x2="126" y2="11.6"/>
		
			<line fill="none" stroke="#CCCCCC" stroke-width="0.9" stroke-linecap="round" stroke-miterlimit="10" x1="125.6" y1="12.3" x2="125.6" y2="12.3"/>
		
			<line fill="none" stroke="#CCCCCC" stroke-width="0.9" stroke-linecap="round" stroke-miterlimit="10" stroke-dasharray="0,1.4922" x1="124.1" y1="12.3" x2="121.8" y2="12.3"/>
		
			<line fill="none" stroke="#CCCCCC" stroke-width="0.9" stroke-linecap="round" stroke-miterlimit="10" x1="121.1" y1="12.3" x2="121.1" y2="12.3"/>
	</g>
</g>
<g>
	<path fill="#CCCCCC" d="M138.7,16.6V9.5c0-0.1,0-0.1,0-0.1c0,0,0.1,0,0.1,0h1.3c0.1,0,0.1,0,0.1,0c0,0,0,0,0.1,0.1l2,5.2
		c0,0.1,0,0.1,0.1,0.1c0,0,0,0,0.1-0.1l2-5.2c0-0.1,0.1-0.2,0.2-0.2h1.4c0.1,0,0.1,0,0.1,0.2v7.1c0,0.1,0,0.1,0,0.1s-0.1,0-0.1,0
		H145c-0.1,0-0.1,0-0.1,0s0-0.1,0-0.1v-5.5c0,0,0,0,0,0c0,0,0,0,0,0.1l-2.1,5.5c0,0.1-0.1,0.1-0.2,0.1H142c-0.1,0-0.2,0-0.2-0.1
		l-2-5.4c0,0,0-0.1,0-0.1c0,0,0,0,0,0.1v5.4c0,0.1,0,0.1,0,0.1c0,0-0.1,0-0.1,0h-0.7C138.7,16.8,138.7,16.7,138.7,16.6z"/>
	<path fill="#CCCCCC" d="M148.1,15.3c0.1,0.2,0.3,0.4,0.6,0.6c0.2,0.1,0.5,0.2,0.8,0.2c0.3,0,0.6-0.1,0.8-0.2
		c0.2-0.1,0.5-0.3,0.7-0.6c0,0,0,0,0.1,0c0,0,0.1,0,0.1,0l0.5,0.2c0,0,0,0,0,0.1c0,0,0,0,0,0.1c-0.3,0.4-0.6,0.7-1,0.9
		c-0.4,0.2-0.8,0.3-1.3,0.3c-0.5,0-0.9-0.1-1.3-0.3s-0.7-0.5-0.9-1c-0.2-0.4-0.3-0.9-0.3-1.4c0-0.6,0.1-1.1,0.3-1.5
		c0.2-0.4,0.5-0.8,0.9-1c0.4-0.2,0.8-0.3,1.3-0.3c0.5,0,0.9,0.1,1.3,0.3c0.4,0.2,0.7,0.5,0.9,0.9c0.2,0.4,0.3,0.9,0.3,1.5v0
		c0,0.1,0,0.1,0,0.1c0,0-0.1,0-0.1,0H148c-0.1,0-0.1,0.1-0.1,0.2C147.9,14.8,147.9,15.1,148.1,15.3z M150.6,13.7c0.1,0,0.1,0,0.1,0
		c0,0,0-0.1,0-0.1c0-0.3-0.1-0.5-0.2-0.7c-0.1-0.2-0.3-0.4-0.5-0.5c-0.2-0.1-0.5-0.2-0.7-0.2c-0.3,0-0.6,0.1-0.8,0.2
		c-0.2,0.1-0.4,0.3-0.5,0.6c-0.1,0.2-0.2,0.5-0.2,0.8L150.6,13.7z"/>
	<path fill="#CCCCCC" d="M154.3,12.3C154.2,12.3,154.2,12.3,154.3,12.3l-0.1,3c0,0.3,0.1,0.5,0.2,0.6s0.3,0.2,0.5,0.2h0.6
		c0.1,0,0.1,0,0.1,0.1v0.4c0,0.1,0,0.1-0.2,0.2c-0.2,0-0.6,0-1,0c-0.4,0-0.8-0.1-1-0.3c-0.2-0.2-0.3-0.5-0.3-0.9v-3.2
		c0-0.1,0-0.1-0.1-0.1h-0.8c-0.1,0-0.1,0-0.1-0.1v-0.5c0-0.1,0-0.1,0.1-0.1h0.8c0.1,0,0.1,0,0.1-0.1l0.1-1.6c0-0.1,0.1-0.1,0.1-0.1
		h0.7c0.1,0,0.1,0.1,0.1,0.2v1.6c0,0.1,0,0.1,0.1,0.1h1.2c0.1,0,0.1,0,0.1,0.1v0.5c0,0.1,0,0.1-0.1,0.1H154.3z"/>
	<path fill="#CCCCCC" d="M157.9,16.9c-0.5,0-0.9-0.1-1.2-0.4s-0.4-0.6-0.4-1.1c0-0.5,0.2-1,0.7-1.3c0.5-0.3,1.1-0.5,2-0.5l0.7-0.1
		c0.1,0,0.2-0.1,0.2-0.1v-0.2c0-0.3-0.1-0.6-0.3-0.8c-0.2-0.2-0.5-0.3-0.8-0.3c-0.5,0-1,0.2-1.3,0.7c0,0,0,0.1-0.1,0.1s-0.1,0-0.1,0
		l-0.7-0.2c0,0-0.1,0-0.1-0.1c0,0,0-0.1,0-0.1c0.2-0.4,0.5-0.6,0.9-0.8c0.4-0.2,0.8-0.3,1.4-0.3c0.7,0,1.2,0.2,1.6,0.5
		s0.5,0.7,0.5,1.2v3.5c0,0.1,0,0.1,0,0.1c0,0-0.1,0-0.1,0H160c-0.1,0-0.1-0.1-0.2-0.2l0-0.4c0-0.1,0-0.1-0.1-0.1c0,0-0.1,0-0.1,0.1
		C159.2,16.7,158.6,16.9,157.9,16.9z M159.7,14.2l-0.5,0c-0.6,0-1,0.1-1.3,0.3c-0.3,0.2-0.5,0.5-0.5,0.8c0,0.3,0.1,0.5,0.3,0.6
		c0.2,0.2,0.4,0.2,0.8,0.2c0.4,0,0.7-0.1,1-0.4c0.3-0.2,0.4-0.5,0.4-0.7v-0.8C159.8,14.2,159.8,14.1,159.7,14.2z"/>
	<path fill="#CCCCCC" d="M162.3,16.8c-0.1,0-0.1,0-0.1,0s0-0.1,0-0.1V9.5c0-0.1,0-0.2,0.1-0.2h0.8c0.1,0,0.1,0,0.1,0.2v2.4
		c0,0.1,0,0.1,0.1,0.1c0,0,0.1,0,0.1,0c0.4-0.4,0.9-0.6,1.5-0.6c0.7,0,1.2,0.2,1.6,0.8s0.5,1.2,0.5,2c0,0.9-0.2,1.5-0.6,2
		c-0.4,0.5-1,0.7-1.7,0.7c-0.4,0-0.7-0.1-1-0.2c-0.3-0.2-0.5-0.3-0.6-0.6c0,0-0.1,0-0.1,0s0,0,0,0.1l-0.1,0.5c0,0.1,0,0.1-0.1,0.1
		c0,0-0.1,0-0.1,0H162.3z M163.2,15c0,0.2,0.1,0.4,0.2,0.6c0.1,0.2,0.3,0.3,0.5,0.4c0.2,0.1,0.4,0.2,0.6,0.2c0.4,0,0.8-0.2,1-0.5
		c0.3-0.3,0.4-0.9,0.4-1.5c0-0.7-0.1-1.2-0.4-1.5c-0.2-0.3-0.6-0.5-1-0.5c-0.3,0-0.5,0.1-0.7,0.2c-0.2,0.1-0.4,0.3-0.6,0.5V15z"/>
	<path fill="#CCCCCC" d="M169.1,16.5c-0.4-0.2-0.7-0.6-0.9-1c-0.2-0.4-0.3-0.9-0.3-1.4c0-0.5,0.1-1,0.3-1.4c0.2-0.4,0.5-0.8,0.9-1
		c0.4-0.2,0.8-0.4,1.3-0.4c0.5,0,1,0.1,1.3,0.4s0.7,0.6,0.9,1c0.2,0.4,0.3,0.9,0.3,1.4c0,0.5-0.1,1-0.3,1.4c-0.2,0.4-0.5,0.7-0.9,1
		c-0.4,0.2-0.8,0.3-1.3,0.3C169.9,16.9,169.5,16.8,169.1,16.5z M171.6,15.6c0.3-0.4,0.4-0.8,0.4-1.5c0-0.6-0.1-1.1-0.4-1.5
		s-0.6-0.5-1.1-0.5s-0.8,0.2-1.1,0.5s-0.4,0.9-0.4,1.5c0,0.6,0.1,1.1,0.4,1.5s0.6,0.5,1.1,0.5C170.9,16.1,171.3,16,171.6,15.6z"/>
	<path fill="#CCCCCC" d="M175.2,16.6c0,0.1,0,0.1,0,0.2c0,0-0.1,0-0.2,0h-0.7c-0.1,0-0.1,0-0.1,0s0-0.1,0-0.1l0-7.1
		c0-0.1,0-0.2,0.1-0.2h0.8c0.1,0,0.1,0,0.1,0.2V16.6z"/>
	<path fill="#CCCCCC" d="M176.6,16.6v-5c0-0.1,0-0.1,0.1-0.1h0.8c0.1,0,0.1,0,0.1,0.1v0.5c0,0,0,0.1,0,0.1s0,0,0.1,0
		c0.3-0.3,0.6-0.5,0.9-0.6s0.5-0.2,0.9-0.2c0.4,0,0.7,0.1,0.9,0.2c0.2,0.2,0.4,0.4,0.5,0.7c0,0,0,0,0,0c0,0,0.1,0,0.1,0
		c0.3-0.3,0.6-0.5,0.9-0.7c0.3-0.2,0.6-0.2,0.9-0.2c0.5,0,0.9,0.1,1.1,0.4c0.3,0.3,0.4,0.7,0.4,1.1v3.7c0,0.1-0.1,0.2-0.2,0.2h-0.7
		c-0.1,0-0.1,0-0.1,0c0,0,0-0.1,0-0.1v-3.5c0-0.3-0.1-0.5-0.2-0.7c-0.1-0.2-0.4-0.2-0.7-0.2c-0.4,0-0.8,0.2-1.3,0.6
		c0,0-0.1,0.1-0.1,0.1c0,0,0,0.1,0,0.2v3.5c0,0.1-0.1,0.2-0.2,0.2h-0.7c-0.1,0-0.2-0.1-0.2-0.2v-3.5c0-0.3-0.1-0.5-0.2-0.7
		c-0.1-0.2-0.4-0.2-0.7-0.2c-0.2,0-0.5,0.1-0.7,0.2c-0.2,0.1-0.5,0.3-0.7,0.6v3.7c0,0.1,0,0.1,0,0.1s-0.1,0-0.1,0h-0.7
		C176.7,16.8,176.6,16.7,176.6,16.6z"/>
	<path fill="#CCCCCC" d="M186.8,10.4c0,0.1,0,0.1,0,0.2s-0.1,0-0.2,0h-0.7c-0.1,0-0.1,0-0.1,0c0,0,0-0.1,0-0.1V9.5
		c0-0.1,0.1-0.2,0.2-0.2h0.8c0,0,0.1,0,0.1,0s0,0.1,0,0.1V10.4z M186.8,16.6c0,0.1,0,0.1,0,0.2c0,0-0.1,0-0.2,0h-0.7
		c-0.1,0-0.1,0-0.1,0s0-0.1,0-0.1v-5c0-0.1,0-0.1,0-0.1c0,0,0.1,0,0.1,0h0.8c0.1,0,0.1,0,0.1,0.1V16.6z"/>
	<path fill="#CCCCCC" d="M191.8,11.8c0.4,0.2,0.6,0.6,0.8,1c0,0,0,0.1,0,0.1c0,0,0,0.1-0.1,0.1l-0.7,0.1h0c0,0-0.1,0-0.1-0.1
		c-0.2-0.3-0.4-0.5-0.5-0.6c-0.2-0.1-0.4-0.2-0.6-0.2c-0.5,0-0.8,0.2-1.1,0.5s-0.4,0.8-0.4,1.5c0,0.6,0.1,1.1,0.4,1.5
		c0.3,0.4,0.7,0.5,1.1,0.5c0.3,0,0.6-0.1,0.8-0.2s0.4-0.4,0.6-0.7c0,0,0,0,0.1,0c0,0,0,0,0.1,0l0.5,0.2c0.1,0,0.1,0.1,0,0.1
		c-0.2,0.4-0.5,0.7-0.8,1s-0.8,0.4-1.4,0.4c-0.5,0-0.9-0.1-1.3-0.3c-0.4-0.2-0.7-0.6-0.9-1s-0.3-0.9-0.3-1.4s0.1-1,0.3-1.4
		c0.2-0.4,0.5-0.7,0.9-1s0.8-0.4,1.3-0.4C191,11.4,191.4,11.5,191.8,11.8z"/>
	<path fill="#CCCCCC" d="M196.3,12.3c-0.2-0.1-0.5-0.2-0.8-0.2c-0.3,0-0.6,0.1-0.8,0.2c-0.2,0.1-0.3,0.3-0.3,0.6
		c0,0.1,0.1,0.3,0.2,0.4c0.1,0.1,0.3,0.2,0.6,0.3l1.2,0.3c0.5,0.1,0.8,0.3,1,0.6c0.2,0.2,0.3,0.5,0.3,0.9c0,0.3-0.1,0.6-0.3,0.8
		c-0.2,0.2-0.5,0.4-0.8,0.6c-0.3,0.1-0.7,0.2-1.2,0.2c-0.5,0-1-0.1-1.4-0.3c-0.4-0.2-0.7-0.5-0.9-0.8c0,0,0-0.1,0-0.1
		c0,0,0-0.1,0-0.1l0.5-0.3c0,0,0.1,0,0.1,0c0,0,0.1,0,0.1,0c0.4,0.5,0.9,0.8,1.6,0.8c0.4,0,0.7-0.1,0.9-0.2c0.2-0.1,0.4-0.3,0.4-0.6
		c0-0.2-0.1-0.3-0.2-0.4c-0.1-0.1-0.4-0.2-0.7-0.3l-1-0.3c-0.5-0.1-0.9-0.3-1.1-0.5c-0.2-0.2-0.3-0.5-0.3-0.9c0-0.3,0.1-0.6,0.3-0.8
		s0.4-0.4,0.7-0.6c0.3-0.1,0.7-0.2,1.1-0.2c0.5,0,0.9,0.1,1.2,0.3c0.4,0.2,0.6,0.4,0.8,0.7c0,0,0,0.1,0,0.1c0,0,0,0.1,0,0.1
		l-0.5,0.3c0,0,0,0-0.1,0c0,0-0.1,0-0.1,0C196.7,12.5,196.5,12.4,196.3,12.3z"/>
</g>
<circle fill="#CCCCCC" cx="132.9" cy="13" r="1.3"/>
<path fill="none" stroke="#000000" stroke-width="0.6752" stroke-miterlimit="10" d="M2.2,14.1"/>
<g>
</g>
<g>
</g>
<g>
</g>
<g>
</g>
<g>
</g>
<g>
</g>
<g>
</g>
<g>
</g>
<g>
</g>
<g>
</g>
<g>
</g>
<g>
</g>
<g>
</g>
<g>
</g>
<g>
</g>
</svg>
