<?xml version="1.0" encoding="utf-8"?>
<!-- Generator: Adobe Illustrator 17.1.0, SVG Export Plug-In . SVG Version: 6.00 Build 0)  -->
<!DOCTYPE svg PUBLIC "-//W3C//DTD SVG 1.1//EN" "http://www.w3.org/Graphics/SVG/1.1/DTD/svg11.dtd">
<svg version="1.1" id="Layer_1" xmlns="http://www.w3.org/2000/svg" xmlns:xlink="http://www.w3.org/1999/xlink" x="0px" y="0px"
	 width="240px" height="40px" viewBox="0 0 240 40" enable-background="new 0 0 240 40" xml:space="preserve">
<path fill="none" stroke="#42BDAE" stroke-width="0.9894" stroke-miterlimit="10" d="M13.9,20"/>
<polyline fill="none" stroke="#777777" stroke-width="0.75" stroke-miterlimit="10" points="14.7,18.5 10.2,18.5 7,13 10.2,7.5 
	14.7,7.5 "/>
<polyline fill="none" stroke="#777777" stroke-width="0.75" stroke-miterlimit="10" points="1.2,14.2 5.7,14.2 8.8,19.7 5.7,25.2 
	1.2,25.2 "/>
<g>
	<g>
		
			<line fill="none" stroke="#777777" stroke-width="0.9" stroke-linecap="round" stroke-miterlimit="10" x1="1.1" y1="1.3" x2="1.1" y2="1.3"/>
		
			<line fill="none" stroke="#777777" stroke-width="0.9" stroke-linecap="round" stroke-miterlimit="10" stroke-dasharray="0,1.4922" x1="2.6" y1="1.3" x2="4.8" y2="1.3"/>
		
			<line fill="none" stroke="#777777" stroke-width="0.9" stroke-linecap="round" stroke-miterlimit="10" x1="5.6" y1="1.3" x2="5.6" y2="1.3"/>
		
			<line fill="none" stroke="#777777" stroke-width="0.9" stroke-linecap="round" stroke-miterlimit="10" stroke-dasharray="0,1.5875" x1="6.4" y1="2.7" x2="8.3" y2="6.1"/>
		
			<line fill="none" stroke="#777777" stroke-width="0.9" stroke-linecap="round" stroke-miterlimit="10" x1="8.7" y1="6.8" x2="8.7" y2="6.8"/>
		
			<line fill="none" stroke="#777777" stroke-width="0.9" stroke-linecap="round" stroke-miterlimit="10" stroke-dasharray="0,1.5875" x1="8" y1="8.2" x2="6" y2="11.6"/>
		
			<line fill="none" stroke="#777777" stroke-width="0.9" stroke-linecap="round" stroke-miterlimit="10" x1="5.6" y1="12.3" x2="5.6" y2="12.3"/>
		
			<line fill="none" stroke="#777777" stroke-width="0.9" stroke-linecap="round" stroke-miterlimit="10" stroke-dasharray="0,1.4922" x1="4.1" y1="12.3" x2="1.8" y2="12.3"/>
		
			<line fill="none" stroke="#777777" stroke-width="0.9" stroke-linecap="round" stroke-miterlimit="10" x1="1.1" y1="12.3" x2="1.1" y2="12.3"/>
	</g>
</g>
<path fill="none" stroke="#000000" stroke-width="0.6752" stroke-miterlimit="10" d="M3,14.1"/>
<g>
	<path fill="#777777" d="M23.5,13.2c-0.5,0.4-1.1,0.6-1.9,0.6H20c-0.1,0-0.1,0-0.1,0.1v2.8c0,0.1-0.1,0.2-0.2,0.2h-0.9
		c-0.1,0-0.2,0-0.2-0.2V9.5c0-0.1,0-0.1,0-0.1s0.1,0,0.1,0h2.7c0.8,0,1.5,0.2,2,0.6c0.5,0.4,0.8,0.9,0.8,1.7
		C24.3,12.3,24,12.8,23.5,13.2z M21.4,10.3H20c-0.1,0-0.1,0-0.1,0s0,0.1,0,0.1v2.3c0,0.1,0,0.1,0.1,0.1h1.5c0.5,0,0.9-0.1,1.1-0.3
		c0.3-0.2,0.4-0.6,0.4-1C23,10.7,22.5,10.3,21.4,10.3z"/>
	<path fill="#777777" d="M25.1,16.6v-5c0-0.1,0-0.1,0.1-0.1H26c0.1,0,0.1,0,0.1,0.1v0.6c0,0,0,0.1,0,0.1s0,0,0.1,0
		c0.2-0.3,0.5-0.5,0.8-0.7c0.3-0.2,0.5-0.2,0.8-0.2c0.2,0,0.4,0,0.4,0.1v0.8c0,0.1,0,0.1-0.1,0.1c-0.1,0-0.3,0-0.5,0
		c-0.2,0-0.4,0.1-0.6,0.2c-0.2,0.1-0.4,0.2-0.5,0.4c-0.1,0.2-0.2,0.3-0.2,0.5v3.2c0,0.1-0.1,0.2-0.2,0.2h-0.7
		C25.1,16.8,25.1,16.7,25.1,16.6z"/>
	<path fill="#777777" d="M29.4,16.5c-0.4-0.2-0.7-0.6-0.9-1c-0.2-0.4-0.3-0.9-0.3-1.4c0-0.5,0.1-1,0.3-1.4c0.2-0.4,0.5-0.8,0.9-1
		s0.8-0.4,1.3-0.4c0.5,0,1,0.1,1.3,0.4c0.4,0.2,0.7,0.6,0.9,1c0.2,0.4,0.3,0.9,0.3,1.4c0,0.5-0.1,1-0.3,1.4c-0.2,0.4-0.5,0.7-0.9,1
		s-0.8,0.3-1.3,0.3C30.3,16.9,29.8,16.8,29.4,16.5z M31.9,15.6c0.3-0.4,0.4-0.8,0.4-1.5c0-0.6-0.1-1.1-0.4-1.5
		c-0.3-0.4-0.6-0.5-1.1-0.5s-0.8,0.2-1.1,0.5s-0.4,0.9-0.4,1.5c0,0.6,0.1,1.1,0.4,1.5s0.6,0.5,1.1,0.5C31.2,16.1,31.6,16,31.9,15.6z
		"/>
	<path fill="#777777" d="M35.8,12.3C35.8,12.3,35.8,12.3,35.8,12.3l-0.1,3c0,0.3,0.1,0.5,0.2,0.6C36,16,36.2,16,36.4,16H37
		c0.1,0,0.1,0,0.1,0.1v0.4c0,0.1-0.1,0.1-0.2,0.2c-0.2,0-0.6,0-1,0c-0.4,0-0.8-0.1-1-0.3s-0.3-0.5-0.3-0.9v-3.2c0-0.1,0-0.1-0.1-0.1
		h-0.8c-0.1,0-0.1,0-0.1-0.1v-0.5c0-0.1,0-0.1,0.1-0.1h0.8c0.1,0,0.1,0,0.1-0.1l0.1-1.6c0-0.1,0.1-0.1,0.1-0.1h0.7
		c0.1,0,0.1,0.1,0.1,0.2v1.6c0,0.1,0,0.1,0.1,0.1h1.2c0.1,0,0.1,0,0.1,0.1v0.5c0,0.1,0,0.1-0.1,0.1H35.8z"/>
	<path fill="#777777" d="M38.9,15.3c0.1,0.2,0.3,0.4,0.6,0.6s0.5,0.2,0.8,0.2c0.3,0,0.6-0.1,0.8-0.2c0.2-0.1,0.5-0.3,0.7-0.6
		c0,0,0,0,0.1,0c0,0,0.1,0,0.1,0l0.5,0.2c0,0,0.1,0,0.1,0.1c0,0,0,0,0,0.1c-0.3,0.4-0.6,0.7-1,0.9c-0.4,0.2-0.8,0.3-1.3,0.3
		c-0.5,0-0.9-0.1-1.3-0.3s-0.7-0.5-0.9-1s-0.3-0.9-0.3-1.4c0-0.6,0.1-1.1,0.3-1.5c0.2-0.4,0.5-0.8,0.9-1c0.4-0.2,0.8-0.3,1.3-0.3
		c0.5,0,0.9,0.1,1.3,0.3c0.4,0.2,0.7,0.5,0.9,0.9c0.2,0.4,0.3,0.9,0.3,1.5v0c0,0.1,0,0.1,0,0.1c0,0-0.1,0-0.1,0h-3.7
		c-0.1,0-0.1,0.1-0.1,0.2C38.7,14.8,38.7,15.1,38.9,15.3z M41.4,13.7c0.1,0,0.1,0,0.1,0c0,0,0-0.1,0-0.1c0-0.3-0.1-0.5-0.2-0.7
		c-0.1-0.2-0.3-0.4-0.5-0.5c-0.2-0.1-0.5-0.2-0.7-0.2c-0.3,0-0.6,0.1-0.8,0.2c-0.2,0.1-0.4,0.3-0.5,0.6c-0.1,0.2-0.2,0.5-0.2,0.8
		L41.4,13.7z"/>
	<path fill="#777777" d="M44.8,10.4c0,0.1,0,0.1,0,0.2c0,0-0.1,0-0.2,0h-0.7c-0.1,0-0.1,0-0.1,0c0,0,0-0.1,0-0.1V9.5
		c0-0.1,0.1-0.2,0.1-0.2h0.8c0,0,0.1,0,0.1,0c0,0,0,0.1,0,0.1V10.4z M44.7,16.6c0,0.1,0,0.1,0,0.2c0,0-0.1,0-0.2,0h-0.7
		c-0.1,0-0.1,0-0.1,0c0,0,0-0.1,0-0.1v-5c0-0.1,0-0.1,0-0.1s0.1,0,0.1,0h0.8c0.1,0,0.1,0,0.1,0.1V16.6z"/>
	<path fill="#777777" d="M46.1,16.6v-5c0-0.1,0-0.1,0.1-0.1h0.8c0.1,0,0.1,0,0.1,0.1v0.5c0,0,0,0.1,0,0.1c0,0,0,0,0.1,0
		c0.3-0.3,0.7-0.5,0.9-0.6s0.6-0.2,0.9-0.2c0.5,0,0.9,0.1,1.2,0.4c0.3,0.3,0.4,0.6,0.4,1.1v3.7c0,0.1-0.1,0.2-0.2,0.2h-0.7
		c-0.1,0-0.1-0.1-0.1-0.2v-3.5c0-0.3-0.1-0.5-0.2-0.7c-0.2-0.2-0.4-0.2-0.7-0.2c-0.3,0-0.5,0.1-0.7,0.2c-0.2,0.1-0.5,0.3-0.8,0.6
		v3.7c0,0.1,0,0.1,0,0.1c0,0-0.1,0-0.1,0h-0.7C46.2,16.8,46.1,16.7,46.1,16.6z"/>
	<path fill="#777777" d="M56.3,9.4c1.3,0,2.3,0.3,3,1c0.6,0.6,0.9,1.5,0.9,2.7c0,1.2-0.3,2.2-1,2.8s-1.7,1-3,1h-1.7
		c-0.1,0-0.2-0.1-0.2-0.2V9.5c0-0.1,0-0.1,0-0.1s0.1,0,0.1,0C55.3,9.4,55.9,9.4,56.3,9.4z M55.5,10.4v5.4c0,0,0,0.1,0,0.1
		c0,0,0,0,0.1,0H56c0.7,0,1.2-0.1,1.7-0.3s0.7-0.5,1-0.9c0.2-0.4,0.3-1,0.3-1.7c0-0.7-0.1-1.2-0.3-1.6c-0.2-0.4-0.5-0.7-0.9-0.9
		s-0.9-0.3-1.5-0.3l-0.6,0C55.6,10.3,55.5,10.3,55.5,10.4z"/>
	<path fill="#777777" d="M61.3,18.4c-0.1,0-0.1-0.1-0.1-0.1v-0.5c0-0.1,0.1-0.1,0.3-0.1h0.6c0.1,0,0.3,0,0.4-0.1
		c0.1-0.1,0.2-0.2,0.3-0.4c0.1-0.2,0.1-0.3,0.1-0.5c0-0.1,0-0.2,0-0.2L61,11.7c0,0,0,0,0-0.1c0-0.1,0-0.1,0.1-0.1H62
		c0,0,0.1,0,0.1,0c0,0,0.1,0.1,0.1,0.1l1.4,3.6c0,0.1,0,0.1,0.1,0.1c0,0,0.1,0,0.1-0.1l1.4-3.6c0-0.1,0.1-0.1,0.2-0.1h0.6
		c0,0,0.1,0,0.1,0.1c0,0,0,0.1,0,0.1l-2.1,5.5c-0.1,0.4-0.3,0.6-0.5,0.8c-0.2,0.2-0.4,0.3-0.6,0.4s-0.5,0.1-0.9,0.1
		C61.6,18.4,61.4,18.4,61.3,18.4z"/>
	<path fill="#777777" d="M66.9,16.6v-5c0-0.1,0-0.1,0.1-0.1h0.8c0.1,0,0.1,0,0.1,0.1v0.5c0,0,0,0.1,0,0.1c0,0,0,0,0.1,0
		c0.3-0.3,0.7-0.5,0.9-0.6s0.6-0.2,0.9-0.2c0.5,0,0.9,0.1,1.2,0.4c0.3,0.3,0.4,0.6,0.4,1.1v3.7c0,0.1-0.1,0.2-0.2,0.2h-0.7
		c-0.1,0-0.1-0.1-0.1-0.2v-3.5c0-0.3-0.1-0.5-0.2-0.7c-0.2-0.2-0.4-0.2-0.7-0.2c-0.3,0-0.5,0.1-0.7,0.2c-0.2,0.1-0.5,0.3-0.8,0.6
		v3.7c0,0.1,0,0.1,0,0.1c0,0-0.1,0-0.1,0H67C66.9,16.8,66.9,16.7,66.9,16.6z"/>
	<path fill="#777777" d="M74.1,16.9c-0.5,0-0.9-0.1-1.2-0.4c-0.3-0.3-0.4-0.6-0.4-1.1c0-0.5,0.2-1,0.7-1.3c0.5-0.3,1.1-0.5,2-0.5
		l0.7-0.1c0.1,0,0.2-0.1,0.2-0.1v-0.2c0-0.3-0.1-0.6-0.3-0.8c-0.2-0.2-0.5-0.3-0.8-0.3c-0.5,0-1,0.2-1.3,0.7c0,0,0,0.1-0.1,0.1
		s-0.1,0-0.1,0l-0.7-0.2c0,0-0.1,0-0.1-0.1c0,0,0-0.1,0-0.1c0.2-0.4,0.5-0.6,0.9-0.8c0.4-0.2,0.8-0.3,1.4-0.3c0.7,0,1.2,0.2,1.6,0.5
		s0.5,0.7,0.5,1.2v3.5c0,0.1,0,0.1,0,0.1c0,0-0.1,0-0.1,0h-0.7c-0.1,0-0.1-0.1-0.2-0.2l0-0.4c0-0.1,0-0.1-0.1-0.1c0,0-0.1,0-0.1,0.1
		C75.3,16.7,74.7,16.9,74.1,16.9z M75.8,14.2l-0.5,0c-0.6,0-1,0.1-1.3,0.3c-0.3,0.2-0.5,0.5-0.5,0.8c0,0.3,0.1,0.5,0.3,0.6
		c0.2,0.2,0.4,0.2,0.8,0.2c0.4,0,0.7-0.1,1-0.4c0.3-0.2,0.4-0.5,0.4-0.7v-0.8C75.9,14.2,75.9,14.1,75.8,14.2z"/>
	<path fill="#777777" d="M78.3,16.6v-5c0-0.1,0-0.1,0.1-0.1h0.8c0.1,0,0.1,0,0.1,0.1v0.5c0,0,0,0.1,0,0.1c0,0,0,0,0.1,0
		c0.3-0.3,0.6-0.5,0.9-0.6c0.3-0.1,0.5-0.2,0.9-0.2c0.4,0,0.7,0.1,0.9,0.2c0.2,0.2,0.4,0.4,0.5,0.7c0,0,0,0,0,0c0,0,0.1,0,0.1,0
		c0.3-0.3,0.6-0.5,0.9-0.7c0.3-0.2,0.6-0.2,0.9-0.2c0.5,0,0.9,0.1,1.1,0.4c0.3,0.3,0.4,0.7,0.4,1.1v3.7c0,0.1-0.1,0.2-0.2,0.2h-0.7
		c-0.1,0-0.1,0-0.1,0s0-0.1,0-0.1v-3.5c0-0.3-0.1-0.5-0.2-0.7c-0.1-0.2-0.4-0.2-0.7-0.2c-0.4,0-0.8,0.2-1.3,0.6c0,0-0.1,0.1-0.1,0.1
		s0,0.1,0,0.2v3.5c0,0.1-0.1,0.2-0.2,0.2h-0.7c-0.1,0-0.2-0.1-0.2-0.2v-3.5c0-0.3-0.1-0.5-0.2-0.7c-0.1-0.2-0.4-0.2-0.7-0.2
		c-0.2,0-0.5,0.1-0.7,0.2c-0.2,0.1-0.5,0.3-0.7,0.6v3.7c0,0.1,0,0.1,0,0.1c0,0-0.1,0-0.1,0h-0.7C78.3,16.8,78.3,16.7,78.3,16.6z"/>
	<path fill="#777777" d="M88.5,10.4c0,0.1,0,0.1,0,0.2s-0.1,0-0.2,0h-0.7c-0.1,0-0.1,0-0.1,0c0,0,0-0.1,0-0.1V9.5
		c0-0.1,0-0.2,0.2-0.2h0.8c0,0,0.1,0,0.1,0s0,0.1,0,0.1V10.4z M88.4,16.6c0,0.1,0,0.1,0,0.2s-0.1,0-0.2,0h-0.7c-0.1,0-0.1,0-0.1,0
		c0,0,0-0.1,0-0.1v-5c0-0.1,0-0.1,0-0.1c0,0,0.1,0,0.1,0h0.8c0.1,0,0.1,0,0.1,0.1V16.6z"/>
	<path fill="#777777" d="M93.4,11.8c0.4,0.2,0.6,0.6,0.8,1c0,0,0,0.1,0,0.1c0,0,0,0.1-0.1,0.1L93.5,13h0c0,0-0.1,0-0.1-0.1
		c-0.2-0.3-0.4-0.5-0.5-0.6c-0.2-0.1-0.4-0.2-0.6-0.2c-0.5,0-0.8,0.2-1.1,0.5s-0.4,0.8-0.4,1.5c0,0.6,0.1,1.1,0.4,1.5
		s0.7,0.5,1.1,0.5c0.3,0,0.6-0.1,0.8-0.2s0.4-0.4,0.6-0.7c0,0,0,0,0.1,0c0,0,0,0,0.1,0l0.5,0.2c0.1,0,0.1,0.1,0,0.1
		c-0.2,0.4-0.5,0.7-0.8,1s-0.8,0.4-1.4,0.4c-0.5,0-0.9-0.1-1.3-0.3c-0.4-0.2-0.7-0.6-0.9-1s-0.3-0.9-0.3-1.4s0.1-1,0.3-1.4
		c0.2-0.4,0.5-0.7,0.9-1s0.8-0.4,1.3-0.4C92.6,11.4,93.1,11.5,93.4,11.8z"/>
	<path fill="#777777" d="M97.9,12.3c-0.2-0.1-0.5-0.2-0.8-0.2c-0.3,0-0.6,0.1-0.8,0.2c-0.2,0.1-0.3,0.3-0.3,0.6
		c0,0.1,0.1,0.3,0.2,0.4s0.3,0.2,0.6,0.3l1.2,0.3c0.5,0.1,0.8,0.3,1,0.6c0.2,0.2,0.3,0.5,0.3,0.9c0,0.3-0.1,0.6-0.3,0.8
		c-0.2,0.2-0.5,0.4-0.8,0.6c-0.3,0.1-0.7,0.2-1.2,0.2c-0.5,0-1-0.1-1.4-0.3s-0.7-0.5-0.9-0.8c0,0,0-0.1,0-0.1c0,0,0-0.1,0-0.1
		l0.5-0.3c0,0,0.1,0,0.1,0c0,0,0.1,0,0.1,0c0.4,0.5,0.9,0.8,1.6,0.8c0.4,0,0.7-0.1,0.9-0.2c0.2-0.1,0.4-0.3,0.4-0.6
		c0-0.2-0.1-0.3-0.2-0.4c-0.1-0.1-0.4-0.2-0.7-0.3l-1-0.3c-0.5-0.1-0.9-0.3-1.1-0.5c-0.2-0.2-0.3-0.5-0.3-0.9c0-0.3,0.1-0.6,0.3-0.8
		c0.2-0.2,0.4-0.4,0.7-0.6c0.3-0.1,0.7-0.2,1.1-0.2c0.5,0,0.9,0.1,1.2,0.3c0.4,0.2,0.6,0.4,0.8,0.7c0,0,0,0.1,0,0.1
		c0,0,0,0.1-0.1,0.1l-0.5,0.3c0,0,0,0-0.1,0c0,0-0.1,0-0.1,0C98.4,12.5,98.2,12.4,97.9,12.3z"/>
</g>
<circle fill="#777777" cx="12.9" cy="13" r="1.3"/>
<path fill="none" stroke="#42BDAE" stroke-width="0.9894" stroke-miterlimit="10" d="M133.9,20"/>
<polyline fill="none" stroke="#CCCCCC" stroke-width="0.75" stroke-miterlimit="10" points="134.7,18.5 130.2,18.5 127,13 
	130.2,7.5 134.7,7.5 "/>
<polyline fill="none" stroke="#CCCCCC" stroke-width="0.75" stroke-miterlimit="10" points="121.2,14.2 125.7,14.2 128.8,19.7 
	125.7,25.2 121.2,25.2 "/>
<g>
	<g>
		
			<line fill="none" stroke="#CCCCCC" stroke-width="0.9" stroke-linecap="round" stroke-miterlimit="10" x1="121.1" y1="1.3" x2="121.1" y2="1.3"/>
		
			<line fill="none" stroke="#CCCCCC" stroke-width="0.9" stroke-linecap="round" stroke-miterlimit="10" stroke-dasharray="0,1.4922" x1="122.6" y1="1.3" x2="124.8" y2="1.3"/>
		
			<line fill="none" stroke="#CCCCCC" stroke-width="0.9" stroke-linecap="round" stroke-miterlimit="10" x1="125.6" y1="1.3" x2="125.6" y2="1.3"/>
		
			<line fill="none" stroke="#CCCCCC" stroke-width="0.9" stroke-linecap="round" stroke-miterlimit="10" stroke-dasharray="0,1.5875" x1="126.4" y1="2.7" x2="128.3" y2="6.1"/>
		
			<line fill="none" stroke="#CCCCCC" stroke-width="0.9" stroke-linecap="round" stroke-miterlimit="10" x1="128.7" y1="6.8" x2="128.7" y2="6.8"/>
		
			<line fill="none" stroke="#CCCCCC" stroke-width="0.9" stroke-linecap="round" stroke-miterlimit="10" stroke-dasharray="0,1.5875" x1="128" y1="8.2" x2="126" y2="11.6"/>
		
			<line fill="none" stroke="#CCCCCC" stroke-width="0.9" stroke-linecap="round" stroke-miterlimit="10" x1="125.6" y1="12.3" x2="125.6" y2="12.3"/>
		
			<line fill="none" stroke="#CCCCCC" stroke-width="0.9" stroke-linecap="round" stroke-miterlimit="10" stroke-dasharray="0,1.4922" x1="124.1" y1="12.3" x2="121.8" y2="12.3"/>
		
			<line fill="none" stroke="#CCCCCC" stroke-width="0.9" stroke-linecap="round" stroke-miterlimit="10" x1="121.1" y1="12.3" x2="121.1" y2="12.3"/>
	</g>
</g>
<g>
	<path fill="#CCCCCC" d="M143.5,13.2c-0.5,0.4-1.1,0.6-1.9,0.6H140c-0.1,0-0.1,0-0.1,0.1v2.8c0,0.1-0.1,0.2-0.2,0.2h-0.9
		c-0.1,0-0.2,0-0.2-0.2V9.5c0-0.1,0-0.1,0-0.1c0,0,0.1,0,0.1,0h2.7c0.8,0,1.5,0.2,2,0.6s0.8,0.9,0.8,1.7
		C144.3,12.3,144,12.8,143.5,13.2z M141.4,10.3H140c-0.1,0-0.1,0-0.1,0s0,0.1,0,0.1v2.3c0,0.1,0,0.1,0.1,0.1h1.5
		c0.5,0,0.9-0.1,1.1-0.3c0.3-0.2,0.4-0.6,0.4-1C143,10.7,142.5,10.3,141.4,10.3z"/>
	<path fill="#CCCCCC" d="M145.1,16.6v-5c0-0.1,0-0.1,0.1-0.1h0.8c0.1,0,0.1,0,0.1,0.1v0.6c0,0,0,0.1,0,0.1s0,0,0.1,0
		c0.2-0.3,0.5-0.5,0.8-0.7s0.5-0.2,0.8-0.2c0.2,0,0.3,0,0.3,0.1v0.8c0,0.1,0,0.1-0.1,0.1c-0.1,0-0.3,0-0.5,0c-0.2,0-0.4,0.1-0.6,0.2
		c-0.2,0.1-0.4,0.2-0.5,0.4c-0.1,0.2-0.2,0.3-0.2,0.5v3.2c0,0.1-0.1,0.2-0.2,0.2h-0.7C145.1,16.8,145.1,16.7,145.1,16.6z"/>
	<path fill="#CCCCCC" d="M149.4,16.5c-0.4-0.2-0.7-0.6-0.9-1c-0.2-0.4-0.3-0.9-0.3-1.4c0-0.5,0.1-1,0.3-1.4c0.2-0.4,0.5-0.8,0.9-1
		c0.4-0.2,0.8-0.4,1.3-0.4c0.5,0,1,0.1,1.3,0.4s0.7,0.6,0.9,1c0.2,0.4,0.3,0.9,0.3,1.4c0,0.5-0.1,1-0.3,1.4c-0.2,0.4-0.5,0.7-0.9,1
		c-0.4,0.2-0.8,0.3-1.3,0.3C150.3,16.9,149.8,16.8,149.4,16.5z M151.9,15.6c0.3-0.4,0.4-0.8,0.4-1.5c0-0.6-0.1-1.1-0.4-1.5
		s-0.6-0.5-1.1-0.5s-0.8,0.2-1.1,0.5s-0.4,0.9-0.4,1.5c0,0.6,0.1,1.1,0.4,1.5s0.6,0.5,1.1,0.5C151.2,16.1,151.6,16,151.9,15.6z"/>
	<path fill="#CCCCCC" d="M155.8,12.3C155.8,12.3,155.8,12.3,155.8,12.3l-0.1,3c0,0.3,0.1,0.5,0.2,0.6s0.3,0.2,0.5,0.2h0.6
		c0.1,0,0.1,0,0.1,0.1v0.4c0,0.1,0,0.1-0.2,0.2c-0.2,0-0.6,0-1,0c-0.4,0-0.8-0.1-1-0.3c-0.2-0.2-0.3-0.5-0.3-0.9v-3.2
		c0-0.1,0-0.1-0.1-0.1h-0.8c-0.1,0-0.1,0-0.1-0.1v-0.5c0-0.1,0-0.1,0.1-0.1h0.8c0.1,0,0.1,0,0.1-0.1l0.1-1.6c0-0.1,0.1-0.1,0.1-0.1
		h0.7c0.1,0,0.1,0.1,0.1,0.2v1.6c0,0.1,0,0.1,0.1,0.1h1.2c0.1,0,0.1,0,0.1,0.1v0.5c0,0.1,0,0.1-0.1,0.1H155.8z"/>
	<path fill="#CCCCCC" d="M158.9,15.3c0.1,0.2,0.3,0.4,0.6,0.6c0.2,0.1,0.5,0.2,0.8,0.2c0.3,0,0.6-0.1,0.8-0.2
		c0.2-0.1,0.5-0.3,0.7-0.6c0,0,0,0,0.1,0c0,0,0.1,0,0.1,0l0.5,0.2c0,0,0,0,0,0.1c0,0,0,0,0,0.1c-0.3,0.4-0.6,0.7-1,0.9
		c-0.4,0.2-0.8,0.3-1.3,0.3c-0.5,0-0.9-0.1-1.3-0.3s-0.7-0.5-0.9-1c-0.2-0.4-0.3-0.9-0.3-1.4c0-0.6,0.1-1.1,0.3-1.5
		c0.2-0.4,0.5-0.8,0.9-1c0.4-0.2,0.8-0.3,1.3-0.3c0.5,0,0.9,0.1,1.3,0.3c0.4,0.2,0.7,0.5,0.9,0.9c0.2,0.4,0.3,0.9,0.3,1.5v0
		c0,0.1,0,0.1,0,0.1c0,0-0.1,0-0.1,0h-3.7c-0.1,0-0.1,0.1-0.1,0.2C158.7,14.8,158.7,15.1,158.9,15.3z M161.4,13.7c0.1,0,0.1,0,0.1,0
		c0,0,0-0.1,0-0.1c0-0.3-0.1-0.5-0.2-0.7c-0.1-0.2-0.3-0.4-0.5-0.5c-0.2-0.1-0.5-0.2-0.7-0.2c-0.3,0-0.6,0.1-0.8,0.2
		c-0.2,0.1-0.4,0.3-0.5,0.6c-0.1,0.2-0.2,0.5-0.2,0.8L161.4,13.7z"/>
	<path fill="#CCCCCC" d="M164.8,10.4c0,0.1,0,0.1,0,0.2s-0.1,0-0.2,0h-0.7c-0.1,0-0.1,0-0.1,0c0,0,0-0.1,0-0.1V9.5
		c0-0.1,0.1-0.2,0.2-0.2h0.8c0,0,0.1,0,0.1,0s0,0.1,0,0.1V10.4z M164.7,16.6c0,0.1,0,0.1,0,0.2c0,0-0.1,0-0.2,0h-0.7
		c-0.1,0-0.1,0-0.1,0s0-0.1,0-0.1v-5c0-0.1,0-0.1,0-0.1c0,0,0.1,0,0.1,0h0.8c0.1,0,0.1,0,0.1,0.1V16.6z"/>
	<path fill="#CCCCCC" d="M166.1,16.6v-5c0-0.1,0-0.1,0.1-0.1h0.8c0.1,0,0.1,0,0.1,0.1v0.5c0,0,0,0.1,0,0.1c0,0,0,0,0.1,0
		c0.3-0.3,0.7-0.5,0.9-0.6s0.6-0.2,0.9-0.2c0.5,0,0.9,0.1,1.2,0.4c0.3,0.3,0.4,0.6,0.4,1.1v3.7c0,0.1-0.1,0.2-0.2,0.2h-0.7
		c-0.1,0-0.2-0.1-0.2-0.2v-3.5c0-0.3-0.1-0.5-0.2-0.7c-0.2-0.2-0.4-0.2-0.7-0.2c-0.3,0-0.5,0.1-0.7,0.2c-0.2,0.1-0.5,0.3-0.8,0.6
		v3.7c0,0.1,0,0.1,0,0.1c0,0-0.1,0-0.1,0h-0.7C166.2,16.8,166.1,16.7,166.1,16.6z"/>
	<path fill="#CCCCCC" d="M176.3,9.4c1.3,0,2.3,0.3,3,1s0.9,1.5,0.9,2.7c0,1.2-0.3,2.2-1,2.8c-0.7,0.6-1.7,1-3,1h-1.7
		c-0.1,0-0.2-0.1-0.2-0.2V9.5c0-0.1,0-0.1,0-0.1c0,0,0.1,0,0.1,0C175.3,9.4,175.9,9.4,176.3,9.4z M175.5,10.4v5.4c0,0,0,0.1,0,0.1
		s0,0,0.1,0h0.3c0.7,0,1.2-0.1,1.7-0.3s0.7-0.5,1-0.9s0.3-1,0.3-1.7c0-0.7-0.1-1.2-0.3-1.6c-0.2-0.4-0.5-0.7-0.9-0.9
		s-0.9-0.3-1.5-0.3l-0.6,0C175.6,10.3,175.5,10.3,175.5,10.4z"/>
	<path fill="#CCCCCC" d="M181.3,18.4c-0.1,0-0.1-0.1-0.1-0.1v-0.5c0-0.1,0.1-0.1,0.3-0.1h0.7c0.1,0,0.3,0,0.4-0.1
		c0.1-0.1,0.2-0.2,0.3-0.4s0.1-0.3,0.1-0.5c0-0.1,0-0.2,0-0.2l-1.9-4.8c0,0,0,0,0-0.1c0-0.1,0-0.1,0.1-0.1h0.8c0,0,0.1,0,0.1,0
		c0,0,0.1,0.1,0.1,0.1l1.4,3.6c0,0.1,0,0.1,0.1,0.1c0,0,0.1,0,0.1-0.1l1.4-3.6c0-0.1,0.1-0.1,0.2-0.1h0.6c0,0,0.1,0,0.1,0.1
		c0,0,0,0.1,0,0.1l-2.1,5.5c-0.1,0.4-0.3,0.6-0.5,0.8c-0.2,0.2-0.4,0.3-0.6,0.4c-0.2,0.1-0.5,0.1-0.9,0.1
		C181.6,18.4,181.4,18.4,181.3,18.4z"/>
	<path fill="#CCCCCC" d="M186.9,16.6v-5c0-0.1,0-0.1,0.1-0.1h0.8c0.1,0,0.1,0,0.1,0.1v0.5c0,0,0,0.1,0,0.1c0,0,0,0,0.1,0
		c0.3-0.3,0.7-0.5,0.9-0.6s0.6-0.2,0.9-0.2c0.5,0,0.9,0.1,1.2,0.4c0.3,0.3,0.4,0.6,0.4,1.1v3.7c0,0.1-0.1,0.2-0.2,0.2h-0.7
		c-0.1,0-0.2-0.1-0.2-0.2v-3.5c0-0.3-0.1-0.5-0.2-0.7c-0.2-0.2-0.4-0.2-0.7-0.2c-0.3,0-0.5,0.1-0.7,0.2c-0.2,0.1-0.5,0.3-0.8,0.6
		v3.7c0,0.1,0,0.1,0,0.1c0,0-0.1,0-0.1,0H187C186.9,16.8,186.9,16.7,186.9,16.6z"/>
	<path fill="#CCCCCC" d="M194.1,16.9c-0.5,0-0.9-0.1-1.2-0.4c-0.3-0.3-0.4-0.6-0.4-1.1c0-0.5,0.2-1,0.7-1.3c0.5-0.3,1.1-0.5,2-0.5
		l0.7-0.1c0.1,0,0.2-0.1,0.2-0.1v-0.2c0-0.3-0.1-0.6-0.3-0.8c-0.2-0.2-0.5-0.3-0.8-0.3c-0.5,0-1,0.2-1.3,0.7c0,0,0,0.1-0.1,0.1
		s-0.1,0-0.1,0l-0.7-0.2c0,0-0.1,0-0.1-0.1c0,0,0-0.1,0-0.1c0.2-0.4,0.5-0.6,0.9-0.8c0.4-0.2,0.8-0.3,1.4-0.3c0.7,0,1.2,0.2,1.6,0.5
		s0.5,0.7,0.5,1.2v3.5c0,0.1,0,0.1,0,0.1s-0.1,0-0.1,0h-0.7c-0.1,0-0.1-0.1-0.2-0.2l0-0.4c0-0.1,0-0.1-0.1-0.1c0,0-0.1,0-0.1,0.1
		C195.3,16.7,194.7,16.9,194.1,16.9z M195.8,14.2l-0.5,0c-0.6,0-1,0.1-1.3,0.3c-0.3,0.2-0.5,0.5-0.5,0.8c0,0.3,0.1,0.5,0.3,0.6
		c0.2,0.2,0.4,0.2,0.8,0.2c0.4,0,0.7-0.1,1-0.4c0.3-0.2,0.4-0.5,0.4-0.7v-0.8C195.9,14.2,195.9,14.1,195.8,14.2z"/>
	<path fill="#CCCCCC" d="M198.3,16.6v-5c0-0.1,0-0.1,0.1-0.1h0.8c0.1,0,0.1,0,0.1,0.1v0.5c0,0,0,0.1,0,0.1s0,0,0.1,0
		c0.3-0.3,0.6-0.5,0.9-0.6s0.5-0.2,0.9-0.2c0.4,0,0.7,0.1,0.9,0.2c0.2,0.2,0.4,0.4,0.5,0.7c0,0,0,0,0,0c0,0,0.1,0,0.1,0
		c0.3-0.3,0.6-0.5,0.9-0.7c0.3-0.2,0.6-0.2,0.9-0.2c0.5,0,0.9,0.1,1.1,0.4c0.3,0.3,0.4,0.7,0.4,1.1v3.7c0,0.1-0.1,0.2-0.2,0.2h-0.7
		c-0.1,0-0.1,0-0.1,0c0,0,0-0.1,0-0.1v-3.5c0-0.3-0.1-0.5-0.2-0.7c-0.1-0.2-0.4-0.2-0.7-0.2c-0.4,0-0.8,0.2-1.3,0.6
		c0,0-0.1,0.1-0.1,0.1c0,0,0,0.1,0,0.2v3.5c0,0.1-0.1,0.2-0.2,0.2h-0.7c-0.1,0-0.2-0.1-0.2-0.2v-3.5c0-0.3-0.1-0.5-0.2-0.7
		c-0.1-0.2-0.4-0.2-0.7-0.2c-0.2,0-0.5,0.1-0.7,0.2c-0.2,0.1-0.5,0.3-0.7,0.6v3.7c0,0.1,0,0.1,0,0.1s-0.1,0-0.1,0h-0.7
		C198.3,16.8,198.3,16.7,198.3,16.6z"/>
	<path fill="#CCCCCC" d="M208.5,10.4c0,0.1,0,0.1,0,0.2s-0.1,0-0.2,0h-0.7c-0.1,0-0.1,0-0.1,0c0,0,0-0.1,0-0.1V9.5
		c0-0.1,0-0.2,0.2-0.2h0.8c0,0,0.1,0,0.1,0s0,0.1,0,0.1V10.4z M208.4,16.6c0,0.1,0,0.1,0,0.2s-0.1,0-0.2,0h-0.7c-0.1,0-0.1,0-0.1,0
		c0,0,0-0.1,0-0.1v-5c0-0.1,0-0.1,0-0.1c0,0,0.1,0,0.1,0h0.8c0.1,0,0.1,0,0.1,0.1V16.6z"/>
	<path fill="#CCCCCC" d="M213.4,11.8c0.4,0.2,0.6,0.6,0.8,1c0,0,0,0.1,0,0.1c0,0,0,0.1-0.1,0.1l-0.7,0.1h0c0,0-0.1,0-0.1-0.1
		c-0.2-0.3-0.4-0.5-0.5-0.6c-0.2-0.1-0.4-0.2-0.6-0.2c-0.5,0-0.8,0.2-1.1,0.5s-0.4,0.8-0.4,1.5c0,0.6,0.1,1.1,0.4,1.5
		s0.7,0.5,1.1,0.5c0.3,0,0.6-0.1,0.8-0.2s0.4-0.4,0.6-0.7c0,0,0,0,0.1,0c0,0,0,0,0.1,0l0.5,0.2c0.1,0,0.1,0.1,0,0.1
		c-0.2,0.4-0.5,0.7-0.8,1s-0.8,0.4-1.4,0.4c-0.5,0-0.9-0.1-1.3-0.3c-0.4-0.2-0.7-0.6-0.9-1s-0.3-0.9-0.3-1.4s0.1-1,0.3-1.4
		c0.2-0.4,0.5-0.7,0.9-1s0.8-0.4,1.3-0.4C212.6,11.4,213.1,11.5,213.4,11.8z"/>
	<path fill="#CCCCCC" d="M217.9,12.3c-0.2-0.1-0.5-0.2-0.8-0.2c-0.3,0-0.6,0.1-0.8,0.2c-0.2,0.1-0.3,0.3-0.3,0.6
		c0,0.1,0.1,0.3,0.2,0.4s0.3,0.2,0.6,0.3l1.2,0.3c0.5,0.1,0.8,0.3,1,0.6c0.2,0.2,0.3,0.5,0.3,0.9c0,0.3-0.1,0.6-0.3,0.8
		c-0.2,0.2-0.5,0.4-0.8,0.6c-0.3,0.1-0.7,0.2-1.2,0.2c-0.5,0-1-0.1-1.4-0.3s-0.7-0.5-0.9-0.8c0,0,0-0.1,0-0.1c0,0,0-0.1,0-0.1
		l0.5-0.3c0,0,0.1,0,0.1,0c0,0,0.1,0,0.1,0c0.4,0.5,0.9,0.8,1.6,0.8c0.4,0,0.7-0.1,0.9-0.2c0.2-0.1,0.4-0.3,0.4-0.6
		c0-0.2-0.1-0.3-0.2-0.4c-0.1-0.1-0.4-0.2-0.7-0.3l-1-0.3c-0.5-0.1-0.9-0.3-1.1-0.5c-0.2-0.2-0.3-0.5-0.3-0.9c0-0.3,0.1-0.6,0.3-0.8
		c0.2-0.2,0.4-0.4,0.7-0.6c0.3-0.1,0.7-0.2,1.1-0.2c0.5,0,0.9,0.1,1.2,0.3c0.4,0.2,0.6,0.4,0.8,0.7c0,0,0,0.1,0,0.1
		c0,0,0,0.1-0.1,0.1l-0.5,0.3c0,0,0,0-0.1,0c0,0-0.1,0-0.1,0C218.4,12.5,218.2,12.4,217.9,12.3z"/>
</g>
<circle fill="#CCCCCC" cx="132.9" cy="13" r="1.3"/>
<path fill="none" stroke="#000000" stroke-width="0.6752" stroke-miterlimit="10" d="M2.2,14.1"/>
<path fill="none" stroke="#42BDAE" stroke-width="2.0823" stroke-miterlimit="10" d="M-2.5-26.9"/>
<g>
</g>
<g>
</g>
<g>
</g>
<g>
</g>
<g>
</g>
<g>
</g>
<g>
</g>
<g>
</g>
<g>
</g>
<g>
</g>
<g>
</g>
<g>
</g>
<g>
</g>
<g>
</g>
<g>
</g>
</svg>
