<?xml version="1.0" encoding="utf-8"?>
<!-- Generator: Adobe Illustrator 17.1.0, SVG Export Plug-In . SVG Version: 6.00 Build 0)  -->
<!DOCTYPE svg PUBLIC "-//W3C//DTD SVG 1.1//EN" "http://www.w3.org/Graphics/SVG/1.1/DTD/svg11.dtd">
<svg version="1.1" id="Layer_1" xmlns="http://www.w3.org/2000/svg" xmlns:xlink="http://www.w3.org/1999/xlink" x="0px" y="0px"
	 width="240px" height="40px" viewBox="0 0 240 40" enable-background="new 0 0 240 40" xml:space="preserve">
<path fill="none" stroke="#42BDAE" stroke-width="0.9894" stroke-miterlimit="10" d="M13.9,20"/>
<polyline fill="none" stroke="#37B34A" stroke-width="0.75" stroke-miterlimit="10" points="14.7,18.5 10.2,18.5 7,13 10.2,7.5 
	14.7,7.5 "/>
<polyline fill="none" stroke="#37B34A" stroke-width="0.75" stroke-miterlimit="10" points="1.2,14.2 5.7,14.2 8.8,19.7 5.7,25.2 
	1.2,25.2 "/>
<g>
	<g>
		
			<line fill="none" stroke="#37B34A" stroke-width="0.9" stroke-linecap="round" stroke-miterlimit="10" x1="1.1" y1="1.3" x2="1.1" y2="1.3"/>
		
			<line fill="none" stroke="#37B34A" stroke-width="0.9" stroke-linecap="round" stroke-miterlimit="10" stroke-dasharray="0,1.4922" x1="2.6" y1="1.3" x2="4.8" y2="1.3"/>
		
			<line fill="none" stroke="#37B34A" stroke-width="0.9" stroke-linecap="round" stroke-miterlimit="10" x1="5.6" y1="1.3" x2="5.6" y2="1.3"/>
		
			<line fill="none" stroke="#37B34A" stroke-width="0.9" stroke-linecap="round" stroke-miterlimit="10" stroke-dasharray="0,1.5875" x1="6.4" y1="2.7" x2="8.3" y2="6.1"/>
		
			<line fill="none" stroke="#37B34A" stroke-width="0.9" stroke-linecap="round" stroke-miterlimit="10" x1="8.7" y1="6.8" x2="8.7" y2="6.8"/>
		
			<line fill="none" stroke="#37B34A" stroke-width="0.9" stroke-linecap="round" stroke-miterlimit="10" stroke-dasharray="0,1.5875" x1="8" y1="8.2" x2="6" y2="11.6"/>
		
			<line fill="none" stroke="#37B34A" stroke-width="0.9" stroke-linecap="round" stroke-miterlimit="10" x1="5.6" y1="12.3" x2="5.6" y2="12.3"/>
		
			<line fill="none" stroke="#37B34A" stroke-width="0.9" stroke-linecap="round" stroke-miterlimit="10" stroke-dasharray="0,1.4922" x1="4.1" y1="12.3" x2="1.8" y2="12.3"/>
		
			<line fill="none" stroke="#37B34A" stroke-width="0.9" stroke-linecap="round" stroke-miterlimit="10" x1="1.1" y1="12.3" x2="1.1" y2="12.3"/>
	</g>
</g>
<path fill="none" stroke="#000000" stroke-width="0.6752" stroke-miterlimit="10" d="M3,14.1"/>
<g>
	<path fill="#777777" d="M19.7,3.9c0.1,0,0.1,0,0.1,0.2v7.1c0,0.1,0,0.1,0,0.2c0,0-0.1,0-0.2,0h-0.8c-0.1,0-0.1,0-0.1,0s0-0.1,0-0.1
		V4c0-0.1,0-0.2,0.1-0.2H19.7z"/>
	<path fill="#777777" d="M21.2,11.1v-5c0-0.1,0-0.1,0.1-0.1h0.8c0.1,0,0.1,0,0.1,0.1v0.5c0,0,0,0.1,0,0.1c0,0,0,0,0.1,0
		c0.3-0.3,0.7-0.5,0.9-0.6s0.6-0.2,0.9-0.2c0.5,0,0.9,0.1,1.2,0.4c0.3,0.3,0.4,0.6,0.4,1.1v3.7c0,0.1-0.1,0.2-0.2,0.2h-0.7
		c-0.1,0-0.1-0.1-0.1-0.2V7.6c0-0.3-0.1-0.5-0.2-0.7c-0.2-0.2-0.4-0.2-0.7-0.2c-0.3,0-0.5,0.1-0.7,0.2c-0.2,0.1-0.5,0.3-0.8,0.6v3.7
		c0,0.1,0,0.1,0,0.1c0,0-0.1,0-0.1,0h-0.7C21.3,11.3,21.2,11.2,21.2,11.1z"/>
	<path fill="#777777" d="M28.5,6.8C28.4,6.8,28.4,6.8,28.5,6.8l-0.1,3c0,0.3,0.1,0.5,0.2,0.6c0.1,0.1,0.3,0.2,0.5,0.2h0.6
		c0.1,0,0.1,0,0.1,0.1v0.4c0,0.1-0.1,0.1-0.2,0.2c-0.2,0-0.6,0-1,0c-0.4,0-0.8-0.1-1-0.3s-0.3-0.5-0.3-0.9V6.9c0-0.1,0-0.1-0.1-0.1
		h-0.8c-0.1,0-0.1,0-0.1-0.1V6.1c0-0.1,0-0.1,0.1-0.1h0.8c0.1,0,0.1,0,0.1-0.1l0.1-1.6c0-0.1,0.1-0.1,0.1-0.1h0.7
		c0.1,0,0.1,0.1,0.1,0.2v1.6c0,0.1,0,0.1,0.1,0.1h1.2c0.1,0,0.1,0,0.1,0.1v0.5c0,0.1,0,0.1-0.1,0.1H28.5z"/>
	<path fill="#777777" d="M30.6,11.1v-5c0-0.1,0-0.1,0.1-0.1h0.8c0.1,0,0.1,0,0.1,0.1v0.6c0,0,0,0.1,0,0.1s0,0,0.1,0
		c0.2-0.3,0.5-0.5,0.8-0.7C32.8,6,33,5.9,33.3,5.9c0.2,0,0.4,0,0.4,0.1v0.8c0,0.1,0,0.1-0.1,0.1c-0.1,0-0.3,0-0.5,0
		c-0.2,0-0.4,0.1-0.6,0.2c-0.2,0.1-0.4,0.2-0.5,0.4c-0.1,0.2-0.2,0.3-0.2,0.5v3.2c0,0.1-0.1,0.2-0.2,0.2h-0.7
		C30.6,11.3,30.6,11.2,30.6,11.1z"/>
	<path fill="#777777" d="M35.4,4.9c0,0.1,0,0.1,0,0.2c0,0-0.1,0-0.2,0h-0.7c-0.1,0-0.1,0-0.1,0c0,0,0-0.1,0-0.1V4
		c0-0.1,0.1-0.2,0.1-0.2h0.8c0,0,0.1,0,0.1,0c0,0,0,0.1,0,0.1V4.9z M35.4,11.1c0,0.1,0,0.1,0,0.2c0,0-0.1,0-0.2,0h-0.7
		c-0.1,0-0.1,0-0.1,0c0,0,0-0.1,0-0.1v-5c0-0.1,0-0.1,0-0.1s0.1,0,0.1,0h0.8c0.1,0,0.1,0,0.1,0.1V11.1z"/>
	<path fill="#777777" d="M36.5,11.1v-5c0-0.1,0-0.1,0.1-0.1h0.8c0.1,0,0.1,0,0.1,0.1v0.5c0,0,0,0.1,0,0.1c0,0,0,0,0.1,0
		c0.3-0.3,0.7-0.5,0.9-0.6s0.6-0.2,0.9-0.2c0.5,0,0.9,0.1,1.2,0.4c0.3,0.3,0.4,0.6,0.4,1.1v3.7c0,0.1-0.1,0.2-0.2,0.2h-0.7
		c-0.1,0-0.1-0.1-0.1-0.2V7.6c0-0.3-0.1-0.5-0.2-0.7c-0.2-0.2-0.4-0.2-0.7-0.2c-0.3,0-0.5,0.1-0.7,0.2c-0.2,0.1-0.5,0.3-0.8,0.6v3.7
		c0,0.1,0,0.1,0,0.1c0,0-0.1,0-0.1,0h-0.7C36.6,11.3,36.5,11.2,36.5,11.1z"/>
	<path fill="#777777" d="M44.8,6.8c-0.2-0.1-0.5-0.2-0.8-0.2c-0.3,0-0.6,0.1-0.8,0.2s-0.3,0.3-0.3,0.6c0,0.1,0.1,0.3,0.2,0.4
		c0.1,0.1,0.3,0.2,0.6,0.3l1.2,0.3c0.5,0.1,0.8,0.3,1,0.6c0.2,0.2,0.3,0.5,0.3,0.9c0,0.3-0.1,0.6-0.3,0.8s-0.5,0.4-0.8,0.6
		c-0.3,0.1-0.7,0.2-1.1,0.2c-0.5,0-1-0.1-1.4-0.3s-0.7-0.5-0.9-0.8c0,0,0-0.1,0-0.1c0,0,0-0.1,0-0.1l0.5-0.3c0,0,0.1,0,0.1,0
		c0,0,0.1,0,0.1,0c0.4,0.5,0.9,0.8,1.6,0.8c0.4,0,0.7-0.1,0.9-0.2c0.2-0.1,0.4-0.3,0.4-0.6c0-0.2-0.1-0.3-0.2-0.4
		c-0.1-0.1-0.4-0.2-0.7-0.3l-1-0.3c-0.5-0.1-0.9-0.3-1.1-0.5c-0.2-0.2-0.3-0.5-0.3-0.9c0-0.3,0.1-0.6,0.3-0.8s0.4-0.4,0.7-0.6
		C43.2,6,43.6,5.9,44,5.9c0.5,0,0.9,0.1,1.2,0.3c0.4,0.2,0.6,0.4,0.8,0.7c0,0,0,0.1,0,0.1c0,0,0,0.1,0,0.1l-0.5,0.3c0,0,0,0-0.1,0
		c0,0-0.1,0-0.1,0C45.2,7,45,6.9,44.8,6.8z"/>
	<path fill="#777777" d="M48.2,4.9c0,0.1,0,0.1,0,0.2c0,0-0.1,0-0.2,0h-0.7c-0.1,0-0.1,0-0.1,0c0,0,0-0.1,0-0.1V4
		c0-0.1,0.1-0.2,0.1-0.2H48c0,0,0.1,0,0.1,0c0,0,0,0.1,0,0.1V4.9z M48.1,11.1c0,0.1,0,0.1,0,0.2c0,0-0.1,0-0.2,0h-0.7
		c-0.1,0-0.1,0-0.1,0c0,0,0-0.1,0-0.1v-5c0-0.1,0-0.1,0-0.1s0.1,0,0.1,0H48c0.1,0,0.1,0,0.1,0.1V11.1z"/>
	<path fill="#777777" d="M52.9,6.3c0.4,0.2,0.6,0.6,0.8,1c0,0,0,0.1,0,0.1c0,0,0,0.1-0.1,0.1l-0.7,0.1h0c0,0-0.1,0-0.1-0.1
		c-0.2-0.3-0.4-0.5-0.5-0.6s-0.4-0.2-0.6-0.2c-0.5,0-0.8,0.2-1.1,0.5c-0.3,0.4-0.4,0.8-0.4,1.5c0,0.6,0.1,1.1,0.4,1.5
		c0.3,0.4,0.7,0.5,1.1,0.5c0.3,0,0.6-0.1,0.8-0.2S52.9,10,53,9.7c0,0,0,0,0.1,0c0,0,0,0,0.1,0l0.5,0.2c0.1,0,0.1,0.1,0,0.1
		c-0.2,0.4-0.5,0.7-0.8,1c-0.4,0.3-0.8,0.4-1.4,0.4c-0.5,0-0.9-0.1-1.3-0.3c-0.4-0.2-0.7-0.6-0.9-1C49.1,9.7,49,9.2,49,8.7
		s0.1-1,0.3-1.4c0.2-0.4,0.5-0.7,0.9-1c0.4-0.2,0.8-0.4,1.3-0.4C52.1,5.9,52.5,6,52.9,6.3z"/>
	<path fill="#777777" d="M55.8,11.4c-0.5,0-0.9-0.1-1.2-0.4c-0.3-0.3-0.4-0.6-0.4-1.1c0-0.5,0.2-1,0.7-1.3c0.5-0.3,1.1-0.5,2-0.5
		l0.7-0.1c0.1,0,0.2-0.1,0.2-0.1V7.7c0-0.3-0.1-0.6-0.3-0.8c-0.2-0.2-0.5-0.3-0.8-0.3c-0.5,0-1,0.2-1.3,0.7c0,0,0,0.1-0.1,0.1
		s-0.1,0-0.1,0l-0.7-0.2c0,0-0.1,0-0.1-0.1c0,0,0-0.1,0-0.1c0.2-0.4,0.5-0.6,0.9-0.8c0.4-0.2,0.8-0.3,1.4-0.3c0.7,0,1.2,0.2,1.6,0.5
		s0.5,0.7,0.5,1.2v3.5c0,0.1,0,0.1,0,0.1c0,0-0.1,0-0.1,0h-0.7c-0.1,0-0.1-0.1-0.2-0.2l0-0.4c0-0.1,0-0.1-0.1-0.1c0,0-0.1,0-0.1,0.1
		C57,11.2,56.5,11.4,55.8,11.4z M57.5,8.7l-0.5,0c-0.6,0-1,0.1-1.3,0.3c-0.3,0.2-0.5,0.5-0.5,0.8c0,0.3,0.1,0.5,0.3,0.6
		c0.2,0.2,0.4,0.2,0.8,0.2c0.4,0,0.7-0.1,1-0.4c0.3-0.2,0.4-0.5,0.4-0.7V8.8C57.7,8.7,57.6,8.6,57.5,8.7z"/>
	<path fill="#777777" d="M60.8,11.1c0,0.1,0,0.1,0,0.2c0,0-0.1,0-0.2,0H60c-0.1,0-0.1,0-0.1,0c0,0,0-0.1,0-0.1l0-7.1
		c0-0.1,0-0.2,0.1-0.2h0.8c0.1,0,0.1,0,0.1,0.2V11.1z"/>
	<path fill="#777777" d="M63.1,11.1c0,0.1,0,0.1,0,0.2c0,0-0.1,0-0.2,0h-0.7c-0.1,0-0.1,0-0.1,0c0,0,0-0.1,0-0.1L62,4
		c0-0.1,0-0.2,0.1-0.2h0.8c0.1,0,0.1,0,0.1,0.2V11.1z"/>
	<path fill="#777777" d="M64.1,12.9c-0.1,0-0.1-0.1-0.1-0.1v-0.5c0-0.1,0.1-0.1,0.3-0.1h0.6c0.1,0,0.3,0,0.4-0.1
		c0.1-0.1,0.2-0.2,0.3-0.4c0.1-0.2,0.1-0.3,0.1-0.5c0-0.1,0-0.2,0-0.2l-1.9-4.8c0,0,0,0,0-0.1c0-0.1,0-0.1,0.1-0.1h0.8
		c0,0,0.1,0,0.1,0c0,0,0.1,0.1,0.1,0.1l1.4,3.6c0,0.1,0,0.1,0.1,0.1c0,0,0.1,0,0.1-0.1l1.4-3.6C67.9,6,67.9,6,68,6h0.6
		c0,0,0.1,0,0.1,0.1c0,0,0,0.1,0,0.1l-2.1,5.5c-0.1,0.4-0.3,0.6-0.5,0.8c-0.2,0.2-0.4,0.3-0.6,0.4s-0.5,0.1-0.9,0.1
		C64.4,12.9,64.2,12.9,64.1,12.9z"/>
	<path fill="#777777" d="M73.4,3.9c1.3,0,2.3,0.3,3,1c0.6,0.6,0.9,1.5,0.9,2.7c0,1.2-0.3,2.2-1,2.8s-1.7,1-3,1h-1.7
		c-0.1,0-0.2-0.1-0.2-0.2V4c0-0.1,0-0.1,0-0.1s0.1,0,0.1,0C72.4,3.9,73,3.9,73.4,3.9z M72.7,4.9v5.4c0,0,0,0.1,0,0.1c0,0,0,0,0.1,0
		h0.3c0.7,0,1.2-0.1,1.7-0.3s0.7-0.5,1-0.9c0.2-0.4,0.3-1,0.3-1.7c0-0.7-0.1-1.2-0.3-1.6c-0.2-0.4-0.5-0.7-0.9-0.9S74,4.8,73.4,4.8
		l-0.6,0C72.7,4.8,72.7,4.8,72.7,4.9z"/>
	<path fill="#777777" d="M79.4,4.9c0,0.1,0,0.1,0,0.2c0,0-0.1,0-0.2,0h-0.7c-0.1,0-0.1,0-0.1,0c0,0,0-0.1,0-0.1V4
		c0-0.1,0.1-0.2,0.1-0.2h0.8c0,0,0.1,0,0.1,0c0,0,0,0.1,0,0.1V4.9z M79.4,11.1c0,0.1,0,0.1,0,0.2c0,0-0.1,0-0.2,0h-0.7
		c-0.1,0-0.1,0-0.1,0c0,0,0-0.1,0-0.1v-5c0-0.1,0-0.1,0-0.1s0.1,0,0.1,0h0.8c0.1,0,0.1,0,0.1,0.1V11.1z"/>
	<path fill="#777777" d="M83.2,6.8c-0.2-0.1-0.5-0.2-0.8-0.2c-0.3,0-0.6,0.1-0.8,0.2s-0.3,0.3-0.3,0.6c0,0.1,0.1,0.3,0.2,0.4
		C81.5,7.8,81.7,7.9,82,8l1.2,0.3c0.5,0.1,0.8,0.3,1,0.6c0.2,0.2,0.3,0.5,0.3,0.9c0,0.3-0.1,0.6-0.3,0.8s-0.5,0.4-0.8,0.6
		c-0.3,0.1-0.7,0.2-1.1,0.2c-0.5,0-1-0.1-1.4-0.3s-0.7-0.5-0.9-0.8c0,0,0-0.1,0-0.1c0,0,0-0.1,0-0.1l0.5-0.3c0,0,0.1,0,0.1,0
		c0,0,0.1,0,0.1,0c0.4,0.5,0.9,0.8,1.6,0.8c0.4,0,0.7-0.1,0.9-0.2c0.2-0.1,0.4-0.3,0.4-0.6c0-0.2-0.1-0.3-0.2-0.4
		c-0.1-0.1-0.4-0.2-0.7-0.3l-1-0.3c-0.5-0.1-0.9-0.3-1.1-0.5c-0.2-0.2-0.3-0.5-0.3-0.9c0-0.3,0.1-0.6,0.3-0.8s0.4-0.4,0.7-0.6
		C81.6,6,82,5.9,82.4,5.9c0.5,0,0.9,0.1,1.2,0.3c0.4,0.2,0.6,0.4,0.8,0.7c0,0,0,0.1,0,0.1c0,0,0,0.1,0,0.1l-0.5,0.3c0,0,0,0-0.1,0
		c0,0-0.1,0-0.1,0C83.6,7,83.4,6.9,83.2,6.8z"/>
	<path fill="#777777" d="M86.4,11c-0.4-0.2-0.7-0.6-0.9-1c-0.2-0.4-0.3-0.9-0.3-1.4c0-0.5,0.1-1,0.3-1.4c0.2-0.4,0.5-0.8,0.9-1
		c0.4-0.2,0.8-0.4,1.3-0.4c0.5,0,1,0.1,1.3,0.4c0.4,0.2,0.7,0.6,0.9,1c0.2,0.4,0.3,0.9,0.3,1.4c0,0.5-0.1,1-0.3,1.4s-0.5,0.7-0.9,1
		c-0.4,0.2-0.8,0.3-1.3,0.3C87.3,11.4,86.8,11.3,86.4,11z M88.9,10.1c0.3-0.4,0.4-0.8,0.4-1.5c0-0.6-0.1-1.1-0.4-1.5
		c-0.3-0.4-0.6-0.5-1.1-0.5s-0.8,0.2-1.1,0.5S86.3,8,86.3,8.6c0,0.6,0.1,1.1,0.4,1.5s0.6,0.5,1.1,0.5C88.2,10.6,88.6,10.5,88.9,10.1
		z"/>
	<path fill="#777777" d="M91.2,11.1v-5c0-0.1,0-0.1,0.1-0.1h0.8c0.1,0,0.1,0,0.1,0.1v0.6c0,0,0,0.1,0,0.1s0,0,0.1,0
		c0.2-0.3,0.5-0.5,0.8-0.7c0.3-0.2,0.5-0.2,0.8-0.2c0.2,0,0.3,0,0.3,0.1v0.8c0,0.1,0,0.1-0.1,0.1c-0.1,0-0.3,0-0.5,0
		c-0.2,0-0.4,0.1-0.6,0.2c-0.2,0.1-0.4,0.2-0.5,0.4c-0.1,0.2-0.2,0.3-0.2,0.5v3.2c0,0.1-0.1,0.2-0.2,0.2h-0.7
		C91.3,11.3,91.2,11.2,91.2,11.1z"/>
	<path fill="#777777" d="M98.4,11.1v-0.4c0-0.1,0-0.1,0-0.1c0,0,0,0-0.1,0c-0.2,0.2-0.4,0.4-0.7,0.5s-0.5,0.2-0.9,0.2
		c-0.4,0-0.8-0.1-1.1-0.3s-0.6-0.5-0.8-0.9s-0.3-0.9-0.3-1.5c0-0.6,0.1-1,0.3-1.5c0.2-0.4,0.5-0.8,0.8-1s0.7-0.4,1.2-0.4
		c0.3,0,0.5,0,0.8,0.1c0.2,0.1,0.4,0.2,0.6,0.4c0,0,0.1,0,0.1,0c0,0,0.1,0,0.1-0.1V4c0-0.1,0-0.2,0.1-0.2h0.8c0,0,0.1,0,0.1,0
		s0,0.1,0,0.1v7.1c0,0.1,0,0.1,0,0.1c0,0-0.1,0-0.1,0h-0.7C98.4,11.3,98.4,11.2,98.4,11.1z M97.8,6.8c-0.2-0.1-0.4-0.2-0.6-0.2
		c-0.5,0-0.8,0.2-1.1,0.5c-0.3,0.4-0.4,0.9-0.4,1.5c0,0.7,0.1,1.2,0.4,1.5s0.6,0.5,1.1,0.5c0.2,0,0.4-0.1,0.6-0.2
		c0.2-0.1,0.3-0.2,0.5-0.4s0.2-0.3,0.2-0.5V7.2C98.1,7,97.9,6.9,97.8,6.8z"/>
	<path fill="#777777" d="M101.6,9.8c0.1,0.2,0.3,0.4,0.6,0.6c0.2,0.1,0.5,0.2,0.8,0.2c0.3,0,0.6-0.1,0.8-0.2
		c0.2-0.1,0.5-0.3,0.7-0.6c0,0,0,0,0.1,0c0,0,0.1,0,0.1,0l0.5,0.2c0,0,0,0,0,0.1c0,0,0,0,0,0.1c-0.3,0.4-0.6,0.7-1,0.9
		c-0.4,0.2-0.8,0.3-1.3,0.3c-0.5,0-0.9-0.1-1.3-0.3s-0.7-0.5-0.9-1s-0.3-0.9-0.3-1.4c0-0.6,0.1-1.1,0.3-1.5c0.2-0.4,0.5-0.8,0.9-1
		c0.4-0.2,0.8-0.3,1.3-0.3c0.5,0,0.9,0.1,1.3,0.3s0.7,0.5,0.9,0.9c0.2,0.4,0.3,0.9,0.3,1.5v0c0,0.1,0,0.1,0,0.1c0,0-0.1,0-0.1,0
		h-3.7c-0.1,0-0.1,0.1-0.1,0.2C101.4,9.3,101.4,9.6,101.6,9.8z M104.1,8.2c0.1,0,0.1,0,0.1,0c0,0,0-0.1,0-0.1c0-0.3-0.1-0.5-0.2-0.7
		c-0.1-0.2-0.3-0.4-0.5-0.5c-0.2-0.1-0.5-0.2-0.7-0.2c-0.3,0-0.6,0.1-0.8,0.2c-0.2,0.1-0.4,0.3-0.5,0.6s-0.2,0.5-0.2,0.8L104.1,8.2z
		"/>
	<path fill="#777777" d="M106.1,11.1v-5c0-0.1,0-0.1,0.1-0.1h0.8c0.1,0,0.1,0,0.1,0.1v0.6c0,0,0,0.1,0,0.1s0,0,0.1,0
		c0.2-0.3,0.5-0.5,0.8-0.7c0.3-0.2,0.5-0.2,0.8-0.2c0.2,0,0.3,0,0.3,0.1v0.8c0,0.1,0,0.1-0.1,0.1c-0.1,0-0.3,0-0.5,0
		c-0.2,0-0.4,0.1-0.6,0.2c-0.2,0.1-0.4,0.2-0.5,0.4c-0.1,0.2-0.2,0.3-0.2,0.5v3.2c0,0.1-0.1,0.2-0.2,0.2h-0.7
		C106.2,11.3,106.1,11.2,106.1,11.1z"/>
	<path fill="#777777" d="M23.5,18.7c-0.5,0.4-1.1,0.6-1.9,0.6H20c-0.1,0-0.1,0-0.1,0.1v2.7c0,0.1-0.1,0.2-0.2,0.2h-0.9
		c-0.1,0-0.2,0-0.2-0.2V15c0-0.1,0-0.1,0-0.1s0.1,0,0.1,0h2.7c0.8,0,1.5,0.2,2,0.6c0.5,0.4,0.8,0.9,0.8,1.7
		C24.3,17.8,24,18.3,23.5,18.7z M21.4,15.8H20c-0.1,0-0.1,0-0.1,0s0,0.1,0,0.1v2.3c0,0.1,0,0.1,0.1,0.1h1.5c0.5,0,0.9-0.1,1.1-0.3
		c0.3-0.2,0.4-0.6,0.4-1C23,16.2,22.5,15.8,21.4,15.8z"/>
	<path fill="#777777" d="M24.8,22.1v-5c0-0.1,0-0.1,0.1-0.1h0.8c0.1,0,0.1,0,0.1,0.1v0.6c0,0,0,0.1,0,0.1s0,0,0.1,0
		c0.2-0.3,0.5-0.5,0.8-0.7c0.3-0.2,0.5-0.2,0.8-0.2c0.2,0,0.4,0,0.4,0.1v0.8c0,0.1,0,0.1-0.1,0.1c-0.1,0-0.3,0-0.5,0
		c-0.2,0-0.4,0.1-0.6,0.2c-0.2,0.1-0.4,0.2-0.5,0.4c-0.1,0.2-0.2,0.3-0.2,0.5v3.2c0,0.1-0.1,0.2-0.2,0.2H25
		C24.9,22.3,24.8,22.2,24.8,22.1z"/>
	<path fill="#777777" d="M29.1,22c-0.4-0.2-0.7-0.6-0.9-1c-0.2-0.4-0.3-0.9-0.3-1.4c0-0.5,0.1-1,0.3-1.4c0.2-0.4,0.5-0.8,0.9-1
		s0.8-0.4,1.3-0.4c0.5,0,1,0.1,1.3,0.4c0.4,0.2,0.7,0.6,0.9,1c0.2,0.4,0.3,0.9,0.3,1.4c0,0.5-0.1,1-0.3,1.4c-0.2,0.4-0.5,0.7-0.9,1
		s-0.8,0.3-1.3,0.3C30,22.4,29.5,22.3,29.1,22z M31.6,21.1c0.3-0.4,0.4-0.8,0.4-1.5c0-0.6-0.1-1.1-0.4-1.5c-0.3-0.4-0.6-0.5-1.1-0.5
		s-0.8,0.2-1.1,0.5S29,19,29,19.6c0,0.6,0.1,1.1,0.4,1.5c0.3,0.4,0.6,0.5,1.1,0.5C30.9,21.6,31.3,21.5,31.6,21.1z"/>
	<path fill="#777777" d="M35.3,17.8C35.2,17.8,35.2,17.8,35.3,17.8l-0.1,3c0,0.3,0.1,0.5,0.2,0.6c0.1,0.1,0.3,0.2,0.5,0.2h0.6
		c0.1,0,0.1,0,0.1,0.1v0.4c0,0.1-0.1,0.1-0.2,0.2c-0.2,0-0.6,0-1,0c-0.4,0-0.8-0.1-1-0.3s-0.3-0.5-0.3-0.9v-3.2c0-0.1,0-0.1-0.1-0.1
		h-0.8c-0.1,0-0.1,0-0.1-0.1v-0.5c0-0.1,0-0.1,0.1-0.1h0.8c0.1,0,0.1,0,0.1-0.1l0.1-1.6c0-0.1,0.1-0.1,0.1-0.1h0.7
		c0.1,0,0.1,0.1,0.1,0.2v1.6c0,0.1,0,0.1,0.1,0.1h1.2c0.1,0,0.1,0,0.1,0.1v0.5c0,0.1,0,0.1-0.1,0.1H35.3z"/>
	<path fill="#777777" d="M38.1,20.8c0.1,0.2,0.3,0.4,0.6,0.6s0.5,0.2,0.8,0.2c0.3,0,0.6-0.1,0.8-0.2c0.2-0.1,0.5-0.3,0.7-0.6
		c0,0,0,0,0.1,0c0,0,0.1,0,0.1,0l0.5,0.2c0,0,0.1,0,0.1,0.1c0,0,0,0,0,0.1c-0.3,0.4-0.6,0.7-1,0.9c-0.4,0.2-0.8,0.3-1.3,0.3
		c-0.5,0-0.9-0.1-1.3-0.3s-0.7-0.5-0.9-1c-0.2-0.4-0.3-0.9-0.3-1.4c0-0.6,0.1-1.1,0.3-1.5c0.2-0.4,0.5-0.8,0.9-1
		c0.4-0.2,0.8-0.3,1.3-0.3c0.5,0,0.9,0.1,1.3,0.3c0.4,0.2,0.7,0.5,0.9,0.9c0.2,0.4,0.3,0.9,0.3,1.5v0c0,0.1,0,0.1,0,0.1
		c0,0-0.1,0-0.1,0H38c-0.1,0-0.1,0.1-0.1,0.2C37.9,20.3,37.9,20.6,38.1,20.8z M40.6,19.2c0.1,0,0.1,0,0.1,0c0,0,0-0.1,0-0.1
		c0-0.3-0.1-0.5-0.2-0.7c-0.1-0.2-0.3-0.4-0.5-0.5c-0.2-0.1-0.5-0.2-0.7-0.2c-0.3,0-0.6,0.1-0.8,0.2c-0.2,0.1-0.4,0.3-0.5,0.6
		c-0.1,0.2-0.2,0.5-0.2,0.8L40.6,19.2z"/>
	<path fill="#777777" d="M43.7,15.9c0,0.1,0,0.1,0,0.2c0,0-0.1,0-0.2,0h-0.7c-0.1,0-0.1,0-0.1,0c0,0,0-0.1,0-0.1V15
		c0-0.1,0.1-0.2,0.1-0.2h0.8c0,0,0.1,0,0.1,0c0,0,0,0.1,0,0.1V15.9z M43.7,22.1c0,0.1,0,0.1,0,0.2c0,0-0.1,0-0.2,0h-0.7
		c-0.1,0-0.1,0-0.1,0c0,0,0-0.1,0-0.1v-5c0-0.1,0-0.1,0-0.1s0.1,0,0.1,0h0.8c0.1,0,0.1,0,0.1,0.1V22.1z"/>
	<path fill="#777777" d="M44.8,22.1v-5c0-0.1,0-0.1,0.1-0.1h0.8c0.1,0,0.1,0,0.1,0.1v0.5c0,0,0,0.1,0,0.1c0,0,0,0,0.1,0
		c0.3-0.3,0.7-0.5,0.9-0.6s0.6-0.2,0.9-0.2c0.5,0,0.9,0.1,1.2,0.4c0.3,0.3,0.4,0.6,0.4,1.1v3.7c0,0.1-0.1,0.2-0.2,0.2h-0.7
		c-0.1,0-0.1-0.1-0.1-0.2v-3.5c0-0.3-0.1-0.5-0.2-0.7c-0.2-0.2-0.4-0.2-0.7-0.2c-0.3,0-0.5,0.1-0.7,0.2c-0.2,0.1-0.5,0.3-0.8,0.6
		v3.7c0,0.1,0,0.1,0,0.1c0,0-0.1,0-0.1,0H45C44.9,22.3,44.8,22.2,44.8,22.1z"/>
	<path fill="#777777" d="M53.1,17.8c-0.2-0.1-0.5-0.2-0.8-0.2c-0.3,0-0.6,0.1-0.8,0.2s-0.3,0.3-0.3,0.6c0,0.1,0.1,0.3,0.2,0.4
		c0.1,0.1,0.3,0.2,0.6,0.3l1.2,0.3c0.5,0.1,0.8,0.3,1,0.6c0.2,0.2,0.3,0.5,0.3,0.9c0,0.3-0.1,0.6-0.3,0.8s-0.5,0.4-0.8,0.6
		c-0.3,0.1-0.7,0.2-1.1,0.2c-0.5,0-1-0.1-1.4-0.3s-0.7-0.5-0.9-0.8c0,0,0-0.1,0-0.1c0,0,0-0.1,0-0.1l0.5-0.3c0,0,0.1,0,0.1,0
		c0,0,0.1,0,0.1,0c0.4,0.5,0.9,0.8,1.6,0.8c0.4,0,0.7-0.1,0.9-0.2c0.2-0.1,0.4-0.3,0.4-0.6c0-0.2-0.1-0.3-0.2-0.4
		c-0.1-0.1-0.4-0.2-0.7-0.3l-1-0.3c-0.5-0.1-0.9-0.3-1.1-0.5c-0.2-0.2-0.3-0.5-0.3-0.9c0-0.3,0.1-0.6,0.3-0.8s0.4-0.4,0.7-0.6
		c0.3-0.1,0.7-0.2,1.1-0.2c0.5,0,0.9,0.1,1.2,0.3c0.4,0.2,0.6,0.4,0.8,0.7c0,0,0,0.1,0,0.1c0,0,0,0.1,0,0.1l-0.5,0.3c0,0,0,0-0.1,0
		c0,0-0.1,0-0.1,0C53.5,18,53.4,17.9,53.1,17.8z"/>
</g>
<circle fill="#37B34A" cx="12.9" cy="13" r="1.3"/>
<path fill="none" stroke="#42BDAE" stroke-width="0.9894" stroke-miterlimit="10" d="M133.9,20"/>
<polyline fill="none" stroke="#CCCCCC" stroke-width="0.75" stroke-miterlimit="10" points="134.7,18.5 130.2,18.5 127,13 
	130.2,7.5 134.7,7.5 "/>
<polyline fill="none" stroke="#CCCCCC" stroke-width="0.75" stroke-miterlimit="10" points="121.2,14.2 125.7,14.2 128.8,19.7 
	125.7,25.2 121.2,25.2 "/>
<g>
	<g>
		
			<line fill="none" stroke="#CCCCCC" stroke-width="0.9" stroke-linecap="round" stroke-miterlimit="10" x1="121.1" y1="1.3" x2="121.1" y2="1.3"/>
		
			<line fill="none" stroke="#CCCCCC" stroke-width="0.9" stroke-linecap="round" stroke-miterlimit="10" stroke-dasharray="0,1.4922" x1="122.6" y1="1.3" x2="124.8" y2="1.3"/>
		
			<line fill="none" stroke="#CCCCCC" stroke-width="0.9" stroke-linecap="round" stroke-miterlimit="10" x1="125.6" y1="1.3" x2="125.6" y2="1.3"/>
		
			<line fill="none" stroke="#CCCCCC" stroke-width="0.9" stroke-linecap="round" stroke-miterlimit="10" stroke-dasharray="0,1.5875" x1="126.4" y1="2.7" x2="128.3" y2="6.1"/>
		
			<line fill="none" stroke="#CCCCCC" stroke-width="0.9" stroke-linecap="round" stroke-miterlimit="10" x1="128.7" y1="6.8" x2="128.7" y2="6.8"/>
		
			<line fill="none" stroke="#CCCCCC" stroke-width="0.9" stroke-linecap="round" stroke-miterlimit="10" stroke-dasharray="0,1.5875" x1="128" y1="8.2" x2="126" y2="11.6"/>
		
			<line fill="none" stroke="#CCCCCC" stroke-width="0.9" stroke-linecap="round" stroke-miterlimit="10" x1="125.6" y1="12.3" x2="125.6" y2="12.3"/>
		
			<line fill="none" stroke="#CCCCCC" stroke-width="0.9" stroke-linecap="round" stroke-miterlimit="10" stroke-dasharray="0,1.4922" x1="124.1" y1="12.3" x2="121.8" y2="12.3"/>
		
			<line fill="none" stroke="#CCCCCC" stroke-width="0.9" stroke-linecap="round" stroke-miterlimit="10" x1="121.1" y1="12.3" x2="121.1" y2="12.3"/>
	</g>
</g>
<g>
	<path fill="#CCCCCC" d="M139.7,3.6c0.1,0,0.1,0,0.1,0.2v7.1c0,0.1,0,0.1,0,0.2s-0.1,0-0.2,0h-0.8c-0.1,0-0.1,0-0.1,0
		c0,0,0-0.1,0-0.1V3.8c0-0.1,0-0.2,0.1-0.2H139.7z"/>
	<path fill="#CCCCCC" d="M141.2,10.9v-5c0-0.1,0-0.1,0.1-0.1h0.8c0.1,0,0.1,0,0.1,0.1v0.5c0,0,0,0.1,0,0.1c0,0,0,0,0.1,0
		c0.3-0.3,0.7-0.5,0.9-0.6s0.6-0.2,0.9-0.2c0.5,0,0.9,0.1,1.2,0.4c0.3,0.3,0.4,0.6,0.4,1.1v3.7c0,0.1-0.1,0.2-0.2,0.2h-0.7
		c-0.1,0-0.2-0.1-0.2-0.2V7.4c0-0.3-0.1-0.5-0.2-0.7c-0.2-0.2-0.4-0.2-0.7-0.2c-0.3,0-0.5,0.1-0.7,0.2c-0.2,0.1-0.5,0.3-0.8,0.6v3.7
		c0,0.1,0,0.1,0,0.1c0,0-0.1,0-0.1,0h-0.7C141.3,11,141.2,11,141.2,10.9z"/>
	<path fill="#CCCCCC" d="M148.5,6.5C148.4,6.5,148.4,6.5,148.5,6.5l-0.1,3c0,0.3,0.1,0.5,0.2,0.6c0.1,0.1,0.3,0.2,0.5,0.2h0.6
		c0.1,0,0.1,0,0.1,0.1v0.4c0,0.1-0.1,0.1-0.2,0.2c-0.2,0-0.6,0-1,0c-0.4,0-0.8-0.1-1-0.3c-0.2-0.2-0.3-0.5-0.3-0.9V6.6
		c0-0.1,0-0.1-0.1-0.1h-0.8c-0.1,0-0.1,0-0.1-0.1V5.8c0-0.1,0-0.1,0.1-0.1h0.8c0.1,0,0.1,0,0.1-0.1l0.1-1.6c0-0.1,0.1-0.1,0.1-0.1
		h0.7c0.1,0,0.1,0.1,0.1,0.2v1.6c0,0.1,0,0.1,0.1,0.1h1.2c0.1,0,0.1,0,0.1,0.1v0.5c0,0.1,0,0.1-0.1,0.1H148.5z"/>
	<path fill="#CCCCCC" d="M150.6,10.9v-5c0-0.1,0-0.1,0.1-0.1h0.8c0.1,0,0.1,0,0.1,0.1v0.6c0,0,0,0.1,0,0.1s0,0,0.1,0
		c0.2-0.3,0.5-0.5,0.8-0.7c0.3-0.2,0.5-0.2,0.8-0.2c0.2,0,0.4,0,0.4,0.1v0.8c0,0.1,0,0.1-0.1,0.1c-0.1,0-0.3,0-0.5,0
		c-0.2,0-0.4,0.1-0.6,0.2c-0.2,0.1-0.4,0.2-0.5,0.4c-0.1,0.2-0.2,0.3-0.2,0.5v3.2c0,0.1-0.1,0.2-0.2,0.2h-0.7
		C150.6,11,150.6,11,150.6,10.9z"/>
	<path fill="#CCCCCC" d="M155.4,4.7c0,0.1,0,0.1,0,0.2s-0.1,0-0.2,0h-0.7c-0.1,0-0.1,0-0.1,0c0,0,0-0.1,0-0.1V3.8
		c0-0.1,0.1-0.2,0.2-0.2h0.8c0,0,0.1,0,0.1,0s0,0.1,0,0.1V4.7z M155.4,10.8c0,0.1,0,0.1,0,0.2c0,0-0.1,0-0.2,0h-0.7
		c-0.1,0-0.1,0-0.1,0s0-0.1,0-0.1v-5c0-0.1,0-0.1,0-0.1c0,0,0.1,0,0.1,0h0.8c0.1,0,0.1,0,0.1,0.1V10.8z"/>
	<path fill="#CCCCCC" d="M156.5,10.9v-5c0-0.1,0-0.1,0.1-0.1h0.8c0.1,0,0.1,0,0.1,0.1v0.5c0,0,0,0.1,0,0.1s0,0,0.1,0
		c0.3-0.3,0.7-0.5,0.9-0.6s0.6-0.2,0.9-0.2c0.5,0,0.9,0.1,1.2,0.4c0.3,0.3,0.4,0.6,0.4,1.1v3.7c0,0.1-0.1,0.2-0.2,0.2h-0.7
		c-0.1,0-0.1-0.1-0.1-0.2V7.4c0-0.3-0.1-0.5-0.2-0.7c-0.2-0.2-0.4-0.2-0.7-0.2c-0.3,0-0.5,0.1-0.7,0.2c-0.2,0.1-0.5,0.3-0.8,0.6v3.7
		c0,0.1,0,0.1,0,0.1s-0.1,0-0.1,0h-0.7C156.6,11,156.5,11,156.5,10.9z"/>
	<path fill="#CCCCCC" d="M164.8,6.5c-0.2-0.1-0.5-0.2-0.8-0.2c-0.3,0-0.6,0.1-0.8,0.2c-0.2,0.1-0.3,0.3-0.3,0.6
		c0,0.1,0.1,0.3,0.2,0.4s0.3,0.2,0.6,0.3l1.2,0.3c0.5,0.1,0.8,0.3,1,0.6s0.3,0.5,0.3,0.9c0,0.3-0.1,0.6-0.3,0.8
		c-0.2,0.2-0.5,0.4-0.8,0.6c-0.3,0.1-0.7,0.2-1.1,0.2c-0.5,0-1-0.1-1.4-0.3c-0.4-0.2-0.7-0.5-0.9-0.8c0,0,0-0.1,0-0.1
		c0,0,0-0.1,0-0.1l0.5-0.3c0,0,0.1,0,0.1,0c0,0,0.1,0,0.1,0c0.4,0.5,0.9,0.8,1.6,0.8c0.4,0,0.7-0.1,0.9-0.2s0.4-0.3,0.4-0.6
		c0-0.2-0.1-0.3-0.2-0.4c-0.1-0.1-0.4-0.2-0.7-0.3l-1-0.3c-0.5-0.1-0.9-0.3-1.1-0.5c-0.2-0.2-0.3-0.5-0.3-0.9c0-0.3,0.1-0.6,0.3-0.8
		s0.4-0.4,0.7-0.6s0.7-0.2,1.1-0.2c0.5,0,0.9,0.1,1.2,0.3c0.4,0.2,0.6,0.4,0.8,0.7c0,0,0,0.1,0,0.1c0,0,0,0.1,0,0.1L165.5,7
		c0,0,0,0-0.1,0c0,0-0.1,0-0.1,0C165.2,6.8,165,6.6,164.8,6.5z"/>
	<path fill="#CCCCCC" d="M168.2,4.7c0,0.1,0,0.1,0,0.2c0,0-0.1,0-0.2,0h-0.7c-0.1,0-0.1,0-0.1,0c0,0,0-0.1,0-0.1V3.8
		c0-0.1,0-0.2,0.1-0.2h0.8c0,0,0.1,0,0.1,0c0,0,0,0.1,0,0.1V4.7z M168.1,10.8c0,0.1,0,0.1,0,0.2s-0.1,0-0.2,0h-0.7
		c-0.1,0-0.1,0-0.1,0c0,0,0-0.1,0-0.1v-5c0-0.1,0-0.1,0-0.1c0,0,0.1,0,0.1,0h0.8c0.1,0,0.1,0,0.1,0.1V10.8z"/>
	<path fill="#CCCCCC" d="M172.9,6c0.4,0.2,0.6,0.6,0.8,1c0,0,0,0.1,0,0.1c0,0,0,0.1-0.1,0.1l-0.7,0.1h0c0,0-0.1,0-0.1-0.1
		c-0.2-0.3-0.4-0.5-0.5-0.6c-0.2-0.1-0.4-0.2-0.6-0.2c-0.5,0-0.8,0.2-1.1,0.5s-0.4,0.8-0.4,1.5c0,0.6,0.1,1.1,0.4,1.5
		c0.3,0.4,0.7,0.5,1.1,0.5c0.3,0,0.6-0.1,0.8-0.2s0.4-0.4,0.6-0.7c0,0,0,0,0.1,0c0,0,0,0,0.1,0l0.5,0.2c0.1,0,0.1,0.1,0,0.1
		c-0.2,0.4-0.5,0.7-0.8,1s-0.8,0.4-1.4,0.4c-0.5,0-0.9-0.1-1.3-0.3c-0.4-0.2-0.7-0.6-0.9-1S169,8.9,169,8.4s0.1-1,0.3-1.4
		c0.2-0.4,0.5-0.7,0.9-1s0.8-0.4,1.3-0.4C172.1,5.6,172.5,5.7,172.9,6z"/>
	<path fill="#CCCCCC" d="M175.8,11.1c-0.5,0-0.9-0.1-1.2-0.4s-0.4-0.6-0.4-1.1c0-0.5,0.2-1,0.7-1.3c0.5-0.3,1.1-0.5,2-0.5l0.7-0.1
		c0.1,0,0.2-0.1,0.2-0.1V7.4c0-0.3-0.1-0.6-0.3-0.8c-0.2-0.2-0.5-0.3-0.8-0.3c-0.5,0-1,0.2-1.3,0.7c0,0,0,0.1-0.1,0.1s-0.1,0-0.1,0
		l-0.7-0.2c0,0-0.1,0-0.1-0.1c0,0,0-0.1,0-0.1c0.2-0.4,0.5-0.6,0.9-0.8c0.4-0.2,0.8-0.3,1.4-0.3c0.7,0,1.2,0.2,1.6,0.5
		s0.5,0.7,0.5,1.2v3.5c0,0.1,0,0.1,0,0.1c0,0-0.1,0-0.1,0h-0.7c-0.1,0-0.1-0.1-0.2-0.2l0-0.4c0-0.1,0-0.1-0.1-0.1c0,0-0.1,0-0.1,0.1
		C177,10.9,176.5,11.1,175.8,11.1z M177.5,8.4l-0.5,0c-0.6,0-1,0.1-1.3,0.3c-0.3,0.2-0.5,0.5-0.5,0.8c0,0.3,0.1,0.5,0.3,0.6
		c0.2,0.2,0.4,0.2,0.8,0.2c0.4,0,0.7-0.1,1-0.4c0.3-0.2,0.4-0.5,0.4-0.7V8.5C177.7,8.4,177.6,8.4,177.5,8.4z"/>
	<path fill="#CCCCCC" d="M180.8,10.8c0,0.1,0,0.1,0,0.2c0,0-0.1,0-0.2,0H180c-0.1,0-0.1,0-0.1,0s0-0.1,0-0.1l0-7.1
		c0-0.1,0-0.2,0.1-0.2h0.8c0.1,0,0.1,0,0.1,0.2V10.8z"/>
	<path fill="#CCCCCC" d="M183.1,10.8c0,0.1,0,0.1,0,0.2s-0.1,0-0.2,0h-0.7c-0.1,0-0.1,0-0.1,0c0,0,0-0.1,0-0.1l0-7.1
		c0-0.1,0-0.2,0.1-0.2h0.8c0.1,0,0.1,0,0.1,0.2V10.8z"/>
	<path fill="#CCCCCC" d="M184.1,12.6c-0.1,0-0.1-0.1-0.1-0.1V12c0-0.1,0.1-0.1,0.3-0.1h0.7c0.1,0,0.3,0,0.4-0.1
		c0.1-0.1,0.2-0.2,0.3-0.4s0.1-0.3,0.1-0.5c0-0.1,0-0.2,0-0.2l-1.9-4.8c0,0,0,0,0-0.1c0-0.1,0-0.1,0.1-0.1h0.8c0,0,0.1,0,0.1,0
		c0,0,0.1,0.1,0.1,0.1l1.4,3.6c0,0.1,0,0.1,0.1,0.1c0,0,0.1,0,0.1-0.1l1.4-3.6c0-0.1,0.1-0.1,0.2-0.1h0.6c0,0,0.1,0,0.1,0.1
		c0,0,0,0.1,0,0.1l-2.1,5.5c-0.1,0.4-0.3,0.6-0.5,0.8c-0.2,0.2-0.4,0.3-0.6,0.4c-0.2,0.1-0.5,0.1-0.9,0.1
		C184.4,12.7,184.2,12.7,184.1,12.6z"/>
	<path fill="#CCCCCC" d="M193.4,3.6c1.3,0,2.3,0.3,3,1s0.9,1.5,0.9,2.7c0,1.2-0.3,2.2-1,2.8c-0.7,0.6-1.7,1-3,1h-1.7
		c-0.1,0-0.2-0.1-0.2-0.2V3.8c0-0.1,0-0.1,0-0.1c0,0,0.1,0,0.1,0C192.4,3.6,193,3.6,193.4,3.6z M192.7,4.6V10c0,0,0,0.1,0,0.1
		s0,0,0.1,0h0.3c0.7,0,1.2-0.1,1.7-0.3s0.7-0.5,1-0.9s0.3-1,0.3-1.7c0-0.7-0.1-1.2-0.3-1.6c-0.2-0.4-0.5-0.7-0.9-0.9
		s-0.9-0.3-1.5-0.3l-0.6,0C192.7,4.5,192.7,4.5,192.7,4.6z"/>
	<path fill="#CCCCCC" d="M199.4,4.7c0,0.1,0,0.1,0,0.2c0,0-0.1,0-0.2,0h-0.7c-0.1,0-0.1,0-0.1,0c0,0,0-0.1,0-0.1V3.8
		c0-0.1,0-0.2,0.1-0.2h0.8c0,0,0.1,0,0.1,0c0,0,0,0.1,0,0.1V4.7z M199.4,10.8c0,0.1,0,0.1,0,0.2s-0.1,0-0.2,0h-0.7
		c-0.1,0-0.1,0-0.1,0c0,0,0-0.1,0-0.1v-5c0-0.1,0-0.1,0-0.1c0,0,0.1,0,0.1,0h0.8c0.1,0,0.1,0,0.1,0.1V10.8z"/>
	<path fill="#CCCCCC" d="M203.2,6.5c-0.2-0.1-0.5-0.2-0.8-0.2c-0.3,0-0.6,0.1-0.8,0.2c-0.2,0.1-0.3,0.3-0.3,0.6
		c0,0.1,0.1,0.3,0.2,0.4s0.3,0.2,0.6,0.3l1.2,0.3c0.5,0.1,0.8,0.3,1,0.6s0.3,0.5,0.3,0.9c0,0.3-0.1,0.6-0.3,0.8
		c-0.2,0.2-0.5,0.4-0.8,0.6c-0.3,0.1-0.7,0.2-1.1,0.2c-0.5,0-1-0.1-1.4-0.3c-0.4-0.2-0.7-0.5-0.9-0.8c0,0,0-0.1,0-0.1
		c0,0,0-0.1,0-0.1l0.5-0.3c0,0,0.1,0,0.1,0c0,0,0.1,0,0.1,0c0.4,0.5,0.9,0.8,1.6,0.8c0.4,0,0.7-0.1,0.9-0.2s0.4-0.3,0.4-0.6
		c0-0.2-0.1-0.3-0.2-0.4c-0.1-0.1-0.4-0.2-0.7-0.3l-1-0.3c-0.5-0.1-0.9-0.3-1.1-0.5c-0.2-0.2-0.3-0.5-0.3-0.9c0-0.3,0.1-0.6,0.3-0.8
		s0.4-0.4,0.7-0.6s0.7-0.2,1.1-0.2c0.5,0,0.9,0.1,1.2,0.3c0.4,0.2,0.6,0.4,0.8,0.7c0,0,0,0.1,0,0.1c0,0,0,0.1,0,0.1L203.9,7
		c0,0,0,0-0.1,0c0,0-0.1,0-0.1,0C203.6,6.8,203.4,6.6,203.2,6.5z"/>
	<path fill="#CCCCCC" d="M206.4,10.8c-0.4-0.2-0.7-0.6-0.9-1c-0.2-0.4-0.3-0.9-0.3-1.4c0-0.5,0.1-1,0.3-1.4c0.2-0.4,0.5-0.8,0.9-1
		c0.4-0.2,0.8-0.4,1.3-0.4c0.5,0,1,0.1,1.3,0.4c0.4,0.2,0.7,0.6,0.9,1c0.2,0.4,0.3,0.9,0.3,1.4c0,0.5-0.1,1-0.3,1.4s-0.5,0.7-0.9,1
		c-0.4,0.2-0.8,0.3-1.3,0.3C207.3,11.1,206.8,11,206.4,10.8z M208.9,9.8c0.3-0.4,0.4-0.8,0.4-1.5c0-0.6-0.1-1.1-0.4-1.5
		c-0.3-0.4-0.6-0.5-1.1-0.5s-0.8,0.2-1.1,0.5s-0.4,0.9-0.4,1.5c0,0.6,0.1,1.1,0.4,1.5s0.6,0.5,1.1,0.5
		C208.2,10.4,208.6,10.2,208.9,9.8z"/>
	<path fill="#CCCCCC" d="M211.2,10.9v-5c0-0.1,0-0.1,0.1-0.1h0.8c0.1,0,0.1,0,0.1,0.1v0.6c0,0,0,0.1,0,0.1s0,0,0.1,0
		c0.2-0.3,0.5-0.5,0.8-0.7c0.3-0.2,0.5-0.2,0.8-0.2c0.2,0,0.3,0,0.3,0.1v0.8c0,0.1,0,0.1-0.1,0.1c-0.1,0-0.3,0-0.5,0
		c-0.2,0-0.4,0.1-0.6,0.2c-0.2,0.1-0.4,0.2-0.5,0.4c-0.1,0.2-0.2,0.3-0.2,0.5v3.2c0,0.1-0.1,0.2-0.2,0.2h-0.7
		C211.3,11,211.2,11,211.2,10.9z"/>
	<path fill="#CCCCCC" d="M218.4,10.9v-0.4c0-0.1,0-0.1,0-0.1c0,0,0,0-0.1,0c-0.2,0.2-0.4,0.4-0.7,0.5s-0.5,0.2-0.9,0.2
		c-0.4,0-0.8-0.1-1.1-0.3s-0.6-0.5-0.8-0.9s-0.3-0.9-0.3-1.5c0-0.6,0.1-1,0.3-1.5c0.2-0.4,0.5-0.8,0.8-1s0.7-0.4,1.2-0.4
		c0.3,0,0.5,0,0.8,0.1c0.2,0.1,0.4,0.2,0.6,0.4c0,0,0.1,0,0.1,0c0,0,0.1,0,0.1-0.1V3.8c0-0.1,0-0.2,0.1-0.2h0.8c0,0,0.1,0,0.1,0
		s0,0.1,0,0.1v7.1c0,0.1,0,0.1,0,0.1c0,0-0.1,0-0.1,0h-0.7C218.4,11,218.4,11,218.4,10.9z M217.8,6.5c-0.2-0.1-0.4-0.2-0.6-0.2
		c-0.5,0-0.8,0.2-1.1,0.5c-0.3,0.4-0.4,0.9-0.4,1.5c0,0.7,0.1,1.2,0.4,1.5s0.6,0.5,1.1,0.5c0.2,0,0.4-0.1,0.6-0.2
		c0.2-0.1,0.3-0.2,0.5-0.4s0.2-0.3,0.2-0.5V7C218.1,6.8,217.9,6.6,217.8,6.5z"/>
	<path fill="#CCCCCC" d="M221.6,9.6c0.1,0.2,0.3,0.4,0.6,0.6c0.2,0.1,0.5,0.2,0.8,0.2c0.3,0,0.6-0.1,0.8-0.2
		c0.2-0.1,0.5-0.3,0.7-0.6c0,0,0,0,0.1,0c0,0,0.1,0,0.1,0l0.5,0.2c0,0,0,0,0,0.1c0,0,0,0,0,0.1c-0.3,0.4-0.6,0.7-1,0.9
		c-0.4,0.2-0.8,0.3-1.3,0.3c-0.5,0-0.9-0.1-1.3-0.3s-0.7-0.5-0.9-1s-0.3-0.9-0.3-1.4c0-0.6,0.1-1.1,0.3-1.5c0.2-0.4,0.5-0.8,0.9-1
		c0.4-0.2,0.8-0.3,1.3-0.3c0.5,0,0.9,0.1,1.3,0.3s0.7,0.5,0.9,0.9c0.2,0.4,0.3,0.9,0.3,1.5v0c0,0.1,0,0.1,0,0.1c0,0-0.1,0-0.1,0
		h-3.7c-0.1,0-0.1,0.1-0.1,0.2C221.4,9,221.4,9.3,221.6,9.6z M224.1,8c0.1,0,0.1,0,0.1,0c0,0,0-0.1,0-0.1c0-0.3-0.1-0.5-0.2-0.7
		c-0.1-0.2-0.3-0.4-0.5-0.5c-0.2-0.1-0.5-0.2-0.7-0.2c-0.3,0-0.6,0.1-0.8,0.2c-0.2,0.1-0.4,0.3-0.5,0.6s-0.2,0.5-0.2,0.8L224.1,8z"
		/>
	<path fill="#CCCCCC" d="M226.1,10.9v-5c0-0.1,0-0.1,0.1-0.1h0.8c0.1,0,0.1,0,0.1,0.1v0.6c0,0,0,0.1,0,0.1s0,0,0.1,0
		c0.2-0.3,0.5-0.5,0.8-0.7c0.3-0.2,0.5-0.2,0.8-0.2c0.2,0,0.3,0,0.3,0.1v0.8c0,0.1,0,0.1-0.1,0.1c-0.1,0-0.3,0-0.5,0
		c-0.2,0-0.4,0.1-0.6,0.2c-0.2,0.1-0.4,0.2-0.5,0.4c-0.1,0.2-0.2,0.3-0.2,0.5v3.2c0,0.1-0.1,0.2-0.2,0.2h-0.7
		C226.2,11,226.1,11,226.1,10.9z"/>
	<path fill="#CCCCCC" d="M143.5,18.4c-0.5,0.4-1.1,0.6-1.9,0.6H140c-0.1,0-0.1,0-0.1,0.1v2.8c0,0.1-0.1,0.2-0.2,0.2h-0.9
		c-0.1,0-0.2,0-0.2-0.2v-7.1c0-0.1,0-0.1,0-0.1c0,0,0.1,0,0.1,0h2.7c0.8,0,1.5,0.2,2,0.6s0.8,0.9,0.8,1.7
		C144.3,17.5,144,18.1,143.5,18.4z M141.4,15.5H140c-0.1,0-0.1,0-0.1,0s0,0.1,0,0.1V18c0,0.1,0,0.1,0.1,0.1h1.5
		c0.5,0,0.9-0.1,1.1-0.3c0.3-0.2,0.4-0.6,0.4-1C143,15.9,142.5,15.5,141.4,15.5z"/>
	<path fill="#CCCCCC" d="M144.8,21.9v-5c0-0.1,0-0.1,0.1-0.1h0.8c0.1,0,0.1,0,0.1,0.1v0.6c0,0,0,0.1,0,0.1s0,0,0.1,0
		c0.2-0.3,0.5-0.5,0.8-0.7s0.5-0.2,0.8-0.2c0.2,0,0.3,0,0.3,0.1v0.8c0,0.1,0,0.1-0.1,0.1c-0.1,0-0.3,0-0.5,0c-0.2,0-0.4,0.1-0.6,0.2
		c-0.2,0.1-0.4,0.2-0.5,0.4c-0.1,0.2-0.2,0.3-0.2,0.5v3.2c0,0.1-0.1,0.2-0.2,0.2H145C144.9,22,144.8,22,144.8,21.9z"/>
	<path fill="#CCCCCC" d="M149.1,21.8c-0.4-0.2-0.7-0.6-0.9-1c-0.2-0.4-0.3-0.9-0.3-1.4c0-0.5,0.1-1,0.3-1.4c0.2-0.4,0.5-0.8,0.9-1
		c0.4-0.2,0.8-0.4,1.3-0.4c0.5,0,1,0.1,1.3,0.4c0.4,0.2,0.7,0.6,0.9,1c0.2,0.4,0.3,0.9,0.3,1.4c0,0.5-0.1,1-0.3,1.4
		c-0.2,0.4-0.5,0.7-0.9,1c-0.4,0.2-0.8,0.3-1.3,0.3S149.5,22,149.1,21.8z M151.6,20.8c0.3-0.4,0.4-0.8,0.4-1.5
		c0-0.6-0.1-1.1-0.4-1.5c-0.3-0.4-0.6-0.5-1.1-0.5s-0.8,0.2-1.1,0.5s-0.4,0.9-0.4,1.5c0,0.6,0.1,1.1,0.4,1.5
		c0.3,0.4,0.6,0.5,1.1,0.5C150.9,21.4,151.3,21.2,151.6,20.8z"/>
	<path fill="#CCCCCC" d="M155.3,17.5C155.2,17.5,155.2,17.5,155.3,17.5l-0.1,3c0,0.3,0.1,0.5,0.2,0.6c0.1,0.1,0.3,0.2,0.5,0.2h0.6
		c0.1,0,0.1,0,0.1,0.1v0.4c0,0.1,0,0.1-0.2,0.2c-0.2,0-0.6,0-1,0c-0.4,0-0.8-0.1-1-0.3c-0.2-0.2-0.3-0.5-0.3-0.9v-3.2
		c0-0.1,0-0.1-0.1-0.1h-0.8c-0.1,0-0.1,0-0.1-0.1v-0.5c0-0.1,0-0.1,0.1-0.1h0.8c0.1,0,0.1,0,0.1-0.1l0.1-1.6c0-0.1,0.1-0.1,0.1-0.1
		h0.7c0.1,0,0.1,0.1,0.1,0.2v1.6c0,0.1,0,0.1,0.1,0.1h1.2c0.1,0,0.1,0,0.1,0.1v0.5c0,0.1,0,0.1-0.1,0.1H155.3z"/>
	<path fill="#CCCCCC" d="M158.1,20.6c0.1,0.2,0.3,0.4,0.6,0.6c0.2,0.1,0.5,0.2,0.8,0.2c0.3,0,0.6-0.1,0.8-0.2
		c0.2-0.1,0.5-0.3,0.7-0.6c0,0,0,0,0.1,0c0,0,0.1,0,0.1,0l0.5,0.2c0,0,0.1,0,0.1,0.1c0,0,0,0,0,0.1c-0.3,0.4-0.6,0.7-1,0.9
		c-0.4,0.2-0.8,0.3-1.3,0.3c-0.5,0-0.9-0.1-1.3-0.3s-0.7-0.5-0.9-1c-0.2-0.4-0.3-0.9-0.3-1.4c0-0.6,0.1-1.1,0.3-1.5
		c0.2-0.4,0.5-0.8,0.9-1c0.4-0.2,0.8-0.3,1.3-0.3c0.5,0,0.9,0.1,1.3,0.3s0.7,0.5,0.9,0.9s0.3,0.9,0.3,1.5v0c0,0.1,0,0.1,0,0.1
		c0,0-0.1,0-0.1,0H158c-0.1,0-0.1,0.1-0.1,0.2C157.9,20,157.9,20.3,158.1,20.6z M160.6,19c0.1,0,0.1,0,0.1,0c0,0,0-0.1,0-0.1
		c0-0.3-0.1-0.5-0.2-0.7c-0.1-0.2-0.3-0.4-0.5-0.5c-0.2-0.1-0.5-0.2-0.7-0.2c-0.3,0-0.6,0.1-0.8,0.2c-0.2,0.1-0.4,0.3-0.5,0.6
		s-0.2,0.5-0.2,0.8L160.6,19z"/>
	<path fill="#CCCCCC" d="M163.7,15.7c0,0.1,0,0.1,0,0.2c0,0-0.1,0-0.2,0h-0.7c-0.1,0-0.1,0-0.1,0c0,0,0-0.1,0-0.1v-0.9
		c0-0.1,0-0.2,0.1-0.2h0.8c0,0,0.1,0,0.1,0c0,0,0,0.1,0,0.1V15.7z M163.7,21.8c0,0.1,0,0.1,0,0.2s-0.1,0-0.2,0h-0.7
		c-0.1,0-0.1,0-0.1,0c0,0,0-0.1,0-0.1v-5c0-0.1,0-0.1,0-0.1c0,0,0.1,0,0.1,0h0.8c0.1,0,0.1,0,0.1,0.1V21.8z"/>
	<path fill="#CCCCCC" d="M164.8,21.9v-5c0-0.1,0-0.1,0.1-0.1h0.8c0.1,0,0.1,0,0.1,0.1v0.5c0,0,0,0.1,0,0.1c0,0,0,0,0.1,0
		c0.3-0.3,0.7-0.5,0.9-0.6s0.6-0.2,0.9-0.2c0.5,0,0.9,0.1,1.2,0.4c0.3,0.3,0.4,0.6,0.4,1.1v3.7c0,0.1-0.1,0.2-0.2,0.2h-0.7
		c-0.1,0-0.2-0.1-0.2-0.2v-3.5c0-0.3-0.1-0.5-0.2-0.7c-0.2-0.2-0.4-0.2-0.7-0.2c-0.3,0-0.5,0.1-0.7,0.2c-0.2,0.1-0.5,0.3-0.8,0.6
		v3.7c0,0.1,0,0.1,0,0.1c0,0-0.1,0-0.1,0H165C164.9,22,164.8,22,164.8,21.9z"/>
	<path fill="#CCCCCC" d="M173.1,17.5c-0.2-0.1-0.5-0.2-0.8-0.2c-0.3,0-0.6,0.1-0.8,0.2c-0.2,0.1-0.3,0.3-0.3,0.6
		c0,0.1,0.1,0.3,0.2,0.4c0.1,0.1,0.3,0.2,0.6,0.3l1.2,0.3c0.5,0.1,0.8,0.3,1,0.6c0.2,0.2,0.3,0.5,0.3,0.9c0,0.3-0.1,0.6-0.3,0.8
		c-0.2,0.2-0.5,0.4-0.8,0.6c-0.3,0.1-0.7,0.2-1.2,0.2c-0.5,0-1-0.1-1.4-0.3c-0.4-0.2-0.7-0.5-0.9-0.8c0,0,0-0.1,0-0.1
		c0,0,0-0.1,0-0.1l0.5-0.3c0,0,0.1,0,0.1,0c0,0,0.1,0,0.1,0c0.4,0.5,0.9,0.8,1.6,0.8c0.4,0,0.7-0.1,0.9-0.2c0.2-0.1,0.4-0.3,0.4-0.6
		c0-0.2-0.1-0.3-0.2-0.4c-0.1-0.1-0.4-0.2-0.7-0.3l-1-0.3c-0.5-0.1-0.9-0.3-1.1-0.5c-0.2-0.2-0.3-0.5-0.3-0.9c0-0.3,0.1-0.6,0.3-0.8
		s0.4-0.4,0.7-0.6c0.3-0.1,0.7-0.2,1.1-0.2c0.5,0,0.9,0.1,1.2,0.3c0.4,0.2,0.6,0.4,0.8,0.7c0,0,0,0.1,0,0.1c0,0,0,0.1,0,0.1
		l-0.5,0.3c0,0,0,0-0.1,0c0,0-0.1,0-0.1,0C173.5,17.8,173.4,17.6,173.1,17.5z"/>
</g>
<circle fill="#CCCCCC" cx="132.9" cy="13" r="1.3"/>
<path fill="none" stroke="#000000" stroke-width="0.6752" stroke-miterlimit="10" d="M2.2,14.1"/>
<g>
</g>
<g>
</g>
<g>
</g>
<g>
</g>
<g>
</g>
<g>
</g>
<g>
</g>
<g>
</g>
<g>
</g>
<g>
</g>
<g>
</g>
<g>
</g>
<g>
</g>
<g>
</g>
<g>
</g>
</svg>
