<?xml version="1.0" encoding="utf-8"?>
<!-- Generator: Adobe Illustrator 17.1.0, SVG Export Plug-In . SVG Version: 6.00 Build 0)  -->
<!DOCTYPE svg PUBLIC "-//W3C//DTD SVG 1.1//EN" "http://www.w3.org/Graphics/SVG/1.1/DTD/svg11.dtd">
<svg version="1.1" id="Layer_1" xmlns="http://www.w3.org/2000/svg" xmlns:xlink="http://www.w3.org/1999/xlink" x="0px" y="0px"
	 width="240px" height="40px" viewBox="0 0 240 40" enable-background="new 0 0 240 40" xml:space="preserve">
<path fill="none" stroke="#979797" stroke-width="1.0437" stroke-miterlimit="10" d="M24.4,20.6"/>
<g>
	<path fill="#37B34A" d="M27.6,18.3c0-0.1,0-0.2,0-0.3l5.9-16.4c0.1-0.2,0.1-0.3,0.2-0.4c0.1-0.1,0.2-0.1,0.4-0.1h3.5
		c0.2,0,0.3,0,0.4,0.1c0.1,0.1,0.2,0.2,0.3,0.4l5.8,16.4c0,0.1,0,0.2,0,0.2c0,0.1,0,0.2-0.1,0.3c-0.1,0.1-0.1,0.1-0.2,0.1h-3.5
		c-0.2,0-0.4-0.1-0.4-0.3L38.8,15c0-0.1-0.1-0.2-0.1-0.2c0,0-0.1-0.1-0.2-0.1h-5.8c-0.2,0-0.3,0.1-0.3,0.2l-1.3,3.5
		c-0.1,0.2-0.3,0.3-0.5,0.3H28C27.7,18.7,27.6,18.6,27.6,18.3z M37.5,11.6c0.2,0,0.2-0.1,0.2-0.2c0-0.1,0-0.2,0-0.2l-2-5.5
		c0-0.1-0.1-0.1-0.2-0.1c0,0-0.1,0.1-0.1,0.2l-2,5.5c0,0.1,0,0.2,0,0.2c0,0.1,0.1,0.2,0.3,0.2H37.5z"/>
</g>
<path fill="none" stroke="#979797" stroke-width="1.0437" stroke-miterlimit="10" d="M24.6,20.6"/>
<g>
	<path fill="#37B34A" d="M27.9,27.9L27.9,27.9l2.6-7.1c0-0.1,0-0.1,0.1-0.1c0,0,0.1,0,0.1,0h1c0.1,0,0.2,0.1,0.2,0.2l2.5,7
		c0,0,0,0,0,0.1c0,0.1,0,0.1-0.1,0.1h-1c-0.1,0-0.1,0-0.2-0.1l-0.6-1.8c0,0,0-0.1,0-0.1c0,0,0,0-0.1,0h-2.8c-0.1,0-0.1,0-0.1,0.1
		L29,27.9c0,0.1-0.1,0.1-0.2,0.1H28C27.9,28,27.9,28,27.9,27.9z M32.2,25.1C32.2,25.1,32.3,25.1,32.2,25.1c0.1-0.1,0.1-0.1,0.1-0.1
		l-1.1-3c0,0,0-0.1-0.1-0.1c0,0,0,0-0.1,0.1l-1.1,3l0,0.1c0,0,0,0.1,0.1,0.1H32.2z"/>
	<path fill="#37B34A" d="M38,23.5c-0.2-0.1-0.5-0.2-0.8-0.2c-0.3,0-0.6,0.1-0.8,0.2c-0.2,0.1-0.3,0.3-0.3,0.6c0,0.1,0.1,0.3,0.2,0.4
		c0.1,0.1,0.3,0.2,0.6,0.3l1.2,0.3c0.5,0.1,0.8,0.3,1,0.6c0.2,0.2,0.3,0.5,0.3,0.9c0,0.3-0.1,0.6-0.3,0.8s-0.5,0.4-0.8,0.6
		c-0.3,0.1-0.7,0.2-1.1,0.2c-0.5,0-1-0.1-1.4-0.3s-0.7-0.5-0.9-0.8c0,0,0-0.1,0-0.1c0,0,0-0.1,0-0.1l0.5-0.3c0,0,0.1,0,0.1,0
		c0,0,0.1,0,0.1,0c0.4,0.5,0.9,0.8,1.6,0.8c0.4,0,0.7-0.1,0.9-0.2c0.2-0.1,0.4-0.3,0.4-0.6c0-0.2-0.1-0.3-0.2-0.4
		c-0.1-0.1-0.4-0.2-0.7-0.3l-1-0.3c-0.5-0.1-0.9-0.3-1.1-0.5c-0.2-0.2-0.3-0.5-0.3-0.9c0-0.3,0.1-0.6,0.3-0.8
		c0.2-0.2,0.4-0.4,0.7-0.6c0.3-0.1,0.7-0.2,1.1-0.2c0.5,0,0.9,0.1,1.2,0.3c0.4,0.2,0.6,0.4,0.8,0.7c0,0,0,0.1,0,0.1c0,0,0,0,0,0.1
		L38.7,24c0,0,0,0-0.1,0c0,0-0.1,0-0.1-0.1C38.4,23.8,38.2,23.6,38,23.5z"/>
	<path fill="#37B34A" d="M42.9,23.5c-0.2-0.1-0.5-0.2-0.8-0.2c-0.3,0-0.6,0.1-0.8,0.2c-0.2,0.1-0.3,0.3-0.3,0.6
		c0,0.1,0.1,0.3,0.2,0.4c0.1,0.1,0.3,0.2,0.6,0.3l1.2,0.3c0.5,0.1,0.8,0.3,1,0.6c0.2,0.2,0.3,0.5,0.3,0.9c0,0.3-0.1,0.6-0.3,0.8
		s-0.5,0.4-0.8,0.6c-0.3,0.1-0.7,0.2-1.1,0.2c-0.5,0-1-0.1-1.4-0.3S40,27.4,39.8,27c0,0,0-0.1,0-0.1c0,0,0-0.1,0-0.1l0.5-0.3
		c0,0,0.1,0,0.1,0c0,0,0.1,0,0.1,0c0.4,0.5,0.9,0.8,1.6,0.8c0.4,0,0.7-0.1,0.9-0.2c0.2-0.1,0.4-0.3,0.4-0.6c0-0.2-0.1-0.3-0.2-0.4
		c-0.1-0.1-0.4-0.2-0.7-0.3l-1-0.3c-0.5-0.1-0.9-0.3-1.1-0.5c-0.2-0.2-0.3-0.5-0.3-0.9c0-0.3,0.1-0.6,0.3-0.8
		c0.2-0.2,0.4-0.4,0.7-0.6c0.3-0.1,0.7-0.2,1.1-0.2c0.5,0,0.9,0.1,1.2,0.3c0.4,0.2,0.6,0.4,0.8,0.7c0,0,0,0.1,0,0.1c0,0,0,0,0,0.1
		L43.7,24c0,0,0,0-0.1,0c0,0-0.1,0-0.1-0.1C43.4,23.8,43.2,23.6,42.9,23.5z"/>
	<path fill="#37B34A" d="M46.3,21.7c0,0.1,0,0.1,0,0.2c0,0-0.1,0.1-0.2,0.1h-0.7c-0.1,0-0.1,0-0.1,0c0,0,0-0.1,0-0.1v-0.9
		c0-0.1,0.1-0.2,0.1-0.2h0.8c0,0,0.1,0,0.1,0c0,0,0,0.1,0,0.1V21.7z M46.3,27.8c0,0.1,0,0.1,0,0.2c0,0-0.1,0-0.2,0h-0.7
		c-0.1,0-0.1,0-0.1,0c0,0,0-0.1,0-0.1v-5c0-0.1,0-0.1,0-0.1s0.1,0,0.1,0h0.8c0.1,0,0.1,0,0.1,0.1V27.8z"/>
	<path fill="#37B34A" d="M52.6,22.8v0.5c0,0.1-0.1,0.2-0.2,0.2c-0.1,0-0.2,0-0.3,0c-0.1,0-0.2,0-0.2,0c-0.1,0-0.1,0.1-0.2,0.1
		c0,0,0,0.1,0,0.1c0,0,0,0.1,0.1,0.2c0,0.1,0.1,0.2,0.1,0.4c0,0.5-0.2,0.9-0.6,1.2c-0.4,0.3-0.9,0.5-1.7,0.5c-0.4,0-0.8,0-1,0.1
		c-0.2,0.1-0.3,0.2-0.3,0.3c0,0.1,0.1,0.2,0.2,0.2c0.1,0,0.3,0.1,0.6,0.1l1.3,0.1c0.6,0,1,0.2,1.3,0.4c0.3,0.2,0.4,0.6,0.4,1
		c0,0.5-0.2,0.9-0.7,1.2c-0.5,0.3-1.1,0.4-2,0.4c-0.9,0-1.5-0.1-2-0.3c-0.5-0.2-0.7-0.6-0.7-1c0-0.2,0.1-0.4,0.2-0.6
		c0.2-0.2,0.4-0.3,0.7-0.5c0.1,0,0.1-0.1,0-0.1c-0.3-0.2-0.5-0.4-0.5-0.6c0-0.2,0.1-0.3,0.2-0.4c0.1-0.1,0.4-0.3,0.6-0.4
		c0,0,0.1,0,0.1,0c0,0,0,0-0.1-0.1c-0.3-0.2-0.5-0.3-0.7-0.6c-0.1-0.2-0.2-0.5-0.2-0.8c0-0.5,0.2-0.9,0.6-1.2s1-0.4,1.7-0.4
		c0.7,0,1.2,0.2,1.5,0.5c0,0,0.1,0,0.1,0c0,0,0.1,0,0.1-0.1c0.1-0.1,0.3-0.2,0.5-0.3c0.2-0.1,0.4-0.1,0.5-0.1
		C52.5,22.6,52.6,22.7,52.6,22.8z M48.7,27.5c-0.1,0-0.3,0-0.4,0.1c-0.1,0.1-0.3,0.2-0.4,0.3s-0.1,0.3-0.1,0.4
		c0,0.6,0.6,0.9,1.9,0.9c0.5,0,0.9-0.1,1.2-0.2c0.3-0.1,0.4-0.4,0.4-0.7c0-0.4-0.3-0.7-0.9-0.7L48.7,27.5z M50.5,25.1
		c0.2-0.2,0.3-0.4,0.3-0.8c0-0.3-0.1-0.6-0.3-0.8c-0.2-0.2-0.5-0.3-0.9-0.3c-0.4,0-0.7,0.1-1,0.3c-0.2,0.2-0.3,0.4-0.3,0.8
		c0,0.3,0.1,0.6,0.3,0.8c0.2,0.2,0.5,0.3,1,0.3C50,25.3,50.3,25.3,50.5,25.1z"/>
	<path fill="#37B34A" d="M53.3,27.9v-5c0-0.1,0-0.2,0.1-0.2h0.8c0.1,0,0.1,0,0.1,0.1v0.5c0,0,0,0.1,0,0.1c0,0,0,0,0.1,0
		c0.3-0.3,0.7-0.5,0.9-0.6s0.6-0.2,0.9-0.2c0.5,0,0.9,0.1,1.2,0.4c0.3,0.3,0.4,0.6,0.4,1.1v3.7c0,0.1-0.1,0.2-0.2,0.2h-0.7
		c-0.1,0-0.1-0.1-0.1-0.2v-3.5c0-0.3-0.1-0.5-0.2-0.7s-0.4-0.2-0.7-0.2c-0.3,0-0.5,0.1-0.7,0.2c-0.2,0.1-0.5,0.3-0.8,0.6v3.7
		c0,0.1,0,0.1,0,0.1c0,0-0.1,0-0.1,0h-0.7C53.3,28,53.3,28,53.3,27.9z"/>
	<path fill="#37B34A" d="M58.9,27.9v-5c0-0.1,0-0.2,0.1-0.2h0.8c0.1,0,0.1,0,0.1,0.1v0.5c0,0,0,0.1,0,0.1c0,0,0,0,0.1,0
		c0.3-0.3,0.6-0.5,0.9-0.6c0.3-0.1,0.5-0.2,0.9-0.2c0.4,0,0.7,0.1,0.9,0.2c0.2,0.2,0.4,0.4,0.5,0.6c0,0,0,0,0,0c0,0,0.1,0,0.1,0
		c0.3-0.3,0.6-0.5,0.9-0.7s0.6-0.2,0.9-0.2c0.5,0,0.9,0.1,1.1,0.4c0.3,0.3,0.4,0.7,0.4,1.1v3.7c0,0.1-0.1,0.2-0.2,0.2h-0.7
		c-0.1,0-0.1,0-0.1,0s0-0.1,0-0.1v-3.5c0-0.3-0.1-0.5-0.2-0.7c-0.1-0.2-0.4-0.2-0.7-0.2c-0.4,0-0.8,0.2-1.3,0.6c0,0-0.1,0.1-0.1,0.1
		s0,0.1,0,0.2v3.5c0,0.1-0.1,0.2-0.2,0.2h-0.7c-0.1,0-0.2-0.1-0.2-0.2v-3.5c0-0.3-0.1-0.5-0.2-0.7s-0.4-0.2-0.7-0.2
		c-0.2,0-0.5,0.1-0.7,0.2c-0.2,0.1-0.5,0.3-0.7,0.6v3.7c0,0.1,0,0.1,0,0.1c0,0-0.1,0-0.1,0h-0.7C59,28,58.9,28,58.9,27.9z"/>
	<path fill="#37B34A" d="M68.8,26.6c0.1,0.2,0.3,0.4,0.6,0.6s0.5,0.2,0.8,0.2c0.3,0,0.6-0.1,0.8-0.2c0.2-0.1,0.5-0.3,0.7-0.6
		c0,0,0,0,0.1,0c0,0,0.1,0,0.1,0l0.5,0.2c0,0,0.1,0,0.1,0.1c0,0,0,0,0,0.1c-0.3,0.4-0.6,0.7-1,0.9c-0.4,0.2-0.8,0.3-1.3,0.3
		c-0.5,0-0.9-0.1-1.3-0.3s-0.7-0.5-0.9-1s-0.3-0.9-0.3-1.4c0-0.6,0.1-1.1,0.3-1.5c0.2-0.4,0.5-0.8,0.9-1c0.4-0.2,0.8-0.3,1.3-0.3
		c0.5,0,0.9,0.1,1.3,0.3c0.4,0.2,0.7,0.5,0.9,0.9c0.2,0.4,0.3,0.9,0.3,1.5v0c0,0.1,0,0.1,0,0.1c0,0-0.1,0-0.1,0h-3.7
		c-0.1,0-0.1,0.1-0.1,0.2C68.6,26.1,68.7,26.3,68.8,26.6z M71.3,25c0.1,0,0.1,0,0.1,0c0,0,0-0.1,0-0.1c0-0.3-0.1-0.5-0.2-0.7
		c-0.1-0.2-0.3-0.4-0.5-0.5s-0.5-0.2-0.7-0.2c-0.3,0-0.6,0.1-0.8,0.2s-0.4,0.3-0.5,0.6c-0.1,0.2-0.2,0.5-0.2,0.8L71.3,25z"/>
	<path fill="#37B34A" d="M73.3,27.9v-5c0-0.1,0-0.2,0.1-0.2h0.8c0.1,0,0.1,0,0.1,0.1v0.5c0,0,0,0.1,0,0.1c0,0,0,0,0.1,0
		c0.3-0.3,0.7-0.5,0.9-0.6s0.6-0.2,0.9-0.2c0.5,0,0.9,0.1,1.2,0.4c0.3,0.3,0.4,0.6,0.4,1.1v3.7c0,0.1-0.1,0.2-0.2,0.2H77
		c-0.1,0-0.1-0.1-0.1-0.2v-3.5c0-0.3-0.1-0.5-0.2-0.7s-0.4-0.2-0.7-0.2c-0.3,0-0.5,0.1-0.7,0.2c-0.2,0.1-0.5,0.3-0.8,0.6v3.7
		c0,0.1,0,0.1,0,0.1c0,0-0.1,0-0.1,0h-0.7C73.4,28,73.3,28,73.3,27.9z"/>
	<path fill="#37B34A" d="M80.6,23.5c-0.1,0-0.1,0-0.1,0.1v2.9c0,0.3,0.1,0.5,0.2,0.6c0.1,0.1,0.3,0.2,0.5,0.2h0.6
		c0.1,0,0.1,0,0.1,0.1v0.4c0,0.1-0.1,0.1-0.2,0.2c-0.2,0-0.6,0-1,0c-0.4,0-0.8-0.1-1-0.3s-0.3-0.5-0.3-0.9v-3.2c0-0.1,0-0.1-0.1-0.1
		h-0.8c-0.1,0-0.1,0-0.1-0.1v-0.5c0-0.1,0-0.1,0.1-0.1h0.8c0.1,0,0.1,0,0.1-0.1l0.1-1.6c0-0.1,0.1-0.1,0.1-0.1h0.7
		c0.1,0,0.1,0.1,0.1,0.2v1.5c0,0.1,0,0.1,0.1,0.1h1.2c0.1,0,0.1,0,0.1,0.1v0.5c0,0.1,0,0.1-0.1,0.1H80.6z"/>
</g>
<path fill="none" stroke="#37B34A" stroke-width="0.9435" stroke-miterlimit="10" d="M1.1,1.5c0,1.7,1.4,3,3,3s3-1.4,3-3"/>
<path fill="none" stroke="#37B34A" stroke-width="0.7583" stroke-miterlimit="10" d="M9.5,6.9"/>
<path fill="none" stroke="#37B34A" stroke-width="0.9435" stroke-miterlimit="10" d="M9.5,1.5c0,1.7,1.4,3,3,3c1.7,0,3-1.4,3-3"/>
<path fill="none" stroke="#37B34A" stroke-width="0.7583" stroke-miterlimit="10" d="M18,6.9"/>
<path fill="none" stroke="#37B34A" stroke-width="0.9435" stroke-miterlimit="10" d="M18,1.5c0,1.7,1.4,3,3,3c1.7,0,3-1.4,3-3"/>
<path fill="none" stroke="#37B34A" stroke-width="0.9435" stroke-miterlimit="10" d="M1.1,18.7c0-1.7,1.4-3,3-3s3,1.4,3,3"/>
<path fill="none" stroke="#37B34A" stroke-width="0.9435" stroke-miterlimit="10" d="M9.5,18.7c0-1.7,1.4-3,3-3c1.7,0,3,1.4,3,3"/>
<path fill="none" stroke="#37B34A" stroke-width="0.9435" stroke-miterlimit="10" d="M18,18.7c0-1.7,1.4-3,3-3c1.7,0,3,1.4,3,3"/>
<circle fill="none" stroke="#37B34A" stroke-width="0.9435" stroke-miterlimit="10" cx="4.1" cy="10.2" r="3"/>
<circle fill="none" stroke="#37B34A" stroke-width="0.9435" stroke-miterlimit="10" cx="12.5" cy="10.2" r="3"/>
<circle fill="#37B34A" stroke="#37B34A" stroke-width="0.9435" stroke-miterlimit="10" cx="21" cy="10.2" r="3"/>
<path fill="none" stroke="#979797" stroke-width="1.0437" stroke-miterlimit="10" d="M144.4,20.6"/>
<g>
	<path fill="#CCCCCC" d="M147.6,18.3c0-0.1,0-0.2,0-0.3l5.9-16.4c0.1-0.2,0.1-0.3,0.2-0.4c0.1-0.1,0.2-0.1,0.4-0.1h3.5
		c0.2,0,0.3,0,0.4,0.1c0.1,0.1,0.2,0.2,0.3,0.4l5.8,16.4c0,0.1,0,0.2,0,0.2c0,0.1,0,0.2-0.1,0.3c-0.1,0.1-0.1,0.1-0.2,0.1h-3.5
		c-0.2,0-0.4-0.1-0.4-0.3l-1.2-3.4c0-0.1-0.1-0.2-0.1-0.2c0,0-0.1-0.1-0.2-0.1h-5.8c-0.2,0-0.3,0.1-0.3,0.2l-1.3,3.5
		c-0.1,0.2-0.3,0.3-0.5,0.3H148C147.7,18.7,147.6,18.6,147.6,18.3z M157.5,11.6c0.2,0,0.2-0.1,0.2-0.2c0-0.1,0-0.2,0-0.2l-2-5.5
		c0-0.1-0.1-0.1-0.2-0.1c0,0-0.1,0.1-0.1,0.2l-2,5.5c0,0.1,0,0.2,0,0.2c0,0.1,0.1,0.2,0.3,0.2H157.5z"/>
</g>
<path fill="none" stroke="#979797" stroke-width="1.0437" stroke-miterlimit="10" d="M144.6,20.6"/>
<g>
	<path fill="#CCCCCC" d="M147.9,27.9L147.9,27.9l2.6-7.1c0-0.1,0-0.1,0.1-0.1s0.1,0,0.1,0h1c0.1,0,0.2,0.1,0.2,0.2l2.5,7
		c0,0,0,0,0,0.1c0,0.1,0,0.1-0.1,0.1h-1c-0.1,0-0.1,0-0.2-0.1l-0.6-1.8c0,0,0-0.1,0-0.1c0,0,0,0-0.1,0h-2.8c-0.1,0-0.1,0-0.1,0.1
		l-0.7,1.8c0,0.1-0.1,0.1-0.2,0.1H148C147.9,28,147.9,28,147.9,27.9z M152.2,25.1C152.2,25.1,152.3,25.1,152.2,25.1
		c0.1-0.1,0.1-0.1,0.1-0.1l-1.1-3c0,0,0-0.1-0.1-0.1s0,0-0.1,0.1l-1.1,3l0,0.1c0,0,0,0.1,0.1,0.1H152.2z"/>
	<path fill="#CCCCCC" d="M158,23.5c-0.2-0.1-0.5-0.2-0.8-0.2c-0.3,0-0.6,0.1-0.8,0.2c-0.2,0.1-0.3,0.3-0.3,0.6
		c0,0.1,0.1,0.3,0.2,0.4s0.3,0.2,0.6,0.3l1.2,0.3c0.5,0.1,0.8,0.3,1,0.6s0.3,0.5,0.3,0.9c0,0.3-0.1,0.6-0.3,0.8
		c-0.2,0.2-0.5,0.4-0.8,0.6c-0.3,0.1-0.7,0.2-1.1,0.2c-0.5,0-1-0.1-1.4-0.3c-0.4-0.2-0.7-0.5-0.9-0.8c0,0,0-0.1,0-0.1
		c0,0,0-0.1,0-0.1l0.5-0.3c0,0,0.1,0,0.1,0c0,0,0.1,0,0.1,0c0.4,0.5,0.9,0.8,1.6,0.8c0.4,0,0.7-0.1,0.9-0.2s0.4-0.3,0.4-0.6
		c0-0.2-0.1-0.3-0.2-0.4c-0.1-0.1-0.4-0.2-0.7-0.3l-1-0.3c-0.5-0.1-0.9-0.3-1.1-0.5c-0.2-0.2-0.3-0.5-0.3-0.9c0-0.3,0.1-0.6,0.3-0.8
		c0.2-0.2,0.4-0.4,0.7-0.6s0.7-0.2,1.1-0.2c0.5,0,0.9,0.1,1.2,0.3c0.4,0.2,0.6,0.4,0.8,0.7c0,0,0,0.1,0,0.1c0,0,0,0,0,0.1l-0.5,0.3
		c0,0,0,0-0.1,0c0,0-0.1,0-0.1-0.1C158.4,23.8,158.2,23.6,158,23.5z"/>
	<path fill="#CCCCCC" d="M162.9,23.5c-0.2-0.1-0.5-0.2-0.8-0.2c-0.3,0-0.6,0.1-0.8,0.2c-0.2,0.1-0.3,0.3-0.3,0.6
		c0,0.1,0.1,0.3,0.2,0.4s0.3,0.2,0.6,0.3l1.2,0.3c0.5,0.1,0.8,0.3,1,0.6s0.3,0.5,0.3,0.9c0,0.3-0.1,0.6-0.3,0.8
		c-0.2,0.2-0.5,0.4-0.8,0.6c-0.3,0.1-0.7,0.2-1.1,0.2c-0.5,0-1-0.1-1.4-0.3c-0.4-0.2-0.7-0.5-0.9-0.8c0,0,0-0.1,0-0.1
		c0,0,0-0.1,0-0.1l0.5-0.3c0,0,0.1,0,0.1,0c0,0,0.1,0,0.1,0c0.4,0.5,0.9,0.8,1.6,0.8c0.4,0,0.7-0.1,0.9-0.2s0.4-0.3,0.4-0.6
		c0-0.2-0.1-0.3-0.2-0.4c-0.1-0.1-0.4-0.2-0.7-0.3l-1-0.3c-0.5-0.1-0.9-0.3-1.1-0.5c-0.2-0.2-0.3-0.5-0.3-0.9c0-0.3,0.1-0.6,0.3-0.8
		c0.2-0.2,0.4-0.4,0.7-0.6s0.7-0.2,1.1-0.2c0.5,0,0.9,0.1,1.2,0.3c0.4,0.2,0.6,0.4,0.8,0.7c0,0,0,0.1,0,0.1c0,0,0,0,0,0.1l-0.5,0.3
		c0,0,0,0-0.1,0c0,0-0.1,0-0.1-0.1C163.4,23.8,163.2,23.6,162.9,23.5z"/>
	<path fill="#CCCCCC" d="M166.3,21.7c0,0.1,0,0.1,0,0.2c0,0-0.1,0.1-0.2,0.1h-0.7c-0.1,0-0.1,0-0.1,0c0,0,0-0.1,0-0.1v-0.9
		c0-0.1,0-0.2,0.1-0.2h0.8c0,0,0.1,0,0.1,0c0,0,0,0.1,0,0.1V21.7z M166.3,27.8c0,0.1,0,0.1,0,0.2s-0.1,0-0.2,0h-0.7
		c-0.1,0-0.1,0-0.1,0c0,0,0-0.1,0-0.1v-5c0-0.1,0-0.1,0-0.1c0,0,0.1,0,0.1,0h0.8c0.1,0,0.1,0,0.1,0.1V27.8z"/>
	<path fill="#CCCCCC" d="M172.6,22.8v0.5c0,0.1-0.1,0.2-0.2,0.2c-0.1,0-0.2,0-0.3,0c-0.1,0-0.2,0-0.2,0c-0.1,0-0.1,0.1-0.2,0.1
		c0,0,0,0.1,0,0.1c0,0,0,0.1,0.1,0.2c0,0.1,0.1,0.2,0.1,0.4c0,0.5-0.2,0.9-0.6,1.2c-0.4,0.3-0.9,0.5-1.7,0.5c-0.4,0-0.8,0-1,0.1
		c-0.2,0.1-0.3,0.2-0.3,0.3c0,0.1,0.1,0.2,0.2,0.2c0.1,0,0.3,0.1,0.6,0.1l1.3,0.1c0.6,0,1,0.2,1.3,0.4c0.3,0.2,0.4,0.6,0.4,1
		c0,0.5-0.2,0.9-0.7,1.2c-0.5,0.3-1.1,0.4-2,0.4c-0.9,0-1.5-0.1-2-0.3c-0.5-0.2-0.7-0.6-0.7-1c0-0.2,0.1-0.4,0.2-0.6
		c0.2-0.2,0.4-0.3,0.7-0.5c0.1,0,0.1-0.1,0-0.1c-0.3-0.2-0.5-0.4-0.5-0.6c0-0.2,0.1-0.3,0.2-0.4c0.1-0.1,0.4-0.3,0.6-0.4
		c0,0,0.1,0,0.1,0c0,0,0,0-0.1-0.1c-0.3-0.2-0.5-0.3-0.7-0.6c-0.1-0.2-0.2-0.5-0.2-0.8c0-0.5,0.2-0.9,0.6-1.2s1-0.4,1.7-0.4
		c0.7,0,1.2,0.2,1.5,0.5c0,0,0.1,0,0.1,0c0,0,0.1,0,0.1-0.1c0.1-0.1,0.3-0.2,0.5-0.3c0.2-0.1,0.4-0.1,0.5-0.1
		C172.5,22.6,172.6,22.7,172.6,22.8z M168.7,27.5c-0.1,0-0.3,0-0.4,0.1c-0.1,0.1-0.3,0.2-0.4,0.3s-0.1,0.3-0.1,0.4
		c0,0.6,0.6,0.9,1.9,0.9c0.5,0,0.9-0.1,1.2-0.2c0.3-0.1,0.4-0.4,0.4-0.7c0-0.4-0.3-0.7-0.9-0.7L168.7,27.5z M170.5,25.1
		c0.2-0.2,0.3-0.4,0.3-0.8c0-0.3-0.1-0.6-0.3-0.8c-0.2-0.2-0.5-0.3-0.9-0.3c-0.4,0-0.7,0.1-1,0.3c-0.2,0.2-0.3,0.4-0.3,0.8
		c0,0.3,0.1,0.6,0.3,0.8c0.2,0.2,0.5,0.3,1,0.3C170,25.3,170.3,25.3,170.5,25.1z"/>
	<path fill="#CCCCCC" d="M173.3,27.9v-5c0-0.1,0-0.2,0.1-0.2h0.8c0.1,0,0.1,0,0.1,0.1v0.5c0,0,0,0.1,0,0.1s0,0,0.1,0
		c0.3-0.3,0.7-0.5,0.9-0.6s0.6-0.2,0.9-0.2c0.5,0,0.9,0.1,1.2,0.4c0.3,0.3,0.4,0.6,0.4,1.1v3.7c0,0.1-0.1,0.2-0.2,0.2h-0.7
		c-0.1,0-0.1-0.1-0.1-0.2v-3.5c0-0.3-0.1-0.5-0.2-0.7c-0.2-0.2-0.4-0.2-0.7-0.2c-0.3,0-0.5,0.1-0.7,0.2c-0.2,0.1-0.5,0.3-0.8,0.6
		v3.7c0,0.1,0,0.1,0,0.1s-0.1,0-0.1,0h-0.7C173.3,28,173.3,28,173.3,27.9z"/>
	<path fill="#CCCCCC" d="M178.9,27.9v-5c0-0.1,0-0.2,0.1-0.2h0.8c0.1,0,0.1,0,0.1,0.1v0.5c0,0,0,0.1,0,0.1s0,0,0.1,0
		c0.3-0.3,0.6-0.5,0.9-0.6s0.5-0.2,0.9-0.2c0.4,0,0.7,0.1,0.9,0.2c0.2,0.2,0.4,0.4,0.5,0.6c0,0,0,0,0,0c0,0,0.1,0,0.1,0
		c0.3-0.3,0.6-0.5,0.9-0.7c0.3-0.2,0.6-0.2,0.9-0.2c0.5,0,0.9,0.1,1.1,0.4c0.3,0.3,0.4,0.7,0.4,1.1v3.7c0,0.1-0.1,0.2-0.2,0.2h-0.7
		c-0.1,0-0.1,0-0.1,0c0,0,0-0.1,0-0.1v-3.5c0-0.3-0.1-0.5-0.2-0.7s-0.4-0.2-0.7-0.2c-0.4,0-0.8,0.2-1.3,0.6c0,0-0.1,0.1-0.1,0.1
		c0,0,0,0.1,0,0.2v3.5c0,0.1-0.1,0.2-0.2,0.2h-0.7c-0.1,0-0.2-0.1-0.2-0.2v-3.5c0-0.3-0.1-0.5-0.2-0.7s-0.4-0.2-0.7-0.2
		c-0.2,0-0.5,0.1-0.7,0.2c-0.2,0.1-0.5,0.3-0.7,0.6v3.7c0,0.1,0,0.1,0,0.1s-0.1,0-0.1,0h-0.7C179,28,178.9,28,178.9,27.9z"/>
	<path fill="#CCCCCC" d="M188.8,26.6c0.1,0.2,0.3,0.4,0.6,0.6c0.2,0.1,0.5,0.2,0.8,0.2c0.3,0,0.6-0.1,0.8-0.2
		c0.2-0.1,0.5-0.3,0.7-0.6c0,0,0,0,0.1,0c0,0,0.1,0,0.1,0l0.5,0.2c0,0,0.1,0,0.1,0.1c0,0,0,0,0,0.1c-0.3,0.4-0.6,0.7-1,0.9
		c-0.4,0.2-0.8,0.3-1.3,0.3c-0.5,0-0.9-0.1-1.3-0.3s-0.7-0.5-0.9-1c-0.2-0.4-0.3-0.9-0.3-1.4c0-0.6,0.1-1.1,0.3-1.5
		c0.2-0.4,0.5-0.8,0.9-1c0.4-0.2,0.8-0.3,1.3-0.3c0.5,0,0.9,0.1,1.3,0.3c0.4,0.2,0.7,0.5,0.9,0.9s0.3,0.9,0.3,1.5v0
		c0,0.1,0,0.1,0,0.1c0,0-0.1,0-0.1,0h-3.7c-0.1,0-0.1,0.1-0.1,0.2C188.6,26.1,188.7,26.3,188.8,26.6z M191.3,25c0.1,0,0.1,0,0.1,0
		c0,0,0-0.1,0-0.1c0-0.3-0.1-0.5-0.2-0.7c-0.1-0.2-0.3-0.4-0.5-0.5s-0.5-0.2-0.7-0.2c-0.3,0-0.6,0.1-0.8,0.2s-0.4,0.3-0.5,0.6
		s-0.2,0.5-0.2,0.8L191.3,25z"/>
	<path fill="#CCCCCC" d="M193.3,27.9v-5c0-0.1,0-0.2,0.1-0.2h0.8c0.1,0,0.1,0,0.1,0.1v0.5c0,0,0,0.1,0,0.1s0,0,0.1,0
		c0.3-0.3,0.7-0.5,0.9-0.6s0.6-0.2,0.9-0.2c0.5,0,0.9,0.1,1.2,0.4c0.3,0.3,0.4,0.6,0.4,1.1v3.7c0,0.1-0.1,0.2-0.2,0.2H197
		c-0.1,0-0.1-0.1-0.1-0.2v-3.5c0-0.3-0.1-0.5-0.2-0.7c-0.2-0.2-0.4-0.2-0.7-0.2c-0.3,0-0.5,0.1-0.7,0.2c-0.2,0.1-0.5,0.3-0.8,0.6
		v3.7c0,0.1,0,0.1,0,0.1s-0.1,0-0.1,0h-0.7C193.4,28,193.3,28,193.3,27.9z"/>
	<path fill="#CCCCCC" d="M200.6,23.5c-0.1,0-0.1,0-0.1,0.1v2.9c0,0.3,0.1,0.5,0.2,0.6s0.3,0.2,0.5,0.2h0.6c0.1,0,0.1,0,0.1,0.1v0.4
		c0,0.1,0,0.1-0.2,0.2c-0.2,0-0.6,0-1,0c-0.4,0-0.8-0.1-1-0.3c-0.2-0.2-0.3-0.5-0.3-0.9v-3.2c0-0.1,0-0.1-0.1-0.1h-0.8
		c-0.1,0-0.1,0-0.1-0.1v-0.5c0-0.1,0-0.1,0.1-0.1h0.8c0.1,0,0.1,0,0.1-0.1l0.1-1.6c0-0.1,0.1-0.1,0.1-0.1h0.7c0.1,0,0.1,0.1,0.1,0.2
		v1.5c0,0.1,0,0.1,0.1,0.1h1.2c0.1,0,0.1,0,0.1,0.1v0.5c0,0.1,0,0.1-0.1,0.1H200.6z"/>
</g>
<path fill="none" stroke="#CCCCCC" stroke-width="0.9435" stroke-miterlimit="10" d="M121.1,1.5c0,1.7,1.4,3,3,3c1.7,0,3-1.4,3-3"/>
<path fill="none" stroke="#37B34A" stroke-width="0.7583" stroke-miterlimit="10" d="M129.5,6.9"/>
<path fill="none" stroke="#CCCCCC" stroke-width="0.9435" stroke-miterlimit="10" d="M129.5,1.5c0,1.7,1.4,3,3,3s3-1.4,3-3"/>
<path fill="none" stroke="#37B34A" stroke-width="0.7583" stroke-miterlimit="10" d="M138,6.9"/>
<path fill="none" stroke="#CCCCCC" stroke-width="0.9435" stroke-miterlimit="10" d="M138,1.5c0,1.7,1.4,3,3,3c1.7,0,3-1.4,3-3"/>
<path fill="none" stroke="#CCCCCC" stroke-width="0.9435" stroke-miterlimit="10" d="M121.1,18.7c0-1.7,1.4-3,3-3c1.7,0,3,1.4,3,3"
	/>
<path fill="none" stroke="#CCCCCC" stroke-width="0.9435" stroke-miterlimit="10" d="M129.5,18.7c0-1.7,1.4-3,3-3s3,1.4,3,3"/>
<path fill="none" stroke="#CCCCCC" stroke-width="0.9435" stroke-miterlimit="10" d="M138,18.7c0-1.7,1.4-3,3-3c1.7,0,3,1.4,3,3"/>
<circle fill="none" stroke="#CCCCCC" stroke-width="0.9435" stroke-miterlimit="10" cx="124.1" cy="10.2" r="3"/>
<circle fill="none" stroke="#CCCCCC" stroke-width="0.9435" stroke-miterlimit="10" cx="132.5" cy="10.2" r="3"/>
<circle fill="#CCCCCC" stroke="#CCCCCC" stroke-width="0.9435" stroke-miterlimit="10" cx="141" cy="10.2" r="3"/>
<path fill="none" stroke="#979797" stroke-width="1.0437" stroke-miterlimit="10" d="M144.4,20.6"/>
<path fill="none" stroke="#979797" stroke-width="1.0437" stroke-miterlimit="10" d="M144.5,20.6"/>
<g>
</g>
<g>
</g>
<g>
</g>
<g>
</g>
<g>
</g>
<g>
</g>
<g>
</g>
<g>
</g>
<g>
</g>
<g>
</g>
<g>
</g>
<g>
</g>
<g>
</g>
<g>
</g>
<g>
</g>
</svg>
