<?xml version="1.0" encoding="utf-8"?>
<!-- Generator: Adobe Illustrator 17.1.0, SVG Export Plug-In . SVG Version: 6.00 Build 0)  -->
<!DOCTYPE svg PUBLIC "-//W3C//DTD SVG 1.1//EN" "http://www.w3.org/Graphics/SVG/1.1/DTD/svg11.dtd">
<svg version="1.1" id="Layer_1" xmlns="http://www.w3.org/2000/svg" xmlns:xlink="http://www.w3.org/1999/xlink" x="0px" y="0px"
	 width="240px" height="40px" viewBox="0 0 240 40" enable-background="new 0 0 240 40" xml:space="preserve">
<path fill="none" stroke="#979797" stroke-width="1.0437" stroke-miterlimit="10" d="M24.4,20.6"/>
<g>
	<path fill="#F6A330" d="M42.7,18.3c0,0.1,0,0.2-0.1,0.3c-0.1,0.1-0.2,0.1-0.3,0.1h-3.5c-0.3,0-0.4-0.1-0.5-0.4l-2.5-6.6
		c0-0.1-0.1-0.2-0.2-0.3c-0.1,0-0.2-0.1-0.4-0.1h-2.2c-0.1,0-0.2,0-0.2,0.1c0,0.1-0.1,0.1-0.1,0.2v6.5c0,0.2-0.1,0.4-0.2,0.4
		c-0.1,0.1-0.3,0.1-0.5,0.1h-3c-0.2,0-0.3,0-0.4-0.1c-0.1-0.1-0.1-0.2-0.1-0.4V1.7c0-0.3,0.1-0.4,0.4-0.4h7.4c2.1,0,3.8,0.4,4.9,1.3
		s1.7,2,1.7,3.6c0,1.1-0.3,2.1-0.9,2.9c-0.6,0.8-1.4,1.4-2.3,1.7c-0.1,0-0.2,0.2-0.1,0.4l3.1,7.1C42.7,18.2,42.7,18.3,42.7,18.3z
		 M37.9,8c0.5-0.4,0.7-0.9,0.7-1.7c0-0.8-0.2-1.3-0.7-1.7C37.4,4.2,36.8,4,36,4h-2.9c-0.2,0-0.3,0-0.4,0.1c-0.1,0.1-0.1,0.2-0.1,0.3
		v3.8c0,0.1,0,0.2,0.1,0.3c0,0.1,0.1,0.1,0.3,0.1h2.9C36.8,8.6,37.5,8.4,37.9,8z"/>
	<path fill="#F6A330" d="M51.3,1.3c3.1,0.1,5.4,0.9,7,2.4c1.5,1.5,2.3,3.6,2.3,6.3c0,2.8-0.8,4.9-2.4,6.5c-1.6,1.6-3.9,2.3-7,2.3
		h-5.1c-0.2,0-0.3,0-0.4-0.1c-0.1-0.1-0.1-0.2-0.1-0.4V1.7c0-0.2,0-0.3,0.1-0.4c0.1-0.1,0.2-0.1,0.4-0.1C48.6,1.2,50.4,1.2,51.3,1.3
		z M49.7,4.5v11c0,0.1,0,0.2,0.1,0.3c0,0,0.1,0.1,0.2,0.1h0.4c2,0,3.4-0.5,4.4-1.4c1-0.9,1.4-2.4,1.4-4.6c0-2-0.4-3.4-1.2-4.2
		c-0.8-0.9-2-1.3-3.7-1.4l-1.4,0C49.7,4.2,49.7,4.3,49.7,4.5z"/>
	<path fill="#F6A330" d="M73.9,1.7c1,0.5,1.8,1.1,2.5,1.9c0.7,0.8,1.1,1.7,1.2,2.6c0,0.1,0,0.2,0,0.4c0,0.1,0,0.2-0.1,0.2
		c0,0-0.1,0.1-0.2,0.1L74.2,7C74.1,7,74,7,74,7c0,0-0.1-0.1-0.1-0.3c-0.2-0.9-0.5-1.5-1-2.1c-0.5-0.5-1.2-0.8-2.1-0.8
		c-2.5,0-3.8,2-3.8,6c0,2.1,0.3,3.6,0.9,4.6c0.6,1,1.6,1.4,2.9,1.4c0.9,0,1.7-0.2,2.4-0.7c0.7-0.5,1.2-1.2,1.6-2.3
		c0-0.1,0.1-0.2,0.3-0.2c0.1,0,0.2,0,0.2,0l2.3,0.5c0.2,0.1,0.3,0.3,0.3,0.6c-0.2,0.7-0.5,1.4-1.1,2.2c-0.6,0.8-1.4,1.5-2.4,2.1
		S72.1,19,70.6,19c-1.6,0-3-0.4-4.2-1.1s-2.1-1.8-2.8-3.2c-0.6-1.4-1-3-1-4.8c0-1.8,0.3-3.4,1-4.7c0.6-1.3,1.6-2.4,2.8-3.1
		S69,1,70.6,1C71.8,1,72.9,1.2,73.9,1.7z"/>
</g>
<path fill="none" stroke="#979797" stroke-width="1.0437" stroke-miterlimit="10" d="M24.6,20.6"/>
<g>
	<path fill="#F6A330" d="M33.9,27.9C33.9,27.9,33.9,28,33.9,27.9C33.9,28,33.8,28,33.8,28h-1c-0.1,0-0.1,0-0.2-0.1l-1.2-3
		c0-0.1-0.1-0.1-0.2-0.1h-1.5c-0.1,0-0.1,0-0.1,0.1v3c0,0.1,0,0.1,0,0.1c0,0-0.1,0-0.1,0h-0.9c-0.1,0-0.1,0-0.1,0s0-0.1,0-0.1v-7.1
		c0-0.1,0-0.1,0-0.1s0.1,0,0.1,0h2.9c0.8,0,1.5,0.2,1.9,0.5c0.5,0.3,0.7,0.8,0.7,1.5c0,0.5-0.1,0.9-0.4,1.3c-0.3,0.3-0.6,0.6-1,0.7
		c0,0-0.1,0.1,0,0.1L33.9,27.9C33.9,27.9,33.9,27.9,33.9,27.9z M32.4,23.6c0.3-0.2,0.4-0.5,0.4-0.9c0-0.4-0.1-0.7-0.4-0.9
		c-0.2-0.2-0.6-0.3-1.1-0.3h-1.6c-0.1,0-0.1,0-0.1,0s0,0,0,0.1v2.2c0,0.1,0,0.1,0.1,0.1h1.5C31.7,23.9,32.1,23.8,32.4,23.6z"/>
	<path fill="#F6A330" d="M36.2,26.6c0.1,0.2,0.3,0.4,0.6,0.6s0.5,0.2,0.8,0.2c0.3,0,0.6-0.1,0.8-0.2c0.2-0.1,0.5-0.3,0.7-0.6
		c0,0,0,0,0.1,0c0,0,0.1,0,0.1,0l0.5,0.2c0,0,0.1,0,0.1,0.1c0,0,0,0,0,0.1c-0.3,0.4-0.6,0.7-1,0.9c-0.4,0.2-0.8,0.3-1.3,0.3
		c-0.5,0-0.9-0.1-1.3-0.3s-0.7-0.5-0.9-1s-0.3-0.9-0.3-1.4c0-0.6,0.1-1.1,0.3-1.5c0.2-0.4,0.5-0.8,0.9-1c0.4-0.2,0.8-0.3,1.3-0.3
		c0.5,0,0.9,0.1,1.3,0.3c0.4,0.2,0.7,0.5,0.9,0.9c0.2,0.4,0.3,0.9,0.3,1.5v0c0,0.1,0,0.1,0,0.1c0,0-0.1,0-0.1,0h-3.7
		c-0.1,0-0.1,0.1-0.1,0.2C36,26.1,36.1,26.3,36.2,26.6z M38.7,25c0.1,0,0.1,0,0.1,0c0,0,0-0.1,0-0.1c0-0.3-0.1-0.5-0.2-0.7
		c-0.1-0.2-0.3-0.4-0.5-0.5s-0.5-0.2-0.7-0.2c-0.3,0-0.6,0.1-0.8,0.2s-0.4,0.3-0.5,0.6C36.1,24.4,36,24.7,36,25L38.7,25z"/>
	<path fill="#F6A330" d="M44.5,27.9v-0.4c0-0.1,0-0.1,0-0.1c0,0,0,0-0.1,0c-0.2,0.2-0.4,0.4-0.6,0.5s-0.5,0.2-0.9,0.2
		c-0.4,0-0.8-0.1-1.1-0.3s-0.6-0.5-0.8-0.9s-0.3-0.9-0.3-1.5c0-0.6,0.1-1,0.3-1.5c0.2-0.4,0.5-0.8,0.8-1c0.4-0.2,0.7-0.4,1.2-0.4
		c0.3,0,0.5,0,0.8,0.1s0.4,0.2,0.6,0.4c0,0,0.1,0.1,0.1,0.1c0,0,0.1,0,0.1-0.1v-2.3c0-0.1,0-0.1,0.1-0.1h0.8c0,0,0.1,0,0.1,0
		c0,0,0,0.1,0,0.1v7.1c0,0.1,0,0.1,0,0.1c0,0-0.1,0-0.1,0h-0.7C44.6,28,44.5,28,44.5,27.9z M43.9,23.5c-0.2-0.1-0.4-0.2-0.6-0.2
		c-0.5,0-0.8,0.2-1.1,0.5c-0.3,0.4-0.4,0.9-0.4,1.5c0,0.7,0.1,1.2,0.4,1.5s0.6,0.5,1.1,0.5c0.2,0,0.4-0.1,0.6-0.2
		c0.2-0.1,0.3-0.2,0.5-0.4s0.2-0.3,0.2-0.5V24C44.3,23.8,44.1,23.6,43.9,23.5z"/>
	<path fill="#F6A330" d="M48,21.7c0,0.1,0,0.1,0,0.2c0,0-0.1,0.1-0.2,0.1h-0.7c-0.1,0-0.1,0-0.1,0c0,0,0-0.1,0-0.1v-0.9
		c0-0.1,0.1-0.2,0.1-0.2h0.8c0,0,0.1,0,0.1,0c0,0,0,0.1,0,0.1V21.7z M48,27.8c0,0.1,0,0.1,0,0.2c0,0-0.1,0-0.2,0h-0.7
		C47,28,47,28,47,28c0,0,0-0.1,0-0.1v-5c0-0.1,0-0.1,0-0.1s0.1,0,0.1,0h0.8c0.1,0,0.1,0,0.1,0.1V27.8z"/>
	<path fill="#F6A330" d="M52.9,27.9v-0.4c0-0.1,0-0.1,0-0.1c0,0,0,0-0.1,0c-0.2,0.2-0.4,0.4-0.6,0.5s-0.5,0.2-0.9,0.2
		c-0.4,0-0.8-0.1-1.1-0.3s-0.6-0.5-0.8-0.9s-0.3-0.9-0.3-1.5c0-0.6,0.1-1,0.3-1.5c0.2-0.4,0.5-0.8,0.8-1c0.4-0.2,0.7-0.4,1.2-0.4
		c0.3,0,0.5,0,0.8,0.1s0.4,0.2,0.6,0.4c0,0,0.1,0.1,0.1,0.1c0,0,0.1,0,0.1-0.1v-2.3c0-0.1,0-0.1,0.1-0.1h0.8c0,0,0.1,0,0.1,0
		c0,0,0,0.1,0,0.1v7.1c0,0.1,0,0.1,0,0.1c0,0-0.1,0-0.1,0h-0.7C53,28,52.9,28,52.9,27.9z M52.3,23.5c-0.2-0.1-0.4-0.2-0.6-0.2
		c-0.5,0-0.8,0.2-1.1,0.5c-0.3,0.4-0.4,0.9-0.4,1.5c0,0.7,0.1,1.2,0.4,1.5s0.6,0.5,1.1,0.5c0.2,0,0.4-0.1,0.6-0.2
		c0.2-0.1,0.3-0.2,0.5-0.4s0.2-0.3,0.2-0.5V24C52.7,23.8,52.5,23.6,52.3,23.5z"/>
	<path fill="#F6A330" d="M58.7,26.5v-3.6c0-0.1,0.1-0.2,0.2-0.2h0.7c0.1,0,0.2,0.1,0.2,0.2l0,5c0,0.1,0,0.1-0.1,0.1h-0.8
		c-0.1,0-0.1,0-0.1-0.1v-0.6c0-0.1,0-0.1-0.1,0c-0.3,0.3-0.6,0.5-0.9,0.6c-0.3,0.1-0.6,0.2-0.9,0.2c-0.5,0-0.8-0.1-1.1-0.4
		c-0.3-0.3-0.4-0.7-0.4-1.1v-3.7c0-0.1,0.1-0.2,0.2-0.2h0.7c0.1,0,0.2,0.1,0.2,0.2v3.5c0,0.3,0.1,0.5,0.2,0.7
		c0.2,0.2,0.4,0.3,0.7,0.3C57.7,27.3,58.2,27.1,58.7,26.5z"/>
	<path fill="#F6A330" d="M62.4,28.1c-0.5,0-0.9-0.1-1.2-0.4c-0.3-0.3-0.4-0.6-0.4-1.1c0-0.5,0.2-1,0.7-1.3c0.5-0.3,1.1-0.5,2-0.5
		l0.7-0.1c0.1,0,0.2-0.1,0.2-0.1v-0.2c0-0.3-0.1-0.6-0.3-0.8c-0.2-0.2-0.5-0.3-0.8-0.3c-0.5,0-1,0.2-1.3,0.7c0,0,0,0.1-0.1,0.1
		s-0.1,0-0.1,0L61,24c0,0-0.1,0-0.1-0.1c0,0,0-0.1,0-0.1c0.2-0.4,0.5-0.6,0.9-0.8c0.4-0.2,0.8-0.3,1.4-0.3c0.7,0,1.2,0.1,1.6,0.4
		c0.3,0.3,0.5,0.7,0.5,1.2v3.5c0,0.1,0,0.1,0,0.1c0,0-0.1,0-0.1,0h-0.7c-0.1,0-0.1-0.1-0.2-0.2l0-0.4c0-0.1,0-0.1-0.1-0.1
		c0,0-0.1,0-0.1,0.1C63.6,27.9,63.1,28.1,62.4,28.1z M64.1,25.4l-0.5,0c-0.6,0-1,0.1-1.3,0.3c-0.3,0.2-0.5,0.5-0.5,0.8
		c0,0.3,0.1,0.5,0.3,0.6c0.2,0.2,0.4,0.2,0.8,0.2c0.4,0,0.7-0.1,1-0.4c0.3-0.2,0.4-0.5,0.4-0.7v-0.8C64.3,25.4,64.2,25.4,64.1,25.4z
		"/>
	<path fill="#F6A330" d="M67.6,27.8c0,0.1,0,0.1,0,0.2c0,0-0.1,0-0.2,0h-0.7c-0.1,0-0.1,0-0.1,0c0,0,0-0.1,0-0.1l0-7.1
		c0-0.1,0-0.1,0.1-0.1h0.8c0.1,0,0.1,0,0.1,0.1V27.8z"/>
	<path fill="#F6A330" d="M73.2,20.6c1.3,0,2.3,0.3,3,1c0.6,0.6,0.9,1.5,0.9,2.7c0,1.2-0.3,2.2-1,2.8s-1.7,1-3,1h-1.7
		c-0.1,0-0.2-0.1-0.2-0.2v-7.1c0-0.1,0-0.1,0-0.1s0.1,0,0.1,0C72.2,20.6,72.8,20.6,73.2,20.6z M72.5,21.6V27c0,0,0,0.1,0,0.1
		c0,0,0,0,0.1,0h0.3c0.7,0,1.2-0.1,1.7-0.3s0.7-0.5,1-0.9c0.2-0.4,0.3-1,0.3-1.7c0-0.7-0.1-1.2-0.3-1.6s-0.5-0.7-0.9-0.9
		s-0.9-0.3-1.5-0.3l-0.6,0C72.5,21.5,72.5,21.6,72.5,21.6z"/>
	<path fill="#F6A330" d="M79.4,21.7c0,0.1,0,0.1,0,0.2c0,0-0.1,0.1-0.2,0.1h-0.7c-0.1,0-0.1,0-0.1,0c0,0,0-0.1,0-0.1v-0.9
		c0-0.1,0.1-0.2,0.1-0.2h0.8c0,0,0.1,0,0.1,0c0,0,0,0.1,0,0.1V21.7z M79.4,27.8c0,0.1,0,0.1,0,0.2c0,0-0.1,0-0.2,0h-0.7
		c-0.1,0-0.1,0-0.1,0c0,0,0-0.1,0-0.1v-5c0-0.1,0-0.1,0-0.1s0.1,0,0.1,0h0.8c0.1,0,0.1,0,0.1,0.1V27.8z"/>
	<path fill="#F6A330" d="M81.8,22.9v0.4c0,0.1,0,0.1,0,0.1c0,0,0,0,0.1,0c0.2-0.2,0.4-0.4,0.6-0.5c0.2-0.1,0.5-0.2,0.9-0.2
		c0.4,0,0.8,0.1,1.1,0.3s0.6,0.5,0.8,0.9c0.2,0.4,0.3,0.9,0.3,1.5c0,0.6-0.1,1.1-0.3,1.5c-0.2,0.4-0.5,0.7-0.8,1s-0.7,0.3-1.2,0.3
		c-0.5,0-1-0.2-1.4-0.5c-0.1,0-0.1-0.1-0.1-0.1c0,0-0.1,0-0.1,0.1v1.8c0,0.1,0,0.1-0.1,0.1h-0.8c-0.1,0-0.1,0-0.1-0.1v-6.6
		c0-0.1,0-0.1,0-0.1c0,0,0.1,0,0.1,0h0.7C81.7,22.7,81.8,22.8,81.8,22.9z M82.4,27.3c0.2,0.1,0.4,0.2,0.6,0.2c0.5,0,0.8-0.2,1.1-0.5
		c0.3-0.4,0.4-0.9,0.4-1.6c0-0.7-0.1-1.2-0.4-1.5c-0.3-0.3-0.6-0.5-1-0.5c-0.2,0-0.5,0.1-0.7,0.2c-0.2,0.1-0.3,0.2-0.5,0.4
		c-0.1,0.2-0.2,0.3-0.2,0.5v2.4C82,27,82.2,27.2,82.4,27.3z"/>
	<path fill="#F6A330" d="M87.6,27.8c-0.4-0.2-0.7-0.6-0.9-1c-0.2-0.4-0.3-0.9-0.3-1.4c0-0.5,0.1-1,0.3-1.4c0.2-0.4,0.5-0.8,0.9-1
		s0.8-0.3,1.3-0.3c0.5,0,1,0.1,1.3,0.4c0.4,0.2,0.7,0.6,0.9,1c0.2,0.4,0.3,0.9,0.3,1.4c0,0.5-0.1,1-0.3,1.4c-0.2,0.4-0.5,0.7-0.9,1
		s-0.8,0.3-1.3,0.3C88.5,28.1,88,28,87.6,27.8z M90.1,26.9c0.3-0.4,0.4-0.8,0.4-1.5c0-0.6-0.1-1.1-0.4-1.5c-0.3-0.4-0.6-0.5-1.1-0.5
		s-0.8,0.2-1.1,0.5s-0.4,0.9-0.4,1.5c0,0.6,0.1,1.1,0.4,1.5s0.6,0.5,1.1,0.5C89.5,27.4,89.8,27.2,90.1,26.9z"/>
	<path fill="#F6A330" d="M93.7,27.8c0,0.1,0,0.1,0,0.2c0,0-0.1,0-0.2,0h-0.7c-0.1,0-0.1,0-0.1,0c0,0,0-0.1,0-0.1l0-7.1
		c0-0.1,0-0.1,0.1-0.1h0.8c0.1,0,0.1,0,0.1,0.1V27.8z"/>
	<path fill="#F6A330" d="M96.1,26.6c0.1,0.2,0.3,0.4,0.6,0.6s0.5,0.2,0.8,0.2c0.3,0,0.6-0.1,0.8-0.2c0.2-0.1,0.5-0.3,0.7-0.6
		c0,0,0,0,0.1,0c0,0,0.1,0,0.1,0l0.5,0.2c0,0,0.1,0,0.1,0.1c0,0,0,0,0,0.1c-0.3,0.4-0.6,0.7-1,0.9c-0.4,0.2-0.8,0.3-1.3,0.3
		c-0.5,0-0.9-0.1-1.3-0.3s-0.7-0.5-0.9-1s-0.3-0.9-0.3-1.4c0-0.6,0.1-1.1,0.3-1.5c0.2-0.4,0.5-0.8,0.9-1c0.4-0.2,0.8-0.3,1.3-0.3
		c0.5,0,0.9,0.1,1.3,0.3c0.4,0.2,0.7,0.5,0.9,0.9c0.2,0.4,0.3,0.9,0.3,1.5v0c0,0.1,0,0.1,0,0.1c0,0-0.1,0-0.1,0H96
		c-0.1,0-0.1,0.1-0.1,0.2C95.9,26.1,96,26.3,96.1,26.6z M98.6,25c0.1,0,0.1,0,0.1,0c0,0,0-0.1,0-0.1c0-0.3-0.1-0.5-0.2-0.7
		c-0.1-0.2-0.3-0.4-0.5-0.5s-0.5-0.2-0.7-0.2c-0.3,0-0.6,0.1-0.8,0.2s-0.4,0.3-0.5,0.6c-0.1,0.2-0.2,0.5-0.2,0.8L98.6,25z"/>
	<path fill="#F6A330" d="M32.6,29.8c0.4,0.2,0.7,0.4,1,0.8c0.3,0.3,0.4,0.7,0.5,1c0,0,0,0.1,0,0.1c0,0,0,0.1,0,0.1c0,0,0,0-0.1,0
		l-0.9,0.1h0c0,0-0.1,0-0.1-0.1c-0.1-0.4-0.3-0.7-0.6-1c-0.3-0.2-0.6-0.4-1.1-0.4c-0.6,0-1.1,0.2-1.5,0.7c-0.3,0.5-0.5,1.2-0.5,2.2
		c0,1,0.2,1.7,0.5,2.2c0.3,0.5,0.8,0.7,1.5,0.7c0.5,0,0.8-0.1,1.1-0.3c0.3-0.2,0.5-0.6,0.7-1.1c0,0,0.1-0.1,0.1,0l0.7,0.2
		c0.1,0,0.1,0.1,0.1,0.2c-0.1,0.3-0.3,0.6-0.5,0.9c-0.2,0.3-0.6,0.6-1,0.8c-0.4,0.2-0.9,0.3-1.4,0.3c-0.7,0-1.2-0.2-1.7-0.5
		c-0.5-0.3-0.9-0.8-1.1-1.3c-0.3-0.6-0.4-1.3-0.4-2c0-0.8,0.1-1.5,0.4-2c0.3-0.6,0.6-1,1.1-1.3c0.5-0.3,1.1-0.5,1.7-0.5
		C31.7,29.6,32.2,29.7,32.6,29.8z"/>
	<path fill="#F6A330" d="M36.2,36.8c-0.4-0.2-0.7-0.6-0.9-1C35.1,35.5,35,35,35,34.5c0-0.5,0.1-1,0.3-1.4c0.2-0.4,0.5-0.8,0.9-1
		s0.8-0.4,1.3-0.4c0.5,0,1,0.1,1.3,0.4c0.4,0.2,0.7,0.6,0.9,1c0.2,0.4,0.3,0.9,0.3,1.4c0,0.5-0.1,1-0.3,1.4c-0.2,0.4-0.5,0.7-0.9,1
		s-0.8,0.3-1.3,0.3C37,37.2,36.6,37.1,36.2,36.8z M38.7,35.9c0.3-0.4,0.4-0.8,0.4-1.5c0-0.6-0.1-1.1-0.4-1.5
		c-0.3-0.4-0.6-0.5-1.1-0.5s-0.8,0.2-1.1,0.5s-0.4,0.9-0.4,1.5c0,0.6,0.1,1.1,0.4,1.5s0.6,0.5,1.1,0.5C38,36.4,38.4,36.3,38.7,35.9z
		"/>
	<path fill="#F6A330" d="M44.6,35.6v-3.6c0-0.1,0.1-0.2,0.2-0.2h0.7c0.1,0,0.2,0.1,0.2,0.2l0,5c0,0.1,0,0.1-0.1,0.1h-0.8
		c-0.1,0-0.1,0-0.1-0.1v-0.6c0-0.1,0-0.1-0.1,0c-0.3,0.3-0.6,0.5-0.9,0.6c-0.3,0.1-0.6,0.2-0.9,0.2c-0.5,0-0.8-0.1-1.1-0.4
		c-0.3-0.3-0.4-0.7-0.4-1.1V32c0-0.1,0.1-0.2,0.2-0.2h0.7c0.1,0,0.2,0.1,0.2,0.2v3.5c0,0.3,0.1,0.5,0.2,0.7c0.2,0.2,0.4,0.3,0.7,0.3
		C43.6,36.4,44.1,36.1,44.6,35.6z"/>
	<path fill="#F6A330" d="M48,31.9v0.4c0,0.1,0,0.1,0,0.1c0,0,0,0,0.1,0c0.2-0.2,0.4-0.4,0.6-0.5s0.5-0.2,0.9-0.2
		c0.4,0,0.8,0.1,1.1,0.3c0.3,0.2,0.6,0.5,0.8,0.9c0.2,0.4,0.3,0.9,0.3,1.5c0,0.6-0.1,1.1-0.3,1.5c-0.2,0.4-0.5,0.7-0.8,1
		s-0.7,0.3-1.2,0.3c-0.5,0-1-0.2-1.4-0.5c-0.1,0-0.1-0.1-0.1-0.1c0,0-0.1,0-0.1,0.1v1.8c0,0.1,0,0.1-0.1,0.1h-0.8
		c-0.1,0-0.1,0-0.1-0.1V32c0-0.1,0-0.1,0-0.1c0,0,0.1,0,0.1,0h0.7C48,31.8,48,31.8,48,31.9z M48.6,36.3c0.2,0.1,0.4,0.2,0.6,0.2
		c0.5,0,0.8-0.2,1.1-0.5c0.3-0.4,0.4-0.9,0.4-1.6c0-0.7-0.1-1.2-0.4-1.5c-0.3-0.3-0.6-0.5-1-0.5c-0.2,0-0.5,0.1-0.7,0.2
		c-0.2,0.1-0.3,0.2-0.5,0.4c-0.1,0.2-0.2,0.3-0.2,0.5v2.4C48.2,36,48.4,36.2,48.6,36.3z"/>
	<path fill="#F6A330" d="M54,36.9c0,0.1,0,0.1,0,0.2c0,0-0.1,0-0.2,0h-0.7c-0.1,0-0.1,0-0.1,0c0,0,0-0.1,0-0.1l0-7.1
		c0-0.1,0-0.2,0.1-0.2h0.8c0.1,0,0.1,0,0.1,0.2V36.9z"/>
	<path fill="#F6A330" d="M56.5,30.7c0,0.1,0,0.1,0,0.2c0,0-0.1,0-0.2,0h-0.7c-0.1,0-0.1,0-0.1,0c0,0,0-0.1,0-0.1v-0.9
		c0-0.1,0.1-0.2,0.1-0.2h0.8c0,0,0.1,0,0.1,0c0,0,0,0.1,0,0.1V30.7z M56.4,36.9c0,0.1,0,0.1,0,0.2c0,0-0.1,0-0.2,0h-0.7
		c-0.1,0-0.1,0-0.1,0c0,0,0-0.1,0-0.1v-5c0-0.1,0-0.1,0-0.1s0.1,0,0.1,0h0.8c0.1,0,0.1,0,0.1,0.1V36.9z"/>
	<path fill="#F6A330" d="M57.8,36.9v-5c0-0.1,0-0.1,0.1-0.1h0.8c0.1,0,0.1,0,0.1,0.1v0.5c0,0,0,0.1,0,0.1c0,0,0,0,0.1,0
		c0.3-0.3,0.7-0.5,0.9-0.6s0.6-0.2,0.9-0.2c0.5,0,0.9,0.1,1.2,0.4c0.3,0.3,0.4,0.6,0.4,1.1v3.7c0,0.1-0.1,0.2-0.2,0.2h-0.7
		c-0.1,0-0.1-0.1-0.1-0.2v-3.5c0-0.3-0.1-0.5-0.2-0.7c-0.2-0.2-0.4-0.2-0.7-0.2c-0.3,0-0.5,0.1-0.7,0.2c-0.2,0.1-0.5,0.3-0.8,0.6
		v3.7c0,0.1,0,0.1,0,0.1c0,0-0.1,0-0.1,0H58C57.8,37.1,57.8,37,57.8,36.9z"/>
	<path fill="#F6A330" d="M68.8,31.8v0.5c0,0.1-0.1,0.2-0.2,0.2c-0.1,0-0.2,0-0.3,0c-0.1,0-0.2,0-0.2,0c-0.1,0-0.1,0.1-0.2,0.1
		c0,0,0,0.1,0,0.1c0,0,0,0.1,0.1,0.2s0.1,0.2,0.1,0.4c0,0.5-0.2,0.9-0.6,1.2c-0.4,0.3-0.9,0.5-1.7,0.5c-0.4,0-0.8,0-1,0.1
		c-0.2,0.1-0.3,0.2-0.3,0.3c0,0.1,0.1,0.2,0.2,0.2c0.1,0,0.3,0.1,0.6,0.1l1.3,0.1c0.6,0,1,0.2,1.3,0.4c0.3,0.2,0.4,0.6,0.4,1
		c0,0.5-0.2,0.9-0.7,1.2c-0.5,0.3-1.1,0.4-2,0.4c-0.9,0-1.5-0.1-2-0.3c-0.5-0.2-0.7-0.6-0.7-1c0-0.2,0.1-0.4,0.2-0.6
		c0.2-0.2,0.4-0.3,0.7-0.5c0.1,0,0.1-0.1,0-0.1c-0.3-0.2-0.5-0.4-0.5-0.6c0-0.2,0.1-0.3,0.2-0.4c0.1-0.1,0.4-0.3,0.6-0.4
		c0,0,0.1,0,0.1,0c0,0,0,0-0.1-0.1c-0.3-0.2-0.5-0.3-0.7-0.6c-0.1-0.2-0.2-0.5-0.2-0.8c0-0.5,0.2-0.9,0.6-1.2c0.4-0.3,1-0.4,1.7-0.4
		c0.7,0,1.2,0.1,1.5,0.5c0,0,0.1,0,0.1,0c0,0,0.1,0,0.1-0.1c0.1-0.1,0.3-0.2,0.5-0.3c0.2-0.1,0.4-0.1,0.5-0.1
		C68.7,31.6,68.8,31.7,68.8,31.8z M64.9,36.5c-0.1,0-0.3,0-0.4,0.1c-0.1,0.1-0.3,0.2-0.4,0.3S64,37.2,64,37.3c0,0.6,0.6,0.9,1.9,0.9
		c0.5,0,0.9-0.1,1.2-0.2c0.3-0.1,0.4-0.4,0.4-0.7c0-0.4-0.3-0.7-0.9-0.7L64.9,36.5z M66.7,34.1c0.2-0.2,0.3-0.4,0.3-0.8
		c0-0.3-0.1-0.6-0.3-0.8s-0.5-0.3-0.9-0.3c-0.4,0-0.7,0.1-1,0.3c-0.2,0.2-0.3,0.4-0.3,0.8c0,0.3,0.1,0.6,0.3,0.8
		c0.2,0.2,0.5,0.3,1,0.3C66.2,34.4,66.5,34.3,66.7,34.1z"/>
</g>
<path fill="none" stroke="#F6A330" stroke-width="0.9435" stroke-miterlimit="10" d="M1.1,1.5c0,1.7,1.4,3,3,3s3-1.4,3-3"/>
<path fill="none" stroke="#F6A330" stroke-width="0.7583" stroke-miterlimit="10" d="M9.5,6.9"/>
<path fill="none" stroke="#F6A330" stroke-width="0.9435" stroke-miterlimit="10" d="M9.5,1.5c0,1.7,1.4,3,3,3c1.7,0,3-1.4,3-3"/>
<path fill="none" stroke="#37B34A" stroke-width="0.7583" stroke-miterlimit="10" d="M18,6.9"/>
<path fill="none" stroke="#F6A330" stroke-width="0.9435" stroke-miterlimit="10" d="M18,1.5c0,1.7,1.4,3,3,3c1.7,0,3-1.4,3-3"/>
<path fill="none" stroke="#F6A330" stroke-width="0.9435" stroke-miterlimit="10" d="M1.1,18.7c0-1.7,1.4-3,3-3s3,1.4,3,3"/>
<path fill="none" stroke="#F6A330" stroke-width="0.9435" stroke-miterlimit="10" d="M9.5,18.7c0-1.7,1.4-3,3-3c1.7,0,3,1.4,3,3"/>
<path fill="none" stroke="#F6A330" stroke-width="0.9435" stroke-miterlimit="10" d="M18,18.7c0-1.7,1.4-3,3-3c1.7,0,3,1.4,3,3"/>
<circle fill="none" stroke="#F6A330" stroke-width="0.9435" stroke-miterlimit="10" cx="4.1" cy="10.2" r="3"/>
<circle fill="none" stroke="#F6A330" stroke-width="0.9435" stroke-miterlimit="10" cx="12.5" cy="10.2" r="3"/>
<circle fill="#F6A330" stroke="#F6A330" stroke-width="0.9435" stroke-miterlimit="10" cx="21" cy="10.2" r="3"/>
<path fill="none" stroke="#979797" stroke-width="1.0437" stroke-miterlimit="10" d="M144.4,20.6"/>
<g>
	<path fill="#CCCCCC" d="M162.7,18.3c0,0.1,0,0.2-0.1,0.3c-0.1,0.1-0.2,0.1-0.3,0.1h-3.5c-0.3,0-0.4-0.1-0.5-0.4l-2.5-6.6
		c0-0.1-0.1-0.2-0.2-0.3s-0.2-0.1-0.4-0.1h-2.2c-0.1,0-0.2,0-0.2,0.1c0,0.1-0.1,0.1-0.1,0.2v6.5c0,0.2-0.1,0.4-0.2,0.4
		c-0.1,0.1-0.3,0.1-0.5,0.1h-3c-0.2,0-0.3,0-0.4-0.1c-0.1-0.1-0.1-0.2-0.1-0.4V1.7c0-0.3,0.1-0.4,0.4-0.4h7.4c2.1,0,3.8,0.4,4.9,1.3
		c1.2,0.8,1.7,2,1.7,3.6c0,1.1-0.3,2.1-0.9,2.9c-0.6,0.8-1.4,1.4-2.3,1.7c-0.1,0-0.2,0.2-0.1,0.4l3.1,7.1
		C162.7,18.2,162.7,18.3,162.7,18.3z M157.9,8c0.5-0.4,0.7-0.9,0.7-1.7c0-0.8-0.2-1.3-0.7-1.7C157.4,4.2,156.8,4,156,4h-2.9
		c-0.2,0-0.3,0-0.4,0.1s-0.1,0.2-0.1,0.3v3.8c0,0.1,0,0.2,0.1,0.3c0,0.1,0.1,0.1,0.3,0.1h2.9C156.8,8.6,157.5,8.4,157.9,8z"/>
	<path fill="#CCCCCC" d="M171.3,1.3c3.1,0.1,5.4,0.9,7,2.4c1.5,1.5,2.3,3.6,2.3,6.3c0,2.8-0.8,4.9-2.4,6.5c-1.6,1.6-3.9,2.3-7,2.3
		h-5.1c-0.2,0-0.3,0-0.4-0.1c-0.1-0.1-0.1-0.2-0.1-0.4V1.7c0-0.2,0-0.3,0.1-0.4c0.1-0.1,0.2-0.1,0.4-0.1
		C168.6,1.2,170.4,1.2,171.3,1.3z M169.7,4.5v11c0,0.1,0,0.2,0.1,0.3s0.1,0.1,0.2,0.1h0.4c2,0,3.5-0.5,4.4-1.4
		c1-0.9,1.4-2.4,1.4-4.6c0-2-0.4-3.4-1.2-4.2c-0.8-0.9-2-1.3-3.7-1.4l-1.4,0C169.7,4.2,169.7,4.3,169.7,4.5z"/>
	<path fill="#CCCCCC" d="M193.9,1.7c1,0.5,1.8,1.1,2.5,1.9c0.7,0.8,1.1,1.7,1.2,2.6c0,0.1,0,0.2,0,0.4c0,0.1,0,0.2-0.1,0.2
		c0,0-0.1,0.1-0.2,0.1L194.2,7C194.1,7,194,7,194,7c0,0-0.1-0.1-0.1-0.3c-0.2-0.9-0.5-1.5-1-2.1c-0.5-0.5-1.2-0.8-2.1-0.8
		c-2.5,0-3.8,2-3.8,6c0,2.1,0.3,3.6,0.9,4.6s1.6,1.4,2.9,1.4c0.9,0,1.7-0.2,2.4-0.7c0.7-0.5,1.2-1.2,1.6-2.3c0-0.1,0.1-0.2,0.3-0.2
		c0.1,0,0.2,0,0.2,0l2.3,0.5c0.2,0.1,0.3,0.3,0.3,0.6c-0.2,0.7-0.5,1.4-1.1,2.2c-0.6,0.8-1.4,1.5-2.4,2.1c-1,0.6-2.3,0.9-3.7,0.9
		c-1.6,0-3-0.4-4.2-1.1c-1.2-0.8-2.1-1.8-2.8-3.2s-1-3-1-4.8c0-1.8,0.3-3.4,1-4.7c0.6-1.3,1.6-2.4,2.8-3.1c1.2-0.7,2.6-1.1,4.2-1.1
		C191.8,1,192.9,1.2,193.9,1.7z"/>
</g>
<path fill="none" stroke="#979797" stroke-width="1.0437" stroke-miterlimit="10" d="M144.6,20.6"/>
<g>
	<path fill="#CCCCCC" d="M153.9,27.9C153.9,27.9,153.9,28,153.9,27.9c-0.1,0.1-0.1,0.1-0.1,0.1h-1c-0.1,0-0.1,0-0.2-0.1l-1.2-3
		c0-0.1-0.1-0.1-0.2-0.1h-1.5c-0.1,0-0.1,0-0.1,0.1v3c0,0.1,0,0.1,0,0.1s-0.1,0-0.1,0h-0.8c-0.1,0-0.1,0-0.1,0c0,0,0-0.1,0-0.1v-7.1
		c0-0.1,0-0.1,0-0.1c0,0,0.1,0,0.1,0h2.9c0.8,0,1.5,0.2,1.9,0.5c0.5,0.3,0.7,0.8,0.7,1.5c0,0.5-0.1,0.9-0.4,1.3
		c-0.3,0.3-0.6,0.6-1,0.7c0,0-0.1,0.1,0,0.1L153.9,27.9C153.9,27.9,153.9,27.9,153.9,27.9z M152.4,23.6c0.3-0.2,0.4-0.5,0.4-0.9
		c0-0.4-0.1-0.7-0.4-0.9s-0.6-0.3-1.1-0.3h-1.6c-0.1,0-0.1,0-0.1,0s0,0,0,0.1v2.2c0,0.1,0,0.1,0.1,0.1h1.5
		C151.7,23.9,152.1,23.8,152.4,23.6z"/>
	<path fill="#CCCCCC" d="M156,26.6c0.1,0.2,0.3,0.4,0.6,0.6c0.2,0.1,0.5,0.2,0.8,0.2c0.3,0,0.6-0.1,0.8-0.2c0.2-0.1,0.5-0.3,0.7-0.6
		c0,0,0,0,0.1,0c0,0,0.1,0,0.1,0l0.5,0.2c0,0,0,0,0,0.1c0,0,0,0,0,0.1c-0.3,0.4-0.6,0.7-1,0.9c-0.4,0.2-0.8,0.3-1.3,0.3
		c-0.5,0-0.9-0.1-1.3-0.3s-0.7-0.5-0.9-1c-0.2-0.4-0.3-0.9-0.3-1.4c0-0.6,0.1-1.1,0.3-1.5c0.2-0.4,0.5-0.8,0.9-1
		c0.4-0.2,0.8-0.3,1.3-0.3c0.5,0,0.9,0.1,1.3,0.3c0.4,0.2,0.7,0.5,0.9,0.9c0.2,0.4,0.3,0.9,0.3,1.5v0c0,0.1,0,0.1,0,0.1
		c0,0-0.1,0-0.1,0h-3.7c-0.1,0-0.1,0.1-0.1,0.2C155.8,26.1,155.9,26.3,156,26.6z M158.5,25c0.1,0,0.1,0,0.1,0c0,0,0-0.1,0-0.1
		c0-0.3-0.1-0.5-0.2-0.7c-0.1-0.2-0.3-0.4-0.5-0.5s-0.5-0.2-0.7-0.2c-0.3,0-0.6,0.1-0.8,0.2s-0.4,0.3-0.5,0.6
		c-0.1,0.2-0.2,0.5-0.2,0.8L158.5,25z"/>
	<path fill="#CCCCCC" d="M164.1,27.9v-0.4c0-0.1,0-0.1,0-0.1c0,0,0,0-0.1,0c-0.2,0.2-0.4,0.4-0.7,0.5s-0.5,0.2-0.9,0.2
		c-0.4,0-0.8-0.1-1.1-0.3s-0.6-0.5-0.8-0.9s-0.3-0.9-0.3-1.5c0-0.6,0.1-1,0.3-1.5c0.2-0.4,0.5-0.8,0.8-1c0.4-0.2,0.7-0.4,1.2-0.4
		c0.3,0,0.5,0,0.8,0.1c0.2,0.1,0.4,0.2,0.6,0.4c0,0,0.1,0.1,0.1,0.1c0,0,0.1,0,0.1-0.1v-2.3c0-0.1,0-0.1,0.1-0.1h0.8
		c0,0,0.1,0,0.1,0c0,0,0,0.1,0,0.1v7.1c0,0.1,0,0.1,0,0.1s-0.1,0-0.1,0h-0.7C164.2,28,164.1,28,164.1,27.9z M163.5,23.5
		c-0.2-0.1-0.4-0.2-0.6-0.2c-0.5,0-0.8,0.2-1.1,0.5c-0.3,0.4-0.4,0.9-0.4,1.5c0,0.7,0.1,1.2,0.4,1.5s0.6,0.5,1.1,0.5
		c0.2,0,0.4-0.1,0.6-0.2c0.2-0.1,0.3-0.2,0.5-0.4c0.1-0.2,0.2-0.3,0.2-0.5V24C163.9,23.8,163.7,23.6,163.5,23.5z"/>
	<path fill="#CCCCCC" d="M167.4,21.7c0,0.1,0,0.1,0,0.2c0,0-0.1,0.1-0.2,0.1h-0.7c-0.1,0-0.1,0-0.1,0c0,0,0-0.1,0-0.1v-0.9
		c0-0.1,0-0.2,0.1-0.2h0.8c0,0,0.1,0,0.1,0c0,0,0,0.1,0,0.1V21.7z M167.4,27.8c0,0.1,0,0.1,0,0.2s-0.1,0-0.2,0h-0.7
		c-0.1,0-0.1,0-0.1,0c0,0,0-0.1,0-0.1v-5c0-0.1,0-0.1,0-0.1c0,0,0.1,0,0.1,0h0.8c0.1,0,0.1,0,0.1,0.1V27.8z"/>
	<path fill="#CCCCCC" d="M172.1,27.9v-0.4c0-0.1,0-0.1,0-0.1c0,0,0,0-0.1,0c-0.2,0.2-0.4,0.4-0.6,0.5s-0.5,0.2-0.9,0.2
		c-0.4,0-0.8-0.1-1.1-0.3s-0.6-0.5-0.8-0.9s-0.3-0.9-0.3-1.5c0-0.6,0.1-1,0.3-1.5s0.5-0.8,0.8-1c0.3-0.2,0.7-0.4,1.2-0.4
		c0.3,0,0.5,0,0.8,0.1c0.2,0.1,0.4,0.2,0.6,0.4c0,0,0.1,0.1,0.1,0.1c0,0,0.1,0,0.1-0.1v-2.3c0-0.1,0-0.1,0.1-0.1h0.8
		c0,0,0.1,0,0.1,0c0,0,0,0.1,0,0.1v7.1c0,0.1,0,0.1,0,0.1c0,0-0.1,0-0.1,0h-0.7C172.2,28,172.1,28,172.1,27.9z M171.5,23.5
		c-0.2-0.1-0.4-0.2-0.6-0.2c-0.5,0-0.8,0.2-1.1,0.5s-0.4,0.9-0.4,1.5c0,0.7,0.1,1.2,0.4,1.5s0.6,0.5,1.1,0.5c0.2,0,0.4-0.1,0.6-0.2
		c0.2-0.1,0.3-0.2,0.5-0.4c0.1-0.2,0.2-0.3,0.2-0.5V24C171.9,23.8,171.7,23.6,171.5,23.5z"/>
	<path fill="#CCCCCC" d="M177.7,26.5v-3.6c0-0.1,0.1-0.2,0.2-0.2h0.7c0.1,0,0.2,0.1,0.2,0.2l0,5c0,0.1,0,0.1-0.1,0.1h-0.8
		c-0.1,0-0.1,0-0.1-0.1v-0.6c0-0.1,0-0.1-0.1,0c-0.3,0.3-0.6,0.5-0.9,0.6c-0.3,0.1-0.6,0.2-0.9,0.2c-0.5,0-0.8-0.1-1.1-0.4
		s-0.4-0.7-0.4-1.1v-3.7c0-0.1,0.1-0.2,0.2-0.2h0.7c0.1,0,0.2,0.1,0.2,0.2v3.5c0,0.3,0.1,0.5,0.2,0.7s0.4,0.3,0.7,0.3
		C176.7,27.3,177.2,27.1,177.7,26.5z"/>
	<path fill="#CCCCCC" d="M181.2,28.1c-0.5,0-0.9-0.1-1.2-0.4s-0.4-0.6-0.4-1.1c0-0.5,0.2-1,0.7-1.3c0.5-0.3,1.1-0.5,2-0.5l0.7-0.1
		c0.1,0,0.2-0.1,0.2-0.1v-0.2c0-0.3-0.1-0.6-0.3-0.8c-0.2-0.2-0.5-0.3-0.8-0.3c-0.5,0-1,0.2-1.3,0.7c0,0,0,0.1-0.1,0.1s-0.1,0-0.1,0
		l-0.7-0.2c0,0-0.1,0-0.1-0.1c0,0,0-0.1,0-0.1c0.2-0.4,0.5-0.6,0.9-0.8c0.4-0.2,0.8-0.3,1.4-0.3c0.7,0,1.2,0.1,1.6,0.4
		c0.3,0.3,0.5,0.7,0.5,1.2v3.5c0,0.1,0,0.1,0,0.1c0,0-0.1,0-0.1,0h-0.7c-0.1,0-0.1-0.1-0.2-0.2l0-0.4c0-0.1,0-0.1-0.1-0.1
		c0,0-0.1,0-0.1,0.1C182.4,27.9,181.9,28.1,181.2,28.1z M182.9,25.4l-0.5,0c-0.6,0-1,0.1-1.3,0.3c-0.3,0.2-0.5,0.5-0.5,0.8
		c0,0.3,0.1,0.5,0.3,0.6c0.2,0.2,0.4,0.2,0.8,0.2c0.4,0,0.7-0.1,1-0.4c0.3-0.2,0.4-0.5,0.4-0.7v-0.8C183.1,25.4,183,25.4,182.9,25.4
		z"/>
	<path fill="#CCCCCC" d="M186.2,27.8c0,0.1,0,0.1,0,0.2c0,0-0.1,0-0.2,0h-0.7c-0.1,0-0.1,0-0.1,0s0-0.1,0-0.1l0-7.1
		c0-0.1,0-0.1,0.1-0.1h0.8c0.1,0,0.1,0,0.1,0.1V27.8z"/>
	<path fill="#CCCCCC" d="M191.4,20.6c1.3,0,2.3,0.3,3,1c0.6,0.6,0.9,1.5,0.9,2.7c0,1.2-0.3,2.2-1,2.8c-0.7,0.6-1.7,1-3,1h-1.7
		c-0.1,0-0.2-0.1-0.2-0.2v-7.1c0-0.1,0-0.1,0-0.1c0,0,0.1,0,0.1,0C190.4,20.6,191,20.6,191.4,20.6z M190.7,21.6V27c0,0,0,0.1,0,0.1
		c0,0,0,0,0.1,0h0.3c0.7,0,1.2-0.1,1.7-0.3s0.7-0.5,1-0.9c0.2-0.4,0.3-1,0.3-1.7c0-0.7-0.1-1.2-0.3-1.6c-0.2-0.4-0.5-0.7-0.9-0.9
		s-0.9-0.3-1.5-0.3l-0.6,0C190.7,21.5,190.7,21.6,190.7,21.6z"/>
	<path fill="#CCCCCC" d="M197.4,21.7c0,0.1,0,0.1,0,0.2c0,0-0.1,0.1-0.2,0.1h-0.7c-0.1,0-0.1,0-0.1,0c0,0,0-0.1,0-0.1v-0.9
		c0-0.1,0-0.2,0.1-0.2h0.8c0,0,0.1,0,0.1,0c0,0,0,0.1,0,0.1V21.7z M197.4,27.8c0,0.1,0,0.1,0,0.2s-0.1,0-0.2,0h-0.7
		c-0.1,0-0.1,0-0.1,0c0,0,0-0.1,0-0.1v-5c0-0.1,0-0.1,0-0.1c0,0,0.1,0,0.1,0h0.8c0.1,0,0.1,0,0.1,0.1V27.8z"/>
	<path fill="#CCCCCC" d="M199.6,22.9v0.4c0,0.1,0,0.1,0,0.1c0,0,0,0,0.1,0c0.2-0.2,0.4-0.4,0.6-0.5c0.2-0.1,0.5-0.2,0.9-0.2
		c0.4,0,0.8,0.1,1.1,0.3s0.6,0.5,0.8,0.9c0.2,0.4,0.3,0.9,0.3,1.5c0,0.6-0.1,1.1-0.3,1.5c-0.2,0.4-0.5,0.7-0.8,1s-0.7,0.3-1.2,0.3
		c-0.5,0-1-0.2-1.4-0.5c-0.1,0-0.1-0.1-0.1-0.1c0,0-0.1,0-0.1,0.1v1.8c0,0.1,0,0.1-0.1,0.1h-0.8c-0.1,0-0.1,0-0.1-0.1v-6.6
		c0-0.1,0-0.1,0-0.1s0.1,0,0.1,0h0.7C199.5,22.7,199.6,22.8,199.6,22.9z M200.2,27.3c0.2,0.1,0.4,0.2,0.6,0.2c0.5,0,0.8-0.2,1.1-0.5
		c0.3-0.4,0.4-0.9,0.4-1.6c0-0.7-0.1-1.2-0.4-1.5c-0.3-0.3-0.6-0.5-1-0.5c-0.2,0-0.5,0.1-0.7,0.2c-0.2,0.1-0.3,0.2-0.5,0.4
		c-0.1,0.2-0.2,0.3-0.2,0.5v2.4C199.8,27,200,27.2,200.2,27.3z"/>
	<path fill="#CCCCCC" d="M205.2,27.8c-0.4-0.2-0.7-0.6-0.9-1c-0.2-0.4-0.3-0.9-0.3-1.4c0-0.5,0.1-1,0.3-1.4c0.2-0.4,0.5-0.8,0.9-1
		c0.4-0.2,0.8-0.3,1.3-0.3c0.5,0,1,0.1,1.3,0.4c0.4,0.2,0.7,0.6,0.9,1c0.2,0.4,0.3,0.9,0.3,1.4c0,0.5-0.1,1-0.3,1.4s-0.5,0.7-0.9,1
		c-0.4,0.2-0.8,0.3-1.3,0.3S205.6,28,205.2,27.8z M207.7,26.9c0.3-0.4,0.4-0.8,0.4-1.5c0-0.6-0.1-1.1-0.4-1.5
		c-0.3-0.4-0.6-0.5-1.1-0.5s-0.8,0.2-1.1,0.5s-0.4,0.9-0.4,1.5c0,0.6,0.1,1.1,0.4,1.5s0.6,0.5,1.1,0.5
		C207.1,27.4,207.4,27.2,207.7,26.9z"/>
	<path fill="#CCCCCC" d="M211.1,27.8c0,0.1,0,0.1,0,0.2s-0.1,0-0.2,0h-0.7c-0.1,0-0.1,0-0.1,0c0,0,0-0.1,0-0.1l0-7.1
		c0-0.1,0-0.1,0.1-0.1h0.8c0.1,0,0.1,0,0.1,0.1V27.8z"/>
	<path fill="#CCCCCC" d="M213.3,26.6c0.1,0.2,0.3,0.4,0.6,0.6c0.2,0.1,0.5,0.2,0.8,0.2c0.3,0,0.6-0.1,0.8-0.2
		c0.2-0.1,0.5-0.3,0.7-0.6c0,0,0,0,0.1,0c0,0,0.1,0,0.1,0l0.5,0.2c0,0,0.1,0,0.1,0.1c0,0,0,0,0,0.1c-0.3,0.4-0.6,0.7-1,0.9
		c-0.4,0.2-0.8,0.3-1.3,0.3c-0.5,0-0.9-0.1-1.3-0.3s-0.7-0.5-0.9-1c-0.2-0.4-0.3-0.9-0.3-1.4c0-0.6,0.1-1.1,0.3-1.5
		c0.2-0.4,0.5-0.8,0.9-1c0.4-0.2,0.8-0.3,1.3-0.3c0.5,0,0.9,0.1,1.3,0.3c0.4,0.2,0.7,0.5,0.9,0.9s0.3,0.9,0.3,1.5v0
		c0,0.1,0,0.1,0,0.1c0,0-0.1,0-0.1,0h-3.7c-0.1,0-0.1,0.1-0.1,0.2C213.1,26.1,213.2,26.3,213.3,26.6z M215.8,25c0.1,0,0.1,0,0.1,0
		c0,0,0-0.1,0-0.1c0-0.3-0.1-0.5-0.2-0.7c-0.1-0.2-0.3-0.4-0.5-0.5s-0.5-0.2-0.7-0.2c-0.3,0-0.6,0.1-0.8,0.2s-0.4,0.3-0.5,0.6
		s-0.2,0.5-0.2,0.8L215.8,25z"/>
	<path fill="#CCCCCC" d="M152.6,29.8c0.4,0.2,0.7,0.4,1,0.8c0.3,0.3,0.4,0.7,0.5,1c0,0,0,0.1,0,0.1c0,0,0,0.1,0,0.1c0,0,0,0-0.1,0
		l-0.9,0.1h0c0,0-0.1,0-0.1-0.1c-0.1-0.4-0.3-0.7-0.6-1c-0.3-0.2-0.6-0.4-1.1-0.4c-0.6,0-1.1,0.2-1.5,0.7s-0.5,1.2-0.5,2.2
		c0,1,0.2,1.7,0.5,2.2c0.3,0.5,0.8,0.7,1.5,0.7c0.5,0,0.8-0.1,1.1-0.3c0.3-0.2,0.5-0.6,0.7-1.1c0,0,0.1-0.1,0.1,0l0.7,0.2
		c0.1,0,0.1,0.1,0.1,0.2c-0.1,0.3-0.3,0.6-0.5,0.9c-0.2,0.3-0.6,0.6-1,0.8c-0.4,0.2-0.9,0.3-1.4,0.3c-0.7,0-1.2-0.2-1.7-0.5
		s-0.9-0.8-1.1-1.3c-0.3-0.6-0.4-1.3-0.4-2c0-0.8,0.1-1.5,0.4-2s0.6-1,1.1-1.3c0.5-0.3,1.1-0.5,1.7-0.5
		C151.7,29.6,152.2,29.7,152.6,29.8z"/>
	<path fill="#CCCCCC" d="M156,36.8c-0.4-0.2-0.7-0.6-0.9-1c-0.2-0.4-0.3-0.9-0.3-1.4c0-0.5,0.1-1,0.3-1.4c0.2-0.4,0.5-0.8,0.9-1
		c0.4-0.2,0.8-0.4,1.3-0.4c0.5,0,1,0.1,1.3,0.4s0.7,0.6,0.9,1c0.2,0.4,0.3,0.9,0.3,1.4c0,0.5-0.1,1-0.3,1.4c-0.2,0.4-0.5,0.7-0.9,1
		c-0.4,0.2-0.8,0.3-1.3,0.3C156.8,37.2,156.4,37.1,156,36.8z M158.5,35.9c0.3-0.4,0.4-0.8,0.4-1.5c0-0.6-0.1-1.1-0.4-1.5
		s-0.6-0.5-1.1-0.5s-0.8,0.2-1.1,0.5s-0.4,0.9-0.4,1.5c0,0.6,0.1,1.1,0.4,1.5s0.6,0.5,1.1,0.5C157.8,36.4,158.2,36.3,158.5,35.9z"/>
	<path fill="#CCCCCC" d="M164.2,35.6v-3.6c0-0.1,0.1-0.2,0.2-0.2h0.7c0.1,0,0.2,0.1,0.2,0.2l0,5c0,0.1,0,0.1-0.1,0.1h-0.8
		c-0.1,0-0.1,0-0.1-0.1v-0.6c0-0.1,0-0.1-0.1,0c-0.3,0.3-0.6,0.5-0.9,0.6c-0.3,0.1-0.6,0.2-0.9,0.2c-0.5,0-0.8-0.1-1.1-0.4
		s-0.4-0.7-0.4-1.1V32c0-0.1,0.1-0.2,0.2-0.2h0.7c0.1,0,0.2,0.1,0.2,0.2v3.5c0,0.3,0.1,0.5,0.2,0.7s0.4,0.3,0.7,0.3
		C163.2,36.4,163.7,36.1,164.2,35.6z"/>
	<path fill="#CCCCCC" d="M167.4,31.9v0.4c0,0.1,0,0.1,0,0.1c0,0,0,0,0.1,0c0.2-0.2,0.4-0.4,0.6-0.5c0.2-0.1,0.5-0.2,0.9-0.2
		c0.4,0,0.8,0.1,1.1,0.3c0.3,0.2,0.6,0.5,0.8,0.9c0.2,0.4,0.3,0.9,0.3,1.5c0,0.6-0.1,1.1-0.3,1.5c-0.2,0.4-0.5,0.7-0.8,1
		s-0.7,0.3-1.2,0.3c-0.5,0-1-0.2-1.4-0.5c-0.1,0-0.1-0.1-0.1-0.1c0,0-0.1,0-0.1,0.1v1.8c0,0.1,0,0.1-0.1,0.1h-0.8
		c-0.1,0-0.1,0-0.1-0.1V32c0-0.1,0-0.1,0-0.1s0.1,0,0.1,0h0.7C167.4,31.8,167.4,31.8,167.4,31.9z M168,36.3c0.2,0.1,0.4,0.2,0.6,0.2
		c0.5,0,0.8-0.2,1.1-0.5c0.3-0.4,0.4-0.9,0.4-1.6c0-0.7-0.1-1.2-0.4-1.5c-0.3-0.3-0.6-0.5-1-0.5c-0.2,0-0.5,0.1-0.7,0.2
		c-0.2,0.1-0.3,0.2-0.5,0.4c-0.1,0.2-0.2,0.3-0.2,0.5v2.4C167.6,36,167.8,36.2,168,36.3z"/>
	<path fill="#CCCCCC" d="M173.2,36.9c0,0.1,0,0.1,0,0.2c0,0-0.1,0-0.2,0h-0.7c-0.1,0-0.1,0-0.1,0s0-0.1,0-0.1l0-7.1
		c0-0.1,0-0.2,0.1-0.2h0.8c0.1,0,0.1,0,0.1,0.2V36.9z"/>
	<path fill="#CCCCCC" d="M175.5,30.7c0,0.1,0,0.1,0,0.2c0,0-0.1,0-0.2,0h-0.7c-0.1,0-0.1,0-0.1,0c0,0,0-0.1,0-0.1v-0.9
		c0-0.1,0-0.2,0.1-0.2h0.8c0,0,0.1,0,0.1,0c0,0,0,0.1,0,0.1V30.7z M175.4,36.9c0,0.1,0,0.1,0,0.2s-0.1,0-0.2,0h-0.7
		c-0.1,0-0.1,0-0.1,0c0,0,0-0.1,0-0.1v-5c0-0.1,0-0.1,0-0.1c0,0,0.1,0,0.1,0h0.8c0.1,0,0.1,0,0.1,0.1V36.9z"/>
	<path fill="#CCCCCC" d="M176.6,36.9v-5c0-0.1,0-0.1,0.1-0.1h0.8c0.1,0,0.1,0,0.1,0.1v0.5c0,0,0,0.1,0,0.1s0,0,0.1,0
		c0.3-0.3,0.7-0.5,0.9-0.6s0.6-0.2,0.9-0.2c0.5,0,0.9,0.1,1.2,0.4c0.3,0.3,0.4,0.6,0.4,1.1v3.7c0,0.1-0.1,0.2-0.2,0.2h-0.7
		c-0.1,0-0.1-0.1-0.1-0.2v-3.5c0-0.3-0.1-0.5-0.2-0.7c-0.2-0.2-0.4-0.2-0.7-0.2c-0.3,0-0.5,0.1-0.7,0.2c-0.2,0.1-0.5,0.3-0.8,0.6
		v3.7c0,0.1,0,0.1,0,0.1s-0.1,0-0.1,0h-0.7C176.6,37.1,176.6,37,176.6,36.9z"/>
	<path fill="#CCCCCC" d="M187.4,31.8v0.5c0,0.1-0.1,0.2-0.2,0.2c-0.1,0-0.2,0-0.3,0c-0.1,0-0.2,0-0.2,0c-0.1,0-0.1,0.1-0.2,0.1
		c0,0,0,0.1,0,0.1c0,0,0,0.1,0.1,0.2c0,0.1,0.1,0.2,0.1,0.4c0,0.5-0.2,0.9-0.6,1.2c-0.4,0.3-0.9,0.5-1.7,0.5c-0.4,0-0.8,0-1,0.1
		c-0.2,0.1-0.3,0.2-0.3,0.3c0,0.1,0.1,0.2,0.2,0.2c0.1,0,0.3,0.1,0.6,0.1l1.3,0.1c0.6,0,1,0.2,1.3,0.4c0.3,0.2,0.4,0.6,0.4,1
		c0,0.5-0.2,0.9-0.7,1.2c-0.5,0.3-1.1,0.4-2,0.4c-0.9,0-1.5-0.1-2-0.3c-0.5-0.2-0.7-0.6-0.7-1c0-0.2,0.1-0.4,0.2-0.6
		c0.2-0.2,0.4-0.3,0.7-0.5c0.1,0,0.1-0.1,0-0.1c-0.3-0.2-0.5-0.4-0.5-0.6c0-0.2,0.1-0.3,0.2-0.4c0.1-0.1,0.4-0.3,0.6-0.4
		c0,0,0.1,0,0.1,0c0,0,0,0-0.1-0.1c-0.3-0.2-0.5-0.3-0.7-0.6c-0.1-0.2-0.2-0.5-0.2-0.8c0-0.5,0.2-0.9,0.6-1.2c0.4-0.3,1-0.4,1.7-0.4
		c0.7,0,1.2,0.1,1.5,0.5c0,0,0.1,0,0.1,0c0,0,0.1,0,0.1-0.1c0.1-0.1,0.3-0.2,0.5-0.3s0.4-0.1,0.5-0.1
		C187.3,31.6,187.4,31.7,187.4,31.8z M183.5,36.5c-0.1,0-0.3,0-0.4,0.1c-0.1,0.1-0.3,0.2-0.4,0.3s-0.1,0.3-0.1,0.4
		c0,0.6,0.6,0.9,1.9,0.9c0.5,0,0.9-0.1,1.2-0.2c0.3-0.1,0.4-0.4,0.4-0.7c0-0.4-0.3-0.7-0.9-0.7L183.5,36.5z M185.3,34.1
		c0.2-0.2,0.3-0.4,0.3-0.8c0-0.3-0.1-0.6-0.3-0.8c-0.2-0.2-0.5-0.3-0.9-0.3c-0.4,0-0.7,0.1-1,0.3c-0.2,0.2-0.3,0.4-0.3,0.8
		c0,0.3,0.1,0.6,0.3,0.8c0.2,0.2,0.5,0.3,1,0.3C184.8,34.4,185.1,34.3,185.3,34.1z"/>
</g>
<path fill="none" stroke="#CCCCCC" stroke-width="0.9435" stroke-miterlimit="10" d="M121.1,1.5c0,1.7,1.4,3,3,3c1.7,0,3-1.4,3-3"/>
<path fill="none" stroke="#37B34A" stroke-width="0.7583" stroke-miterlimit="10" d="M129.5,6.9"/>
<path fill="none" stroke="#CCCCCC" stroke-width="0.9435" stroke-miterlimit="10" d="M129.5,1.5c0,1.7,1.4,3,3,3s3-1.4,3-3"/>
<path fill="none" stroke="#37B34A" stroke-width="0.7583" stroke-miterlimit="10" d="M138,6.9"/>
<path fill="none" stroke="#CCCCCC" stroke-width="0.9435" stroke-miterlimit="10" d="M138,1.5c0,1.7,1.4,3,3,3c1.7,0,3-1.4,3-3"/>
<path fill="none" stroke="#CCCCCC" stroke-width="0.9435" stroke-miterlimit="10" d="M121.1,18.7c0-1.7,1.4-3,3-3c1.7,0,3,1.4,3,3"
	/>
<path fill="none" stroke="#CCCCCC" stroke-width="0.9435" stroke-miterlimit="10" d="M129.5,18.7c0-1.7,1.4-3,3-3s3,1.4,3,3"/>
<path fill="none" stroke="#CCCCCC" stroke-width="0.9435" stroke-miterlimit="10" d="M138,18.7c0-1.7,1.4-3,3-3c1.7,0,3,1.4,3,3"/>
<circle fill="none" stroke="#CCCCCC" stroke-width="0.9435" stroke-miterlimit="10" cx="124.1" cy="10.2" r="3"/>
<circle fill="none" stroke="#CCCCCC" stroke-width="0.9435" stroke-miterlimit="10" cx="132.5" cy="10.2" r="3"/>
<circle fill="#CCCCCC" stroke="#CCCCCC" stroke-width="0.9435" stroke-miterlimit="10" cx="141" cy="10.2" r="3"/>
<path fill="none" stroke="#979797" stroke-width="1.0437" stroke-miterlimit="10" d="M144.4,20.6"/>
<path fill="none" stroke="#979797" stroke-width="1.0437" stroke-miterlimit="10" d="M144.5,20.6"/>
<g>
</g>
<g>
</g>
<g>
</g>
<g>
</g>
<g>
</g>
<g>
</g>
<g>
</g>
<g>
</g>
<g>
</g>
<g>
</g>
<g>
</g>
<g>
</g>
<g>
</g>
<g>
</g>
<g>
</g>
</svg>
