<?xml version="1.0" encoding="utf-8"?>
<!-- Generator: Adobe Illustrator 17.1.0, SVG Export Plug-In . SVG Version: 6.00 Build 0)  -->
<!DOCTYPE svg PUBLIC "-//W3C//DTD SVG 1.1//EN" "http://www.w3.org/Graphics/SVG/1.1/DTD/svg11.dtd">
<svg version="1.1" id="Layer_1" xmlns="http://www.w3.org/2000/svg" xmlns:xlink="http://www.w3.org/1999/xlink" x="0px" y="0px"
	 width="240px" height="40px" viewBox="0 0 240 40" enable-background="new 0 0 240 40" xml:space="preserve">
<path fill="none" stroke="#979797" stroke-width="1.0437" stroke-miterlimit="10" d="M24.4,20.6"/>
<g>
	<path fill="#42BDAE" d="M28.6,18.6c-0.1-0.1-0.1-0.2-0.1-0.4V1.7c0-0.3,0.1-0.4,0.4-0.4h4.9c0.2,0,0.3,0,0.4,0.1
		c0.1,0,0.1,0.1,0.2,0.3l3.6,9.9c0,0.1,0.1,0.2,0.2,0.2c0.1,0,0.1-0.1,0.2-0.2l3.4-9.7c0.1-0.4,0.3-0.5,0.5-0.5h5.1
		c0.2,0,0.4,0.1,0.4,0.4v16.5c0,0.2,0,0.4-0.1,0.4c-0.1,0.1-0.2,0.1-0.4,0.1h-3c-0.2,0-0.3,0-0.4-0.1s-0.1-0.2-0.1-0.4V6.5
		c0-0.1,0-0.2-0.1-0.2c0,0-0.1,0.1-0.1,0.2l-4.1,11.8c-0.1,0.3-0.2,0.4-0.5,0.4h-2c-0.3,0-0.5-0.1-0.5-0.4L32,6.7
		c0-0.1-0.1-0.2-0.1-0.2c-0.1,0-0.1,0.1-0.1,0.2v11.6c0,0.2,0,0.3-0.1,0.3c-0.1,0.1-0.2,0.1-0.3,0.1H29
		C28.8,18.7,28.7,18.7,28.6,18.6z"/>
	<path fill="#42BDAE" d="M51,18.6c-0.1-0.1-0.1-0.2-0.1-0.4V1.7c0-0.3,0.1-0.4,0.4-0.4h4.9c0.2,0,0.3,0,0.4,0.1
		c0.1,0,0.1,0.1,0.2,0.3l3.6,9.9c0,0.1,0.1,0.2,0.2,0.2c0.1,0,0.1-0.1,0.2-0.2L64,1.8c0.1-0.4,0.3-0.5,0.5-0.5h5.1
		c0.2,0,0.4,0.1,0.4,0.4v16.5c0,0.2,0,0.4-0.1,0.4c-0.1,0.1-0.2,0.1-0.4,0.1h-3c-0.2,0-0.3,0-0.4-0.1s-0.1-0.2-0.1-0.4V6.5
		c0-0.1,0-0.2-0.1-0.2c0,0-0.1,0.1-0.1,0.2l-4.1,11.8c-0.1,0.3-0.2,0.4-0.5,0.4h-2c-0.3,0-0.5-0.1-0.5-0.4L54.4,6.7
		c0-0.1-0.1-0.2-0.1-0.2c-0.1,0-0.1,0.1-0.1,0.2v11.6c0,0.2,0,0.3-0.1,0.3c-0.1,0.1-0.2,0.1-0.3,0.1h-2.4
		C51.2,18.7,51.1,18.7,51,18.6z"/>
</g>
<path fill="none" stroke="#979797" stroke-width="1.0437" stroke-miterlimit="10" d="M24.6,20.6"/>
<g>
	<path fill="#42BDAE" d="M28.4,27.9v-7.1c0-0.1,0-0.1,0-0.1s0.1,0,0.1,0h1.3c0.1,0,0.1,0,0.1,0c0,0,0,0,0.1,0.1l2,5.2
		c0,0.1,0,0.1,0.1,0.1c0,0,0,0,0.1-0.1l2-5.2c0-0.1,0.1-0.2,0.2-0.2h1.4c0.1,0,0.1,0,0.1,0.1v7.1c0,0.1,0,0.1,0,0.1c0,0-0.1,0-0.1,0
		h-0.9c-0.1,0-0.1,0-0.1,0c0,0,0-0.1,0-0.1v-5.5c0,0,0,0,0,0c0,0,0,0,0,0.1l-2.1,5.5c0,0.1-0.1,0.1-0.2,0.1h-0.6
		c-0.1,0-0.2,0-0.2-0.1l-2-5.4c0,0,0-0.1,0-0.1c0,0,0,0,0,0.1v5.4c0,0.1,0,0.1,0,0.1c0,0-0.1,0-0.1,0h-0.7
		C28.4,28,28.4,28,28.4,27.9z"/>
	<path fill="#42BDAE" d="M38.1,27.8c-0.4-0.2-0.7-0.6-0.9-1c-0.2-0.4-0.3-0.9-0.3-1.4c0-0.5,0.1-1,0.3-1.4c0.2-0.4,0.5-0.8,0.9-1
		s0.8-0.3,1.3-0.3c0.5,0,1,0.1,1.3,0.4c0.4,0.2,0.7,0.6,0.9,1c0.2,0.4,0.3,0.9,0.3,1.4c0,0.5-0.1,1-0.3,1.4c-0.2,0.4-0.5,0.7-0.9,1
		s-0.8,0.3-1.3,0.3C38.9,28.1,38.5,28,38.1,27.8z M40.5,26.9c0.3-0.4,0.4-0.8,0.4-1.5c0-0.6-0.1-1.1-0.4-1.5
		c-0.3-0.4-0.6-0.5-1.1-0.5s-0.8,0.2-1.1,0.5s-0.4,0.9-0.4,1.5c0,0.6,0.1,1.1,0.4,1.5s0.6,0.5,1.1,0.5
		C39.9,27.4,40.3,27.2,40.5,26.9z"/>
	<path fill="#42BDAE" d="M44.1,27.8c0,0.1,0,0.1,0,0.2c0,0-0.1,0-0.2,0h-0.7c-0.1,0-0.1,0-0.1,0c0,0,0-0.1,0-0.1l0-7.1
		c0-0.1,0-0.1,0.1-0.1H44c0.1,0,0.1,0,0.1,0.1V27.8z"/>
	<path fill="#42BDAE" d="M46.5,26.6c0.1,0.2,0.3,0.4,0.6,0.6s0.5,0.2,0.8,0.2c0.3,0,0.6-0.1,0.8-0.2c0.2-0.1,0.5-0.3,0.7-0.6
		c0,0,0,0,0.1,0c0,0,0.1,0,0.1,0l0.5,0.2c0,0,0.1,0,0.1,0.1c0,0,0,0,0,0.1c-0.3,0.4-0.6,0.7-1,0.9c-0.4,0.2-0.8,0.3-1.3,0.3
		c-0.5,0-0.9-0.1-1.3-0.3s-0.7-0.5-0.9-1s-0.3-0.9-0.3-1.4c0-0.6,0.1-1.1,0.3-1.5c0.2-0.4,0.5-0.8,0.9-1c0.4-0.2,0.8-0.3,1.3-0.3
		c0.5,0,0.9,0.1,1.3,0.3c0.4,0.2,0.7,0.5,0.9,0.9c0.2,0.4,0.3,0.9,0.3,1.5v0c0,0.1,0,0.1,0,0.1c0,0-0.1,0-0.1,0h-3.7
		c-0.1,0-0.1,0.1-0.1,0.2C46.3,26.1,46.4,26.3,46.5,26.6z M49,25c0.1,0,0.1,0,0.1,0c0,0,0-0.1,0-0.1c0-0.3-0.1-0.5-0.2-0.7
		c-0.1-0.2-0.3-0.4-0.5-0.5s-0.5-0.2-0.7-0.2c-0.3,0-0.6,0.1-0.8,0.2s-0.4,0.3-0.5,0.6c-0.1,0.2-0.2,0.5-0.2,0.8L49,25z"/>
	<path fill="#42BDAE" d="M54.9,23c0.4,0.2,0.6,0.6,0.8,1c0,0,0,0.1,0,0.1c0,0,0,0.1-0.1,0.1l-0.7,0.1h0c0,0-0.1,0-0.1-0.1
		c-0.2-0.3-0.4-0.5-0.5-0.6s-0.4-0.2-0.6-0.2c-0.5,0-0.8,0.2-1.1,0.5c-0.3,0.4-0.4,0.8-0.4,1.5c0,0.6,0.1,1.1,0.4,1.5
		c0.3,0.4,0.7,0.5,1.1,0.5c0.3,0,0.6-0.1,0.8-0.2s0.4-0.4,0.6-0.7c0,0,0,0,0.1,0c0,0,0,0,0.1,0l0.5,0.2c0.1,0,0.1,0.1,0,0.1
		c-0.2,0.4-0.5,0.7-0.8,1c-0.4,0.3-0.8,0.4-1.4,0.4c-0.5,0-0.9-0.1-1.3-0.3c-0.4-0.2-0.7-0.6-0.9-1c-0.2-0.4-0.3-0.9-0.3-1.4
		s0.1-1,0.3-1.4c0.2-0.4,0.5-0.7,0.9-1c0.4-0.2,0.8-0.4,1.3-0.4C54.1,22.6,54.5,22.8,54.9,23z"/>
	<path fill="#42BDAE" d="M60,26.5v-3.6c0-0.1,0.1-0.2,0.2-0.2H61c0.1,0,0.2,0.1,0.2,0.2l0,5c0,0.1,0,0.1-0.1,0.1h-0.8
		c-0.1,0-0.1,0-0.1-0.1v-0.6c0-0.1,0-0.1-0.1,0c-0.3,0.3-0.6,0.5-0.9,0.6c-0.3,0.1-0.6,0.2-0.9,0.2c-0.5,0-0.8-0.1-1.1-0.4
		c-0.3-0.3-0.4-0.7-0.4-1.1v-3.7c0-0.1,0.1-0.2,0.2-0.2h0.7c0.1,0,0.2,0.1,0.2,0.2v3.5c0,0.3,0.1,0.5,0.2,0.7
		c0.2,0.2,0.4,0.3,0.7,0.3C59.1,27.3,59.5,27.1,60,26.5z"/>
	<path fill="#42BDAE" d="M63.5,27.8c0,0.1,0,0.1,0,0.2c0,0-0.1,0-0.2,0h-0.7c-0.1,0-0.1,0-0.1,0c0,0,0-0.1,0-0.1l0-7.1
		c0-0.1,0-0.1,0.1-0.1h0.8c0.1,0,0.1,0,0.1,0.1V27.8z"/>
	<path fill="#42BDAE" d="M66.2,28.1c-0.5,0-0.9-0.1-1.2-0.4c-0.3-0.3-0.4-0.6-0.4-1.1c0-0.5,0.2-1,0.7-1.3c0.5-0.3,1.1-0.5,2-0.5
		l0.7-0.1c0.1,0,0.2-0.1,0.2-0.1v-0.2c0-0.3-0.1-0.6-0.3-0.8c-0.2-0.2-0.5-0.3-0.8-0.3c-0.5,0-1,0.2-1.3,0.7c0,0,0,0.1-0.1,0.1
		s-0.1,0-0.1,0L64.8,24c0,0-0.1,0-0.1-0.1c0,0,0-0.1,0-0.1c0.2-0.4,0.5-0.6,0.9-0.8c0.4-0.2,0.8-0.3,1.4-0.3c0.7,0,1.2,0.1,1.6,0.4
		c0.3,0.3,0.5,0.7,0.5,1.2v3.5c0,0.1,0,0.1,0,0.1c0,0-0.1,0-0.1,0h-0.7c-0.1,0-0.1-0.1-0.2-0.2l0-0.4c0-0.1,0-0.1-0.1-0.1
		c0,0-0.1,0-0.1,0.1C67.4,27.9,66.9,28.1,66.2,28.1z M67.9,25.4l-0.5,0c-0.6,0-1,0.1-1.3,0.3c-0.3,0.2-0.5,0.5-0.5,0.8
		c0,0.3,0.1,0.5,0.3,0.6c0.2,0.2,0.4,0.2,0.8,0.2c0.4,0,0.7-0.1,1-0.4c0.3-0.2,0.4-0.5,0.4-0.7v-0.8C68.1,25.4,68,25.4,67.9,25.4z"
		/>
	<path fill="#42BDAE" d="M70.4,27.9v-5c0-0.1,0-0.2,0.1-0.2h0.8c0.1,0,0.1,0,0.1,0.1v0.6c0,0,0,0.1,0,0.1s0,0,0.1,0
		c0.2-0.3,0.5-0.5,0.8-0.7c0.3-0.2,0.5-0.2,0.8-0.2c0.2,0,0.4,0,0.4,0.1v0.8c0,0.1,0,0.1-0.1,0.1c-0.1,0-0.3,0-0.5,0
		c-0.2,0-0.4,0.1-0.6,0.2c-0.2,0.1-0.4,0.2-0.5,0.4c-0.1,0.2-0.2,0.3-0.2,0.5v3.2c0,0.1-0.1,0.2-0.2,0.2h-0.7
		C70.4,28,70.4,28,70.4,27.9z"/>
	<path fill="#42BDAE" d="M28.4,36.9v-7.1c0-0.1,0-0.1,0-0.1s0.1,0,0.1,0h1.3c0.1,0,0.1,0,0.1,0c0,0,0,0,0.1,0.1l2,5.2
		c0,0.1,0,0.1,0.1,0.1c0,0,0,0,0.1-0.1l2-5.2c0-0.1,0.1-0.2,0.2-0.2h1.4c0.1,0,0.1,0,0.1,0.2v7.1c0,0.1,0,0.1,0,0.1c0,0-0.1,0-0.1,0
		h-0.9c-0.1,0-0.1,0-0.1,0c0,0,0-0.1,0-0.1v-5.5c0,0,0,0,0,0c0,0,0,0,0,0.1l-2.1,5.5c0,0.1-0.1,0.1-0.2,0.1h-0.6
		c-0.1,0-0.2,0-0.2-0.1l-2-5.4c0,0,0-0.1,0-0.1c0,0,0,0,0,0.1v5.4c0,0.1,0,0.1,0,0.1c0,0-0.1,0-0.1,0h-0.7
		C28.4,37.1,28.4,37,28.4,36.9z"/>
	<path fill="#42BDAE" d="M37.9,36.8c-0.4-0.2-0.7-0.6-0.9-1c-0.2-0.4-0.3-0.9-0.3-1.4c0-0.5,0.1-1,0.3-1.4c0.2-0.4,0.5-0.8,0.9-1
		s0.8-0.4,1.3-0.4c0.5,0,1,0.1,1.3,0.4c0.4,0.2,0.7,0.6,0.9,1c0.2,0.4,0.3,0.9,0.3,1.4c0,0.5-0.1,1-0.3,1.4c-0.2,0.4-0.5,0.7-0.9,1
		s-0.8,0.3-1.3,0.3C38.7,37.2,38.3,37.1,37.9,36.8z M40.3,35.9c0.3-0.4,0.4-0.8,0.4-1.5c0-0.6-0.1-1.1-0.4-1.5
		c-0.3-0.4-0.6-0.5-1.1-0.5s-0.8,0.2-1.1,0.5s-0.4,0.9-0.4,1.5c0,0.6,0.1,1.1,0.4,1.5s0.6,0.5,1.1,0.5
		C39.7,36.4,40.1,36.3,40.3,35.9z"/>
	<path fill="#42BDAE" d="M46.5,36.9v-0.4c0-0.1,0-0.1,0-0.1c0,0,0,0-0.1,0c-0.2,0.2-0.4,0.4-0.6,0.5s-0.5,0.2-0.9,0.2
		c-0.4,0-0.8-0.1-1.1-0.3s-0.6-0.5-0.8-0.9s-0.3-0.9-0.3-1.5c0-0.6,0.1-1,0.3-1.5c0.2-0.4,0.5-0.8,0.8-1s0.7-0.4,1.2-0.4
		c0.3,0,0.5,0,0.8,0.1c0.2,0.1,0.4,0.2,0.6,0.4c0,0,0.1,0,0.1,0c0,0,0.1,0,0.1-0.1v-2.3c0-0.1,0-0.2,0.1-0.2h0.8c0,0,0.1,0,0.1,0
		c0,0,0,0.1,0,0.1v7.1c0,0.1,0,0.1,0,0.1c0,0-0.1,0-0.1,0h-0.7C46.5,37.1,46.5,37,46.5,36.9z M45.8,32.6c-0.2-0.1-0.4-0.2-0.6-0.2
		c-0.5,0-0.8,0.2-1.1,0.5c-0.3,0.4-0.4,0.9-0.4,1.5c0,0.7,0.1,1.2,0.4,1.5s0.6,0.5,1.1,0.5c0.2,0,0.4-0.1,0.6-0.2
		c0.2-0.1,0.3-0.2,0.5-0.4s0.2-0.3,0.2-0.5V33C46.2,32.8,46,32.7,45.8,32.6z"/>
	<path fill="#42BDAE" d="M49.9,35.6c0.1,0.2,0.3,0.4,0.6,0.6s0.5,0.2,0.8,0.2c0.3,0,0.6-0.1,0.8-0.2c0.2-0.1,0.5-0.3,0.7-0.6
		c0,0,0,0,0.1,0c0,0,0.1,0,0.1,0l0.5,0.2c0,0,0.1,0,0.1,0.1c0,0,0,0,0,0.1c-0.3,0.4-0.6,0.7-1,0.9c-0.4,0.2-0.8,0.3-1.3,0.3
		c-0.5,0-0.9-0.1-1.3-0.3s-0.7-0.5-0.9-1s-0.3-0.9-0.3-1.4c0-0.6,0.1-1.1,0.3-1.5c0.2-0.4,0.5-0.8,0.9-1c0.4-0.2,0.8-0.3,1.3-0.3
		c0.5,0,0.9,0.1,1.3,0.3c0.4,0.2,0.7,0.5,0.9,0.9c0.2,0.4,0.3,0.9,0.3,1.5v0c0,0.1,0,0.1,0,0.1c0,0-0.1,0-0.1,0h-3.7
		c-0.1,0-0.1,0.1-0.1,0.2C49.7,35.1,49.7,35.4,49.9,35.6z M52.4,34c0.1,0,0.1,0,0.1,0c0,0,0-0.1,0-0.1c0-0.3-0.1-0.5-0.2-0.7
		c-0.1-0.2-0.3-0.4-0.5-0.5c-0.2-0.1-0.5-0.2-0.7-0.2c-0.3,0-0.6,0.1-0.8,0.2c-0.2,0.1-0.4,0.3-0.5,0.6c-0.1,0.2-0.2,0.5-0.2,0.8
		L52.4,34z"/>
	<path fill="#42BDAE" d="M55.7,36.9c0,0.1,0,0.1,0,0.2c0,0-0.1,0-0.2,0h-0.7c-0.1,0-0.1,0-0.1,0c0,0,0-0.1,0-0.1l0-7.1
		c0-0.1,0-0.2,0.1-0.2h0.8c0.1,0,0.1,0,0.1,0.2V36.9z"/>
	<path fill="#42BDAE" d="M58.1,30.7c0,0.1,0,0.1,0,0.2c0,0-0.1,0-0.2,0h-0.7c-0.1,0-0.1,0-0.1,0c0,0,0-0.1,0-0.1v-0.9
		c0-0.1,0.1-0.2,0.1-0.2H58c0,0,0.1,0,0.1,0c0,0,0,0.1,0,0.1V30.7z M58.1,36.9c0,0.1,0,0.1,0,0.2c0,0-0.1,0-0.2,0h-0.7
		c-0.1,0-0.1,0-0.1,0c0,0,0-0.1,0-0.1v-5c0-0.1,0-0.1,0-0.1s0.1,0,0.1,0H58c0.1,0,0.1,0,0.1,0.1V36.9z"/>
	<path fill="#42BDAE" d="M59.5,36.9v-5c0-0.1,0-0.1,0.1-0.1h0.8c0.1,0,0.1,0,0.1,0.1v0.5c0,0,0,0.1,0,0.1c0,0,0,0,0.1,0
		c0.3-0.3,0.7-0.5,0.9-0.6s0.6-0.2,0.9-0.2c0.5,0,0.9,0.1,1.2,0.4c0.3,0.3,0.4,0.6,0.4,1.1v3.7c0,0.1-0.1,0.2-0.2,0.2h-0.7
		c-0.1,0-0.1-0.1-0.1-0.2v-3.5c0-0.3-0.1-0.5-0.2-0.7c-0.2-0.2-0.4-0.2-0.7-0.2c-0.3,0-0.5,0.1-0.7,0.2c-0.2,0.1-0.5,0.3-0.8,0.6
		v3.7c0,0.1,0,0.1,0,0.1c0,0-0.1,0-0.1,0h-0.7C59.5,37.1,59.5,37,59.5,36.9z"/>
	<path fill="#42BDAE" d="M70.5,31.8v0.5c0,0.1-0.1,0.2-0.2,0.2c-0.1,0-0.2,0-0.3,0c-0.1,0-0.2,0-0.2,0c-0.1,0-0.1,0.1-0.2,0.1
		c0,0,0,0.1,0,0.1c0,0,0,0.1,0.1,0.2s0.1,0.2,0.1,0.4c0,0.5-0.2,0.9-0.6,1.2c-0.4,0.3-0.9,0.5-1.7,0.5c-0.4,0-0.8,0-1,0.1
		c-0.2,0.1-0.3,0.2-0.3,0.3c0,0.1,0.1,0.2,0.2,0.2c0.1,0,0.3,0.1,0.6,0.1l1.3,0.1c0.6,0,1,0.2,1.3,0.4c0.3,0.2,0.4,0.6,0.4,1
		c0,0.5-0.2,0.9-0.7,1.2c-0.5,0.3-1.1,0.4-2,0.4c-0.9,0-1.5-0.1-2-0.3c-0.5-0.2-0.7-0.6-0.7-1c0-0.2,0.1-0.4,0.2-0.6
		c0.2-0.2,0.4-0.3,0.7-0.5c0.1,0,0.1-0.1,0-0.1c-0.3-0.2-0.5-0.4-0.5-0.6c0-0.2,0.1-0.3,0.2-0.4c0.1-0.1,0.4-0.3,0.6-0.4
		c0,0,0.1,0,0.1,0c0,0,0,0-0.1-0.1c-0.3-0.2-0.5-0.3-0.7-0.6c-0.1-0.2-0.2-0.5-0.2-0.8c0-0.5,0.2-0.9,0.6-1.2c0.4-0.3,1-0.4,1.7-0.4
		c0.7,0,1.2,0.1,1.5,0.5c0,0,0.1,0,0.1,0c0,0,0.1,0,0.1-0.1c0.1-0.1,0.3-0.2,0.5-0.3c0.2-0.1,0.4-0.1,0.5-0.1
		C70.4,31.6,70.5,31.7,70.5,31.8z M66.6,36.5c-0.1,0-0.3,0-0.4,0.1c-0.1,0.1-0.3,0.2-0.4,0.3s-0.1,0.3-0.1,0.4
		c0,0.6,0.6,0.9,1.9,0.9c0.5,0,0.9-0.1,1.2-0.2c0.3-0.1,0.4-0.4,0.4-0.7c0-0.4-0.3-0.7-0.9-0.7L66.6,36.5z M68.4,34.1
		c0.2-0.2,0.3-0.4,0.3-0.8c0-0.3-0.1-0.6-0.3-0.8s-0.5-0.3-0.9-0.3c-0.4,0-0.7,0.1-1,0.3c-0.2,0.2-0.3,0.4-0.3,0.8
		c0,0.3,0.1,0.6,0.3,0.8c0.2,0.2,0.5,0.3,1,0.3C67.9,34.4,68.2,34.3,68.4,34.1z"/>
</g>
<path fill="none" stroke="#42BDAE" stroke-width="0.9435" stroke-miterlimit="10" d="M1.1,1.5c0,1.7,1.4,3,3,3s3-1.4,3-3"/>
<path fill="none" stroke="#37B34A" stroke-width="0.7583" stroke-miterlimit="10" d="M9.5,6.9"/>
<path fill="none" stroke="#42BDAE" stroke-width="0.9435" stroke-miterlimit="10" d="M9.5,1.5c0,1.7,1.4,3,3,3c1.7,0,3-1.4,3-3"/>
<path fill="none" stroke="#37B34A" stroke-width="0.7583" stroke-miterlimit="10" d="M18,6.9"/>
<path fill="none" stroke="#42BDAE" stroke-width="0.9435" stroke-miterlimit="10" d="M18,1.5c0,1.7,1.4,3,3,3c1.7,0,3-1.4,3-3"/>
<path fill="none" stroke="#42BDAE" stroke-width="0.9435" stroke-miterlimit="10" d="M1.1,18.7c0-1.7,1.4-3,3-3s3,1.4,3,3"/>
<path fill="none" stroke="#42BDAE" stroke-width="0.9435" stroke-miterlimit="10" d="M9.5,18.7c0-1.7,1.4-3,3-3c1.7,0,3,1.4,3,3"/>
<path fill="none" stroke="#42BDAE" stroke-width="0.9435" stroke-miterlimit="10" d="M18,18.7c0-1.7,1.4-3,3-3c1.7,0,3,1.4,3,3"/>
<circle fill="none" stroke="#42BDAE" stroke-width="0.9435" stroke-miterlimit="10" cx="4.1" cy="10.2" r="3"/>
<circle fill="none" stroke="#42BDAE" stroke-width="0.9435" stroke-miterlimit="10" cx="12.5" cy="10.2" r="3"/>
<circle fill="#42BDAE" stroke="#42BDAE" stroke-width="0.9435" stroke-miterlimit="10" cx="21" cy="10.2" r="3"/>
<path fill="none" stroke="#979797" stroke-width="1.0437" stroke-miterlimit="10" d="M144.4,20.6"/>
<g>
	<path fill="#CCCCCC" d="M148.6,18.6c-0.1-0.1-0.1-0.2-0.1-0.4V1.7c0-0.3,0.1-0.4,0.4-0.4h4.9c0.2,0,0.3,0,0.4,0.1
		c0.1,0,0.1,0.1,0.2,0.3l3.6,9.9c0,0.1,0.1,0.2,0.2,0.2c0.1,0,0.1-0.1,0.2-0.2l3.4-9.7c0.1-0.4,0.3-0.5,0.5-0.5h5.1
		c0.2,0,0.4,0.1,0.4,0.4v16.5c0,0.2,0,0.4-0.1,0.4c-0.1,0.1-0.2,0.1-0.4,0.1h-3c-0.2,0-0.3,0-0.4-0.1c-0.1-0.1-0.1-0.2-0.1-0.4V6.5
		c0-0.1,0-0.2-0.1-0.2s-0.1,0.1-0.1,0.2l-4.1,11.8c-0.1,0.3-0.2,0.4-0.5,0.4h-2c-0.3,0-0.5-0.1-0.5-0.4L152,6.7
		c0-0.1-0.1-0.2-0.1-0.2c-0.1,0-0.1,0.1-0.1,0.2v11.6c0,0.2,0,0.3-0.1,0.3c-0.1,0.1-0.2,0.1-0.3,0.1H149
		C148.8,18.7,148.7,18.7,148.6,18.6z"/>
	<path fill="#CCCCCC" d="M171,18.6c-0.1-0.1-0.1-0.2-0.1-0.4V1.7c0-0.3,0.1-0.4,0.4-0.4h4.9c0.2,0,0.3,0,0.4,0.1
		c0.1,0,0.1,0.1,0.2,0.3l3.6,9.9c0,0.1,0.1,0.2,0.2,0.2c0.1,0,0.1-0.1,0.2-0.2l3.4-9.7c0.1-0.4,0.3-0.5,0.5-0.5h5.1
		c0.2,0,0.4,0.1,0.4,0.4v16.5c0,0.2,0,0.4-0.1,0.4c-0.1,0.1-0.2,0.1-0.4,0.1h-3c-0.2,0-0.3,0-0.4-0.1c-0.1-0.1-0.1-0.2-0.1-0.4V6.5
		c0-0.1,0-0.2-0.1-0.2s-0.1,0.1-0.1,0.2l-4.1,11.8c-0.1,0.3-0.2,0.4-0.5,0.4h-2c-0.3,0-0.5-0.1-0.5-0.4l-4.1-11.7
		c0-0.1-0.1-0.2-0.1-0.2c-0.1,0-0.1,0.1-0.1,0.2v11.6c0,0.2,0,0.3-0.1,0.3c-0.1,0.1-0.2,0.1-0.3,0.1h-2.4
		C171.2,18.7,171.1,18.7,171,18.6z"/>
</g>
<path fill="none" stroke="#979797" stroke-width="1.0437" stroke-miterlimit="10" d="M144.6,20.6"/>
<g>
	<path fill="#CCCCCC" d="M148.4,27.9v-7.1c0-0.1,0-0.1,0-0.1c0,0,0.1,0,0.1,0h1.3c0.1,0,0.1,0,0.1,0c0,0,0,0,0.1,0.1l2,5.2
		c0,0.1,0,0.1,0.1,0.1c0,0,0,0,0.1-0.1l2-5.2c0-0.1,0.1-0.2,0.2-0.2h1.4c0.1,0,0.1,0,0.1,0.1v7.1c0,0.1,0,0.1,0,0.1s-0.1,0-0.1,0
		h-0.9c-0.1,0-0.1,0-0.1,0s0-0.1,0-0.1v-5.5c0,0,0,0,0,0c0,0,0,0,0,0.1l-2.1,5.5c0,0.1-0.1,0.1-0.2,0.1h-0.6c-0.1,0-0.2,0-0.2-0.1
		l-2-5.4c0,0,0-0.1,0-0.1c0,0,0,0,0,0.1v5.4c0,0.1,0,0.1,0,0.1c0,0-0.1,0-0.1,0h-0.7C148.4,28,148.4,28,148.4,27.9z"/>
	<path fill="#CCCCCC" d="M157.9,27.8c-0.4-0.2-0.7-0.6-0.9-1c-0.2-0.4-0.3-0.9-0.3-1.4c0-0.5,0.1-1,0.3-1.4c0.2-0.4,0.5-0.8,0.9-1
		c0.4-0.2,0.8-0.3,1.3-0.3c0.5,0,1,0.1,1.3,0.4c0.4,0.2,0.7,0.6,0.9,1c0.2,0.4,0.3,0.9,0.3,1.4c0,0.5-0.1,1-0.3,1.4s-0.5,0.7-0.9,1
		c-0.4,0.2-0.8,0.3-1.3,0.3S158.3,28,157.9,27.8z M160.3,26.9c0.3-0.4,0.4-0.8,0.4-1.5c0-0.6-0.1-1.1-0.4-1.5
		c-0.3-0.4-0.6-0.5-1.1-0.5s-0.8,0.2-1.1,0.5s-0.4,0.9-0.4,1.5c0,0.6,0.1,1.1,0.4,1.5s0.6,0.5,1.1,0.5
		C159.7,27.4,160.1,27.2,160.3,26.9z"/>
	<path fill="#CCCCCC" d="M163.7,27.8c0,0.1,0,0.1,0,0.2c0,0-0.1,0-0.2,0h-0.7c-0.1,0-0.1,0-0.1,0s0-0.1,0-0.1l0-7.1
		c0-0.1,0-0.1,0.1-0.1h0.8c0.1,0,0.1,0,0.1,0.1V27.8z"/>
	<path fill="#CCCCCC" d="M165.9,26.6c0.1,0.2,0.3,0.4,0.6,0.6c0.2,0.1,0.5,0.2,0.8,0.2c0.3,0,0.6-0.1,0.8-0.2
		c0.2-0.1,0.5-0.3,0.7-0.6c0,0,0,0,0.1,0c0,0,0.1,0,0.1,0l0.5,0.2c0,0,0,0,0,0.1c0,0,0,0,0,0.1c-0.3,0.4-0.6,0.7-1,0.9
		c-0.4,0.2-0.8,0.3-1.3,0.3c-0.5,0-0.9-0.1-1.3-0.3s-0.7-0.5-0.9-1c-0.2-0.4-0.3-0.9-0.3-1.4c0-0.6,0.1-1.1,0.3-1.5
		c0.2-0.4,0.5-0.8,0.9-1c0.4-0.2,0.8-0.3,1.3-0.3c0.5,0,0.9,0.1,1.3,0.3c0.4,0.2,0.7,0.5,0.9,0.9c0.2,0.4,0.3,0.9,0.3,1.5v0
		c0,0.1,0,0.1,0,0.1c0,0-0.1,0-0.1,0h-3.7c-0.1,0-0.1,0.1-0.1,0.2C165.7,26.1,165.8,26.3,165.9,26.6z M168.4,25c0.1,0,0.1,0,0.1,0
		c0,0,0-0.1,0-0.1c0-0.3-0.1-0.5-0.2-0.7c-0.1-0.2-0.3-0.4-0.5-0.5s-0.5-0.2-0.7-0.2c-0.3,0-0.6,0.1-0.8,0.2s-0.4,0.3-0.5,0.6
		c-0.1,0.2-0.2,0.5-0.2,0.8L168.4,25z"/>
	<path fill="#CCCCCC" d="M174.1,23c0.4,0.2,0.6,0.6,0.8,1c0,0,0,0.1,0,0.1c0,0,0,0.1-0.1,0.1l-0.7,0.1h0c0,0-0.1,0-0.1-0.1
		c-0.2-0.3-0.4-0.5-0.5-0.6c-0.2-0.1-0.4-0.2-0.6-0.2c-0.5,0-0.8,0.2-1.1,0.5s-0.4,0.8-0.4,1.5c0,0.6,0.1,1.1,0.4,1.5
		c0.3,0.4,0.7,0.5,1.1,0.5c0.3,0,0.6-0.1,0.8-0.2s0.4-0.4,0.6-0.7c0,0,0,0,0.1,0c0,0,0,0,0.1,0l0.5,0.2c0.1,0,0.1,0.1,0,0.1
		c-0.2,0.4-0.5,0.7-0.8,1s-0.8,0.4-1.4,0.4c-0.5,0-0.9-0.1-1.3-0.3c-0.4-0.2-0.7-0.6-0.9-1s-0.3-0.9-0.3-1.4s0.1-1,0.3-1.4
		c0.2-0.4,0.5-0.7,0.9-1c0.4-0.2,0.8-0.4,1.3-0.4C173.3,22.6,173.7,22.8,174.1,23z"/>
	<path fill="#CCCCCC" d="M179,26.5v-3.6c0-0.1,0.1-0.2,0.2-0.2h0.7c0.1,0,0.2,0.1,0.2,0.2l0,5c0,0.1,0,0.1-0.1,0.1h-0.8
		c-0.1,0-0.1,0-0.1-0.1v-0.6c0-0.1,0-0.1-0.1,0c-0.3,0.3-0.6,0.5-0.9,0.6s-0.6,0.2-0.9,0.2c-0.5,0-0.8-0.1-1.1-0.4
		c-0.3-0.3-0.4-0.7-0.4-1.1v-3.7c0-0.1,0.1-0.2,0.2-0.2h0.7c0.1,0,0.2,0.1,0.2,0.2v3.5c0,0.3,0.1,0.5,0.2,0.7
		c0.2,0.2,0.4,0.3,0.7,0.3C178.1,27.3,178.5,27.1,179,26.5z"/>
	<path fill="#CCCCCC" d="M182.3,27.8c0,0.1,0,0.1,0,0.2s-0.1,0-0.2,0h-0.7c-0.1,0-0.1,0-0.1,0c0,0,0-0.1,0-0.1l0-7.1
		c0-0.1,0-0.1,0.1-0.1h0.8c0.1,0,0.1,0,0.1,0.1V27.8z"/>
	<path fill="#CCCCCC" d="M184.8,28.1c-0.5,0-0.9-0.1-1.2-0.4c-0.3-0.3-0.4-0.6-0.4-1.1c0-0.5,0.2-1,0.7-1.3c0.5-0.3,1.1-0.5,2-0.5
		l0.7-0.1c0.1,0,0.2-0.1,0.2-0.1v-0.2c0-0.3-0.1-0.6-0.3-0.8c-0.2-0.2-0.5-0.3-0.8-0.3c-0.5,0-1,0.2-1.3,0.7c0,0,0,0.1-0.1,0.1
		s-0.1,0-0.1,0l-0.7-0.2c0,0-0.1,0-0.1-0.1c0,0,0-0.1,0-0.1c0.2-0.4,0.5-0.6,0.9-0.8c0.4-0.2,0.8-0.3,1.4-0.3c0.7,0,1.2,0.1,1.6,0.4
		c0.3,0.3,0.5,0.7,0.5,1.2v3.5c0,0.1,0,0.1,0,0.1s-0.1,0-0.1,0h-0.7c-0.1,0-0.1-0.1-0.2-0.2l0-0.4c0-0.1,0-0.1-0.1-0.1
		c0,0-0.1,0-0.1,0.1C186,27.9,185.5,28.1,184.8,28.1z M186.5,25.4l-0.5,0c-0.6,0-1,0.1-1.3,0.3c-0.3,0.2-0.5,0.5-0.5,0.8
		c0,0.3,0.1,0.5,0.3,0.6c0.2,0.2,0.4,0.2,0.8,0.2c0.4,0,0.7-0.1,1-0.4c0.3-0.2,0.4-0.5,0.4-0.7v-0.8
		C186.7,25.4,186.6,25.4,186.5,25.4z"/>
	<path fill="#CCCCCC" d="M188.8,27.9v-5c0-0.1,0-0.2,0.1-0.2h0.8c0.1,0,0.1,0,0.1,0.1v0.6c0,0,0,0.1,0,0.1s0,0,0.1,0
		c0.2-0.3,0.5-0.5,0.8-0.7c0.3-0.2,0.5-0.2,0.8-0.2c0.2,0,0.4,0,0.4,0.1v0.8c0,0.1,0,0.1-0.1,0.1c-0.1,0-0.3,0-0.5,0
		c-0.2,0-0.4,0.1-0.6,0.2s-0.4,0.2-0.5,0.4c-0.1,0.2-0.2,0.3-0.2,0.5v3.2c0,0.1-0.1,0.2-0.2,0.2h-0.7C188.8,28,188.8,28,188.8,27.9z
		"/>
	<path fill="#CCCCCC" d="M148.4,36.9v-7.1c0-0.1,0-0.1,0-0.1c0,0,0.1,0,0.1,0h1.3c0.1,0,0.1,0,0.1,0c0,0,0,0,0.1,0.1l2,5.2
		c0,0.1,0,0.1,0.1,0.1c0,0,0,0,0.1-0.1l2-5.2c0-0.1,0.1-0.2,0.2-0.2h1.4c0.1,0,0.1,0,0.1,0.2v7.1c0,0.1,0,0.1,0,0.1s-0.1,0-0.1,0
		h-0.9c-0.1,0-0.1,0-0.1,0s0-0.1,0-0.1v-5.5c0,0,0,0,0,0c0,0,0,0,0,0.1l-2.1,5.5c0,0.1-0.1,0.1-0.2,0.1h-0.6c-0.1,0-0.2,0-0.2-0.1
		l-2-5.4c0,0,0-0.1,0-0.1c0,0,0,0,0,0.1v5.4c0,0.1,0,0.1,0,0.1c0,0-0.1,0-0.1,0h-0.7C148.4,37.1,148.4,37,148.4,36.9z"/>
	<path fill="#CCCCCC" d="M157.9,36.8c-0.4-0.2-0.7-0.6-0.9-1c-0.2-0.4-0.3-0.9-0.3-1.4c0-0.5,0.1-1,0.3-1.4c0.2-0.4,0.5-0.8,0.9-1
		c0.4-0.2,0.8-0.4,1.3-0.4c0.5,0,1,0.1,1.3,0.4c0.4,0.2,0.7,0.6,0.9,1c0.2,0.4,0.3,0.9,0.3,1.4c0,0.5-0.1,1-0.3,1.4s-0.5,0.7-0.9,1
		c-0.4,0.2-0.8,0.3-1.3,0.3S158.3,37.1,157.9,36.8z M160.3,35.9c0.3-0.4,0.4-0.8,0.4-1.5c0-0.6-0.1-1.1-0.4-1.5
		c-0.3-0.4-0.6-0.5-1.1-0.5s-0.8,0.2-1.1,0.5s-0.4,0.9-0.4,1.5c0,0.6,0.1,1.1,0.4,1.5s0.6,0.5,1.1,0.5
		C159.7,36.4,160.1,36.3,160.3,35.9z"/>
	<path fill="#CCCCCC" d="M166.3,36.9v-0.4c0-0.1,0-0.1,0-0.1c0,0,0,0-0.1,0c-0.2,0.2-0.4,0.4-0.7,0.5s-0.5,0.2-0.9,0.2
		c-0.4,0-0.8-0.1-1.1-0.3s-0.6-0.5-0.8-0.9s-0.3-0.9-0.3-1.5c0-0.6,0.1-1,0.3-1.5c0.2-0.4,0.5-0.8,0.8-1c0.4-0.2,0.7-0.4,1.2-0.4
		c0.3,0,0.5,0,0.8,0.1c0.2,0.1,0.4,0.2,0.6,0.4c0,0,0.1,0,0.1,0c0,0,0.1,0,0.1-0.1v-2.3c0-0.1,0-0.2,0.1-0.2h0.8c0,0,0.1,0,0.1,0
		s0,0.1,0,0.1v7.1c0,0.1,0,0.1,0,0.1s-0.1,0-0.1,0h-0.7C166.3,37.1,166.3,37,166.3,36.9z M165.6,32.6c-0.2-0.1-0.4-0.2-0.6-0.2
		c-0.5,0-0.8,0.2-1.1,0.5c-0.3,0.4-0.4,0.9-0.4,1.5c0,0.7,0.1,1.2,0.4,1.5s0.6,0.5,1.1,0.5c0.2,0,0.4-0.1,0.6-0.2
		c0.2-0.1,0.3-0.2,0.5-0.4c0.1-0.2,0.2-0.3,0.2-0.5V33C166,32.8,165.8,32.7,165.6,32.6z"/>
	<path fill="#CCCCCC" d="M169.5,35.6c0.1,0.2,0.3,0.4,0.6,0.6c0.2,0.1,0.5,0.2,0.8,0.2c0.3,0,0.6-0.1,0.8-0.2
		c0.2-0.1,0.5-0.3,0.7-0.6c0,0,0,0,0.1,0c0,0,0.1,0,0.1,0l0.5,0.2c0,0,0,0,0,0.1c0,0,0,0,0,0.1c-0.3,0.4-0.6,0.7-1,0.9
		c-0.4,0.2-0.8,0.3-1.3,0.3c-0.5,0-0.9-0.1-1.3-0.3s-0.7-0.5-0.9-1c-0.2-0.4-0.3-0.9-0.3-1.4c0-0.6,0.1-1.1,0.3-1.5
		c0.2-0.4,0.5-0.8,0.9-1c0.4-0.2,0.8-0.3,1.3-0.3c0.5,0,0.9,0.1,1.3,0.3c0.4,0.2,0.7,0.5,0.9,0.9c0.2,0.4,0.3,0.9,0.3,1.5v0
		c0,0.1,0,0.1,0,0.1c0,0-0.1,0-0.1,0h-3.7c-0.1,0-0.1,0.1-0.1,0.2C169.3,35.1,169.3,35.4,169.5,35.6z M172,34c0.1,0,0.1,0,0.1,0
		c0,0,0-0.1,0-0.1c0-0.3-0.1-0.5-0.2-0.7c-0.1-0.2-0.3-0.4-0.5-0.5c-0.2-0.1-0.5-0.2-0.7-0.2c-0.3,0-0.6,0.1-0.8,0.2
		c-0.2,0.1-0.4,0.3-0.5,0.6c-0.1,0.2-0.2,0.5-0.2,0.8L172,34z"/>
	<path fill="#CCCCCC" d="M175.1,36.9c0,0.1,0,0.1,0,0.2c0,0-0.1,0-0.2,0h-0.7c-0.1,0-0.1,0-0.1,0s0-0.1,0-0.1l0-7.1
		c0-0.1,0-0.2,0.1-0.2h0.8c0.1,0,0.1,0,0.1,0.2V36.9z"/>
	<path fill="#CCCCCC" d="M177.3,30.7c0,0.1,0,0.1,0,0.2s-0.1,0-0.2,0h-0.7c-0.1,0-0.1,0-0.1,0c0,0,0-0.1,0-0.1v-0.9
		c0-0.1,0.1-0.2,0.2-0.2h0.8c0,0,0.1,0,0.1,0s0,0.1,0,0.1V30.7z M177.3,36.9c0,0.1,0,0.1,0,0.2c0,0-0.1,0-0.2,0h-0.7
		c-0.1,0-0.1,0-0.1,0s0-0.1,0-0.1v-5c0-0.1,0-0.1,0-0.1c0,0,0.1,0,0.1,0h0.8c0.1,0,0.1,0,0.1,0.1V36.9z"/>
	<path fill="#CCCCCC" d="M178.5,36.9v-5c0-0.1,0-0.1,0.1-0.1h0.8c0.1,0,0.1,0,0.1,0.1v0.5c0,0,0,0.1,0,0.1s0,0,0.1,0
		c0.3-0.3,0.7-0.5,0.9-0.6s0.6-0.2,0.9-0.2c0.5,0,0.9,0.1,1.2,0.4c0.3,0.3,0.4,0.6,0.4,1.1v3.7c0,0.1-0.1,0.2-0.2,0.2h-0.7
		c-0.1,0-0.1-0.1-0.1-0.2v-3.5c0-0.3-0.1-0.5-0.2-0.7c-0.2-0.2-0.4-0.2-0.7-0.2c-0.3,0-0.5,0.1-0.7,0.2c-0.2,0.1-0.5,0.3-0.8,0.6
		v3.7c0,0.1,0,0.1,0,0.1s-0.1,0-0.1,0h-0.7C178.5,37.1,178.5,37,178.5,36.9z"/>
	<path fill="#CCCCCC" d="M189.3,31.8v0.5c0,0.1-0.1,0.2-0.2,0.2c-0.1,0-0.2,0-0.3,0s-0.2,0-0.2,0c-0.1,0-0.1,0.1-0.2,0.1
		c0,0,0,0.1,0,0.1c0,0,0,0.1,0.1,0.2c0,0.1,0.1,0.2,0.1,0.4c0,0.5-0.2,0.9-0.6,1.2S187,35,186.2,35c-0.4,0-0.8,0-1,0.1
		c-0.2,0.1-0.3,0.2-0.3,0.3c0,0.1,0.1,0.2,0.2,0.2c0.1,0,0.3,0.1,0.6,0.1l1.3,0.1c0.6,0,1,0.2,1.3,0.4c0.3,0.2,0.4,0.6,0.4,1
		c0,0.5-0.2,0.9-0.7,1.2c-0.5,0.3-1.1,0.4-2,0.4c-0.9,0-1.5-0.1-2-0.3c-0.5-0.2-0.7-0.6-0.7-1c0-0.2,0.1-0.4,0.2-0.6
		c0.2-0.2,0.4-0.3,0.7-0.5c0.1,0,0.1-0.1,0-0.1c-0.3-0.2-0.5-0.4-0.5-0.6c0-0.2,0.1-0.3,0.2-0.4c0.2-0.1,0.4-0.3,0.6-0.4
		c0,0,0.1,0,0.1,0c0,0,0,0-0.1-0.1c-0.3-0.2-0.5-0.3-0.7-0.6s-0.2-0.5-0.2-0.8c0-0.5,0.2-0.9,0.6-1.2c0.4-0.3,1-0.4,1.7-0.4
		c0.7,0,1.2,0.1,1.5,0.5c0,0,0.1,0,0.1,0c0,0,0.1,0,0.1-0.1c0.1-0.1,0.3-0.2,0.5-0.3c0.2-0.1,0.4-0.1,0.5-0.1
		C189.2,31.6,189.3,31.7,189.3,31.8z M185.4,36.5c-0.1,0-0.3,0-0.4,0.1c-0.1,0.1-0.3,0.2-0.4,0.3s-0.1,0.3-0.1,0.4
		c0,0.6,0.6,0.9,1.9,0.9c0.5,0,0.9-0.1,1.2-0.2c0.3-0.1,0.4-0.4,0.4-0.7c0-0.4-0.3-0.7-0.9-0.7L185.4,36.5z M187.2,34.1
		c0.2-0.2,0.3-0.4,0.3-0.8c0-0.3-0.1-0.6-0.3-0.8c-0.2-0.2-0.5-0.3-0.9-0.3c-0.4,0-0.7,0.1-1,0.3c-0.2,0.2-0.3,0.4-0.3,0.8
		c0,0.3,0.1,0.6,0.3,0.8s0.5,0.3,1,0.3C186.7,34.4,187,34.3,187.2,34.1z"/>
</g>
<path fill="none" stroke="#CCCCCC" stroke-width="0.9435" stroke-miterlimit="10" d="M121.1,1.5c0,1.7,1.4,3,3,3c1.7,0,3-1.4,3-3"/>
<path fill="none" stroke="#37B34A" stroke-width="0.7583" stroke-miterlimit="10" d="M129.5,6.9"/>
<path fill="none" stroke="#CCCCCC" stroke-width="0.9435" stroke-miterlimit="10" d="M129.5,1.5c0,1.7,1.4,3,3,3s3-1.4,3-3"/>
<path fill="none" stroke="#37B34A" stroke-width="0.7583" stroke-miterlimit="10" d="M138,6.9"/>
<path fill="none" stroke="#CCCCCC" stroke-width="0.9435" stroke-miterlimit="10" d="M138,1.5c0,1.7,1.4,3,3,3c1.7,0,3-1.4,3-3"/>
<path fill="none" stroke="#CCCCCC" stroke-width="0.9435" stroke-miterlimit="10" d="M121.1,18.7c0-1.7,1.4-3,3-3c1.7,0,3,1.4,3,3"
	/>
<path fill="none" stroke="#CCCCCC" stroke-width="0.9435" stroke-miterlimit="10" d="M129.5,18.7c0-1.7,1.4-3,3-3s3,1.4,3,3"/>
<path fill="none" stroke="#CCCCCC" stroke-width="0.9435" stroke-miterlimit="10" d="M138,18.7c0-1.7,1.4-3,3-3c1.7,0,3,1.4,3,3"/>
<circle fill="none" stroke="#CCCCCC" stroke-width="0.9435" stroke-miterlimit="10" cx="124.1" cy="10.2" r="3"/>
<circle fill="none" stroke="#CCCCCC" stroke-width="0.9435" stroke-miterlimit="10" cx="132.5" cy="10.2" r="3"/>
<circle fill="#CCCCCC" stroke="#CCCCCC" stroke-width="0.9435" stroke-miterlimit="10" cx="141" cy="10.2" r="3"/>
<path fill="none" stroke="#979797" stroke-width="1.0437" stroke-miterlimit="10" d="M144.4,20.6"/>
<path fill="none" stroke="#979797" stroke-width="1.0437" stroke-miterlimit="10" d="M144.5,20.6"/>
<g>
</g>
<g>
</g>
<g>
</g>
<g>
</g>
<g>
</g>
<g>
</g>
<g>
</g>
<g>
</g>
<g>
</g>
<g>
</g>
<g>
</g>
<g>
</g>
<g>
</g>
<g>
</g>
<g>
</g>
</svg>
