<?xml version="1.0" encoding="utf-8"?>
<!-- Generator: Adobe Illustrator 17.1.0, SVG Export Plug-In . SVG Version: 6.00 Build 0)  -->
<!DOCTYPE svg PUBLIC "-//W3C//DTD SVG 1.1//EN" "http://www.w3.org/Graphics/SVG/1.1/DTD/svg11.dtd">
<svg version="1.1" id="Layer_1" xmlns="http://www.w3.org/2000/svg" xmlns:xlink="http://www.w3.org/1999/xlink" x="0px" y="0px"
	 width="240px" height="40px" viewBox="0 0 240 40" enable-background="new 0 0 240 40" xml:space="preserve">
<path fill="none" stroke="#979797" stroke-width="1.0437" stroke-miterlimit="10" d="M24.4,20.6"/>
<g>
	<path fill="#436BB3" d="M39.2,1.7c1,0.5,1.8,1.1,2.5,1.9c0.7,0.8,1.1,1.7,1.2,2.6c0,0.1,0,0.2,0,0.4c0,0.1,0,0.2-0.1,0.2
		c0,0-0.1,0.1-0.2,0.1L39.5,7c-0.1,0-0.2,0-0.3-0.1c0,0-0.1-0.1-0.1-0.3c-0.2-0.9-0.5-1.5-1-2.1c-0.5-0.5-1.2-0.8-2.1-0.8
		c-2.5,0-3.8,2-3.8,6c0,2.1,0.3,3.6,0.9,4.6c0.6,1,1.6,1.4,2.9,1.4c0.9,0,1.7-0.2,2.4-0.7c0.7-0.5,1.2-1.2,1.6-2.3
		c0-0.1,0.1-0.2,0.3-0.2c0.1,0,0.2,0,0.2,0l2.3,0.5c0.2,0.1,0.3,0.3,0.3,0.6c-0.2,0.7-0.5,1.4-1.1,2.2c-0.6,0.8-1.4,1.5-2.4,2.1
		S37.3,19,35.8,19c-1.6,0-3-0.4-4.2-1.1s-2.1-1.8-2.8-3.2c-0.6-1.4-1-3-1-4.8c0-1.8,0.3-3.4,1-4.7c0.6-1.3,1.6-2.4,2.8-3.1
		S34.2,1,35.8,1C37,1,38.1,1.2,39.2,1.7z"/>
	<path fill="#436BB3" d="M53.8,4.3c-0.5-0.3-1.2-0.4-2.1-0.4c-1,0-1.7,0.2-2.2,0.5c-0.5,0.3-0.8,0.8-0.8,1.4c0,0.8,0.6,1.4,1.9,1.8
		l3.7,1.1c1.4,0.4,2.4,1,3.1,1.9c0.7,0.9,1,1.9,1,3.1c0,1.1-0.3,2.1-0.8,2.9s-1.4,1.4-2.4,1.9S53,19,51.5,19c-1.6,0-3.1-0.3-4.3-0.8
		c-1.3-0.5-2.2-1.3-2.8-2.2c-0.1-0.1-0.1-0.2-0.1-0.3c0-0.1,0.1-0.3,0.2-0.4l1.8-1.3c0.2-0.1,0.3-0.1,0.4-0.1c0.1,0,0.3,0.1,0.4,0.2
		c0.6,0.8,1.2,1.3,1.8,1.6c0.6,0.3,1.4,0.5,2.4,0.5c1.1,0,1.9-0.2,2.5-0.5c0.6-0.3,0.9-0.8,0.9-1.5c0-0.4-0.1-0.8-0.4-1.1
		s-0.8-0.6-1.5-0.8l-3.6-1c-1.4-0.4-2.4-1-3.1-1.9c-0.7-0.9-1.1-1.9-1.1-3c0-1,0.3-1.9,0.8-2.7C46.2,2.8,47,2.2,48,1.7
		c1-0.5,2.2-0.7,3.5-0.7c1.3,0,2.5,0.2,3.6,0.7c1.1,0.4,1.9,1.1,2.5,1.8c0.1,0.1,0.1,0.2,0.1,0.3c0,0.1,0,0.2-0.1,0.3l-2,1.5
		c-0.1,0.1-0.2,0.1-0.2,0.1c-0.1,0-0.2-0.1-0.4-0.3C54.8,4.9,54.3,4.6,53.8,4.3z"/>
</g>
<path fill="none" stroke="#979797" stroke-width="1.0437" stroke-miterlimit="10" d="M24.6,20.6"/>
<g>
	<path fill="#436BB3" d="M32.6,20.8c0.4,0.2,0.7,0.4,1,0.8s0.4,0.7,0.5,1c0,0,0,0.1,0,0.1c0,0,0,0.1,0,0.1c0,0,0,0-0.1,0l-0.9,0.1h0
		c0,0-0.1,0-0.1-0.1c-0.1-0.4-0.3-0.7-0.6-1c-0.3-0.2-0.6-0.4-1.1-0.4c-0.6,0-1.1,0.2-1.5,0.7c-0.3,0.5-0.5,1.2-0.5,2.2
		c0,1,0.2,1.7,0.5,2.2c0.3,0.5,0.8,0.7,1.5,0.7c0.5,0,0.8-0.1,1.1-0.3c0.3-0.2,0.5-0.6,0.7-1.1c0,0,0.1-0.1,0.1,0l0.7,0.2
		c0.1,0,0.1,0.1,0.1,0.2c-0.1,0.3-0.3,0.6-0.5,0.9c-0.2,0.3-0.6,0.6-1,0.8c-0.4,0.2-0.9,0.3-1.4,0.3c-0.7,0-1.2-0.2-1.7-0.5
		c-0.5-0.3-0.9-0.8-1.1-1.3c-0.3-0.6-0.4-1.3-0.4-2c0-0.8,0.1-1.5,0.4-2c0.3-0.6,0.6-1,1.1-1.3c0.5-0.3,1.1-0.5,1.7-0.5
		C31.7,20.5,32.2,20.6,32.6,20.8z"/>
	<path fill="#436BB3" d="M35.1,28c0,0,0-0.1,0-0.1v-7.1c0-0.1,0-0.1,0.1-0.1H36c0.1,0,0.1,0,0.1,0.1v2.6c0,0.1,0,0.1,0.1,0
		c0.4-0.3,0.7-0.5,0.9-0.6s0.6-0.2,0.9-0.2c0.5,0,0.9,0.1,1.2,0.4c0.3,0.3,0.4,0.7,0.4,1.1v3.7c0,0.1-0.1,0.2-0.2,0.2h-0.7
		c-0.1,0-0.1-0.1-0.1-0.2v-3.5c0-0.3-0.1-0.5-0.2-0.7s-0.4-0.2-0.7-0.2c-0.3,0-0.5,0.1-0.7,0.2s-0.5,0.3-0.8,0.6v3.7
		c0,0.1-0.1,0.2-0.2,0.2h-0.7C35.2,28,35.1,28,35.1,28z"/>
	<path fill="#436BB3" d="M41.7,26.6c0.1,0.2,0.3,0.4,0.6,0.6s0.5,0.2,0.8,0.2c0.3,0,0.6-0.1,0.8-0.2c0.2-0.1,0.5-0.3,0.7-0.6
		c0,0,0,0,0.1,0c0,0,0.1,0,0.1,0l0.5,0.2c0,0,0.1,0,0.1,0.1c0,0,0,0,0,0.1c-0.3,0.4-0.6,0.7-1,0.9C44,28,43.5,28.1,43,28.1
		c-0.5,0-0.9-0.1-1.3-0.3s-0.7-0.5-0.9-1s-0.3-0.9-0.3-1.4c0-0.6,0.1-1.1,0.3-1.5c0.2-0.4,0.5-0.8,0.9-1c0.4-0.2,0.8-0.3,1.3-0.3
		c0.5,0,0.9,0.1,1.3,0.3c0.4,0.2,0.7,0.5,0.9,0.9c0.2,0.4,0.3,0.9,0.3,1.5v0c0,0.1,0,0.1,0,0.1c0,0-0.1,0-0.1,0h-3.7
		c-0.1,0-0.1,0.1-0.1,0.2C41.5,26.1,41.6,26.3,41.7,26.6z M44.2,25c0.1,0,0.1,0,0.1,0c0,0,0-0.1,0-0.1c0-0.3-0.1-0.5-0.2-0.7
		c-0.1-0.2-0.3-0.4-0.5-0.5s-0.5-0.2-0.7-0.2c-0.3,0-0.6,0.1-0.8,0.2s-0.4,0.3-0.5,0.6c-0.1,0.2-0.2,0.5-0.2,0.8L44.2,25z"/>
	<path fill="#436BB3" d="M46.3,27.9v-5c0-0.1,0-0.2,0.1-0.2h0.8c0.1,0,0.1,0,0.1,0.1v0.5c0,0,0,0.1,0,0.1c0,0,0,0,0.1,0
		c0.3-0.3,0.6-0.5,0.9-0.6c0.3-0.1,0.5-0.2,0.9-0.2c0.4,0,0.7,0.1,0.9,0.2c0.2,0.2,0.4,0.4,0.5,0.6c0,0,0,0,0,0c0,0,0.1,0,0.1,0
		c0.3-0.3,0.6-0.5,0.9-0.7s0.6-0.2,0.9-0.2c0.5,0,0.9,0.1,1.1,0.4c0.3,0.3,0.4,0.7,0.4,1.1v3.7C54,28,54,28,53.8,28h-0.7
		c-0.1,0-0.1,0-0.1,0s0-0.1,0-0.1v-3.5c0-0.3-0.1-0.5-0.2-0.7c-0.1-0.2-0.4-0.2-0.7-0.2c-0.4,0-0.8,0.2-1.3,0.6c0,0-0.1,0.1-0.1,0.1
		s0,0.1,0,0.2v3.5c0,0.1-0.1,0.2-0.2,0.2h-0.7c-0.1,0-0.2-0.1-0.2-0.2v-3.5c0-0.3-0.1-0.5-0.2-0.7s-0.4-0.2-0.7-0.2
		c-0.2,0-0.5,0.1-0.7,0.2c-0.2,0.1-0.5,0.3-0.7,0.6v3.7c0,0.1,0,0.1,0,0.1c0,0-0.1,0-0.1,0h-0.7C46.3,28,46.3,28,46.3,27.9z"/>
	<path fill="#436BB3" d="M56.2,21.7c0,0.1,0,0.1,0,0.2c0,0-0.1,0.1-0.2,0.1h-0.7c-0.1,0-0.1,0-0.1,0c0,0,0-0.1,0-0.1v-0.9
		c0-0.1,0.1-0.2,0.1-0.2h0.8c0,0,0.1,0,0.1,0c0,0,0,0.1,0,0.1V21.7z M56.2,27.8c0,0.1,0,0.1,0,0.2c0,0-0.1,0-0.2,0h-0.7
		c-0.1,0-0.1,0-0.1,0c0,0,0-0.1,0-0.1v-5c0-0.1,0-0.1,0-0.1s0.1,0,0.1,0h0.8c0.1,0,0.1,0,0.1,0.1V27.8z"/>
	<path fill="#436BB3" d="M60.9,23c0.4,0.2,0.6,0.6,0.8,1c0,0,0,0.1,0,0.1c0,0,0,0.1-0.1,0.1L61,24.3h0c0,0-0.1,0-0.1-0.1
		c-0.2-0.3-0.4-0.5-0.5-0.6s-0.4-0.2-0.6-0.2c-0.5,0-0.8,0.2-1.1,0.5c-0.3,0.4-0.4,0.8-0.4,1.5c0,0.6,0.1,1.1,0.4,1.5
		c0.3,0.4,0.7,0.5,1.1,0.5c0.3,0,0.6-0.1,0.8-0.2s0.4-0.4,0.6-0.7c0,0,0,0,0.1,0c0,0,0,0,0.1,0l0.5,0.2c0.1,0,0.1,0.1,0,0.1
		c-0.2,0.4-0.5,0.7-0.8,1c-0.4,0.3-0.8,0.4-1.4,0.4c-0.5,0-0.9-0.1-1.3-0.3c-0.4-0.2-0.7-0.6-0.9-1c-0.2-0.4-0.3-0.9-0.3-1.4
		s0.1-1,0.3-1.4c0.2-0.4,0.5-0.7,0.9-1c0.4-0.2,0.8-0.4,1.3-0.4C60.1,22.6,60.6,22.8,60.9,23z"/>
	<path fill="#436BB3" d="M63.9,28.1c-0.5,0-0.9-0.1-1.2-0.4c-0.3-0.3-0.4-0.6-0.4-1.1c0-0.5,0.2-1,0.7-1.3c0.5-0.3,1.1-0.5,2-0.5
		l0.7-0.1c0.1,0,0.2-0.1,0.2-0.1v-0.2c0-0.3-0.1-0.6-0.3-0.8c-0.2-0.2-0.5-0.3-0.8-0.3c-0.5,0-1,0.2-1.3,0.7c0,0,0,0.1-0.1,0.1
		s-0.1,0-0.1,0L62.4,24c0,0-0.1,0-0.1-0.1c0,0,0-0.1,0-0.1c0.2-0.4,0.5-0.6,0.9-0.8c0.4-0.2,0.8-0.3,1.4-0.3c0.7,0,1.2,0.1,1.6,0.4
		c0.3,0.3,0.5,0.7,0.5,1.2v3.5c0,0.1,0,0.1,0,0.1c0,0-0.1,0-0.1,0h-0.7c-0.1,0-0.1-0.1-0.2-0.2l0-0.4c0-0.1,0-0.1-0.1-0.1
		c0,0-0.1,0-0.1,0.1C65.1,27.9,64.5,28.1,63.9,28.1z M65.6,25.4l-0.5,0c-0.6,0-1,0.1-1.3,0.3c-0.3,0.2-0.5,0.5-0.5,0.8
		c0,0.3,0.1,0.5,0.3,0.6c0.2,0.2,0.4,0.2,0.8,0.2c0.4,0,0.7-0.1,1-0.4c0.3-0.2,0.4-0.5,0.4-0.7v-0.8C65.7,25.4,65.7,25.4,65.6,25.4z
		"/>
	<path fill="#436BB3" d="M68.9,27.8c0,0.1,0,0.1,0,0.2c0,0-0.1,0-0.2,0H68c-0.1,0-0.1,0-0.1,0c0,0,0-0.1,0-0.1l0-7.1
		c0-0.1,0-0.1,0.1-0.1h0.8c0.1,0,0.1,0,0.1,0.1V27.8z"/>
	<path fill="#436BB3" d="M31.8,30.6c-0.3-0.1-0.6-0.2-0.9-0.2c-0.5,0-0.8,0.1-1.1,0.3c-0.3,0.2-0.4,0.5-0.4,0.8c0,0.5,0.3,0.8,1,1
		l1.5,0.5c1.1,0.4,1.7,1,1.7,2c0,0.7-0.2,1.2-0.7,1.6c-0.5,0.4-1.2,0.6-2,0.6c-0.6,0-1.2-0.1-1.7-0.3c-0.5-0.2-0.9-0.5-1.1-0.9
		c0-0.1,0-0.1,0-0.1c0-0.1,0-0.1,0.1-0.2l0.5-0.3c0.1,0,0.1-0.1,0.2-0.1c0,0,0.1,0,0.1,0.1c0.3,0.4,0.5,0.6,0.8,0.8
		c0.3,0.1,0.6,0.2,1.1,0.2c0.5,0,0.9-0.1,1.2-0.3c0.3-0.2,0.4-0.5,0.4-0.8c0-0.2-0.1-0.4-0.2-0.6s-0.4-0.3-0.8-0.5l-1.5-0.5
		c-0.5-0.2-0.9-0.4-1.2-0.8c-0.3-0.3-0.4-0.7-0.4-1.2c0-0.4,0.1-0.8,0.3-1.1c0.2-0.3,0.5-0.6,0.9-0.8c0.4-0.2,0.9-0.3,1.4-0.3
		c0.5,0,1,0.1,1.4,0.3c0.4,0.2,0.8,0.4,1,0.7c0,0,0,0.1,0,0.1s0,0.1,0,0.1l-0.6,0.4c0,0-0.1,0-0.1,0c0,0-0.1,0-0.1-0.1
		C32.3,30.9,32.1,30.8,31.8,30.6z"/>
	<path fill="#436BB3" d="M34.5,37c0,0,0-0.1,0-0.1v-7.1c0-0.1,0-0.2,0.1-0.2h0.8c0.1,0,0.1,0,0.1,0.1v2.6c0,0.1,0,0.1,0.1,0
		c0.4-0.3,0.7-0.5,0.9-0.6s0.6-0.2,0.9-0.2c0.5,0,0.9,0.1,1.2,0.4s0.4,0.7,0.4,1.1v3.7c0,0.1-0.1,0.2-0.2,0.2h-0.7
		c-0.1,0-0.1-0.1-0.1-0.2v-3.5c0-0.3-0.1-0.5-0.2-0.7c-0.2-0.2-0.4-0.2-0.7-0.2c-0.3,0-0.5,0.1-0.7,0.2s-0.5,0.3-0.8,0.6v3.7
		c0,0.1-0.1,0.2-0.2,0.2h-0.7C34.6,37.1,34.5,37.1,34.5,37z"/>
	<path fill="#436BB3" d="M41.2,30.7c0,0.1,0,0.1,0,0.2c0,0-0.1,0-0.2,0h-0.7c-0.1,0-0.1,0-0.1,0c0,0,0-0.1,0-0.1v-0.9
		c0-0.1,0.1-0.2,0.1-0.2H41c0,0,0.1,0,0.1,0c0,0,0,0.1,0,0.1V30.7z M41.2,36.9c0,0.1,0,0.1,0,0.2c0,0-0.1,0-0.2,0h-0.7
		c-0.1,0-0.1,0-0.1,0c0,0,0-0.1,0-0.1v-5c0-0.1,0-0.1,0-0.1s0.1,0,0.1,0H41c0.1,0,0.1,0,0.1,0.1V36.9z"/>
	<path fill="#436BB3" d="M45.3,31.9v0.5c0,0.1,0,0.1-0.1,0.1h-1c-0.1,0-0.1,0-0.1,0.1v4.3c0,0.1,0,0.2-0.1,0.2h-0.8
		c-0.1,0-0.1,0-0.1-0.1v-4.3c0-0.1,0-0.1-0.1-0.1H42c-0.1,0-0.1,0-0.1-0.1v-0.5c0-0.1,0-0.1,0.1-0.1h0.9c0,0,0.1,0,0.1,0
		c0,0,0,0,0-0.1V31c0-0.4,0.1-0.7,0.3-1c0.2-0.2,0.6-0.3,1-0.3h0.9c0.1,0,0.2,0,0.2,0.2l0,0.5c0,0,0,0.1,0,0.1s-0.1,0-0.1,0h-0.6
		c-0.2,0-0.3,0.1-0.4,0.2S44,30.9,44,31.1v0.6c0,0.1,0,0.1,0.1,0.1h1C45.2,31.8,45.3,31.8,45.3,31.9z"/>
	<path fill="#436BB3" d="M47.8,32.5C47.7,32.5,47.7,32.6,47.8,32.5l-0.1,3c0,0.3,0.1,0.5,0.2,0.6c0.1,0.1,0.3,0.2,0.5,0.2H49
		c0.1,0,0.1,0,0.1,0.1v0.4c0,0.1-0.1,0.1-0.2,0.2c-0.2,0-0.6,0-1,0c-0.4,0-0.8-0.1-1-0.3s-0.3-0.5-0.3-0.9v-3.2c0-0.1,0-0.1-0.1-0.1
		h-0.8c-0.1,0-0.1,0-0.1-0.1v-0.5c0-0.1,0-0.1,0.1-0.1h0.8c0.1,0,0.1,0,0.1-0.1l0.1-1.6c0-0.1,0.1-0.1,0.1-0.1h0.7
		c0.1,0,0.1,0.1,0.1,0.2v1.6c0,0.1,0,0.1,0.1,0.1H49c0.1,0,0.1,0,0.1,0.1v0.5c0,0.1,0,0.1-0.1,0.1H47.8z"/>
</g>
<path fill="none" stroke="#436BB3" stroke-width="0.9435" stroke-miterlimit="10" d="M1.1,1.5c0,1.7,1.4,3,3,3s3-1.4,3-3"/>
<path fill="none" stroke="#37B34A" stroke-width="0.7583" stroke-miterlimit="10" d="M9.5,6.9"/>
<path fill="none" stroke="#436BB3" stroke-width="0.9435" stroke-miterlimit="10" d="M9.5,1.5c0,1.7,1.4,3,3,3c1.7,0,3-1.4,3-3"/>
<path fill="none" stroke="#37B34A" stroke-width="0.7583" stroke-miterlimit="10" d="M18,6.9"/>
<path fill="none" stroke="#436BB3" stroke-width="0.9435" stroke-miterlimit="10" d="M18,1.5c0,1.7,1.4,3,3,3c1.7,0,3-1.4,3-3"/>
<path fill="none" stroke="#436BB3" stroke-width="0.9435" stroke-miterlimit="10" d="M1.1,18.7c0-1.7,1.4-3,3-3s3,1.4,3,3"/>
<path fill="none" stroke="#436BB3" stroke-width="0.9435" stroke-miterlimit="10" d="M9.5,18.7c0-1.7,1.4-3,3-3c1.7,0,3,1.4,3,3"/>
<path fill="none" stroke="#436BB3" stroke-width="0.9435" stroke-miterlimit="10" d="M18,18.7c0-1.7,1.4-3,3-3c1.7,0,3,1.4,3,3"/>
<circle fill="none" stroke="#436BB3" stroke-width="0.9435" stroke-miterlimit="10" cx="4.1" cy="10.2" r="3"/>
<circle fill="none" stroke="#436BB3" stroke-width="0.9435" stroke-miterlimit="10" cx="12.5" cy="10.2" r="3"/>
<circle fill="#436BB3" stroke="#436BB3" stroke-width="0.9435" stroke-miterlimit="10" cx="21" cy="10.2" r="3"/>
<path fill="none" stroke="#979797" stroke-width="1.0437" stroke-miterlimit="10" d="M144.4,20.6"/>
<g>
	<path fill="#CCCCCC" d="M159.2,1.7c1,0.5,1.8,1.1,2.5,1.9c0.7,0.8,1.1,1.7,1.2,2.6c0,0.1,0,0.2,0,0.4c0,0.1,0,0.2-0.1,0.2
		c0,0-0.1,0.1-0.2,0.1L159.5,7c-0.1,0-0.2,0-0.3-0.1c0,0-0.1-0.1-0.1-0.3c-0.2-0.9-0.5-1.5-1-2.1c-0.5-0.5-1.2-0.8-2.1-0.8
		c-2.5,0-3.8,2-3.8,6c0,2.1,0.3,3.6,0.9,4.6s1.6,1.4,2.9,1.4c0.9,0,1.7-0.2,2.4-0.7c0.7-0.5,1.2-1.2,1.6-2.3c0-0.1,0.1-0.2,0.3-0.2
		c0.1,0,0.2,0,0.2,0l2.3,0.5c0.2,0.1,0.3,0.3,0.3,0.6c-0.2,0.7-0.5,1.4-1.1,2.2c-0.6,0.8-1.4,1.5-2.4,2.1c-1,0.6-2.3,0.9-3.7,0.9
		c-1.6,0-3-0.4-4.2-1.1c-1.2-0.8-2.1-1.8-2.8-3.2s-1-3-1-4.8c0-1.8,0.3-3.4,1-4.7c0.6-1.3,1.6-2.4,2.8-3.1c1.2-0.7,2.6-1.1,4.2-1.1
		C157,1,158.1,1.2,159.2,1.7z"/>
	<path fill="#CCCCCC" d="M173.8,4.3c-0.5-0.3-1.2-0.4-2.1-0.4c-1,0-1.7,0.2-2.2,0.5c-0.5,0.3-0.8,0.8-0.8,1.4c0,0.8,0.6,1.4,1.9,1.8
		l3.7,1.1c1.4,0.4,2.4,1,3.1,1.9c0.7,0.9,1,1.9,1,3.1c0,1.1-0.3,2.1-0.8,2.9s-1.4,1.4-2.4,1.9c-1.1,0.4-2.3,0.7-3.7,0.7
		c-1.6,0-3.1-0.3-4.3-0.8c-1.3-0.5-2.2-1.3-2.8-2.2c-0.1-0.1-0.1-0.2-0.1-0.3c0-0.1,0.1-0.3,0.2-0.4l1.8-1.3
		c0.2-0.1,0.3-0.1,0.4-0.1c0.1,0,0.3,0.1,0.4,0.2c0.6,0.8,1.2,1.3,1.8,1.6c0.6,0.3,1.4,0.5,2.4,0.5c1.1,0,1.9-0.2,2.5-0.5
		s0.9-0.8,0.9-1.5c0-0.4-0.2-0.8-0.4-1.1s-0.8-0.6-1.5-0.8l-3.6-1c-1.4-0.4-2.4-1-3.1-1.9c-0.7-0.9-1.1-1.9-1.1-3
		c0-1,0.3-1.9,0.8-2.7c0.6-0.8,1.3-1.4,2.4-1.9c1-0.5,2.2-0.7,3.5-0.7c1.3,0,2.5,0.2,3.6,0.7c1.1,0.4,1.9,1.1,2.5,1.8
		c0.1,0.1,0.1,0.2,0.1,0.3c0,0.1,0,0.2-0.1,0.3l-2,1.5c-0.1,0.1-0.2,0.1-0.2,0.1c-0.1,0-0.2-0.1-0.4-0.3
		C174.8,4.9,174.3,4.6,173.8,4.3z"/>
</g>
<path fill="none" stroke="#979797" stroke-width="1.0437" stroke-miterlimit="10" d="M144.6,20.6"/>
<g>
	<path fill="#CCCCCC" d="M152.6,20.8c0.4,0.2,0.7,0.4,1,0.8s0.4,0.7,0.5,1c0,0,0,0.1,0,0.1c0,0,0,0.1,0,0.1c0,0,0,0-0.1,0l-0.9,0.1
		h0c0,0-0.1,0-0.1-0.1c-0.1-0.4-0.3-0.7-0.6-1c-0.3-0.2-0.6-0.4-1.1-0.4c-0.6,0-1.1,0.2-1.5,0.7s-0.5,1.2-0.5,2.2
		c0,1,0.2,1.7,0.5,2.2c0.3,0.5,0.8,0.7,1.5,0.7c0.5,0,0.8-0.1,1.1-0.3c0.3-0.2,0.5-0.6,0.7-1.1c0,0,0.1-0.1,0.1,0l0.7,0.2
		c0.1,0,0.1,0.1,0.1,0.2c-0.1,0.3-0.3,0.6-0.5,0.9c-0.2,0.3-0.6,0.6-1,0.8c-0.4,0.2-0.9,0.3-1.4,0.3c-0.7,0-1.2-0.2-1.7-0.5
		s-0.9-0.8-1.1-1.3c-0.3-0.6-0.4-1.3-0.4-2c0-0.8,0.1-1.5,0.4-2s0.6-1,1.1-1.3c0.5-0.3,1.1-0.5,1.7-0.5
		C151.7,20.5,152.2,20.6,152.6,20.8z"/>
	<path fill="#CCCCCC" d="M155.1,28c0,0,0-0.1,0-0.1v-7.1c0-0.1,0-0.1,0.1-0.1h0.8c0.1,0,0.1,0,0.1,0.1v2.6c0,0.1,0,0.1,0.1,0
		c0.4-0.3,0.7-0.5,0.9-0.6s0.6-0.2,0.9-0.2c0.5,0,0.9,0.1,1.2,0.4c0.3,0.3,0.4,0.7,0.4,1.1v3.7c0,0.1-0.1,0.2-0.2,0.2h-0.7
		c-0.1,0-0.1-0.1-0.1-0.2v-3.5c0-0.3-0.1-0.5-0.2-0.7s-0.4-0.2-0.7-0.2c-0.3,0-0.5,0.1-0.7,0.2s-0.5,0.3-0.8,0.6v3.7
		c0,0.1-0.1,0.2-0.2,0.2h-0.7C155.2,28,155.1,28,155.1,28z"/>
	<path fill="#CCCCCC" d="M161.7,26.6c0.1,0.2,0.3,0.4,0.6,0.6c0.2,0.1,0.5,0.2,0.8,0.2c0.3,0,0.6-0.1,0.8-0.2
		c0.2-0.1,0.5-0.3,0.7-0.6c0,0,0,0,0.1,0c0,0,0.1,0,0.1,0l0.5,0.2c0,0,0,0,0,0.1c0,0,0,0,0,0.1c-0.3,0.4-0.6,0.7-1,0.9
		c-0.4,0.2-0.8,0.3-1.3,0.3c-0.5,0-0.9-0.1-1.3-0.3s-0.7-0.5-0.9-1c-0.2-0.4-0.3-0.9-0.3-1.4c0-0.6,0.1-1.1,0.3-1.5
		c0.2-0.4,0.5-0.8,0.9-1c0.4-0.2,0.8-0.3,1.3-0.3c0.5,0,0.9,0.1,1.3,0.3c0.4,0.2,0.7,0.5,0.9,0.9c0.2,0.4,0.3,0.9,0.3,1.5v0
		c0,0.1,0,0.1,0,0.1c0,0-0.1,0-0.1,0h-3.7c-0.1,0-0.1,0.1-0.1,0.2C161.5,26.1,161.6,26.3,161.7,26.6z M164.2,25c0.1,0,0.1,0,0.1,0
		c0,0,0-0.1,0-0.1c0-0.3-0.1-0.5-0.2-0.7c-0.1-0.2-0.3-0.4-0.5-0.5s-0.5-0.2-0.7-0.2c-0.3,0-0.6,0.1-0.8,0.2s-0.4,0.3-0.5,0.6
		c-0.1,0.2-0.2,0.5-0.2,0.8L164.2,25z"/>
	<path fill="#CCCCCC" d="M166.3,27.9v-5c0-0.1,0-0.2,0.1-0.2h0.8c0.1,0,0.1,0,0.1,0.1v0.5c0,0,0,0.1,0,0.1c0,0,0,0,0.1,0
		c0.3-0.3,0.6-0.5,0.9-0.6c0.3-0.1,0.5-0.2,0.9-0.2c0.4,0,0.7,0.1,0.9,0.2c0.2,0.2,0.4,0.4,0.5,0.6c0,0,0,0,0,0c0,0,0.1,0,0.1,0
		c0.3-0.3,0.6-0.5,0.9-0.7c0.3-0.2,0.6-0.2,0.9-0.2c0.5,0,0.9,0.1,1.1,0.4c0.3,0.3,0.4,0.7,0.4,1.1v3.7c0,0.1-0.1,0.2-0.2,0.2h-0.7
		c-0.1,0-0.1,0-0.1,0c0,0,0-0.1,0-0.1v-3.5c0-0.3-0.1-0.5-0.2-0.7c-0.1-0.2-0.4-0.2-0.7-0.2c-0.4,0-0.8,0.2-1.3,0.6
		c0,0-0.1,0.1-0.1,0.1c0,0,0,0.1,0,0.2v3.5c0,0.1-0.1,0.2-0.2,0.2h-0.7c-0.1,0-0.2-0.1-0.2-0.2v-3.5c0-0.3-0.1-0.5-0.2-0.7
		s-0.4-0.2-0.7-0.2c-0.2,0-0.5,0.1-0.7,0.2c-0.2,0.1-0.5,0.3-0.7,0.6v3.7c0,0.1,0,0.1,0,0.1c0,0-0.1,0-0.1,0h-0.7
		C166.3,28,166.3,28,166.3,27.9z"/>
	<path fill="#CCCCCC" d="M176.2,21.7c0,0.1,0,0.1,0,0.2c0,0-0.1,0.1-0.2,0.1h-0.7c-0.1,0-0.1,0-0.1,0c0,0,0-0.1,0-0.1v-0.9
		c0-0.1,0.1-0.2,0.2-0.2h0.8c0,0,0.1,0,0.1,0s0,0.1,0,0.1V21.7z M176.2,27.8c0,0.1,0,0.1,0,0.2c0,0-0.1,0-0.2,0h-0.7
		c-0.1,0-0.1,0-0.1,0s0-0.1,0-0.1v-5c0-0.1,0-0.1,0-0.1c0,0,0.1,0,0.1,0h0.8c0.1,0,0.1,0,0.1,0.1V27.8z"/>
	<path fill="#CCCCCC" d="M180.9,23c0.4,0.2,0.6,0.6,0.8,1c0,0,0,0.1,0,0.1c0,0,0,0.1-0.1,0.1l-0.7,0.1h0c0,0-0.1,0-0.1-0.1
		c-0.2-0.3-0.4-0.5-0.5-0.6c-0.2-0.1-0.4-0.2-0.6-0.2c-0.5,0-0.8,0.2-1.1,0.5c-0.3,0.4-0.4,0.8-0.4,1.5c0,0.6,0.1,1.1,0.4,1.5
		s0.7,0.5,1.1,0.5c0.3,0,0.6-0.1,0.8-0.2s0.4-0.4,0.6-0.7c0,0,0,0,0.1,0c0,0,0,0,0.1,0l0.5,0.2c0.1,0,0.1,0.1,0,0.1
		c-0.2,0.4-0.5,0.7-0.8,1c-0.4,0.3-0.8,0.4-1.4,0.4c-0.5,0-0.9-0.1-1.3-0.3c-0.4-0.2-0.7-0.6-0.9-1c-0.2-0.4-0.3-0.9-0.3-1.4
		s0.1-1,0.3-1.4c0.2-0.4,0.5-0.7,0.9-1c0.4-0.2,0.8-0.4,1.3-0.4C180.1,22.6,180.6,22.8,180.9,23z"/>
	<path fill="#CCCCCC" d="M183.9,28.1c-0.5,0-0.9-0.1-1.2-0.4c-0.3-0.3-0.4-0.6-0.4-1.1c0-0.5,0.2-1,0.7-1.3c0.5-0.3,1.1-0.5,2-0.5
		l0.7-0.1c0.1,0,0.2-0.1,0.2-0.1v-0.2c0-0.3-0.1-0.6-0.3-0.8c-0.2-0.2-0.5-0.3-0.8-0.3c-0.5,0-1,0.2-1.3,0.7c0,0,0,0.1-0.1,0.1
		s-0.1,0-0.1,0l-0.7-0.2c0,0-0.1,0-0.1-0.1c0,0,0-0.1,0-0.1c0.2-0.4,0.5-0.6,0.9-0.8c0.4-0.2,0.8-0.3,1.4-0.3c0.7,0,1.2,0.1,1.6,0.4
		c0.3,0.3,0.5,0.7,0.5,1.2v3.5c0,0.1,0,0.1,0,0.1s-0.1,0-0.1,0h-0.7c-0.1,0-0.1-0.1-0.2-0.2l0-0.4c0-0.1,0-0.1-0.1-0.1
		c0,0-0.1,0-0.1,0.1C185.1,27.9,184.5,28.1,183.9,28.1z M185.6,25.4l-0.5,0c-0.6,0-1,0.1-1.3,0.3c-0.3,0.2-0.5,0.5-0.5,0.8
		c0,0.3,0.1,0.5,0.3,0.6c0.2,0.2,0.4,0.2,0.8,0.2c0.4,0,0.7-0.1,1-0.4c0.3-0.2,0.4-0.5,0.4-0.7v-0.8
		C185.7,25.4,185.7,25.4,185.6,25.4z"/>
	<path fill="#CCCCCC" d="M188.9,27.8c0,0.1,0,0.1,0,0.2s-0.1,0-0.2,0H188c-0.1,0-0.1,0-0.1,0c0,0,0-0.1,0-0.1l0-7.1
		c0-0.1,0-0.1,0.1-0.1h0.8c0.1,0,0.1,0,0.1,0.1V27.8z"/>
	<path fill="#CCCCCC" d="M151.8,30.6c-0.3-0.1-0.6-0.2-1-0.2c-0.5,0-0.8,0.1-1.1,0.3c-0.3,0.2-0.4,0.5-0.4,0.8c0,0.5,0.3,0.8,1,1
		l1.5,0.5c1.1,0.4,1.7,1,1.7,2c0,0.7-0.2,1.2-0.7,1.6s-1.2,0.6-2,0.6c-0.6,0-1.2-0.1-1.7-0.3c-0.5-0.2-0.9-0.5-1.1-0.9
		c0-0.1,0-0.1,0-0.1c0-0.1,0-0.1,0.1-0.2l0.5-0.3c0.1,0,0.1-0.1,0.2-0.1s0.1,0,0.1,0.1c0.3,0.4,0.5,0.6,0.8,0.8
		c0.3,0.1,0.6,0.2,1.1,0.2c0.5,0,0.9-0.1,1.2-0.3c0.3-0.2,0.4-0.5,0.4-0.8c0-0.2-0.1-0.4-0.2-0.6c-0.1-0.2-0.4-0.3-0.8-0.5l-1.5-0.5
		c-0.5-0.2-0.9-0.4-1.2-0.8c-0.3-0.3-0.4-0.7-0.4-1.2c0-0.4,0.1-0.8,0.3-1.1c0.2-0.3,0.5-0.6,0.9-0.8c0.4-0.2,0.9-0.3,1.4-0.3
		c0.5,0,1,0.1,1.4,0.3s0.8,0.4,1,0.7c0,0,0,0.1,0,0.1s0,0.1,0,0.1l-0.6,0.4c0,0-0.1,0-0.1,0c0,0-0.1,0-0.1-0.1
		C152.3,30.9,152.1,30.8,151.8,30.6z"/>
	<path fill="#CCCCCC" d="M154.5,37c0,0,0-0.1,0-0.1v-7.1c0-0.1,0-0.2,0.1-0.2h0.8c0.1,0,0.1,0,0.1,0.1v2.6c0,0.1,0,0.1,0.1,0
		c0.4-0.3,0.7-0.5,0.9-0.6s0.6-0.2,0.9-0.2c0.5,0,0.9,0.1,1.2,0.4s0.4,0.7,0.4,1.1v3.7c0,0.1-0.1,0.2-0.2,0.2h-0.7
		c-0.1,0-0.2-0.1-0.2-0.2v-3.5c0-0.3-0.1-0.5-0.2-0.7c-0.2-0.2-0.4-0.2-0.7-0.2c-0.3,0-0.5,0.1-0.7,0.2s-0.5,0.3-0.8,0.6v3.7
		c0,0.1-0.1,0.2-0.2,0.2h-0.7C154.6,37.1,154.5,37.1,154.5,37z"/>
	<path fill="#CCCCCC" d="M161.2,30.7c0,0.1,0,0.1,0,0.2s-0.1,0-0.2,0h-0.7c-0.1,0-0.1,0-0.1,0c0,0,0-0.1,0-0.1v-0.9
		c0-0.1,0.1-0.2,0.2-0.2h0.8c0,0,0.1,0,0.1,0s0,0.1,0,0.1V30.7z M161.2,36.9c0,0.1,0,0.1,0,0.2c0,0-0.1,0-0.2,0h-0.7
		c-0.1,0-0.1,0-0.1,0s0-0.1,0-0.1v-5c0-0.1,0-0.1,0-0.1c0,0,0.1,0,0.1,0h0.8c0.1,0,0.1,0,0.1,0.1V36.9z"/>
	<path fill="#CCCCCC" d="M165.3,31.9v0.5c0,0.1,0,0.1-0.1,0.1h-1c-0.1,0-0.1,0-0.1,0.1v4.3c0,0.1,0,0.2-0.1,0.2h-0.8
		c-0.1,0-0.1,0-0.1-0.1v-4.3c0-0.1,0-0.1-0.1-0.1H162c-0.1,0-0.1,0-0.1-0.1v-0.5c0-0.1,0-0.1,0.1-0.1h0.9c0,0,0.1,0,0.1,0
		c0,0,0,0,0-0.1V31c0-0.4,0.1-0.7,0.3-1s0.6-0.3,1-0.3h0.9c0.1,0,0.2,0,0.2,0.2l0,0.5c0,0,0,0.1,0,0.1s-0.1,0-0.1,0h-0.6
		c-0.2,0-0.3,0.1-0.4,0.2c-0.1,0.1-0.1,0.3-0.1,0.5v0.6c0,0.1,0,0.1,0.1,0.1h1C165.2,31.8,165.3,31.8,165.3,31.9z"/>
	<path fill="#CCCCCC" d="M167.8,32.5C167.7,32.5,167.7,32.6,167.8,32.5l-0.1,3c0,0.3,0.1,0.5,0.2,0.6s0.3,0.2,0.5,0.2h0.6
		c0.1,0,0.1,0,0.1,0.1v0.4c0,0.1,0,0.1-0.2,0.2c-0.2,0-0.6,0-1,0c-0.4,0-0.8-0.1-1-0.3c-0.2-0.2-0.3-0.5-0.3-0.9v-3.2
		c0-0.1,0-0.1-0.1-0.1h-0.8c-0.1,0-0.1,0-0.1-0.1v-0.5c0-0.1,0-0.1,0.1-0.1h0.8c0.1,0,0.1,0,0.1-0.1l0.1-1.6c0-0.1,0.1-0.1,0.1-0.1
		h0.7c0.1,0,0.1,0.1,0.1,0.2v1.6c0,0.1,0,0.1,0.1,0.1h1.2c0.1,0,0.1,0,0.1,0.1v0.5c0,0.1,0,0.1-0.1,0.1H167.8z"/>
</g>
<path fill="none" stroke="#CCCCCC" stroke-width="0.9435" stroke-miterlimit="10" d="M121.1,1.5c0,1.7,1.4,3,3,3c1.7,0,3-1.4,3-3"/>
<path fill="none" stroke="#37B34A" stroke-width="0.7583" stroke-miterlimit="10" d="M129.5,6.9"/>
<path fill="none" stroke="#CCCCCC" stroke-width="0.9435" stroke-miterlimit="10" d="M129.5,1.5c0,1.7,1.4,3,3,3s3-1.4,3-3"/>
<path fill="none" stroke="#37B34A" stroke-width="0.7583" stroke-miterlimit="10" d="M138,6.9"/>
<path fill="none" stroke="#CCCCCC" stroke-width="0.9435" stroke-miterlimit="10" d="M138,1.5c0,1.7,1.4,3,3,3c1.7,0,3-1.4,3-3"/>
<path fill="none" stroke="#CCCCCC" stroke-width="0.9435" stroke-miterlimit="10" d="M121.1,18.7c0-1.7,1.4-3,3-3c1.7,0,3,1.4,3,3"
	/>
<path fill="none" stroke="#CCCCCC" stroke-width="0.9435" stroke-miterlimit="10" d="M129.5,18.7c0-1.7,1.4-3,3-3s3,1.4,3,3"/>
<path fill="none" stroke="#CCCCCC" stroke-width="0.9435" stroke-miterlimit="10" d="M138,18.7c0-1.7,1.4-3,3-3c1.7,0,3,1.4,3,3"/>
<circle fill="none" stroke="#CCCCCC" stroke-width="0.9435" stroke-miterlimit="10" cx="124.1" cy="10.2" r="3"/>
<circle fill="none" stroke="#CCCCCC" stroke-width="0.9435" stroke-miterlimit="10" cx="132.5" cy="10.2" r="3"/>
<circle fill="#CCCCCC" stroke="#CCCCCC" stroke-width="0.9435" stroke-miterlimit="10" cx="141" cy="10.2" r="3"/>
<path fill="none" stroke="#979797" stroke-width="1.0437" stroke-miterlimit="10" d="M144.4,20.6"/>
<path fill="none" stroke="#979797" stroke-width="1.0437" stroke-miterlimit="10" d="M144.5,20.6"/>
<g>
</g>
<g>
</g>
<g>
</g>
<g>
</g>
<g>
</g>
<g>
</g>
<g>
</g>
<g>
</g>
<g>
</g>
<g>
</g>
<g>
</g>
<g>
</g>
<g>
</g>
<g>
</g>
<g>
</g>
</svg>
