<?xml version="1.0" encoding="utf-8"?>
<!-- Generator: Adobe Illustrator 17.1.0, SVG Export Plug-In . SVG Version: 6.00 Build 0)  -->
<!DOCTYPE svg PUBLIC "-//W3C//DTD SVG 1.1//EN" "http://www.w3.org/Graphics/SVG/1.1/DTD/svg11.dtd">
<svg version="1.1" id="Layer_1" xmlns="http://www.w3.org/2000/svg" xmlns:xlink="http://www.w3.org/1999/xlink" x="0px" y="0px"
	 width="240px" height="40px" viewBox="0 0 240 40" enable-background="new 0 0 240 40" xml:space="preserve">
<path fill="none" stroke="#979797" stroke-width="1.0437" stroke-miterlimit="10" d="M24.4,20.6"/>
<g>
	<path fill="#48B0E3" d="M37.1,4.3c-0.5-0.3-1.2-0.4-2.1-0.4c-1,0-1.7,0.2-2.2,0.5c-0.5,0.3-0.8,0.8-0.8,1.4c0,0.8,0.6,1.4,1.9,1.8
		l3.7,1.1c1.4,0.4,2.4,1,3.1,1.9c0.7,0.9,1,1.9,1,3.1c0,1.1-0.3,2.1-0.8,2.9s-1.4,1.4-2.4,1.9S36.3,19,34.9,19
		c-1.6,0-3.1-0.3-4.3-0.8c-1.3-0.5-2.2-1.3-2.8-2.2c-0.1-0.1-0.1-0.2-0.1-0.3c0-0.1,0.1-0.3,0.2-0.4l1.8-1.3
		c0.2-0.1,0.3-0.1,0.4-0.1c0.1,0,0.3,0.1,0.4,0.2c0.6,0.8,1.2,1.3,1.8,1.6c0.6,0.3,1.4,0.5,2.4,0.5c1.1,0,1.9-0.2,2.5-0.5
		c0.6-0.3,0.9-0.8,0.9-1.5c0-0.4-0.1-0.8-0.4-1.1s-0.8-0.6-1.5-0.8l-3.6-1c-1.4-0.4-2.4-1-3.1-1.9c-0.7-0.9-1.1-1.9-1.1-3
		c0-1,0.3-1.9,0.8-2.7c0.6-0.8,1.3-1.4,2.4-1.9C32.4,1.2,33.6,1,35,1c1.3,0,2.5,0.2,3.6,0.7c1.1,0.4,1.9,1.1,2.5,1.8
		c0.1,0.1,0.1,0.2,0.1,0.3c0,0.1,0,0.2-0.1,0.3l-2,1.5C39,5.6,39,5.6,38.9,5.6c-0.1,0-0.2-0.1-0.4-0.3C38.1,4.9,37.7,4.6,37.1,4.3z"
		/>
	<path fill="#48B0E3" d="M42.6,18.3c0-0.1,0-0.2,0-0.3l5.9-16.4c0.1-0.2,0.1-0.3,0.2-0.4c0.1-0.1,0.2-0.1,0.4-0.1h3.5
		c0.2,0,0.3,0,0.4,0.1c0.1,0.1,0.2,0.2,0.3,0.4l5.8,16.4c0,0.1,0,0.2,0,0.2c0,0.1,0,0.2-0.1,0.3c-0.1,0.1-0.1,0.1-0.2,0.1h-3.5
		c-0.2,0-0.4-0.1-0.4-0.3L53.8,15c0-0.1-0.1-0.2-0.1-0.2c0,0-0.1-0.1-0.2-0.1h-5.8c-0.2,0-0.3,0.1-0.3,0.2l-1.3,3.5
		c-0.1,0.2-0.3,0.3-0.5,0.3H43C42.8,18.7,42.6,18.6,42.6,18.3z M52.6,11.6c0.2,0,0.2-0.1,0.2-0.2c0-0.1,0-0.2,0-0.2l-2-5.5
		c0-0.1-0.1-0.1-0.2-0.1c0,0-0.1,0.1-0.1,0.2l-2,5.5c0,0.1,0,0.2,0,0.2c0,0.1,0.1,0.2,0.3,0.2H52.6z"/>
</g>
<path fill="none" stroke="#979797" stroke-width="1.0437" stroke-miterlimit="10" d="M24.6,20.6"/>
<g>
	<path fill="#48B0E3" d="M31.8,21.6c-0.3-0.1-0.6-0.2-0.9-0.2c-0.5,0-0.8,0.1-1.1,0.3c-0.3,0.2-0.4,0.5-0.4,0.8c0,0.5,0.3,0.8,1,1
		l1.5,0.5c1.1,0.4,1.7,1,1.7,2c0,0.7-0.2,1.2-0.7,1.6c-0.5,0.4-1.2,0.6-2,0.6c-0.6,0-1.2-0.1-1.7-0.3c-0.5-0.2-0.9-0.5-1.1-0.9
		c0-0.1,0-0.1,0-0.1c0-0.1,0-0.1,0.1-0.2l0.5-0.3c0.1,0,0.1-0.1,0.2-0.1c0,0,0.1,0,0.1,0.1c0.3,0.4,0.5,0.6,0.8,0.8
		c0.3,0.1,0.6,0.2,1.1,0.2c0.5,0,0.9-0.1,1.2-0.3c0.3-0.2,0.4-0.5,0.4-0.8c0-0.2-0.1-0.4-0.2-0.6s-0.4-0.3-0.8-0.5l-1.5-0.5
		c-0.5-0.2-0.9-0.4-1.2-0.8s-0.4-0.7-0.4-1.2c0-0.4,0.1-0.8,0.3-1.1c0.2-0.3,0.5-0.6,0.9-0.8c0.4-0.2,0.9-0.3,1.4-0.3
		c0.5,0,1,0.1,1.4,0.3c0.4,0.2,0.8,0.4,1,0.7c0,0,0,0.1,0,0.1s0,0.1,0,0.1l-0.6,0.4c0,0-0.1,0-0.1,0c0,0-0.1,0-0.1-0.1
		C32.3,21.9,32.1,21.7,31.8,21.6z"/>
	<path fill="#48B0E3" d="M35.7,22.9v0.4c0,0.1,0,0.1,0,0.1c0,0,0,0,0.1,0c0.2-0.2,0.4-0.4,0.6-0.5c0.2-0.1,0.5-0.2,0.9-0.2
		c0.4,0,0.8,0.1,1.1,0.3s0.6,0.5,0.8,0.9c0.2,0.4,0.3,0.9,0.3,1.5c0,0.6-0.1,1.1-0.3,1.5c-0.2,0.4-0.5,0.7-0.8,1s-0.7,0.3-1.2,0.3
		c-0.5,0-1-0.2-1.4-0.5c-0.1,0-0.1-0.1-0.1-0.1c0,0-0.1,0-0.1,0.1v1.8c0,0.1,0,0.1-0.1,0.1h-0.8c-0.1,0-0.1,0-0.1-0.1v-6.6
		c0-0.1,0-0.1,0-0.1c0,0,0.1,0,0.1,0h0.7C35.7,22.7,35.7,22.8,35.7,22.9z M36.3,27.3c0.2,0.1,0.4,0.2,0.6,0.2c0.5,0,0.8-0.2,1.1-0.5
		c0.3-0.4,0.4-0.9,0.4-1.6c0-0.7-0.1-1.2-0.4-1.5c-0.3-0.3-0.6-0.5-1-0.5c-0.2,0-0.5,0.1-0.7,0.2c-0.2,0.1-0.3,0.2-0.5,0.4
		c-0.1,0.2-0.2,0.3-0.2,0.5v2.4C35.9,27,36.1,27.2,36.3,27.3z"/>
	<path fill="#48B0E3" d="M41.6,26.6c0.1,0.2,0.3,0.4,0.6,0.6s0.5,0.2,0.8,0.2c0.3,0,0.6-0.1,0.8-0.2c0.2-0.1,0.5-0.3,0.7-0.6
		c0,0,0,0,0.1,0c0,0,0.1,0,0.1,0l0.5,0.2c0,0,0.1,0,0.1,0.1c0,0,0,0,0,0.1c-0.3,0.4-0.6,0.7-1,0.9c-0.4,0.2-0.8,0.3-1.3,0.3
		c-0.5,0-0.9-0.1-1.3-0.3s-0.7-0.5-0.9-1s-0.3-0.9-0.3-1.4c0-0.6,0.1-1.1,0.3-1.5c0.2-0.4,0.5-0.8,0.9-1c0.4-0.2,0.8-0.3,1.3-0.3
		c0.5,0,0.9,0.1,1.3,0.3c0.4,0.2,0.7,0.5,0.9,0.9c0.2,0.4,0.3,0.9,0.3,1.5v0c0,0.1,0,0.1,0,0.1c0,0-0.1,0-0.1,0h-3.7
		c-0.1,0-0.1,0.1-0.1,0.2C41.4,26.1,41.5,26.3,41.6,26.6z M44.2,25c0.1,0,0.1,0,0.1,0c0,0,0-0.1,0-0.1c0-0.3-0.1-0.5-0.2-0.7
		c-0.1-0.2-0.3-0.4-0.5-0.5s-0.5-0.2-0.7-0.2c-0.3,0-0.6,0.1-0.8,0.2s-0.4,0.3-0.5,0.6c-0.1,0.2-0.2,0.5-0.2,0.8L44.2,25z"/>
	<path fill="#48B0E3" d="M50,23c0.4,0.2,0.6,0.6,0.8,1c0,0,0,0.1,0,0.1c0,0,0,0.1-0.1,0.1L50,24.3h0c0,0-0.1,0-0.1-0.1
		c-0.2-0.3-0.4-0.5-0.5-0.6s-0.4-0.2-0.6-0.2c-0.5,0-0.8,0.2-1.1,0.5c-0.3,0.4-0.4,0.8-0.4,1.5c0,0.6,0.1,1.1,0.4,1.5
		c0.3,0.4,0.7,0.5,1.1,0.5c0.3,0,0.6-0.1,0.8-0.2s0.4-0.4,0.6-0.7c0,0,0,0,0.1,0c0,0,0,0,0.1,0l0.5,0.2c0.1,0,0.1,0.1,0,0.1
		c-0.2,0.4-0.5,0.7-0.8,1c-0.4,0.3-0.8,0.4-1.4,0.4c-0.5,0-0.9-0.1-1.3-0.3c-0.4-0.2-0.7-0.6-0.9-1c-0.2-0.4-0.3-0.9-0.3-1.4
		s0.1-1,0.3-1.4c0.2-0.4,0.5-0.7,0.9-1c0.4-0.2,0.8-0.4,1.3-0.4C49.2,22.6,49.6,22.8,50,23z"/>
	<path fill="#48B0E3" d="M53.5,23.5c-0.1,0-0.1,0-0.1,0.1v2.9c0,0.3,0.1,0.5,0.2,0.6c0.1,0.1,0.3,0.2,0.5,0.2h0.6
		c0.1,0,0.1,0,0.1,0.1v0.4c0,0.1-0.1,0.1-0.2,0.2c-0.2,0-0.6,0-1,0c-0.4,0-0.8-0.1-1-0.3s-0.3-0.5-0.3-0.9v-3.2c0-0.1,0-0.1-0.1-0.1
		h-0.8c-0.1,0-0.1,0-0.1-0.1v-0.5c0-0.1,0-0.1,0.1-0.1h0.8c0.1,0,0.1,0,0.1-0.1l0.1-1.6c0-0.1,0.1-0.1,0.1-0.1h0.7
		c0.1,0,0.1,0.1,0.1,0.2v1.5c0,0.1,0,0.1,0.1,0.1h1.2c0.1,0,0.1,0,0.1,0.1v0.5c0,0.1,0,0.1-0.1,0.1H53.5z"/>
	<path fill="#48B0E3" d="M55.8,27.9v-5c0-0.1,0-0.2,0.1-0.2h0.8c0.1,0,0.1,0,0.1,0.1v0.6c0,0,0,0.1,0,0.1s0,0,0.1,0
		c0.2-0.3,0.5-0.5,0.8-0.7c0.3-0.2,0.5-0.2,0.8-0.2c0.2,0,0.4,0,0.4,0.1v0.8c0,0.1,0,0.1-0.1,0.1c-0.1,0-0.3,0-0.5,0
		c-0.2,0-0.4,0.1-0.6,0.2c-0.2,0.1-0.4,0.2-0.5,0.4c-0.1,0.2-0.2,0.3-0.2,0.5v3.2c0,0.1-0.1,0.2-0.2,0.2h-0.7
		C55.8,28,55.8,28,55.8,27.9z"/>
	<path fill="#48B0E3" d="M63,26.5v-3.6c0-0.1,0.1-0.2,0.2-0.2h0.7c0.1,0,0.2,0.1,0.2,0.2l0,5c0,0.1,0,0.1-0.1,0.1h-0.8
		c-0.1,0-0.1,0-0.1-0.1v-0.6c0-0.1,0-0.1-0.1,0c-0.3,0.3-0.6,0.5-0.9,0.6c-0.3,0.1-0.6,0.2-0.9,0.2c-0.5,0-0.8-0.1-1.1-0.4
		c-0.3-0.3-0.4-0.7-0.4-1.1v-3.7c0-0.1,0.1-0.2,0.2-0.2h0.7c0.1,0,0.2,0.1,0.2,0.2v3.5c0,0.3,0.1,0.5,0.2,0.7
		c0.2,0.2,0.4,0.3,0.7,0.3C62,27.3,62.5,27.1,63,26.5z"/>
	<path fill="#48B0E3" d="M65.4,27.9v-5c0-0.1,0-0.2,0.1-0.2h0.8c0.1,0,0.1,0,0.1,0.1v0.5c0,0,0,0.1,0,0.1c0,0,0,0,0.1,0
		c0.3-0.3,0.6-0.5,0.9-0.6c0.3-0.1,0.5-0.2,0.9-0.2c0.4,0,0.7,0.1,0.9,0.2c0.2,0.2,0.4,0.4,0.5,0.6c0,0,0,0,0,0c0,0,0.1,0,0.1,0
		c0.3-0.3,0.6-0.5,0.9-0.7s0.6-0.2,0.9-0.2c0.5,0,0.9,0.1,1.1,0.4c0.3,0.3,0.4,0.7,0.4,1.1v3.7c0,0.1-0.1,0.2-0.2,0.2h-0.7
		c-0.1,0-0.1,0-0.1,0s0-0.1,0-0.1v-3.5c0-0.3-0.1-0.5-0.2-0.7c-0.1-0.2-0.4-0.2-0.7-0.2c-0.4,0-0.8,0.2-1.3,0.6c0,0-0.1,0.1-0.1,0.1
		s0,0.1,0,0.2v3.5c0,0.1-0.1,0.2-0.2,0.2h-0.7c-0.1,0-0.2-0.1-0.2-0.2v-3.5c0-0.3-0.1-0.5-0.2-0.7s-0.4-0.2-0.7-0.2
		c-0.2,0-0.5,0.1-0.7,0.2c-0.2,0.1-0.5,0.3-0.7,0.6v3.7c0,0.1,0,0.1,0,0.1c0,0-0.1,0-0.1,0h-0.7C65.5,28,65.4,28,65.4,27.9z"/>
	<path fill="#48B0E3" d="M76.3,27.9L76.3,27.9l2.6-7.1c0-0.1,0-0.1,0.1-0.1c0,0,0.1,0,0.1,0h1c0.1,0,0.2,0.1,0.2,0.2l2.5,7
		c0,0,0,0,0,0.1c0,0.1,0,0.1-0.1,0.1h-1c-0.1,0-0.1,0-0.2-0.1L81,26.1c0,0,0-0.1,0-0.1c0,0,0,0-0.1,0h-2.8c-0.1,0-0.1,0-0.1,0.1
		l-0.6,1.8c0,0.1-0.1,0.1-0.2,0.1h-0.8C76.3,28,76.3,28,76.3,27.9z M80.6,25.1C80.6,25.1,80.6,25.1,80.6,25.1
		c0.1-0.1,0.1-0.1,0.1-0.1l-1.1-3c0,0,0-0.1-0.1-0.1c0,0,0,0-0.1,0.1l-1.1,3l0,0.1c0,0,0,0.1,0.1,0.1H80.6z"/>
	<path fill="#48B0E3" d="M83.9,27.9v-5c0-0.1,0-0.2,0.1-0.2h0.8c0.1,0,0.1,0,0.1,0.1v0.5c0,0,0,0.1,0,0.1c0,0,0,0,0.1,0
		c0.3-0.3,0.7-0.5,0.9-0.6s0.6-0.2,0.9-0.2c0.5,0,0.9,0.1,1.2,0.4c0.3,0.3,0.4,0.6,0.4,1.1v3.7c0,0.1-0.1,0.2-0.2,0.2h-0.7
		c-0.1,0-0.1-0.1-0.1-0.2v-3.5c0-0.3-0.1-0.5-0.2-0.7s-0.4-0.2-0.7-0.2c-0.3,0-0.5,0.1-0.7,0.2c-0.2,0.1-0.5,0.3-0.8,0.6v3.7
		c0,0.1,0,0.1,0,0.1c0,0-0.1,0-0.1,0h-0.7C84,28,83.9,28,83.9,27.9z"/>
	<path fill="#48B0E3" d="M91.1,28.1c-0.5,0-0.9-0.1-1.2-0.4c-0.3-0.3-0.4-0.6-0.4-1.1c0-0.5,0.2-1,0.7-1.3c0.5-0.3,1.1-0.5,2-0.5
		l0.7-0.1c0.1,0,0.2-0.1,0.2-0.1v-0.2c0-0.3-0.1-0.6-0.3-0.8c-0.2-0.2-0.5-0.3-0.8-0.3c-0.5,0-1,0.2-1.3,0.7c0,0,0,0.1-0.1,0.1
		s-0.1,0-0.1,0L89.7,24c0,0-0.1,0-0.1-0.1c0,0,0-0.1,0-0.1c0.2-0.4,0.5-0.6,0.9-0.8c0.4-0.2,0.8-0.3,1.4-0.3c0.7,0,1.2,0.1,1.6,0.4
		c0.3,0.3,0.5,0.7,0.5,1.2v3.5c0,0.1,0,0.1,0,0.1c0,0-0.1,0-0.1,0h-0.7C93,28,93,28,93,27.8l0-0.4c0-0.1,0-0.1-0.1-0.1
		c0,0-0.1,0-0.1,0.1C92.3,27.9,91.7,28.1,91.1,28.1z M92.8,25.4l-0.5,0c-0.6,0-1,0.1-1.3,0.3c-0.3,0.2-0.5,0.5-0.5,0.8
		c0,0.3,0.1,0.5,0.3,0.6c0.2,0.2,0.4,0.2,0.8,0.2c0.4,0,0.7-0.1,1-0.4c0.3-0.2,0.4-0.5,0.4-0.7v-0.8C92.9,25.4,92.9,25.4,92.8,25.4z
		"/>
	<path fill="#48B0E3" d="M96.3,27.8c0,0.1,0,0.1,0,0.2c0,0-0.1,0-0.2,0h-0.7c-0.1,0-0.1,0-0.1,0c0,0,0-0.1,0-0.1l0-7.1
		c0-0.1,0-0.1,0.1-0.1h0.8c0.1,0,0.1,0,0.1,0.1V27.8z"/>
	<path fill="#48B0E3" d="M97.5,29.7c-0.1,0-0.1-0.1-0.1-0.1V29c0-0.1,0.1-0.1,0.3-0.1h0.6c0.1,0,0.3,0,0.4-0.1
		c0.1-0.1,0.2-0.2,0.3-0.4c0.1-0.2,0.1-0.3,0.1-0.5c0-0.1,0-0.2,0-0.2l-1.9-4.8c0,0,0,0,0-0.1c0-0.1,0-0.1,0.1-0.1h0.8
		c0,0,0.1,0,0.1,0c0,0,0.1,0.1,0.1,0.1l1.4,3.6c0,0.1,0,0.1,0.1,0.1c0,0,0.1,0,0.1-0.1l1.4-3.6c0-0.1,0.1-0.1,0.2-0.1h0.6
		c0,0,0.1,0,0.1,0.1c0,0,0,0.1,0,0.1l-2.1,5.5c-0.1,0.4-0.3,0.6-0.5,0.8c-0.2,0.2-0.4,0.3-0.6,0.4s-0.5,0.1-0.9,0.1
		C97.8,29.7,97.6,29.7,97.5,29.7z"/>
	<path fill="#48B0E3" d="M105.7,23.5c-0.2-0.1-0.5-0.2-0.8-0.2c-0.3,0-0.6,0.1-0.8,0.2c-0.2,0.1-0.3,0.3-0.3,0.6
		c0,0.1,0.1,0.3,0.2,0.4c0.1,0.1,0.3,0.2,0.6,0.3l1.2,0.3c0.5,0.1,0.8,0.3,1,0.6c0.2,0.2,0.3,0.5,0.3,0.9c0,0.3-0.1,0.6-0.3,0.8
		s-0.5,0.4-0.8,0.6c-0.3,0.1-0.7,0.2-1.1,0.2c-0.5,0-1-0.1-1.4-0.3s-0.7-0.5-0.9-0.8c0,0,0-0.1,0-0.1c0,0,0-0.1,0-0.1l0.5-0.3
		c0,0,0.1,0,0.1,0c0,0,0.1,0,0.1,0c0.4,0.5,0.9,0.8,1.6,0.8c0.4,0,0.7-0.1,0.9-0.2c0.2-0.1,0.4-0.3,0.4-0.6c0-0.2-0.1-0.3-0.2-0.4
		c-0.1-0.1-0.4-0.2-0.7-0.3l-1-0.3c-0.5-0.1-0.9-0.3-1.1-0.5c-0.2-0.2-0.3-0.5-0.3-0.9c0-0.3,0.1-0.6,0.3-0.8
		c0.2-0.2,0.4-0.4,0.7-0.6c0.3-0.1,0.7-0.2,1.1-0.2c0.5,0,0.9,0.1,1.2,0.3c0.4,0.2,0.6,0.4,0.8,0.7c0,0,0,0.1,0,0.1c0,0,0,0,0,0.1
		l-0.5,0.3c0,0,0,0-0.1,0c0,0-0.1,0-0.1-0.1C106.1,23.8,105.9,23.6,105.7,23.5z"/>
	<path fill="#48B0E3" d="M109.2,21.7c0,0.1,0,0.1,0,0.2c0,0-0.1,0.1-0.2,0.1h-0.7c-0.1,0-0.1,0-0.1,0c0,0,0-0.1,0-0.1v-0.9
		c0-0.1,0.1-0.2,0.1-0.2h0.8c0,0,0.1,0,0.1,0c0,0,0,0.1,0,0.1V21.7z M109.2,27.8c0,0.1,0,0.1,0,0.2c0,0-0.1,0-0.2,0h-0.7
		c-0.1,0-0.1,0-0.1,0c0,0,0-0.1,0-0.1v-5c0-0.1,0-0.1,0-0.1s0.1,0,0.1,0h0.8c0.1,0,0.1,0,0.1,0.1V27.8z"/>
	<path fill="#48B0E3" d="M113.2,23.5c-0.2-0.1-0.5-0.2-0.8-0.2c-0.3,0-0.6,0.1-0.8,0.2c-0.2,0.1-0.3,0.3-0.3,0.6
		c0,0.1,0.1,0.3,0.2,0.4c0.1,0.1,0.3,0.2,0.6,0.3l1.2,0.3c0.5,0.1,0.8,0.3,1,0.6c0.2,0.2,0.3,0.5,0.3,0.9c0,0.3-0.1,0.6-0.3,0.8
		s-0.5,0.4-0.8,0.6c-0.3,0.1-0.7,0.2-1.2,0.2c-0.5,0-1-0.1-1.4-0.3s-0.7-0.5-0.9-0.8c0,0,0-0.1,0-0.1c0,0,0-0.1,0-0.1l0.5-0.3
		c0,0,0.1,0,0.1,0c0,0,0.1,0,0.1,0c0.4,0.5,0.9,0.8,1.6,0.8c0.4,0,0.7-0.1,0.9-0.2s0.4-0.3,0.4-0.6c0-0.2-0.1-0.3-0.2-0.4
		c-0.1-0.1-0.4-0.2-0.7-0.3l-1-0.3c-0.5-0.1-0.9-0.3-1.1-0.5c-0.2-0.2-0.3-0.5-0.3-0.9c0-0.3,0.1-0.6,0.3-0.8
		c0.2-0.2,0.4-0.4,0.7-0.6c0.3-0.1,0.7-0.2,1.1-0.2c0.5,0,0.9,0.1,1.2,0.3c0.4,0.2,0.6,0.4,0.8,0.7c0,0,0,0.1,0,0.1c0,0,0,0-0.1,0.1
		l-0.5,0.3c0,0,0,0-0.1,0c0,0-0.1,0-0.1-0.1C113.6,23.8,113.4,23.6,113.2,23.5z"/>
</g>
<path fill="none" stroke="#48B0E3" stroke-width="0.9435" stroke-miterlimit="10" d="M1.1,1.5c0,1.7,1.4,3,3,3s3-1.4,3-3"/>
<path fill="none" stroke="#48B0E3" stroke-width="0.7583" stroke-miterlimit="10" d="M9.5,6.9"/>
<path fill="none" stroke="#48B0E3" stroke-width="0.9435" stroke-miterlimit="10" d="M9.5,1.5c0,1.7,1.4,3,3,3c1.7,0,3-1.4,3-3"/>
<path fill="none" stroke="#37B34A" stroke-width="0.7583" stroke-miterlimit="10" d="M18,6.9"/>
<path fill="none" stroke="#48B0E3" stroke-width="0.9435" stroke-miterlimit="10" d="M18,1.5c0,1.7,1.4,3,3,3c1.7,0,3-1.4,3-3"/>
<path fill="none" stroke="#48B0E3" stroke-width="0.9435" stroke-miterlimit="10" d="M1.1,18.7c0-1.7,1.4-3,3-3s3,1.4,3,3"/>
<path fill="none" stroke="#48B0E3" stroke-width="0.9435" stroke-miterlimit="10" d="M9.5,18.7c0-1.7,1.4-3,3-3c1.7,0,3,1.4,3,3"/>
<path fill="none" stroke="#48B0E3" stroke-width="0.9435" stroke-miterlimit="10" d="M18,18.7c0-1.7,1.4-3,3-3c1.7,0,3,1.4,3,3"/>
<circle fill="none" stroke="#48B0E3" stroke-width="0.9435" stroke-miterlimit="10" cx="4.1" cy="10.2" r="3"/>
<circle fill="none" stroke="#48B0E3" stroke-width="0.9435" stroke-miterlimit="10" cx="12.5" cy="10.2" r="3"/>
<circle fill="#48B0E3" stroke="#48B0E3" stroke-width="0.9435" stroke-miterlimit="10" cx="21" cy="10.2" r="3"/>
<path fill="none" stroke="#979797" stroke-width="1.0437" stroke-miterlimit="10" d="M144.4,20.6"/>
<g>
	<path fill="#CCCCCC" d="M157.1,4.3c-0.5-0.3-1.2-0.4-2.1-0.4c-1,0-1.7,0.2-2.2,0.5s-0.8,0.8-0.8,1.4c0,0.8,0.6,1.4,1.9,1.8l3.7,1.1
		c1.4,0.4,2.4,1,3.1,1.9c0.7,0.9,1,1.9,1,3.1c0,1.1-0.3,2.1-0.8,2.9s-1.4,1.4-2.4,1.9c-1.1,0.4-2.3,0.7-3.7,0.7
		c-1.6,0-3.1-0.3-4.3-0.8c-1.3-0.5-2.2-1.3-2.8-2.2c-0.1-0.1-0.1-0.2-0.1-0.3c0-0.1,0.1-0.3,0.2-0.4l1.8-1.3
		c0.2-0.1,0.3-0.1,0.4-0.1c0.1,0,0.3,0.1,0.4,0.2c0.6,0.8,1.2,1.3,1.8,1.6c0.6,0.3,1.4,0.5,2.4,0.5c1.1,0,1.9-0.2,2.5-0.5
		c0.6-0.3,0.9-0.8,0.9-1.5c0-0.4-0.1-0.8-0.4-1.1s-0.8-0.6-1.5-0.8l-3.6-1c-1.4-0.4-2.4-1-3.1-1.9c-0.7-0.9-1.1-1.9-1.1-3
		c0-1,0.3-1.9,0.8-2.7c0.6-0.8,1.3-1.4,2.4-1.9c1-0.5,2.2-0.7,3.5-0.7c1.3,0,2.5,0.2,3.6,0.7c1.1,0.4,1.9,1.1,2.5,1.8
		c0.1,0.1,0.1,0.2,0.1,0.3c0,0.1,0,0.2-0.1,0.3l-2,1.5c-0.1,0.1-0.2,0.1-0.2,0.1c-0.1,0-0.2-0.1-0.4-0.3
		C158.1,4.9,157.7,4.6,157.1,4.3z"/>
	<path fill="#CCCCCC" d="M162.6,18.3c0-0.1,0-0.2,0-0.3l5.9-16.4c0.1-0.2,0.1-0.3,0.2-0.4c0.1-0.1,0.2-0.1,0.4-0.1h3.5
		c0.2,0,0.3,0,0.4,0.1c0.1,0.1,0.2,0.2,0.3,0.4l5.8,16.4c0,0.1,0,0.2,0,0.2c0,0.1,0,0.2-0.1,0.3c-0.1,0.1-0.1,0.1-0.2,0.1h-3.5
		c-0.2,0-0.4-0.1-0.4-0.3l-1.2-3.4c0-0.1-0.1-0.2-0.1-0.2c0,0-0.1-0.1-0.2-0.1h-5.8c-0.2,0-0.3,0.1-0.3,0.2l-1.3,3.5
		c-0.1,0.2-0.3,0.3-0.5,0.3H163C162.8,18.7,162.6,18.6,162.6,18.3z M172.6,11.6c0.2,0,0.2-0.1,0.2-0.2c0-0.1,0-0.2,0-0.2l-2-5.5
		c0-0.1-0.1-0.1-0.2-0.1c0,0-0.1,0.1-0.1,0.2l-2,5.5c0,0.1,0,0.2,0,0.2c0,0.1,0.1,0.2,0.3,0.2H172.6z"/>
</g>
<path fill="none" stroke="#979797" stroke-width="1.0437" stroke-miterlimit="10" d="M144.6,20.6"/>
<g>
	<path fill="#CCCCCC" d="M151.8,21.6c-0.3-0.1-0.6-0.2-1-0.2c-0.5,0-0.8,0.1-1.1,0.3c-0.3,0.2-0.4,0.5-0.4,0.8c0,0.5,0.3,0.8,1,1
		l1.5,0.5c1.1,0.4,1.7,1,1.7,2c0,0.7-0.2,1.2-0.7,1.6s-1.2,0.6-2,0.6c-0.6,0-1.2-0.1-1.7-0.3c-0.5-0.2-0.9-0.5-1.1-0.9
		c0-0.1,0-0.1,0-0.1c0-0.1,0-0.1,0.1-0.2l0.5-0.3c0.1,0,0.1-0.1,0.2-0.1s0.1,0,0.1,0.1c0.3,0.4,0.5,0.6,0.8,0.8
		c0.3,0.1,0.6,0.2,1.1,0.2c0.5,0,0.9-0.1,1.2-0.3c0.3-0.2,0.4-0.5,0.4-0.8c0-0.2-0.1-0.4-0.2-0.6c-0.1-0.2-0.4-0.3-0.8-0.5l-1.5-0.5
		c-0.5-0.2-0.9-0.4-1.2-0.8c-0.3-0.3-0.4-0.7-0.4-1.2c0-0.4,0.1-0.8,0.3-1.1c0.2-0.3,0.5-0.6,0.9-0.8c0.4-0.2,0.9-0.3,1.4-0.3
		c0.5,0,1,0.1,1.4,0.3s0.8,0.4,1,0.7c0,0,0,0.1,0,0.1s0,0.1,0,0.1l-0.6,0.4c0,0-0.1,0-0.1,0c0,0-0.1,0-0.1-0.1
		C152.3,21.9,152.1,21.7,151.8,21.6z"/>
	<path fill="#CCCCCC" d="M155.5,22.9v0.4c0,0.1,0,0.1,0,0.1c0,0,0,0,0.1,0c0.2-0.2,0.4-0.4,0.6-0.5c0.2-0.1,0.5-0.2,0.9-0.2
		c0.4,0,0.8,0.1,1.1,0.3s0.6,0.5,0.8,0.9c0.2,0.4,0.3,0.9,0.3,1.5c0,0.6-0.1,1.1-0.3,1.5c-0.2,0.4-0.5,0.7-0.8,1s-0.7,0.3-1.2,0.3
		c-0.5,0-1-0.2-1.4-0.5c-0.1,0-0.1-0.1-0.1-0.1c0,0-0.1,0-0.1,0.1v1.8c0,0.1,0,0.1-0.1,0.1h-0.8c-0.1,0-0.1,0-0.1-0.1v-6.6
		c0-0.1,0-0.1,0-0.1s0.1,0,0.1,0h0.7C155.5,22.7,155.5,22.8,155.5,22.9z M156.1,27.3c0.2,0.1,0.4,0.2,0.6,0.2c0.5,0,0.8-0.2,1.1-0.5
		c0.3-0.4,0.4-0.9,0.4-1.6c0-0.7-0.1-1.2-0.4-1.5c-0.3-0.3-0.6-0.5-1-0.5c-0.2,0-0.5,0.1-0.7,0.2c-0.2,0.1-0.3,0.2-0.5,0.4
		c-0.1,0.2-0.2,0.3-0.2,0.5v2.4C155.7,27,155.9,27.2,156.1,27.3z"/>
	<path fill="#CCCCCC" d="M161.2,26.6c0.1,0.2,0.3,0.4,0.6,0.6c0.2,0.1,0.5,0.2,0.8,0.2c0.3,0,0.6-0.1,0.8-0.2
		c0.2-0.1,0.5-0.3,0.7-0.6c0,0,0,0,0.1,0c0,0,0.1,0,0.1,0l0.5,0.2c0,0,0.1,0,0.1,0.1c0,0,0,0,0,0.1c-0.3,0.4-0.6,0.7-1,0.9
		c-0.4,0.2-0.8,0.3-1.3,0.3c-0.5,0-0.9-0.1-1.3-0.3s-0.7-0.5-0.9-1c-0.2-0.4-0.3-0.9-0.3-1.4c0-0.6,0.1-1.1,0.3-1.5
		c0.2-0.4,0.5-0.8,0.9-1c0.4-0.2,0.8-0.3,1.3-0.3c0.5,0,0.9,0.1,1.3,0.3c0.4,0.2,0.7,0.5,0.9,0.9s0.3,0.9,0.3,1.5v0
		c0,0.1,0,0.1,0,0.1c0,0-0.1,0-0.1,0h-3.7c-0.1,0-0.1,0.1-0.1,0.2C161,26.1,161.1,26.3,161.2,26.6z M163.8,25c0.1,0,0.1,0,0.1,0
		c0,0,0-0.1,0-0.1c0-0.3-0.1-0.5-0.2-0.7c-0.1-0.2-0.3-0.4-0.5-0.5s-0.5-0.2-0.7-0.2c-0.3,0-0.6,0.1-0.8,0.2s-0.4,0.3-0.5,0.6
		s-0.2,0.5-0.2,0.8L163.8,25z"/>
	<path fill="#CCCCCC" d="M169.4,23c0.4,0.2,0.6,0.6,0.8,1c0,0,0,0.1,0,0.1c0,0,0,0.1-0.1,0.1l-0.7,0.1h0c0,0-0.1,0-0.1-0.1
		c-0.2-0.3-0.4-0.5-0.5-0.6c-0.2-0.1-0.4-0.2-0.6-0.2c-0.5,0-0.8,0.2-1.1,0.5c-0.3,0.4-0.4,0.8-0.4,1.5c0,0.6,0.1,1.1,0.4,1.5
		s0.7,0.5,1.1,0.5c0.3,0,0.6-0.1,0.8-0.2s0.4-0.4,0.6-0.7c0,0,0,0,0.1,0c0,0,0,0,0.1,0l0.5,0.2c0.1,0,0.1,0.1,0,0.1
		c-0.2,0.4-0.5,0.7-0.8,1c-0.4,0.3-0.8,0.4-1.4,0.4c-0.5,0-0.9-0.1-1.3-0.3c-0.4-0.2-0.7-0.6-0.9-1c-0.2-0.4-0.3-0.9-0.3-1.4
		s0.1-1,0.3-1.4c0.2-0.4,0.5-0.7,0.9-1c0.4-0.2,0.8-0.4,1.3-0.4C168.6,22.6,169,22.8,169.4,23z"/>
	<path fill="#CCCCCC" d="M172.7,23.5c-0.1,0-0.1,0-0.1,0.1v2.9c0,0.3,0.1,0.5,0.2,0.6s0.3,0.2,0.5,0.2h0.6c0.1,0,0.1,0,0.1,0.1v0.4
		c0,0.1,0,0.1-0.2,0.2c-0.2,0-0.6,0-1,0c-0.4,0-0.8-0.1-1-0.3c-0.2-0.2-0.3-0.5-0.3-0.9v-3.2c0-0.1,0-0.1-0.1-0.1h-0.8
		c-0.1,0-0.1,0-0.1-0.1v-0.5c0-0.1,0-0.1,0.1-0.1h0.8c0.1,0,0.1,0,0.1-0.1l0.1-1.6c0-0.1,0.1-0.1,0.1-0.1h0.7c0.1,0,0.1,0.1,0.1,0.2
		v1.5c0,0.1,0,0.1,0.1,0.1h1.2c0.1,0,0.1,0,0.1,0.1v0.5c0,0.1,0,0.1-0.1,0.1H172.7z"/>
	<path fill="#CCCCCC" d="M174.8,27.9v-5c0-0.1,0-0.2,0.1-0.2h0.8c0.1,0,0.1,0,0.1,0.1v0.6c0,0,0,0.1,0,0.1s0,0,0.1,0
		c0.2-0.3,0.5-0.5,0.8-0.7s0.5-0.2,0.8-0.2c0.2,0,0.3,0,0.3,0.1v0.8c0,0.1,0,0.1-0.1,0.1c-0.1,0-0.3,0-0.5,0c-0.2,0-0.4,0.1-0.6,0.2
		c-0.2,0.1-0.4,0.2-0.5,0.4s-0.2,0.3-0.2,0.5v3.2c0,0.1-0.1,0.2-0.2,0.2h-0.7C174.8,28,174.8,28,174.8,27.9z"/>
	<path fill="#CCCCCC" d="M181.8,26.5v-3.6c0-0.1,0.1-0.2,0.2-0.2h0.7c0.1,0,0.2,0.1,0.2,0.2l0,5c0,0.1,0,0.1-0.1,0.1H182
		c-0.1,0-0.1,0-0.1-0.1v-0.6c0-0.1,0-0.1-0.1,0c-0.3,0.3-0.6,0.5-0.9,0.6s-0.6,0.2-0.9,0.2c-0.5,0-0.8-0.1-1.1-0.4
		c-0.3-0.3-0.4-0.7-0.4-1.1v-3.7c0-0.1,0.1-0.2,0.2-0.2h0.7c0.1,0,0.2,0.1,0.2,0.2v3.5c0,0.3,0.1,0.5,0.2,0.7
		c0.2,0.2,0.4,0.3,0.7,0.3C180.8,27.3,181.3,27.1,181.8,26.5z"/>
	<path fill="#CCCCCC" d="M184,27.9v-5c0-0.1,0-0.2,0.1-0.2h0.8c0.1,0,0.1,0,0.1,0.1v0.5c0,0,0,0.1,0,0.1s0,0,0.1,0
		c0.3-0.3,0.6-0.5,0.9-0.6s0.5-0.2,0.9-0.2c0.4,0,0.7,0.1,0.9,0.2c0.2,0.2,0.4,0.4,0.5,0.6c0,0,0,0,0,0c0,0,0.1,0,0.1,0
		c0.3-0.3,0.6-0.5,0.9-0.7c0.3-0.2,0.6-0.2,0.9-0.2c0.5,0,0.9,0.1,1.1,0.4c0.3,0.3,0.4,0.7,0.4,1.1v3.7c0,0.1-0.1,0.2-0.2,0.2h-0.7
		c-0.1,0-0.1,0-0.1,0c0,0,0-0.1,0-0.1v-3.5c0-0.3-0.1-0.5-0.2-0.7s-0.4-0.2-0.7-0.2c-0.4,0-0.8,0.2-1.3,0.6c0,0-0.1,0.1-0.1,0.1
		c0,0,0,0.1,0,0.2v3.5c0,0.1-0.1,0.2-0.2,0.2h-0.7c-0.1,0-0.2-0.1-0.2-0.2v-3.5c0-0.3-0.1-0.5-0.2-0.7s-0.4-0.2-0.7-0.2
		c-0.2,0-0.5,0.1-0.7,0.2c-0.2,0.1-0.5,0.3-0.7,0.6v3.7c0,0.1,0,0.1,0,0.1s-0.1,0-0.1,0h-0.7C184.1,28,184,28,184,27.9z"/>
	<path fill="#CCCCCC" d="M194.5,27.9L194.5,27.9l2.6-7.1c0-0.1,0-0.1,0.1-0.1s0.1,0,0.1,0h1c0.1,0,0.2,0.1,0.2,0.2l2.5,7
		c0,0,0,0,0,0.1c0,0.1,0,0.1-0.1,0.1h-1c-0.1,0-0.1,0-0.2-0.1l-0.6-1.8c0,0,0-0.1,0-0.1c0,0,0,0-0.1,0h-2.8c-0.1,0-0.1,0-0.1,0.1
		l-0.7,1.8c0,0.1-0.1,0.1-0.2,0.1h-0.8C194.5,28,194.5,28,194.5,27.9z M198.8,25.1C198.8,25.1,198.8,25.1,198.8,25.1
		c0.1-0.1,0.1-0.1,0.1-0.1l-1.1-3c0,0,0-0.1-0.1-0.1s0,0-0.1,0.1l-1.1,3l0,0.1c0,0,0,0.1,0.1,0.1H198.8z"/>
	<path fill="#CCCCCC" d="M201.9,27.9v-5c0-0.1,0-0.2,0.1-0.2h0.8c0.1,0,0.1,0,0.1,0.1v0.5c0,0,0,0.1,0,0.1s0,0,0.1,0
		c0.3-0.3,0.7-0.5,0.9-0.6s0.6-0.2,0.9-0.2c0.5,0,0.9,0.1,1.2,0.4c0.3,0.3,0.4,0.6,0.4,1.1v3.7c0,0.1-0.1,0.2-0.2,0.2h-0.7
		c-0.1,0-0.1-0.1-0.1-0.2v-3.5c0-0.3-0.1-0.5-0.2-0.7c-0.2-0.2-0.4-0.2-0.7-0.2c-0.3,0-0.5,0.1-0.7,0.2c-0.2,0.1-0.5,0.3-0.8,0.6
		v3.7c0,0.1,0,0.1,0,0.1s-0.1,0-0.1,0h-0.7C202,28,201.9,28,201.9,27.9z"/>
	<path fill="#CCCCCC" d="M208.9,28.1c-0.5,0-0.9-0.1-1.2-0.4s-0.4-0.6-0.4-1.1c0-0.5,0.2-1,0.7-1.3c0.5-0.3,1.1-0.5,2-0.5l0.7-0.1
		c0.1,0,0.2-0.1,0.2-0.1v-0.2c0-0.3-0.1-0.6-0.3-0.8c-0.2-0.2-0.5-0.3-0.8-0.3c-0.5,0-1,0.2-1.3,0.7c0,0,0,0.1-0.1,0.1s-0.1,0-0.1,0
		l-0.7-0.2c0,0-0.1,0-0.1-0.1c0,0,0-0.1,0-0.1c0.2-0.4,0.5-0.6,0.9-0.8c0.4-0.2,0.8-0.3,1.4-0.3c0.7,0,1.2,0.1,1.6,0.4
		c0.3,0.3,0.5,0.7,0.5,1.2v3.5c0,0.1,0,0.1,0,0.1c0,0-0.1,0-0.1,0h-0.7c-0.1,0-0.1-0.1-0.2-0.2l0-0.4c0-0.1,0-0.1-0.1-0.1
		c0,0-0.1,0-0.1,0.1C210.1,27.9,209.5,28.1,208.9,28.1z M210.6,25.4l-0.5,0c-0.6,0-1,0.1-1.3,0.3c-0.3,0.2-0.5,0.5-0.5,0.8
		c0,0.3,0.1,0.5,0.3,0.6c0.2,0.2,0.4,0.2,0.8,0.2c0.4,0,0.7-0.1,1-0.4c0.3-0.2,0.4-0.5,0.4-0.7v-0.8
		C210.7,25.4,210.7,25.4,210.6,25.4z"/>
	<path fill="#CCCCCC" d="M213.9,27.8c0,0.1,0,0.1,0,0.2s-0.1,0-0.2,0H213c-0.1,0-0.1,0-0.1,0c0,0,0-0.1,0-0.1l0-7.1
		c0-0.1,0-0.1,0.1-0.1h0.8c0.1,0,0.1,0,0.1,0.1V27.8z"/>
	<path fill="#CCCCCC" d="M214.9,29.7c-0.1,0-0.1-0.1-0.1-0.1V29c0-0.1,0.1-0.1,0.3-0.1h0.6c0.1,0,0.3,0,0.4-0.1
		c0.1-0.1,0.2-0.2,0.3-0.4c0.1-0.2,0.1-0.3,0.1-0.5c0-0.1,0-0.2,0-0.2l-1.9-4.8c0,0,0,0,0-0.1c0-0.1,0-0.1,0.1-0.1h0.8
		c0,0,0.1,0,0.1,0s0.1,0.1,0.1,0.1l1.4,3.6c0,0.1,0,0.1,0.1,0.1c0,0,0.1,0,0.1-0.1l1.4-3.6c0-0.1,0.1-0.1,0.2-0.1h0.6
		c0,0,0.1,0,0.1,0.1c0,0,0,0.1,0,0.1l-2.2,5.5c-0.1,0.4-0.3,0.6-0.5,0.8c-0.2,0.2-0.4,0.3-0.6,0.4c-0.2,0.1-0.5,0.1-0.9,0.1
		C215.2,29.7,215,29.7,214.9,29.7z"/>
	<path fill="#CCCCCC" d="M222.9,23.5c-0.2-0.1-0.5-0.2-0.8-0.2c-0.3,0-0.6,0.1-0.8,0.2c-0.2,0.1-0.3,0.3-0.3,0.6
		c0,0.1,0.1,0.3,0.2,0.4s0.3,0.2,0.6,0.3l1.2,0.3c0.5,0.1,0.8,0.3,1,0.6s0.3,0.5,0.3,0.9c0,0.3-0.1,0.6-0.3,0.8
		c-0.2,0.2-0.5,0.4-0.8,0.6c-0.3,0.1-0.7,0.2-1.1,0.2c-0.5,0-1-0.1-1.4-0.3c-0.4-0.2-0.7-0.5-0.9-0.8c0,0,0-0.1,0-0.1
		c0,0,0-0.1,0-0.1l0.5-0.3c0,0,0.1,0,0.1,0c0,0,0.1,0,0.1,0c0.4,0.5,0.9,0.8,1.6,0.8c0.4,0,0.7-0.1,0.9-0.2s0.4-0.3,0.4-0.6
		c0-0.2-0.1-0.3-0.2-0.4c-0.1-0.1-0.4-0.2-0.7-0.3l-1-0.3c-0.5-0.1-0.9-0.3-1.1-0.5c-0.2-0.2-0.3-0.5-0.3-0.9c0-0.3,0.1-0.6,0.3-0.8
		c0.2-0.2,0.4-0.4,0.7-0.6s0.7-0.2,1.1-0.2c0.5,0,0.9,0.1,1.2,0.3c0.4,0.2,0.6,0.4,0.8,0.7c0,0,0,0.1,0,0.1c0,0,0,0,0,0.1l-0.5,0.3
		c0,0,0,0-0.1,0c0,0-0.1,0-0.1-0.1C223.3,23.8,223.1,23.6,222.9,23.5z"/>
	<path fill="#CCCCCC" d="M226.2,21.7c0,0.1,0,0.1,0,0.2c0,0-0.1,0.1-0.2,0.1h-0.7c-0.1,0-0.1,0-0.1,0c0,0,0-0.1,0-0.1v-0.9
		c0-0.1,0.1-0.2,0.2-0.2h0.8c0,0,0.1,0,0.1,0s0,0.1,0,0.1V21.7z M226.2,27.8c0,0.1,0,0.1,0,0.2c0,0-0.1,0-0.2,0h-0.7
		c-0.1,0-0.1,0-0.1,0s0-0.1,0-0.1v-5c0-0.1,0-0.1,0-0.1c0,0,0.1,0,0.1,0h0.8c0.1,0,0.1,0,0.1,0.1V27.8z"/>
	<path fill="#CCCCCC" d="M230,23.5c-0.2-0.1-0.5-0.2-0.8-0.2c-0.3,0-0.6,0.1-0.8,0.2c-0.2,0.1-0.3,0.3-0.3,0.6
		c0,0.1,0.1,0.3,0.2,0.4c0.1,0.1,0.3,0.2,0.6,0.3l1.2,0.3c0.5,0.1,0.8,0.3,1,0.6c0.2,0.2,0.3,0.5,0.3,0.9c0,0.3-0.1,0.6-0.3,0.8
		c-0.2,0.2-0.5,0.4-0.8,0.6c-0.3,0.1-0.7,0.2-1.2,0.2c-0.5,0-1-0.1-1.4-0.3c-0.4-0.2-0.7-0.5-0.9-0.8c0,0,0-0.1,0-0.1
		c0,0,0-0.1,0-0.1l0.5-0.3c0,0,0.1,0,0.1,0c0,0,0.1,0,0.1,0c0.4,0.5,0.9,0.8,1.6,0.8c0.4,0,0.7-0.1,0.9-0.2c0.2-0.1,0.4-0.3,0.4-0.6
		c0-0.2-0.1-0.3-0.2-0.4c-0.1-0.1-0.4-0.2-0.7-0.3l-1-0.3c-0.5-0.1-0.9-0.3-1.1-0.5c-0.2-0.2-0.3-0.5-0.3-0.9c0-0.3,0.1-0.6,0.3-0.8
		c0.2-0.2,0.4-0.4,0.7-0.6c0.3-0.1,0.7-0.2,1.1-0.2c0.5,0,0.9,0.1,1.2,0.3c0.4,0.2,0.6,0.4,0.8,0.7c0,0,0,0.1,0,0.1c0,0,0,0,0,0.1
		l-0.5,0.3c0,0,0,0-0.1,0c0,0-0.1,0-0.1-0.1C230.4,23.8,230.2,23.6,230,23.5z"/>
</g>
<path fill="none" stroke="#CCCCCC" stroke-width="0.9435" stroke-miterlimit="10" d="M121.1,1.5c0,1.7,1.4,3,3,3c1.7,0,3-1.4,3-3"/>
<path fill="none" stroke="#37B34A" stroke-width="0.7583" stroke-miterlimit="10" d="M129.5,6.9"/>
<path fill="none" stroke="#CCCCCC" stroke-width="0.9435" stroke-miterlimit="10" d="M129.5,1.5c0,1.7,1.4,3,3,3s3-1.4,3-3"/>
<path fill="none" stroke="#37B34A" stroke-width="0.7583" stroke-miterlimit="10" d="M138,6.9"/>
<path fill="none" stroke="#CCCCCC" stroke-width="0.9435" stroke-miterlimit="10" d="M138,1.5c0,1.7,1.4,3,3,3c1.7,0,3-1.4,3-3"/>
<path fill="none" stroke="#CCCCCC" stroke-width="0.9435" stroke-miterlimit="10" d="M121.1,18.7c0-1.7,1.4-3,3-3c1.7,0,3,1.4,3,3"
	/>
<path fill="none" stroke="#CCCCCC" stroke-width="0.9435" stroke-miterlimit="10" d="M129.5,18.7c0-1.7,1.4-3,3-3s3,1.4,3,3"/>
<path fill="none" stroke="#CCCCCC" stroke-width="0.9435" stroke-miterlimit="10" d="M138,18.7c0-1.7,1.4-3,3-3c1.7,0,3,1.4,3,3"/>
<circle fill="none" stroke="#CCCCCC" stroke-width="0.9435" stroke-miterlimit="10" cx="124.1" cy="10.2" r="3"/>
<circle fill="none" stroke="#CCCCCC" stroke-width="0.9435" stroke-miterlimit="10" cx="132.5" cy="10.2" r="3"/>
<circle fill="#CCCCCC" stroke="#CCCCCC" stroke-width="0.9435" stroke-miterlimit="10" cx="141" cy="10.2" r="3"/>
<path fill="none" stroke="#979797" stroke-width="1.0437" stroke-miterlimit="10" d="M144.4,20.6"/>
<path fill="none" stroke="#979797" stroke-width="1.0437" stroke-miterlimit="10" d="M144.5,20.6"/>
<g>
</g>
<g>
</g>
<g>
</g>
<g>
</g>
<g>
</g>
<g>
</g>
<g>
</g>
<g>
</g>
<g>
</g>
<g>
</g>
<g>
</g>
<g>
</g>
<g>
</g>
<g>
</g>
<g>
</g>
</svg>
