<?xml version="1.0" encoding="UTF-8" standalone="no"?>
<!-- Generator: Adobe Illustrator 17.1.0, SVG Export Plug-In . SVG Version: 6.00 Build 0)  -->

<svg
   xmlns:dc="http://purl.org/dc/elements/1.1/"
   xmlns:cc="http://creativecommons.org/ns#"
   xmlns:rdf="http://www.w3.org/1999/02/22-rdf-syntax-ns#"
   xmlns:svg="http://www.w3.org/2000/svg"
   xmlns="http://www.w3.org/2000/svg"
   xmlns:sodipodi="http://sodipodi.sourceforge.net/DTD/sodipodi-0.dtd"
   xmlns:inkscape="http://www.inkscape.org/namespaces/inkscape"
   version="1.1"
   id="Layer_1"
   x="0px"
   y="0px"
   width="95.172562"
   height="19.533894"
   viewBox="0 0 95.172562 19.533894"
   enable-background="new 0 0 240 40"
   xml:space="preserve"
   sodipodi:docname="rp-icon-protein-dynamics-menu.svg"
   inkscape:version="0.92.3 (2405546, 2018-03-11)"><metadata
   id="metadata350"><rdf:RDF><cc:Work
       rdf:about=""><dc:format>image/svg+xml</dc:format><dc:type
         rdf:resource="http://purl.org/dc/dcmitype/StillImage" /><dc:title></dc:title></cc:Work></rdf:RDF></metadata><defs
   id="defs348" /><sodipodi:namedview
   pagecolor="#ffffff"
   bordercolor="#666666"
   borderopacity="1"
   objecttolerance="10"
   gridtolerance="10"
   guidetolerance="10"
   inkscape:pageopacity="0"
   inkscape:pageshadow="2"
   inkscape:window-width="1344"
   inkscape:window-height="603"
   id="namedview346"
   showgrid="false"
   fit-margin-top="0"
   fit-margin-left="0"
   fit-margin-right="0"
   fit-margin-bottom="0"
   inkscape:zoom="4.0305086"
   inkscape:cx="102.61404"
   inkscape:cy="-21.412515"
   inkscape:window-x="3213"
   inkscape:window-y="632"
   inkscape:window-maximized="0"
   inkscape:current-layer="Layer_1" />
































<g
   id="g3302"
   transform="translate(-0.96025427,-2.6705564)"><path
     id="path179"
     d="M 13.241828,19.988323"
     stroke-miterlimit="10"
     inkscape:connector-curvature="0"
     style="fill:none;stroke:#42bdae;stroke-width:0.98938167;stroke-miterlimit:10" /><polyline
     id="polyline181"
     points="1.1495405,13.094594   4.7058163,13.094594 7.2280388,17.4632168 4.7058163,21.8318577 1.1495405,21.8318577 "
     stroke-miterlimit="10"
     style="fill:none;stroke:#ff9d3b;stroke-width:0.74518532;stroke-miterlimit:10" /><polyline
     id="polyline183"
     points="12.5072298,7.8368979   8.9509535,7.8368979 6.4287314,12.2055216 8.9509535,16.5741615 12.5072298,16.5741615 "
     stroke-miterlimit="10"
     style="fill:none;stroke:#ff9d3b;stroke-width:0.74518532;stroke-miterlimit:10" /><g
     id="g205">
	<g
   id="g203">
		
			<line
   id="line185"
   y2="3.1706064"
   x2="1.4673755"
   y1="3.1706064"
   x1="1.4673755"
   stroke-miterlimit="10"
   style="fill:none;stroke:#ff9d3b;stroke-linecap:round;stroke-miterlimit:10" />
		
			<line
   id="line187"
   y2="3.1706064"
   x2="3.9951184"
   y1="3.1706064"
   x1="3.1525376"
   stroke-miterlimit="10"
   style="fill:none;stroke:#ff9d3b;stroke-linecap:round;stroke-miterlimit:10;stroke-dasharray:0, 1.6851619" />
		
			<line
   id="line189"
   y2="3.1706064"
   x2="4.8376994"
   y1="3.1706064"
   x1="4.8376994"
   stroke-miterlimit="10"
   style="fill:none;stroke:#ff9d3b;stroke-linecap:round;stroke-miterlimit:10" />
		
			<line
   id="line191"
   y2="6.620769"
   x2="6.829649"
   y1="4.5506716"
   x1="5.6344795"
   stroke-miterlimit="10"
   style="fill:none;stroke:#ff9d3b;stroke-linecap:round;stroke-miterlimit:10;stroke-dasharray:0, 1.5935614" />
		
			<line
   id="line193"
   y2="7.3108015"
   x2="7.2280388"
   y1="7.3108015"
   x1="7.2280388"
   stroke-miterlimit="10"
   style="fill:none;stroke:#ff9d3b;stroke-linecap:round;stroke-miterlimit:10" />
		
			<line
   id="line195"
   y2="10.760978"
   x2="5.2360892"
   y1="8.6908722"
   x1="6.4312592"
   stroke-miterlimit="10"
   style="fill:none;stroke:#ff9d3b;stroke-linecap:round;stroke-miterlimit:10;stroke-dasharray:0, 1.5935658" />
		
			<line
   id="line197"
   y2="11.451013"
   x2="4.8376994"
   y1="11.451013"
   x1="4.8376994"
   stroke-miterlimit="10"
   style="fill:none;stroke:#ff9d3b;stroke-linecap:round;stroke-miterlimit:10" />
		
			<line
   id="line199"
   y2="11.451013"
   x2="2.3099566"
   y1="11.451013"
   x1="3.1525376"
   stroke-miterlimit="10"
   style="fill:none;stroke:#ff9d3b;stroke-linecap:round;stroke-miterlimit:10;stroke-dasharray:0, 1.6851619" />
		
			<line
   id="line201"
   y2="11.451013"
   x2="1.4673755"
   y1="11.451013"
   x1="1.4673755"
   stroke-miterlimit="10"
   style="fill:none;stroke:#ff9d3b;stroke-linecap:round;stroke-miterlimit:10" />
	</g>
</g><path
     id="path207"
     d="M 2.7575917,12.770997"
     stroke-miterlimit="10"
     inkscape:connector-curvature="0"
     style="fill:none;stroke:#000000;stroke-width:0.50046808;stroke-miterlimit:10" /><g
     id="g239">
	<path
   id="path209"
   d="m 15.107422,8.2583008 h 2.739258 c 0.498535,0 0.909179,0.068359 1.231933,0.203125 0.322266,0.1367188 0.577149,0.3085938 0.76416,0.5175781 0.187012,0.2089843 0.317383,0.4433594 0.390625,0.7041016 0.07324,0.2597656 0.109864,0.5117185 0.109864,0.7529295 0,0.242188 -0.03662,0.493164 -0.109864,0.753906 -0.07324,0.260742 -0.203613,0.495118 -0.390625,0.704102 -0.187011,0.208984 -0.441894,0.380859 -0.76416,0.516602 -0.322754,0.135742 -0.733398,0.204101 -1.231933,0.204101 h -1.683106 v 3.431641 h -1.056152 z m 1.056152,3.4316402 h 1.385742 c 0.205567,0 0.408692,-0.01563 0.61084,-0.04883 0.201172,-0.0332 0.38086,-0.09375 0.538574,-0.18164 0.157715,-0.08789 0.28418,-0.214844 0.379883,-0.379883 0.09521,-0.165039 0.143067,-0.378906 0.143067,-0.643555 0,-0.263672 -0.04785,-0.4785154 -0.143067,-0.6435545 C 18.98291,9.6274414 18.856445,9.5014649 18.69873,9.4135743 18.541016,9.3256837 18.361328,9.2651368 18.160156,9.2319337 17.958008,9.1987306 17.754883,9.182129 17.549316,9.182129 h -1.385742 z"
   inkscape:connector-curvature="0"
   style="fill:#777777" />
	<path
   id="path211"
   d="m 21.102539,10.83252 h 0.989746 v 0.802734 h 0.02197 c 0.06641,-0.138672 0.154297,-0.265625 0.26416,-0.378906 0.109863,-0.114258 0.23291,-0.210938 0.368652,-0.291992 0.135743,-0.08106 0.28418,-0.144532 0.445313,-0.192383 0.161133,-0.04785 0.322754,-0.07129 0.483887,-0.07129 0.161621,0 0.308105,0.02148 0.440429,0.06543 l -0.04443,1.067383 c -0.08057,-0.02246 -0.161133,-0.04004 -0.2417,-0.05469 -0.08105,-0.01465 -0.161621,-0.02246 -0.242187,-0.02246 -0.483887,0 -0.854492,0.135742 -1.11084,0.407226 -0.256836,0.271485 -0.385254,0.692383 -0.385254,1.264649 v 2.618164 h -0.989746 z"
   inkscape:connector-curvature="0"
   style="fill:#777777" />
	<path
   id="path213"
   d="m 24.446777,13.438965 c 0,-0.38086 0.07129,-0.736328 0.214356,-1.066406 0.143066,-0.330078 0.339355,-0.620118 0.588379,-0.869141 0.249511,-0.249023 0.542968,-0.445312 0.880371,-0.588867 0.336914,-0.142578 0.700195,-0.213867 1.088867,-0.213867 0.388672,0 0.751465,0.07129 1.088867,0.213867 0.337402,0.143555 0.63086,0.339844 0.879883,0.588867 0.249512,0.249023 0.445801,0.539063 0.588867,0.869141 0.142578,0.330078 0.214356,0.685547 0.214356,1.066406 0,0.381836 -0.07178,0.739258 -0.214356,1.073242 -0.143066,0.333008 -0.339355,0.623047 -0.588867,0.869141 -0.249023,0.245117 -0.542481,0.439453 -0.879883,0.583007 -0.337402,0.142578 -0.700195,0.213868 -1.088867,0.213868 -0.388672,0 -0.751953,-0.07129 -1.088867,-0.213868 -0.337403,-0.143554 -0.63086,-0.33789 -0.880371,-0.583007 -0.249024,-0.246094 -0.445313,-0.536133 -0.588379,-0.869141 -0.143067,-0.333984 -0.214356,-0.691406 -0.214356,-1.073242 z m 1.055664,0 c 0,0.264648 0.04053,0.508789 0.121094,0.731445 0.08057,0.22461 0.194336,0.415039 0.341309,0.572266 0.146484,0.158203 0.326172,0.282226 0.538574,0.374023 0.212891,0.0918 0.451172,0.137695 0.715332,0.137695 0.263672,0 0.501953,-0.0459 0.714844,-0.137695 0.21289,-0.0918 0.39209,-0.21582 0.539062,-0.374023 0.146485,-0.157227 0.260254,-0.347656 0.340821,-0.572266 0.08057,-0.222656 0.121093,-0.466797 0.121093,-0.731445 0,-0.263672 -0.04053,-0.506836 -0.121093,-0.731445 -0.08057,-0.223633 -0.194336,-0.414063 -0.340821,-0.57129 -0.146972,-0.158203 -0.326172,-0.282226 -0.539062,-0.374023 -0.212891,-0.0918 -0.451172,-0.137695 -0.714844,-0.137695 -0.26416,0 -0.502441,0.0459 -0.715332,0.137695 -0.212402,0.0918 -0.39209,0.21582 -0.538574,0.374023 -0.146973,0.157227 -0.260742,0.347657 -0.341309,0.57129 -0.08057,0.224609 -0.121094,0.467773 -0.121094,0.731445 z"
   inkscape:connector-curvature="0"
   style="fill:#777777" />
	<path
   id="path215"
   d="m 33.752441,11.689941 h -1.418945 v 2.365235 c 0,0.147461 0.0034,0.291992 0.01074,0.43457 0.0073,0.143555 0.03516,0.271485 0.08252,0.384766 0.04785,0.114258 0.121094,0.206054 0.220215,0.27539 0.09912,0.06934 0.243652,0.104493 0.43457,0.104493 0.117187,0 0.238281,-0.01074 0.362793,-0.0332 0.124512,-0.02148 0.238281,-0.0625 0.341309,-0.121093 v 0.902343 c -0.117676,0.06641 -0.269532,0.111328 -0.456544,0.137696 -0.187011,0.02539 -0.332031,0.03809 -0.43457,0.03809 -0.381347,0 -0.676758,-0.05273 -0.885742,-0.15918 -0.208984,-0.106445 -0.362793,-0.244141 -0.461914,-0.413086 -0.09912,-0.167969 -0.157715,-0.357422 -0.175781,-0.566406 -0.01855,-0.208985 -0.02783,-0.418946 -0.02783,-0.631836 V 11.689941 H 30.199219 V 10.83252 h 1.144043 V 9.3696289 h 0.990234 V 10.83252 h 1.418945 z"
   inkscape:connector-curvature="0"
   style="fill:#777777" />
	<path
   id="path217"
   d="m 35.501465,13.802246 c 0,0.227539 0.04932,0.43457 0.148437,0.62207 0.09912,0.186524 0.229004,0.345704 0.390625,0.478516 0.161133,0.131836 0.348145,0.234375 0.561035,0.307617 0.212403,0.07324 0.432618,0.110352 0.659669,0.110352 0.308105,0 0.575683,-0.07227 0.803222,-0.214844 0.227051,-0.143555 0.436035,-0.332031 0.626953,-0.566406 l 0.748047,0.572265 c -0.550293,0.710938 -1.320312,1.066407 -2.310058,1.066407 -0.410645,0 -0.782715,-0.06934 -1.1167,-0.208985 -0.333496,-0.138672 -0.615722,-0.332031 -0.846679,-0.577148 -0.230957,-0.246094 -0.40918,-0.535156 -0.533692,-0.869141 -0.124511,-0.333984 -0.187011,-0.694336 -0.187011,-1.083984 0,-0.388672 0.06787,-0.749024 0.203613,-1.083008 0.135742,-0.333984 0.322754,-0.623047 0.561035,-0.869141 0.238281,-0.245117 0.522461,-0.438476 0.852539,-0.577148 0.330078,-0.139648 0.688965,-0.208984 1.077637,-0.208984 0.462402,0 0.852539,0.08008 1.171875,0.242187 0.318848,0.161133 0.581055,0.37207 0.786133,0.631836 0.205566,0.260742 0.354004,0.553711 0.4458,0.879883 0.09131,0.327148 0.137207,0.658203 0.137207,0.996094 v 0.351562 z m 3.124023,-0.791992 c -0.0073,-0.219727 -0.04248,-0.421875 -0.104492,-0.604492 -0.0625,-0.183594 -0.15625,-0.342774 -0.280762,-0.478516 -0.124511,-0.135742 -0.280273,-0.242187 -0.467285,-0.319336 -0.187012,-0.07715 -0.405273,-0.115234 -0.654785,-0.115234 -0.241699,0 -0.463867,0.0459 -0.665527,0.137695 -0.201661,0.09082 -0.372071,0.209961 -0.511231,0.357422 -0.139648,0.146484 -0.247558,0.30957 -0.324707,0.489258 -0.07666,0.179687 -0.115234,0.357422 -0.115234,0.533203 z"
   inkscape:connector-curvature="0"
   style="fill:#777777" />
	<path
   id="path219"
   d="m 40.440918,8.9624023 c 0,-0.1982422 0.07129,-0.3681641 0.214356,-0.5117188 0.143066,-0.1425781 0.313476,-0.2138672 0.51123,-0.2138672 0.198242,0 0.368652,0.071289 0.511719,0.2138672 0.143066,0.1435547 0.214355,0.3134766 0.214355,0.5117188 0,0.1982422 -0.07129,0.3681641 -0.214355,0.5117188 -0.143067,0.1425781 -0.313477,0.2138672 -0.511719,0.2138672 -0.197754,0 -0.368164,-0.071289 -0.51123,-0.2138672 C 40.512207,9.3305664 40.440918,9.1606445 40.440918,8.9624023 Z m 0.230957,1.8701177 h 0.989746 v 5.213867 h -0.989746 z"
   inkscape:connector-curvature="0"
   style="fill:#777777" />
	<path
   id="path221"
   d="m 42.959961,10.83252 h 0.989746 v 0.802734 h 0.02197 c 0.125,-0.27832 0.341308,-0.503906 0.649414,-0.676758 0.307617,-0.171875 0.663574,-0.257812 1.066894,-0.257812 0.249024,0 0.489258,0.03809 0.720215,0.115234 0.231445,0.07715 0.432617,0.196289 0.604981,0.357422 0.172363,0.161133 0.310058,0.368164 0.412597,0.621094 0.102539,0.253906 0.154297,0.552734 0.154297,0.896484 v 3.355469 h -0.990234 v -3.080078 c 0,-0.242188 -0.03271,-0.449219 -0.09912,-0.621094 -0.06592,-0.172852 -0.153809,-0.311523 -0.263672,-0.417969 -0.110352,-0.106445 -0.236817,-0.183594 -0.379395,-0.231445 -0.143066,-0.04785 -0.291504,-0.07129 -0.4458,-0.07129 -0.205567,0 -0.395997,0.0332 -0.571778,0.09863 -0.176269,0.06641 -0.330078,0.170898 -0.462402,0.313476 -0.131836,0.143555 -0.234375,0.325195 -0.307617,0.544922 -0.07373,0.219727 -0.110352,0.480469 -0.110352,0.78125 v 2.683594 h -0.989746 z"
   inkscape:connector-curvature="0"
   style="fill:#777777" />
	<path
   id="path223"
   d="m 51.661133,8.2583008 h 2.716797 c 0.549804,0 1.032226,0.0625 1.446289,0.1875 0.414551,0.1240234 0.773926,0.2910156 1.078125,0.5 0.304199,0.2089844 0.557129,0.4492188 0.759277,0.7207031 0.20166,0.2714844 0.36084,0.5498051 0.478516,0.8359371 0.117187,0.286133 0.201172,0.572266 0.252929,0.858399 0.05127,0.285156 0.07666,0.549805 0.07666,0.791992 0,0.498047 -0.0918,0.980469 -0.274903,1.446289 -0.183105,0.46582 -0.45459,0.879883 -0.813965,1.243164 -0.359375,0.362305 -0.804687,0.654297 -1.336425,0.874024 -0.531739,0.219726 -1.145996,0.330078 -1.842286,0.330078 h -2.541014 z m 1.055664,6.7978512 h 1.331055 c 0.447265,0 0.870605,-0.06055 1.270507,-0.18164 0.399903,-0.121094 0.75,-0.301758 1.050782,-0.543946 0.300293,-0.242187 0.538574,-0.544921 0.714843,-0.907226 0.175782,-0.363281 0.264161,-0.78711 0.264161,-1.270508 0,-0.25 -0.04053,-0.541016 -0.121094,-0.875 -0.08106,-0.333984 -0.23291,-0.650391 -0.456543,-0.951172 C 56.546875,10.025879 56.236816,9.770996 55.84082,9.5620117 55.444824,9.3530274 54.931641,9.2485351 54.300781,9.2485351 h -1.583984 z"
   inkscape:connector-curvature="0"
   style="fill:#777777" />
	<path
   id="path225"
   d="m 58.84375,10.83252 h 1.144043 l 1.543945,4.070312 h 0.02246 l 1.480957,-4.070312 h 1.055664 l -2.475097,6.335937 c -0.0874,0.227539 -0.178711,0.43457 -0.273926,0.621094 -0.09473,0.1875 -0.208008,0.346679 -0.339356,0.478515 -0.131347,0.131836 -0.290039,0.235352 -0.476562,0.308594 -0.186524,0.07324 -0.414551,0.109375 -0.684571,0.109375 -0.145996,0 -0.293945,-0.0088 -0.443847,-0.02734 -0.149414,-0.01855 -0.293946,-0.05664 -0.432617,-0.115234 l 0.120605,-0.902344 c 0.196289,0.08105 0.393066,0.121094 0.589844,0.121094 0.15332,0 0.282226,-0.02051 0.388183,-0.06055 0.105469,-0.04004 0.19629,-0.09863 0.27295,-0.175781 0.07666,-0.07715 0.140625,-0.166992 0.191406,-0.269531 0.05078,-0.102539 0.102051,-0.219727 0.15332,-0.351563 l 0.320313,-0.825195 z"
   inkscape:connector-curvature="0"
   style="fill:#777777" />
	<path
   id="path227"
   d="m 64.685059,10.83252 h 0.989746 v 0.802734 h 0.02197 c 0.125,-0.27832 0.341309,-0.503906 0.649415,-0.676758 0.307617,-0.171875 0.663574,-0.257812 1.066894,-0.257812 0.249023,0 0.489258,0.03809 0.720215,0.115234 0.231445,0.07715 0.432617,0.196289 0.60498,0.357422 0.172364,0.161133 0.310059,0.368164 0.412598,0.621094 0.102539,0.253906 0.154297,0.552734 0.154297,0.896484 v 3.355469 H 68.31494 v -3.080078 c 0,-0.242188 -0.03271,-0.449219 -0.09912,-0.621094 -0.06592,-0.172852 -0.153808,-0.311523 -0.263671,-0.417969 -0.110352,-0.106445 -0.236817,-0.183594 -0.379395,-0.231445 -0.143066,-0.04785 -0.291504,-0.07129 -0.445801,-0.07129 -0.205566,0 -0.395996,0.0332 -0.571777,0.09863 -0.17627,0.06641 -0.330078,0.170898 -0.462402,0.313476 -0.131836,0.143555 -0.234375,0.325196 -0.307618,0.544922 -0.07373,0.219727 -0.110351,0.480469 -0.110351,0.78125 v 2.683594 h -0.989746 z"
   inkscape:connector-curvature="0"
   style="fill:#777777" />
	<path
   id="path229"
   d="m 70.54834,11.470215 c 0.278808,-0.256836 0.601074,-0.449219 0.967773,-0.577149 0.366699,-0.127929 0.733399,-0.192382 1.100098,-0.192382 0.381348,0 0.709473,0.04785 0.984375,0.142578 0.27539,0.0957 0.500976,0.223633 0.676758,0.384765 0.175781,0.16211 0.306152,0.34668 0.390625,0.555664 0.08398,0.208985 0.126464,0.427735 0.126464,0.654297 v 2.66211 c 0,0.183594 0.0034,0.352539 0.01074,0.505859 0.0073,0.154297 0.01855,0.300781 0.0332,0.44043 H 73.95849 c -0.02197,-0.263672 -0.0332,-0.52832 -0.0332,-0.791992 h -0.02197 c -0.220215,0.336914 -0.480469,0.576172 -0.780762,0.714843 -0.300781,0.139649 -0.649414,0.208985 -1.04541,0.208985 -0.241699,0 -0.472656,-0.0332 -0.692871,-0.09863 -0.219726,-0.06641 -0.412598,-0.165039 -0.577637,-0.296875 -0.165039,-0.132812 -0.294921,-0.295898 -0.390136,-0.490234 -0.0957,-0.19336 -0.143067,-0.418946 -0.143067,-0.675782 0,-0.33789 0.0752,-0.620117 0.225586,-0.847656 0.149903,-0.226562 0.355469,-0.412109 0.615723,-0.554687 0.260254,-0.143555 0.564453,-0.246094 0.913086,-0.308594 0.348144,-0.0625 0.720703,-0.09375 1.116699,-0.09375 h 0.725586 v -0.219727 c 0,-0.131836 -0.02539,-0.263672 -0.07666,-0.395507 -0.05176,-0.132813 -0.128418,-0.251954 -0.230957,-0.357422 -0.103028,-0.106446 -0.230957,-0.191407 -0.385254,-0.253907 -0.153809,-0.06152 -0.337402,-0.09277 -0.549805,-0.09277 -0.190918,0 -0.357422,0.01856 -0.500488,0.05469 -0.143067,0.03711 -0.273438,0.08301 -0.390625,0.137696 -0.117188,0.05469 -0.223633,0.11914 -0.318848,0.192383 -0.0957,0.07324 -0.187012,0.142578 -0.27539,0.208984 z m 2.793945,2.068359 c -0.234863,0 -0.475098,0.0127 -0.720703,0.03809 -0.245605,0.02637 -0.469238,0.07519 -0.670898,0.148438 -0.20166,0.07324 -0.366699,0.176757 -0.494629,0.308593 -0.128418,0.131836 -0.192871,0.300782 -0.192871,0.50586 0,0.300781 0.101074,0.516601 0.302734,0.648437 0.20166,0.132813 0.47461,0.198243 0.819336,0.198243 0.271484,0 0.502441,-0.0459 0.692871,-0.137696 0.190918,-0.09082 0.344727,-0.209961 0.462402,-0.357422 0.117188,-0.146484 0.201172,-0.30957 0.25293,-0.489258 0.05127,-0.179687 0.07666,-0.357421 0.07666,-0.533203 v -0.330078 h -0.527832 z"
   inkscape:connector-curvature="0"
   style="fill:#777777" />
	<path
   id="path231"
   d="m 75.960449,10.83252 h 0.923828 v 0.813476 h 0.02197 c 0.02197,-0.07324 0.0791,-0.165039 0.17041,-0.274414 0.0918,-0.110352 0.209473,-0.214844 0.352051,-0.313477 0.143066,-0.09961 0.312012,-0.183593 0.506348,-0.252929 0.193847,-0.07031 0.408691,-0.104492 0.643554,-0.104492 0.388184,0 0.714844,0.08008 0.979004,0.242187 0.263672,0.161133 0.479981,0.40332 0.648926,0.725586 0.168457,-0.322266 0.406738,-0.564453 0.714844,-0.725586 0.308105,-0.162109 0.619629,-0.242187 0.935059,-0.242187 0.40332,0 0.733398,0.06543 0.989257,0.197265 0.257813,0.132813 0.458985,0.306641 0.605469,0.522461 0.146485,0.216797 0.248047,0.462891 0.302735,0.737305 0.05469,0.27539 0.08203,0.55957 0.08203,0.852539 v 3.036133 H 82.845703 V 13.14209 c 0,-0.197266 -0.01172,-0.388672 -0.03711,-0.571289 -0.02637,-0.183594 -0.08008,-0.344727 -0.160156,-0.484375 -0.08105,-0.139649 -0.194336,-0.250977 -0.340821,-0.335938 -0.146972,-0.08398 -0.341308,-0.125976 -0.583007,-0.125976 -0.477051,0 -0.817872,0.146484 -1.023438,0.439453 -0.205078,0.293945 -0.307617,0.671875 -0.307617,1.133789 v 2.848632 H 79.40332 v -2.727539 c 0,-0.25 -0.01269,-0.477539 -0.03857,-0.682617 -0.02539,-0.205078 -0.07666,-0.382812 -0.153808,-0.533203 -0.07715,-0.15039 -0.187012,-0.267578 -0.330078,-0.352539 -0.143067,-0.08398 -0.33545,-0.125977 -0.577637,-0.125977 -0.175781,0 -0.346192,0.03516 -0.511231,0.104493 -0.165039,0.06934 -0.310058,0.173828 -0.43457,0.313476 -0.125,0.139649 -0.223633,0.317383 -0.296875,0.533203 -0.07373,0.216797 -0.110352,0.47168 -0.110352,0.764649 v 2.706054 h -0.98975 z"
   inkscape:connector-curvature="0"
   style="fill:#777777" />
	<path
   id="path233"
   d="m 84.902344,8.9624023 c 0,-0.1982422 0.07129,-0.3681641 0.214844,-0.5117188 0.142578,-0.1425781 0.313476,-0.2138672 0.511718,-0.2138672 0.197266,0 0.368164,0.071289 0.510743,0.2138672 0.143554,0.1435547 0.214843,0.3134766 0.214843,0.5117188 0,0.1982422 -0.07129,0.3681641 -0.214843,0.5117188 -0.142579,0.1425781 -0.313477,0.2138672 -0.510743,0.2138672 -0.198242,0 -0.36914,-0.071289 -0.511718,-0.2138672 C 84.973633,9.3305664 84.902344,9.1606445 84.902344,8.9624023 Z m 0.231445,1.8701177 h 0.990235 v 5.213867 h -0.990235 z"
   inkscape:connector-curvature="0"
   style="fill:#777777" />
	<path
   id="path235"
   d="m 91.150391,12.218262 c -0.182618,-0.19043 -0.375,-0.334961 -0.577149,-0.434571 -0.202148,-0.09863 -0.441406,-0.148437 -0.720703,-0.148437 -0.271484,0 -0.507812,0.04981 -0.708984,0.148437 -0.202149,0.09961 -0.371094,0.235352 -0.50586,0.407227 -0.135742,0.171875 -0.238281,0.370117 -0.308594,0.59375 -0.06933,0.223633 -0.104492,0.457031 -0.104492,0.698242 0,0.242188 0.04004,0.47168 0.121094,0.6875 0.08106,0.216797 0.194336,0.405274 0.34082,0.567383 0.146485,0.161133 0.323243,0.287109 0.528321,0.378906 0.205078,0.0918 0.436523,0.137695 0.693359,0.137695 0.27832,0 0.516602,-0.0498 0.714844,-0.148437 0.198242,-0.09863 0.380859,-0.244141 0.549805,-0.43457 l 0.704101,0.704101 c -0.256836,0.286133 -0.555664,0.491211 -0.896484,0.616211 -0.340821,0.124024 -0.702149,0.186524 -1.083985,0.186524 -0.40332,0 -0.771484,-0.06543 -1.105468,-0.198243 -0.333008,-0.131836 -0.621094,-0.316406 -0.863282,-0.554687 -0.242187,-0.238281 -0.428711,-0.524414 -0.560547,-0.858399 -0.132812,-0.333984 -0.198242,-0.702148 -0.198242,-1.105468 0,-0.403321 0.06543,-0.773438 0.198242,-1.111328 0.131836,-0.336915 0.316407,-0.626954 0.554688,-0.869141 0.238281,-0.241211 0.524414,-0.430664 0.858398,-0.566406 0.333985,-0.135742 0.706055,-0.203125 1.116211,-0.203125 0.381836,0 0.746094,0.06738 1.094727,0.203125 0.348633,0.135742 0.65039,0.342773 0.907226,0.62207 z"
   inkscape:connector-curvature="0"
   style="fill:#777777" />
	<path
   id="path237"
   d="m 95.219727,12.141113 c -0.117188,-0.146484 -0.261719,-0.269531 -0.433594,-0.368164 -0.172852,-0.09863 -0.383789,-0.148437 -0.632813,-0.148437 -0.235351,0 -0.438476,0.0498 -0.610351,0.148437 -0.172852,0.09863 -0.258789,0.244141 -0.258789,0.434571 0,0.154296 0.0498,0.27832 0.148437,0.374023 0.09863,0.0957 0.21582,0.171875 0.352539,0.230469 0.134766,0.05957 0.280274,0.103515 0.433594,0.132812 0.154297,0.0293 0.286133,0.05469 0.396484,0.07617 0.212891,0.05176 0.41211,0.114258 0.59961,0.1875 0.186523,0.07324 0.347656,0.168945 0.483398,0.286133 0.135742,0.117187 0.242188,0.259766 0.319336,0.428711 0.07715,0.168945 0.115235,0.374023 0.115235,0.616211 0,0.292969 -0.06152,0.543945 -0.186524,0.752929 -0.125,0.208985 -0.286133,0.379883 -0.484375,0.511719 -0.197265,0.131836 -0.422851,0.227539 -0.675781,0.286133 -0.253906,0.05859 -0.508789,0.08789 -0.764648,0.08789 -0.432618,0 -0.8125,-0.06543 -1.138672,-0.198243 -0.326172,-0.131835 -0.618164,-0.374023 -0.875,-0.725585 l 0.748047,-0.616211 c 0.161132,0.161132 0.341796,0.304687 0.539062,0.429687 0.198242,0.124024 0.44043,0.186524 0.726563,0.186524 0.124023,0 0.250976,-0.0127 0.378906,-0.03809 0.128906,-0.02637 0.242187,-0.06641 0.34082,-0.121094 0.09961,-0.05566 0.179688,-0.125 0.242188,-0.208985 0.0625,-0.08496 0.09375,-0.18164 0.09375,-0.291992 0,-0.146484 -0.0459,-0.267578 -0.137696,-0.363281 -0.0918,-0.09473 -0.201172,-0.169922 -0.330078,-0.224609 -0.12793,-0.05566 -0.263672,-0.09961 -0.40625,-0.132813 -0.143555,-0.03223 -0.269531,-0.06055 -0.379883,-0.08203 -0.21289,-0.05176 -0.414062,-0.110352 -0.605468,-0.175781 -0.19043,-0.06641 -0.359375,-0.154297 -0.50586,-0.264649 -0.146484,-0.109375 -0.263672,-0.249023 -0.351562,-0.417968 -0.08789,-0.167969 -0.131836,-0.376954 -0.131836,-0.626954 0,-0.270507 0.05664,-0.507812 0.169922,-0.708984 0.114257,-0.202148 0.264648,-0.369141 0.451172,-0.500977 0.1875,-0.131835 0.399414,-0.230468 0.637695,-0.296875 0.238281,-0.06641 0.478515,-0.09863 0.720703,-0.09863 0.352539,0 0.689453,0.06543 1.011719,0.197265 0.323242,0.132813 0.580078,0.352539 0.770508,0.660156 z"
   inkscape:connector-curvature="0"
   style="fill:#777777" />
</g><circle
     id="circle241"
     r="1.1422229"
     cy="12.112974"
     cx="10.901957"
     style="fill:#ff9d3b" /><path
     id="path243"
     d="M 2.2592747,14.154531"
     stroke-miterlimit="10"
     inkscape:connector-curvature="0"
     style="fill:none;stroke:#000000;stroke-width:0.57337219;stroke-miterlimit:10" /><g
     id="g315">
</g><g
     id="g317">
</g><g
     id="g319">
</g><g
     id="g321">
</g><g
     id="g323">
</g><g
     id="g325">
</g><g
     id="g327">
</g><g
     id="g329">
</g><g
     id="g331">
</g><g
     id="g333">
</g><g
     id="g335">
</g><g
     id="g337">
</g><g
     id="g339">
</g><g
     id="g341">
</g><g
     id="g343">
</g></g>
</svg>