<?xml version="1.0" encoding="UTF-8" standalone="no"?>
<!-- Generator: Adobe Illustrator 17.1.0, SVG Export Plug-In . SVG Version: 6.00 Build 0)  -->

<svg
   xmlns:dc="http://purl.org/dc/elements/1.1/"
   xmlns:cc="http://creativecommons.org/ns#"
   xmlns:rdf="http://www.w3.org/1999/02/22-rdf-syntax-ns#"
   xmlns:svg="http://www.w3.org/2000/svg"
   xmlns="http://www.w3.org/2000/svg"
   xmlns:sodipodi="http://sodipodi.sourceforge.net/DTD/sodipodi-0.dtd"
   xmlns:inkscape="http://www.inkscape.org/namespaces/inkscape"
   version="1.1"
   id="Layer_1"
   x="0px"
   y="0px"
   width="80.376663"
   height="19.533894"
   viewBox="0 0 80.376663 19.533894"
   enable-background="new 0 0 240 40"
   xml:space="preserve"
   sodipodi:docname="rp-icon-metabolomics-menu.svg"
   inkscape:version="0.92.3 (2405546, 2018-03-11)"><metadata
   id="metadata511"><rdf:RDF><cc:Work
       rdf:about=""><dc:format>image/svg+xml</dc:format><dc:type
         rdf:resource="http://purl.org/dc/dcmitype/StillImage" /><dc:title></dc:title></cc:Work></rdf:RDF></metadata><defs
   id="defs509" /><sodipodi:namedview
   pagecolor="#ffffff"
   bordercolor="#666666"
   borderopacity="1"
   objecttolerance="10"
   gridtolerance="10"
   guidetolerance="10"
   inkscape:pageopacity="0"
   inkscape:pageshadow="2"
   inkscape:window-width="1362"
   inkscape:window-height="578"
   id="namedview507"
   showgrid="false"
   fit-margin-top="0"
   fit-margin-left="0"
   fit-margin-right="0"
   fit-margin-bottom="0"
   inkscape:zoom="4.0305086"
   inkscape:cx="123.88733"
   inkscape:cy="-9.5335118"
   inkscape:window-x="3212"
   inkscape:window-y="628"
   inkscape:window-maximized="0"
   inkscape:current-layer="Layer_1" />
































<g
   id="g3368"
   transform="translate(-0.96025427,-2.6705564)"><path
     id="path352"
     d="M 13.241828,19.988323"
     stroke-miterlimit="10"
     inkscape:connector-curvature="0"
     style="fill:none;stroke:#42bdae;stroke-width:0.98938167;stroke-miterlimit:10" /><polyline
     id="polyline354"
     points="1.1495405,13.094594   4.7058163,13.094594 7.2280388,17.4632168 4.7058163,21.8318577 1.1495405,21.8318577 "
     stroke-miterlimit="10"
     style="fill:none;stroke:#ff0303;stroke-width:0.74518532;stroke-miterlimit:10" /><polyline
     id="polyline356"
     points="12.5072298,7.8368979   8.9509535,7.8368979 6.4287314,12.2055216 8.9509535,16.5741615 12.5072298,16.5741615 "
     stroke-miterlimit="10"
     style="fill:none;stroke:#ff0303;stroke-width:0.74518532;stroke-miterlimit:10" /><g
     id="g378">
	<g
   id="g376">
		
			<line
   id="line358"
   y2="3.1706064"
   x2="1.4673755"
   y1="3.1706064"
   x1="1.4673755"
   stroke-miterlimit="10"
   style="fill:none;stroke:#ff0303;stroke-linecap:round;stroke-miterlimit:10" />
		
			<line
   id="line360"
   y2="3.1706064"
   x2="3.9951184"
   y1="3.1706064"
   x1="3.1525376"
   stroke-miterlimit="10"
   style="fill:none;stroke:#ff0303;stroke-linecap:round;stroke-miterlimit:10;stroke-dasharray:0, 1.6851619" />
		
			<line
   id="line362"
   y2="3.1706064"
   x2="4.8376994"
   y1="3.1706064"
   x1="4.8376994"
   stroke-miterlimit="10"
   style="fill:none;stroke:#ff0303;stroke-linecap:round;stroke-miterlimit:10" />
		
			<line
   id="line364"
   y2="6.620769"
   x2="6.829649"
   y1="4.5506716"
   x1="5.6344795"
   stroke-miterlimit="10"
   style="fill:none;stroke:#ff0303;stroke-linecap:round;stroke-miterlimit:10;stroke-dasharray:0, 1.5935614" />
		
			<line
   id="line366"
   y2="7.3108015"
   x2="7.2280388"
   y1="7.3108015"
   x1="7.2280388"
   stroke-miterlimit="10"
   style="fill:none;stroke:#ff0303;stroke-linecap:round;stroke-miterlimit:10" />
		
			<line
   id="line368"
   y2="10.760978"
   x2="5.2360892"
   y1="8.6908722"
   x1="6.4312592"
   stroke-miterlimit="10"
   style="fill:none;stroke:#ff0303;stroke-linecap:round;stroke-miterlimit:10;stroke-dasharray:0, 1.5935658" />
		
			<line
   id="line370"
   y2="11.451013"
   x2="4.8376994"
   y1="11.451013"
   x1="4.8376994"
   stroke-miterlimit="10"
   style="fill:none;stroke:#ff0303;stroke-linecap:round;stroke-miterlimit:10" />
		
			<line
   id="line372"
   y2="11.451013"
   x2="2.3099566"
   y1="11.451013"
   x1="3.1525376"
   stroke-miterlimit="10"
   style="fill:none;stroke:#ff0303;stroke-linecap:round;stroke-miterlimit:10;stroke-dasharray:0, 1.6851619" />
		
			<line
   id="line374"
   y2="11.451013"
   x2="1.4673755"
   y1="11.451013"
   x1="1.4673755"
   stroke-miterlimit="10"
   style="fill:none;stroke:#ff0303;stroke-linecap:round;stroke-miterlimit:10" />
	</g>
</g><path
     id="path380"
     d="M 2.7575917,12.770997"
     stroke-miterlimit="10"
     inkscape:connector-curvature="0"
     style="fill:none;stroke:#000000;stroke-width:0.50046808;stroke-miterlimit:10" /><g
     id="g406">
	<path
   id="path382"
   d="m 15.030273,8.2583008 h 1.573243 l 2.475097,5.8964842 h 0.04395 l 2.453125,-5.8964842 h 1.572753 V 16.046387 H 22.092285 V 9.644043 h -0.02197 l -2.628906,6.402344 H 18.737305 L 16.108398,9.644043 h -0.02197 v 6.402344 h -1.056155 z"
   inkscape:connector-curvature="0"
   style="fill:#777777" />
	<path
   id="path384"
   d="m 25.293457,13.802246 c 0,0.227539 0.04932,0.43457 0.148437,0.62207 0.09912,0.186524 0.229004,0.345704 0.390625,0.478516 0.161133,0.131836 0.348145,0.234375 0.561036,0.307617 0.212402,0.07324 0.432617,0.110352 0.659668,0.110352 0.308105,0 0.575683,-0.07227 0.803222,-0.214844 0.227051,-0.143555 0.436036,-0.332031 0.626953,-0.566406 l 0.748047,0.572265 c -0.550293,0.710938 -1.320312,1.066407 -2.310058,1.066407 -0.410645,0 -0.782715,-0.06934 -1.116699,-0.208985 -0.333497,-0.138672 -0.615723,-0.332031 -0.84668,-0.577148 -0.230957,-0.246094 -0.40918,-0.535156 -0.533692,-0.869141 -0.124511,-0.333984 -0.187011,-0.694336 -0.187011,-1.083984 0,-0.388672 0.06787,-0.749024 0.203613,-1.083008 0.135742,-0.333984 0.322754,-0.623047 0.561035,-0.869141 0.238281,-0.245117 0.522461,-0.438476 0.852539,-0.577148 0.330079,-0.139648 0.688965,-0.208984 1.077637,-0.208984 0.462402,0 0.852539,0.08008 1.171875,0.242187 0.318848,0.161133 0.581055,0.37207 0.786133,0.631836 0.205566,0.260742 0.354004,0.553711 0.445801,0.879883 0.09131,0.327148 0.137207,0.658203 0.137207,0.996094 v 0.351562 z m 3.124023,-0.791992 c -0.0073,-0.219727 -0.04248,-0.421875 -0.104492,-0.604492 -0.0625,-0.183594 -0.15625,-0.342774 -0.280761,-0.478516 -0.124512,-0.135742 -0.280274,-0.242187 -0.467286,-0.319336 -0.187011,-0.07715 -0.405273,-0.115234 -0.654785,-0.115234 -0.241699,0 -0.463867,0.0459 -0.665527,0.137695 -0.20166,0.09082 -0.37207,0.209961 -0.511231,0.357422 -0.139648,0.146484 -0.247558,0.30957 -0.324707,0.489258 -0.07666,0.179687 -0.115234,0.357422 -0.115234,0.533203 z"
   inkscape:connector-curvature="0"
   style="fill:#777777" />
	<path
   id="path386"
   d="m 33.180664,11.689941 h -1.418945 v 2.365235 c 0,0.147461 0.0034,0.291992 0.01074,0.43457 0.0073,0.143555 0.03516,0.271485 0.08252,0.384766 0.04785,0.114258 0.121094,0.206054 0.220215,0.27539 0.09912,0.06934 0.243653,0.104493 0.434571,0.104493 0.117187,0 0.238281,-0.01074 0.362793,-0.0332 0.124511,-0.02148 0.238281,-0.0625 0.341308,-0.121093 v 0.902343 c -0.117676,0.06641 -0.269531,0.111328 -0.456543,0.137696 -0.187012,0.02539 -0.332031,0.03809 -0.43457,0.03809 -0.381348,0 -0.676758,-0.05273 -0.885742,-0.15918 -0.208985,-0.106445 -0.362793,-0.244141 -0.461914,-0.413086 -0.09912,-0.167969 -0.157715,-0.357422 -0.175782,-0.566406 -0.01855,-0.208985 -0.02783,-0.418946 -0.02783,-0.631836 V 11.689941 H 29.627441 V 10.83252 h 1.144043 V 9.3696289 h 0.990235 V 10.83252 h 1.418945 z"
   inkscape:connector-curvature="0"
   style="fill:#777777" />
	<path
   id="path388"
   d="m 34.203125,11.470215 c 0.278809,-0.256836 0.601074,-0.449219 0.967773,-0.577149 0.3667,-0.127929 0.733399,-0.192382 1.100098,-0.192382 0.381348,0 0.709473,0.04785 0.984375,0.142578 0.275391,0.0957 0.500977,0.223633 0.676758,0.384765 0.175781,0.16211 0.306152,0.34668 0.390625,0.555664 0.08398,0.208985 0.126465,0.427735 0.126465,0.654297 v 2.66211 c 0,0.183594 0.0034,0.352539 0.01074,0.505859 0.0073,0.154297 0.01855,0.300781 0.0332,0.44043 h -0.879883 c -0.02197,-0.263672 -0.0332,-0.52832 -0.0332,-0.791992 h -0.02197 c -0.220214,0.336914 -0.480468,0.576172 -0.780761,0.714843 -0.300782,0.139649 -0.649414,0.208985 -1.04541,0.208985 -0.2417,0 -0.472657,-0.0332 -0.692872,-0.09863 -0.219726,-0.06641 -0.412597,-0.165039 -0.577636,-0.296875 -0.165039,-0.132812 -0.294922,-0.295898 -0.390137,-0.490234 -0.0957,-0.19336 -0.143066,-0.418946 -0.143066,-0.675782 0,-0.33789 0.0752,-0.620117 0.225586,-0.847656 0.149902,-0.226562 0.355468,-0.412109 0.615722,-0.554687 0.260254,-0.143555 0.564453,-0.246094 0.913086,-0.308594 0.348145,-0.0625 0.720703,-0.09375 1.116699,-0.09375 h 0.725586 v -0.219727 c 0,-0.131836 -0.02539,-0.263672 -0.07666,-0.395507 -0.05176,-0.132813 -0.128418,-0.251954 -0.230957,-0.357422 -0.103027,-0.106446 -0.230957,-0.191407 -0.385254,-0.253907 -0.153808,-0.06152 -0.337402,-0.09277 -0.549805,-0.09277 -0.190918,0 -0.357422,0.01856 -0.500488,0.05469 -0.143066,0.03711 -0.273437,0.08301 -0.390625,0.137696 -0.117187,0.05469 -0.223633,0.11914 -0.318848,0.192383 -0.0957,0.07324 -0.187011,0.142578 -0.27539,0.208984 z m 2.793945,2.068359 c -0.234863,0 -0.475097,0.0127 -0.720703,0.03809 -0.245605,0.02637 -0.469238,0.07519 -0.670898,0.148438 -0.20166,0.07324 -0.366699,0.176757 -0.494629,0.308593 -0.128418,0.131836 -0.192871,0.300782 -0.192871,0.50586 0,0.300781 0.101074,0.516601 0.302734,0.648437 0.20166,0.132813 0.47461,0.198243 0.819336,0.198243 0.271484,0 0.502441,-0.0459 0.692871,-0.137696 0.190918,-0.09082 0.344727,-0.209961 0.462402,-0.357422 0.117188,-0.146484 0.201172,-0.30957 0.25293,-0.489258 0.05127,-0.179687 0.07666,-0.357421 0.07666,-0.533203 v -0.330082 z"
   inkscape:connector-curvature="0"
   style="fill:#777777" />
	<path
   id="path390"
   d="m 39.615234,7.7299805 h 0.989746 v 3.8505855 h 0.02197 c 0.17627,-0.271484 0.429199,-0.486328 0.759277,-0.643554 0.330079,-0.158203 0.682129,-0.236328 1.056153,-0.236328 0.402832,0 0.768066,0.06934 1.094238,0.208984 0.326172,0.138672 0.604981,0.332031 0.835938,0.577148 0.230957,0.246094 0.408691,0.535157 0.533691,0.869141 0.124512,0.333984 0.187012,0.694336 0.187012,1.083008 0,0.389648 -0.0625,0.748047 -0.187012,1.078125 -0.125,0.330078 -0.302734,0.620117 -0.533691,0.86914 -0.230957,0.25 -0.509766,0.444336 -0.835938,0.583008 -0.326172,0.139649 -0.691406,0.208985 -1.094238,0.208985 -0.352051,0 -0.695313,-0.07715 -1.028809,-0.230469 -0.333496,-0.154297 -0.595703,-0.370117 -0.786621,-0.649414 h -0.02197 v 0.748047 h -0.989746 z m 2.706055,7.5244145 c 0.263672,0 0.501953,-0.0459 0.714844,-0.137696 0.212891,-0.0918 0.39209,-0.21582 0.539062,-0.374023 0.146485,-0.157227 0.260254,-0.347656 0.340821,-0.572266 0.08057,-0.222656 0.121093,-0.466797 0.121093,-0.731445 0,-0.263672 -0.04053,-0.506836 -0.121093,-0.731445 -0.08057,-0.223633 -0.194336,-0.414063 -0.340821,-0.57129 -0.146972,-0.158203 -0.326172,-0.282226 -0.539062,-0.374023 -0.212891,-0.0918 -0.451172,-0.137695 -0.714844,-0.137695 -0.26416,0 -0.502441,0.0459 -0.715332,0.137695 -0.212402,0.0918 -0.39209,0.21582 -0.538574,0.374023 -0.146973,0.157227 -0.260742,0.347657 -0.341309,0.57129 -0.08057,0.224609 -0.121093,0.467773 -0.121093,0.731445 0,0.264648 0.04053,0.508789 0.121093,0.731445 0.08057,0.22461 0.194336,0.415039 0.341309,0.572266 0.146484,0.158203 0.326172,0.282226 0.538574,0.374023 0.212891,0.0918 0.451172,0.137696 0.715332,0.137696 z"
   inkscape:connector-curvature="0"
   style="fill:#777777" />
	<path
   id="path392"
   d="m 45.808106,13.438965 c 0,-0.38086 0.07129,-0.736328 0.214355,-1.066406 0.143066,-0.330078 0.339356,-0.620118 0.588379,-0.869141 0.249512,-0.249023 0.542969,-0.445312 0.880371,-0.588867 0.336914,-0.142578 0.700195,-0.213867 1.088867,-0.213867 0.388672,0 0.751465,0.07129 1.088867,0.213867 0.337403,0.143555 0.63086,0.339844 0.879883,0.588867 0.249512,0.249023 0.445801,0.539063 0.588867,0.869141 0.142579,0.330078 0.214356,0.685547 0.214356,1.066406 0,0.381836 -0.07178,0.739258 -0.214356,1.073242 -0.143066,0.333008 -0.339355,0.623047 -0.588867,0.869141 -0.249023,0.245117 -0.54248,0.439453 -0.879883,0.583007 -0.337402,0.142578 -0.700195,0.213868 -1.088867,0.213868 -0.388672,0 -0.751953,-0.07129 -1.088867,-0.213868 -0.337402,-0.143554 -0.630859,-0.33789 -0.880371,-0.583007 -0.249023,-0.246094 -0.445313,-0.536133 -0.588379,-0.869141 -0.143067,-0.333984 -0.214355,-0.691406 -0.214355,-1.073242 z m 1.055663,0 c 0,0.264648 0.04053,0.508789 0.121094,0.731445 0.08057,0.22461 0.194336,0.415039 0.341309,0.572266 0.146484,0.158203 0.326172,0.282226 0.538574,0.374023 0.212891,0.0918 0.451172,0.137695 0.715332,0.137695 0.263672,0 0.501953,-0.0459 0.714844,-0.137695 0.212891,-0.0918 0.39209,-0.21582 0.539062,-0.374023 0.146485,-0.157227 0.260254,-0.347656 0.340821,-0.572266 0.08057,-0.222656 0.121093,-0.466797 0.121093,-0.731445 0,-0.263672 -0.04053,-0.506836 -0.121093,-0.731445 -0.08057,-0.223633 -0.194336,-0.414063 -0.340821,-0.57129 -0.146972,-0.158203 -0.326172,-0.282226 -0.539062,-0.374023 -0.212891,-0.0918 -0.451172,-0.137695 -0.714844,-0.137695 -0.26416,0 -0.502441,0.0459 -0.715332,0.137695 -0.212402,0.0918 -0.39209,0.21582 -0.538574,0.374023 -0.146973,0.157227 -0.260742,0.347657 -0.341309,0.57129 -0.08057,0.224609 -0.121094,0.467773 -0.121094,0.731445 z"
   inkscape:connector-curvature="0"
   style="fill:#777777" />
	<path
   id="path394"
   d="m 52.396973,7.7299805 h 0.989746 v 8.3164065 h -0.989746 z"
   inkscape:connector-curvature="0"
   style="fill:#777777" />
	<path
   id="path396"
   d="m 54.431641,13.438965 c 0,-0.38086 0.07129,-0.736328 0.214355,-1.066406 0.143067,-0.330078 0.339356,-0.620118 0.588379,-0.869141 0.249512,-0.249023 0.542969,-0.445312 0.880371,-0.588867 0.336914,-0.142578 0.700195,-0.213867 1.088867,-0.213867 0.388672,0 0.751465,0.07129 1.088868,0.213867 0.337402,0.143555 0.630859,0.339844 0.879882,0.588867 0.249512,0.249023 0.445801,0.539063 0.588868,0.869141 0.142578,0.330078 0.214355,0.685547 0.214355,1.066406 0,0.381836 -0.07178,0.739258 -0.214355,1.073242 -0.143067,0.333008 -0.339356,0.623047 -0.588868,0.869141 -0.249023,0.245117 -0.54248,0.439453 -0.879882,0.583007 -0.337403,0.142578 -0.700196,0.213868 -1.088868,0.213868 -0.388672,0 -0.751953,-0.07129 -1.088867,-0.213868 -0.337402,-0.143554 -0.630859,-0.33789 -0.880371,-0.583007 -0.249023,-0.246094 -0.445312,-0.536133 -0.588379,-0.869141 -0.143066,-0.333984 -0.214355,-0.691406 -0.214355,-1.073242 z m 1.055664,0 c 0,0.264648 0.04053,0.508789 0.121093,0.731445 0.08057,0.22461 0.194336,0.415039 0.341309,0.572266 0.146484,0.158203 0.326172,0.282226 0.538574,0.374023 0.212891,0.0918 0.451172,0.137695 0.715332,0.137695 0.263672,0 0.501953,-0.0459 0.714844,-0.137695 0.212891,-0.0918 0.39209,-0.21582 0.539063,-0.374023 0.146484,-0.157227 0.260253,-0.347656 0.34082,-0.572266 0.08057,-0.222656 0.121094,-0.466797 0.121094,-0.731445 0,-0.263672 -0.04053,-0.506836 -0.121094,-0.731445 -0.08057,-0.223633 -0.194336,-0.414063 -0.34082,-0.57129 -0.146973,-0.158203 -0.326172,-0.282226 -0.539063,-0.374023 -0.212891,-0.0918 -0.451172,-0.137695 -0.714844,-0.137695 -0.26416,0 -0.502441,0.0459 -0.715332,0.137695 -0.212402,0.0918 -0.39209,0.21582 -0.538574,0.374023 -0.146973,0.157227 -0.260742,0.347657 -0.341309,0.57129 -0.08057,0.224609 -0.121093,0.467773 -0.121093,0.731445 z"
   inkscape:connector-curvature="0"
   style="fill:#777777" />
	<path
   id="path398"
   d="m 60.943359,10.83252 h 0.923828 v 0.813476 h 0.02197 c 0.02197,-0.07324 0.0791,-0.165039 0.17041,-0.274414 0.0918,-0.110352 0.209473,-0.214844 0.352051,-0.313477 0.143067,-0.09961 0.312012,-0.183593 0.506348,-0.252929 0.193848,-0.07031 0.408691,-0.104492 0.643555,-0.104492 0.388183,0 0.714843,0.08008 0.979003,0.242187 0.263672,0.161133 0.479981,0.40332 0.648926,0.725586 0.168457,-0.322266 0.406739,-0.564453 0.714844,-0.725586 0.308106,-0.162109 0.619629,-0.242187 0.935059,-0.242187 0.40332,0 0.733398,0.06543 0.989746,0.197265 0.256836,0.132813 0.458496,0.306641 0.60498,0.522461 0.146973,0.216797 0.247559,0.462891 0.302735,0.737305 0.05518,0.27539 0.08252,0.55957 0.08252,0.852539 v 3.036133 H 67.829102 V 13.14209 c 0,-0.197266 -0.0127,-0.388672 -0.03809,-0.571289 -0.02588,-0.183594 -0.0791,-0.344727 -0.159668,-0.484375 -0.08106,-0.139649 -0.194336,-0.250977 -0.34082,-0.335938 -0.146973,-0.08398 -0.341309,-0.125976 -0.583008,-0.125976 -0.477051,0 -0.817871,0.146484 -1.023438,0.439453 -0.205078,0.293945 -0.307617,0.671875 -0.307617,1.133789 v 2.848632 h -0.990234 v -2.727539 c 0,-0.25 -0.0127,-0.477539 -0.03857,-0.682617 -0.02539,-0.205078 -0.07666,-0.382812 -0.153808,-0.533203 -0.07715,-0.15039 -0.187012,-0.267578 -0.330078,-0.352539 -0.143067,-0.08398 -0.335449,-0.125977 -0.577637,-0.125977 -0.175781,0 -0.346191,0.03516 -0.51123,0.104493 -0.16504,0.06934 -0.310059,0.173828 -0.434571,0.313476 -0.125,0.139649 -0.223633,0.317383 -0.296875,0.533203 -0.07373,0.216797 -0.110351,0.47168 -0.110351,0.764649 v 2.706054 H 60.94336 Z"
   inkscape:connector-curvature="0"
   style="fill:#777777" />
	<path
   id="path400"
   d="m 69.886719,8.9624023 c 0,-0.1982422 0.07129,-0.3681641 0.214355,-0.5117188 0.143067,-0.1425781 0.313477,-0.2138672 0.511231,-0.2138672 0.198242,0 0.368652,0.071289 0.511719,0.2138672 0.143066,0.1435547 0.214355,0.3134766 0.214355,0.5117188 0,0.1982422 -0.07129,0.3681641 -0.214355,0.5117188 -0.143067,0.1425781 -0.313477,0.2138672 -0.511719,0.2138672 -0.197754,0 -0.368164,-0.071289 -0.511231,-0.2138672 C 69.958008,9.3305664 69.886719,9.1606445 69.886719,8.9624023 Z m 0.230957,1.8701177 h 0.989746 v 5.213867 h -0.989746 z"
   inkscape:connector-curvature="0"
   style="fill:#777777" />
	<path
   id="path402"
   d="m 76.134277,12.218262 c -0.183594,-0.19043 -0.375976,-0.334961 -0.577636,-0.434571 -0.201661,-0.09863 -0.441895,-0.148437 -0.720215,-0.148437 -0.271485,0 -0.508301,0.04981 -0.709473,0.148437 -0.202148,0.09961 -0.370605,0.235352 -0.506348,0.407227 -0.135742,0.171875 -0.238281,0.370117 -0.308105,0.59375 -0.06934,0.223633 -0.104492,0.457031 -0.104492,0.698242 0,0.242188 0.04053,0.47168 0.121093,0.6875 0.08057,0.216797 0.194336,0.405274 0.341309,0.567383 0.146485,0.161133 0.322266,0.287109 0.527832,0.378906 0.205078,0.0918 0.436035,0.137695 0.692871,0.137695 0.278809,0 0.51709,-0.0498 0.715332,-0.148437 0.197754,-0.09863 0.38086,-0.244141 0.549805,-0.43457 l 0.704102,0.704101 c -0.256836,0.286133 -0.555665,0.491211 -0.896485,0.616211 -0.341309,0.124024 -0.702637,0.186524 -1.083496,0.186524 -0.40332,0 -0.771973,-0.06543 -1.105469,-0.198243 -0.333984,-0.131836 -0.621582,-0.316406 -0.863769,-0.554687 -0.2417,-0.238281 -0.428711,-0.524414 -0.561036,-0.858399 -0.131835,-0.333984 -0.197753,-0.702148 -0.197753,-1.105468 0,-0.403321 0.06592,-0.773438 0.197753,-1.111328 0.132325,-0.336915 0.317383,-0.626954 0.555665,-0.869141 0.238281,-0.241211 0.524414,-0.430664 0.85791,-0.566406 0.333496,-0.135742 0.705566,-0.203125 1.116699,-0.203125 0.380859,0 0.746094,0.06738 1.094238,0.203125 0.348145,0.135742 0.650879,0.342773 0.907715,0.62207 z"
   inkscape:connector-curvature="0"
   style="fill:#777777" />
	<path
   id="path404"
   d="m 80.423828,12.141113 c -0.117187,-0.146484 -0.262207,-0.269531 -0.43457,-0.368164 -0.172364,-0.09863 -0.383301,-0.148437 -0.632324,-0.148437 -0.234864,0 -0.438477,0.0498 -0.61084,0.148437 -0.172363,0.09863 -0.258301,0.244141 -0.258301,0.434571 0,0.154296 0.04932,0.27832 0.148437,0.374023 0.09912,0.0957 0.216309,0.171875 0.352051,0.230469 0.135742,0.05957 0.280762,0.103515 0.434571,0.132812 0.153808,0.0293 0.286132,0.05469 0.395996,0.07617 0.212402,0.05176 0.412597,0.114258 0.599609,0.1875 0.187012,0.07324 0.348145,0.168945 0.483887,0.286133 0.135742,0.117187 0.242187,0.259766 0.318848,0.428711 0.07715,0.168945 0.115722,0.374023 0.115722,0.616211 0,0.292969 -0.0625,0.543945 -0.187011,0.752929 -0.125,0.208985 -0.286133,0.379883 -0.483887,0.511719 -0.198242,0.131836 -0.423828,0.227539 -0.676758,0.286133 -0.25293,0.05859 -0.507812,0.08789 -0.764648,0.08789 -0.432618,0 -0.812012,-0.06543 -1.138184,-0.198243 -0.32666,-0.131835 -0.618164,-0.374023 -0.874512,-0.725585 l 0.748047,-0.616211 c 0.161133,0.161132 0.340821,0.304687 0.539063,0.429687 0.197754,0.124024 0.439941,0.186524 0.725586,0.186524 0.125,0 0.251464,-0.0127 0.379882,-0.03809 0.12793,-0.02637 0.2417,-0.06641 0.340821,-0.121094 0.09912,-0.05566 0.179687,-0.125 0.242187,-0.208985 0.06201,-0.08496 0.09326,-0.18164 0.09326,-0.291992 0,-0.146484 -0.0459,-0.267578 -0.137695,-0.363281 -0.09131,-0.09473 -0.201661,-0.169922 -0.32959,-0.224609 -0.128418,-0.05566 -0.26416,-0.09961 -0.407227,-0.132813 -0.143066,-0.03223 -0.269531,-0.06055 -0.379394,-0.08203 -0.212891,-0.05176 -0.414551,-0.110352 -0.604981,-0.175781 -0.190918,-0.06641 -0.359375,-0.154297 -0.505859,-0.264649 -0.146973,-0.109375 -0.26416,-0.249023 -0.352051,-0.417968 -0.08838,-0.167969 -0.132324,-0.376954 -0.132324,-0.626954 0,-0.270507 0.05713,-0.507812 0.170898,-0.708984 0.113281,-0.202148 0.263672,-0.369141 0.450684,-0.500977 0.187012,-0.131836 0.399902,-0.230468 0.638183,-0.296875 0.238282,-0.06641 0.478516,-0.09863 0.720215,-0.09863 0.352051,0 0.689453,0.06543 1.012207,0.197265 0.322754,0.132813 0.579102,0.352539 0.77002,0.660156 z"
   inkscape:connector-curvature="0"
   style="fill:#777777" />
</g><circle
     id="circle408"
     r="1.1422229"
     cy="12.112974"
     cx="10.901957"
     style="fill:#ff0303" /><path
     id="path410"
     d="M 2.2592747,14.154531"
     stroke-miterlimit="10"
     inkscape:connector-curvature="0"
     style="fill:none;stroke:#000000;stroke-width:0.57337219;stroke-miterlimit:10" /><g
     id="g476">
</g><g
     id="g478">
</g><g
     id="g480">
</g><g
     id="g482">
</g><g
     id="g484">
</g><g
     id="g486">
</g><g
     id="g488">
</g><g
     id="g490">
</g><g
     id="g492">
</g><g
     id="g494">
</g><g
     id="g496">
</g><g
     id="g498">
</g><g
     id="g500">
</g><g
     id="g502">
</g><g
     id="g504">
</g></g>
</svg>