<?xml version="1.0" encoding="UTF-8" standalone="no"?>
<!-- Generator: Adobe Illustrator 17.1.0, SVG Export Plug-In . SVG Version: 6.00 Build 0)  -->

<svg
   xmlns:dc="http://purl.org/dc/elements/1.1/"
   xmlns:cc="http://creativecommons.org/ns#"
   xmlns:rdf="http://www.w3.org/1999/02/22-rdf-syntax-ns#"
   xmlns:svg="http://www.w3.org/2000/svg"
   xmlns="http://www.w3.org/2000/svg"
   xmlns:sodipodi="http://sodipodi.sourceforge.net/DTD/sodipodi-0.dtd"
   xmlns:inkscape="http://www.inkscape.org/namespaces/inkscape"
   version="1.1"
   id="Layer_1"
   x="0px"
   y="0px"
   width="93.621529"
   height="13"
   viewBox="0 0 93.621529 13"
   enable-background="new 0 0 240 40"
   xml:space="preserve"
   sodipodi:docname="sw-icon-chemical-menu.svg"
   inkscape:version="0.92.3 (2405546, 2018-03-11)"><metadata
   id="metadata833"><rdf:RDF><cc:Work
       rdf:about=""><dc:format>image/svg+xml</dc:format><dc:type
         rdf:resource="http://purl.org/dc/dcmitype/StillImage" /><dc:title></dc:title></cc:Work></rdf:RDF></metadata><defs
   id="defs831">
	
	
	
	
	
	
	
	
	
	
	
	
	
</defs><sodipodi:namedview
   pagecolor="#ffffff"
   bordercolor="#666666"
   borderopacity="1"
   objecttolerance="10"
   gridtolerance="10"
   guidetolerance="10"
   inkscape:pageopacity="0"
   inkscape:pageshadow="2"
   inkscape:window-width="1351"
   inkscape:window-height="653"
   id="namedview829"
   showgrid="false"
   fit-margin-top="0"
   fit-margin-left="0"
   fit-margin-right="0"
   fit-margin-bottom="0"
   inkscape:zoom="4.0305086"
   inkscape:cx="77.434001"
   inkscape:cy="-21.136991"
   inkscape:window-x="3118"
   inkscape:window-y="690"
   inkscape:window-maximized="0"
   inkscape:current-layer="Layer_1" />














<g
   id="g8293"
   transform="translate(-1,-1)"><path
     d="m 28.151892,5.002187 c -0.2,-0.3 -0.6,-0.6 -0.9,-0.7 -0.4,-0.2 -0.8,-0.3 -1.2,-0.3 -0.5,0 -0.9,0.1 -1.3,0.3 -0.4,0.2 -0.7,0.4 -1,0.7 -0.3,0.3 -0.5,0.7 -0.6,1.1 -0.1,0.4 -0.2,0.9 -0.2,1.4 0,0.5 0.1,0.9 0.2,1.3 0.1,0.4 0.4,0.8 0.6,1.1 0.3,0.3 0.6,0.5 1,0.7 0.4,0.2 0.8,0.3 1.3,0.3 0.5,0 0.9,-0.1 1.3,-0.3 0.4,-0.2 0.7,-0.5 0.9,-0.8 l 1,0.7 c -0.1,0.1 -0.2,0.2 -0.3,0.4 -0.2,0.2 -0.4,0.3 -0.6,0.5 -0.2,0.2 -0.6,0.3 -1,0.4 -0.4,0.1 -0.8,0.2 -1.3,0.2 -0.7,0 -1.3,-0.1 -1.8,-0.4 -0.5,-0.3 -1,-0.6 -1.4,-1 -0.4,-0.4 -0.7,-0.9 -0.9,-1.4 -0.2,-0.5 -0.3,-1.1 -0.3,-1.6 0,-0.7 0.1,-1.3 0.3,-1.8 0.2,-0.6 0.5,-1 0.9,-1.5 0.4,-0.4 0.9,-0.7 1.4,-1 0.6,-0.2 1.2,-0.3 1.8,-0.3 0.6,0 1.1,0.1 1.7,0.3 0.6,0.2 1,0.6 1.3,1 z"
     id="path688"
     inkscape:connector-curvature="0"
     style="fill:#436bb3" /><path
     d="m 30.151892,2.602187 h 1.1 v 4.3 0 c 0.1,-0.3 0.4,-0.6 0.7,-0.7 0.3,-0.2 0.7,-0.3 1.2,-0.3 0.3,0 0.5,0 0.8,0.1 0.3,0.1 0.5,0.2 0.7,0.4 0.2,0.2 0.3,0.4 0.5,0.7 0.1,0.3 0.2,0.6 0.2,1 v 3.7 h -1.1 v -3.4 c 0,-0.3 0,-0.5 -0.1,-0.7 -0.1,-0.2 -0.2,-0.3 -0.3,-0.5 -0.1,-0.1 -0.3,-0.2 -0.4,-0.3 -0.1,-0.1 -0.3,-0.1 -0.5,-0.1 -0.2,0 -0.4,0 -0.6,0.1 -0.2,0.1 -0.4,0.2 -0.5,0.3 -0.1,0.2 -0.3,0.4 -0.3,0.6 -0.1,0.2 -0.1,0.5 -0.1,0.9 v 3 h -1.1 v -9.1 z"
     id="path690"
     inkscape:connector-curvature="0"
     style="fill:#436bb3" /><path
     d="m 37.451892,9.302187 c 0,0.3 0.1,0.5 0.2,0.7 0.1,0.2 0.3,0.4 0.4,0.5 0.2,0.1 0.4,0.3 0.6,0.3 0.2,0.1 0.5,0.1 0.7,0.1 0.3,0 0.6,-0.1 0.9,-0.2 0.3,-0.2 0.5,-0.4 0.7,-0.6 l 0.8,0.6 c -0.6,0.8 -1.5,1.2 -2.5,1.2 -0.5,0 -0.9,-0.1 -1.2,-0.2 -0.3,-0.1 -0.7,-0.4 -0.9,-0.6 -0.3,-0.3 -0.5,-0.6 -0.6,-1 -0.1,-0.4 -0.2,-0.8 -0.2,-1.2 0,-0.4 0.1,-0.8 0.2,-1.2 0.1,-0.4 0.4,-0.7 0.6,-1 0.2,-0.3 0.6,-0.5 0.9,-0.6 0.4,-0.2 0.8,-0.2 1.2,-0.2 0.5,0 0.9,0.1 1.3,0.3 0.4,0.2 0.6,0.4 0.9,0.7 0.2,0.3 0.4,0.6 0.5,1 0.1,0.4 0.2,0.7 0.2,1.1 v 0.4 h -4.7 z m 3.4,-0.9 c 0,-0.2 0,-0.5 -0.1,-0.7 -0.1,-0.2 -0.2,-0.4 -0.3,-0.5 -0.1,-0.1 -0.3,-0.3 -0.5,-0.4 -0.2,-0.1 -0.4,-0.1 -0.7,-0.1 -0.3,0 -0.5,0.1 -0.7,0.2 -0.2,0.1 -0.4,0.2 -0.6,0.4 -0.2,0.2 -0.3,0.3 -0.4,0.5 -0.1,0.2 -0.1,0.4 -0.1,0.6 z"
     id="path692"
     inkscape:connector-curvature="0"
     style="fill:#436bb3" /><path
     d="m 43.051892,6.002187 h 1 v 0.9 0 c 0,-0.1 0.1,-0.2 0.2,-0.3 0.1,-0.1 0.2,-0.2 0.4,-0.3 0.2,-0.1 0.3,-0.2 0.6,-0.3 0.2,-0.1 0.5,-0.1 0.7,-0.1 0.4,0 0.8,0.1 1.1,0.3 0.3,0.2 0.5,0.4 0.7,0.8 0.2,-0.4 0.4,-0.6 0.8,-0.8 0.3,-0.2 0.7,-0.3 1,-0.3 0.4,0 0.8,0.1 1.1,0.2 0.3,0.1 0.5,0.3 0.7,0.6 0.2,0.2 0.3,0.5 0.3,0.8 0.1,0.3 0.1,0.6 0.1,0.9 v 3.4 h -1.1 v -3.2 c 0,-0.2 0,-0.4 0,-0.6 0,-0.2 -0.1,-0.4 -0.2,-0.5 -0.1,-0.2 -0.2,-0.3 -0.4,-0.4 -0.2,-0.1 -0.4,-0.1 -0.6,-0.1 -0.5,0 -0.9,0.2 -1.1,0.5 -0.2,0.3 -0.3,0.7 -0.3,1.3 v 3.1 h -1.1 v -3 c 0,-0.3 0,-0.5 0,-0.8 0,-0.2 -0.1,-0.4 -0.2,-0.6 -0.1,-0.2 -0.2,-0.3 -0.4,-0.4 -0.2,-0.1 -0.4,-0.1 -0.6,-0.1 -0.2,0 -0.4,0 -0.6,0.1 -0.2,0.1 -0.3,0.2 -0.5,0.3 -0.1,0.2 -0.2,0.4 -0.3,0.6 -0.1,0.2 -0.1,0.5 -0.1,0.8 v 3 h -1.1 v -5.8 z"
     id="path694"
     inkscape:connector-curvature="0"
     style="fill:#436bb3" /><path
     d="m 52.951892,3.902187 c 0,-0.2 0.1,-0.4 0.2,-0.6 0.2,-0.2 0.3,-0.2 0.6,-0.2 0.2,0 0.4,0.1 0.6,0.2 0.2,0.2 0.2,0.3 0.2,0.6 0,0.2 -0.1,0.4 -0.2,0.6 -0.1,0.2 -0.3,0.2 -0.6,0.2 -0.2,0 -0.4,-0.1 -0.6,-0.2 -0.2,-0.1 -0.2,-0.3 -0.2,-0.6 z m 0.2,2.1 h 1.1 v 5.8 h -1.1 z"
     id="path696"
     inkscape:connector-curvature="0"
     style="fill:#436bb3" /><path
     d="m 59.851892,7.502187 c -0.2,-0.2 -0.4,-0.4 -0.6,-0.5 -0.2,-0.1 -0.5,-0.2 -0.8,-0.2 -0.3,0 -0.6,0.1 -0.8,0.2 -0.2,0.1 -0.4,0.3 -0.6,0.4 -0.1,0.2 -0.3,0.4 -0.3,0.7 -0.1,0.2 -0.1,0.5 -0.1,0.8 0,0.3 0,0.5 0.1,0.8 0.1,0.2 0.2,0.4 0.4,0.6 0.2,0.2 0.4,0.3 0.6,0.4 0.2,0.1 0.5,0.2 0.8,0.2 0.3,0 0.6,-0.1 0.8,-0.2 0.2,-0.1 0.4,-0.3 0.6,-0.5 l 0.8,0.8 c -0.3,0.3 -0.6,0.5 -1,0.7 -0.4,0.1 -0.8,0.2 -1.2,0.2 -0.4,0 -0.9,-0.1 -1.2,-0.2 -0.4,-0.1 -0.7,-0.3 -1,-0.6 -0.3,-0.3 -0.5,-0.6 -0.6,-0.9 -0.1,-0.3 -0.2,-0.8 -0.2,-1.2 0,-0.4 0.1,-0.9 0.2,-1.2 0.1,-0.4 0.4,-0.7 0.6,-1 0.3,-0.3 0.6,-0.5 0.9,-0.6 0.4,-0.1 0.8,-0.2 1.2,-0.2 0.4,0 0.8,0.1 1.2,0.2 0.4,0.1 0.7,0.4 1,0.7 z"
     id="path698"
     inkscape:connector-curvature="0"
     style="fill:#436bb3" /><path
     d="m 61.251892,6.702187 c 0.3,-0.3 0.7,-0.5 1.1,-0.6 0.4,-0.1 0.8,-0.2 1.2,-0.2 0.4,0 0.8,0.1 1.1,0.2 0.3,0.1 0.6,0.2 0.7,0.4 0.2,0.2 0.3,0.4 0.4,0.6 0.1,0.2 0.1,0.5 0.1,0.7 v 2.9 c 0,0.2 0,0.4 0,0.6 0,0.2 0,0.3 0,0.5 h -1 c 0,-0.3 0,-0.6 0,-0.9 v 0 c -0.2,0.4 -0.5,0.6 -0.9,0.8 -0.3,0.2 -0.7,0.2 -1.2,0.2 -0.3,0 -0.5,0 -0.8,-0.1 -0.2,-0.1 -0.5,-0.2 -0.6,-0.3 -0.1,-0.1 -0.3,-0.3 -0.4,-0.5 -0.1,-0.2 -0.2,-0.5 -0.2,-0.7 0,-0.4 0.1,-0.7 0.2,-0.9 0.1,-0.2 0.4,-0.5 0.7,-0.6 0.3,-0.2 0.6,-0.3 1,-0.3 0.4,-0.1 0.8,-0.1 1.2,-0.1 h 0.8 v -0.2 c 0,-0.1 0,-0.3 -0.1,-0.4 -0.1,-0.1 -0.1,-0.3 -0.3,-0.4 -0.1,-0.1 -0.3,-0.2 -0.4,-0.3 -0.2,-0.1 -0.4,-0.1 -0.6,-0.1 -0.2,0 -0.4,0 -0.6,0.1 -0.2,0 -0.3,0.1 -0.4,0.2 -0.1,0.1 -0.2,0.1 -0.4,0.2 -0.1,0.1 -0.2,0.2 -0.3,0.2 z m 3.1,2.3 c -0.3,0 -0.5,0 -0.8,0 -0.3,0 -0.5,0.1 -0.7,0.2 -0.2,0.1 -0.4,0.2 -0.5,0.3 -0.1,0.1 -0.2,0.3 -0.2,0.6 0,0.3 0.1,0.6 0.3,0.7 0.2,0.1 0.5,0.2 0.9,0.2 0.3,0 0.6,0 0.8,-0.2 0.2,-0.2 0.4,-0.2 0.5,-0.4 0.1,-0.2 0.2,-0.3 0.3,-0.5 0.1,-0.2 0.1,-0.4 0.1,-0.6 v -0.4 h -0.7 z"
     id="path700"
     inkscape:connector-curvature="0"
     style="fill:#436bb3" /><path
     d="m 67.351892,2.602187 h 1.1 v 9.2 h -1.1 z"
     id="path702"
     inkscape:connector-curvature="0"
     style="fill:#436bb3" /><g
     transform="translate(49.869636,-10.916736)"
     id="g8264"><path
       style="fill:none;stroke:#979797;stroke-width:0.99150002;stroke-miterlimit:10"
       inkscape:connector-curvature="0"
       stroke-miterlimit="10"
       d="M 24.4,20.3"
       id="path678" /><path
       style="fill:none;stroke:#979797;stroke-width:0.99150002;stroke-miterlimit:10"
       inkscape:connector-curvature="0"
       stroke-miterlimit="10"
       d="M 24.5,20.3"
       id="path686" /><path
       style="fill:#436bb3"
       inkscape:connector-curvature="0"
       id="path704"
       d="m 22.451892,21.102187 c 0.2,0.3 0.5,0.5 0.8,0.7 0.3,0.2 0.7,0.2 1,0.2 0.2,0 0.4,0 0.6,-0.1 0.2,-0.1 0.4,-0.2 0.6,-0.3 0.2,-0.1 0.3,-0.3 0.4,-0.4 0.1,-0.2 0.2,-0.4 0.2,-0.6 0,-0.3 -0.1,-0.6 -0.3,-0.8 -0.2,-0.2 -0.5,-0.3 -0.8,-0.4 -0.3,-0.1 -0.7,-0.2 -1,-0.3 -0.3,-0.1 -0.7,-0.3 -1,-0.5 -0.3,-0.2 -0.6,-0.5 -0.8,-0.8 -0.2,-0.3 -0.4,-0.8 -0.4,-1.3 0,-0.3 0.1,-0.5 0.2,-0.8 0.1,-0.3 0.3,-0.5 0.5,-0.8 0.2,-0.2 0.5,-0.4 0.9,-0.6 0.4,-0.2 0.8,-0.2 1.3,-0.2 0.5,0 0.9,0.1 1.3,0.2 0.4,0.1 0.8,0.4 1.1,0.8 l -0.9,0.9 c -0.1,-0.2 -0.4,-0.4 -0.6,-0.5 -0.2,-0.1 -0.6,-0.2 -0.9,-0.2 -0.3,0 -0.6,0 -0.8,0.1 -0.2,0.1 -0.4,0.2 -0.5,0.3 -0.1,0.1 -0.2,0.3 -0.3,0.4 -0.1,0.2 -0.1,0.3 -0.1,0.4 0,0.4 0.1,0.6 0.3,0.8 0.2,0.2 0.5,0.4 0.8,0.5 0.3,0.1 0.7,0.2 1,0.3 0.3,0.1 0.7,0.2 1,0.4 0.3,0.2 0.6,0.4 0.8,0.7 0.2,0.3 0.3,0.7 0.3,1.2 0,0.4 -0.1,0.8 -0.2,1.1 -0.2,0.3 -0.4,0.6 -0.6,0.8 -0.2,0.2 -0.6,0.4 -0.9,0.5 -0.4,0.1 -0.8,0.2 -1.2,0.2 -0.6,0 -1.1,-0.1 -1.6,-0.3 -0.5,-0.2 -0.9,-0.5 -1.2,-0.9 z" /><path
       style="fill:#436bb3"
       inkscape:connector-curvature="0"
       id="path706"
       d="m 28.351892,13.702187 h 1.1 v 4.3 0 c 0.1,-0.3 0.4,-0.6 0.7,-0.7 0.3,-0.2 0.7,-0.3 1.2,-0.3 0.3,0 0.5,0 0.8,0.1 0.3,0.1 0.5,0.2 0.7,0.4 0.2,0.2 0.3,0.4 0.5,0.7 0.1,0.3 0.2,0.6 0.2,1 v 3.7 h -1.1 v -3.4 c 0,-0.3 0,-0.5 -0.1,-0.7 -0.1,-0.2 -0.2,-0.3 -0.3,-0.5 -0.1,-0.1 -0.3,-0.2 -0.4,-0.3 -0.1,-0.1 -0.3,-0.1 -0.5,-0.1 -0.2,0 -0.4,0 -0.6,0.1 -0.2,0.1 -0.4,0.2 -0.5,0.3 -0.1,0.2 -0.3,0.4 -0.3,0.6 -0.1,0.2 -0.1,0.5 -0.1,0.9 v 3 h -1.1 v -9.1 z" /><path
       style="fill:#436bb3"
       inkscape:connector-curvature="0"
       id="path708"
       d="m 34.651892,15.102187 c 0,-0.2 0.1,-0.4 0.2,-0.6 0.2,-0.2 0.3,-0.2 0.6,-0.2 0.2,0 0.4,0.1 0.6,0.2 0.2,0.2 0.2,0.3 0.2,0.6 0,0.3 -0.1,0.4 -0.2,0.6 -0.2,0.2 -0.3,0.2 -0.6,0.2 -0.2,0 -0.4,-0.1 -0.6,-0.2 -0.1,-0.2 -0.2,-0.4 -0.2,-0.6 z m 0.3,2 h 1.1 v 5.8 h -1.1 z" /><path
       style="fill:#436bb3"
       inkscape:connector-curvature="0"
       id="path710"
       d="m 37.851892,18.102187 h -1.2 v -0.9 h 1.2 v -1.3 c 0,-0.8 0.1,-1.3 0.4,-1.7 0.3,-0.4 0.8,-0.6 1.5,-0.6 0.1,0 0.2,0 0.4,0 0.1,0 0.3,0 0.4,0.1 l -0.1,1 c -0.1,0 -0.2,-0.1 -0.3,-0.1 -0.1,0 -0.2,0 -0.3,0 -0.2,0 -0.4,0 -0.5,0.1 -0.1,0.1 -0.2,0.1 -0.3,0.3 -0.1,0.2 -0.1,0.2 -0.1,0.4 0,0.2 0,0.3 0,0.5 v 1.3 h 1.3 v 0.9 h -1.3 v 4.8 h -1.1 z" /><path
       style="fill:#436bb3"
       inkscape:connector-curvature="0"
       id="path712"
       d="m 44.751892,18.102187 h -1.6 v 2.6 c 0,0.2 0,0.3 0,0.5 0,0.2 0,0.3 0.1,0.4 0.1,0.1 0.1,0.2 0.2,0.3 0.1,0.1 0.3,0.1 0.5,0.1 0.1,0 0.3,0 0.4,0 0.1,0 0.3,-0.1 0.4,-0.1 v 1 c -0.1,0.1 -0.3,0.1 -0.5,0.2 -0.2,0 -0.4,0 -0.5,0 -0.4,0 -0.7,-0.1 -1,-0.2 -0.2,-0.1 -0.4,-0.3 -0.5,-0.5 -0.1,-0.2 -0.2,-0.4 -0.2,-0.6 0,-0.2 0,-0.5 0,-0.7 v -3 h -1.3 v -0.9 h 1.3 v -1.6 h 1.1 v 1.6 h 1.6 z" /></g><path
     id="path716"
     d="m 1.5,1 c 0,1.3 1,2.3 2.3,2.3 1.3,0 2.3,-1 2.3,-2.3"
     stroke-miterlimit="10"
     inkscape:connector-curvature="0"
     style="fill:none;stroke:#436bb3;stroke-miterlimit:10" /><path
     id="path718"
     d="M 7.9,5.1"
     stroke-miterlimit="10"
     inkscape:connector-curvature="0"
     style="fill:none;stroke:#436bb3;stroke-miterlimit:10" /><path
     id="path720"
     d="m 7.9,1 c 0,1.3 1,2.3 2.3,2.3 1.3,0 2.3,-1 2.3,-2.3"
     stroke-miterlimit="10"
     inkscape:connector-curvature="0"
     style="fill:none;stroke:#436bb3;stroke-miterlimit:10" /><path
     id="path722"
     d="M 14.3,5.1"
     stroke-miterlimit="10"
     inkscape:connector-curvature="0"
     style="fill:none;stroke:#37b34a;stroke-miterlimit:10" /><path
     id="path724"
     d="m 14.3,1 c 0,1.3 1,2.3 2.3,2.3 1.3,0 2.3,-1 2.3,-2.3"
     stroke-miterlimit="10"
     inkscape:connector-curvature="0"
     style="fill:none;stroke:#436bb3;stroke-miterlimit:10" /><path
     id="path726"
     d="m 1.5,14 c 0,-1.3 1,-2.3 2.3,-2.3 1.3,0 2.3,1 2.3,2.3"
     stroke-miterlimit="10"
     inkscape:connector-curvature="0"
     style="fill:none;stroke:#436bb3;stroke-miterlimit:10" /><path
     id="path728"
     d="m 7.9,14 c 0,-1.3 1,-2.3 2.3,-2.3 1.3,0 2.3,1 2.3,2.3"
     stroke-miterlimit="10"
     inkscape:connector-curvature="0"
     style="fill:none;stroke:#436bb3;stroke-miterlimit:10" /><path
     id="path730"
     d="m 14.3,14 c 0,-1.3 1,-2.3 2.3,-2.3 1.3,0 2.3,1 2.3,2.3"
     stroke-miterlimit="10"
     inkscape:connector-curvature="0"
     style="fill:none;stroke:#436bb3;stroke-miterlimit:10" /><circle
     id="circle732"
     r="2.3"
     cy="7.5"
     cx="3.8"
     stroke-miterlimit="10"
     style="fill:none;stroke:#436bb3;stroke-miterlimit:10" /><circle
     id="circle734"
     r="2.3"
     cy="7.5"
     cx="10.2"
     stroke-miterlimit="10"
     style="fill:none;stroke:#436bb3;stroke-miterlimit:10" /><circle
     id="circle736"
     r="2.3"
     cy="7.5"
     cx="16.6"
     stroke-miterlimit="10"
     style="fill:#436bb3;stroke:#436bb3;stroke-miterlimit:10" /></g>















<g
   id="g798"
   transform="translate(-1,-1)">
</g>
<g
   id="g800"
   transform="translate(-1,-1)">
</g>
<g
   id="g802"
   transform="translate(-1,-1)">
</g>
<g
   id="g804"
   transform="translate(-1,-1)">
</g>
<g
   id="g806"
   transform="translate(-1,-1)">
</g>
<g
   id="g808"
   transform="translate(-1,-1)">
</g>
<g
   id="g810"
   transform="translate(-1,-1)">
</g>
<g
   id="g812"
   transform="translate(-1,-1)">
</g>
<g
   id="g814"
   transform="translate(-1,-1)">
</g>
<g
   id="g816"
   transform="translate(-1,-1)">
</g>
<g
   id="g818"
   transform="translate(-1,-1)">
</g>
<g
   id="g820"
   transform="translate(-1,-1)">
</g>
<g
   id="g822"
   transform="translate(-1,-1)">
</g>
<g
   id="g824"
   transform="translate(-1,-1)">
</g>
<g
   id="g826"
   transform="translate(-1,-1)">
</g>
</svg>