<?xml version="1.0" encoding="UTF-8" standalone="no"?>
<!-- Generator: Adobe Illustrator 17.1.0, SVG Export Plug-In . SVG Version: 6.00 Build 0)  -->

<svg
   xmlns:dc="http://purl.org/dc/elements/1.1/"
   xmlns:cc="http://creativecommons.org/ns#"
   xmlns:rdf="http://www.w3.org/1999/02/22-rdf-syntax-ns#"
   xmlns:svg="http://www.w3.org/2000/svg"
   xmlns="http://www.w3.org/2000/svg"
   xmlns:sodipodi="http://sodipodi.sourceforge.net/DTD/sodipodi-0.dtd"
   xmlns:inkscape="http://www.inkscape.org/namespaces/inkscape"
   version="1.1"
   id="Layer_1"
   x="0px"
   y="0px"
   width="117.96049"
   height="11.813385"
   viewBox="0 0 117.96049 11.813384"
   enable-background="new 0 0 240 40"
   xml:space="preserve"
   sodipodi:docname="sw-icon-molecular-modeling-menu-outline.svg"
   inkscape:version="0.92.2 5c3e80d, 2017-08-06"><metadata
     id="metadata362"><rdf:RDF><cc:Work
         rdf:about=""><dc:format>image/svg+xml</dc:format><dc:type
           rdf:resource="http://purl.org/dc/dcmitype/StillImage" /><dc:title></dc:title></cc:Work></rdf:RDF></metadata><defs
     id="defs360" /><sodipodi:namedview
     pagecolor="#ffffff"
     bordercolor="#666666"
     borderopacity="1"
     objecttolerance="10"
     gridtolerance="10"
     guidetolerance="10"
     inkscape:pageopacity="0"
     inkscape:pageshadow="2"
     inkscape:window-width="1510"
     inkscape:window-height="983"
     id="namedview358"
     showgrid="false"
     fit-margin-top="0"
     fit-margin-left="0"
     fit-margin-right="0"
     fit-margin-bottom="0"
     inkscape:zoom="16.282178"
     inkscape:cx="6.4957607"
     inkscape:cy="-1.9981271"
     inkscape:window-x="120"
     inkscape:window-y="125"
     inkscape:window-maximized="0"
     inkscape:current-layer="g8621"
     inkscape:pagecheckerboard="true" /><g
     id="g8621"
     transform="translate(-7.4112309,-3.2246801)"><g
       id="g327"
       style="stroke:#cc33ff;stroke-opacity:1" /><g
       id="g329"
       style="stroke:#cc33ff;stroke-opacity:1" /><g
       id="g331"
       style="stroke:#cc33ff;stroke-opacity:1" /><g
       id="g333"
       style="stroke:#cc33ff;stroke-opacity:1" /><g
       id="g335"
       style="stroke:#cc33ff;stroke-opacity:1" /><g
       id="g337"
       style="stroke:#cc33ff;stroke-opacity:1" /><g
       id="g339"
       style="stroke:#cc33ff;stroke-opacity:1" /><g
       id="g341"
       style="stroke:#cc33ff;stroke-opacity:1" /><g
       id="g343"
       style="stroke:#cc33ff;stroke-opacity:1" /><g
       id="g345"
       style="stroke:#cc33ff;stroke-opacity:1" /><g
       id="g347"
       style="stroke:#cc33ff;stroke-opacity:1" /><g
       id="g349"
       style="stroke:#cc33ff;stroke-opacity:1" /><g
       id="g351"
       style="stroke:#cc33ff;stroke-opacity:1" /><g
       id="g353"
       style="stroke:#cc33ff;stroke-opacity:1" /><g
       id="g355"
       style="stroke:#cc33ff;stroke-opacity:1" /><g
       id="g870"><g
         aria-label="Molecular Modeling"
         style="font-style:normal;font-variant:normal;font-weight:normal;font-stretch:normal;font-size:26.68686295px;line-height:125%;font-family:Calibri;-inkscape-font-specification:'Calibri, Normal';text-align:justify;letter-spacing:0px;word-spacing:0px;writing-mode:lr-tb;text-anchor:start;fill:#cc33ff;fill-opacity:1;stroke:none;stroke-width:1.11195266px;stroke-linecap:butt;stroke-linejoin:miter;stroke-opacity:1"
         id="text862"><path
           d="m 21.606026,3.7939998 h 1.696098 l 2.668687,6.3574042 h 0.04744 l 2.644965,-6.3574042 h 1.696098 V 12.191466 H 29.220678 V 5.2884642 h -0.02372 L 26.362218,12.191466 H 25.603125 L 22.768387,5.2884642 h -0.02372 v 6.9030018 h -1.13864 z"
           style="font-style:normal;font-variant:normal;font-weight:500;font-stretch:normal;font-size:11.8608284px;font-family:Avenir;-inkscape-font-specification:'Avenir Medium';letter-spacing:-0.11px;fill:#cc33ff;fill-opacity:1;stroke-width:1.11195266px"
           id="path842" /><path
           d="m 32.920969,9.38045 q 0,0.4269898 0.130469,0.794676 0.130469,0.355824 0.367686,0.616763 0.237217,0.249077 0.581181,0.403268 0.343964,0.14233 0.770953,0.14233 0.42699,0 0.770954,-0.14233 0.343964,-0.154191 0.581181,-0.403268 0.237216,-0.260939 0.367686,-0.616763 0.130469,-0.3676862 0.130469,-0.794676 0,-0.4269898 -0.130469,-0.7828147 Q 36.360609,8.2299496 36.123393,7.9808722 35.886176,7.719934 35.542212,7.5776041 35.198248,7.4234133 34.771258,7.4234133 q -0.426989,0 -0.770953,0.1541908 Q 33.656341,7.719934 33.419124,7.9808722 33.181907,8.2299496 33.051438,8.5976353 32.920969,8.9534602 32.920969,9.38045 Z m -1.138639,0 q 0,-0.6167631 0.225355,-1.1505004 0.237217,-0.5337372 0.640485,-0.9370054 0.403268,-0.4032682 0.948866,-0.6286239 0.545599,-0.2372166 1.174222,-0.2372166 0.628624,0 1.174222,0.2372166 0.545599,0.2253557 0.948867,0.6286239 0.403268,0.4032682 0.628624,0.9370054 0.237216,0.5337373 0.237216,1.1505004 0,0.6167631 -0.237216,1.162361 -0.225356,0.533737 -0.628624,0.937006 -0.403268,0.391407 -0.948867,0.628624 -0.545598,0.225355 -1.174222,0.225355 -0.628623,0 -1.174222,-0.225355 Q 33.051438,11.871224 32.64817,11.479817 32.244902,11.076548 32.007685,10.542811 31.78233,9.9972131 31.78233,9.38045 Z"
           style="font-style:normal;font-variant:normal;font-weight:500;font-stretch:normal;font-size:11.8608284px;font-family:Avenir;-inkscape-font-specification:'Avenir Medium';letter-spacing:-0.11px;fill:#cc33ff;fill-opacity:1;stroke-width:1.11195266px"
           id="path844" /><path
           d="m 39.070522,3.2246801 h 1.067474 v 8.9667859 h -1.067474 z"
           style="font-style:normal;font-variant:normal;font-weight:500;font-stretch:normal;font-size:11.8608284px;font-family:Avenir;-inkscape-font-specification:'Avenir Medium';letter-spacing:-0.11px;fill:#cc33ff;fill-opacity:1;stroke-width:1.11195266px"
           id="path846" /><path
           d="m 42.53341,9.7718573 q 0,0.3676857 0.154191,0.6760677 0.166052,0.29652 0.42699,0.510015 0.260938,0.213495 0.604902,0.332103 0.343964,0.118609 0.71165,0.118609 0.498155,0 0.86584,-0.225356 0.367686,-0.237217 0.676068,-0.616763 l 0.806536,0.616763 q -0.889562,1.1505 -2.490774,1.1505 -0.664206,0 -1.209805,-0.225355 -0.533737,-0.225356 -0.913283,-0.616764 -0.367686,-0.403268 -0.56932,-0.937005 -0.201634,-0.545598 -0.201634,-1.174222 0,-0.6286239 0.213495,-1.1623612 0.225355,-0.5455981 0.604902,-0.9370054 0.391407,-0.4032682 0.925145,-0.6286239 0.533737,-0.2253558 1.162361,-0.2253558 0.747232,0 1.257248,0.2609383 0.521876,0.2609382 0.853979,0.687928 0.332103,0.415129 0.474433,0.9488663 0.154191,0.5218764 0.154191,1.0674745 V 9.7718573 Z M 45.901886,8.9178777 Q 45.890025,8.5620528 45.783277,8.2655321 45.688391,7.9690114 45.486757,7.7555165 45.285123,7.5301608 44.976741,7.4115525 44.68022,7.2810834 44.276952,7.2810834 q -0.391407,0 -0.72351,0.1541907 -0.320243,0.14233 -0.545599,0.3795466 -0.225355,0.2372165 -0.355824,0.5337372 -0.118609,0.2846599 -0.118609,0.5693198 z"
           style="font-style:normal;font-variant:normal;font-weight:500;font-stretch:normal;font-size:11.8608284px;font-family:Avenir;-inkscape-font-specification:'Avenir Medium';letter-spacing:-0.11px;fill:#cc33ff;fill-opacity:1;stroke-width:1.11195266px"
           id="path848" /><path
           d="M 52.239915,8.063898 Q 51.943394,7.7555165 51.611291,7.6013257 51.291048,7.4352741 50.840337,7.4352741 q -0.438851,0 -0.770954,0.1660516 -0.320242,0.1541908 -0.545598,0.4388507 -0.213495,0.272799 -0.332103,0.6404847 -0.106748,0.3558249 -0.106748,0.7472322 0,0.3914074 0.13047,0.7472327 0.130469,0.343964 0.367685,0.604902 0.237217,0.260938 0.56932,0.415129 0.332103,0.14233 0.747232,0.14233 0.450712,0 0.770954,-0.154191 0.320242,-0.166052 0.593041,-0.474433 l 0.759093,0.759093 q -0.415129,0.462572 -0.972587,0.664206 -0.545599,0.201634 -1.162362,0.201634 -0.652345,0 -1.197943,-0.213495 -0.533738,-0.213495 -0.925145,-0.593041 -0.391407,-0.391407 -0.604902,-0.925145 -0.213495,-0.545598 -0.213495,-1.1979433 0,-0.6523456 0.213495,-1.1979437 0.213495,-0.5455981 0.593041,-0.9370055 0.391408,-0.3914073 0.925145,-0.6049022 0.545598,-0.2253557 1.209804,-0.2253557 0.616763,0 1.174222,0.2253557 0.56932,0.2134949 0.984449,0.6642064 z"
           style="font-style:normal;font-variant:normal;font-weight:500;font-stretch:normal;font-size:11.8608284px;font-family:Avenir;-inkscape-font-specification:'Avenir Medium';letter-spacing:-0.11px;fill:#cc33ff;fill-opacity:1;stroke-width:1.11195266px"
           id="path850" /><path
           d="m 58.812565,12.191466 h -1.067474 v -0.86584 h -0.02372 q -0.201634,0.450711 -0.699789,0.735371 -0.498155,0.272799 -1.1505,0.272799 -0.415129,0 -0.782815,-0.130469 -0.367686,-0.118608 -0.652346,-0.379546 -0.272799,-0.260939 -0.43885,-0.664207 -0.166052,-0.415129 -0.166052,-0.972588 V 6.5694337 h 1.067475 v 3.3210319 q 0,0.3914074 0.106747,0.6760674 0.106748,0.272799 0.28466,0.450711 0.177912,0.166052 0.403268,0.249078 0.237217,0.07116 0.486294,0.07116 0.332103,0 0.616763,-0.106748 0.28466,-0.106747 0.498155,-0.332103 0.213495,-0.237217 0.332103,-0.593041 0.118609,-0.3558252 0.118609,-0.8421192 V 6.5694337 h 1.067474 z"
           style="font-style:normal;font-variant:normal;font-weight:500;font-stretch:normal;font-size:11.8608284px;font-family:Avenir;-inkscape-font-specification:'Avenir Medium';letter-spacing:-0.11px;fill:#cc33ff;fill-opacity:1;stroke-width:1.11195266px"
           id="path852" /><path
           d="m 60.406261,3.2246801 h 1.067475 v 8.9667859 h -1.067475 z"
           style="font-style:normal;font-variant:normal;font-weight:500;font-stretch:normal;font-size:11.8608284px;font-family:Avenir;-inkscape-font-specification:'Avenir Medium';letter-spacing:-0.11px;fill:#cc33ff;fill-opacity:1;stroke-width:1.11195266px"
           id="path854" /><path
           d="m 63.086337,7.2573617 q 0.450711,-0.415129 1.043753,-0.6167631 0.593041,-0.2134949 1.186082,-0.2134949 0.616764,0 1.055614,0.1541908 0.450712,0.1541908 0.735372,0.415129 0.284659,0.2609382 0.415129,0.6049022 0.142329,0.3321032 0.142329,0.6997889 v 2.8703204 q 0,0.296521 0.01186,0.545598 0.01186,0.249078 0.03558,0.474433 h -0.948866 q -0.03558,-0.426989 -0.03558,-0.853979 h -0.02372 q -0.355824,0.545598 -0.842118,0.770954 -0.486294,0.225355 -1.126779,0.225355 -0.391407,0 -0.747232,-0.106747 -0.355825,-0.106748 -0.628624,-0.320243 -0.260938,-0.213494 -0.415129,-0.521876 -0.154191,-0.320242 -0.154191,-0.735371 0,-0.545598 0.237217,-0.9132841 0.249077,-0.3676857 0.664206,-0.5930415 0.42699,-0.2372165 0.984449,-0.3321032 0.569319,-0.1067474 1.209804,-0.1067474 h 0.782815 V 8.4671662 q 0,-0.2134949 -0.08303,-0.4269898 Q 66.502255,7.8266815 66.336204,7.6606299 66.170152,7.4827175 65.921075,7.3878308 65.671997,7.2810834 65.328033,7.2810834 q -0.308381,0 -0.545598,0.059304 -0.225356,0.059304 -0.415129,0.1541908 -0.189773,0.083026 -0.343964,0.2016341 -0.154191,0.1186083 -0.296521,0.2253557 z m 3.01265,2.2298358 q -0.379546,0 -0.782815,0.047443 -0.391407,0.035583 -0.72351,0.1541907 -0.320242,0.1186083 -0.533737,0.3321035 -0.201634,0.213495 -0.201634,0.545598 0,0.486294 0.320242,0.699789 0.332103,0.213495 0.889562,0.213495 0.438851,0 0.747232,-0.14233 0.308382,-0.154191 0.498155,-0.391408 0.189773,-0.237216 0.272799,-0.521876 0.08303,-0.296521 0.08303,-0.5811807 V 9.4871975 Z"
           style="font-style:normal;font-variant:normal;font-weight:500;font-stretch:normal;font-size:11.8608284px;font-family:Avenir;-inkscape-font-specification:'Avenir Medium';letter-spacing:-0.11px;fill:#cc33ff;fill-opacity:1;stroke-width:1.11195266px"
           id="path856" /><path
           d="m 69.114686,6.5694337 h 1.067474 v 0.8658404 h 0.02372 q 0.106747,-0.2253557 0.28466,-0.4032681 0.177912,-0.1897733 0.391407,-0.3202424 0.225356,-0.1304691 0.486294,-0.2016341 0.260938,-0.083026 0.521877,-0.083026 0.260938,0 0.474433,0.071165 l -0.04744,1.1505004 q -0.130469,-0.035583 -0.260938,-0.059304 -0.130469,-0.023722 -0.260938,-0.023722 -0.782815,0 -1.197944,0.4388506 -0.415129,0.4388507 -0.415129,1.3639953 v 2.8228768 h -1.067474 z"
           style="font-style:normal;font-variant:normal;font-weight:500;font-stretch:normal;font-size:11.8608284px;font-family:Avenir;-inkscape-font-specification:'Avenir Medium';letter-spacing:-0.11px;fill:#cc33ff;fill-opacity:1;stroke-width:1.11195266px"
           id="path858" /><path
           d="m 76.752297,3.7939998 h 1.696098 l 2.668687,6.3574042 h 0.04744 L 83.80949,3.7939998 h 1.696098 V 12.191466 H 84.366949 V 5.2884642 h -0.02372 L 81.508489,12.191466 H 80.749396 L 77.914658,5.2884642 h -0.02372 v 6.9030018 h -1.138639 z"
           style="font-style:normal;font-variant:normal;font-weight:500;font-stretch:normal;font-size:11.8608284px;font-family:Avenir;-inkscape-font-specification:'Avenir Medium';letter-spacing:-0.11px;fill:#cc33ff;fill-opacity:1;stroke-width:1.11195266px"
           id="path860" /><path
           d="m 88.067242,9.38045 q 0,0.4269898 0.130469,0.794676 0.130469,0.355824 0.367686,0.616763 0.237216,0.249077 0.58118,0.403268 0.343964,0.14233 0.770954,0.14233 0.42699,0 0.770954,-0.14233 0.343964,-0.154191 0.581181,-0.403268 0.237216,-0.260939 0.367685,-0.616763 0.130469,-0.3676862 0.130469,-0.794676 0,-0.4269898 -0.130469,-0.7828147 Q 91.506882,8.2299496 91.269666,7.9808722 91.032449,7.719934 90.688485,7.5776041 90.344521,7.4234133 89.917531,7.4234133 q -0.42699,0 -0.770954,0.1541908 Q 88.802613,7.719934 88.565397,7.9808722 88.32818,8.2299496 88.197711,8.5976353 88.067242,8.9534602 88.067242,9.38045 Z m -1.13864,0 q 0,-0.6167631 0.225356,-1.1505004 0.237217,-0.5337372 0.640485,-0.9370054 0.403268,-0.4032682 0.948866,-0.6286239 0.545598,-0.2372166 1.174222,-0.2372166 0.628624,0 1.174222,0.2372166 0.545598,0.2253557 0.948866,0.6286239 0.403269,0.4032682 0.628624,0.9370054 0.237217,0.5337373 0.237217,1.1505004 0,0.6167631 -0.237217,1.162361 -0.225355,0.533737 -0.628624,0.937006 -0.403268,0.391407 -0.948866,0.628624 -0.545598,0.225355 -1.174222,0.225355 -0.628624,0 -1.174222,-0.225355 Q 88.197711,11.871224 87.794443,11.479817 87.391175,11.076548 87.153958,10.542811 86.928602,9.9972131 86.928602,9.38045 Z"
           style="font-style:normal;font-variant:normal;font-weight:500;font-stretch:normal;font-size:11.8608284px;font-family:Avenir;-inkscape-font-specification:'Avenir Medium';letter-spacing:-0.11px;fill:#cc33ff;fill-opacity:1;stroke-width:1.11195266px"
           id="path862" /><path
           d="M 99.76766,12.191466 H 98.700186 V 11.38493 h -0.02372 q -0.308381,0.450711 -0.85398,0.699789 -0.533737,0.249077 -1.103057,0.249077 -0.652345,0 -1.186082,-0.225355 -0.521877,-0.225356 -0.901423,-0.628624 -0.367686,-0.403269 -0.56932,-0.937006 -0.201634,-0.533737 -0.201634,-1.162361 0,-0.6286239 0.201634,-1.1623612 0.201634,-0.5455981 0.56932,-0.9370054 0.379546,-0.4032682 0.901423,-0.6286239 0.533737,-0.2253558 1.186082,-0.2253558 0.604903,0 1.13864,0.2609383 0.533737,0.2490774 0.818397,0.687928 h 0.02372 V 3.2246801 h 1.067474 z m -2.917764,-0.853979 q 0.42699,0 0.770954,-0.14233 0.343964,-0.154191 0.581181,-0.403268 0.237216,-0.260939 0.367686,-0.616763 0.130469,-0.3676862 0.130469,-0.794676 0,-0.4269898 -0.130469,-0.7828147 Q 98.439247,8.2299496 98.202031,7.9808722 97.964814,7.719934 97.62085,7.5776041 97.276886,7.4234133 96.849896,7.4234133 q -0.426989,0 -0.770953,0.1541908 -0.343964,0.1423299 -0.581181,0.4032681 -0.237217,0.2490774 -0.367686,0.6167631 -0.130469,0.3558249 -0.130469,0.7828147 0,0.4269898 0.130469,0.794676 0.130469,0.355824 0.367686,0.616763 0.237217,0.249077 0.581181,0.403268 0.343964,0.14233 0.770953,0.14233 z"
           style="font-style:normal;font-variant:normal;font-weight:500;font-stretch:normal;font-size:11.8608284px;font-family:Avenir;-inkscape-font-specification:'Avenir Medium';letter-spacing:-0.11px;fill:#cc33ff;fill-opacity:1;stroke-width:1.11195266px"
           id="path864" /><path
           d="m 102.08116,9.7718573 q 0,0.3676857 0.1542,0.6760677 0.16605,0.29652 0.42699,0.510015 0.26093,0.213495 0.6049,0.332103 0.34396,0.118609 0.71165,0.118609 0.49815,0 0.86584,-0.225356 0.36768,-0.237217 0.67606,-0.616763 l 0.80654,0.616763 q -0.88956,1.1505 -2.49077,1.1505 -0.66421,0 -1.20981,-0.225355 -0.53373,-0.225356 -0.91328,-0.616764 -0.36769,-0.403268 -0.56932,-0.937005 -0.20163,-0.545598 -0.20163,-1.174222 0,-0.6286239 0.21349,-1.1623612 0.22536,-0.5455981 0.6049,-0.9370054 0.39141,-0.4032682 0.92515,-0.6286239 0.53373,-0.2253558 1.16236,-0.2253558 0.74723,0 1.25725,0.2609383 0.52187,0.2609382 0.85398,0.687928 0.3321,0.415129 0.47443,0.9488663 0.15419,0.5218764 0.15419,1.0674745 v 0.3795465 z m 3.36848,-0.8539796 q -0.0119,-0.3558249 -0.11861,-0.6523456 -0.0949,-0.2965207 -0.29652,-0.5100156 -0.20163,-0.2253557 -0.51001,-0.343964 -0.29653,-0.1304691 -0.69979,-0.1304691 -0.39141,0 -0.72351,0.1541907 -0.32025,0.14233 -0.5456,0.3795466 -0.22536,0.2372165 -0.35583,0.5337372 -0.11861,0.2846599 -0.11861,0.5693198 z"
           style="font-style:normal;font-variant:normal;font-weight:500;font-stretch:normal;font-size:11.8608284px;font-family:Avenir;-inkscape-font-specification:'Avenir Medium';letter-spacing:-0.11px;fill:#cc33ff;fill-opacity:1;stroke-width:1.11195266px"
           id="path866" /><path
           d="m 107.84987,3.2246801 h 1.06748 v 8.9667859 h -1.06748 z"
           style="font-style:normal;font-variant:normal;font-weight:500;font-stretch:normal;font-size:11.8608284px;font-family:Avenir;-inkscape-font-specification:'Avenir Medium';letter-spacing:-0.11px;fill:#cc33ff;fill-opacity:1;stroke-width:1.11195266px"
           id="path868" /><path
           d="m 110.58925,6.5694337 h 1.06748 v 5.6220323 h -1.06748 z m -0.24908,-2.0163409 q 0,-0.3202423 0.22536,-0.5455981 0.23722,-0.2372165 0.55746,-0.2372165 0.32024,0 0.5456,0.2372165 0.23721,0.2253558 0.23721,0.5455981 0,0.3202424 -0.23721,0.557459 -0.22536,0.2253557 -0.5456,0.2253557 -0.32024,0 -0.55746,-0.2253557 -0.22536,-0.2372166 -0.22536,-0.557459 z"
           style="font-style:normal;font-variant:normal;font-weight:500;font-stretch:normal;font-size:11.8608284px;font-family:Avenir;-inkscape-font-specification:'Avenir Medium';letter-spacing:-0.11px;fill:#cc33ff;fill-opacity:1;stroke-width:1.11195266px"
           id="path870" /><path
           d="m 113.2456,6.5694337 h 1.06747 v 0.8658404 h 0.0237 q 0.20164,-0.4507114 0.69979,-0.7235105 0.49816,-0.2846599 1.1505,-0.2846599 0.40327,0 0.77096,0.1304691 0.37954,0.1186083 0.65234,0.3795466 0.28466,0.2609382 0.45071,0.6760672 0.16606,0.4032681 0.16606,0.9607271 v 3.6175523 h -1.06748 V 8.8704344 q 0,-0.3914074 -0.10675,-0.6642064 -0.10674,-0.2846599 -0.28466,-0.4507115 -0.17791,-0.1779124 -0.41512,-0.2490774 -0.22536,-0.083026 -0.47444,-0.083026 -0.3321,0 -0.61676,0.1067475 -0.28466,0.1067474 -0.49816,0.343964 -0.21349,0.2253557 -0.3321,0.5811806 -0.11861,0.3558248 -0.11861,0.8421188 v 2.8940418 h -1.06747 z"
           style="font-style:normal;font-variant:normal;font-weight:500;font-stretch:normal;font-size:11.8608284px;font-family:Avenir;-inkscape-font-specification:'Avenir Medium';letter-spacing:-0.11px;fill:#cc33ff;fill-opacity:1;stroke-width:1.11195266px"
           id="path872" /><path
           d="m 125.37172,12.144023 q 0,0.640485 -0.22536,1.162361 -0.21349,0.533737 -0.61676,0.913284 -0.40327,0.391407 -0.97259,0.604902 -0.56932,0.213495 -1.25725,0.213495 -0.80653,0 -1.4826,-0.225356 -0.66421,-0.225355 -1.26911,-0.782814 l 0.72351,-0.901423 q 0.41513,0.450711 0.90142,0.676067 0.4863,0.237217 1.10306,0.237217 0.59304,0 0.98445,-0.177913 0.39141,-0.166051 0.61676,-0.438851 0.23722,-0.272799 0.33211,-0.628623 0.0949,-0.343964 0.0949,-0.699789 v -0.830258 h -0.0356 q -0.30838,0.510015 -0.84212,0.759093 -0.52187,0.237216 -1.10306,0.237216 -0.61676,0 -1.1505,-0.213495 -0.52187,-0.225355 -0.90142,-0.604902 -0.37955,-0.391407 -0.59304,-0.913284 -0.21349,-0.5337369 -0.21349,-1.1505 0,-0.6167631 0.20163,-1.1505004 0.20163,-0.5455981 0.56932,-0.9488662 0.37955,-0.4032682 0.90142,-0.6286239 0.53374,-0.2253558 1.18608,-0.2253558 0.56932,0 1.10306,0.2490774 0.5456,0.2490774 0.85398,0.6997889 h 0.0237 V 6.5694337 h 1.06748 z m -2.91777,-4.7206097 q -0.42699,0 -0.77095,0.1541908 -0.34396,0.1423299 -0.58118,0.4032681 -0.23722,0.2490774 -0.36769,0.6167631 -0.13047,0.3558249 -0.13047,0.7828147 0,0.85398 0.49816,1.375856 0.49815,0.510016 1.35213,0.510016 0.85398,0 1.35214,-0.510016 0.49815,-0.521876 0.49815,-1.375856 0,-0.4269898 -0.13047,-0.7828147 -0.13047,-0.3676857 -0.36768,-0.6167631 -0.23722,-0.2609382 -0.58118,-0.4032681 -0.34397,-0.1541908 -0.77096,-0.1541908 z"
           style="font-style:normal;font-variant:normal;font-weight:500;font-stretch:normal;font-size:11.8608284px;font-family:Avenir;-inkscape-font-specification:'Avenir Medium';letter-spacing:-0.11px;fill:#cc33ff;fill-opacity:1;stroke-width:1.11195266px"
           id="path874" /></g><g
         id="g854"><path
           id="path239-0"
           d="m 7.9112309,3.9209957 c 0,0.821 0.6315385,1.4525384 1.4525384,1.4525384 0.8209997,0 1.4525387,-0.6315384 1.4525387,-1.4525384"
           stroke-miterlimit="10"
           inkscape:connector-curvature="0"
           style="fill:none;stroke:#cc33ff;stroke-width:1;stroke-miterlimit:10;stroke-opacity:1" /><path
           id="path241-8"
           d="M 11.953077,6.5103033"
           stroke-miterlimit="10"
           inkscape:connector-curvature="0"
           style="fill:none;stroke:#cc33ff;stroke-width:1;stroke-miterlimit:10;stroke-opacity:1" /><path
           id="path243-3"
           d="m 11.953077,3.9209957 c 0,0.821 0.631538,1.4525384 1.452538,1.4525384 0.821,0 1.452539,-0.6315384 1.452539,-1.4525384"
           stroke-miterlimit="10"
           inkscape:connector-curvature="0"
           style="fill:none;stroke:#cc33ff;stroke-width:1;stroke-miterlimit:10;stroke-opacity:1" /><path
           id="path245-7"
           d="M 15.994923,6.5103033"
           stroke-miterlimit="10"
           inkscape:connector-curvature="0"
           style="fill:none;stroke:#cc33ff;stroke-width:1;stroke-miterlimit:10;stroke-opacity:1" /><path
           id="path247-0"
           d="m 15.994923,3.9209957 c 0,0.821 0.631539,1.4525384 1.452539,1.4525384 0.821,0 1.452538,-0.6315384 1.452538,-1.4525384"
           stroke-miterlimit="10"
           inkscape:connector-curvature="0"
           style="fill:none;stroke:#cc33ff;stroke-width:1;stroke-miterlimit:10;stroke-opacity:1" /><path
           id="path249-1"
           d="m 7.9112309,12.130996 c 0,-0.821 0.6315385,-1.452539 1.4525384,-1.452539 0.8209997,0 1.4525387,0.631539 1.4525387,1.452539"
           stroke-miterlimit="10"
           inkscape:connector-curvature="0"
           style="fill:none;stroke:#cc33ff;stroke-width:1;stroke-miterlimit:10;stroke-opacity:1" /><path
           id="path251-3"
           d="m 11.953077,12.130996 c 0,-0.821 0.631538,-1.452539 1.452538,-1.452539 0.821,0 1.452539,0.631539 1.452539,1.452539"
           stroke-miterlimit="10"
           inkscape:connector-curvature="0"
           style="fill:none;stroke:#cc33ff;stroke-width:1;stroke-miterlimit:10;stroke-opacity:1" /><path
           id="path253-4"
           d="m 15.994923,12.130996 c 0,-0.821 0.631539,-1.452539 1.452539,-1.452539 0.821,0 1.452538,0.631539 1.452538,1.452539"
           stroke-miterlimit="10"
           inkscape:connector-curvature="0"
           style="fill:none;stroke:#cc33ff;stroke-width:1;stroke-miterlimit:10;stroke-opacity:1" /><path
           style="fill:none;stroke:#cc33ff;stroke-width:1;stroke-miterlimit:10;stroke-opacity:1"
           d="M 10.816308,8.0259953 A 1.4525384,1.4525384 0 0 1 9.3637695,9.4785336 1.4525384,1.4525384 0 0 1 7.9112312,8.0259953 1.4525384,1.4525384 0 0 1 9.3637695,6.5734569 1.4525384,1.4525384 0 0 1 10.816308,8.0259953 Z"
           id="circle255-3" /><path
           style="fill:none;stroke:#cc33ff;stroke-width:1;stroke-miterlimit:10;stroke-opacity:1"
           d="M 14.858154,8.0259953 A 1.4525384,1.4525384 0 0 1 13.405616,9.4785336 1.4525384,1.4525384 0 0 1 11.953077,8.0259953 1.4525384,1.4525384 0 0 1 13.405616,6.5734569 1.4525384,1.4525384 0 0 1 14.858154,8.0259953 Z"
           id="circle257-7" /><path
           style="fill:#cc33ff;fill-opacity:1;stroke:#cc33ff;stroke-width:1;stroke-miterlimit:10;stroke-opacity:1"
           d="M 18.9,8.0259953 A 1.4525384,1.4525384 0 0 1 17.447462,9.4785336 1.4525384,1.4525384 0 0 1 15.994924,8.0259953 1.4525384,1.4525384 0 0 1 17.447462,6.5734569 1.4525384,1.4525384 0 0 1 18.9,8.0259953 Z"
           id="circle259-7" /></g></g></g></svg>