<?xml version="1.0" encoding="UTF-8" standalone="no"?>
<!-- Generator: Adobe Illustrator 17.1.0, SVG Export Plug-In . SVG Version: 6.00 Build 0)  -->

<svg
   xmlns:dc="http://purl.org/dc/elements/1.1/"
   xmlns:cc="http://creativecommons.org/ns#"
   xmlns:rdf="http://www.w3.org/1999/02/22-rdf-syntax-ns#"
   xmlns:svg="http://www.w3.org/2000/svg"
   xmlns="http://www.w3.org/2000/svg"
   xmlns:sodipodi="http://sodipodi.sourceforge.net/DTD/sodipodi-0.dtd"
   xmlns:inkscape="http://www.inkscape.org/namespaces/inkscape"
   version="1.1"
   id="Layer_1"
   x="0px"
   y="0px"
   width="171.03918"
   height="11.267787"
   viewBox="0 0 171.0392 11.267786"
   enable-background="new 0 0 240 40"
   xml:space="preserve"
   sodipodi:docname="sw-icon-time-domain-menu-outline.svg"
   inkscape:version="0.92.2 5c3e80d, 2017-08-06"><metadata
     id="metadata362"><rdf:RDF><cc:Work
         rdf:about=""><dc:format>image/svg+xml</dc:format><dc:type
           rdf:resource="http://purl.org/dc/dcmitype/StillImage" /><dc:title></dc:title></cc:Work></rdf:RDF></metadata><defs
     id="defs360" /><sodipodi:namedview
     pagecolor="#ffffff"
     bordercolor="#666666"
     borderopacity="1"
     objecttolerance="10"
     gridtolerance="10"
     guidetolerance="10"
     inkscape:pageopacity="0"
     inkscape:pageshadow="2"
     inkscape:window-width="1920"
     inkscape:window-height="1156"
     id="namedview358"
     showgrid="false"
     fit-margin-top="0"
     fit-margin-left="0"
     fit-margin-right="0"
     fit-margin-bottom="0"
     inkscape:zoom="28.95205"
     inkscape:cx="8.2413028"
     inkscape:cy="-0.55152798"
     inkscape:window-x="0"
     inkscape:window-y="81"
     inkscape:window-maximized="0"
     inkscape:current-layer="g8621"
     inkscape:pagecheckerboard="true" /><g
     id="g8621"
     transform="translate(-7.4112309,-3.7702782)"><g
       id="g917"><g
         aria-label="Time-Domain Data Processing"
         style="font-style:normal;font-variant:normal;font-weight:normal;font-stretch:normal;font-size:26.68686295px;line-height:125%;font-family:Calibri;-inkscape-font-specification:'Calibri, Normal';text-align:justify;letter-spacing:0px;word-spacing:0px;writing-mode:lr-tb;text-anchor:start;fill:#33cc33;fill-opacity:1;stroke:none;stroke-width:1.11195266px;stroke-linecap:butt;stroke-linejoin:miter;stroke-opacity:1"
         id="text862"><path
           d="M 23.444454,4.8614744 H 20.740186 V 3.7939998 h 6.547177 v 1.0674746 h -2.704269 v 7.3299916 h -1.13864 z"
           style="font-style:normal;font-variant:normal;font-weight:500;font-stretch:normal;font-size:11.8608284px;font-family:Avenir;-inkscape-font-specification:'Avenir Medium';letter-spacing:-0.11px;fill:#33cc33;fill-opacity:1;stroke-width:1.11195266px"
           id="path827" /><path
           d="m 28.199988,6.5694337 h 1.067475 V 12.191466 H 28.199988 Z M 27.950911,4.5530928 q 0,-0.3202423 0.225356,-0.5455981 0.237216,-0.2372165 0.557459,-0.2372165 0.320242,0 0.545598,0.2372165 0.237216,0.2253558 0.237216,0.5455981 0,0.3202424 -0.237216,0.557459 -0.225356,0.2253557 -0.545598,0.2253557 -0.320243,0 -0.557459,-0.2253557 -0.225356,-0.2372166 -0.225356,-0.557459 z"
           style="font-style:normal;font-variant:normal;font-weight:500;font-stretch:normal;font-size:11.8608284px;font-family:Avenir;-inkscape-font-specification:'Avenir Medium';letter-spacing:-0.11px;fill:#33cc33;fill-opacity:1;stroke-width:1.11195266px"
           id="path829" /><path
           d="m 30.856341,6.5694337 h 0.99631 V 7.447135 h 0.02372 q 0.03558,-0.1186083 0.177913,-0.2965207 0.15419,-0.1779125 0.379546,-0.3321032 0.237217,-0.1660516 0.545598,-0.2727991 0.320243,-0.1186083 0.699789,-0.1186083 0.628624,0 1.055614,0.2609383 0.42699,0.2609382 0.699789,0.7828146 0.272799,-0.5218764 0.770954,-0.7828146 0.498154,-0.2609383 1.00817,-0.2609383 0.652346,0 1.067475,0.2134949 0.415129,0.213495 0.652345,0.5693198 0.237217,0.343964 0.320243,0.7946755 0.09489,0.4388507 0.09489,0.9132838 V 12.191466 H 38.28122 V 9.0602076 q 0,-0.3202423 -0.04744,-0.616763 -0.03558,-0.2965208 -0.166051,-0.5218765 -0.130469,-0.2253557 -0.367686,-0.3558248 -0.237217,-0.14233 -0.628624,-0.14233 -0.770954,0 -1.103057,0.4744332 -0.332103,0.4744331 -0.332103,1.2216653 V 12.191466 H 34.56878 V 9.2499809 q 0,-0.4032682 -0.04744,-0.7353714 -0.03558,-0.3321032 -0.166052,-0.5693197 -0.118608,-0.2490774 -0.355824,-0.3795465 -0.225356,-0.14233 -0.616764,-0.14233 -0.284659,0 -0.557458,0.1186083 -0.260939,0.1067475 -0.462573,0.3321032 -0.201634,0.2253557 -0.320242,0.5811806 -0.118608,0.343964 -0.118608,0.8183971 v 2.9177635 h -1.067475 z"
           style="font-style:normal;font-variant:normal;font-weight:500;font-stretch:normal;font-size:11.8608284px;font-family:Avenir;-inkscape-font-specification:'Avenir Medium';letter-spacing:-0.11px;fill:#33cc33;fill-opacity:1;stroke-width:1.11195266px"
           id="path831" /><path
           d="m 41.653114,9.7718573 q 0,0.3676857 0.15419,0.6760677 0.166052,0.29652 0.42699,0.510015 0.260938,0.213495 0.604902,0.332103 0.343964,0.118609 0.71165,0.118609 0.498155,0 0.865841,-0.225356 0.367685,-0.237217 0.676067,-0.616763 l 0.806536,0.616763 q -0.889562,1.1505 -2.490774,1.1505 -0.664206,0 -1.209804,-0.225355 -0.533738,-0.225356 -0.913284,-0.616764 -0.367686,-0.403268 -0.56932,-0.937005 -0.201634,-0.545598 -0.201634,-1.174222 0,-0.6286239 0.213495,-1.1623612 0.225356,-0.5455981 0.604902,-0.9370054 0.391408,-0.4032682 0.925145,-0.6286239 0.533737,-0.2253558 1.162361,-0.2253558 0.747232,0 1.257248,0.2609383 0.521876,0.2609382 0.85398,0.687928 0.332103,0.415129 0.474433,0.9488663 0.15419,0.5218764 0.15419,1.0674745 V 9.7718573 Z M 45.021589,8.9178777 Q 45.009728,8.5620528 44.902981,8.2655321 44.808094,7.9690114 44.60646,7.7555165 44.404826,7.5301608 44.096444,7.4115525 43.799924,7.2810834 43.396655,7.2810834 q -0.391407,0 -0.72351,0.1541907 -0.320242,0.14233 -0.545598,0.3795466 -0.225356,0.2372165 -0.355825,0.5337372 -0.118608,0.2846599 -0.118608,0.5693198 z"
           style="font-style:normal;font-variant:normal;font-weight:500;font-stretch:normal;font-size:11.8608284px;font-family:Avenir;-inkscape-font-specification:'Avenir Medium';letter-spacing:-0.11px;fill:#33cc33;fill-opacity:1;stroke-width:1.11195266px"
           id="path833" /><path
           d="M 49.865154,9.8193007 H 46.94739 V 8.8229911 h 2.917764 z"
           style="font-style:normal;font-variant:normal;font-weight:500;font-stretch:normal;font-size:11.8608284px;font-family:Avenir;-inkscape-font-specification:'Avenir Medium';letter-spacing:-0.11px;fill:#33cc33;fill-opacity:1;stroke-width:1.11195266px"
           id="path835" /><path
           d="m 51.064662,3.7939998 h 2.929625 q 0.889562,0 1.553769,0.2016341 0.676067,0.2016341 1.162361,0.5455981 0.498155,0.3321032 0.818397,0.7709539 0.332103,0.4388506 0.521876,0.9014229 0.189774,0.4625723 0.272799,0.9251446 0.08303,0.4625723 0.08303,0.8539797 0,0.8065363 -0.29652,1.5656293 -0.296521,0.7472326 -0.877702,1.3402736 -0.58118,0.581181 -1.447021,0.937005 -0.853979,0.355825 -1.980758,0.355825 h -2.739852 z m 1.13864,7.3299922 h 1.43516 q 0.723511,0 1.363995,-0.189773 0.652346,-0.201635 1.13864,-0.593042 0.486294,-0.3914072 0.770954,-0.9725878 0.28466,-0.5930414 0.28466,-1.3758561 0,-0.4032682 -0.130469,-0.9370055 -0.130469,-0.5455981 -0.498155,-1.031892 -0.355825,-0.486294 -0.99631,-0.8183972 -0.640484,-0.343964 -1.660516,-0.343964 h -1.707959 z"
           style="font-style:normal;font-variant:normal;font-weight:500;font-stretch:normal;font-size:11.8608284px;font-family:Avenir;-inkscape-font-specification:'Avenir Medium';letter-spacing:-0.11px;fill:#33cc33;fill-opacity:1;stroke-width:1.11195266px"
           id="path837" /><path
           d="m 60.517269,9.38045 q 0,0.4269898 0.130469,0.794676 0.13047,0.355824 0.367686,0.616763 0.237217,0.249077 0.581181,0.403268 0.343964,0.14233 0.770954,0.14233 0.426989,0 0.770953,-0.14233 0.343964,-0.154191 0.581181,-0.403268 0.237217,-0.260939 0.367686,-0.616763 0.130469,-0.3676862 0.130469,-0.794676 0,-0.4269898 -0.130469,-0.7828147 Q 63.95691,8.2299496 63.719693,7.9808722 63.482476,7.719934 63.138512,7.5776041 62.794548,7.4234133 62.367559,7.4234133 q -0.42699,0 -0.770954,0.1541908 Q 61.252641,7.719934 61.015424,7.9808722 60.778208,8.2299496 60.647738,8.5976353 60.517269,8.9534602 60.517269,9.38045 Z m -1.138639,0 q 0,-0.6167631 0.225356,-1.1505004 0.237216,-0.5337372 0.640484,-0.9370054 0.403268,-0.4032682 0.948867,-0.6286239 0.545598,-0.2372166 1.174222,-0.2372166 0.628623,0 1.174222,0.2372166 0.545598,0.2253557 0.948866,0.6286239 0.403268,0.4032682 0.628624,0.9370054 0.237216,0.5337373 0.237216,1.1505004 0,0.6167631 -0.237216,1.162361 -0.225356,0.533737 -0.628624,0.937006 -0.403268,0.391407 -0.948866,0.628624 -0.545599,0.225355 -1.174222,0.225355 -0.628624,0 -1.174222,-0.225355 Q 60.647738,11.871224 60.24447,11.479817 59.841202,11.076548 59.603986,10.542811 59.37863,9.9972131 59.37863,9.38045 Z"
           style="font-style:normal;font-variant:normal;font-weight:500;font-stretch:normal;font-size:11.8608284px;font-family:Avenir;-inkscape-font-specification:'Avenir Medium';letter-spacing:-0.11px;fill:#33cc33;fill-opacity:1;stroke-width:1.11195266px"
           id="path839" /><path
           d="m 66.583798,6.5694337 h 0.99631 V 7.447135 h 0.02372 q 0.03558,-0.1186083 0.177913,-0.2965207 0.154191,-0.1779125 0.379546,-0.3321032 0.237217,-0.1660516 0.545598,-0.2727991 0.320243,-0.1186083 0.699789,-0.1186083 0.628624,0 1.055614,0.2609383 0.42699,0.2609382 0.699789,0.7828146 0.272799,-0.5218764 0.770954,-0.7828146 0.498154,-0.2609383 1.00817,-0.2609383 0.652346,0 1.067475,0.2134949 0.415129,0.213495 0.652345,0.5693198 0.237217,0.343964 0.320243,0.7946755 0.09489,0.4388507 0.09489,0.9132838 V 12.191466 H 74.008677 V 9.0602076 q 0,-0.3202423 -0.04744,-0.616763 -0.03558,-0.2965208 -0.166051,-0.5218765 -0.130469,-0.2253557 -0.367686,-0.3558248 -0.237217,-0.14233 -0.628624,-0.14233 -0.770954,0 -1.103057,0.4744332 -0.332103,0.4744331 -0.332103,1.2216653 V 12.191466 H 70.296237 V 9.2499809 q 0,-0.4032682 -0.04744,-0.7353714 -0.03558,-0.3321032 -0.166052,-0.5693197 -0.118608,-0.2490774 -0.355824,-0.3795465 -0.225356,-0.14233 -0.616763,-0.14233 -0.28466,0 -0.557459,0.1186083 -0.260939,0.1067475 -0.462573,0.3321032 -0.201634,0.2253557 -0.320242,0.5811806 -0.118608,0.343964 -0.118608,0.8183971 v 2.9177635 h -1.067475 z"
           style="font-style:normal;font-variant:normal;font-weight:500;font-stretch:normal;font-size:11.8608284px;font-family:Avenir;-inkscape-font-specification:'Avenir Medium';letter-spacing:-0.11px;fill:#33cc33;fill-opacity:1;stroke-width:1.11195266px"
           id="path841" /><path
           d="m 76.597754,7.2573617 q 0.450712,-0.415129 1.043753,-0.6167631 0.593041,-0.2134949 1.186083,-0.2134949 0.616763,0 1.055614,0.1541908 0.450711,0.1541908 0.735371,0.415129 0.28466,0.2609382 0.415129,0.6049022 0.14233,0.3321032 0.14233,0.6997889 v 2.8703204 q 0,0.296521 0.01186,0.545598 0.01186,0.249078 0.03558,0.474433 h -0.948866 q -0.03558,-0.426989 -0.03558,-0.853979 h -0.02372 q -0.355825,0.545598 -0.842119,0.770954 -0.486294,0.225355 -1.126779,0.225355 -0.391407,0 -0.747232,-0.106747 -0.355825,-0.106748 -0.628624,-0.320243 -0.260938,-0.213494 -0.415129,-0.521876 -0.154191,-0.320242 -0.154191,-0.735371 0,-0.545598 0.237217,-0.9132841 0.249077,-0.3676857 0.664206,-0.5930415 0.42699,-0.2372165 0.984449,-0.3321032 0.56932,-0.1067474 1.209805,-0.1067474 h 0.782814 V 8.4671662 q 0,-0.2134949 -0.08303,-0.4269898 Q 80.013673,7.8266815 79.847621,7.6606299 79.681569,7.4827175 79.432492,7.3878308 79.183415,7.2810834 78.839451,7.2810834 q -0.308382,0 -0.545598,0.059304 -0.225356,0.059304 -0.415129,0.1541908 -0.189774,0.083026 -0.343964,0.2016341 -0.154191,0.1186083 -0.296521,0.2253557 z m 3.012651,2.2298358 q -0.379547,0 -0.782815,0.047443 -0.391408,0.035583 -0.723511,0.1541907 -0.320242,0.1186083 -0.533737,0.3321035 -0.201634,0.213495 -0.201634,0.545598 0,0.486294 0.320242,0.699789 0.332104,0.213495 0.889562,0.213495 0.438851,0 0.747233,-0.14233 0.308381,-0.154191 0.498154,-0.391408 0.189774,-0.237216 0.272799,-0.521876 0.08303,-0.296521 0.08303,-0.5811807 V 9.4871975 Z"
           style="font-style:normal;font-variant:normal;font-weight:500;font-stretch:normal;font-size:11.8608284px;font-family:Avenir;-inkscape-font-specification:'Avenir Medium';letter-spacing:-0.11px;fill:#33cc33;fill-opacity:1;stroke-width:1.11195266px"
           id="path843" /><path
           d="m 82.709133,6.5694337 h 1.067474 V 12.191466 H 82.709133 Z M 82.460055,4.5530928 q 0,-0.3202423 0.225356,-0.5455981 0.237217,-0.2372165 0.557459,-0.2372165 0.320242,0 0.545598,0.2372165 0.237217,0.2253558 0.237217,0.5455981 0,0.3202424 -0.237217,0.557459 -0.225356,0.2253557 -0.545598,0.2253557 -0.320242,0 -0.557459,-0.2253557 -0.225356,-0.2372166 -0.225356,-0.557459 z"
           style="font-style:normal;font-variant:normal;font-weight:500;font-stretch:normal;font-size:11.8608284px;font-family:Avenir;-inkscape-font-specification:'Avenir Medium';letter-spacing:-0.11px;fill:#33cc33;fill-opacity:1;stroke-width:1.11195266px"
           id="path845" /><path
           d="m 85.365483,6.5694337 h 1.067474 v 0.8658404 h 0.02372 q 0.201634,-0.4507114 0.699789,-0.7235105 0.498155,-0.2846599 1.1505,-0.2846599 0.403269,0 0.770954,0.1304691 0.379547,0.1186083 0.652346,0.3795466 0.28466,0.2609382 0.450711,0.6760672 0.166052,0.4032681 0.166052,0.9607271 V 12.191466 H 89.279556 V 8.8704344 q 0,-0.3914074 -0.106747,-0.6642064 -0.106748,-0.2846599 -0.28466,-0.4507115 -0.177912,-0.1779124 -0.415129,-0.2490774 -0.225356,-0.083026 -0.474433,-0.083026 -0.332103,0 -0.616763,0.1067475 -0.28466,0.1067474 -0.498155,0.343964 -0.213495,0.2253557 -0.332103,0.5811806 -0.118609,0.3558248 -0.118609,0.8421188 v 2.8940418 h -1.067474 z"
           style="font-style:normal;font-variant:normal;font-weight:500;font-stretch:normal;font-size:11.8608284px;font-family:Avenir;-inkscape-font-specification:'Avenir Medium';letter-spacing:-0.11px;fill:#33cc33;fill-opacity:1;stroke-width:1.11195266px"
           id="path847" /><path
           d="m 95.120258,3.7939998 h 2.929624 q 0.889563,0 1.553769,0.2016341 0.676069,0.2016341 1.162359,0.5455981 0.49816,0.3321032 0.8184,0.7709539 0.3321,0.4388506 0.52188,0.9014229 0.18977,0.4625723 0.27279,0.9251446 0.083,0.4625723 0.083,0.8539797 0,0.8065363 -0.29652,1.5656293 -0.29652,0.7472326 -0.8777,1.3402736 -0.58118,0.581181 -1.447022,0.937005 -0.85398,0.355825 -1.980759,0.355825 h -2.739851 z m 1.138639,7.3299922 h 1.435161 q 0.72351,0 1.363995,-0.189773 0.652345,-0.201635 1.138637,-0.593042 0.4863,-0.3914072 0.77096,-0.9725878 0.28466,-0.5930414 0.28466,-1.3758561 0,-0.4032682 -0.13047,-0.9370055 -0.13047,-0.5455981 -0.49816,-1.031892 -0.35582,-0.486294 -0.996307,-0.8183972 -0.640485,-0.343964 -1.660516,-0.343964 h -1.70796 z"
           style="font-style:normal;font-variant:normal;font-weight:500;font-stretch:normal;font-size:11.8608284px;font-family:Avenir;-inkscape-font-specification:'Avenir Medium';letter-spacing:-0.11px;fill:#33cc33;fill-opacity:1;stroke-width:1.11195266px"
           id="path849" /><path
           d="m 103.73075,7.2573617 q 0.45071,-0.415129 1.04375,-0.6167631 0.59304,-0.2134949 1.18608,-0.2134949 0.61676,0 1.05562,0.1541908 0.45071,0.1541908 0.73537,0.415129 0.28466,0.2609382 0.41513,0.6049022 0.14233,0.3321032 0.14233,0.6997889 v 2.8703204 q 0,0.296521 0.0119,0.545598 0.0119,0.249078 0.0356,0.474433 h -0.94887 q -0.0356,-0.426989 -0.0356,-0.853979 h -0.0237 q -0.35583,0.545598 -0.84212,0.770954 -0.48629,0.225355 -1.12678,0.225355 -0.39141,0 -0.74723,-0.106747 -0.35583,-0.106748 -0.62863,-0.320243 -0.26093,-0.213494 -0.41512,-0.521876 -0.15419,-0.320242 -0.15419,-0.735371 0,-0.545598 0.23721,-0.9132841 0.24908,-0.3676857 0.66421,-0.5930415 0.42699,-0.2372165 0.98445,-0.3321032 0.56932,-0.1067474 1.2098,-0.1067474 h 0.78282 V 8.4671662 q 0,-0.2134949 -0.083,-0.4269898 -0.083,-0.2134949 -0.24908,-0.3795465 -0.16605,-0.1779124 -0.41513,-0.2727991 -0.24907,-0.1067474 -0.59304,-0.1067474 -0.30838,0 -0.5456,0.059304 -0.22535,0.059304 -0.41512,0.1541908 -0.18978,0.083026 -0.34397,0.2016341 -0.15419,0.1186083 -0.29652,0.2253557 z m 3.01265,2.2298358 q -0.37955,0 -0.78282,0.047443 -0.39141,0.035583 -0.72351,0.1541907 -0.32024,0.1186083 -0.53374,0.3321035 -0.20163,0.213495 -0.20163,0.545598 0,0.486294 0.32024,0.699789 0.33211,0.213495 0.88956,0.213495 0.43885,0 0.74724,-0.14233 0.30838,-0.154191 0.49815,-0.391408 0.18977,-0.237216 0.2728,-0.521876 0.083,-0.296521 0.083,-0.5811807 V 9.4871975 Z"
           style="font-style:normal;font-variant:normal;font-weight:500;font-stretch:normal;font-size:11.8608284px;font-family:Avenir;-inkscape-font-specification:'Avenir Medium';letter-spacing:-0.11px;fill:#33cc33;fill-opacity:1;stroke-width:1.11195266px"
           id="path851" /><path
           d="m 112.77175,7.4945783 h -1.53005 v 2.5500777 q 0,0.237217 0.0119,0.474434 0.0119,0.225355 0.083,0.415129 0.083,0.177912 0.23721,0.29652 0.16605,0.106748 0.47443,0.106748 0.18978,0 0.39141,-0.03558 0.20164,-0.03558 0.36769,-0.130469 v 0.972588 q -0.18978,0.106747 -0.49816,0.14233 -0.29652,0.04744 -0.46257,0.04744 -0.61676,0 -0.96073,-0.166051 -0.3321,-0.177913 -0.49815,-0.450712 -0.15419,-0.272799 -0.18977,-0.604902 -0.0237,-0.343964 -0.0237,-0.687928 V 7.4945783 H 108.9407 V 6.5694337 h 1.23352 V 4.9919435 h 1.06748 v 1.5774902 h 1.53005 z"
           style="font-style:normal;font-variant:normal;font-weight:500;font-stretch:normal;font-size:11.8608284px;font-family:Avenir;-inkscape-font-specification:'Avenir Medium';letter-spacing:-0.11px;fill:#33cc33;fill-opacity:1;stroke-width:1.11195266px"
           id="path853" /><path
           d="m 114.05113,7.2573617 q 0.45071,-0.415129 1.04375,-0.6167631 0.59304,-0.2134949 1.18608,-0.2134949 0.61677,0 1.05562,0.1541908 0.45071,0.1541908 0.73537,0.415129 0.28466,0.2609382 0.41513,0.6049022 0.14233,0.3321032 0.14233,0.6997889 v 2.8703204 q 0,0.296521 0.0119,0.545598 0.0119,0.249078 0.0356,0.474433 h -0.94887 q -0.0356,-0.426989 -0.0356,-0.853979 h -0.0237 q -0.35583,0.545598 -0.84212,0.770954 -0.48629,0.225355 -1.12678,0.225355 -0.39141,0 -0.74723,-0.106747 -0.35582,-0.106748 -0.62862,-0.320243 -0.26094,-0.213494 -0.41513,-0.521876 -0.15419,-0.320242 -0.15419,-0.735371 0,-0.545598 0.23721,-0.9132841 0.24908,-0.3676857 0.66421,-0.5930415 0.42699,-0.2372165 0.98445,-0.3321032 0.56932,-0.1067474 1.2098,-0.1067474 h 0.78282 V 8.4671662 q 0,-0.2134949 -0.083,-0.4269898 -0.083,-0.2134949 -0.24908,-0.3795465 -0.16605,-0.1779124 -0.41512,-0.2727991 -0.24908,-0.1067474 -0.59305,-0.1067474 -0.30838,0 -0.54559,0.059304 -0.22536,0.059304 -0.41513,0.1541908 -0.18978,0.083026 -0.34397,0.2016341 -0.15419,0.1186083 -0.29652,0.2253557 z m 3.01265,2.2298358 q -0.37955,0 -0.78282,0.047443 -0.3914,0.035583 -0.72351,0.1541907 -0.32024,0.1186083 -0.53374,0.3321035 -0.20163,0.213495 -0.20163,0.545598 0,0.486294 0.32024,0.699789 0.33211,0.213495 0.88957,0.213495 0.43885,0 0.74723,-0.14233 0.30838,-0.154191 0.49815,-0.391408 0.18978,-0.237216 0.2728,-0.521876 0.083,-0.296521 0.083,-0.5811807 V 9.4871975 Z"
           style="font-style:normal;font-variant:normal;font-weight:500;font-stretch:normal;font-size:11.8608284px;font-family:Avenir;-inkscape-font-specification:'Avenir Medium';letter-spacing:-0.11px;fill:#33cc33;fill-opacity:1;stroke-width:1.11195266px"
           id="path855" /><path
           d="m 123.5318,3.7939998 h 2.95335 q 0.80653,0 1.32841,0.2253558 0.52188,0.2134949 0.8184,0.5574589 0.30838,0.3321032 0.42699,0.759093 0.11861,0.415129 0.11861,0.8065363 0,0.3914074 -0.11861,0.8183972 -0.11861,0.415129 -0.42699,0.759093 -0.29652,0.3321032 -0.8184,0.557459 -0.52188,0.2134949 -1.32841,0.2134949 h -1.81471 v 3.7005781 h -1.13864 z m 1.13864,3.7005785 h 1.49447 q 0.3321,0 0.65234,-0.047443 0.33211,-0.059304 0.58118,-0.2016341 0.26094,-0.14233 0.41513,-0.4032682 0.15419,-0.272799 0.15419,-0.6997889 0,-0.4269898 -0.15419,-0.687928 -0.15419,-0.2727991 -0.41513,-0.415129 -0.24907,-0.1423299 -0.58118,-0.1897732 -0.32024,-0.059304 -0.65234,-0.059304 h -1.49447 z"
           style="font-style:normal;font-variant:normal;font-weight:500;font-stretch:normal;font-size:11.8608284px;font-family:Avenir;-inkscape-font-specification:'Avenir Medium';letter-spacing:-0.11px;fill:#33cc33;fill-opacity:1;stroke-width:1.11195266px"
           id="path857" /><path
           d="m 130.19137,6.5694337 h 1.06747 v 0.8658404 h 0.0237 q 0.10675,-0.2253557 0.28466,-0.4032681 0.17792,-0.1897733 0.39141,-0.3202424 0.22536,-0.1304691 0.4863,-0.2016341 0.26093,-0.083026 0.52187,-0.083026 0.26094,0 0.47444,0.071165 l -0.0474,1.1505004 q -0.13047,-0.035583 -0.26094,-0.059304 -0.13046,-0.023722 -0.26093,-0.023722 -0.78282,0 -1.19795,0.4388506 -0.41513,0.4388507 -0.41513,1.3639953 v 2.8228768 h -1.06747 z"
           style="font-style:normal;font-variant:normal;font-weight:500;font-stretch:normal;font-size:11.8608284px;font-family:Avenir;-inkscape-font-specification:'Avenir Medium';letter-spacing:-0.11px;fill:#33cc33;fill-opacity:1;stroke-width:1.11195266px"
           id="path859" /><path
           d="m 135.11704,9.38045 q 0,0.4269898 0.13047,0.794676 0.13047,0.355824 0.36768,0.616763 0.23722,0.249077 0.58118,0.403268 0.34397,0.14233 0.77096,0.14233 0.42699,0 0.77095,-0.14233 0.34397,-0.154191 0.58118,-0.403268 0.23722,-0.260939 0.36769,-0.616763 0.13047,-0.3676862 0.13047,-0.794676 0,-0.4269898 -0.13047,-0.7828147 -0.13047,-0.3676857 -0.36769,-0.6167631 -0.23721,-0.2609382 -0.58118,-0.4032681 -0.34396,-0.1541908 -0.77095,-0.1541908 -0.42699,0 -0.77096,0.1541908 -0.34396,0.1423299 -0.58118,0.4032681 -0.23721,0.2490774 -0.36768,0.6167631 -0.13047,0.3558249 -0.13047,0.7828147 z m -1.13864,0 q 0,-0.6167631 0.22536,-1.1505004 0.23721,-0.5337372 0.64048,-0.9370054 0.40327,-0.4032682 0.94887,-0.6286239 0.54559,-0.2372166 1.17422,-0.2372166 0.62862,0 1.17422,0.2372166 0.5456,0.2253557 0.94887,0.6286239 0.40326,0.4032682 0.62862,0.9370054 0.23722,0.5337373 0.23722,1.1505004 0,0.6167631 -0.23722,1.162361 -0.22536,0.533737 -0.62862,0.937006 -0.40327,0.391407 -0.94887,0.628624 -0.5456,0.225355 -1.17422,0.225355 -0.62863,0 -1.17422,-0.225355 -0.5456,-0.237217 -0.94887,-0.628624 -0.40327,-0.403269 -0.64048,-0.937006 Q 133.9784,9.9972131 133.9784,9.38045 Z"
           style="font-style:normal;font-variant:normal;font-weight:500;font-stretch:normal;font-size:11.8608284px;font-family:Avenir;-inkscape-font-specification:'Avenir Medium';letter-spacing:-0.11px;fill:#33cc33;fill-opacity:1;stroke-width:1.11195266px"
           id="path861" /><path
           d="m 145.20438,8.063898 q -0.29652,-0.3083815 -0.62862,-0.4625723 -0.32024,-0.1660516 -0.77095,-0.1660516 -0.43885,0 -0.77096,0.1660516 -0.32024,0.1541908 -0.5456,0.4388507 -0.21349,0.272799 -0.3321,0.6404847 -0.10675,0.3558249 -0.10675,0.7472322 0,0.3914074 0.13047,0.7472327 0.13047,0.343964 0.36769,0.604902 0.23722,0.260938 0.56932,0.415129 0.3321,0.14233 0.74723,0.14233 0.45071,0 0.77095,-0.154191 0.32025,-0.166052 0.59305,-0.474433 l 0.75909,0.759093 q -0.41513,0.462572 -0.97259,0.664206 -0.5456,0.201634 -1.16236,0.201634 -0.65235,0 -1.19794,-0.213495 -0.53374,-0.213495 -0.92515,-0.593041 -0.39141,-0.391407 -0.6049,-0.925145 -0.2135,-0.545598 -0.2135,-1.1979433 0,-0.6523456 0.2135,-1.1979437 0.21349,-0.5455981 0.59304,-0.9370055 0.39141,-0.3914073 0.92515,-0.6049022 0.54559,-0.2253557 1.2098,-0.2253557 0.61676,0 1.17422,0.2253557 0.56932,0.2134949 0.98445,0.6642064 z"
           style="font-style:normal;font-variant:normal;font-weight:500;font-stretch:normal;font-size:11.8608284px;font-family:Avenir;-inkscape-font-specification:'Avenir Medium';letter-spacing:-0.11px;fill:#33cc33;fill-opacity:1;stroke-width:1.11195266px"
           id="path863" /><path
           d="m 147.60202,9.7718573 q 0,0.3676857 0.15419,0.6760677 0.16606,0.29652 0.42699,0.510015 0.26094,0.213495 0.60491,0.332103 0.34396,0.118609 0.71165,0.118609 0.49815,0 0.86584,-0.225356 0.36768,-0.237217 0.67606,-0.616763 l 0.80654,0.616763 q -0.88956,1.1505 -2.49077,1.1505 -0.66421,0 -1.20981,-0.225355 -0.53374,-0.225356 -0.91328,-0.616764 -0.36769,-0.403268 -0.56932,-0.937005 -0.20164,-0.545598 -0.20164,-1.174222 0,-0.6286239 0.2135,-1.1623612 0.22535,-0.5455981 0.6049,-0.9370054 0.39141,-0.4032682 0.92515,-0.6286239 0.53373,-0.2253558 1.16236,-0.2253558 0.74723,0 1.25724,0.2609383 0.52188,0.2609382 0.85398,0.687928 0.33211,0.415129 0.47444,0.9488663 0.15419,0.5218764 0.15419,1.0674745 v 0.3795465 z m 3.36848,-0.8539796 q -0.0119,-0.3558249 -0.11861,-0.6523456 -0.0949,-0.2965207 -0.29652,-0.5100156 -0.20163,-0.2253557 -0.51002,-0.343964 -0.29652,-0.1304691 -0.69978,-0.1304691 -0.39141,0 -0.72352,0.1541907 -0.32024,0.14233 -0.54559,0.3795466 -0.22536,0.2372165 -0.35583,0.5337372 -0.11861,0.2846599 -0.11861,0.5693198 z"
           style="font-style:normal;font-variant:normal;font-weight:500;font-stretch:normal;font-size:11.8608284px;font-family:Avenir;-inkscape-font-specification:'Avenir Medium';letter-spacing:-0.11px;fill:#33cc33;fill-opacity:1;stroke-width:1.11195266px"
           id="path865" /><path
           d="m 156.27663,7.9808722 q -0.18978,-0.2372165 -0.47444,-0.3914073 -0.2728,-0.1660516 -0.67606,-0.1660516 -0.37955,0 -0.66421,0.1660516 -0.2728,0.1541908 -0.2728,0.4625723 0,0.2490774 0.15419,0.4032682 0.16605,0.1541908 0.37955,0.2490774 0.22535,0.094887 0.47443,0.1423299 0.24908,0.047443 0.42699,0.083026 0.34396,0.083026 0.64049,0.2016341 0.30838,0.1186083 0.52187,0.3083815 0.22536,0.1897733 0.34397,0.4625724 0.13046,0.2727995 0.13046,0.6642065 0,0.474433 -0.20163,0.818397 -0.20163,0.332103 -0.52188,0.545598 -0.32024,0.213495 -0.73537,0.308382 -0.40327,0.09489 -0.81839,0.09489 -0.69979,0 -1.23353,-0.213495 -0.52188,-0.213495 -0.93701,-0.782814 l 0.80654,-0.664207 q 0.26094,0.260939 0.58118,0.462573 0.32024,0.201634 0.78282,0.201634 0.20163,0 0.40326,-0.03558 0.2135,-0.04744 0.36769,-0.130469 0.16605,-0.09489 0.26094,-0.225356 0.10675,-0.14233 0.10675,-0.320242 0,-0.237217 -0.1542,-0.391407 -0.14233,-0.154191 -0.35582,-0.2372169 -0.20163,-0.094887 -0.43885,-0.14233 -0.22536,-0.059304 -0.40327,-0.094887 -0.34396,-0.083026 -0.65234,-0.1897732 -0.30839,-0.1067475 -0.5456,-0.2846599 -0.23722,-0.1779125 -0.37955,-0.4507115 -0.14233,-0.2727991 -0.14233,-0.6760672 0,-0.4388507 0.17791,-0.759093 0.18978,-0.3321032 0.4863,-0.5455981 0.30838,-0.213495 0.68793,-0.3202424 0.3914,-0.1067475 0.78281,-0.1067475 0.56932,0 1.0912,0.2134949 0.52187,0.213495 0.83025,0.7116497 z"
           style="font-style:normal;font-variant:normal;font-weight:500;font-stretch:normal;font-size:11.8608284px;font-family:Avenir;-inkscape-font-specification:'Avenir Medium';letter-spacing:-0.11px;fill:#33cc33;fill-opacity:1;stroke-width:1.11195266px"
           id="path867" /><path
           d="m 161.42525,7.9808722 q -0.18978,-0.2372165 -0.47444,-0.3914073 -0.2728,-0.1660516 -0.67606,-0.1660516 -0.37955,0 -0.66421,0.1660516 -0.2728,0.1541908 -0.2728,0.4625723 0,0.2490774 0.15419,0.4032682 0.16605,0.1541908 0.37955,0.2490774 0.22535,0.094887 0.47443,0.1423299 0.24908,0.047443 0.42699,0.083026 0.34397,0.083026 0.64049,0.2016341 0.30838,0.1186083 0.52187,0.3083815 0.22536,0.1897733 0.34397,0.4625724 0.13047,0.2727995 0.13047,0.6642065 0,0.474433 -0.20164,0.818397 -0.20163,0.332103 -0.52187,0.545598 -0.32025,0.213495 -0.73538,0.308382 -0.40326,0.09489 -0.81839,0.09489 -0.69979,0 -1.23353,-0.213495 -0.52188,-0.213495 -0.93701,-0.782814 l 0.80654,-0.664207 q 0.26094,0.260939 0.58118,0.462573 0.32024,0.201634 0.78282,0.201634 0.20163,0 0.40326,-0.03558 0.2135,-0.04744 0.36769,-0.130469 0.16605,-0.09489 0.26094,-0.225356 0.10675,-0.14233 0.10675,-0.320242 0,-0.237217 -0.15419,-0.391407 -0.14233,-0.154191 -0.35583,-0.2372169 -0.20163,-0.094887 -0.43885,-0.14233 -0.22536,-0.059304 -0.40327,-0.094887 -0.34396,-0.083026 -0.65234,-0.1897732 -0.30839,-0.1067475 -0.5456,-0.2846599 -0.23722,-0.1779125 -0.37955,-0.4507115 -0.14233,-0.2727991 -0.14233,-0.6760672 0,-0.4388507 0.17791,-0.759093 0.18978,-0.3321032 0.4863,-0.5455981 0.30838,-0.213495 0.68793,-0.3202424 0.3914,-0.1067475 0.78281,-0.1067475 0.56932,0 1.0912,0.2134949 0.52187,0.213495 0.83025,0.7116497 z"
           style="font-style:normal;font-variant:normal;font-weight:500;font-stretch:normal;font-size:11.8608284px;font-family:Avenir;-inkscape-font-specification:'Avenir Medium';letter-spacing:-0.11px;fill:#33cc33;fill-opacity:1;stroke-width:1.11195266px"
           id="path869" /><path
           d="m 163.66795,6.5694337 h 1.06747 v 5.6220323 h -1.06747 z m -0.24908,-2.0163409 q 0,-0.3202423 0.22536,-0.5455981 0.23721,-0.2372165 0.55746,-0.2372165 0.32024,0 0.54559,0.2372165 0.23722,0.2253558 0.23722,0.5455981 0,0.3202424 -0.23722,0.557459 -0.22535,0.2253557 -0.54559,0.2253557 -0.32025,0 -0.55746,-0.2253557 -0.22536,-0.2372166 -0.22536,-0.557459 z"
           style="font-style:normal;font-variant:normal;font-weight:500;font-stretch:normal;font-size:11.8608284px;font-family:Avenir;-inkscape-font-specification:'Avenir Medium';letter-spacing:-0.11px;fill:#33cc33;fill-opacity:1;stroke-width:1.11195266px"
           id="path871" /><path
           d="m 166.3243,6.5694337 h 1.06748 v 0.8658404 h 0.0237 q 0.20163,-0.4507114 0.69979,-0.7235105 0.49815,-0.2846599 1.1505,-0.2846599 0.40327,0 0.77095,0.1304691 0.37955,0.1186083 0.65235,0.3795466 0.28466,0.2609382 0.45071,0.6760672 0.16605,0.4032681 0.16605,0.9607271 v 3.6175523 h -1.06747 V 8.8704344 q 0,-0.3914074 -0.10675,-0.6642064 -0.10675,-0.2846599 -0.28466,-0.4507115 -0.17791,-0.1779124 -0.41513,-0.2490774 -0.22536,-0.083026 -0.47443,-0.083026 -0.33211,0 -0.61677,0.1067475 -0.28466,0.1067474 -0.49815,0.343964 -0.2135,0.2253557 -0.3321,0.5811806 -0.11861,0.3558248 -0.11861,0.8421188 v 2.8940418 h -1.06748 z"
           style="font-style:normal;font-variant:normal;font-weight:500;font-stretch:normal;font-size:11.8608284px;font-family:Avenir;-inkscape-font-specification:'Avenir Medium';letter-spacing:-0.11px;fill:#33cc33;fill-opacity:1;stroke-width:1.11195266px"
           id="path873" /><path
           d="m 178.45041,12.144023 q 0,0.640485 -0.22535,1.162361 -0.2135,0.533737 -0.61676,0.913284 -0.40327,0.391407 -0.97259,0.604902 -0.56932,0.213495 -1.25725,0.213495 -0.80654,0 -1.4826,-0.225356 -0.66421,-0.225355 -1.26911,-0.782814 l 0.72351,-0.901423 q 0.41513,0.450711 0.90142,0.676067 0.4863,0.237217 1.10306,0.237217 0.59304,0 0.98445,-0.177913 0.3914,-0.166051 0.61676,-0.438851 0.23722,-0.272799 0.3321,-0.628623 0.0949,-0.343964 0.0949,-0.699789 v -0.830258 h -0.0356 q -0.30838,0.510015 -0.84212,0.759093 -0.52188,0.237216 -1.10306,0.237216 -0.61676,0 -1.1505,-0.213495 -0.52187,-0.225355 -0.90142,-0.604902 -0.37955,-0.391407 -0.59304,-0.913284 -0.2135,-0.5337369 -0.2135,-1.1505 0,-0.6167631 0.20164,-1.1505004 0.20163,-0.5455981 0.56932,-0.9488662 0.37954,-0.4032682 0.90142,-0.6286239 0.53374,-0.2253558 1.18608,-0.2253558 0.56932,0 1.10306,0.2490774 0.5456,0.2490774 0.85398,0.6997889 h 0.0237 V 6.5694337 h 1.06747 z m -2.91776,-4.7206097 q -0.42699,0 -0.77095,0.1541908 -0.34397,0.1423299 -0.58118,0.4032681 -0.23722,0.2490774 -0.36769,0.6167631 -0.13047,0.3558249 -0.13047,0.7828147 0,0.85398 0.49816,1.375856 0.49815,0.510016 1.35213,0.510016 0.85398,0 1.35214,-0.510016 0.49815,-0.521876 0.49815,-1.375856 0,-0.4269898 -0.13047,-0.7828147 Q 177.122,8.2299496 176.88479,7.9808722 176.64757,7.719934 176.3036,7.5776041 175.95964,7.4234133 175.53265,7.4234133 Z"
           style="font-style:normal;font-variant:normal;font-weight:500;font-stretch:normal;font-size:11.8608284px;font-family:Avenir;-inkscape-font-specification:'Avenir Medium';letter-spacing:-0.11px;fill:#33cc33;fill-opacity:1;stroke-width:1.11195266px"
           id="path875" /></g><g
         id="g901"><path
           id="path239-5"
           d="m 7.9112309,4.0023004 c 0,0.821 0.6315385,1.4525384 1.4525384,1.4525384 0.8209997,0 1.4525387,-0.6315384 1.4525387,-1.4525384"
           stroke-miterlimit="10"
           inkscape:connector-curvature="0"
           style="fill:none;stroke:#33cc33;stroke-width:1;stroke-miterlimit:10;stroke-opacity:1" /><path
           id="path241-4"
           d="M 11.953077,6.591608"
           stroke-miterlimit="10"
           inkscape:connector-curvature="0"
           style="fill:none;stroke:#33cc33;stroke-width:1;stroke-miterlimit:10;stroke-opacity:1" /><path
           id="path243-5"
           d="m 11.953077,4.0023004 c 0,0.821 0.631538,1.4525384 1.452538,1.4525384 0.821,0 1.452539,-0.6315384 1.452539,-1.4525384"
           stroke-miterlimit="10"
           inkscape:connector-curvature="0"
           style="fill:none;stroke:#33cc33;stroke-width:1;stroke-miterlimit:10;stroke-opacity:1" /><path
           id="path245-3"
           d="M 15.994923,6.591608"
           stroke-miterlimit="10"
           inkscape:connector-curvature="0"
           style="fill:none;stroke:#33cc33;stroke-width:1;stroke-miterlimit:10;stroke-opacity:1" /><path
           id="path247-0"
           d="m 15.994923,4.0023004 c 0,0.821 0.631539,1.4525384 1.452539,1.4525384 0.821,0 1.452538,-0.6315384 1.452538,-1.4525384"
           stroke-miterlimit="10"
           inkscape:connector-curvature="0"
           style="fill:none;stroke:#33cc33;stroke-width:1;stroke-miterlimit:10;stroke-opacity:1" /><path
           id="path249-1"
           d="m 7.9112309,12.2123 c 0,-0.821 0.6315385,-1.452538 1.4525384,-1.452538 0.8209997,0 1.4525387,0.631538 1.4525387,1.452538"
           stroke-miterlimit="10"
           inkscape:connector-curvature="0"
           style="fill:none;stroke:#33cc33;stroke-width:1;stroke-miterlimit:10;stroke-opacity:1" /><path
           id="path251-9"
           d="m 11.953077,12.2123 c 0,-0.821 0.631538,-1.452538 1.452538,-1.452538 0.821,0 1.452539,0.631538 1.452539,1.452538"
           stroke-miterlimit="10"
           inkscape:connector-curvature="0"
           style="fill:none;stroke:#33cc33;stroke-width:1;stroke-miterlimit:10;stroke-opacity:1" /><path
           id="path253-4"
           d="m 15.994923,12.2123 c 0,-0.821 0.631539,-1.452538 1.452539,-1.452538 0.821,0 1.452538,0.631538 1.452538,1.452538"
           stroke-miterlimit="10"
           inkscape:connector-curvature="0"
           style="fill:none;stroke:#33cc33;stroke-width:1;stroke-miterlimit:10;stroke-opacity:1" /><path
           style="fill:none;stroke:#33cc33;stroke-width:1;stroke-miterlimit:10;stroke-opacity:1"
           d="M 10.816308,8.1073008 A 1.4525384,1.4525384 0 0 1 9.3637695,9.5598391 1.4525384,1.4525384 0 0 1 7.9112312,8.1073008 1.4525384,1.4525384 0 0 1 9.3637695,6.6547624 1.4525384,1.4525384 0 0 1 10.816308,8.1073008 Z"
           id="circle255-5" /><path
           style="fill:none;stroke:#33cc33;stroke-width:1;stroke-miterlimit:10;stroke-opacity:1"
           d="M 14.858154,8.1073008 A 1.4525384,1.4525384 0 0 1 13.405616,9.5598391 1.4525384,1.4525384 0 0 1 11.953077,8.1073008 1.4525384,1.4525384 0 0 1 13.405616,6.6547624 1.4525384,1.4525384 0 0 1 14.858154,8.1073008 Z"
           id="circle257-9" /><path
           style="fill:#33cc33;fill-opacity:1;stroke:#33cc33;stroke-width:1;stroke-miterlimit:10;stroke-opacity:1"
           d="M 18.9,8.1073008 A 1.4525384,1.4525384 0 0 1 17.447462,9.5598391 1.4525384,1.4525384 0 0 1 15.994924,8.1073008 1.4525384,1.4525384 0 0 1 17.447462,6.6547624 1.4525384,1.4525384 0 0 1 18.9,8.1073008 Z"
           id="circle259-3" /></g></g></g></svg>