<?xml version="1.0" encoding="UTF-8" standalone="no"?>
<!-- Generator: Adobe Illustrator 17.1.0, SVG Export Plug-In . SVG Version: 6.00 Build 0)  -->

<svg
   xmlns:dc="http://purl.org/dc/elements/1.1/"
   xmlns:cc="http://creativecommons.org/ns#"
   xmlns:rdf="http://www.w3.org/1999/02/22-rdf-syntax-ns#"
   xmlns:svg="http://www.w3.org/2000/svg"
   xmlns="http://www.w3.org/2000/svg"
   xmlns:sodipodi="http://sodipodi.sourceforge.net/DTD/sodipodi-0.dtd"
   xmlns:inkscape="http://www.inkscape.org/namespaces/inkscape"
   version="1.1"
   id="Layer_1"
   x="0px"
   y="0px"
   width="94.993797"
   height="12.400001"
   viewBox="0 0 94.993807 12.399999"
   enable-background="new 0 0 240 40"
   xml:space="preserve"
   sodipodi:docname="sw-icon-TEMP-menu.svg"
   inkscape:version="0.92.2 5c3e80d, 2017-08-06"><metadata
     id="metadata362"><rdf:RDF><cc:Work
         rdf:about=""><dc:format>image/svg+xml</dc:format><dc:type
           rdf:resource="http://purl.org/dc/dcmitype/StillImage" /><dc:title></dc:title></cc:Work></rdf:RDF></metadata><defs
     id="defs360" /><sodipodi:namedview
     pagecolor="#ffffff"
     bordercolor="#666666"
     borderopacity="1"
     objecttolerance="10"
     gridtolerance="10"
     guidetolerance="10"
     inkscape:pageopacity="0"
     inkscape:pageshadow="2"
     inkscape:window-width="2500"
     inkscape:window-height="1395"
     id="namedview358"
     showgrid="false"
     fit-margin-top="0"
     fit-margin-left="0"
     fit-margin-right="0"
     fit-margin-bottom="0"
     inkscape:zoom="7.979804"
     inkscape:cx="53.915765"
     inkscape:cy="6.2442317"
     inkscape:window-x="58"
     inkscape:window-y="22"
     inkscape:window-maximized="0"
     inkscape:current-layer="g8621"
     inkscape:pagecheckerboard="true" /><g
     id="g8621"
     transform="translate(-7.4112309,-3.1804499)"><path
       transform="scale(1,-1)"
       style="opacity:0.86000001;fill:none;fill-opacity:1;stroke:#010000;stroke-width:0;stroke-linecap:round;stroke-linejoin:miter;stroke-miterlimit:4;stroke-dasharray:none;stroke-dashoffset:86.40000153;stroke-opacity:1"
       d="M 7.411232,-15.58045 H 19.40023 V -3.1804504 H 7.411232 Z"
       id="rect827" /><g
       id="g917"
       transform="translate(0,-0.04423049)"><g
         aria-label="SAXS / CryoEM"
         style="font-style:normal;font-variant:normal;font-weight:normal;font-stretch:normal;font-size:26.68686295px;line-height:125%;font-family:Calibri;-inkscape-font-specification:'Calibri, Normal';text-align:justify;letter-spacing:0px;word-spacing:0px;writing-mode:lr-tb;text-anchor:start;fill:#5cea5c;fill-opacity:1;stroke:none;stroke-width:1.11195266px;stroke-linecap:butt;stroke-linejoin:miter;stroke-opacity:1"
         id="text862"><path
           d="m 21.938129,10.436064 q 0.308382,0.462572 0.782815,0.687928 0.486294,0.213495 0.996309,0.213495 0.28466,0 0.581181,-0.08303 0.296521,-0.09489 0.533737,-0.272799 0.249078,-0.177913 0.403268,-0.438851 0.154191,-0.260938 0.154191,-0.6049021 0,-0.4862939 -0.308381,-0.7353713 Q 24.772867,8.9415993 24.310295,8.7755478 23.859583,8.5976353 23.313985,8.4434446 22.780248,8.277393 22.317676,7.9927331 21.866964,7.7080732 21.558583,7.2336401 21.250201,6.7473461 21.250201,5.9289489 q 0,-0.3676856 0.154191,-0.7828146 0.166052,-0.415129 0.510016,-0.7590931 0.343964,-0.343964 0.877701,-0.5693197 0.545598,-0.2372166 1.304691,-0.2372166 0.687928,0 1.316552,0.1897733 0.628624,0.1897732 1.103057,0.7709538 L 25.591264,5.3833508 Q 25.377769,5.0512476 24.986362,4.8496136 24.594955,4.6479795 24.0968,4.6479795 q -0.474433,0 -0.794676,0.1304691 -0.308381,0.1186083 -0.498154,0.3202423 -0.189774,0.1897733 -0.272799,0.415129 -0.07117,0.2253558 -0.07117,0.415129 0,0.5337373 0.308381,0.8183972 0.308382,0.2846599 0.759093,0.4625723 0.462573,0.1779124 0.99631,0.3202424 0.545598,0.1423299 0.996309,0.4032681 0.462573,0.2490774 0.770954,0.6879281 0.308382,0.4269898 0.308382,1.1860828 0,0.6049022 -0.237217,1.0911962 -0.225356,0.486294 -0.616763,0.818397 -0.391407,0.332103 -0.925145,0.510016 -0.533737,0.177912 -1.138639,0.177912 -0.806536,0 -1.530047,-0.28466 -0.72351,-0.28466 -1.1505,-0.877701 z"
           style="font-style:normal;font-variant:normal;font-weight:500;font-stretch:normal;font-size:11.8608284px;font-family:Avenir;-inkscape-font-specification:'Avenir Medium';letter-spacing:-0.11px;fill:#5cea5c;fill-opacity:1;stroke-width:1.11195266px"
           id="path1035" /><path
           d="m 30.814375,3.7939998 h 1.031892 l 3.593831,8.3974662 h -1.328413 l -0.842119,-2.075645 h -3.997099 l -0.830258,2.075645 h -1.328413 z m 2.040062,5.325512 -1.565629,-3.8547693 h -0.02372 l -1.589351,3.8547693 z"
           style="font-style:normal;font-variant:normal;font-weight:500;font-stretch:normal;font-size:11.8608284px;font-family:Avenir;-inkscape-font-specification:'Avenir Medium';letter-spacing:-0.11px;fill:#5cea5c;fill-opacity:1;stroke-width:1.11195266px"
           id="path1037" /><path
           d="M 38.356092,7.7792382 35.533215,3.7939998 h 1.458882 l 2.182393,3.2261453 2.15867,-3.2261453 h 1.4233 l -2.799156,3.9733775 3.083816,4.4240887 h -1.494465 l -2.407748,-3.641274 -2.419609,3.641274 h -1.411439 z"
           style="font-style:normal;font-variant:normal;font-weight:500;font-stretch:normal;font-size:11.8608284px;font-family:Avenir;-inkscape-font-specification:'Avenir Medium';letter-spacing:-0.11px;fill:#5cea5c;fill-opacity:1;stroke-width:1.11195266px"
           id="path1039" /><path
           d="m 44.240999,10.436064 q 0.308382,0.462572 0.782815,0.687928 0.486294,0.213495 0.996309,0.213495 0.28466,0 0.581181,-0.08303 0.296521,-0.09489 0.533737,-0.272799 0.249078,-0.177913 0.403268,-0.438851 Q 47.6925,10.281873 47.6925,9.9379089 47.6925,9.451615 47.384119,9.2025376 47.075737,8.9415993 46.613165,8.7755478 46.162453,8.5976353 45.616855,8.4434446 45.083118,8.277393 44.620546,7.9927331 44.169834,7.7080732 43.861452,7.2336401 43.553071,6.7473461 43.553071,5.9289489 q 0,-0.3676856 0.154191,-0.7828146 0.166051,-0.415129 0.510015,-0.7590931 0.343964,-0.343964 0.877702,-0.5693197 0.545598,-0.2372166 1.304691,-0.2372166 0.687928,0 1.316552,0.1897733 0.628624,0.1897732 1.103057,0.7709538 L 47.894134,5.3833508 Q 47.680639,5.0512476 47.289232,4.8496136 46.897825,4.6479795 46.39967,4.6479795 q -0.474433,0 -0.794676,0.1304691 -0.308381,0.1186083 -0.498155,0.3202423 -0.189773,0.1897733 -0.272799,0.415129 -0.07117,0.2253558 -0.07117,0.415129 0,0.5337373 0.308382,0.8183972 0.308382,0.2846599 0.759093,0.4625723 0.462572,0.1779124 0.99631,0.3202424 0.545598,0.1423299 0.996309,0.4032681 0.462572,0.2490774 0.770954,0.6879281 0.308382,0.4269898 0.308382,1.1860828 0,0.6049022 -0.237217,1.0911962 -0.225356,0.486294 -0.616763,0.818397 -0.391407,0.332103 -0.925145,0.510016 -0.533737,0.177912 -1.138639,0.177912 -0.806537,0 -1.530047,-0.28466 -0.723511,-0.28466 -1.1505,-0.877701 z"
           style="font-style:normal;font-variant:normal;font-weight:500;font-stretch:normal;font-size:11.8608284px;font-family:Avenir;-inkscape-font-specification:'Avenir Medium';letter-spacing:-0.11px;fill:#5cea5c;fill-opacity:1;stroke-width:1.11195266px"
           id="path1041" /><path
           d="m 53.41459,12.713343 -0.830258,-0.308382 3.795465,-9.1328376 0.818397,0.3083815 z"
           style="font-style:normal;font-variant:normal;font-weight:500;font-stretch:normal;font-size:11.8608284px;font-family:Avenir;-inkscape-font-specification:'Avenir Medium';letter-spacing:-0.11px;fill:#5cea5c;fill-opacity:1;stroke-width:1.11195266px"
           id="path1043" /><path
           d="M 67.190554,5.6087066 Q 66.834729,5.1461343 66.289131,4.8970569 65.743533,4.6479795 65.162352,4.6479795 q -0.711649,0 -1.29283,0.272799 -0.56932,0.2609382 -0.984449,0.7235106 -0.403268,0.4625723 -0.628624,1.0911962 -0.225355,0.616763 -0.225355,1.3284127 0,0.6642064 0.213495,1.2572479 0.213494,0.5930414 0.616763,1.0437531 0.403268,0.450711 0.984448,0.711649 0.581181,0.260939 1.316552,0.260939 0.723511,0 1.269109,-0.296521 0.545598,-0.296521 0.925145,-0.830258 l 0.960727,0.723511 q -0.09489,0.130469 -0.332104,0.379546 -0.237216,0.237217 -0.628623,0.486294 -0.391408,0.237217 -0.948867,0.415129 -0.545598,0.189773 -1.269108,0.189773 -0.99631,0 -1.802846,-0.379546 -0.794676,-0.379547 -1.363996,-0.99631 Q 61.414331,10.412342 61.11781,9.6413882 60.821289,8.8585736 60.821289,8.063898 q 0,-0.9725879 0.320242,-1.790985 0.320243,-0.830258 0.889563,-1.4232994 0.58118,-0.6049023 1.387717,-0.9370055 0.806536,-0.3321032 1.779124,-0.3321032 0.830258,0 1.624933,0.3202424 0.806537,0.3202423 1.316552,0.9844487 z"
           style="font-style:normal;font-variant:normal;font-weight:500;font-stretch:normal;font-size:11.8608284px;font-family:Avenir;-inkscape-font-specification:'Avenir Medium';letter-spacing:-0.11px;fill:#5cea5c;fill-opacity:1;stroke-width:1.11195266px"
           id="path1045" /><path
           d="m 69.300011,6.5694337 h 1.067475 v 0.8658404 h 0.02372 Q 70.497955,7.2099184 70.675867,7.032006 70.85378,6.8422327 71.067275,6.7117636 71.29263,6.5812945 71.553569,6.5101295 q 0.260938,-0.083026 0.521876,-0.083026 0.260938,0 0.474433,0.071165 l -0.04744,1.1505004 q -0.130469,-0.035583 -0.260938,-0.059304 -0.130469,-0.023722 -0.260938,-0.023722 -0.782815,0 -1.197944,0.4388506 -0.415129,0.4388507 -0.415129,1.3639953 v 2.8228768 h -1.067475 z"
           style="font-style:normal;font-variant:normal;font-weight:500;font-stretch:normal;font-size:11.8608284px;font-family:Avenir;-inkscape-font-specification:'Avenir Medium';letter-spacing:-0.11px;fill:#5cea5c;fill-opacity:1;stroke-width:1.11195266px"
           id="path1047" /><path
           d="m 72.892258,6.5694337 h 1.233527 l 1.672376,4.3885063 h 0.02372 l 1.589351,-4.3885063 h 1.1505 l -2.668686,6.8318373 q -0.14233,0.367686 -0.296521,0.664206 -0.15419,0.308382 -0.367685,0.521877 -0.213495,0.213495 -0.521877,0.332103 -0.296521,0.118608 -0.735371,0.118608 -0.237217,0 -0.486294,-0.03558 -0.237217,-0.02372 -0.462572,-0.118609 l 0.130469,-0.972588 q 0.320242,0.13047 0.640484,0.13047 0.249078,0 0.415129,-0.07116 0.177913,-0.05931 0.296521,-0.189774 0.130469,-0.118608 0.213495,-0.28466 0.08303,-0.166051 0.166052,-0.379546 l 0.343964,-0.889562 z"
           style="font-style:normal;font-variant:normal;font-weight:500;font-stretch:normal;font-size:11.8608284px;font-family:Avenir;-inkscape-font-specification:'Avenir Medium';letter-spacing:-0.11px;fill:#5cea5c;fill-opacity:1;stroke-width:1.11195266px"
           id="path1049" /><path
           d="m 80.254578,9.38045 q 0,0.4269898 0.130469,0.794676 0.130469,0.355824 0.367686,0.616763 0.237216,0.249077 0.58118,0.403268 0.343964,0.14233 0.770954,0.14233 0.42699,0 0.770954,-0.14233 0.343964,-0.154191 0.58118,-0.403268 0.237217,-0.260939 0.367686,-0.616763 0.130469,-0.3676862 0.130469,-0.794676 0,-0.4269898 -0.130469,-0.7828147 Q 83.694218,8.2299496 83.457001,7.9808722 83.219785,7.719934 82.875821,7.5776041 82.531857,7.4234133 82.104867,7.4234133 q -0.42699,0 -0.770954,0.1541908 -0.343964,0.1423299 -0.58118,0.4032681 -0.237217,0.2490774 -0.367686,0.6167631 -0.130469,0.3558249 -0.130469,0.7828147 z m -1.13864,0 q 0,-0.6167631 0.225356,-1.1505004 0.237217,-0.5337372 0.640485,-0.9370054 0.403268,-0.4032682 0.948866,-0.6286239 0.545598,-0.2372166 1.174222,-0.2372166 0.628624,0 1.174222,0.2372166 0.545598,0.2253557 0.948866,0.6286239 0.403268,0.4032682 0.628624,0.9370054 0.237217,0.5337373 0.237217,1.1505004 0,0.6167631 -0.237217,1.162361 -0.225356,0.533737 -0.628624,0.937006 -0.403268,0.391407 -0.948866,0.628624 -0.545598,0.225355 -1.174222,0.225355 -0.628624,0 -1.174222,-0.225355 Q 80.385047,11.871224 79.981779,11.479817 79.578511,11.076548 79.341294,10.542811 79.115938,9.9972131 79.115938,9.38045 Z"
           style="font-style:normal;font-variant:normal;font-weight:500;font-stretch:normal;font-size:11.8608284px;font-family:Avenir;-inkscape-font-specification:'Avenir Medium';letter-spacing:-0.11px;fill:#5cea5c;fill-opacity:1;stroke-width:1.11195266px"
           id="path1051" /><path
           d="m 86.593906,3.7939998 h 5.420398 v 1.0674746 h -4.281759 v 2.5026348 h 3.985238 v 1.0674745 h -3.985238 v 2.6924083 h 4.495254 v 1.067474 h -5.633893 z"
           style="font-style:normal;font-variant:normal;font-weight:500;font-stretch:normal;font-size:11.8608284px;font-family:Avenir;-inkscape-font-specification:'Avenir Medium';letter-spacing:-0.11px;fill:#5cea5c;fill-opacity:1;stroke-width:1.11195266px"
           id="path1053" /><path
           d="m 93.651734,3.7939998 h 1.696098 l 2.668687,6.3574042 h 0.04744 l 2.644968,-6.3574042 h 1.6961 v 8.3974662 h -1.13864 V 5.2884642 h -0.0237 L 98.407926,12.191466 H 97.648833 L 94.814095,5.2884642 h -0.02372 v 6.9030018 h -1.138639 z"
           style="font-style:normal;font-variant:normal;font-weight:500;font-stretch:normal;font-size:11.8608284px;font-family:Avenir;-inkscape-font-specification:'Avenir Medium';letter-spacing:-0.11px;fill:#5cea5c;fill-opacity:1;stroke-width:1.11195266px"
           id="path1055" /></g><g
         id="g901"
         style="stroke:#5cea5c;stroke-opacity:1"><path
           id="path239-1"
           d="m 7.9112309,3.8677384 c 0,0.821 0.6315385,1.4525384 1.4525384,1.4525384 0.8209997,0 1.4525387,-0.6315384 1.4525387,-1.4525384"
           stroke-miterlimit="10"
           inkscape:connector-curvature="0"
           style="fill:none;stroke:#5cea5c;stroke-width:1;stroke-miterlimit:10;stroke-opacity:1" /><path
           id="path241-1"
           d="M 11.953077,6.457046"
           stroke-miterlimit="10"
           inkscape:connector-curvature="0"
           style="fill:none;stroke:#5cea5c;stroke-width:1;stroke-miterlimit:10;stroke-opacity:1" /><path
           id="path243-6"
           d="m 11.953077,3.8677384 c 0,0.821 0.631538,1.4525384 1.452538,1.4525384 0.821,0 1.452539,-0.6315384 1.452539,-1.4525384"
           stroke-miterlimit="10"
           inkscape:connector-curvature="0"
           style="fill:none;stroke:#5cea5c;stroke-width:1;stroke-miterlimit:10;stroke-opacity:1" /><path
           id="path245-1"
           d="M 15.994923,6.457046"
           stroke-miterlimit="10"
           inkscape:connector-curvature="0"
           style="fill:none;stroke:#5cea5c;stroke-width:1;stroke-miterlimit:10;stroke-opacity:1" /><path
           id="path247-1"
           d="m 15.994923,3.8677384 c 0,0.821 0.631539,1.4525384 1.452539,1.4525384 0.821,0 1.452538,-0.6315384 1.452538,-1.4525384"
           stroke-miterlimit="10"
           inkscape:connector-curvature="0"
           style="fill:none;stroke:#5cea5c;stroke-width:1;stroke-miterlimit:10;stroke-opacity:1" /><path
           id="path249-8"
           d="m 7.9112309,12.077738 c 0,-0.821 0.6315385,-1.452538 1.4525384,-1.452538 0.8209997,0 1.4525387,0.631538 1.4525387,1.452538"
           stroke-miterlimit="10"
           inkscape:connector-curvature="0"
           style="fill:none;stroke:#5cea5c;stroke-width:1;stroke-miterlimit:10;stroke-opacity:1" /><path
           id="path251-1"
           d="m 11.953077,12.077738 c 0,-0.821 0.631538,-1.452538 1.452538,-1.452538 0.821,0 1.452539,0.631538 1.452539,1.452538"
           stroke-miterlimit="10"
           inkscape:connector-curvature="0"
           style="fill:none;stroke:#5cea5c;stroke-width:1;stroke-miterlimit:10;stroke-opacity:1" /><path
           id="path253-1"
           d="m 15.994923,12.077738 c 0,-0.821 0.631539,-1.452538 1.452539,-1.452538 0.821,0 1.452538,0.631538 1.452538,1.452538"
           stroke-miterlimit="10"
           inkscape:connector-curvature="0"
           style="fill:none;stroke:#5cea5c;stroke-width:1;stroke-miterlimit:10;stroke-opacity:1" /><path
           style="fill:none;stroke:#5cea5c;stroke-width:1;stroke-miterlimit:10;stroke-opacity:1"
           d="M 10.816308,7.9727383 A 1.4525384,1.4525384 0 0 1 9.3637695,9.4252766 1.4525384,1.4525384 0 0 1 7.9112312,7.9727383 1.4525384,1.4525384 0 0 1 9.3637695,6.5201999 1.4525384,1.4525384 0 0 1 10.816308,7.9727383 Z"
           id="circle255-5" /><path
           style="fill:none;stroke:#5cea5c;stroke-width:1;stroke-miterlimit:10;stroke-opacity:1"
           d="M 14.858154,7.9727383 A 1.4525384,1.4525384 0 0 1 13.405616,9.4252766 1.4525384,1.4525384 0 0 1 11.953077,7.9727383 1.4525384,1.4525384 0 0 1 13.405616,6.5201999 1.4525384,1.4525384 0 0 1 14.858154,7.9727383 Z"
           id="circle257-0" /><path
           style="fill:#5cea5c;fill-opacity:1;stroke:#5cea5c;stroke-width:1;stroke-miterlimit:10;stroke-opacity:1"
           d="M 18.9,7.9727383 A 1.4525384,1.4525384 0 0 1 17.447462,9.4252766 1.4525384,1.4525384 0 0 1 15.994924,7.9727383 1.4525384,1.4525384 0 0 1 17.447462,6.5201999 1.4525384,1.4525384 0 0 1 18.9,7.9727383 Z"
           id="circle259-0" /></g></g></g></svg>