<?xml version="1.0" encoding="UTF-8" standalone="no"?>
<!-- Generator: Adobe Illustrator 17.1.0, SVG Export Plug-In . SVG Version: 6.00 Build 0)  -->

<svg
   xmlns:dc="http://purl.org/dc/elements/1.1/"
   xmlns:cc="http://creativecommons.org/ns#"
   xmlns:rdf="http://www.w3.org/1999/02/22-rdf-syntax-ns#"
   xmlns:svg="http://www.w3.org/2000/svg"
   xmlns="http://www.w3.org/2000/svg"
   xmlns:sodipodi="http://sodipodi.sourceforge.net/DTD/sodipodi-0.dtd"
   xmlns:inkscape="http://www.inkscape.org/namespaces/inkscape"
   version="1.1"
   id="Layer_1"
   x="0px"
   y="0px"
   width="105.3716"
   height="9.1802816"
   viewBox="0 0 105.3716 9.1802809"
   enable-background="new 0 0 240 40"
   xml:space="preserve"
   sodipodi:docname="sw-icon-tools-menu-outline.svg"
   inkscape:version="0.92.2 5c3e80d, 2017-08-06"><metadata
     id="metadata362"><rdf:RDF><cc:Work
         rdf:about=""><dc:format>image/svg+xml</dc:format><dc:type
           rdf:resource="http://purl.org/dc/dcmitype/StillImage" /><dc:title></dc:title></cc:Work></rdf:RDF></metadata><defs
     id="defs360" /><sodipodi:namedview
     pagecolor="#ffffff"
     bordercolor="#666666"
     borderopacity="1"
     objecttolerance="10"
     gridtolerance="10"
     guidetolerance="10"
     inkscape:pageopacity="0"
     inkscape:pageshadow="2"
     inkscape:window-width="1920"
     inkscape:window-height="1156"
     id="namedview358"
     showgrid="false"
     fit-margin-top="0"
     fit-margin-left="0"
     fit-margin-right="0"
     fit-margin-bottom="0"
     inkscape:zoom="15.493003"
     inkscape:cx="2.7309774"
     inkscape:cy="1.0050226"
     inkscape:window-x="62"
     inkscape:window-y="61"
     inkscape:window-maximized="0"
     inkscape:current-layer="g8621"
     inkscape:pagecheckerboard="true" /><g
     id="g8621"
     transform="translate(-7.4112309,-3.2246801)"><g
       id="g917"><g
         aria-label="Tools and Utilities"
         style="font-style:normal;font-variant:normal;font-weight:normal;font-stretch:normal;font-size:26.68686295px;line-height:125%;font-family:Calibri;-inkscape-font-specification:'Calibri, Normal';text-align:justify;letter-spacing:0px;word-spacing:0px;writing-mode:lr-tb;text-anchor:start;fill:#33ccff;fill-opacity:1;stroke:none;stroke-width:1.11195266px;stroke-linecap:butt;stroke-linejoin:miter;stroke-opacity:1"
         id="text862"><path
           d="M 23.444454,4.8614744 H 20.740186 V 3.7939998 h 6.547177 v 1.0674746 h -2.704269 v 7.3299916 h -1.13864 z"
           style="font-style:normal;font-variant:normal;font-weight:500;font-stretch:normal;font-size:11.8608284px;font-family:Avenir;-inkscape-font-specification:'Avenir Medium';letter-spacing:-0.11px;fill:#33ccff;fill-opacity:1;stroke-width:1.11195266px"
           id="path827" /><path
           d="m 27.662359,9.38045 q 0,0.4269898 0.13047,0.794676 0.130469,0.355824 0.367685,0.616763 0.237217,0.249077 0.581181,0.403268 0.343964,0.14233 0.770954,0.14233 0.426989,0 0.770953,-0.14233 0.343965,-0.154191 0.581181,-0.403268 0.237217,-0.260939 0.367686,-0.616763 0.130469,-0.3676862 0.130469,-0.794676 0,-0.4269898 -0.130469,-0.7828147 Q 31.102,8.2299496 30.864783,7.9808722 30.627567,7.719934 30.283602,7.5776041 29.939638,7.4234133 29.512649,7.4234133 q -0.42699,0 -0.770954,0.1541908 -0.343964,0.1423299 -0.581181,0.4032681 -0.237216,0.2490774 -0.367685,0.6167631 -0.13047,0.3558249 -0.13047,0.7828147 z m -1.138639,0 q 0,-0.6167631 0.225356,-1.1505004 0.237216,-0.5337372 0.640484,-0.9370054 0.403269,-0.4032682 0.948867,-0.6286239 0.545598,-0.2372166 1.174222,-0.2372166 0.628624,0 1.174222,0.2372166 0.545598,0.2253557 0.948866,0.6286239 0.403268,0.4032682 0.628624,0.9370054 0.237216,0.5337373 0.237216,1.1505004 0,0.6167631 -0.237216,1.162361 -0.225356,0.533737 -0.628624,0.937006 -0.403268,0.391407 -0.948866,0.628624 -0.545598,0.225355 -1.174222,0.225355 -0.628624,0 -1.174222,-0.225355 Q 27.792829,11.871224 27.38956,11.479817 26.986292,11.076548 26.749076,10.542811 26.52372,9.9972131 26.52372,9.38045 Z"
           style="font-style:normal;font-variant:normal;font-weight:500;font-stretch:normal;font-size:11.8608284px;font-family:Avenir;-inkscape-font-specification:'Avenir Medium';letter-spacing:-0.11px;fill:#33ccff;fill-opacity:1;stroke-width:1.11195266px"
           id="path829" /><path
           d="m 34.594727,9.38045 q 0,0.4269898 0.130469,0.794676 0.130469,0.355824 0.367686,0.616763 0.237216,0.249077 0.58118,0.403268 0.343964,0.14233 0.770954,0.14233 0.42699,0 0.770954,-0.14233 0.343964,-0.154191 0.58118,-0.403268 0.237217,-0.260939 0.367686,-0.616763 0.130469,-0.3676862 0.130469,-0.794676 0,-0.4269898 -0.130469,-0.7828147 Q 38.034367,8.2299496 37.79715,7.9808722 37.559934,7.719934 37.21597,7.5776041 36.872006,7.4234133 36.445016,7.4234133 q -0.42699,0 -0.770954,0.1541908 -0.343964,0.1423299 -0.58118,0.4032681 -0.237217,0.2490774 -0.367686,0.6167631 -0.130469,0.3558249 -0.130469,0.7828147 z m -1.13864,0 q 0,-0.6167631 0.225356,-1.1505004 0.237217,-0.5337372 0.640485,-0.9370054 0.403268,-0.4032682 0.948866,-0.6286239 0.545598,-0.2372166 1.174222,-0.2372166 0.628624,0 1.174222,0.2372166 0.545598,0.2253557 0.948866,0.6286239 0.403268,0.4032682 0.628624,0.9370054 0.237217,0.5337373 0.237217,1.1505004 0,0.6167631 -0.237217,1.162361 -0.225356,0.533737 -0.628624,0.937006 -0.403268,0.391407 -0.948866,0.628624 -0.545598,0.225355 -1.174222,0.225355 -0.628624,0 -1.174222,-0.225355 Q 34.725196,11.871224 34.321928,11.479817 33.91866,11.076548 33.681443,10.542811 33.456087,9.9972131 33.456087,9.38045 Z"
           style="font-style:normal;font-variant:normal;font-weight:500;font-stretch:normal;font-size:11.8608284px;font-family:Avenir;-inkscape-font-specification:'Avenir Medium';letter-spacing:-0.11px;fill:#33ccff;fill-opacity:1;stroke-width:1.11195266px"
           id="path831" /><path
           d="m 40.744279,3.2246801 h 1.067475 v 8.9667859 h -1.067475 z"
           style="font-style:normal;font-variant:normal;font-weight:500;font-stretch:normal;font-size:11.8608284px;font-family:Avenir;-inkscape-font-specification:'Avenir Medium';letter-spacing:-0.11px;fill:#33ccff;fill-opacity:1;stroke-width:1.11195266px"
           id="path833" /><path
           d="M 46.38956,7.9808722 Q 46.199787,7.7436557 45.915127,7.5894649 45.642328,7.4234133 45.23906,7.4234133 q -0.379547,0 -0.664206,0.1660516 -0.272799,0.1541908 -0.272799,0.4625723 0,0.2490774 0.15419,0.4032682 0.166052,0.1541908 0.379547,0.2490774 0.225356,0.094887 0.474433,0.1423299 0.249077,0.047443 0.42699,0.083026 0.343964,0.083026 0.640484,0.2016341 0.308382,0.1186083 0.521877,0.3083815 0.225356,0.1897733 0.343964,0.4625724 0.130469,0.2727995 0.130469,0.6642065 0,0.474433 -0.201634,0.818397 -0.201634,0.332103 -0.521876,0.545598 -0.320243,0.213495 -0.735372,0.308382 -0.403268,0.09489 -0.818397,0.09489 -0.699789,0 -1.233526,-0.213495 -0.521877,-0.213495 -0.937006,-0.782814 l 0.806537,-0.664207 q 0.260938,0.260939 0.58118,0.462573 0.320243,0.201634 0.782815,0.201634 0.201634,0 0.403268,-0.03558 0.213495,-0.04744 0.367686,-0.130469 0.166051,-0.09489 0.260938,-0.225356 0.106748,-0.14233 0.106748,-0.320242 0,-0.237217 -0.154191,-0.391407 Q 45.938849,10.080239 45.725354,9.9972131 45.52372,9.9023265 45.286503,9.8548831 45.061148,9.795579 44.883235,9.7599965 44.539271,9.6769707 44.23089,9.5702233 43.922508,9.4634758 43.685291,9.2855634 43.448075,9.1076509 43.305745,8.8348519 q -0.14233,-0.2727991 -0.14233,-0.6760672 0,-0.4388507 0.177912,-0.759093 0.189774,-0.3321032 0.486294,-0.5455981 0.308382,-0.213495 0.687928,-0.3202424 0.391408,-0.1067475 0.782815,-0.1067475 0.56932,0 1.091196,0.2134949 0.521877,0.213495 0.830258,0.7116497 z"
           style="font-style:normal;font-variant:normal;font-weight:500;font-stretch:normal;font-size:11.8608284px;font-family:Avenir;-inkscape-font-specification:'Avenir Medium';letter-spacing:-0.11px;fill:#33ccff;fill-opacity:1;stroke-width:1.11195266px"
           id="path835" /><path
           d="m 51.75249,7.2573617 q 0.450711,-0.415129 1.043753,-0.6167631 0.593041,-0.2134949 1.186082,-0.2134949 0.616763,0 1.055614,0.1541908 0.450712,0.1541908 0.735371,0.415129 0.28466,0.2609382 0.415129,0.6049022 0.14233,0.3321032 0.14233,0.6997889 v 2.8703204 q 0,0.296521 0.01186,0.545598 0.01186,0.249078 0.03558,0.474433 h -0.948867 q -0.03558,-0.426989 -0.03558,-0.853979 h -0.02372 q -0.355825,0.545598 -0.842118,0.770954 -0.486294,0.225355 -1.126779,0.225355 -0.391408,0 -0.747232,-0.106747 -0.355825,-0.106748 -0.628624,-0.320243 -0.260939,-0.213494 -0.415129,-0.521876 -0.154191,-0.320242 -0.154191,-0.735371 0,-0.545598 0.237217,-0.9132841 0.249077,-0.3676857 0.664206,-0.5930415 0.42699,-0.2372165 0.984449,-0.3321032 0.569319,-0.1067474 1.209804,-0.1067474 H 55.33446 V 8.4671662 q 0,-0.2134949 -0.08303,-0.4269898 Q 55.168408,7.8266815 55.002357,7.6606299 54.836305,7.4827175 54.587228,7.3878308 54.33815,7.2810834 53.994186,7.2810834 q -0.308381,0 -0.545598,0.059304 -0.225356,0.059304 -0.415129,0.1541908 -0.189773,0.083026 -0.343964,0.2016341 -0.154191,0.1186083 -0.296521,0.2253557 z m 3.01265,2.2298358 q -0.379546,0 -0.782815,0.047443 -0.391407,0.035583 -0.72351,0.1541907 -0.320242,0.1186083 -0.533737,0.3321035 -0.201634,0.213495 -0.201634,0.545598 0,0.486294 0.320242,0.699789 0.332103,0.213495 0.889562,0.213495 0.438851,0 0.747232,-0.14233 0.308382,-0.154191 0.498155,-0.391408 0.189773,-0.237216 0.272799,-0.521876 0.08303,-0.296521 0.08303,-0.5811807 V 9.4871975 Z"
           style="font-style:normal;font-variant:normal;font-weight:500;font-stretch:normal;font-size:11.8608284px;font-family:Avenir;-inkscape-font-specification:'Avenir Medium';letter-spacing:-0.11px;fill:#33ccff;fill-opacity:1;stroke-width:1.11195266px"
           id="path837" /><path
           d="m 57.780839,6.5694337 h 1.067474 v 0.8658404 h 0.02372 q 0.201634,-0.4507114 0.699789,-0.7235105 0.498155,-0.2846599 1.1505,-0.2846599 0.403268,0 0.770954,0.1304691 0.379546,0.1186083 0.652345,0.3795466 0.28466,0.2609382 0.450712,0.6760672 0.166052,0.4032681 0.166052,0.9607271 V 12.191466 H 61.694912 V 8.8704344 q 0,-0.3914074 -0.106747,-0.6642064 -0.106748,-0.2846599 -0.28466,-0.4507115 -0.177913,-0.1779124 -0.415129,-0.2490774 -0.225356,-0.083026 -0.474433,-0.083026 -0.332104,0 -0.616764,0.1067475 -0.284659,0.1067474 -0.498154,0.343964 -0.213495,0.2253557 -0.332104,0.5811806 -0.118608,0.3558248 -0.118608,0.8421188 v 2.8940418 h -1.067474 z"
           style="font-style:normal;font-variant:normal;font-weight:500;font-stretch:normal;font-size:11.8608284px;font-family:Avenir;-inkscape-font-specification:'Avenir Medium';letter-spacing:-0.11px;fill:#33ccff;fill-opacity:1;stroke-width:1.11195266px"
           id="path839" /><path
           d="M 69.90695,12.191466 H 68.839476 V 11.38493 h -0.02372 q -0.308382,0.450711 -0.85398,0.699789 -0.533737,0.249077 -1.103057,0.249077 -0.652345,0 -1.186083,-0.225355 -0.521876,-0.225356 -0.901423,-0.628624 -0.367685,-0.403269 -0.569319,-0.937006 -0.201634,-0.533737 -0.201634,-1.162361 0,-0.6286239 0.201634,-1.1623612 0.201634,-0.5455981 0.569319,-0.9370054 0.379547,-0.4032682 0.901423,-0.6286239 0.533738,-0.2253558 1.186083,-0.2253558 0.604902,0 1.13864,0.2609383 0.533737,0.2490774 0.818397,0.687928 h 0.02372 V 3.2246801 h 1.067474 z m -2.917764,-0.853979 q 0.42699,0 0.770954,-0.14233 0.343964,-0.154191 0.581181,-0.403268 0.237216,-0.260939 0.367685,-0.616763 0.13047,-0.3676862 0.13047,-0.794676 0,-0.4269898 -0.13047,-0.7828147 Q 68.578537,8.2299496 68.341321,7.9808722 68.104104,7.719934 67.76014,7.5776041 67.416176,7.4234133 66.989186,7.4234133 q -0.426989,0 -0.770954,0.1541908 -0.343964,0.1423299 -0.58118,0.4032681 -0.237217,0.2490774 -0.367686,0.6167631 -0.130469,0.3558249 -0.130469,0.7828147 0,0.4269898 0.130469,0.794676 0.130469,0.355824 0.367686,0.616763 0.237216,0.249077 0.58118,0.403268 0.343965,0.14233 0.770954,0.14233 z"
           style="font-style:normal;font-variant:normal;font-weight:500;font-stretch:normal;font-size:11.8608284px;font-family:Avenir;-inkscape-font-specification:'Avenir Medium';letter-spacing:-0.11px;fill:#33ccff;fill-opacity:1;stroke-width:1.11195266px"
           id="path841" /><path
           d="m 75.850689,3.7939998 v 5.1475995 q 0,0.3914074 0.106748,0.8183972 0.106747,0.4151295 0.355825,0.7709535 0.249077,0.355825 0.652345,0.581181 0.403268,0.225356 0.99631,0.225356 0.593041,0 0.996309,-0.225356 0.403269,-0.225356 0.652346,-0.581181 0.249077,-0.355824 0.355825,-0.7709535 0.106747,-0.4269898 0.106747,-0.8183972 V 3.7939998 h 1.13864 v 5.325512 q 0,0.7353713 -0.249078,1.3402732 -0.249077,0.593042 -0.687928,1.031892 -0.43885,0.438851 -1.031892,0.676068 -0.593041,0.237216 -1.280969,0.237216 -0.687928,0 -1.28097,-0.237216 -0.593041,-0.237217 -1.031892,-0.676068 -0.43885,-0.43885 -0.687928,-1.031892 Q 74.71205,9.8548831 74.71205,9.1195118 v -5.325512 z"
           style="font-style:normal;font-variant:normal;font-weight:500;font-stretch:normal;font-size:11.8608284px;font-family:Avenir;-inkscape-font-specification:'Avenir Medium';letter-spacing:-0.11px;fill:#33ccff;fill-opacity:1;stroke-width:1.11195266px"
           id="path843" /><path
           d="M 85.835737,7.4945783 H 84.30569 v 2.5500777 q 0,0.237217 0.01186,0.474434 0.01186,0.225355 0.08303,0.415129 0.08303,0.177912 0.237216,0.29652 0.166052,0.106748 0.474433,0.106748 0.189774,0 0.391408,-0.03558 0.201634,-0.03558 0.367685,-0.130469 v 0.972588 q -0.189773,0.106747 -0.498154,0.14233 -0.296521,0.04744 -0.462573,0.04744 -0.616763,0 -0.960727,-0.166051 -0.332103,-0.177913 -0.498155,-0.450712 -0.15419,-0.272799 -0.189773,-0.604902 -0.02372,-0.343964 -0.02372,-0.687928 V 7.4945783 H 82.004689 V 6.5694337 h 1.233526 V 4.9919435 h 1.067475 v 1.5774902 h 1.530047 z"
           style="font-style:normal;font-variant:normal;font-weight:500;font-stretch:normal;font-size:11.8608284px;font-family:Avenir;-inkscape-font-specification:'Avenir Medium';letter-spacing:-0.11px;fill:#33ccff;fill-opacity:1;stroke-width:1.11195266px"
           id="path845" /><path
           d="m 87.174427,6.5694337 h 1.067474 V 12.191466 H 87.174427 Z M 86.925349,4.5530928 q 0,-0.3202423 0.225356,-0.5455981 0.237216,-0.2372165 0.557459,-0.2372165 0.320242,0 0.545598,0.2372165 0.237217,0.2253558 0.237217,0.5455981 0,0.3202424 -0.237217,0.557459 -0.225356,0.2253557 -0.545598,0.2253557 -0.320243,0 -0.557459,-0.2253557 -0.225356,-0.2372166 -0.225356,-0.557459 z"
           style="font-style:normal;font-variant:normal;font-weight:500;font-stretch:normal;font-size:11.8608284px;font-family:Avenir;-inkscape-font-specification:'Avenir Medium';letter-spacing:-0.11px;fill:#33ccff;fill-opacity:1;stroke-width:1.11195266px"
           id="path847" /><path
           d="m 89.913806,3.2246801 h 1.067475 v 8.9667859 h -1.067475 z"
           style="font-style:normal;font-variant:normal;font-weight:500;font-stretch:normal;font-size:11.8608284px;font-family:Avenir;-inkscape-font-specification:'Avenir Medium';letter-spacing:-0.11px;fill:#33ccff;fill-opacity:1;stroke-width:1.11195266px"
           id="path849" /><path
           d="m 92.653186,6.5694337 h 1.067475 V 12.191466 H 92.653186 Z M 92.404109,4.5530928 q 0,-0.3202423 0.225356,-0.5455981 0.237216,-0.2372165 0.557459,-0.2372165 0.320242,0 0.545598,0.2372165 0.237216,0.2253558 0.237216,0.5455981 0,0.3202424 -0.237216,0.557459 -0.225356,0.2253557 -0.545598,0.2253557 -0.320243,0 -0.557459,-0.2253557 -0.225356,-0.2372166 -0.225356,-0.557459 z"
           style="font-style:normal;font-variant:normal;font-weight:500;font-stretch:normal;font-size:11.8608284px;font-family:Avenir;-inkscape-font-specification:'Avenir Medium';letter-spacing:-0.11px;fill:#33ccff;fill-opacity:1;stroke-width:1.11195266px"
           id="path851" /><path
           d="m 98.322191,7.4945783 h -1.530047 v 2.5500777 q 0,0.237217 0.01186,0.474434 0.01186,0.225355 0.08303,0.415129 0.08303,0.177912 0.237216,0.29652 0.166052,0.106748 0.474433,0.106748 0.189774,0 0.391408,-0.03558 0.201634,-0.03558 0.367685,-0.130469 v 0.972588 q -0.189773,0.106747 -0.498154,0.14233 -0.296521,0.04744 -0.462573,0.04744 -0.616763,0 -0.960727,-0.166051 -0.332103,-0.177913 -0.498155,-0.450712 -0.15419,-0.272799 -0.189773,-0.604902 -0.02372,-0.343964 -0.02372,-0.687928 V 7.4945783 H 94.491143 V 6.5694337 h 1.233526 V 4.9919435 h 1.067475 v 1.5774902 h 1.530047 z"
           style="font-style:normal;font-variant:normal;font-weight:500;font-stretch:normal;font-size:11.8608284px;font-family:Avenir;-inkscape-font-specification:'Avenir Medium';letter-spacing:-0.11px;fill:#33ccff;fill-opacity:1;stroke-width:1.11195266px"
           id="path853" /><path
           d="m 99.660877,6.5694337 h 1.067473 V 12.191466 H 99.660877 Z M 99.411799,4.5530928 q 0,-0.3202423 0.225356,-0.5455981 0.237217,-0.2372165 0.557455,-0.2372165 0.32025,0 0.5456,0.2372165 0.23722,0.2253558 0.23722,0.5455981 0,0.3202424 -0.23722,0.557459 -0.22535,0.2253557 -0.5456,0.2253557 -0.320238,0 -0.557455,-0.2253557 -0.225356,-0.2372166 -0.225356,-0.557459 z"
           style="font-style:normal;font-variant:normal;font-weight:500;font-stretch:normal;font-size:11.8608284px;font-family:Avenir;-inkscape-font-specification:'Avenir Medium';letter-spacing:-0.11px;fill:#33ccff;fill-opacity:1;stroke-width:1.11195266px"
           id="path855" /><path
           d="m 103.12377,9.7718573 q 0,0.3676857 0.15419,0.6760677 0.16605,0.29652 0.42699,0.510015 0.26094,0.213495 0.6049,0.332103 0.34396,0.118609 0.71165,0.118609 0.49815,0 0.86584,-0.225356 0.36769,-0.237217 0.67607,-0.616763 l 0.80653,0.616763 q -0.88956,1.1505 -2.49077,1.1505 -0.66421,0 -1.2098,-0.225355 -0.53374,-0.225356 -0.91329,-0.616764 -0.36768,-0.403268 -0.56932,-0.937005 -0.20163,-0.545598 -0.20163,-1.174222 0,-0.6286239 0.21349,-1.1623612 0.22536,-0.5455981 0.6049,-0.9370054 0.39141,-0.4032682 0.92515,-0.6286239 0.53374,-0.2253558 1.16236,-0.2253558 0.74723,0 1.25725,0.2609383 0.52187,0.2609382 0.85398,0.687928 0.3321,0.415129 0.47443,0.9488663 0.15419,0.5218764 0.15419,1.0674745 v 0.3795465 z m 3.36847,-0.8539796 q -0.0119,-0.3558249 -0.11861,-0.6523456 -0.0949,-0.2965207 -0.29652,-0.5100156 -0.20163,-0.2253557 -0.51001,-0.343964 -0.29652,-0.1304691 -0.69979,-0.1304691 -0.39141,0 -0.72351,0.1541907 -0.32024,0.14233 -0.5456,0.3795466 -0.22536,0.2372165 -0.35582,0.5337372 -0.11861,0.2846599 -0.11861,0.5693198 z"
           style="font-style:normal;font-variant:normal;font-weight:500;font-stretch:normal;font-size:11.8608284px;font-family:Avenir;-inkscape-font-specification:'Avenir Medium';letter-spacing:-0.11px;fill:#33ccff;fill-opacity:1;stroke-width:1.11195266px"
           id="path857" /><path
           d="m 111.79838,7.9808722 q -0.18978,-0.2372165 -0.47444,-0.3914073 -0.27279,-0.1660516 -0.67606,-0.1660516 -0.37955,0 -0.66421,0.1660516 -0.2728,0.1541908 -0.2728,0.4625723 0,0.2490774 0.15419,0.4032682 0.16605,0.1541908 0.37955,0.2490774 0.22535,0.094887 0.47443,0.1423299 0.24908,0.047443 0.42699,0.083026 0.34397,0.083026 0.64049,0.2016341 0.30838,0.1186083 0.52187,0.3083815 0.22536,0.1897733 0.34397,0.4625724 0.13047,0.2727995 0.13047,0.6642065 0,0.474433 -0.20164,0.818397 -0.20163,0.332103 -0.52187,0.545598 -0.32025,0.213495 -0.73538,0.308382 -0.40326,0.09489 -0.81839,0.09489 -0.69979,0 -1.23353,-0.213495 -0.52188,-0.213495 -0.937,-0.782814 l 0.80653,-0.664207 q 0.26094,0.260939 0.58118,0.462573 0.32025,0.201634 0.78282,0.201634 0.20163,0 0.40327,-0.03558 0.21349,-0.04744 0.36768,-0.130469 0.16605,-0.09489 0.26094,-0.225356 0.10675,-0.14233 0.10675,-0.320242 0,-0.237217 -0.15419,-0.391407 -0.14233,-0.154191 -0.35583,-0.2372169 -0.20163,-0.094887 -0.43885,-0.14233 -0.22536,-0.059304 -0.40327,-0.094887 -0.34396,-0.083026 -0.65234,-0.1897732 -0.30838,-0.1067475 -0.5456,-0.2846599 -0.23722,-0.1779125 -0.37955,-0.4507115 -0.14233,-0.2727991 -0.14233,-0.6760672 0,-0.4388507 0.17791,-0.759093 0.18978,-0.3321032 0.4863,-0.5455981 0.30838,-0.213495 0.68793,-0.3202424 0.3914,-0.1067475 0.78281,-0.1067475 0.56932,0 1.0912,0.2134949 0.52187,0.213495 0.83026,0.7116497 z"
           style="font-style:normal;font-variant:normal;font-weight:500;font-stretch:normal;font-size:11.8608284px;font-family:Avenir;-inkscape-font-specification:'Avenir Medium';letter-spacing:-0.11px;fill:#33ccff;fill-opacity:1;stroke-width:1.11195266px"
           id="path859" /></g><g
         id="g901"><path
           id="path239-0"
           d="m 7.9112309,4.0282066 c 0,0.821 0.6315385,1.4525384 1.4525384,1.4525384 0.8209997,0 1.4525387,-0.6315384 1.4525387,-1.4525384"
           stroke-miterlimit="10"
           inkscape:connector-curvature="0"
           style="fill:none;stroke:#33ccff;stroke-width:1;stroke-miterlimit:10;stroke-opacity:1" /><path
           id="path241-7"
           d="M 11.953077,6.6175142"
           stroke-miterlimit="10"
           inkscape:connector-curvature="0"
           style="fill:none;stroke:#33ccff;stroke-width:1;stroke-miterlimit:10;stroke-opacity:1" /><path
           id="path243-2"
           d="m 11.953077,4.0282066 c 0,0.821 0.631538,1.4525384 1.452538,1.4525384 0.821,0 1.452539,-0.6315384 1.452539,-1.4525384"
           stroke-miterlimit="10"
           inkscape:connector-curvature="0"
           style="fill:none;stroke:#33ccff;stroke-width:1;stroke-miterlimit:10;stroke-opacity:1" /><path
           id="path245-9"
           d="M 15.994923,6.6175142"
           stroke-miterlimit="10"
           inkscape:connector-curvature="0"
           style="fill:none;stroke:#33ccff;stroke-width:1;stroke-miterlimit:10;stroke-opacity:1" /><path
           id="path247-8"
           d="m 15.994923,4.0282066 c 0,0.821 0.631539,1.4525384 1.452539,1.4525384 0.821,0 1.452538,-0.6315384 1.452538,-1.4525384"
           stroke-miterlimit="10"
           inkscape:connector-curvature="0"
           style="fill:none;stroke:#33ccff;stroke-width:1;stroke-miterlimit:10;stroke-opacity:1" /><path
           id="path249-1"
           d="m 7.9112309,12.238207 c 0,-0.821 0.6315385,-1.452539 1.4525384,-1.452539 0.8209997,0 1.4525387,0.631539 1.4525387,1.452539"
           stroke-miterlimit="10"
           inkscape:connector-curvature="0"
           style="fill:none;stroke:#33ccff;stroke-width:1;stroke-miterlimit:10;stroke-opacity:1" /><path
           id="path251-1"
           d="m 11.953077,12.238207 c 0,-0.821 0.631538,-1.452539 1.452538,-1.452539 0.821,0 1.452539,0.631539 1.452539,1.452539"
           stroke-miterlimit="10"
           inkscape:connector-curvature="0"
           style="fill:none;stroke:#33ccff;stroke-width:1;stroke-miterlimit:10;stroke-opacity:1" /><path
           id="path253-6"
           d="m 15.994923,12.238207 c 0,-0.821 0.631539,-1.452539 1.452539,-1.452539 0.821,0 1.452538,0.631539 1.452538,1.452539"
           stroke-miterlimit="10"
           inkscape:connector-curvature="0"
           style="fill:none;stroke:#33ccff;stroke-width:1;stroke-miterlimit:10;stroke-opacity:1" /><path
           style="fill:none;stroke:#33ccff;stroke-width:1;stroke-miterlimit:10;stroke-opacity:1"
           d="M 10.816308,8.1332064 A 1.4525384,1.4525384 0 0 1 9.3637695,9.5857447 1.4525384,1.4525384 0 0 1 7.9112312,8.1332064 1.4525384,1.4525384 0 0 1 9.3637695,6.680668 1.4525384,1.4525384 0 0 1 10.816308,8.1332064 Z"
           id="circle255-1" /><path
           style="fill:none;stroke:#33ccff;stroke-width:1;stroke-miterlimit:10;stroke-opacity:1"
           d="M 14.858154,8.1332064 A 1.4525384,1.4525384 0 0 1 13.405616,9.5857447 1.4525384,1.4525384 0 0 1 11.953077,8.1332064 1.4525384,1.4525384 0 0 1 13.405616,6.680668 1.4525384,1.4525384 0 0 1 14.858154,8.1332064 Z"
           id="circle257-1" /><path
           style="fill:#33ccff;fill-opacity:1;stroke:#33ccff;stroke-width:1;stroke-miterlimit:10;stroke-opacity:1"
           d="M 18.9,8.1332064 A 1.4525384,1.4525384 0 0 1 17.447462,9.5857447 1.4525384,1.4525384 0 0 1 15.994924,8.1332064 1.4525384,1.4525384 0 0 1 17.447462,6.680668 1.4525384,1.4525384 0 0 1 18.9,8.1332064 Z"
           id="circle259-8" /></g></g></g></svg>