<?xml version="1.0" encoding="UTF-8" standalone="no"?>
<!-- Generator: Adobe Illustrator 17.1.0, SVG Export Plug-In . SVG Version: 6.00 Build 0)  -->

<svg
   xmlns:dc="http://purl.org/dc/elements/1.1/"
   xmlns:cc="http://creativecommons.org/ns#"
   xmlns:rdf="http://www.w3.org/1999/02/22-rdf-syntax-ns#"
   xmlns:svg="http://www.w3.org/2000/svg"
   xmlns="http://www.w3.org/2000/svg"
   xmlns:sodipodi="http://sodipodi.sourceforge.net/DTD/sodipodi-0.dtd"
   xmlns:inkscape="http://www.inkscape.org/namespaces/inkscape"
   version="1.1"
   id="Layer_1"
   x="0px"
   y="0px"
   width="67.455299"
   height="9.1091166"
   viewBox="0 0 67.455302 9.1091159"
   enable-background="new 0 0 240 40"
   xml:space="preserve"
   sodipodi:docname="sw-icon-relaxation-menu-outline.svg"
   inkscape:version="0.92.2 5c3e80d, 2017-08-06"><metadata
     id="metadata362"><rdf:RDF><cc:Work
         rdf:about=""><dc:format>image/svg+xml</dc:format><dc:type
           rdf:resource="http://purl.org/dc/dcmitype/StillImage" /><dc:title></dc:title></cc:Work></rdf:RDF></metadata><defs
     id="defs360" /><sodipodi:namedview
     pagecolor="#ffffff"
     bordercolor="#666666"
     borderopacity="1"
     objecttolerance="10"
     gridtolerance="10"
     guidetolerance="10"
     inkscape:pageopacity="0"
     inkscape:pageshadow="2"
     inkscape:window-width="1920"
     inkscape:window-height="1156"
     id="namedview358"
     showgrid="false"
     fit-margin-top="0"
     fit-margin-left="0"
     fit-margin-right="0"
     fit-margin-bottom="0"
     inkscape:zoom="35.338532"
     inkscape:cx="17.508113"
     inkscape:cy="-1.2223179"
     inkscape:window-x="36"
     inkscape:window-y="12"
     inkscape:window-maximized="0"
     inkscape:current-layer="g8621"
     inkscape:pagecheckerboard="true" /><g
     id="g8621"
     transform="translate(-7.4112309,-3.2246801)"><g
       id="g917"><g
         aria-label="Relaxation"
         style="font-style:normal;font-variant:normal;font-weight:normal;font-stretch:normal;font-size:26.68686295px;line-height:125%;font-family:Calibri;-inkscape-font-specification:'Calibri, Normal';text-align:justify;letter-spacing:0px;word-spacing:0px;writing-mode:lr-tb;text-anchor:start;fill:#cc99ff;fill-opacity:1;stroke:none;stroke-width:1.11195266px;stroke-linecap:butt;stroke-linejoin:miter;stroke-opacity:1"
         id="text862"><path
           d="m 21.689052,3.7939998 h 2.953346 q 0.806536,0 1.328413,0.2253558 0.521876,0.2134949 0.818397,0.5574589 0.308382,0.3321032 0.42699,0.759093 0.118608,0.415129 0.118608,0.8065363 0,0.4032682 -0.14233,0.7828147 -0.14233,0.3676857 -0.415129,0.6760672 -0.260938,0.2965208 -0.652345,0.5100157 -0.379547,0.201634 -0.85398,0.2490774 l 2.384026,3.8310472 H 26.231749 L 24.0968,8.4908879 h -1.269109 v 3.7005781 h -1.138639 z m 1.138639,3.7005785 h 1.494465 q 0.332103,0 0.652345,-0.047443 0.332103,-0.059304 0.581181,-0.2016341 0.260938,-0.14233 0.415129,-0.4032682 0.154191,-0.272799 0.154191,-0.6997889 0,-0.4269898 -0.154191,-0.687928 Q 25.81662,5.1817167 25.555682,5.0393868 25.306604,4.8970569 24.974501,4.8496136 24.654259,4.7903094 24.322156,4.7903094 h -1.494465 z"
           style="font-style:normal;font-variant:normal;font-weight:500;font-stretch:normal;font-size:11.8608284px;font-family:Avenir;-inkscape-font-specification:'Avenir Medium';letter-spacing:-0.11px;fill:#cc99ff;fill-opacity:1;stroke-width:1.11195266px"
           id="path827" /><path
           d="m 29.363647,9.7718573 q 0,0.3676857 0.154191,0.6760677 0.166051,0.29652 0.426989,0.510015 0.260939,0.213495 0.604903,0.332103 0.343964,0.118609 0.711649,0.118609 0.498155,0 0.865841,-0.225356 0.367685,-0.237217 0.676067,-0.616763 l 0.806536,0.616763 q -0.889562,1.1505 -2.490774,1.1505 -0.664206,0 -1.209804,-0.225355 -0.533737,-0.225356 -0.913284,-0.616764 -0.367686,-0.403268 -0.56932,-0.937005 -0.201634,-0.545598 -0.201634,-1.174222 0,-0.6286239 0.213495,-1.1623612 0.225356,-0.5455981 0.604902,-0.9370054 0.391408,-0.4032682 0.925145,-0.6286239 0.533737,-0.2253558 1.162361,-0.2253558 0.747232,0 1.257248,0.2609383 0.521876,0.2609382 0.85398,0.687928 0.332103,0.415129 0.474433,0.9488663 0.154191,0.5218764 0.154191,1.0674745 V 9.7718573 Z M 32.732122,8.9178777 Q 32.720261,8.5620528 32.613514,8.2655321 32.518627,7.9690114 32.316993,7.7555165 32.115359,7.5301608 31.806977,7.4115525 31.510457,7.2810834 31.107189,7.2810834 q -0.391408,0 -0.723511,0.1541907 -0.320242,0.14233 -0.545598,0.3795466 -0.225356,0.2372165 -0.355825,0.5337372 -0.118608,0.2846599 -0.118608,0.5693198 z"
           style="font-style:normal;font-variant:normal;font-weight:500;font-stretch:normal;font-size:11.8608284px;font-family:Avenir;-inkscape-font-specification:'Avenir Medium';letter-spacing:-0.11px;fill:#cc99ff;fill-opacity:1;stroke-width:1.11195266px"
           id="path829" /><path
           d="M 35.132355,3.2246801 H 36.19983 V 12.191466 H 35.132355 Z"
           style="font-style:normal;font-variant:normal;font-weight:500;font-stretch:normal;font-size:11.8608284px;font-family:Avenir;-inkscape-font-specification:'Avenir Medium';letter-spacing:-0.11px;fill:#cc99ff;fill-opacity:1;stroke-width:1.11195266px"
           id="path831" /><path
           d="m 37.81243,7.2573617 q 0.450711,-0.415129 1.043753,-0.6167631 0.593041,-0.2134949 1.186083,-0.2134949 0.616763,0 1.055613,0.1541908 0.450712,0.1541908 0.735372,0.415129 0.28466,0.2609382 0.415129,0.6049022 0.14233,0.3321032 0.14233,0.6997889 v 2.8703204 q 0,0.296521 0.01186,0.545598 0.01186,0.249078 0.03558,0.474433 h -0.948866 q -0.03558,-0.426989 -0.03558,-0.853979 h -0.02372 q -0.355825,0.545598 -0.842119,0.770954 -0.486294,0.225355 -1.126779,0.225355 -0.391407,0 -0.747232,-0.106747 -0.355825,-0.106748 -0.628624,-0.320243 -0.260938,-0.213494 -0.415129,-0.521876 -0.154191,-0.320242 -0.154191,-0.735371 0,-0.545598 0.237217,-0.9132841 0.249077,-0.3676857 0.664206,-0.5930415 0.42699,-0.2372165 0.984449,-0.3321032 0.56932,-0.1067474 1.209805,-0.1067474 H 41.3944 V 8.4671662 q 0,-0.2134949 -0.08303,-0.4269898 Q 41.228349,7.8266815 41.062297,7.6606299 40.896245,7.4827175 40.647168,7.3878308 40.398091,7.2810834 40.054127,7.2810834 q -0.308382,0 -0.545599,0.059304 -0.225355,0.059304 -0.415129,0.1541908 -0.189773,0.083026 -0.343964,0.2016341 -0.15419,0.1186083 -0.29652,0.2253557 z m 3.01265,2.2298358 q -0.379546,0 -0.782814,0.047443 -0.391408,0.035583 -0.723511,0.1541907 -0.320242,0.1186083 -0.533737,0.3321035 -0.201634,0.213495 -0.201634,0.545598 0,0.486294 0.320242,0.699789 0.332103,0.213495 0.889562,0.213495 0.438851,0 0.747233,-0.14233 0.308381,-0.154191 0.498154,-0.391408 0.189774,-0.237216 0.272799,-0.521876 0.08303,-0.296521 0.08303,-0.5811807 V 9.4871975 Z"
           style="font-style:normal;font-variant:normal;font-weight:500;font-stretch:normal;font-size:11.8608284px;font-family:Avenir;-inkscape-font-specification:'Avenir Medium';letter-spacing:-0.11px;fill:#cc99ff;fill-opacity:1;stroke-width:1.11195266px"
           id="path833" /><path
           d="m 45.382687,9.1906767 -1.99262,-2.621243 h 1.375857 l 1.363995,1.9926191 1.340273,-1.9926191 h 1.292831 l -1.921454,2.621243 2.277279,3.0007893 H 47.742992 L 46.082476,9.8311615 44.42196,12.191466 h -1.316552 z"
           style="font-style:normal;font-variant:normal;font-weight:500;font-stretch:normal;font-size:11.8608284px;font-family:Avenir;-inkscape-font-specification:'Avenir Medium';letter-spacing:-0.11px;fill:#cc99ff;fill-opacity:1;stroke-width:1.11195266px"
           id="path835" /><path
           d="m 49.916573,7.2573617 q 0.450712,-0.415129 1.043753,-0.6167631 0.593041,-0.2134949 1.186083,-0.2134949 0.616763,0 1.055614,0.1541908 0.450711,0.1541908 0.735371,0.415129 0.28466,0.2609382 0.415129,0.6049022 0.14233,0.3321032 0.14233,0.6997889 v 2.8703204 q 0,0.296521 0.01186,0.545598 0.01186,0.249078 0.03558,0.474433 H 53.59343 q -0.03558,-0.426989 -0.03558,-0.853979 h -0.02372 q -0.355825,0.545598 -0.842119,0.770954 -0.486294,0.225355 -1.126779,0.225355 -0.391407,0 -0.747232,-0.106747 -0.355825,-0.106748 -0.628624,-0.320243 -0.260938,-0.213494 -0.415129,-0.521876 -0.154191,-0.320242 -0.154191,-0.735371 0,-0.545598 0.237217,-0.9132841 0.249077,-0.3676857 0.664206,-0.5930415 0.42699,-0.2372165 0.984449,-0.3321032 0.56932,-0.1067474 1.209805,-0.1067474 h 0.782814 V 8.4671662 q 0,-0.2134949 -0.08302,-0.4269898 Q 53.332492,7.8266815 53.16644,7.6606299 53.000389,7.4827175 52.751311,7.3878308 52.502234,7.2810834 52.15827,7.2810834 q -0.308382,0 -0.545598,0.059304 -0.225356,0.059304 -0.415129,0.1541908 -0.189774,0.083026 -0.343964,0.2016341 -0.154191,0.1186083 -0.296521,0.2253557 z m 3.012651,2.2298358 q -0.379547,0 -0.782815,0.047443 -0.391407,0.035583 -0.723511,0.1541907 -0.320242,0.1186083 -0.533737,0.3321035 -0.201634,0.213495 -0.201634,0.545598 0,0.486294 0.320242,0.699789 0.332104,0.213495 0.889562,0.213495 0.438851,0 0.747233,-0.14233 0.308381,-0.154191 0.498154,-0.391408 0.189774,-0.237216 0.2728,-0.521876 0.08302,-0.296521 0.08302,-0.5811807 V 9.4871975 Z"
           style="font-style:normal;font-variant:normal;font-weight:500;font-stretch:normal;font-size:11.8608284px;font-family:Avenir;-inkscape-font-specification:'Avenir Medium';letter-spacing:-0.11px;fill:#cc99ff;fill-opacity:1;stroke-width:1.11195266px"
           id="path837" /><path
           d="m 58.957571,7.4945783 h -1.530047 v 2.5500777 q 0,0.237217 0.01186,0.474434 0.01186,0.225355 0.08302,0.415129 0.08303,0.177912 0.237217,0.29652 0.166052,0.106748 0.474433,0.106748 0.189773,0 0.391407,-0.03558 0.201634,-0.03558 0.367686,-0.130469 v 0.972588 q -0.189773,0.106747 -0.498155,0.14233 -0.29652,0.04744 -0.462572,0.04744 -0.616763,0 -0.960727,-0.166051 -0.332103,-0.177913 -0.498155,-0.450712 -0.154191,-0.272799 -0.189773,-0.604902 -0.02372,-0.343964 -0.02372,-0.687928 V 7.4945783 H 55.126523 V 6.5694337 h 1.233526 V 4.9919435 h 1.067475 v 1.5774902 h 1.530047 z"
           style="font-style:normal;font-variant:normal;font-weight:500;font-stretch:normal;font-size:11.8608284px;font-family:Avenir;-inkscape-font-specification:'Avenir Medium';letter-spacing:-0.11px;fill:#cc99ff;fill-opacity:1;stroke-width:1.11195266px"
           id="path839" /><path
           d="m 60.29626,6.5694337 h 1.067475 V 12.191466 H 60.29626 Z M 60.047183,4.5530928 q 0,-0.3202423 0.225356,-0.5455981 0.237216,-0.2372165 0.557459,-0.2372165 0.320242,0 0.545598,0.2372165 0.237216,0.2253558 0.237216,0.5455981 0,0.3202424 -0.237216,0.557459 -0.225356,0.2253557 -0.545598,0.2253557 -0.320243,0 -0.557459,-0.2253557 -0.225356,-0.2372166 -0.225356,-0.557459 z"
           style="font-style:normal;font-variant:normal;font-weight:500;font-stretch:normal;font-size:11.8608284px;font-family:Avenir;-inkscape-font-specification:'Avenir Medium';letter-spacing:-0.11px;fill:#cc99ff;fill-opacity:1;stroke-width:1.11195266px"
           id="path841" /><path
           d="m 63.818455,9.38045 q 0,0.4269898 0.130469,0.794676 0.130469,0.355824 0.367686,0.616763 0.237216,0.249077 0.58118,0.403268 0.343964,0.14233 0.770954,0.14233 0.42699,0 0.770954,-0.14233 0.343964,-0.154191 0.581181,-0.403268 0.237216,-0.260939 0.367685,-0.616763 0.130469,-0.3676862 0.130469,-0.794676 0,-0.4269898 -0.130469,-0.7828147 Q 67.258095,8.2299496 67.020879,7.9808722 66.783662,7.719934 66.439698,7.5776041 66.095734,7.4234133 65.668744,7.4234133 q -0.42699,0 -0.770954,0.1541908 Q 64.553826,7.719934 64.31661,7.9808722 64.079393,8.2299496 63.948924,8.5976353 63.818455,8.9534602 63.818455,9.38045 Z m -1.13864,0 q 0,-0.6167631 0.225356,-1.1505004 0.237217,-0.5337372 0.640485,-0.9370054 0.403268,-0.4032682 0.948866,-0.6286239 0.545598,-0.2372166 1.174222,-0.2372166 0.628624,0 1.174222,0.2372166 0.545598,0.2253557 0.948866,0.6286239 0.403269,0.4032682 0.628624,0.9370054 0.237217,0.5337373 0.237217,1.1505004 0,0.6167631 -0.237217,1.162361 -0.225355,0.533737 -0.628624,0.937006 -0.403268,0.391407 -0.948866,0.628624 -0.545598,0.225355 -1.174222,0.225355 -0.628624,0 -1.174222,-0.225355 Q 63.948924,11.871224 63.545656,11.479817 63.142388,11.076548 62.905171,10.542811 62.679815,9.9972131 62.679815,9.38045 Z"
           style="font-style:normal;font-variant:normal;font-weight:500;font-stretch:normal;font-size:11.8608284px;font-family:Avenir;-inkscape-font-specification:'Avenir Medium';letter-spacing:-0.11px;fill:#cc99ff;fill-opacity:1;stroke-width:1.11195266px"
           id="path843" /><path
           d="m 69.88498,6.5694337 h 1.067474 v 0.8658404 h 0.02372 q 0.201634,-0.4507114 0.699789,-0.7235105 0.498155,-0.2846599 1.1505,-0.2846599 0.403268,0 0.770954,0.1304691 0.379547,0.1186083 0.652346,0.3795466 0.28466,0.2609382 0.450711,0.6760672 0.166052,0.4032681 0.166052,0.9607271 V 12.191466 H 73.799053 V 8.8704344 q 0,-0.3914074 -0.106747,-0.6642064 -0.106748,-0.2846599 -0.28466,-0.4507115 -0.177913,-0.1779124 -0.415129,-0.2490774 -0.225356,-0.083026 -0.474433,-0.083026 -0.332103,0 -0.616763,0.1067475 -0.28466,0.1067474 -0.498155,0.343964 -0.213495,0.2253557 -0.332103,0.5811806 -0.118609,0.3558248 -0.118609,0.8421188 V 12.191466 H 69.88498 Z"
           style="font-style:normal;font-variant:normal;font-weight:500;font-stretch:normal;font-size:11.8608284px;font-family:Avenir;-inkscape-font-specification:'Avenir Medium';letter-spacing:-0.11px;fill:#cc99ff;fill-opacity:1;stroke-width:1.11195266px"
           id="path845" /></g><g
         id="g901"><path
           id="path239-0"
           d="m 7.9112309,3.9421726 c 0,0.821 0.6315385,1.4525384 1.4525384,1.4525384 0.8209997,0 1.4525387,-0.6315384 1.4525387,-1.4525384"
           stroke-miterlimit="10"
           inkscape:connector-curvature="0"
           style="fill:none;stroke:#cc99ff;stroke-width:1;stroke-miterlimit:10;stroke-opacity:1" /><path
           id="path241-7"
           d="M 11.953077,6.5314802"
           stroke-miterlimit="10"
           inkscape:connector-curvature="0"
           style="fill:none;stroke:#cc99ff;stroke-width:1;stroke-miterlimit:10;stroke-opacity:1" /><path
           id="path243-2"
           d="m 11.953077,3.9421726 c 0,0.821 0.631538,1.4525384 1.452538,1.4525384 0.821,0 1.452539,-0.6315384 1.452539,-1.4525384"
           stroke-miterlimit="10"
           inkscape:connector-curvature="0"
           style="fill:none;stroke:#cc99ff;stroke-width:1;stroke-miterlimit:10;stroke-opacity:1" /><path
           id="path245-9"
           d="M 15.994923,6.5314802"
           stroke-miterlimit="10"
           inkscape:connector-curvature="0"
           style="fill:none;stroke:#cc99ff;stroke-width:1;stroke-miterlimit:10;stroke-opacity:1" /><path
           id="path247-8"
           d="m 15.994923,3.9421726 c 0,0.821 0.631539,1.4525384 1.452539,1.4525384 0.821,0 1.452538,-0.6315384 1.452538,-1.4525384"
           stroke-miterlimit="10"
           inkscape:connector-curvature="0"
           style="fill:none;stroke:#cc99ff;stroke-width:1;stroke-miterlimit:10;stroke-opacity:1" /><path
           id="path249-1"
           d="m 7.9112309,12.152173 c 0,-0.821 0.6315385,-1.452539 1.4525384,-1.452539 0.8209997,0 1.4525387,0.631539 1.4525387,1.452539"
           stroke-miterlimit="10"
           inkscape:connector-curvature="0"
           style="fill:none;stroke:#cc99ff;stroke-width:1;stroke-miterlimit:10;stroke-opacity:1" /><path
           id="path251-1"
           d="m 11.953077,12.152173 c 0,-0.821 0.631538,-1.452539 1.452538,-1.452539 0.821,0 1.452539,0.631539 1.452539,1.452539"
           stroke-miterlimit="10"
           inkscape:connector-curvature="0"
           style="fill:none;stroke:#cc99ff;stroke-width:1;stroke-miterlimit:10;stroke-opacity:1" /><path
           id="path253-6"
           d="m 15.994923,12.152173 c 0,-0.821 0.631539,-1.452539 1.452539,-1.452539 0.821,0 1.452538,0.631539 1.452538,1.452539"
           stroke-miterlimit="10"
           inkscape:connector-curvature="0"
           style="fill:none;stroke:#cc99ff;stroke-width:1;stroke-miterlimit:10;stroke-opacity:1" /><path
           style="fill:none;stroke:#cc99ff;stroke-width:1;stroke-miterlimit:10;stroke-opacity:1"
           d="M 10.816308,8.0471725 A 1.4525384,1.4525384 0 0 1 9.3637695,9.4997109 1.4525384,1.4525384 0 0 1 7.9112312,8.0471725 1.4525384,1.4525384 0 0 1 9.3637695,6.5946342 1.4525384,1.4525384 0 0 1 10.816308,8.0471725 Z"
           id="circle255-1" /><path
           style="fill:none;stroke:#cc99ff;stroke-width:1;stroke-miterlimit:10;stroke-opacity:1"
           d="M 14.858154,8.0471725 A 1.4525384,1.4525384 0 0 1 13.405616,9.4997109 1.4525384,1.4525384 0 0 1 11.953077,8.0471725 1.4525384,1.4525384 0 0 1 13.405616,6.5946342 1.4525384,1.4525384 0 0 1 14.858154,8.0471725 Z"
           id="circle257-1" /><path
           style="fill:#cc99ff;fill-opacity:1;stroke:#cc99ff;stroke-width:1;stroke-miterlimit:10;stroke-opacity:1"
           d="M 18.9,8.0471725 A 1.4525384,1.4525384 0 0 1 17.447462,9.4997109 1.4525384,1.4525384 0 0 1 15.994924,8.0471725 1.4525384,1.4525384 0 0 1 17.447462,6.5946342 1.4525384,1.4525384 0 0 1 18.9,8.0471725 Z"
           id="circle259-8" /></g></g></g></svg>