<?xml version="1.0" encoding="UTF-8" standalone="no"?>
<!-- Generator: Adobe Illustrator 17.1.0, SVG Export Plug-In . SVG Version: 6.00 Build 0)  -->

<svg
   xmlns:dc="http://purl.org/dc/elements/1.1/"
   xmlns:cc="http://creativecommons.org/ns#"
   xmlns:rdf="http://www.w3.org/1999/02/22-rdf-syntax-ns#"
   xmlns:svg="http://www.w3.org/2000/svg"
   xmlns="http://www.w3.org/2000/svg"
   xmlns:sodipodi="http://sodipodi.sourceforge.net/DTD/sodipodi-0.dtd"
   xmlns:inkscape="http://www.inkscape.org/namespaces/inkscape"
   version="1.1"
   id="Layer_1"
   x="0px"
   y="0px"
   width="134.96207"
   height="13"
   viewBox="0 0 134.96207 13"
   enable-background="new 0 0 240 40"
   xml:space="preserve"
   sodipodi:docname="sw-icon-structure-menusvg.svg"
   inkscape:version="0.92.3 (2405546, 2018-03-11)"><metadata
   id="metadata193"><rdf:RDF><cc:Work
       rdf:about=""><dc:format>image/svg+xml</dc:format><dc:type
         rdf:resource="http://purl.org/dc/dcmitype/StillImage" /><dc:title></dc:title></cc:Work></rdf:RDF></metadata><defs
   id="defs191">
	
	
	
	
	
	
	
	
	
	
	
	
	
	
	
	
	
	
	
	
	
	
</defs><sodipodi:namedview
   pagecolor="#ffffff"
   bordercolor="#666666"
   borderopacity="1"
   objecttolerance="10"
   gridtolerance="10"
   guidetolerance="10"
   inkscape:pageopacity="0"
   inkscape:pageshadow="2"
   inkscape:window-width="1329"
   inkscape:window-height="740"
   id="namedview189"
   showgrid="false"
   fit-margin-top="0"
   fit-margin-left="0"
   fit-margin-right="0"
   fit-margin-bottom="0"
   inkscape:zoom="4.0305086"
   inkscape:cx="125.84342"
   inkscape:cy="-29.544448"
   inkscape:window-x="3213"
   inkscape:window-y="661"
   inkscape:window-maximized="0"
   inkscape:current-layer="Layer_1" />












































<g
   id="g8464"
   transform="translate(-1,-1)"><path
     d="m 22.7,9.75408 c 0.2,0.3 0.5,0.5 0.8,0.7 0.3,0.2 0.7,0.2 1,0.2 0.2,0 0.4,0 0.6,-0.1 0.2,-0.1 0.4,-0.2 0.6,-0.3 0.2,-0.1 0.3,-0.3 0.4,-0.4 0.1,-0.2 0.2,-0.4 0.2,-0.6 0,-0.3 -0.1,-0.6 -0.3,-0.8 -0.2,-0.2 -0.5,-0.3 -0.8,-0.4 -0.3,-0.1 -0.7,-0.2 -1,-0.3 -0.3,-0.1 -0.7,-0.3 -1,-0.5 -0.3,-0.2 -0.6,-0.5 -0.8,-0.8 -0.2,-0.3 -0.4,-0.8 -0.4,-1.4 0,-0.3 0.1,-0.5 0.2,-0.8 0.1,-0.3 0.3,-0.5 0.5,-0.8 0.2,-0.2 0.5,-0.4 0.9,-0.6 0.4,-0.2 0.8,-0.2 1.3,-0.2 0.5,0 0.9,0.1 1.3,0.2 0.4,0.1 0.8,0.4 1.1,0.8 l -0.9,0.9 c -0.1,-0.2 -0.4,-0.4 -0.6,-0.5 -0.2,-0.1 -0.6,-0.2 -0.9,-0.2 -0.3,0 -0.6,0 -0.8,0.1 -0.2,0.1 -0.4,0.2 -0.5,0.3 -0.1,0.1 -0.2,0.3 -0.3,0.4 -0.1,0.2 -0.1,0.3 -0.1,0.4 0,0.4 0.1,0.6 0.3,0.8 0.2,0.2 0.5,0.4 0.8,0.5 0.3,0.1 0.7,0.2 1,0.3 0.3,0.1 0.7,0.2 1,0.4 0.3,0.2 0.6,0.4 0.8,0.7 0.2,0.3 0.3,0.7 0.3,1.2 0,0.4 -0.1,0.8 -0.2,1.1 -0.2,0.3 -0.4,0.6 -0.6,0.8 -0.2,0.2 -0.6,0.4 -0.9,0.5 -0.4,0.1 -0.8,0.2 -1.2,0.2 -0.6,0 -1.1,-0.1 -1.6,-0.3 -0.5,-0.2 -0.9,-0.5 -1.2,-0.9 z"
     id="path12"
     inkscape:connector-curvature="0"
     style="fill:#06ede1" /><path
     d="m 31.7,6.75408 h -1.6 v 2.6 c 0,0.2 0,0.3 0,0.5 0,0.2 0,0.3 0.1,0.4 0.1,0.1 0.1,0.2 0.2,0.3 0.1,0.1 0.3,0.1 0.5,0.1 0.1,0 0.3,0 0.4,0 0.1,0 0.3,-0.1 0.4,-0.1 v 1 c -0.1,0.1 -0.3,0.1 -0.5,0.2 -0.2,0 -0.4,0 -0.5,0 -0.4,0 -0.7,-0.1 -1,-0.2 -0.2,-0.1 -0.4,-0.3 -0.5,-0.5 -0.1,-0.2 -0.2,-0.4 -0.2,-0.6 0,-0.2 0,-0.5 0,-0.7 v -3 h -1.3 v -0.9 H 29 v -1.6 h 1.1 v 1.6 h 1.6 z"
     id="path14"
     inkscape:connector-curvature="0"
     style="fill:#06ede1" /><path
     d="m 32.8,5.75408 h 1.1 v 0.9 0 c 0.1,-0.2 0.2,-0.3 0.3,-0.4 0.1,-0.1 0.3,-0.2 0.4,-0.3 0.1,-0.1 0.3,-0.2 0.5,-0.2 0.2,-0.1 0.4,-0.1 0.5,-0.1 0.2,0 0.3,0 0.5,0.1 v 1.2 c -0.1,0 -0.2,0 -0.3,-0.1 -0.1,0 -0.2,0 -0.3,0 -0.5,0 -0.9,0.1 -1.2,0.4 -0.3,0.3 -0.4,0.8 -0.4,1.4 v 2.9 h -1.1 z"
     id="path16"
     inkscape:connector-curvature="0"
     style="fill:#06ede1" /><path
     d="M 42.1,11.55408 H 41 v -0.9 0 c -0.1,0.3 -0.4,0.6 -0.7,0.7 -0.3,0.1 -0.7,0.3 -1.2,0.3 -0.3,0 -0.6,0 -0.8,-0.1 -0.3,-0.1 -0.5,-0.2 -0.7,-0.4 -0.2,-0.2 -0.3,-0.4 -0.5,-0.7 -0.1,-0.3 -0.2,-0.6 -0.2,-1 v -3.7 H 38 v 3.4 c 0,0.3 0,0.5 0.1,0.7 0.1,0.2 0.2,0.3 0.3,0.5 0.1,0.1 0.3,0.2 0.4,0.3 0.1,0.1 0.3,0.1 0.5,0.1 0.2,0 0.4,0 0.6,-0.1 0.2,-0.1 0.4,-0.2 0.5,-0.3 0.1,-0.2 0.3,-0.4 0.3,-0.6 0.3,-0.4 0.3,-0.7 0.3,-1 v -3 h 1.1 z"
     id="path18"
     inkscape:connector-curvature="0"
     style="fill:#06ede1" /><path
     d="m 47.6,7.25408 c -0.2,-0.2 -0.4,-0.4 -0.6,-0.5 -0.2,-0.1 -0.5,-0.2 -0.8,-0.2 -0.3,0 -0.6,0.1 -0.8,0.2 -0.2,0.1 -0.4,0.3 -0.6,0.4 -0.1,0.2 -0.3,0.4 -0.3,0.7 -0.1,0.2 -0.1,0.5 -0.1,0.8 0,0.3 0,0.5 0.1,0.8 0.1,0.2 0.2,0.4 0.4,0.6 0.2,0.2 0.4,0.3 0.6,0.4 0.2,0.1 0.5,0.2 0.8,0.2 0.3,0 0.6,-0.1 0.8,-0.2 0.2,-0.1 0.4,-0.3 0.6,-0.5 l 0.8,0.8 c -0.3,0.3 -0.6,0.5 -1,0.7 -0.4,0.1 -0.8,0.2 -1.2,0.2 -0.4,0 -0.9,-0.1 -1.2,-0.2 -0.4,-0.1 -0.7,-0.3 -1,-0.6 -0.3,-0.3 -0.5,-0.6 -0.6,-0.9 -0.1,-0.3 -0.2,-0.8 -0.2,-1.2 0,-0.4 0.1,-0.9 0.2,-1.2 0.1,-0.4 0.4,-0.7 0.6,-1 0.3,-0.3 0.6,-0.5 0.9,-0.6 0.4,-0.1 0.8,-0.2 1.2,-0.2 0.4,0 0.8,0.1 1.2,0.2 0.4,0.1 0.7,0.4 1,0.7 z"
     id="path20"
     inkscape:connector-curvature="0"
     style="fill:#06ede1" /><path
     d="m 52.8,6.75408 h -1.6 v 2.6 c 0,0.2 0,0.3 0,0.5 0,0.2 0,0.3 0.1,0.4 0.1,0.1 0.1,0.2 0.2,0.3 0.1,0.1 0.3,0.1 0.5,0.1 0.1,0 0.3,0 0.4,0 0.1,0 0.3,-0.1 0.4,-0.1 v 1 c -0.1,0.1 -0.3,0.1 -0.5,0.2 -0.2,0 -0.4,0 -0.5,0 -0.4,0 -0.7,-0.1 -1,-0.2 -0.2,-0.1 -0.4,-0.3 -0.5,-0.5 -0.1,-0.2 -0.2,-0.4 -0.2,-0.6 0,-0.2 0,-0.5 0,-0.7 v -3 h -1.3 v -0.9 h 1.3 v -1.6 h 1.1 v 1.6 h 1.6 z"
     id="path22"
     inkscape:connector-curvature="0"
     style="fill:#06ede1" /><path
     d="m 59,11.55408 h -1.1 v -0.9 0 c -0.1,0.3 -0.4,0.6 -0.7,0.7 -0.3,0.1 -0.7,0.3 -1.2,0.3 -0.3,0 -0.6,0 -0.8,-0.1 -0.3,-0.1 -0.5,-0.2 -0.7,-0.4 -0.2,-0.2 -0.3,-0.4 -0.5,-0.7 -0.1,-0.3 -0.2,-0.6 -0.2,-1 v -3.7 H 55 v 3.4 c 0,0.3 0,0.5 0.1,0.7 0.1,0.2 0.2,0.3 0.3,0.5 0.1,0.1 0.3,0.2 0.4,0.3 0.1,0.1 0.3,0.1 0.5,0.1 0.2,0 0.4,0 0.6,-0.1 0.2,-0.1 0.4,-0.2 0.5,-0.3 0.1,-0.2 0.3,-0.4 0.3,-0.6 0.1,-0.2 0.1,-0.5 0.1,-0.9 v -3 H 59 Z"
     id="path24"
     inkscape:connector-curvature="0"
     style="fill:#06ede1" /><path
     d="m 60.4,5.75408 h 1.1 v 0.9 0 c 0.1,-0.2 0.2,-0.3 0.3,-0.4 0.1,-0.1 0.3,-0.2 0.4,-0.3 0.1,-0.1 0.3,-0.2 0.5,-0.2 0.2,-0.1 0.4,-0.1 0.5,-0.1 0.2,0 0.3,0 0.5,0.1 v 1.2 c -0.1,0 -0.2,0 -0.3,-0.1 -0.1,0 -0.2,0 -0.3,0 -0.5,0 -0.9,0.1 -1.2,0.4 -0.3,0.3 -0.4,0.8 -0.4,1.4 v 2.9 h -1.1 z"
     id="path26"
     inkscape:connector-curvature="0"
     style="fill:#06ede1" /><path
     d="m 65.2,9.05408 c 0,0.3 0.1,0.5 0.2,0.7 0.1,0.2 0.3,0.4 0.4,0.5 0.2,0.1 0.4,0.3 0.6,0.3 0.2,0.1 0.5,0.1 0.7,0.1 0.3,0 0.6,-0.1 0.9,-0.2 0.3,-0.2 0.5,-0.4 0.7,-0.6 l 0.8,0.6 c -0.6,0.8 -1.5,1.2 -2.5,1.2 -0.5,0 -0.9,-0.1 -1.2,-0.2 -0.3,-0.1 -0.7,-0.4 -0.9,-0.6 -0.3,-0.3 -0.5,-0.6 -0.6,-1 -0.1,-0.4 -0.2,-0.8 -0.2,-1.2 0,-0.4 0.1,-0.8 0.2,-1.2 0.1,-0.4 0.4,-0.7 0.6,-1 0.2,-0.3 0.6,-0.5 0.9,-0.6 0.4,-0.2 0.8,-0.2 1.2,-0.2 0.5,0 0.9,0.1 1.3,0.3 0.4,0.2 0.6,0.4 0.9,0.7 0.2,0.3 0.4,0.6 0.5,1 0.1,0.4 0.2,0.7 0.2,1.1 v 0.4 h -4.7 z m 3.4,-0.9 c 0,-0.2 0,-0.5 -0.1,-0.7 -0.1,-0.2 -0.2,-0.4 -0.3,-0.5 -0.1,-0.1 -0.3,-0.3 -0.5,-0.4 -0.2,-0.1 -0.4,-0.1 -0.7,-0.1 -0.3,0 -0.5,0.1 -0.7,0.2 -0.2,0.1 -0.4,0.2 -0.6,0.4 -0.2,0.2 -0.3,0.3 -0.4,0.5 -0.1,0.2 -0.1,0.4 -0.1,0.6 z"
     id="path28"
     inkscape:connector-curvature="0"
     style="fill:#06ede1" /><g
     transform="translate(50.862067,-10.916736)"
     id="g8411"><path
       style="fill:none;stroke:#979797;stroke-width:0.99150002;stroke-miterlimit:10"
       inkscape:connector-curvature="0"
       stroke-miterlimit="10"
       d="M 24.4,20.3"
       id="path2" /><path
       style="fill:none;stroke:#979797;stroke-width:0.99150002;stroke-miterlimit:10"
       inkscape:connector-curvature="0"
       stroke-miterlimit="10"
       d="M 24.5,20.3"
       id="path10" /><path
       style="fill:#06ede1"
       inkscape:connector-curvature="0"
       id="path30"
       d="m 21.3,14.05408 h 1.3 l 2.5,7 v 0 l 2.6,-7 H 29 l -3.4,8.6 h -1.1 z" /><path
       style="fill:#06ede1"
       inkscape:connector-curvature="0"
       id="path32"
       d="m 29.4,14.85408 c 0,-0.2 0.1,-0.4 0.2,-0.6 0.2,-0.2 0.3,-0.2 0.6,-0.2 0.2,0 0.4,0.1 0.6,0.2 0.2,0.2 0.2,0.3 0.2,0.6 0,0.3 -0.1,0.4 -0.2,0.6 -0.2,0.2 -0.3,0.2 -0.6,0.2 -0.2,0 -0.4,-0.1 -0.6,-0.2 -0.1,-0.2 -0.2,-0.4 -0.2,-0.6 z m 0.2,2 h 1.1 v 5.8 h -1.1 z" /><path
       style="fill:#06ede1"
       inkscape:connector-curvature="0"
       id="path34"
       d="m 35.2,18.35408 c -0.1,-0.2 -0.3,-0.3 -0.5,-0.4 -0.2,-0.1 -0.4,-0.2 -0.7,-0.2 -0.3,0 -0.5,0.1 -0.7,0.2 -0.2,0.1 -0.3,0.3 -0.3,0.5 0,0.2 0.1,0.3 0.2,0.4 0.1,0.1 0.2,0.2 0.4,0.3 0.1,0.1 0.3,0.1 0.5,0.1 0.2,0 0.3,0.1 0.4,0.1 0.2,0.1 0.5,0.1 0.7,0.2 0.2,0.1 0.4,0.2 0.5,0.3 0.1,0.1 0.3,0.3 0.4,0.5 0.1,0.2 0.1,0.4 0.1,0.7 0,0.3 -0.1,0.6 -0.2,0.8 -0.1,0.2 -0.3,0.4 -0.5,0.6 -0.2,0.1 -0.5,0.2 -0.7,0.3 -0.3,0.1 -0.6,0.1 -0.8,0.1 -0.5,0 -0.9,-0.1 -1.3,-0.2 -0.4,-0.1 -0.7,-0.4 -1,-0.8 l 0.8,-0.7 c 0.2,0.2 0.4,0.3 0.6,0.5 0.2,0.1 0.5,0.2 0.8,0.2 0.1,0 0.3,0 0.4,0 0.1,0 0.3,-0.1 0.4,-0.1 0.1,-0.1 0.2,-0.1 0.3,-0.2 0.1,-0.1 0.1,-0.2 0.1,-0.3 0,-0.2 -0.1,-0.3 -0.2,-0.4 -0.1,-0.1 -0.2,-0.2 -0.4,-0.2 -0.2,0 -0.3,-0.1 -0.4,-0.1 -0.2,0 -0.3,-0.1 -0.4,-0.1 -0.2,-0.1 -0.5,-0.1 -0.7,-0.2 -0.2,-0.1 -0.4,-0.2 -0.6,-0.3 -0.2,-0.1 -0.3,-0.3 -0.4,-0.5 -0.1,-0.2 -0.1,-0.4 -0.1,-0.7 0,-0.3 0.1,-0.6 0.2,-0.8 0.1,-0.2 0.3,-0.4 0.5,-0.6 0.2,-0.1 0.4,-0.3 0.7,-0.3 0.3,-0.1 0.5,-0.1 0.8,-0.1 0.4,0 0.8,0.1 1.1,0.2 0.3,0.1 0.6,0.4 0.8,0.7 z" /><path
       style="fill:#06ede1"
       inkscape:connector-curvature="0"
       id="path36"
       d="m 42.3,22.65408 h -1.1 v -0.9 0 c -0.1,0.3 -0.4,0.6 -0.7,0.7 -0.3,0.1 -0.7,0.3 -1.2,0.3 -0.3,0 -0.6,0 -0.8,-0.1 -0.3,-0.1 -0.5,-0.2 -0.7,-0.4 -0.2,-0.2 -0.3,-0.4 -0.5,-0.7 -0.1,-0.3 -0.2,-0.6 -0.2,-1 v -3.7 h 1.1 v 3.4 c 0,0.3 0,0.5 0.1,0.7 0.1,0.2 0.2,0.3 0.3,0.5 0.1,0.1 0.3,0.2 0.4,0.3 0.1,0.1 0.3,0.1 0.5,0.1 0.2,0 0.4,0 0.6,-0.1 0.2,-0.1 0.4,-0.2 0.5,-0.3 0.1,-0.2 0.3,-0.4 0.3,-0.6 0.1,-0.2 0.1,-0.5 0.1,-0.9 v -3 h 1.1 v 5.7 z" /><path
       style="fill:#06ede1"
       inkscape:connector-curvature="0"
       id="path38"
       d="m 43.7,17.55408 c 0.3,-0.3 0.7,-0.5 1.1,-0.6 0.4,-0.1 0.8,-0.2 1.2,-0.2 0.4,0 0.8,0.1 1.1,0.2 0.3,0.1 0.6,0.2 0.7,0.4 0.2,0.2 0.3,0.4 0.4,0.6 0.1,0.2 0.1,0.5 0.1,0.7 v 2.9 c 0,0.2 0,0.4 0,0.6 0,0.2 0,0.3 0,0.5 h -1 c 0,-0.3 0,-0.6 0,-0.9 v 0 c -0.2,0.4 -0.5,0.6 -0.9,0.8 -0.3,0.2 -0.7,0.2 -1.2,0.2 -0.3,0 -0.5,0 -0.8,-0.1 -0.2,-0.1 -0.5,-0.2 -0.6,-0.3 -0.1,-0.1 -0.3,-0.3 -0.4,-0.5 -0.1,-0.2 -0.2,-0.5 -0.2,-0.7 0,-0.4 0.1,-0.7 0.2,-0.9 0.1,-0.2 0.4,-0.5 0.7,-0.6 0.3,-0.2 0.6,-0.3 1,-0.3 0.4,-0.1 0.8,-0.1 1.2,-0.1 h 0.8 v -0.2 c 0,-0.1 0,-0.3 -0.1,-0.4 -0.1,-0.1 -0.1,-0.3 -0.3,-0.4 -0.1,-0.1 -0.3,-0.2 -0.4,-0.3 -0.2,-0.1 -0.4,-0.1 -0.6,-0.1 -0.2,0 -0.4,0 -0.6,0.1 -0.2,0 -0.3,0.1 -0.4,0.2 -0.1,0.1 -0.2,0.1 -0.4,0.2 -0.2,0.1 -0.2,0.2 -0.3,0.2 z m 3.1,2.3 c -0.3,0 -0.5,0 -0.8,0 -0.3,0 -0.5,0.1 -0.7,0.2 -0.2,0.1 -0.4,0.2 -0.5,0.3 -0.1,0.1 -0.2,0.3 -0.2,0.6 0,0.3 0.1,0.6 0.3,0.7 0.2,0.1 0.5,0.2 0.9,0.2 0.3,0 0.6,0 0.8,-0.2 0.2,-0.2 0.4,-0.2 0.5,-0.4 0.1,-0.2 0.2,-0.3 0.3,-0.5 0.1,-0.2 0.1,-0.4 0.1,-0.6 v -0.4 h -0.7 z" /><path
       style="fill:#06ede1"
       inkscape:connector-curvature="0"
       id="path40"
       d="m 49.8,13.45408 h 1.1 v 9.2 h -1.1 z" /><path
       style="fill:#06ede1"
       inkscape:connector-curvature="0"
       id="path42"
       d="m 52.1,14.85408 c 0,-0.2 0.1,-0.4 0.2,-0.6 0.2,-0.2 0.3,-0.2 0.6,-0.2 0.2,0 0.4,0.1 0.6,0.2 0.2,0.2 0.2,0.3 0.2,0.6 0,0.3 -0.1,0.4 -0.2,0.6 -0.2,0.2 -0.3,0.2 -0.6,0.2 -0.2,0 -0.4,-0.1 -0.6,-0.2 -0.1,-0.2 -0.2,-0.4 -0.2,-0.6 z m 0.3,2 h 1.1 v 5.8 h -1.1 z" /><path
       style="fill:#06ede1"
       inkscape:connector-curvature="0"
       id="path44"
       d="m 54.5,21.65408 3.3,-3.8 h -3.2 v -0.9 h 4.5 v 1 l -3.3,3.8 h 3.5 v 0.9 h -4.8 z" /><path
       style="fill:#06ede1"
       inkscape:connector-curvature="0"
       id="path46"
       d="m 60.2,17.55408 c 0.3,-0.3 0.7,-0.5 1.1,-0.6 0.4,-0.1 0.8,-0.2 1.2,-0.2 0.4,0 0.8,0.1 1.1,0.2 0.3,0.1 0.6,0.2 0.7,0.4 0.2,0.2 0.3,0.4 0.4,0.6 0.1,0.2 0.1,0.5 0.1,0.7 v 2.9 c 0,0.2 0,0.4 0,0.6 0,0.2 0,0.3 0,0.5 h -1 c 0,-0.3 0,-0.6 0,-0.9 v 0 c -0.2,0.4 -0.5,0.6 -0.9,0.8 -0.3,0.2 -0.7,0.2 -1.2,0.2 -0.3,0 -0.5,0 -0.8,-0.1 -0.2,-0.1 -0.5,-0.2 -0.6,-0.3 -0.1,-0.1 -0.3,-0.3 -0.4,-0.5 -0.1,-0.2 -0.2,-0.5 -0.2,-0.7 0,-0.4 0.1,-0.7 0.2,-0.9 0.1,-0.2 0.4,-0.5 0.7,-0.6 0.3,-0.2 0.6,-0.3 1,-0.3 0.4,-0.1 0.8,-0.1 1.2,-0.1 h 0.8 v -0.2 c 0,-0.1 0,-0.3 -0.1,-0.4 -0.1,-0.1 -0.1,-0.3 -0.3,-0.4 -0.1,-0.1 -0.3,-0.2 -0.4,-0.3 -0.2,-0.1 -0.4,-0.1 -0.6,-0.1 -0.2,0 -0.4,0 -0.6,0.1 -0.2,0 -0.3,0.1 -0.4,0.2 -0.1,0.1 -0.2,0.1 -0.4,0.2 -0.2,0.1 -0.2,0.2 -0.3,0.2 z m 3.1,2.3 c -0.3,0 -0.5,0 -0.8,0 -0.3,0 -0.5,0.1 -0.7,0.2 -0.2,0.1 -0.4,0.2 -0.5,0.3 -0.1,0.1 -0.3,0.4 -0.3,0.6 0,0.3 0.1,0.6 0.3,0.7 0.2,0.1 0.5,0.2 0.9,0.2 0.3,0 0.6,0 0.8,-0.2 0.2,-0.2 0.4,-0.2 0.5,-0.4 0.1,-0.2 0.2,-0.3 0.3,-0.5 0.1,-0.2 0.1,-0.4 0.1,-0.6 v -0.4 h -0.6 z" /><path
       style="fill:#06ede1"
       inkscape:connector-curvature="0"
       id="path48"
       d="m 69.3,17.85408 h -1.6 v 2.6 c 0,0.2 0,0.3 0,0.5 0,0.2 0,0.3 0.1,0.4 0.1,0.1 0.1,0.2 0.2,0.3 0.1,0.1 0.3,0.1 0.5,0.1 0.1,0 0.3,0 0.4,0 0.1,0 0.3,-0.1 0.4,-0.1 v 1 c -0.1,0.1 -0.3,0.1 -0.5,0.2 -0.2,0 -0.4,0 -0.5,0 -0.4,0 -0.7,-0.1 -1,-0.2 -0.2,-0.1 -0.4,-0.3 -0.5,-0.5 -0.1,-0.2 -0.2,-0.4 -0.2,-0.6 0,-0.2 0,-0.5 0,-0.7 v -3 h -1.3 v -0.9 h 1.3 v -1.6 h 1.1 v 1.6 h 1.6 z" /><path
       style="fill:#06ede1"
       inkscape:connector-curvature="0"
       id="path50"
       d="m 70.2,14.85408 c 0,-0.2 0.1,-0.4 0.2,-0.6 0.2,-0.2 0.3,-0.2 0.6,-0.2 0.2,0 0.4,0.1 0.6,0.2 0.2,0.2 0.2,0.3 0.2,0.6 0,0.3 -0.1,0.4 -0.2,0.6 -0.2,0.2 -0.3,0.2 -0.6,0.2 -0.2,0 -0.4,-0.1 -0.6,-0.2 -0.1,-0.2 -0.2,-0.4 -0.2,-0.6 z m 0.3,2 h 1.1 v 5.8 h -1.1 z" /><path
       style="fill:#06ede1"
       inkscape:connector-curvature="0"
       id="path52"
       d="m 72.7,19.75408 c 0,-0.4 0.1,-0.8 0.2,-1.2 0.2,-0.4 0.4,-0.7 0.6,-1 0.3,-0.3 0.6,-0.5 1,-0.6 0.4,-0.2 0.8,-0.2 1.2,-0.2 0.4,0 0.8,0.1 1.2,0.2 0.4,0.2 0.7,0.4 1,0.6 0.3,0.3 0.5,0.6 0.6,1 0.2,0.4 0.2,0.8 0.2,1.2 0,0.4 -0.1,0.8 -0.2,1.2 -0.1,0.4 -0.4,0.7 -0.6,1 -0.2,0.3 -0.6,0.5 -1,0.6 -0.4,0.2 -0.8,0.2 -1.2,0.2 -0.4,0 -0.8,-0.1 -1.2,-0.2 -0.4,-0.2 -0.7,-0.4 -1,-0.6 -0.3,-0.3 -0.5,-0.6 -0.6,-1 -0.1,-0.4 -0.2,-0.8 -0.2,-1.2 z m 1.2,0 c 0,0.3 0,0.6 0.1,0.8 0.1,0.2 0.2,0.5 0.4,0.6 0.2,0.2 0.4,0.3 0.6,0.4 0.2,0.1 0.5,0.2 0.8,0.2 0.3,0 0.6,-0.1 0.8,-0.2 0.2,-0.1 0.4,-0.2 0.6,-0.4 0.2,-0.2 0.3,-0.4 0.4,-0.6 0.1,-0.2 0.1,-0.5 0.1,-0.8 0,-0.3 0,-0.6 -0.1,-0.8 -0.1,-0.2 -0.2,-0.5 -0.4,-0.6 -0.2,-0.2 -0.4,-0.3 -0.6,-0.4 -0.2,-0.1 -0.5,-0.2 -0.8,-0.2 -0.3,0 -0.6,0.1 -0.8,0.2 -0.2,0.1 -0.4,0.2 -0.6,0.4 -0.2,0.2 -0.3,0.4 -0.4,0.6 -0.1,0.2 -0.1,0.5 -0.1,0.8 z" /><path
       style="fill:#06ede1"
       inkscape:connector-curvature="0"
       id="path54"
       d="M 79.9,16.85408 H 81 v 0.9 0 c 0.1,-0.3 0.4,-0.6 0.7,-0.7 0.3,-0.2 0.7,-0.3 1.2,-0.3 0.3,0 0.5,0 0.8,0.1 0.3,0.1 0.5,0.2 0.7,0.4 0.2,0.2 0.3,0.4 0.5,0.7 0.1,0.3 0.2,0.6 0.2,1 v 3.7 H 84 v -3.4 c 0,-0.3 0,-0.5 -0.1,-0.7 -0.1,-0.2 -0.2,-0.3 -0.3,-0.5 -0.1,-0.1 -0.3,-0.2 -0.4,-0.3 -0.1,-0.1 -0.3,-0.1 -0.5,-0.1 -0.2,0 -0.4,0 -0.6,0.1 -0.2,0.1 -0.4,0.2 -0.5,0.3 -0.1,0.2 -0.3,0.4 -0.3,0.6 -0.2,0.4 -0.3,0.7 -0.3,1 v 3 h -1.1 z" /></g><path
     id="path58"
     d="m 1.5,1 c 0,1.3 1,2.3 2.3,2.3 1.3,0 2.3,-1 2.3,-2.3"
     stroke-miterlimit="10"
     inkscape:connector-curvature="0"
     style="fill:none;stroke:#06ede1;stroke-miterlimit:10" /><path
     id="path60"
     d="M 7.9,5.1"
     stroke-miterlimit="10"
     inkscape:connector-curvature="0"
     style="fill:none;stroke:#06ede1;stroke-miterlimit:10" /><path
     id="path62"
     d="m 7.9,1 c 0,1.3 1,2.3 2.3,2.3 1.3,0 2.3,-1 2.3,-2.3"
     stroke-miterlimit="10"
     inkscape:connector-curvature="0"
     style="fill:none;stroke:#06ede1;stroke-miterlimit:10" /><path
     id="path64"
     d="M 14.3,5.1"
     stroke-miterlimit="10"
     inkscape:connector-curvature="0"
     style="fill:none;stroke:#37b34a;stroke-miterlimit:10" /><path
     id="path66"
     d="m 14.3,1 c 0,1.3 1,2.3 2.3,2.3 1.3,0 2.3,-1 2.3,-2.3"
     stroke-miterlimit="10"
     inkscape:connector-curvature="0"
     style="fill:none;stroke:#06ede1;stroke-miterlimit:10" /><path
     id="path68"
     d="m 1.5,14 c 0,-1.3 1,-2.3 2.3,-2.3 1.3,0 2.3,1 2.3,2.3"
     stroke-miterlimit="10"
     inkscape:connector-curvature="0"
     style="fill:none;stroke:#06ede1;stroke-miterlimit:10" /><path
     id="path70"
     d="m 7.9,14 c 0,-1.3 1,-2.3 2.3,-2.3 1.3,0 2.3,1 2.3,2.3"
     stroke-miterlimit="10"
     inkscape:connector-curvature="0"
     style="fill:none;stroke:#06ede1;stroke-miterlimit:10" /><path
     id="path72"
     d="m 14.3,14 c 0,-1.3 1,-2.3 2.3,-2.3 1.3,0 2.3,1 2.3,2.3"
     stroke-miterlimit="10"
     inkscape:connector-curvature="0"
     style="fill:none;stroke:#06ede1;stroke-miterlimit:10" /><circle
     id="circle74"
     r="2.3"
     cy="7.5"
     cx="3.8"
     stroke-miterlimit="10"
     style="fill:none;stroke:#06ede1;stroke-miterlimit:10" /><circle
     id="circle76"
     r="2.3"
     cy="7.5"
     cx="10.2"
     stroke-miterlimit="10"
     style="fill:none;stroke:#06ede1;stroke-miterlimit:10" /><circle
     id="circle78"
     r="2.3"
     cy="7.5"
     cx="16.6"
     stroke-miterlimit="10"
     style="fill:#06ede1;stroke:#06ede1;stroke-miterlimit:10" /><g
     id="g158">
</g><g
     id="g160">
</g><g
     id="g162">
</g><g
     id="g164">
</g><g
     id="g166">
</g><g
     id="g168">
</g><g
     id="g170">
</g><g
     id="g172">
</g><g
     id="g174">
</g><g
     id="g176">
</g><g
     id="g178">
</g><g
     id="g180">
</g><g
     id="g182">
</g><g
     id="g184">
</g><g
     id="g186">
</g></g>
</svg>