<?xml version="1.0" encoding="utf-8"?>
<!-- Generator: Adobe Illustrator 17.1.0, SVG Export Plug-In . SVG Version: 6.00 Build 0)  -->
<!DOCTYPE svg PUBLIC "-//W3C//DTD SVG 1.1//EN" "http://www.w3.org/Graphics/SVG/1.1/DTD/svg11.dtd">
<svg version="1.1" xmlns="http://www.w3.org/2000/svg" xmlns:xlink="http://www.w3.org/1999/xlink" x="0px" y="0px" width="240px"
	 height="40px" viewBox="0 0 240 40" enable-background="new 0 0 240 40" xml:space="preserve">
<g id="Layer_1">
</g>
<g id="Layer_2">
	<polygon fill="#3FD8FC" points="78,3 69.7,1.2 61.5,3 69.7,5.4 	"/>
	<polygon fill="#00A5D0" points="69.4,18.8 60.9,14.4 60.9,3.5 69.4,5.9 	"/>
	<polygon fill="#04729C" points="78.5,14.4 70.1,18.8 70.1,5.9 78.5,3.5 	"/>
	<g>
		<path fill="#FFFFFF" d="M10.1,3.3c0.1,0,0.2,0.1,0.2,0.2v10.7c0,0.1,0,0.1-0.1,0.2c-0.1,0-0.1,0.1-0.2,0.1H8.5c-0.1,0-0.2,0-0.2,0
			c-0.1,0-0.1-0.1-0.2-0.1L3.4,7.5c0-0.1-0.1-0.1-0.1-0.1s-0.1,0-0.1,0.1v6.6v0c0,0.1,0,0.1-0.1,0.2S3,14.4,2.9,14.4H1.3
			c-0.2,0-0.3-0.1-0.3-0.3V3.6c0-0.2,0.1-0.3,0.3-0.3h1.8c0.1,0,0.2,0,0.3,0c0.1,0,0.1,0.1,0.2,0.2L8,9.8C8,9.9,8.1,9.9,8.1,9.9
			c0,0,0.1-0.1,0.1-0.2V3.6c0-0.2,0.1-0.3,0.3-0.3H10.1z"/>
		<path fill="#FFFFFF" d="M11.6,14.3c-0.1-0.1-0.1-0.1-0.1-0.3V3.6c0-0.2,0.1-0.3,0.3-0.3h3.1c0.1,0,0.2,0,0.2,0
			c0,0,0.1,0.1,0.1,0.2l2.3,6.3c0,0.1,0.1,0.1,0.1,0.1c0,0,0.1,0,0.1-0.1l2.2-6.2c0.1-0.2,0.2-0.3,0.3-0.3h3.2
			c0.1,0,0.2,0.1,0.2,0.3v10.5c0,0.1,0,0.2-0.1,0.3c-0.1,0.1-0.2,0.1-0.3,0.1h-1.9c-0.1,0-0.2,0-0.2-0.1c0,0-0.1-0.1-0.1-0.2V6.6
			c0-0.1,0-0.1,0-0.1c0,0-0.1,0-0.1,0.1l-2.6,7.5c0,0.2-0.2,0.2-0.3,0.2h-1.2c-0.2,0-0.3-0.1-0.3-0.2l-2.6-7.4
			c0-0.1-0.1-0.1-0.1-0.1c0,0-0.1,0-0.1,0.1v7.4c0,0.1,0,0.2-0.1,0.2s-0.1,0.1-0.2,0.1h-1.5C11.7,14.4,11.7,14.4,11.6,14.3z"/>
		<path fill="#FFFFFF" d="M33.9,14.1c0,0.1,0,0.1-0.1,0.2c-0.1,0.1-0.1,0.1-0.2,0.1h-2.2c-0.2,0-0.3-0.1-0.3-0.3l-1.6-4.2
			c0-0.1-0.1-0.1-0.1-0.2c-0.1,0-0.2,0-0.3,0h-1.4c-0.1,0-0.1,0-0.1,0.1c0,0,0,0.1,0,0.1v4.2c0,0.1,0,0.2-0.1,0.3
			c-0.1,0.1-0.2,0.1-0.3,0.1h-1.9c-0.1,0-0.2,0-0.2-0.1c0,0-0.1-0.1-0.1-0.2V3.6c0-0.2,0.1-0.3,0.2-0.3h4.7c1.3,0,2.4,0.3,3.1,0.8
			C33.6,4.6,34,5.4,34,6.3c0,0.7-0.2,1.4-0.6,1.9C33,8.7,32.5,9.1,32,9.3c-0.1,0-0.1,0.1-0.1,0.2l2,4.5
			C33.9,14.1,33.9,14.1,33.9,14.1z M30.9,7.6c0.3-0.2,0.4-0.6,0.4-1.1c0-0.5-0.2-0.8-0.5-1.1C30.5,5.2,30.1,5,29.6,5h-1.8
			c-0.1,0-0.2,0-0.2,0.1c0,0-0.1,0.1-0.1,0.2v2.4c0,0.1,0,0.2,0,0.2c0,0,0.1,0.1,0.2,0.1h1.8C30.1,8,30.6,7.8,30.9,7.6z"/>
		<path fill="#FFFFFF" d="M36.1,14.4c-0.1,0-0.1,0-0.1-0.1c0,0,0-0.1,0-0.2V3.5c0-0.1,0.1-0.2,0.2-0.2h0.7c0.1,0,0.1,0.1,0.1,0.2
			v3.7c0,0.1,0,0.2,0.1,0.2c0,0,0.1,0,0.1-0.1c0.7-0.6,1.5-1,2.5-1c1.1,0,1.9,0.4,2.4,1.1c0.5,0.8,0.8,1.7,0.8,3
			c0,1.3-0.3,2.3-0.9,3c-0.6,0.7-1.4,1.1-2.5,1.1c-0.6,0-1.1-0.1-1.5-0.4c-0.4-0.2-0.7-0.5-0.9-0.8c0,0-0.1-0.1-0.1-0.1
			c0,0-0.1,0-0.1,0.1l-0.1,0.7c0,0.1,0,0.1-0.1,0.2c0,0-0.1,0.1-0.2,0.1H36.1z M36.9,11.7c0,0.4,0.1,0.7,0.3,1
			c0.2,0.3,0.5,0.6,0.9,0.7c0.4,0.2,0.7,0.3,1.1,0.3c0.8,0,1.4-0.3,1.9-0.9c0.5-0.6,0.7-1.4,0.7-2.5c0-1-0.2-1.9-0.6-2.4
			s-1-0.9-1.8-0.9c-0.5,0-0.9,0.1-1.3,0.3c-0.4,0.2-0.8,0.5-1.1,0.9V11.7z"/>
		<path fill="#FFFFFF" d="M45.2,14c-0.6-0.3-1-0.8-1.3-1.4c-0.3-0.6-0.5-1.3-0.5-2.1c0-0.8,0.2-1.5,0.5-2.2c0.3-0.6,0.8-1.1,1.3-1.5
			c0.6-0.3,1.2-0.5,1.9-0.5s1.4,0.2,1.9,0.5c0.6,0.4,1,0.8,1.3,1.5c0.3,0.6,0.5,1.3,0.5,2.1c0,0.8-0.2,1.5-0.5,2.1s-0.7,1.1-1.3,1.5
			c-0.6,0.3-1.2,0.5-2,0.5C46.4,14.6,45.8,14.4,45.2,14z M49.1,12.9c0.5-0.6,0.7-1.4,0.7-2.4S49.6,8.6,49.1,8s-1.1-0.9-2-0.9
			c-0.8,0-1.5,0.3-2,0.9s-0.7,1.4-0.7,2.4s0.2,1.8,0.7,2.4c0.5,0.6,1.2,0.9,2,0.9C48,13.8,48.7,13.5,49.1,12.9z"/>
		<path fill="#FFFFFF" d="M58.1,14.3c0,0.1,0,0.1-0.1,0.1h-0.8c-0.1,0-0.2,0-0.3-0.1l-2.2-3.1c0-0.1-0.1-0.1-0.1-0.1
			c0,0-0.1,0-0.1,0.1L52,14.3c-0.1,0.1-0.1,0.1-0.3,0.1h-0.6c-0.1,0-0.2,0-0.2-0.1c0,0,0-0.1,0.1-0.2l2.8-3.6c0,0,0.1-0.1,0.1-0.1
			c0,0,0-0.1-0.1-0.1l-2.7-3.6c0,0,0,0,0-0.1c0-0.1,0-0.1,0.1-0.1h0.8c0.1,0,0.1,0,0.1,0c0,0,0.1,0,0.1,0.1l2.2,2.9
			c0,0.1,0.1,0.1,0.1,0.1s0.1,0,0.1-0.1l2.1-2.9c0,0,0.1-0.1,0.1-0.1c0,0,0.1,0,0.1,0h0.6c0.1,0,0.1,0,0.1,0.1c0,0,0,0.1,0,0.1
			l-2.6,3.5c0,0.1-0.1,0.1-0.1,0.1c0,0.1,0,0.1,0.1,0.2l2.8,3.7C58.1,14.2,58.1,14.3,58.1,14.3z"/>
	</g>
	<polygon fill="#CCCCCC" points="198.4,3 190.2,1.2 181.9,3 190.2,5.4 	"/>
	<polygon fill="#CCCCCC" points="189.8,18.8 181.4,14.4 181.4,3.5 189.8,5.9 	"/>
	<polygon fill="#CCCCCC" points="199,14.4 190.5,18.8 190.5,5.9 199,3.5 	"/>
	<g>
		<path fill="#CCCCCC" d="M130.6,3.3c0.1,0,0.2,0.1,0.2,0.2v10.7c0,0.1,0,0.1-0.1,0.2c-0.1,0-0.1,0.1-0.2,0.1h-1.5
			c-0.1,0-0.2,0-0.2,0s-0.1-0.1-0.2-0.1l-4.8-6.7c0-0.1-0.1-0.1-0.1-0.1s-0.1,0-0.1,0.1v6.6v0c0,0.1,0,0.1-0.1,0.2s-0.1,0.1-0.2,0.1
			h-1.6c-0.2,0-0.3-0.1-0.3-0.3V3.6c0-0.2,0.1-0.3,0.3-0.3h1.8c0.1,0,0.2,0,0.3,0s0.1,0.1,0.2,0.2l4.4,6.3c0.1,0.1,0.1,0.1,0.2,0.1
			c0,0,0.1-0.1,0.1-0.2V3.6c0-0.2,0.1-0.3,0.3-0.3H130.6z"/>
		<path fill="#CCCCCC" d="M132,14.3c-0.1-0.1-0.1-0.1-0.1-0.3V3.6c0-0.2,0.1-0.3,0.3-0.3h3.1c0.1,0,0.2,0,0.2,0c0,0,0.1,0.1,0.1,0.2
			l2.3,6.3c0,0.1,0.1,0.1,0.1,0.1s0.1,0,0.1-0.1l2.2-6.2c0.1-0.2,0.2-0.3,0.3-0.3h3.2c0.1,0,0.2,0.1,0.2,0.3v10.5
			c0,0.1,0,0.2-0.1,0.3c-0.1,0.1-0.2,0.1-0.3,0.1h-1.9c-0.1,0-0.2,0-0.2-0.1s-0.1-0.1-0.1-0.2V6.6c0-0.1,0-0.1,0-0.1s-0.1,0-0.1,0.1
			l-2.6,7.5c0,0.2-0.2,0.2-0.3,0.2h-1.2c-0.2,0-0.3-0.1-0.3-0.2l-2.6-7.4c0-0.1-0.1-0.1-0.1-0.1c0,0-0.1,0-0.1,0.1v7.4
			c0,0.1,0,0.2-0.1,0.2s-0.1,0.1-0.2,0.1h-1.5C132.2,14.4,132.1,14.4,132,14.3z"/>
		<path fill="#CCCCCC" d="M154.3,14.1c0,0.1,0,0.1-0.1,0.2c0,0.1-0.1,0.1-0.2,0.1h-2.2c-0.2,0-0.3-0.1-0.3-0.3l-1.6-4.2
			c0-0.1-0.1-0.1-0.1-0.2c-0.1,0-0.2,0-0.3,0h-1.4c-0.1,0-0.1,0-0.1,0.1c0,0,0,0.1,0,0.1v4.2c0,0.1,0,0.2-0.1,0.3
			c-0.1,0.1-0.2,0.1-0.3,0.1h-1.9c-0.1,0-0.2,0-0.2-0.1c0,0-0.1-0.1-0.1-0.2V3.6c0-0.2,0.1-0.3,0.2-0.3h4.7c1.3,0,2.4,0.3,3.1,0.8
			c0.7,0.5,1.1,1.3,1.1,2.3c0,0.7-0.2,1.4-0.6,1.9c-0.4,0.5-0.9,0.9-1.5,1.1c-0.1,0-0.1,0.1-0.1,0.2l2,4.5
			C154.3,14.1,154.3,14.1,154.3,14.1z M151.3,7.6c0.3-0.2,0.5-0.6,0.5-1.1c0-0.5-0.2-0.8-0.5-1.1C151,5.2,150.5,5,150,5h-1.8
			c-0.1,0-0.2,0-0.2,0.1c0,0-0.1,0.1-0.1,0.2v2.4c0,0.1,0,0.2,0,0.2c0,0,0.1,0.1,0.2,0.1h1.8C150.5,8,151,7.8,151.3,7.6z"/>
		<path fill="#CCCCCC" d="M156.5,14.4c-0.1,0-0.1,0-0.1-0.1s0-0.1,0-0.2V3.5c0-0.1,0.1-0.2,0.2-0.2h0.7c0.1,0,0.2,0.1,0.2,0.2v3.7
			c0,0.1,0,0.2,0.1,0.2c0,0,0.1,0,0.1-0.1c0.7-0.6,1.5-1,2.5-1c1.1,0,1.9,0.4,2.4,1.1c0.5,0.8,0.8,1.7,0.8,3c0,1.3-0.3,2.3-0.9,3
			c-0.6,0.7-1.4,1.1-2.5,1.1c-0.6,0-1.1-0.1-1.5-0.4c-0.4-0.2-0.7-0.5-0.9-0.8c0,0-0.1-0.1-0.1-0.1c0,0-0.1,0-0.1,0.1l-0.1,0.7
			c0,0.1,0,0.1-0.1,0.2c0,0-0.1,0.1-0.2,0.1H156.5z M157.3,11.7c0,0.4,0.1,0.7,0.3,1c0.2,0.3,0.5,0.6,0.9,0.7
			c0.4,0.2,0.7,0.3,1.1,0.3c0.8,0,1.4-0.3,1.9-0.9c0.5-0.6,0.7-1.4,0.7-2.5c0-1-0.2-1.9-0.6-2.4s-1-0.9-1.8-0.9
			c-0.5,0-0.9,0.1-1.3,0.3c-0.4,0.2-0.8,0.5-1.1,0.9V11.7z"/>
		<path fill="#CCCCCC" d="M165.6,14c-0.6-0.3-1-0.8-1.3-1.4c-0.3-0.6-0.5-1.3-0.5-2.1c0-0.8,0.2-1.5,0.5-2.2
			c0.3-0.6,0.8-1.1,1.3-1.5c0.6-0.3,1.2-0.5,1.9-0.5s1.4,0.2,1.9,0.5c0.6,0.4,1,0.8,1.3,1.5c0.3,0.6,0.5,1.3,0.5,2.1
			c0,0.8-0.2,1.5-0.5,2.1s-0.7,1.1-1.3,1.5s-1.2,0.5-2,0.5S166.2,14.4,165.6,14z M169.6,12.9c0.5-0.6,0.7-1.4,0.7-2.4
			S170,8.6,169.5,8c-0.5-0.6-1.1-0.9-2-0.9c-0.8,0-1.5,0.3-2,0.9c-0.5,0.6-0.7,1.4-0.7,2.4s0.2,1.8,0.7,2.4c0.5,0.6,1.2,0.9,2,0.9
			C168.4,13.8,169.1,13.5,169.6,12.9z"/>
		<path fill="#CCCCCC" d="M178.5,14.3c0,0.1,0,0.1-0.1,0.1h-0.8c-0.1,0-0.2,0-0.3-0.1l-2.2-3.1c0-0.1-0.1-0.1-0.1-0.1
			c0,0-0.1,0-0.1,0.1l-2.4,3.1c0,0.1-0.1,0.1-0.3,0.1h-0.6c-0.1,0-0.2,0-0.2-0.1c0,0,0-0.1,0.1-0.2l2.8-3.6c0,0,0.1-0.1,0.1-0.1
			c0,0,0-0.1-0.1-0.1l-2.7-3.6c0,0,0,0,0-0.1c0-0.1,0-0.1,0.1-0.1h0.8c0.1,0,0.1,0,0.1,0c0,0,0.1,0,0.1,0.1l2.2,2.9
			c0,0.1,0.1,0.1,0.1,0.1s0.1,0,0.1-0.1l2.1-2.9c0,0,0.1-0.1,0.1-0.1c0,0,0.1,0,0.1,0h0.6c0.1,0,0.1,0,0.1,0.1c0,0,0,0.1,0,0.1
			l-2.6,3.5c0,0.1-0.1,0.1-0.1,0.1c0,0.1,0,0.1,0.1,0.2l2.8,3.7C178.5,14.2,178.5,14.3,178.5,14.3z"/>
	</g>
	<g>
	</g>
	<g>
	</g>
	<g>
	</g>
	<g>
	</g>
	<g>
	</g>
	<g>
	</g>
	<g>
	</g>
	<g>
	</g>
	<g>
	</g>
	<g>
	</g>
	<g>
	</g>
	<g>
	</g>
	<g>
	</g>
	<g>
	</g>
	<g>
	</g>
</g>
</svg>
