<?xml version="1.0" encoding="utf-8"?>
<!-- Generator: Adobe Illustrator 17.1.0, SVG Export Plug-In . SVG Version: 6.00 Build 0)  -->
<!DOCTYPE svg PUBLIC "-//W3C//DTD SVG 1.1//EN" "http://www.w3.org/Graphics/SVG/1.1/DTD/svg11.dtd">
<svg version="1.1" id="Layer_1" xmlns="http://www.w3.org/2000/svg" xmlns:xlink="http://www.w3.org/1999/xlink" x="0px" y="0px"
	 width="240px" height="40px" viewBox="0 0 240 40" enable-background="new 0 0 240 40" xml:space="preserve">
<path fill="none" stroke="#42BDAE" stroke-width="0.9893817" stroke-miterlimit="10" d="M13.241828,19.9883232"/>
<polyline fill="none" stroke="#48B0E3" stroke-width="0.7451853" stroke-miterlimit="10" points="1.1495405,13.094594 
	4.7058163,13.094594 7.2280388,17.4632168 4.7058163,21.8318577 1.1495405,21.8318577 "/>
<polyline fill="none" stroke="#48B0E3" stroke-width="0.7451853" stroke-miterlimit="10" points="12.5072298,7.8368979 
	8.9509535,7.8368979 6.4287314,12.2055216 8.9509535,16.5741615 12.5072298,16.5741615 "/>
<g>
	<g>
		
			<line fill="none" stroke="#48B0E3" stroke-linecap="round" stroke-miterlimit="10" x1="1.4673755" y1="3.1706064" x2="1.4673755" y2="3.1706064"/>
		
			<line fill="none" stroke="#48B0E3" stroke-linecap="round" stroke-miterlimit="10" stroke-dasharray="0,1.6851619" x1="3.1525376" y1="3.1706064" x2="3.9951184" y2="3.1706064"/>
		
			<line fill="none" stroke="#48B0E3" stroke-linecap="round" stroke-miterlimit="10" x1="4.8376994" y1="3.1706064" x2="4.8376994" y2="3.1706064"/>
		
			<line fill="none" stroke="#48B0E3" stroke-linecap="round" stroke-miterlimit="10" stroke-dasharray="0,1.5935614" x1="5.6344795" y1="4.5506716" x2="6.829649" y2="6.620769"/>
		
			<line fill="none" stroke="#48B0E3" stroke-linecap="round" stroke-miterlimit="10" x1="7.2280388" y1="7.3108015" x2="7.2280388" y2="7.3108015"/>
		
			<line fill="none" stroke="#48B0E3" stroke-linecap="round" stroke-miterlimit="10" stroke-dasharray="0,1.5935658" x1="6.4312592" y1="8.6908722" x2="5.2360892" y2="10.7609777"/>
		
			<line fill="none" stroke="#48B0E3" stroke-linecap="round" stroke-miterlimit="10" x1="4.8376994" y1="11.4510126" x2="4.8376994" y2="11.4510126"/>
		
			<line fill="none" stroke="#48B0E3" stroke-linecap="round" stroke-miterlimit="10" stroke-dasharray="0,1.6851619" x1="3.1525376" y1="11.4510126" x2="2.3099566" y2="11.4510126"/>
		
			<line fill="none" stroke="#48B0E3" stroke-linecap="round" stroke-miterlimit="10" x1="1.4673755" y1="11.4510126" x2="1.4673755" y2="11.4510126"/>
	</g>
</g>
<path fill="none" stroke="#48B0E3" stroke-width="0.5004681" stroke-miterlimit="10" d="M2.7575917,12.770997"/>
<g>
	<path fill="#777777" d="M15.1074219,8.2583008h2.7392578c0.4985352,0,0.9091797,0.0683594,1.2319336,0.203125
		c0.3222656,0.1367188,0.5771484,0.3085938,0.7641602,0.5175781s0.3173828,0.4433594,0.390625,0.7041016
		c0.0732422,0.2597656,0.1098633,0.5117188,0.1098633,0.7529297c0,0.2421875-0.0366211,0.4931641-0.1098633,0.7539062
		s-0.2036133,0.4951172-0.390625,0.7041016s-0.4418945,0.3808594-0.7641602,0.5166016
		c-0.3227539,0.1357422-0.7333984,0.2041016-1.2319336,0.2041016h-1.6831055v3.4316406h-1.0561523V8.2583008z
		 M16.1635742,11.6899414h1.3857422c0.2055664,0,0.4086914-0.015625,0.6108398-0.0488281
		c0.2011719-0.0332031,0.3808594-0.09375,0.5385742-0.1816406s0.2841797-0.2148438,0.3798828-0.3798828
		c0.0952148-0.1650391,0.1430664-0.3789062,0.1430664-0.6435547c0-0.2636719-0.0478516-0.4785156-0.1430664-0.6435547
		c-0.0957031-0.1650391-0.222168-0.2910156-0.3798828-0.3789062s-0.3374023-0.1484375-0.5385742-0.1816406
		c-0.2021484-0.0332031-0.4052734-0.0498047-0.6108398-0.0498047h-1.3857422V11.6899414z"/>
	<path fill="#777777" d="M21.1025391,10.8325195h0.9897461v0.8027344h0.0219727
		c0.0664062-0.1386719,0.1542969-0.265625,0.2641602-0.3789062c0.1098633-0.1142578,0.2329102-0.2109375,0.3686523-0.2919922
		s0.2841797-0.1445312,0.4453125-0.1923828s0.3227539-0.0712891,0.4838867-0.0712891
		c0.1616211,0,0.3081055,0.0214844,0.4404297,0.0654297l-0.0444336,1.0673828
		c-0.0805664-0.0224609-0.1611328-0.0400391-0.2416992-0.0546875c-0.0810547-0.0146484-0.1616211-0.0224609-0.2421875-0.0224609
		c-0.4838867,0-0.8544922,0.1357422-1.1108398,0.4072266c-0.2568359,0.2714844-0.3852539,0.6923828-0.3852539,1.2646484v2.6181641
		h-0.9897461V10.8325195z"/>
	<path fill="#777777" d="M24.4462891,13.4389648c0-0.3808594,0.0712891-0.7363281,0.2143555-1.0664062
		S25,11.7524414,25.2490234,11.503418c0.2495117-0.2490234,0.5429688-0.4453125,0.8803711-0.5888672
		c0.3369141-0.1425781,0.7001953-0.2138672,1.0888672-0.2138672s0.7514648,0.0712891,1.0888672,0.2138672
		c0.3374023,0.1435547,0.6308594,0.3398438,0.8798828,0.5888672c0.2495117,0.2490234,0.4458008,0.5390625,0.5888672,0.8691406
		c0.1425781,0.3300781,0.2143555,0.6855469,0.2143555,1.0664062c0,0.3818359-0.0717773,0.7392578-0.2143555,1.0732422
		c-0.1430664,0.3330078-0.3393555,0.6230469-0.5888672,0.8691406c-0.2490234,0.2451172-0.5424805,0.4394531-0.8798828,0.5830078
		c-0.3374023,0.1425781-0.7001953,0.2138672-1.0888672,0.2138672s-0.7519531-0.0712891-1.0888672-0.2138672
		c-0.3374023-0.1435547-0.6308594-0.3378906-0.8803711-0.5830078C25,15.1352539,24.8037109,14.8452148,24.6606445,14.512207
		C24.5175781,14.1782227,24.4462891,13.8208008,24.4462891,13.4389648z M25.5019531,13.4389648
		c0,0.2646484,0.0405273,0.5087891,0.1210938,0.7314453c0.0805664,0.2246094,0.1943359,0.4150391,0.3413086,0.5722656
		c0.1464844,0.1582031,0.3261719,0.2822266,0.5385742,0.3740234c0.2128906,0.0917969,0.4511719,0.1376953,0.715332,0.1376953
		c0.2636719,0,0.5019531-0.0458984,0.7148438-0.1376953s0.3920898-0.2158203,0.5390625-0.3740234
		c0.1464844-0.1572266,0.2602539-0.3476562,0.3408203-0.5722656c0.0805664-0.2226562,0.1210938-0.4667969,0.1210938-0.7314453
		c0-0.2636719-0.0405273-0.5068359-0.1210938-0.7314453c-0.0805664-0.2236328-0.1943359-0.4140625-0.3408203-0.5712891
		c-0.1469727-0.1582031-0.3261719-0.2822266-0.5390625-0.3740234s-0.4511719-0.1376953-0.7148438-0.1376953
		c-0.2641602,0-0.5024414,0.0458984-0.715332,0.1376953c-0.2124023,0.0917969-0.3920898,0.2158203-0.5385742,0.3740234
		c-0.1469727,0.1572266-0.2607422,0.3476562-0.3413086,0.5712891C25.5424805,12.9321289,25.5019531,13.175293,25.5019531,13.4389648
		z"/>
	<path fill="#777777" d="M33.7524414,11.6899414h-1.4189453v2.3652344c0,0.1474609,0.003418,0.2919922,0.0107422,0.4345703
		c0.0073242,0.1435547,0.0351562,0.2714844,0.0825195,0.3847656c0.0478516,0.1142578,0.1210938,0.2060547,0.2202148,0.2753906
		s0.2436523,0.1044922,0.4345703,0.1044922c0.1171875,0,0.2382812-0.0107422,0.362793-0.0332031
		c0.1245117-0.0214844,0.2382812-0.0625,0.3413086-0.1210938v0.9023438
		c-0.1176758,0.0664062-0.2695312,0.1113281-0.456543,0.1376953c-0.1870117,0.0253906-0.3320312,0.0380859-0.4345703,0.0380859
		c-0.3813477,0-0.6767578-0.0527344-0.8857422-0.1591797s-0.362793-0.2441406-0.4619141-0.4130859
		c-0.0991211-0.1679688-0.1577148-0.3574219-0.1757812-0.5664062c-0.0185547-0.2089844-0.027832-0.4189453-0.027832-0.6318359
		v-2.7177734h-1.144043v-0.8574219h1.144043V9.3696289h0.9902344v1.4628906h1.4189453V11.6899414z"/>
	<path fill="#777777" d="M35.5014648,13.8022461c0,0.2275391,0.0493164,0.4345703,0.1484375,0.6220703
		c0.0991211,0.1865234,0.2290039,0.3457031,0.390625,0.4785156c0.1611328,0.1318359,0.3481445,0.234375,0.5610352,0.3076172
		c0.2124023,0.0732422,0.4326172,0.1103516,0.659668,0.1103516c0.3081055,0,0.5756836-0.0722656,0.8032227-0.2148438
		c0.2270508-0.1435547,0.4360352-0.3320312,0.6269531-0.5664062l0.7480469,0.5722656
		c-0.550293,0.7109375-1.3203125,1.0664062-2.3100586,1.0664062c-0.4106445,0-0.7827148-0.0693359-1.1166992-0.2089844
		c-0.3334961-0.1386719-0.6157227-0.3320312-0.8466797-0.5771484c-0.230957-0.2460938-0.4091797-0.5351562-0.5336914-0.8691406
		s-0.1870117-0.6943359-0.1870117-1.0839844c0-0.3886719,0.0678711-0.7490234,0.2036133-1.0830078
		s0.3227539-0.6230469,0.5610352-0.8691406c0.2382812-0.2451172,0.5224609-0.4384766,0.8525391-0.5771484
		c0.3300781-0.1396484,0.6889648-0.2089844,1.0776367-0.2089844c0.4624023,0,0.8525391,0.0800781,1.171875,0.2421875
		c0.3188477,0.1611328,0.5810547,0.3720703,0.7861328,0.6318359c0.2055664,0.2607422,0.3540039,0.5537109,0.4458008,0.8798828
		c0.0913086,0.3271484,0.137207,0.6582031,0.137207,0.9960938v0.3515625H35.5014648z M38.6254883,13.0102539
		c-0.0073242-0.2197266-0.0424805-0.421875-0.1044922-0.6044922c-0.0625-0.1835938-0.15625-0.3427734-0.2807617-0.4785156
		s-0.2802734-0.2421875-0.4672852-0.3193359s-0.4052734-0.1152344-0.6547852-0.1152344
		c-0.2416992,0-0.4638672,0.0458984-0.6655273,0.1376953c-0.2016602,0.0908203-0.3720703,0.2099609-0.5112305,0.3574219
		c-0.1396484,0.1464844-0.2475586,0.3095703-0.324707,0.4892578c-0.0766602,0.1796875-0.1152344,0.3574219-0.1152344,0.5332031
		H38.6254883z"/>
	<path fill="#777777" d="M40.4404297,8.9624023c0-0.1982422,0.0712891-0.3681641,0.2143555-0.5117188
		c0.1430664-0.1425781,0.3134766-0.2138672,0.5112305-0.2138672c0.1982422,0,0.3686523,0.0712891,0.5117188,0.2138672
		c0.1430664,0.1435547,0.2143555,0.3134766,0.2143555,0.5117188s-0.0712891,0.3681641-0.2143555,0.5117188
		c-0.1430664,0.1425781-0.3134766,0.2138672-0.5117188,0.2138672c-0.1977539,0-0.3681641-0.0712891-0.5112305-0.2138672
		C40.5117188,9.3305664,40.4404297,9.1606445,40.4404297,8.9624023z M40.6713867,10.8325195h0.9897461v5.2138672h-0.9897461
		V10.8325195z"/>
	<path fill="#777777" d="M42.9589844,10.8325195h0.9897461v0.8027344h0.0219727
		c0.125-0.2783203,0.3413086-0.5039062,0.6494141-0.6767578c0.3076172-0.171875,0.6635742-0.2578125,1.0668945-0.2578125
		c0.2490234,0,0.4892578,0.0380859,0.7202148,0.1152344c0.2314453,0.0771484,0.4326172,0.1962891,0.6049805,0.3574219
		s0.3100586,0.3681641,0.4125977,0.6210938c0.1025391,0.2539062,0.1542969,0.5527344,0.1542969,0.8964844v3.3554688h-0.9902344
		v-3.0800781c0-0.2421875-0.0327148-0.4492188-0.0991211-0.6210938c-0.065918-0.1728516-0.1538086-0.3115234-0.2636719-0.4179688
		c-0.1103516-0.1064453-0.2368164-0.1835938-0.3793945-0.2314453c-0.1430664-0.0478516-0.2915039-0.0712891-0.4458008-0.0712891
		c-0.2055664,0-0.3959961,0.0332031-0.5717773,0.0986328c-0.1762695,0.0664062-0.3300781,0.1708984-0.4624023,0.3134766
		c-0.1318359,0.1435547-0.234375,0.3251953-0.3076172,0.5449219c-0.0737305,0.2197266-0.1103516,0.4804688-0.1103516,0.78125
		v2.6835938h-0.9897461V10.8325195z"/>
	<path fill="#777777" d="M52.0668945,14.418457c0.190918,0.2861328,0.4345703,0.4970703,0.7314453,0.6328125
		c0.2973633,0.1357422,0.6030273,0.203125,0.918457,0.203125c0.1762695,0,0.355957-0.0273438,0.5390625-0.0820312
		c0.1831055-0.0556641,0.3500977-0.1376953,0.5004883-0.2480469s0.2734375-0.2451172,0.3686523-0.4072266
		c0.0952148-0.1611328,0.1430664-0.3476562,0.1430664-0.5605469c0-0.3007812-0.0957031-0.5302734-0.2861328-0.6875
		c-0.190918-0.1582031-0.4272461-0.2900391-0.7094727-0.3964844c-0.2822266-0.1054688-0.590332-0.2089844-0.9238281-0.3076172
		c-0.3339844-0.0986328-0.6420898-0.2363281-0.9243164-0.4121094c-0.2822266-0.1767578-0.5185547-0.4130859-0.7094727-0.7099609
		c-0.1904297-0.296875-0.2856445-0.6982422-0.2856445-1.2041016c0-0.2275391,0.0493164-0.4697266,0.1484375-0.7265625
		c0.0986328-0.2568359,0.2543945-0.4912109,0.4672852-0.7041016c0.2128906-0.2119141,0.4858398-0.390625,0.8193359-0.5332031
		c0.3339844-0.1425781,0.7353516-0.2148438,1.2045898-0.2148438c0.425293,0,0.8325195,0.0595703,1.2211914,0.1767578
		s0.7294922,0.3554688,1.0229492,0.7148438l-0.8579102,0.7802734c-0.1323242-0.2050781-0.3193359-0.3701172-0.5610352-0.4941406
		c-0.2421875-0.125-0.5170898-0.1875-0.8251953-0.1875c-0.293457,0-0.5371094,0.0390625-0.7314453,0.1152344
		c-0.1943359,0.0771484-0.3500977,0.1767578-0.4672852,0.296875c-0.1176758,0.1210938-0.2001953,0.2519531-0.2475586,0.390625
		c-0.0478516,0.1396484-0.0717773,0.2685547-0.0717773,0.3857422c0,0.3300781,0.0952148,0.5830078,0.2861328,0.7587891
		c0.1904297,0.1757812,0.4272461,0.3183594,0.7094727,0.4287109s0.590332,0.2089844,0.9243164,0.296875
		c0.3334961,0.0878906,0.6416016,0.2109375,0.9238281,0.3691406c0.2822266,0.1572266,0.5185547,0.3701172,0.7094727,0.6376953
		c0.1904297,0.2675781,0.2861328,0.6357422,0.2861328,1.1054688c0,0.3740234-0.0717773,0.7109375-0.2148438,1.0117188
		s-0.3354492,0.5537109-0.5771484,0.7587891c-0.2421875,0.2060547-0.5283203,0.3632812-0.8583984,0.4736328
		c-0.3295898,0.109375-0.6816406,0.1650391-1.0556641,0.1650391c-0.4990234,0-0.9716797-0.0878906-1.4189453-0.2646484
		c-0.4477539-0.1757812-0.8032227-0.4472656-1.0673828-0.8134766L52.0668945,14.418457z"/>
	<path fill="#777777" d="M60.2182617,11.6899414h-1.4189453v2.3652344c0,0.1474609,0.003418,0.2919922,0.0107422,0.4345703
		c0.0073242,0.1435547,0.0351562,0.2714844,0.0825195,0.3847656c0.0478516,0.1142578,0.1210938,0.2060547,0.2202148,0.2753906
		s0.2436523,0.1044922,0.4345703,0.1044922c0.1171875,0,0.2382812-0.0107422,0.362793-0.0332031
		c0.1245117-0.0214844,0.2382812-0.0625,0.3413086-0.1210938v0.9023438
		c-0.1176758,0.0664062-0.2695312,0.1113281-0.456543,0.1376953c-0.1870117,0.0253906-0.3320312,0.0380859-0.4345703,0.0380859
		c-0.3813477,0-0.6767578-0.0527344-0.8857422-0.1591797s-0.362793-0.2441406-0.4619141-0.4130859
		c-0.0991211-0.1679688-0.1577148-0.3574219-0.1757812-0.5664062c-0.0185547-0.2089844-0.027832-0.4189453-0.027832-0.6318359
		v-2.7177734h-1.144043v-0.8574219h1.144043V9.3696289h0.9902344v1.4628906h1.4189453V11.6899414z"/>
	<path fill="#777777" d="M61.2192383,10.8325195h0.9897461v0.8027344h0.0219727
		c0.0664062-0.1386719,0.1542969-0.265625,0.2641602-0.3789062c0.1098633-0.1142578,0.2329102-0.2109375,0.3686523-0.2919922
		s0.2841797-0.1445312,0.4453125-0.1923828s0.3227539-0.0712891,0.4838867-0.0712891
		c0.1616211,0,0.3081055,0.0214844,0.4404297,0.0654297l-0.0444336,1.0673828
		c-0.0805664-0.0224609-0.1611328-0.0400391-0.2416992-0.0546875c-0.0810547-0.0146484-0.1616211-0.0224609-0.2421875-0.0224609
		c-0.4838867,0-0.8544922,0.1357422-1.1108398,0.4072266c-0.2568359,0.2714844-0.3852539,0.6923828-0.3852539,1.2646484v2.6181641
		h-0.9897461V10.8325195z"/>
	<path fill="#777777" d="M69.6342773,16.0463867H68.644043v-0.8027344h-0.0219727
		c-0.1245117,0.2783203-0.3408203,0.5039062-0.6489258,0.6757812c-0.3081055,0.1728516-0.6635742,0.2587891-1.0668945,0.2587891
		c-0.2568359,0-0.4990234-0.0380859-0.7260742-0.1152344c-0.2275391-0.0771484-0.4272461-0.1962891-0.5996094-0.3574219
		s-0.3100586-0.3691406-0.4125977-0.6220703s-0.1538086-0.5517578-0.1538086-0.8964844v-3.3544922h0.9897461v3.0800781
		c0,0.2421875,0.0332031,0.4492188,0.0991211,0.6210938c0.065918,0.1728516,0.1542969,0.3115234,0.2641602,0.4179688
		s0.2363281,0.1835938,0.3793945,0.2314453s0.2915039,0.0712891,0.4453125,0.0712891
		c0.2055664,0,0.3959961-0.0332031,0.5722656-0.0986328c0.1757812-0.0664062,0.3300781-0.1708984,0.4619141-0.3134766
		c0.1318359-0.1435547,0.2348633-0.3251953,0.3081055-0.5449219s0.1098633-0.4804688,0.1098633-0.78125v-2.6835938h0.9902344
		V16.0463867z"/>
	<path fill="#777777" d="M74.5839844,12.2182617c-0.1835938-0.1904297-0.3759766-0.3349609-0.5776367-0.4345703
		c-0.2016602-0.0986328-0.4418945-0.1484375-0.7202148-0.1484375c-0.2714844,0-0.5083008,0.0498047-0.7094727,0.1484375
		c-0.2021484,0.0996094-0.3706055,0.2353516-0.5063477,0.4072266s-0.2382812,0.3701172-0.3081055,0.59375
		c-0.0693359,0.2236328-0.1044922,0.4570312-0.1044922,0.6982422c0,0.2421875,0.0405273,0.4716797,0.1210938,0.6875
		c0.0805664,0.2167969,0.1943359,0.4052734,0.3413086,0.5673828c0.1464844,0.1611328,0.3222656,0.2871094,0.527832,0.3789062
		c0.2050781,0.0917969,0.4360352,0.1376953,0.6928711,0.1376953c0.2788086,0,0.5170898-0.0498047,0.715332-0.1484375
		c0.1977539-0.0986328,0.3808594-0.2441406,0.5498047-0.4345703l0.7041016,0.7041016
		c-0.2568359,0.2861328-0.5556641,0.4912109-0.8964844,0.6162109c-0.3413086,0.1240234-0.7026367,0.1865234-1.0834961,0.1865234
		c-0.4033203,0-0.7719727-0.0654297-1.1054688-0.1982422c-0.3339844-0.1318359-0.621582-0.3164062-0.8637695-0.5546875
		c-0.2416992-0.2382812-0.4287109-0.5244141-0.5610352-0.8583984c-0.1318359-0.3339844-0.1977539-0.7021484-0.1977539-1.1054688
		s0.065918-0.7734375,0.1977539-1.1113281c0.1323242-0.3369141,0.3173828-0.6269531,0.5556641-0.8691406
		c0.2382812-0.2412109,0.5244141-0.4306641,0.8579102-0.5664062s0.7055664-0.203125,1.1166992-0.203125
		c0.3808594,0,0.7460938,0.0673828,1.0942383,0.203125s0.6508789,0.3427734,0.9077148,0.6220703L74.5839844,12.2182617z"/>
	<path fill="#777777" d="M79.1157227,11.6899414h-1.4189453v2.3652344c0,0.1474609,0.003418,0.2919922,0.0107422,0.4345703
		c0.0073242,0.1435547,0.0351562,0.2714844,0.0825195,0.3847656c0.0478516,0.1142578,0.1210938,0.2060547,0.2202148,0.2753906
		s0.2436523,0.1044922,0.4345703,0.1044922c0.1171875,0,0.2382812-0.0107422,0.362793-0.0332031
		c0.1245117-0.0214844,0.2382812-0.0625,0.3413086-0.1210938v0.9023438
		c-0.1176758,0.0664062-0.2695312,0.1113281-0.456543,0.1376953c-0.1870117,0.0253906-0.3320312,0.0380859-0.4345703,0.0380859
		c-0.3813477,0-0.6767578-0.0527344-0.8857422-0.1591797s-0.362793-0.2441406-0.4619141-0.4130859
		c-0.0991211-0.1679688-0.1577148-0.3574219-0.1757812-0.5664062c-0.0185547-0.2089844-0.027832-0.4189453-0.027832-0.6318359
		v-2.7177734H75.5625v-0.8574219h1.144043V9.3696289h0.9902344v1.4628906h1.4189453V11.6899414z"/>
	<path fill="#777777" d="M84.7373047,16.0463867h-0.9902344v-0.8027344h-0.0214844
		c-0.125,0.2783203-0.3417969,0.5039062-0.6494141,0.6757812c-0.3085938,0.1728516-0.6635742,0.2587891-1.0668945,0.2587891
		c-0.2568359,0-0.4990234-0.0380859-0.7260742-0.1152344c-0.2275391-0.0771484-0.4272461-0.1962891-0.5996094-0.3574219
		s-0.3100586-0.3691406-0.4125977-0.6220703s-0.1538086-0.5517578-0.1538086-0.8964844v-3.3544922h0.9897461v3.0800781
		c0,0.2421875,0.0332031,0.4492188,0.0991211,0.6210938c0.065918,0.1728516,0.1542969,0.3115234,0.2641602,0.4179688
		s0.2363281,0.1835938,0.3793945,0.2314453s0.2915039,0.0712891,0.4453125,0.0712891
		c0.2055664,0,0.3964844-0.0332031,0.5722656-0.0986328c0.1757812-0.0664062,0.3300781-0.1708984,0.4619141-0.3134766
		c0.1318359-0.1435547,0.234375-0.3251953,0.3076172-0.5449219s0.1103516-0.4804688,0.1103516-0.78125v-2.6835938h0.9902344
		V16.0463867z"/>
	<path fill="#777777" d="M85.9580078,10.8325195h0.9902344v0.8027344h0.0214844
		c0.0664062-0.1386719,0.1542969-0.265625,0.2646484-0.3789062c0.109375-0.1142578,0.2324219-0.2109375,0.3681641-0.2919922
		s0.2841797-0.1445312,0.4453125-0.1923828s0.3222656-0.0712891,0.484375-0.0712891
		c0.1611328,0,0.3076172,0.0214844,0.4394531,0.0654297l-0.0439453,1.0673828
		c-0.0800781-0.0224609-0.1611328-0.0400391-0.2421875-0.0546875c-0.0800781-0.0146484-0.1611328-0.0224609-0.2412109-0.0224609
		c-0.484375,0-0.8544922,0.1357422-1.1113281,0.4072266s-0.3847656,0.6923828-0.3847656,1.2646484v2.6181641h-0.9902344V10.8325195z
		"/>
	<path fill="#777777" d="M90.3027344,13.8022461c0,0.2275391,0.0498047,0.4345703,0.1484375,0.6220703
		c0.0986328,0.1865234,0.2294922,0.3457031,0.390625,0.4785156c0.1611328,0.1318359,0.3476562,0.234375,0.5605469,0.3076172
		s0.4326172,0.1103516,0.6601562,0.1103516c0.3085938,0,0.5761719-0.0722656,0.8027344-0.2148438
		c0.2275391-0.1435547,0.4365234-0.3320312,0.6269531-0.5664062l0.7480469,0.5722656
		c-0.5498047,0.7109375-1.3193359,1.0664062-2.3095703,1.0664062c-0.4111328,0-0.7832031-0.0693359-1.1162109-0.2089844
		c-0.3339844-0.1386719-0.6162109-0.3320312-0.8476562-0.5771484c-0.2304688-0.2460938-0.4082031-0.5351562-0.5332031-0.8691406
		s-0.1865234-0.6943359-0.1865234-1.0839844c0-0.3886719,0.0673828-0.7490234,0.203125-1.0830078
		s0.3222656-0.6230469,0.5605469-0.8691406c0.2382812-0.2451172,0.5224609-0.4384766,0.8525391-0.5771484
		c0.3300781-0.1396484,0.6894531-0.2089844,1.078125-0.2089844c0.4619141,0,0.8525391,0.0800781,1.171875,0.2421875
		c0.3193359,0.1611328,0.5810547,0.3720703,0.7861328,0.6318359c0.2050781,0.2607422,0.3535156,0.5537109,0.4453125,0.8798828
		c0.0917969,0.3271484,0.1376953,0.6582031,0.1376953,0.9960938v0.3515625H90.3027344z M93.4267578,13.0102539
		c-0.0078125-0.2197266-0.0419922-0.421875-0.1044922-0.6044922c-0.0625-0.1835938-0.15625-0.3427734-0.2802734-0.4785156
		c-0.125-0.1357422-0.28125-0.2421875-0.4677734-0.3193359c-0.1875-0.0771484-0.4052734-0.1152344-0.6542969-0.1152344
		c-0.2421875,0-0.4638672,0.0458984-0.6660156,0.1376953c-0.2011719,0.0908203-0.3720703,0.2099609-0.5117188,0.3574219
		c-0.1386719,0.1464844-0.2470703,0.3095703-0.3242188,0.4892578s-0.1152344,0.3574219-0.1152344,0.5332031H93.4267578z"/>
</g>
<circle fill="#48B0E3" cx="10.9019566" cy="12.1129742" r="1.1422229"/>
<path fill="none" stroke="#48B0E3" stroke-width="0.5733722" stroke-miterlimit="10" d="M2.2592747,14.1545305"/>
<path fill="none" stroke="#42BDAE" stroke-width="0.9893817" stroke-miterlimit="10" d="M133.2357025,19.9883232"/>
<polyline fill="none" stroke="#CCCCCC" stroke-width="0.7451853" stroke-miterlimit="10" points="121.1434174,13.094594 
	124.6996918,13.094594 127.2219162,17.4632168 124.6996918,21.8318577 121.1434174,21.8318577 "/>
<polyline fill="none" stroke="#CCCCCC" stroke-width="0.7451853" stroke-miterlimit="10" points="132.5010986,7.8368979 
	128.9448242,7.8368979 126.4226074,12.2055216 128.9448242,16.5741615 132.5010986,16.5741615 "/>
<g>
	<g>
		
			<line fill="none" stroke="#CCCCCC" stroke-linecap="round" stroke-miterlimit="10" x1="121.4612503" y1="3.1706064" x2="121.4612503" y2="3.1706064"/>
		
			<line fill="none" stroke="#CCCCCC" stroke-linecap="round" stroke-miterlimit="10" stroke-dasharray="0,1.6851619" x1="123.1464081" y1="3.1706064" x2="123.9889908" y2="3.1706064"/>
		
			<line fill="none" stroke="#CCCCCC" stroke-linecap="round" stroke-miterlimit="10" x1="124.8315735" y1="3.1706064" x2="124.8315735" y2="3.1706064"/>
		
			<line fill="none" stroke="#CCCCCC" stroke-linecap="round" stroke-miterlimit="10" stroke-dasharray="0,1.5935614" x1="125.6283493" y1="4.5506716" x2="126.8235245" y2="6.620769"/>
		
			<line fill="none" stroke="#CCCCCC" stroke-linecap="round" stroke-miterlimit="10" x1="127.2219162" y1="7.3108015" x2="127.2219162" y2="7.3108015"/>
		
			<line fill="none" stroke="#CCCCCC" stroke-linecap="round" stroke-miterlimit="10" stroke-dasharray="0,1.5935658" x1="126.4251328" y1="8.6908722" x2="125.2299652" y2="10.7609777"/>
		
			<line fill="none" stroke="#CCCCCC" stroke-linecap="round" stroke-miterlimit="10" x1="124.8315735" y1="11.4510126" x2="124.8315735" y2="11.4510126"/>
		
			<line fill="none" stroke="#CCCCCC" stroke-linecap="round" stroke-miterlimit="10" stroke-dasharray="0,1.6851619" x1="123.1464081" y1="11.4510126" x2="122.303833" y2="11.4510126"/>
		
			<line fill="none" stroke="#CCCCCC" stroke-linecap="round" stroke-miterlimit="10" x1="121.4612503" y1="11.4510126" x2="121.4612503" y2="11.4510126"/>
	</g>
</g>
<path fill="none" stroke="#000000" stroke-width="0.5004681" stroke-miterlimit="10" d="M122.7514648,12.770997"/>
<g>
	<path fill="#CCCCCC" d="M135.1015625,8.2583008h2.7392578c0.4980469,0,0.9091797,0.0683594,1.2314453,0.203125
		c0.3222656,0.1367188,0.5771484,0.3085938,0.7646484,0.5175781c0.1865234,0.2089844,0.3173828,0.4433594,0.390625,0.7041016
		c0.0732422,0.2597656,0.109375,0.5117188,0.109375,0.7529297c0,0.2421875-0.0361328,0.4931641-0.109375,0.7539062
		s-0.2041016,0.4951172-0.390625,0.7041016c-0.1875,0.2089844-0.4423828,0.3808594-0.7646484,0.5166016
		s-0.7333984,0.2041016-1.2314453,0.2041016h-1.6835938v3.4316406h-1.0556641V8.2583008z M136.1572266,11.6899414h1.3857422
		c0.2060547,0,0.4091797-0.015625,0.6113281-0.0488281c0.2011719-0.0332031,0.3808594-0.09375,0.5380859-0.1816406
		c0.1582031-0.0878906,0.2841797-0.2148438,0.3798828-0.3798828s0.1435547-0.3789062,0.1435547-0.6435547
		c0-0.2636719-0.0478516-0.4785156-0.1435547-0.6435547s-0.2216797-0.2910156-0.3798828-0.3789062
		c-0.1572266-0.0878906-0.3369141-0.1484375-0.5380859-0.1816406c-0.2021484-0.0332031-0.4052734-0.0498047-0.6113281-0.0498047
		h-1.3857422V11.6899414z"/>
	<path fill="#CCCCCC" d="M141.0966797,10.8325195h0.9892578v0.8027344h0.0224609
		c0.0664062-0.1386719,0.1542969-0.265625,0.2636719-0.3789062c0.1103516-0.1142578,0.2333984-0.2109375,0.3691406-0.2919922
		s0.2841797-0.1445312,0.4453125-0.1923828s0.3222656-0.0712891,0.4833984-0.0712891
		c0.1621094,0,0.3085938,0.0214844,0.4404297,0.0654297l-0.0439453,1.0673828
		c-0.0810547-0.0224609-0.1611328-0.0400391-0.2421875-0.0546875s-0.1611328-0.0224609-0.2421875-0.0224609
		c-0.4833984,0-0.8544922,0.1357422-1.1103516,0.4072266c-0.2568359,0.2714844-0.3857422,0.6923828-0.3857422,1.2646484v2.6181641
		h-0.9892578V10.8325195z"/>
	<path fill="#CCCCCC" d="M144.4404297,13.4389648c0-0.3808594,0.0712891-0.7363281,0.2138672-1.0664062
		c0.1435547-0.3300781,0.3398438-0.6201172,0.5888672-0.8691406s0.5429688-0.4453125,0.8798828-0.5888672
		c0.3369141-0.1425781,0.7001953-0.2138672,1.0888672-0.2138672s0.7519531,0.0712891,1.0888672,0.2138672
		c0.3378906,0.1435547,0.6308594,0.3398438,0.8798828,0.5888672c0.25,0.2490234,0.4462891,0.5390625,0.5888672,0.8691406
		s0.2148438,0.6855469,0.2148438,1.0664062c0,0.3818359-0.0722656,0.7392578-0.2148438,1.0732422
		c-0.1425781,0.3330078-0.3388672,0.6230469-0.5888672,0.8691406c-0.2490234,0.2451172-0.5419922,0.4394531-0.8798828,0.5830078
		c-0.3369141,0.1425781-0.7001953,0.2138672-1.0888672,0.2138672s-0.7519531-0.0712891-1.0888672-0.2138672
		c-0.3369141-0.1435547-0.6308594-0.3378906-0.8798828-0.5830078c-0.2490234-0.2460938-0.4453125-0.5361328-0.5888672-0.8691406
		C144.5117188,14.1782227,144.4404297,13.8208008,144.4404297,13.4389648z M145.4960938,13.4389648
		c0,0.2646484,0.0400391,0.5087891,0.1210938,0.7314453c0.0800781,0.2246094,0.1943359,0.4150391,0.3408203,0.5722656
		c0.1464844,0.1582031,0.3261719,0.2822266,0.5390625,0.3740234s0.4511719,0.1376953,0.7148438,0.1376953
		s0.5019531-0.0458984,0.7148438-0.1376953s0.3925781-0.2158203,0.5390625-0.3740234
		c0.1464844-0.1572266,0.2607422-0.3476562,0.3408203-0.5722656c0.0810547-0.2226562,0.1210938-0.4667969,0.1210938-0.7314453
		c0-0.2636719-0.0400391-0.5068359-0.1210938-0.7314453c-0.0800781-0.2236328-0.1943359-0.4140625-0.3408203-0.5712891
		c-0.1464844-0.1582031-0.3261719-0.2822266-0.5390625-0.3740234s-0.4511719-0.1376953-0.7148438-0.1376953
		s-0.5019531,0.0458984-0.7148438,0.1376953s-0.3925781,0.2158203-0.5390625,0.3740234
		c-0.1464844,0.1572266-0.2607422,0.3476562-0.3408203,0.5712891
		C145.5361328,12.9321289,145.4960938,13.175293,145.4960938,13.4389648z"/>
	<path fill="#CCCCCC" d="M153.7460938,11.6899414h-1.4189453v2.3652344c0,0.1474609,0.0039062,0.2919922,0.0107422,0.4345703
		c0.0078125,0.1435547,0.0351562,0.2714844,0.0830078,0.3847656c0.0478516,0.1142578,0.1210938,0.2060547,0.2197266,0.2753906
		c0.0996094,0.0693359,0.2441406,0.1044922,0.4345703,0.1044922c0.1171875,0,0.2382812-0.0107422,0.3632812-0.0332031
		c0.1240234-0.0214844,0.2382812-0.0625,0.3408203-0.1210938v0.9023438
		c-0.1171875,0.0664062-0.2695312,0.1113281-0.4560547,0.1376953c-0.1875,0.0253906-0.3320312,0.0380859-0.4345703,0.0380859
		c-0.3818359,0-0.6767578-0.0527344-0.8857422-0.1591797s-0.3632812-0.2441406-0.4619141-0.4130859
		c-0.0996094-0.1679688-0.1582031-0.3574219-0.1757812-0.5664062c-0.0185547-0.2089844-0.0283203-0.4189453-0.0283203-0.6318359
		v-2.7177734h-1.1435547v-0.8574219h1.1435547V9.3696289h0.9902344v1.4628906h1.4189453V11.6899414z"/>
	<path fill="#CCCCCC" d="M155.4951172,13.8022461c0,0.2275391,0.0498047,0.4345703,0.1484375,0.6220703
		c0.0996094,0.1865234,0.2294922,0.3457031,0.390625,0.4785156c0.1611328,0.1318359,0.3486328,0.234375,0.5615234,0.3076172
		c0.2119141,0.0732422,0.4326172,0.1103516,0.6591797,0.1103516c0.3085938,0,0.5761719-0.0722656,0.8037109-0.2148438
		c0.2265625-0.1435547,0.4355469-0.3320312,0.6269531-0.5664062l0.7480469,0.5722656
		c-0.5507812,0.7109375-1.3203125,1.0664062-2.3105469,1.0664062c-0.4101562,0-0.7822266-0.0693359-1.1162109-0.2089844
		c-0.3339844-0.1386719-0.6162109-0.3320312-0.8466797-0.5771484c-0.2314453-0.2460938-0.4091797-0.5351562-0.5341797-0.8691406
		c-0.1240234-0.3339844-0.1865234-0.6943359-0.1865234-1.0839844c0-0.3886719,0.0673828-0.7490234,0.203125-1.0830078
		s0.3232422-0.6230469,0.5615234-0.8691406c0.2382812-0.2451172,0.5224609-0.4384766,0.8525391-0.5771484
		c0.3300781-0.1396484,0.6884766-0.2089844,1.0771484-0.2089844c0.4628906,0,0.8525391,0.0800781,1.171875,0.2421875
		c0.3193359,0.1611328,0.5810547,0.3720703,0.7861328,0.6318359c0.2060547,0.2607422,0.3544922,0.5537109,0.4462891,0.8798828
		c0.0908203,0.3271484,0.1367188,0.6582031,0.1367188,0.9960938v0.3515625H155.4951172z M158.6191406,13.0102539
		c-0.0068359-0.2197266-0.0419922-0.421875-0.1044922-0.6044922c-0.0625-0.1835938-0.15625-0.3427734-0.2802734-0.4785156
		c-0.125-0.1357422-0.2802734-0.2421875-0.4677734-0.3193359c-0.1865234-0.0771484-0.4052734-0.1152344-0.6542969-0.1152344
		c-0.2421875,0-0.4638672,0.0458984-0.6660156,0.1376953c-0.2011719,0.0908203-0.3720703,0.2099609-0.5107422,0.3574219
		c-0.1396484,0.1464844-0.2480469,0.3095703-0.3251953,0.4892578c-0.0761719,0.1796875-0.1152344,0.3574219-0.1152344,0.5332031
		H158.6191406z"/>
	<path fill="#CCCCCC" d="M160.4345703,8.9624023c0-0.1982422,0.0712891-0.3681641,0.2138672-0.5117188
		c0.1435547-0.1425781,0.3134766-0.2138672,0.5117188-0.2138672s0.3681641,0.0712891,0.5117188,0.2138672
		c0.1425781,0.1435547,0.2138672,0.3134766,0.2138672,0.5117188s-0.0712891,0.3681641-0.2138672,0.5117188
		c-0.1435547,0.1425781-0.3134766,0.2138672-0.5117188,0.2138672s-0.3681641-0.0712891-0.5117188-0.2138672
		C160.5058594,9.3305664,160.4345703,9.1606445,160.4345703,8.9624023z M160.6650391,10.8325195h0.9902344v5.2138672h-0.9902344
		V10.8325195z"/>
	<path fill="#CCCCCC" d="M162.953125,10.8325195h0.9892578v0.8027344h0.0224609
		c0.125-0.2783203,0.3408203-0.5039062,0.6494141-0.6767578c0.3076172-0.171875,0.6630859-0.2578125,1.0664062-0.2578125
		c0.2490234,0,0.4892578,0.0380859,0.7207031,0.1152344s0.4326172,0.1962891,0.6044922,0.3574219
		c0.1728516,0.1611328,0.3105469,0.3681641,0.4130859,0.6210938c0.1025391,0.2539062,0.1542969,0.5527344,0.1542969,0.8964844
		v3.3554688h-0.9902344v-3.0800781c0-0.2421875-0.0332031-0.4492188-0.0996094-0.6210938
		c-0.0654297-0.1728516-0.1533203-0.3115234-0.2636719-0.4179688s-0.2363281-0.1835938-0.3789062-0.2314453
		c-0.1435547-0.0478516-0.2919922-0.0712891-0.4462891-0.0712891c-0.2050781,0-0.3955078,0.0332031-0.5712891,0.0986328
		c-0.1767578,0.0664062-0.3300781,0.1708984-0.4628906,0.3134766c-0.1318359,0.1435547-0.234375,0.3251953-0.3076172,0.5449219
		s-0.1103516,0.4804688-0.1103516,0.78125v2.6835938h-0.9892578V10.8325195z"/>
	<path fill="#CCCCCC" d="M172.0605469,14.418457c0.1914062,0.2861328,0.4345703,0.4970703,0.7314453,0.6328125
		c0.2978516,0.1357422,0.6035156,0.203125,0.9189453,0.203125c0.1757812,0,0.3554688-0.0273438,0.5390625-0.0820312
		c0.1826172-0.0556641,0.3496094-0.1376953,0.5-0.2480469s0.2734375-0.2451172,0.3691406-0.4072266
		c0.0947266-0.1611328,0.1425781-0.3476562,0.1425781-0.5605469c0-0.3007812-0.0957031-0.5302734-0.2861328-0.6875
		c-0.1904297-0.1582031-0.4267578-0.2900391-0.7089844-0.3964844c-0.2822266-0.1054688-0.5908203-0.2089844-0.9238281-0.3076172
		c-0.3339844-0.0986328-0.6425781-0.2363281-0.9248047-0.4121094c-0.2822266-0.1767578-0.5185547-0.4130859-0.7089844-0.7099609
		s-0.2861328-0.6982422-0.2861328-1.2041016c0-0.2275391,0.0498047-0.4697266,0.1484375-0.7265625
		s0.2548828-0.4912109,0.4677734-0.7041016c0.2128906-0.2119141,0.4853516-0.390625,0.8193359-0.5332031
		S173.59375,8.0600586,174.0625,8.0600586c0.4257812,0,0.8330078,0.0595703,1.2216797,0.1767578
		s0.7294922,0.3554688,1.0224609,0.7148438l-0.8574219,0.7802734c-0.1328125-0.2050781-0.3193359-0.3701172-0.5615234-0.4941406
		c-0.2421875-0.125-0.5166016-0.1875-0.8251953-0.1875c-0.2929688,0-0.5371094,0.0390625-0.7314453,0.1152344
		c-0.1943359,0.0771484-0.3496094,0.1767578-0.4667969,0.296875c-0.1181641,0.1210938-0.2001953,0.2519531-0.2480469,0.390625
		c-0.0478516,0.1396484-0.0712891,0.2685547-0.0712891,0.3857422c0,0.3300781,0.0947266,0.5830078,0.2861328,0.7587891
		c0.1904297,0.1757812,0.4267578,0.3183594,0.7089844,0.4287109s0.5908203,0.2089844,0.9248047,0.296875
		c0.3330078,0.0878906,0.6416016,0.2109375,0.9238281,0.3691406c0.2822266,0.1572266,0.5185547,0.3701172,0.7089844,0.6376953
		s0.2861328,0.6357422,0.2861328,1.1054688c0,0.3740234-0.0712891,0.7109375-0.2148438,1.0117188
		c-0.1425781,0.3007812-0.3349609,0.5537109-0.5771484,0.7587891c-0.2421875,0.2060547-0.5283203,0.3632812-0.8583984,0.4736328
		c-0.3291016,0.109375-0.6816406,0.1650391-1.0556641,0.1650391c-0.4990234,0-0.9716797-0.0878906-1.4189453-0.2646484
		c-0.4472656-0.1757812-0.8027344-0.4472656-1.0673828-0.8134766L172.0605469,14.418457z"/>
	<path fill="#CCCCCC" d="M180.2119141,11.6899414h-1.4189453v2.3652344c0,0.1474609,0.0039062,0.2919922,0.0107422,0.4345703
		c0.0078125,0.1435547,0.0351562,0.2714844,0.0830078,0.3847656c0.0478516,0.1142578,0.1210938,0.2060547,0.2197266,0.2753906
		c0.0996094,0.0693359,0.2441406,0.1044922,0.4345703,0.1044922c0.1171875,0,0.2382812-0.0107422,0.3632812-0.0332031
		c0.1240234-0.0214844,0.2382812-0.0625,0.3408203-0.1210938v0.9023438
		c-0.1171875,0.0664062-0.2695312,0.1113281-0.4560547,0.1376953c-0.1875,0.0253906-0.3320312,0.0380859-0.4345703,0.0380859
		c-0.3818359,0-0.6767578-0.0527344-0.8857422-0.1591797s-0.3632812-0.2441406-0.4619141-0.4130859
		c-0.0996094-0.1679688-0.1582031-0.3574219-0.1757812-0.5664062c-0.0185547-0.2089844-0.0283203-0.4189453-0.0283203-0.6318359
		v-2.7177734h-1.1435547v-0.8574219h1.1435547V9.3696289h0.9902344v1.4628906h1.4189453V11.6899414z"/>
	<path fill="#CCCCCC" d="M181.2128906,10.8325195h0.9902344v0.8027344h0.0214844
		c0.0664062-0.1386719,0.1542969-0.265625,0.2646484-0.3789062c0.109375-0.1142578,0.2324219-0.2109375,0.3681641-0.2919922
		s0.2841797-0.1445312,0.4453125-0.1923828s0.3232422-0.0712891,0.484375-0.0712891s0.3076172,0.0214844,0.4404297,0.0654297
		l-0.0449219,1.0673828c-0.0800781-0.0224609-0.1611328-0.0400391-0.2412109-0.0546875
		c-0.0810547-0.0146484-0.1621094-0.0224609-0.2421875-0.0224609c-0.484375,0-0.8544922,0.1357422-1.1113281,0.4072266
		s-0.3847656,0.6923828-0.3847656,1.2646484v2.6181641h-0.9902344V10.8325195z"/>
	<path fill="#CCCCCC" d="M189.6279297,16.0463867h-0.9902344v-0.8027344h-0.0214844
		c-0.125,0.2783203-0.3408203,0.5039062-0.6494141,0.6757812c-0.3076172,0.1728516-0.6630859,0.2587891-1.0664062,0.2587891
		c-0.2568359,0-0.4990234-0.0380859-0.7265625-0.1152344s-0.4267578-0.1962891-0.5996094-0.3574219
		c-0.171875-0.1611328-0.3095703-0.3691406-0.4121094-0.6220703s-0.1542969-0.5517578-0.1542969-0.8964844v-3.3544922h0.9902344
		v3.0800781c0,0.2421875,0.0332031,0.4492188,0.0986328,0.6210938c0.0664062,0.1728516,0.1542969,0.3115234,0.2646484,0.4179688
		c0.109375,0.1064453,0.2363281,0.1835938,0.3789062,0.2314453c0.1435547,0.0478516,0.2919922,0.0712891,0.4453125,0.0712891
		c0.2060547,0,0.3964844-0.0332031,0.5722656-0.0986328c0.1757812-0.0664062,0.3300781-0.1708984,0.4619141-0.3134766
		c0.1318359-0.1435547,0.2353516-0.3251953,0.3085938-0.5449219s0.109375-0.4804688,0.109375-0.78125v-2.6835938h0.9902344
		V16.0463867z"/>
	<path fill="#CCCCCC" d="M194.578125,12.2182617c-0.1835938-0.1904297-0.3759766-0.3349609-0.578125-0.4345703
		c-0.2011719-0.0986328-0.4414062-0.1484375-0.7197266-0.1484375c-0.2714844,0-0.5087891,0.0498047-0.7099609,0.1484375
		c-0.2021484,0.0996094-0.3701172,0.2353516-0.5058594,0.4072266s-0.2382812,0.3701172-0.3085938,0.59375
		c-0.0693359,0.2236328-0.1044922,0.4570312-0.1044922,0.6982422c0,0.2421875,0.0410156,0.4716797,0.1210938,0.6875
		c0.0810547,0.2167969,0.1943359,0.4052734,0.3417969,0.5673828c0.1464844,0.1611328,0.3222656,0.2871094,0.5273438,0.3789062
		s0.4365234,0.1376953,0.6933594,0.1376953c0.2783203,0,0.5166016-0.0498047,0.7148438-0.1484375
		s0.3808594-0.2441406,0.5498047-0.4345703l0.7041016,0.7041016c-0.2568359,0.2861328-0.5556641,0.4912109-0.8964844,0.6162109
		c-0.3408203,0.1240234-0.7021484,0.1865234-1.0830078,0.1865234c-0.4033203,0-0.7724609-0.0654297-1.1054688-0.1982422
		c-0.3339844-0.1318359-0.6220703-0.3164062-0.8642578-0.5546875c-0.2412109-0.2382812-0.4287109-0.5244141-0.5605469-0.8583984
		s-0.1982422-0.7021484-0.1982422-1.1054688s0.0664062-0.7734375,0.1982422-1.1113281
		c0.1318359-0.3369141,0.3173828-0.6269531,0.5556641-0.8691406c0.2382812-0.2412109,0.5244141-0.4306641,0.8574219-0.5664062
		c0.3339844-0.1357422,0.7060547-0.203125,1.1171875-0.203125c0.3808594,0,0.7460938,0.0673828,1.09375,0.203125
		c0.3486328,0.1357422,0.6513672,0.3427734,0.9082031,0.6220703L194.578125,12.2182617z"/>
	<path fill="#CCCCCC" d="M199.109375,11.6899414h-1.4189453v2.3652344c0,0.1474609,0.0039062,0.2919922,0.0107422,0.4345703
		c0.0078125,0.1435547,0.0351562,0.2714844,0.0830078,0.3847656c0.0478516,0.1142578,0.1210938,0.2060547,0.2197266,0.2753906
		c0.0996094,0.0693359,0.2441406,0.1044922,0.4345703,0.1044922c0.1171875,0,0.2382812-0.0107422,0.3632812-0.0332031
		c0.1240234-0.0214844,0.2382812-0.0625,0.3408203-0.1210938v0.9023438
		c-0.1171875,0.0664062-0.2695312,0.1113281-0.4560547,0.1376953c-0.1875,0.0253906-0.3320312,0.0380859-0.4345703,0.0380859
		c-0.3818359,0-0.6767578-0.0527344-0.8857422-0.1591797s-0.3632812-0.2441406-0.4619141-0.4130859
		c-0.0996094-0.1679688-0.1582031-0.3574219-0.1757812-0.5664062c-0.0185547-0.2089844-0.0283203-0.4189453-0.0283203-0.6318359
		v-2.7177734h-1.1435547v-0.8574219h1.1435547V9.3696289h0.9902344v1.4628906h1.4189453V11.6899414z"/>
	<path fill="#CCCCCC" d="M204.7314453,16.0463867h-0.9902344v-0.8027344h-0.0214844
		c-0.125,0.2783203-0.3417969,0.5039062-0.6494141,0.6757812c-0.3085938,0.1728516-0.6640625,0.2587891-1.0673828,0.2587891
		c-0.2568359,0-0.4990234-0.0380859-0.7255859-0.1152344c-0.2275391-0.0771484-0.4277344-0.1962891-0.5996094-0.3574219
		c-0.1728516-0.1611328-0.3105469-0.3691406-0.4130859-0.6220703s-0.1533203-0.5517578-0.1533203-0.8964844v-3.3544922h0.9892578
		v3.0800781c0,0.2421875,0.0332031,0.4492188,0.0996094,0.6210938c0.0654297,0.1728516,0.1542969,0.3115234,0.2636719,0.4179688
		c0.1103516,0.1064453,0.2363281,0.1835938,0.3798828,0.2314453c0.1425781,0.0478516,0.2910156,0.0712891,0.4453125,0.0712891
		c0.2050781,0,0.3964844-0.0332031,0.5722656-0.0986328c0.1757812-0.0664062,0.3300781-0.1708984,0.4619141-0.3134766
		c0.1318359-0.1435547,0.234375-0.3251953,0.3076172-0.5449219s0.1103516-0.4804688,0.1103516-0.78125v-2.6835938h0.9902344
		V16.0463867z"/>
	<path fill="#CCCCCC" d="M205.9521484,10.8325195h0.9902344v0.8027344h0.0214844
		c0.0664062-0.1386719,0.1542969-0.265625,0.2646484-0.3789062c0.109375-0.1142578,0.2324219-0.2109375,0.3681641-0.2919922
		s0.2841797-0.1445312,0.4453125-0.1923828s0.3222656-0.0712891,0.484375-0.0712891
		c0.1611328,0,0.3076172,0.0214844,0.4394531,0.0654297l-0.0439453,1.0673828
		c-0.0800781-0.0224609-0.1611328-0.0400391-0.2421875-0.0546875c-0.0800781-0.0146484-0.1611328-0.0224609-0.2412109-0.0224609
		c-0.484375,0-0.8544922,0.1357422-1.1113281,0.4072266s-0.3847656,0.6923828-0.3847656,1.2646484v2.6181641h-0.9902344V10.8325195z
		"/>
	<path fill="#CCCCCC" d="M210.296875,13.8022461c0,0.2275391,0.0498047,0.4345703,0.1484375,0.6220703
		c0.0986328,0.1865234,0.2294922,0.3457031,0.390625,0.4785156c0.1611328,0.1318359,0.3476562,0.234375,0.5605469,0.3076172
		s0.4326172,0.1103516,0.6601562,0.1103516c0.3085938,0,0.5761719-0.0722656,0.8027344-0.2148438
		c0.2275391-0.1435547,0.4365234-0.3320312,0.6269531-0.5664062l0.7480469,0.5722656
		c-0.5498047,0.7109375-1.3193359,1.0664062-2.3095703,1.0664062c-0.4111328,0-0.7832031-0.0693359-1.1162109-0.2089844
		c-0.3339844-0.1386719-0.6162109-0.3320312-0.8476562-0.5771484c-0.2304688-0.2460938-0.4082031-0.5351562-0.5332031-0.8691406
		s-0.1865234-0.6943359-0.1865234-1.0839844c0-0.3886719,0.0673828-0.7490234,0.203125-1.0830078
		s0.3222656-0.6230469,0.5605469-0.8691406c0.2382812-0.2451172,0.5224609-0.4384766,0.8525391-0.5771484
		c0.3300781-0.1396484,0.6894531-0.2089844,1.078125-0.2089844c0.4619141,0,0.8525391,0.0800781,1.171875,0.2421875
		c0.3193359,0.1611328,0.5810547,0.3720703,0.7861328,0.6318359c0.2050781,0.2607422,0.3535156,0.5537109,0.4453125,0.8798828
		c0.0917969,0.3271484,0.1376953,0.6582031,0.1376953,0.9960938v0.3515625H210.296875z M213.4208984,13.0102539
		c-0.0078125-0.2197266-0.0419922-0.421875-0.1044922-0.6044922c-0.0625-0.1835938-0.15625-0.3427734-0.2802734-0.4785156
		c-0.125-0.1357422-0.28125-0.2421875-0.4677734-0.3193359c-0.1875-0.0771484-0.4052734-0.1152344-0.6542969-0.1152344
		c-0.2421875,0-0.4638672,0.0458984-0.6660156,0.1376953c-0.2011719,0.0908203-0.3720703,0.2099609-0.5117188,0.3574219
		c-0.1386719,0.1464844-0.2470703,0.3095703-0.3242188,0.4892578s-0.1152344,0.3574219-0.1152344,0.5332031H213.4208984z"/>
</g>
<circle fill="#CCCCCC" cx="130.8958282" cy="12.1129742" r="1.1422229"/>
<path fill="none" stroke="#000000" stroke-width="0.5733722" stroke-miterlimit="10" d="M122.2531509,14.1545305"/>
<path fill="none" stroke="#000000" stroke-width="0.5004681" stroke-miterlimit="10" d="M122.2575912,12.770997"/>
<path fill="none" stroke="#000000" stroke-width="0.5733722" stroke-miterlimit="10" d="M121.7592773,14.1545305"/>
<g>
</g>
<g>
</g>
<g>
</g>
<g>
</g>
<g>
</g>
<g>
</g>
<g>
</g>
<g>
</g>
<g>
</g>
<g>
</g>
<g>
</g>
<g>
</g>
<g>
</g>
<g>
</g>
<g>
</g>
</svg>
