<?xml version="1.0" encoding="UTF-8" standalone="no"?>
<!-- Created with Inkscape (http://www.inkscape.org/) -->

<svg
   xmlns:dc="http://purl.org/dc/elements/1.1/"
   xmlns:cc="http://creativecommons.org/ns#"
   xmlns:rdf="http://www.w3.org/1999/02/22-rdf-syntax-ns#"
   xmlns:svg="http://www.w3.org/2000/svg"
   xmlns="http://www.w3.org/2000/svg"
   xmlns:sodipodi="http://sodipodi.sourceforge.net/DTD/sodipodi-0.dtd"
   xmlns:inkscape="http://www.inkscape.org/namespaces/inkscape"
   version="1.1"
   id="svg2"
   xml:space="preserve"
   width="240"
   height="40"
   viewBox="0 0 240 39.999999"
   sodipodi:docname="nmrbox-logo-dark-240x40.svg"
   inkscape:version="0.92.2 5c3e80d, 2017-08-06"><metadata
     id="metadata8"><rdf:RDF><cc:Work
         rdf:about=""><dc:format>image/svg+xml</dc:format><dc:type
           rdf:resource="http://purl.org/dc/dcmitype/StillImage" /><dc:title></dc:title></cc:Work></rdf:RDF></metadata><defs
     id="defs6"><clipPath
       clipPathUnits="userSpaceOnUse"
       id="clipPath30"><path
         d="M 0,40 H 240 V 0 H 0 Z"
         id="path28"
         inkscape:connector-curvature="0" /></clipPath><clipPath
       clipPathUnits="userSpaceOnUse"
       id="clipPath58"><path
         d="M 0,40 H 240 V 0 H 0 Z"
         id="path56"
         inkscape:connector-curvature="0" /></clipPath></defs><sodipodi:namedview
     pagecolor="#ffffff"
     bordercolor="#666666"
     borderopacity="1"
     objecttolerance="10"
     gridtolerance="10"
     guidetolerance="10"
     inkscape:pageopacity="0"
     inkscape:pageshadow="2"
     inkscape:window-width="1920"
     inkscape:window-height="1156"
     id="namedview4"
     showgrid="false"
     inkscape:zoom="2.9958334"
     inkscape:cx="100.24472"
     inkscape:cy="20"
     inkscape:window-x="104"
     inkscape:window-y="32"
     inkscape:window-maximized="0"
     inkscape:current-layer="g26"
     fit-margin-top="0"
     fit-margin-left="0"
     fit-margin-right="0"
     fit-margin-bottom="0" /><g
     id="g10"
     inkscape:groupmode="layer"
     inkscape:label="nmrbox-logo-dark-240x40"
     transform="matrix(1.3333333,0,0,-1.3333333,-1.3991226,68.239066)"><g
       id="g867"
       transform="matrix(0.74905944,0,0,0.74905944,1.0493419,21.216925)"
       style="stroke-width:1.33500755"><g
         transform="translate(78.0079,37.0184)"
         id="g12"
         style="stroke-width:1.33500755"><path
           inkscape:connector-curvature="0"
           id="path14"
           style="fill:#3fd8fc;fill-opacity:1;fill-rule:nonzero;stroke:none;stroke-width:1.33500755"
           d="M 0,0 -8.263,1.783 -16.526,0 -8.263,-2.397 Z" /></g><g
         transform="translate(69.3934,21.1797)"
         id="g16"
         style="stroke-width:1.33500755"><path
           inkscape:connector-curvature="0"
           id="path18"
           style="fill:#00a5d0;fill-opacity:1;fill-rule:nonzero;stroke:none;stroke-width:1.33500755"
           d="M 0,0 -8.445,4.399 V 15.336 L 0,12.871 Z" /></g><g
         transform="translate(78.5421,25.5783)"
         id="g20"
         style="stroke-width:1.33500755"><path
           inkscape:connector-curvature="0"
           id="path22"
           style="fill:#04729c;fill-opacity:1;fill-rule:nonzero;stroke:none;stroke-width:1.33500755"
           d="M 0,0 -8.445,-4.399 V 8.473 L 0,10.938 Z" /></g><g
         id="g24"
         style="stroke-width:1.33500755"><g
           clip-path="url(#clipPath30)"
           id="g26"
           style="stroke-width:1.33500755"><g
             aria-label="NMR"
             transform="matrix(1,0,0,-1,0,25.5889)"
             style="font-variant:normal;font-weight:bold;font-stretch:normal;font-size:14.99059963px;font-family:'Libre Franklin';-inkscape-font-specification:LibreFranklin-Bold;writing-mode:lr-tb;fill:#757575;fill-opacity:1;fill-rule:nonzero;stroke:none;stroke-width:1.33500755"
             id="text34"><path
               d="m 10.133645,-11.123025 q 0.194878,0 0.194878,0.224859 v 10.65831641 q 0,0.10493419 -0.08994,0.17988719 Q 10.163627,0 10.043702,0 H 8.5296512 Q 8.3947358,0 8.3197828,-0.0299812 8.2448298,-0.0599624 8.1548862,-0.1798872 L 3.3728849,-6.8956758 q -0.059962,-0.074953 -0.1199248,-0.059962 -0.044972,0.014991 -0.044972,0.089944 v 6.59586381 0.0449718 q 0,0.11992479 -0.074953,0.17988719 Q 3.0730729,0 2.9081763,0 H 1.349154 Q 1.049342,0 1.049342,-0.25484019 V -10.838204 q 0,-0.284821 0.2698308,-0.284821 h 1.8138625 q 0.1798872,0 0.2548402,0.04497 0.074953,0.02998 0.1798872,0.179887 l 4.4072363,6.2810613 q 0.089944,0.1199248 0.149906,0.1199248 0.074953,0 0.074953,-0.1648966 v -6.1911175 q 0,-0.269831 0.2698308,-0.269831 z"
               style="stroke-width:1.33500755"
               id="path841" /><path
               d="m 11.842574,0 q -0.149906,0 -0.239849,-0.0899436 -0.07495,-0.0899436 -0.07495,-0.25484019 V -10.838204 q 0,-0.284821 0.25484,-0.284821 h 3.103054 q 0.164897,0 0.23985,0.04497 0.07495,0.04497 0.119924,0.179887 l 2.263581,6.2810613 q 0.04497,0.1199248 0.104934,0.1199248 0.05996,0 0.104934,-0.1199248 l 2.158647,-6.1611363 q 0.08994,-0.344784 0.329793,-0.344784 h 3.222979 q 0.224859,0 0.224859,0.269831 v 10.49341961 q 0,0.19487779 -0.08994,0.28482139 Q 23.47528,0 23.280402,0 h -1.933787 q -0.179888,0 -0.254841,-0.0599624 -0.05996,-0.074953 -0.05996,-0.23984959 V -7.7651306 q 0,-0.1049342 -0.04497,-0.1049342 -0.04497,0 -0.08994,0.1199248 l -2.623355,7.51029041 Q 18.198589,0 17.958739,0 h -1.24422 Q 16.444688,0 16.384726,-0.23984959 L 13.791352,-7.6452058 q -0.04497,-0.1199248 -0.08994,-0.1199248 -0.05996,0 -0.05996,0.1349154 v 7.36038441 q 0,0.16489659 -0.05996,0.22485899 Q 13.536512,0 13.371616,0 Z"
               style="stroke-width:1.33500755"
               id="path843" /><path
               d="m 33.878756,-0.40474619 q 0.02998,0.0899436 0.02998,0.1349154 0,0.11992479 -0.07495,0.19487779 Q 33.758831,0 33.653897,0 H 31.450279 Q 31.195438,0 31.120485,-0.26983079 L 29.501501,-4.4671987 q -0.04497,-0.1199248 -0.134916,-0.1648966 -0.08994,-0.044972 -0.284821,-0.044972 h -1.424107 q -0.08994,0 -0.134916,0.059962 -0.04497,0.044972 -0.04497,0.1049342 v 4.15239611 q 0,0.19487779 -0.104935,0.28482139 Q 27.282892,0 27.073024,0 h -1.903807 q -0.179887,0 -0.25484,-0.074953 -0.05996,-0.074953 -0.05996,-0.22485899 V -10.838204 q 0,-0.284821 0.239849,-0.284821 h 4.677067 q 2.023731,0 3.133036,0.794502 1.109304,0.7945016 1.109304,2.2635804 0,1.0943138 -0.584633,1.873825 -0.584634,0.7645205 -1.469079,1.0793231 -0.119925,0.044972 -0.05996,0.224859 z M 29.531482,-6.4459578 q 0.869455,0 1.319173,-0.3597744 0.449718,-0.374765 0.449718,-1.0793232 0,-0.7195488 -0.464709,-1.0943138 -0.449718,-0.3897556 -1.229229,-0.3897556 h -1.843844 q -0.164897,0 -0.224859,0.059962 -0.05996,0.044972 -0.05996,0.1798872 v 2.4284772 q 0,0.1349154 0.04497,0.1948778 0.04497,0.059962 0.164897,0.059962 z"
               style="stroke-width:1.33500755"
               id="path845" /></g><g
             aria-label="box"
             transform="matrix(1,0,0,-1,34.628286,25.5889)"
             style="font-variant:normal;font-weight:300;font-stretch:normal;font-size:14.99059963px;font-family:'Libre Franklin Light';-inkscape-font-specification:LibreFranklin-Light;writing-mode:lr-tb;fill:#757575;fill-opacity:1;fill-rule:nonzero;stroke:none;stroke-width:1.33500755"
             id="text38"><path
               d="M 1.4390976,0 Q 1.3341634,0 1.2891916,-0.0449718 1.2442198,-0.1049342 1.2442198,-0.22485899 V -10.943138 q 0,-0.179887 0.1648966,-0.179887 h 0.6745769 q 0.149906,0 0.149906,0.194878 v 3.7176686 q 0,0.1648966 0.074953,0.1648966 0.029981,0 0.1349154,-0.074953 1.049342,-0.974389 2.473449,-0.974389 1.6039941,0 2.4134865,1.1392856 0.8094924,1.1392855 0.8094924,2.9531481 0,1.9337874 -0.9144266,3.04309172 Q 6.326033,0.149906 4.7220389,0.149906 q -0.9444078,0 -1.5440318,-0.37476499 -0.599624,-0.374765 -0.9144266,-0.79450181 -0.044972,-0.074953 -0.089944,-0.074953 -0.059962,0 -0.059962,0.11992482 l -0.059962,0.74952999 Q 2.0387215,-0.1049342 1.9787592,-0.0449718 1.9337874,0 1.798872,0 Z m 0.7945017,-2.6683267 q 0,0.5546522 0.3297932,1.0343513 0.3297932,0.4647086 0.8694548,0.74953002 0.5396616,0.2698308 1.1093044,0.2698308 1.1392856,0 1.8438437,-0.85446422 0.7195488,-0.8544641 0.7195488,-2.5334113 0,-1.5590224 -0.6445958,-2.4284771 -0.6296051,-0.8844454 -1.8138625,-0.8844454 -0.7195488,0 -1.349154,0.3297932 -0.6146146,0.3297932 -1.0643326,0.8544642 z"
               style="stroke-width:1.33500755"
               id="path848" /><path
               d="m 12.517151,0.149906 q -1.109304,0 -1.963769,-0.50968039 Q 9.7139089,-0.88444538 9.2492003,-1.798872 8.7844917,-2.7282891 8.7844917,-3.9275371 q 0,-1.2142386 0.4647086,-2.1586464 0.4796992,-0.9593983 1.3341637,-1.4840693 0.854464,-0.524671 1.948778,-0.524671 1.094313,0 1.933787,0.524671 0.854464,0.524671 1.319173,1.4690787 0.464708,0.9444078 0.464708,2.1436558 0,1.199248 -0.464708,2.1436557 -0.464709,0.92941722 -1.319173,1.45408821 Q 13.626455,0.149906 12.517151,0.149906 Z m 0.02998,-0.79450178 q 1.259211,0 1.963769,-0.88444542 0.719549,-0.8994359 0.719549,-2.4284771 0,-1.5290412 -0.73454,-2.4434677 -0.719549,-0.9144266 -1.963768,-0.9144266 -1.259211,0 -1.99375,0.9144266 -0.7345395,0.9144265 -0.7345395,2.4434677 0,1.5290412 0.7345395,2.4284771 0.734539,0.88444542 2.00874,0.88444542 z"
               style="stroke-width:1.33500755"
               id="path850" /><path
               d="M 23.400327,-0.25484019 Q 23.49027,-0.1199248 23.49027,-0.074953 23.49027,0 23.355355,0 h -0.839474 q -0.149906,0 -0.25484,-0.1049342 l -2.24859,-3.1030541 q -0.05996,-0.1049342 -0.119924,-0.1049342 -0.04497,0 -0.134916,0.1049342 l -2.353524,3.1030541 Q 17.329134,0 17.149247,0 h -0.569643 q -0.194878,0 -0.194878,-0.1199248 0,-0.074953 0.08994,-0.17988719 l 2.803242,-3.55277211 q 0.05996,-0.074953 0.05996,-0.149906 0,-0.074953 -0.05996,-0.149906 L 16.624576,-7.75014 q -0.02998,-0.029981 -0.02998,-0.089944 0,-0.1049342 0.134915,-0.1049342 h 0.779511 q 0.08994,0 0.134916,0.029981 0.05996,0.014991 0.104934,0.074953 l 2.188627,2.9381575 q 0.04497,0.089944 0.104935,0.089944 0.05996,0 0.119924,-0.089944 l 2.128666,-2.9381575 q 0.04497,-0.059962 0.08994,-0.074953 0.05996,-0.029981 0.149906,-0.029981 h 0.629605 q 0.08994,0 0.104934,0.059962 0.02998,0.044972 -0.02998,0.1049342 l -2.608364,3.4778191 q -0.05996,0.074953 -0.05996,0.149906 0,0.089944 0.05996,0.1648966 z"
               style="stroke-width:1.33500755"
               id="path852" /></g></g></g><g
         transform="translate(198.4245,37.0184)"
         id="g40"
         style="stroke-width:1.33500755"><path
           inkscape:connector-curvature="0"
           id="path42"
           style="fill:#cccccc;fill-opacity:1;fill-rule:nonzero;stroke:none;stroke-width:1.33500755"
           d="M 0,0 -8.263,1.783 -16.526,0 -8.263,-2.397 Z" /></g><g
         transform="translate(189.8101,21.1797)"
         id="g44"
         style="stroke-width:1.33500755"><path
           inkscape:connector-curvature="0"
           id="path46"
           style="fill:#cccccc;fill-opacity:1;fill-rule:nonzero;stroke:none;stroke-width:1.33500755"
           d="M 0,0 -8.445,4.399 V 15.336 L 0,12.871 Z" /></g><g
         transform="translate(198.9587,25.5783)"
         id="g48"
         style="stroke-width:1.33500755"><path
           inkscape:connector-curvature="0"
           id="path50"
           style="fill:#cccccc;fill-opacity:1;fill-rule:nonzero;stroke:none;stroke-width:1.33500755"
           d="M 0,0 -8.445,-4.399 V 8.473 L 0,10.938 Z" /></g><g
         id="g52"
         style="stroke-width:1.33500755"><g
           clip-path="url(#clipPath58)"
           id="g54"
           style="stroke-width:1.33500755"><g
             aria-label="NMR"
             transform="matrix(1,0,0,-1,120.4165,25.5889)"
             style="font-variant:normal;font-weight:bold;font-stretch:normal;font-size:14.99059963px;font-family:'Libre Franklin';-inkscape-font-specification:LibreFranklin-Bold;writing-mode:lr-tb;fill:#cccccc;fill-opacity:1;fill-rule:nonzero;stroke:none;stroke-width:1.33500755"
             id="text62"><path
               d="m 10.133645,-11.123025 q 0.194878,0 0.194878,0.224859 v 10.65831641 q 0,0.10493419 -0.08994,0.17988719 Q 10.163627,0 10.043702,0 H 8.5296512 Q 8.3947358,0 8.3197828,-0.0299812 8.2448298,-0.0599624 8.1548862,-0.1798872 L 3.3728849,-6.8956758 q -0.059962,-0.074953 -0.1199248,-0.059962 -0.044972,0.014991 -0.044972,0.089944 v 6.59586381 0.0449718 q 0,0.11992479 -0.074953,0.17988719 Q 3.0730729,0 2.9081763,0 H 1.349154 Q 1.049342,0 1.049342,-0.25484019 V -10.838204 q 0,-0.284821 0.2698308,-0.284821 h 1.8138625 q 0.1798872,0 0.2548402,0.04497 0.074953,0.02998 0.1798872,0.179887 l 4.4072363,6.2810613 q 0.089944,0.1199248 0.149906,0.1199248 0.074953,0 0.074953,-0.1648966 v -6.1911175 q 0,-0.269831 0.2698308,-0.269831 z"
               style="stroke-width:1.33500755"
               id="path855" /><path
               d="m 11.842574,0 q -0.149906,0 -0.239849,-0.0899436 -0.07495,-0.0899436 -0.07495,-0.25484019 V -10.838204 q 0,-0.284821 0.25484,-0.284821 h 3.103054 q 0.164897,0 0.23985,0.04497 0.07495,0.04497 0.119924,0.179887 l 2.263581,6.2810613 q 0.04497,0.1199248 0.104934,0.1199248 0.05996,0 0.104934,-0.1199248 l 2.158647,-6.1611363 q 0.08994,-0.344784 0.329793,-0.344784 h 3.222979 q 0.224859,0 0.224859,0.269831 v 10.49341961 q 0,0.19487779 -0.08994,0.28482139 Q 23.47528,0 23.280402,0 h -1.933787 q -0.179888,0 -0.254841,-0.0599624 -0.05996,-0.074953 -0.05996,-0.23984959 V -7.7651306 q 0,-0.1049342 -0.04497,-0.1049342 -0.04497,0 -0.08994,0.1199248 l -2.623355,7.51029041 Q 18.198589,0 17.958739,0 h -1.24422 Q 16.444688,0 16.384726,-0.23984959 L 13.791352,-7.6452058 q -0.04497,-0.1199248 -0.08994,-0.1199248 -0.05996,0 -0.05996,0.1349154 v 7.36038441 q 0,0.16489659 -0.05996,0.22485899 Q 13.536512,0 13.371616,0 Z"
               style="stroke-width:1.33500755"
               id="path857" /><path
               d="m 33.878756,-0.40474619 q 0.02998,0.0899436 0.02998,0.1349154 0,0.11992479 -0.07495,0.19487779 Q 33.758831,0 33.653897,0 H 31.450279 Q 31.195438,0 31.120485,-0.26983079 L 29.501501,-4.4671987 q -0.04497,-0.1199248 -0.134916,-0.1648966 -0.08994,-0.044972 -0.284821,-0.044972 h -1.424107 q -0.08994,0 -0.134916,0.059962 -0.04497,0.044972 -0.04497,0.1049342 v 4.15239611 q 0,0.19487779 -0.104935,0.28482139 Q 27.282892,0 27.073024,0 h -1.903807 q -0.179887,0 -0.25484,-0.074953 -0.05996,-0.074953 -0.05996,-0.22485899 V -10.838204 q 0,-0.284821 0.239849,-0.284821 h 4.677067 q 2.023731,0 3.133036,0.794502 1.109304,0.7945016 1.109304,2.2635804 0,1.0943138 -0.584633,1.873825 -0.584634,0.7645205 -1.469079,1.0793231 -0.119925,0.044972 -0.05996,0.224859 z M 29.531482,-6.4459578 q 0.869455,0 1.319173,-0.3597744 0.449718,-0.374765 0.449718,-1.0793232 0,-0.7195488 -0.464709,-1.0943138 -0.449718,-0.3897556 -1.229229,-0.3897556 h -1.843844 q -0.164897,0 -0.224859,0.059962 -0.05996,0.044972 -0.05996,0.1798872 v 2.4284772 q 0,0.1349154 0.04497,0.1948778 0.04497,0.059962 0.164897,0.059962 z"
               style="stroke-width:1.33500755"
               id="path859" /></g><g
             aria-label="box"
             transform="matrix(1,0,0,-1,155.04479,25.5889)"
             style="font-variant:normal;font-weight:300;font-stretch:normal;font-size:14.99059963px;font-family:'Libre Franklin Light';-inkscape-font-specification:LibreFranklin-Light;writing-mode:lr-tb;fill:#cccccc;fill-opacity:1;fill-rule:nonzero;stroke:none;stroke-width:1.33500755"
             id="text66"><path
               d="M 1.4390976,0 Q 1.3341634,0 1.2891916,-0.0449718 1.2442198,-0.1049342 1.2442198,-0.22485899 V -10.943138 q 0,-0.179887 0.1648966,-0.179887 h 0.6745769 q 0.149906,0 0.149906,0.194878 v 3.7176686 q 0,0.1648966 0.074953,0.1648966 0.029981,0 0.1349154,-0.074953 1.049342,-0.974389 2.473449,-0.974389 1.6039941,0 2.4134865,1.1392856 0.8094924,1.1392855 0.8094924,2.9531481 0,1.9337874 -0.9144266,3.04309172 Q 6.326033,0.149906 4.7220389,0.149906 q -0.9444078,0 -1.5440318,-0.37476499 -0.599624,-0.374765 -0.9144266,-0.79450181 -0.044972,-0.074953 -0.089944,-0.074953 -0.059962,0 -0.059962,0.11992482 l -0.059962,0.74952999 Q 2.0387215,-0.1049342 1.9787592,-0.0449718 1.9337874,0 1.798872,0 Z m 0.7945017,-2.6683267 q 0,0.5546522 0.3297932,1.0343513 0.3297932,0.4647086 0.8694548,0.74953002 0.5396616,0.2698308 1.1093044,0.2698308 1.1392856,0 1.8438437,-0.85446422 0.7195488,-0.8544641 0.7195488,-2.5334113 0,-1.5590224 -0.6445958,-2.4284771 -0.6296051,-0.8844454 -1.8138625,-0.8844454 -0.7195488,0 -1.349154,0.3297932 -0.6146146,0.3297932 -1.0643326,0.8544642 z"
               style="stroke-width:1.33500755"
               id="path862" /><path
               d="m 12.517151,0.149906 q -1.109304,0 -1.963769,-0.50968039 Q 9.7139089,-0.88444538 9.2492003,-1.798872 8.7844917,-2.7282891 8.7844917,-3.9275371 q 0,-1.2142386 0.4647086,-2.1586464 0.4796992,-0.9593983 1.3341637,-1.4840693 0.854464,-0.524671 1.948778,-0.524671 1.094313,0 1.933787,0.524671 0.854464,0.524671 1.319173,1.4690787 0.464708,0.9444078 0.464708,2.1436558 0,1.199248 -0.464708,2.1436557 -0.464709,0.92941722 -1.319173,1.45408821 Q 13.626455,0.149906 12.517151,0.149906 Z m 0.02998,-0.79450178 q 1.259211,0 1.963769,-0.88444542 0.719549,-0.8994359 0.719549,-2.4284771 0,-1.5290412 -0.73454,-2.4434677 -0.719549,-0.9144266 -1.963768,-0.9144266 -1.259211,0 -1.99375,0.9144266 -0.7345395,0.9144265 -0.7345395,2.4434677 0,1.5290412 0.7345395,2.4284771 0.734539,0.88444542 2.00874,0.88444542 z"
               style="stroke-width:1.33500755"
               id="path864" /><path
               d="M 23.400327,-0.25484019 Q 23.49027,-0.1199248 23.49027,-0.074953 23.49027,0 23.355355,0 h -0.839474 q -0.149906,0 -0.25484,-0.1049342 l -2.24859,-3.1030541 q -0.05996,-0.1049342 -0.119924,-0.1049342 -0.04497,0 -0.134916,0.1049342 l -2.353524,3.1030541 Q 17.329134,0 17.149247,0 h -0.569643 q -0.194878,0 -0.194878,-0.1199248 0,-0.074953 0.08994,-0.17988719 l 2.803242,-3.55277211 q 0.05996,-0.074953 0.05996,-0.149906 0,-0.074953 -0.05996,-0.149906 L 16.624576,-7.75014 q -0.02998,-0.029981 -0.02998,-0.089944 0,-0.1049342 0.134915,-0.1049342 h 0.779511 q 0.08994,0 0.134916,0.029981 0.05996,0.014991 0.104934,0.074953 l 2.188627,2.9381575 q 0.04497,0.089944 0.104935,0.089944 0.05996,0 0.119924,-0.089944 l 2.128666,-2.9381575 q 0.04497,-0.059962 0.08994,-0.074953 0.05996,-0.029981 0.149906,-0.029981 h 0.629605 q 0.08994,0 0.104934,0.059962 0.02998,0.044972 -0.02998,0.1049342 l -2.608364,3.4778191 q -0.05996,0.074953 -0.05996,0.149906 0,0.089944 0.05996,0.1648966 z"
               style="stroke-width:1.33500755"
               id="path866" /></g></g></g></g></g></svg>