<?xml version="1.0" encoding="utf-8"?>
<!-- Generator: Adobe Illustrator 17.1.0, SVG Export Plug-In . SVG Version: 6.00 Build 0)  -->
<!DOCTYPE svg PUBLIC "-//W3C//DTD SVG 1.1//EN" "http://www.w3.org/Graphics/SVG/1.1/DTD/svg11.dtd">
<svg version="1.1" id="Layer_1" xmlns="http://www.w3.org/2000/svg" xmlns:xlink="http://www.w3.org/1999/xlink" x="0px" y="0px"
	 width="240px" height="40px" viewBox="0 0 240 40" enable-background="new 0 0 240 40" xml:space="preserve">
<g>
	<path d="M32.3,17.3C32.3,17.4,32.3,17.4,32.3,17.3c-0.1,0.1-0.1,0.1-0.2,0.1h-1.1c-0.1,0-0.2-0.1-0.2-0.2L29.6,14
		c0-0.1-0.1-0.1-0.3-0.1h-1.6c-0.1,0-0.1,0-0.1,0.1v3.3c0,0.1,0,0.1,0,0.2s-0.1,0-0.2,0h-0.9c-0.1,0-0.1,0-0.1,0c0,0,0-0.1,0-0.1
		V9.5c0-0.1,0-0.1,0-0.1c0,0,0.1,0,0.1,0h3.2c0.9,0,1.6,0.2,2.1,0.6c0.5,0.4,0.7,0.9,0.7,1.6c0,0.6-0.2,1-0.5,1.4
		c-0.3,0.4-0.7,0.6-1.1,0.7c0,0-0.1,0.1,0,0.1L32.3,17.3C32.3,17.3,32.3,17.3,32.3,17.3z M30.6,12.6c0.3-0.2,0.4-0.6,0.4-1
		c0-0.4-0.1-0.8-0.4-1c-0.3-0.2-0.7-0.3-1.2-0.3h-1.7c-0.1,0-0.1,0-0.1,0s0,0.1,0,0.1v2.4c0,0.1,0,0.2,0.1,0.2h1.6
		C29.9,12.9,30.3,12.8,30.6,12.6z"/>
	<path d="M34.6,15.8c0.2,0.3,0.4,0.5,0.6,0.6c0.3,0.2,0.6,0.2,0.9,0.2c0.3,0,0.6-0.1,0.9-0.2c0.3-0.1,0.5-0.4,0.7-0.6c0,0,0,0,0.1,0
		c0,0,0.1,0,0.1,0l0.6,0.3c0,0,0.1,0.1,0.1,0.1c0,0,0,0.1,0,0.1c-0.3,0.5-0.7,0.8-1.1,1c-0.4,0.2-0.9,0.3-1.4,0.3
		c-0.5,0-1-0.1-1.5-0.4c-0.4-0.2-0.8-0.6-1-1.1c-0.2-0.5-0.4-1-0.4-1.5c0-0.6,0.1-1.2,0.4-1.6c0.2-0.5,0.6-0.8,1-1.1
		s0.9-0.4,1.4-0.4c0.5,0,1,0.1,1.4,0.4c0.4,0.2,0.7,0.6,1,1s0.3,1,0.3,1.6v0c0,0.1,0,0.1,0,0.1c0,0-0.1,0-0.1,0h-4.1
		c-0.1,0-0.1,0.1-0.1,0.2C34.4,15.3,34.5,15.6,34.6,15.8z M37.4,14.1c0.1,0,0.1,0,0.1,0c0,0,0-0.1,0-0.1c0-0.3-0.1-0.6-0.2-0.8
		s-0.3-0.4-0.5-0.6s-0.5-0.2-0.8-0.2c-0.3,0-0.6,0.1-0.9,0.2c-0.2,0.2-0.4,0.4-0.6,0.6s-0.2,0.6-0.2,0.9L37.4,14.1z"/>
	<path d="M42.6,12.5c-0.2-0.1-0.5-0.2-0.9-0.2c-0.4,0-0.7,0.1-0.9,0.2c-0.2,0.2-0.4,0.4-0.4,0.6c0,0.1,0.1,0.3,0.2,0.4
		c0.1,0.1,0.3,0.2,0.6,0.3l1.4,0.4c0.5,0.1,0.9,0.3,1.1,0.6c0.2,0.3,0.4,0.6,0.4,1c0,0.4-0.1,0.7-0.3,0.9s-0.5,0.5-0.9,0.6
		s-0.8,0.2-1.3,0.2c-0.6,0-1.1-0.1-1.6-0.3c-0.4-0.2-0.8-0.5-1-0.9c0,0,0-0.1,0-0.1c0,0,0-0.1,0.1-0.1l0.5-0.3c0,0,0.1,0,0.1,0
		c0,0,0.1,0,0.1,0c0.4,0.6,1,0.9,1.7,0.9c0.4,0,0.7-0.1,1-0.2c0.3-0.1,0.4-0.4,0.4-0.6c0-0.2-0.1-0.3-0.2-0.5
		c-0.2-0.1-0.4-0.2-0.7-0.3l-1.1-0.3c-0.5-0.1-0.9-0.3-1.2-0.6c-0.2-0.3-0.4-0.6-0.4-1c0-0.4,0.1-0.7,0.3-0.9
		c0.2-0.3,0.5-0.5,0.8-0.6c0.3-0.1,0.8-0.2,1.2-0.2c0.5,0,0.9,0.1,1.3,0.3c0.4,0.2,0.7,0.4,0.9,0.7c0,0,0,0.1,0,0.1s0,0.1-0.1,0.1
		L43.4,13c0,0,0,0-0.1,0c0,0-0.1,0-0.1-0.1C43,12.8,42.8,12.6,42.6,12.5z"/>
	<path d="M46.2,15.8c0.2,0.3,0.4,0.5,0.6,0.6c0.3,0.2,0.6,0.2,0.9,0.2c0.3,0,0.6-0.1,0.9-0.2c0.3-0.1,0.5-0.4,0.7-0.6c0,0,0,0,0.1,0
		c0,0,0.1,0,0.1,0l0.6,0.3c0,0,0.1,0.1,0.1,0.1c0,0,0,0.1,0,0.1c-0.3,0.5-0.7,0.8-1.1,1c-0.4,0.2-0.9,0.3-1.4,0.3
		c-0.5,0-1-0.1-1.5-0.4c-0.4-0.2-0.8-0.6-1-1.1c-0.2-0.5-0.4-1-0.4-1.5c0-0.6,0.1-1.2,0.4-1.6c0.2-0.5,0.6-0.8,1-1.1
		s0.9-0.4,1.4-0.4c0.5,0,1,0.1,1.4,0.4c0.4,0.2,0.7,0.6,1,1s0.3,1,0.3,1.6v0c0,0.1,0,0.1,0,0.1c0,0-0.1,0-0.1,0h-4.1
		C46,14.8,46,14.8,46,15C46,15.3,46,15.6,46.2,15.8z M49,14.1c0.1,0,0.1,0,0.1,0c0,0,0-0.1,0-0.1c0-0.3-0.1-0.6-0.2-0.8
		s-0.3-0.4-0.5-0.6s-0.5-0.2-0.8-0.2c-0.3,0-0.6,0.1-0.9,0.2c-0.2,0.2-0.4,0.4-0.6,0.6S46,13.8,46,14.1L49,14.1z"/>
	<path d="M52.6,17.6c-0.6,0-1-0.1-1.3-0.4c-0.3-0.3-0.5-0.7-0.5-1.2c0-0.6,0.3-1.1,0.8-1.4c0.5-0.4,1.3-0.5,2.2-0.6l0.7-0.1
		c0.1,0,0.2-0.1,0.2-0.2v-0.3c0-0.4-0.1-0.6-0.3-0.9s-0.5-0.3-0.9-0.3c-0.6,0-1.1,0.3-1.4,0.8c0,0,0,0.1-0.1,0.1s-0.1,0-0.1,0
		L51.1,13c0,0-0.1,0-0.1-0.1c0,0,0-0.1,0-0.1c0.2-0.4,0.5-0.7,0.9-0.9c0.4-0.2,0.9-0.3,1.5-0.3c0.8,0,1.3,0.2,1.7,0.5
		s0.6,0.8,0.6,1.4v3.9c0,0.1,0,0.1,0,0.1c0,0-0.1,0-0.1,0h-0.7c-0.1,0-0.2-0.1-0.2-0.2l0-0.4c0-0.1,0-0.1-0.1-0.1c0,0-0.1,0-0.1,0.1
		C54,17.3,53.4,17.6,52.6,17.6z M54.5,14.6l-0.6,0c-0.6,0-1.1,0.2-1.4,0.4c-0.4,0.2-0.5,0.5-0.5,0.9c0,0.3,0.1,0.5,0.3,0.7
		c0.2,0.2,0.5,0.2,0.8,0.2c0.4,0,0.8-0.1,1.1-0.4c0.3-0.3,0.5-0.5,0.5-0.8v-0.9C54.7,14.6,54.6,14.5,54.5,14.6z"/>
	<path d="M57,17.3v-5.5c0-0.1,0-0.2,0.1-0.2H58c0.1,0,0.1,0,0.1,0.1v0.7c0,0,0,0.1,0,0.1c0,0,0.1,0,0.1,0c0.3-0.3,0.6-0.6,0.8-0.7
		c0.3-0.2,0.6-0.3,0.9-0.3c0.3,0,0.4,0.1,0.4,0.2v0.9c0,0.1,0,0.1-0.1,0.1c-0.1,0-0.3-0.1-0.6-0.1c-0.2,0-0.4,0.1-0.6,0.2
		c-0.2,0.1-0.4,0.3-0.6,0.4s-0.2,0.4-0.2,0.6v3.5c0,0.1-0.1,0.2-0.2,0.2h-0.8C57,17.5,57,17.4,57,17.3z"/>
	<path d="M64.9,11.9c0.4,0.3,0.7,0.6,0.9,1.1c0,0,0,0.1,0,0.1c0,0,0,0.1-0.1,0.1l-0.8,0.1h0c0,0-0.1,0-0.1-0.1
		c-0.2-0.3-0.4-0.5-0.6-0.7c-0.2-0.1-0.4-0.2-0.7-0.2c-0.5,0-0.9,0.2-1.2,0.6c-0.3,0.4-0.5,0.9-0.5,1.6c0,0.7,0.2,1.2,0.5,1.6
		c0.3,0.4,0.7,0.6,1.3,0.6c0.3,0,0.6-0.1,0.9-0.3c0.2-0.2,0.5-0.4,0.7-0.8c0,0,0,0,0.1-0.1c0,0,0.1,0,0.1,0l0.6,0.2
		c0.1,0,0.1,0.1,0,0.2c-0.2,0.4-0.5,0.8-0.9,1.1c-0.4,0.3-0.9,0.4-1.5,0.4c-0.5,0-1-0.1-1.5-0.4s-0.8-0.6-1-1.1
		c-0.2-0.5-0.4-1-0.4-1.6c0-0.6,0.1-1.1,0.4-1.6c0.2-0.5,0.6-0.8,1-1.1c0.4-0.3,0.9-0.4,1.4-0.4C64,11.5,64.5,11.7,64.9,11.9z"/>
	<path d="M66.7,17.4c0,0,0-0.1,0-0.1V9.5c0-0.1,0-0.2,0.1-0.2h0.9c0.1,0,0.1,0,0.1,0.1v2.9c0,0.1,0,0.1,0.1,0c0.4-0.3,0.7-0.5,1-0.7
		s0.6-0.2,1-0.2c0.6,0,1,0.2,1.3,0.5s0.5,0.7,0.5,1.2v4c0,0.1-0.1,0.2-0.2,0.2h-0.8c-0.1,0-0.2-0.1-0.2-0.2v-3.9
		c0-0.3-0.1-0.6-0.3-0.8c-0.2-0.2-0.4-0.3-0.8-0.3c-0.3,0-0.5,0.1-0.8,0.2s-0.5,0.3-0.8,0.6v4c0,0.1-0.1,0.2-0.2,0.2h-0.8
		C66.8,17.5,66.7,17.4,66.7,17.4z"/>
</g>
<polygon opacity="0.99" fill="#F9E208" points="4.9,9.2 11.9,5.2 18.8,9.2 18.8,17.2 11.9,21.2 4.9,17.2 "/>
<circle fill="none" stroke="#000000" stroke-width="0.5" stroke-miterlimit="10" cx="11.9" cy="2.8" r="1.7"/>
<circle fill="none" stroke="#000000" stroke-width="0.5" stroke-miterlimit="10" cx="11.9" cy="13.2" r="1.7"/>
<circle fill="none" stroke="#000000" stroke-width="0.5" stroke-miterlimit="10" cx="11.9" cy="23.6" r="1.7"/>
<circle fill="none" stroke="#000000" stroke-width="0.5" stroke-miterlimit="10" cx="2.6" cy="18.5" r="1.7"/>
<circle fill="none" stroke="#000000" stroke-width="0.5" stroke-miterlimit="10" cx="2.6" cy="8.1" r="1.7"/>
<circle fill="none" stroke="#000000" stroke-width="0.5" stroke-miterlimit="10" cx="21.3" cy="18.5" r="1.7"/>
<circle fill="none" stroke="#000000" stroke-width="0.5" stroke-miterlimit="10" cx="21.3" cy="8.1" r="1.7"/>
<line fill="none" stroke="#000000" stroke-width="0.5" stroke-miterlimit="10" stroke-dasharray="0.7908,0.7908" x1="21.4" y1="10.5" x2="21.4" y2="16.8"/>
<line fill="none" stroke="#000000" stroke-width="0.5" stroke-miterlimit="10" stroke-dasharray="0.7908,0.7908" x1="2.6" y1="10.5" x2="2.6" y2="16.8"/>
<line fill="none" stroke="#000000" stroke-width="0.5" stroke-miterlimit="10" stroke-dasharray="0.7908,0.7908" x1="12" y1="15.7" x2="12" y2="21.9"/>
<line fill="none" stroke="#000000" stroke-width="0.5" stroke-miterlimit="10" x1="4.2" y1="7.2" x2="10.4" y2="3.6"/>
<line fill="none" stroke="#000000" stroke-width="0.5" stroke-miterlimit="10" stroke-dasharray="0.7872,0.7873" x1="13.4" y1="22.7" x2="19.7" y2="19.3"/>
<line fill="none" stroke="#000000" stroke-width="0.5" stroke-miterlimit="10" stroke-dasharray="0.7873,0.7873" x1="4.2" y1="19.3" x2="10.4" y2="22.7"/>
<line fill="none" stroke="#000000" stroke-width="0.5" stroke-miterlimit="10" x1="13.5" y1="3.7" x2="19.8" y2="7.3"/>
<line fill="none" stroke="#000000" stroke-width="0.5" stroke-miterlimit="10" x1="4.1" y1="9" x2="10.3" y2="12.4"/>
<line fill="none" stroke="#000000" stroke-width="0.5" stroke-miterlimit="10" x1="13.4" y1="12.3" x2="19.7" y2="9"/>
<g>
	<path fill="#EBEBEB" d="M152.3,17.3C152.3,17.4,152.3,17.4,152.3,17.3c-0.1,0.1-0.1,0.1-0.2,0.1h-1.1c-0.1,0-0.2-0.1-0.2-0.2
		l-1.3-3.3c0-0.1-0.1-0.1-0.3-0.1h-1.6c-0.1,0-0.1,0-0.1,0.1v3.3c0,0.1,0,0.1,0,0.2s-0.1,0-0.2,0h-0.9c-0.1,0-0.1,0-0.1,0
		c0,0,0-0.1,0-0.1V9.5c0-0.1,0-0.1,0-0.1c0,0,0.1,0,0.1,0h3.2c0.9,0,1.6,0.2,2.1,0.6s0.7,0.9,0.7,1.6c0,0.6-0.2,1-0.5,1.4
		c-0.3,0.4-0.7,0.6-1.1,0.7c0,0-0.1,0.1,0,0.1L152.3,17.3C152.3,17.3,152.3,17.3,152.3,17.3z M150.6,12.6c0.3-0.2,0.4-0.6,0.4-1
		c0-0.4-0.1-0.8-0.4-1c-0.3-0.2-0.7-0.3-1.2-0.3h-1.7c-0.1,0-0.1,0-0.1,0c0,0,0,0.1,0,0.1v2.4c0,0.1,0,0.2,0.1,0.2h1.6
		C149.9,12.9,150.3,12.8,150.6,12.6z"/>
	<path fill="#EBEBEB" d="M154.6,15.8c0.2,0.3,0.4,0.5,0.6,0.6c0.3,0.2,0.6,0.2,0.9,0.2c0.3,0,0.6-0.1,0.9-0.2
		c0.3-0.1,0.5-0.4,0.7-0.6c0,0,0,0,0.1,0c0,0,0.1,0,0.1,0l0.6,0.3c0,0,0.1,0.1,0.1,0.1c0,0,0,0.1,0,0.1c-0.3,0.5-0.7,0.8-1.1,1
		c-0.4,0.2-0.9,0.3-1.4,0.3c-0.5,0-1-0.1-1.5-0.4c-0.4-0.2-0.8-0.6-1-1.1s-0.4-1-0.4-1.5c0-0.6,0.1-1.2,0.4-1.6
		c0.2-0.5,0.6-0.8,1-1.1c0.4-0.3,0.9-0.4,1.4-0.4c0.5,0,1,0.1,1.4,0.4c0.4,0.2,0.7,0.6,1,1s0.3,1,0.3,1.6v0c0,0.1,0,0.1,0,0.1
		s-0.1,0-0.1,0h-4.1c-0.1,0-0.1,0.1-0.1,0.2C154.4,15.3,154.5,15.6,154.6,15.8z M157.4,14.1c0.1,0,0.1,0,0.1,0c0,0,0-0.1,0-0.1
		c0-0.3-0.1-0.6-0.2-0.8s-0.3-0.4-0.5-0.6c-0.2-0.2-0.5-0.2-0.8-0.2c-0.3,0-0.6,0.1-0.9,0.2s-0.4,0.4-0.6,0.6s-0.2,0.6-0.2,0.9
		L157.4,14.1z"/>
	<path fill="#EBEBEB" d="M162.6,12.5c-0.2-0.1-0.5-0.2-0.9-0.2c-0.4,0-0.7,0.1-0.9,0.2c-0.2,0.2-0.4,0.4-0.4,0.6
		c0,0.1,0.1,0.3,0.2,0.4c0.1,0.1,0.3,0.2,0.6,0.3l1.4,0.4c0.5,0.1,0.9,0.3,1.1,0.6c0.2,0.3,0.4,0.6,0.4,1c0,0.4-0.1,0.7-0.3,0.9
		s-0.5,0.5-0.9,0.6s-0.8,0.2-1.3,0.2c-0.6,0-1.1-0.1-1.6-0.3s-0.8-0.5-1-0.9c0,0,0-0.1,0-0.1c0,0,0-0.1,0.1-0.1l0.5-0.3
		c0,0,0.1,0,0.1,0c0,0,0.1,0,0.1,0c0.4,0.6,1,0.9,1.7,0.9c0.4,0,0.7-0.1,1-0.2c0.3-0.1,0.4-0.4,0.4-0.6c0-0.2-0.1-0.3-0.2-0.5
		c-0.2-0.1-0.4-0.2-0.7-0.3l-1.1-0.3c-0.5-0.1-0.9-0.3-1.2-0.6c-0.2-0.3-0.4-0.6-0.4-1c0-0.4,0.1-0.7,0.3-0.9
		c0.2-0.3,0.5-0.5,0.8-0.6c0.3-0.1,0.8-0.2,1.2-0.2c0.5,0,0.9,0.1,1.3,0.3c0.4,0.2,0.7,0.4,0.9,0.7c0,0,0,0.1,0,0.1s0,0.1-0.1,0.1
		l-0.6,0.3c0,0,0,0-0.1,0c0,0-0.1,0-0.1-0.1C163,12.8,162.8,12.6,162.6,12.5z"/>
	<path fill="#EBEBEB" d="M166.2,15.8c0.2,0.3,0.4,0.5,0.6,0.6c0.3,0.2,0.6,0.2,0.9,0.2c0.3,0,0.6-0.1,0.9-0.2
		c0.3-0.1,0.5-0.4,0.7-0.6c0,0,0,0,0.1,0c0,0,0.1,0,0.1,0l0.6,0.3c0,0,0.1,0.1,0.1,0.1c0,0,0,0.1,0,0.1c-0.3,0.5-0.7,0.8-1.1,1
		c-0.4,0.2-0.9,0.3-1.4,0.3c-0.5,0-1-0.1-1.5-0.4c-0.4-0.2-0.8-0.6-1-1.1s-0.4-1-0.4-1.5c0-0.6,0.1-1.2,0.4-1.6
		c0.2-0.5,0.6-0.8,1-1.1c0.4-0.3,0.9-0.4,1.4-0.4c0.5,0,1,0.1,1.4,0.4c0.4,0.2,0.7,0.6,1,1s0.3,1,0.3,1.6v0c0,0.1,0,0.1,0,0.1
		s-0.1,0-0.1,0h-4.1c-0.1,0-0.1,0.1-0.1,0.2C166,15.3,166,15.6,166.2,15.8z M169,14.1c0.1,0,0.1,0,0.1,0c0,0,0-0.1,0-0.1
		c0-0.3-0.1-0.6-0.2-0.8s-0.3-0.4-0.5-0.6c-0.2-0.2-0.5-0.2-0.8-0.2c-0.3,0-0.6,0.1-0.9,0.2s-0.4,0.4-0.6,0.6s-0.2,0.6-0.2,0.9
		L169,14.1z"/>
	<path fill="#EBEBEB" d="M172.6,17.6c-0.6,0-1-0.1-1.3-0.4c-0.3-0.3-0.5-0.7-0.5-1.2c0-0.6,0.3-1.1,0.8-1.4c0.5-0.4,1.3-0.5,2.2-0.6
		l0.7-0.1c0.1,0,0.2-0.1,0.2-0.2v-0.3c0-0.4-0.1-0.6-0.3-0.9c-0.2-0.2-0.5-0.3-0.9-0.3c-0.6,0-1.1,0.3-1.4,0.8c0,0,0,0.1-0.1,0.1
		c0,0-0.1,0-0.1,0l-0.7-0.2c0,0-0.1,0-0.1-0.1c0,0,0-0.1,0-0.1c0.2-0.4,0.5-0.7,0.9-0.9c0.4-0.2,0.9-0.3,1.5-0.3
		c0.8,0,1.3,0.2,1.7,0.5c0.4,0.3,0.6,0.8,0.6,1.4v3.9c0,0.1,0,0.1,0,0.1c0,0-0.1,0-0.1,0h-0.7c-0.1,0-0.2-0.1-0.2-0.2l0-0.4
		c0-0.1,0-0.1-0.1-0.1c0,0-0.1,0-0.1,0.1C174,17.3,173.4,17.6,172.6,17.6z M174.5,14.6l-0.6,0c-0.6,0-1.1,0.2-1.4,0.4
		c-0.4,0.2-0.5,0.5-0.5,0.9c0,0.3,0.1,0.5,0.3,0.7c0.2,0.2,0.5,0.2,0.8,0.2c0.4,0,0.8-0.1,1.1-0.4c0.3-0.3,0.5-0.5,0.5-0.8v-0.9
		C174.7,14.6,174.6,14.5,174.5,14.6z"/>
	<path fill="#EBEBEB" d="M177,17.3v-5.5c0-0.1,0-0.2,0.1-0.2h0.8c0.1,0,0.1,0,0.1,0.1v0.7c0,0,0,0.1,0,0.1c0,0,0.1,0,0.1,0
		c0.3-0.3,0.6-0.6,0.8-0.7c0.3-0.2,0.6-0.3,0.9-0.3c0.3,0,0.4,0.1,0.4,0.2v0.9c0,0.1,0,0.1-0.1,0.1c-0.1,0-0.3-0.1-0.6-0.1
		c-0.2,0-0.4,0.1-0.6,0.2c-0.2,0.1-0.4,0.3-0.6,0.4c-0.2,0.2-0.2,0.4-0.2,0.6v3.5c0,0.1-0.1,0.2-0.2,0.2h-0.8
		C177,17.5,177,17.4,177,17.3z"/>
	<path fill="#EBEBEB" d="M184.9,11.9c0.4,0.3,0.7,0.6,0.9,1.1c0,0,0,0.1,0,0.1c0,0,0,0.1-0.1,0.1l-0.8,0.1h0c0,0-0.1,0-0.1-0.1
		c-0.2-0.3-0.4-0.5-0.6-0.7c-0.2-0.1-0.4-0.2-0.7-0.2c-0.5,0-0.9,0.2-1.2,0.6s-0.5,0.9-0.5,1.6c0,0.7,0.2,1.2,0.5,1.6
		c0.3,0.4,0.7,0.6,1.3,0.6c0.3,0,0.6-0.1,0.9-0.3c0.2-0.2,0.5-0.4,0.7-0.8c0,0,0,0,0.1-0.1c0,0,0.1,0,0.1,0l0.6,0.2
		c0.1,0,0.1,0.1,0,0.2c-0.2,0.4-0.5,0.8-0.9,1.1c-0.4,0.3-0.9,0.4-1.5,0.4c-0.5,0-1-0.1-1.5-0.4c-0.4-0.3-0.8-0.6-1-1.1
		c-0.2-0.5-0.4-1-0.4-1.6c0-0.6,0.1-1.1,0.4-1.6c0.2-0.5,0.6-0.8,1-1.1c0.4-0.3,0.9-0.4,1.4-0.4C184,11.5,184.5,11.7,184.9,11.9z"/>
	<path fill="#EBEBEB" d="M186.7,17.4c0,0,0-0.1,0-0.1V9.5c0-0.1,0-0.2,0.1-0.2h0.9c0.1,0,0.1,0,0.1,0.1v2.9c0,0.1,0,0.1,0.1,0
		c0.4-0.3,0.7-0.5,1-0.7c0.3-0.1,0.6-0.2,1-0.2c0.6,0,1,0.2,1.3,0.5s0.5,0.7,0.5,1.2v4c0,0.1-0.1,0.2-0.2,0.2h-0.8
		c-0.1,0-0.2-0.1-0.2-0.2v-3.9c0-0.3-0.1-0.6-0.3-0.8c-0.2-0.2-0.4-0.3-0.8-0.3c-0.3,0-0.5,0.1-0.8,0.2c-0.2,0.1-0.5,0.3-0.8,0.6v4
		c0,0.1-0.1,0.2-0.2,0.2h-0.8C186.8,17.5,186.7,17.4,186.7,17.4z"/>
</g>
<polygon opacity="0.99" fill="#F9E208" points="124.9,9.2 131.9,5.2 138.8,9.2 138.8,17.2 131.9,21.2 124.9,17.2 "/>
<circle fill="none" stroke="#000000" stroke-width="0.5" stroke-miterlimit="10" cx="131.9" cy="2.8" r="1.7"/>
<circle fill="none" stroke="#000000" stroke-width="0.5" stroke-miterlimit="10" cx="131.9" cy="13.2" r="1.7"/>
<circle fill="none" stroke="#000000" stroke-width="0.5" stroke-miterlimit="10" cx="131.9" cy="23.6" r="1.7"/>
<circle fill="none" stroke="#000000" stroke-width="0.5" stroke-miterlimit="10" cx="122.6" cy="18.5" r="1.7"/>
<circle fill="none" stroke="#000000" stroke-width="0.5" stroke-miterlimit="10" cx="122.6" cy="8.1" r="1.7"/>
<circle fill="none" stroke="#000000" stroke-width="0.5" stroke-miterlimit="10" cx="141.3" cy="18.5" r="1.7"/>
<circle fill="none" stroke="#000000" stroke-width="0.5" stroke-miterlimit="10" cx="141.3" cy="8.1" r="1.7"/>
<line fill="none" stroke="#000000" stroke-width="0.5" stroke-miterlimit="10" stroke-dasharray="0.7908,0.7908" x1="141.4" y1="10.5" x2="141.4" y2="16.8"/>
<line fill="none" stroke="#000000" stroke-width="0.5" stroke-miterlimit="10" stroke-dasharray="0.7908,0.7908" x1="122.6" y1="10.5" x2="122.6" y2="16.8"/>
<line fill="none" stroke="#000000" stroke-width="0.5" stroke-miterlimit="10" stroke-dasharray="0.7908,0.7908" x1="132" y1="15.7" x2="132" y2="21.9"/>
<line fill="none" stroke="#000000" stroke-width="0.5" stroke-miterlimit="10" x1="124.2" y1="7.2" x2="130.4" y2="3.6"/>
<line fill="none" stroke="#000000" stroke-width="0.5" stroke-miterlimit="10" stroke-dasharray="0.7872,0.7873" x1="133.4" y1="22.7" x2="139.7" y2="19.3"/>
<line fill="none" stroke="#000000" stroke-width="0.5" stroke-miterlimit="10" stroke-dasharray="0.7873,0.7873" x1="124.2" y1="19.3" x2="130.4" y2="22.7"/>
<line fill="none" stroke="#000000" stroke-width="0.5" stroke-miterlimit="10" x1="133.5" y1="3.7" x2="139.8" y2="7.3"/>
<line fill="none" stroke="#000000" stroke-width="0.5" stroke-miterlimit="10" x1="124.1" y1="9" x2="130.3" y2="12.4"/>
<line fill="none" stroke="#000000" stroke-width="0.5" stroke-miterlimit="10" x1="133.4" y1="12.3" x2="139.7" y2="9"/>
<g>
</g>
<g>
</g>
<g>
</g>
<g>
</g>
<g>
</g>
<g>
</g>
<g>
</g>
<g>
</g>
<g>
</g>
<g>
</g>
<g>
</g>
<g>
</g>
<g>
</g>
<g>
</g>
<g>
</g>
</svg>
