<?xml version="1.0" encoding="utf-8"?>
<!-- Generator: Adobe Illustrator 17.1.0, SVG Export Plug-In . SVG Version: 6.00 Build 0)  -->
<!DOCTYPE svg PUBLIC "-//W3C//DTD SVG 1.1//EN" "http://www.w3.org/Graphics/SVG/1.1/DTD/svg11.dtd">
<svg version="1.1" id="Layer_1" xmlns="http://www.w3.org/2000/svg" xmlns:xlink="http://www.w3.org/1999/xlink" x="0px" y="0px"
	 width="240px" height="40px" viewBox="0 0 240 40" enable-background="new 0 0 240 40" xml:space="preserve">
<g>
	<path d="M26.4,9.3h1c0.1,0,0.1,0.1,0.1,0.2v6.9c0,0,0,0.1,0,0.1c0,0,0,0,0.1,0h3.7c0.1,0,0.1,0,0.1,0c0,0,0,0.1,0,0.1v0.7
		c0,0.1-0.1,0.1-0.2,0.1h-5c-0.1,0-0.1,0-0.1,0c0,0,0-0.1,0-0.1V9.5C26.2,9.4,26.3,9.3,26.4,9.3z"/>
	<path d="M33.6,15.8c0.2,0.3,0.4,0.5,0.6,0.6c0.3,0.2,0.6,0.2,0.9,0.2c0.3,0,0.6-0.1,0.9-0.2c0.3-0.1,0.5-0.4,0.7-0.6c0,0,0,0,0.1,0
		c0,0,0.1,0,0.1,0l0.6,0.3c0,0,0.1,0.1,0.1,0.1c0,0,0,0.1,0,0.1c-0.3,0.5-0.7,0.8-1.1,1c-0.4,0.2-0.9,0.3-1.4,0.3
		c-0.5,0-1-0.1-1.5-0.4c-0.4-0.2-0.8-0.6-1-1.1c-0.2-0.5-0.4-1-0.4-1.5c0-0.6,0.1-1.2,0.4-1.6c0.2-0.5,0.6-0.8,1-1.1
		s0.9-0.4,1.4-0.4c0.5,0,1,0.1,1.4,0.4c0.4,0.2,0.7,0.6,1,1s0.3,1,0.3,1.6v0c0,0.1,0,0.1,0,0.1c0,0-0.1,0-0.1,0h-4.1
		c-0.1,0-0.1,0.1-0.1,0.2C33.4,15.3,33.4,15.6,33.6,15.8z M36.4,14.1c0.1,0,0.1,0,0.1,0c0,0,0-0.1,0-0.1c0-0.3-0.1-0.6-0.2-0.8
		s-0.3-0.4-0.5-0.6s-0.5-0.2-0.8-0.2c-0.3,0-0.6,0.1-0.9,0.2c-0.2,0.2-0.4,0.4-0.6,0.6s-0.2,0.6-0.2,0.9L36.4,14.1z"/>
	<path d="M40.1,17.6c-0.6,0-1-0.1-1.3-0.4c-0.3-0.3-0.5-0.7-0.5-1.2c0-0.6,0.3-1.1,0.8-1.4c0.5-0.4,1.3-0.5,2.2-0.6l0.7-0.1
		c0.1,0,0.2-0.1,0.2-0.2v-0.3c0-0.4-0.1-0.6-0.3-0.9s-0.5-0.3-0.9-0.3c-0.6,0-1.1,0.3-1.4,0.8c0,0,0,0.1-0.1,0.1s-0.1,0-0.1,0
		L38.5,13c0,0-0.1,0-0.1-0.1c0,0,0-0.1,0-0.1c0.2-0.4,0.5-0.7,0.9-0.9c0.4-0.2,0.9-0.3,1.5-0.3c0.8,0,1.3,0.2,1.7,0.5
		s0.6,0.8,0.6,1.4v3.9c0,0.1,0,0.1,0,0.1c0,0-0.1,0-0.1,0h-0.7c-0.1,0-0.2-0.1-0.2-0.2l0-0.4c0-0.1,0-0.1-0.1-0.1c0,0-0.1,0-0.1,0.1
		C41.4,17.3,40.8,17.6,40.1,17.6z M42,14.6l-0.6,0c-0.6,0-1.1,0.2-1.4,0.4c-0.4,0.2-0.5,0.5-0.5,0.9c0,0.3,0.1,0.5,0.3,0.7
		c0.2,0.2,0.5,0.2,0.8,0.2c0.4,0,0.8-0.1,1.1-0.4c0.3-0.3,0.5-0.5,0.5-0.8v-0.9C42.1,14.6,42.1,14.5,42,14.6z"/>
	<path d="M48.3,17.3v-0.4c0-0.1,0-0.1-0.1-0.1c0,0-0.1,0-0.1,0.1c-0.2,0.2-0.5,0.4-0.7,0.5c-0.3,0.1-0.6,0.2-1,0.2
		c-0.5,0-0.9-0.1-1.2-0.3c-0.4-0.2-0.6-0.6-0.9-1c-0.2-0.4-0.3-1-0.3-1.6c0-0.6,0.1-1.1,0.3-1.6c0.2-0.5,0.5-0.8,0.9-1.1
		c0.4-0.3,0.8-0.4,1.3-0.4c0.3,0,0.6,0.1,0.8,0.2c0.2,0.1,0.5,0.2,0.7,0.4c0,0,0.1,0.1,0.1,0.1c0,0,0.1,0,0.1-0.1V9.5
		c0-0.1,0-0.2,0.1-0.2h0.9c0,0,0.1,0,0.1,0c0,0,0,0.1,0,0.1v7.8c0,0.1,0,0.1,0,0.1c0,0-0.1,0-0.2,0h-0.8
		C48.4,17.5,48.3,17.4,48.3,17.3z M47.7,12.5c-0.2-0.1-0.4-0.2-0.7-0.2c-0.5,0-0.9,0.2-1.2,0.6s-0.5,0.9-0.5,1.7s0.1,1.3,0.5,1.6
		s0.7,0.5,1.2,0.5c0.3,0,0.5-0.1,0.7-0.2s0.4-0.3,0.5-0.5c0.1-0.2,0.2-0.4,0.2-0.6V13C48.1,12.8,47.9,12.6,47.7,12.5z"/>
	<path d="M51.9,15.8c0.2,0.3,0.4,0.5,0.6,0.6c0.3,0.2,0.6,0.2,0.9,0.2c0.3,0,0.6-0.1,0.9-0.2c0.3-0.1,0.5-0.4,0.7-0.6c0,0,0,0,0.1,0
		c0,0,0.1,0,0.1,0l0.6,0.3c0,0,0.1,0.1,0.1,0.1c0,0,0,0.1,0,0.1c-0.3,0.5-0.7,0.8-1.1,1c-0.4,0.2-0.9,0.3-1.4,0.3
		c-0.5,0-1-0.1-1.5-0.4c-0.4-0.2-0.8-0.6-1-1.1c-0.2-0.5-0.4-1-0.4-1.5c0-0.6,0.1-1.2,0.4-1.6c0.2-0.5,0.6-0.8,1-1.1
		s0.9-0.4,1.4-0.4c0.5,0,1,0.1,1.4,0.4c0.4,0.2,0.7,0.6,1,1s0.3,1,0.3,1.6v0c0,0.1,0,0.1,0,0.1c0,0-0.1,0-0.1,0h-4.1
		c-0.1,0-0.1,0.1-0.1,0.2C51.6,15.3,51.7,15.6,51.9,15.8z M54.6,14.1c0.1,0,0.1,0,0.1,0c0,0,0-0.1,0-0.1c0-0.3-0.1-0.6-0.2-0.8
		s-0.3-0.4-0.5-0.6s-0.5-0.2-0.8-0.2c-0.3,0-0.6,0.1-0.9,0.2c-0.2,0.2-0.4,0.4-0.6,0.6s-0.2,0.6-0.2,0.9L54.6,14.1z"/>
	<path d="M56.9,17.3v-5.5c0-0.1,0-0.2,0.1-0.2h0.8c0.1,0,0.1,0,0.1,0.1v0.7c0,0,0,0.1,0,0.1c0,0,0.1,0,0.1,0
		c0.3-0.3,0.6-0.6,0.8-0.7c0.3-0.2,0.6-0.3,0.9-0.3c0.3,0,0.4,0.1,0.4,0.2v0.9c0,0.1,0,0.1-0.1,0.1c-0.1,0-0.3-0.1-0.6-0.1
		c-0.2,0-0.4,0.1-0.6,0.2c-0.2,0.1-0.4,0.3-0.6,0.4S58,13.6,58,13.8v3.5c0,0.1-0.1,0.2-0.2,0.2h-0.8C56.9,17.5,56.9,17.4,56.9,17.3z
		"/>
	<path d="M63.9,12.5c-0.2-0.1-0.5-0.2-0.9-0.2c-0.4,0-0.7,0.1-0.9,0.2c-0.2,0.2-0.4,0.4-0.4,0.6c0,0.1,0.1,0.3,0.2,0.4
		c0.1,0.1,0.3,0.2,0.6,0.3l1.4,0.4c0.5,0.1,0.9,0.3,1.1,0.6c0.2,0.3,0.4,0.6,0.4,1c0,0.4-0.1,0.7-0.3,0.9s-0.5,0.5-0.9,0.6
		s-0.8,0.2-1.3,0.2c-0.6,0-1.1-0.1-1.6-0.3c-0.4-0.2-0.8-0.5-1-0.9c0,0,0-0.1,0-0.1c0,0,0-0.1,0.1-0.1l0.5-0.3c0,0,0.1,0,0.1,0
		c0,0,0.1,0,0.1,0c0.4,0.6,1,0.9,1.7,0.9c0.4,0,0.7-0.1,1-0.2c0.3-0.1,0.4-0.4,0.4-0.6c0-0.2-0.1-0.3-0.2-0.5
		c-0.2-0.1-0.4-0.2-0.7-0.3l-1.1-0.3c-0.5-0.1-0.9-0.3-1.2-0.6c-0.2-0.3-0.4-0.6-0.4-1c0-0.4,0.1-0.7,0.3-0.9
		c0.2-0.3,0.5-0.5,0.8-0.6c0.3-0.1,0.8-0.2,1.2-0.2c0.5,0,0.9,0.1,1.3,0.3c0.4,0.2,0.7,0.4,0.9,0.7c0,0,0,0.1,0,0.1s0,0.1-0.1,0.1
		L64.7,13c0,0,0,0-0.1,0c0,0-0.1,0-0.1-0.1C64.3,12.8,64.1,12.6,63.9,12.5z"/>
	<path d="M66.4,17.4c0,0,0-0.1,0-0.1V9.5c0-0.1,0-0.2,0.1-0.2h0.9c0.1,0,0.1,0,0.1,0.1v2.9c0,0.1,0,0.1,0.1,0c0.4-0.3,0.7-0.5,1-0.7
		s0.6-0.2,1-0.2c0.6,0,1,0.2,1.3,0.5s0.5,0.7,0.5,1.2v4c0,0.1-0.1,0.2-0.2,0.2h-0.8c-0.1,0-0.2-0.1-0.2-0.2v-3.9
		c0-0.3-0.1-0.6-0.3-0.8c-0.2-0.2-0.4-0.3-0.8-0.3c-0.3,0-0.5,0.1-0.8,0.2s-0.5,0.3-0.8,0.6v4c0,0.1-0.1,0.2-0.2,0.2h-0.8
		C66.5,17.5,66.5,17.4,66.4,17.4z"/>
	<path d="M73.8,10.5c0,0.1,0,0.1,0,0.2c0,0-0.1,0.1-0.2,0.1h-0.8c-0.1,0-0.1,0-0.2,0s0-0.1,0-0.2v-1c0-0.1,0.1-0.2,0.2-0.2h0.9
		c0,0,0.1,0,0.1,0s0,0.1,0,0.1V10.5z M73.7,17.2c0,0.1,0,0.1,0,0.2c0,0-0.1,0-0.2,0h-0.7c-0.1,0-0.1,0-0.2,0c0,0,0-0.1,0-0.1v-5.5
		c0-0.1,0-0.1,0-0.1c0,0,0.1,0,0.1,0h0.9c0.1,0,0.1,0.1,0.1,0.2V17.2z"/>
	<path d="M76.2,11.8v0.4c0,0.1,0,0.1,0,0.1c0,0,0,0,0.1-0.1c0.2-0.2,0.5-0.4,0.7-0.5c0.2-0.1,0.6-0.2,1-0.2c0.5,0,0.9,0.1,1.2,0.3
		c0.4,0.2,0.6,0.6,0.8,1c0.2,0.4,0.3,1,0.3,1.6c0,0.7-0.1,1.2-0.3,1.7c-0.2,0.5-0.5,0.8-0.9,1.1s-0.8,0.4-1.3,0.4
		c-0.6,0-1.1-0.2-1.5-0.6c-0.1-0.1-0.1-0.1-0.1-0.1c0,0-0.1,0-0.1,0.1v2c0,0.1,0,0.2-0.1,0.2h-0.9c-0.1,0-0.1-0.1-0.1-0.2v-7.3
		c0-0.1,0-0.1,0-0.2c0,0,0.1,0,0.2,0H76C76.1,11.6,76.2,11.7,76.2,11.8z M76.8,16.6c0.2,0.1,0.5,0.2,0.7,0.2c0.5,0,0.9-0.2,1.2-0.6
		c0.3-0.4,0.4-1,0.4-1.7c0-0.7-0.1-1.3-0.4-1.6c-0.3-0.4-0.7-0.5-1.2-0.5c-0.3,0-0.5,0.1-0.7,0.2c-0.2,0.1-0.4,0.3-0.5,0.4
		c-0.1,0.2-0.2,0.4-0.2,0.5v2.7C76.4,16.3,76.6,16.5,76.8,16.6z"/>
</g>
<polygon fill="#FF7006" points="4.9,9.2 11.9,5.2 18.8,9.2 18.8,17.2 11.9,21.2 4.9,17.2 "/>
<circle fill="none" stroke="#000000" stroke-width="0.5" stroke-miterlimit="10" cx="11.9" cy="2.8" r="1.7"/>
<circle fill="none" stroke="#000000" stroke-width="0.5" stroke-miterlimit="10" cx="11.9" cy="13.2" r="1.7"/>
<circle fill="none" stroke="#000000" stroke-width="0.5" stroke-miterlimit="10" cx="11.9" cy="23.6" r="1.7"/>
<circle fill="none" stroke="#000000" stroke-width="0.5" stroke-miterlimit="10" cx="2.6" cy="18.5" r="1.7"/>
<circle fill="none" stroke="#000000" stroke-width="0.5" stroke-miterlimit="10" cx="2.6" cy="8.1" r="1.7"/>
<circle fill="none" stroke="#000000" stroke-width="0.5" stroke-miterlimit="10" cx="21.3" cy="18.5" r="1.7"/>
<circle fill="none" stroke="#000000" stroke-width="0.5" stroke-miterlimit="10" cx="21.3" cy="8.1" r="1.7"/>
<line fill="none" stroke="#000000" stroke-width="0.5" stroke-miterlimit="10" stroke-dasharray="0.7908,0.7908" x1="21.4" y1="10.5" x2="21.4" y2="16.8"/>
<line fill="none" stroke="#000000" stroke-width="0.5" stroke-miterlimit="10" stroke-dasharray="0.7908,0.7908" x1="2.6" y1="10.5" x2="2.6" y2="16.8"/>
<line fill="none" stroke="#000000" stroke-width="0.5" stroke-miterlimit="10" stroke-dasharray="0.7908,0.7908" x1="12" y1="15.7" x2="12" y2="21.9"/>
<line fill="none" stroke="#000000" stroke-width="0.5" stroke-miterlimit="10" x1="4.2" y1="7.2" x2="10.4" y2="3.6"/>
<line fill="none" stroke="#000000" stroke-width="0.5" stroke-miterlimit="10" stroke-dasharray="0.7872,0.7873" x1="13.4" y1="22.7" x2="19.7" y2="19.3"/>
<line fill="none" stroke="#000000" stroke-width="0.5" stroke-miterlimit="10" stroke-dasharray="0.7873,0.7873" x1="4.2" y1="19.3" x2="10.4" y2="22.7"/>
<line fill="none" stroke="#000000" stroke-width="0.5" stroke-miterlimit="10" x1="13.5" y1="3.7" x2="19.8" y2="7.3"/>
<line fill="none" stroke="#000000" stroke-width="0.5" stroke-miterlimit="10" x1="4.1" y1="9" x2="10.3" y2="12.4"/>
<line fill="none" stroke="#000000" stroke-width="0.5" stroke-miterlimit="10" x1="13.4" y1="12.3" x2="19.7" y2="9"/>
<g>
	<path fill="#EBEBEB" d="M146.4,9.3h1c0.1,0,0.1,0.1,0.1,0.2v6.9c0,0,0,0.1,0,0.1c0,0,0,0,0.1,0h3.7c0.1,0,0.1,0,0.1,0
		c0,0,0,0.1,0,0.1v0.7c0,0.1-0.1,0.1-0.2,0.1h-5c-0.1,0-0.1,0-0.1,0c0,0,0-0.1,0-0.1V9.5C146.2,9.4,146.3,9.3,146.4,9.3z"/>
	<path fill="#EBEBEB" d="M153.6,15.8c0.2,0.3,0.4,0.5,0.6,0.6c0.3,0.2,0.6,0.2,0.9,0.2c0.3,0,0.6-0.1,0.9-0.2
		c0.3-0.1,0.5-0.4,0.7-0.6c0,0,0,0,0.1,0c0,0,0.1,0,0.1,0l0.6,0.3c0,0,0.1,0.1,0.1,0.1c0,0,0,0.1,0,0.1c-0.3,0.5-0.7,0.8-1.1,1
		c-0.4,0.2-0.9,0.3-1.4,0.3c-0.5,0-1-0.1-1.5-0.4c-0.4-0.2-0.8-0.6-1-1.1c-0.2-0.5-0.4-1-0.4-1.5c0-0.6,0.1-1.2,0.4-1.6
		c0.2-0.5,0.6-0.8,1-1.1c0.4-0.3,0.9-0.4,1.4-0.4c0.5,0,1,0.1,1.4,0.4c0.4,0.2,0.7,0.6,1,1s0.3,1,0.3,1.6v0c0,0.1,0,0.1,0,0.1
		c0,0-0.1,0-0.1,0h-4.1c-0.1,0-0.1,0.1-0.1,0.2C153.4,15.3,153.4,15.6,153.6,15.8z M156.4,14.1c0.1,0,0.1,0,0.1,0c0,0,0-0.1,0-0.1
		c0-0.3-0.1-0.6-0.2-0.8s-0.3-0.4-0.5-0.6c-0.2-0.2-0.5-0.2-0.8-0.2c-0.3,0-0.6,0.1-0.9,0.2c-0.2,0.2-0.4,0.4-0.6,0.6
		s-0.2,0.6-0.2,0.9L156.4,14.1z"/>
	<path fill="#EBEBEB" d="M160.1,17.6c-0.6,0-1-0.1-1.3-0.4c-0.3-0.3-0.5-0.7-0.5-1.2c0-0.6,0.3-1.1,0.8-1.4c0.5-0.4,1.3-0.5,2.2-0.6
		l0.7-0.1c0.1,0,0.2-0.1,0.2-0.2v-0.3c0-0.4-0.1-0.6-0.3-0.9c-0.2-0.2-0.5-0.3-0.9-0.3c-0.6,0-1.1,0.3-1.4,0.8c0,0,0,0.1-0.1,0.1
		c0,0-0.1,0-0.1,0l-0.7-0.2c0,0-0.1,0-0.1-0.1c0,0,0-0.1,0-0.1c0.2-0.4,0.5-0.7,0.9-0.9c0.4-0.2,0.9-0.3,1.5-0.3
		c0.8,0,1.3,0.2,1.7,0.5c0.4,0.3,0.6,0.8,0.6,1.4v3.9c0,0.1,0,0.1,0,0.1c0,0-0.1,0-0.1,0h-0.7c-0.1,0-0.2-0.1-0.2-0.2l0-0.4
		c0-0.1,0-0.1-0.1-0.1c0,0-0.1,0-0.1,0.1C161.4,17.3,160.8,17.6,160.1,17.6z M162,14.6l-0.6,0c-0.6,0-1.1,0.2-1.4,0.4
		c-0.4,0.2-0.5,0.5-0.5,0.9c0,0.3,0.1,0.5,0.3,0.7c0.2,0.2,0.5,0.2,0.8,0.2c0.4,0,0.8-0.1,1.1-0.4c0.3-0.3,0.5-0.5,0.5-0.8v-0.9
		C162.1,14.6,162.1,14.5,162,14.6z"/>
	<path fill="#EBEBEB" d="M168.3,17.3v-0.4c0-0.1,0-0.1-0.1-0.1c0,0-0.1,0-0.1,0.1c-0.2,0.2-0.5,0.4-0.7,0.5c-0.3,0.1-0.6,0.2-1,0.2
		c-0.5,0-0.9-0.1-1.2-0.3s-0.6-0.6-0.9-1s-0.3-1-0.3-1.6c0-0.6,0.1-1.1,0.3-1.6c0.2-0.5,0.5-0.8,0.9-1.1c0.4-0.3,0.8-0.4,1.3-0.4
		c0.3,0,0.6,0.1,0.8,0.2s0.5,0.2,0.7,0.4c0,0,0.1,0.1,0.1,0.1c0,0,0.1,0,0.1-0.1V9.5c0-0.1,0-0.2,0.1-0.2h0.9c0,0,0.1,0,0.1,0
		s0,0.1,0,0.1v7.8c0,0.1,0,0.1,0,0.1s-0.1,0-0.2,0h-0.8C168.4,17.5,168.3,17.4,168.3,17.3z M167.7,12.5c-0.2-0.1-0.4-0.2-0.7-0.2
		c-0.5,0-0.9,0.2-1.2,0.6c-0.3,0.4-0.5,0.9-0.5,1.7s0.2,1.3,0.5,1.6s0.7,0.5,1.2,0.5c0.3,0,0.5-0.1,0.7-0.2s0.4-0.3,0.5-0.5
		c0.1-0.2,0.2-0.4,0.2-0.6V13C168.1,12.8,167.9,12.6,167.7,12.5z"/>
	<path fill="#EBEBEB" d="M171.9,15.8c0.2,0.3,0.4,0.5,0.6,0.6c0.3,0.2,0.6,0.2,0.9,0.2c0.3,0,0.6-0.1,0.9-0.2
		c0.3-0.1,0.5-0.4,0.7-0.6c0,0,0,0,0.1,0c0,0,0.1,0,0.1,0l0.6,0.3c0,0,0.1,0.1,0.1,0.1c0,0,0,0.1,0,0.1c-0.3,0.5-0.7,0.8-1.1,1
		c-0.4,0.2-0.9,0.3-1.4,0.3c-0.5,0-1-0.1-1.5-0.4c-0.4-0.2-0.8-0.6-1-1.1c-0.2-0.5-0.4-1-0.4-1.5c0-0.6,0.1-1.2,0.4-1.6
		c0.2-0.5,0.6-0.8,1-1.1c0.4-0.3,0.9-0.4,1.4-0.4c0.5,0,1,0.1,1.4,0.4c0.4,0.2,0.7,0.6,1,1s0.3,1,0.3,1.6v0c0,0.1,0,0.1,0,0.1
		c0,0-0.1,0-0.1,0h-4.1c-0.1,0-0.1,0.1-0.1,0.2C171.6,15.3,171.7,15.6,171.9,15.8z M174.6,14.1c0.1,0,0.1,0,0.1,0c0,0,0-0.1,0-0.1
		c0-0.3-0.1-0.6-0.2-0.8s-0.3-0.4-0.5-0.6c-0.2-0.2-0.5-0.2-0.8-0.2c-0.3,0-0.6,0.1-0.9,0.2c-0.2,0.2-0.4,0.4-0.6,0.6
		s-0.2,0.6-0.2,0.9L174.6,14.1z"/>
	<path fill="#EBEBEB" d="M176.9,17.3v-5.5c0-0.1,0-0.2,0.1-0.2h0.8c0.1,0,0.1,0,0.1,0.1v0.7c0,0,0,0.1,0,0.1c0,0,0.1,0,0.1,0
		c0.3-0.3,0.6-0.6,0.8-0.7c0.3-0.2,0.6-0.3,0.9-0.3c0.3,0,0.4,0.1,0.4,0.2v0.9c0,0.1,0,0.1-0.1,0.1c-0.1,0-0.3-0.1-0.6-0.1
		c-0.2,0-0.4,0.1-0.6,0.2c-0.2,0.1-0.4,0.3-0.6,0.4c-0.2,0.2-0.2,0.4-0.2,0.6v3.5c0,0.1-0.1,0.2-0.2,0.2h-0.8
		C176.9,17.5,176.9,17.4,176.9,17.3z"/>
	<path fill="#EBEBEB" d="M183.9,12.5c-0.2-0.1-0.5-0.2-0.9-0.2c-0.4,0-0.7,0.1-0.9,0.2c-0.2,0.2-0.4,0.4-0.4,0.6
		c0,0.1,0.1,0.3,0.2,0.4c0.1,0.1,0.3,0.2,0.6,0.3l1.4,0.4c0.5,0.1,0.9,0.3,1.1,0.6c0.2,0.3,0.4,0.6,0.4,1c0,0.4-0.1,0.7-0.3,0.9
		s-0.5,0.5-0.9,0.6s-0.8,0.2-1.3,0.2c-0.6,0-1.1-0.1-1.6-0.3s-0.8-0.5-1-0.9c0,0,0-0.1,0-0.1c0,0,0-0.1,0.1-0.1l0.5-0.3
		c0,0,0.1,0,0.1,0c0,0,0.1,0,0.1,0c0.4,0.6,1,0.9,1.7,0.9c0.4,0,0.7-0.1,1-0.2c0.3-0.1,0.4-0.4,0.4-0.6c0-0.2-0.1-0.3-0.2-0.5
		c-0.2-0.1-0.4-0.2-0.7-0.3l-1.1-0.3c-0.5-0.1-0.9-0.3-1.2-0.6c-0.2-0.3-0.4-0.6-0.4-1c0-0.4,0.1-0.7,0.3-0.9
		c0.2-0.3,0.5-0.5,0.8-0.6c0.3-0.1,0.8-0.2,1.2-0.2c0.5,0,0.9,0.1,1.3,0.3c0.4,0.2,0.7,0.4,0.9,0.7c0,0,0,0.1,0,0.1s0,0.1-0.1,0.1
		l-0.6,0.3c0,0,0,0-0.1,0c0,0-0.1,0-0.1-0.1C184.3,12.8,184.1,12.6,183.9,12.5z"/>
	<path fill="#EBEBEB" d="M186.4,17.4c0,0,0-0.1,0-0.1V9.5c0-0.1,0-0.2,0.1-0.2h0.9c0.1,0,0.1,0,0.1,0.1v2.9c0,0.1,0,0.1,0.1,0
		c0.4-0.3,0.7-0.5,1-0.7c0.3-0.1,0.6-0.2,1-0.2c0.6,0,1,0.2,1.3,0.5s0.5,0.7,0.5,1.2v4c0,0.1-0.1,0.2-0.2,0.2h-0.8
		c-0.1,0-0.2-0.1-0.2-0.2v-3.9c0-0.3-0.1-0.6-0.3-0.8s-0.4-0.3-0.8-0.3c-0.3,0-0.5,0.1-0.8,0.2c-0.2,0.1-0.5,0.3-0.8,0.6v4
		c0,0.1-0.1,0.2-0.2,0.2h-0.8C186.5,17.5,186.5,17.4,186.4,17.4z"/>
	<path fill="#EBEBEB" d="M193.8,10.5c0,0.1,0,0.1,0,0.2c0,0-0.1,0.1-0.2,0.1h-0.8c-0.1,0-0.1,0-0.2,0s0-0.1,0-0.2v-1
		c0-0.1,0.1-0.2,0.2-0.2h0.9c0,0,0.1,0,0.1,0s0,0.1,0,0.1V10.5z M193.7,17.2c0,0.1,0,0.1,0,0.2s-0.1,0-0.2,0h-0.7
		c-0.1,0-0.1,0-0.2,0c0,0,0-0.1,0-0.1v-5.5c0-0.1,0-0.1,0-0.1c0,0,0.1,0,0.1,0h0.9c0.1,0,0.1,0.1,0.1,0.2V17.2z"/>
	<path fill="#EBEBEB" d="M196.2,11.8v0.4c0,0.1,0,0.1,0,0.1c0,0,0,0,0.1-0.1c0.2-0.2,0.5-0.4,0.7-0.5c0.2-0.1,0.6-0.2,1-0.2
		c0.5,0,0.9,0.1,1.2,0.3c0.4,0.2,0.6,0.6,0.8,1c0.2,0.4,0.3,1,0.3,1.6c0,0.7-0.1,1.2-0.3,1.7c-0.2,0.5-0.5,0.8-0.9,1.1
		s-0.8,0.4-1.3,0.4c-0.6,0-1.1-0.2-1.5-0.6c-0.1-0.1-0.1-0.1-0.1-0.1c0,0-0.1,0-0.1,0.1v2c0,0.1,0,0.2-0.1,0.2h-0.9
		c-0.1,0-0.1-0.1-0.1-0.2v-7.3c0-0.1,0-0.1,0-0.2s0.1,0,0.2,0h0.8C196.1,11.6,196.2,11.7,196.2,11.8z M196.8,16.6
		c0.2,0.1,0.5,0.2,0.7,0.2c0.5,0,0.9-0.2,1.2-0.6s0.4-1,0.4-1.7c0-0.7-0.1-1.3-0.4-1.6c-0.3-0.4-0.7-0.5-1.2-0.5
		c-0.3,0-0.5,0.1-0.7,0.2c-0.2,0.1-0.4,0.3-0.5,0.4s-0.2,0.4-0.2,0.5v2.7C196.4,16.3,196.6,16.5,196.8,16.6z"/>
</g>
<polygon fill="#FF7006" points="124.9,9.2 131.9,5.2 138.8,9.2 138.8,17.2 131.9,21.2 124.9,17.2 "/>
<circle fill="none" stroke="#000000" stroke-width="0.5" stroke-miterlimit="10" cx="131.9" cy="2.8" r="1.7"/>
<circle fill="none" stroke="#000000" stroke-width="0.5" stroke-miterlimit="10" cx="131.9" cy="13.2" r="1.7"/>
<circle fill="none" stroke="#000000" stroke-width="0.5" stroke-miterlimit="10" cx="131.9" cy="23.6" r="1.7"/>
<circle fill="none" stroke="#000000" stroke-width="0.5" stroke-miterlimit="10" cx="122.6" cy="18.5" r="1.7"/>
<circle fill="none" stroke="#000000" stroke-width="0.5" stroke-miterlimit="10" cx="122.6" cy="8.1" r="1.7"/>
<circle fill="none" stroke="#000000" stroke-width="0.5" stroke-miterlimit="10" cx="141.3" cy="18.5" r="1.7"/>
<circle fill="none" stroke="#000000" stroke-width="0.5" stroke-miterlimit="10" cx="141.3" cy="8.1" r="1.7"/>
<line fill="none" stroke="#000000" stroke-width="0.5" stroke-miterlimit="10" stroke-dasharray="0.7908,0.7908" x1="141.4" y1="10.5" x2="141.4" y2="16.8"/>
<line fill="none" stroke="#000000" stroke-width="0.5" stroke-miterlimit="10" stroke-dasharray="0.7908,0.7908" x1="122.6" y1="10.5" x2="122.6" y2="16.8"/>
<line fill="none" stroke="#000000" stroke-width="0.5" stroke-miterlimit="10" stroke-dasharray="0.7908,0.7908" x1="132" y1="15.7" x2="132" y2="21.9"/>
<line fill="none" stroke="#000000" stroke-width="0.5" stroke-miterlimit="10" x1="124.2" y1="7.2" x2="130.4" y2="3.6"/>
<line fill="none" stroke="#000000" stroke-width="0.5" stroke-miterlimit="10" stroke-dasharray="0.7872,0.7873" x1="133.4" y1="22.7" x2="139.7" y2="19.3"/>
<line fill="none" stroke="#000000" stroke-width="0.5" stroke-miterlimit="10" stroke-dasharray="0.7873,0.7873" x1="124.2" y1="19.3" x2="130.4" y2="22.7"/>
<line fill="none" stroke="#000000" stroke-width="0.5" stroke-miterlimit="10" x1="133.5" y1="3.7" x2="139.8" y2="7.3"/>
<line fill="none" stroke="#000000" stroke-width="0.5" stroke-miterlimit="10" x1="124.1" y1="9" x2="130.3" y2="12.4"/>
<line fill="none" stroke="#000000" stroke-width="0.5" stroke-miterlimit="10" x1="133.4" y1="12.3" x2="139.7" y2="9"/>
<g>
</g>
<g>
</g>
<g>
</g>
<g>
</g>
<g>
</g>
<g>
</g>
<g>
</g>
<g>
</g>
<g>
</g>
<g>
</g>
<g>
</g>
<g>
</g>
<g>
</g>
<g>
</g>
<g>
</g>
</svg>
