<?xml version="1.0" encoding="utf-8"?>
<!-- Generator: Adobe Illustrator 17.1.0, SVG Export Plug-In . SVG Version: 6.00 Build 0)  -->
<!DOCTYPE svg PUBLIC "-//W3C//DTD SVG 1.1//EN" "http://www.w3.org/Graphics/SVG/1.1/DTD/svg11.dtd">
<svg version="1.1" id="Layer_1" xmlns="http://www.w3.org/2000/svg" xmlns:xlink="http://www.w3.org/1999/xlink" x="0px" y="0px"
	 width="240px" height="40px" viewBox="0 0 240 40" enable-background="new 0 0 240 40" xml:space="preserve">
<g>
	<path d="M27.4,9.3c0.1,0,0.1,0.1,0.1,0.2v7.8c0,0.1,0,0.1,0,0.2s-0.1,0-0.2,0h-0.9c-0.1,0-0.1,0-0.2,0c0,0,0-0.1,0-0.1V9.5
		c0-0.1,0.1-0.2,0.2-0.2H27.4z"/>
	<path d="M29,17.3v-5.5c0-0.1,0-0.2,0.1-0.2h0.9c0.1,0,0.1,0,0.1,0.1v0.6c0,0,0,0.1,0,0.1c0,0,0,0,0.1,0c0.4-0.3,0.7-0.5,1-0.7
		c0.3-0.1,0.6-0.2,1-0.2c0.5,0,1,0.2,1.3,0.5c0.3,0.3,0.5,0.7,0.5,1.2v4.1c0,0.1-0.1,0.2-0.2,0.2H33c-0.1,0-0.2-0.1-0.2-0.2v-3.9
		c0-0.3-0.1-0.6-0.3-0.8c-0.2-0.2-0.4-0.3-0.8-0.3c-0.3,0-0.5,0.1-0.8,0.2c-0.2,0.1-0.5,0.3-0.8,0.6v4c0,0.1,0,0.1,0,0.1
		c0,0-0.1,0-0.2,0h-0.8C29.1,17.5,29,17.4,29,17.3z"/>
	<path d="M37.1,12.5c-0.1,0-0.1,0-0.1,0.1v3.2c0,0.3,0.1,0.5,0.2,0.6c0.1,0.1,0.3,0.2,0.5,0.2h0.7c0.1,0,0.1,0,0.1,0.1v0.5
		c0,0.1-0.1,0.2-0.2,0.2c-0.2,0-0.6,0.1-1.1,0.1c-0.5,0-0.8-0.1-1.1-0.3c-0.2-0.2-0.4-0.6-0.4-1v-3.5c0-0.1,0-0.1-0.1-0.1h-0.8
		c-0.1,0-0.1,0-0.1-0.1v-0.6c0-0.1,0-0.1,0.1-0.1h0.9c0.1,0,0.1,0,0.1-0.1L36,9.8c0-0.1,0.1-0.2,0.1-0.2h0.8c0.1,0,0.1,0.1,0.1,0.2
		v1.7c0,0.1,0,0.1,0.1,0.1h1.3c0.1,0,0.1,0,0.1,0.1v0.6c0,0.1-0.1,0.1-0.2,0.1H37.1z"/>
	<path d="M40.4,15.8c0.2,0.3,0.4,0.5,0.6,0.6c0.3,0.2,0.6,0.2,0.9,0.2c0.3,0,0.6-0.1,0.9-0.2c0.3-0.1,0.5-0.4,0.7-0.6c0,0,0,0,0.1,0
		c0,0,0.1,0,0.1,0l0.6,0.3c0,0,0.1,0.1,0.1,0.1c0,0,0,0.1,0,0.1c-0.3,0.5-0.7,0.8-1.1,1c-0.4,0.2-0.9,0.3-1.4,0.3
		c-0.5,0-1-0.1-1.5-0.4c-0.4-0.2-0.8-0.6-1-1.1c-0.2-0.5-0.4-1-0.4-1.5c0-0.6,0.1-1.2,0.4-1.6c0.2-0.5,0.6-0.8,1-1.1
		s0.9-0.4,1.4-0.4c0.5,0,1,0.1,1.4,0.4c0.4,0.2,0.7,0.6,1,1s0.3,1,0.3,1.6v0c0,0.1,0,0.1,0,0.1c0,0-0.1,0-0.1,0h-4.1
		c-0.1,0-0.1,0.1-0.1,0.2C40.1,15.3,40.2,15.6,40.4,15.8z M43.1,14.1c0.1,0,0.1,0,0.1,0c0,0,0-0.1,0-0.1c0-0.3-0.1-0.6-0.2-0.8
		s-0.3-0.4-0.5-0.6s-0.5-0.2-0.8-0.2c-0.3,0-0.6,0.1-0.9,0.2c-0.2,0.2-0.4,0.4-0.6,0.6s-0.2,0.6-0.2,0.9L43.1,14.1z"/>
	<path d="M51,11.7v0.5c0,0.1-0.1,0.2-0.2,0.2c-0.1,0-0.2,0-0.3,0c-0.1,0-0.2,0-0.3,0c-0.1,0-0.2,0.1-0.2,0.1c0,0,0,0.1,0,0.1
		c0,0,0,0.1,0.1,0.2c0,0.1,0.1,0.3,0.1,0.5c0,0.5-0.2,0.9-0.6,1.3c-0.4,0.3-1,0.5-1.8,0.5c-0.5,0-0.8,0-1.1,0.1
		c-0.2,0.1-0.3,0.2-0.3,0.3c0,0.1,0.1,0.2,0.2,0.2c0.1,0,0.4,0.1,0.7,0.1l1.5,0.1c0.7,0,1.2,0.2,1.5,0.5c0.3,0.3,0.5,0.6,0.5,1.1
		c0,0.6-0.3,1-0.8,1.3c-0.5,0.3-1.2,0.5-2.2,0.5c-1,0-1.7-0.1-2.2-0.4s-0.8-0.6-0.8-1.1c0-0.2,0.1-0.5,0.3-0.7
		c0.2-0.2,0.4-0.4,0.8-0.5c0.1,0,0.1-0.1,0-0.1c-0.4-0.2-0.6-0.4-0.6-0.7c0-0.2,0.1-0.3,0.2-0.5s0.4-0.3,0.7-0.4c0,0,0.1,0,0.1-0.1
		c0,0,0-0.1-0.1-0.1c-0.3-0.2-0.6-0.4-0.7-0.6c-0.2-0.2-0.2-0.5-0.2-0.9c0-0.6,0.2-1,0.7-1.3c0.5-0.3,1.1-0.5,1.9-0.5
		c0.7,0,1.3,0.2,1.7,0.5c0.1,0,0.1,0.1,0.1,0.1c0,0,0.1,0,0.1-0.1c0.1-0.1,0.3-0.3,0.5-0.4c0.2-0.1,0.4-0.2,0.6-0.2
		C51,11.5,51,11.6,51,11.7z M46.8,16.9c-0.1,0-0.3,0-0.4,0.1s-0.3,0.2-0.4,0.3c-0.1,0.1-0.2,0.3-0.2,0.5c0,0.7,0.7,1,2.1,1
		c0.6,0,1-0.1,1.3-0.2s0.5-0.4,0.5-0.7c0-0.5-0.3-0.7-1-0.8L46.8,16.9z M48.8,14.2c0.2-0.2,0.3-0.5,0.3-0.8c0-0.4-0.1-0.7-0.4-0.9
		c-0.2-0.2-0.6-0.3-1-0.3c-0.4,0-0.8,0.1-1,0.3c-0.2,0.2-0.4,0.5-0.4,0.9c0,0.4,0.1,0.6,0.4,0.8s0.6,0.3,1.1,0.3
		C48.2,14.5,48.5,14.4,48.8,14.2z"/>
	<path d="M51.8,17.3v-5.5c0-0.1,0-0.2,0.1-0.2h0.8c0.1,0,0.1,0,0.1,0.1v0.7c0,0,0,0.1,0,0.1c0,0,0.1,0,0.1,0
		c0.3-0.3,0.6-0.6,0.8-0.7c0.3-0.2,0.6-0.3,0.9-0.3c0.3,0,0.4,0.1,0.4,0.2v0.9c0,0.1,0,0.1-0.1,0.1c-0.1,0-0.3-0.1-0.6-0.1
		c-0.2,0-0.4,0.1-0.6,0.2c-0.2,0.1-0.4,0.3-0.6,0.4S53,13.6,53,13.8v3.5c0,0.1-0.1,0.2-0.2,0.2H52C51.9,17.5,51.8,17.4,51.8,17.3z"
		/>
	<path d="M57.3,17.6c-0.6,0-1-0.1-1.3-0.4c-0.3-0.3-0.5-0.7-0.5-1.2c0-0.6,0.3-1.1,0.8-1.4c0.5-0.4,1.3-0.5,2.2-0.6l0.7-0.1
		c0.1,0,0.2-0.1,0.2-0.2v-0.3c0-0.4-0.1-0.6-0.3-0.9s-0.5-0.3-0.9-0.3c-0.6,0-1.1,0.3-1.4,0.8c0,0,0,0.1-0.1,0.1s-0.1,0-0.1,0
		L55.7,13c0,0-0.1,0-0.1-0.1c0,0,0-0.1,0-0.1c0.2-0.4,0.5-0.7,0.9-0.9c0.4-0.2,0.9-0.3,1.5-0.3c0.8,0,1.3,0.2,1.7,0.5
		s0.6,0.8,0.6,1.4v3.9c0,0.1,0,0.1,0,0.1c0,0-0.1,0-0.1,0h-0.7c-0.1,0-0.2-0.1-0.2-0.2l0-0.4c0-0.1,0-0.1-0.1-0.1c0,0-0.1,0-0.1,0.1
		C58.6,17.3,58,17.6,57.3,17.6z M59.2,14.6l-0.6,0c-0.6,0-1.1,0.2-1.4,0.4c-0.4,0.2-0.5,0.5-0.5,0.9c0,0.3,0.1,0.5,0.3,0.7
		c0.2,0.2,0.5,0.2,0.8,0.2c0.4,0,0.8-0.1,1.1-0.4c0.3-0.3,0.5-0.5,0.5-0.8v-0.9C59.3,14.6,59.3,14.5,59.2,14.6z"/>
	<path d="M62.8,17.2c0,0.1,0,0.1,0,0.2s-0.1,0-0.2,0h-0.7c-0.1,0-0.1,0-0.2,0c0,0,0-0.1,0-0.1l0-7.8c0-0.1,0-0.2,0.1-0.2h0.9
		c0.1,0,0.1,0.1,0.1,0.2V17.2z"/>
</g>
<polygon opacity="0.99" fill="#C0F77F" points="4.9,9.2 11.9,5.2 18.8,9.2 18.8,17.2 11.9,21.2 4.9,17.2 "/>
<circle fill="none" stroke="#000000" stroke-width="0.5" stroke-miterlimit="10" cx="11.9" cy="2.8" r="1.7"/>
<circle fill="none" stroke="#000000" stroke-width="0.5" stroke-miterlimit="10" cx="11.9" cy="13.2" r="1.7"/>
<circle fill="none" stroke="#000000" stroke-width="0.5" stroke-miterlimit="10" cx="11.9" cy="23.6" r="1.7"/>
<circle fill="none" stroke="#000000" stroke-width="0.5" stroke-miterlimit="10" cx="2.6" cy="18.5" r="1.7"/>
<circle fill="none" stroke="#000000" stroke-width="0.5" stroke-miterlimit="10" cx="2.6" cy="8.1" r="1.7"/>
<circle fill="none" stroke="#000000" stroke-width="0.5" stroke-miterlimit="10" cx="21.3" cy="18.5" r="1.7"/>
<circle fill="none" stroke="#000000" stroke-width="0.5" stroke-miterlimit="10" cx="21.3" cy="8.1" r="1.7"/>
<line fill="none" stroke="#000000" stroke-width="0.5" stroke-miterlimit="10" stroke-dasharray="0.7908,0.7908" x1="21.4" y1="10.5" x2="21.4" y2="16.8"/>
<line fill="none" stroke="#000000" stroke-width="0.5" stroke-miterlimit="10" stroke-dasharray="0.7908,0.7908" x1="2.6" y1="10.5" x2="2.6" y2="16.8"/>
<line fill="none" stroke="#000000" stroke-width="0.5" stroke-miterlimit="10" stroke-dasharray="0.7908,0.7908" x1="12" y1="15.7" x2="12" y2="21.9"/>
<line fill="none" stroke="#000000" stroke-width="0.5" stroke-miterlimit="10" x1="4.2" y1="7.2" x2="10.4" y2="3.6"/>
<line fill="none" stroke="#000000" stroke-width="0.5" stroke-miterlimit="10" stroke-dasharray="0.7872,0.7873" x1="13.4" y1="22.7" x2="19.7" y2="19.3"/>
<line fill="none" stroke="#000000" stroke-width="0.5" stroke-miterlimit="10" stroke-dasharray="0.7873,0.7873" x1="4.2" y1="19.3" x2="10.4" y2="22.7"/>
<line fill="none" stroke="#000000" stroke-width="0.5" stroke-miterlimit="10" x1="13.5" y1="3.7" x2="19.8" y2="7.3"/>
<line fill="none" stroke="#000000" stroke-width="0.5" stroke-miterlimit="10" x1="4.1" y1="9" x2="10.3" y2="12.4"/>
<line fill="none" stroke="#000000" stroke-width="0.5" stroke-miterlimit="10" x1="13.4" y1="12.3" x2="19.7" y2="9"/>
<g>
	<path fill="#EBEBEB" d="M147.4,9.3c0.1,0,0.1,0.1,0.1,0.2v7.8c0,0.1,0,0.1,0,0.2s-0.1,0-0.2,0h-0.9c-0.1,0-0.1,0-0.2,0
		c0,0,0-0.1,0-0.1V9.5c0-0.1,0.1-0.2,0.2-0.2H147.4z"/>
	<path fill="#EBEBEB" d="M149,17.3v-5.5c0-0.1,0-0.2,0.1-0.2h0.9c0.1,0,0.1,0,0.1,0.1v0.6c0,0,0,0.1,0,0.1c0,0,0,0,0.1,0
		c0.4-0.3,0.7-0.5,1-0.7c0.3-0.1,0.6-0.2,1-0.2c0.5,0,1,0.2,1.3,0.5c0.3,0.3,0.5,0.7,0.5,1.2v4.1c0,0.1-0.1,0.2-0.2,0.2H153
		c-0.1,0-0.2-0.1-0.2-0.2v-3.9c0-0.3-0.1-0.6-0.3-0.8c-0.2-0.2-0.4-0.3-0.8-0.3c-0.3,0-0.5,0.1-0.8,0.2c-0.2,0.1-0.5,0.3-0.8,0.6v4
		c0,0.1,0,0.1,0,0.1s-0.1,0-0.2,0h-0.8C149.1,17.5,149,17.4,149,17.3z"/>
	<path fill="#EBEBEB" d="M157.1,12.5c-0.1,0-0.1,0-0.1,0.1v3.2c0,0.3,0.1,0.5,0.2,0.6c0.1,0.1,0.3,0.2,0.5,0.2h0.7
		c0.1,0,0.1,0,0.1,0.1v0.5c0,0.1-0.1,0.2-0.2,0.2c-0.2,0-0.6,0.1-1.1,0.1c-0.5,0-0.8-0.1-1.1-0.3c-0.2-0.2-0.4-0.6-0.4-1v-3.5
		c0-0.1,0-0.1-0.1-0.1h-0.8c-0.1,0-0.1,0-0.1-0.1v-0.6c0-0.1,0-0.1,0.1-0.1h0.9c0.1,0,0.1,0,0.1-0.1l0.1-1.7c0-0.1,0.1-0.2,0.1-0.2
		h0.8c0.1,0,0.1,0.1,0.1,0.2v1.7c0,0.1,0,0.1,0.1,0.1h1.3c0.1,0,0.1,0,0.1,0.1v0.6c0,0.1-0.1,0.1-0.2,0.1H157.1z"/>
	<path fill="#EBEBEB" d="M160.3,15.8c0.2,0.3,0.4,0.5,0.6,0.6c0.3,0.2,0.6,0.2,0.9,0.2c0.3,0,0.6-0.1,0.9-0.2
		c0.3-0.1,0.5-0.4,0.7-0.6c0,0,0,0,0.1,0c0,0,0.1,0,0.1,0l0.6,0.3c0,0,0.1,0.1,0.1,0.1c0,0,0,0.1,0,0.1c-0.3,0.5-0.7,0.8-1.1,1
		c-0.4,0.2-0.9,0.3-1.4,0.3c-0.5,0-1-0.1-1.5-0.4c-0.4-0.2-0.8-0.6-1-1.1s-0.4-1-0.4-1.5c0-0.6,0.1-1.2,0.4-1.6
		c0.2-0.5,0.6-0.8,1-1.1c0.4-0.3,0.9-0.4,1.4-0.4c0.5,0,1,0.1,1.4,0.4c0.4,0.2,0.7,0.6,1,1s0.3,1,0.3,1.6v0c0,0.1,0,0.1,0,0.1
		s-0.1,0-0.1,0h-4.1c-0.1,0-0.1,0.1-0.1,0.2C160.1,15.3,160.2,15.6,160.3,15.8z M163.1,14.1c0.1,0,0.1,0,0.1,0c0,0,0-0.1,0-0.1
		c0-0.3-0.1-0.6-0.2-0.8s-0.3-0.4-0.5-0.6c-0.2-0.2-0.5-0.2-0.8-0.2c-0.3,0-0.6,0.1-0.9,0.2s-0.4,0.4-0.6,0.6s-0.2,0.6-0.2,0.9
		L163.1,14.1z"/>
	<path fill="#EBEBEB" d="M171,11.7v0.5c0,0.1-0.1,0.2-0.2,0.2c-0.1,0-0.2,0-0.3,0c-0.1,0-0.2,0-0.3,0c-0.1,0-0.2,0.1-0.2,0.1
		s0,0.1,0,0.1c0,0,0,0.1,0.1,0.2c0,0.1,0.1,0.3,0.1,0.5c0,0.5-0.2,0.9-0.6,1.3c-0.4,0.3-1,0.5-1.8,0.5c-0.5,0-0.8,0-1.1,0.1
		c-0.2,0.1-0.3,0.2-0.3,0.3c0,0.1,0.1,0.2,0.2,0.2c0.1,0,0.4,0.1,0.7,0.1l1.5,0.1c0.7,0,1.2,0.2,1.5,0.5c0.3,0.3,0.5,0.6,0.5,1.1
		c0,0.6-0.3,1-0.8,1.3c-0.5,0.3-1.2,0.5-2.2,0.5c-1,0-1.7-0.1-2.2-0.4c-0.5-0.3-0.8-0.6-0.8-1.1c0-0.2,0.1-0.5,0.3-0.7
		c0.2-0.2,0.4-0.4,0.8-0.5c0.1,0,0.1-0.1,0-0.1c-0.4-0.2-0.5-0.4-0.5-0.7c0-0.2,0.1-0.3,0.2-0.5s0.4-0.3,0.7-0.4c0,0,0.1,0,0.1-0.1
		c0,0,0-0.1-0.1-0.1c-0.3-0.2-0.6-0.4-0.7-0.6c-0.2-0.2-0.2-0.5-0.2-0.9c0-0.6,0.2-1,0.7-1.3c0.5-0.3,1.1-0.5,1.9-0.5
		c0.7,0,1.3,0.2,1.7,0.5c0.1,0,0.1,0.1,0.1,0.1c0,0,0.1,0,0.1-0.1c0.1-0.1,0.3-0.3,0.5-0.4s0.4-0.2,0.6-0.2
		C171,11.5,171,11.6,171,11.7z M166.8,16.9c-0.1,0-0.3,0-0.4,0.1c-0.2,0.1-0.3,0.2-0.4,0.3c-0.1,0.1-0.2,0.3-0.2,0.5
		c0,0.7,0.7,1,2.1,1c0.6,0,1-0.1,1.3-0.2s0.5-0.4,0.5-0.7c0-0.5-0.3-0.7-1-0.8L166.8,16.9z M168.8,14.2c0.2-0.2,0.3-0.5,0.3-0.8
		c0-0.4-0.1-0.7-0.4-0.9c-0.2-0.2-0.6-0.3-1-0.3c-0.4,0-0.8,0.1-1,0.3c-0.2,0.2-0.4,0.5-0.4,0.9c0,0.4,0.1,0.6,0.4,0.8
		c0.2,0.2,0.6,0.3,1,0.3C168.2,14.5,168.5,14.4,168.8,14.2z"/>
	<path fill="#EBEBEB" d="M171.8,17.3v-5.5c0-0.1,0-0.2,0.1-0.2h0.8c0.1,0,0.1,0,0.1,0.1v0.7c0,0,0,0.1,0,0.1c0,0,0.1,0,0.1,0
		c0.3-0.3,0.6-0.6,0.8-0.7c0.3-0.2,0.6-0.3,0.9-0.3c0.3,0,0.4,0.1,0.4,0.2v0.9c0,0.1,0,0.1-0.1,0.1c-0.1,0-0.3-0.1-0.6-0.1
		c-0.2,0-0.4,0.1-0.6,0.2c-0.2,0.1-0.4,0.3-0.6,0.4c-0.2,0.2-0.2,0.4-0.2,0.6v3.5c0,0.1-0.1,0.2-0.2,0.2H172
		C171.9,17.5,171.8,17.4,171.8,17.3z"/>
	<path fill="#EBEBEB" d="M177.3,17.6c-0.6,0-1-0.1-1.3-0.4c-0.3-0.3-0.5-0.7-0.5-1.2c0-0.6,0.3-1.1,0.8-1.4c0.5-0.4,1.3-0.5,2.2-0.6
		l0.7-0.1c0.1,0,0.2-0.1,0.2-0.2v-0.3c0-0.4-0.1-0.6-0.3-0.9c-0.2-0.2-0.5-0.3-0.9-0.3c-0.6,0-1.1,0.3-1.4,0.8c0,0,0,0.1-0.1,0.1
		c0,0-0.1,0-0.1,0l-0.7-0.2c0,0-0.1,0-0.1-0.1c0,0,0-0.1,0-0.1c0.2-0.4,0.5-0.7,0.9-0.9c0.4-0.2,0.9-0.3,1.5-0.3
		c0.8,0,1.3,0.2,1.7,0.5c0.4,0.3,0.6,0.8,0.6,1.4v3.9c0,0.1,0,0.1,0,0.1c0,0-0.1,0-0.1,0h-0.7c-0.1,0-0.2-0.1-0.2-0.2l0-0.4
		c0-0.1,0-0.1-0.1-0.1c0,0-0.1,0-0.1,0.1C178.6,17.3,178,17.6,177.3,17.6z M179.2,14.6l-0.6,0c-0.6,0-1.1,0.2-1.4,0.4
		s-0.5,0.5-0.5,0.9c0,0.3,0.1,0.5,0.3,0.7s0.5,0.2,0.8,0.2c0.4,0,0.8-0.1,1.1-0.4c0.3-0.3,0.5-0.5,0.5-0.8v-0.9
		C179.3,14.6,179.3,14.5,179.2,14.6z"/>
	<path fill="#EBEBEB" d="M182.8,17.2c0,0.1,0,0.1,0,0.2s-0.1,0-0.2,0h-0.7c-0.1,0-0.1,0-0.2,0c0,0,0-0.1,0-0.1l0-7.8
		c0-0.1,0-0.2,0.1-0.2h0.9c0.1,0,0.1,0.1,0.1,0.2V17.2z"/>
</g>
<polygon opacity="0.99" fill="#C0F77F" points="124.9,9.2 131.9,5.2 138.8,9.2 138.8,17.2 131.9,21.2 124.9,17.2 "/>
<circle fill="none" stroke="#000000" stroke-width="0.5" stroke-miterlimit="10" cx="131.9" cy="2.8" r="1.7"/>
<circle fill="none" stroke="#000000" stroke-width="0.5" stroke-miterlimit="10" cx="131.9" cy="13.2" r="1.7"/>
<circle fill="none" stroke="#000000" stroke-width="0.5" stroke-miterlimit="10" cx="131.9" cy="23.6" r="1.7"/>
<circle fill="none" stroke="#000000" stroke-width="0.5" stroke-miterlimit="10" cx="122.6" cy="18.5" r="1.7"/>
<circle fill="none" stroke="#000000" stroke-width="0.5" stroke-miterlimit="10" cx="122.6" cy="8.1" r="1.7"/>
<circle fill="none" stroke="#000000" stroke-width="0.5" stroke-miterlimit="10" cx="141.3" cy="18.5" r="1.7"/>
<circle fill="none" stroke="#000000" stroke-width="0.5" stroke-miterlimit="10" cx="141.3" cy="8.1" r="1.7"/>
<line fill="none" stroke="#000000" stroke-width="0.5" stroke-miterlimit="10" stroke-dasharray="0.7908,0.7908" x1="141.4" y1="10.5" x2="141.4" y2="16.8"/>
<line fill="none" stroke="#000000" stroke-width="0.5" stroke-miterlimit="10" stroke-dasharray="0.7908,0.7908" x1="122.6" y1="10.5" x2="122.6" y2="16.8"/>
<line fill="none" stroke="#000000" stroke-width="0.5" stroke-miterlimit="10" stroke-dasharray="0.7908,0.7908" x1="132" y1="15.7" x2="132" y2="21.9"/>
<line fill="none" stroke="#000000" stroke-width="0.5" stroke-miterlimit="10" x1="124.2" y1="7.2" x2="130.4" y2="3.6"/>
<line fill="none" stroke="#000000" stroke-width="0.5" stroke-miterlimit="10" stroke-dasharray="0.7872,0.7873" x1="133.4" y1="22.7" x2="139.7" y2="19.3"/>
<line fill="none" stroke="#000000" stroke-width="0.5" stroke-miterlimit="10" stroke-dasharray="0.7873,0.7873" x1="124.2" y1="19.3" x2="130.4" y2="22.7"/>
<line fill="none" stroke="#000000" stroke-width="0.5" stroke-miterlimit="10" x1="133.5" y1="3.7" x2="139.8" y2="7.3"/>
<line fill="none" stroke="#000000" stroke-width="0.5" stroke-miterlimit="10" x1="124.1" y1="9" x2="130.3" y2="12.4"/>
<line fill="none" stroke="#000000" stroke-width="0.5" stroke-miterlimit="10" x1="133.4" y1="12.3" x2="139.7" y2="9"/>
<g>
</g>
<g>
</g>
<g>
</g>
<g>
</g>
<g>
</g>
<g>
</g>
<g>
</g>
<g>
</g>
<g>
</g>
<g>
</g>
<g>
</g>
<g>
</g>
<g>
</g>
<g>
</g>
<g>
</g>
</svg>
