<?xml version="1.0" encoding="utf-8"?>
<!-- Generator: Adobe Illustrator 17.1.0, SVG Export Plug-In . SVG Version: 6.00 Build 0)  -->
<!DOCTYPE svg PUBLIC "-//W3C//DTD SVG 1.1//EN" "http://www.w3.org/Graphics/SVG/1.1/DTD/svg11.dtd">
<svg version="1.1" id="Layer_1" xmlns="http://www.w3.org/2000/svg" xmlns:xlink="http://www.w3.org/1999/xlink" x="0px" y="0px"
	 width="240px" height="40px" viewBox="0 0 240 40" enable-background="new 0 0 240 40" xml:space="preserve">
<g>
	<path d="M25.7,17.3L25.7,17.3l2.8-7.9c0-0.1,0.1-0.1,0.1-0.1c0,0,0.1,0,0.2,0h1.1c0.1,0,0.2,0.1,0.3,0.2l2.8,7.8c0,0,0,0,0,0.1
		c0,0.1,0,0.1-0.1,0.1h-1c-0.1,0-0.2,0-0.2-0.1l-0.7-2c0,0,0-0.1,0-0.1c0,0,0,0-0.1,0h-3c-0.1,0-0.1,0-0.1,0.1l-0.7,2
		c0,0.1-0.1,0.1-0.2,0.1h-0.8C25.8,17.5,25.7,17.4,25.7,17.3z M30.4,14.2C30.5,14.2,30.5,14.2,30.4,14.2c0.1-0.1,0.1-0.1,0.1-0.2
		l-1.2-3.3c0-0.1,0-0.1-0.1-0.1c0,0-0.1,0-0.1,0.1L28,14.1l0,0.1c0,0.1,0,0.1,0.1,0.1H30.4z"/>
	<path d="M34.1,17.5c-0.1,0-0.1,0-0.2,0s0-0.1,0-0.2V9.5c0-0.1,0.1-0.2,0.2-0.2H35c0.1,0,0.1,0.1,0.1,0.2v2.7c0,0.1,0,0.1,0.1,0.1
		c0,0,0.1,0,0.1-0.1c0.5-0.4,1-0.7,1.7-0.7c0.8,0,1.3,0.3,1.7,0.8c0.4,0.5,0.6,1.3,0.6,2.2c0,0.9-0.2,1.7-0.7,2.2
		c-0.4,0.5-1.1,0.8-1.8,0.8c-0.4,0-0.8-0.1-1.1-0.3c-0.3-0.2-0.5-0.4-0.7-0.6c0,0-0.1-0.1-0.1-0.1c0,0,0,0,0,0.1l-0.1,0.5
		c0,0.1,0,0.1-0.1,0.1s-0.1,0-0.2,0H34.1z M35.1,15.5c0,0.2,0.1,0.5,0.2,0.7c0.1,0.2,0.3,0.4,0.5,0.5c0.2,0.1,0.5,0.2,0.7,0.2
		c0.5,0,0.9-0.2,1.1-0.6c0.3-0.4,0.4-0.9,0.4-1.7c0-0.7-0.1-1.3-0.4-1.6s-0.6-0.6-1.1-0.6c-0.3,0-0.6,0.1-0.8,0.2s-0.5,0.3-0.7,0.5
		V15.5z"/>
	<path d="M41.3,17.2c-0.4-0.3-0.8-0.6-1-1.1c-0.2-0.5-0.4-1-0.4-1.6c0-0.6,0.1-1.1,0.4-1.6c0.2-0.5,0.6-0.8,1-1.1s0.9-0.4,1.5-0.4
		c0.6,0,1.1,0.1,1.5,0.4c0.4,0.3,0.8,0.6,1,1.1s0.4,1,0.4,1.6c0,0.6-0.1,1.1-0.4,1.6c-0.2,0.5-0.6,0.8-1,1.1
		c-0.4,0.3-0.9,0.4-1.5,0.4C42.2,17.6,41.7,17.4,41.3,17.2z M44,16.2c0.3-0.4,0.4-0.9,0.4-1.6c0-0.7-0.1-1.2-0.4-1.6
		c-0.3-0.4-0.7-0.6-1.2-0.6s-0.9,0.2-1.2,0.6c-0.3,0.4-0.4,0.9-0.4,1.6c0,0.7,0.1,1.2,0.4,1.6s0.7,0.6,1.2,0.6
		C43.3,16.7,43.7,16.6,44,16.2z"/>
	<path d="M50.3,15.8v-4c0-0.1,0.1-0.2,0.2-0.2h0.8c0.1,0,0.2,0.1,0.2,0.2l0,5.5c0,0.1,0,0.2-0.1,0.2h-0.9c-0.1,0-0.1,0-0.1-0.1v-0.6
		c0-0.1,0-0.1-0.1,0c-0.4,0.3-0.7,0.6-1,0.7s-0.6,0.2-1,0.2c-0.5,0-0.9-0.2-1.2-0.5s-0.5-0.7-0.5-1.2v-4c0-0.1,0.1-0.2,0.2-0.2h0.8
		c0.1,0,0.2,0.1,0.2,0.2v3.8c0,0.3,0.1,0.6,0.3,0.8c0.2,0.2,0.4,0.3,0.7,0.3C49.2,16.7,49.7,16.4,50.3,15.8z"/>
	<path d="M54.5,12.5c-0.1,0-0.1,0-0.1,0.1v3.2c0,0.3,0.1,0.5,0.2,0.6c0.1,0.1,0.3,0.2,0.5,0.2h0.7c0.1,0,0.1,0,0.1,0.1v0.5
		c0,0.1-0.1,0.2-0.2,0.2c-0.2,0-0.6,0.1-1.1,0.1c-0.5,0-0.8-0.1-1.1-0.3c-0.2-0.2-0.4-0.6-0.4-1v-3.5c0-0.1,0-0.1-0.1-0.1h-0.8
		c-0.1,0-0.1,0-0.1-0.1v-0.6c0-0.1,0-0.1,0.1-0.1h0.9c0.1,0,0.1,0,0.1-0.1l0.1-1.7c0-0.1,0.1-0.2,0.1-0.2h0.8c0.1,0,0.1,0.1,0.1,0.2
		v1.7c0,0.1,0,0.1,0.1,0.1h1.3c0.1,0,0.1,0,0.1,0.1v0.6c0,0.1-0.1,0.1-0.2,0.1H54.5z"/>
</g>
<polygon opacity="0.99" fill="#F3FF99" points="4.9,9.2 11.9,5.2 18.8,9.2 18.8,17.2 11.9,21.2 4.9,17.2 "/>
<circle fill="none" stroke="#000000" stroke-width="0.5" stroke-miterlimit="10" cx="11.9" cy="2.8" r="1.7"/>
<circle fill="none" stroke="#000000" stroke-width="0.5" stroke-miterlimit="10" cx="11.9" cy="13.2" r="1.7"/>
<circle fill="none" stroke="#000000" stroke-width="0.5" stroke-miterlimit="10" cx="11.9" cy="23.6" r="1.7"/>
<circle fill="none" stroke="#000000" stroke-width="0.5" stroke-miterlimit="10" cx="2.6" cy="18.5" r="1.7"/>
<circle fill="none" stroke="#000000" stroke-width="0.5" stroke-miterlimit="10" cx="2.6" cy="8.1" r="1.7"/>
<circle fill="none" stroke="#000000" stroke-width="0.5" stroke-miterlimit="10" cx="21.3" cy="18.5" r="1.7"/>
<circle fill="none" stroke="#000000" stroke-width="0.5" stroke-miterlimit="10" cx="21.3" cy="8.1" r="1.7"/>
<line fill="none" stroke="#000000" stroke-width="0.5" stroke-miterlimit="10" stroke-dasharray="0.7908,0.7908" x1="21.4" y1="10.5" x2="21.4" y2="16.8"/>
<line fill="none" stroke="#000000" stroke-width="0.5" stroke-miterlimit="10" stroke-dasharray="0.7908,0.7908" x1="2.6" y1="10.5" x2="2.6" y2="16.8"/>
<line fill="none" stroke="#000000" stroke-width="0.5" stroke-miterlimit="10" stroke-dasharray="0.7908,0.7908" x1="12" y1="15.7" x2="12" y2="21.9"/>
<line fill="none" stroke="#000000" stroke-width="0.5" stroke-miterlimit="10" x1="4.2" y1="7.2" x2="10.4" y2="3.6"/>
<line fill="none" stroke="#000000" stroke-width="0.5" stroke-miterlimit="10" stroke-dasharray="0.7872,0.7873" x1="13.4" y1="22.7" x2="19.7" y2="19.3"/>
<line fill="none" stroke="#000000" stroke-width="0.5" stroke-miterlimit="10" stroke-dasharray="0.7873,0.7873" x1="4.2" y1="19.3" x2="10.4" y2="22.7"/>
<line fill="none" stroke="#000000" stroke-width="0.5" stroke-miterlimit="10" x1="13.5" y1="3.7" x2="19.8" y2="7.3"/>
<line fill="none" stroke="#000000" stroke-width="0.5" stroke-miterlimit="10" x1="4.1" y1="9" x2="10.3" y2="12.4"/>
<line fill="none" stroke="#000000" stroke-width="0.5" stroke-miterlimit="10" x1="13.4" y1="12.3" x2="19.7" y2="9"/>
<g>
	<path fill="#EBEBEB" d="M145.7,17.3L145.7,17.3l2.8-7.9c0-0.1,0.1-0.1,0.1-0.1c0,0,0.1,0,0.2,0h1.1c0.1,0,0.2,0.1,0.3,0.2l2.8,7.8
		c0,0,0,0,0,0.1c0,0.1,0,0.1-0.1,0.1h-1c-0.1,0-0.2,0-0.2-0.1l-0.7-2c0,0,0-0.1,0-0.1c0,0,0,0-0.1,0h-3c-0.1,0-0.1,0-0.1,0.1l-0.7,2
		c0,0.1-0.1,0.1-0.2,0.1h-0.8C145.8,17.5,145.7,17.4,145.7,17.3z M150.4,14.2C150.5,14.2,150.5,14.2,150.4,14.2
		c0.1-0.1,0.1-0.1,0.1-0.2l-1.2-3.3c0-0.1,0-0.1-0.1-0.1s-0.1,0-0.1,0.1l-1.2,3.3l0,0.1c0,0.1,0,0.1,0.1,0.1H150.4z"/>
	<path fill="#EBEBEB" d="M154.1,17.5c-0.1,0-0.1,0-0.2,0s0-0.1,0-0.2V9.5c0-0.1,0.1-0.2,0.2-0.2h0.9c0.1,0,0.1,0.1,0.1,0.2v2.7
		c0,0.1,0,0.1,0.1,0.1c0,0,0.1,0,0.1-0.1c0.5-0.4,1-0.7,1.7-0.7c0.8,0,1.3,0.3,1.7,0.8c0.4,0.5,0.6,1.3,0.6,2.2
		c0,0.9-0.2,1.7-0.7,2.2c-0.4,0.5-1.1,0.8-1.8,0.8c-0.4,0-0.8-0.1-1.1-0.3c-0.3-0.2-0.5-0.4-0.7-0.6c0,0-0.1-0.1-0.1-0.1s0,0,0,0.1
		l-0.1,0.5c0,0.1,0,0.1-0.1,0.1s-0.1,0-0.2,0H154.1z M155.1,15.5c0,0.2,0.1,0.5,0.2,0.7c0.1,0.2,0.3,0.4,0.5,0.5
		c0.2,0.1,0.5,0.2,0.7,0.2c0.5,0,0.9-0.2,1.1-0.6c0.3-0.4,0.4-0.9,0.4-1.7c0-0.7-0.1-1.3-0.4-1.6c-0.3-0.4-0.6-0.6-1.1-0.6
		c-0.3,0-0.6,0.1-0.8,0.2s-0.5,0.3-0.7,0.5V15.5z"/>
	<path fill="#EBEBEB" d="M161.3,17.2c-0.4-0.3-0.8-0.6-1-1.1c-0.2-0.5-0.4-1-0.4-1.6c0-0.6,0.1-1.1,0.4-1.6s0.6-0.8,1-1.1
		c0.4-0.3,0.9-0.4,1.5-0.4c0.6,0,1.1,0.1,1.5,0.4c0.4,0.3,0.8,0.6,1,1.1c0.2,0.5,0.4,1,0.4,1.6c0,0.6-0.1,1.1-0.4,1.6
		c-0.2,0.5-0.6,0.8-1,1.1c-0.4,0.3-0.9,0.4-1.5,0.4S161.7,17.4,161.3,17.2z M164,16.2c0.3-0.4,0.4-0.9,0.4-1.6
		c0-0.7-0.1-1.2-0.4-1.6c-0.3-0.4-0.7-0.6-1.2-0.6c-0.5,0-0.9,0.2-1.2,0.6c-0.3,0.4-0.4,0.9-0.4,1.6c0,0.7,0.1,1.2,0.4,1.6
		c0.3,0.4,0.7,0.6,1.2,0.6C163.3,16.7,163.7,16.6,164,16.2z"/>
	<path fill="#EBEBEB" d="M170.3,15.8v-4c0-0.1,0.1-0.2,0.2-0.2h0.8c0.1,0,0.2,0.1,0.2,0.2l0,5.5c0,0.1,0,0.2-0.1,0.2h-0.9
		c-0.1,0-0.1,0-0.1-0.1v-0.6c0-0.1,0-0.1-0.1,0c-0.4,0.3-0.7,0.6-1,0.7c-0.3,0.1-0.6,0.2-1,0.2c-0.5,0-0.9-0.2-1.2-0.5
		c-0.3-0.3-0.5-0.7-0.5-1.2v-4c0-0.1,0.1-0.2,0.2-0.2h0.8c0.1,0,0.2,0.1,0.2,0.2v3.8c0,0.3,0.1,0.6,0.3,0.8s0.4,0.3,0.7,0.3
		C169.2,16.7,169.7,16.4,170.3,15.8z"/>
	<path fill="#EBEBEB" d="M174.5,12.5c-0.1,0-0.1,0-0.1,0.1v3.2c0,0.3,0.1,0.5,0.2,0.6c0.1,0.1,0.3,0.2,0.5,0.2h0.7
		c0.1,0,0.1,0,0.1,0.1v0.5c0,0.1-0.1,0.2-0.2,0.2c-0.2,0-0.6,0.1-1.1,0.1c-0.5,0-0.8-0.1-1.1-0.3c-0.2-0.2-0.4-0.6-0.4-1v-3.5
		c0-0.1,0-0.1-0.1-0.1h-0.8c-0.1,0-0.1,0-0.1-0.1v-0.6c0-0.1,0-0.1,0.1-0.1h0.9c0.1,0,0.1,0,0.1-0.1l0.1-1.7c0-0.1,0.1-0.2,0.1-0.2
		h0.8c0.1,0,0.1,0.1,0.1,0.2v1.7c0,0.1,0,0.1,0.1,0.1h1.3c0.1,0,0.1,0,0.1,0.1v0.6c0,0.1-0.1,0.1-0.2,0.1H174.5z"/>
</g>
<polygon opacity="0.99" fill="#F3FF99" points="124.9,9.2 131.9,5.2 138.8,9.2 138.8,17.2 131.9,21.2 124.9,17.2 "/>
<circle fill="none" stroke="#000000" stroke-width="0.5" stroke-miterlimit="10" cx="131.9" cy="2.8" r="1.7"/>
<circle fill="none" stroke="#000000" stroke-width="0.5" stroke-miterlimit="10" cx="131.9" cy="13.2" r="1.7"/>
<circle fill="none" stroke="#000000" stroke-width="0.5" stroke-miterlimit="10" cx="131.9" cy="23.6" r="1.7"/>
<circle fill="none" stroke="#000000" stroke-width="0.5" stroke-miterlimit="10" cx="122.6" cy="18.5" r="1.7"/>
<circle fill="none" stroke="#000000" stroke-width="0.5" stroke-miterlimit="10" cx="122.6" cy="8.1" r="1.7"/>
<circle fill="none" stroke="#000000" stroke-width="0.5" stroke-miterlimit="10" cx="141.3" cy="18.5" r="1.7"/>
<circle fill="none" stroke="#000000" stroke-width="0.5" stroke-miterlimit="10" cx="141.3" cy="8.1" r="1.7"/>
<line fill="none" stroke="#000000" stroke-width="0.5" stroke-miterlimit="10" stroke-dasharray="0.7908,0.7908" x1="141.4" y1="10.5" x2="141.4" y2="16.8"/>
<line fill="none" stroke="#000000" stroke-width="0.5" stroke-miterlimit="10" stroke-dasharray="0.7908,0.7908" x1="122.6" y1="10.5" x2="122.6" y2="16.8"/>
<line fill="none" stroke="#000000" stroke-width="0.5" stroke-miterlimit="10" stroke-dasharray="0.7908,0.7908" x1="132" y1="15.7" x2="132" y2="21.9"/>
<line fill="none" stroke="#000000" stroke-width="0.5" stroke-miterlimit="10" x1="124.2" y1="7.2" x2="130.4" y2="3.6"/>
<line fill="none" stroke="#000000" stroke-width="0.5" stroke-miterlimit="10" stroke-dasharray="0.7872,0.7873" x1="133.4" y1="22.7" x2="139.7" y2="19.3"/>
<line fill="none" stroke="#000000" stroke-width="0.5" stroke-miterlimit="10" stroke-dasharray="0.7873,0.7873" x1="124.2" y1="19.3" x2="130.4" y2="22.7"/>
<line fill="none" stroke="#000000" stroke-width="0.5" stroke-miterlimit="10" x1="133.5" y1="3.7" x2="139.8" y2="7.3"/>
<line fill="none" stroke="#000000" stroke-width="0.5" stroke-miterlimit="10" x1="124.1" y1="9" x2="130.3" y2="12.4"/>
<line fill="none" stroke="#000000" stroke-width="0.5" stroke-miterlimit="10" x1="133.4" y1="12.3" x2="139.7" y2="9"/>
<g>
</g>
<g>
</g>
<g>
</g>
<g>
</g>
<g>
</g>
<g>
</g>
<g>
</g>
<g>
</g>
<g>
</g>
<g>
</g>
<g>
</g>
<g>
</g>
<g>
</g>
<g>
</g>
<g>
</g>
</svg>
