<?xml version="1.0" encoding="utf-8"?>
<!-- Generator: Adobe Illustrator 17.1.0, SVG Export Plug-In . SVG Version: 6.00 Build 0)  -->
<!DOCTYPE svg PUBLIC "-//W3C//DTD SVG 1.1//EN" "http://www.w3.org/Graphics/SVG/1.1/DTD/svg11.dtd">
<svg version="1.1" id="Layer_1" xmlns="http://www.w3.org/2000/svg" xmlns:xlink="http://www.w3.org/1999/xlink" x="0px" y="0px"
	 width="240px" height="40px" viewBox="0 0 240 40" enable-background="new 0 0 240 40" xml:space="preserve">
<path fill="none" stroke="#42BDAE" stroke-width="0.9894" stroke-miterlimit="10" d="M13.2,20"/>
<polyline fill="none" stroke="#37B34A" stroke-width="0.7452" stroke-miterlimit="10" points="1.1,13.1 4.7,13.1 7.2,17.5 4.7,21.8 
	1.1,21.8 "/>
<polyline fill="none" stroke="#37B34A" stroke-width="0.7452" stroke-miterlimit="10" points="12.5,7.8 9,7.8 6.4,12.2 9,16.6 
	12.5,16.6 "/>
<g>
	<g>
		<line fill="none" stroke="#37B34A" stroke-linecap="round" stroke-miterlimit="10" x1="1.5" y1="3.2" x2="1.5" y2="3.2"/>
		
			<line fill="none" stroke="#37B34A" stroke-linecap="round" stroke-miterlimit="10" stroke-dasharray="0,1.6852" x1="3.2" y1="3.2" x2="4" y2="3.2"/>
		<line fill="none" stroke="#37B34A" stroke-linecap="round" stroke-miterlimit="10" x1="4.8" y1="3.2" x2="4.8" y2="3.2"/>
		
			<line fill="none" stroke="#37B34A" stroke-linecap="round" stroke-miterlimit="10" stroke-dasharray="0,1.5936" x1="5.6" y1="4.6" x2="6.8" y2="6.6"/>
		<line fill="none" stroke="#37B34A" stroke-linecap="round" stroke-miterlimit="10" x1="7.2" y1="7.3" x2="7.2" y2="7.3"/>
		
			<line fill="none" stroke="#37B34A" stroke-linecap="round" stroke-miterlimit="10" stroke-dasharray="0,1.5936" x1="6.4" y1="8.7" x2="5.2" y2="10.8"/>
		<line fill="none" stroke="#37B34A" stroke-linecap="round" stroke-miterlimit="10" x1="4.8" y1="11.5" x2="4.8" y2="11.5"/>
		
			<line fill="none" stroke="#37B34A" stroke-linecap="round" stroke-miterlimit="10" stroke-dasharray="0,1.6852" x1="3.2" y1="11.5" x2="2.3" y2="11.5"/>
		<line fill="none" stroke="#37B34A" stroke-linecap="round" stroke-miterlimit="10" x1="1.5" y1="11.5" x2="1.5" y2="11.5"/>
	</g>
</g>
<path fill="none" stroke="#000000" stroke-width="0.5005" stroke-miterlimit="10" d="M2.8,12.8"/>
<g>
	<path fill="#777777" d="M15.1,3.5h1.1v7.8h-1.1V3.5z"/>
	<path fill="#777777" d="M17.6,6.1h1v0.8h0c0.1-0.3,0.3-0.5,0.6-0.7C19.6,6,20,5.9,20.4,5.9c0.2,0,0.5,0,0.7,0.1
		c0.2,0.1,0.4,0.2,0.6,0.4S22,6.8,22.1,7c0.1,0.3,0.2,0.6,0.2,0.9v3.4h-1V8.2c0-0.2,0-0.4-0.1-0.6c-0.1-0.2-0.2-0.3-0.3-0.4
		c-0.1-0.1-0.2-0.2-0.4-0.2c-0.1,0-0.3-0.1-0.4-0.1c-0.2,0-0.4,0-0.6,0.1C19.3,7,19.2,7.1,19,7.3c-0.1,0.1-0.2,0.3-0.3,0.5
		c-0.1,0.2-0.1,0.5-0.1,0.8v2.7h-1V6.1z"/>
	<path fill="#777777" d="M26.3,6.9h-1.4v2.4c0,0.1,0,0.3,0,0.4c0,0.1,0,0.3,0.1,0.4c0,0.1,0.1,0.2,0.2,0.3s0.2,0.1,0.4,0.1
		c0.1,0,0.2,0,0.4,0c0.1,0,0.2-0.1,0.3-0.1v0.9c-0.1,0.1-0.3,0.1-0.5,0.1c-0.2,0-0.3,0-0.4,0c-0.4,0-0.7-0.1-0.9-0.2
		s-0.4-0.2-0.5-0.4c-0.1-0.2-0.2-0.4-0.2-0.6c0-0.2,0-0.4,0-0.6V6.9h-1.1V6.1h1.1V4.6h1v1.5h1.4V6.9z"/>
	<path fill="#777777" d="M27.3,6.1h1v0.8h0c0.1-0.1,0.2-0.3,0.3-0.4c0.1-0.1,0.2-0.2,0.4-0.3s0.3-0.1,0.4-0.2s0.3-0.1,0.5-0.1
		c0.2,0,0.3,0,0.4,0.1l0,1.1c-0.1,0-0.2,0-0.2-0.1c-0.1,0-0.2,0-0.2,0c-0.5,0-0.9,0.1-1.1,0.4c-0.3,0.3-0.4,0.7-0.4,1.3v2.6h-1V6.1z
		"/>
	<path fill="#777777" d="M30.9,4.2c0-0.2,0.1-0.4,0.2-0.5c0.1-0.1,0.3-0.2,0.5-0.2c0.2,0,0.4,0.1,0.5,0.2c0.1,0.1,0.2,0.3,0.2,0.5
		s-0.1,0.4-0.2,0.5c-0.1,0.1-0.3,0.2-0.5,0.2c-0.2,0-0.4-0.1-0.5-0.2C31,4.6,30.9,4.4,30.9,4.2z M31.1,6.1h1v5.2h-1V6.1z"/>
	<path fill="#777777" d="M33.4,6.1h1v0.8h0c0.1-0.3,0.3-0.5,0.6-0.7c0.3-0.2,0.7-0.3,1.1-0.3c0.2,0,0.5,0,0.7,0.1
		c0.2,0.1,0.4,0.2,0.6,0.4s0.3,0.4,0.4,0.6c0.1,0.3,0.2,0.6,0.2,0.9v3.4h-1V8.2c0-0.2,0-0.4-0.1-0.6c-0.1-0.2-0.2-0.3-0.3-0.4
		c-0.1-0.1-0.2-0.2-0.4-0.2c-0.1,0-0.3-0.1-0.4-0.1c-0.2,0-0.4,0-0.6,0.1C35.1,7,35,7.1,34.8,7.3c-0.1,0.1-0.2,0.3-0.3,0.5
		c-0.1,0.2-0.1,0.5-0.1,0.8v2.7h-1V6.1z"/>
	<path fill="#777777" d="M42,7.4c-0.1-0.1-0.3-0.3-0.4-0.4S41.2,6.9,41,6.9c-0.2,0-0.4,0-0.6,0.1s-0.3,0.2-0.3,0.4
		c0,0.2,0,0.3,0.1,0.4s0.2,0.2,0.4,0.2c0.1,0.1,0.3,0.1,0.4,0.1s0.3,0.1,0.4,0.1c0.2,0.1,0.4,0.1,0.6,0.2s0.3,0.2,0.5,0.3
		s0.2,0.3,0.3,0.4C42.9,9.3,43,9.5,43,9.8c0,0.3-0.1,0.5-0.2,0.8c-0.1,0.2-0.3,0.4-0.5,0.5c-0.2,0.1-0.4,0.2-0.7,0.3
		s-0.5,0.1-0.8,0.1c-0.4,0-0.8-0.1-1.1-0.2c-0.3-0.1-0.6-0.4-0.9-0.7l0.7-0.6c0.2,0.2,0.3,0.3,0.5,0.4c0.2,0.1,0.4,0.2,0.7,0.2
		c0.1,0,0.3,0,0.4,0c0.1,0,0.2-0.1,0.3-0.1c0.1-0.1,0.2-0.1,0.2-0.2c0.1-0.1,0.1-0.2,0.1-0.3c0-0.1,0-0.3-0.1-0.4
		c-0.1-0.1-0.2-0.2-0.3-0.2c-0.1-0.1-0.3-0.1-0.4-0.1c-0.1,0-0.3-0.1-0.4-0.1C40.4,9,40.2,8.9,40,8.9c-0.2-0.1-0.4-0.2-0.5-0.3
		c-0.1-0.1-0.3-0.2-0.4-0.4c-0.1-0.2-0.1-0.4-0.1-0.6c0-0.3,0.1-0.5,0.2-0.7c0.1-0.2,0.3-0.4,0.5-0.5s0.4-0.2,0.6-0.3
		s0.5-0.1,0.7-0.1c0.4,0,0.7,0.1,1,0.2c0.3,0.1,0.6,0.4,0.8,0.7L42,7.4z"/>
	<path fill="#777777" d="M43.7,4.2c0-0.2,0.1-0.4,0.2-0.5c0.1-0.1,0.3-0.2,0.5-0.2c0.2,0,0.4,0.1,0.5,0.2c0.1,0.1,0.2,0.3,0.2,0.5
		S45.1,4.6,45,4.7c-0.1,0.1-0.3,0.2-0.5,0.2c-0.2,0-0.4-0.1-0.5-0.2C43.8,4.6,43.7,4.4,43.7,4.2z M44,6.1h1v5.2h-1V6.1z"/>
	<path fill="#777777" d="M50,7.5c-0.2-0.2-0.4-0.3-0.6-0.4c-0.2-0.1-0.4-0.1-0.7-0.1c-0.3,0-0.5,0-0.7,0.1c-0.2,0.1-0.4,0.2-0.5,0.4
		S47.2,7.8,47.2,8c-0.1,0.2-0.1,0.5-0.1,0.7c0,0.2,0,0.5,0.1,0.7c0.1,0.2,0.2,0.4,0.3,0.6c0.1,0.2,0.3,0.3,0.5,0.4
		c0.2,0.1,0.4,0.1,0.7,0.1c0.3,0,0.5,0,0.7-0.1c0.2-0.1,0.4-0.2,0.5-0.4l0.7,0.7c-0.3,0.3-0.6,0.5-0.9,0.6c-0.3,0.1-0.7,0.2-1.1,0.2
		c-0.4,0-0.8-0.1-1.1-0.2c-0.3-0.1-0.6-0.3-0.9-0.6c-0.2-0.2-0.4-0.5-0.6-0.9C46.1,9.5,46,9.1,46,8.7s0.1-0.8,0.2-1.1
		c0.1-0.3,0.3-0.6,0.6-0.9c0.2-0.2,0.5-0.4,0.9-0.6S48.3,6,48.7,6c0.4,0,0.7,0.1,1.1,0.2s0.7,0.3,0.9,0.6L50,7.5z"/>
	<path fill="#777777" d="M51.3,6.7c0.3-0.3,0.6-0.4,1-0.6s0.7-0.2,1.1-0.2c0.4,0,0.7,0,1,0.1c0.3,0.1,0.5,0.2,0.7,0.4
		c0.2,0.2,0.3,0.3,0.4,0.6c0.1,0.2,0.1,0.4,0.1,0.7v2.7c0,0.2,0,0.4,0,0.5c0,0.2,0,0.3,0,0.4h-0.9c0-0.3,0-0.5,0-0.8h0
		c-0.2,0.3-0.5,0.6-0.8,0.7c-0.3,0.1-0.6,0.2-1,0.2c-0.2,0-0.5,0-0.7-0.1c-0.2-0.1-0.4-0.2-0.6-0.3c-0.2-0.1-0.3-0.3-0.4-0.5
		c-0.1-0.2-0.1-0.4-0.1-0.7c0-0.3,0.1-0.6,0.2-0.8c0.1-0.2,0.4-0.4,0.6-0.6c0.3-0.1,0.6-0.2,0.9-0.3c0.3-0.1,0.7-0.1,1.1-0.1h0.7
		V7.8c0-0.1,0-0.3-0.1-0.4c-0.1-0.1-0.1-0.3-0.2-0.4c-0.1-0.1-0.2-0.2-0.4-0.3c-0.2-0.1-0.3-0.1-0.5-0.1c-0.2,0-0.4,0-0.5,0.1
		c-0.1,0-0.3,0.1-0.4,0.1s-0.2,0.1-0.3,0.2c-0.1,0.1-0.2,0.1-0.3,0.2L51.3,6.7z M54.1,8.8c-0.2,0-0.5,0-0.7,0
		c-0.2,0-0.5,0.1-0.7,0.1s-0.4,0.2-0.5,0.3C52.1,9.4,52,9.6,52,9.8c0,0.3,0.1,0.5,0.3,0.6c0.2,0.1,0.5,0.2,0.8,0.2
		c0.3,0,0.5,0,0.7-0.1c0.2-0.1,0.3-0.2,0.5-0.4c0.1-0.1,0.2-0.3,0.3-0.5c0.1-0.2,0.1-0.4,0.1-0.5V8.8H54.1z"/>
	<path fill="#777777" d="M56.8,3h1v8.3h-1V3z"/>
	<path fill="#777777" d="M59.2,3h1v8.3h-1V3z"/>
	<path fill="#777777" d="M60.8,6.1H62l1.5,4.1h0L65,6.1h1.1l-2.5,6.3c-0.1,0.2-0.2,0.4-0.3,0.6c-0.1,0.2-0.2,0.3-0.3,0.5
		s-0.3,0.2-0.5,0.3s-0.4,0.1-0.7,0.1c-0.1,0-0.3,0-0.4,0c-0.1,0-0.3-0.1-0.4-0.1l0.1-0.9c0.2,0.1,0.4,0.1,0.6,0.1
		c0.2,0,0.3,0,0.4-0.1c0.1,0,0.2-0.1,0.3-0.2s0.1-0.2,0.2-0.3s0.1-0.2,0.2-0.4l0.3-0.8L60.8,6.1z"/>
	<path fill="#777777" d="M69.5,3.5h2.7c0.5,0,1,0.1,1.4,0.2c0.4,0.1,0.8,0.3,1.1,0.5s0.6,0.4,0.8,0.7c0.2,0.3,0.4,0.5,0.5,0.8
		c0.1,0.3,0.2,0.6,0.3,0.9c0.1,0.3,0.1,0.5,0.1,0.8c0,0.5-0.1,1-0.3,1.4s-0.5,0.9-0.8,1.2c-0.4,0.4-0.8,0.7-1.3,0.9
		s-1.1,0.3-1.8,0.3h-2.5V3.5z M70.6,10.3h1.3c0.4,0,0.9-0.1,1.3-0.2s0.8-0.3,1.1-0.5c0.3-0.2,0.5-0.5,0.7-0.9
		c0.2-0.4,0.3-0.8,0.3-1.3c0-0.2,0-0.5-0.1-0.9c-0.1-0.3-0.2-0.7-0.5-1S74.1,5,73.7,4.8s-0.9-0.3-1.5-0.3h-1.6V10.3z"/>
	<path fill="#777777" d="M77.2,4.2c0-0.2,0.1-0.4,0.2-0.5c0.1-0.1,0.3-0.2,0.5-0.2c0.2,0,0.4,0.1,0.5,0.2c0.1,0.1,0.2,0.3,0.2,0.5
		s-0.1,0.4-0.2,0.5c-0.1,0.1-0.3,0.2-0.5,0.2c-0.2,0-0.4-0.1-0.5-0.2C77.2,4.6,77.2,4.4,77.2,4.2z M77.4,6.1h1v5.2h-1V6.1z"/>
	<path fill="#777777" d="M82.5,7.4C82.3,7.2,82.2,7.1,82,7s-0.4-0.1-0.6-0.1c-0.2,0-0.4,0-0.6,0.1s-0.3,0.2-0.3,0.4
		c0,0.2,0,0.3,0.1,0.4S80.9,8,81,8.1c0.1,0.1,0.3,0.1,0.4,0.1s0.3,0.1,0.4,0.1c0.2,0.1,0.4,0.1,0.6,0.2c0.2,0.1,0.3,0.2,0.5,0.3
		c0.1,0.1,0.2,0.3,0.3,0.4s0.1,0.4,0.1,0.6c0,0.3-0.1,0.5-0.2,0.8s-0.3,0.4-0.5,0.5c-0.2,0.1-0.4,0.2-0.7,0.3s-0.5,0.1-0.8,0.1
		c-0.4,0-0.8-0.1-1.1-0.2c-0.3-0.1-0.6-0.4-0.9-0.7L80,9.9c0.2,0.2,0.3,0.3,0.5,0.4c0.2,0.1,0.4,0.2,0.7,0.2c0.1,0,0.3,0,0.4,0
		c0.1,0,0.2-0.1,0.3-0.1c0.1-0.1,0.2-0.1,0.2-0.2c0.1-0.1,0.1-0.2,0.1-0.3c0-0.1,0-0.3-0.1-0.4c-0.1-0.1-0.2-0.2-0.3-0.2
		c-0.1-0.1-0.3-0.1-0.4-0.1c-0.1,0-0.3-0.1-0.4-0.1c-0.2-0.1-0.4-0.1-0.6-0.2c-0.2-0.1-0.4-0.2-0.5-0.3c-0.1-0.1-0.3-0.2-0.4-0.4
		c-0.1-0.2-0.1-0.4-0.1-0.6c0-0.3,0.1-0.5,0.2-0.7c0.1-0.2,0.3-0.4,0.5-0.5s0.4-0.2,0.6-0.3s0.5-0.1,0.7-0.1c0.4,0,0.7,0.1,1,0.2
		c0.3,0.1,0.6,0.4,0.8,0.7L82.5,7.4z"/>
	<path fill="#777777" d="M84,8.7c0-0.4,0.1-0.7,0.2-1.1c0.1-0.3,0.3-0.6,0.6-0.9s0.5-0.4,0.9-0.6c0.3-0.1,0.7-0.2,1.1-0.2
		s0.8,0.1,1.1,0.2c0.3,0.1,0.6,0.3,0.9,0.6C89,7,89.2,7.3,89.4,7.6c0.1,0.3,0.2,0.7,0.2,1.1c0,0.4-0.1,0.7-0.2,1.1
		c-0.1,0.3-0.3,0.6-0.6,0.9c-0.2,0.2-0.5,0.4-0.9,0.6c-0.3,0.1-0.7,0.2-1.1,0.2s-0.8-0.1-1.1-0.2c-0.3-0.1-0.6-0.3-0.9-0.6
		c-0.2-0.2-0.4-0.5-0.6-0.9C84.1,9.4,84,9.1,84,8.7z M85.1,8.7c0,0.3,0,0.5,0.1,0.7c0.1,0.2,0.2,0.4,0.3,0.6
		c0.1,0.2,0.3,0.3,0.5,0.4s0.5,0.1,0.7,0.1c0.3,0,0.5,0,0.7-0.1c0.2-0.1,0.4-0.2,0.5-0.4c0.1-0.2,0.3-0.3,0.3-0.6
		c0.1-0.2,0.1-0.5,0.1-0.7c0-0.3,0-0.5-0.1-0.7c-0.1-0.2-0.2-0.4-0.3-0.6c-0.1-0.2-0.3-0.3-0.5-0.4c-0.2-0.1-0.5-0.1-0.7-0.1
		c-0.3,0-0.5,0-0.7,0.1s-0.4,0.2-0.5,0.4c-0.1,0.2-0.3,0.3-0.3,0.6C85.1,8.2,85.1,8.4,85.1,8.7z"/>
	<path fill="#777777" d="M90.6,6.1h1v0.8h0c0.1-0.1,0.2-0.3,0.3-0.4c0.1-0.1,0.2-0.2,0.4-0.3s0.3-0.1,0.4-0.2s0.3-0.1,0.5-0.1
		c0.2,0,0.3,0,0.4,0.1l0,1.1c-0.1,0-0.2,0-0.2-0.1c-0.1,0-0.2,0-0.2,0c-0.5,0-0.9,0.1-1.1,0.4s-0.4,0.7-0.4,1.3v2.6h-1V6.1z"/>
	<path fill="#777777" d="M99.4,11.3h-1v-0.7h0c-0.2,0.3-0.5,0.5-0.8,0.6c-0.3,0.2-0.7,0.2-1,0.2c-0.4,0-0.8-0.1-1.1-0.2
		c-0.3-0.1-0.6-0.3-0.8-0.6c-0.2-0.2-0.4-0.5-0.5-0.9c-0.1-0.3-0.2-0.7-0.2-1.1c0-0.4,0.1-0.7,0.2-1.1c0.1-0.3,0.3-0.6,0.5-0.9
		c0.2-0.2,0.5-0.4,0.8-0.6c0.3-0.1,0.7-0.2,1.1-0.2c0.4,0,0.7,0.1,1.1,0.2c0.3,0.2,0.6,0.4,0.8,0.6h0V3h1V11.3z M96.7,10.5
		c0.3,0,0.5,0,0.7-0.1c0.2-0.1,0.4-0.2,0.5-0.4c0.1-0.2,0.3-0.3,0.3-0.6c0.1-0.2,0.1-0.5,0.1-0.7c0-0.3,0-0.5-0.1-0.7
		c-0.1-0.2-0.2-0.4-0.3-0.6c-0.1-0.2-0.3-0.3-0.5-0.4c-0.2-0.1-0.5-0.1-0.7-0.1c-0.3,0-0.5,0-0.7,0.1s-0.4,0.2-0.5,0.4
		c-0.1,0.2-0.3,0.3-0.3,0.6C95,8.2,95,8.4,95,8.7c0,0.3,0,0.5,0.1,0.7c0.1,0.2,0.2,0.4,0.3,0.6c0.1,0.2,0.3,0.3,0.5,0.4
		S96.4,10.5,96.7,10.5z"/>
	<path fill="#777777" d="M101.3,9c0,0.2,0,0.4,0.1,0.6c0.1,0.2,0.2,0.3,0.4,0.5c0.2,0.1,0.3,0.2,0.6,0.3s0.4,0.1,0.7,0.1
		c0.3,0,0.6-0.1,0.8-0.2c0.2-0.1,0.4-0.3,0.6-0.6l0.7,0.6c-0.5,0.7-1.3,1.1-2.3,1.1c-0.4,0-0.8-0.1-1.1-0.2
		c-0.3-0.1-0.6-0.3-0.8-0.6c-0.2-0.2-0.4-0.5-0.5-0.9s-0.2-0.7-0.2-1.1c0-0.4,0.1-0.7,0.2-1.1s0.3-0.6,0.6-0.9
		c0.2-0.2,0.5-0.4,0.9-0.6c0.3-0.1,0.7-0.2,1.1-0.2c0.5,0,0.9,0.1,1.2,0.2c0.3,0.2,0.6,0.4,0.8,0.6c0.2,0.3,0.4,0.6,0.4,0.9
		c0.1,0.3,0.1,0.7,0.1,1V9H101.3z M104.5,8.3c0-0.2,0-0.4-0.1-0.6c-0.1-0.2-0.2-0.3-0.3-0.5c-0.1-0.1-0.3-0.2-0.5-0.3
		c-0.2-0.1-0.4-0.1-0.7-0.1c-0.2,0-0.5,0-0.7,0.1c-0.2,0.1-0.4,0.2-0.5,0.4c-0.1,0.1-0.2,0.3-0.3,0.5s-0.1,0.4-0.1,0.5H104.5z"/>
	<path fill="#777777" d="M106.4,6.1h1v0.8h0c0.1-0.1,0.2-0.3,0.3-0.4c0.1-0.1,0.2-0.2,0.4-0.3s0.3-0.1,0.4-0.2s0.3-0.1,0.5-0.1
		c0.2,0,0.3,0,0.4,0.1l0,1.1c-0.1,0-0.2,0-0.2-0.1c-0.1,0-0.2,0-0.2,0c-0.5,0-0.9,0.1-1.1,0.4s-0.4,0.7-0.4,1.3v2.6h-1V6.1z"/>
	<path fill="#777777" d="M15.1,14h2.7c0.5,0,0.9,0.1,1.2,0.2c0.3,0.1,0.6,0.3,0.8,0.5s0.3,0.4,0.4,0.7c0.1,0.3,0.1,0.5,0.1,0.8
		c0,0.2,0,0.5-0.1,0.8s-0.2,0.5-0.4,0.7s-0.4,0.4-0.8,0.5c-0.3,0.1-0.7,0.2-1.2,0.2h-1.7v3.4h-1.1V14z M16.2,17.4h1.4
		c0.2,0,0.4,0,0.6,0c0.2,0,0.4-0.1,0.5-0.2s0.3-0.2,0.4-0.4c0.1-0.2,0.1-0.4,0.1-0.6c0-0.3,0-0.5-0.1-0.6c-0.1-0.2-0.2-0.3-0.4-0.4
		S18.4,15,18.2,15c-0.2,0-0.4,0-0.6,0h-1.4V17.4z"/>
	<path fill="#777777" d="M20.7,16.6h1v0.8h0c0.1-0.1,0.2-0.3,0.3-0.4c0.1-0.1,0.2-0.2,0.4-0.3s0.3-0.1,0.4-0.2s0.3-0.1,0.5-0.1
		c0.2,0,0.3,0,0.4,0.1l0,1.1c-0.1,0-0.2,0-0.2-0.1c-0.1,0-0.2,0-0.2,0c-0.5,0-0.9,0.1-1.1,0.4c-0.3,0.3-0.4,0.7-0.4,1.3v2.6h-1V16.6
		z"/>
	<path fill="#777777" d="M23.8,19.2c0-0.4,0.1-0.7,0.2-1.1s0.3-0.6,0.6-0.9c0.2-0.2,0.5-0.4,0.9-0.6c0.3-0.1,0.7-0.2,1.1-0.2
		s0.8,0.1,1.1,0.2c0.3,0.1,0.6,0.3,0.9,0.6c0.2,0.2,0.4,0.5,0.6,0.9c0.1,0.3,0.2,0.7,0.2,1.1c0,0.4-0.1,0.7-0.2,1.1
		c-0.1,0.3-0.3,0.6-0.6,0.9c-0.2,0.2-0.5,0.4-0.9,0.6c-0.3,0.1-0.7,0.2-1.1,0.2s-0.8-0.1-1.1-0.2c-0.3-0.1-0.6-0.3-0.9-0.6
		c-0.2-0.2-0.4-0.5-0.6-0.9C23.9,19.9,23.8,19.6,23.8,19.2z M24.9,19.2c0,0.3,0,0.5,0.1,0.7c0.1,0.2,0.2,0.4,0.3,0.6
		c0.1,0.2,0.3,0.3,0.5,0.4c0.2,0.1,0.5,0.1,0.7,0.1c0.3,0,0.5,0,0.7-0.1s0.4-0.2,0.5-0.4c0.1-0.2,0.3-0.3,0.3-0.6
		c0.1-0.2,0.1-0.5,0.1-0.7c0-0.3,0-0.5-0.1-0.7c-0.1-0.2-0.2-0.4-0.3-0.6c-0.1-0.2-0.3-0.3-0.5-0.4s-0.5-0.1-0.7-0.1
		c-0.3,0-0.5,0-0.7,0.1c-0.2,0.1-0.4,0.2-0.5,0.4c-0.1,0.2-0.3,0.3-0.3,0.6C24.9,18.7,24.9,18.9,24.9,19.2z"/>
	<path fill="#777777" d="M32.8,17.4h-1.4v2.4c0,0.1,0,0.3,0,0.4c0,0.1,0,0.3,0.1,0.4c0,0.1,0.1,0.2,0.2,0.3S32,21,32.2,21
		c0.1,0,0.2,0,0.4,0c0.1,0,0.2-0.1,0.3-0.1v0.9c-0.1,0.1-0.3,0.1-0.5,0.1c-0.2,0-0.3,0-0.4,0c-0.4,0-0.7-0.1-0.9-0.2
		s-0.4-0.2-0.5-0.4c-0.1-0.2-0.2-0.4-0.2-0.6c0-0.2,0-0.4,0-0.6v-2.7h-1.1v-0.9h1.1v-1.5h1v1.5h1.4V17.4z"/>
	<path fill="#777777" d="M34.2,19.5c0,0.2,0,0.4,0.1,0.6c0.1,0.2,0.2,0.3,0.4,0.5c0.2,0.1,0.3,0.2,0.6,0.3c0.2,0.1,0.4,0.1,0.7,0.1
		c0.3,0,0.6-0.1,0.8-0.2c0.2-0.1,0.4-0.3,0.6-0.6l0.7,0.6c-0.6,0.7-1.3,1.1-2.3,1.1c-0.4,0-0.8-0.1-1.1-0.2
		c-0.3-0.1-0.6-0.3-0.8-0.6c-0.2-0.2-0.4-0.5-0.5-0.9s-0.2-0.7-0.2-1.1c0-0.4,0.1-0.7,0.2-1.1s0.3-0.6,0.6-0.9
		c0.2-0.2,0.5-0.4,0.9-0.6c0.3-0.1,0.7-0.2,1.1-0.2c0.5,0,0.9,0.1,1.2,0.2c0.3,0.2,0.6,0.4,0.8,0.6c0.2,0.3,0.4,0.6,0.4,0.9
		c0.1,0.3,0.1,0.7,0.1,1v0.4H34.2z M37.3,18.8c0-0.2,0-0.4-0.1-0.6c-0.1-0.2-0.2-0.3-0.3-0.5s-0.3-0.2-0.5-0.3s-0.4-0.1-0.7-0.1
		c-0.2,0-0.5,0-0.7,0.1c-0.2,0.1-0.4,0.2-0.5,0.4c-0.1,0.1-0.2,0.3-0.3,0.5c-0.1,0.2-0.1,0.4-0.1,0.5H37.3z"/>
	<path fill="#777777" d="M39.1,14.7c0-0.2,0.1-0.4,0.2-0.5c0.1-0.1,0.3-0.2,0.5-0.2c0.2,0,0.4,0.1,0.5,0.2c0.1,0.1,0.2,0.3,0.2,0.5
		s-0.1,0.4-0.2,0.5c-0.1,0.1-0.3,0.2-0.5,0.2c-0.2,0-0.4-0.1-0.5-0.2C39.2,15.1,39.1,14.9,39.1,14.7z M39.4,16.6h1v5.2h-1V16.6z"/>
	<path fill="#777777" d="M41.7,16.6h1v0.8h0c0.1-0.3,0.3-0.5,0.6-0.7c0.3-0.2,0.7-0.3,1.1-0.3c0.2,0,0.5,0,0.7,0.1
		c0.2,0.1,0.4,0.2,0.6,0.4s0.3,0.4,0.4,0.6c0.1,0.3,0.2,0.6,0.2,0.9v3.4h-1v-3.1c0-0.2,0-0.4-0.1-0.6c-0.1-0.2-0.2-0.3-0.3-0.4
		c-0.1-0.1-0.2-0.2-0.4-0.2c-0.1,0-0.3-0.1-0.4-0.1c-0.2,0-0.4,0-0.6,0.1c-0.2,0.1-0.3,0.2-0.5,0.3c-0.1,0.1-0.2,0.3-0.3,0.5
		c-0.1,0.2-0.1,0.5-0.1,0.8v2.7h-1V16.6z"/>
	<path fill="#777777" d="M50.3,17.9c-0.1-0.1-0.3-0.3-0.4-0.4s-0.4-0.1-0.6-0.1c-0.2,0-0.4,0-0.6,0.1s-0.3,0.2-0.3,0.4
		c0,0.2,0,0.3,0.1,0.4s0.2,0.2,0.4,0.2c0.1,0.1,0.3,0.1,0.4,0.1s0.3,0.1,0.4,0.1c0.2,0.1,0.4,0.1,0.6,0.2s0.3,0.2,0.5,0.3
		s0.2,0.3,0.3,0.4c0.1,0.2,0.1,0.4,0.1,0.6c0,0.3-0.1,0.5-0.2,0.8c-0.1,0.2-0.3,0.4-0.5,0.5c-0.2,0.1-0.4,0.2-0.7,0.3
		s-0.5,0.1-0.8,0.1c-0.4,0-0.8-0.1-1.1-0.2c-0.3-0.1-0.6-0.4-0.9-0.7l0.7-0.6c0.2,0.2,0.3,0.3,0.5,0.4c0.2,0.1,0.4,0.2,0.7,0.2
		c0.1,0,0.3,0,0.4,0c0.1,0,0.2-0.1,0.3-0.1c0.1-0.1,0.2-0.1,0.2-0.2c0.1-0.1,0.1-0.2,0.1-0.3c0-0.1,0-0.3-0.1-0.4
		c-0.1-0.1-0.2-0.2-0.3-0.2c-0.1-0.1-0.3-0.1-0.4-0.1c-0.1,0-0.3-0.1-0.4-0.1c-0.2-0.1-0.4-0.1-0.6-0.2c-0.2-0.1-0.4-0.2-0.5-0.3
		c-0.1-0.1-0.3-0.2-0.4-0.4c-0.1-0.2-0.1-0.4-0.1-0.6c0-0.3,0.1-0.5,0.2-0.7c0.1-0.2,0.3-0.4,0.5-0.5s0.4-0.2,0.6-0.3
		s0.5-0.1,0.7-0.1c0.4,0,0.7,0.1,1,0.2c0.3,0.1,0.6,0.4,0.8,0.7L50.3,17.9z"/>
</g>
<circle fill="#37B34A" cx="10.9" cy="12.1" r="1.1"/>
<path fill="none" stroke="#000000" stroke-width="0.5734" stroke-miterlimit="10" d="M2.3,14.2"/>
<path fill="none" stroke="#42BDAE" stroke-width="0.9894" stroke-miterlimit="10" d="M133.2,20"/>
<polyline fill="none" stroke="#CCCCCC" stroke-width="0.7452" stroke-miterlimit="10" points="121.1,13.1 124.7,13.1 127.2,17.5 
	124.7,21.8 121.1,21.8 "/>
<polyline fill="none" stroke="#CCCCCC" stroke-width="0.7452" stroke-miterlimit="10" points="132.5,7.8 128.9,7.8 126.4,12.2 
	128.9,16.6 132.5,16.6 "/>
<g>
	<g>
		<line fill="none" stroke="#CCCCCC" stroke-linecap="round" stroke-miterlimit="10" x1="121.5" y1="3.2" x2="121.5" y2="3.2"/>
		
			<line fill="none" stroke="#CCCCCC" stroke-linecap="round" stroke-miterlimit="10" stroke-dasharray="0,1.6852" x1="123.1" y1="3.2" x2="124" y2="3.2"/>
		<line fill="none" stroke="#CCCCCC" stroke-linecap="round" stroke-miterlimit="10" x1="124.8" y1="3.2" x2="124.8" y2="3.2"/>
		
			<line fill="none" stroke="#CCCCCC" stroke-linecap="round" stroke-miterlimit="10" stroke-dasharray="0,1.5936" x1="125.6" y1="4.6" x2="126.8" y2="6.6"/>
		<line fill="none" stroke="#CCCCCC" stroke-linecap="round" stroke-miterlimit="10" x1="127.2" y1="7.3" x2="127.2" y2="7.3"/>
		
			<line fill="none" stroke="#CCCCCC" stroke-linecap="round" stroke-miterlimit="10" stroke-dasharray="0,1.5936" x1="126.4" y1="8.7" x2="125.2" y2="10.8"/>
		<line fill="none" stroke="#CCCCCC" stroke-linecap="round" stroke-miterlimit="10" x1="124.8" y1="11.5" x2="124.8" y2="11.5"/>
		
			<line fill="none" stroke="#CCCCCC" stroke-linecap="round" stroke-miterlimit="10" stroke-dasharray="0,1.6852" x1="123.1" y1="11.5" x2="122.3" y2="11.5"/>
		<line fill="none" stroke="#CCCCCC" stroke-linecap="round" stroke-miterlimit="10" x1="121.5" y1="11.5" x2="121.5" y2="11.5"/>
	</g>
</g>
<path fill="none" stroke="#000000" stroke-width="0.5005" stroke-miterlimit="10" d="M122.8,12.8"/>
<g>
	<path fill="#CCCCCC" d="M135.1,3.5h1.1v7.8h-1.1V3.5z"/>
	<path fill="#CCCCCC" d="M137.6,6.1h1v0.8h0c0.1-0.3,0.3-0.5,0.6-0.7c0.3-0.2,0.7-0.3,1.1-0.3c0.2,0,0.5,0,0.7,0.1s0.4,0.2,0.6,0.4
		c0.2,0.2,0.3,0.4,0.4,0.6c0.1,0.3,0.2,0.6,0.2,0.9v3.4h-1V8.2c0-0.2,0-0.4-0.1-0.6c-0.1-0.2-0.2-0.3-0.3-0.4s-0.2-0.2-0.4-0.2
		c-0.1,0-0.3-0.1-0.4-0.1c-0.2,0-0.4,0-0.6,0.1c-0.2,0.1-0.3,0.2-0.5,0.3c-0.1,0.1-0.2,0.3-0.3,0.5s-0.1,0.5-0.1,0.8v2.7h-1V6.1z"/>
	<path fill="#CCCCCC" d="M146.3,6.9h-1.4v2.4c0,0.1,0,0.3,0,0.4c0,0.1,0,0.3,0.1,0.4c0,0.1,0.1,0.2,0.2,0.3c0.1,0.1,0.2,0.1,0.4,0.1
		c0.1,0,0.2,0,0.4,0c0.1,0,0.2-0.1,0.3-0.1v0.9c-0.1,0.1-0.3,0.1-0.5,0.1c-0.2,0-0.3,0-0.4,0c-0.4,0-0.7-0.1-0.9-0.2
		s-0.4-0.2-0.5-0.4c-0.1-0.2-0.2-0.4-0.2-0.6s0-0.4,0-0.6V6.9h-1.1V6.1h1.1V4.6h1v1.5h1.4V6.9z"/>
	<path fill="#CCCCCC" d="M147.3,6.1h1v0.8h0c0.1-0.1,0.2-0.3,0.3-0.4c0.1-0.1,0.2-0.2,0.4-0.3s0.3-0.1,0.4-0.2s0.3-0.1,0.5-0.1
		c0.2,0,0.3,0,0.4,0.1l0,1.1c-0.1,0-0.2,0-0.2-0.1s-0.2,0-0.2,0c-0.5,0-0.9,0.1-1.1,0.4c-0.3,0.3-0.4,0.7-0.4,1.3v2.6h-1V6.1z"/>
	<path fill="#CCCCCC" d="M150.9,4.2c0-0.2,0.1-0.4,0.2-0.5c0.1-0.1,0.3-0.2,0.5-0.2c0.2,0,0.4,0.1,0.5,0.2c0.1,0.1,0.2,0.3,0.2,0.5
		s-0.1,0.4-0.2,0.5c-0.1,0.1-0.3,0.2-0.5,0.2c-0.2,0-0.4-0.1-0.5-0.2C151,4.6,150.9,4.4,150.9,4.2z M151.1,6.1h1v5.2h-1V6.1z"/>
	<path fill="#CCCCCC" d="M153.4,6.1h1v0.8h0c0.1-0.3,0.3-0.5,0.6-0.7c0.3-0.2,0.7-0.3,1.1-0.3c0.2,0,0.5,0,0.7,0.1
		c0.2,0.1,0.4,0.2,0.6,0.4c0.2,0.2,0.3,0.4,0.4,0.6c0.1,0.3,0.2,0.6,0.2,0.9v3.4h-1V8.2c0-0.2,0-0.4-0.1-0.6
		c-0.1-0.2-0.2-0.3-0.3-0.4c-0.1-0.1-0.2-0.2-0.4-0.2s-0.3-0.1-0.4-0.1c-0.2,0-0.4,0-0.6,0.1c-0.2,0.1-0.3,0.2-0.5,0.3
		c-0.1,0.1-0.2,0.3-0.3,0.5c-0.1,0.2-0.1,0.5-0.1,0.8v2.7h-1V6.1z"/>
	<path fill="#CCCCCC" d="M162,7.4c-0.1-0.1-0.3-0.3-0.4-0.4c-0.2-0.1-0.4-0.1-0.6-0.1c-0.2,0-0.4,0-0.6,0.1
		c-0.2,0.1-0.3,0.2-0.3,0.4c0,0.2,0,0.3,0.1,0.4c0.1,0.1,0.2,0.2,0.4,0.2c0.1,0.1,0.3,0.1,0.4,0.1c0.2,0,0.3,0.1,0.4,0.1
		c0.2,0.1,0.4,0.1,0.6,0.2c0.2,0.1,0.3,0.2,0.5,0.3s0.2,0.3,0.3,0.4s0.1,0.4,0.1,0.6c0,0.3-0.1,0.5-0.2,0.8
		c-0.1,0.2-0.3,0.4-0.5,0.5s-0.4,0.2-0.7,0.3s-0.5,0.1-0.8,0.1c-0.4,0-0.8-0.1-1.1-0.2c-0.3-0.1-0.6-0.4-0.9-0.7l0.7-0.6
		c0.2,0.2,0.3,0.3,0.5,0.4c0.2,0.1,0.4,0.2,0.7,0.2c0.1,0,0.3,0,0.4,0c0.1,0,0.2-0.1,0.3-0.1c0.1-0.1,0.2-0.1,0.2-0.2
		c0.1-0.1,0.1-0.2,0.1-0.3c0-0.1,0-0.3-0.1-0.4c-0.1-0.1-0.2-0.2-0.3-0.2c-0.1-0.1-0.3-0.1-0.4-0.1c-0.1,0-0.3-0.1-0.4-0.1
		c-0.2-0.1-0.4-0.1-0.6-0.2c-0.2-0.1-0.4-0.2-0.5-0.3c-0.1-0.1-0.3-0.2-0.4-0.4C159.1,8,159,7.8,159,7.6c0-0.3,0.1-0.5,0.2-0.7
		c0.1-0.2,0.3-0.4,0.5-0.5c0.2-0.1,0.4-0.2,0.6-0.3s0.5-0.1,0.7-0.1c0.4,0,0.7,0.1,1,0.2c0.3,0.1,0.6,0.4,0.8,0.7L162,7.4z"/>
	<path fill="#CCCCCC" d="M163.7,4.2c0-0.2,0.1-0.4,0.2-0.5c0.1-0.1,0.3-0.2,0.5-0.2s0.4,0.1,0.5,0.2c0.1,0.1,0.2,0.3,0.2,0.5
		s-0.1,0.4-0.2,0.5c-0.1,0.1-0.3,0.2-0.5,0.2s-0.4-0.1-0.5-0.2C163.8,4.6,163.7,4.4,163.7,4.2z M164,6.1h1v5.2h-1V6.1z"/>
	<path fill="#CCCCCC" d="M170,7.5c-0.2-0.2-0.4-0.3-0.6-0.4c-0.2-0.1-0.4-0.1-0.7-0.1c-0.3,0-0.5,0-0.7,0.1
		c-0.2,0.1-0.4,0.2-0.5,0.4s-0.2,0.4-0.3,0.6S167,8.5,167,8.7c0,0.2,0,0.5,0.1,0.7c0.1,0.2,0.2,0.4,0.3,0.6c0.1,0.2,0.3,0.3,0.5,0.4
		c0.2,0.1,0.4,0.1,0.7,0.1c0.3,0,0.5,0,0.7-0.1c0.2-0.1,0.4-0.2,0.5-0.4l0.7,0.7c-0.3,0.3-0.6,0.5-0.9,0.6c-0.3,0.1-0.7,0.2-1.1,0.2
		c-0.4,0-0.8-0.1-1.1-0.2c-0.3-0.1-0.6-0.3-0.9-0.6s-0.4-0.5-0.6-0.9c-0.1-0.3-0.2-0.7-0.2-1.1s0.1-0.8,0.2-1.1
		c0.1-0.3,0.3-0.6,0.6-0.9c0.2-0.2,0.5-0.4,0.9-0.6c0.3-0.1,0.7-0.2,1.1-0.2c0.4,0,0.7,0.1,1.1,0.2c0.3,0.1,0.7,0.3,0.9,0.6L170,7.5
		z"/>
	<path fill="#CCCCCC" d="M171.3,6.7c0.3-0.3,0.6-0.4,1-0.6c0.4-0.1,0.7-0.2,1.1-0.2c0.4,0,0.7,0,1,0.1c0.3,0.1,0.5,0.2,0.7,0.4
		c0.2,0.2,0.3,0.3,0.4,0.6s0.1,0.4,0.1,0.7v2.7c0,0.2,0,0.4,0,0.5c0,0.2,0,0.3,0,0.4h-0.9c0-0.3,0-0.5,0-0.8h0
		c-0.2,0.3-0.5,0.6-0.8,0.7c-0.3,0.1-0.6,0.2-1,0.2c-0.2,0-0.5,0-0.7-0.1c-0.2-0.1-0.4-0.2-0.6-0.3c-0.2-0.1-0.3-0.3-0.4-0.5
		c-0.1-0.2-0.1-0.4-0.1-0.7c0-0.3,0.1-0.6,0.2-0.8c0.2-0.2,0.4-0.4,0.6-0.6c0.3-0.1,0.6-0.2,0.9-0.3c0.3-0.1,0.7-0.1,1.1-0.1h0.7
		V7.8c0-0.1,0-0.3-0.1-0.4c-0.1-0.1-0.1-0.3-0.2-0.4c-0.1-0.1-0.2-0.2-0.4-0.3c-0.2-0.1-0.3-0.1-0.5-0.1c-0.2,0-0.4,0-0.5,0.1
		c-0.1,0-0.3,0.1-0.4,0.1s-0.2,0.1-0.3,0.2c-0.1,0.1-0.2,0.1-0.3,0.2L171.3,6.7z M174.1,8.8c-0.2,0-0.5,0-0.7,0
		c-0.2,0-0.5,0.1-0.7,0.1c-0.2,0.1-0.4,0.2-0.5,0.3S172,9.6,172,9.8c0,0.3,0.1,0.5,0.3,0.6c0.2,0.1,0.5,0.2,0.8,0.2
		c0.3,0,0.5,0,0.7-0.1c0.2-0.1,0.3-0.2,0.5-0.4c0.1-0.1,0.2-0.3,0.3-0.5c0.1-0.2,0.1-0.4,0.1-0.5V8.8H174.1z"/>
	<path fill="#CCCCCC" d="M176.8,3h1v8.3h-1V3z"/>
	<path fill="#CCCCCC" d="M179.1,3h1v8.3h-1V3z"/>
	<path fill="#CCCCCC" d="M180.8,6.1h1.1l1.5,4.1h0l1.5-4.1h1.1l-2.5,6.3c-0.1,0.2-0.2,0.4-0.3,0.6c-0.1,0.2-0.2,0.3-0.3,0.5
		c-0.1,0.1-0.3,0.2-0.5,0.3s-0.4,0.1-0.7,0.1c-0.1,0-0.3,0-0.4,0s-0.3-0.1-0.4-0.1l0.1-0.9c0.2,0.1,0.4,0.1,0.6,0.1
		c0.2,0,0.3,0,0.4-0.1c0.1,0,0.2-0.1,0.3-0.2c0.1-0.1,0.1-0.2,0.2-0.3s0.1-0.2,0.2-0.4l0.3-0.8L180.8,6.1z"/>
	<path fill="#CCCCCC" d="M189.5,3.5h2.7c0.5,0,1,0.1,1.4,0.2c0.4,0.1,0.8,0.3,1.1,0.5c0.3,0.2,0.6,0.4,0.8,0.7
		c0.2,0.3,0.4,0.5,0.5,0.8c0.1,0.3,0.2,0.6,0.3,0.9c0.1,0.3,0.1,0.5,0.1,0.8c0,0.5-0.1,1-0.3,1.4c-0.2,0.5-0.5,0.9-0.8,1.2
		c-0.4,0.4-0.8,0.7-1.3,0.9c-0.5,0.2-1.1,0.3-1.8,0.3h-2.5V3.5z M190.6,10.3h1.3c0.4,0,0.9-0.1,1.3-0.2c0.4-0.1,0.8-0.3,1.1-0.5
		s0.5-0.5,0.7-0.9c0.2-0.4,0.3-0.8,0.3-1.3c0-0.2,0-0.5-0.1-0.9c-0.1-0.3-0.2-0.7-0.5-1s-0.5-0.6-0.9-0.8c-0.4-0.2-0.9-0.3-1.5-0.3
		h-1.6V10.3z"/>
	<path fill="#CCCCCC" d="M197.2,4.2c0-0.2,0.1-0.4,0.2-0.5c0.1-0.1,0.3-0.2,0.5-0.2s0.4,0.1,0.5,0.2c0.1,0.1,0.2,0.3,0.2,0.5
		s-0.1,0.4-0.2,0.5c-0.1,0.1-0.3,0.2-0.5,0.2s-0.4-0.1-0.5-0.2C197.2,4.6,197.2,4.4,197.2,4.2z M197.4,6.1h1v5.2h-1V6.1z"/>
	<path fill="#CCCCCC" d="M202.5,7.4c-0.1-0.1-0.3-0.3-0.4-0.4c-0.2-0.1-0.4-0.1-0.6-0.1c-0.2,0-0.4,0-0.6,0.1
		c-0.2,0.1-0.3,0.2-0.3,0.4c0,0.2,0,0.3,0.1,0.4c0.1,0.1,0.2,0.2,0.4,0.2c0.1,0.1,0.3,0.1,0.4,0.1c0.2,0,0.3,0.1,0.4,0.1
		c0.2,0.1,0.4,0.1,0.6,0.2c0.2,0.1,0.3,0.2,0.5,0.3c0.1,0.1,0.2,0.3,0.3,0.4s0.1,0.4,0.1,0.6c0,0.3-0.1,0.5-0.2,0.8
		s-0.3,0.4-0.5,0.5s-0.4,0.2-0.7,0.3s-0.5,0.1-0.8,0.1c-0.4,0-0.8-0.1-1.1-0.2c-0.3-0.1-0.6-0.4-0.9-0.7l0.7-0.6
		c0.2,0.2,0.3,0.3,0.5,0.4c0.2,0.1,0.4,0.2,0.7,0.2c0.1,0,0.3,0,0.4,0c0.1,0,0.2-0.1,0.3-0.1c0.1-0.1,0.2-0.1,0.2-0.2
		c0.1-0.1,0.1-0.2,0.1-0.3c0-0.1,0-0.3-0.1-0.4c-0.1-0.1-0.2-0.2-0.3-0.2c-0.1-0.1-0.3-0.1-0.4-0.1c-0.1,0-0.3-0.1-0.4-0.1
		c-0.2-0.1-0.4-0.1-0.6-0.2c-0.2-0.1-0.4-0.2-0.5-0.3c-0.1-0.1-0.3-0.2-0.4-0.4c-0.1-0.2-0.1-0.4-0.1-0.6c0-0.3,0.1-0.5,0.2-0.7
		c0.1-0.2,0.3-0.4,0.5-0.5c0.2-0.1,0.4-0.2,0.6-0.3s0.5-0.1,0.7-0.1c0.4,0,0.7,0.1,1,0.2c0.3,0.1,0.6,0.4,0.8,0.7L202.5,7.4z"/>
	<path fill="#CCCCCC" d="M204,8.7c0-0.4,0.1-0.7,0.2-1.1c0.1-0.3,0.3-0.6,0.6-0.9s0.5-0.4,0.9-0.6c0.3-0.1,0.7-0.2,1.1-0.2
		s0.8,0.1,1.1,0.2c0.3,0.1,0.6,0.3,0.9,0.6c0.2,0.2,0.4,0.5,0.6,0.9c0.1,0.3,0.2,0.7,0.2,1.1c0,0.4-0.1,0.7-0.2,1.1
		c-0.1,0.3-0.3,0.6-0.6,0.9c-0.2,0.2-0.5,0.4-0.9,0.6c-0.3,0.1-0.7,0.2-1.1,0.2s-0.8-0.1-1.1-0.2c-0.3-0.1-0.6-0.3-0.9-0.6
		c-0.2-0.2-0.4-0.5-0.6-0.9C204.1,9.4,204,9.1,204,8.7z M205.1,8.7c0,0.3,0,0.5,0.1,0.7c0.1,0.2,0.2,0.4,0.3,0.6
		c0.1,0.2,0.3,0.3,0.5,0.4s0.5,0.1,0.7,0.1c0.3,0,0.5,0,0.7-0.1c0.2-0.1,0.4-0.2,0.5-0.4c0.1-0.2,0.3-0.3,0.3-0.6
		c0.1-0.2,0.1-0.5,0.1-0.7c0-0.3,0-0.5-0.1-0.7c-0.1-0.2-0.2-0.4-0.3-0.6c-0.1-0.2-0.3-0.3-0.5-0.4c-0.2-0.1-0.5-0.1-0.7-0.1
		c-0.3,0-0.5,0-0.7,0.1s-0.4,0.2-0.5,0.4c-0.1,0.2-0.3,0.3-0.3,0.6C205.1,8.2,205.1,8.4,205.1,8.7z"/>
	<path fill="#CCCCCC" d="M210.5,6.1h1v0.8h0c0.1-0.1,0.2-0.3,0.3-0.4c0.1-0.1,0.2-0.2,0.4-0.3s0.3-0.1,0.4-0.2s0.3-0.1,0.5-0.1
		c0.2,0,0.3,0,0.4,0.1l0,1.1c-0.1,0-0.2,0-0.2-0.1c-0.1,0-0.2,0-0.2,0c-0.5,0-0.9,0.1-1.1,0.4s-0.4,0.7-0.4,1.3v2.6h-1V6.1z"/>
	<path fill="#CCCCCC" d="M219.4,11.3h-1v-0.7h0c-0.2,0.3-0.5,0.5-0.8,0.6c-0.3,0.2-0.7,0.2-1,0.2c-0.4,0-0.8-0.1-1.1-0.2
		c-0.3-0.1-0.6-0.3-0.8-0.6c-0.2-0.2-0.4-0.5-0.5-0.9c-0.1-0.3-0.2-0.7-0.2-1.1c0-0.4,0.1-0.7,0.2-1.1c0.1-0.3,0.3-0.6,0.5-0.9
		c0.2-0.2,0.5-0.4,0.8-0.6c0.3-0.1,0.7-0.2,1.1-0.2c0.4,0,0.7,0.1,1.1,0.2c0.3,0.2,0.6,0.4,0.8,0.6h0V3h1V11.3z M216.7,10.5
		c0.3,0,0.5,0,0.7-0.1c0.2-0.1,0.4-0.2,0.5-0.4c0.1-0.2,0.3-0.3,0.3-0.6c0.1-0.2,0.1-0.5,0.1-0.7c0-0.3,0-0.5-0.1-0.7
		c-0.1-0.2-0.2-0.4-0.3-0.6c-0.1-0.2-0.3-0.3-0.5-0.4c-0.2-0.1-0.5-0.1-0.7-0.1c-0.3,0-0.5,0-0.7,0.1s-0.4,0.2-0.5,0.4
		c-0.1,0.2-0.3,0.3-0.3,0.6c-0.1,0.2-0.1,0.5-0.1,0.7c0,0.3,0,0.5,0.1,0.7c0.1,0.2,0.2,0.4,0.3,0.6c0.1,0.2,0.3,0.3,0.5,0.4
		S216.4,10.5,216.7,10.5z"/>
	<path fill="#CCCCCC" d="M221.3,9c0,0.2,0,0.4,0.1,0.6c0.1,0.2,0.2,0.3,0.4,0.5c0.2,0.1,0.3,0.2,0.6,0.3s0.4,0.1,0.7,0.1
		c0.3,0,0.6-0.1,0.8-0.2c0.2-0.1,0.4-0.3,0.6-0.6l0.7,0.6c-0.5,0.7-1.3,1.1-2.3,1.1c-0.4,0-0.8-0.1-1.1-0.2
		c-0.3-0.1-0.6-0.3-0.8-0.6c-0.2-0.2-0.4-0.5-0.5-0.9s-0.2-0.7-0.2-1.1c0-0.4,0.1-0.7,0.2-1.1s0.3-0.6,0.6-0.9
		c0.2-0.2,0.5-0.4,0.9-0.6c0.3-0.1,0.7-0.2,1.1-0.2c0.5,0,0.9,0.1,1.2,0.2c0.3,0.2,0.6,0.4,0.8,0.6c0.2,0.3,0.4,0.6,0.4,0.9
		c0.1,0.3,0.1,0.7,0.1,1V9H221.3z M224.5,8.3c0-0.2,0-0.4-0.1-0.6c-0.1-0.2-0.2-0.3-0.3-0.5c-0.1-0.1-0.3-0.2-0.5-0.3
		c-0.2-0.1-0.4-0.1-0.7-0.1c-0.2,0-0.5,0-0.7,0.1c-0.2,0.1-0.4,0.2-0.5,0.4c-0.1,0.1-0.2,0.3-0.3,0.5s-0.1,0.4-0.1,0.5H224.5z"/>
	<path fill="#CCCCCC" d="M226.4,6.1h1v0.8h0c0.1-0.1,0.2-0.3,0.3-0.4c0.1-0.1,0.2-0.2,0.4-0.3s0.3-0.1,0.4-0.2s0.3-0.1,0.5-0.1
		c0.2,0,0.3,0,0.4,0.1l0,1.1c-0.1,0-0.2,0-0.2-0.1c-0.1,0-0.2,0-0.2,0c-0.5,0-0.9,0.1-1.1,0.4s-0.4,0.7-0.4,1.3v2.6h-1V6.1z"/>
	<path fill="#CCCCCC" d="M135.1,14h2.7c0.5,0,0.9,0.1,1.2,0.2c0.3,0.1,0.6,0.3,0.8,0.5c0.2,0.2,0.3,0.4,0.4,0.7
		c0.1,0.3,0.1,0.5,0.1,0.8c0,0.2,0,0.5-0.1,0.8s-0.2,0.5-0.4,0.7c-0.2,0.2-0.4,0.4-0.8,0.5s-0.7,0.2-1.2,0.2h-1.7v3.4h-1.1V14z
		 M136.2,17.4h1.4c0.2,0,0.4,0,0.6,0c0.2,0,0.4-0.1,0.5-0.2c0.2-0.1,0.3-0.2,0.4-0.4s0.1-0.4,0.1-0.6c0-0.3,0-0.5-0.1-0.6
		s-0.2-0.3-0.4-0.4c-0.2-0.1-0.3-0.1-0.5-0.2c-0.2,0-0.4,0-0.6,0h-1.4V17.4z"/>
	<path fill="#CCCCCC" d="M140.7,16.6h1v0.8h0c0.1-0.1,0.2-0.3,0.3-0.4c0.1-0.1,0.2-0.2,0.4-0.3s0.3-0.1,0.4-0.2s0.3-0.1,0.5-0.1
		c0.2,0,0.3,0,0.4,0.1l0,1.1c-0.1,0-0.2,0-0.2-0.1s-0.2,0-0.2,0c-0.5,0-0.9,0.1-1.1,0.4c-0.3,0.3-0.4,0.7-0.4,1.3v2.6h-1V16.6z"/>
	<path fill="#CCCCCC" d="M143.8,19.2c0-0.4,0.1-0.7,0.2-1.1c0.1-0.3,0.3-0.6,0.6-0.9c0.2-0.2,0.5-0.4,0.9-0.6
		c0.3-0.1,0.7-0.2,1.1-0.2s0.8,0.1,1.1,0.2c0.3,0.1,0.6,0.3,0.9,0.6s0.4,0.5,0.6,0.9c0.1,0.3,0.2,0.7,0.2,1.1c0,0.4-0.1,0.7-0.2,1.1
		c-0.1,0.3-0.3,0.6-0.6,0.9c-0.2,0.2-0.5,0.4-0.9,0.6c-0.3,0.1-0.7,0.2-1.1,0.2s-0.8-0.1-1.1-0.2c-0.3-0.1-0.6-0.3-0.9-0.6
		c-0.2-0.2-0.4-0.5-0.6-0.9C143.9,19.9,143.8,19.6,143.8,19.2z M144.9,19.2c0,0.3,0,0.5,0.1,0.7c0.1,0.2,0.2,0.4,0.3,0.6
		c0.1,0.2,0.3,0.3,0.5,0.4c0.2,0.1,0.5,0.1,0.7,0.1c0.3,0,0.5,0,0.7-0.1s0.4-0.2,0.5-0.4c0.1-0.2,0.3-0.3,0.3-0.6
		c0.1-0.2,0.1-0.5,0.1-0.7c0-0.3,0-0.5-0.1-0.7c-0.1-0.2-0.2-0.4-0.3-0.6c-0.1-0.2-0.3-0.3-0.5-0.4s-0.5-0.1-0.7-0.1
		c-0.3,0-0.5,0-0.7,0.1c-0.2,0.1-0.4,0.2-0.5,0.4c-0.1,0.2-0.3,0.3-0.3,0.6C144.9,18.7,144.9,18.9,144.9,19.2z"/>
	<path fill="#CCCCCC" d="M152.8,17.4h-1.4v2.4c0,0.1,0,0.3,0,0.4c0,0.1,0,0.3,0.1,0.4c0,0.1,0.1,0.2,0.2,0.3
		c0.1,0.1,0.2,0.1,0.4,0.1c0.1,0,0.2,0,0.4,0c0.1,0,0.2-0.1,0.3-0.1v0.9c-0.1,0.1-0.3,0.1-0.5,0.1c-0.2,0-0.3,0-0.4,0
		c-0.4,0-0.7-0.1-0.9-0.2s-0.4-0.2-0.5-0.4c-0.1-0.2-0.2-0.4-0.2-0.6s0-0.4,0-0.6v-2.7h-1.1v-0.9h1.1v-1.5h1v1.5h1.4V17.4z"/>
	<path fill="#CCCCCC" d="M154.2,19.5c0,0.2,0,0.4,0.1,0.6c0.1,0.2,0.2,0.3,0.4,0.5c0.2,0.1,0.3,0.2,0.6,0.3c0.2,0.1,0.4,0.1,0.7,0.1
		c0.3,0,0.6-0.1,0.8-0.2c0.2-0.1,0.4-0.3,0.6-0.6l0.7,0.6c-0.5,0.7-1.3,1.1-2.3,1.1c-0.4,0-0.8-0.1-1.1-0.2
		c-0.3-0.1-0.6-0.3-0.8-0.6c-0.2-0.2-0.4-0.5-0.5-0.9c-0.1-0.3-0.2-0.7-0.2-1.1c0-0.4,0.1-0.7,0.2-1.1s0.3-0.6,0.6-0.9
		c0.2-0.2,0.5-0.4,0.9-0.6c0.3-0.1,0.7-0.2,1.1-0.2c0.5,0,0.9,0.1,1.2,0.2c0.3,0.2,0.6,0.4,0.8,0.6c0.2,0.3,0.4,0.6,0.4,0.9
		c0.1,0.3,0.1,0.7,0.1,1v0.4H154.2z M157.3,18.8c0-0.2,0-0.4-0.1-0.6c-0.1-0.2-0.2-0.3-0.3-0.5c-0.1-0.1-0.3-0.2-0.5-0.3
		c-0.2-0.1-0.4-0.1-0.7-0.1c-0.2,0-0.5,0-0.7,0.1c-0.2,0.1-0.4,0.2-0.5,0.4c-0.1,0.1-0.2,0.3-0.3,0.5s-0.1,0.4-0.1,0.5H157.3z"/>
	<path fill="#CCCCCC" d="M159.1,14.7c0-0.2,0.1-0.4,0.2-0.5c0.1-0.1,0.3-0.2,0.5-0.2s0.4,0.1,0.5,0.2c0.1,0.1,0.2,0.3,0.2,0.5
		s-0.1,0.4-0.2,0.5c-0.1,0.1-0.3,0.2-0.5,0.2s-0.4-0.1-0.5-0.2C159.2,15.1,159.1,14.9,159.1,14.7z M159.4,16.6h1v5.2h-1V16.6z"/>
	<path fill="#CCCCCC" d="M161.7,16.6h1v0.8h0c0.1-0.3,0.3-0.5,0.6-0.7c0.3-0.2,0.7-0.3,1.1-0.3c0.2,0,0.5,0,0.7,0.1s0.4,0.2,0.6,0.4
		c0.2,0.2,0.3,0.4,0.4,0.6c0.1,0.3,0.2,0.6,0.2,0.9v3.4h-1v-3.1c0-0.2,0-0.4-0.1-0.6c-0.1-0.2-0.2-0.3-0.3-0.4s-0.2-0.2-0.4-0.2
		c-0.1,0-0.3-0.1-0.4-0.1c-0.2,0-0.4,0-0.6,0.1c-0.2,0.1-0.3,0.2-0.5,0.3c-0.1,0.1-0.2,0.3-0.3,0.5s-0.1,0.5-0.1,0.8v2.7h-1V16.6z"
		/>
	<path fill="#CCCCCC" d="M170.3,17.9c-0.1-0.1-0.3-0.3-0.4-0.4c-0.2-0.1-0.4-0.1-0.6-0.1c-0.2,0-0.4,0-0.6,0.1
		c-0.2,0.1-0.3,0.2-0.3,0.4c0,0.2,0,0.3,0.1,0.4c0.1,0.1,0.2,0.2,0.4,0.2c0.1,0.1,0.3,0.1,0.4,0.1c0.2,0,0.3,0.1,0.4,0.1
		c0.2,0.1,0.4,0.1,0.6,0.2c0.2,0.1,0.3,0.2,0.5,0.3s0.2,0.3,0.3,0.4s0.1,0.4,0.1,0.6c0,0.3-0.1,0.5-0.2,0.8
		c-0.1,0.2-0.3,0.4-0.5,0.5s-0.4,0.2-0.7,0.3s-0.5,0.1-0.8,0.1c-0.4,0-0.8-0.1-1.1-0.2c-0.3-0.1-0.6-0.4-0.9-0.7l0.7-0.6
		c0.2,0.2,0.3,0.3,0.5,0.4c0.2,0.1,0.4,0.2,0.7,0.2c0.1,0,0.3,0,0.4,0c0.1,0,0.2-0.1,0.3-0.1c0.1-0.1,0.2-0.1,0.2-0.2
		c0.1-0.1,0.1-0.2,0.1-0.3c0-0.1,0-0.3-0.1-0.4c-0.1-0.1-0.2-0.2-0.3-0.2c-0.1-0.1-0.3-0.1-0.4-0.1c-0.1,0-0.3-0.1-0.4-0.1
		c-0.2-0.1-0.4-0.1-0.6-0.2c-0.2-0.1-0.4-0.2-0.5-0.3c-0.1-0.1-0.3-0.2-0.4-0.4c-0.1-0.2-0.1-0.4-0.1-0.6c0-0.3,0.1-0.5,0.2-0.7
		c0.1-0.2,0.3-0.4,0.5-0.5c0.2-0.1,0.4-0.2,0.6-0.3s0.5-0.1,0.7-0.1c0.4,0,0.7,0.1,1,0.2c0.3,0.1,0.6,0.4,0.8,0.7L170.3,17.9z"/>
</g>
<circle fill="#CCCCCC" cx="130.9" cy="12.1" r="1.1"/>
<path fill="none" stroke="#000000" stroke-width="0.5734" stroke-miterlimit="10" d="M122.3,14.2"/>
<path fill="none" stroke="#000000" stroke-width="0.5005" stroke-miterlimit="10" d="M122.3,12.8"/>
<path fill="none" stroke="#000000" stroke-width="0.5734" stroke-miterlimit="10" d="M121.8,14.2"/>
<g>
</g>
<g>
</g>
<g>
</g>
<g>
</g>
<g>
</g>
<g>
</g>
<g>
</g>
<g>
</g>
<g>
</g>
<g>
</g>
<g>
</g>
<g>
</g>
<g>
</g>
<g>
</g>
<g>
</g>
</svg>
