<?xml version="1.0" encoding="utf-8"?>
<!-- Generator: Adobe Illustrator 17.1.0, SVG Export Plug-In . SVG Version: 6.00 Build 0)  -->
<!DOCTYPE svg PUBLIC "-//W3C//DTD SVG 1.1//EN" "http://www.w3.org/Graphics/SVG/1.1/DTD/svg11.dtd">
<svg version="1.1" id="Layer_1" xmlns="http://www.w3.org/2000/svg" xmlns:xlink="http://www.w3.org/1999/xlink" x="0px" y="0px"
	 width="240px" height="40px" viewBox="0 0 240 40" enable-background="new 0 0 240 40" xml:space="preserve">
<path fill="none" stroke="#42BDAE" stroke-width="0.9894" stroke-miterlimit="10" d="M13.2,20"/>
<polyline fill="none" stroke="#FF0303" stroke-width="0.7452" stroke-miterlimit="10" points="1.1,13.1 4.7,13.1 7.2,17.5 4.7,21.8 
	1.1,21.8 "/>
<polyline fill="none" stroke="#FF0303" stroke-width="0.7452" stroke-miterlimit="10" points="12.5,7.8 9,7.8 6.4,12.2 9,16.6 
	12.5,16.6 "/>
<g>
	<g>
		<line fill="none" stroke="#FF0303" stroke-linecap="round" stroke-miterlimit="10" x1="1.5" y1="3.2" x2="1.5" y2="3.2"/>
		
			<line fill="none" stroke="#FF0303" stroke-linecap="round" stroke-miterlimit="10" stroke-dasharray="0,1.6852" x1="3.2" y1="3.2" x2="4" y2="3.2"/>
		<line fill="none" stroke="#FF0303" stroke-linecap="round" stroke-miterlimit="10" x1="4.8" y1="3.2" x2="4.8" y2="3.2"/>
		
			<line fill="none" stroke="#FF0303" stroke-linecap="round" stroke-miterlimit="10" stroke-dasharray="0,1.5936" x1="5.6" y1="4.6" x2="6.8" y2="6.6"/>
		<line fill="none" stroke="#FF0303" stroke-linecap="round" stroke-miterlimit="10" x1="7.2" y1="7.3" x2="7.2" y2="7.3"/>
		
			<line fill="none" stroke="#FF0303" stroke-linecap="round" stroke-miterlimit="10" stroke-dasharray="0,1.5936" x1="6.4" y1="8.7" x2="5.2" y2="10.8"/>
		<line fill="none" stroke="#FF0303" stroke-linecap="round" stroke-miterlimit="10" x1="4.8" y1="11.5" x2="4.8" y2="11.5"/>
		
			<line fill="none" stroke="#FF0303" stroke-linecap="round" stroke-miterlimit="10" stroke-dasharray="0,1.6852" x1="3.2" y1="11.5" x2="2.3" y2="11.5"/>
		<line fill="none" stroke="#FF0303" stroke-linecap="round" stroke-miterlimit="10" x1="1.5" y1="11.5" x2="1.5" y2="11.5"/>
	</g>
</g>
<path fill="none" stroke="#000000" stroke-width="0.5005" stroke-miterlimit="10" d="M2.8,12.8"/>
<g>
	<path fill="#777777" d="M15,8.3h1.6l2.5,5.9h0l2.5-5.9h1.6V16h-1.1V9.6h0L19.4,16h-0.7l-2.6-6.4h0V16H15V8.3z"/>
	<path fill="#777777" d="M25.3,13.8c0,0.2,0,0.4,0.1,0.6c0.1,0.2,0.2,0.3,0.4,0.5c0.2,0.1,0.3,0.2,0.6,0.3c0.2,0.1,0.4,0.1,0.7,0.1
		c0.3,0,0.6-0.1,0.8-0.2c0.2-0.1,0.4-0.3,0.6-0.6l0.7,0.6c-0.6,0.7-1.3,1.1-2.3,1.1c-0.4,0-0.8-0.1-1.1-0.2
		c-0.3-0.1-0.6-0.3-0.8-0.6c-0.2-0.2-0.4-0.5-0.5-0.9s-0.2-0.7-0.2-1.1c0-0.4,0.1-0.7,0.2-1.1s0.3-0.6,0.6-0.9
		c0.2-0.2,0.5-0.4,0.9-0.6c0.3-0.1,0.7-0.2,1.1-0.2c0.5,0,0.9,0.1,1.2,0.2c0.3,0.2,0.6,0.4,0.8,0.6c0.2,0.3,0.4,0.6,0.4,0.9
		c0.1,0.3,0.1,0.7,0.1,1v0.4H25.3z M28.4,13c0-0.2,0-0.4-0.1-0.6c-0.1-0.2-0.2-0.3-0.3-0.5s-0.3-0.2-0.5-0.3s-0.4-0.1-0.7-0.1
		c-0.2,0-0.5,0-0.7,0.1c-0.2,0.1-0.4,0.2-0.5,0.4c-0.1,0.1-0.2,0.3-0.3,0.5c-0.1,0.2-0.1,0.4-0.1,0.5H28.4z"/>
	<path fill="#777777" d="M33.2,11.7h-1.4v2.4c0,0.1,0,0.3,0,0.4c0,0.1,0,0.3,0.1,0.4c0,0.1,0.1,0.2,0.2,0.3s0.2,0.1,0.4,0.1
		c0.1,0,0.2,0,0.4,0c0.1,0,0.2-0.1,0.3-0.1V16c-0.1,0.1-0.3,0.1-0.5,0.1c-0.2,0-0.3,0-0.4,0c-0.4,0-0.7-0.1-0.9-0.2
		s-0.4-0.2-0.5-0.4c-0.1-0.2-0.2-0.4-0.2-0.6c0-0.2,0-0.4,0-0.6v-2.7h-1.1v-0.9h1.1V9.4h1v1.5h1.4V11.7z"/>
	<path fill="#777777" d="M34.2,11.5c0.3-0.3,0.6-0.4,1-0.6s0.7-0.2,1.1-0.2c0.4,0,0.7,0,1,0.1c0.3,0.1,0.5,0.2,0.7,0.4
		c0.2,0.2,0.3,0.3,0.4,0.6c0.1,0.2,0.1,0.4,0.1,0.7v2.7c0,0.2,0,0.4,0,0.5c0,0.2,0,0.3,0,0.4h-0.9c0-0.3,0-0.5,0-0.8h0
		c-0.2,0.3-0.5,0.6-0.8,0.7c-0.3,0.1-0.6,0.2-1,0.2c-0.2,0-0.5,0-0.7-0.1c-0.2-0.1-0.4-0.2-0.6-0.3c-0.2-0.1-0.3-0.3-0.4-0.5
		c-0.1-0.2-0.1-0.4-0.1-0.7c0-0.3,0.1-0.6,0.2-0.8c0.1-0.2,0.4-0.4,0.6-0.6c0.3-0.1,0.6-0.2,0.9-0.3c0.3-0.1,0.7-0.1,1.1-0.1h0.7
		v-0.2c0-0.1,0-0.3-0.1-0.4c-0.1-0.1-0.1-0.3-0.2-0.4c-0.1-0.1-0.2-0.2-0.4-0.3c-0.2-0.1-0.3-0.1-0.5-0.1c-0.2,0-0.4,0-0.5,0.1
		c-0.1,0-0.3,0.1-0.4,0.1s-0.2,0.1-0.3,0.2C35,12,34.9,12,34.8,12.1L34.2,11.5z M37,13.5c-0.2,0-0.5,0-0.7,0c-0.2,0-0.5,0.1-0.7,0.1
		s-0.4,0.2-0.5,0.3c-0.1,0.1-0.2,0.3-0.2,0.5c0,0.3,0.1,0.5,0.3,0.6c0.2,0.1,0.5,0.2,0.8,0.2c0.3,0,0.5,0,0.7-0.1
		c0.2-0.1,0.3-0.2,0.5-0.4c0.1-0.1,0.2-0.3,0.3-0.5c0.1-0.2,0.1-0.4,0.1-0.5v-0.3H37z"/>
	<path fill="#777777" d="M39.6,7.7h1v3.9h0c0.2-0.3,0.4-0.5,0.8-0.6c0.3-0.2,0.7-0.2,1.1-0.2c0.4,0,0.8,0.1,1.1,0.2
		c0.3,0.1,0.6,0.3,0.8,0.6c0.2,0.2,0.4,0.5,0.5,0.9c0.1,0.3,0.2,0.7,0.2,1.1c0,0.4-0.1,0.7-0.2,1.1c-0.1,0.3-0.3,0.6-0.5,0.9
		c-0.2,0.2-0.5,0.4-0.8,0.6c-0.3,0.1-0.7,0.2-1.1,0.2c-0.4,0-0.7-0.1-1-0.2c-0.3-0.2-0.6-0.4-0.8-0.6h0V16h-1V7.7z M42.3,15.3
		c0.3,0,0.5,0,0.7-0.1s0.4-0.2,0.5-0.4c0.1-0.2,0.3-0.3,0.3-0.6c0.1-0.2,0.1-0.5,0.1-0.7c0-0.3,0-0.5-0.1-0.7
		c-0.1-0.2-0.2-0.4-0.3-0.6c-0.1-0.2-0.3-0.3-0.5-0.4s-0.5-0.1-0.7-0.1c-0.3,0-0.5,0-0.7,0.1c-0.2,0.1-0.4,0.2-0.5,0.4
		c-0.1,0.2-0.3,0.3-0.3,0.6c-0.1,0.2-0.1,0.5-0.1,0.7c0,0.3,0,0.5,0.1,0.7c0.1,0.2,0.2,0.4,0.3,0.6c0.1,0.2,0.3,0.3,0.5,0.4
		C41.8,15.2,42.1,15.3,42.3,15.3z"/>
	<path fill="#777777" d="M45.8,13.4c0-0.4,0.1-0.7,0.2-1.1s0.3-0.6,0.6-0.9c0.2-0.2,0.5-0.4,0.9-0.6c0.3-0.1,0.7-0.2,1.1-0.2
		s0.8,0.1,1.1,0.2c0.3,0.1,0.6,0.3,0.9,0.6c0.2,0.2,0.4,0.5,0.6,0.9c0.1,0.3,0.2,0.7,0.2,1.1c0,0.4-0.1,0.7-0.2,1.1
		c-0.1,0.3-0.3,0.6-0.6,0.9c-0.2,0.2-0.5,0.4-0.9,0.6c-0.3,0.1-0.7,0.2-1.1,0.2s-0.8-0.1-1.1-0.2c-0.3-0.1-0.6-0.3-0.9-0.6
		c-0.2-0.2-0.4-0.5-0.6-0.9C45.9,14.2,45.8,13.8,45.8,13.4z M46.9,13.4c0,0.3,0,0.5,0.1,0.7c0.1,0.2,0.2,0.4,0.3,0.6
		c0.1,0.2,0.3,0.3,0.5,0.4c0.2,0.1,0.5,0.1,0.7,0.1c0.3,0,0.5,0,0.7-0.1s0.4-0.2,0.5-0.4c0.1-0.2,0.3-0.3,0.3-0.6
		c0.1-0.2,0.1-0.5,0.1-0.7c0-0.3,0-0.5-0.1-0.7c-0.1-0.2-0.2-0.4-0.3-0.6c-0.1-0.2-0.3-0.3-0.5-0.4s-0.5-0.1-0.7-0.1
		c-0.3,0-0.5,0-0.7,0.1c-0.2,0.1-0.4,0.2-0.5,0.4c-0.1,0.2-0.3,0.3-0.3,0.6C46.9,12.9,46.9,13.2,46.9,13.4z"/>
	<path fill="#777777" d="M52.4,7.7h1V16h-1V7.7z"/>
	<path fill="#777777" d="M54.4,13.4c0-0.4,0.1-0.7,0.2-1.1s0.3-0.6,0.6-0.9c0.2-0.2,0.5-0.4,0.9-0.6c0.3-0.1,0.7-0.2,1.1-0.2
		s0.8,0.1,1.1,0.2c0.3,0.1,0.6,0.3,0.9,0.6c0.2,0.2,0.4,0.5,0.6,0.9c0.1,0.3,0.2,0.7,0.2,1.1c0,0.4-0.1,0.7-0.2,1.1
		c-0.1,0.3-0.3,0.6-0.6,0.9c-0.2,0.2-0.5,0.4-0.9,0.6c-0.3,0.1-0.7,0.2-1.1,0.2s-0.8-0.1-1.1-0.2c-0.3-0.1-0.6-0.3-0.9-0.6
		c-0.2-0.2-0.4-0.5-0.6-0.9C54.5,14.2,54.4,13.8,54.4,13.4z M55.5,13.4c0,0.3,0,0.5,0.1,0.7c0.1,0.2,0.2,0.4,0.3,0.6
		c0.1,0.2,0.3,0.3,0.5,0.4c0.2,0.1,0.5,0.1,0.7,0.1c0.3,0,0.5,0,0.7-0.1s0.4-0.2,0.5-0.4c0.1-0.2,0.3-0.3,0.3-0.6
		c0.1-0.2,0.1-0.5,0.1-0.7c0-0.3,0-0.5-0.1-0.7c-0.1-0.2-0.2-0.4-0.3-0.6c-0.1-0.2-0.3-0.3-0.5-0.4s-0.5-0.1-0.7-0.1
		c-0.3,0-0.5,0-0.7,0.1c-0.2,0.1-0.4,0.2-0.5,0.4c-0.1,0.2-0.3,0.3-0.3,0.6C55.5,12.9,55.5,13.2,55.5,13.4z"/>
	<path fill="#777777" d="M60.9,10.8h0.9v0.8h0c0-0.1,0.1-0.2,0.2-0.3c0.1-0.1,0.2-0.2,0.4-0.3c0.1-0.1,0.3-0.2,0.5-0.3
		c0.2-0.1,0.4-0.1,0.6-0.1c0.4,0,0.7,0.1,1,0.2c0.3,0.2,0.5,0.4,0.6,0.7c0.2-0.3,0.4-0.6,0.7-0.7c0.3-0.2,0.6-0.2,0.9-0.2
		c0.4,0,0.7,0.1,1,0.2c0.3,0.1,0.5,0.3,0.6,0.5c0.1,0.2,0.2,0.5,0.3,0.7c0.1,0.3,0.1,0.6,0.1,0.9v3h-1v-2.9c0-0.2,0-0.4,0-0.6
		c0-0.2-0.1-0.3-0.2-0.5c-0.1-0.1-0.2-0.3-0.3-0.3c-0.1-0.1-0.3-0.1-0.6-0.1c-0.5,0-0.8,0.1-1,0.4c-0.2,0.3-0.3,0.7-0.3,1.1V16h-1
		v-2.7c0-0.2,0-0.5,0-0.7c0-0.2-0.1-0.4-0.2-0.5s-0.2-0.3-0.3-0.4c-0.1-0.1-0.3-0.1-0.6-0.1c-0.2,0-0.3,0-0.5,0.1s-0.3,0.2-0.4,0.3
		c-0.1,0.1-0.2,0.3-0.3,0.5c-0.1,0.2-0.1,0.5-0.1,0.8V16h-1V10.8z"/>
	<path fill="#777777" d="M69.9,9c0-0.2,0.1-0.4,0.2-0.5c0.1-0.1,0.3-0.2,0.5-0.2c0.2,0,0.4,0.1,0.5,0.2c0.1,0.1,0.2,0.3,0.2,0.5
		s-0.1,0.4-0.2,0.5c-0.1,0.1-0.3,0.2-0.5,0.2c-0.2,0-0.4-0.1-0.5-0.2C70,9.3,69.9,9.2,69.9,9z M70.1,10.8h1V16h-1V10.8z"/>
	<path fill="#777777" d="M76.1,12.2c-0.2-0.2-0.4-0.3-0.6-0.4c-0.2-0.1-0.4-0.1-0.7-0.1c-0.3,0-0.5,0-0.7,0.1
		c-0.2,0.1-0.4,0.2-0.5,0.4s-0.2,0.4-0.3,0.6c-0.1,0.2-0.1,0.5-0.1,0.7c0,0.2,0,0.5,0.1,0.7c0.1,0.2,0.2,0.4,0.3,0.6
		c0.1,0.2,0.3,0.3,0.5,0.4c0.2,0.1,0.4,0.1,0.7,0.1c0.3,0,0.5,0,0.7-0.1c0.2-0.1,0.4-0.2,0.5-0.4l0.7,0.7c-0.3,0.3-0.6,0.5-0.9,0.6
		c-0.3,0.1-0.7,0.2-1.1,0.2c-0.4,0-0.8-0.1-1.1-0.2c-0.3-0.1-0.6-0.3-0.9-0.6c-0.2-0.2-0.4-0.5-0.6-0.9c-0.1-0.3-0.2-0.7-0.2-1.1
		s0.1-0.8,0.2-1.1c0.1-0.3,0.3-0.6,0.6-0.9c0.2-0.2,0.5-0.4,0.9-0.6s0.7-0.2,1.1-0.2c0.4,0,0.7,0.1,1.1,0.2s0.7,0.3,0.9,0.6
		L76.1,12.2z"/>
	<path fill="#777777" d="M80.4,12.1c-0.1-0.1-0.3-0.3-0.4-0.4s-0.4-0.1-0.6-0.1c-0.2,0-0.4,0-0.6,0.1s-0.3,0.2-0.3,0.4
		c0,0.2,0,0.3,0.1,0.4s0.2,0.2,0.4,0.2c0.1,0.1,0.3,0.1,0.4,0.1s0.3,0.1,0.4,0.1c0.2,0.1,0.4,0.1,0.6,0.2s0.3,0.2,0.5,0.3
		s0.2,0.3,0.3,0.4c0.1,0.2,0.1,0.4,0.1,0.6c0,0.3-0.1,0.5-0.2,0.8c-0.1,0.2-0.3,0.4-0.5,0.5c-0.2,0.1-0.4,0.2-0.7,0.3
		s-0.5,0.1-0.8,0.1c-0.4,0-0.8-0.1-1.1-0.2c-0.3-0.1-0.6-0.4-0.9-0.7l0.7-0.6c0.2,0.2,0.3,0.3,0.5,0.4c0.2,0.1,0.4,0.2,0.7,0.2
		c0.1,0,0.3,0,0.4,0c0.1,0,0.2-0.1,0.3-0.1c0.1-0.1,0.2-0.1,0.2-0.2c0.1-0.1,0.1-0.2,0.1-0.3c0-0.1,0-0.3-0.1-0.4
		c-0.1-0.1-0.2-0.2-0.3-0.2c-0.1-0.1-0.3-0.1-0.4-0.1c-0.1,0-0.3-0.1-0.4-0.1c-0.2-0.1-0.4-0.1-0.6-0.2c-0.2-0.1-0.4-0.2-0.5-0.3
		c-0.1-0.1-0.3-0.2-0.4-0.4c-0.1-0.2-0.1-0.4-0.1-0.6c0-0.3,0.1-0.5,0.2-0.7c0.1-0.2,0.3-0.4,0.5-0.5s0.4-0.2,0.6-0.3
		s0.5-0.1,0.7-0.1c0.4,0,0.7,0.1,1,0.2c0.3,0.1,0.6,0.4,0.8,0.7L80.4,12.1z"/>
</g>
<circle fill="#FF0303" cx="10.9" cy="12.1" r="1.1"/>
<path fill="none" stroke="#000000" stroke-width="0.5734" stroke-miterlimit="10" d="M2.3,14.2"/>
<path fill="none" stroke="#42BDAE" stroke-width="0.9894" stroke-miterlimit="10" d="M133.2,20"/>
<polyline fill="none" stroke="#CCCCCC" stroke-width="0.7452" stroke-miterlimit="10" points="121.1,13.1 124.7,13.1 127.2,17.5 
	124.7,21.8 121.1,21.8 "/>
<polyline fill="none" stroke="#CCCCCC" stroke-width="0.7452" stroke-miterlimit="10" points="132.5,7.8 128.9,7.8 126.4,12.2 
	128.9,16.6 132.5,16.6 "/>
<g>
	<g>
		<line fill="none" stroke="#CCCCCC" stroke-linecap="round" stroke-miterlimit="10" x1="121.5" y1="3.2" x2="121.5" y2="3.2"/>
		
			<line fill="none" stroke="#CCCCCC" stroke-linecap="round" stroke-miterlimit="10" stroke-dasharray="0,1.6852" x1="123.1" y1="3.2" x2="124" y2="3.2"/>
		<line fill="none" stroke="#CCCCCC" stroke-linecap="round" stroke-miterlimit="10" x1="124.8" y1="3.2" x2="124.8" y2="3.2"/>
		
			<line fill="none" stroke="#CCCCCC" stroke-linecap="round" stroke-miterlimit="10" stroke-dasharray="0,1.5936" x1="125.6" y1="4.6" x2="126.8" y2="6.6"/>
		<line fill="none" stroke="#CCCCCC" stroke-linecap="round" stroke-miterlimit="10" x1="127.2" y1="7.3" x2="127.2" y2="7.3"/>
		
			<line fill="none" stroke="#CCCCCC" stroke-linecap="round" stroke-miterlimit="10" stroke-dasharray="0,1.5936" x1="126.4" y1="8.7" x2="125.2" y2="10.8"/>
		<line fill="none" stroke="#CCCCCC" stroke-linecap="round" stroke-miterlimit="10" x1="124.8" y1="11.5" x2="124.8" y2="11.5"/>
		
			<line fill="none" stroke="#CCCCCC" stroke-linecap="round" stroke-miterlimit="10" stroke-dasharray="0,1.6852" x1="123.1" y1="11.5" x2="122.3" y2="11.5"/>
		<line fill="none" stroke="#CCCCCC" stroke-linecap="round" stroke-miterlimit="10" x1="121.5" y1="11.5" x2="121.5" y2="11.5"/>
	</g>
</g>
<path fill="none" stroke="#000000" stroke-width="0.5005" stroke-miterlimit="10" d="M122.8,12.8"/>
<g>
	<path fill="#CCCCCC" d="M135,8.3h1.6l2.5,5.9h0l2.5-5.9h1.6V16h-1.1V9.6h0l-2.6,6.4h-0.7l-2.6-6.4h0V16H135V8.3z"/>
	<path fill="#CCCCCC" d="M145.3,13.8c0,0.2,0,0.4,0.1,0.6c0.1,0.2,0.2,0.3,0.4,0.5c0.2,0.1,0.3,0.2,0.6,0.3c0.2,0.1,0.4,0.1,0.7,0.1
		c0.3,0,0.6-0.1,0.8-0.2c0.2-0.1,0.4-0.3,0.6-0.6l0.7,0.6c-0.6,0.7-1.3,1.1-2.3,1.1c-0.4,0-0.8-0.1-1.1-0.2
		c-0.3-0.1-0.6-0.3-0.8-0.6c-0.2-0.2-0.4-0.5-0.5-0.9c-0.1-0.3-0.2-0.7-0.2-1.1c0-0.4,0.1-0.7,0.2-1.1s0.3-0.6,0.6-0.9
		c0.2-0.2,0.5-0.4,0.9-0.6c0.3-0.1,0.7-0.2,1.1-0.2c0.5,0,0.9,0.1,1.2,0.2c0.3,0.2,0.6,0.4,0.8,0.6c0.2,0.3,0.4,0.6,0.4,0.9
		c0.1,0.3,0.1,0.7,0.1,1v0.4H145.3z M148.4,13c0-0.2,0-0.4-0.1-0.6c-0.1-0.2-0.2-0.3-0.3-0.5c-0.1-0.1-0.3-0.2-0.5-0.3
		c-0.2-0.1-0.4-0.1-0.7-0.1c-0.2,0-0.5,0-0.7,0.1c-0.2,0.1-0.4,0.2-0.5,0.4c-0.1,0.1-0.2,0.3-0.3,0.5c-0.1,0.2-0.1,0.4-0.1,0.5
		H148.4z"/>
	<path fill="#CCCCCC" d="M153.2,11.7h-1.4v2.4c0,0.1,0,0.3,0,0.4c0,0.1,0,0.3,0.1,0.4c0,0.1,0.1,0.2,0.2,0.3
		c0.1,0.1,0.2,0.1,0.4,0.1c0.1,0,0.2,0,0.4,0c0.1,0,0.2-0.1,0.3-0.1V16c-0.1,0.1-0.3,0.1-0.5,0.1c-0.2,0-0.3,0-0.4,0
		c-0.4,0-0.7-0.1-0.9-0.2s-0.4-0.2-0.5-0.4c-0.1-0.2-0.2-0.4-0.2-0.6c0-0.2,0-0.4,0-0.6v-2.7h-1.1v-0.9h1.1V9.4h1v1.5h1.4V11.7z"/>
	<path fill="#CCCCCC" d="M154.2,11.5c0.3-0.3,0.6-0.4,1-0.6c0.4-0.1,0.7-0.2,1.1-0.2c0.4,0,0.7,0,1,0.1c0.3,0.1,0.5,0.2,0.7,0.4
		c0.2,0.2,0.3,0.3,0.4,0.6s0.1,0.4,0.1,0.7v2.7c0,0.2,0,0.4,0,0.5c0,0.2,0,0.3,0,0.4h-0.9c0-0.3,0-0.5,0-0.8h0
		c-0.2,0.3-0.5,0.6-0.8,0.7c-0.3,0.1-0.6,0.2-1,0.2c-0.2,0-0.5,0-0.7-0.1c-0.2-0.1-0.4-0.2-0.6-0.3c-0.2-0.1-0.3-0.3-0.4-0.5
		c-0.1-0.2-0.1-0.4-0.1-0.7c0-0.3,0.1-0.6,0.2-0.8c0.2-0.2,0.4-0.4,0.6-0.6c0.3-0.1,0.6-0.2,0.9-0.3c0.3-0.1,0.7-0.1,1.1-0.1h0.7
		v-0.2c0-0.1,0-0.3-0.1-0.4c-0.1-0.1-0.1-0.3-0.2-0.4c-0.1-0.1-0.2-0.2-0.4-0.3c-0.2-0.1-0.3-0.1-0.5-0.1c-0.2,0-0.4,0-0.5,0.1
		c-0.1,0-0.3,0.1-0.4,0.1s-0.2,0.1-0.3,0.2c-0.1,0.1-0.2,0.1-0.3,0.2L154.2,11.5z M157,13.5c-0.2,0-0.5,0-0.7,0
		c-0.2,0-0.5,0.1-0.7,0.1c-0.2,0.1-0.4,0.2-0.5,0.3s-0.2,0.3-0.2,0.5c0,0.3,0.1,0.5,0.3,0.6c0.2,0.1,0.5,0.2,0.8,0.2
		c0.3,0,0.5,0,0.7-0.1c0.2-0.1,0.3-0.2,0.5-0.4c0.1-0.1,0.2-0.3,0.3-0.5c0.1-0.2,0.1-0.4,0.1-0.5v-0.3H157z"/>
	<path fill="#CCCCCC" d="M159.6,7.7h1v3.9h0c0.2-0.3,0.4-0.5,0.8-0.6c0.3-0.2,0.7-0.2,1.1-0.2c0.4,0,0.8,0.1,1.1,0.2
		c0.3,0.1,0.6,0.3,0.8,0.6c0.2,0.2,0.4,0.5,0.5,0.9c0.1,0.3,0.2,0.7,0.2,1.1c0,0.4-0.1,0.7-0.2,1.1c-0.1,0.3-0.3,0.6-0.5,0.9
		c-0.2,0.2-0.5,0.4-0.8,0.6c-0.3,0.1-0.7,0.2-1.1,0.2c-0.4,0-0.7-0.1-1-0.2c-0.3-0.2-0.6-0.4-0.8-0.6h0V16h-1V7.7z M162.3,15.3
		c0.3,0,0.5,0,0.7-0.1s0.4-0.2,0.5-0.4c0.1-0.2,0.3-0.3,0.3-0.6c0.1-0.2,0.1-0.5,0.1-0.7c0-0.3,0-0.5-0.1-0.7
		c-0.1-0.2-0.2-0.4-0.3-0.6c-0.1-0.2-0.3-0.3-0.5-0.4s-0.5-0.1-0.7-0.1c-0.3,0-0.5,0-0.7,0.1c-0.2,0.1-0.4,0.2-0.5,0.4
		c-0.1,0.2-0.3,0.3-0.3,0.6c-0.1,0.2-0.1,0.5-0.1,0.7c0,0.3,0,0.5,0.1,0.7c0.1,0.2,0.2,0.4,0.3,0.6c0.1,0.2,0.3,0.3,0.5,0.4
		C161.8,15.2,162.1,15.3,162.3,15.3z"/>
	<path fill="#CCCCCC" d="M165.8,13.4c0-0.4,0.1-0.7,0.2-1.1c0.1-0.3,0.3-0.6,0.6-0.9c0.2-0.2,0.5-0.4,0.9-0.6
		c0.3-0.1,0.7-0.2,1.1-0.2s0.8,0.1,1.1,0.2c0.3,0.1,0.6,0.3,0.9,0.6s0.4,0.5,0.6,0.9c0.1,0.3,0.2,0.7,0.2,1.1c0,0.4-0.1,0.7-0.2,1.1
		c-0.1,0.3-0.3,0.6-0.6,0.9c-0.2,0.2-0.5,0.4-0.9,0.6c-0.3,0.1-0.7,0.2-1.1,0.2s-0.8-0.1-1.1-0.2c-0.3-0.1-0.6-0.3-0.9-0.6
		c-0.2-0.2-0.4-0.5-0.6-0.9C165.9,14.2,165.8,13.8,165.8,13.4z M166.9,13.4c0,0.3,0,0.5,0.1,0.7c0.1,0.2,0.2,0.4,0.3,0.6
		c0.1,0.2,0.3,0.3,0.5,0.4c0.2,0.1,0.5,0.1,0.7,0.1c0.3,0,0.5,0,0.7-0.1s0.4-0.2,0.5-0.4c0.1-0.2,0.3-0.3,0.3-0.6
		c0.1-0.2,0.1-0.5,0.1-0.7c0-0.3,0-0.5-0.1-0.7c-0.1-0.2-0.2-0.4-0.3-0.6c-0.1-0.2-0.3-0.3-0.5-0.4s-0.5-0.1-0.7-0.1
		c-0.3,0-0.5,0-0.7,0.1c-0.2,0.1-0.4,0.2-0.5,0.4c-0.1,0.2-0.3,0.3-0.3,0.6C166.9,12.9,166.9,13.2,166.9,13.4z"/>
	<path fill="#CCCCCC" d="M172.4,7.7h1V16h-1V7.7z"/>
	<path fill="#CCCCCC" d="M174.4,13.4c0-0.4,0.1-0.7,0.2-1.1c0.1-0.3,0.3-0.6,0.6-0.9c0.2-0.2,0.5-0.4,0.9-0.6
		c0.3-0.1,0.7-0.2,1.1-0.2s0.8,0.1,1.1,0.2c0.3,0.1,0.6,0.3,0.9,0.6s0.4,0.5,0.6,0.9c0.1,0.3,0.2,0.7,0.2,1.1c0,0.4-0.1,0.7-0.2,1.1
		c-0.1,0.3-0.3,0.6-0.6,0.9c-0.2,0.2-0.5,0.4-0.9,0.6c-0.3,0.1-0.7,0.2-1.1,0.2s-0.8-0.1-1.1-0.2c-0.3-0.1-0.6-0.3-0.9-0.6
		c-0.2-0.2-0.4-0.5-0.6-0.9C174.5,14.2,174.4,13.8,174.4,13.4z M175.5,13.4c0,0.3,0,0.5,0.1,0.7c0.1,0.2,0.2,0.4,0.3,0.6
		c0.1,0.2,0.3,0.3,0.5,0.4c0.2,0.1,0.5,0.1,0.7,0.1c0.3,0,0.5,0,0.7-0.1s0.4-0.2,0.5-0.4c0.1-0.2,0.3-0.3,0.3-0.6
		c0.1-0.2,0.1-0.5,0.1-0.7c0-0.3,0-0.5-0.1-0.7c-0.1-0.2-0.2-0.4-0.3-0.6c-0.1-0.2-0.3-0.3-0.5-0.4s-0.5-0.1-0.7-0.1
		c-0.3,0-0.5,0-0.7,0.1c-0.2,0.1-0.4,0.2-0.5,0.4c-0.1,0.2-0.3,0.3-0.3,0.6C175.5,12.9,175.5,13.2,175.5,13.4z"/>
	<path fill="#CCCCCC" d="M180.9,10.8h0.9v0.8h0c0-0.1,0.1-0.2,0.2-0.3c0.1-0.1,0.2-0.2,0.4-0.3c0.1-0.1,0.3-0.2,0.5-0.3
		c0.2-0.1,0.4-0.1,0.6-0.1c0.4,0,0.7,0.1,1,0.2c0.3,0.2,0.5,0.4,0.6,0.7c0.2-0.3,0.4-0.6,0.7-0.7c0.3-0.2,0.6-0.2,0.9-0.2
		c0.4,0,0.7,0.1,1,0.2c0.3,0.1,0.5,0.3,0.6,0.5c0.1,0.2,0.2,0.5,0.3,0.7c0.1,0.3,0.1,0.6,0.1,0.9v3h-1v-2.9c0-0.2,0-0.4,0-0.6
		c0-0.2-0.1-0.3-0.2-0.5c-0.1-0.1-0.2-0.3-0.3-0.3c-0.1-0.1-0.3-0.1-0.6-0.1c-0.5,0-0.8,0.1-1,0.4c-0.2,0.3-0.3,0.7-0.3,1.1V16h-1
		v-2.7c0-0.2,0-0.5,0-0.7c0-0.2-0.1-0.4-0.2-0.5s-0.2-0.3-0.3-0.4c-0.1-0.1-0.3-0.1-0.6-0.1c-0.2,0-0.3,0-0.5,0.1s-0.3,0.2-0.4,0.3
		c-0.1,0.1-0.2,0.3-0.3,0.5c-0.1,0.2-0.1,0.5-0.1,0.8V16h-1V10.8z"/>
	<path fill="#CCCCCC" d="M189.9,9c0-0.2,0.1-0.4,0.2-0.5c0.1-0.1,0.3-0.2,0.5-0.2c0.2,0,0.4,0.1,0.5,0.2c0.1,0.1,0.2,0.3,0.2,0.5
		s-0.1,0.4-0.2,0.5c-0.1,0.1-0.3,0.2-0.5,0.2c-0.2,0-0.4-0.1-0.5-0.2C190,9.3,189.9,9.2,189.9,9z M190.1,10.8h1V16h-1V10.8z"/>
	<path fill="#CCCCCC" d="M196.1,12.2c-0.2-0.2-0.4-0.3-0.6-0.4c-0.2-0.1-0.4-0.1-0.7-0.1c-0.3,0-0.5,0-0.7,0.1
		c-0.2,0.1-0.4,0.2-0.5,0.4s-0.2,0.4-0.3,0.6c-0.1,0.2-0.1,0.5-0.1,0.7c0,0.2,0,0.5,0.1,0.7c0.1,0.2,0.2,0.4,0.3,0.6
		c0.1,0.2,0.3,0.3,0.5,0.4s0.4,0.1,0.7,0.1c0.3,0,0.5,0,0.7-0.1s0.4-0.2,0.5-0.4l0.7,0.7c-0.3,0.3-0.6,0.5-0.9,0.6
		c-0.3,0.1-0.7,0.2-1.1,0.2c-0.4,0-0.8-0.1-1.1-0.2c-0.3-0.1-0.6-0.3-0.9-0.6c-0.2-0.2-0.4-0.5-0.6-0.9s-0.2-0.7-0.2-1.1
		s0.1-0.8,0.2-1.1c0.1-0.3,0.3-0.6,0.6-0.9c0.2-0.2,0.5-0.4,0.9-0.6c0.3-0.1,0.7-0.2,1.1-0.2c0.4,0,0.7,0.1,1.1,0.2
		c0.3,0.1,0.7,0.3,0.9,0.6L196.1,12.2z"/>
	<path fill="#CCCCCC" d="M200.4,12.1c-0.1-0.1-0.3-0.3-0.4-0.4c-0.2-0.1-0.4-0.1-0.6-0.1c-0.2,0-0.4,0-0.6,0.1
		c-0.2,0.1-0.3,0.2-0.3,0.4c0,0.2,0,0.3,0.1,0.4c0.1,0.1,0.2,0.2,0.4,0.2c0.1,0.1,0.3,0.1,0.4,0.1c0.2,0,0.3,0.1,0.4,0.1
		c0.2,0.1,0.4,0.1,0.6,0.2c0.2,0.1,0.3,0.2,0.5,0.3s0.2,0.3,0.3,0.4c0.1,0.2,0.1,0.4,0.1,0.6c0,0.3-0.1,0.5-0.2,0.8
		s-0.3,0.4-0.5,0.5c-0.2,0.1-0.4,0.2-0.7,0.3s-0.5,0.1-0.8,0.1c-0.4,0-0.8-0.1-1.1-0.2c-0.3-0.1-0.6-0.4-0.9-0.7l0.7-0.6
		c0.2,0.2,0.3,0.3,0.5,0.4c0.2,0.1,0.4,0.2,0.7,0.2c0.1,0,0.3,0,0.4,0c0.1,0,0.2-0.1,0.3-0.1c0.1-0.1,0.2-0.1,0.2-0.2
		c0.1-0.1,0.1-0.2,0.1-0.3c0-0.1,0-0.3-0.1-0.4c-0.1-0.1-0.2-0.2-0.3-0.2c-0.1-0.1-0.3-0.1-0.4-0.1c-0.1,0-0.3-0.1-0.4-0.1
		c-0.2-0.1-0.4-0.1-0.6-0.2c-0.2-0.1-0.4-0.2-0.5-0.3c-0.1-0.1-0.3-0.2-0.4-0.4c-0.1-0.2-0.1-0.4-0.1-0.6c0-0.3,0.1-0.5,0.2-0.7
		c0.1-0.2,0.3-0.4,0.5-0.5c0.2-0.1,0.4-0.2,0.6-0.3s0.5-0.1,0.7-0.1c0.4,0,0.7,0.1,1,0.2c0.3,0.1,0.6,0.4,0.8,0.7L200.4,12.1z"/>
</g>
<circle fill="#CCCCCC" cx="130.9" cy="12.1" r="1.1"/>
<path fill="none" stroke="#000000" stroke-width="0.5734" stroke-miterlimit="10" d="M122.3,14.2"/>
<path fill="none" stroke="#000000" stroke-width="0.5005" stroke-miterlimit="10" d="M122.3,12.8"/>
<path fill="none" stroke="#000000" stroke-width="0.5734" stroke-miterlimit="10" d="M121.8,14.2"/>
<g>
</g>
<g>
</g>
<g>
</g>
<g>
</g>
<g>
</g>
<g>
</g>
<g>
</g>
<g>
</g>
<g>
</g>
<g>
</g>
<g>
</g>
<g>
</g>
<g>
</g>
<g>
</g>
<g>
</g>
</svg>
