<?xml version="1.0" encoding="utf-8"?>
<!-- Generator: Adobe Illustrator 17.1.0, SVG Export Plug-In . SVG Version: 6.00 Build 0)  -->
<!DOCTYPE svg PUBLIC "-//W3C//DTD SVG 1.1//EN" "http://www.w3.org/Graphics/SVG/1.1/DTD/svg11.dtd">
<svg version="1.1" id="Layer_1" xmlns="http://www.w3.org/2000/svg" xmlns:xlink="http://www.w3.org/1999/xlink" x="0px" y="0px"
	 width="240px" height="40px" viewBox="0 0 240 40" enable-background="new 0 0 240 40" xml:space="preserve">
<path fill="#FAFAFA" stroke="#FAFAFA" stroke-width="0.75" d="M11.0443411,12.0422564
	c0.5854559,1.2984123,0.6270466,2.6127472,0.1249952,3.9425278c-0.5022259,1.3298445-1.4025135,2.2875814-2.7006865,2.8731489
	C7.170414,19.443325,5.8536072,19.48522,4.5182309,18.9836159c-1.3352492-0.5012531-2.2954583-1.4012375-2.8808026-2.6998882
	c-0.5855676-1.2981739-0.6247511-2.6151714-0.1181405-3.9509792c0.5068498-1.3356953,1.4094167-2.2964468,2.7078288-2.8819027
	s2.6127629-0.6242733,3.9434528-0.116992C9.5009079,9.8412619,10.4589491,10.7440205,11.0443411,12.0422564z"/>
<path fill="none" stroke="#FAFAFA" stroke-width="0.75" d="M17.2914486,7.9104228
	c-0.6457596,0.6830411-1.4375353,1.0380874-2.3752708,1.0652957c-0.9379482,0.0271091-1.748415-0.2821379-2.4315128-0.9280529
	c-0.6830416-0.6457586-1.0390263-1.4391394-1.0676832-2.3798862c-0.0289268-0.9410028,0.2797518-1.7530322,0.9255104-2.4360733
	s1.4399204-1.0373638,2.3825855-1.06318c0.9424095-0.0255463,1.7552633,0.2844248,2.4384604,0.9301264
	c0.6828842,0.6458154,1.0364819,1.438472,1.0604229,2.3779266C18.2481155,6.4161334,17.9370499,7.2274384,17.2914486,7.9104228z"/>
<path fill="#FAFAFA" stroke="#FAFAFA" stroke-width="0.75" d="M19.1960831,16.4658279
	c-0.6508541-0.0539017-1.1870232-0.3291435-1.6087551-0.825839c-0.4216156-0.4969425-0.6055298-1.0707169-0.5517426-1.721323
	c0.0537872-0.6506071,0.3296051-1.1880093,0.8273354-1.6119614s1.0718994-0.6090345,1.7226868-0.5553122
	c0.6508541,0.0539026,1.1874352,0.3308382,1.6105309,0.8307238c0.4227352,0.5000162,0.6074238,1.0753536,0.5537014,1.726141
	c-0.0537872,0.6506062-0.3300152,1.1863155-0.8292923,1.6071434C20.4216309,16.3360958,19.8466892,16.5196152,19.1960831,16.4658279
	z"/>
<path fill="none" stroke="#FAFAFA" stroke-width="0.75" d="M13.4953756,22.1710663
	c-0.3373032-0.2555866-0.5348444-0.5924416-0.5928373-1.010664c-0.057992-0.4182205,0.0407066-0.7957706,0.2961378-1.1330166
	c0.2554884-0.3370895,0.5928545-0.5351715,1.0125256-0.5940437c0.419301-0.0589161,0.7977877,0.0394402,1.1348209,0.2947731
	c0.3373032,0.2555885,0.5346594,0.5933952,0.5921831,1.0137329c0.0575809,0.4204941-0.0413446,0.7993641-0.2966766,1.1363983
	c-0.2554884,0.3370895-0.5927267,0.5340633-1.0119286,0.5908184C14.2104979,22.5256081,13.8324089,22.4263992,13.4953756,22.1710663
	z"/>
<line fill="none" stroke="#FAFAFA" stroke-width="0.75" x1="11.3891783" y1="14.1150217" x2="16.9065838" y2="14.1150217"/>
<line fill="none" stroke="#FAFAFA" stroke-width="0.75" x1="16.3256702" y1="8.4967318" x2="18.275877" y2="12.2873077"/>
<line fill="none" stroke="#FAFAFA" stroke-width="0.75" x1="17.9398041" y1="15.7570868" x2="15.2413435" y2="19.8985844"/>
<circle fill="#3EED91" cx="6.2713146" cy="14.1798639" r="3.6089954"/>
<g>
	<path fill="#FAFAFA" d="M24.8393555,16.4980469c0.190918,0.2861328,0.4345703,0.4970703,0.7314453,0.6328125
		c0.2973633,0.1357422,0.6030273,0.203125,0.918457,0.203125c0.1762695,0,0.355957-0.0273438,0.5390625-0.0820312
		c0.1831055-0.0556641,0.3500977-0.1376953,0.5004883-0.2480469s0.2734375-0.2451172,0.3686523-0.4072266
		c0.0952148-0.1611328,0.1430664-0.3476562,0.1430664-0.5605469c0-0.3007812-0.0957031-0.5302734-0.2861328-0.6875
		c-0.190918-0.1582031-0.4272461-0.2900391-0.7094727-0.3964844c-0.2822266-0.1054688-0.590332-0.2089844-0.9238281-0.3076172
		c-0.3339844-0.0986328-0.6420898-0.2363281-0.9243164-0.4121094c-0.2822266-0.1767578-0.5185547-0.4130859-0.7094727-0.7099609
		c-0.1904297-0.296875-0.2856445-0.6982422-0.2856445-1.2041016c0-0.2275391,0.0493164-0.4697266,0.1484375-0.7265625
		c0.0986328-0.2568359,0.2543945-0.4912109,0.4672852-0.7041016c0.2128906-0.2119141,0.4858398-0.390625,0.8193359-0.5332031
		c0.3339844-0.1425781,0.7353516-0.2148438,1.2045898-0.2148438c0.425293,0,0.8325195,0.0595703,1.2211914,0.1767578
		s0.7294922,0.3554688,1.0229492,0.7148438l-0.8579102,0.7802734c-0.1323242-0.2050781-0.3193359-0.3701172-0.5610352-0.4941406
		c-0.2421875-0.125-0.5170898-0.1875-0.8251953-0.1875c-0.293457,0-0.5371094,0.0390625-0.7314453,0.1152344
		c-0.1943359,0.0771484-0.3500977,0.1767578-0.4672852,0.296875c-0.1176758,0.1210938-0.2001953,0.2519531-0.2475586,0.390625
		c-0.0478516,0.1396484-0.0717773,0.2685547-0.0717773,0.3857422c0,0.3300781,0.0952148,0.5830078,0.2861328,0.7587891
		c0.1904297,0.1757812,0.4272461,0.3183594,0.7094727,0.4287109s0.590332,0.2089844,0.9243164,0.296875
		c0.3334961,0.0878906,0.6416016,0.2109375,0.9238281,0.3691406c0.2822266,0.1572266,0.5185547,0.3701172,0.7094727,0.6376953
		c0.1904297,0.2675781,0.2861328,0.6357422,0.2861328,1.1054688c0,0.3740234-0.0717773,0.7109375-0.2148438,1.0117188
		s-0.3354492,0.5537109-0.5771484,0.7587891c-0.2421875,0.2060547-0.5283203,0.3632812-0.8583984,0.4736328
		c-0.3295898,0.109375-0.6816406,0.1650391-1.0556641,0.1650391c-0.4990234,0-0.9716797-0.0878906-1.4189453-0.2646484
		c-0.4477539-0.1757812-0.8032227-0.4472656-1.0673828-0.8134766L24.8393555,16.4980469z"/>
	<path fill="#FAFAFA" d="M34.8168945,18.1259766h-0.9902344v-0.8027344h-0.0219727
		c-0.1245117,0.2783203-0.3408203,0.5039062-0.6489258,0.6757812c-0.3081055,0.1728516-0.6635742,0.2587891-1.0668945,0.2587891
		c-0.2568359,0-0.4990234-0.0380859-0.7260742-0.1152344c-0.2275391-0.0771484-0.4272461-0.1962891-0.5996094-0.3574219
		s-0.3100586-0.3691406-0.4125977-0.6220703s-0.1538086-0.5517578-0.1538086-0.8964844v-3.3544922h0.9897461v3.0800781
		c0,0.2421875,0.0332031,0.4492188,0.0991211,0.6210938c0.065918,0.1728516,0.1542969,0.3115234,0.2641602,0.4179688
		s0.2363281,0.1835938,0.3793945,0.2314453s0.2915039,0.0712891,0.4453125,0.0712891
		c0.2055664,0,0.3959961-0.0332031,0.5722656-0.0986328c0.1757812-0.0664062,0.3300781-0.1708984,0.4619141-0.3134766
		c0.1318359-0.1435547,0.2348633-0.3251953,0.3081055-0.5449219s0.1098633-0.4804688,0.1098633-0.78125v-2.6835938h0.9902344
		V18.1259766z"/>
	<path fill="#FAFAFA" d="M36.0380859,12.9121094h0.9897461v0.7480469h0.0219727
		c0.190918-0.2783203,0.453125-0.4951172,0.7866211-0.6494141c0.3334961-0.1533203,0.6767578-0.2304688,1.0288086-0.2304688
		c0.402832,0,0.7680664,0.0693359,1.0942383,0.2089844c0.3261719,0.1386719,0.6049805,0.3339844,0.8359375,0.5830078
		s0.4086914,0.5410156,0.5336914,0.8740234c0.1245117,0.3339844,0.1870117,0.6914062,0.1870117,1.0722656
		c0,0.3896484-0.0625,0.75-0.1870117,1.0839844c-0.125,0.3339844-0.3027344,0.6230469-0.5336914,0.8691406
		c-0.230957,0.2451172-0.5097656,0.4384766-0.8359375,0.5771484c-0.3261719,0.1396484-0.6914062,0.2089844-1.0942383,0.2089844
		c-0.3740234,0-0.7260742-0.0791016-1.0561523-0.2363281s-0.5830078-0.3720703-0.7592773-0.6435547H37.027832v3.8496094h-0.9897461
		V12.9121094z M38.7441406,13.7041016c-0.2641602,0-0.5024414,0.0458984-0.715332,0.1376953
		c-0.2124023,0.0917969-0.3920898,0.2158203-0.5385742,0.3740234c-0.1469727,0.1572266-0.2607422,0.3476562-0.3413086,0.5712891
		c-0.0805664,0.2246094-0.1210938,0.4677734-0.1210938,0.7314453c0,0.2646484,0.0405273,0.5087891,0.1210938,0.7314453
		c0.0805664,0.2246094,0.1943359,0.4150391,0.3413086,0.5722656c0.1464844,0.1582031,0.3261719,0.2822266,0.5385742,0.3740234
		c0.2128906,0.0917969,0.4511719,0.1376953,0.715332,0.1376953c0.2636719,0,0.5019531-0.0458984,0.7148438-0.1376953
		s0.3920898-0.2158203,0.5390625-0.3740234c0.1464844-0.1572266,0.2602539-0.3476562,0.3408203-0.5722656
		c0.0805664-0.2226562,0.1210938-0.4667969,0.1210938-0.7314453c0-0.2636719-0.0405273-0.5068359-0.1210938-0.7314453
		c-0.0805664-0.2236328-0.1943359-0.4140625-0.3408203-0.5712891c-0.1469727-0.1582031-0.3261719-0.2822266-0.5390625-0.3740234
		S39.0078125,13.7041016,38.7441406,13.7041016z"/>
	<path fill="#FAFAFA" d="M42.4833984,12.9121094h0.9897461v0.7480469h0.0219727
		c0.190918-0.2783203,0.453125-0.4951172,0.7866211-0.6494141c0.3334961-0.1533203,0.6767578-0.2304688,1.0288086-0.2304688
		c0.402832,0,0.7680664,0.0693359,1.0942383,0.2089844c0.3261719,0.1386719,0.6049805,0.3339844,0.8359375,0.5830078
		s0.4086914,0.5410156,0.5336914,0.8740234c0.1245117,0.3339844,0.1870117,0.6914062,0.1870117,1.0722656
		c0,0.3896484-0.0625,0.75-0.1870117,1.0839844c-0.125,0.3339844-0.3027344,0.6230469-0.5336914,0.8691406
		c-0.230957,0.2451172-0.5097656,0.4384766-0.8359375,0.5771484c-0.3261719,0.1396484-0.6914062,0.2089844-1.0942383,0.2089844
		c-0.3740234,0-0.7260742-0.0791016-1.0561523-0.2363281s-0.5830078-0.3720703-0.7592773-0.6435547h-0.0219727v3.8496094h-0.9897461
		V12.9121094z M45.1894531,13.7041016c-0.2641602,0-0.5024414,0.0458984-0.715332,0.1376953
		c-0.2124023,0.0917969-0.3920898,0.2158203-0.5385742,0.3740234c-0.1469727,0.1572266-0.2607422,0.3476562-0.3413086,0.5712891
		c-0.0805664,0.2246094-0.1210938,0.4677734-0.1210938,0.7314453c0,0.2646484,0.0405273,0.5087891,0.1210938,0.7314453
		c0.0805664,0.2246094,0.1943359,0.4150391,0.3413086,0.5722656c0.1464844,0.1582031,0.3261719,0.2822266,0.5385742,0.3740234
		c0.2128906,0.0917969,0.4511719,0.1376953,0.715332,0.1376953c0.2636719,0,0.5019531-0.0458984,0.7148438-0.1376953
		s0.3920898-0.2158203,0.5390625-0.3740234c0.1464844-0.1572266,0.2602539-0.3476562,0.3408203-0.5722656
		c0.0805664-0.2226562,0.1210938-0.4667969,0.1210938-0.7314453c0-0.2636719-0.0405273-0.5068359-0.1210938-0.7314453
		c-0.0805664-0.2236328-0.1943359-0.4140625-0.3408203-0.5712891c-0.1469727-0.1582031-0.3261719-0.2822266-0.5390625-0.3740234
		S45.453125,13.7041016,45.1894531,13.7041016z"/>
	<path fill="#FAFAFA" d="M48.6762695,15.5185547c0-0.3808594,0.0712891-0.7363281,0.2143555-1.0664062
		s0.3393555-0.6201172,0.5883789-0.8691406c0.2495117-0.2490234,0.5429688-0.4453125,0.8803711-0.5888672
		c0.3369141-0.1425781,0.7001953-0.2138672,1.0888672-0.2138672s0.7514648,0.0712891,1.0888672,0.2138672
		c0.3374023,0.1435547,0.6308594,0.3398438,0.8798828,0.5888672c0.2495117,0.2490234,0.4458008,0.5390625,0.5888672,0.8691406
		c0.1425781,0.3300781,0.2143555,0.6855469,0.2143555,1.0664062c0,0.3818359-0.0717773,0.7392578-0.2143555,1.0732422
		c-0.1430664,0.3330078-0.3393555,0.6230469-0.5888672,0.8691406c-0.2490234,0.2451172-0.5424805,0.4394531-0.8798828,0.5830078
		c-0.3374023,0.1425781-0.7001953,0.2138672-1.0888672,0.2138672s-0.7519531-0.0712891-1.0888672-0.2138672
		c-0.3374023-0.1435547-0.6308594-0.3378906-0.8803711-0.5830078c-0.2490234-0.2460938-0.4453125-0.5361328-0.5883789-0.8691406
		C48.7475586,16.2578125,48.6762695,15.9003906,48.6762695,15.5185547z M49.7319336,15.5185547
		c0,0.2646484,0.0405273,0.5087891,0.1210938,0.7314453c0.0805664,0.2246094,0.1943359,0.4150391,0.3413086,0.5722656
		c0.1464844,0.1582031,0.3261719,0.2822266,0.5385742,0.3740234c0.2128906,0.0917969,0.4511719,0.1376953,0.715332,0.1376953
		c0.2636719,0,0.5019531-0.0458984,0.7148438-0.1376953s0.3920898-0.2158203,0.5390625-0.3740234
		c0.1464844-0.1572266,0.2602539-0.3476562,0.3408203-0.5722656c0.0805664-0.2226562,0.1210938-0.4667969,0.1210938-0.7314453
		c0-0.2636719-0.0405273-0.5068359-0.1210938-0.7314453c-0.0805664-0.2236328-0.1943359-0.4140625-0.3408203-0.5712891
		c-0.1469727-0.1582031-0.3261719-0.2822266-0.5390625-0.3740234s-0.4511719-0.1376953-0.7148438-0.1376953
		c-0.2641602,0-0.5024414,0.0458984-0.715332,0.1376953c-0.2124023,0.0917969-0.3920898,0.2158203-0.5385742,0.3740234
		c-0.1469727,0.1572266-0.2607422,0.3476562-0.3413086,0.5712891
		C49.7724609,15.0117188,49.7319336,15.2548828,49.7319336,15.5185547z"/>
	<path fill="#FAFAFA" d="M55.1884766,12.9121094h0.9897461v0.8027344h0.0219727
		c0.0664062-0.1386719,0.1542969-0.265625,0.2641602-0.3789062c0.1098633-0.1142578,0.2329102-0.2109375,0.3686523-0.2919922
		s0.2841797-0.1445312,0.4453125-0.1923828s0.3227539-0.0712891,0.4838867-0.0712891
		c0.1616211,0,0.3081055,0.0214844,0.4404297,0.0654297l-0.0444336,1.0673828
		c-0.0805664-0.0224609-0.1611328-0.0400391-0.2416992-0.0546875c-0.0810547-0.0146484-0.1616211-0.0224609-0.2421875-0.0224609
		c-0.4838867,0-0.8544922,0.1357422-1.1108398,0.4072266c-0.2568359,0.2714844-0.3852539,0.6923828-0.3852539,1.2646484v2.6181641
		h-0.9897461V12.9121094z"/>
	<path fill="#FAFAFA" d="M61.7773438,13.7695312h-1.4189453v2.3652344c0,0.1474609,0.003418,0.2919922,0.0107422,0.4345703
		c0.0073242,0.1435547,0.0351562,0.2714844,0.0825195,0.3847656c0.0478516,0.1142578,0.1210938,0.2060547,0.2202148,0.2753906
		s0.2436523,0.1044922,0.4345703,0.1044922c0.1171875,0,0.2382812-0.0107422,0.362793-0.0332031
		c0.1245117-0.0214844,0.2382812-0.0625,0.3413086-0.1210938v0.9023438
		c-0.1176758,0.0664062-0.2695312,0.1113281-0.456543,0.1376953c-0.1870117,0.0253906-0.3320312,0.0380859-0.4345703,0.0380859
		c-0.3813477,0-0.6767578-0.0527344-0.8857422-0.1591797s-0.362793-0.2441406-0.4619141-0.4130859
		c-0.0991211-0.1679688-0.1577148-0.3574219-0.1757812-0.5664062c-0.0185547-0.2089844-0.027832-0.4189453-0.027832-0.6318359
		v-2.7177734h-1.144043v-0.8574219h1.144043v-1.4628906h0.9902344v1.4628906h1.4189453V13.7695312z"/>
</g>
<path fill="#3EED91" d="M18.2608871,14.7394018c-0.175745-0.314311-0.2146969-0.6442795-0.1173286-0.9899597
	s0.3033085-0.6064281,0.6174202-0.7820997c0.3141098-0.1756716,0.6446781-0.2148418,0.9918976-0.1175823
	c0.3469505,0.0971317,0.6082249,0.3026543,0.783968,0.6169653c0.1756725,0.3141117,0.2142429,0.6448956,0.1158428,0.9920807
	c-0.0985298,0.3474569-0.3048496,0.6090212-0.6190338,0.7844934c-0.3141098,0.1756716-0.6442242,0.2142248-0.9904118,0.1154613
	C18.6974525,15.2598515,18.4365578,15.0535135,18.2608871,14.7394018z"/>
<path fill="none" stroke="#D3E6EA" stroke-width="0.75" d="M131.044342,12.0422564
	c0.5854492,1.2984123,0.6270447,2.6127472,0.125,3.9425278c-0.5022278,1.3298445-1.4025116,2.2875814-2.7006989,2.8731489
	c-1.298233,0.585392-2.615036,0.6272869-3.9504089,0.1256828c-1.3352509-0.5012531-2.2954636-1.4012375-2.880806-2.6998882
	c-0.5855713-1.2981739-0.6247482-2.6151714-0.1181412-3.9509792c0.5068512-1.3356953,1.4094162-2.2964468,2.7078323-2.8819027
	c1.2984085-0.5854559,2.6127625-0.6242733,3.9434433-0.116992C129.5009155,9.8412619,130.4589539,10.7440205,131.044342,12.0422564z
	"/>
<path fill="none" stroke="#D3E6EA" stroke-width="0.75" d="M137.2914429,7.9104228
	c-0.645752,0.6830411-1.4375305,1.0380874-2.3752594,1.0652957c-0.9379578,0.0271091-1.7484131-0.2821379-2.4315186-0.9280529
	c-0.6830444-0.6457586-1.039032-1.4391394-1.067688-2.3798862c-0.0289154-0.9410028,0.2797546-1.7530322,0.9255219-2.4360733
	c0.645752-0.6830413,1.4399109-1.0373638,2.3825836-1.06318c0.9423981-0.0255463,1.7552643,0.2844248,2.4384613,0.9301264
	c0.6828766,0.6458154,1.0364838,1.438472,1.0604248,2.3779266C138.2481079,6.4161334,137.9370575,7.2274384,137.2914429,7.9104228z"
	/>
<path fill="none" stroke="#D3E6EA" stroke-width="0.75" d="M139.1960754,16.4658279
	c-0.6508484-0.0539017-1.1870117-0.3291435-1.6087494-0.825839c-0.4216156-0.4969425-0.6055298-1.0707169-0.5517426-1.721323
	c0.0537872-0.6506071,0.3296051-1.1880093,0.8273315-1.6119614c0.4977417-0.4239521,1.0718994-0.6090345,1.7226868-0.5553122
	c0.6508636,0.0539026,1.187439,0.3308382,1.6105347,0.8307238c0.4227448,0.5000162,0.6074219,1.0753536,0.5537109,1.726141
	c-0.0538025,0.6506062-0.3300171,1.1863155-0.8292999,1.6071434
	C140.4216309,16.3360958,139.8466949,16.5196152,139.1960754,16.4658279z"/>
<path fill="none" stroke="#D3E6EA" stroke-width="0.75" d="M133.4953766,22.1710663
	c-0.3373108-0.2555866-0.5348511-0.5924416-0.5928345-1.010664c-0.0579987-0.4182205,0.0406952-0.7957706,0.2961273-1.1330166
	c0.2554932-0.3370895,0.592865-0.5351715,1.0125275-0.5940437c0.4193115-0.0589161,0.7977905,0.0394402,1.1348267,0.2947731
	c0.3372955,0.2555885,0.5346527,0.5933952,0.5921783,1.0137329c0.0575867,0.4204941-0.0413361,0.7993641-0.2966766,1.1363983
	c-0.2554779,0.3370895-0.5927277,0.5340633-1.0119324,0.5908184
	C134.210495,22.5256081,133.8324127,22.4263992,133.4953766,22.1710663z"/>
<line fill="none" stroke="#D3E6EA" stroke-width="0.75" x1="131.3891754" y1="14.1150217" x2="136.9065857" y2="14.1150217"/>
<line fill="none" stroke="#D3E6EA" stroke-width="0.75" x1="136.3256683" y1="8.4967318" x2="138.2758789" y2="12.2873077"/>
<line fill="none" stroke="#D3E6EA" stroke-width="0.75" x1="137.9398041" y1="15.7570868" x2="135.2413483" y2="19.8985844"/>
<g>
	<path fill="#D3E6EA" d="M144.8388672,16.4980469c0.1914062,0.2861328,0.4345703,0.4970703,0.7314453,0.6328125
		c0.2978516,0.1357422,0.6035156,0.203125,0.9189453,0.203125c0.1757812,0,0.3554688-0.0273438,0.5390625-0.0820312
		c0.1826172-0.0556641,0.3496094-0.1376953,0.5-0.2480469s0.2734375-0.2451172,0.3691406-0.4072266
		c0.0947266-0.1611328,0.1425781-0.3476562,0.1425781-0.5605469c0-0.3007812-0.0957031-0.5302734-0.2861328-0.6875
		c-0.1904297-0.1582031-0.4267578-0.2900391-0.7089844-0.3964844c-0.2822266-0.1054688-0.5908203-0.2089844-0.9238281-0.3076172
		c-0.3339844-0.0986328-0.6425781-0.2363281-0.9248047-0.4121094c-0.2822266-0.1767578-0.5185547-0.4130859-0.7089844-0.7099609
		s-0.2861328-0.6982422-0.2861328-1.2041016c0-0.2275391,0.0498047-0.4697266,0.1484375-0.7265625
		s0.2548828-0.4912109,0.4677734-0.7041016c0.2128906-0.2119141,0.4853516-0.390625,0.8193359-0.5332031
		s0.7353516-0.2148438,1.2041016-0.2148438c0.4257812,0,0.8330078,0.0595703,1.2216797,0.1767578
		s0.7294922,0.3554688,1.0224609,0.7148438l-0.8574219,0.7802734c-0.1328125-0.2050781-0.3193359-0.3701172-0.5615234-0.4941406
		c-0.2421875-0.125-0.5166016-0.1875-0.8251953-0.1875c-0.2929688,0-0.5371094,0.0390625-0.7314453,0.1152344
		c-0.1943359,0.0771484-0.3496094,0.1767578-0.4667969,0.296875c-0.1181641,0.1210938-0.2001953,0.2519531-0.2480469,0.390625
		c-0.0478516,0.1396484-0.0712891,0.2685547-0.0712891,0.3857422c0,0.3300781,0.0947266,0.5830078,0.2861328,0.7587891
		c0.1904297,0.1757812,0.4267578,0.3183594,0.7089844,0.4287109s0.5908203,0.2089844,0.9248047,0.296875
		c0.3330078,0.0878906,0.6416016,0.2109375,0.9238281,0.3691406c0.2822266,0.1572266,0.5185547,0.3701172,0.7089844,0.6376953
		s0.2861328,0.6357422,0.2861328,1.1054688c0,0.3740234-0.0712891,0.7109375-0.2148438,1.0117188
		c-0.1425781,0.3007812-0.3349609,0.5537109-0.5771484,0.7587891c-0.2421875,0.2060547-0.5283203,0.3632812-0.8583984,0.4736328
		c-0.3291016,0.109375-0.6816406,0.1650391-1.0556641,0.1650391c-0.4990234,0-0.9716797-0.0878906-1.4189453-0.2646484
		c-0.4472656-0.1757812-0.8027344-0.4472656-1.0673828-0.8134766L144.8388672,16.4980469z"/>
	<path fill="#D3E6EA" d="M154.8164062,18.1259766h-0.9902344v-0.8027344h-0.0214844
		c-0.125,0.2783203-0.3408203,0.5039062-0.6494141,0.6757812c-0.3076172,0.1728516-0.6630859,0.2587891-1.0664062,0.2587891
		c-0.2568359,0-0.4990234-0.0380859-0.7265625-0.1152344s-0.4267578-0.1962891-0.5996094-0.3574219
		c-0.171875-0.1611328-0.3095703-0.3691406-0.4121094-0.6220703s-0.1542969-0.5517578-0.1542969-0.8964844v-3.3544922h0.9902344
		v3.0800781c0,0.2421875,0.0332031,0.4492188,0.0986328,0.6210938c0.0664062,0.1728516,0.1542969,0.3115234,0.2646484,0.4179688
		c0.109375,0.1064453,0.2363281,0.1835938,0.3789062,0.2314453c0.1435547,0.0478516,0.2919922,0.0712891,0.4453125,0.0712891
		c0.2060547,0,0.3964844-0.0332031,0.5722656-0.0986328c0.1757812-0.0664062,0.3300781-0.1708984,0.4619141-0.3134766
		c0.1318359-0.1435547,0.2353516-0.3251953,0.3085938-0.5449219s0.109375-0.4804688,0.109375-0.78125v-2.6835938h0.9902344
		V18.1259766z"/>
	<path fill="#D3E6EA" d="M156.0380859,12.9121094h0.9892578v0.7480469h0.0224609
		c0.1904297-0.2783203,0.453125-0.4951172,0.7861328-0.6494141c0.3339844-0.1533203,0.6767578-0.2304688,1.0292969-0.2304688
		c0.4023438,0,0.7675781,0.0693359,1.09375,0.2089844c0.3261719,0.1386719,0.6054688,0.3339844,0.8359375,0.5830078
		c0.2314453,0.2490234,0.4091797,0.5410156,0.5341797,0.8740234c0.1240234,0.3339844,0.1865234,0.6914062,0.1865234,1.0722656
		c0,0.3896484-0.0625,0.75-0.1865234,1.0839844c-0.125,0.3339844-0.3027344,0.6230469-0.5341797,0.8691406
		c-0.2304688,0.2451172-0.5097656,0.4384766-0.8359375,0.5771484c-0.3261719,0.1396484-0.6914062,0.2089844-1.09375,0.2089844
		c-0.3740234,0-0.7265625-0.0791016-1.0566406-0.2363281s-0.5830078-0.3720703-0.7587891-0.6435547h-0.0224609v3.8496094h-0.9892578
		V12.9121094z M158.7441406,13.7041016c-0.2646484,0-0.5029297,0.0458984-0.7158203,0.1376953
		c-0.2119141,0.0917969-0.3916016,0.2158203-0.5380859,0.3740234c-0.1474609,0.1572266-0.2607422,0.3476562-0.3417969,0.5712891
		c-0.0800781,0.2246094-0.1210938,0.4677734-0.1210938,0.7314453c0,0.2646484,0.0410156,0.5087891,0.1210938,0.7314453
		c0.0810547,0.2246094,0.1943359,0.4150391,0.3417969,0.5722656c0.1464844,0.1582031,0.3261719,0.2822266,0.5380859,0.3740234
		c0.2128906,0.0917969,0.4511719,0.1376953,0.7158203,0.1376953c0.2636719,0,0.5019531-0.0458984,0.7148438-0.1376953
		s0.3916016-0.2158203,0.5390625-0.3740234c0.1464844-0.1572266,0.2597656-0.3476562,0.3408203-0.5722656
		c0.0800781-0.2226562,0.1210938-0.4667969,0.1210938-0.7314453c0-0.2636719-0.0410156-0.5068359-0.1210938-0.7314453
		c-0.0810547-0.2236328-0.1943359-0.4140625-0.3408203-0.5712891c-0.1474609-0.1582031-0.3261719-0.2822266-0.5390625-0.3740234
		S159.0078125,13.7041016,158.7441406,13.7041016z"/>
	<path fill="#D3E6EA" d="M162.4833984,12.9121094h0.9892578v0.7480469h0.0224609
		c0.1904297-0.2783203,0.453125-0.4951172,0.7861328-0.6494141c0.3339844-0.1533203,0.6767578-0.2304688,1.0292969-0.2304688
		c0.4023438,0,0.7675781,0.0693359,1.09375,0.2089844c0.3261719,0.1386719,0.6054688,0.3339844,0.8359375,0.5830078
		c0.2314453,0.2490234,0.4091797,0.5410156,0.5341797,0.8740234c0.1240234,0.3339844,0.1865234,0.6914062,0.1865234,1.0722656
		c0,0.3896484-0.0625,0.75-0.1865234,1.0839844c-0.125,0.3339844-0.3027344,0.6230469-0.5341797,0.8691406
		c-0.2304688,0.2451172-0.5097656,0.4384766-0.8359375,0.5771484c-0.3261719,0.1396484-0.6914062,0.2089844-1.09375,0.2089844
		c-0.3740234,0-0.7265625-0.0791016-1.0566406-0.2363281s-0.5830078-0.3720703-0.7587891-0.6435547h-0.0224609v3.8496094h-0.9892578
		V12.9121094z M165.1894531,13.7041016c-0.2646484,0-0.5029297,0.0458984-0.7158203,0.1376953
		c-0.2119141,0.0917969-0.3916016,0.2158203-0.5380859,0.3740234c-0.1474609,0.1572266-0.2607422,0.3476562-0.3417969,0.5712891
		c-0.0800781,0.2246094-0.1210938,0.4677734-0.1210938,0.7314453c0,0.2646484,0.0410156,0.5087891,0.1210938,0.7314453
		c0.0810547,0.2246094,0.1943359,0.4150391,0.3417969,0.5722656c0.1464844,0.1582031,0.3261719,0.2822266,0.5380859,0.3740234
		c0.2128906,0.0917969,0.4511719,0.1376953,0.7158203,0.1376953c0.2636719,0,0.5019531-0.0458984,0.7148438-0.1376953
		s0.3916016-0.2158203,0.5390625-0.3740234c0.1464844-0.1572266,0.2597656-0.3476562,0.3408203-0.5722656
		c0.0800781-0.2226562,0.1210938-0.4667969,0.1210938-0.7314453c0-0.2636719-0.0410156-0.5068359-0.1210938-0.7314453
		c-0.0810547-0.2236328-0.1943359-0.4140625-0.3408203-0.5712891c-0.1474609-0.1582031-0.3261719-0.2822266-0.5390625-0.3740234
		S165.453125,13.7041016,165.1894531,13.7041016z"/>
	<path fill="#D3E6EA" d="M168.6757812,15.5185547c0-0.3808594,0.0712891-0.7363281,0.2148438-1.0664062
		c0.1425781-0.3300781,0.3388672-0.6201172,0.5878906-0.8691406c0.25-0.2490234,0.5429688-0.4453125,0.8808594-0.5888672
		c0.3369141-0.1425781,0.7001953-0.2138672,1.0888672-0.2138672s0.7509766,0.0712891,1.0888672,0.2138672
		c0.3369141,0.1435547,0.6308594,0.3398438,0.8798828,0.5888672s0.4453125,0.5390625,0.5888672,0.8691406
		c0.1425781,0.3300781,0.2138672,0.6855469,0.2138672,1.0664062c0,0.3818359-0.0712891,0.7392578-0.2138672,1.0732422
		c-0.1435547,0.3330078-0.3398438,0.6230469-0.5888672,0.8691406c-0.2490234,0.2451172-0.5429688,0.4394531-0.8798828,0.5830078
		c-0.3378906,0.1425781-0.7001953,0.2138672-1.0888672,0.2138672s-0.7519531-0.0712891-1.0888672-0.2138672
		c-0.3378906-0.1435547-0.6308594-0.3378906-0.8808594-0.5830078c-0.2490234-0.2460938-0.4453125-0.5361328-0.5878906-0.8691406
		C168.7470703,16.2578125,168.6757812,15.9003906,168.6757812,15.5185547z M169.7314453,15.5185547
		c0,0.2646484,0.0410156,0.5087891,0.1210938,0.7314453c0.0810547,0.2246094,0.1943359,0.4150391,0.3417969,0.5722656
		c0.1464844,0.1582031,0.3261719,0.2822266,0.5380859,0.3740234c0.2128906,0.0917969,0.4511719,0.1376953,0.7158203,0.1376953
		c0.2636719,0,0.5019531-0.0458984,0.7148438-0.1376953s0.3916016-0.2158203,0.5390625-0.3740234
		c0.1464844-0.1572266,0.2597656-0.3476562,0.3408203-0.5722656c0.0800781-0.2226562,0.1210938-0.4667969,0.1210938-0.7314453
		c0-0.2636719-0.0410156-0.5068359-0.1210938-0.7314453c-0.0810547-0.2236328-0.1943359-0.4140625-0.3408203-0.5712891
		c-0.1474609-0.1582031-0.3261719-0.2822266-0.5390625-0.3740234s-0.4511719-0.1376953-0.7148438-0.1376953
		c-0.2646484,0-0.5029297,0.0458984-0.7158203,0.1376953c-0.2119141,0.0917969-0.3916016,0.2158203-0.5380859,0.3740234
		c-0.1474609,0.1572266-0.2607422,0.3476562-0.3417969,0.5712891
		C169.7724609,15.0117188,169.7314453,15.2548828,169.7314453,15.5185547z"/>
	<path fill="#D3E6EA" d="M175.1884766,12.9121094h0.9892578v0.8027344h0.0224609
		c0.0664062-0.1386719,0.1542969-0.265625,0.2636719-0.3789062c0.1103516-0.1142578,0.2333984-0.2109375,0.3691406-0.2919922
		s0.2841797-0.1445312,0.4453125-0.1923828s0.3222656-0.0712891,0.4833984-0.0712891
		c0.1621094,0,0.3085938,0.0214844,0.4404297,0.0654297l-0.0439453,1.0673828
		c-0.0810547-0.0224609-0.1611328-0.0400391-0.2421875-0.0546875s-0.1611328-0.0224609-0.2421875-0.0224609
		c-0.4833984,0-0.8544922,0.1357422-1.1103516,0.4072266c-0.2568359,0.2714844-0.3857422,0.6923828-0.3857422,1.2646484v2.6181641
		h-0.9892578V12.9121094z"/>
	<path fill="#D3E6EA" d="M181.7773438,13.7695312h-1.4189453v2.3652344c0,0.1474609,0.0029297,0.2919922,0.0107422,0.4345703
		c0.0068359,0.1435547,0.0351562,0.2714844,0.0820312,0.3847656c0.0478516,0.1142578,0.1210938,0.2060547,0.2207031,0.2753906
		c0.0986328,0.0693359,0.2431641,0.1044922,0.4345703,0.1044922c0.1171875,0,0.2382812-0.0107422,0.3623047-0.0332031
		c0.125-0.0214844,0.2382812-0.0625,0.3417969-0.1210938v0.9023438c-0.1181641,0.0664062-0.2695312,0.1113281-0.4570312,0.1376953
		c-0.1865234,0.0253906-0.3320312,0.0380859-0.4345703,0.0380859c-0.3808594,0-0.6767578-0.0527344-0.8857422-0.1591797
		s-0.3623047-0.2441406-0.4619141-0.4130859c-0.0986328-0.1679688-0.1572266-0.3574219-0.1757812-0.5664062
		s-0.0273438-0.4189453-0.0273438-0.6318359v-2.7177734h-1.1445312v-0.8574219h1.1445312v-1.4628906h0.9902344v1.4628906h1.4189453
		V13.7695312z"/>
</g>
<g>
</g>
<g>
</g>
<g>
</g>
<g>
</g>
<g>
</g>
<g>
</g>
<g>
</g>
<g>
</g>
<g>
</g>
<g>
</g>
<g>
</g>
<g>
</g>
<g>
</g>
<g>
</g>
<g>
</g>
</svg>
