<?xml version="1.0" encoding="utf-8"?>
<!-- Generator: Adobe Illustrator 17.1.0, SVG Export Plug-In . SVG Version: 6.00 Build 0)  -->
<!DOCTYPE svg PUBLIC "-//W3C//DTD SVG 1.1//EN" "http://www.w3.org/Graphics/SVG/1.1/DTD/svg11.dtd">
<svg version="1.1" id="Layer_1" xmlns="http://www.w3.org/2000/svg" xmlns:xlink="http://www.w3.org/1999/xlink" x="0px" y="0px"
	 width="240px" height="40px" viewBox="0 0 240 40" enable-background="new 0 0 240 40" xml:space="preserve">
<path fill="#FFFFFF" stroke="#FFFFFF" stroke-width="0.75" d="M11.0443411,12.0422564
	c0.5854559,1.2984123,0.6270466,2.6127472,0.1249952,3.9425278c-0.5022259,1.3298445-1.4025135,2.2875814-2.7006865,2.8731489
	C7.170414,19.443325,5.8536072,19.48522,4.5182309,18.9836159c-1.3352492-0.5012531-2.2954583-1.4012375-2.8808026-2.6998882
	c-0.5855676-1.2981739-0.6247511-2.6151714-0.1181405-3.9509792c0.5068498-1.3356953,1.4094167-2.2964468,2.7078288-2.8819027
	s2.6127629-0.6242733,3.9434528-0.116992C9.5009079,9.8412619,10.4589491,10.7440205,11.0443411,12.0422564z"/>
<path fill="none" stroke="#FFFFFF" stroke-width="0.75" d="M17.2914486,7.9104228
	c-0.6457596,0.6830411-1.4375353,1.0380874-2.3752708,1.0652957c-0.9379482,0.0271091-1.748415-0.2821379-2.4315128-0.9280529
	c-0.6830416-0.6457586-1.0390263-1.4391394-1.0676832-2.3798862c-0.0289268-0.9410028,0.2797518-1.7530322,0.9255104-2.4360733
	s1.4399204-1.0373638,2.3825855-1.06318c0.9424095-0.0255463,1.7552633,0.2844248,2.4384604,0.9301264
	c0.6828842,0.6458154,1.0364819,1.438472,1.0604229,2.3779266C18.2481155,6.4161334,17.9370499,7.2274384,17.2914486,7.9104228z"/>
<path fill="#FFFFFF" stroke="#FFFFFF" stroke-width="0.75" d="M19.1960831,16.4658279
	c-0.6508541-0.0539017-1.1870232-0.3291435-1.6087551-0.825839c-0.4216156-0.4969425-0.6055298-1.0707169-0.5517426-1.721323
	c0.0537872-0.6506071,0.3296051-1.1880093,0.8273354-1.6119614s1.0718994-0.6090345,1.7226868-0.5553122
	c0.6508541,0.0539026,1.1874352,0.3308382,1.6105309,0.8307238c0.4227352,0.5000162,0.6074238,1.0753536,0.5537014,1.726141
	c-0.0537872,0.6506062-0.3300152,1.1863155-0.8292923,1.6071434C20.4216309,16.3360958,19.8466892,16.5196152,19.1960831,16.4658279
	z"/>
<path fill="none" stroke="#FFFFFF" stroke-width="0.75" d="M13.4953756,22.1710663
	c-0.3373032-0.2555866-0.5348444-0.5924416-0.5928373-1.010664c-0.057992-0.4182205,0.0407066-0.7957706,0.2961378-1.1330166
	c0.2554884-0.3370895,0.5928545-0.5351715,1.0125256-0.5940437c0.419301-0.0589161,0.7977877,0.0394402,1.1348209,0.2947731
	c0.3373032,0.2555885,0.5346594,0.5933952,0.5921831,1.0137329c0.0575809,0.4204941-0.0413446,0.7993641-0.2966766,1.1363983
	c-0.2554884,0.3370895-0.5927267,0.5340633-1.0119286,0.5908184C14.2104979,22.5256081,13.8324089,22.4263992,13.4953756,22.1710663
	z"/>
<line fill="none" stroke="#FFFFFF" stroke-width="0.75" x1="11.3891783" y1="14.1150217" x2="16.9065838" y2="14.1150217"/>
<line fill="none" stroke="#FFFFFF" stroke-width="0.75" x1="16.3256702" y1="8.4967318" x2="18.275877" y2="12.2873077"/>
<line fill="none" stroke="#FFFFFF" stroke-width="0.75" x1="17.9398041" y1="15.7570868" x2="15.2413435" y2="19.8985844"/>
<circle fill="#03F3F9" cx="6.2713146" cy="14.1798639" r="3.6089954"/>
<g>
	<path fill="#FFFFFF" d="M24.6083984,10.3378906h5.0268555v0.9902344h-3.9707031v2.3212891h3.6958008v0.9892578h-3.6958008
		v2.4970703h4.1689453v0.9902344h-5.2250977V10.3378906z"/>
	<path fill="#FFFFFF" d="M30.1743164,12.9121094h1.144043l1.5620117,3.9931641l1.4960938-3.9931641h1.0556641l-2.0458984,5.2138672
		h-1.0888672L30.1743164,12.9121094z"/>
	<path fill="#FFFFFF" d="M36.7744141,15.8818359c0,0.2275391,0.0493164,0.4345703,0.1484375,0.6220703
		c0.0991211,0.1865234,0.2290039,0.3457031,0.390625,0.4785156c0.1611328,0.1318359,0.3481445,0.234375,0.5610352,0.3076172
		c0.2124023,0.0732422,0.4326172,0.1103516,0.659668,0.1103516c0.3081055,0,0.5756836-0.0722656,0.8032227-0.2148438
		c0.2270508-0.1435547,0.4360352-0.3320312,0.6269531-0.5664062l0.7480469,0.5722656
		c-0.550293,0.7109375-1.3203125,1.0664062-2.3100586,1.0664062c-0.4106445,0-0.7827148-0.0693359-1.1166992-0.2089844
		c-0.3334961-0.1386719-0.6157227-0.3320312-0.8466797-0.5771484c-0.230957-0.2460938-0.4091797-0.5351562-0.5336914-0.8691406
		s-0.1870117-0.6943359-0.1870117-1.0839844c0-0.3886719,0.0678711-0.7490234,0.2036133-1.0830078
		s0.3227539-0.6230469,0.5610352-0.8691406c0.2382812-0.2451172,0.5224609-0.4384766,0.8525391-0.5771484
		c0.3300781-0.1396484,0.6889648-0.2089844,1.0776367-0.2089844c0.4624023,0,0.8525391,0.0800781,1.171875,0.2421875
		c0.3188477,0.1611328,0.5810547,0.3720703,0.7861328,0.6318359c0.2055664,0.2607422,0.3540039,0.5537109,0.4458008,0.8798828
		c0.0913086,0.3271484,0.137207,0.6582031,0.137207,0.9960938v0.3515625H36.7744141z M39.8984375,15.0898438
		c-0.0073242-0.2197266-0.0424805-0.421875-0.1044922-0.6044922c-0.0625-0.1835938-0.15625-0.3427734-0.2807617-0.4785156
		s-0.2802734-0.2421875-0.4672852-0.3193359s-0.4052734-0.1152344-0.6547852-0.1152344
		c-0.2416992,0-0.4638672,0.0458984-0.6655273,0.1376953c-0.2016602,0.0908203-0.3720703,0.2099609-0.5112305,0.3574219
		c-0.1396484,0.1464844-0.2475586,0.3095703-0.324707,0.4892578c-0.0766602,0.1796875-0.1152344,0.3574219-0.1152344,0.5332031
		H39.8984375z"/>
	<path fill="#FFFFFF" d="M41.8671875,12.9121094h0.9897461v0.8027344h0.0219727
		c0.125-0.2783203,0.3413086-0.5039062,0.6494141-0.6767578c0.3076172-0.171875,0.6635742-0.2578125,1.0668945-0.2578125
		c0.2490234,0,0.4892578,0.0380859,0.7202148,0.1152344c0.2314453,0.0771484,0.4326172,0.1962891,0.6049805,0.3574219
		s0.3100586,0.3681641,0.4125977,0.6210938c0.1025391,0.2539062,0.1542969,0.5527344,0.1542969,0.8964844v3.3554688h-0.9902344
		v-3.0800781c0-0.2421875-0.0327148-0.4492188-0.0991211-0.6210938c-0.065918-0.1728516-0.1538086-0.3115234-0.2636719-0.4179688
		c-0.1103516-0.1064453-0.2368164-0.1835938-0.3793945-0.2314453c-0.1430664-0.0478516-0.2915039-0.0712891-0.4458008-0.0712891
		c-0.2055664,0-0.3959961,0.0332031-0.5717773,0.0986328c-0.1762695,0.0664062-0.3300781,0.1708984-0.4624023,0.3134766
		c-0.1318359,0.1435547-0.234375,0.3251953-0.3076172,0.5449219c-0.0737305,0.2197266-0.1103516,0.4804688-0.1103516,0.78125
		v2.6835938h-0.9897461V12.9121094z"/>
	<path fill="#FFFFFF" d="M50.5024414,13.7695312h-1.4189453v2.3652344c0,0.1474609,0.003418,0.2919922,0.0107422,0.4345703
		c0.0073242,0.1435547,0.0351562,0.2714844,0.0825195,0.3847656c0.0478516,0.1142578,0.1210938,0.2060547,0.2202148,0.2753906
		s0.2436523,0.1044922,0.4345703,0.1044922c0.1171875,0,0.2382812-0.0107422,0.362793-0.0332031
		c0.1245117-0.0214844,0.2382812-0.0625,0.3413086-0.1210938v0.9023438
		c-0.1176758,0.0664062-0.2695312,0.1113281-0.456543,0.1376953c-0.1870117,0.0253906-0.3320312,0.0380859-0.4345703,0.0380859
		c-0.3813477,0-0.6767578-0.0527344-0.8857422-0.1591797s-0.362793-0.2441406-0.4619141-0.4130859
		c-0.0991211-0.1679688-0.1577148-0.3574219-0.1757812-0.5664062c-0.0185547-0.2089844-0.027832-0.4189453-0.027832-0.6318359
		v-2.7177734h-1.144043v-0.8574219h1.144043v-1.4628906h0.9902344v1.4628906h1.4189453V13.7695312z"/>
	<path fill="#FFFFFF" d="M54.2753906,14.2207031c-0.1171875-0.1464844-0.262207-0.2695312-0.4345703-0.3681641
		s-0.3833008-0.1484375-0.6323242-0.1484375c-0.2348633,0-0.4384766,0.0498047-0.6108398,0.1484375
		s-0.2583008,0.2441406-0.2583008,0.4345703c0,0.1542969,0.0493164,0.2783203,0.1484375,0.3740234
		s0.2163086,0.171875,0.3520508,0.2304688c0.1357422,0.0595703,0.2807617,0.1035156,0.4345703,0.1328125
		s0.2861328,0.0546875,0.3959961,0.0761719c0.2124023,0.0517578,0.4125977,0.1142578,0.5996094,0.1875
		s0.3481445,0.1689453,0.4838867,0.2861328s0.2421875,0.2597656,0.3188477,0.4287109
		c0.0771484,0.1689453,0.1157227,0.3740234,0.1157227,0.6162109c0,0.2929688-0.0625,0.5439453-0.1870117,0.7529297
		c-0.125,0.2089844-0.2861328,0.3798828-0.4838867,0.5117188c-0.1982422,0.1318359-0.4238281,0.2275391-0.6767578,0.2861328
		s-0.5078125,0.0878906-0.7646484,0.0878906c-0.4326172,0-0.8120117-0.0654297-1.1381836-0.1982422
		c-0.3266602-0.1318359-0.6181641-0.3740234-0.8745117-0.7255859l0.7480469-0.6162109
		c0.1611328,0.1611328,0.3408203,0.3046875,0.5390625,0.4296875c0.1977539,0.1240234,0.4399414,0.1865234,0.7255859,0.1865234
		c0.125,0,0.2514648-0.0126953,0.3798828-0.0380859c0.1279297-0.0263672,0.2416992-0.0664062,0.3408203-0.1210938
		c0.0991211-0.0556641,0.1796875-0.125,0.2421875-0.2089844c0.0620117-0.0849609,0.0932617-0.1816406,0.0932617-0.2919922
		c0-0.1464844-0.0458984-0.2675781-0.1376953-0.3632812c-0.0913086-0.0947266-0.2016602-0.1699219-0.3295898-0.2246094
		c-0.128418-0.0556641-0.2641602-0.0996094-0.4072266-0.1328125c-0.1430664-0.0322266-0.2695312-0.0605469-0.3793945-0.0820312
		c-0.2128906-0.0517578-0.4145508-0.1103516-0.6049805-0.1757812c-0.190918-0.0664062-0.359375-0.1542969-0.5058594-0.2646484
		c-0.1469727-0.109375-0.2641602-0.2490234-0.3520508-0.4179688c-0.0883789-0.1679688-0.1323242-0.3769531-0.1323242-0.6269531
		c0-0.2705078,0.0571289-0.5078125,0.1708984-0.7089844c0.1132812-0.2021484,0.2636719-0.3691406,0.4506836-0.5009766
		s0.3999023-0.2304688,0.6381836-0.296875s0.4785156-0.0986328,0.7202148-0.0986328
		c0.3520508,0,0.6894531,0.0654297,1.012207,0.1972656c0.3227539,0.1328125,0.5791016,0.3525391,0.7700195,0.6601562
		L54.2753906,14.2207031z"/>
</g>
<path fill="#03F3F9" d="M18.2608871,14.7394018c-0.175745-0.314311-0.2146969-0.6442795-0.1173286-0.9899597
	s0.3033085-0.6064281,0.6174202-0.7820997c0.3141098-0.1756716,0.6446781-0.2148418,0.9918976-0.1175823
	c0.3469505,0.0971317,0.6082249,0.3026543,0.783968,0.6169653c0.1756725,0.3141117,0.2142429,0.6448956,0.1158428,0.9920807
	c-0.0985298,0.3474569-0.3048496,0.6090212-0.6190338,0.7844934c-0.3141098,0.1756716-0.6442242,0.2142248-0.9904118,0.1154613
	C18.6974525,15.2598515,18.4365578,15.0535135,18.2608871,14.7394018z"/>
<path fill="none" stroke="#D3E6EA" stroke-width="0.75" d="M131.044342,12.0422564
	c0.5854492,1.2984123,0.6270447,2.6127472,0.125,3.9425278c-0.5022278,1.3298445-1.4025116,2.2875814-2.7006989,2.8731489
	c-1.298233,0.585392-2.615036,0.6272869-3.9504089,0.1256828c-1.3352509-0.5012531-2.2954636-1.4012375-2.880806-2.6998882
	c-0.5855713-1.2981739-0.6247482-2.6151714-0.1181412-3.9509792c0.5068512-1.3356953,1.4094162-2.2964468,2.7078323-2.8819027
	c1.2984085-0.5854559,2.6127625-0.6242733,3.9434433-0.116992C129.5009155,9.8412619,130.4589539,10.7440205,131.044342,12.0422564z
	"/>
<path fill="none" stroke="#D3E6EA" stroke-width="0.75" d="M137.2914429,7.9104228
	c-0.645752,0.6830411-1.4375305,1.0380874-2.3752594,1.0652957c-0.9379578,0.0271091-1.7484131-0.2821379-2.4315186-0.9280529
	c-0.6830444-0.6457586-1.039032-1.4391394-1.067688-2.3798862c-0.0289154-0.9410028,0.2797546-1.7530322,0.9255219-2.4360733
	c0.645752-0.6830413,1.4399109-1.0373638,2.3825836-1.06318c0.9423981-0.0255463,1.7552643,0.2844248,2.4384613,0.9301264
	c0.6828766,0.6458154,1.0364838,1.438472,1.0604248,2.3779266C138.2481079,6.4161334,137.9370575,7.2274384,137.2914429,7.9104228z"
	/>
<path fill="none" stroke="#D3E6EA" stroke-width="0.75" d="M139.1960754,16.4658279
	c-0.6508484-0.0539017-1.1870117-0.3291435-1.6087494-0.825839c-0.4216156-0.4969425-0.6055298-1.0707169-0.5517426-1.721323
	c0.0537872-0.6506071,0.3296051-1.1880093,0.8273315-1.6119614c0.4977417-0.4239521,1.0718994-0.6090345,1.7226868-0.5553122
	c0.6508636,0.0539026,1.187439,0.3308382,1.6105347,0.8307238c0.4227448,0.5000162,0.6074219,1.0753536,0.5537109,1.726141
	c-0.0538025,0.6506062-0.3300171,1.1863155-0.8292999,1.6071434
	C140.4216309,16.3360958,139.8466949,16.5196152,139.1960754,16.4658279z"/>
<path fill="none" stroke="#D3E6EA" stroke-width="0.75" d="M133.4953766,22.1710663
	c-0.3373108-0.2555866-0.5348511-0.5924416-0.5928345-1.010664c-0.0579987-0.4182205,0.0406952-0.7957706,0.2961273-1.1330166
	c0.2554932-0.3370895,0.592865-0.5351715,1.0125275-0.5940437c0.4193115-0.0589161,0.7977905,0.0394402,1.1348267,0.2947731
	c0.3372955,0.2555885,0.5346527,0.5933952,0.5921783,1.0137329c0.0575867,0.4204941-0.0413361,0.7993641-0.2966766,1.1363983
	c-0.2554779,0.3370895-0.5927277,0.5340633-1.0119324,0.5908184
	C134.210495,22.5256081,133.8324127,22.4263992,133.4953766,22.1710663z"/>
<line fill="none" stroke="#D3E6EA" stroke-width="0.75" x1="131.3891754" y1="14.1150217" x2="136.9065857" y2="14.1150217"/>
<line fill="none" stroke="#D3E6EA" stroke-width="0.75" x1="136.3256683" y1="8.4967318" x2="138.2758789" y2="12.2873077"/>
<line fill="none" stroke="#D3E6EA" stroke-width="0.75" x1="137.9398041" y1="15.7570868" x2="135.2413483" y2="19.8985844"/>
<g>
	<path fill="#D3E6EA" d="M144.6083984,10.3378906h5.0263672v0.9902344h-3.9707031v2.3212891h3.6962891v0.9892578h-3.6962891
		v2.4970703h4.1689453v0.9902344h-5.2246094V10.3378906z"/>
	<path fill="#D3E6EA" d="M150.1738281,12.9121094h1.1445312l1.5615234,3.9931641l1.4960938-3.9931641h1.0556641
		l-2.0458984,5.2138672h-1.0888672L150.1738281,12.9121094z"/>
	<path fill="#D3E6EA" d="M156.7744141,15.8818359c0,0.2275391,0.0488281,0.4345703,0.1484375,0.6220703
		c0.0986328,0.1865234,0.2285156,0.3457031,0.390625,0.4785156c0.1611328,0.1318359,0.3476562,0.234375,0.5605469,0.3076172
		s0.4326172,0.1103516,0.6601562,0.1103516c0.3076172,0,0.5751953-0.0722656,0.8027344-0.2148438
		c0.2275391-0.1435547,0.4365234-0.3320312,0.6269531-0.5664062l0.7480469,0.5722656
		c-0.5498047,0.7109375-1.3203125,1.0664062-2.3095703,1.0664062c-0.4111328,0-0.7832031-0.0693359-1.1171875-0.2089844
		c-0.3330078-0.1386719-0.6152344-0.3320312-0.8466797-0.5771484c-0.2304688-0.2460938-0.4091797-0.5351562-0.5332031-0.8691406
		c-0.125-0.3339844-0.1875-0.6943359-0.1875-1.0839844c0-0.3886719,0.0683594-0.7490234,0.2041016-1.0830078
		s0.3222656-0.6230469,0.5605469-0.8691406c0.2382812-0.2451172,0.5224609-0.4384766,0.8525391-0.5771484
		c0.3300781-0.1396484,0.6894531-0.2089844,1.078125-0.2089844c0.4619141,0,0.8525391,0.0800781,1.171875,0.2421875
		c0.3183594,0.1611328,0.5810547,0.3720703,0.7861328,0.6318359c0.2050781,0.2607422,0.3535156,0.5537109,0.4453125,0.8798828
		c0.0917969,0.3271484,0.1376953,0.6582031,0.1376953,0.9960938v0.3515625H156.7744141z M159.8984375,15.0898438
		c-0.0078125-0.2197266-0.0429688-0.421875-0.1044922-0.6044922c-0.0625-0.1835938-0.15625-0.3427734-0.28125-0.4785156
		c-0.1240234-0.1357422-0.2802734-0.2421875-0.4667969-0.3193359c-0.1875-0.0771484-0.4052734-0.1152344-0.6552734-0.1152344
		c-0.2412109,0-0.4638672,0.0458984-0.6650391,0.1376953c-0.2021484,0.0908203-0.3720703,0.2099609-0.5117188,0.3574219
		c-0.1396484,0.1464844-0.2470703,0.3095703-0.3242188,0.4892578s-0.1152344,0.3574219-0.1152344,0.5332031H159.8984375z"/>
	<path fill="#D3E6EA" d="M161.8671875,12.9121094h0.9892578v0.8027344h0.0224609
		c0.125-0.2783203,0.3408203-0.5039062,0.6494141-0.6767578c0.3076172-0.171875,0.6630859-0.2578125,1.0664062-0.2578125
		c0.2490234,0,0.4892578,0.0380859,0.7207031,0.1152344s0.4326172,0.1962891,0.6044922,0.3574219
		c0.1728516,0.1611328,0.3105469,0.3681641,0.4130859,0.6210938c0.1025391,0.2539062,0.1542969,0.5527344,0.1542969,0.8964844
		v3.3554688h-0.9902344v-3.0800781c0-0.2421875-0.0332031-0.4492188-0.0996094-0.6210938
		c-0.0654297-0.1728516-0.1533203-0.3115234-0.2636719-0.4179688s-0.2363281-0.1835938-0.3789062-0.2314453
		c-0.1435547-0.0478516-0.2919922-0.0712891-0.4462891-0.0712891c-0.2050781,0-0.3955078,0.0332031-0.5712891,0.0986328
		c-0.1767578,0.0664062-0.3300781,0.1708984-0.4628906,0.3134766c-0.1318359,0.1435547-0.234375,0.3251953-0.3076172,0.5449219
		s-0.1103516,0.4804688-0.1103516,0.78125v2.6835938h-0.9892578V12.9121094z"/>
	<path fill="#D3E6EA" d="M170.5019531,13.7695312h-1.4189453v2.3652344c0,0.1474609,0.0039062,0.2919922,0.0107422,0.4345703
		c0.0078125,0.1435547,0.0351562,0.2714844,0.0830078,0.3847656c0.0478516,0.1142578,0.1210938,0.2060547,0.2197266,0.2753906
		c0.0996094,0.0693359,0.2441406,0.1044922,0.4345703,0.1044922c0.1171875,0,0.2382812-0.0107422,0.3632812-0.0332031
		c0.1240234-0.0214844,0.2382812-0.0625,0.3408203-0.1210938v0.9023438
		c-0.1171875,0.0664062-0.2695312,0.1113281-0.4560547,0.1376953c-0.1875,0.0253906-0.3320312,0.0380859-0.4345703,0.0380859
		c-0.3818359,0-0.6767578-0.0527344-0.8857422-0.1591797s-0.3632812-0.2441406-0.4619141-0.4130859
		c-0.0996094-0.1679688-0.1582031-0.3574219-0.1757812-0.5664062c-0.0185547-0.2089844-0.0283203-0.4189453-0.0283203-0.6318359
		v-2.7177734h-1.1435547v-0.8574219h1.1435547v-1.4628906h0.9902344v1.4628906h1.4189453V13.7695312z"/>
	<path fill="#D3E6EA" d="M174.2753906,14.2207031c-0.1171875-0.1464844-0.2626953-0.2695312-0.4345703-0.3681641
		c-0.1728516-0.0986328-0.3837891-0.1484375-0.6328125-0.1484375c-0.234375,0-0.4384766,0.0498047-0.6103516,0.1484375
		c-0.1728516,0.0986328-0.2587891,0.2441406-0.2587891,0.4345703c0,0.1542969,0.0498047,0.2783203,0.1484375,0.3740234
		c0.0996094,0.0957031,0.2167969,0.171875,0.3525391,0.2304688c0.1357422,0.0595703,0.2802734,0.1035156,0.4345703,0.1328125
		c0.1533203,0.0292969,0.2861328,0.0546875,0.3955078,0.0761719c0.2128906,0.0517578,0.4130859,0.1142578,0.5996094,0.1875
		c0.1875,0.0732422,0.3486328,0.1689453,0.484375,0.2861328s0.2421875,0.2597656,0.3183594,0.4287109
		c0.0771484,0.1689453,0.1162109,0.3740234,0.1162109,0.6162109c0,0.2929688-0.0625,0.5439453-0.1875,0.7529297
		s-0.2861328,0.3798828-0.4833984,0.5117188c-0.1982422,0.1318359-0.4238281,0.2275391-0.6767578,0.2861328
		s-0.5078125,0.0878906-0.7646484,0.0878906c-0.4326172,0-0.8125-0.0654297-1.1386719-0.1982422
		c-0.3261719-0.1318359-0.6181641-0.3740234-0.8740234-0.7255859l0.7480469-0.6162109
		c0.1611328,0.1611328,0.3408203,0.3046875,0.5390625,0.4296875c0.1972656,0.1240234,0.4394531,0.1865234,0.7255859,0.1865234
		c0.125,0,0.2509766-0.0126953,0.3798828-0.0380859c0.1279297-0.0263672,0.2412109-0.0664062,0.3408203-0.1210938
		c0.0986328-0.0556641,0.1796875-0.125,0.2421875-0.2089844c0.0615234-0.0849609,0.0927734-0.1816406,0.0927734-0.2919922
		c0-0.1464844-0.0458984-0.2675781-0.1376953-0.3632812c-0.0908203-0.0947266-0.2011719-0.1699219-0.3291016-0.2246094
		c-0.1289062-0.0556641-0.2646484-0.0996094-0.4072266-0.1328125c-0.1435547-0.0322266-0.2695312-0.0605469-0.3798828-0.0820312
		c-0.2128906-0.0517578-0.4140625-0.1103516-0.6044922-0.1757812c-0.1914062-0.0664062-0.359375-0.1542969-0.5058594-0.2646484
		c-0.1474609-0.109375-0.2646484-0.2490234-0.3525391-0.4179688c-0.0878906-0.1679688-0.1318359-0.3769531-0.1318359-0.6269531
		c0-0.2705078,0.0566406-0.5078125,0.1708984-0.7089844c0.1132812-0.2021484,0.2636719-0.3691406,0.4501953-0.5009766
		c0.1875-0.1318359,0.4003906-0.2304688,0.6386719-0.296875s0.4785156-0.0986328,0.7197266-0.0986328
		c0.3525391,0,0.6894531,0.0654297,1.0126953,0.1972656c0.3222656,0.1328125,0.5791016,0.3525391,0.7695312,0.6601562
		L174.2753906,14.2207031z"/>
</g>
<g>
</g>
<g>
</g>
<g>
</g>
<g>
</g>
<g>
</g>
<g>
</g>
<g>
</g>
<g>
</g>
<g>
</g>
<g>
</g>
<g>
</g>
<g>
</g>
<g>
</g>
<g>
</g>
<g>
</g>
</svg>
