<?xml version="1.0" encoding="UTF-8" standalone="no"?>
<!-- Created with Inkscape (http://www.inkscape.org/) -->

<svg
   xmlns:dc="http://purl.org/dc/elements/1.1/"
   xmlns:cc="http://creativecommons.org/ns#"
   xmlns:rdf="http://www.w3.org/1999/02/22-rdf-syntax-ns#"
   xmlns:svg="http://www.w3.org/2000/svg"
   xmlns="http://www.w3.org/2000/svg"
   xmlns:sodipodi="http://sodipodi.sourceforge.net/DTD/sodipodi-0.dtd"
   xmlns:inkscape="http://www.inkscape.org/namespaces/inkscape"
   version="1.1"
   id="svg2"
   xml:space="preserve"
   width="132.21635"
   height="36.958534"
   viewBox="0 0 132.21635 36.958533"
   sodipodi:docname="documentation-on.svg"
   inkscape:version="0.92.2 5c3e80d, 2017-08-06"
   inkscape:export-filename="/Users/adam/Dropbox/NMRBox/web-graphics/support-tab/documentation-on.png"
   inkscape:export-xdpi="198.99001"
   inkscape:export-ydpi="198.99001"><metadata
     id="metadata8"><rdf:RDF><cc:Work
         rdf:about=""><dc:format>image/svg+xml</dc:format><dc:type
           rdf:resource="http://purl.org/dc/dcmitype/StillImage" /><dc:title></dc:title></cc:Work></rdf:RDF></metadata><defs
     id="defs6"><clipPath
       clipPathUnits="userSpaceOnUse"
       id="clipPath22"><path
         d="M 0,40 H 240 V 0 H 0 Z"
         id="path20"
         inkscape:connector-curvature="0" /></clipPath><clipPath
       clipPathUnits="userSpaceOnUse"
       id="clipPath30"><path
         d="M 5.04681,34.8309 H 18.9691 V 18.7548 H 5.04681 Z"
         id="path28"
         inkscape:connector-curvature="0" /></clipPath><clipPath
       clipPathUnits="userSpaceOnUse"
       id="clipPath114"><path
         d="M 0,40 H 240 V 0 H 0 Z"
         id="path112"
         inkscape:connector-curvature="0" /></clipPath><clipPath
       clipPathUnits="userSpaceOnUse"
       id="clipPath122"><path
         d="m 125.026,34.8309 h 13.922 V 18.7548 h -13.922 z"
         id="path120"
         inkscape:connector-curvature="0" /></clipPath><clipPath
       clipPathUnits="userSpaceOnUse"
       id="clipPath22-2"><path
         d="M 0,40 H 240 V 0 H 0 Z"
         id="path20-5"
         inkscape:connector-curvature="0" /></clipPath><clipPath
       clipPathUnits="userSpaceOnUse"
       id="clipPath30-4"><path
         d="M 5.04681,34.8309 H 18.9691 V 18.7548 H 5.04681 Z"
         id="path28-2"
         inkscape:connector-curvature="0" /></clipPath><clipPath
       clipPathUnits="userSpaceOnUse"
       id="clipPath22-7"><path
         d="M 0,40 H 240 V 0 H 0 Z"
         id="path20-8"
         inkscape:connector-curvature="0" /></clipPath><clipPath
       clipPathUnits="userSpaceOnUse"
       id="clipPath30-1"><path
         d="M 5.04681,34.8309 H 18.9691 V 18.7548 H 5.04681 Z"
         id="path28-7"
         inkscape:connector-curvature="0" /></clipPath><clipPath
       clipPathUnits="userSpaceOnUse"
       id="clipPath22-74"><path
         d="M 0,40 H 240 V 0 H 0 Z"
         id="path20-9"
         inkscape:connector-curvature="0" /></clipPath><clipPath
       clipPathUnits="userSpaceOnUse"
       id="clipPath30-6"><path
         d="M 5.04681,34.8309 H 18.9691 V 18.7548 H 5.04681 Z"
         id="path28-9"
         inkscape:connector-curvature="0" /></clipPath><clipPath
       clipPathUnits="userSpaceOnUse"
       id="clipPath30-5"><path
         d="M 5.04681,34.8309 H 18.9691 V 18.7548 H 5.04681 Z"
         id="path28-6"
         inkscape:connector-curvature="0" /></clipPath><clipPath
       clipPathUnits="userSpaceOnUse"
       id="clipPath18"><path
         d="M 0,40 H 240 V 0 H 0 Z"
         id="path16"
         inkscape:connector-curvature="0" /></clipPath><clipPath
       clipPathUnits="userSpaceOnUse"
       id="clipPath30-64"><path
         d="M 5.04681,34.8309 H 18.9691 V 18.7548 H 5.04681 Z"
         id="path28-92"
         inkscape:connector-curvature="0" /></clipPath></defs><sodipodi:namedview
     pagecolor="#007e99"
     bordercolor="#666666"
     borderopacity="1"
     objecttolerance="10"
     gridtolerance="10"
     guidetolerance="10"
     inkscape:pageopacity="0"
     inkscape:pageshadow="2"
     inkscape:window-width="2313"
     inkscape:window-height="1293"
     id="namedview4"
     showgrid="false"
     fit-margin-top="2"
     fit-margin-left="2"
     fit-margin-right="2"
     fit-margin-bottom="2"
     inkscape:zoom="11.708083"
     inkscape:cx="14.776118"
     inkscape:cy="18.479267"
     inkscape:window-x="139"
     inkscape:window-y="78"
     inkscape:window-maximized="0"
     inkscape:current-layer="g10"
     inkscape:pagecheckerboard="true" /><g
     id="g10"
     inkscape:groupmode="layer"
     inkscape:label="team-icon-about-240x40"
     transform="matrix(1.3333333,0,0,-1.3333333,-3.164528,54.224532)"><g
       aria-label="Documentation"
       transform="scale(1,-1)"
       style="font-style:normal;font-variant:normal;font-weight:normal;font-stretch:normal;font-size:16.875px;line-height:125%;font-family:sans-serif;-inkscape-font-specification:'sans-serif, Normal';text-align:start;letter-spacing:0px;word-spacing:0px;writing-mode:lr-tb;text-anchor:start;fill:#d3e6ea;fill-opacity:1;stroke:none;stroke-width:0.75px;stroke-linecap:butt;stroke-linejoin:miter;stroke-opacity:1"
       id="text1003-2-8"><path
         d="m 28.366096,-30.329 h 2.717 q 0.825,0 1.441,0.187 0.627,0.187 1.078,0.506 0.462,0.308 0.759,0.715 0.308,0.407 0.484,0.836 0.176,0.429 0.253,0.858 0.077,0.429 0.077,0.792 0,0.748 -0.275,1.452 -0.275,0.693 -0.814,1.243 -0.539,0.539 -1.342,0.869 -0.792,0.33 -1.837,0.33 h -2.541 z m 1.056,6.798 h 1.331 q 0.671,0 1.265,-0.176 0.605,-0.187 1.056,-0.55 0.451,-0.363 0.715,-0.902 0.264,-0.55 0.264,-1.276 0,-0.374 -0.121,-0.869 -0.121,-0.506 -0.462,-0.957 -0.33,-0.451 -0.924,-0.759 -0.594,-0.319 -1.54,-0.319 h -1.584 z"
         style="font-style:normal;font-variant:normal;font-weight:500;font-stretch:normal;font-size:11px;font-family:Avenir;-inkscape-font-specification:'Avenir, Medium';font-variant-ligatures:normal;font-variant-caps:normal;font-variant-numeric:normal;font-feature-settings:normal;text-align:start;letter-spacing:-0.30000001px;writing-mode:lr-tb;text-anchor:start;fill:#d3e6ea;fill-opacity:1;stroke-width:0.75px"
         id="path879" /><path
         d="m 36.934674,-25.148 q 0,0.396 0.121,0.737 0.121,0.33 0.341,0.572 0.22,0.231 0.539,0.374 0.319,0.132 0.715,0.132 0.396,0 0.715,-0.132 0.319,-0.143 0.539,-0.374 0.22,-0.242 0.341,-0.572 0.121,-0.341 0.121,-0.737 0,-0.396 -0.121,-0.726 -0.121,-0.341 -0.341,-0.572 -0.22,-0.242 -0.539,-0.374 -0.319,-0.143 -0.715,-0.143 -0.396,0 -0.715,0.143 -0.319,0.132 -0.539,0.374 -0.22,0.231 -0.341,0.572 -0.121,0.33 -0.121,0.726 z m -1.056,0 q 0,-0.572 0.209,-1.067 0.22,-0.495 0.594,-0.869 0.374,-0.374 0.88,-0.583 0.506,-0.22 1.089,-0.22 0.583,0 1.089,0.22 0.506,0.209 0.88,0.583 0.374,0.374 0.583,0.869 0.22,0.495 0.22,1.067 0,0.572 -0.22,1.078 -0.209,0.495 -0.583,0.869 -0.374,0.363 -0.88,0.583 -0.506,0.209 -1.089,0.209 -0.583,0 -1.089,-0.209 -0.506,-0.22 -0.88,-0.583 -0.374,-0.374 -0.594,-0.869 -0.209,-0.506 -0.209,-1.078 z"
         style="font-style:normal;font-variant:normal;font-weight:500;font-stretch:normal;font-size:11px;font-family:Avenir;-inkscape-font-specification:'Avenir, Medium';font-variant-ligatures:normal;font-variant-caps:normal;font-variant-numeric:normal;font-feature-settings:normal;text-align:start;letter-spacing:-0.30000001px;writing-mode:lr-tb;text-anchor:start;fill:#d3e6ea;fill-opacity:1;stroke-width:0.75px"
         id="path881" /><path
         d="m 46.091923,-26.369 q -0.275,-0.286 -0.583,-0.429 -0.297,-0.154 -0.715,-0.154 -0.407,0 -0.715,0.154 -0.297,0.143 -0.506,0.407 -0.198,0.253 -0.308,0.594 -0.099,0.33 -0.099,0.693 0,0.363 0.121,0.693 0.121,0.319 0.341,0.561 0.22,0.242 0.528,0.385 0.308,0.132 0.693,0.132 0.418,0 0.715,-0.143 0.297,-0.154 0.55,-0.44 l 0.704,0.704 q -0.385,0.429 -0.902,0.616 -0.506,0.187 -1.078,0.187 -0.605,0 -1.111,-0.198 -0.495,-0.198 -0.858,-0.55 -0.363,-0.363 -0.561,-0.858 -0.198,-0.506 -0.198,-1.111 0,-0.605 0.198,-1.111 0.198,-0.506 0.55,-0.869 0.363,-0.363 0.858,-0.561 0.506,-0.209 1.122,-0.209 0.572,0 1.089,0.209 0.528,0.198 0.913,0.616 z"
         style="font-style:normal;font-variant:normal;font-weight:500;font-stretch:normal;font-size:11px;font-family:Avenir;-inkscape-font-specification:'Avenir, Medium';font-variant-ligatures:normal;font-variant-caps:normal;font-variant-numeric:normal;font-feature-settings:normal;text-align:start;letter-spacing:-0.30000001px;writing-mode:lr-tb;text-anchor:start;fill:#d3e6ea;fill-opacity:1;stroke-width:0.75px"
         id="path883" /><path
         d="m 51.989565,-22.541 h -0.99 v -0.803 h -0.022 q -0.187,0.418 -0.649,0.682 -0.462,0.253 -1.067,0.253 -0.385,0 -0.726,-0.121 -0.341,-0.11 -0.605,-0.352 -0.253,-0.242 -0.407,-0.616 -0.154,-0.385 -0.154,-0.902 v -3.355 h 0.99 v 3.08 q 0,0.363 0.099,0.627 0.099,0.253 0.264,0.418 0.165,0.154 0.374,0.231 0.22,0.066 0.451,0.066 0.308,0 0.572,-0.099 0.264,-0.099 0.462,-0.308 0.198,-0.22 0.308,-0.55 0.11,-0.33 0.11,-0.781 v -2.684 h 0.99 z"
         style="font-style:normal;font-variant:normal;font-weight:500;font-stretch:normal;font-size:11px;font-family:Avenir;-inkscape-font-specification:'Avenir, Medium';font-variant-ligatures:normal;font-variant-caps:normal;font-variant-numeric:normal;font-feature-settings:normal;text-align:start;letter-spacing:-0.30000001px;writing-mode:lr-tb;text-anchor:start;fill:#d3e6ea;fill-opacity:1;stroke-width:0.75px"
         id="path885" /><path
         d="m 53.192611,-27.755 h 0.924 v 0.814 h 0.022 q 0.033,-0.11 0.165,-0.275 0.143,-0.165 0.352,-0.308 0.22,-0.154 0.506,-0.253 0.297,-0.11 0.649,-0.11 0.583,0 0.979,0.242 0.396,0.242 0.649,0.726 0.253,-0.484 0.715,-0.726 0.462,-0.242 0.935,-0.242 0.605,0 0.99,0.198 0.385,0.198 0.605,0.528 0.22,0.319 0.297,0.737 0.088,0.407 0.088,0.847 v 3.036 h -0.99 v -2.904 q 0,-0.297 -0.044,-0.572 -0.033,-0.275 -0.154,-0.484 -0.121,-0.209 -0.341,-0.33 -0.22,-0.132 -0.583,-0.132 -0.715,0 -1.023,0.44 -0.308,0.44 -0.308,1.133 v 2.849 h -0.99 v -2.728 q 0,-0.374 -0.044,-0.682 -0.033,-0.308 -0.154,-0.528 -0.11,-0.231 -0.33,-0.352 -0.209,-0.132 -0.572,-0.132 -0.264,0 -0.517,0.11 -0.242,0.099 -0.429,0.308 -0.187,0.209 -0.297,0.539 -0.11,0.319 -0.11,0.759 v 2.706 h -0.99 z"
         style="font-style:normal;font-variant:normal;font-weight:500;font-stretch:normal;font-size:11px;font-family:Avenir;-inkscape-font-specification:'Avenir, Medium';font-variant-ligatures:normal;font-variant-caps:normal;font-variant-numeric:normal;font-feature-settings:normal;text-align:start;letter-spacing:-0.30000001px;writing-mode:lr-tb;text-anchor:start;fill:#d3e6ea;fill-opacity:1;stroke-width:0.75px"
         id="path887" /><path
         d="m 63.007799,-24.785 q 0,0.341 0.143,0.627 0.154,0.275 0.396,0.473 0.242,0.198 0.561,0.308 0.319,0.11 0.66,0.11 0.462,0 0.803,-0.209 0.341,-0.22 0.627,-0.572 l 0.748,0.572 q -0.825,1.067 -2.31,1.067 -0.616,0 -1.122,-0.209 -0.495,-0.209 -0.847,-0.572 -0.341,-0.374 -0.528,-0.869 -0.187,-0.506 -0.187,-1.089 0,-0.583 0.198,-1.078 0.209,-0.506 0.561,-0.869 0.363,-0.374 0.858,-0.583 0.495,-0.209 1.078,-0.209 0.693,0 1.166,0.242 0.484,0.242 0.792,0.638 0.308,0.385 0.44,0.88 0.143,0.484 0.143,0.99 v 0.352 z m 3.124,-0.792 q -0.011,-0.33 -0.11,-0.605 -0.088,-0.275 -0.275,-0.473 -0.187,-0.209 -0.473,-0.319 -0.275,-0.121 -0.649,-0.121 -0.363,0 -0.671,0.143 -0.297,0.132 -0.506,0.352 -0.209,0.22 -0.33,0.495 -0.11,0.264 -0.11,0.528 z"
         style="font-style:normal;font-variant:normal;font-weight:500;font-stretch:normal;font-size:11px;font-family:Avenir;-inkscape-font-specification:'Avenir, Medium';font-variant-ligatures:normal;font-variant-caps:normal;font-variant-numeric:normal;font-feature-settings:normal;text-align:start;letter-spacing:-0.30000001px;writing-mode:lr-tb;text-anchor:start;fill:#d3e6ea;fill-opacity:1;stroke-width:0.75px"
         id="path889" /><path
         d="m 68.082846,-27.755 h 0.99 v 0.803 h 0.022 q 0.187,-0.418 0.649,-0.671 0.462,-0.264 1.067,-0.264 0.374,0 0.715,0.121 0.352,0.11 0.605,0.352 0.264,0.242 0.418,0.627 0.154,0.374 0.154,0.891 v 3.355 h -0.99 v -3.08 q 0,-0.363 -0.099,-0.616 -0.099,-0.264 -0.264,-0.418 -0.165,-0.165 -0.385,-0.231 -0.209,-0.077 -0.44,-0.077 -0.308,0 -0.572,0.099 -0.264,0.099 -0.462,0.319 -0.198,0.209 -0.308,0.539 -0.11,0.33 -0.11,0.781 v 2.684 h -0.99 z"
         style="font-style:normal;font-variant:normal;font-weight:500;font-stretch:normal;font-size:11px;font-family:Avenir;-inkscape-font-specification:'Avenir, Medium';font-variant-ligatures:normal;font-variant-caps:normal;font-variant-numeric:normal;font-feature-settings:normal;text-align:start;letter-spacing:-0.30000001px;writing-mode:lr-tb;text-anchor:start;fill:#d3e6ea;fill-opacity:1;stroke-width:0.75px"
         id="path891" /><path
         d="m 76.699894,-26.897 h -1.419 v 2.365 q 0,0.22 0.011,0.44 0.011,0.209 0.077,0.385 0.077,0.165 0.22,0.275 0.154,0.099 0.44,0.099 0.176,0 0.363,-0.033 0.187,-0.033 0.341,-0.121 v 0.902 q -0.176,0.099 -0.462,0.132 -0.275,0.044 -0.429,0.044 -0.572,0 -0.891,-0.154 -0.308,-0.165 -0.462,-0.418 -0.143,-0.253 -0.176,-0.561 -0.022,-0.319 -0.022,-0.638 v -2.717 h -1.144 v -0.858 h 1.144 v -1.463 h 0.99 v 1.463 h 1.419 z"
         style="font-style:normal;font-variant:normal;font-weight:500;font-stretch:normal;font-size:11px;font-family:Avenir;-inkscape-font-specification:'Avenir, Medium';font-variant-ligatures:normal;font-variant-caps:normal;font-variant-numeric:normal;font-feature-settings:normal;text-align:start;letter-spacing:-0.30000001px;writing-mode:lr-tb;text-anchor:start;fill:#d3e6ea;fill-opacity:1;stroke-width:0.75px"
         id="path893" /><path
         d="m 77.688438,-27.117 q 0.418,-0.385 0.968,-0.572 0.55,-0.198 1.1,-0.198 0.572,0 0.979,0.143 0.418,0.143 0.682,0.385 0.264,0.242 0.385,0.561 0.132,0.308 0.132,0.649 v 2.662 q 0,0.275 0.011,0.506 0.011,0.231 0.033,0.44 h -0.88 q -0.033,-0.396 -0.033,-0.792 h -0.022 q -0.33,0.506 -0.781,0.715 -0.451,0.209 -1.045,0.209 -0.363,0 -0.693,-0.099 -0.33,-0.099 -0.583,-0.297 -0.242,-0.198 -0.385,-0.484 -0.143,-0.297 -0.143,-0.682 0,-0.506 0.22,-0.847 0.231,-0.341 0.616,-0.55 0.396,-0.22 0.913,-0.308 0.528,-0.099 1.122,-0.099 h 0.726 v -0.22 q 0,-0.198 -0.077,-0.396 -0.077,-0.198 -0.231,-0.352 -0.154,-0.165 -0.385,-0.253 -0.231,-0.099 -0.55,-0.099 -0.286,0 -0.506,0.055 -0.209,0.055 -0.385,0.143 -0.176,0.077 -0.319,0.187 -0.143,0.11 -0.275,0.209 z m 2.794,2.068 q -0.352,0 -0.726,0.044 -0.363,0.033 -0.671,0.143 -0.297,0.11 -0.495,0.308 -0.187,0.198 -0.187,0.506 0,0.451 0.297,0.649 0.308,0.198 0.825,0.198 0.407,0 0.693,-0.132 0.286,-0.143 0.462,-0.363 0.176,-0.22 0.253,-0.484 0.077,-0.275 0.077,-0.539 v -0.33 z"
         style="font-style:normal;font-variant:normal;font-weight:500;font-stretch:normal;font-size:11px;font-family:Avenir;-inkscape-font-specification:'Avenir, Medium';font-variant-ligatures:normal;font-variant-caps:normal;font-variant-numeric:normal;font-feature-settings:normal;text-align:start;letter-spacing:-0.30000001px;writing-mode:lr-tb;text-anchor:start;fill:#d3e6ea;fill-opacity:1;stroke-width:0.75px"
         id="path895" /><path
         d="m 85.875282,-26.897 h -1.419 v 2.365 q 0,0.22 0.011,0.44 0.011,0.209 0.077,0.385 0.077,0.165 0.22,0.275 0.154,0.099 0.44,0.099 0.176,0 0.363,-0.033 0.187,-0.033 0.341,-0.121 v 0.902 q -0.176,0.099 -0.462,0.132 -0.275,0.044 -0.429,0.044 -0.572,0 -0.891,-0.154 -0.308,-0.165 -0.462,-0.418 -0.143,-0.253 -0.176,-0.561 -0.022,-0.319 -0.022,-0.638 v -2.717 h -1.144 v -0.858 h 1.144 v -1.463 h 0.99 v 1.463 h 1.419 z"
         style="font-style:normal;font-variant:normal;font-weight:500;font-stretch:normal;font-size:11px;font-family:Avenir;-inkscape-font-specification:'Avenir, Medium';font-variant-ligatures:normal;font-variant-caps:normal;font-variant-numeric:normal;font-feature-settings:normal;text-align:start;letter-spacing:-0.30000001px;writing-mode:lr-tb;text-anchor:start;fill:#d3e6ea;fill-opacity:1;stroke-width:0.75px"
         id="path897" /><path
         d="m 86.91883,-27.755 h 0.99 v 5.214 h -0.99 z m -0.231,-1.87 q 0,-0.297 0.209,-0.506 0.22,-0.22 0.517,-0.22 0.297,0 0.506,0.22 0.22,0.209 0.22,0.506 0,0.297 -0.22,0.517 -0.209,0.209 -0.506,0.209 -0.297,0 -0.517,-0.209 -0.209,-0.22 -0.209,-0.517 z"
         style="font-style:normal;font-variant:normal;font-weight:500;font-stretch:normal;font-size:11px;font-family:Avenir;-inkscape-font-specification:'Avenir, Medium';font-variant-ligatures:normal;font-variant-caps:normal;font-variant-numeric:normal;font-feature-settings:normal;text-align:start;letter-spacing:-0.30000001px;writing-mode:lr-tb;text-anchor:start;fill:#d3e6ea;fill-opacity:1;stroke-width:0.75px"
         id="path899" /><path
         d="m 89.987409,-25.148 q 0,0.396 0.121,0.737 0.121,0.33 0.341,0.572 0.22,0.231 0.539,0.374 0.319,0.132 0.715,0.132 0.396,0 0.715,-0.132 0.319,-0.143 0.539,-0.374 0.22,-0.242 0.341,-0.572 0.121,-0.341 0.121,-0.737 0,-0.396 -0.121,-0.726 -0.121,-0.341 -0.341,-0.572 -0.22,-0.242 -0.539,-0.374 -0.319,-0.143 -0.715,-0.143 -0.396,0 -0.715,0.143 -0.319,0.132 -0.539,0.374 -0.22,0.231 -0.341,0.572 -0.121,0.33 -0.121,0.726 z m -1.056,0 q 0,-0.572 0.209,-1.067 0.22,-0.495 0.594,-0.869 0.374,-0.374 0.88,-0.583 0.506,-0.22 1.089,-0.22 0.583,0 1.089,0.22 0.506,0.209 0.88,0.583 0.374,0.374 0.583,0.869 0.22,0.495 0.22,1.067 0,0.572 -0.22,1.078 -0.209,0.495 -0.583,0.869 -0.374,0.363 -0.88,0.583 -0.506,0.209 -1.089,0.209 -0.583,0 -1.089,-0.209 -0.506,-0.22 -0.88,-0.583 -0.374,-0.374 -0.594,-0.869 -0.209,-0.506 -0.209,-1.078 z"
         style="font-style:normal;font-variant:normal;font-weight:500;font-stretch:normal;font-size:11px;font-family:Avenir;-inkscape-font-specification:'Avenir, Medium';font-variant-ligatures:normal;font-variant-caps:normal;font-variant-numeric:normal;font-feature-settings:normal;text-align:start;letter-spacing:-0.30000001px;writing-mode:lr-tb;text-anchor:start;fill:#d3e6ea;fill-opacity:1;stroke-width:0.75px"
         id="path901" /><path
         d="m 95.41566,-27.755 h 0.99 v 0.803 h 0.022 q 0.187,-0.418 0.649,-0.671 0.462,-0.264 1.067,-0.264 0.374,0 0.715,0.121 0.352,0.11 0.605,0.352 0.264,0.242 0.418,0.627 0.154,0.374 0.154,0.891 v 3.355 h -0.99 v -3.08 q 0,-0.363 -0.099,-0.616 -0.099,-0.264 -0.264,-0.418 -0.165,-0.165 -0.385,-0.231 -0.209,-0.077 -0.44,-0.077 -0.308,0 -0.572,0.099 -0.264,0.099 -0.462,0.319 -0.198,0.209 -0.308,0.539 -0.11,0.33 -0.11,0.781 v 2.684 h -0.99 z"
         style="font-style:normal;font-variant:normal;font-weight:500;font-stretch:normal;font-size:11px;font-family:Avenir;-inkscape-font-specification:'Avenir, Medium';font-variant-ligatures:normal;font-variant-caps:normal;font-variant-numeric:normal;font-feature-settings:normal;text-align:start;letter-spacing:-0.30000001px;writing-mode:lr-tb;text-anchor:start;fill:#d3e6ea;fill-opacity:1;stroke-width:0.75px"
         id="path903" /></g><g
       id="g1072"><g
         transform="translate(3.1230961)"
         id="g24"
         style="fill:#03f3f9;fill-opacity:0.99215686"><g
           id="g26"
           style="fill:#03f3f9;fill-opacity:0.99215686" /><g
           id="g38"
           style="fill:#03f3f9;fill-opacity:0.99215686"><g
             style="opacity:0.99000501;fill:#03f3f9;fill-opacity:0.99215686"
             id="g36"
             clip-path="url(#clipPath30)"><g
               id="g34"
               transform="translate(5.0468,30.8119)"
               style="fill:#03f3f9;fill-opacity:0.99215686"><path
                 inkscape:connector-curvature="0"
                 id="path32"
                 style="fill:#03f3f9;fill-opacity:0.99215686;fill-rule:nonzero;stroke:none"
                 d="M 0,0 6.961,4.019 13.922,0 V -8.038 L 6.961,-12.057 0,-8.038 Z" /></g></g></g></g><g
         transform="translate(16.926896,37.1714)"
         id="g40"><path
           inkscape:connector-curvature="0"
           id="path42"
           style="fill:none;stroke:#000000;stroke-width:0.5;stroke-linecap:butt;stroke-linejoin:miter;stroke-miterlimit:10;stroke-dasharray:none;stroke-opacity:1"
           d="m 0,0 c 0,-0.965 -0.782,-1.747 -1.747,-1.747 -0.964,0 -1.746,0.782 -1.746,1.747 0,0.965 0.782,1.747 1.746,1.747 C -0.782,1.747 0,0.965 0,0 Z" /></g><g
         transform="translate(16.926896,26.8398)"
         id="g44"><path
           inkscape:connector-curvature="0"
           id="path46"
           style="fill:none;stroke:#000000;stroke-width:0.5;stroke-linecap:butt;stroke-linejoin:miter;stroke-miterlimit:10;stroke-dasharray:none;stroke-opacity:1"
           d="m 0,0 c 0,-0.965 -0.782,-1.747 -1.747,-1.747 -0.964,0 -1.746,0.782 -1.746,1.747 0,0.965 0.782,1.747 1.746,1.747 C -0.782,1.747 0,0.965 0,0 Z" /></g><g
         transform="translate(16.926896,16.4465)"
         id="g48"><path
           inkscape:connector-curvature="0"
           id="path50"
           style="fill:none;stroke:#000000;stroke-width:0.5;stroke-linecap:butt;stroke-linejoin:miter;stroke-miterlimit:10;stroke-dasharray:none;stroke-opacity:1"
           d="m 0,0 c 0,-0.965 -0.782,-1.747 -1.747,-1.747 -0.964,0 -1.746,0.782 -1.746,1.747 0,0.965 0.782,1.747 1.746,1.747 C -0.782,1.747 0,0.965 0,0 Z" /></g><g
         transform="translate(7.6163961,21.529)"
         id="g52"><path
           inkscape:connector-curvature="0"
           id="path54"
           style="fill:none;stroke:#000000;stroke-width:0.5;stroke-linecap:butt;stroke-linejoin:miter;stroke-miterlimit:10;stroke-dasharray:none;stroke-opacity:1"
           d="m 0,0 c 0,-0.965 -0.782,-1.747 -1.747,-1.747 -0.964,0 -1.746,0.782 -1.746,1.747 0,0.965 0.782,1.747 1.746,1.747 C -0.782,1.747 0,0.965 0,0 Z" /></g><g
         transform="translate(7.6163961,31.8606)"
         id="g56"><path
           inkscape:connector-curvature="0"
           id="path58"
           style="fill:none;stroke:#000000;stroke-width:0.5;stroke-linecap:butt;stroke-linejoin:miter;stroke-miterlimit:10;stroke-dasharray:none;stroke-opacity:1"
           d="m 0,0 c 0,-0.965 -0.782,-1.747 -1.747,-1.747 -0.964,0 -1.746,0.782 -1.746,1.747 0,0.965 0.782,1.747 1.746,1.747 C -0.782,1.747 0,0.965 0,0 Z" /></g><g
         transform="translate(26.272496,21.529)"
         id="g60"><path
           inkscape:connector-curvature="0"
           id="path62"
           style="fill:none;stroke:#000000;stroke-width:0.5;stroke-linecap:butt;stroke-linejoin:miter;stroke-miterlimit:10;stroke-dasharray:none;stroke-opacity:1"
           d="m 0,0 c 0,-0.965 -0.782,-1.747 -1.747,-1.747 -0.964,0 -1.746,0.782 -1.746,1.747 0,0.965 0.782,1.747 1.746,1.747 C -0.782,1.747 0,0.965 0,0 Z" /></g><g
         transform="translate(26.272496,31.8606)"
         id="g64"><path
           inkscape:connector-curvature="0"
           id="path66"
           style="fill:none;stroke:#000000;stroke-width:0.5;stroke-linecap:butt;stroke-linejoin:miter;stroke-miterlimit:10;stroke-dasharray:none;stroke-opacity:1"
           d="m 0,0 c 0,-0.965 -0.782,-1.747 -1.747,-1.747 -0.964,0 -1.746,0.782 -1.746,1.747 0,0.965 0.782,1.747 1.746,1.747 C -0.782,1.747 0,0.965 0,0 Z" /></g><g
         transform="translate(24.638796,29.4605)"
         id="g68"><path
           inkscape:connector-curvature="0"
           id="path70"
           style="fill:none;stroke:#000000;stroke-width:0.5;stroke-linecap:butt;stroke-linejoin:miter;stroke-miterlimit:10;stroke-dasharray:0.791, 0.791;stroke-dashoffset:0;stroke-opacity:1"
           d="M 0,0 V -6.211" /></g><g
         transform="translate(5.8471961,29.4605)"
         id="g72"><path
           inkscape:connector-curvature="0"
           id="path74"
           style="fill:none;stroke:#000000;stroke-width:0.5;stroke-linecap:butt;stroke-linejoin:miter;stroke-miterlimit:10;stroke-dasharray:0.791, 0.791;stroke-dashoffset:0;stroke-opacity:1"
           d="M 0,0 V -6.211" /></g><g
         transform="translate(15.263796,24.3331)"
         id="g76"><path
           inkscape:connector-curvature="0"
           id="path78"
           style="fill:none;stroke:#000000;stroke-width:0.5;stroke-linecap:butt;stroke-linejoin:miter;stroke-miterlimit:10;stroke-dasharray:0.791, 0.791;stroke-dashoffset:0;stroke-opacity:1"
           d="M 0,0 V -6.211" /></g><g
         transform="translate(7.4194961,32.7821)"
         id="g80"><path
           inkscape:connector-curvature="0"
           id="path82"
           style="fill:none;stroke:#000000;stroke-width:0.5;stroke-linecap:butt;stroke-linejoin:miter;stroke-miterlimit:10;stroke-dasharray:none;stroke-opacity:1"
           d="M 0,0 6.21,3.582" /></g><g
         transform="translate(16.696096,17.2954)"
         id="g84"><path
           inkscape:connector-curvature="0"
           id="path86"
           style="fill:none;stroke:#000000;stroke-width:0.5;stroke-linecap:butt;stroke-linejoin:miter;stroke-miterlimit:10;stroke-dasharray:0.787, 0.787;stroke-dashoffset:0;stroke-opacity:1"
           d="M 0,0 6.262,3.427" /></g><g
         transform="translate(7.4452961,20.671)"
         id="g88"><path
           inkscape:connector-curvature="0"
           id="path90"
           style="fill:none;stroke:#000000;stroke-width:0.5;stroke-linecap:butt;stroke-linejoin:miter;stroke-miterlimit:10;stroke-dasharray:0.787, 0.787;stroke-dashoffset:0;stroke-opacity:1"
           d="M 0,0 6.236,-3.376" /></g><g
         transform="translate(16.721796,36.3123)"
         id="g92"><path
           inkscape:connector-curvature="0"
           id="path94"
           style="fill:none;stroke:#000000;stroke-width:0.5;stroke-linecap:butt;stroke-linejoin:miter;stroke-miterlimit:10;stroke-dasharray:none;stroke-opacity:1"
           d="M 0,0 6.313,-3.608" /></g><g
         transform="translate(7.3937961,30.9654)"
         id="g96"><path
           inkscape:connector-curvature="0"
           id="path98"
           style="fill:none;stroke:#000000;stroke-width:0.5;stroke-linecap:butt;stroke-linejoin:miter;stroke-miterlimit:10;stroke-dasharray:none;stroke-opacity:1"
           d="M 0,0 6.184,-3.324" /></g><g
         transform="translate(16.708896,27.68)"
         id="g100"><path
           inkscape:connector-curvature="0"
           id="path102"
           style="fill:none;stroke:#000000;stroke-width:0.5;stroke-linecap:butt;stroke-linejoin:miter;stroke-miterlimit:10;stroke-dasharray:none;stroke-opacity:1"
           d="M 0,0 6.3,3.363" /></g></g></g></svg>