<?xml version="1.0" encoding="UTF-8" standalone="no"?>
<!-- Created with Inkscape (http://www.inkscape.org/) -->

<svg
   xmlns:dc="http://purl.org/dc/elements/1.1/"
   xmlns:cc="http://creativecommons.org/ns#"
   xmlns:rdf="http://www.w3.org/1999/02/22-rdf-syntax-ns#"
   xmlns:svg="http://www.w3.org/2000/svg"
   xmlns="http://www.w3.org/2000/svg"
   xmlns:sodipodi="http://sodipodi.sourceforge.net/DTD/sodipodi-0.dtd"
   xmlns:inkscape="http://www.inkscape.org/namespaces/inkscape"
   version="1.1"
   id="svg2"
   xml:space="preserve"
   width="70.403015"
   height="36.958534"
   viewBox="0 0 70.403013 36.958533"
   sodipodi:docname="FAQ-on-black.svg"
   inkscape:version="0.92.2 5c3e80d, 2017-08-06"
   inkscape:export-filename="/Users/adam/Dropbox/NMRBox/web-graphics/support-tab/FAQ-on.png"
   inkscape:export-xdpi="198.99001"
   inkscape:export-ydpi="198.99001"><metadata
     id="metadata8"><rdf:RDF><cc:Work
         rdf:about=""><dc:format>image/svg+xml</dc:format><dc:type
           rdf:resource="http://purl.org/dc/dcmitype/StillImage" /><dc:title></dc:title></cc:Work></rdf:RDF></metadata><defs
     id="defs6"><clipPath
       clipPathUnits="userSpaceOnUse"
       id="clipPath22"><path
         d="M 0,40 H 240 V 0 H 0 Z"
         id="path20"
         inkscape:connector-curvature="0" /></clipPath><clipPath
       clipPathUnits="userSpaceOnUse"
       id="clipPath30"><path
         d="M 5.04681,34.8309 H 18.9691 V 18.7548 H 5.04681 Z"
         id="path28"
         inkscape:connector-curvature="0" /></clipPath><clipPath
       clipPathUnits="userSpaceOnUse"
       id="clipPath114"><path
         d="M 0,40 H 240 V 0 H 0 Z"
         id="path112"
         inkscape:connector-curvature="0" /></clipPath><clipPath
       clipPathUnits="userSpaceOnUse"
       id="clipPath122"><path
         d="m 125.026,34.8309 h 13.922 V 18.7548 h -13.922 z"
         id="path120"
         inkscape:connector-curvature="0" /></clipPath><clipPath
       clipPathUnits="userSpaceOnUse"
       id="clipPath22-2"><path
         d="M 0,40 H 240 V 0 H 0 Z"
         id="path20-5"
         inkscape:connector-curvature="0" /></clipPath><clipPath
       clipPathUnits="userSpaceOnUse"
       id="clipPath30-4"><path
         d="M 5.04681,34.8309 H 18.9691 V 18.7548 H 5.04681 Z"
         id="path28-2"
         inkscape:connector-curvature="0" /></clipPath><clipPath
       clipPathUnits="userSpaceOnUse"
       id="clipPath22-7"><path
         d="M 0,40 H 240 V 0 H 0 Z"
         id="path20-8"
         inkscape:connector-curvature="0" /></clipPath><clipPath
       clipPathUnits="userSpaceOnUse"
       id="clipPath30-1"><path
         d="M 5.04681,34.8309 H 18.9691 V 18.7548 H 5.04681 Z"
         id="path28-7"
         inkscape:connector-curvature="0" /></clipPath><clipPath
       clipPathUnits="userSpaceOnUse"
       id="clipPath22-74"><path
         d="M 0,40 H 240 V 0 H 0 Z"
         id="path20-9"
         inkscape:connector-curvature="0" /></clipPath><clipPath
       clipPathUnits="userSpaceOnUse"
       id="clipPath30-6"><path
         d="M 5.04681,34.8309 H 18.9691 V 18.7548 H 5.04681 Z"
         id="path28-9"
         inkscape:connector-curvature="0" /></clipPath><clipPath
       clipPathUnits="userSpaceOnUse"
       id="clipPath30-5"><path
         d="M 5.04681,34.8309 H 18.9691 V 18.7548 H 5.04681 Z"
         id="path28-6"
         inkscape:connector-curvature="0" /></clipPath><clipPath
       clipPathUnits="userSpaceOnUse"
       id="clipPath18"><path
         d="M 0,40 H 240 V 0 H 0 Z"
         id="path16"
         inkscape:connector-curvature="0" /></clipPath><clipPath
       clipPathUnits="userSpaceOnUse"
       id="clipPath30-3"><path
         d="M 5.04681,34.8309 H 18.9691 V 18.7548 H 5.04681 Z"
         id="path28-5"
         inkscape:connector-curvature="0" /></clipPath></defs><sodipodi:namedview
     pagecolor="#007e99"
     bordercolor="#666666"
     borderopacity="1"
     objecttolerance="10"
     gridtolerance="10"
     guidetolerance="10"
     inkscape:pageopacity="0"
     inkscape:pageshadow="2"
     inkscape:window-width="2313"
     inkscape:window-height="1293"
     id="namedview4"
     showgrid="false"
     fit-margin-top="2"
     fit-margin-left="2"
     fit-margin-right="2"
     fit-margin-bottom="2"
     inkscape:zoom="11.708083"
     inkscape:cx="17.729668"
     inkscape:cy="18.479265"
     inkscape:window-x="44"
     inkscape:window-y="22"
     inkscape:window-maximized="0"
     inkscape:current-layer="g2045"
     inkscape:pagecheckerboard="true" /><g
     id="g10"
     inkscape:groupmode="layer"
     inkscape:label="team-icon-about-240x40"
     transform="matrix(1.3333333,0,0,-1.3333333,-3.164528,54.224532)"><g
       id="g2045"
       transform="translate(3.1230961)"><g
         aria-label="FAQs"
         transform="scale(1,-1)"
         style="font-style:normal;font-variant:normal;font-weight:normal;font-stretch:normal;font-size:16.875px;line-height:125%;font-family:sans-serif;-inkscape-font-specification:'sans-serif, Normal';text-align:start;letter-spacing:0px;word-spacing:0px;writing-mode:lr-tb;text-anchor:start;fill:#d3e6ea;fill-opacity:1;stroke:none;stroke-width:0.75px;stroke-linecap:butt;stroke-linejoin:miter;stroke-opacity:1"
         id="text1003-2-8"><path
           d="m 25.418999,-30.329 h 4.895 v 0.99 h -3.839 v 2.442 h 3.575 v 0.99 h -3.575 v 3.366 h -1.056 z"
           style="font-style:normal;font-variant:normal;font-weight:500;font-stretch:normal;font-size:11px;font-family:Avenir;-inkscape-font-specification:'Avenir, Medium';font-variant-ligatures:normal;font-variant-caps:normal;font-variant-numeric:normal;font-feature-settings:normal;text-align:start;letter-spacing:-0.30000001px;writing-mode:lr-tb;text-anchor:start;fill:#000000;fill-opacity:1;stroke-width:0.75px"
           id="path883" /><path
           d="m 33.275843,-30.329 h 0.957 l 3.333,7.788 h -1.232 l -0.781,-1.925 h -3.707 l -0.77,1.925 h -1.232 z m 1.892,4.939 -1.452,-3.575 h -0.022 l -1.474,3.575 z"
           style="font-style:normal;font-variant:normal;font-weight:500;font-stretch:normal;font-size:11px;font-family:Avenir;-inkscape-font-specification:'Avenir, Medium';font-variant-ligatures:normal;font-variant-caps:normal;font-variant-numeric:normal;font-feature-settings:normal;text-align:start;letter-spacing:-0.30000001px;writing-mode:lr-tb;text-anchor:start;fill:#000000;fill-opacity:1;stroke-width:0.75px"
           id="path885" /><path
           d="m 46.309218,-22.541 h -4.488 q -0.825,0 -1.562,-0.297 -0.737,-0.297 -1.287,-0.825 -0.55,-0.528 -0.869,-1.254 -0.319,-0.737 -0.319,-1.606 0,-0.858 0.308,-1.584 0.308,-0.737 0.847,-1.276 0.55,-0.539 1.276,-0.836 0.737,-0.308 1.595,-0.308 0.825,0 1.54,0.297 0.726,0.297 1.265,0.825 0.539,0.517 0.847,1.232 0.319,0.704 0.319,1.54 0,0.495 -0.121,0.979 -0.11,0.473 -0.341,0.891 -0.22,0.418 -0.561,0.748 -0.33,0.33 -0.759,0.528 v 0.022 h 2.31 z m -4.532,-0.99 q 0.638,0 1.166,-0.231 0.539,-0.242 0.913,-0.649 0.385,-0.418 0.594,-0.979 0.209,-0.561 0.209,-1.199 0,-0.616 -0.22,-1.155 -0.209,-0.539 -0.594,-0.935 -0.385,-0.396 -0.913,-0.627 -0.528,-0.231 -1.155,-0.231 -0.616,0 -1.144,0.231 -0.517,0.231 -0.902,0.627 -0.385,0.396 -0.605,0.935 -0.22,0.528 -0.22,1.133 0,0.638 0.209,1.199 0.209,0.561 0.583,0.979 0.385,0.418 0.913,0.66 0.528,0.242 1.166,0.242 z"
           style="font-style:normal;font-variant:normal;font-weight:500;font-stretch:normal;font-size:11px;font-family:Avenir;-inkscape-font-specification:'Avenir, Medium';font-variant-ligatures:normal;font-variant-caps:normal;font-variant-numeric:normal;font-feature-settings:normal;text-align:start;letter-spacing:-0.30000001px;writing-mode:lr-tb;text-anchor:start;fill:#000000;fill-opacity:1;stroke-width:0.75px"
           id="path887" /><path
           d="m 49.639562,-26.446 q -0.176,-0.22 -0.44,-0.363 -0.253,-0.154 -0.627,-0.154 -0.352,0 -0.616,0.154 -0.253,0.143 -0.253,0.429 0,0.231 0.143,0.374 0.154,0.143 0.352,0.231 0.209,0.088 0.44,0.132 0.231,0.044 0.396,0.077 0.319,0.077 0.594,0.187 0.286,0.11 0.484,0.286 0.209,0.176 0.319,0.429 0.121,0.253 0.121,0.616 0,0.44 -0.187,0.759 -0.187,0.308 -0.484,0.506 -0.297,0.198 -0.682,0.286 -0.374,0.088 -0.759,0.088 -0.649,0 -1.144,-0.198 -0.484,-0.198 -0.869,-0.726 l 0.748,-0.616 q 0.242,0.242 0.539,0.429 0.297,0.187 0.726,0.187 0.187,0 0.374,-0.033 0.198,-0.044 0.341,-0.121 0.154,-0.088 0.242,-0.209 0.099,-0.132 0.099,-0.297 0,-0.22 -0.143,-0.363 -0.132,-0.143 -0.33,-0.22 -0.187,-0.088 -0.407,-0.132 -0.209,-0.055 -0.374,-0.088 -0.319,-0.077 -0.605,-0.176 -0.286,-0.099 -0.506,-0.264 -0.22,-0.165 -0.352,-0.418 -0.132,-0.253 -0.132,-0.627 0,-0.407 0.165,-0.704 0.176,-0.308 0.451,-0.506 0.286,-0.198 0.638,-0.297 0.363,-0.099 0.726,-0.099 0.528,0 1.012,0.198 0.484,0.198 0.77,0.66 z"
           style="font-style:normal;font-variant:normal;font-weight:500;font-stretch:normal;font-size:11px;font-family:Avenir;-inkscape-font-specification:'Avenir, Medium';font-variant-ligatures:normal;font-variant-caps:normal;font-variant-numeric:normal;font-feature-settings:normal;text-align:start;letter-spacing:-0.30000001px;writing-mode:lr-tb;text-anchor:start;fill:#000000;fill-opacity:1;stroke-width:0.75px"
           id="path889" /></g><g
         id="g1030"><g
           style="fill:#ff722c;fill-opacity:0.99215686"
           id="g24"><g
             style="fill:#ff722c;fill-opacity:0.99215686"
             id="g26" /><g
             style="fill:#ff722c;fill-opacity:0.99215686"
             id="g38"><g
               clip-path="url(#clipPath30)"
               id="g36"
               style="opacity:0.99000501;fill:#ff722c;fill-opacity:0.99215686"><g
                 style="fill:#ff722c;fill-opacity:0.99215686"
                 transform="translate(5.0468,30.8119)"
                 id="g34"><path
                   d="M 0,0 6.961,4.019 13.922,0 V -8.038 L 6.961,-12.057 0,-8.038 Z"
                   style="fill:#ff722c;fill-opacity:0.99215686;fill-rule:nonzero;stroke:none"
                   id="path32"
                   inkscape:connector-curvature="0" /></g></g></g></g><g
           id="g40"
           transform="translate(13.8038,37.1714)"><path
             d="m 0,0 c 0,-0.965 -0.782,-1.747 -1.747,-1.747 -0.964,0 -1.746,0.782 -1.746,1.747 0,0.965 0.782,1.747 1.746,1.747 C -0.782,1.747 0,0.965 0,0 Z"
             style="fill:none;stroke:#000000;stroke-width:0.5;stroke-linecap:butt;stroke-linejoin:miter;stroke-miterlimit:10;stroke-dasharray:none;stroke-opacity:1"
             id="path42"
             inkscape:connector-curvature="0" /></g><g
           id="g44"
           transform="translate(13.8038,26.8398)"><path
             d="m 0,0 c 0,-0.965 -0.782,-1.747 -1.747,-1.747 -0.964,0 -1.746,0.782 -1.746,1.747 0,0.965 0.782,1.747 1.746,1.747 C -0.782,1.747 0,0.965 0,0 Z"
             style="fill:none;stroke:#000000;stroke-width:0.5;stroke-linecap:butt;stroke-linejoin:miter;stroke-miterlimit:10;stroke-dasharray:none;stroke-opacity:1"
             id="path46"
             inkscape:connector-curvature="0" /></g><g
           id="g48"
           transform="translate(13.8038,16.4465)"><path
             d="m 0,0 c 0,-0.965 -0.782,-1.747 -1.747,-1.747 -0.964,0 -1.746,0.782 -1.746,1.747 0,0.965 0.782,1.747 1.746,1.747 C -0.782,1.747 0,0.965 0,0 Z"
             style="fill:none;stroke:#000000;stroke-width:0.5;stroke-linecap:butt;stroke-linejoin:miter;stroke-miterlimit:10;stroke-dasharray:none;stroke-opacity:1"
             id="path50"
             inkscape:connector-curvature="0" /></g><g
           id="g52"
           transform="translate(4.4933,21.529)"><path
             d="m 0,0 c 0,-0.965 -0.782,-1.747 -1.747,-1.747 -0.964,0 -1.746,0.782 -1.746,1.747 0,0.965 0.782,1.747 1.746,1.747 C -0.782,1.747 0,0.965 0,0 Z"
             style="fill:none;stroke:#000000;stroke-width:0.5;stroke-linecap:butt;stroke-linejoin:miter;stroke-miterlimit:10;stroke-dasharray:none;stroke-opacity:1"
             id="path54"
             inkscape:connector-curvature="0" /></g><g
           id="g56"
           transform="translate(4.4933,31.8606)"><path
             d="m 0,0 c 0,-0.965 -0.782,-1.747 -1.747,-1.747 -0.964,0 -1.746,0.782 -1.746,1.747 0,0.965 0.782,1.747 1.746,1.747 C -0.782,1.747 0,0.965 0,0 Z"
             style="fill:none;stroke:#000000;stroke-width:0.5;stroke-linecap:butt;stroke-linejoin:miter;stroke-miterlimit:10;stroke-dasharray:none;stroke-opacity:1"
             id="path58"
             inkscape:connector-curvature="0" /></g><g
           id="g60"
           transform="translate(23.1494,21.529)"><path
             d="m 0,0 c 0,-0.965 -0.782,-1.747 -1.747,-1.747 -0.964,0 -1.746,0.782 -1.746,1.747 0,0.965 0.782,1.747 1.746,1.747 C -0.782,1.747 0,0.965 0,0 Z"
             style="fill:none;stroke:#000000;stroke-width:0.5;stroke-linecap:butt;stroke-linejoin:miter;stroke-miterlimit:10;stroke-dasharray:none;stroke-opacity:1"
             id="path62"
             inkscape:connector-curvature="0" /></g><g
           id="g64"
           transform="translate(23.1494,31.8606)"><path
             d="m 0,0 c 0,-0.965 -0.782,-1.747 -1.747,-1.747 -0.964,0 -1.746,0.782 -1.746,1.747 0,0.965 0.782,1.747 1.746,1.747 C -0.782,1.747 0,0.965 0,0 Z"
             style="fill:none;stroke:#000000;stroke-width:0.5;stroke-linecap:butt;stroke-linejoin:miter;stroke-miterlimit:10;stroke-dasharray:none;stroke-opacity:1"
             id="path66"
             inkscape:connector-curvature="0" /></g><g
           id="g68"
           transform="translate(21.5157,29.4605)"><path
             d="M 0,0 V -6.211"
             style="fill:none;stroke:#000000;stroke-width:0.5;stroke-linecap:butt;stroke-linejoin:miter;stroke-miterlimit:10;stroke-dasharray:0.791, 0.791;stroke-dashoffset:0;stroke-opacity:1"
             id="path70"
             inkscape:connector-curvature="0" /></g><g
           id="g72"
           transform="translate(2.7241,29.4605)"><path
             d="M 0,0 V -6.211"
             style="fill:none;stroke:#000000;stroke-width:0.5;stroke-linecap:butt;stroke-linejoin:miter;stroke-miterlimit:10;stroke-dasharray:0.791, 0.791;stroke-dashoffset:0;stroke-opacity:1"
             id="path74"
             inkscape:connector-curvature="0" /></g><g
           id="g76"
           transform="translate(12.1407,24.3331)"><path
             d="M 0,0 V -6.211"
             style="fill:none;stroke:#000000;stroke-width:0.5;stroke-linecap:butt;stroke-linejoin:miter;stroke-miterlimit:10;stroke-dasharray:0.791, 0.791;stroke-dashoffset:0;stroke-opacity:1"
             id="path78"
             inkscape:connector-curvature="0" /></g><g
           id="g80"
           transform="translate(4.2964,32.7821)"><path
             d="M 0,0 6.21,3.582"
             style="fill:none;stroke:#000000;stroke-width:0.5;stroke-linecap:butt;stroke-linejoin:miter;stroke-miterlimit:10;stroke-dasharray:none;stroke-opacity:1"
             id="path82"
             inkscape:connector-curvature="0" /></g><g
           id="g84"
           transform="translate(13.573,17.2954)"><path
             d="M 0,0 6.262,3.427"
             style="fill:none;stroke:#000000;stroke-width:0.5;stroke-linecap:butt;stroke-linejoin:miter;stroke-miterlimit:10;stroke-dasharray:0.787, 0.787;stroke-dashoffset:0;stroke-opacity:1"
             id="path86"
             inkscape:connector-curvature="0" /></g><g
           id="g88"
           transform="translate(4.3222,20.671)"><path
             d="M 0,0 6.236,-3.376"
             style="fill:none;stroke:#000000;stroke-width:0.5;stroke-linecap:butt;stroke-linejoin:miter;stroke-miterlimit:10;stroke-dasharray:0.787, 0.787;stroke-dashoffset:0;stroke-opacity:1"
             id="path90"
             inkscape:connector-curvature="0" /></g><g
           id="g92"
           transform="translate(13.5987,36.3123)"><path
             d="M 0,0 6.313,-3.608"
             style="fill:none;stroke:#000000;stroke-width:0.5;stroke-linecap:butt;stroke-linejoin:miter;stroke-miterlimit:10;stroke-dasharray:none;stroke-opacity:1"
             id="path94"
             inkscape:connector-curvature="0" /></g><g
           id="g96"
           transform="translate(4.2707,30.9654)"><path
             d="M 0,0 6.184,-3.324"
             style="fill:none;stroke:#000000;stroke-width:0.5;stroke-linecap:butt;stroke-linejoin:miter;stroke-miterlimit:10;stroke-dasharray:none;stroke-opacity:1"
             id="path98"
             inkscape:connector-curvature="0" /></g><g
           id="g100"
           transform="translate(13.5858,27.68)"><path
             d="M 0,0 6.3,3.363"
             style="fill:none;stroke:#000000;stroke-width:0.5;stroke-linecap:butt;stroke-linejoin:miter;stroke-miterlimit:10;stroke-dasharray:none;stroke-opacity:1"
             id="path102"
             inkscape:connector-curvature="0" /></g></g></g></g></svg>