<?xml version="1.0" encoding="utf-8"?>
<!-- Generator: Adobe Illustrator 17.1.0, SVG Export Plug-In . SVG Version: 6.00 Build 0)  -->
<!DOCTYPE svg PUBLIC "-//W3C//DTD SVG 1.1//EN" "http://www.w3.org/Graphics/SVG/1.1/DTD/svg11.dtd">
<svg version="1.1" xmlns="http://www.w3.org/2000/svg" xmlns:xlink="http://www.w3.org/1999/xlink" x="0px" y="0px" width="240px"
	 height="40px" viewBox="0 0 240 40" enable-background="new 0 0 240 40" xml:space="preserve">
<g id="Layer_1">
	<path fill="none" stroke="#000000" stroke-width="0.5734" stroke-miterlimit="10" d="M121.8,14.2"/>
	<path fill="none" stroke="#EBEBEB" stroke-width="0.5" d="M11,12c0.6,1.3,0.6,2.6,0.1,3.9c-0.5,1.3-1.4,2.3-2.7,2.9
		c-1.3,0.6-2.6,0.6-4,0.1c-1.3-0.5-2.3-1.4-2.9-2.7c-0.6-1.3-0.6-2.6-0.1-4C2,11,2.9,10,4.2,9.5s2.6-0.6,3.9-0.1
		C9.5,9.8,10.5,10.7,11,12z"/>
	<path fill="none" stroke="#EBEBEB" stroke-width="0.5" d="M17.3,7.9c-0.6,0.7-1.4,1-2.4,1.1C14,9,13.2,8.7,12.5,8
		c-0.7-0.6-1-1.4-1.1-2.4c0-0.9,0.3-1.8,0.9-2.4s1.4-1,2.4-1.1c0.9,0,1.8,0.3,2.4,0.9c0.7,0.6,1,1.4,1.1,2.4
		C18.2,6.4,17.9,7.2,17.3,7.9z"/>
	<path fill="none" stroke="#EBEBEB" stroke-width="0.5" d="M19.2,16.5c-0.7-0.1-1.2-0.3-1.6-0.8c-0.4-0.5-0.6-1.1-0.6-1.7
		c0.1-0.7,0.3-1.2,0.8-1.6s1.1-0.6,1.7-0.6c0.7,0.1,1.2,0.3,1.6,0.8c0.4,0.5,0.6,1.1,0.6,1.7c-0.1,0.7-0.3,1.2-0.8,1.6
		C20.4,16.3,19.8,16.5,19.2,16.5z"/>
	<path fill="none" stroke="#EBEBEB" stroke-width="0.5" d="M13.5,22.2c-0.3-0.3-0.5-0.6-0.6-1c-0.1-0.4,0-0.8,0.3-1.1
		c0.3-0.3,0.6-0.5,1-0.6c0.4-0.1,0.8,0,1.1,0.3c0.3,0.3,0.5,0.6,0.6,1c0.1,0.4,0,0.8-0.3,1.1c-0.3,0.3-0.6,0.5-1,0.6
		C14.2,22.5,13.8,22.4,13.5,22.2z"/>
	<line fill="none" stroke="#EBEBEB" stroke-width="0.5" x1="11.4" y1="14.1" x2="16.9" y2="14.1"/>
	<line fill="none" stroke="#EBEBEB" stroke-width="0.5" x1="16.3" y1="8.5" x2="18.3" y2="12.3"/>
	<line fill="none" stroke="#EBEBEB" stroke-width="0.5" x1="17.9" y1="15.8" x2="15.2" y2="19.9"/>
	<circle fill="#3EED91" cx="6.3" cy="14.2" r="3.6"/>
	<g>
		<path fill="#EBEBEB" d="M27.3,11c-0.3-0.1-0.6-0.2-1-0.2c-0.5,0-0.9,0.1-1.2,0.3c-0.3,0.2-0.4,0.5-0.4,0.9c0,0.5,0.4,0.9,1.1,1.1
			l1.7,0.5c1.2,0.4,1.9,1.1,1.9,2.2c0,0.7-0.3,1.3-0.8,1.7c-0.5,0.4-1.3,0.6-2.2,0.6c-0.7,0-1.3-0.1-1.8-0.4c-0.5-0.2-0.9-0.6-1.2-1
			c0-0.1,0-0.1,0-0.1c0-0.1,0-0.1,0.1-0.2l0.5-0.4c0.1,0,0.1-0.1,0.2-0.1s0.1,0,0.1,0.1c0.3,0.4,0.6,0.7,0.9,0.8
			c0.3,0.2,0.7,0.2,1.2,0.2c0.6,0,1-0.1,1.3-0.3c0.3-0.2,0.5-0.5,0.5-0.9c0-0.3-0.1-0.5-0.2-0.7s-0.5-0.3-0.9-0.5l-1.7-0.5
			c-0.6-0.2-1-0.5-1.3-0.9c-0.3-0.4-0.4-0.8-0.4-1.3c0-0.5,0.1-0.9,0.4-1.2c0.2-0.4,0.6-0.6,1-0.8s0.9-0.3,1.5-0.3
			c0.6,0,1.1,0.1,1.5,0.3c0.5,0.2,0.8,0.5,1.1,0.8c0,0,0.1,0.1,0.1,0.1s0,0.1-0.1,0.1l-0.6,0.5c0,0-0.1,0-0.1,0c0,0-0.1,0-0.1-0.1
			C27.9,11.4,27.6,11.2,27.3,11z"/>
		<path fill="#EBEBEB" d="M34,16.5v-4c0-0.1,0.1-0.2,0.2-0.2H35c0.1,0,0.2,0.1,0.2,0.2l0,5.5c0,0.1,0,0.2-0.1,0.2h-0.9
			c-0.1,0-0.1,0-0.1-0.1v-0.6c0-0.1,0-0.1-0.1,0c-0.4,0.3-0.7,0.6-1,0.7s-0.6,0.2-1,0.2c-0.5,0-0.9-0.2-1.2-0.5s-0.5-0.7-0.5-1.2v-4
			c0-0.1,0.1-0.2,0.2-0.2h0.8c0.1,0,0.2,0.1,0.2,0.2v3.8c0,0.3,0.1,0.6,0.3,0.8c0.2,0.2,0.4,0.3,0.7,0.3
			C32.9,17.4,33.4,17.1,34,16.5z"/>
		<path fill="#EBEBEB" d="M37.6,12.5v0.4c0,0.1,0,0.1,0,0.1c0,0,0,0,0.1-0.1c0.2-0.2,0.5-0.4,0.7-0.5c0.2-0.1,0.6-0.2,1-0.2
			c0.5,0,0.9,0.1,1.2,0.3c0.4,0.2,0.6,0.6,0.8,1c0.2,0.4,0.3,1,0.3,1.6c0,0.7-0.1,1.2-0.3,1.7c-0.2,0.5-0.5,0.8-0.9,1.1
			s-0.8,0.4-1.3,0.4c-0.6,0-1.1-0.2-1.5-0.6c-0.1-0.1-0.1-0.1-0.1-0.1c0,0-0.1,0-0.1,0.1v2c0,0.1,0,0.2-0.1,0.2h-0.9
			c-0.1,0-0.1-0.1-0.1-0.2v-7.3c0-0.1,0-0.1,0-0.2c0,0,0.1,0,0.2,0h0.8C37.5,12.3,37.6,12.4,37.6,12.5z M38.2,17.3
			c0.2,0.1,0.5,0.2,0.7,0.2c0.5,0,0.9-0.2,1.2-0.6c0.3-0.4,0.4-1,0.4-1.7c0-0.7-0.1-1.3-0.4-1.6C39.8,13.2,39.5,13,39,13
			c-0.3,0-0.5,0.1-0.7,0.2c-0.2,0.1-0.4,0.3-0.5,0.4c-0.1,0.2-0.2,0.4-0.2,0.5v2.7C37.8,17,38,17.2,38.2,17.3z"/>
		<path fill="#EBEBEB" d="M43.9,12.5v0.4c0,0.1,0,0.1,0,0.1c0,0,0,0,0.1-0.1c0.2-0.2,0.5-0.4,0.7-0.5c0.2-0.1,0.6-0.2,1-0.2
			c0.5,0,0.9,0.1,1.2,0.3c0.4,0.2,0.6,0.6,0.8,1c0.2,0.4,0.3,1,0.3,1.6c0,0.7-0.1,1.2-0.3,1.7c-0.2,0.5-0.5,0.8-0.9,1.1
			s-0.8,0.4-1.3,0.4c-0.6,0-1.1-0.2-1.5-0.6C44,17.6,44,17.6,44,17.6c0,0-0.1,0-0.1,0.1v2c0,0.1,0,0.2-0.1,0.2h-0.9
			c-0.1,0-0.1-0.1-0.1-0.2v-7.3c0-0.1,0-0.1,0-0.2c0,0,0.1,0,0.2,0h0.8C43.9,12.3,43.9,12.4,43.9,12.5z M44.6,17.3
			c0.2,0.1,0.5,0.2,0.7,0.2c0.5,0,0.9-0.2,1.2-0.6c0.3-0.4,0.4-1,0.4-1.7c0-0.7-0.1-1.3-0.4-1.6c-0.3-0.4-0.7-0.5-1.2-0.5
			c-0.3,0-0.5,0.1-0.7,0.2c-0.2,0.1-0.4,0.3-0.5,0.4c-0.1,0.2-0.2,0.4-0.2,0.5v2.7C44.1,17,44.3,17.2,44.6,17.3z"/>
		<path fill="#EBEBEB" d="M50.1,17.9c-0.4-0.3-0.8-0.6-1-1.1c-0.2-0.5-0.4-1-0.4-1.6c0-0.6,0.1-1.1,0.4-1.6c0.2-0.5,0.6-0.8,1-1.1
			s0.9-0.4,1.5-0.4c0.6,0,1.1,0.1,1.5,0.4c0.4,0.3,0.8,0.6,1,1.1s0.4,1,0.4,1.6c0,0.6-0.1,1.1-0.4,1.6c-0.2,0.5-0.6,0.8-1,1.1
			c-0.4,0.3-0.9,0.4-1.5,0.4C51,18.2,50.6,18.1,50.1,17.9z M52.8,16.8c0.3-0.4,0.4-0.9,0.4-1.6c0-0.7-0.1-1.2-0.4-1.6
			c-0.3-0.4-0.7-0.6-1.2-0.6s-0.9,0.2-1.2,0.6C50.1,14,50,14.5,50,15.2c0,0.7,0.1,1.2,0.4,1.6s0.7,0.6,1.2,0.6
			C52.1,17.4,52.5,17.2,52.8,16.8z"/>
		<path fill="#EBEBEB" d="M55.4,18v-5.5c0-0.1,0-0.2,0.1-0.2h0.8c0.1,0,0.1,0,0.1,0.1v0.7c0,0,0,0.1,0,0.1c0,0,0.1,0,0.1,0
			c0.3-0.3,0.6-0.6,0.8-0.7c0.3-0.2,0.6-0.3,0.9-0.3c0.3,0,0.4,0.1,0.4,0.2v0.9c0,0.1,0,0.1-0.1,0.1c-0.1,0-0.3-0.1-0.6-0.1
			c-0.2,0-0.4,0.1-0.6,0.2c-0.2,0.1-0.4,0.3-0.6,0.4s-0.2,0.4-0.2,0.6v3.5c0,0.1-0.1,0.2-0.2,0.2h-0.8C55.5,18.1,55.4,18.1,55.4,18z
			"/>
		<path fill="#EBEBEB" d="M61.7,13.1c-0.1,0-0.1,0-0.1,0.1v3.2c0,0.3,0.1,0.5,0.2,0.6c0.1,0.1,0.3,0.2,0.5,0.2h0.7
			c0.1,0,0.1,0,0.1,0.1v0.5c0,0.1-0.1,0.2-0.2,0.2c-0.2,0-0.6,0.1-1.1,0.1c-0.5,0-0.8-0.1-1.1-0.3c-0.2-0.2-0.4-0.6-0.4-1v-3.5
			c0-0.1,0-0.1-0.1-0.1h-0.8c-0.1,0-0.1,0-0.1-0.1v-0.6c0-0.1,0-0.1,0.1-0.1h0.9c0.1,0,0.1,0,0.1-0.1l0.1-1.7c0-0.1,0.1-0.2,0.1-0.2
			h0.8c0.1,0,0.1,0.1,0.1,0.2v1.7c0,0.1,0,0.1,0.1,0.1h1.3c0.1,0,0.1,0,0.1,0.1V13c0,0.1-0.1,0.1-0.2,0.1H61.7z"/>
	</g>
	<path fill="#3EED91" d="M18.3,14.7c-0.2-0.3-0.2-0.6-0.1-1s0.3-0.6,0.6-0.8c0.3-0.2,0.6-0.2,1-0.1c0.3,0.1,0.6,0.3,0.8,0.6
		c0.2,0.3,0.2,0.6,0.1,1c-0.1,0.3-0.3,0.6-0.6,0.8c-0.3,0.2-0.6,0.2-1,0.1C18.7,15.3,18.4,15.1,18.3,14.7z"/>
	<path fill="none" stroke="#D3E6EA" stroke-width="0.5" d="M131.1,12c0.6,1.3,0.6,2.6,0.1,3.9c-0.5,1.3-1.4,2.3-2.7,2.9
		c-1.3,0.6-2.6,0.6-4,0.1c-1.3-0.5-2.3-1.4-2.9-2.7c-0.6-1.3-0.6-2.6-0.1-4c0.5-1.3,1.4-2.3,2.7-2.9c1.3-0.6,2.6-0.6,3.9-0.1
		C129.5,9.8,130.5,10.7,131.1,12z"/>
	<path fill="none" stroke="#D3E6EA" stroke-width="0.5" d="M137.3,7.9c-0.6,0.7-1.4,1-2.4,1.1c-0.9,0-1.7-0.3-2.4-0.9
		c-0.7-0.6-1-1.4-1.1-2.4c0-0.9,0.3-1.8,0.9-2.4c0.6-0.7,1.4-1,2.4-1.1c0.9,0,1.8,0.3,2.4,0.9c0.7,0.6,1,1.4,1.1,2.4
		C138.3,6.4,138,7.2,137.3,7.9z"/>
	<path fill="none" stroke="#D3E6EA" stroke-width="0.5" d="M139.2,16.5c-0.7-0.1-1.2-0.3-1.6-0.8c-0.4-0.5-0.6-1.1-0.6-1.7
		c0.1-0.7,0.3-1.2,0.8-1.6s1.1-0.6,1.7-0.6c0.7,0.1,1.2,0.3,1.6,0.8c0.4,0.5,0.6,1.1,0.6,1.7c-0.1,0.7-0.3,1.2-0.8,1.6
		C140.5,16.3,139.9,16.5,139.2,16.5z"/>
	<path fill="none" stroke="#D3E6EA" stroke-width="0.5" d="M133.5,22.2c-0.3-0.3-0.5-0.6-0.6-1c-0.1-0.4,0-0.8,0.3-1.1
		c0.3-0.3,0.6-0.5,1-0.6c0.4-0.1,0.8,0,1.1,0.3c0.3,0.3,0.5,0.6,0.6,1c0.1,0.4,0,0.8-0.3,1.1c-0.3,0.3-0.6,0.5-1,0.6
		C134.3,22.5,133.9,22.4,133.5,22.2z"/>
	<line fill="none" stroke="#D3E6EA" stroke-width="0.5" x1="131.4" y1="14.1" x2="136.9" y2="14.1"/>
	<line fill="none" stroke="#D3E6EA" stroke-width="0.5" x1="136.4" y1="8.5" x2="138.3" y2="12.3"/>
	<line fill="none" stroke="#D3E6EA" stroke-width="0.5" x1="138" y1="15.8" x2="135.3" y2="19.9"/>
	<circle fill="#D3E6EA" cx="126.3" cy="14.2" r="3.6"/>
	<g>
		<path fill="#D3E6EA" d="M147.4,11c-0.3-0.1-0.6-0.2-1-0.2c-0.5,0-0.9,0.1-1.2,0.3c-0.3,0.2-0.4,0.5-0.4,0.9c0,0.5,0.4,0.9,1.1,1.1
			l1.7,0.5c1.2,0.4,1.9,1.1,1.9,2.2c0,0.7-0.3,1.3-0.8,1.7s-1.3,0.6-2.2,0.6c-0.7,0-1.3-0.1-1.8-0.4s-1-0.6-1.2-1c0-0.1,0-0.1,0-0.1
			c0-0.1,0-0.1,0.1-0.2l0.5-0.4c0.1,0,0.1-0.1,0.2-0.1c0.1,0,0.1,0,0.1,0.1c0.3,0.4,0.6,0.7,0.9,0.8s0.7,0.2,1.2,0.2
			c0.6,0,1-0.1,1.3-0.3c0.3-0.2,0.5-0.5,0.5-0.9c0-0.3-0.1-0.5-0.2-0.7s-0.5-0.3-0.9-0.5l-1.7-0.5c-0.6-0.2-1-0.5-1.3-0.9
			c-0.3-0.4-0.4-0.8-0.4-1.3c0-0.5,0.1-0.9,0.4-1.2s0.6-0.6,1-0.8s0.9-0.3,1.5-0.3c0.6,0,1.1,0.1,1.5,0.3c0.5,0.2,0.8,0.5,1.1,0.8
			c0,0,0.1,0.1,0.1,0.1s0,0.1-0.1,0.1l-0.6,0.5c0,0-0.1,0-0.1,0c0,0-0.1,0-0.1-0.1C147.9,11.4,147.7,11.2,147.4,11z"/>
		<path fill="#D3E6EA" d="M154,16.5v-4c0-0.1,0.1-0.2,0.2-0.2h0.8c0.1,0,0.2,0.1,0.2,0.2l0,5.5c0,0.1,0,0.2-0.1,0.2h-0.9
			c-0.1,0-0.1,0-0.1-0.1v-0.6c0-0.1,0-0.1-0.1,0c-0.4,0.3-0.7,0.6-1,0.7c-0.3,0.1-0.6,0.2-1,0.2c-0.5,0-0.9-0.2-1.2-0.5
			c-0.3-0.3-0.5-0.7-0.5-1.2v-4c0-0.1,0.1-0.2,0.2-0.2h0.8c0.1,0,0.2,0.1,0.2,0.2v3.8c0,0.3,0.1,0.6,0.3,0.8
			c0.2,0.2,0.4,0.3,0.7,0.3C152.9,17.4,153.5,17.1,154,16.5z"/>
		<path fill="#D3E6EA" d="M157.6,12.5v0.4c0,0.1,0,0.1,0,0.1c0,0,0,0,0.1-0.1c0.2-0.2,0.5-0.4,0.7-0.5c0.2-0.1,0.6-0.2,1-0.2
			c0.5,0,0.9,0.1,1.2,0.3c0.4,0.2,0.6,0.6,0.8,1c0.2,0.4,0.3,1,0.3,1.6c0,0.7-0.1,1.2-0.3,1.7s-0.5,0.8-0.9,1.1s-0.8,0.4-1.3,0.4
			c-0.6,0-1.1-0.2-1.5-0.6c-0.1-0.1-0.1-0.1-0.1-0.1c0,0-0.1,0-0.1,0.1v2c0,0.1,0,0.2-0.1,0.2h-0.9c-0.1,0-0.1-0.1-0.1-0.2v-7.3
			c0-0.1,0-0.1,0-0.2c0,0,0.1,0,0.2,0h0.8C157.6,12.3,157.6,12.4,157.6,12.5z M158.3,17.3c0.2,0.1,0.5,0.2,0.7,0.2
			c0.5,0,0.9-0.2,1.2-0.6c0.3-0.4,0.4-1,0.4-1.7c0-0.7-0.1-1.3-0.4-1.6c-0.3-0.4-0.7-0.5-1.2-0.5c-0.3,0-0.5,0.1-0.7,0.2
			c-0.2,0.1-0.4,0.3-0.5,0.4c-0.1,0.2-0.2,0.4-0.2,0.5v2.7C157.8,17,158,17.2,158.3,17.3z"/>
		<path fill="#D3E6EA" d="M164,12.5v0.4c0,0.1,0,0.1,0,0.1c0,0,0,0,0.1-0.1c0.2-0.2,0.5-0.4,0.7-0.5c0.2-0.1,0.6-0.2,1-0.2
			c0.5,0,0.9,0.1,1.2,0.3c0.4,0.2,0.6,0.6,0.8,1c0.2,0.4,0.3,1,0.3,1.6c0,0.7-0.1,1.2-0.3,1.7s-0.5,0.8-0.9,1.1s-0.8,0.4-1.3,0.4
			c-0.6,0-1.1-0.2-1.5-0.6c-0.1-0.1-0.1-0.1-0.1-0.1c0,0-0.1,0-0.1,0.1v2c0,0.1,0,0.2-0.1,0.2h-0.9c-0.1,0-0.1-0.1-0.1-0.2v-7.3
			c0-0.1,0-0.1,0-0.2c0,0,0.1,0,0.2,0h0.8C163.9,12.3,164,12.4,164,12.5z M164.6,17.3c0.2,0.1,0.5,0.2,0.7,0.2
			c0.5,0,0.9-0.2,1.2-0.6c0.3-0.4,0.4-1,0.4-1.7c0-0.7-0.1-1.3-0.4-1.6c-0.3-0.4-0.7-0.5-1.2-0.5c-0.3,0-0.5,0.1-0.7,0.2
			c-0.2,0.1-0.4,0.3-0.5,0.4c-0.1,0.2-0.2,0.4-0.2,0.5v2.7C164.2,17,164.4,17.2,164.6,17.3z"/>
		<path fill="#D3E6EA" d="M170.2,17.9c-0.4-0.3-0.8-0.6-1-1.1c-0.2-0.5-0.4-1-0.4-1.6c0-0.6,0.1-1.1,0.4-1.6c0.2-0.5,0.6-0.8,1-1.1
			c0.4-0.3,0.9-0.4,1.5-0.4c0.6,0,1.1,0.1,1.5,0.4c0.4,0.3,0.8,0.6,1,1.1c0.2,0.5,0.4,1,0.4,1.6c0,0.6-0.1,1.1-0.4,1.6
			c-0.2,0.5-0.6,0.8-1,1.1c-0.4,0.3-0.9,0.4-1.5,0.4C171.1,18.2,170.6,18.1,170.2,17.9z M172.9,16.8c0.3-0.4,0.4-0.9,0.4-1.6
			c0-0.7-0.1-1.2-0.4-1.6c-0.3-0.4-0.7-0.6-1.2-0.6c-0.5,0-0.9,0.2-1.2,0.6c-0.3,0.4-0.4,0.9-0.4,1.6c0,0.7,0.1,1.2,0.4,1.6
			c0.3,0.4,0.7,0.6,1.2,0.6C172.2,17.4,172.6,17.2,172.9,16.8z"/>
		<path fill="#D3E6EA" d="M175.4,18v-5.5c0-0.1,0-0.2,0.1-0.2h0.8c0.1,0,0.1,0,0.1,0.1v0.7c0,0,0,0.1,0,0.1c0,0,0.1,0,0.1,0
			c0.3-0.3,0.6-0.6,0.8-0.7c0.3-0.2,0.6-0.3,0.9-0.3c0.3,0,0.4,0.1,0.4,0.2v0.9c0,0.1,0,0.1-0.1,0.1c-0.1,0-0.3-0.1-0.6-0.1
			c-0.2,0-0.4,0.1-0.6,0.2c-0.2,0.1-0.4,0.3-0.6,0.4c-0.2,0.2-0.2,0.4-0.2,0.6v3.5c0,0.1-0.1,0.2-0.2,0.2h-0.8
			C175.5,18.1,175.4,18.1,175.4,18z"/>
		<path fill="#D3E6EA" d="M181.8,13.1c-0.1,0-0.1,0-0.1,0.1v3.2c0,0.3,0.1,0.5,0.2,0.6c0.1,0.1,0.3,0.2,0.5,0.2h0.7
			c0.1,0,0.1,0,0.1,0.1v0.5c0,0.1-0.1,0.2-0.2,0.2c-0.2,0-0.6,0.1-1.1,0.1c-0.5,0-0.8-0.1-1.1-0.3c-0.2-0.2-0.4-0.6-0.4-1v-3.5
			c0-0.1,0-0.1-0.1-0.1h-0.8c-0.1,0-0.1,0-0.1-0.1v-0.6c0-0.1,0-0.1,0.1-0.1h0.9c0.1,0,0.1,0,0.1-0.1l0.1-1.7c0-0.1,0.1-0.2,0.1-0.2
			h0.8c0.1,0,0.1,0.1,0.1,0.2v1.7c0,0.1,0,0.1,0.1,0.1h1.3c0.1,0,0.1,0,0.1,0.1V13c0,0.1-0.1,0.1-0.2,0.1H181.8z"/>
	</g>
	<path fill="#D3E6EA" d="M138.3,14.7c-0.2-0.3-0.2-0.6-0.1-1s0.3-0.6,0.6-0.8s0.6-0.2,1-0.1c0.3,0.1,0.6,0.3,0.8,0.6
		c0.2,0.3,0.2,0.6,0.1,1c-0.1,0.3-0.3,0.6-0.6,0.8c-0.3,0.2-0.6,0.2-1,0.1C138.7,15.3,138.5,15.1,138.3,14.7z"/>
</g>
<g id="Layer_2">
	<g>
	</g>
	<g>
	</g>
	<g>
	</g>
	<g>
	</g>
	<g>
	</g>
	<g>
	</g>
	<g>
	</g>
	<g>
	</g>
	<g>
	</g>
	<g>
	</g>
	<g>
	</g>
	<g>
	</g>
	<g>
	</g>
	<g>
	</g>
	<g>
	</g>
</g>
</svg>
