<?xml version="1.0" encoding="utf-8"?>
<!-- Generator: Adobe Illustrator 17.1.0, SVG Export Plug-In . SVG Version: 6.00 Build 0)  -->
<!DOCTYPE svg PUBLIC "-//W3C//DTD SVG 1.1//EN" "http://www.w3.org/Graphics/SVG/1.1/DTD/svg11.dtd">
<svg version="1.1" id="Layer_1" xmlns="http://www.w3.org/2000/svg" xmlns:xlink="http://www.w3.org/1999/xlink" x="0px" y="0px"
	 width="240px" height="40px" viewBox="0 0 240 40" enable-background="new 0 0 240 40" xml:space="preserve">
<path fill="none" stroke="#000000" stroke-width="0.5734" stroke-miterlimit="10" d="M121.8,14.2"/>
<path fill="none" stroke="#EBEBEB" stroke-width="0.5" d="M11,12c0.6,1.3,0.6,2.6,0.1,3.9c-0.5,1.3-1.4,2.3-2.7,2.9
	c-1.3,0.6-2.6,0.6-4,0.1c-1.3-0.5-2.3-1.4-2.9-2.7c-0.6-1.3-0.6-2.6-0.1-4C2,11,2.9,10,4.2,9.5s2.6-0.6,3.9-0.1
	C9.5,9.8,10.5,10.7,11,12z"/>
<path fill="none" stroke="#EBEBEB" stroke-width="0.5" d="M17.3,7.9c-0.6,0.7-1.4,1-2.4,1.1C14,9,13.2,8.7,12.5,8
	c-0.7-0.6-1-1.4-1.1-2.4c0-0.9,0.3-1.8,0.9-2.4s1.4-1,2.4-1.1c0.9,0,1.8,0.3,2.4,0.9c0.7,0.6,1,1.4,1.1,2.4
	C18.2,6.4,17.9,7.2,17.3,7.9z"/>
<path fill="none" stroke="#EBEBEB" stroke-width="0.5" d="M19.2,16.5c-0.7-0.1-1.2-0.3-1.6-0.8c-0.4-0.5-0.6-1.1-0.6-1.7
	c0.1-0.7,0.3-1.2,0.8-1.6s1.1-0.6,1.7-0.6c0.7,0.1,1.2,0.3,1.6,0.8c0.4,0.5,0.6,1.1,0.6,1.7c-0.1,0.7-0.3,1.2-0.8,1.6
	C20.4,16.3,19.8,16.5,19.2,16.5z"/>
<path fill="none" stroke="#EBEBEB" stroke-width="0.5" d="M13.5,22.2c-0.3-0.3-0.5-0.6-0.6-1c-0.1-0.4,0-0.8,0.3-1.1
	c0.3-0.3,0.6-0.5,1-0.6c0.4-0.1,0.8,0,1.1,0.3c0.3,0.3,0.5,0.6,0.6,1c0.1,0.4,0,0.8-0.3,1.1c-0.3,0.3-0.6,0.5-1,0.6
	C14.2,22.5,13.8,22.4,13.5,22.2z"/>
<line fill="none" stroke="#EBEBEB" stroke-width="0.5" x1="11.4" y1="14.1" x2="16.9" y2="14.1"/>
<line fill="none" stroke="#EBEBEB" stroke-width="0.5" x1="16.3" y1="8.5" x2="18.3" y2="12.3"/>
<line fill="none" stroke="#EBEBEB" stroke-width="0.5" x1="17.9" y1="15.8" x2="15.2" y2="19.9"/>
<circle opacity="0.99" fill="#FF9800" cx="6.3" cy="14.2" r="3.6"/>
<g>
	<path fill="#EBEBEB" d="M23.6,18.1c0,0,0-0.1,0-0.1v-7.8c0-0.1,0.1-0.2,0.2-0.2h2.7c1,0,1.8,0.2,2.3,0.5c0.5,0.4,0.8,0.9,0.8,1.6
		c0,0.4-0.1,0.8-0.3,1.1c-0.2,0.3-0.6,0.5-1.1,0.7c0,0,0,0,0,0c0,0,0,0,0,0c0.5,0.1,1,0.4,1.2,0.7s0.4,0.7,0.4,1.2
		c0,0.7-0.3,1.3-0.8,1.6c-0.5,0.4-1.4,0.5-2.4,0.5h-2.8C23.7,18.1,23.6,18.1,23.6,18.1z M26.6,13.5c0.5,0,0.9-0.1,1.2-0.3
		s0.5-0.5,0.5-1c0-0.4-0.2-0.8-0.5-1c-0.3-0.2-0.8-0.3-1.3-0.3h-1.4c-0.1,0-0.2,0-0.2,0.1v2.3c0,0.1,0,0.2,0.1,0.2H26.6z M26.5,17.2
		c1.3,0,1.9-0.4,1.9-1.3c0-0.5-0.2-0.8-0.5-1c-0.3-0.2-0.8-0.3-1.3-0.3h-1.5c-0.1,0-0.1,0-0.1,0c0,0,0,0.1,0,0.1V17
		c0,0.1,0,0.2,0.1,0.2H26.5z"/>
	<path fill="#EBEBEB" d="M32.1,17.9c0,0.1,0,0.1,0,0.2s-0.1,0-0.2,0h-0.7c-0.1,0-0.1,0-0.2,0c0,0,0-0.1,0-0.1l0-7.8
		c0-0.1,0-0.2,0.1-0.2h0.9c0.1,0,0.1,0.1,0.1,0.2V17.9z"/>
	<path fill="#EBEBEB" d="M34.4,17.9c-0.4-0.3-0.8-0.6-1-1.1c-0.2-0.5-0.4-1-0.4-1.6c0-0.6,0.1-1.1,0.4-1.6c0.2-0.5,0.6-0.8,1-1.1
		s0.9-0.4,1.5-0.4c0.6,0,1.1,0.1,1.5,0.4c0.4,0.3,0.8,0.6,1,1.1s0.4,1,0.4,1.6c0,0.6-0.1,1.1-0.4,1.6c-0.2,0.5-0.6,0.8-1,1.1
		c-0.4,0.3-0.9,0.4-1.5,0.4C35.3,18.2,34.8,18.1,34.4,17.9z M37.1,16.8c0.3-0.4,0.4-0.9,0.4-1.6c0-0.7-0.1-1.2-0.4-1.6
		c-0.3-0.4-0.7-0.6-1.2-0.6s-0.9,0.2-1.2,0.6c-0.3,0.4-0.4,0.9-0.4,1.6c0,0.7,0.1,1.2,0.4,1.6s0.7,0.6,1.2,0.6
		C36.4,17.4,36.8,17.2,37.1,16.8z"/>
	<path fill="#EBEBEB" d="M45.3,12.4v0.5c0,0.1-0.1,0.2-0.2,0.2c-0.1,0-0.2,0-0.3,0c-0.1,0-0.2,0-0.3,0c-0.1,0-0.2,0.1-0.2,0.1
		c0,0,0,0.1,0,0.1c0,0,0,0.1,0.1,0.2c0,0.1,0.1,0.3,0.1,0.5c0,0.5-0.2,0.9-0.6,1.3c-0.4,0.3-1,0.5-1.8,0.5c-0.5,0-0.8,0-1.1,0.1
		c-0.2,0.1-0.3,0.2-0.3,0.3c0,0.1,0.1,0.2,0.2,0.2c0.1,0,0.4,0.1,0.7,0.1l1.5,0.1c0.7,0,1.2,0.2,1.5,0.5c0.3,0.3,0.5,0.6,0.5,1.1
		c0,0.6-0.3,1-0.8,1.3c-0.5,0.3-1.2,0.5-2.2,0.5c-1,0-1.7-0.1-2.2-0.4s-0.8-0.6-0.8-1.1c0-0.2,0.1-0.5,0.3-0.7
		c0.2-0.2,0.4-0.4,0.8-0.5c0.1,0,0.1-0.1,0-0.1c-0.4-0.2-0.6-0.4-0.6-0.7c0-0.2,0.1-0.3,0.2-0.5s0.4-0.3,0.7-0.4c0,0,0.1,0,0.1-0.1
		c0,0,0-0.1-0.1-0.1c-0.3-0.2-0.6-0.4-0.7-0.6c-0.2-0.2-0.2-0.5-0.2-0.9c0-0.6,0.2-1,0.7-1.3c0.5-0.3,1.1-0.5,1.9-0.5
		c0.7,0,1.3,0.2,1.7,0.5c0.1,0,0.1,0.1,0.1,0.1c0,0,0.1,0,0.1-0.1c0.1-0.1,0.3-0.3,0.5-0.4c0.2-0.1,0.4-0.2,0.6-0.2
		C45.3,12.2,45.3,12.2,45.3,12.4z M41.1,17.5c-0.1,0-0.3,0-0.4,0.1s-0.3,0.2-0.4,0.3c-0.1,0.1-0.2,0.3-0.2,0.5c0,0.7,0.7,1,2.1,1
		c0.6,0,1-0.1,1.3-0.2s0.5-0.4,0.5-0.7c0-0.5-0.3-0.7-1-0.8L41.1,17.5z M43,14.9c0.2-0.2,0.3-0.5,0.3-0.8c0-0.4-0.1-0.7-0.4-0.9
		c-0.2-0.2-0.6-0.3-1-0.3c-0.4,0-0.8,0.1-1,0.3c-0.2,0.2-0.4,0.5-0.4,0.9c0,0.4,0.1,0.6,0.4,0.8s0.6,0.3,1.1,0.3
		C42.5,15.2,42.8,15.1,43,14.9z"/>
</g>
<path opacity="0.99" fill="#FF9800" d="M18.3,14.7c-0.2-0.3-0.2-0.6-0.1-1s0.3-0.6,0.6-0.8c0.3-0.2,0.6-0.2,1-0.1
	c0.3,0.1,0.6,0.3,0.8,0.6c0.2,0.3,0.2,0.6,0.1,1c-0.1,0.3-0.3,0.6-0.6,0.8c-0.3,0.2-0.6,0.2-1,0.1C18.7,15.3,18.4,15.1,18.3,14.7z"
	/>
<path fill="none" stroke="#D3E6EA" stroke-width="0.5" d="M131.1,12c0.6,1.3,0.6,2.6,0.1,3.9c-0.5,1.3-1.4,2.3-2.7,2.9
	c-1.3,0.6-2.6,0.6-4,0.1c-1.3-0.5-2.3-1.4-2.9-2.7c-0.6-1.3-0.6-2.6-0.1-4c0.5-1.3,1.4-2.3,2.7-2.9c1.3-0.6,2.6-0.6,3.9-0.1
	C129.5,9.8,130.5,10.7,131.1,12z"/>
<path fill="none" stroke="#D3E6EA" stroke-width="0.5" d="M137.3,7.9c-0.6,0.7-1.4,1-2.4,1.1c-0.9,0-1.7-0.3-2.4-0.9
	c-0.7-0.6-1-1.4-1.1-2.4c0-0.9,0.3-1.8,0.9-2.4c0.6-0.7,1.4-1,2.4-1.1c0.9,0,1.8,0.3,2.4,0.9c0.7,0.6,1,1.4,1.1,2.4
	C138.3,6.4,138,7.2,137.3,7.9z"/>
<path fill="none" stroke="#D3E6EA" stroke-width="0.5" d="M139.2,16.5c-0.7-0.1-1.2-0.3-1.6-0.8c-0.4-0.5-0.6-1.1-0.6-1.7
	c0.1-0.7,0.3-1.2,0.8-1.6s1.1-0.6,1.7-0.6c0.7,0.1,1.2,0.3,1.6,0.8c0.4,0.5,0.6,1.1,0.6,1.7c-0.1,0.7-0.3,1.2-0.8,1.6
	C140.5,16.3,139.9,16.5,139.2,16.5z"/>
<path fill="none" stroke="#D3E6EA" stroke-width="0.5" d="M133.5,22.2c-0.3-0.3-0.5-0.6-0.6-1c-0.1-0.4,0-0.8,0.3-1.1
	c0.3-0.3,0.6-0.5,1-0.6c0.4-0.1,0.8,0,1.1,0.3c0.3,0.3,0.5,0.6,0.6,1c0.1,0.4,0,0.8-0.3,1.1c-0.3,0.3-0.6,0.5-1,0.6
	C134.3,22.5,133.9,22.4,133.5,22.2z"/>
<line fill="none" stroke="#D3E6EA" stroke-width="0.5" x1="131.4" y1="14.1" x2="136.9" y2="14.1"/>
<line fill="none" stroke="#D3E6EA" stroke-width="0.5" x1="136.4" y1="8.5" x2="138.3" y2="12.3"/>
<line fill="none" stroke="#D3E6EA" stroke-width="0.5" x1="138" y1="15.8" x2="135.3" y2="19.9"/>
<circle fill="#D3E6EA" cx="126.3" cy="14.2" r="3.6"/>
<g>
	<path fill="#D3E6EA" d="M143.7,18.1c0,0,0-0.1,0-0.1v-7.8c0-0.1,0.1-0.2,0.2-0.2h2.7c1,0,1.8,0.2,2.3,0.5c0.5,0.4,0.8,0.9,0.8,1.6
		c0,0.4-0.1,0.8-0.3,1.1c-0.2,0.3-0.6,0.5-1.1,0.7c0,0,0,0,0,0c0,0,0,0,0,0c0.5,0.1,1,0.4,1.2,0.7c0.3,0.3,0.4,0.7,0.4,1.2
		c0,0.7-0.3,1.3-0.8,1.6c-0.5,0.4-1.4,0.5-2.4,0.5h-2.8C143.7,18.1,143.7,18.1,143.7,18.1z M146.6,13.5c0.5,0,0.9-0.1,1.2-0.3
		c0.3-0.2,0.5-0.5,0.5-1c0-0.4-0.2-0.8-0.5-1s-0.8-0.3-1.3-0.3h-1.4c-0.1,0-0.2,0-0.2,0.1v2.3c0,0.1,0,0.2,0.1,0.2H146.6z
		 M146.5,17.2c1.3,0,1.9-0.4,1.9-1.3c0-0.5-0.2-0.8-0.5-1c-0.3-0.2-0.8-0.3-1.3-0.3h-1.5c-0.1,0-0.1,0-0.1,0c0,0,0,0.1,0,0.1V17
		c0,0.1,0,0.2,0.1,0.2H146.5z"/>
	<path fill="#D3E6EA" d="M152.1,17.9c0,0.1,0,0.1,0,0.2s-0.1,0-0.2,0h-0.7c-0.1,0-0.1,0-0.2,0c0,0,0-0.1,0-0.1l0-7.8
		c0-0.1,0-0.2,0.1-0.2h0.9c0.1,0,0.1,0.1,0.1,0.2V17.9z"/>
	<path fill="#D3E6EA" d="M154.4,17.9c-0.4-0.3-0.8-0.6-1-1.1c-0.2-0.5-0.4-1-0.4-1.6c0-0.6,0.1-1.1,0.4-1.6s0.6-0.8,1-1.1
		c0.4-0.3,0.9-0.4,1.5-0.4c0.6,0,1.1,0.1,1.5,0.4c0.4,0.3,0.8,0.6,1,1.1c0.2,0.5,0.4,1,0.4,1.6c0,0.6-0.1,1.1-0.4,1.6
		c-0.2,0.5-0.6,0.8-1,1.1c-0.4,0.3-0.9,0.4-1.5,0.4S154.8,18.1,154.4,17.9z M157.1,16.8c0.3-0.4,0.4-0.9,0.4-1.6
		c0-0.7-0.1-1.2-0.4-1.6c-0.3-0.4-0.7-0.6-1.2-0.6c-0.5,0-0.9,0.2-1.2,0.6c-0.3,0.4-0.4,0.9-0.4,1.6c0,0.7,0.1,1.2,0.4,1.6
		c0.3,0.4,0.7,0.6,1.2,0.6C156.4,17.4,156.8,17.2,157.1,16.8z"/>
	<path fill="#D3E6EA" d="M165.4,12.4v0.5c0,0.1-0.1,0.2-0.2,0.2c-0.1,0-0.2,0-0.3,0c-0.1,0-0.2,0-0.3,0c-0.1,0-0.2,0.1-0.2,0.1
		c0,0,0,0.1,0,0.1c0,0,0,0.1,0.1,0.2c0,0.1,0.1,0.3,0.1,0.5c0,0.5-0.2,0.9-0.6,1.3c-0.4,0.3-1,0.5-1.8,0.5c-0.5,0-0.8,0-1.1,0.1
		c-0.2,0.1-0.3,0.2-0.3,0.3c0,0.1,0.1,0.2,0.2,0.2c0.1,0,0.4,0.1,0.7,0.1l1.5,0.1c0.7,0,1.2,0.2,1.5,0.5c0.3,0.3,0.5,0.6,0.5,1.1
		c0,0.6-0.3,1-0.8,1.3c-0.5,0.3-1.2,0.5-2.2,0.5c-1,0-1.7-0.1-2.2-0.4c-0.5-0.3-0.8-0.6-0.8-1.1c0-0.2,0.1-0.5,0.3-0.7
		c0.2-0.2,0.4-0.4,0.8-0.5c0.1,0,0.1-0.1,0-0.1c-0.4-0.2-0.6-0.4-0.6-0.7c0-0.2,0.1-0.3,0.2-0.5s0.4-0.3,0.7-0.4c0,0,0.1,0,0.1-0.1
		c0,0,0-0.1-0.1-0.1c-0.3-0.2-0.6-0.4-0.7-0.6s-0.2-0.5-0.2-0.9c0-0.6,0.2-1,0.7-1.3s1.1-0.5,1.9-0.5c0.7,0,1.3,0.2,1.7,0.5
		c0.1,0,0.1,0.1,0.1,0.1c0,0,0.1,0,0.1-0.1c0.1-0.1,0.3-0.3,0.5-0.4c0.2-0.1,0.4-0.2,0.6-0.2C165.3,12.2,165.4,12.2,165.4,12.4z
		 M161.1,17.5c-0.1,0-0.3,0-0.4,0.1c-0.2,0.1-0.3,0.2-0.4,0.3s-0.2,0.3-0.2,0.5c0,0.7,0.7,1,2.1,1c0.6,0,1-0.1,1.3-0.2
		s0.5-0.4,0.5-0.7c0-0.5-0.3-0.7-1-0.8L161.1,17.5z M163.1,14.9c0.2-0.2,0.3-0.5,0.3-0.8c0-0.4-0.1-0.7-0.4-0.9
		c-0.2-0.2-0.6-0.3-1-0.3c-0.4,0-0.8,0.1-1,0.3s-0.4,0.5-0.4,0.9c0,0.4,0.1,0.6,0.4,0.8c0.2,0.2,0.6,0.3,1.1,0.3
		C162.5,15.2,162.9,15.1,163.1,14.9z"/>
</g>
<path fill="#D3E6EA" d="M138.3,14.7c-0.2-0.3-0.2-0.6-0.1-1s0.3-0.6,0.6-0.8s0.6-0.2,1-0.1c0.3,0.1,0.6,0.3,0.8,0.6
	c0.2,0.3,0.2,0.6,0.1,1c-0.1,0.3-0.3,0.6-0.6,0.8c-0.3,0.2-0.6,0.2-1,0.1C138.7,15.3,138.5,15.1,138.3,14.7z"/>
<g>
</g>
<g>
</g>
<g>
</g>
<g>
</g>
<g>
</g>
<g>
</g>
<g>
</g>
<g>
</g>
<g>
</g>
<g>
</g>
<g>
</g>
<g>
</g>
<g>
</g>
<g>
</g>
<g>
</g>
</svg>
