<?xml version="1.0" encoding="utf-8"?>
<!-- Generator: Adobe Illustrator 17.1.0, SVG Export Plug-In . SVG Version: 6.00 Build 0)  -->
<!DOCTYPE svg PUBLIC "-//W3C//DTD SVG 1.1//EN" "http://www.w3.org/Graphics/SVG/1.1/DTD/svg11.dtd">
<svg version="1.1" xmlns="http://www.w3.org/2000/svg" xmlns:xlink="http://www.w3.org/1999/xlink" x="0px" y="0px" width="240px"
	 height="40px" viewBox="0 0 240 40" enable-background="new 0 0 240 40" xml:space="preserve">
<g id="Layer_1">
	<path fill="none" stroke="#000000" stroke-width="0.5734" stroke-miterlimit="10" d="M121.8,14.2"/>
	<path fill="none" stroke="#EBEBEB" stroke-width="0.5" d="M11,12c0.6,1.3,0.6,2.6,0.1,3.9c-0.5,1.3-1.4,2.3-2.7,2.9
		c-1.3,0.6-2.6,0.6-4,0.1c-1.3-0.5-2.3-1.4-2.9-2.7c-0.6-1.3-0.6-2.6-0.1-4C2,11,2.9,10,4.2,9.5s2.6-0.6,3.9-0.1
		C9.5,9.8,10.5,10.7,11,12z"/>
	<path fill="none" stroke="#EBEBEB" stroke-width="0.5" d="M17.3,7.9c-0.6,0.7-1.4,1-2.4,1.1C14,9,13.2,8.7,12.5,8
		c-0.7-0.6-1-1.4-1.1-2.4c0-0.9,0.3-1.8,0.9-2.4s1.4-1,2.4-1.1c0.9,0,1.8,0.3,2.4,0.9c0.7,0.6,1,1.4,1.1,2.4
		C18.2,6.4,17.9,7.2,17.3,7.9z"/>
	<path fill="none" stroke="#EBEBEB" stroke-width="0.5" d="M19.2,16.5c-0.7-0.1-1.2-0.3-1.6-0.8c-0.4-0.5-0.6-1.1-0.6-1.7
		c0.1-0.7,0.3-1.2,0.8-1.6s1.1-0.6,1.7-0.6c0.7,0.1,1.2,0.3,1.6,0.8c0.4,0.5,0.6,1.1,0.6,1.7c-0.1,0.7-0.3,1.2-0.8,1.6
		C20.4,16.3,19.8,16.5,19.2,16.5z"/>
	<path fill="none" stroke="#EBEBEB" stroke-width="0.5" d="M13.5,22.2c-0.3-0.3-0.5-0.6-0.6-1c-0.1-0.4,0-0.8,0.3-1.1
		c0.3-0.3,0.6-0.5,1-0.6c0.4-0.1,0.8,0,1.1,0.3c0.3,0.3,0.5,0.6,0.6,1c0.1,0.4,0,0.8-0.3,1.1c-0.3,0.3-0.6,0.5-1,0.6
		C14.2,22.5,13.8,22.4,13.5,22.2z"/>
	<line fill="none" stroke="#EBEBEB" stroke-width="0.5" x1="11.4" y1="14.1" x2="16.9" y2="14.1"/>
	<line fill="none" stroke="#EBEBEB" stroke-width="0.5" x1="16.3" y1="8.5" x2="18.3" y2="12.3"/>
	<line fill="none" stroke="#EBEBEB" stroke-width="0.5" x1="17.9" y1="15.8" x2="15.2" y2="19.9"/>
	<circle fill="#06E3F4" cx="6.3" cy="14.2" r="3.6"/>
	<g>
		<path fill="#EBEBEB" d="M23.7,10h5c0.1,0,0.1,0,0.1,0.1l0,0.7c0,0.1-0.1,0.2-0.2,0.2h-3.6c-0.1,0-0.1,0-0.1,0c0,0,0,0.1,0,0.1v2.4
			c0,0.1,0,0.1,0.1,0.1h2.8c0.1,0,0.1,0,0.1,0.1v0.7c0,0,0,0.1,0,0.1c0,0-0.1,0-0.1,0H25c-0.1,0-0.1,0-0.1,0.1V18c0,0.1,0,0.1,0,0.1
			c0,0-0.1,0-0.2,0h-0.9c-0.1,0-0.1,0-0.1,0c0,0,0-0.1,0-0.1v-7.8C23.6,10,23.6,10,23.7,10z"/>
		<path fill="#EBEBEB" d="M30,17.9c-0.4-0.3-0.8-0.6-1-1.1c-0.2-0.5-0.4-1-0.4-1.6c0-0.6,0.1-1.1,0.4-1.6c0.2-0.5,0.6-0.8,1-1.1
			s0.9-0.4,1.5-0.4c0.6,0,1.1,0.1,1.5,0.4c0.4,0.3,0.8,0.6,1,1.1s0.4,1,0.4,1.6c0,0.6-0.1,1.1-0.4,1.6c-0.2,0.5-0.6,0.8-1,1.1
			c-0.4,0.3-0.9,0.4-1.5,0.4C30.9,18.2,30.4,18.1,30,17.9z M32.7,16.8c0.3-0.4,0.4-0.9,0.4-1.6c0-0.7-0.1-1.2-0.4-1.6
			C32.4,13.2,32,13,31.5,13s-0.9,0.2-1.2,0.6c-0.3,0.4-0.4,0.9-0.4,1.6c0,0.7,0.1,1.2,0.4,1.6s0.7,0.6,1.2,0.6
			C32,17.4,32.4,17.2,32.7,16.8z"/>
		<path fill="#EBEBEB" d="M35.2,18v-5.5c0-0.1,0-0.2,0.1-0.2h0.8c0.1,0,0.1,0,0.1,0.1v0.7c0,0,0,0.1,0,0.1c0,0,0.1,0,0.1,0
			c0.3-0.3,0.6-0.6,0.8-0.7c0.3-0.2,0.6-0.3,0.9-0.3c0.3,0,0.4,0.1,0.4,0.2v0.9c0,0.1,0,0.1-0.1,0.1c-0.1,0-0.3-0.1-0.6-0.1
			c-0.2,0-0.4,0.1-0.6,0.2c-0.2,0.1-0.4,0.3-0.6,0.4s-0.2,0.4-0.2,0.6v3.5c0,0.1-0.1,0.2-0.2,0.2h-0.8C35.3,18.1,35.2,18.1,35.2,18z
			"/>
		<path fill="#EBEBEB" d="M43,16.5v-4c0-0.1,0.1-0.2,0.2-0.2H44c0.1,0,0.2,0.1,0.2,0.2l0,5.5c0,0.1,0,0.2-0.1,0.2h-0.9
			c-0.1,0-0.1,0-0.1-0.1v-0.6c0-0.1,0-0.1-0.1,0c-0.4,0.3-0.7,0.6-1,0.7s-0.6,0.2-1,0.2c-0.5,0-0.9-0.2-1.2-0.5s-0.5-0.7-0.5-1.2v-4
			c0-0.1,0.1-0.2,0.2-0.2h0.8c0.1,0,0.2,0.1,0.2,0.2v3.8c0,0.3,0.1,0.6,0.3,0.8c0.2,0.2,0.4,0.3,0.7,0.3
			C41.9,17.4,42.5,17.1,43,16.5z"/>
		<path fill="#EBEBEB" d="M45.5,18v-5.5c0-0.1,0-0.2,0.1-0.2h0.9c0.1,0,0.1,0,0.1,0.1V13c0,0,0,0.1,0,0.1c0,0,0,0,0.1,0
			c0.4-0.3,0.7-0.5,1-0.7c0.3-0.1,0.6-0.2,0.9-0.2c0.4,0,0.7,0.1,1,0.3s0.5,0.4,0.6,0.7c0,0,0,0,0,0c0,0,0.1,0,0.1-0.1
			c0.3-0.3,0.7-0.6,1-0.7s0.6-0.2,1-0.2c0.5,0,0.9,0.2,1.2,0.5c0.3,0.3,0.4,0.7,0.4,1.2v4c0,0.1-0.1,0.2-0.2,0.2H53
			c-0.1,0-0.1,0-0.1,0c0,0,0-0.1,0-0.1v-3.9c0-0.3-0.1-0.6-0.2-0.8s-0.4-0.3-0.7-0.3c-0.4,0-0.9,0.2-1.4,0.7
			c-0.1,0.1-0.1,0.1-0.1,0.1c0,0,0,0.1,0,0.2v3.8c0,0.1-0.1,0.2-0.2,0.2h-0.8c-0.1,0-0.2-0.1-0.2-0.2v-3.9c0-0.3-0.1-0.6-0.2-0.8
			s-0.4-0.3-0.7-0.3c-0.3,0-0.5,0.1-0.7,0.2c-0.2,0.1-0.5,0.3-0.8,0.6v4c0,0.1,0,0.1,0,0.1c0,0-0.1,0-0.2,0h-0.8
			C45.5,18.1,45.5,18.1,45.5,18z"/>
	</g>
	<path fill="#06E3F4" d="M18.3,14.7c-0.2-0.3-0.2-0.6-0.1-1s0.3-0.6,0.6-0.8c0.3-0.2,0.6-0.2,1-0.1c0.3,0.1,0.6,0.3,0.8,0.6
		c0.2,0.3,0.2,0.6,0.1,1c-0.1,0.3-0.3,0.6-0.6,0.8c-0.3,0.2-0.6,0.2-1,0.1C18.7,15.3,18.4,15.1,18.3,14.7z"/>
	<path fill="none" stroke="#D3E6EA" stroke-width="0.5" d="M131.1,12c0.6,1.3,0.6,2.6,0.1,3.9c-0.5,1.3-1.4,2.3-2.7,2.9
		c-1.3,0.6-2.6,0.6-4,0.1c-1.3-0.5-2.3-1.4-2.9-2.7c-0.6-1.3-0.6-2.6-0.1-4c0.5-1.3,1.4-2.3,2.7-2.9c1.3-0.6,2.6-0.6,3.9-0.1
		C129.5,9.8,130.5,10.7,131.1,12z"/>
	<path fill="none" stroke="#D3E6EA" stroke-width="0.5" d="M137.3,7.9c-0.6,0.7-1.4,1-2.4,1.1c-0.9,0-1.7-0.3-2.4-0.9
		c-0.7-0.6-1-1.4-1.1-2.4c0-0.9,0.3-1.8,0.9-2.4c0.6-0.7,1.4-1,2.4-1.1c0.9,0,1.8,0.3,2.4,0.9c0.7,0.6,1,1.4,1.1,2.4
		C138.3,6.4,138,7.2,137.3,7.9z"/>
	<path fill="none" stroke="#D3E6EA" stroke-width="0.5" d="M139.2,16.5c-0.7-0.1-1.2-0.3-1.6-0.8c-0.4-0.5-0.6-1.1-0.6-1.7
		c0.1-0.7,0.3-1.2,0.8-1.6s1.1-0.6,1.7-0.6c0.7,0.1,1.2,0.3,1.6,0.8c0.4,0.5,0.6,1.1,0.6,1.7c-0.1,0.7-0.3,1.2-0.8,1.6
		C140.5,16.3,139.9,16.5,139.2,16.5z"/>
	<path fill="none" stroke="#D3E6EA" stroke-width="0.5" d="M133.5,22.2c-0.3-0.3-0.5-0.6-0.6-1c-0.1-0.4,0-0.8,0.3-1.1
		c0.3-0.3,0.6-0.5,1-0.6c0.4-0.1,0.8,0,1.1,0.3c0.3,0.3,0.5,0.6,0.6,1c0.1,0.4,0,0.8-0.3,1.1c-0.3,0.3-0.6,0.5-1,0.6
		C134.3,22.5,133.9,22.4,133.5,22.2z"/>
	<line fill="none" stroke="#D3E6EA" stroke-width="0.5" x1="131.4" y1="14.1" x2="136.9" y2="14.1"/>
	<line fill="none" stroke="#D3E6EA" stroke-width="0.5" x1="136.4" y1="8.5" x2="138.3" y2="12.3"/>
	<line fill="none" stroke="#D3E6EA" stroke-width="0.5" x1="138" y1="15.8" x2="135.3" y2="19.9"/>
	<circle fill="#D3E6EA" cx="126.3" cy="14.2" r="3.6"/>
	<g>
		<path fill="#D3E6EA" d="M143.8,10h5c0.1,0,0.1,0,0.1,0.1l0,0.7c0,0.1-0.1,0.2-0.2,0.2h-3.6c-0.1,0-0.1,0-0.1,0c0,0,0,0.1,0,0.1
			v2.4c0,0.1,0,0.1,0.1,0.1h2.8c0.1,0,0.1,0,0.1,0.1v0.7c0,0,0,0.1,0,0.1c0,0-0.1,0-0.1,0h-2.8c-0.1,0-0.1,0-0.1,0.1V18
			c0,0.1,0,0.1,0,0.1c0,0-0.1,0-0.2,0h-0.9c-0.1,0-0.1,0-0.1,0c0,0,0-0.1,0-0.1v-7.8C143.6,10,143.7,10,143.8,10z"/>
		<path fill="#D3E6EA" d="M150,17.9c-0.4-0.3-0.8-0.6-1-1.1c-0.2-0.5-0.4-1-0.4-1.6c0-0.6,0.1-1.1,0.4-1.6c0.2-0.5,0.6-0.8,1-1.1
			c0.4-0.3,0.9-0.4,1.5-0.4c0.6,0,1.1,0.1,1.5,0.4c0.4,0.3,0.8,0.6,1,1.1c0.2,0.5,0.4,1,0.4,1.6c0,0.6-0.1,1.1-0.4,1.6
			c-0.2,0.5-0.6,0.8-1,1.1c-0.4,0.3-0.9,0.4-1.5,0.4C150.9,18.2,150.4,18.1,150,17.9z M152.7,16.8c0.3-0.4,0.4-0.9,0.4-1.6
			c0-0.7-0.1-1.2-0.4-1.6c-0.3-0.4-0.7-0.6-1.2-0.6c-0.5,0-0.9,0.2-1.2,0.6c-0.3,0.4-0.4,0.9-0.4,1.6c0,0.7,0.1,1.2,0.4,1.6
			c0.3,0.4,0.7,0.6,1.2,0.6C152,17.4,152.4,17.2,152.7,16.8z"/>
		<path fill="#D3E6EA" d="M155.3,18v-5.5c0-0.1,0-0.2,0.1-0.2h0.8c0.1,0,0.1,0,0.1,0.1v0.7c0,0,0,0.1,0,0.1c0,0,0.1,0,0.1,0
			c0.3-0.3,0.6-0.6,0.8-0.7c0.3-0.2,0.6-0.3,0.9-0.3c0.3,0,0.4,0.1,0.4,0.2v0.9c0,0.1,0,0.1-0.1,0.1c-0.1,0-0.3-0.1-0.6-0.1
			c-0.2,0-0.4,0.1-0.6,0.2c-0.2,0.1-0.4,0.3-0.6,0.4c-0.2,0.2-0.2,0.4-0.2,0.6v3.5c0,0.1-0.1,0.2-0.2,0.2h-0.8
			C155.3,18.1,155.3,18.1,155.3,18z"/>
		<path fill="#D3E6EA" d="M163.1,16.5v-4c0-0.1,0.1-0.2,0.2-0.2h0.8c0.1,0,0.2,0.1,0.2,0.2l0,5.5c0,0.1,0,0.2-0.1,0.2h-0.9
			c-0.1,0-0.1,0-0.1-0.1v-0.6c0-0.1,0-0.1-0.1,0c-0.4,0.3-0.7,0.6-1,0.7c-0.3,0.1-0.6,0.2-1,0.2c-0.5,0-0.9-0.2-1.2-0.5
			c-0.3-0.3-0.5-0.7-0.5-1.2v-4c0-0.1,0.1-0.2,0.2-0.2h0.8c0.1,0,0.2,0.1,0.2,0.2v3.8c0,0.3,0.1,0.6,0.3,0.8
			c0.2,0.2,0.4,0.3,0.7,0.3C162,17.4,162.5,17.1,163.1,16.5z"/>
		<path fill="#D3E6EA" d="M165.5,18v-5.5c0-0.1,0-0.2,0.1-0.2h0.9c0.1,0,0.1,0,0.1,0.1V13c0,0,0,0.1,0,0.1c0,0,0,0,0.1,0
			c0.4-0.3,0.7-0.5,1-0.7c0.3-0.1,0.6-0.2,0.9-0.2c0.4,0,0.7,0.1,1,0.3c0.3,0.2,0.5,0.4,0.6,0.7c0,0,0,0,0,0c0,0,0.1,0,0.1-0.1
			c0.3-0.3,0.7-0.6,1-0.7s0.6-0.2,1-0.2c0.5,0,0.9,0.2,1.2,0.5s0.4,0.7,0.4,1.2v4c0,0.1-0.1,0.2-0.2,0.2H173c-0.1,0-0.1,0-0.1,0
			c0,0,0-0.1,0-0.1v-3.9c0-0.3-0.1-0.6-0.2-0.8s-0.4-0.3-0.7-0.3c-0.4,0-0.9,0.2-1.4,0.7c-0.1,0.1-0.1,0.1-0.1,0.1c0,0,0,0.1,0,0.2
			v3.8c0,0.1-0.1,0.2-0.2,0.2h-0.8c-0.1,0-0.2-0.1-0.2-0.2v-3.9c0-0.3-0.1-0.6-0.2-0.8c-0.2-0.2-0.4-0.3-0.7-0.3
			c-0.3,0-0.5,0.1-0.7,0.2c-0.2,0.1-0.5,0.3-0.8,0.6v4c0,0.1,0,0.1,0,0.1c0,0-0.1,0-0.2,0h-0.8C165.6,18.1,165.5,18.1,165.5,18z"/>
	</g>
	<path fill="#D3E6EA" d="M138.3,14.7c-0.2-0.3-0.2-0.6-0.1-1s0.3-0.6,0.6-0.8s0.6-0.2,1-0.1c0.3,0.1,0.6,0.3,0.8,0.6
		c0.2,0.3,0.2,0.6,0.1,1c-0.1,0.3-0.3,0.6-0.6,0.8c-0.3,0.2-0.6,0.2-1,0.1C138.7,15.3,138.5,15.1,138.3,14.7z"/>
</g>
<g id="Layer_2">
	<g>
	</g>
	<g>
	</g>
	<g>
	</g>
	<g>
	</g>
	<g>
	</g>
	<g>
	</g>
	<g>
	</g>
	<g>
	</g>
	<g>
	</g>
	<g>
	</g>
	<g>
	</g>
	<g>
	</g>
	<g>
	</g>
	<g>
	</g>
	<g>
	</g>
</g>
</svg>
