<?xml version="1.0" encoding="utf-8"?>
<!-- Generator: Adobe Illustrator 17.1.0, SVG Export Plug-In . SVG Version: 6.00 Build 0)  -->
<!DOCTYPE svg PUBLIC "-//W3C//DTD SVG 1.1//EN" "http://www.w3.org/Graphics/SVG/1.1/DTD/svg11.dtd">
<svg version="1.1" id="Layer_1" xmlns="http://www.w3.org/2000/svg" xmlns:xlink="http://www.w3.org/1999/xlink" x="0px" y="0px"
	 width="240px" height="40px" viewBox="0 0 240 40" enable-background="new 0 0 240 40" xml:space="preserve">
<path fill="none" stroke="#42BDAE" stroke-width="0.9894" stroke-miterlimit="10" d="M12.9,20"/>
<polyline fill="none" stroke="#37B34A" stroke-width="0.7452" stroke-miterlimit="10" points="0.8,13.1 4.4,13.1 6.9,17.5 4.4,21.8 
	0.8,21.8 "/>
<polyline fill="none" stroke="#37B34A" stroke-width="0.7452" stroke-miterlimit="10" points="12.2,7.8 8.6,7.8 6.1,12.2 8.6,16.6 
	12.2,16.6 "/>
<g>
	<g>
		<line fill="none" stroke="#37B34A" stroke-linecap="round" stroke-miterlimit="10" x1="1.1" y1="3.2" x2="1.1" y2="3.2"/>
		
			<line fill="none" stroke="#37B34A" stroke-linecap="round" stroke-miterlimit="10" stroke-dasharray="0,1.6852" x1="2.8" y1="3.2" x2="3.7" y2="3.2"/>
		<line fill="none" stroke="#37B34A" stroke-linecap="round" stroke-miterlimit="10" x1="4.5" y1="3.2" x2="4.5" y2="3.2"/>
		
			<line fill="none" stroke="#37B34A" stroke-linecap="round" stroke-miterlimit="10" stroke-dasharray="0,1.5936" x1="5.3" y1="4.6" x2="6.5" y2="6.6"/>
		<line fill="none" stroke="#37B34A" stroke-linecap="round" stroke-miterlimit="10" x1="6.9" y1="7.3" x2="6.9" y2="7.3"/>
		
			<line fill="none" stroke="#37B34A" stroke-linecap="round" stroke-miterlimit="10" stroke-dasharray="0,1.5936" x1="6.1" y1="8.7" x2="4.9" y2="10.8"/>
		<line fill="none" stroke="#37B34A" stroke-linecap="round" stroke-miterlimit="10" x1="4.5" y1="11.5" x2="4.5" y2="11.5"/>
		
			<line fill="none" stroke="#37B34A" stroke-linecap="round" stroke-miterlimit="10" stroke-dasharray="0,1.6852" x1="2.8" y1="11.5" x2="2" y2="11.5"/>
		<line fill="none" stroke="#37B34A" stroke-linecap="round" stroke-miterlimit="10" x1="1.1" y1="11.5" x2="1.1" y2="11.5"/>
	</g>
</g>
<path fill="none" stroke="#000000" stroke-width="0.5005" stroke-miterlimit="10" d="M2.4,12.8"/>
<g>
	<path fill="#777777" d="M15.9,3.1c0.1,0,0.1,0.1,0.1,0.2v7.8c0,0.1,0,0.1,0,0.2s-0.1,0-0.2,0h-0.9c-0.1,0-0.1,0-0.2,0
		c0,0,0-0.1,0-0.1V3.3c0-0.1,0.1-0.2,0.2-0.2H15.9z"/>
	<path fill="#777777" d="M17.5,11.1V5.6c0-0.1,0-0.2,0.1-0.2h0.9c0.1,0,0.1,0,0.1,0.1v0.6c0,0,0,0.1,0,0.1c0,0,0,0,0.1,0
		c0.4-0.3,0.7-0.5,1-0.7c0.3-0.1,0.6-0.2,1-0.2c0.5,0,1,0.2,1.3,0.5c0.3,0.3,0.5,0.7,0.5,1.2v4.1c0,0.1-0.1,0.2-0.2,0.2h-0.8
		c-0.1,0-0.2-0.1-0.2-0.2V7.3c0-0.3-0.1-0.6-0.3-0.8c-0.2-0.2-0.4-0.3-0.8-0.3c-0.3,0-0.5,0.1-0.8,0.2c-0.2,0.1-0.5,0.3-0.8,0.6v4
		c0,0.1,0,0.1,0,0.1c0,0-0.1,0-0.2,0h-0.8C17.6,11.3,17.5,11.2,17.5,11.1z"/>
	<path fill="#777777" d="M25.6,6.3c-0.1,0-0.1,0-0.1,0.1v3.2c0,0.3,0.1,0.5,0.2,0.6c0.1,0.1,0.3,0.2,0.5,0.2h0.7
		c0.1,0,0.1,0,0.1,0.1v0.5c0,0.1-0.1,0.2-0.2,0.2c-0.2,0-0.6,0.1-1.1,0.1c-0.5,0-0.8-0.1-1.1-0.3c-0.2-0.2-0.4-0.6-0.4-1V6.4
		c0-0.1,0-0.1-0.1-0.1h-0.8c-0.1,0-0.1,0-0.1-0.1V5.6c0-0.1,0-0.1,0.1-0.1h0.9c0.1,0,0.1,0,0.1-0.1l0.1-1.7c0-0.1,0.1-0.2,0.1-0.2
		h0.8c0.1,0,0.1,0.1,0.1,0.2v1.7c0,0.1,0,0.1,0.1,0.1h1.3c0.1,0,0.1,0,0.1,0.1v0.6c0,0.1-0.1,0.1-0.2,0.1H25.6z"/>
	<path fill="#777777" d="M27.9,11.1V5.6c0-0.1,0-0.2,0.1-0.2h0.8c0.1,0,0.1,0,0.1,0.1v0.7c0,0,0,0.1,0,0.1c0,0,0.1,0,0.1,0
		C29.4,6,29.7,5.8,30,5.6c0.3-0.2,0.6-0.3,0.9-0.3c0.3,0,0.4,0.1,0.4,0.2v0.9c0,0.1,0,0.1-0.1,0.1c-0.1,0-0.3-0.1-0.6-0.1
		c-0.2,0-0.4,0.1-0.6,0.2c-0.2,0.1-0.4,0.3-0.6,0.4S29,7.4,29,7.6v3.5c0,0.1-0.1,0.2-0.2,0.2h-0.8C27.9,11.3,27.9,11.2,27.9,11.1z"
		/>
	<path fill="#777777" d="M33.2,4.3c0,0.1,0,0.1,0,0.2c0,0-0.1,0.1-0.2,0.1h-0.8c-0.1,0-0.1,0-0.2,0s0-0.1,0-0.2v-1
		c0-0.1,0.1-0.2,0.2-0.2H33c0,0,0.1,0,0.1,0s0,0.1,0,0.1V4.3z M33.1,11.1c0,0.1,0,0.1,0,0.2c0,0-0.1,0-0.2,0h-0.7
		c-0.1,0-0.1,0-0.2,0c0,0,0-0.1,0-0.1V5.6c0-0.1,0-0.1,0-0.1c0,0,0.1,0,0.1,0H33c0.1,0,0.1,0.1,0.1,0.2V11.1z"/>
	<path fill="#777777" d="M34.4,11.1V5.6c0-0.1,0-0.2,0.1-0.2h0.9c0.1,0,0.1,0,0.1,0.1v0.6c0,0,0,0.1,0,0.1c0,0,0,0,0.1,0
		c0.4-0.3,0.7-0.5,1-0.7c0.3-0.1,0.6-0.2,1-0.2c0.5,0,1,0.2,1.3,0.5c0.3,0.3,0.5,0.7,0.5,1.2v4.1c0,0.1-0.1,0.2-0.2,0.2h-0.8
		c-0.1,0-0.2-0.1-0.2-0.2V7.3c0-0.3-0.1-0.6-0.3-0.8c-0.2-0.2-0.4-0.3-0.8-0.3c-0.3,0-0.5,0.1-0.8,0.2c-0.2,0.1-0.5,0.3-0.8,0.6v4
		c0,0.1,0,0.1,0,0.1c0,0-0.1,0-0.2,0h-0.8C34.5,11.3,34.4,11.2,34.4,11.1z"/>
	<path fill="#777777" d="M43.5,6.3c-0.2-0.1-0.5-0.2-0.9-0.2c-0.4,0-0.7,0.1-0.9,0.2c-0.2,0.2-0.4,0.4-0.4,0.6
		c0,0.1,0.1,0.3,0.2,0.4c0.1,0.1,0.3,0.2,0.6,0.3L43.6,8c0.5,0.1,0.9,0.3,1.1,0.6c0.2,0.3,0.4,0.6,0.4,1c0,0.4-0.1,0.7-0.3,0.9
		s-0.5,0.5-0.9,0.6s-0.8,0.2-1.3,0.2c-0.6,0-1.1-0.1-1.6-0.3c-0.4-0.2-0.8-0.5-1-0.9c0,0,0-0.1,0-0.1c0,0,0-0.1,0.1-0.1l0.5-0.3
		c0,0,0.1,0,0.1,0c0,0,0.1,0,0.1,0c0.4,0.6,1,0.9,1.7,0.9c0.4,0,0.7-0.1,1-0.2C43.9,10.2,44,10,44,9.8c0-0.2-0.1-0.3-0.2-0.5
		C43.6,9.2,43.4,9.1,43,9l-1.1-0.3c-0.5-0.1-0.9-0.3-1.2-0.6c-0.2-0.3-0.4-0.6-0.4-1c0-0.4,0.1-0.7,0.3-0.9c0.2-0.3,0.5-0.5,0.8-0.6
		c0.3-0.1,0.8-0.2,1.2-0.2c0.5,0,0.9,0.1,1.3,0.3c0.4,0.2,0.7,0.4,0.9,0.7c0,0,0,0.1,0,0.1s0,0.1-0.1,0.1l-0.6,0.3c0,0,0,0-0.1,0
		c0,0-0.1,0-0.1-0.1C44,6.6,43.8,6.4,43.5,6.3z"/>
	<path fill="#777777" d="M47.2,4.3c0,0.1,0,0.1,0,0.2c0,0-0.1,0.1-0.2,0.1h-0.8c-0.1,0-0.1,0-0.2,0s0-0.1,0-0.2v-1
		c0-0.1,0.1-0.2,0.2-0.2h0.9c0,0,0.1,0,0.1,0s0,0.1,0,0.1V4.3z M47.2,11.1c0,0.1,0,0.1,0,0.2c0,0-0.1,0-0.2,0h-0.7
		c-0.1,0-0.1,0-0.2,0c0,0,0-0.1,0-0.1V5.6c0-0.1,0-0.1,0-0.1c0,0,0.1,0,0.1,0H47c0.1,0,0.1,0.1,0.1,0.2V11.1z"/>
	<path fill="#777777" d="M52.4,5.8c0.4,0.3,0.7,0.6,0.9,1.1c0,0,0,0.1,0,0.1c0,0,0,0.1-0.1,0.1l-0.8,0.1h0c0,0-0.1,0-0.1-0.1
		c-0.2-0.3-0.4-0.5-0.6-0.7c-0.2-0.1-0.4-0.2-0.7-0.2c-0.5,0-0.9,0.2-1.2,0.6c-0.3,0.4-0.5,0.9-0.5,1.6c0,0.7,0.2,1.2,0.5,1.6
		c0.3,0.4,0.7,0.6,1.3,0.6c0.3,0,0.6-0.1,0.9-0.3c0.2-0.2,0.5-0.4,0.7-0.8c0,0,0,0,0.1-0.1c0,0,0.1,0,0.1,0l0.6,0.2
		c0.1,0,0.1,0.1,0,0.2c-0.2,0.4-0.5,0.8-0.9,1.1c-0.4,0.3-0.9,0.4-1.5,0.4c-0.5,0-1-0.1-1.5-0.4s-0.8-0.6-1-1.1
		c-0.2-0.5-0.4-1-0.4-1.6c0-0.6,0.1-1.1,0.4-1.6c0.2-0.5,0.6-0.8,1-1.1c0.4-0.3,0.9-0.4,1.4-0.4C51.5,5.4,52,5.5,52.4,5.8z"/>
	<path fill="#777777" d="M55.6,11.4c-0.6,0-1-0.1-1.3-0.4c-0.3-0.3-0.5-0.7-0.5-1.2c0-0.6,0.3-1.1,0.8-1.4c0.5-0.4,1.3-0.5,2.2-0.6
		l0.7-0.1c0.1,0,0.2-0.1,0.2-0.2V7.3c0-0.4-0.1-0.6-0.3-0.9s-0.5-0.3-0.9-0.3c-0.6,0-1.1,0.3-1.4,0.8C55,7,55,7,54.9,7s-0.1,0-0.1,0
		l-0.7-0.2c0,0-0.1,0-0.1-0.1c0,0,0-0.1,0-0.1c0.2-0.4,0.5-0.7,0.9-0.9c0.4-0.2,0.9-0.3,1.5-0.3c0.8,0,1.3,0.2,1.7,0.5
		s0.6,0.8,0.6,1.4v3.9c0,0.1,0,0.1,0,0.1c0,0-0.1,0-0.1,0h-0.7c-0.1,0-0.2-0.1-0.2-0.2l0-0.4c0-0.1,0-0.1-0.1-0.1c0,0-0.1,0-0.1,0.1
		C57,11.1,56.3,11.4,55.6,11.4z M57.5,8.4l-0.6,0c-0.6,0-1.1,0.2-1.4,0.4c-0.4,0.2-0.5,0.5-0.5,0.9c0,0.3,0.1,0.5,0.3,0.7
		c0.2,0.2,0.5,0.2,0.8,0.2c0.4,0,0.8-0.1,1.1-0.4c0.3-0.3,0.5-0.5,0.5-0.8V8.6C57.7,8.4,57.6,8.4,57.5,8.4z"/>
	<path fill="#777777" d="M61.1,11.1c0,0.1,0,0.1,0,0.2s-0.1,0-0.2,0h-0.7c-0.1,0-0.1,0-0.2,0c0,0,0-0.1,0-0.1l0-7.8
		c0-0.1,0-0.2,0.1-0.2H61c0.1,0,0.1,0.1,0.1,0.2V11.1z"/>
	<path fill="#777777" d="M63.6,11.1c0,0.1,0,0.1,0,0.2s-0.1,0-0.2,0h-0.7c-0.1,0-0.1,0-0.2,0c0,0,0-0.1,0-0.1l0-7.8
		c0-0.1,0-0.2,0.1-0.2h0.9c0.1,0,0.1,0.1,0.1,0.2V11.1z"/>
	<path fill="#777777" d="M64.8,13.1c-0.1,0-0.1-0.1-0.1-0.1v-0.6c0-0.1,0.1-0.2,0.3-0.2h0.7c0.2,0,0.3-0.1,0.5-0.2
		c0.1-0.1,0.3-0.2,0.3-0.4c0.1-0.2,0.1-0.3,0.1-0.5c0-0.1,0-0.2,0-0.2l-2.1-5.2c0,0,0,0,0-0.1c0-0.1,0.1-0.1,0.2-0.1h0.9
		c0,0,0.1,0,0.1,0c0,0,0.1,0.1,0.1,0.1l1.5,4c0,0.1,0,0.1,0.1,0.1c0,0,0.1,0,0.1-0.1l1.5-3.9c0-0.1,0.1-0.1,0.2-0.1h0.6
		c0.1,0,0.1,0,0.1,0.1c0,0,0,0.1,0,0.1l-2.4,6c-0.2,0.4-0.3,0.7-0.5,0.9c-0.2,0.2-0.4,0.4-0.7,0.4c-0.3,0.1-0.6,0.1-1,0.1
		C65,13.1,64.9,13.1,64.8,13.1z"/>
	<path fill="#777777" d="M75,3.1c1.5,0,2.6,0.4,3.3,1.1c0.7,0.7,1,1.7,1,3c0,1.3-0.4,2.4-1.1,3.1c-0.7,0.7-1.8,1.1-3.3,1.1H73
		c-0.1,0-0.2-0.1-0.2-0.2V3.3c0-0.1,0-0.1,0-0.1c0,0,0.1,0,0.1,0C73.9,3.1,74.5,3.1,75,3.1z M74.1,4.3v5.9c0,0.1,0,0.1,0,0.1
		c0,0,0.1,0,0.1,0h0.4c0.8,0,1.4-0.1,1.8-0.3c0.5-0.2,0.8-0.5,1-1c0.2-0.5,0.3-1.1,0.3-1.8c0-0.7-0.1-1.3-0.3-1.8s-0.5-0.8-1-0.9
		c-0.4-0.2-1-0.3-1.7-0.3l-0.7,0C74.2,4.1,74.1,4.2,74.1,4.3z"/>
	<path fill="#777777" d="M81.6,4.3c0,0.1,0,0.1,0,0.2c0,0-0.1,0.1-0.2,0.1h-0.8c-0.1,0-0.1,0-0.2,0s0-0.1,0-0.2v-1
		c0-0.1,0.1-0.2,0.2-0.2h0.9c0,0,0.1,0,0.1,0s0,0.1,0,0.1V4.3z M81.5,11.1c0,0.1,0,0.1,0,0.2c0,0-0.1,0-0.2,0h-0.7
		c-0.1,0-0.1,0-0.2,0c0,0,0-0.1,0-0.1V5.6c0-0.1,0-0.1,0-0.1c0,0,0.1,0,0.1,0h0.9c0.1,0,0.1,0.1,0.1,0.2V11.1z"/>
	<path fill="#777777" d="M85.7,6.3c-0.2-0.1-0.5-0.2-0.9-0.2c-0.4,0-0.7,0.1-0.9,0.2S83.6,6.7,83.6,7c0,0.1,0.1,0.3,0.2,0.4
		c0.1,0.1,0.3,0.2,0.6,0.3L85.8,8c0.5,0.1,0.9,0.3,1.1,0.6c0.2,0.3,0.4,0.6,0.4,1c0,0.4-0.1,0.7-0.3,0.9s-0.5,0.5-0.9,0.6
		s-0.8,0.2-1.3,0.2c-0.6,0-1.1-0.1-1.6-0.3s-0.8-0.5-1-0.9c0,0,0-0.1,0-0.1c0,0,0-0.1,0.1-0.1l0.5-0.3c0,0,0.1,0,0.1,0
		c0,0,0.1,0,0.1,0c0.4,0.6,1,0.9,1.7,0.9c0.4,0,0.7-0.1,1-0.2c0.3-0.1,0.4-0.4,0.4-0.6c0-0.2-0.1-0.3-0.2-0.5
		c-0.2-0.1-0.4-0.2-0.7-0.3l-1.1-0.3c-0.5-0.1-0.9-0.3-1.2-0.6c-0.2-0.3-0.4-0.6-0.4-1c0-0.4,0.1-0.7,0.3-0.9
		c0.2-0.3,0.5-0.5,0.8-0.6c0.3-0.1,0.8-0.2,1.2-0.2c0.5,0,0.9,0.1,1.3,0.3c0.4,0.2,0.7,0.4,0.9,0.7c0,0,0,0.1,0,0.1s0,0.1-0.1,0.1
		l-0.6,0.3c0,0,0,0-0.1,0c0,0-0.1,0-0.1-0.1C86.2,6.6,86,6.4,85.7,6.3z"/>
	<path fill="#777777" d="M89.3,11c-0.4-0.3-0.8-0.6-1-1.1c-0.2-0.5-0.4-1-0.4-1.6c0-0.6,0.1-1.1,0.4-1.6s0.6-0.8,1-1.1
		c0.4-0.3,0.9-0.4,1.5-0.4c0.6,0,1.1,0.1,1.5,0.4c0.4,0.3,0.8,0.6,1,1.1c0.2,0.5,0.4,1,0.4,1.6c0,0.6-0.1,1.1-0.4,1.6
		c-0.2,0.5-0.6,0.8-1,1.1c-0.4,0.3-0.9,0.4-1.5,0.4S89.7,11.3,89.3,11z M92,10c0.3-0.4,0.4-0.9,0.4-1.6c0-0.7-0.1-1.2-0.4-1.6
		c-0.3-0.4-0.7-0.6-1.2-0.6s-0.9,0.2-1.2,0.6c-0.3,0.4-0.4,0.9-0.4,1.6c0,0.7,0.1,1.2,0.4,1.6s0.7,0.6,1.2,0.6
		C91.3,10.6,91.7,10.4,92,10z"/>
	<path fill="#777777" d="M94.6,11.1V5.6c0-0.1,0-0.2,0.1-0.2h0.8c0.1,0,0.1,0,0.1,0.1v0.7c0,0,0,0.1,0,0.1c0,0,0.1,0,0.1,0
		c0.3-0.3,0.6-0.6,0.8-0.7c0.3-0.2,0.6-0.3,0.9-0.3c0.3,0,0.4,0.1,0.4,0.2v0.9c0,0.1,0,0.1-0.1,0.1c-0.1,0-0.3-0.1-0.6-0.1
		c-0.2,0-0.4,0.1-0.6,0.2C96.3,6.7,96.1,6.9,96,7s-0.2,0.4-0.2,0.6v3.5c0,0.1-0.1,0.2-0.2,0.2h-0.8C94.6,11.3,94.6,11.2,94.6,11.1z"
		/>
	<path fill="#777777" d="M102.4,11.1v-0.4c0-0.1,0-0.1-0.1-0.1c0,0-0.1,0-0.1,0.1c-0.2,0.2-0.5,0.4-0.7,0.5s-0.6,0.2-1,0.2
		c-0.5,0-0.9-0.1-1.2-0.3c-0.4-0.2-0.6-0.6-0.9-1c-0.2-0.4-0.3-1-0.3-1.6c0-0.6,0.1-1.1,0.3-1.6C98.7,6.4,99,6,99.4,5.7
		c0.4-0.3,0.8-0.4,1.3-0.4c0.3,0,0.6,0.1,0.8,0.2s0.5,0.2,0.7,0.4c0,0,0.1,0.1,0.1,0.1c0,0,0.1,0,0.1-0.1V3.3c0-0.1,0-0.2,0.1-0.2
		h0.9c0,0,0.1,0,0.1,0s0,0.1,0,0.1v7.8c0,0.1,0,0.1,0,0.1s-0.1,0-0.2,0h-0.8C102.5,11.3,102.4,11.2,102.4,11.1z M101.8,6.3
		c-0.2-0.1-0.4-0.2-0.7-0.2c-0.5,0-0.9,0.2-1.2,0.6s-0.5,0.9-0.5,1.7s0.2,1.3,0.5,1.6s0.7,0.5,1.2,0.5c0.3,0,0.5-0.1,0.7-0.2
		c0.2-0.1,0.4-0.3,0.5-0.5c0.1-0.2,0.2-0.4,0.2-0.6V6.8C102.2,6.6,102,6.4,101.8,6.3z"/>
	<path fill="#777777" d="M106,9.7c0.2,0.3,0.4,0.5,0.6,0.6c0.3,0.2,0.6,0.2,0.9,0.2c0.3,0,0.6-0.1,0.9-0.2c0.3-0.1,0.5-0.4,0.7-0.6
		c0,0,0,0,0.1,0c0,0,0.1,0,0.1,0l0.6,0.3c0,0,0.1,0.1,0.1,0.1c0,0,0,0.1,0,0.1c-0.3,0.5-0.7,0.8-1.1,1c-0.4,0.2-0.9,0.3-1.4,0.3
		c-0.5,0-1-0.1-1.5-0.4c-0.4-0.2-0.8-0.6-1-1.1s-0.4-1-0.4-1.5c0-0.6,0.1-1.2,0.4-1.6c0.2-0.5,0.6-0.8,1-1.1s0.9-0.4,1.4-0.4
		c0.5,0,1,0.1,1.4,0.4c0.4,0.2,0.7,0.6,1,1c0.2,0.5,0.3,1,0.3,1.6v0c0,0.1,0,0.1,0,0.1s-0.1,0-0.1,0h-4.1c-0.1,0-0.1,0.1-0.1,0.2
		C105.7,9.1,105.8,9.4,106,9.7z M108.7,7.9c0.1,0,0.1,0,0.1,0c0,0,0-0.1,0-0.1c0-0.3-0.1-0.6-0.2-0.8c-0.1-0.2-0.3-0.4-0.5-0.6
		c-0.2-0.2-0.5-0.2-0.8-0.2c-0.3,0-0.6,0.1-0.9,0.2c-0.2,0.2-0.4,0.4-0.6,0.6c-0.1,0.3-0.2,0.6-0.2,0.9L108.7,7.9z"/>
	<path fill="#777777" d="M111,11.1V5.6c0-0.1,0-0.2,0.1-0.2h0.8c0.1,0,0.1,0,0.1,0.1v0.7c0,0,0,0.1,0,0.1c0,0,0.1,0,0.1,0
		c0.3-0.3,0.6-0.6,0.8-0.7c0.3-0.2,0.6-0.3,0.9-0.3c0.3,0,0.4,0.1,0.4,0.2v0.9c0,0.1,0,0.1-0.1,0.1c-0.1,0-0.3-0.1-0.6-0.1
		c-0.2,0-0.4,0.1-0.6,0.2c-0.2,0.1-0.4,0.3-0.6,0.4s-0.2,0.4-0.2,0.6v3.5c0,0.1-0.1,0.2-0.2,0.2h-0.8C111,11.3,111,11.2,111,11.1z"
		/>
	<path fill="#777777" d="M20.1,17.9c-0.5,0.4-1.2,0.6-2.1,0.6h-1.8c-0.1,0-0.1,0-0.1,0.1v3c0,0.1-0.1,0.2-0.2,0.2h-1
		c-0.1,0-0.2-0.1-0.2-0.2v-7.8c0-0.1,0-0.1,0-0.1c0,0,0.1,0,0.1,0h2.9c0.9,0,1.7,0.2,2.2,0.6c0.6,0.4,0.8,1,0.8,1.8
		C20.9,16.8,20.6,17.4,20.1,17.9z M17.8,14.6h-1.5c-0.1,0-0.1,0-0.1,0c0,0,0,0.1,0,0.1v2.6c0,0.1,0,0.2,0.1,0.2h1.6
		c0.5,0,1-0.1,1.3-0.4c0.3-0.2,0.5-0.6,0.5-1.1C19.5,15.1,19,14.6,17.8,14.6z"/>
	<path fill="#777777" d="M21.5,21.6v-5.5c0-0.1,0-0.2,0.1-0.2h0.8c0.1,0,0.1,0,0.1,0.1v0.7c0,0,0,0.1,0,0.1c0,0,0.1,0,0.1,0
		c0.3-0.3,0.6-0.6,0.8-0.7c0.3-0.2,0.6-0.3,0.9-0.3c0.3,0,0.4,0.1,0.4,0.2v0.9c0,0.1,0,0.1-0.1,0.1c-0.1,0-0.3-0.1-0.6-0.1
		c-0.2,0-0.4,0.1-0.6,0.2c-0.2,0.1-0.4,0.3-0.6,0.4s-0.2,0.4-0.2,0.6v3.5c0,0.1-0.1,0.2-0.2,0.2h-0.8C21.6,21.8,21.5,21.7,21.5,21.6
		z"/>
	<path fill="#777777" d="M26.3,21.5c-0.4-0.3-0.8-0.6-1-1.1c-0.2-0.5-0.4-1-0.4-1.6c0-0.6,0.1-1.1,0.4-1.6c0.2-0.5,0.6-0.8,1-1.1
		s0.9-0.4,1.5-0.4c0.6,0,1.1,0.1,1.5,0.4c0.4,0.3,0.8,0.6,1,1.1s0.4,1,0.4,1.6c0,0.6-0.1,1.1-0.4,1.6c-0.2,0.5-0.6,0.8-1,1.1
		c-0.4,0.3-0.9,0.4-1.5,0.4C27.2,21.9,26.7,21.8,26.3,21.5z M29,20.5c0.3-0.4,0.4-0.9,0.4-1.6c0-0.7-0.1-1.2-0.4-1.6
		c-0.3-0.4-0.7-0.6-1.2-0.6s-0.9,0.2-1.2,0.6c-0.3,0.4-0.4,0.9-0.4,1.6c0,0.7,0.1,1.2,0.4,1.6s0.7,0.6,1.2,0.6
		C28.3,21.1,28.7,20.9,29,20.5z"/>
	<path fill="#777777" d="M33,16.8c-0.1,0-0.1,0-0.1,0.1v3.2c0,0.3,0.1,0.5,0.2,0.6c0.1,0.1,0.3,0.2,0.5,0.2h0.7c0.1,0,0.1,0,0.1,0.1
		v0.5c0,0.1-0.1,0.2-0.2,0.2c-0.2,0-0.6,0.1-1.1,0.1c-0.5,0-0.8-0.1-1.1-0.3c-0.2-0.2-0.4-0.6-0.4-1v-3.5c0-0.1,0-0.1-0.1-0.1h-0.8
		c-0.1,0-0.1,0-0.1-0.1v-0.6c0-0.1,0-0.1,0.1-0.1h0.9c0.1,0,0.1,0,0.1-0.1l0.1-1.7c0-0.1,0.1-0.2,0.1-0.2h0.8c0.1,0,0.1,0.1,0.1,0.2
		v1.7c0,0.1,0,0.1,0.1,0.1h1.3c0.1,0,0.1,0,0.1,0.1v0.6c0,0.1-0.1,0.1-0.2,0.1H33z"/>
	<path fill="#777777" d="M36.1,20.2c0.2,0.3,0.4,0.5,0.6,0.6c0.3,0.2,0.6,0.2,0.9,0.2c0.3,0,0.6-0.1,0.9-0.2
		c0.3-0.1,0.5-0.4,0.7-0.6c0,0,0,0,0.1,0c0,0,0.1,0,0.1,0l0.6,0.3c0,0,0.1,0.1,0.1,0.1c0,0,0,0.1,0,0.1c-0.3,0.5-0.7,0.8-1.1,1
		c-0.4,0.2-0.9,0.3-1.4,0.3c-0.5,0-1-0.1-1.5-0.4c-0.4-0.2-0.8-0.6-1-1.1c-0.2-0.5-0.4-1-0.4-1.5c0-0.6,0.1-1.2,0.4-1.6
		c0.2-0.5,0.6-0.8,1-1.1s0.9-0.4,1.4-0.4c0.5,0,1,0.1,1.4,0.4c0.4,0.2,0.7,0.6,1,1s0.3,1,0.3,1.6v0c0,0.1,0,0.1,0,0.1
		c0,0-0.1,0-0.1,0H36c-0.1,0-0.1,0.1-0.1,0.2C35.9,19.6,36,19.9,36.1,20.2z M38.9,18.4c0.1,0,0.1,0,0.1,0c0,0,0-0.1,0-0.1
		c0-0.3-0.1-0.6-0.2-0.8s-0.3-0.4-0.5-0.6s-0.5-0.2-0.8-0.2c-0.3,0-0.6,0.1-0.9,0.2c-0.2,0.2-0.4,0.4-0.6,0.6s-0.2,0.6-0.2,0.9
		L38.9,18.4z"/>
	<path fill="#777777" d="M42.3,14.8c0,0.1,0,0.1,0,0.2c0,0-0.1,0.1-0.2,0.1h-0.8c-0.1,0-0.1,0-0.2,0s0-0.1,0-0.2v-1
		c0-0.1,0.1-0.2,0.2-0.2h0.9c0,0,0.1,0,0.1,0s0,0.1,0,0.1V14.8z M42.3,21.6c0,0.1,0,0.1,0,0.2c0,0-0.1,0-0.2,0h-0.7
		c-0.1,0-0.1,0-0.2,0c0,0,0-0.1,0-0.1v-5.5c0-0.1,0-0.1,0-0.1c0,0,0.1,0,0.1,0h0.9c0.1,0,0.1,0.1,0.1,0.2V21.6z"/>
	<path fill="#777777" d="M43.5,21.6v-5.5c0-0.1,0-0.2,0.1-0.2h0.9c0.1,0,0.1,0,0.1,0.1v0.6c0,0,0,0.1,0,0.1c0,0,0,0,0.1,0
		c0.4-0.3,0.7-0.5,1-0.7c0.3-0.1,0.6-0.2,1-0.2c0.5,0,1,0.2,1.3,0.5c0.3,0.3,0.5,0.7,0.5,1.2v4.1c0,0.1-0.1,0.2-0.2,0.2h-0.8
		c-0.1,0-0.2-0.1-0.2-0.2v-3.9c0-0.3-0.1-0.6-0.3-0.8c-0.2-0.2-0.4-0.3-0.8-0.3c-0.3,0-0.5,0.1-0.8,0.2c-0.2,0.1-0.5,0.3-0.8,0.6v4
		c0,0.1,0,0.1,0,0.1c0,0-0.1,0-0.2,0h-0.8C43.6,21.8,43.5,21.7,43.5,21.6z"/>
	<path fill="#777777" d="M52.7,16.8c-0.2-0.1-0.5-0.2-0.9-0.2c-0.4,0-0.7,0.1-0.9,0.2c-0.2,0.2-0.4,0.4-0.4,0.6
		c0,0.1,0.1,0.3,0.2,0.4c0.1,0.1,0.3,0.2,0.6,0.3l1.4,0.4c0.5,0.1,0.9,0.3,1.1,0.6c0.2,0.3,0.4,0.6,0.4,1c0,0.4-0.1,0.7-0.3,0.9
		c-0.2,0.3-0.5,0.5-0.9,0.6s-0.8,0.2-1.3,0.2c-0.6,0-1.1-0.1-1.6-0.3c-0.4-0.2-0.8-0.5-1-0.9c0,0,0-0.1,0-0.1c0,0,0-0.1,0.1-0.1
		l0.5-0.3c0,0,0.1,0,0.1,0c0,0,0.1,0,0.1,0c0.4,0.6,1,0.9,1.7,0.9c0.4,0,0.7-0.1,1-0.2c0.3-0.1,0.4-0.4,0.4-0.6
		c0-0.2-0.1-0.3-0.2-0.5c-0.2-0.1-0.4-0.2-0.7-0.3l-1.1-0.3c-0.5-0.1-0.9-0.3-1.2-0.6c-0.2-0.3-0.4-0.6-0.4-1c0-0.4,0.1-0.7,0.3-0.9
		c0.2-0.3,0.5-0.5,0.8-0.6c0.3-0.1,0.8-0.2,1.2-0.2c0.5,0,0.9,0.1,1.3,0.3c0.4,0.2,0.7,0.4,0.9,0.7c0,0,0,0.1,0,0.1s0,0.1-0.1,0.1
		l-0.6,0.3c0,0,0,0-0.1,0c0,0-0.1,0-0.1-0.1C53.1,17.1,52.9,16.9,52.7,16.8z"/>
</g>
<circle fill="#37B34A" cx="10.6" cy="12.1" r="1.1"/>
<path fill="none" stroke="#000000" stroke-width="0.5734" stroke-miterlimit="10" d="M1.9,14.2"/>
<path fill="none" stroke="#42BDAE" stroke-width="0.9894" stroke-miterlimit="10" d="M132.7,20"/>
<polyline fill="none" stroke="#CCCCCC" stroke-width="0.7452" stroke-miterlimit="10" points="120.6,13.1 124.2,13.1 126.7,17.5 
	124.2,21.8 120.6,21.8 "/>
<polyline fill="none" stroke="#CCCCCC" stroke-width="0.7452" stroke-miterlimit="10" points="132,7.8 128.5,7.8 125.9,12.2 
	128.5,16.6 132,16.6 "/>
<g>
	<g>
		<line fill="none" stroke="#CCCCCC" stroke-linecap="round" stroke-miterlimit="10" x1="121" y1="3.2" x2="121" y2="3.2"/>
		
			<line fill="none" stroke="#CCCCCC" stroke-linecap="round" stroke-miterlimit="10" stroke-dasharray="0,1.6852" x1="122.7" y1="3.2" x2="123.5" y2="3.2"/>
		<line fill="none" stroke="#CCCCCC" stroke-linecap="round" stroke-miterlimit="10" x1="124.3" y1="3.2" x2="124.3" y2="3.2"/>
		
			<line fill="none" stroke="#CCCCCC" stroke-linecap="round" stroke-miterlimit="10" stroke-dasharray="0,1.5936" x1="125.1" y1="4.6" x2="126.3" y2="6.6"/>
		<line fill="none" stroke="#CCCCCC" stroke-linecap="round" stroke-miterlimit="10" x1="126.7" y1="7.3" x2="126.7" y2="7.3"/>
		
			<line fill="none" stroke="#CCCCCC" stroke-linecap="round" stroke-miterlimit="10" stroke-dasharray="0,1.5936" x1="125.9" y1="8.7" x2="124.7" y2="10.8"/>
		<line fill="none" stroke="#CCCCCC" stroke-linecap="round" stroke-miterlimit="10" x1="124.3" y1="11.5" x2="124.3" y2="11.5"/>
		
			<line fill="none" stroke="#CCCCCC" stroke-linecap="round" stroke-miterlimit="10" stroke-dasharray="0,1.6852" x1="122.7" y1="11.5" x2="121.8" y2="11.5"/>
		<line fill="none" stroke="#CCCCCC" stroke-linecap="round" stroke-miterlimit="10" x1="121" y1="11.5" x2="121" y2="11.5"/>
	</g>
</g>
<path fill="none" stroke="#000000" stroke-width="0.5005" stroke-miterlimit="10" d="M122.3,12.8"/>
<g>
	<path fill="#CCCCCC" d="M135.8,3.1c0.1,0,0.1,0.1,0.1,0.2v7.8c0,0.1,0,0.1,0,0.2s-0.1,0-0.2,0h-0.9c-0.1,0-0.1,0-0.2,0
		c0,0,0-0.1,0-0.1V3.3c0-0.1,0.1-0.2,0.2-0.2H135.8z"/>
	<path fill="#CCCCCC" d="M137.4,11.1V5.6c0-0.1,0-0.2,0.1-0.2h0.9c0.1,0,0.1,0,0.1,0.1v0.6c0,0,0,0.1,0,0.1c0,0,0,0,0.1,0
		c0.4-0.3,0.7-0.5,1-0.7c0.3-0.1,0.6-0.2,1-0.2c0.5,0,1,0.2,1.3,0.5c0.3,0.3,0.5,0.7,0.5,1.2v4.1c0,0.1-0.1,0.2-0.2,0.2h-0.8
		c-0.1,0-0.2-0.1-0.2-0.2V7.3c0-0.3-0.1-0.6-0.3-0.8c-0.2-0.2-0.4-0.3-0.8-0.3c-0.3,0-0.5,0.1-0.8,0.2c-0.2,0.1-0.5,0.3-0.8,0.6v4
		c0,0.1,0,0.1,0,0.1s-0.1,0-0.2,0h-0.8C137.4,11.3,137.4,11.2,137.4,11.1z"/>
	<path fill="#CCCCCC" d="M145.4,6.3c-0.1,0-0.1,0-0.1,0.1v3.2c0,0.3,0.1,0.5,0.2,0.6c0.1,0.1,0.3,0.2,0.5,0.2h0.7
		c0.1,0,0.1,0,0.1,0.1v0.5c0,0.1-0.1,0.2-0.2,0.2c-0.2,0-0.6,0.1-1.1,0.1c-0.5,0-0.8-0.1-1.1-0.3c-0.2-0.2-0.4-0.6-0.4-1V6.4
		c0-0.1,0-0.1-0.1-0.1h-0.8c-0.1,0-0.1,0-0.1-0.1V5.6c0-0.1,0-0.1,0.1-0.1h0.9c0.1,0,0.1,0,0.1-0.1l0.1-1.7c0-0.1,0.1-0.2,0.1-0.2
		h0.8c0.1,0,0.1,0.1,0.1,0.2v1.7c0,0.1,0,0.1,0.1,0.1h1.3c0.1,0,0.1,0,0.1,0.1v0.6c0,0.1-0.1,0.1-0.2,0.1H145.4z"/>
	<path fill="#CCCCCC" d="M147.7,11.1V5.6c0-0.1,0-0.2,0.1-0.2h0.8c0.1,0,0.1,0,0.1,0.1v0.7c0,0,0,0.1,0,0.1c0,0,0.1,0,0.1,0
		c0.3-0.3,0.6-0.6,0.8-0.7c0.3-0.2,0.6-0.3,0.9-0.3c0.3,0,0.4,0.1,0.4,0.2v0.9c0,0.1,0,0.1-0.1,0.1c-0.1,0-0.3-0.1-0.6-0.1
		c-0.2,0-0.4,0.1-0.6,0.2c-0.2,0.1-0.4,0.3-0.6,0.4c-0.2,0.2-0.2,0.4-0.2,0.6v3.5c0,0.1-0.1,0.2-0.2,0.2h-0.8
		C147.8,11.3,147.7,11.2,147.7,11.1z"/>
	<path fill="#CCCCCC" d="M153,4.3c0,0.1,0,0.1,0,0.2c0,0-0.1,0.1-0.2,0.1H152c-0.1,0-0.1,0-0.2,0s0-0.1,0-0.2v-1
		c0-0.1,0.1-0.2,0.2-0.2h0.9c0,0,0.1,0,0.1,0s0,0.1,0,0.1V4.3z M153,11.1c0,0.1,0,0.1,0,0.2c0,0-0.1,0-0.2,0H152c-0.1,0-0.1,0-0.2,0
		c0,0,0-0.1,0-0.1V5.6c0-0.1,0-0.1,0-0.1c0,0,0.1,0,0.1,0h0.9c0.1,0,0.1,0.1,0.1,0.2V11.1z"/>
	<path fill="#CCCCCC" d="M154.2,11.1V5.6c0-0.1,0-0.2,0.1-0.2h0.9c0.1,0,0.1,0,0.1,0.1v0.6c0,0,0,0.1,0,0.1c0,0,0,0,0.1,0
		c0.4-0.3,0.7-0.5,1-0.7c0.3-0.1,0.6-0.2,1-0.2c0.5,0,1,0.2,1.3,0.5c0.3,0.3,0.5,0.7,0.5,1.2v4.1c0,0.1-0.1,0.2-0.2,0.2h-0.8
		c-0.1,0-0.2-0.1-0.2-0.2V7.3c0-0.3-0.1-0.6-0.3-0.8c-0.2-0.2-0.4-0.3-0.8-0.3c-0.3,0-0.5,0.1-0.8,0.2c-0.2,0.1-0.5,0.3-0.8,0.6v4
		c0,0.1,0,0.1,0,0.1s-0.1,0-0.2,0h-0.8C154.3,11.3,154.2,11.2,154.2,11.1z"/>
	<path fill="#CCCCCC" d="M163.3,6.3c-0.2-0.1-0.5-0.2-0.9-0.2c-0.4,0-0.7,0.1-0.9,0.2s-0.4,0.4-0.4,0.6c0,0.1,0.1,0.3,0.2,0.4
		c0.1,0.1,0.3,0.2,0.6,0.3l1.4,0.4c0.5,0.1,0.9,0.3,1.1,0.6c0.2,0.3,0.4,0.6,0.4,1c0,0.4-0.1,0.7-0.3,0.9s-0.5,0.5-0.9,0.6
		s-0.8,0.2-1.3,0.2c-0.6,0-1.1-0.1-1.6-0.3c-0.4-0.2-0.8-0.5-1-0.9c0,0,0-0.1,0-0.1c0,0,0-0.1,0.1-0.1l0.5-0.3c0,0,0.1,0,0.1,0
		c0,0,0.1,0,0.1,0c0.4,0.6,1,0.9,1.7,0.9c0.4,0,0.7-0.1,1-0.2c0.3-0.1,0.4-0.4,0.4-0.6c0-0.2-0.1-0.3-0.2-0.5
		c-0.2-0.1-0.4-0.2-0.7-0.3l-1.1-0.3c-0.5-0.1-0.9-0.3-1.2-0.6c-0.2-0.3-0.4-0.6-0.4-1c0-0.4,0.1-0.7,0.3-0.9
		c0.2-0.3,0.5-0.5,0.8-0.6c0.3-0.1,0.8-0.2,1.2-0.2c0.5,0,0.9,0.1,1.3,0.3c0.4,0.2,0.7,0.4,0.9,0.7c0,0,0,0.1,0,0.1s0,0.1-0.1,0.1
		l-0.6,0.3c0,0,0,0-0.1,0c0,0-0.1,0-0.1-0.1C163.8,6.6,163.6,6.4,163.3,6.3z"/>
	<path fill="#CCCCCC" d="M167,4.3c0,0.1,0,0.1,0,0.2c0,0-0.1,0.1-0.2,0.1H166c-0.1,0-0.1,0-0.2,0s0-0.1,0-0.2v-1
		c0-0.1,0.1-0.2,0.2-0.2h0.9c0,0,0.1,0,0.1,0s0,0.1,0,0.1V4.3z M167,11.1c0,0.1,0,0.1,0,0.2c0,0-0.1,0-0.2,0H166c-0.1,0-0.1,0-0.2,0
		c0,0,0-0.1,0-0.1V5.6c0-0.1,0-0.1,0-0.1c0,0,0.1,0,0.1,0h0.9c0.1,0,0.1,0.1,0.1,0.2V11.1z"/>
	<path fill="#CCCCCC" d="M172.2,5.8c0.4,0.3,0.7,0.6,0.9,1.1c0,0,0,0.1,0,0.1c0,0,0,0.1-0.1,0.1l-0.8,0.1h0c0,0-0.1,0-0.1-0.1
		c-0.2-0.3-0.4-0.5-0.6-0.7c-0.2-0.1-0.4-0.2-0.7-0.2c-0.5,0-0.9,0.2-1.2,0.6s-0.5,0.9-0.5,1.6c0,0.7,0.2,1.2,0.5,1.6
		c0.3,0.4,0.7,0.6,1.3,0.6c0.3,0,0.6-0.1,0.9-0.3c0.2-0.2,0.5-0.4,0.7-0.8c0,0,0,0,0.1-0.1c0,0,0.1,0,0.1,0l0.6,0.2
		c0.1,0,0.1,0.1,0,0.2c-0.2,0.4-0.5,0.8-0.9,1.1c-0.4,0.3-0.9,0.4-1.5,0.4c-0.5,0-1-0.1-1.5-0.4c-0.4-0.3-0.8-0.6-1-1.1
		c-0.2-0.5-0.4-1-0.4-1.6c0-0.6,0.1-1.1,0.4-1.6c0.2-0.5,0.6-0.8,1-1.1c0.4-0.3,0.9-0.4,1.4-0.4C171.4,5.4,171.8,5.5,172.2,5.8z"/>
	<path fill="#CCCCCC" d="M175.5,11.4c-0.6,0-1-0.1-1.3-0.4c-0.3-0.3-0.5-0.7-0.5-1.2c0-0.6,0.3-1.1,0.8-1.4c0.5-0.4,1.3-0.5,2.2-0.6
		l0.7-0.1c0.1,0,0.2-0.1,0.2-0.2V7.3c0-0.4-0.1-0.6-0.3-0.9c-0.2-0.2-0.5-0.3-0.9-0.3c-0.6,0-1.1,0.3-1.4,0.8c0,0,0,0.1-0.1,0.1
		c0,0-0.1,0-0.1,0l-0.7-0.2c0,0-0.1,0-0.1-0.1c0,0,0-0.1,0-0.1c0.2-0.4,0.5-0.7,0.9-0.9c0.4-0.2,0.9-0.3,1.5-0.3
		c0.8,0,1.3,0.2,1.7,0.5c0.4,0.3,0.6,0.8,0.6,1.4v3.9c0,0.1,0,0.1,0,0.1c0,0-0.1,0-0.1,0h-0.7c-0.1,0-0.2-0.1-0.2-0.2l0-0.4
		c0-0.1,0-0.1-0.1-0.1c0,0-0.1,0-0.1,0.1C176.8,11.1,176.2,11.4,175.5,11.4z M177.4,8.4l-0.6,0c-0.6,0-1.1,0.2-1.4,0.4
		s-0.5,0.5-0.5,0.9c0,0.3,0.1,0.5,0.3,0.7s0.5,0.2,0.8,0.2c0.4,0,0.8-0.1,1.1-0.4c0.3-0.3,0.5-0.5,0.5-0.8V8.6
		C177.5,8.4,177.5,8.4,177.4,8.4z"/>
	<path fill="#CCCCCC" d="M181,11.1c0,0.1,0,0.1,0,0.2s-0.1,0-0.2,0H180c-0.1,0-0.1,0-0.2,0c0,0,0-0.1,0-0.1l0-7.8
		c0-0.1,0-0.2,0.1-0.2h0.9c0.1,0,0.1,0.1,0.1,0.2V11.1z"/>
	<path fill="#CCCCCC" d="M183.4,11.1c0,0.1,0,0.1,0,0.2s-0.1,0-0.2,0h-0.7c-0.1,0-0.1,0-0.2,0c0,0,0-0.1,0-0.1l0-7.8
		c0-0.1,0-0.2,0.1-0.2h0.9c0.1,0,0.1,0.1,0.1,0.2V11.1z"/>
	<path fill="#CCCCCC" d="M184.6,13.1c-0.1,0-0.1-0.1-0.1-0.1v-0.6c0-0.1,0.1-0.2,0.3-0.2h0.7c0.2,0,0.3-0.1,0.5-0.2
		c0.1-0.1,0.3-0.2,0.3-0.4c0.1-0.2,0.1-0.3,0.1-0.5c0-0.1,0-0.2,0-0.2l-2.1-5.2c0,0,0,0,0-0.1c0-0.1,0.1-0.1,0.2-0.1h0.9
		c0,0,0.1,0,0.1,0c0,0,0.1,0.1,0.1,0.1l1.5,4c0,0.1,0,0.1,0.1,0.1c0,0,0.1,0,0.1-0.1l1.5-3.9c0-0.1,0.1-0.1,0.2-0.1h0.6
		c0.1,0,0.1,0,0.1,0.1c0,0,0,0.1,0,0.1l-2.4,6c-0.2,0.4-0.3,0.7-0.5,0.9s-0.4,0.4-0.7,0.4c-0.3,0.1-0.6,0.1-1,0.1
		C184.9,13.1,184.7,13.1,184.6,13.1z"/>
	<path fill="#CCCCCC" d="M194.8,3.1c1.5,0,2.6,0.4,3.3,1.1s1,1.7,1,3c0,1.3-0.4,2.4-1.1,3.1s-1.8,1.1-3.3,1.1h-1.8
		c-0.1,0-0.2-0.1-0.2-0.2V3.3c0-0.1,0-0.1,0-0.1c0,0,0.1,0,0.1,0C193.7,3.1,194.4,3.1,194.8,3.1z M194,4.3v5.9c0,0.1,0,0.1,0,0.1
		c0,0,0.1,0,0.1,0h0.4c0.8,0,1.4-0.1,1.8-0.3c0.5-0.2,0.8-0.5,1-1s0.3-1.1,0.3-1.8c0-0.7-0.1-1.3-0.3-1.8s-0.5-0.8-1-0.9
		c-0.4-0.2-1-0.3-1.7-0.3l-0.7,0C194,4.1,194,4.2,194,4.3z"/>
	<path fill="#CCCCCC" d="M201.4,4.3c0,0.1,0,0.1,0,0.2c0,0-0.1,0.1-0.2,0.1h-0.8c-0.1,0-0.1,0-0.2,0s0-0.1,0-0.2v-1
		c0-0.1,0.1-0.2,0.2-0.2h0.9c0,0,0.1,0,0.1,0s0,0.1,0,0.1V4.3z M201.4,11.1c0,0.1,0,0.1,0,0.2c0,0-0.1,0-0.2,0h-0.7
		c-0.1,0-0.1,0-0.2,0c0,0,0-0.1,0-0.1V5.6c0-0.1,0-0.1,0-0.1c0,0,0.1,0,0.1,0h0.9c0.1,0,0.1,0.1,0.1,0.2V11.1z"/>
	<path fill="#CCCCCC" d="M205.6,6.3c-0.2-0.1-0.5-0.2-0.9-0.2c-0.4,0-0.7,0.1-0.9,0.2s-0.4,0.4-0.4,0.6c0,0.1,0.1,0.3,0.2,0.4
		c0.1,0.1,0.3,0.2,0.6,0.3l1.4,0.4c0.5,0.1,0.9,0.3,1.1,0.6c0.2,0.3,0.4,0.6,0.4,1c0,0.4-0.1,0.7-0.3,0.9s-0.5,0.5-0.9,0.6
		s-0.8,0.2-1.3,0.2c-0.6,0-1.1-0.1-1.6-0.3s-0.8-0.5-1-0.9c0,0,0-0.1,0-0.1c0,0,0-0.1,0.1-0.1l0.5-0.3c0,0,0.1,0,0.1,0
		c0,0,0.1,0,0.1,0c0.4,0.6,1,0.9,1.7,0.9c0.4,0,0.7-0.1,1-0.2c0.3-0.1,0.4-0.4,0.4-0.6c0-0.2-0.1-0.3-0.2-0.5
		c-0.2-0.1-0.4-0.2-0.7-0.3L204,8.7c-0.5-0.1-0.9-0.3-1.2-0.6c-0.2-0.3-0.4-0.6-0.4-1c0-0.4,0.1-0.7,0.3-0.9
		c0.2-0.3,0.5-0.5,0.8-0.6c0.3-0.1,0.8-0.2,1.2-0.2c0.5,0,0.9,0.1,1.3,0.3c0.4,0.2,0.7,0.4,0.9,0.7c0,0,0,0.1,0,0.1s0,0.1-0.1,0.1
		l-0.6,0.3c0,0,0,0-0.1,0c0,0-0.1,0-0.1-0.1C206,6.6,205.8,6.4,205.6,6.3z"/>
	<path fill="#CCCCCC" d="M209.1,11c-0.4-0.3-0.8-0.6-1-1.1c-0.2-0.5-0.4-1-0.4-1.6c0-0.6,0.1-1.1,0.4-1.6s0.6-0.8,1-1.1
		c0.4-0.3,0.9-0.4,1.5-0.4c0.6,0,1.1,0.1,1.5,0.4c0.4,0.3,0.8,0.6,1,1.1c0.2,0.5,0.4,1,0.4,1.6c0,0.6-0.1,1.1-0.4,1.6
		c-0.2,0.5-0.6,0.8-1,1.1c-0.4,0.3-0.9,0.4-1.5,0.4S209.5,11.3,209.1,11z M211.8,10c0.3-0.4,0.4-0.9,0.4-1.6c0-0.7-0.1-1.2-0.4-1.6
		c-0.3-0.4-0.7-0.6-1.2-0.6s-0.9,0.2-1.2,0.6c-0.3,0.4-0.4,0.9-0.4,1.6c0,0.7,0.1,1.2,0.4,1.6s0.7,0.6,1.2,0.6
		C211.1,10.6,211.5,10.4,211.8,10z"/>
	<path fill="#CCCCCC" d="M214.4,11.1V5.6c0-0.1,0-0.2,0.1-0.2h0.8c0.1,0,0.1,0,0.1,0.1v0.7c0,0,0,0.1,0,0.1c0,0,0.1,0,0.1,0
		c0.3-0.3,0.6-0.6,0.8-0.7c0.3-0.2,0.6-0.3,0.9-0.3c0.3,0,0.4,0.1,0.4,0.2v0.9c0,0.1,0,0.1-0.1,0.1c-0.1,0-0.3-0.1-0.6-0.1
		c-0.2,0-0.4,0.1-0.6,0.2c-0.2,0.1-0.4,0.3-0.6,0.4s-0.2,0.4-0.2,0.6v3.5c0,0.1-0.1,0.2-0.2,0.2h-0.8
		C214.4,11.3,214.4,11.2,214.4,11.1z"/>
	<path fill="#CCCCCC" d="M222.3,11.1v-0.4c0-0.1,0-0.1-0.1-0.1c0,0-0.1,0-0.1,0.1c-0.2,0.2-0.5,0.4-0.7,0.5s-0.6,0.2-1,0.2
		c-0.5,0-0.9-0.1-1.2-0.3c-0.4-0.2-0.6-0.6-0.9-1c-0.2-0.4-0.3-1-0.3-1.6c0-0.6,0.1-1.1,0.3-1.6c0.2-0.5,0.5-0.8,0.9-1.1
		c0.4-0.3,0.8-0.4,1.3-0.4c0.3,0,0.6,0.1,0.8,0.2s0.5,0.2,0.7,0.4c0,0,0.1,0.1,0.1,0.1c0,0,0.1,0,0.1-0.1V3.3c0-0.1,0-0.2,0.1-0.2
		h0.9c0,0,0.1,0,0.1,0s0,0.1,0,0.1v7.8c0,0.1,0,0.1,0,0.1s-0.1,0-0.2,0h-0.8C222.3,11.3,222.3,11.2,222.3,11.1z M221.6,6.3
		c-0.2-0.1-0.4-0.2-0.7-0.2c-0.5,0-0.9,0.2-1.2,0.6s-0.5,0.9-0.5,1.7s0.2,1.3,0.5,1.6s0.7,0.5,1.2,0.5c0.3,0,0.5-0.1,0.7-0.2
		c0.2-0.1,0.4-0.3,0.5-0.5c0.1-0.2,0.2-0.4,0.2-0.6V6.8C222,6.6,221.8,6.4,221.6,6.3z"/>
	<path fill="#CCCCCC" d="M225.8,9.7c0.2,0.3,0.4,0.5,0.6,0.6c0.3,0.2,0.6,0.2,0.9,0.2c0.3,0,0.6-0.1,0.9-0.2
		c0.3-0.1,0.5-0.4,0.7-0.6c0,0,0,0,0.1,0c0,0,0.1,0,0.1,0l0.6,0.3c0,0,0.1,0.1,0.1,0.1c0,0,0,0.1,0,0.1c-0.3,0.5-0.7,0.8-1.1,1
		c-0.4,0.2-0.9,0.3-1.4,0.3c-0.5,0-1-0.1-1.5-0.4c-0.4-0.2-0.8-0.6-1-1.1s-0.4-1-0.4-1.5c0-0.6,0.1-1.2,0.4-1.6
		c0.2-0.5,0.6-0.8,1-1.1s0.9-0.4,1.4-0.4c0.5,0,1,0.1,1.4,0.4c0.4,0.2,0.7,0.6,1,1c0.2,0.5,0.3,1,0.3,1.6v0c0,0.1,0,0.1,0,0.1
		s-0.1,0-0.1,0h-4.1c-0.1,0-0.1,0.1-0.1,0.2C225.6,9.1,225.6,9.4,225.8,9.7z M228.6,7.9c0.1,0,0.1,0,0.1,0c0,0,0-0.1,0-0.1
		c0-0.3-0.1-0.6-0.2-0.8c-0.1-0.2-0.3-0.4-0.5-0.6c-0.2-0.2-0.5-0.2-0.8-0.2c-0.3,0-0.6,0.1-0.9,0.2c-0.2,0.2-0.4,0.4-0.6,0.6
		c-0.1,0.3-0.2,0.6-0.2,0.9L228.6,7.9z"/>
	<path fill="#CCCCCC" d="M230.8,11.1V5.6c0-0.1,0-0.2,0.1-0.2h0.8c0.1,0,0.1,0,0.1,0.1v0.7c0,0,0,0.1,0,0.1c0,0,0.1,0,0.1,0
		c0.3-0.3,0.6-0.6,0.8-0.7c0.3-0.2,0.6-0.3,0.9-0.3c0.3,0,0.4,0.1,0.4,0.2v0.9c0,0.1,0,0.1-0.1,0.1c-0.1,0-0.3-0.1-0.6-0.1
		c-0.2,0-0.4,0.1-0.6,0.2c-0.2,0.1-0.4,0.3-0.6,0.4S232,7.4,232,7.6v3.5c0,0.1-0.1,0.2-0.2,0.2H231
		C230.8,11.3,230.8,11.2,230.8,11.1z"/>
	<path fill="#CCCCCC" d="M139.9,17.9c-0.5,0.4-1.2,0.6-2.1,0.6H136c-0.1,0-0.1,0-0.1,0.1v3c0,0.1-0.1,0.2-0.2,0.2h-1
		c-0.1,0-0.2-0.1-0.2-0.2v-7.8c0-0.1,0-0.1,0-0.1c0,0,0.1,0,0.1,0h2.9c0.9,0,1.7,0.2,2.2,0.6s0.8,1,0.8,1.8
		C140.7,16.8,140.5,17.4,139.9,17.9z M137.6,14.6h-1.5c-0.1,0-0.1,0-0.1,0c0,0,0,0.1,0,0.1v2.6c0,0.1,0,0.2,0.1,0.2h1.6
		c0.5,0,1-0.1,1.3-0.4c0.3-0.2,0.5-0.6,0.5-1.1C139.4,15.1,138.8,14.6,137.6,14.6z"/>
	<path fill="#CCCCCC" d="M141.3,21.6v-5.5c0-0.1,0-0.2,0.1-0.2h0.8c0.1,0,0.1,0,0.1,0.1v0.7c0,0,0,0.1,0,0.1c0,0,0.1,0,0.1,0
		c0.3-0.3,0.6-0.6,0.8-0.7c0.3-0.2,0.6-0.3,0.9-0.3c0.3,0,0.4,0.1,0.4,0.2v0.9c0,0.1,0,0.1-0.1,0.1c-0.1,0-0.3-0.1-0.6-0.1
		c-0.2,0-0.4,0.1-0.6,0.2c-0.2,0.1-0.4,0.3-0.6,0.4c-0.2,0.2-0.2,0.4-0.2,0.6v3.5c0,0.1-0.1,0.2-0.2,0.2h-0.8
		C141.4,21.8,141.3,21.7,141.3,21.6z"/>
	<path fill="#CCCCCC" d="M146.1,21.5c-0.4-0.3-0.8-0.6-1-1.1c-0.2-0.5-0.4-1-0.4-1.6c0-0.6,0.1-1.1,0.4-1.6s0.6-0.8,1-1.1
		c0.4-0.3,0.9-0.4,1.5-0.4c0.6,0,1.1,0.1,1.5,0.4c0.4,0.3,0.8,0.6,1,1.1c0.2,0.5,0.4,1,0.4,1.6c0,0.6-0.1,1.1-0.4,1.6
		c-0.2,0.5-0.6,0.8-1,1.1c-0.4,0.3-0.9,0.4-1.5,0.4S146.5,21.8,146.1,21.5z M148.8,20.5c0.3-0.4,0.4-0.9,0.4-1.6
		c0-0.7-0.1-1.2-0.4-1.6c-0.3-0.4-0.7-0.6-1.2-0.6c-0.5,0-0.9,0.2-1.2,0.6c-0.3,0.4-0.4,0.9-0.4,1.6c0,0.7,0.1,1.2,0.4,1.6
		c0.3,0.4,0.7,0.6,1.2,0.6C148.1,21.1,148.5,20.9,148.8,20.5z"/>
	<path fill="#CCCCCC" d="M152.9,16.8c-0.1,0-0.1,0-0.1,0.1v3.2c0,0.3,0.1,0.5,0.2,0.6c0.1,0.1,0.3,0.2,0.5,0.2h0.7
		c0.1,0,0.1,0,0.1,0.1v0.5c0,0.1-0.1,0.2-0.2,0.2c-0.2,0-0.6,0.1-1.1,0.1c-0.5,0-0.8-0.1-1.1-0.3c-0.2-0.2-0.4-0.6-0.4-1v-3.5
		c0-0.1,0-0.1-0.1-0.1h-0.8c-0.1,0-0.1,0-0.1-0.1v-0.6c0-0.1,0-0.1,0.1-0.1h0.9c0.1,0,0.1,0,0.1-0.1l0.1-1.7c0-0.1,0.1-0.2,0.1-0.2
		h0.8c0.1,0,0.1,0.1,0.1,0.2v1.7c0,0.1,0,0.1,0.1,0.1h1.3c0.1,0,0.1,0,0.1,0.1v0.6c0,0.1-0.1,0.1-0.2,0.1H152.9z"/>
	<path fill="#CCCCCC" d="M155.9,20.2c0.2,0.3,0.4,0.5,0.6,0.6c0.3,0.2,0.6,0.2,0.9,0.2c0.3,0,0.6-0.1,0.9-0.2
		c0.3-0.1,0.5-0.4,0.7-0.6c0,0,0,0,0.1,0c0,0,0.1,0,0.1,0l0.6,0.3c0,0,0.1,0.1,0.1,0.1c0,0,0,0.1,0,0.1c-0.3,0.5-0.7,0.8-1.1,1
		c-0.4,0.2-0.9,0.3-1.4,0.3c-0.5,0-1-0.1-1.5-0.4c-0.4-0.2-0.8-0.6-1-1.1c-0.2-0.5-0.4-1-0.4-1.5c0-0.6,0.1-1.2,0.4-1.6
		c0.2-0.5,0.6-0.8,1-1.1c0.4-0.3,0.9-0.4,1.4-0.4c0.5,0,1,0.1,1.4,0.4c0.4,0.2,0.7,0.6,1,1s0.3,1,0.3,1.6v0c0,0.1,0,0.1,0,0.1
		c0,0-0.1,0-0.1,0h-4.1c-0.1,0-0.1,0.1-0.1,0.2C155.7,19.6,155.8,19.9,155.9,20.2z M158.7,18.4c0.1,0,0.1,0,0.1,0c0,0,0-0.1,0-0.1
		c0-0.3-0.1-0.6-0.2-0.8s-0.3-0.4-0.5-0.6c-0.2-0.2-0.5-0.2-0.8-0.2c-0.3,0-0.6,0.1-0.9,0.2c-0.2,0.2-0.4,0.4-0.6,0.6
		s-0.2,0.6-0.2,0.9L158.7,18.4z"/>
	<path fill="#CCCCCC" d="M162.1,14.8c0,0.1,0,0.1,0,0.2c0,0-0.1,0.1-0.2,0.1h-0.8c-0.1,0-0.1,0-0.2,0s0-0.1,0-0.2v-1
		c0-0.1,0.1-0.2,0.2-0.2h0.9c0,0,0.1,0,0.1,0s0,0.1,0,0.1V14.8z M162.1,21.6c0,0.1,0,0.1,0,0.2s-0.1,0-0.2,0h-0.7
		c-0.1,0-0.1,0-0.2,0c0,0,0-0.1,0-0.1v-5.5c0-0.1,0-0.1,0-0.1c0,0,0.1,0,0.1,0h0.9c0.1,0,0.1,0.1,0.1,0.2V21.6z"/>
	<path fill="#CCCCCC" d="M163.4,21.6v-5.5c0-0.1,0-0.2,0.1-0.2h0.9c0.1,0,0.1,0,0.1,0.1v0.6c0,0,0,0.1,0,0.1c0,0,0,0,0.1,0
		c0.4-0.3,0.7-0.5,1-0.7c0.3-0.1,0.6-0.2,1-0.2c0.5,0,1,0.2,1.3,0.5s0.5,0.7,0.5,1.2v4.1c0,0.1-0.1,0.2-0.2,0.2h-0.8
		c-0.1,0-0.2-0.1-0.2-0.2v-3.9c0-0.3-0.1-0.6-0.3-0.8s-0.4-0.3-0.8-0.3c-0.3,0-0.5,0.1-0.8,0.2c-0.2,0.1-0.5,0.3-0.8,0.6v4
		c0,0.1,0,0.1,0,0.1c0,0-0.1,0-0.2,0h-0.8C163.4,21.8,163.4,21.7,163.4,21.6z"/>
	<path fill="#CCCCCC" d="M172.5,16.8c-0.2-0.1-0.5-0.2-0.9-0.2c-0.4,0-0.7,0.1-0.9,0.2s-0.4,0.4-0.4,0.6c0,0.1,0.1,0.3,0.2,0.4
		c0.1,0.1,0.3,0.2,0.6,0.3l1.4,0.4c0.5,0.1,0.9,0.3,1.1,0.6c0.2,0.3,0.4,0.6,0.4,1c0,0.4-0.1,0.7-0.3,0.9c-0.2,0.3-0.5,0.5-0.9,0.6
		s-0.8,0.2-1.3,0.2c-0.6,0-1.1-0.1-1.6-0.3c-0.4-0.2-0.8-0.5-1-0.9c0,0,0-0.1,0-0.1c0,0,0-0.1,0.1-0.1l0.5-0.3c0,0,0.1,0,0.1,0
		c0,0,0.1,0,0.1,0c0.4,0.6,1,0.9,1.7,0.9c0.4,0,0.7-0.1,1-0.2c0.3-0.1,0.4-0.4,0.4-0.6c0-0.2-0.1-0.3-0.2-0.5
		c-0.2-0.1-0.4-0.2-0.7-0.3l-1.1-0.3c-0.5-0.1-0.9-0.3-1.2-0.6c-0.2-0.3-0.4-0.6-0.4-1c0-0.4,0.1-0.7,0.3-0.9
		c0.2-0.3,0.5-0.5,0.8-0.6c0.3-0.1,0.8-0.2,1.2-0.2c0.5,0,0.9,0.1,1.3,0.3c0.4,0.2,0.7,0.4,0.9,0.7c0,0,0,0.1,0,0.1s0,0.1-0.1,0.1
		l-0.6,0.3c0,0,0,0-0.1,0c0,0-0.1,0-0.1-0.1C173,17.1,172.8,16.9,172.5,16.8z"/>
</g>
<circle fill="#CCCCCC" cx="130.4" cy="12.1" r="1.1"/>
<path fill="none" stroke="#000000" stroke-width="0.5734" stroke-miterlimit="10" d="M121.8,14.2"/>
<g>
</g>
<g>
</g>
<g>
</g>
<g>
</g>
<g>
</g>
<g>
</g>
<g>
</g>
<g>
</g>
<g>
</g>
<g>
</g>
<g>
</g>
<g>
</g>
<g>
</g>
<g>
</g>
<g>
</g>
</svg>
