<?xml version="1.0" encoding="utf-8"?>
<!-- Generator: Adobe Illustrator 17.1.0, SVG Export Plug-In . SVG Version: 6.00 Build 0)  -->
<!DOCTYPE svg PUBLIC "-//W3C//DTD SVG 1.1//EN" "http://www.w3.org/Graphics/SVG/1.1/DTD/svg11.dtd">
<svg version="1.1" id="Layer_1" xmlns="http://www.w3.org/2000/svg" xmlns:xlink="http://www.w3.org/1999/xlink" x="0px" y="0px"
	 width="240px" height="40px" viewBox="0 0 240 40" enable-background="new 0 0 240 40" xml:space="preserve">
<path fill="none" stroke="#42BDAE" stroke-width="0.9894" stroke-miterlimit="10" d="M12.9,20"/>
<polyline fill="none" stroke="#48B0E3" stroke-width="0.7452" stroke-miterlimit="10" points="0.8,13.1 4.4,13.1 6.9,17.5 4.4,21.8 
	0.8,21.8 "/>
<polyline fill="none" stroke="#48B0E3" stroke-width="0.7452" stroke-miterlimit="10" points="12.2,7.8 8.6,7.8 6.1,12.2 8.6,16.6 
	12.2,16.6 "/>
<g>
	<g>
		<line fill="none" stroke="#48B0E3" stroke-linecap="round" stroke-miterlimit="10" x1="1.1" y1="3.2" x2="1.1" y2="3.2"/>
		
			<line fill="none" stroke="#48B0E3" stroke-linecap="round" stroke-miterlimit="10" stroke-dasharray="0,1.6852" x1="2.8" y1="3.2" x2="3.7" y2="3.2"/>
		<line fill="none" stroke="#48B0E3" stroke-linecap="round" stroke-miterlimit="10" x1="4.5" y1="3.2" x2="4.5" y2="3.2"/>
		
			<line fill="none" stroke="#48B0E3" stroke-linecap="round" stroke-miterlimit="10" stroke-dasharray="0,1.5936" x1="5.3" y1="4.6" x2="6.5" y2="6.6"/>
		<line fill="none" stroke="#48B0E3" stroke-linecap="round" stroke-miterlimit="10" x1="6.9" y1="7.3" x2="6.9" y2="7.3"/>
		
			<line fill="none" stroke="#48B0E3" stroke-linecap="round" stroke-miterlimit="10" stroke-dasharray="0,1.5936" x1="6.1" y1="8.7" x2="4.9" y2="10.8"/>
		<line fill="none" stroke="#48B0E3" stroke-linecap="round" stroke-miterlimit="10" x1="4.5" y1="11.5" x2="4.5" y2="11.5"/>
		
			<line fill="none" stroke="#48B0E3" stroke-linecap="round" stroke-miterlimit="10" stroke-dasharray="0,1.6852" x1="2.8" y1="11.5" x2="2" y2="11.5"/>
		<line fill="none" stroke="#48B0E3" stroke-linecap="round" stroke-miterlimit="10" x1="1.1" y1="11.5" x2="1.1" y2="11.5"/>
	</g>
</g>
<path fill="none" stroke="#EC1E24" stroke-width="0.5005" stroke-miterlimit="10" d="M2.4,12.8"/>
<g>
	<path fill="#777777" d="M20.1,12.2c-0.5,0.4-1.2,0.6-2.1,0.6h-1.8c-0.1,0-0.1,0-0.1,0.1v3c0,0.1-0.1,0.2-0.2,0.2h-1
		c-0.1,0-0.2-0.1-0.2-0.2V8.1c0-0.1,0-0.1,0-0.1c0,0,0.1,0,0.1,0h2.9c0.9,0,1.7,0.2,2.2,0.6c0.6,0.4,0.8,1,0.8,1.8
		C20.9,11.2,20.6,11.8,20.1,12.2z M17.8,8.9h-1.5c-0.1,0-0.1,0-0.1,0c0,0,0,0.1,0,0.1v2.6c0,0.1,0,0.2,0.1,0.2h1.6
		c0.5,0,1-0.1,1.3-0.4c0.3-0.2,0.5-0.6,0.5-1.1C19.5,9.4,19,8.9,17.8,8.9z"/>
	<path fill="#777777" d="M21.7,16v-5.5c0-0.1,0-0.2,0.1-0.2h0.8c0.1,0,0.1,0,0.1,0.1v0.7c0,0,0,0.1,0,0.1c0,0,0.1,0,0.1,0
		c0.3-0.3,0.6-0.6,0.8-0.7c0.3-0.2,0.6-0.3,0.9-0.3c0.3,0,0.4,0.1,0.4,0.2v0.9c0,0.1,0,0.1-0.1,0.1c-0.1,0-0.3-0.1-0.6-0.1
		c-0.2,0-0.4,0.1-0.6,0.2c-0.2,0.1-0.4,0.3-0.6,0.4s-0.2,0.4-0.2,0.6v3.5c0,0.1-0.1,0.2-0.2,0.2h-0.8C21.8,16.1,21.7,16.1,21.7,16z"
		/>
	<path fill="#777777" d="M26.5,15.9c-0.4-0.3-0.8-0.6-1-1.1c-0.2-0.5-0.4-1-0.4-1.6c0-0.6,0.1-1.1,0.4-1.6c0.2-0.5,0.6-0.8,1-1.1
		s0.9-0.4,1.5-0.4c0.6,0,1.1,0.1,1.5,0.4c0.4,0.3,0.8,0.6,1,1.1s0.4,1,0.4,1.6c0,0.6-0.1,1.1-0.4,1.6c-0.2,0.5-0.6,0.8-1,1.1
		c-0.4,0.3-0.9,0.4-1.5,0.4C27.4,16.2,26.9,16.1,26.5,15.9z M29.2,14.8c0.3-0.4,0.4-0.9,0.4-1.6c0-0.7-0.1-1.2-0.4-1.6
		C28.9,11.2,28.5,11,28,11s-0.9,0.2-1.2,0.6c-0.3,0.4-0.4,0.9-0.4,1.6c0,0.7,0.1,1.2,0.4,1.6s0.7,0.6,1.2,0.6
		C28.5,15.4,28.9,15.2,29.2,14.8z"/>
	<path fill="#777777" d="M33.5,11.1c-0.1,0-0.1,0-0.1,0.1v3.2c0,0.3,0.1,0.5,0.2,0.6c0.1,0.1,0.3,0.2,0.5,0.2h0.7
		c0.1,0,0.1,0,0.1,0.1v0.5c0,0.1-0.1,0.2-0.2,0.2c-0.2,0-0.6,0.1-1.1,0.1c-0.5,0-0.8-0.1-1.1-0.3c-0.2-0.2-0.4-0.6-0.4-1v-3.5
		c0-0.1,0-0.1-0.1-0.1h-0.8c-0.1,0-0.1,0-0.1-0.1v-0.6c0-0.1,0-0.1,0.1-0.1h0.9c0.1,0,0.1,0,0.1-0.1l0.1-1.7c0-0.1,0.1-0.2,0.1-0.2
		h0.8c0.1,0,0.1,0.1,0.1,0.2v1.7c0,0.1,0,0.1,0.1,0.1h1.3c0.1,0,0.1,0,0.1,0.1V11c0,0.1-0.1,0.1-0.2,0.1H33.5z"/>
	<path fill="#777777" d="M36.8,14.5c0.2,0.3,0.4,0.5,0.6,0.6c0.3,0.2,0.6,0.2,0.9,0.2c0.3,0,0.6-0.1,0.9-0.2
		c0.3-0.1,0.5-0.4,0.7-0.6c0,0,0,0,0.1,0c0,0,0.1,0,0.1,0l0.6,0.3c0,0,0.1,0.1,0.1,0.1c0,0,0,0.1,0,0.1c-0.3,0.5-0.7,0.8-1.1,1
		c-0.4,0.2-0.9,0.3-1.4,0.3c-0.5,0-1-0.1-1.5-0.4c-0.4-0.2-0.8-0.6-1-1.1c-0.2-0.5-0.4-1-0.4-1.5c0-0.6,0.1-1.2,0.4-1.6
		c0.2-0.5,0.6-0.8,1-1.1s0.9-0.4,1.4-0.4c0.5,0,1,0.1,1.4,0.4c0.4,0.2,0.7,0.6,1,1s0.3,1,0.3,1.6v0c0,0.1,0,0.1,0,0.1
		c0,0-0.1,0-0.1,0h-4.1c-0.1,0-0.1,0.1-0.1,0.2C36.5,13.9,36.6,14.2,36.8,14.5z M39.5,12.7c0.1,0,0.1,0,0.1,0c0,0,0-0.1,0-0.1
		c0-0.3-0.1-0.6-0.2-0.8s-0.3-0.4-0.5-0.6S38.5,11,38.2,11c-0.3,0-0.6,0.1-0.9,0.2c-0.2,0.2-0.4,0.4-0.6,0.6s-0.2,0.6-0.2,0.9
		L39.5,12.7z"/>
	<path fill="#777777" d="M43,9.1c0,0.1,0,0.1,0,0.2c0,0-0.1,0.1-0.2,0.1h-0.8c-0.1,0-0.1,0-0.2,0s0-0.1,0-0.2v-1
		C41.7,8,41.8,8,41.9,8h0.9c0,0,0.1,0,0.1,0s0,0.1,0,0.1V9.1z M42.9,15.9c0,0.1,0,0.1,0,0.2c0,0-0.1,0-0.2,0H42c-0.1,0-0.1,0-0.2,0
		c0,0,0-0.1,0-0.1v-5.5c0-0.1,0-0.1,0-0.1c0,0,0.1,0,0.1,0h0.9c0.1,0,0.1,0.1,0.1,0.2V15.9z"/>
	<path fill="#777777" d="M44.2,16v-5.5c0-0.1,0-0.2,0.1-0.2h0.9c0.1,0,0.1,0,0.1,0.1V11c0,0,0,0.1,0,0.1c0,0,0,0,0.1,0
		c0.4-0.3,0.7-0.5,1-0.7c0.3-0.1,0.6-0.2,1-0.2c0.5,0,1,0.2,1.3,0.5c0.3,0.3,0.5,0.7,0.5,1.2v4.1c0,0.1-0.1,0.2-0.2,0.2h-0.8
		c-0.1,0-0.2-0.1-0.2-0.2v-3.9c0-0.3-0.1-0.6-0.3-0.8c-0.2-0.2-0.4-0.3-0.8-0.3c-0.3,0-0.5,0.1-0.8,0.2c-0.2,0.1-0.5,0.3-0.8,0.6v4
		c0,0.1,0,0.1,0,0.1c0,0-0.1,0-0.2,0h-0.8C44.3,16.1,44.2,16.1,44.2,16z"/>
	<path fill="#777777" d="M56.4,9c-0.3-0.1-0.6-0.2-1-0.2c-0.5,0-0.9,0.1-1.2,0.3c-0.3,0.2-0.4,0.5-0.4,0.9c0,0.5,0.4,0.9,1.1,1.1
		l1.7,0.5c1.2,0.4,1.9,1.1,1.9,2.2c0,0.7-0.3,1.3-0.8,1.7c-0.5,0.4-1.3,0.6-2.2,0.6c-0.7,0-1.3-0.1-1.8-0.4c-0.5-0.2-0.9-0.6-1.2-1
		c0-0.1,0-0.1,0-0.1c0-0.1,0-0.1,0.1-0.2l0.5-0.4c0.1,0,0.1-0.1,0.2-0.1s0.1,0,0.1,0.1c0.3,0.4,0.6,0.7,0.9,0.8
		c0.3,0.2,0.7,0.2,1.2,0.2c0.6,0,1-0.1,1.3-0.3c0.3-0.2,0.5-0.5,0.5-0.9c0-0.3-0.1-0.5-0.2-0.7s-0.5-0.3-0.9-0.5l-1.7-0.5
		c-0.6-0.2-1-0.5-1.3-0.9c-0.3-0.4-0.4-0.8-0.4-1.3c0-0.5,0.1-0.9,0.4-1.2c0.2-0.4,0.6-0.6,1-0.8s0.9-0.3,1.5-0.3
		c0.6,0,1.1,0.1,1.5,0.3C57.3,8.3,57.7,8.6,58,9c0,0,0.1,0.1,0.1,0.1s0,0.1-0.1,0.1l-0.6,0.5c0,0-0.1,0-0.1,0c0,0-0.1,0-0.1-0.1
		C57,9.4,56.7,9.2,56.4,9z"/>
	<path fill="#777777" d="M60.9,11.1c-0.1,0-0.1,0-0.1,0.1v3.2c0,0.3,0.1,0.5,0.2,0.6c0.1,0.1,0.3,0.2,0.5,0.2h0.7
		c0.1,0,0.1,0,0.1,0.1v0.5c0,0.1-0.1,0.2-0.2,0.2c-0.2,0-0.6,0.1-1.1,0.1c-0.5,0-0.8-0.1-1.1-0.3c-0.2-0.2-0.4-0.6-0.4-1v-3.5
		c0-0.1,0-0.1-0.1-0.1h-0.8c-0.1,0-0.1,0-0.1-0.1v-0.6c0-0.1,0-0.1,0.1-0.1h0.9c0.1,0,0.1,0,0.1-0.1l0.1-1.7c0-0.1,0.1-0.2,0.1-0.2
		h0.8c0.1,0,0.1,0.1,0.1,0.2v1.7c0,0.1,0,0.1,0.1,0.1h1.3c0.1,0,0.1,0,0.1,0.1V11c0,0.1-0.1,0.1-0.2,0.1H60.9z"/>
	<path fill="#777777" d="M63.2,16v-5.5c0-0.1,0-0.2,0.1-0.2h0.8c0.1,0,0.1,0,0.1,0.1v0.7c0,0,0,0.1,0,0.1c0,0,0.1,0,0.1,0
		c0.3-0.3,0.6-0.6,0.8-0.7c0.3-0.2,0.6-0.3,0.9-0.3c0.3,0,0.4,0.1,0.4,0.2v0.9c0,0.1,0,0.1-0.1,0.1c-0.1,0-0.3-0.1-0.6-0.1
		c-0.2,0-0.4,0.1-0.6,0.2c-0.2,0.1-0.4,0.3-0.6,0.4s-0.2,0.4-0.2,0.6v3.5c0,0.1-0.1,0.2-0.2,0.2h-0.8C63.3,16.1,63.2,16.1,63.2,16z"
		/>
	<path fill="#777777" d="M71,14.5v-4c0-0.1,0.1-0.2,0.2-0.2H72c0.1,0,0.2,0.1,0.2,0.2l0,5.5c0,0.1,0,0.2-0.1,0.2h-0.9
		c-0.1,0-0.1,0-0.1-0.1v-0.6c0-0.1,0-0.1-0.1,0c-0.4,0.3-0.7,0.6-1,0.7s-0.6,0.2-1,0.2c-0.5,0-0.9-0.2-1.2-0.5s-0.5-0.7-0.5-1.2v-4
		c0-0.1,0.1-0.2,0.2-0.2h0.8c0.1,0,0.2,0.1,0.2,0.2v3.8c0,0.3,0.1,0.6,0.3,0.8c0.2,0.2,0.4,0.3,0.7,0.3C69.9,15.4,70.4,15.1,71,14.5
		z"/>
	<path fill="#777777" d="M77.4,10.6c0.4,0.3,0.7,0.6,0.9,1.1c0,0,0,0.1,0,0.1c0,0,0,0.1-0.1,0.1L77.4,12h0c0,0-0.1,0-0.1-0.1
		c-0.2-0.3-0.4-0.5-0.6-0.7C76.5,11.1,76.2,11,76,11c-0.5,0-0.9,0.2-1.2,0.6c-0.3,0.4-0.5,0.9-0.5,1.6c0,0.7,0.2,1.2,0.5,1.6
		c0.3,0.4,0.7,0.6,1.3,0.6c0.3,0,0.6-0.1,0.9-0.3c0.2-0.2,0.5-0.4,0.7-0.8c0,0,0,0,0.1-0.1c0,0,0.1,0,0.1,0l0.6,0.2
		c0.1,0,0.1,0.1,0,0.2c-0.2,0.4-0.5,0.8-0.9,1.1c-0.4,0.3-0.9,0.4-1.5,0.4c-0.5,0-1-0.1-1.5-0.4s-0.8-0.6-1-1.1
		c-0.2-0.5-0.4-1-0.4-1.6c0-0.6,0.1-1.1,0.4-1.6c0.2-0.5,0.6-0.8,1-1.1c0.4-0.3,0.9-0.4,1.4-0.4C76.5,10.2,77,10.3,77.4,10.6z"/>
	<path fill="#777777" d="M81,11.1c-0.1,0-0.1,0-0.1,0.1v3.2c0,0.3,0.1,0.5,0.2,0.6c0.1,0.1,0.3,0.2,0.5,0.2h0.7c0.1,0,0.1,0,0.1,0.1
		v0.5c0,0.1-0.1,0.2-0.2,0.2c-0.2,0-0.6,0.1-1.1,0.1c-0.5,0-0.8-0.1-1.1-0.3c-0.2-0.2-0.4-0.6-0.4-1v-3.5c0-0.1,0-0.1-0.1-0.1h-0.8
		c-0.1,0-0.1,0-0.1-0.1v-0.6c0-0.1,0-0.1,0.1-0.1h0.9c0.1,0,0.1,0,0.1-0.1l0.1-1.7c0-0.1,0.1-0.2,0.1-0.2h0.8c0.1,0,0.1,0.1,0.1,0.2
		v1.7c0,0.1,0,0.1,0.1,0.1h1.3c0.1,0,0.1,0,0.1,0.1V11c0,0.1-0.1,0.1-0.2,0.1H81z"/>
	<path fill="#777777" d="M87,14.5v-4c0-0.1,0.1-0.2,0.2-0.2H88c0.1,0,0.2,0.1,0.2,0.2l0,5.5c0,0.1,0,0.2-0.1,0.2h-0.9
		c-0.1,0-0.1,0-0.1-0.1v-0.6c0-0.1,0-0.1-0.1,0c-0.4,0.3-0.7,0.6-1,0.7c-0.3,0.1-0.6,0.2-1,0.2c-0.5,0-0.9-0.2-1.2-0.5
		c-0.3-0.3-0.5-0.7-0.5-1.2v-4c0-0.1,0.1-0.2,0.2-0.2h0.8c0.1,0,0.2,0.1,0.2,0.2v3.8c0,0.3,0.1,0.6,0.3,0.8c0.2,0.2,0.4,0.3,0.7,0.3
		C85.9,15.4,86.4,15.1,87,14.5z"/>
	<path fill="#777777" d="M89.4,16v-5.5c0-0.1,0-0.2,0.1-0.2h0.8c0.1,0,0.1,0,0.1,0.1v0.7c0,0,0,0.1,0,0.1c0,0,0.1,0,0.1,0
		c0.3-0.3,0.6-0.6,0.8-0.7c0.3-0.2,0.6-0.3,0.9-0.3c0.3,0,0.4,0.1,0.4,0.2v0.9c0,0.1,0,0.1-0.1,0.1c-0.1,0-0.3-0.1-0.6-0.1
		c-0.2,0-0.4,0.1-0.6,0.2c-0.2,0.1-0.4,0.3-0.6,0.4s-0.2,0.4-0.2,0.6v3.5c0,0.1-0.1,0.2-0.2,0.2h-0.8C89.5,16.1,89.4,16.1,89.4,16z"
		/>
	<path fill="#777777" d="M94.5,14.5c0.2,0.3,0.4,0.5,0.6,0.6c0.3,0.2,0.6,0.2,0.9,0.2c0.3,0,0.6-0.1,0.9-0.2
		c0.3-0.1,0.5-0.4,0.7-0.6c0,0,0,0,0.1,0c0,0,0.1,0,0.1,0l0.6,0.3c0,0,0.1,0.1,0.1,0.1c0,0,0,0.1,0,0.1c-0.3,0.5-0.7,0.8-1.1,1
		c-0.4,0.2-0.9,0.3-1.4,0.3c-0.5,0-1-0.1-1.5-0.4c-0.4-0.2-0.8-0.6-1-1.1s-0.4-1-0.4-1.5c0-0.6,0.1-1.2,0.4-1.6
		c0.2-0.5,0.6-0.8,1-1.1s0.9-0.4,1.4-0.4c0.5,0,1,0.1,1.4,0.4c0.4,0.2,0.7,0.6,1,1c0.2,0.5,0.3,1,0.3,1.6v0c0,0.1,0,0.1,0,0.1
		s-0.1,0-0.1,0h-4.1c-0.1,0-0.1,0.1-0.1,0.2C94.2,13.9,94.3,14.2,94.5,14.5z M97.2,12.7c0.1,0,0.1,0,0.1,0c0,0,0-0.1,0-0.1
		c0-0.3-0.1-0.6-0.2-0.8c-0.1-0.2-0.3-0.4-0.5-0.6C96.5,11,96.2,11,95.9,11c-0.3,0-0.6,0.1-0.9,0.2c-0.2,0.2-0.4,0.4-0.6,0.6
		c-0.1,0.3-0.2,0.6-0.2,0.9L97.2,12.7z"/>
</g>
<circle fill="#48B0E3" cx="10.6" cy="12.1" r="1.1"/>
<path fill="none" stroke="#EC1E24" stroke-width="0.5734" stroke-miterlimit="10" d="M1.9,14.2"/>
<path fill="none" stroke="#42BDAE" stroke-width="0.9894" stroke-miterlimit="10" d="M132.7,20"/>
<polyline fill="none" stroke="#CCCCCC" stroke-width="0.7452" stroke-miterlimit="10" points="120.6,13.1 124.2,13.1 126.7,17.5 
	124.2,21.8 120.6,21.8 "/>
<polyline fill="none" stroke="#CCCCCC" stroke-width="0.7452" stroke-miterlimit="10" points="132,7.8 128.5,7.8 125.9,12.2 
	128.5,16.6 132,16.6 "/>
<g>
	<g>
		<line fill="none" stroke="#CCCCCC" stroke-linecap="round" stroke-miterlimit="10" x1="121" y1="3.2" x2="121" y2="3.2"/>
		
			<line fill="none" stroke="#CCCCCC" stroke-linecap="round" stroke-miterlimit="10" stroke-dasharray="0,1.6852" x1="122.7" y1="3.2" x2="123.5" y2="3.2"/>
		<line fill="none" stroke="#CCCCCC" stroke-linecap="round" stroke-miterlimit="10" x1="124.3" y1="3.2" x2="124.3" y2="3.2"/>
		
			<line fill="none" stroke="#CCCCCC" stroke-linecap="round" stroke-miterlimit="10" stroke-dasharray="0,1.5936" x1="125.1" y1="4.6" x2="126.3" y2="6.6"/>
		<line fill="none" stroke="#CCCCCC" stroke-linecap="round" stroke-miterlimit="10" x1="126.7" y1="7.3" x2="126.7" y2="7.3"/>
		
			<line fill="none" stroke="#CCCCCC" stroke-linecap="round" stroke-miterlimit="10" stroke-dasharray="0,1.5936" x1="125.9" y1="8.7" x2="124.7" y2="10.8"/>
		<line fill="none" stroke="#CCCCCC" stroke-linecap="round" stroke-miterlimit="10" x1="124.3" y1="11.5" x2="124.3" y2="11.5"/>
		
			<line fill="none" stroke="#CCCCCC" stroke-linecap="round" stroke-miterlimit="10" stroke-dasharray="0,1.6852" x1="122.7" y1="11.5" x2="121.8" y2="11.5"/>
		<line fill="none" stroke="#CCCCCC" stroke-linecap="round" stroke-miterlimit="10" x1="121" y1="11.5" x2="121" y2="11.5"/>
	</g>
</g>
<path fill="none" stroke="#000000" stroke-width="0.5005" stroke-miterlimit="10" d="M122.3,12.8"/>
<g>
	<path fill="#CCCCCC" d="M139.9,12.2c-0.5,0.4-1.2,0.6-2.1,0.6H136c-0.1,0-0.1,0-0.1,0.1v3c0,0.1-0.1,0.2-0.2,0.2h-1
		c-0.1,0-0.2-0.1-0.2-0.2V8.1c0-0.1,0-0.1,0-0.1c0,0,0.1,0,0.1,0h2.9c0.9,0,1.7,0.2,2.2,0.6s0.8,1,0.8,1.8
		C140.7,11.2,140.5,11.8,139.9,12.2z M137.6,8.9h-1.5c-0.1,0-0.1,0-0.1,0c0,0,0,0.1,0,0.1v2.6c0,0.1,0,0.2,0.1,0.2h1.6
		c0.5,0,1-0.1,1.3-0.4c0.3-0.2,0.5-0.6,0.5-1.1C139.4,9.4,138.8,8.9,137.6,8.9z"/>
	<path fill="#CCCCCC" d="M141.6,16v-5.5c0-0.1,0-0.2,0.1-0.2h0.8c0.1,0,0.1,0,0.1,0.1v0.7c0,0,0,0.1,0,0.1c0,0,0.1,0,0.1,0
		c0.3-0.3,0.6-0.6,0.8-0.7c0.3-0.2,0.6-0.3,0.9-0.3c0.3,0,0.4,0.1,0.4,0.2v0.9c0,0.1,0,0.1-0.1,0.1c-0.1,0-0.3-0.1-0.6-0.1
		c-0.2,0-0.4,0.1-0.6,0.2c-0.2,0.1-0.4,0.3-0.6,0.4c-0.2,0.2-0.2,0.4-0.2,0.6v3.5c0,0.1-0.1,0.2-0.2,0.2h-0.8
		C141.6,16.1,141.6,16.1,141.6,16z"/>
	<path fill="#CCCCCC" d="M146.3,15.9c-0.4-0.3-0.8-0.6-1-1.1c-0.2-0.5-0.4-1-0.4-1.6c0-0.6,0.1-1.1,0.4-1.6c0.2-0.5,0.6-0.8,1-1.1
		c0.4-0.3,0.9-0.4,1.5-0.4c0.6,0,1.1,0.1,1.5,0.4c0.4,0.3,0.8,0.6,1,1.1c0.2,0.5,0.4,1,0.4,1.6c0,0.6-0.1,1.1-0.4,1.6
		c-0.2,0.5-0.6,0.8-1,1.1c-0.4,0.3-0.9,0.4-1.5,0.4C147.2,16.2,146.7,16.1,146.3,15.9z M149,14.8c0.3-0.4,0.4-0.9,0.4-1.6
		c0-0.7-0.1-1.2-0.4-1.6c-0.3-0.4-0.7-0.6-1.2-0.6c-0.5,0-0.9,0.2-1.2,0.6c-0.3,0.4-0.4,0.9-0.4,1.6c0,0.7,0.1,1.2,0.4,1.6
		c0.3,0.4,0.7,0.6,1.2,0.6C148.3,15.4,148.7,15.2,149,14.8z"/>
	<path fill="#CCCCCC" d="M153.3,11.1c-0.1,0-0.1,0-0.1,0.1v3.2c0,0.3,0.1,0.5,0.2,0.6c0.1,0.1,0.3,0.2,0.5,0.2h0.7
		c0.1,0,0.1,0,0.1,0.1v0.5c0,0.1-0.1,0.2-0.2,0.2c-0.2,0-0.6,0.1-1.1,0.1c-0.5,0-0.8-0.1-1.1-0.3c-0.2-0.2-0.4-0.6-0.4-1v-3.5
		c0-0.1,0-0.1-0.1-0.1h-0.8c-0.1,0-0.1,0-0.1-0.1v-0.6c0-0.1,0-0.1,0.1-0.1h0.9c0.1,0,0.1,0,0.1-0.1l0.1-1.7c0-0.1,0.1-0.2,0.1-0.2
		h0.8c0.1,0,0.1,0.1,0.1,0.2v1.7c0,0.1,0,0.1,0.1,0.1h1.3c0.1,0,0.1,0,0.1,0.1V11c0,0.1-0.1,0.1-0.2,0.1H153.3z"/>
	<path fill="#CCCCCC" d="M156.6,14.5c0.2,0.3,0.4,0.5,0.6,0.6c0.3,0.2,0.6,0.2,0.9,0.2c0.3,0,0.6-0.1,0.9-0.2
		c0.3-0.1,0.5-0.4,0.7-0.6c0,0,0,0,0.1,0c0,0,0.1,0,0.1,0l0.6,0.3c0,0,0.1,0.1,0.1,0.1c0,0,0,0.1,0,0.1c-0.3,0.5-0.7,0.8-1.1,1
		c-0.4,0.2-0.9,0.3-1.4,0.3c-0.5,0-1-0.1-1.5-0.4c-0.4-0.2-0.8-0.6-1-1.1s-0.4-1-0.4-1.5c0-0.6,0.1-1.2,0.4-1.6
		c0.2-0.5,0.6-0.8,1-1.1c0.4-0.3,0.9-0.4,1.4-0.4c0.5,0,1,0.1,1.4,0.4c0.4,0.2,0.7,0.6,1,1s0.3,1,0.3,1.6v0c0,0.1,0,0.1,0,0.1
		s-0.1,0-0.1,0h-4.1c-0.1,0-0.1,0.1-0.1,0.2C156.4,13.9,156.4,14.2,156.6,14.5z M159.4,12.7c0.1,0,0.1,0,0.1,0c0,0,0-0.1,0-0.1
		c0-0.3-0.1-0.6-0.2-0.8s-0.3-0.4-0.5-0.6c-0.2-0.2-0.5-0.2-0.8-0.2c-0.3,0-0.6,0.1-0.9,0.2s-0.4,0.4-0.6,0.6s-0.2,0.6-0.2,0.9
		L159.4,12.7z"/>
	<path fill="#CCCCCC" d="M162.8,9.1c0,0.1,0,0.1,0,0.2c0,0-0.1,0.1-0.2,0.1h-0.8c-0.1,0-0.1,0-0.2,0s0-0.1,0-0.2v-1
		c0-0.1,0.1-0.2,0.2-0.2h0.9c0,0,0.1,0,0.1,0s0,0.1,0,0.1V9.1z M162.8,15.9c0,0.1,0,0.1,0,0.2s-0.1,0-0.2,0h-0.7c-0.1,0-0.1,0-0.2,0
		c0,0,0-0.1,0-0.1v-5.5c0-0.1,0-0.1,0-0.1c0,0,0.1,0,0.1,0h0.9c0.1,0,0.1,0.1,0.1,0.2V15.9z"/>
	<path fill="#CCCCCC" d="M164,16v-5.5c0-0.1,0-0.2,0.1-0.2h0.9c0.1,0,0.1,0,0.1,0.1V11c0,0,0,0.1,0,0.1c0,0,0,0,0.1,0
		c0.4-0.3,0.7-0.5,1-0.7c0.3-0.1,0.6-0.2,1-0.2c0.5,0,1,0.2,1.3,0.5s0.5,0.7,0.5,1.2v4.1c0,0.1-0.1,0.2-0.2,0.2H168
		c-0.1,0-0.2-0.1-0.2-0.2v-3.9c0-0.3-0.1-0.6-0.3-0.8s-0.4-0.3-0.8-0.3c-0.3,0-0.5,0.1-0.8,0.2c-0.2,0.1-0.5,0.3-0.8,0.6v4
		c0,0.1,0,0.1,0,0.1c0,0-0.1,0-0.2,0h-0.8C164.1,16.1,164,16.1,164,16z"/>
	<path fill="#CCCCCC" d="M176.3,9c-0.3-0.1-0.6-0.2-1-0.2c-0.5,0-0.9,0.1-1.2,0.3c-0.3,0.2-0.4,0.5-0.4,0.9c0,0.5,0.4,0.9,1.1,1.1
		l1.7,0.5c1.2,0.4,1.9,1.1,1.9,2.2c0,0.7-0.3,1.3-0.8,1.7s-1.3,0.6-2.2,0.6c-0.7,0-1.3-0.1-1.8-0.4s-1-0.6-1.2-1c0-0.1,0-0.1,0-0.1
		c0-0.1,0-0.1,0.1-0.2l0.5-0.4c0.1,0,0.1-0.1,0.2-0.1c0.1,0,0.1,0,0.1,0.1c0.3,0.4,0.6,0.7,0.9,0.8s0.7,0.2,1.2,0.2
		c0.6,0,1-0.1,1.3-0.3c0.3-0.2,0.5-0.5,0.5-0.9c0-0.3-0.1-0.5-0.2-0.7s-0.5-0.3-0.9-0.5l-1.7-0.5c-0.6-0.2-1-0.5-1.3-0.9
		c-0.3-0.4-0.4-0.8-0.4-1.3c0-0.5,0.1-0.9,0.4-1.2s0.6-0.6,1-0.8s0.9-0.3,1.5-0.3c0.6,0,1.1,0.1,1.5,0.3c0.5,0.2,0.8,0.5,1.1,0.8
		c0,0,0.1,0.1,0.1,0.1s0,0.1-0.1,0.1l-0.6,0.5c0,0-0.1,0-0.1,0c0,0-0.1,0-0.1-0.1C176.8,9.4,176.5,9.2,176.3,9z"/>
	<path fill="#CCCCCC" d="M180.7,11.1c-0.1,0-0.1,0-0.1,0.1v3.2c0,0.3,0.1,0.5,0.2,0.6c0.1,0.1,0.3,0.2,0.5,0.2h0.7
		c0.1,0,0.1,0,0.1,0.1v0.5c0,0.1-0.1,0.2-0.2,0.2c-0.2,0-0.6,0.1-1.1,0.1c-0.5,0-0.8-0.1-1.1-0.3c-0.2-0.2-0.4-0.6-0.4-1v-3.5
		c0-0.1,0-0.1-0.1-0.1h-0.8c-0.1,0-0.1,0-0.1-0.1v-0.6c0-0.1,0-0.1,0.1-0.1h0.9c0.1,0,0.1,0,0.1-0.1l0.1-1.7c0-0.1,0.1-0.2,0.1-0.2
		h0.8c0.1,0,0.1,0.1,0.1,0.2v1.7c0,0.1,0,0.1,0.1,0.1h1.3c0.1,0,0.1,0,0.1,0.1V11c0,0.1-0.1,0.1-0.2,0.1H180.7z"/>
	<path fill="#CCCCCC" d="M183,16v-5.5c0-0.1,0-0.2,0.1-0.2h0.8c0.1,0,0.1,0,0.1,0.1v0.7c0,0,0,0.1,0,0.1c0,0,0.1,0,0.1,0
		c0.3-0.3,0.6-0.6,0.8-0.7c0.3-0.2,0.6-0.3,0.9-0.3c0.3,0,0.4,0.1,0.4,0.2v0.9c0,0.1,0,0.1-0.1,0.1c-0.1,0-0.3-0.1-0.6-0.1
		c-0.2,0-0.4,0.1-0.6,0.2c-0.2,0.1-0.4,0.3-0.6,0.4c-0.2,0.2-0.2,0.4-0.2,0.6v3.5c0,0.1-0.1,0.2-0.2,0.2h-0.8
		C183.1,16.1,183,16.1,183,16z"/>
	<path fill="#CCCCCC" d="M190.8,14.5v-4c0-0.1,0.1-0.2,0.2-0.2h0.8c0.1,0,0.2,0.1,0.2,0.2l0,5.5c0,0.1,0,0.2-0.1,0.2H191
		c-0.1,0-0.1,0-0.1-0.1v-0.6c0-0.1,0-0.1-0.1,0c-0.4,0.3-0.7,0.6-1,0.7c-0.3,0.1-0.6,0.2-1,0.2c-0.5,0-0.9-0.2-1.2-0.5
		c-0.3-0.3-0.5-0.7-0.5-1.2v-4c0-0.1,0.1-0.2,0.2-0.2h0.8c0.1,0,0.2,0.1,0.2,0.2v3.8c0,0.3,0.1,0.6,0.3,0.8s0.4,0.3,0.7,0.3
		C189.7,15.4,190.3,15.1,190.8,14.5z"/>
	<path fill="#CCCCCC" d="M197.2,10.6c0.4,0.3,0.7,0.6,0.9,1.1c0,0,0,0.1,0,0.1c0,0,0,0.1-0.1,0.1l-0.8,0.1h0c0,0-0.1,0-0.1-0.1
		c-0.2-0.3-0.4-0.5-0.6-0.7c-0.2-0.1-0.4-0.2-0.7-0.2c-0.5,0-0.9,0.2-1.2,0.6s-0.5,0.9-0.5,1.6c0,0.7,0.2,1.2,0.5,1.6
		c0.3,0.4,0.7,0.6,1.3,0.6c0.3,0,0.6-0.1,0.9-0.3c0.2-0.2,0.5-0.4,0.7-0.8c0,0,0,0,0.1-0.1c0,0,0.1,0,0.1,0l0.6,0.2
		c0.1,0,0.1,0.1,0,0.2c-0.2,0.4-0.5,0.8-0.9,1.1c-0.4,0.3-0.9,0.4-1.5,0.4c-0.5,0-1-0.1-1.5-0.4c-0.4-0.3-0.8-0.6-1-1.1
		c-0.2-0.5-0.4-1-0.4-1.6c0-0.6,0.1-1.1,0.4-1.6c0.2-0.5,0.6-0.8,1-1.1c0.4-0.3,0.9-0.4,1.4-0.4C196.3,10.2,196.8,10.3,197.2,10.6z"
		/>
	<path fill="#CCCCCC" d="M200.8,11.1c-0.1,0-0.1,0-0.1,0.1v3.2c0,0.3,0.1,0.5,0.2,0.6c0.1,0.1,0.3,0.2,0.5,0.2h0.7
		c0.1,0,0.1,0,0.1,0.1v0.5c0,0.1-0.1,0.2-0.2,0.2c-0.2,0-0.6,0.1-1.1,0.1c-0.5,0-0.8-0.1-1.1-0.3c-0.2-0.2-0.4-0.6-0.4-1v-3.5
		c0-0.1,0-0.1-0.1-0.1h-0.8c-0.1,0-0.1,0-0.1-0.1v-0.6c0-0.1,0-0.1,0.1-0.1h0.9c0.1,0,0.1,0,0.1-0.1l0.1-1.7c0-0.1,0.1-0.2,0.1-0.2
		h0.8c0.1,0,0.1,0.1,0.1,0.2v1.7c0,0.1,0,0.1,0.1,0.1h1.3c0.1,0,0.1,0,0.1,0.1V11c0,0.1-0.1,0.1-0.2,0.1H200.8z"/>
	<path fill="#CCCCCC" d="M206.8,14.5v-4c0-0.1,0.1-0.2,0.2-0.2h0.8c0.1,0,0.2,0.1,0.2,0.2l0,5.5c0,0.1,0,0.2-0.1,0.2H207
		c-0.1,0-0.1,0-0.1-0.1v-0.6c0-0.1,0-0.1-0.1,0c-0.4,0.3-0.7,0.6-1,0.7c-0.3,0.1-0.6,0.2-1,0.2c-0.5,0-0.9-0.2-1.2-0.5
		c-0.3-0.3-0.5-0.7-0.5-1.2v-4c0-0.1,0.1-0.2,0.2-0.2h0.8c0.1,0,0.2,0.1,0.2,0.2v3.8c0,0.3,0.1,0.6,0.3,0.8c0.2,0.2,0.4,0.3,0.7,0.3
		C205.7,15.4,206.3,15.1,206.8,14.5z"/>
	<path fill="#CCCCCC" d="M209.3,16v-5.5c0-0.1,0-0.2,0.1-0.2h0.8c0.1,0,0.1,0,0.1,0.1v0.7c0,0,0,0.1,0,0.1c0,0,0.1,0,0.1,0
		c0.3-0.3,0.6-0.6,0.8-0.7c0.3-0.2,0.6-0.3,0.9-0.3c0.3,0,0.4,0.1,0.4,0.2v0.9c0,0.1,0,0.1-0.1,0.1c-0.1,0-0.3-0.1-0.6-0.1
		c-0.2,0-0.4,0.1-0.6,0.2c-0.2,0.1-0.4,0.3-0.6,0.4s-0.2,0.4-0.2,0.6v3.5c0,0.1-0.1,0.2-0.2,0.2h-0.8
		C209.3,16.1,209.3,16.1,209.3,16z"/>
	<path fill="#CCCCCC" d="M214.3,14.5c0.2,0.3,0.4,0.5,0.6,0.6c0.3,0.2,0.6,0.2,0.9,0.2c0.3,0,0.6-0.1,0.9-0.2
		c0.3-0.1,0.5-0.4,0.7-0.6c0,0,0,0,0.1,0c0,0,0.1,0,0.1,0l0.6,0.3c0,0,0.1,0.1,0.1,0.1c0,0,0,0.1,0,0.1c-0.3,0.5-0.7,0.8-1.1,1
		c-0.4,0.2-0.9,0.3-1.4,0.3c-0.5,0-1-0.1-1.5-0.4c-0.4-0.2-0.8-0.6-1-1.1s-0.4-1-0.4-1.5c0-0.6,0.1-1.2,0.4-1.6
		c0.2-0.5,0.6-0.8,1-1.1s0.9-0.4,1.4-0.4c0.5,0,1,0.1,1.4,0.4c0.4,0.2,0.7,0.6,1,1c0.2,0.5,0.3,1,0.3,1.6v0c0,0.1,0,0.1,0,0.1
		s-0.1,0-0.1,0h-4.1c-0.1,0-0.1,0.1-0.1,0.2C214.1,13.9,214.1,14.2,214.3,14.5z M217.1,12.7c0.1,0,0.1,0,0.1,0c0,0,0-0.1,0-0.1
		c0-0.3-0.1-0.6-0.2-0.8c-0.1-0.2-0.3-0.4-0.5-0.6c-0.2-0.2-0.5-0.2-0.8-0.2c-0.3,0-0.6,0.1-0.9,0.2c-0.2,0.2-0.4,0.4-0.6,0.6
		c-0.1,0.3-0.2,0.6-0.2,0.9L217.1,12.7z"/>
</g>
<circle fill="#CCCCCC" cx="130.4" cy="12.1" r="1.1"/>
<path fill="none" stroke="#000000" stroke-width="0.5734" stroke-miterlimit="10" d="M121.8,14.2"/>
<g>
</g>
<g>
</g>
<g>
</g>
<g>
</g>
<g>
</g>
<g>
</g>
<g>
</g>
<g>
</g>
<g>
</g>
<g>
</g>
<g>
</g>
<g>
</g>
<g>
</g>
<g>
</g>
<g>
</g>
</svg>
