<?xml version="1.0" encoding="utf-8"?>
<!-- Generator: Adobe Illustrator 17.1.0, SVG Export Plug-In . SVG Version: 6.00 Build 0)  -->
<!DOCTYPE svg PUBLIC "-//W3C//DTD SVG 1.1//EN" "http://www.w3.org/Graphics/SVG/1.1/DTD/svg11.dtd">
<svg version="1.1" id="Layer_1" xmlns="http://www.w3.org/2000/svg" xmlns:xlink="http://www.w3.org/1999/xlink" x="0px" y="0px"
	 width="240px" height="40px" viewBox="0 0 240 40" enable-background="new 0 0 240 40" xml:space="preserve">
<path fill="none" stroke="#42BDAE" stroke-width="0.9894" stroke-miterlimit="10" d="M12.9,20"/>
<polyline fill="none" stroke="#EC1E24" stroke-width="0.7452" stroke-miterlimit="10" points="0.8,13.1 4.4,13.1 6.9,17.5 4.4,21.8 
	0.8,21.8 "/>
<polyline fill="none" stroke="#EC1E24" stroke-width="0.7452" stroke-miterlimit="10" points="12.2,7.8 8.6,7.8 6.1,12.2 8.6,16.6 
	12.2,16.6 "/>
<g>
	<g>
		<line fill="none" stroke="#EC1E24" stroke-linecap="round" stroke-miterlimit="10" x1="1.1" y1="3.2" x2="1.1" y2="3.2"/>
		
			<line fill="none" stroke="#EC1E24" stroke-linecap="round" stroke-miterlimit="10" stroke-dasharray="0,1.6852" x1="2.8" y1="3.2" x2="3.7" y2="3.2"/>
		<line fill="none" stroke="#EC1E24" stroke-linecap="round" stroke-miterlimit="10" x1="4.5" y1="3.2" x2="4.5" y2="3.2"/>
		
			<line fill="none" stroke="#EC1E24" stroke-linecap="round" stroke-miterlimit="10" stroke-dasharray="0,1.5936" x1="5.3" y1="4.6" x2="6.5" y2="6.6"/>
		<line fill="none" stroke="#EC1E24" stroke-linecap="round" stroke-miterlimit="10" x1="6.9" y1="7.3" x2="6.9" y2="7.3"/>
		
			<line fill="none" stroke="#EC1E24" stroke-linecap="round" stroke-miterlimit="10" stroke-dasharray="0,1.5936" x1="6.1" y1="8.7" x2="4.9" y2="10.8"/>
		<line fill="none" stroke="#EC1E24" stroke-linecap="round" stroke-miterlimit="10" x1="4.5" y1="11.5" x2="4.5" y2="11.5"/>
		
			<line fill="none" stroke="#EC1E24" stroke-linecap="round" stroke-miterlimit="10" stroke-dasharray="0,1.6852" x1="2.8" y1="11.5" x2="2" y2="11.5"/>
		<line fill="none" stroke="#EC1E24" stroke-linecap="round" stroke-miterlimit="10" x1="1.1" y1="11.5" x2="1.1" y2="11.5"/>
	</g>
</g>
<path fill="none" stroke="#EC1E24" stroke-width="0.5005" stroke-miterlimit="10" d="M2.4,12.8"/>
<g>
	<path fill="#777777" d="M14.7,15.9V8.1c0-0.1,0-0.1,0-0.1c0,0,0.1,0,0.1,0h1.4c0.1,0,0.1,0,0.1,0c0,0,0.1,0.1,0.1,0.1l2.2,5.8
		c0,0.1,0,0.1,0.1,0.1c0,0,0.1,0,0.1-0.1l2.2-5.7C21.1,8,21.2,8,21.3,8h1.5c0.1,0,0.1,0.1,0.1,0.2v7.8c0,0.1,0,0.1,0,0.2
		c0,0-0.1,0-0.2,0h-0.9c-0.1,0-0.1,0-0.1,0c0,0,0-0.1,0-0.1v-6c0,0,0-0.1,0,0c0,0,0,0,0,0.1l-2.3,6c0,0.1-0.1,0.2-0.2,0.2h-0.7
		c-0.1,0-0.2,0-0.2-0.1l-2.2-6c0-0.1,0-0.1,0-0.1c0,0,0,0,0,0.1v6c0,0.1,0,0.1,0,0.1c0,0-0.1,0-0.1,0h-0.8
		C14.8,16.1,14.7,16.1,14.7,15.9z"/>
	<path fill="#777777" d="M25.5,14.5c0.2,0.3,0.4,0.5,0.6,0.6c0.3,0.2,0.6,0.2,0.9,0.2c0.3,0,0.6-0.1,0.9-0.2
		c0.3-0.1,0.5-0.4,0.7-0.6c0,0,0,0,0.1,0c0,0,0.1,0,0.1,0l0.6,0.3c0,0,0.1,0.1,0.1,0.1c0,0,0,0.1,0,0.1c-0.3,0.5-0.7,0.8-1.1,1
		c-0.4,0.2-0.9,0.3-1.4,0.3c-0.5,0-1-0.1-1.5-0.4c-0.4-0.2-0.8-0.6-1-1.1c-0.2-0.5-0.4-1-0.4-1.5c0-0.6,0.1-1.2,0.4-1.6
		c0.2-0.5,0.6-0.8,1-1.1s0.9-0.4,1.4-0.4c0.5,0,1,0.1,1.4,0.4c0.4,0.2,0.7,0.6,1,1s0.3,1,0.3,1.6v0c0,0.1,0,0.1,0,0.1
		c0,0-0.1,0-0.1,0h-4.1c-0.1,0-0.1,0.1-0.1,0.2C25.3,13.9,25.3,14.2,25.5,14.5z M28.3,12.7c0.1,0,0.1,0,0.1,0c0,0,0-0.1,0-0.1
		c0-0.3-0.1-0.6-0.2-0.8s-0.3-0.4-0.5-0.6S27.2,11,26.9,11c-0.3,0-0.6,0.1-0.9,0.2c-0.2,0.2-0.4,0.4-0.6,0.6s-0.2,0.6-0.2,0.9
		L28.3,12.7z"/>
	<path fill="#777777" d="M32.3,11.1c-0.1,0-0.1,0-0.1,0.1v3.2c0,0.3,0.1,0.5,0.2,0.6c0.1,0.1,0.3,0.2,0.5,0.2h0.7
		c0.1,0,0.1,0,0.1,0.1v0.5c0,0.1-0.1,0.2-0.2,0.2c-0.2,0-0.6,0.1-1.1,0.1c-0.5,0-0.8-0.1-1.1-0.3c-0.2-0.2-0.4-0.6-0.4-1v-3.5
		c0-0.1,0-0.1-0.1-0.1h-0.8c-0.1,0-0.1,0-0.1-0.1v-0.6c0-0.1,0-0.1,0.1-0.1h0.9c0.1,0,0.1,0,0.1-0.1l0.1-1.7c0-0.1,0.1-0.2,0.1-0.2
		H32c0.1,0,0.1,0.1,0.1,0.2v1.7c0,0.1,0,0.1,0.1,0.1h1.3c0.1,0,0.1,0,0.1,0.1V11c0,0.1-0.1,0.1-0.2,0.1H32.3z"/>
	<path fill="#777777" d="M36,16.2c-0.6,0-1-0.1-1.3-0.4c-0.3-0.3-0.5-0.7-0.5-1.2c0-0.6,0.3-1.1,0.8-1.4c0.5-0.4,1.3-0.5,2.2-0.6
		l0.7-0.1c0.1,0,0.2-0.1,0.2-0.2v-0.3c0-0.4-0.1-0.6-0.3-0.9S37.2,11,36.8,11c-0.6,0-1.1,0.3-1.4,0.8c0,0,0,0.1-0.1,0.1
		s-0.1,0-0.1,0l-0.7-0.2c0,0-0.1,0-0.1-0.1c0,0,0-0.1,0-0.1c0.2-0.4,0.5-0.7,0.9-0.9c0.4-0.2,0.9-0.3,1.5-0.3c0.8,0,1.3,0.2,1.7,0.5
		s0.6,0.8,0.6,1.4v3.9c0,0.1,0,0.1,0,0.1c0,0-0.1,0-0.1,0h-0.7c-0.1,0-0.2-0.1-0.2-0.2l0-0.4c0-0.1,0-0.1-0.1-0.1c0,0-0.1,0-0.1,0.1
		C37.4,16,36.7,16.2,36,16.2z M37.9,13.2l-0.6,0c-0.6,0-1.1,0.2-1.4,0.4c-0.4,0.2-0.5,0.5-0.5,0.9c0,0.3,0.1,0.5,0.3,0.7
		c0.2,0.2,0.5,0.2,0.8,0.2c0.4,0,0.8-0.1,1.1-0.4c0.3-0.3,0.5-0.5,0.5-0.8v-0.9C38.1,13.3,38,13.2,37.9,13.2z"/>
	<path fill="#777777" d="M40.6,16.1c-0.1,0-0.1,0-0.2,0s0-0.1,0-0.2V8.1C40.4,8,40.4,8,40.5,8h0.9c0.1,0,0.1,0.1,0.1,0.2v2.7
		c0,0.1,0,0.1,0.1,0.1c0,0,0.1,0,0.1-0.1c0.5-0.4,1-0.7,1.7-0.7c0.8,0,1.3,0.3,1.7,0.8c0.4,0.5,0.6,1.3,0.6,2.2
		c0,0.9-0.2,1.7-0.7,2.2c-0.4,0.5-1.1,0.8-1.8,0.8c-0.4,0-0.8-0.1-1.1-0.3c-0.3-0.2-0.5-0.4-0.7-0.6c0,0-0.1-0.1-0.1-0.1
		c0,0,0,0,0,0.1l-0.1,0.5c0,0.1,0,0.1-0.1,0.1s-0.1,0-0.2,0H40.6z M41.5,14.1c0,0.2,0.1,0.5,0.2,0.7c0.1,0.2,0.3,0.4,0.5,0.5
		c0.2,0.1,0.5,0.2,0.7,0.2c0.5,0,0.9-0.2,1.1-0.6c0.3-0.4,0.4-0.9,0.4-1.7c0-0.7-0.1-1.3-0.4-1.6S43.5,11,43,11
		c-0.3,0-0.6,0.1-0.8,0.2s-0.5,0.3-0.7,0.5V14.1z"/>
	<path fill="#777777" d="M47.7,15.9c-0.4-0.3-0.8-0.6-1-1.1c-0.2-0.5-0.4-1-0.4-1.6c0-0.6,0.1-1.1,0.4-1.6c0.2-0.5,0.6-0.8,1-1.1
		s0.9-0.4,1.5-0.4c0.6,0,1.1,0.1,1.5,0.4c0.4,0.3,0.8,0.6,1,1.1s0.4,1,0.4,1.6c0,0.6-0.1,1.1-0.4,1.6c-0.2,0.5-0.6,0.8-1,1.1
		c-0.4,0.3-0.9,0.4-1.5,0.4C48.7,16.2,48.2,16.1,47.7,15.9z M50.4,14.8c0.3-0.4,0.4-0.9,0.4-1.6c0-0.7-0.1-1.2-0.4-1.6
		c-0.3-0.4-0.7-0.6-1.2-0.6s-0.9,0.2-1.2,0.6c-0.3,0.4-0.4,0.9-0.4,1.6c0,0.7,0.1,1.2,0.4,1.6s0.7,0.6,1.2,0.6
		C49.8,15.4,50.2,15.2,50.4,14.8z"/>
	<path fill="#777777" d="M54.2,15.9c0,0.1,0,0.1,0,0.2s-0.1,0-0.2,0h-0.7c-0.1,0-0.1,0-0.2,0c0,0,0-0.1,0-0.1l0-7.8
		C53,8,53.1,8,53.2,8h0.9c0.1,0,0.1,0.1,0.1,0.2V15.9z"/>
	<path fill="#777777" d="M55.5,16v-5.5c0-0.1,0-0.2,0.1-0.2h0.9c0.1,0,0.1,0,0.1,0.1V11c0,0,0,0.1,0,0.1c0,0,0,0,0.1,0
		c0.4-0.3,0.7-0.5,1-0.7c0.3-0.1,0.6-0.2,0.9-0.2c0.4,0,0.7,0.1,1,0.3s0.5,0.4,0.6,0.7c0,0,0,0,0,0c0,0,0.1,0,0.1-0.1
		c0.3-0.3,0.7-0.6,1-0.7s0.6-0.2,1-0.2c0.5,0,0.9,0.2,1.2,0.5c0.3,0.3,0.4,0.7,0.4,1.2v4c0,0.1-0.1,0.2-0.2,0.2H63
		c-0.1,0-0.1,0-0.1,0c0,0,0-0.1,0-0.1v-3.9c0-0.3-0.1-0.6-0.2-0.8s-0.4-0.3-0.7-0.3c-0.4,0-0.9,0.2-1.4,0.7
		c-0.1,0.1-0.1,0.1-0.1,0.1c0,0,0,0.1,0,0.2v3.8c0,0.1-0.1,0.2-0.2,0.2h-0.8c-0.1,0-0.2-0.1-0.2-0.2v-3.9c0-0.3-0.1-0.6-0.2-0.8
		s-0.4-0.3-0.7-0.3c-0.3,0-0.5,0.1-0.7,0.2c-0.2,0.1-0.5,0.3-0.8,0.6v4c0,0.1,0,0.1,0,0.1c0,0-0.1,0-0.2,0h-0.8
		C55.5,16.1,55.5,16.1,55.5,16z"/>
	<path fill="#777777" d="M66.4,9.1c0,0.1,0,0.1,0,0.2c0,0-0.1,0.1-0.2,0.1h-0.8c-0.1,0-0.1,0-0.2,0s0-0.1,0-0.2v-1
		C65.2,8,65.2,8,65.3,8h0.9c0,0,0.1,0,0.1,0s0,0.1,0,0.1V9.1z M66.4,15.9c0,0.1,0,0.1,0,0.2c0,0-0.1,0-0.2,0h-0.7
		c-0.1,0-0.1,0-0.2,0c0,0,0-0.1,0-0.1v-5.5c0-0.1,0-0.1,0-0.1c0,0,0.1,0,0.1,0h0.9c0.1,0,0.1,0.1,0.1,0.2V15.9z"/>
	<path fill="#777777" d="M71.6,10.6c0.4,0.3,0.7,0.6,0.9,1.1c0,0,0,0.1,0,0.1c0,0,0,0.1-0.1,0.1L71.6,12h0c0,0-0.1,0-0.1-0.1
		c-0.2-0.3-0.4-0.5-0.6-0.7c-0.2-0.1-0.4-0.2-0.7-0.2c-0.5,0-0.9,0.2-1.2,0.6c-0.3,0.4-0.5,0.9-0.5,1.6c0,0.7,0.2,1.2,0.5,1.6
		c0.3,0.4,0.7,0.6,1.3,0.6c0.3,0,0.6-0.1,0.9-0.3c0.2-0.2,0.5-0.4,0.7-0.8c0,0,0,0,0.1-0.1c0,0,0.1,0,0.1,0l0.6,0.2
		c0.1,0,0.1,0.1,0,0.2c-0.2,0.4-0.5,0.8-0.9,1.1c-0.4,0.3-0.9,0.4-1.5,0.4c-0.5,0-1-0.1-1.5-0.4s-0.8-0.6-1-1.1
		c-0.2-0.5-0.4-1-0.4-1.6c0-0.6,0.1-1.1,0.4-1.6c0.2-0.5,0.6-0.8,1-1.1c0.4-0.3,0.9-0.4,1.4-0.4C70.7,10.2,71.2,10.3,71.6,10.6z"/>
	<path fill="#777777" d="M76.3,11.1C76,11,75.8,11,75.4,11c-0.4,0-0.7,0.1-0.9,0.2c-0.2,0.2-0.4,0.4-0.4,0.6c0,0.1,0.1,0.3,0.2,0.4
		c0.1,0.1,0.3,0.2,0.6,0.3l1.4,0.4c0.5,0.1,0.9,0.3,1.1,0.6c0.2,0.3,0.4,0.6,0.4,1c0,0.4-0.1,0.7-0.3,0.9S77,15.9,76.7,16
		s-0.8,0.2-1.3,0.2c-0.6,0-1.1-0.1-1.6-0.3c-0.4-0.2-0.8-0.5-1-0.9c0,0,0-0.1,0-0.1c0,0,0-0.1,0.1-0.1l0.5-0.3c0,0,0.1,0,0.1,0
		c0,0,0.1,0,0.1,0c0.4,0.6,1,0.9,1.7,0.9c0.4,0,0.7-0.1,1-0.2c0.3-0.1,0.4-0.4,0.4-0.6c0-0.2-0.1-0.3-0.2-0.5
		c-0.2-0.1-0.4-0.2-0.7-0.3l-1.1-0.3c-0.5-0.1-0.9-0.3-1.2-0.6c-0.2-0.3-0.4-0.6-0.4-1c0-0.4,0.1-0.7,0.3-0.9
		c0.2-0.3,0.5-0.5,0.8-0.6c0.3-0.1,0.8-0.2,1.2-0.2c0.5,0,0.9,0.1,1.3,0.3c0.4,0.2,0.7,0.4,0.9,0.7c0,0,0,0.1,0,0.1s0,0.1-0.1,0.1
		l-0.6,0.3c0,0,0,0-0.1,0c0,0-0.1,0-0.1-0.1C76.7,11.4,76.5,11.3,76.3,11.1z"/>
</g>
<circle fill="#EC1E24" cx="10.6" cy="12.1" r="1.1"/>
<path fill="none" stroke="#EC1E24" stroke-width="0.5734" stroke-miterlimit="10" d="M1.9,14.2"/>
<path fill="none" stroke="#42BDAE" stroke-width="0.9894" stroke-miterlimit="10" d="M132.7,20"/>
<polyline fill="none" stroke="#CCCCCC" stroke-width="0.7452" stroke-miterlimit="10" points="120.6,13.1 124.2,13.1 126.7,17.5 
	124.2,21.8 120.6,21.8 "/>
<polyline fill="none" stroke="#CCCCCC" stroke-width="0.7452" stroke-miterlimit="10" points="132,7.8 128.5,7.8 125.9,12.2 
	128.5,16.6 132,16.6 "/>
<g>
	<g>
		<line fill="none" stroke="#CCCCCC" stroke-linecap="round" stroke-miterlimit="10" x1="121" y1="3.2" x2="121" y2="3.2"/>
		
			<line fill="none" stroke="#CCCCCC" stroke-linecap="round" stroke-miterlimit="10" stroke-dasharray="0,1.6852" x1="122.7" y1="3.2" x2="123.5" y2="3.2"/>
		<line fill="none" stroke="#CCCCCC" stroke-linecap="round" stroke-miterlimit="10" x1="124.3" y1="3.2" x2="124.3" y2="3.2"/>
		
			<line fill="none" stroke="#CCCCCC" stroke-linecap="round" stroke-miterlimit="10" stroke-dasharray="0,1.5936" x1="125.1" y1="4.6" x2="126.3" y2="6.6"/>
		<line fill="none" stroke="#CCCCCC" stroke-linecap="round" stroke-miterlimit="10" x1="126.7" y1="7.3" x2="126.7" y2="7.3"/>
		
			<line fill="none" stroke="#CCCCCC" stroke-linecap="round" stroke-miterlimit="10" stroke-dasharray="0,1.5936" x1="125.9" y1="8.7" x2="124.7" y2="10.8"/>
		<line fill="none" stroke="#CCCCCC" stroke-linecap="round" stroke-miterlimit="10" x1="124.3" y1="11.5" x2="124.3" y2="11.5"/>
		
			<line fill="none" stroke="#CCCCCC" stroke-linecap="round" stroke-miterlimit="10" stroke-dasharray="0,1.6852" x1="122.7" y1="11.5" x2="121.8" y2="11.5"/>
		<line fill="none" stroke="#CCCCCC" stroke-linecap="round" stroke-miterlimit="10" x1="121" y1="11.5" x2="121" y2="11.5"/>
	</g>
</g>
<path fill="none" stroke="#000000" stroke-width="0.5005" stroke-miterlimit="10" d="M122.3,12.8"/>
<g>
	<path fill="#CCCCCC" d="M134.6,15.9V8.1c0-0.1,0-0.1,0-0.1c0,0,0.1,0,0.1,0h1.4c0.1,0,0.1,0,0.1,0c0,0,0.1,0.1,0.1,0.1l2.2,5.8
		c0,0.1,0,0.1,0.1,0.1c0,0,0.1,0,0.1-0.1l2.2-5.7C141,8,141,8,141.1,8h1.5c0.1,0,0.1,0.1,0.1,0.2v7.8c0,0.1,0,0.1,0,0.2
		c0,0-0.1,0-0.2,0h-0.9c-0.1,0-0.1,0-0.1,0c0,0,0-0.1,0-0.1v-6c0,0,0-0.1,0,0c0,0,0,0,0,0.1l-2.3,6c0,0.1-0.1,0.2-0.2,0.2h-0.7
		c-0.1,0-0.2,0-0.2-0.1l-2.2-6c0-0.1,0-0.1,0-0.1s0,0,0,0.1v6c0,0.1,0,0.1,0,0.1c0,0-0.1,0-0.1,0h-0.8
		C134.6,16.1,134.6,16.1,134.6,15.9z"/>
	<path fill="#CCCCCC" d="M145.3,14.5c0.2,0.3,0.4,0.5,0.6,0.6c0.3,0.2,0.6,0.2,0.9,0.2c0.3,0,0.6-0.1,0.9-0.2
		c0.3-0.1,0.5-0.4,0.7-0.6c0,0,0,0,0.1,0c0,0,0.1,0,0.1,0l0.6,0.3c0,0,0.1,0.1,0.1,0.1c0,0,0,0.1,0,0.1c-0.3,0.5-0.7,0.8-1.1,1
		c-0.4,0.2-0.9,0.3-1.4,0.3c-0.5,0-1-0.1-1.5-0.4c-0.4-0.2-0.8-0.6-1-1.1s-0.4-1-0.4-1.5c0-0.6,0.1-1.2,0.4-1.6
		c0.2-0.5,0.6-0.8,1-1.1c0.4-0.3,0.9-0.4,1.4-0.4c0.5,0,1,0.1,1.4,0.4c0.4,0.2,0.7,0.6,1,1s0.3,1,0.3,1.6v0c0,0.1,0,0.1,0,0.1
		s-0.1,0-0.1,0h-4.1c-0.1,0-0.1,0.1-0.1,0.2C145.1,13.9,145.2,14.2,145.3,14.5z M148.1,12.7c0.1,0,0.1,0,0.1,0c0,0,0-0.1,0-0.1
		c0-0.3-0.1-0.6-0.2-0.8s-0.3-0.4-0.5-0.6c-0.2-0.2-0.5-0.2-0.8-0.2c-0.3,0-0.6,0.1-0.9,0.2s-0.4,0.4-0.6,0.6s-0.2,0.6-0.2,0.9
		L148.1,12.7z"/>
	<path fill="#CCCCCC" d="M152.1,11.1c-0.1,0-0.1,0-0.1,0.1v3.2c0,0.3,0.1,0.5,0.2,0.6c0.1,0.1,0.3,0.2,0.5,0.2h0.7
		c0.1,0,0.1,0,0.1,0.1v0.5c0,0.1-0.1,0.2-0.2,0.2c-0.2,0-0.6,0.1-1.1,0.1c-0.5,0-0.8-0.1-1.1-0.3c-0.2-0.2-0.4-0.6-0.4-1v-3.5
		c0-0.1,0-0.1-0.1-0.1h-0.8c-0.1,0-0.1,0-0.1-0.1v-0.6c0-0.1,0-0.1,0.1-0.1h0.9c0.1,0,0.1,0,0.1-0.1l0.1-1.7c0-0.1,0.1-0.2,0.1-0.2
		h0.8c0.1,0,0.1,0.1,0.1,0.2v1.7c0,0.1,0,0.1,0.1,0.1h1.3c0.1,0,0.1,0,0.1,0.1V11c0,0.1-0.1,0.1-0.2,0.1H152.1z"/>
	<path fill="#CCCCCC" d="M155.8,16.2c-0.6,0-1-0.1-1.3-0.4c-0.3-0.3-0.5-0.7-0.5-1.2c0-0.6,0.3-1.1,0.8-1.4c0.5-0.4,1.3-0.5,2.2-0.6
		l0.7-0.1c0.1,0,0.2-0.1,0.2-0.2v-0.3c0-0.4-0.1-0.6-0.3-0.9c-0.2-0.2-0.5-0.3-0.9-0.3c-0.6,0-1.1,0.3-1.4,0.8c0,0,0,0.1-0.1,0.1
		c0,0-0.1,0-0.1,0l-0.7-0.2c0,0-0.1,0-0.1-0.1c0,0,0-0.1,0-0.1c0.2-0.4,0.5-0.7,0.9-0.9c0.4-0.2,0.9-0.3,1.5-0.3
		c0.8,0,1.3,0.2,1.7,0.5c0.4,0.3,0.6,0.8,0.6,1.4v3.9c0,0.1,0,0.1,0,0.1c0,0-0.1,0-0.1,0h-0.7c-0.1,0-0.2-0.1-0.2-0.2l0-0.4
		c0-0.1,0-0.1-0.1-0.1c0,0-0.1,0-0.1,0.1C157.2,16,156.6,16.2,155.8,16.2z M157.7,13.2l-0.6,0c-0.6,0-1.1,0.2-1.4,0.4
		c-0.4,0.2-0.5,0.5-0.5,0.9c0,0.3,0.1,0.5,0.3,0.7c0.2,0.2,0.5,0.2,0.8,0.2c0.4,0,0.8-0.1,1.1-0.4c0.3-0.3,0.5-0.5,0.5-0.8v-0.9
		C157.9,13.3,157.8,13.2,157.7,13.2z"/>
	<path fill="#CCCCCC" d="M160.4,16.1c-0.1,0-0.1,0-0.2,0s0-0.1,0-0.2V8.1c0-0.1,0.1-0.2,0.2-0.2h0.9c0.1,0,0.1,0.1,0.1,0.2v2.7
		c0,0.1,0,0.1,0.1,0.1c0,0,0.1,0,0.1-0.1c0.5-0.4,1-0.7,1.7-0.7c0.8,0,1.3,0.3,1.7,0.8c0.4,0.5,0.6,1.3,0.6,2.2
		c0,0.9-0.2,1.7-0.7,2.2c-0.4,0.5-1.1,0.8-1.8,0.8c-0.4,0-0.8-0.1-1.1-0.3c-0.3-0.2-0.5-0.4-0.7-0.6c0,0-0.1-0.1-0.1-0.1s0,0,0,0.1
		l-0.1,0.5c0,0.1,0,0.1-0.1,0.1s-0.1,0-0.2,0H160.4z M161.4,14.1c0,0.2,0.1,0.5,0.2,0.7c0.1,0.2,0.3,0.4,0.5,0.5
		c0.2,0.1,0.5,0.2,0.7,0.2c0.5,0,0.9-0.2,1.1-0.6c0.3-0.4,0.4-0.9,0.4-1.7c0-0.7-0.1-1.3-0.4-1.6c-0.3-0.4-0.6-0.6-1.1-0.6
		c-0.3,0-0.6,0.1-0.8,0.2s-0.5,0.3-0.7,0.5V14.1z"/>
	<path fill="#CCCCCC" d="M167.6,15.9c-0.4-0.3-0.8-0.6-1-1.1c-0.2-0.5-0.4-1-0.4-1.6c0-0.6,0.1-1.1,0.4-1.6c0.2-0.5,0.6-0.8,1-1.1
		c0.4-0.3,0.9-0.4,1.5-0.4c0.6,0,1.1,0.1,1.5,0.4c0.4,0.3,0.8,0.6,1,1.1c0.2,0.5,0.4,1,0.4,1.6c0,0.6-0.1,1.1-0.4,1.6
		c-0.2,0.5-0.6,0.8-1,1.1c-0.4,0.3-0.9,0.4-1.5,0.4C168.5,16.2,168,16.1,167.6,15.9z M170.3,14.8c0.3-0.4,0.4-0.9,0.4-1.6
		c0-0.7-0.1-1.2-0.4-1.6c-0.3-0.4-0.7-0.6-1.2-0.6c-0.5,0-0.9,0.2-1.2,0.6c-0.3,0.4-0.4,0.9-0.4,1.6c0,0.7,0.1,1.2,0.4,1.6
		c0.3,0.4,0.7,0.6,1.2,0.6C169.6,15.4,170,15.2,170.3,14.8z"/>
	<path fill="#CCCCCC" d="M174,15.9c0,0.1,0,0.1,0,0.2s-0.1,0-0.2,0h-0.7c-0.1,0-0.1,0-0.2,0c0,0,0-0.1,0-0.1l0-7.8
		c0-0.1,0-0.2,0.1-0.2h0.9C174,8,174,8,174,8.1V15.9z"/>
	<path fill="#CCCCCC" d="M175.3,16v-5.5c0-0.1,0-0.2,0.1-0.2h0.9c0.1,0,0.1,0,0.1,0.1V11c0,0,0,0.1,0,0.1c0,0,0,0,0.1,0
		c0.4-0.3,0.7-0.5,1-0.7c0.3-0.1,0.6-0.2,0.9-0.2c0.4,0,0.7,0.1,1,0.3c0.3,0.2,0.5,0.4,0.6,0.7c0,0,0,0,0,0c0,0,0.1,0,0.1-0.1
		c0.3-0.3,0.7-0.6,1-0.7s0.6-0.2,1-0.2c0.5,0,0.9,0.2,1.2,0.5s0.4,0.7,0.4,1.2v4c0,0.1-0.1,0.2-0.2,0.2h-0.8c-0.1,0-0.1,0-0.1,0
		c0,0,0-0.1,0-0.1v-3.9c0-0.3-0.1-0.6-0.2-0.8s-0.4-0.3-0.7-0.3c-0.4,0-0.9,0.2-1.4,0.7c-0.1,0.1-0.1,0.1-0.1,0.1c0,0,0,0.1,0,0.2
		v3.8c0,0.1-0.1,0.2-0.2,0.2h-0.8c-0.1,0-0.2-0.1-0.2-0.2v-3.9c0-0.3-0.1-0.6-0.2-0.8c-0.2-0.2-0.4-0.3-0.7-0.3
		c-0.3,0-0.5,0.1-0.7,0.2c-0.2,0.1-0.5,0.3-0.8,0.6v4c0,0.1,0,0.1,0,0.1c0,0-0.1,0-0.2,0h-0.8C175.4,16.1,175.3,16.1,175.3,16z"/>
	<path fill="#CCCCCC" d="M186.2,9.1c0,0.1,0,0.1,0,0.2c0,0-0.1,0.1-0.2,0.1h-0.8c-0.1,0-0.1,0-0.2,0s0-0.1,0-0.2v-1
		c0-0.1,0.1-0.2,0.2-0.2h0.9c0,0,0.1,0,0.1,0s0,0.1,0,0.1V9.1z M186.2,15.9c0,0.1,0,0.1,0,0.2s-0.1,0-0.2,0h-0.7c-0.1,0-0.1,0-0.2,0
		c0,0,0-0.1,0-0.1v-5.5c0-0.1,0-0.1,0-0.1c0,0,0.1,0,0.1,0h0.9c0.1,0,0.1,0.1,0.1,0.2V15.9z"/>
	<path fill="#CCCCCC" d="M191.4,10.6c0.4,0.3,0.7,0.6,0.9,1.1c0,0,0,0.1,0,0.1c0,0,0,0.1-0.1,0.1l-0.8,0.1h0c0,0-0.1,0-0.1-0.1
		c-0.2-0.3-0.4-0.5-0.6-0.7c-0.2-0.1-0.4-0.2-0.7-0.2c-0.5,0-0.9,0.2-1.2,0.6s-0.5,0.9-0.5,1.6c0,0.7,0.2,1.2,0.5,1.6
		c0.3,0.4,0.7,0.6,1.3,0.6c0.3,0,0.6-0.1,0.9-0.3c0.2-0.2,0.5-0.4,0.7-0.8c0,0,0,0,0.1-0.1c0,0,0.1,0,0.1,0l0.6,0.2
		c0.1,0,0.1,0.1,0,0.2c-0.2,0.4-0.5,0.8-0.9,1.1c-0.4,0.3-0.9,0.4-1.5,0.4c-0.5,0-1-0.1-1.5-0.4c-0.4-0.3-0.8-0.6-1-1.1
		c-0.2-0.5-0.4-1-0.4-1.6c0-0.6,0.1-1.1,0.4-1.6c0.2-0.5,0.6-0.8,1-1.1c0.4-0.3,0.9-0.4,1.4-0.4C190.6,10.2,191,10.3,191.4,10.6z"/>
	<path fill="#CCCCCC" d="M196.1,11.1c-0.2-0.1-0.5-0.2-0.9-0.2c-0.4,0-0.7,0.1-0.9,0.2c-0.2,0.2-0.4,0.4-0.4,0.6
		c0,0.1,0.1,0.3,0.2,0.4c0.1,0.1,0.3,0.2,0.6,0.3l1.4,0.4c0.5,0.1,0.9,0.3,1.1,0.6c0.2,0.3,0.4,0.6,0.4,1c0,0.4-0.1,0.7-0.3,0.9
		s-0.5,0.5-0.9,0.6s-0.8,0.2-1.3,0.2c-0.6,0-1.1-0.1-1.6-0.3s-0.8-0.5-1-0.9c0,0,0-0.1,0-0.1c0,0,0-0.1,0.1-0.1l0.5-0.3
		c0,0,0.1,0,0.1,0c0,0,0.1,0,0.1,0c0.4,0.6,1,0.9,1.7,0.9c0.4,0,0.7-0.1,1-0.2c0.3-0.1,0.4-0.4,0.4-0.6c0-0.2-0.1-0.3-0.2-0.5
		c-0.2-0.1-0.4-0.2-0.7-0.3l-1.1-0.3c-0.5-0.1-0.9-0.3-1.2-0.6c-0.2-0.3-0.4-0.6-0.4-1c0-0.4,0.1-0.7,0.3-0.9
		c0.2-0.3,0.5-0.5,0.8-0.6c0.3-0.1,0.8-0.2,1.2-0.2c0.5,0,0.9,0.1,1.3,0.3c0.4,0.2,0.7,0.4,0.9,0.7c0,0,0,0.1,0,0.1s0,0.1-0.1,0.1
		l-0.6,0.3c0,0,0,0-0.1,0c0,0-0.1,0-0.1-0.1C196.6,11.4,196.4,11.3,196.1,11.1z"/>
</g>
<circle fill="#CCCCCC" cx="130.4" cy="12.1" r="1.1"/>
<path fill="none" stroke="#000000" stroke-width="0.5734" stroke-miterlimit="10" d="M121.8,14.2"/>
<g>
</g>
<g>
</g>
<g>
</g>
<g>
</g>
<g>
</g>
<g>
</g>
<g>
</g>
<g>
</g>
<g>
</g>
<g>
</g>
<g>
</g>
<g>
</g>
<g>
</g>
<g>
</g>
<g>
</g>
</svg>
