<?xml version="1.0" encoding="utf-8"?>
<!-- Generator: Adobe Illustrator 17.1.0, SVG Export Plug-In . SVG Version: 6.00 Build 0)  -->
<!DOCTYPE svg PUBLIC "-//W3C//DTD SVG 1.1//EN" "http://www.w3.org/Graphics/SVG/1.1/DTD/svg11.dtd">
<svg version="1.1" id="Layer_1" xmlns="http://www.w3.org/2000/svg" xmlns:xlink="http://www.w3.org/1999/xlink" x="0px" y="0px"
	 width="240px" height="40px" viewBox="0 0 240 40" enable-background="new 0 0 240 40" xml:space="preserve">
<path fill="none" stroke="#979797" stroke-width="0.9915" stroke-miterlimit="10" d="M23.9,20.3"/>
<g>
	<path fill="#436BB3" d="M35.8,1.1c0.9,0.4,1.7,1,2.3,1.7c0.6,0.7,1,1.5,1.1,2.4c0,0.1,0,0.2,0,0.3c0,0.1,0,0.1-0.1,0.2
		S39,5.8,38.9,5.8L36,6c-0.1,0-0.2,0-0.2-0.1c0,0-0.1-0.1-0.1-0.3c-0.2-0.8-0.5-1.4-0.9-1.9c-0.5-0.5-1.1-0.7-1.9-0.7
		c-2.3,0-3.4,1.8-3.4,5.5c0,1.9,0.3,3.3,0.9,4.2c0.6,0.9,1.4,1.3,2.6,1.3c0.9,0,1.6-0.2,2.2-0.6c0.6-0.4,1.1-1.1,1.5-2.1
		c0-0.1,0.1-0.2,0.3-0.2c0.1,0,0.2,0,0.2,0l2.1,0.5c0.2,0.1,0.3,0.3,0.2,0.5c-0.1,0.6-0.5,1.3-1,2c-0.5,0.7-1.3,1.3-2.2,1.9
		c-0.9,0.5-2.1,0.8-3.4,0.8c-1.5,0-2.8-0.3-3.9-1c-1.1-0.7-1.9-1.7-2.5-2.9c-0.6-1.3-0.9-2.7-0.9-4.4c0-1.6,0.3-3.1,0.9-4.3
		c0.6-1.2,1.4-2.2,2.5-2.8c1.1-0.7,2.4-1,3.9-1C33.8,0.5,34.8,0.7,35.8,1.1z"/>
	<path fill="#436BB3" d="M48.7,3.5c-0.5-0.2-1.1-0.4-1.9-0.4c-0.9,0-1.5,0.2-2,0.5c-0.5,0.3-0.7,0.7-0.7,1.2c0,0.7,0.6,1.3,1.7,1.6
		l3.4,1c1.3,0.4,2.2,0.9,2.9,1.7C52.7,10,53,10.9,53,12c0,1-0.3,1.9-0.8,2.6c-0.5,0.7-1.3,1.3-2.2,1.7c-1,0.4-2.1,0.6-3.4,0.6
		c-1.5,0-2.8-0.2-4-0.7c-1.2-0.5-2-1.2-2.6-2C40,14,40,14,40,13.9c0-0.1,0.1-0.2,0.2-0.4l1.7-1.1c0.1-0.1,0.3-0.1,0.4-0.1
		c0.1,0,0.2,0.1,0.3,0.2c0.5,0.7,1.1,1.2,1.6,1.5c0.5,0.3,1.3,0.4,2.2,0.4c1,0,1.7-0.2,2.3-0.5c0.5-0.3,0.8-0.8,0.8-1.4
		c0-0.4-0.1-0.7-0.4-1s-0.7-0.5-1.4-0.7l-3.3-0.9c-1.2-0.3-2.2-0.9-2.9-1.7c-0.7-0.8-1-1.7-1-2.8c0-0.9,0.3-1.7,0.8-2.5
		c0.5-0.7,1.2-1.3,2.2-1.7c0.9-0.4,2-0.6,3.2-0.6c1.2,0,2.3,0.2,3.3,0.6s1.8,1,2.3,1.6c0.1,0.1,0.1,0.2,0.1,0.3c0,0.1,0,0.2-0.1,0.2
		l-1.8,1.3c-0.1,0.1-0.2,0.1-0.2,0.1c-0.1,0-0.2-0.1-0.3-0.2C49.6,4.1,49.2,3.8,48.7,3.5z"/>
</g>
<path fill="none" stroke="#979797" stroke-width="0.9915" stroke-miterlimit="10" d="M24,20.3"/>
<g>
	<path fill="#436BB3" d="M31.1,18.3c0.5,0.2,0.9,0.5,1.2,0.9c0.3,0.4,0.5,0.8,0.6,1.3c0,0,0,0.1,0,0.1c0,0,0,0.1,0,0.1s0,0-0.1,0
		l-1.1,0.1h0c0,0-0.1,0-0.1-0.1c-0.1-0.5-0.3-0.9-0.7-1.2c-0.3-0.3-0.8-0.4-1.3-0.4c-0.8,0-1.4,0.3-1.8,0.9
		c-0.4,0.6-0.6,1.5-0.6,2.6c0,1.2,0.2,2,0.6,2.6c0.4,0.6,1,0.9,1.8,0.9c0.5,0,1-0.1,1.4-0.4c0.4-0.3,0.7-0.7,0.9-1.3
		c0-0.1,0.1-0.1,0.2-0.1l0.9,0.2c0.1,0,0.1,0.1,0.1,0.2c-0.1,0.4-0.3,0.8-0.6,1.1s-0.7,0.7-1.2,0.9c-0.5,0.2-1,0.4-1.7,0.4
		c-0.8,0-1.5-0.2-2.1-0.6s-1-0.9-1.3-1.6s-0.5-1.5-0.5-2.4c0-0.9,0.2-1.7,0.5-2.4c0.3-0.7,0.8-1.2,1.3-1.6c0.6-0.4,1.3-0.5,2.1-0.5
		C30.1,18,30.6,18.1,31.1,18.3z"/>
	<path fill="#436BB3" d="M34.1,27c0,0,0-0.1,0-0.1v-8.5c0-0.1,0-0.2,0.1-0.2h0.9c0.1,0,0.1,0.1,0.1,0.2v3.2c0,0.1,0,0.1,0.1,0
		c0.4-0.3,0.8-0.6,1.1-0.7c0.3-0.1,0.7-0.2,1-0.2c0.6,0,1.1,0.2,1.4,0.5c0.3,0.3,0.5,0.8,0.5,1.4v4.4c0,0.1-0.1,0.2-0.2,0.2h-0.9
		c-0.1,0-0.2-0.1-0.2-0.2v-4.2c0-0.4-0.1-0.6-0.3-0.8c-0.2-0.2-0.5-0.3-0.8-0.3c-0.3,0-0.6,0.1-0.8,0.2c-0.3,0.1-0.6,0.4-0.9,0.7
		v4.4c0,0.1-0.1,0.2-0.2,0.2h-0.9C34.2,27,34.2,27,34.1,27z"/>
	<path fill="#436BB3" d="M42.1,25.2c0.2,0.3,0.4,0.5,0.7,0.7c0.3,0.2,0.6,0.3,1,0.3c0.4,0,0.7-0.1,1-0.2c0.3-0.2,0.6-0.4,0.8-0.7
		c0,0,0.1,0,0.1,0c0,0,0.1,0,0.1,0l0.6,0.3c0,0,0.1,0.1,0.1,0.1c0,0,0,0.1,0,0.1c-0.3,0.5-0.7,0.9-1.2,1.1s-1,0.3-1.6,0.3
		c-0.6,0-1.1-0.1-1.6-0.4c-0.5-0.3-0.8-0.7-1.1-1.1c-0.3-0.5-0.4-1.1-0.4-1.7c0-0.7,0.1-1.3,0.4-1.8s0.6-0.9,1.1-1.2
		c0.5-0.3,1-0.4,1.6-0.4c0.6,0,1.1,0.1,1.6,0.4c0.4,0.3,0.8,0.6,1,1.1s0.4,1.1,0.4,1.8v0c0,0.1,0,0.1,0,0.2c0,0-0.1,0.1-0.1,0.1
		h-4.4c-0.1,0-0.1,0.1-0.1,0.2C41.8,24.6,41.9,25,42.1,25.2z M45.1,23.3c0.1,0,0.1,0,0.2,0c0,0,0-0.1,0-0.1c0-0.3-0.1-0.6-0.2-0.9
		c-0.1-0.3-0.3-0.5-0.6-0.7s-0.6-0.2-0.9-0.2c-0.4,0-0.7,0.1-0.9,0.3c-0.3,0.2-0.5,0.4-0.6,0.7c-0.1,0.3-0.2,0.6-0.2,1L45.1,23.3z"
		/>
	<path fill="#436BB3" d="M47.5,26.8v-6c0-0.1,0.1-0.2,0.2-0.2h0.9c0.1,0,0.1,0.1,0.1,0.2v0.7c0,0,0,0.1,0,0.1c0,0,0.1,0,0.1,0
		c0.4-0.3,0.8-0.6,1.1-0.7c0.3-0.2,0.7-0.2,1-0.2c0.4,0,0.8,0.1,1.1,0.3c0.3,0.2,0.5,0.5,0.6,0.8c0,0,0,0,0,0c0,0,0.1,0,0.1-0.1
		c0.4-0.3,0.7-0.6,1.1-0.8c0.3-0.2,0.7-0.3,1.1-0.3c0.6,0,1,0.2,1.4,0.5c0.3,0.3,0.5,0.8,0.5,1.4v4.4c0,0.1-0.1,0.2-0.2,0.2h-0.9
		c-0.1,0-0.1,0-0.1,0s0-0.1,0-0.2v-4.2c0-0.4-0.1-0.6-0.3-0.8c-0.2-0.2-0.4-0.3-0.8-0.3c-0.5,0-1,0.3-1.5,0.8
		c-0.1,0.1-0.1,0.1-0.1,0.2c0,0.1,0,0.1,0,0.2v4.2c0,0.1-0.1,0.2-0.2,0.2h-0.9c-0.1,0-0.2-0.1-0.2-0.2v-4.2c0-0.4-0.1-0.6-0.3-0.8
		c-0.2-0.2-0.4-0.3-0.8-0.3c-0.3,0-0.6,0.1-0.8,0.2c-0.2,0.1-0.5,0.4-0.9,0.7v4.4c0,0.1,0,0.1-0.1,0.2s-0.1,0-0.2,0h-0.9
		C47.6,27,47.5,26.9,47.5,26.8z"/>
	<path fill="#436BB3" d="M59.5,19.4c0,0.1,0,0.2-0.1,0.2c0,0-0.1,0.1-0.2,0.1h-0.9c-0.1,0-0.1,0-0.2-0.1c0,0,0-0.1,0-0.2v-1.1
		c0-0.1,0.1-0.2,0.2-0.2h1c0,0,0.1,0,0.1,0.1c0,0,0,0.1,0,0.1V19.4z M59.4,26.8c0,0.1,0,0.1-0.1,0.2s-0.1,0-0.2,0h-0.8
		c-0.1,0-0.1,0-0.2,0c0,0,0-0.1,0-0.2v-6c0-0.1,0-0.1,0-0.1c0,0,0.1,0,0.1,0h1c0.1,0,0.1,0.1,0.1,0.2V26.8z"/>
	<path fill="#436BB3" d="M65.1,21c0.4,0.3,0.8,0.7,1,1.2c0,0,0,0.1,0,0.1c0,0,0,0.1-0.1,0.1l-0.9,0.1h0c0,0-0.1,0-0.1-0.1
		c-0.2-0.3-0.4-0.6-0.6-0.7c-0.2-0.2-0.5-0.2-0.8-0.2c-0.6,0-1,0.2-1.3,0.6s-0.5,1-0.5,1.8c0,0.8,0.2,1.4,0.5,1.8
		c0.3,0.4,0.8,0.6,1.4,0.6c0.4,0,0.7-0.1,0.9-0.3c0.3-0.2,0.5-0.5,0.7-0.8c0,0,0-0.1,0.1-0.1s0.1,0,0.1,0l0.6,0.2
		c0.1,0,0.1,0.1,0,0.2c-0.2,0.5-0.6,0.9-1,1.2c-0.4,0.3-1,0.5-1.6,0.5c-0.6,0-1.1-0.1-1.6-0.4s-0.8-0.7-1.1-1.2
		c-0.3-0.5-0.4-1.1-0.4-1.7c0-0.6,0.1-1.2,0.4-1.7c0.3-0.5,0.6-0.9,1.1-1.2c0.5-0.3,1-0.4,1.6-0.4C64.2,20.5,64.7,20.7,65.1,21z"/>
	<path fill="#436BB3" d="M68.6,27.1c-0.6,0-1.1-0.2-1.5-0.5c-0.4-0.3-0.5-0.7-0.5-1.3c0-0.6,0.3-1.2,0.8-1.5s1.4-0.6,2.4-0.6
		l0.8-0.1c0.1,0,0.2-0.1,0.2-0.2v-0.3c0-0.4-0.1-0.7-0.4-0.9c-0.2-0.2-0.6-0.3-1-0.3c-0.7,0-1.2,0.3-1.6,0.9c0,0-0.1,0.1-0.1,0.1
		c0,0-0.1,0-0.1,0l-0.8-0.2c0,0-0.1,0-0.1-0.1c0,0,0-0.1,0-0.1c0.2-0.4,0.6-0.8,1-1s1-0.4,1.7-0.4c0.8,0,1.5,0.2,1.9,0.5
		c0.4,0.4,0.6,0.9,0.6,1.5v4.2c0,0.1,0,0.1,0,0.2s-0.1,0-0.1,0h-0.8c-0.1,0-0.2-0.1-0.2-0.2l0-0.5c0-0.1,0-0.1-0.1-0.1
		c0,0-0.1,0-0.1,0.1C70.1,26.8,69.4,27.1,68.6,27.1z M70.7,23.8l-0.6,0c-0.7,0-1.2,0.2-1.6,0.4c-0.4,0.2-0.6,0.5-0.6,0.9
		c0,0.3,0.1,0.6,0.3,0.7c0.2,0.2,0.5,0.3,0.9,0.3c0.4,0,0.8-0.1,1.2-0.4c0.3-0.3,0.5-0.6,0.5-0.8V24C70.9,23.9,70.8,23.8,70.7,23.8z
		"/>
	<path fill="#436BB3" d="M74.7,26.8c0,0.1,0,0.1-0.1,0.2c0,0-0.1,0-0.2,0h-0.8c-0.1,0-0.1,0-0.2,0c0,0,0-0.1,0-0.2l0-8.5
		c0-0.1,0.1-0.2,0.2-0.2h0.9c0.1,0,0.2,0.1,0.2,0.2V26.8z"/>
	<path fill="#436BB3" d="M30.2,30.3C29.8,30.1,29.5,30,29,30c-0.6,0-1,0.1-1.3,0.4c-0.3,0.2-0.5,0.6-0.5,1c0,0.6,0.4,1,1.2,1.2
		l1.8,0.6c1.4,0.4,2,1.2,2,2.4c0,0.8-0.3,1.4-0.9,1.9c-0.6,0.5-1.4,0.7-2.4,0.7c-0.8,0-1.4-0.1-2-0.4c-0.6-0.3-1-0.6-1.4-1.1
		c0-0.1,0-0.1,0-0.1c0-0.1,0-0.1,0.1-0.2l0.6-0.4c0.1,0,0.1-0.1,0.2-0.1c0.1,0,0.1,0,0.1,0.1c0.3,0.4,0.7,0.7,1,0.9
		c0.3,0.2,0.8,0.3,1.3,0.3c0.6,0,1.1-0.1,1.5-0.3s0.5-0.6,0.5-1c0-0.3-0.1-0.5-0.3-0.7c-0.2-0.2-0.5-0.4-1-0.5l-1.8-0.6
		c-0.6-0.2-1.1-0.5-1.5-0.9c-0.3-0.4-0.5-0.9-0.5-1.4c0-0.5,0.1-1,0.4-1.3c0.3-0.4,0.6-0.7,1.1-0.9c0.5-0.2,1-0.3,1.6-0.3
		c0.6,0,1.2,0.1,1.7,0.3s0.9,0.5,1.2,0.9c0,0,0.1,0.1,0.1,0.1s0,0.1-0.1,0.1L31.2,31c0,0-0.1,0-0.1,0c0,0-0.1,0-0.1-0.1
		C30.7,30.6,30.5,30.4,30.2,30.3z"/>
	<path fill="#436BB3" d="M33.4,38c0,0,0-0.1,0-0.1v-8.5c0-0.1,0-0.2,0.1-0.2h0.9c0.1,0,0.1,0.1,0.1,0.2v3.2c0,0.1,0,0.1,0.1,0
		c0.4-0.3,0.8-0.6,1.1-0.7c0.3-0.1,0.7-0.2,1-0.2c0.6,0,1.1,0.2,1.4,0.5c0.3,0.3,0.5,0.8,0.5,1.4v4.4c0,0.1-0.1,0.2-0.2,0.2h-0.9
		c-0.1,0-0.2-0.1-0.2-0.2v-4.2c0-0.4-0.1-0.6-0.3-0.8c-0.2-0.2-0.5-0.3-0.8-0.3c-0.3,0-0.6,0.1-0.8,0.2c-0.3,0.1-0.6,0.4-0.9,0.7
		v4.4c0,0.1-0.1,0.2-0.2,0.2h-0.9C33.5,38,33.4,38,33.4,38z"/>
	<path fill="#436BB3" d="M41.4,30.4c0,0.1,0,0.2-0.1,0.2c0,0-0.1,0.1-0.2,0.1h-0.9c-0.1,0-0.1,0-0.2-0.1c0,0,0-0.1,0-0.2v-1.1
		c0-0.1,0.1-0.2,0.2-0.2h1c0,0,0.1,0,0.1,0.1c0,0,0,0.1,0,0.1V30.4z M41.4,37.8c0,0.1,0,0.1-0.1,0.2s-0.1,0-0.2,0h-0.8
		c-0.1,0-0.1,0-0.2,0c0,0,0-0.1,0-0.2v-6c0-0.1,0-0.1,0-0.1c0,0,0.1,0,0.1,0h1c0.1,0,0.1,0.1,0.1,0.2V37.8z"/>
	<path fill="#436BB3" d="M46.3,31.8v0.6c0,0.1-0.1,0.1-0.2,0.1h-1.2c-0.1,0-0.1,0-0.1,0.1v5.1c0,0.1-0.1,0.2-0.2,0.2h-1
		c-0.1,0-0.1-0.1-0.1-0.2v-5.2c0-0.1,0-0.1-0.1-0.1h-1.1c-0.1,0-0.1,0-0.1-0.1v-0.6c0-0.1,0.1-0.2,0.2-0.2h1c0,0,0.1,0,0.1,0
		c0,0,0-0.1,0-0.1v-0.8c0-0.5,0.1-0.9,0.4-1.2c0.3-0.3,0.7-0.4,1.2-0.4h1.1c0.1,0,0.2,0.1,0.2,0.2l0,0.6c0,0,0,0.1,0,0.1
		c0,0-0.1,0-0.1,0h-0.8c-0.2,0-0.4,0.1-0.5,0.2c-0.1,0.1-0.2,0.3-0.2,0.6v0.7c0,0.1,0,0.1,0.1,0.1h1.2
		C46.3,31.6,46.3,31.7,46.3,31.8z"/>
	<path fill="#436BB3" d="M49.3,32.6c-0.1,0-0.1,0-0.1,0.1v3.5c0,0.3,0.1,0.6,0.2,0.7c0.1,0.1,0.3,0.2,0.6,0.2h0.8
		c0.1,0,0.1,0,0.1,0.1v0.5c0,0.1-0.1,0.2-0.2,0.2c-0.3,0-0.7,0.1-1.2,0.1c-0.5,0-0.9-0.1-1.2-0.4S48,37,48,36.5v-3.8
		c0-0.1,0-0.1-0.1-0.1h-0.9c-0.1,0-0.2,0-0.2-0.1v-0.6c0-0.1,0-0.1,0.1-0.1h1c0.1,0,0.1,0,0.1-0.1l0.1-1.9c0-0.1,0.1-0.2,0.1-0.2
		h0.8c0.1,0,0.2,0.1,0.2,0.2v1.9c0,0.1,0,0.1,0.1,0.1h1.4c0.1,0,0.1,0,0.1,0.1v0.6c0,0.1-0.1,0.1-0.2,0.1H49.3z"/>
</g>
<path fill="none" stroke="#436BB3" stroke-miterlimit="10" d="M1,1c0,1.5,1.2,2.8,2.8,2.8S6.5,2.5,6.5,1"/>
<path fill="none" stroke="#436BB3" stroke-miterlimit="10" d="M8.7,5.9"/>
<path fill="none" stroke="#436BB3" stroke-miterlimit="10" d="M8.7,1c0,1.5,1.2,2.8,2.8,2.8c1.5,0,2.8-1.2,2.8-2.8"/>
<path fill="none" stroke="#37B34A" stroke-width="0.6918" stroke-miterlimit="10" d="M16.5,5.9"/>
<path fill="none" stroke="#436BB3" stroke-miterlimit="10" d="M16.5,1c0,1.5,1.2,2.8,2.8,2.8C20.7,3.8,22,2.5,22,1"/>
<path fill="none" stroke="#436BB3" stroke-miterlimit="10" d="M1,16.7c0-1.5,1.2-2.8,2.8-2.8s2.8,1.2,2.8,2.8"/>
<path fill="none" stroke="#436BB3" stroke-miterlimit="10" d="M8.7,16.7c0-1.5,1.2-2.8,2.8-2.8c1.5,0,2.8,1.2,2.8,2.8"/>
<path fill="none" stroke="#436BB3" stroke-miterlimit="10" d="M16.5,16.7c0-1.5,1.2-2.8,2.8-2.8c1.5,0,2.8,1.2,2.8,2.8"/>
<circle fill="none" stroke="#436BB3" stroke-miterlimit="10" cx="3.8" cy="8.9" r="2.8"/>
<circle fill="none" stroke="#436BB3" stroke-miterlimit="10" cx="11.5" cy="8.9" r="2.8"/>
<circle fill="#436BB3" stroke="#436BB3" stroke-miterlimit="10" cx="19.2" cy="8.9" r="2.8"/>
<path fill="none" stroke="#979797" stroke-width="0.9915" stroke-miterlimit="10" d="M143.4,20.3"/>
<g>
	<path fill="#CCCCCC" d="M155.2,1.1c0.9,0.4,1.7,1,2.3,1.7s1,1.5,1.1,2.4c0,0.1,0,0.2,0,0.3c0,0.1,0,0.1-0.1,0.2s-0.1,0.1-0.2,0.1
		L155.5,6c-0.1,0-0.2,0-0.2-0.1c0,0-0.1-0.1-0.1-0.3c-0.2-0.8-0.5-1.4-0.9-1.9c-0.5-0.5-1.1-0.7-1.9-0.7c-2.3,0-3.4,1.8-3.4,5.5
		c0,1.9,0.3,3.3,0.9,4.2c0.6,0.9,1.5,1.3,2.6,1.3c0.9,0,1.6-0.2,2.2-0.6c0.6-0.4,1.1-1.1,1.5-2.1c0-0.1,0.1-0.2,0.3-0.2
		c0.1,0,0.2,0,0.2,0l2.1,0.5c0.2,0.1,0.3,0.3,0.2,0.5c-0.1,0.6-0.5,1.3-1,2c-0.5,0.7-1.3,1.3-2.2,1.9c-0.9,0.5-2.1,0.8-3.4,0.8
		c-1.5,0-2.8-0.3-3.9-1s-1.9-1.7-2.5-2.9c-0.6-1.3-0.9-2.7-0.9-4.4c0-1.6,0.3-3.1,0.9-4.3c0.6-1.2,1.4-2.2,2.5-2.8s2.4-1,3.9-1
		C153.3,0.5,154.3,0.7,155.2,1.1z"/>
	<path fill="#CCCCCC" d="M168.1,3.5c-0.5-0.2-1.1-0.4-1.9-0.4c-0.9,0-1.5,0.2-2,0.5c-0.5,0.3-0.7,0.7-0.7,1.2c0,0.7,0.6,1.3,1.7,1.6
		l3.4,1c1.3,0.4,2.2,0.9,2.9,1.7c0.6,0.8,0.9,1.7,0.9,2.8c0,1-0.3,1.9-0.8,2.6c-0.5,0.7-1.3,1.3-2.2,1.7s-2.1,0.6-3.4,0.6
		c-1.5,0-2.8-0.2-4-0.7c-1.2-0.5-2-1.2-2.6-2c-0.1-0.1-0.1-0.2-0.1-0.3c0-0.1,0.1-0.2,0.2-0.4l1.7-1.1c0.1-0.1,0.3-0.1,0.4-0.1
		c0.1,0,0.2,0.1,0.3,0.2c0.5,0.7,1.1,1.2,1.6,1.5c0.5,0.3,1.3,0.4,2.2,0.4c1,0,1.7-0.2,2.3-0.5c0.5-0.3,0.8-0.8,0.8-1.4
		c0-0.4-0.1-0.7-0.4-1c-0.3-0.3-0.7-0.5-1.4-0.7l-3.3-0.9c-1.2-0.3-2.2-0.9-2.9-1.7c-0.7-0.8-1-1.7-1-2.8c0-0.9,0.3-1.7,0.8-2.5
		c0.5-0.7,1.2-1.3,2.2-1.7c0.9-0.4,2-0.6,3.2-0.6c1.2,0,2.3,0.2,3.3,0.6s1.8,1,2.3,1.6c0.1,0.1,0.1,0.2,0.1,0.3c0,0.1,0,0.2-0.1,0.2
		l-1.8,1.3c-0.1,0.1-0.2,0.1-0.2,0.1c-0.1,0-0.2-0.1-0.3-0.2C169,4.1,168.6,3.8,168.1,3.5z"/>
</g>
<path fill="none" stroke="#979797" stroke-width="0.9915" stroke-miterlimit="10" d="M143.5,20.3"/>
<g>
	<path fill="#CCCCCC" d="M150.5,18.3c0.5,0.2,0.9,0.5,1.2,0.9c0.3,0.4,0.5,0.8,0.6,1.3c0,0,0,0.1,0,0.1c0,0,0,0.1,0,0.1
		c0,0,0,0-0.1,0l-1.1,0.1h0c0,0-0.1,0-0.1-0.1c-0.1-0.5-0.3-0.9-0.7-1.2c-0.3-0.3-0.8-0.4-1.3-0.4c-0.8,0-1.4,0.3-1.8,0.9
		c-0.4,0.6-0.6,1.5-0.6,2.6c0,1.2,0.2,2,0.6,2.6c0.4,0.6,1,0.9,1.8,0.9c0.5,0,1-0.1,1.4-0.4c0.4-0.3,0.7-0.7,0.9-1.3
		c0-0.1,0.1-0.1,0.2-0.1l0.9,0.2c0.1,0,0.1,0.1,0.1,0.2c-0.1,0.4-0.3,0.8-0.6,1.1c-0.3,0.4-0.7,0.7-1.2,0.9s-1,0.4-1.7,0.4
		c-0.8,0-1.5-0.2-2.1-0.6s-1-0.9-1.3-1.6s-0.5-1.5-0.5-2.4c0-0.9,0.2-1.7,0.5-2.4c0.3-0.7,0.8-1.2,1.3-1.6c0.6-0.4,1.3-0.5,2.1-0.5
		C149.5,18,150.1,18.1,150.5,18.3z"/>
	<path fill="#CCCCCC" d="M153.6,27c0,0,0-0.1,0-0.1v-8.5c0-0.1,0-0.2,0.1-0.2h0.9c0.1,0,0.1,0.1,0.1,0.2v3.2c0,0.1,0,0.1,0.1,0
		c0.4-0.3,0.8-0.6,1.1-0.7c0.3-0.1,0.7-0.2,1-0.2c0.6,0,1.1,0.2,1.4,0.5c0.3,0.3,0.5,0.8,0.5,1.4v4.4c0,0.1-0.1,0.2-0.2,0.2h-0.9
		c-0.1,0-0.2-0.1-0.2-0.2v-4.2c0-0.4-0.1-0.6-0.3-0.8c-0.2-0.2-0.5-0.3-0.8-0.3c-0.3,0-0.6,0.1-0.8,0.2c-0.3,0.1-0.6,0.4-0.9,0.7
		v4.4c0,0.1-0.1,0.2-0.2,0.2h-0.9C153.7,27,153.6,27,153.6,27z"/>
	<path fill="#CCCCCC" d="M161.5,25.2c0.2,0.3,0.4,0.5,0.7,0.7c0.3,0.2,0.6,0.3,1,0.3c0.4,0,0.7-0.1,1-0.2c0.3-0.2,0.6-0.4,0.8-0.7
		c0,0,0.1,0,0.1,0c0,0,0.1,0,0.1,0l0.6,0.3c0,0,0.1,0.1,0.1,0.1c0,0,0,0.1,0,0.1c-0.3,0.5-0.7,0.9-1.2,1.1c-0.4,0.2-1,0.3-1.6,0.3
		c-0.6,0-1.1-0.1-1.6-0.4c-0.5-0.3-0.8-0.7-1.1-1.1c-0.3-0.5-0.4-1.1-0.4-1.7c0-0.7,0.1-1.3,0.4-1.8s0.6-0.9,1.1-1.2
		c0.5-0.3,1-0.4,1.6-0.4c0.6,0,1.1,0.1,1.6,0.4c0.4,0.3,0.8,0.6,1,1.1s0.4,1.1,0.4,1.8v0c0,0.1,0,0.1,0,0.2c0,0-0.1,0.1-0.1,0.1
		h-4.4c-0.1,0-0.1,0.1-0.1,0.2C161.2,24.6,161.3,25,161.5,25.2z M164.5,23.3c0.1,0,0.1,0,0.2,0c0,0,0-0.1,0-0.1
		c0-0.3-0.1-0.6-0.2-0.9c-0.1-0.3-0.3-0.5-0.6-0.7s-0.5-0.2-0.9-0.2c-0.4,0-0.7,0.1-0.9,0.3c-0.3,0.2-0.5,0.4-0.6,0.7
		c-0.1,0.3-0.2,0.6-0.2,1L164.5,23.3z"/>
	<path fill="#CCCCCC" d="M167,26.8v-6c0-0.1,0.1-0.2,0.2-0.2h0.9c0.1,0,0.1,0.1,0.1,0.2v0.7c0,0,0,0.1,0,0.1c0,0,0.1,0,0.1,0
		c0.4-0.3,0.8-0.6,1.1-0.7c0.3-0.2,0.7-0.2,1-0.2c0.4,0,0.8,0.1,1.1,0.3c0.3,0.2,0.5,0.5,0.6,0.8c0,0,0,0,0,0c0,0,0.1,0,0.1-0.1
		c0.4-0.3,0.7-0.6,1.1-0.8c0.3-0.2,0.7-0.3,1.1-0.3c0.6,0,1,0.2,1.3,0.5c0.3,0.3,0.5,0.8,0.5,1.4v4.4c0,0.1-0.1,0.2-0.2,0.2h-0.9
		c-0.1,0-0.1,0-0.1,0s0-0.1,0-0.2v-4.2c0-0.4-0.1-0.6-0.3-0.8c-0.2-0.2-0.4-0.3-0.8-0.3c-0.5,0-1,0.3-1.5,0.8
		c-0.1,0.1-0.1,0.1-0.1,0.2c0,0.1,0,0.1,0,0.2v4.2c0,0.1-0.1,0.2-0.2,0.2h-0.9c-0.1,0-0.2-0.1-0.2-0.2v-4.2c0-0.4-0.1-0.6-0.3-0.8
		c-0.2-0.2-0.4-0.3-0.8-0.3c-0.3,0-0.6,0.1-0.8,0.2c-0.2,0.1-0.5,0.4-0.9,0.7v4.4c0,0.1,0,0.1-0.1,0.2c0,0-0.1,0-0.2,0h-0.9
		C167,27,167,26.9,167,26.8z"/>
	<path fill="#CCCCCC" d="M178.9,19.4c0,0.1,0,0.2-0.1,0.2c0,0-0.1,0.1-0.2,0.1h-0.9c-0.1,0-0.1,0-0.2-0.1c0,0,0-0.1,0-0.2v-1.1
		c0-0.1,0.1-0.2,0.2-0.2h1c0,0,0.1,0,0.1,0.1c0,0,0,0.1,0,0.1V19.4z M178.9,26.8c0,0.1,0,0.1-0.1,0.2c0,0-0.1,0-0.2,0h-0.8
		c-0.1,0-0.1,0-0.2,0c0,0,0-0.1,0-0.2v-6c0-0.1,0-0.1,0-0.1c0,0,0.1,0,0.1,0h1c0.1,0,0.1,0.1,0.1,0.2V26.8z"/>
	<path fill="#CCCCCC" d="M184.6,21c0.4,0.3,0.8,0.7,1,1.2c0,0,0,0.1,0,0.1c0,0,0,0.1-0.1,0.1l-0.9,0.1h0c0,0-0.1,0-0.1-0.1
		c-0.2-0.3-0.4-0.6-0.6-0.7c-0.2-0.2-0.5-0.2-0.8-0.2c-0.6,0-1,0.2-1.3,0.6s-0.5,1-0.5,1.8c0,0.8,0.2,1.4,0.5,1.8
		c0.3,0.4,0.8,0.6,1.4,0.6c0.4,0,0.7-0.1,0.9-0.3c0.3-0.2,0.5-0.5,0.7-0.8c0,0,0-0.1,0.1-0.1s0.1,0,0.1,0l0.6,0.2
		c0.1,0,0.1,0.1,0,0.2c-0.2,0.5-0.6,0.9-1,1.2c-0.4,0.3-1,0.5-1.6,0.5c-0.6,0-1.1-0.1-1.6-0.4s-0.8-0.7-1.1-1.2s-0.4-1.1-0.4-1.7
		c0-0.6,0.1-1.2,0.4-1.7s0.6-0.9,1.1-1.2c0.5-0.3,1-0.4,1.6-0.4C183.6,20.5,184.1,20.7,184.6,21z"/>
	<path fill="#CCCCCC" d="M188.1,27.1c-0.6,0-1.1-0.2-1.5-0.5c-0.4-0.3-0.5-0.7-0.5-1.3c0-0.6,0.3-1.2,0.8-1.5s1.4-0.6,2.4-0.6
		l0.8-0.1c0.1,0,0.2-0.1,0.2-0.2v-0.3c0-0.4-0.1-0.7-0.4-0.9c-0.2-0.2-0.6-0.3-1-0.3c-0.7,0-1.2,0.3-1.6,0.9c0,0,0,0.1-0.1,0.1
		c0,0-0.1,0-0.1,0l-0.8-0.2c0,0-0.1,0-0.1-0.1c0,0,0-0.1,0-0.1c0.2-0.4,0.6-0.8,1-1c0.5-0.2,1-0.4,1.7-0.4c0.8,0,1.5,0.2,1.9,0.5
		c0.4,0.4,0.6,0.9,0.6,1.5v4.2c0,0.1,0,0.1,0,0.2c0,0-0.1,0-0.1,0h-0.8c-0.1,0-0.2-0.1-0.2-0.2l0-0.5c0-0.1,0-0.1-0.1-0.1
		c0,0-0.1,0-0.1,0.1C189.5,26.8,188.9,27.1,188.1,27.1z M190.1,23.8l-0.6,0c-0.7,0-1.2,0.2-1.6,0.4c-0.4,0.2-0.6,0.5-0.6,0.9
		c0,0.3,0.1,0.6,0.3,0.7s0.5,0.3,0.9,0.3c0.4,0,0.8-0.1,1.2-0.4c0.3-0.3,0.5-0.6,0.5-0.8V24C190.3,23.9,190.2,23.8,190.1,23.8z"/>
	<path fill="#CCCCCC" d="M194.1,26.8c0,0.1,0,0.1-0.1,0.2c0,0-0.1,0-0.2,0H193c-0.1,0-0.1,0-0.2,0c0,0,0-0.1,0-0.2l0-8.5
		c0-0.1,0.1-0.2,0.2-0.2h0.9c0.1,0,0.2,0.1,0.2,0.2V26.8z"/>
	<path fill="#CCCCCC" d="M149.6,29.3c-0.3-0.2-0.7-0.2-1.1-0.2c-0.6,0-1,0.1-1.3,0.4c-0.3,0.2-0.5,0.6-0.5,1c0,0.6,0.4,1,1.2,1.2
		l1.8,0.6c1.4,0.4,2,1.2,2,2.4c0,0.8-0.3,1.4-0.9,1.9c-0.6,0.5-1.4,0.7-2.4,0.7c-0.8,0-1.4-0.1-2-0.4c-0.6-0.3-1-0.6-1.4-1.1
		c0-0.1,0-0.1,0-0.1c0-0.1,0-0.1,0.1-0.2l0.6-0.4c0.1,0,0.1-0.1,0.2-0.1c0.1,0,0.1,0,0.1,0.1c0.3,0.4,0.7,0.7,1,0.9
		c0.3,0.2,0.8,0.3,1.3,0.3c0.6,0,1.1-0.1,1.5-0.3c0.4-0.2,0.5-0.6,0.5-1c0-0.3-0.1-0.5-0.3-0.7c-0.2-0.2-0.5-0.4-1-0.5l-1.8-0.6
		c-0.6-0.2-1.1-0.5-1.5-0.9s-0.5-0.9-0.5-1.4c0-0.5,0.1-1,0.4-1.3c0.3-0.4,0.6-0.7,1.1-0.9c0.5-0.2,1-0.3,1.7-0.3
		c0.6,0,1.2,0.1,1.7,0.3s0.9,0.5,1.2,0.9c0,0,0.1,0.1,0.1,0.1s0,0.1-0.1,0.1l-0.7,0.5c0,0-0.1,0-0.1,0c0,0-0.1,0-0.1-0.1
		C150.2,29.6,149.9,29.4,149.6,29.3z"/>
	<path fill="#CCCCCC" d="M152.9,37c0,0,0-0.1,0-0.1v-8.5c0-0.1,0-0.2,0.1-0.2h0.9c0.1,0,0.1,0.1,0.1,0.2v3.2c0,0.1,0,0.1,0.1,0
		c0.4-0.3,0.8-0.6,1.1-0.7c0.3-0.1,0.7-0.2,1-0.2c0.6,0,1.1,0.2,1.4,0.5c0.3,0.3,0.5,0.8,0.5,1.4v4.4c0,0.1-0.1,0.2-0.2,0.2h-0.9
		c-0.1,0-0.2-0.1-0.2-0.2v-4.2c0-0.4-0.1-0.6-0.3-0.8c-0.2-0.2-0.5-0.3-0.8-0.3c-0.3,0-0.6,0.1-0.8,0.2c-0.3,0.1-0.6,0.4-0.9,0.7
		v4.4c0,0.1-0.1,0.2-0.2,0.2H153C152.9,37,152.9,37,152.9,37z"/>
	<path fill="#CCCCCC" d="M160.9,29.4c0,0.1,0,0.2-0.1,0.2c0,0-0.1,0.1-0.2,0.1h-0.9c-0.1,0-0.1,0-0.2-0.1c0,0,0-0.1,0-0.2v-1.1
		c0-0.1,0.1-0.2,0.2-0.2h1c0,0,0.1,0,0.1,0.1c0,0,0,0.1,0,0.1V29.4z M160.8,36.8c0,0.1,0,0.1-0.1,0.2s-0.1,0-0.2,0h-0.8
		c-0.1,0-0.1,0-0.2,0c0,0,0-0.1,0-0.2v-6c0-0.1,0-0.1,0-0.1c0,0,0.1,0,0.1,0h1c0.1,0,0.1,0.1,0.1,0.2V36.8z"/>
	<path fill="#CCCCCC" d="M165.8,30.8v0.6c0,0.1-0.1,0.1-0.2,0.1h-1.2c-0.1,0-0.1,0-0.1,0.1v5.1c0,0.1-0.1,0.2-0.2,0.2h-1
		c-0.1,0-0.1-0.1-0.1-0.2v-5.2c0-0.1,0-0.1-0.1-0.1h-1.1c-0.1,0-0.1,0-0.1-0.1v-0.6c0-0.1,0.1-0.2,0.2-0.2h1c0,0,0.1,0,0.1,0
		c0,0,0-0.1,0-0.1v-0.8c0-0.5,0.1-0.9,0.4-1.2c0.3-0.3,0.7-0.4,1.2-0.4h1.1c0.1,0,0.2,0.1,0.2,0.2l0,0.6c0,0,0,0.1,0,0.1
		c0,0-0.1,0-0.1,0h-0.8c-0.2,0-0.4,0.1-0.5,0.2c-0.1,0.1-0.2,0.3-0.2,0.6v0.7c0,0.1,0,0.1,0.1,0.1h1.2
		C165.7,30.6,165.8,30.7,165.8,30.8z"/>
	<path fill="#CCCCCC" d="M168.8,31.6c-0.1,0-0.1,0-0.1,0.1v3.5c0,0.3,0.1,0.6,0.2,0.7c0.1,0.1,0.3,0.2,0.6,0.2h0.8
		c0.1,0,0.1,0,0.1,0.1v0.5c0,0.1-0.1,0.2-0.2,0.2c-0.3,0-0.7,0.1-1.2,0.1c-0.5,0-0.9-0.1-1.2-0.4s-0.4-0.6-0.4-1.1v-3.8
		c0-0.1,0-0.1-0.1-0.1h-0.9c-0.1,0-0.2,0-0.2-0.1v-0.6c0-0.1,0-0.1,0.1-0.1h1c0.1,0,0.1,0,0.1-0.1l0.1-1.9c0-0.1,0.1-0.2,0.1-0.2
		h0.8c0.1,0,0.2,0.1,0.2,0.2v1.9c0,0.1,0,0.1,0.1,0.1h1.4c0.1,0,0.1,0,0.1,0.1v0.6c0,0.1-0.1,0.1-0.2,0.1H168.8z"/>
</g>
<path fill="none" stroke="#CCCCCC" stroke-miterlimit="10" d="M120.4,1c0,1.5,1.2,2.8,2.8,2.8S126,2.5,126,1"/>
<path fill="none" stroke="#CCCCCC" stroke-miterlimit="10" d="M128.2,5.9"/>
<path fill="none" stroke="#CCCCCC" stroke-miterlimit="10" d="M128.2,1c0,1.5,1.2,2.8,2.8,2.8c1.5,0,2.8-1.2,2.8-2.8"/>
<path fill="none" stroke="#37B34A" stroke-width="0.6918" stroke-miterlimit="10" d="M135.9,5.9"/>
<path fill="none" stroke="#CCCCCC" stroke-miterlimit="10" d="M135.9,1c0,1.5,1.2,2.8,2.8,2.8s2.8-1.2,2.8-2.8"/>
<path fill="none" stroke="#CCCCCC" stroke-miterlimit="10" d="M120.4,16.7c0-1.5,1.2-2.8,2.8-2.8s2.8,1.2,2.8,2.8"/>
<path fill="none" stroke="#CCCCCC" stroke-miterlimit="10" d="M128.2,16.7c0-1.5,1.2-2.8,2.8-2.8c1.5,0,2.8,1.2,2.8,2.8"/>
<path fill="none" stroke="#CCCCCC" stroke-miterlimit="10" d="M135.9,16.7c0-1.5,1.2-2.8,2.8-2.8s2.8,1.2,2.8,2.8"/>
<circle fill="none" stroke="#CCCCCC" stroke-miterlimit="10" cx="123.2" cy="8.9" r="2.8"/>
<circle fill="none" stroke="#CCCCCC" stroke-miterlimit="10" cx="130.9" cy="8.9" r="2.8"/>
<circle fill="#CCCCCC" stroke="#CCCCCC" stroke-miterlimit="10" cx="138.7" cy="8.9" r="2.8"/>
<g>
</g>
<g>
</g>
<g>
</g>
<g>
</g>
<g>
</g>
<g>
</g>
<g>
</g>
<g>
</g>
<g>
</g>
<g>
</g>
<g>
</g>
<g>
</g>
<g>
</g>
<g>
</g>
<g>
</g>
</svg>
