<?xml version="1.0" encoding="utf-8"?>
<!-- Generator: Adobe Illustrator 17.1.0, SVG Export Plug-In . SVG Version: 6.00 Build 0)  -->
<!DOCTYPE svg PUBLIC "-//W3C//DTD SVG 1.1//EN" "http://www.w3.org/Graphics/SVG/1.1/DTD/svg11.dtd">
<svg version="1.1" id="Layer_1" xmlns="http://www.w3.org/2000/svg" xmlns:xlink="http://www.w3.org/1999/xlink" x="0px" y="0px"
	 width="240px" height="40px" viewBox="0 0 240 40" enable-background="new 0 0 240 40" xml:space="preserve">
<path fill="none" stroke="#F6A330" stroke-width="0.9915" stroke-miterlimit="10" d="M23.9,20.3"/>
<g>
	<path fill="#48B0E3" d="M33.9,3.5c-0.5-0.2-1.1-0.4-1.9-0.4c-0.9,0-1.5,0.2-2,0.5c-0.5,0.3-0.7,0.7-0.7,1.2c0,0.7,0.6,1.3,1.7,1.6
		l3.4,1c1.3,0.4,2.2,0.9,2.9,1.7c0.6,0.8,0.9,1.7,0.9,2.8c0,1-0.3,1.9-0.8,2.6c-0.5,0.7-1.3,1.3-2.2,1.7c-1,0.4-2.1,0.6-3.4,0.6
		c-1.5,0-2.8-0.2-4-0.7c-1.2-0.5-2-1.2-2.6-2c-0.1-0.1-0.1-0.2-0.1-0.3c0-0.1,0.1-0.2,0.2-0.4l1.7-1.1c0.1-0.1,0.3-0.1,0.4-0.1
		c0.1,0,0.2,0.1,0.3,0.2c0.5,0.7,1.1,1.2,1.6,1.5c0.5,0.3,1.3,0.4,2.2,0.4c1,0,1.7-0.2,2.3-0.5c0.5-0.3,0.8-0.8,0.8-1.4
		c0-0.4-0.1-0.7-0.4-1s-0.7-0.5-1.4-0.7l-3.3-0.9c-1.2-0.3-2.2-0.9-2.9-1.7c-0.7-0.8-1-1.7-1-2.8c0-0.9,0.3-1.7,0.8-2.5
		c0.5-0.7,1.2-1.3,2.2-1.7c0.9-0.4,2-0.6,3.2-0.6c1.2,0,2.3,0.2,3.3,0.6s1.8,1,2.3,1.6c0.1,0.1,0.1,0.2,0.1,0.3c0,0.1,0,0.2-0.1,0.2
		l-1.8,1.3c-0.1,0.1-0.2,0.1-0.2,0.1c-0.1,0-0.2-0.1-0.3-0.2C34.8,4.1,34.4,3.8,33.9,3.5z"/>
	<path fill="#48B0E3" d="M38.9,16.3c0-0.1,0-0.2,0-0.3l5.4-14.9c0.1-0.2,0.1-0.3,0.2-0.3c0.1-0.1,0.2-0.1,0.4-0.1h3.2
		c0.2,0,0.3,0,0.4,0.1c0.1,0.1,0.2,0.2,0.2,0.3l5.3,14.9c0,0.1,0,0.2,0,0.2c0,0.1,0,0.2-0.1,0.3c-0.1,0.1-0.1,0.1-0.2,0.1h-3.2
		c-0.2,0-0.4-0.1-0.4-0.3l-1.1-3.1c0-0.1-0.1-0.1-0.1-0.2c0,0-0.1-0.1-0.2-0.1h-5.3c-0.1,0-0.2,0.1-0.3,0.2l-1.1,3.2
		c-0.1,0.2-0.2,0.3-0.5,0.3h-2.5C39.1,16.7,38.9,16.6,38.9,16.3z M48,10.2c0.1,0,0.2-0.1,0.2-0.2c0-0.1,0-0.2,0-0.2l-1.8-5
		c0-0.1-0.1-0.1-0.2-0.1c0,0-0.1,0.1-0.1,0.2l-1.8,5c0,0.1,0,0.2,0,0.2c0,0.1,0.1,0.2,0.2,0.2H48z"/>
</g>
<path fill="none" stroke="#979797" stroke-width="0.9915" stroke-miterlimit="10" d="M24,20.3"/>
<g>
	<path fill="#48B0E3" d="M30.2,19.3C29.8,19.1,29.5,19,29,19c-0.6,0-1,0.1-1.3,0.4c-0.3,0.2-0.5,0.6-0.5,1c0,0.6,0.4,1,1.2,1.2
		l1.8,0.6c1.4,0.4,2,1.2,2,2.4c0,0.8-0.3,1.4-0.9,1.9c-0.6,0.5-1.4,0.7-2.4,0.7c-0.8,0-1.4-0.1-2-0.4c-0.6-0.3-1-0.6-1.4-1.1
		c0-0.1,0-0.1,0-0.1c0-0.1,0-0.1,0.1-0.2l0.6-0.4c0.1,0,0.1-0.1,0.2-0.1c0.1,0,0.1,0,0.1,0.1c0.3,0.4,0.7,0.7,1,0.9
		c0.3,0.2,0.8,0.3,1.3,0.3c0.6,0,1.1-0.1,1.5-0.3s0.5-0.6,0.5-1c0-0.3-0.1-0.5-0.3-0.7c-0.2-0.2-0.5-0.4-1-0.5l-1.8-0.6
		c-0.6-0.2-1.1-0.5-1.5-0.9c-0.3-0.4-0.5-0.9-0.5-1.4c0-0.5,0.1-1,0.4-1.3c0.3-0.4,0.6-0.7,1.1-0.9c0.5-0.2,1-0.3,1.6-0.3
		c0.6,0,1.2,0.1,1.7,0.3c0.5,0.2,0.9,0.5,1.2,0.9c0,0,0.1,0.1,0.1,0.1c0,0,0,0.1-0.1,0.1L31.2,20c0,0-0.1,0-0.1,0c0,0-0.1,0-0.1-0.1
		C30.7,19.6,30.5,19.4,30.2,19.3z"/>
	<path fill="#48B0E3" d="M34.6,20.8v0.5c0,0.1,0,0.1,0,0.1c0,0,0.1,0,0.1-0.1c0.2-0.2,0.5-0.4,0.8-0.6c0.3-0.2,0.6-0.2,1.1-0.2
		c0.5,0,0.9,0.1,1.3,0.4c0.4,0.2,0.7,0.6,0.9,1.1c0.2,0.5,0.3,1.1,0.3,1.8c0,0.7-0.1,1.3-0.3,1.8c-0.2,0.5-0.5,0.9-0.9,1.2
		c-0.4,0.3-0.9,0.4-1.4,0.4c-0.6,0-1.2-0.2-1.7-0.6c-0.1-0.1-0.1-0.1-0.1-0.1c0,0-0.1,0.1-0.1,0.2v2.2c0,0.1,0,0.2-0.1,0.2h-1
		c-0.1,0-0.2-0.1-0.2-0.2v-8c0-0.1,0-0.1,0.1-0.2c0,0,0.1,0,0.2,0h0.8C34.6,20.6,34.6,20.7,34.6,20.8z M35.3,26.1
		c0.2,0.1,0.5,0.2,0.8,0.2c0.6,0,1-0.2,1.3-0.6c0.3-0.4,0.5-1.1,0.5-1.9c0-0.8-0.2-1.4-0.5-1.8c-0.3-0.4-0.7-0.6-1.3-0.6
		c-0.3,0-0.6,0.1-0.8,0.2S35,21.9,34.8,22c-0.1,0.2-0.2,0.4-0.2,0.6v2.9C34.9,25.8,35.1,25.9,35.3,26.1z"/>
	<path fill="#48B0E3" d="M41.5,25.2c0.2,0.3,0.4,0.5,0.7,0.7c0.3,0.2,0.6,0.3,1,0.3c0.4,0,0.7-0.1,1-0.2c0.3-0.2,0.6-0.4,0.8-0.7
		c0,0,0.1,0,0.1,0c0,0,0.1,0,0.1,0l0.6,0.3c0,0,0.1,0.1,0.1,0.1c0,0,0,0.1,0,0.1c-0.3,0.5-0.7,0.9-1.2,1.1s-1,0.3-1.6,0.3
		c-0.6,0-1.1-0.1-1.6-0.4c-0.5-0.3-0.8-0.7-1.1-1.1c-0.3-0.5-0.4-1.1-0.4-1.7c0-0.7,0.1-1.3,0.4-1.8s0.6-0.9,1.1-1.2
		c0.5-0.3,1-0.4,1.6-0.4c0.6,0,1.1,0.1,1.6,0.4c0.4,0.3,0.8,0.6,1,1.1s0.4,1.1,0.4,1.8v0c0,0.1,0,0.1,0,0.2c0,0-0.1,0.1-0.1,0.1
		h-4.4c-0.1,0-0.1,0.1-0.1,0.2C41.2,24.6,41.3,25,41.5,25.2z M44.5,23.3c0.1,0,0.1,0,0.2,0c0,0,0-0.1,0-0.1c0-0.3-0.1-0.6-0.2-0.9
		c-0.1-0.3-0.3-0.5-0.6-0.7s-0.6-0.2-0.9-0.2c-0.4,0-0.7,0.1-0.9,0.3c-0.3,0.2-0.5,0.4-0.6,0.7c-0.1,0.3-0.2,0.6-0.2,1L44.5,23.3z"
		/>
	<path fill="#48B0E3" d="M51.3,21c0.4,0.3,0.8,0.7,1,1.2c0,0,0,0.1,0,0.1c0,0,0,0.1-0.1,0.1l-0.9,0.1h0c0,0-0.1,0-0.1-0.1
		c-0.2-0.3-0.4-0.6-0.6-0.7c-0.2-0.2-0.5-0.2-0.8-0.2c-0.6,0-1,0.2-1.3,0.6s-0.5,1-0.5,1.8c0,0.8,0.2,1.4,0.5,1.8
		c0.3,0.4,0.8,0.6,1.4,0.6c0.4,0,0.7-0.1,0.9-0.3c0.3-0.2,0.5-0.5,0.7-0.8c0,0,0-0.1,0.1-0.1s0.1,0,0.1,0l0.6,0.2
		c0.1,0,0.1,0.1,0,0.2c-0.2,0.5-0.6,0.9-1,1.2c-0.4,0.3-1,0.5-1.6,0.5c-0.6,0-1.1-0.1-1.6-0.4S47.3,26,47,25.5
		c-0.3-0.5-0.4-1.1-0.4-1.7c0-0.6,0.1-1.2,0.4-1.7c0.3-0.5,0.6-0.9,1.1-1.2c0.5-0.3,1-0.4,1.6-0.4C50.3,20.5,50.8,20.7,51.3,21z"/>
	<path fill="#48B0E3" d="M55.2,21.6c-0.1,0-0.1,0-0.1,0.1v3.5c0,0.3,0.1,0.6,0.2,0.7c0.1,0.1,0.3,0.2,0.6,0.2h0.8
		c0.1,0,0.1,0,0.1,0.1v0.5c0,0.1-0.1,0.2-0.2,0.2c-0.3,0-0.7,0.1-1.2,0.1c-0.5,0-0.9-0.1-1.2-0.4s-0.4-0.6-0.4-1.1v-3.8
		c0-0.1,0-0.1-0.1-0.1h-0.9c-0.1,0-0.2,0-0.2-0.1v-0.6c0-0.1,0-0.1,0.1-0.1h1c0.1,0,0.1,0,0.1-0.1l0.1-1.9c0-0.1,0.1-0.2,0.1-0.2H55
		c0.1,0,0.2,0.1,0.2,0.2v1.9c0,0.1,0,0.1,0.1,0.1h1.4c0.1,0,0.1,0,0.1,0.1v0.6c0,0.1-0.1,0.1-0.2,0.1H55.2z"/>
	<path fill="#48B0E3" d="M57.7,26.8v-6c0-0.1,0.1-0.2,0.2-0.2h0.9c0.1,0,0.1,0.1,0.1,0.2v0.8c0,0,0,0.1,0,0.1c0,0,0.1,0,0.1,0
		c0.3-0.3,0.6-0.6,0.9-0.8c0.3-0.2,0.6-0.3,0.9-0.3c0.3,0,0.4,0.1,0.4,0.2v0.9c0,0.1,0,0.1-0.1,0.1c-0.2,0-0.4-0.1-0.6-0.1
		c-0.2,0-0.5,0.1-0.7,0.2s-0.5,0.3-0.6,0.5C59.1,22.6,59,22.8,59,23v3.8c0,0.1-0.1,0.2-0.2,0.2h-0.9C57.8,27,57.7,26.9,57.7,26.8z"
		/>
	<path fill="#48B0E3" d="M66.2,25.2v-4.4c0-0.1,0.1-0.2,0.2-0.2h0.9c0.1,0,0.2,0.1,0.2,0.2l0,6c0,0.1,0,0.2-0.1,0.2h-0.9
		c-0.1,0-0.1-0.1-0.1-0.2v-0.7c0-0.1,0-0.1-0.1,0c-0.4,0.4-0.8,0.6-1.1,0.8c-0.3,0.1-0.7,0.2-1.1,0.2c-0.6,0-1-0.2-1.4-0.5
		s-0.5-0.8-0.5-1.4v-4.4c0-0.1,0.1-0.2,0.2-0.2h0.9c0.1,0,0.2,0.1,0.2,0.2V25c0,0.4,0.1,0.6,0.3,0.8c0.2,0.2,0.5,0.3,0.8,0.3
		C65,26.2,65.6,25.8,66.2,25.2z"/>
	<path fill="#48B0E3" d="M68.9,26.8v-6c0-0.1,0.1-0.2,0.2-0.2H70c0.1,0,0.1,0.1,0.1,0.2v0.7c0,0,0,0.1,0,0.1c0,0,0.1,0,0.1,0
		c0.4-0.3,0.8-0.6,1.1-0.7c0.3-0.2,0.7-0.2,1-0.2c0.4,0,0.8,0.1,1.1,0.3c0.3,0.2,0.5,0.5,0.6,0.8c0,0,0,0,0,0c0,0,0.1,0,0.1-0.1
		c0.4-0.3,0.7-0.6,1.1-0.8c0.3-0.2,0.7-0.3,1.1-0.3c0.6,0,1,0.2,1.4,0.5c0.3,0.3,0.5,0.8,0.5,1.4v4.4c0,0.1-0.1,0.2-0.2,0.2h-0.9
		c-0.1,0-0.1,0-0.1,0s0-0.1,0-0.2v-4.2c0-0.4-0.1-0.6-0.3-0.8c-0.2-0.2-0.4-0.3-0.8-0.3c-0.5,0-1,0.3-1.5,0.8
		c-0.1,0.1-0.1,0.1-0.1,0.2c0,0.1,0,0.1,0,0.2v4.2c0,0.1-0.1,0.2-0.2,0.2h-0.9c-0.1,0-0.2-0.1-0.2-0.2v-4.2c0-0.4-0.1-0.6-0.3-0.8
		c-0.2-0.2-0.4-0.3-0.8-0.3c-0.3,0-0.6,0.1-0.8,0.2c-0.2,0.1-0.5,0.4-0.9,0.7v4.4c0,0.1,0,0.1-0.1,0.2s-0.1,0-0.2,0h-0.9
		C68.9,27,68.9,26.9,68.9,26.8z"/>
	<path fill="#48B0E3" d="M25.5,37.4l0-0.1l3.1-8.5c0-0.1,0.1-0.1,0.1-0.2c0,0,0.1,0,0.2,0h1.2c0.2,0,0.3,0.1,0.3,0.2l3,8.5
		c0,0,0,0,0,0.1c0,0.1,0,0.2-0.1,0.2h-1.1c-0.1,0-0.2,0-0.2-0.1l-0.8-2.1c0,0,0-0.1,0-0.1c0,0,0,0-0.1,0h-3.3c-0.1,0-0.1,0-0.1,0.1
		l-0.8,2.2c0,0.1-0.1,0.1-0.2,0.1h-0.9C25.5,37.5,25.5,37.5,25.5,37.4z M30.6,34c0.1,0,0.1,0,0.1,0c0,0,0-0.1,0-0.1l-1.3-3.6
		c0-0.1-0.1-0.1-0.1-0.1c0,0-0.1,0-0.1,0.1l-1.3,3.6l0,0.1c0,0.1,0,0.1,0.1,0.1H30.6z"/>
	<path fill="#48B0E3" d="M34.4,37.3v-6c0-0.1,0.1-0.2,0.2-0.2h0.9c0.1,0,0.1,0.1,0.1,0.2V32c0,0,0,0.1,0,0.1c0,0,0,0,0.1,0
		c0.4-0.3,0.8-0.6,1.1-0.7c0.3-0.2,0.7-0.2,1-0.2c0.6,0,1.1,0.2,1.4,0.5c0.3,0.3,0.5,0.8,0.5,1.3v4.4c0,0.1-0.1,0.2-0.2,0.2h-0.9
		c-0.1,0-0.2-0.1-0.2-0.2v-4.2c0-0.4-0.1-0.6-0.3-0.8c-0.2-0.2-0.5-0.3-0.8-0.3c-0.3,0-0.6,0.1-0.8,0.2c-0.3,0.1-0.6,0.4-0.9,0.7
		v4.4c0,0.1,0,0.1-0.1,0.2s-0.1,0-0.2,0h-0.9C34.5,37.5,34.4,37.4,34.4,37.3z"/>
	<path fill="#48B0E3" d="M42.8,37.6c-0.6,0-1.1-0.2-1.5-0.5c-0.4-0.3-0.5-0.7-0.5-1.3c0-0.6,0.3-1.2,0.8-1.5s1.4-0.6,2.4-0.6
		l0.8-0.1c0.1,0,0.2-0.1,0.2-0.2v-0.3c0-0.4-0.1-0.7-0.4-0.9c-0.2-0.2-0.6-0.3-1-0.3c-0.7,0-1.2,0.3-1.6,0.9c0,0-0.1,0.1-0.1,0.1
		c0,0-0.1,0-0.1,0l-0.8-0.2c0,0-0.1,0-0.1-0.1c0,0,0-0.1,0-0.1c0.2-0.4,0.6-0.8,1-1s1-0.4,1.7-0.4c0.8,0,1.5,0.2,1.9,0.5
		c0.4,0.4,0.6,0.9,0.6,1.5v4.2c0,0.1,0,0.1,0,0.2s-0.1,0-0.1,0h-0.8c-0.1,0-0.2-0.1-0.2-0.2l0-0.5c0-0.1,0-0.1-0.1-0.1
		c0,0-0.1,0-0.1,0.1C44.2,37.3,43.6,37.6,42.8,37.6z M44.8,34.3l-0.6,0c-0.7,0-1.2,0.2-1.6,0.4C42.2,35,42,35.3,42,35.7
		c0,0.3,0.1,0.6,0.3,0.7c0.2,0.2,0.5,0.3,0.9,0.3c0.4,0,0.8-0.1,1.2-0.4c0.3-0.3,0.5-0.6,0.5-0.8v-0.9C45,34.4,44.9,34.3,44.8,34.3z
		"/>
	<path fill="#48B0E3" d="M48.8,37.3c0,0.1,0,0.1-0.1,0.2c0,0-0.1,0-0.2,0h-0.8c-0.1,0-0.1,0-0.2,0c0,0,0-0.1,0-0.2l0-8.5
		c0-0.1,0.1-0.2,0.2-0.2h0.9c0.1,0,0.2,0.1,0.2,0.2V37.3z"/>
	<path fill="#48B0E3" d="M50,39.5c-0.1,0-0.2-0.1-0.2-0.2v-0.6c0-0.1,0.1-0.2,0.3-0.2H51c0.2,0,0.3-0.1,0.5-0.2
		c0.2-0.1,0.3-0.3,0.4-0.5c0.1-0.2,0.1-0.4,0.1-0.5c0-0.1,0-0.2,0-0.3l-2.3-5.7c0,0,0,0,0-0.1c0-0.1,0.1-0.1,0.2-0.1h1
		c0,0,0.1,0,0.1,0c0,0,0.1,0.1,0.1,0.1l1.7,4.3c0,0.1,0.1,0.1,0.1,0.1c0,0,0.1,0,0.1-0.1l1.6-4.3c0-0.1,0.1-0.1,0.2-0.1h0.7
		c0.1,0,0.1,0,0.1,0.1c0,0,0,0.1,0,0.1l-2.6,6.5c-0.2,0.4-0.4,0.8-0.6,1c-0.2,0.2-0.5,0.4-0.7,0.5s-0.6,0.1-1,0.1
		C50.3,39.5,50.2,39.5,50,39.5z"/>
	<path fill="#48B0E3" d="M59.6,32.1c-0.3-0.1-0.6-0.2-0.9-0.2c-0.4,0-0.7,0.1-1,0.2c-0.3,0.2-0.4,0.4-0.4,0.7c0,0.2,0.1,0.3,0.2,0.4
		c0.1,0.1,0.4,0.2,0.7,0.3l1.5,0.4c0.6,0.1,1,0.4,1.2,0.7s0.4,0.7,0.4,1.1c0,0.4-0.1,0.7-0.3,1s-0.5,0.5-1,0.7
		c-0.4,0.2-0.9,0.2-1.4,0.2c-0.6,0-1.2-0.1-1.7-0.4s-0.8-0.6-1-1c0,0,0-0.1,0-0.1c0,0,0-0.1,0.1-0.1l0.6-0.3c0,0,0.1,0,0.1,0
		c0,0,0.1,0,0.1,0c0.4,0.6,1.1,1,1.9,1c0.4,0,0.8-0.1,1.1-0.2c0.3-0.2,0.4-0.4,0.4-0.7c0-0.2-0.1-0.4-0.2-0.5
		c-0.2-0.1-0.4-0.3-0.8-0.4l-1.2-0.3c-0.6-0.1-1-0.4-1.3-0.6c-0.3-0.3-0.4-0.6-0.4-1.1c0-0.4,0.1-0.7,0.3-1s0.5-0.5,0.9-0.7
		c0.4-0.2,0.8-0.2,1.3-0.2c0.5,0,1,0.1,1.5,0.3s0.8,0.5,1,0.8c0,0,0,0.1,0,0.1c0,0,0,0.1-0.1,0.1l-0.6,0.3c0,0,0,0-0.1,0
		c0,0-0.1,0-0.1-0.1C60.1,32.4,59.8,32.2,59.6,32.1z"/>
	<path fill="#48B0E3" d="M63.6,29.9c0,0.1,0,0.2-0.1,0.2c0,0-0.1,0.1-0.2,0.1h-0.9c-0.1,0-0.1,0-0.2-0.1c0,0,0-0.1,0-0.2v-1.1
		c0-0.1,0.1-0.2,0.2-0.2h1c0,0,0.1,0,0.1,0.1c0,0,0,0.1,0,0.1V29.9z M63.6,37.3c0,0.1,0,0.1-0.1,0.2s-0.1,0-0.2,0h-0.8
		c-0.1,0-0.1,0-0.2,0c0,0,0-0.1,0-0.2v-6c0-0.1,0-0.1,0-0.1c0,0,0.1,0,0.1,0h1c0.1,0,0.1,0.1,0.1,0.2V37.3z"/>
	<path fill="#48B0E3" d="M68.2,32.1c-0.3-0.1-0.6-0.2-0.9-0.2c-0.4,0-0.7,0.1-1,0.2c-0.3,0.2-0.4,0.4-0.4,0.7c0,0.2,0.1,0.3,0.2,0.4
		c0.1,0.1,0.4,0.2,0.7,0.3l1.5,0.4c0.6,0.1,1,0.4,1.2,0.7s0.4,0.7,0.4,1.1c0,0.4-0.1,0.7-0.3,1s-0.5,0.5-1,0.7
		c-0.4,0.2-0.9,0.2-1.4,0.2c-0.6,0-1.2-0.1-1.7-0.4s-0.8-0.6-1-1c0,0,0-0.1,0-0.1c0,0,0-0.1,0.1-0.1l0.6-0.3c0,0,0.1,0,0.1,0
		c0,0,0.1,0,0.1,0c0.4,0.6,1.1,1,1.9,1c0.4,0,0.8-0.1,1.1-0.2c0.3-0.2,0.4-0.4,0.4-0.7c0-0.2-0.1-0.4-0.2-0.5
		c-0.2-0.1-0.4-0.3-0.8-0.4l-1.2-0.3c-0.6-0.1-1-0.4-1.3-0.6c-0.3-0.3-0.4-0.6-0.4-1.1c0-0.4,0.1-0.7,0.3-1s0.5-0.5,0.9-0.7
		c0.4-0.2,0.8-0.2,1.3-0.2c0.5,0,1,0.1,1.5,0.3s0.8,0.5,1,0.8c0,0,0,0.1,0,0.1c0,0,0,0.1-0.1,0.1L69,32.7c0,0,0,0-0.1,0
		c0,0-0.1,0-0.1-0.1C68.6,32.4,68.4,32.2,68.2,32.1z"/>
</g>
<path fill="none" stroke="#48B0E3" stroke-miterlimit="10" d="M1,1c0,1.5,1.2,2.8,2.8,2.8S6.5,2.5,6.5,1"/>
<path fill="none" stroke="#48B0E3" stroke-miterlimit="10" d="M8.7,5.9"/>
<path fill="none" stroke="#48B0E3" stroke-miterlimit="10" d="M8.7,1c0,1.5,1.2,2.8,2.8,2.8c1.5,0,2.8-1.2,2.8-2.8"/>
<path fill="none" stroke="#48B0E3" stroke-width="0.6918" stroke-miterlimit="10" d="M16.5,5.9"/>
<path fill="none" stroke="#48B0E3" stroke-miterlimit="10" d="M16.5,1c0,1.5,1.2,2.8,2.8,2.8C20.7,3.8,22,2.5,22,1"/>
<path fill="none" stroke="#48B0E3" stroke-miterlimit="10" d="M1,16.7c0-1.5,1.2-2.8,2.8-2.8s2.8,1.2,2.8,2.8"/>
<path fill="none" stroke="#48B0E3" stroke-miterlimit="10" d="M8.7,16.7c0-1.5,1.2-2.8,2.8-2.8c1.5,0,2.8,1.2,2.8,2.8"/>
<path fill="none" stroke="#48B0E3" stroke-miterlimit="10" d="M16.5,16.7c0-1.5,1.2-2.8,2.8-2.8c1.5,0,2.8,1.2,2.8,2.8"/>
<circle fill="none" stroke="#48B0E3" stroke-miterlimit="10" cx="3.8" cy="8.9" r="2.8"/>
<circle fill="none" stroke="#48B0E3" stroke-miterlimit="10" cx="11.5" cy="8.9" r="2.8"/>
<circle fill="#48B0E3" stroke="#48B0E3" stroke-miterlimit="10" cx="19.2" cy="8.9" r="2.8"/>
<path fill="none" stroke="#979797" stroke-width="0.9915" stroke-miterlimit="10" d="M143.4,20.3"/>
<g>
	<g>
		<path fill="#CCCCCC" d="M153.4,3.5c-0.5-0.2-1.1-0.4-1.9-0.4c-0.9,0-1.5,0.2-2,0.5c-0.5,0.3-0.7,0.7-0.7,1.2
			c0,0.7,0.6,1.3,1.7,1.6l3.4,1c1.3,0.4,2.2,0.9,2.9,1.7c0.6,0.8,0.9,1.7,0.9,2.8c0,1-0.3,1.9-0.8,2.6c-0.5,0.7-1.3,1.3-2.2,1.7
			c-1,0.4-2.1,0.6-3.4,0.6c-1.5,0-2.8-0.2-4-0.7c-1.2-0.5-2-1.2-2.6-2c-0.1-0.1-0.1-0.2-0.1-0.3c0-0.1,0.1-0.2,0.2-0.4l1.7-1.1
			c0.1-0.1,0.3-0.1,0.4-0.1c0.1,0,0.2,0.1,0.3,0.2c0.5,0.7,1.1,1.2,1.6,1.5c0.5,0.3,1.3,0.4,2.2,0.4c1,0,1.7-0.2,2.3-0.5
			c0.5-0.3,0.8-0.8,0.8-1.4c0-0.4-0.1-0.7-0.4-1c-0.3-0.3-0.7-0.5-1.4-0.7l-3.3-0.9c-1.2-0.3-2.2-0.9-2.9-1.7c-0.7-0.8-1-1.7-1-2.8
			c0-0.9,0.3-1.7,0.8-2.5c0.5-0.7,1.2-1.3,2.2-1.7c0.9-0.4,2-0.6,3.2-0.6c1.2,0,2.3,0.2,3.3,0.6s1.8,1,2.3,1.6
			c0.1,0.1,0.1,0.2,0.1,0.3c0,0.1,0,0.2-0.1,0.2l-1.8,1.3c-0.1,0.1-0.2,0.1-0.2,0.1c-0.1,0-0.2-0.1-0.3-0.2
			C154.3,4.1,153.8,3.8,153.4,3.5z"/>
		<path fill="#CCCCCC" d="M158.4,16.3c0-0.1,0-0.2,0-0.3l5.4-14.9c0.1-0.2,0.1-0.3,0.2-0.3c0.1-0.1,0.2-0.1,0.4-0.1h3.2
			c0.2,0,0.3,0,0.4,0.1s0.2,0.2,0.2,0.3l5.3,14.9c0,0.1,0,0.2,0,0.2c0,0.1,0,0.2-0.1,0.3c-0.1,0.1-0.1,0.1-0.2,0.1h-3.2
			c-0.2,0-0.4-0.1-0.4-0.3l-1.1-3.1c0-0.1-0.1-0.1-0.1-0.2c0,0-0.1-0.1-0.2-0.1h-5.3c-0.1,0-0.2,0.1-0.3,0.2l-1.1,3.2
			c-0.1,0.2-0.2,0.3-0.5,0.3h-2.5C158.5,16.7,158.4,16.6,158.4,16.3z M167.4,10.2c0.1,0,0.2-0.1,0.2-0.2c0-0.1,0-0.2,0-0.2l-1.8-5
			c0-0.1-0.1-0.1-0.2-0.1c0,0-0.1,0.1-0.1,0.2l-1.8,5c0,0.1,0,0.2,0,0.2c0,0.1,0.1,0.2,0.2,0.2H167.4z"/>
	</g>
</g>
<path fill="none" stroke="#979797" stroke-width="0.9915" stroke-miterlimit="10" d="M143.5,20.3"/>
<g>
	<g>
		<path fill="#CCCCCC" d="M149.6,19.3c-0.3-0.2-0.7-0.2-1.1-0.2c-0.6,0-1,0.1-1.3,0.4c-0.3,0.2-0.5,0.6-0.5,1c0,0.6,0.4,1,1.2,1.2
			l1.8,0.6c1.4,0.4,2,1.2,2,2.4c0,0.8-0.3,1.4-0.9,1.9c-0.6,0.5-1.4,0.7-2.4,0.7c-0.8,0-1.4-0.1-2-0.4c-0.6-0.3-1-0.6-1.4-1.1
			c0-0.1,0-0.1,0-0.1c0-0.1,0-0.1,0.1-0.2l0.6-0.4c0.1,0,0.1-0.1,0.2-0.1c0.1,0,0.1,0,0.1,0.1c0.3,0.4,0.7,0.7,1,0.9
			c0.3,0.2,0.8,0.3,1.3,0.3c0.6,0,1.1-0.1,1.5-0.3c0.4-0.2,0.5-0.6,0.5-1c0-0.3-0.1-0.5-0.3-0.7c-0.2-0.2-0.5-0.4-1-0.5l-1.8-0.6
			c-0.6-0.2-1.1-0.5-1.5-0.9s-0.5-0.9-0.5-1.4c0-0.5,0.1-1,0.4-1.3c0.3-0.4,0.6-0.7,1.1-0.9c0.5-0.2,1-0.3,1.7-0.3
			c0.6,0,1.2,0.1,1.7,0.3c0.5,0.2,0.9,0.5,1.2,0.9c0,0,0.1,0.1,0.1,0.1c0,0,0,0.1-0.1,0.1l-0.7,0.5c0,0-0.1,0-0.1,0
			c0,0-0.1,0-0.1-0.1C150.2,19.6,149.9,19.4,149.6,19.3z"/>
		<path fill="#CCCCCC" d="M154.1,20.8v0.5c0,0.1,0,0.1,0,0.1c0,0,0.1,0,0.1-0.1c0.2-0.2,0.5-0.4,0.8-0.6c0.3-0.2,0.6-0.2,1.1-0.2
			c0.5,0,0.9,0.1,1.3,0.4s0.7,0.6,0.9,1.1c0.2,0.5,0.3,1.1,0.3,1.8c0,0.7-0.1,1.3-0.3,1.8s-0.5,0.9-0.9,1.2
			c-0.4,0.3-0.9,0.4-1.4,0.4c-0.6,0-1.2-0.2-1.7-0.6c-0.1-0.1-0.1-0.1-0.1-0.1c0,0-0.1,0.1-0.1,0.2v2.2c0,0.1,0,0.2-0.1,0.2h-1
			c-0.1,0-0.2-0.1-0.2-0.2v-8c0-0.1,0-0.1,0.1-0.2c0,0,0.1,0,0.2,0h0.8C154,20.6,154.1,20.7,154.1,20.8z M154.8,26.1
			c0.2,0.1,0.5,0.2,0.8,0.2c0.6,0,1-0.2,1.3-0.6s0.5-1.1,0.5-1.9c0-0.8-0.2-1.4-0.5-1.8s-0.7-0.6-1.3-0.6c-0.3,0-0.6,0.1-0.8,0.2
			s-0.4,0.3-0.6,0.5c-0.1,0.2-0.2,0.4-0.2,0.6v2.9C154.3,25.8,154.5,25.9,154.8,26.1z"/>
		<path fill="#CCCCCC" d="M160.9,25.2c0.2,0.3,0.4,0.5,0.7,0.7c0.3,0.2,0.6,0.3,1,0.3c0.4,0,0.7-0.1,1-0.2c0.3-0.2,0.6-0.4,0.8-0.7
			c0,0,0.1,0,0.1,0c0,0,0.1,0,0.1,0l0.6,0.3c0,0,0.1,0.1,0.1,0.1c0,0,0,0.1,0,0.1c-0.3,0.5-0.7,0.9-1.2,1.1s-1,0.3-1.6,0.3
			c-0.6,0-1.1-0.1-1.6-0.4c-0.5-0.3-0.8-0.7-1.1-1.1c-0.3-0.5-0.4-1.1-0.4-1.7c0-0.7,0.1-1.3,0.4-1.8c0.3-0.5,0.6-0.9,1.1-1.2
			c0.5-0.3,1-0.4,1.6-0.4c0.6,0,1.1,0.1,1.6,0.4c0.4,0.3,0.8,0.6,1,1.1s0.4,1.1,0.4,1.8v0c0,0.1,0,0.1,0,0.2c0,0-0.1,0.1-0.1,0.1
			h-4.4c-0.1,0-0.1,0.1-0.1,0.2C160.7,24.6,160.8,25,160.9,25.2z M164,23.3c0.1,0,0.1,0,0.2,0c0,0,0-0.1,0-0.1
			c0-0.3-0.1-0.6-0.2-0.9c-0.1-0.3-0.3-0.5-0.6-0.7s-0.5-0.2-0.9-0.2c-0.4,0-0.7,0.1-0.9,0.3c-0.3,0.2-0.5,0.4-0.6,0.7
			c-0.1,0.3-0.2,0.6-0.2,1L164,23.3z"/>
		<path fill="#CCCCCC" d="M170.7,21c0.4,0.3,0.8,0.7,1,1.2c0,0,0,0.1,0,0.1c0,0,0,0.1-0.1,0.1l-0.9,0.1h0c0,0-0.1,0-0.1-0.1
			c-0.2-0.3-0.4-0.6-0.6-0.7c-0.2-0.2-0.5-0.2-0.8-0.2c-0.6,0-1,0.2-1.3,0.6s-0.5,1-0.5,1.8c0,0.8,0.2,1.4,0.5,1.8
			c0.3,0.4,0.8,0.6,1.4,0.6c0.4,0,0.7-0.1,0.9-0.3c0.3-0.2,0.5-0.5,0.7-0.8c0,0,0-0.1,0.1-0.1s0.1,0,0.1,0l0.6,0.2
			c0.1,0,0.1,0.1,0,0.2c-0.2,0.5-0.6,0.9-1,1.2c-0.4,0.3-1,0.5-1.6,0.5c-0.6,0-1.1-0.1-1.6-0.4s-0.8-0.7-1.1-1.2s-0.4-1.1-0.4-1.7
			c0-0.6,0.1-1.2,0.4-1.7s0.6-0.9,1.1-1.2c0.5-0.3,1-0.4,1.6-0.4C169.7,20.5,170.3,20.7,170.7,21z"/>
		<path fill="#CCCCCC" d="M174.6,21.6c-0.1,0-0.1,0-0.1,0.1v3.5c0,0.3,0.1,0.6,0.2,0.7c0.1,0.1,0.3,0.2,0.6,0.2h0.8
			c0.1,0,0.1,0,0.1,0.1v0.5c0,0.1-0.1,0.2-0.2,0.2c-0.3,0-0.7,0.1-1.2,0.1c-0.5,0-0.9-0.1-1.2-0.4s-0.4-0.6-0.4-1.1v-3.8
			c0-0.1,0-0.1-0.1-0.1h-0.9c-0.1,0-0.2,0-0.2-0.1v-0.6c0-0.1,0-0.1,0.1-0.1h1c0.1,0,0.1,0,0.1-0.1l0.1-1.9c0-0.1,0.1-0.2,0.1-0.2
			h0.8c0.1,0,0.2,0.1,0.2,0.2v1.9c0,0.1,0,0.1,0.1,0.1h1.4c0.1,0,0.1,0,0.1,0.1v0.6c0,0.1-0.1,0.1-0.2,0.1H174.6z"/>
		<path fill="#CCCCCC" d="M177.1,26.8v-6c0-0.1,0.1-0.2,0.2-0.2h0.9c0.1,0,0.1,0.1,0.1,0.2v0.8c0,0,0,0.1,0,0.1c0,0,0.1,0,0.1,0
			c0.3-0.3,0.6-0.6,0.9-0.8c0.3-0.2,0.6-0.3,0.9-0.3c0.3,0,0.4,0.1,0.4,0.2v0.9c0,0.1,0,0.1-0.1,0.1c-0.2,0-0.4-0.1-0.6-0.1
			c-0.2,0-0.5,0.1-0.7,0.2s-0.5,0.3-0.6,0.5c-0.2,0.2-0.3,0.4-0.3,0.6v3.8c0,0.1-0.1,0.2-0.2,0.2h-0.9
			C177.2,27,177.1,26.9,177.1,26.8z"/>
		<path fill="#CCCCCC" d="M185.6,25.2v-4.4c0-0.1,0.1-0.2,0.2-0.2h0.9c0.1,0,0.2,0.1,0.2,0.2l0,6c0,0.1,0,0.2-0.1,0.2h-0.9
			c-0.1,0-0.1-0.1-0.1-0.2v-0.7c0-0.1,0-0.1-0.1,0c-0.4,0.4-0.8,0.6-1.1,0.8c-0.3,0.1-0.7,0.2-1.1,0.2c-0.6,0-1-0.2-1.4-0.5
			s-0.5-0.8-0.5-1.4v-4.4c0-0.1,0.1-0.2,0.2-0.2h0.9c0.1,0,0.2,0.1,0.2,0.2V25c0,0.4,0.1,0.6,0.3,0.8s0.5,0.3,0.8,0.3
			C184.5,26.2,185,25.8,185.6,25.2z"/>
		<path fill="#CCCCCC" d="M188.3,26.8v-6c0-0.1,0.1-0.2,0.2-0.2h0.9c0.1,0,0.1,0.1,0.1,0.2v0.7c0,0,0,0.1,0,0.1c0,0,0.1,0,0.1,0
			c0.4-0.3,0.8-0.6,1.1-0.7c0.3-0.2,0.7-0.2,1-0.2c0.4,0,0.8,0.1,1.1,0.3c0.3,0.2,0.5,0.5,0.6,0.8c0,0,0,0,0,0c0,0,0.1,0,0.1-0.1
			c0.4-0.3,0.7-0.6,1.1-0.8c0.3-0.2,0.7-0.3,1.1-0.3c0.6,0,1,0.2,1.3,0.5c0.3,0.3,0.5,0.8,0.5,1.4v4.4c0,0.1-0.1,0.2-0.2,0.2h-0.9
			c-0.1,0-0.1,0-0.1,0s0-0.1,0-0.2v-4.2c0-0.4-0.1-0.6-0.3-0.8c-0.2-0.2-0.4-0.3-0.8-0.3c-0.5,0-1,0.3-1.5,0.8
			c-0.1,0.1-0.1,0.1-0.1,0.2c0,0.1,0,0.1,0,0.2v4.2c0,0.1-0.1,0.2-0.2,0.2h-0.9c-0.1,0-0.2-0.1-0.2-0.2v-4.2c0-0.4-0.1-0.6-0.3-0.8
			c-0.2-0.2-0.4-0.3-0.8-0.3c-0.3,0-0.6,0.1-0.8,0.2c-0.2,0.1-0.5,0.4-0.9,0.7v4.4c0,0.1,0,0.1-0.1,0.2c0,0-0.1,0-0.2,0h-0.9
			C188.4,27,188.3,26.9,188.3,26.8z"/>
		<path fill="#CCCCCC" d="M144.9,37.4l0-0.1l3.1-8.5c0-0.1,0.1-0.1,0.1-0.2c0,0,0.1,0,0.2,0h1.2c0.2,0,0.3,0.1,0.3,0.2l3,8.5
			c0,0,0,0,0,0.1c0,0.1,0,0.2-0.1,0.2h-1.1c-0.1,0-0.2,0-0.2-0.1l-0.8-2.1c0,0,0-0.1,0-0.1c0,0,0,0-0.1,0h-3.3c-0.1,0-0.1,0-0.1,0.1
			l-0.8,2.2c0,0.1-0.1,0.1-0.2,0.1h-0.9C145,37.5,144.9,37.5,144.9,37.4z M150.1,34c0.1,0,0.1,0,0.1,0c0,0,0-0.1,0-0.1l-1.3-3.6
			c0-0.1-0.1-0.1-0.1-0.1c0,0-0.1,0-0.1,0.1l-1.3,3.6l0,0.1c0,0.1,0,0.1,0.1,0.1H150.1z"/>
		<path fill="#CCCCCC" d="M153.9,37.3v-6c0-0.1,0.1-0.2,0.2-0.2h0.9c0.1,0,0.1,0.1,0.1,0.2V32c0,0,0,0.1,0,0.1c0,0,0,0,0.1,0
			c0.4-0.3,0.8-0.6,1.1-0.7c0.3-0.2,0.7-0.2,1-0.2c0.6,0,1.1,0.2,1.4,0.5c0.3,0.3,0.5,0.8,0.5,1.3v4.4c0,0.1-0.1,0.2-0.2,0.2h-0.9
			c-0.1,0-0.2-0.1-0.2-0.2v-4.2c0-0.4-0.1-0.6-0.3-0.8c-0.2-0.2-0.5-0.3-0.8-0.3c-0.3,0-0.6,0.1-0.8,0.2c-0.3,0.1-0.6,0.4-0.9,0.7
			v4.4c0,0.1,0,0.1-0.1,0.2c0,0-0.1,0-0.2,0h-0.9C153.9,37.5,153.9,37.4,153.9,37.3z"/>
		<path fill="#CCCCCC" d="M162.2,37.6c-0.6,0-1.1-0.2-1.5-0.5c-0.4-0.3-0.5-0.7-0.5-1.3c0-0.6,0.3-1.2,0.8-1.5s1.4-0.6,2.4-0.6
			l0.8-0.1c0.1,0,0.2-0.1,0.2-0.2v-0.3c0-0.4-0.1-0.7-0.4-0.9c-0.2-0.2-0.6-0.3-1-0.3c-0.7,0-1.2,0.3-1.6,0.9c0,0,0,0.1-0.1,0.1
			c0,0-0.1,0-0.1,0l-0.8-0.2c0,0-0.1,0-0.1-0.1c0,0,0-0.1,0-0.1c0.2-0.4,0.6-0.8,1-1c0.5-0.2,1-0.4,1.7-0.4c0.8,0,1.5,0.2,1.9,0.5
			c0.4,0.4,0.6,0.9,0.6,1.5v4.2c0,0.1,0,0.1,0,0.2c0,0-0.1,0-0.1,0h-0.8c-0.1,0-0.2-0.1-0.2-0.2l0-0.5c0-0.1,0-0.1-0.1-0.1
			c0,0-0.1,0-0.1,0.1C163.7,37.3,163,37.6,162.2,37.6z M164.3,34.3l-0.6,0c-0.7,0-1.2,0.2-1.6,0.4c-0.4,0.2-0.6,0.5-0.6,0.9
			c0,0.3,0.1,0.6,0.3,0.7s0.5,0.3,0.9,0.3c0.4,0,0.8-0.1,1.2-0.4c0.3-0.3,0.5-0.6,0.5-0.8v-0.9C164.4,34.4,164.4,34.3,164.3,34.3z"
			/>
		<path fill="#CCCCCC" d="M168.2,37.3c0,0.1,0,0.1-0.1,0.2c0,0-0.1,0-0.2,0h-0.8c-0.1,0-0.1,0-0.2,0c0,0,0-0.1,0-0.2l0-8.5
			c0-0.1,0.1-0.2,0.2-0.2h0.9c0.1,0,0.2,0.1,0.2,0.2V37.3z"/>
		<path fill="#CCCCCC" d="M169.5,39.5c-0.1,0-0.2-0.1-0.2-0.2v-0.6c0-0.1,0.1-0.2,0.3-0.2h0.8c0.2,0,0.3-0.1,0.5-0.2
			s0.3-0.3,0.4-0.5c0.1-0.2,0.1-0.4,0.1-0.5c0-0.1,0-0.2,0-0.3l-2.3-5.7c0,0,0,0,0-0.1c0-0.1,0.1-0.1,0.2-0.1h1c0,0,0.1,0,0.1,0
			c0,0,0.1,0.1,0.1,0.1l1.7,4.3c0,0.1,0.1,0.1,0.1,0.1c0,0,0.1,0,0.1-0.1l1.6-4.3c0-0.1,0.1-0.1,0.2-0.1h0.7c0.1,0,0.1,0,0.1,0.1
			c0,0,0,0.1,0,0.1l-2.6,6.5c-0.2,0.4-0.4,0.8-0.6,1s-0.5,0.4-0.7,0.5c-0.3,0.1-0.6,0.1-1,0.1C169.8,39.5,169.6,39.5,169.5,39.5z"/>
		<path fill="#CCCCCC" d="M179,32.1c-0.3-0.1-0.6-0.2-0.9-0.2c-0.4,0-0.7,0.1-1,0.2c-0.3,0.2-0.4,0.4-0.4,0.7c0,0.2,0.1,0.3,0.2,0.4
			s0.4,0.2,0.7,0.3l1.5,0.4c0.6,0.1,1,0.4,1.2,0.7s0.4,0.7,0.4,1.1c0,0.4-0.1,0.7-0.3,1c-0.2,0.3-0.5,0.5-1,0.7
			c-0.4,0.2-0.9,0.2-1.4,0.2c-0.6,0-1.2-0.1-1.7-0.4s-0.8-0.6-1-1c0,0,0-0.1,0-0.1c0,0,0-0.1,0.1-0.1l0.6-0.3c0,0,0.1,0,0.1,0
			c0,0,0.1,0,0.1,0c0.4,0.6,1.1,1,1.9,1c0.4,0,0.8-0.1,1.1-0.2c0.3-0.2,0.4-0.4,0.4-0.7c0-0.2-0.1-0.4-0.2-0.5
			c-0.2-0.1-0.4-0.3-0.8-0.4l-1.2-0.3c-0.6-0.1-1-0.4-1.3-0.6c-0.3-0.3-0.4-0.6-0.4-1.1c0-0.4,0.1-0.7,0.3-1
			c0.2-0.3,0.5-0.5,0.9-0.7c0.4-0.2,0.8-0.2,1.3-0.2c0.5,0,1,0.1,1.5,0.3s0.8,0.5,1,0.8c0,0,0,0.1,0,0.1c0,0,0,0.1-0.1,0.1l-0.6,0.3
			c0,0,0,0-0.1,0c0,0-0.1,0-0.1-0.1C179.5,32.4,179.3,32.2,179,32.1z"/>
		<path fill="#CCCCCC" d="M183,29.9c0,0.1,0,0.2-0.1,0.2c0,0-0.1,0.1-0.2,0.1h-0.9c-0.1,0-0.1,0-0.2-0.1c0,0,0-0.1,0-0.2v-1.1
			c0-0.1,0.1-0.2,0.2-0.2h1c0,0,0.1,0,0.1,0.1c0,0,0,0.1,0,0.1V29.9z M183,37.3c0,0.1,0,0.1-0.1,0.2c0,0-0.1,0-0.2,0h-0.8
			c-0.1,0-0.1,0-0.2,0c0,0,0-0.1,0-0.2v-6c0-0.1,0-0.1,0-0.1c0,0,0.1,0,0.1,0h1c0.1,0,0.1,0.1,0.1,0.2V37.3z"/>
		<path fill="#CCCCCC" d="M187.6,32.1c-0.3-0.1-0.6-0.2-0.9-0.2c-0.4,0-0.7,0.1-1,0.2s-0.4,0.4-0.4,0.7c0,0.2,0.1,0.3,0.2,0.4
			c0.1,0.1,0.4,0.2,0.7,0.3l1.5,0.4c0.6,0.1,1,0.4,1.2,0.7c0.3,0.3,0.4,0.7,0.4,1.1c0,0.4-0.1,0.7-0.3,1s-0.5,0.5-1,0.7
			s-0.9,0.2-1.4,0.2c-0.6,0-1.2-0.1-1.7-0.4c-0.5-0.2-0.8-0.6-1-1c0,0,0-0.1,0-0.1c0,0,0-0.1,0.1-0.1l0.6-0.3c0,0,0.1,0,0.1,0
			c0,0,0.1,0,0.1,0c0.4,0.6,1.1,1,1.9,1c0.4,0,0.8-0.1,1.1-0.2s0.4-0.4,0.4-0.7c0-0.2-0.1-0.4-0.2-0.5c-0.2-0.1-0.4-0.3-0.8-0.4
			l-1.2-0.3c-0.6-0.1-1-0.4-1.3-0.6c-0.3-0.3-0.4-0.6-0.4-1.1c0-0.4,0.1-0.7,0.3-1s0.5-0.5,0.9-0.7c0.4-0.2,0.8-0.2,1.3-0.2
			c0.5,0,1,0.1,1.5,0.3c0.4,0.2,0.8,0.5,1,0.8c0,0,0,0.1,0,0.1c0,0,0,0.1-0.1,0.1l-0.6,0.3c0,0,0,0-0.1,0c0,0-0.1,0-0.1-0.1
			C188.1,32.4,187.9,32.2,187.6,32.1z"/>
	</g>
</g>
<path fill="none" stroke="#CCCCCC" stroke-miterlimit="10" d="M120.4,1c0,1.5,1.2,2.8,2.8,2.8S126,2.5,126,1"/>
<path fill="none" stroke="#CCCCCC" stroke-miterlimit="10" d="M128.2,5.9"/>
<path fill="none" stroke="#CCCCCC" stroke-miterlimit="10" d="M128.2,1c0,1.5,1.2,2.8,2.8,2.8c1.5,0,2.8-1.2,2.8-2.8"/>
<path fill="none" stroke="#37B34A" stroke-width="0.6918" stroke-miterlimit="10" d="M135.9,5.9"/>
<path fill="none" stroke="#CCCCCC" stroke-miterlimit="10" d="M135.9,1c0,1.5,1.2,2.8,2.8,2.8s2.8-1.2,2.8-2.8"/>
<path fill="none" stroke="#CCCCCC" stroke-miterlimit="10" d="M120.4,16.7c0-1.5,1.2-2.8,2.8-2.8s2.8,1.2,2.8,2.8"/>
<path fill="none" stroke="#CCCCCC" stroke-miterlimit="10" d="M128.2,16.7c0-1.5,1.2-2.8,2.8-2.8c1.5,0,2.8,1.2,2.8,2.8"/>
<path fill="none" stroke="#CCCCCC" stroke-miterlimit="10" d="M135.9,16.7c0-1.5,1.2-2.8,2.8-2.8s2.8,1.2,2.8,2.8"/>
<circle fill="none" stroke="#CCCCCC" stroke-miterlimit="10" cx="123.2" cy="8.9" r="2.8"/>
<circle fill="none" stroke="#CCCCCC" stroke-miterlimit="10" cx="130.9" cy="8.9" r="2.8"/>
<circle fill="#CCCCCC" stroke="#CCCCCC" stroke-miterlimit="10" cx="138.7" cy="8.9" r="2.8"/>
<g>
</g>
<g>
</g>
<g>
</g>
<g>
</g>
<g>
</g>
<g>
</g>
<g>
</g>
<g>
</g>
<g>
</g>
<g>
</g>
<g>
</g>
<g>
</g>
<g>
</g>
<g>
</g>
<g>
</g>
</svg>
