<?xml version="1.0" encoding="utf-8"?>
<!-- Generator: Adobe Illustrator 17.1.0, SVG Export Plug-In . SVG Version: 6.00 Build 0)  -->
<!DOCTYPE svg PUBLIC "-//W3C//DTD SVG 1.1//EN" "http://www.w3.org/Graphics/SVG/1.1/DTD/svg11.dtd">
<svg version="1.1" id="Layer_1" xmlns="http://www.w3.org/2000/svg" xmlns:xlink="http://www.w3.org/1999/xlink" x="0px" y="0px"
	 width="240px" height="40px" viewBox="0 0 240 40" enable-background="new 0 0 240 40" xml:space="preserve">
<path fill="none" stroke="#979797" stroke-width="0.9915" stroke-miterlimit="10" d="M23.9,20.3"/>
<g>
	<path fill="#42BDAE" d="M26.1,16.6c-0.1-0.1-0.1-0.2-0.1-0.4V1.1c0-0.3,0.1-0.4,0.4-0.4h4.5c0.2,0,0.3,0,0.3,0.1
		c0.1,0,0.1,0.1,0.2,0.3l3.3,9c0,0.1,0.1,0.2,0.2,0.2c0.1,0,0.1-0.1,0.2-0.2L38,1.2c0.1-0.3,0.2-0.5,0.5-0.5h4.6
		c0.2,0,0.3,0.1,0.3,0.4v15.1c0,0.2,0,0.3-0.1,0.4c-0.1,0.1-0.2,0.1-0.4,0.1h-2.8c-0.2,0-0.3,0-0.4-0.1c-0.1-0.1-0.1-0.2-0.1-0.3
		V5.6c0-0.1,0-0.2-0.1-0.2c0,0-0.1,0.1-0.1,0.2l-3.8,10.8c-0.1,0.2-0.2,0.3-0.5,0.3h-1.8c-0.3,0-0.4-0.1-0.5-0.3L29.3,5.7
		c0-0.1-0.1-0.2-0.1-0.2c-0.1,0-0.1,0.1-0.1,0.2v10.6c0,0.2,0,0.3-0.1,0.3c-0.1,0.1-0.2,0.1-0.3,0.1h-2.2
		C26.3,16.7,26.2,16.7,26.1,16.6z"/>
	<path fill="#42BDAE" d="M45.7,16.6c-0.1-0.1-0.1-0.2-0.1-0.4V1.1c0-0.3,0.1-0.4,0.4-0.4h4.5c0.2,0,0.3,0,0.3,0.1
		c0.1,0,0.1,0.1,0.2,0.3l3.3,9c0,0.1,0.1,0.2,0.2,0.2c0.1,0,0.1-0.1,0.2-0.2l3.1-8.9c0.1-0.3,0.2-0.5,0.5-0.5h4.6
		c0.2,0,0.3,0.1,0.3,0.4v15.1c0,0.2,0,0.3-0.1,0.4c-0.1,0.1-0.2,0.1-0.4,0.1h-2.8c-0.2,0-0.3,0-0.4-0.1c-0.1-0.1-0.1-0.2-0.1-0.3
		V5.6c0-0.1,0-0.2-0.1-0.2c0,0-0.1,0.1-0.1,0.2l-3.8,10.8c-0.1,0.2-0.2,0.3-0.5,0.3h-1.8c-0.3,0-0.4-0.1-0.5-0.3L48.9,5.7
		c0-0.1-0.1-0.2-0.1-0.2c-0.1,0-0.1,0.1-0.1,0.2v10.6c0,0.2,0,0.3-0.1,0.3c-0.1,0.1-0.2,0.1-0.3,0.1h-2.2
		C45.9,16.7,45.8,16.7,45.7,16.6z"/>
</g>
<path fill="none" stroke="#979797" stroke-width="0.9915" stroke-miterlimit="10" d="M24,20.3"/>
<g>
	<path fill="#42BDAE" d="M26.1,26.8v-8.5c0-0.1,0-0.1,0-0.1c0,0,0.1,0,0.1,0h1.6c0.1,0,0.1,0,0.2,0c0,0,0.1,0.1,0.1,0.1l2.4,6.3
		c0,0.1,0.1,0.1,0.1,0.1c0,0,0.1,0,0.1-0.1l2.4-6.2c0-0.1,0.1-0.2,0.2-0.2h1.6c0.1,0,0.2,0.1,0.2,0.2v8.5c0,0.1,0,0.1,0,0.2
		c0,0-0.1,0-0.2,0h-1c-0.1,0-0.1,0-0.2,0c0,0,0-0.1,0-0.2v-6.6c0,0,0-0.1,0-0.1c0,0,0,0,0,0.1L31,26.8c0,0.1-0.1,0.2-0.2,0.2H30
		c-0.1,0-0.2-0.1-0.3-0.2l-2.4-6.5c0-0.1,0-0.1-0.1-0.1c0,0,0,0,0,0.1v6.5c0,0.1,0,0.1,0,0.1c0,0-0.1,0-0.1,0h-0.8
		C26.1,27,26.1,26.9,26.1,26.8z"/>
	<path fill="#42BDAE" d="M37.5,26.7c-0.5-0.3-0.8-0.7-1.1-1.2c-0.3-0.5-0.4-1.1-0.4-1.7c0-0.6,0.1-1.2,0.4-1.7
		c0.3-0.5,0.6-0.9,1.1-1.2c0.5-0.3,1-0.4,1.6-0.4c0.6,0,1.1,0.1,1.6,0.4c0.5,0.3,0.8,0.7,1.1,1.2c0.3,0.5,0.4,1.1,0.4,1.7
		c0,0.6-0.1,1.2-0.4,1.7s-0.6,0.9-1.1,1.2c-0.5,0.3-1,0.4-1.6,0.4S37.9,27,37.5,26.7z M40.4,25.6c0.3-0.4,0.5-1,0.5-1.8
		s-0.2-1.4-0.5-1.8c-0.3-0.4-0.8-0.6-1.3-0.6c-0.6,0-1,0.2-1.3,0.6c-0.3,0.4-0.5,1-0.5,1.8c0,0.8,0.2,1.3,0.5,1.8
		c0.3,0.4,0.8,0.6,1.3,0.6C39.7,26.2,40.1,26,40.4,25.6z"/>
	<path fill="#42BDAE" d="M44.5,26.8c0,0.1,0,0.1-0.1,0.2c0,0-0.1,0-0.2,0h-0.8c-0.1,0-0.1,0-0.2,0c0,0,0-0.1,0-0.2l0-8.5
		c0-0.1,0.1-0.2,0.2-0.2h0.9c0.1,0,0.2,0.1,0.2,0.2V26.8z"/>
	<path fill="#42BDAE" d="M47.1,25.2c0.2,0.3,0.4,0.5,0.7,0.7c0.3,0.2,0.6,0.3,1,0.3c0.4,0,0.7-0.1,1-0.2c0.3-0.2,0.6-0.4,0.8-0.7
		c0,0,0.1,0,0.1,0c0,0,0.1,0,0.1,0l0.6,0.3c0,0,0.1,0.1,0.1,0.1c0,0,0,0.1,0,0.1c-0.3,0.5-0.7,0.9-1.2,1.1s-1,0.3-1.6,0.3
		c-0.6,0-1.1-0.1-1.6-0.4c-0.5-0.3-0.8-0.7-1.1-1.1c-0.3-0.5-0.4-1.1-0.4-1.7c0-0.7,0.1-1.3,0.4-1.8s0.6-0.9,1.1-1.2
		c0.5-0.3,1-0.4,1.6-0.4c0.6,0,1.1,0.1,1.6,0.4c0.4,0.3,0.8,0.6,1,1.1s0.4,1.1,0.4,1.8v0c0,0.1,0,0.1,0,0.2c0,0-0.1,0.1-0.1,0.1H47
		c-0.1,0-0.1,0.1-0.1,0.2C46.9,24.6,46.9,25,47.1,25.2z M50.1,23.3c0.1,0,0.1,0,0.2,0c0,0,0-0.1,0-0.1c0-0.3-0.1-0.6-0.2-0.9
		c-0.1-0.3-0.3-0.5-0.6-0.7s-0.6-0.2-0.9-0.2c-0.4,0-0.7,0.1-0.9,0.3c-0.3,0.2-0.5,0.4-0.6,0.7c-0.1,0.3-0.2,0.6-0.2,1L50.1,23.3z"
		/>
	<path fill="#42BDAE" d="M56.9,21c0.4,0.3,0.8,0.7,1,1.2c0,0,0,0.1,0,0.1c0,0,0,0.1-0.1,0.1l-0.9,0.1h0c0,0-0.1,0-0.1-0.1
		c-0.2-0.3-0.4-0.6-0.6-0.7c-0.2-0.2-0.5-0.2-0.8-0.2c-0.6,0-1,0.2-1.3,0.6s-0.5,1-0.5,1.8c0,0.8,0.2,1.4,0.5,1.8
		c0.3,0.4,0.8,0.6,1.4,0.6c0.4,0,0.7-0.1,0.9-0.3c0.3-0.2,0.5-0.5,0.7-0.8c0,0,0-0.1,0.1-0.1s0.1,0,0.1,0l0.6,0.2
		c0.1,0,0.1,0.1,0,0.2c-0.2,0.5-0.6,0.9-1,1.2c-0.4,0.3-1,0.5-1.6,0.5c-0.6,0-1.1-0.1-1.6-0.4s-0.8-0.7-1.1-1.2
		c-0.3-0.5-0.4-1.1-0.4-1.7c0-0.6,0.1-1.2,0.4-1.7c0.3-0.5,0.6-0.9,1.1-1.2c0.5-0.3,1-0.4,1.6-0.4C55.9,20.5,56.5,20.7,56.9,21z"/>
	<path fill="#42BDAE" d="M62.9,25.2v-4.4c0-0.1,0.1-0.2,0.2-0.2H64c0.1,0,0.2,0.1,0.2,0.2l0,6c0,0.1,0,0.2-0.1,0.2H63
		c-0.1,0-0.1-0.1-0.1-0.2v-0.7c0-0.1,0-0.1-0.1,0c-0.4,0.4-0.8,0.6-1.1,0.8c-0.3,0.1-0.7,0.2-1.1,0.2c-0.6,0-1-0.2-1.4-0.5
		s-0.5-0.8-0.5-1.4v-4.4c0-0.1,0.1-0.2,0.2-0.2h0.9c0.1,0,0.2,0.1,0.2,0.2V25c0,0.4,0.1,0.6,0.3,0.8c0.2,0.2,0.5,0.3,0.8,0.3
		C61.7,26.2,62.3,25.8,62.9,25.2z"/>
	<path fill="#42BDAE" d="M66.8,26.8c0,0.1,0,0.1-0.1,0.2c0,0-0.1,0-0.2,0h-0.8c-0.1,0-0.1,0-0.2,0c0,0,0-0.1,0-0.2l0-8.5
		c0-0.1,0.1-0.2,0.2-0.2h0.9c0.1,0,0.2,0.1,0.2,0.2V26.8z"/>
	<path fill="#42BDAE" d="M69.8,27.1c-0.6,0-1.1-0.2-1.5-0.5c-0.4-0.3-0.5-0.7-0.5-1.3c0-0.6,0.3-1.2,0.8-1.5s1.4-0.6,2.4-0.6
		l0.8-0.1c0.1,0,0.2-0.1,0.2-0.2v-0.3c0-0.4-0.1-0.7-0.4-0.9c-0.2-0.2-0.6-0.3-1-0.3c-0.7,0-1.2,0.3-1.6,0.9c0,0-0.1,0.1-0.1,0.1
		c0,0-0.1,0-0.1,0l-0.8-0.2c0,0-0.1,0-0.1-0.1c0,0,0-0.1,0-0.1c0.2-0.4,0.6-0.8,1-1s1-0.4,1.7-0.4c0.8,0,1.5,0.2,1.9,0.5
		c0.4,0.4,0.6,0.9,0.6,1.5v4.2c0,0.1,0,0.1,0,0.2s-0.1,0-0.1,0h-0.8c-0.1,0-0.2-0.1-0.2-0.2l0-0.5c0-0.1,0-0.1-0.1-0.1
		c0,0-0.1,0-0.1,0.1C71.2,26.8,70.6,27.1,69.8,27.1z M71.8,23.8l-0.6,0c-0.7,0-1.2,0.2-1.6,0.4c-0.4,0.2-0.6,0.5-0.6,0.9
		c0,0.3,0.1,0.6,0.3,0.7c0.2,0.2,0.5,0.3,0.9,0.3c0.4,0,0.8-0.1,1.2-0.4c0.3-0.3,0.5-0.6,0.5-0.8V24C72,23.9,71.9,23.8,71.8,23.8z"
		/>
	<path fill="#42BDAE" d="M74.5,26.8v-6c0-0.1,0.1-0.2,0.2-0.2h0.9c0.1,0,0.1,0.1,0.1,0.2v0.8c0,0,0,0.1,0,0.1c0,0,0.1,0,0.1,0
		c0.3-0.3,0.6-0.6,0.9-0.8c0.3-0.2,0.6-0.3,0.9-0.3c0.3,0,0.4,0.1,0.4,0.2v0.9c0,0.1,0,0.1-0.1,0.1c-0.2,0-0.4-0.1-0.6-0.1
		c-0.2,0-0.5,0.1-0.7,0.2s-0.5,0.3-0.6,0.5c-0.2,0.2-0.3,0.4-0.3,0.6v3.8c0,0.1-0.1,0.2-0.2,0.2h-0.9C74.6,27,74.5,26.9,74.5,26.8z"
		/>
	<path fill="#42BDAE" d="M26.1,37.3v-8.5c0-0.1,0-0.1,0-0.1c0,0,0.1,0,0.1,0h1.6c0.1,0,0.1,0,0.2,0c0,0,0.1,0.1,0.1,0.1l2.4,6.3
		c0,0.1,0.1,0.1,0.1,0.1c0,0,0.1,0,0.1-0.1l2.4-6.2c0-0.1,0.1-0.2,0.2-0.2h1.6c0.1,0,0.2,0.1,0.2,0.2v8.5c0,0.1,0,0.1,0,0.2
		c0,0-0.1,0-0.2,0h-1c-0.1,0-0.1,0-0.2,0c0,0,0-0.1,0-0.2v-6.6c0,0,0-0.1,0-0.1c0,0,0,0,0,0.1L31,37.3c0,0.1-0.1,0.2-0.2,0.2H30
		c-0.1,0-0.2-0.1-0.3-0.2l-2.4-6.5c0-0.1,0-0.1-0.1-0.1s0,0,0,0.1v6.5c0,0.1,0,0.1,0,0.1c0,0-0.1,0-0.1,0h-0.8
		C26.1,37.5,26.1,37.4,26.1,37.3z"/>
	<path fill="#42BDAE" d="M37.5,37.2c-0.5-0.3-0.8-0.7-1.1-1.2C36.1,35.6,36,35,36,34.4c0-0.6,0.1-1.2,0.4-1.7
		c0.3-0.5,0.6-0.9,1.1-1.2c0.5-0.3,1-0.4,1.6-0.4c0.6,0,1.1,0.1,1.6,0.4c0.5,0.3,0.8,0.7,1.1,1.2c0.3,0.5,0.4,1.1,0.4,1.7
		c0,0.6-0.1,1.2-0.4,1.7s-0.6,0.9-1.1,1.2c-0.5,0.3-1,0.4-1.6,0.4S37.9,37.5,37.5,37.2z M40.4,36.1c0.3-0.4,0.5-1,0.5-1.8
		s-0.2-1.4-0.5-1.8c-0.3-0.4-0.8-0.6-1.3-0.6c-0.6,0-1,0.2-1.3,0.6c-0.3,0.4-0.5,1-0.5,1.8c0,0.8,0.2,1.3,0.5,1.8
		c0.3,0.4,0.8,0.6,1.3,0.6C39.7,36.7,40.1,36.5,40.4,36.1z"/>
	<path fill="#42BDAE" d="M47.5,37.3v-0.5c0-0.1,0-0.1-0.1-0.1c0,0-0.1,0-0.1,0.1c-0.2,0.2-0.5,0.4-0.8,0.6c-0.3,0.2-0.6,0.2-1.1,0.2
		c-0.5,0-1-0.1-1.3-0.4s-0.7-0.6-0.9-1.1c-0.2-0.5-0.3-1.1-0.3-1.8c0-0.7,0.1-1.3,0.4-1.8c0.2-0.5,0.6-0.9,1-1.2s0.9-0.4,1.4-0.4
		c0.3,0,0.6,0.1,0.9,0.2c0.3,0.1,0.5,0.3,0.7,0.5c0,0,0.1,0.1,0.1,0.1c0,0,0.1,0,0.1-0.1v-2.8c0-0.1,0.1-0.2,0.2-0.2h1
		c0,0,0.1,0,0.1,0c0,0,0,0.1,0,0.1v8.5c0,0.1,0,0.1-0.1,0.2s-0.1,0-0.2,0h-0.8C47.6,37.5,47.5,37.4,47.5,37.3z M46.8,32.1
		c-0.2-0.1-0.5-0.2-0.8-0.2c-0.5,0-1,0.2-1.3,0.6s-0.5,1-0.5,1.8s0.2,1.4,0.5,1.8c0.3,0.4,0.8,0.6,1.3,0.6c0.3,0,0.5-0.1,0.8-0.2
		c0.2-0.1,0.4-0.3,0.6-0.5s0.2-0.4,0.2-0.6v-2.8C47.2,32.4,47,32.2,46.8,32.1z"/>
	<path fill="#42BDAE" d="M51.4,35.7c0.2,0.3,0.4,0.5,0.7,0.7c0.3,0.2,0.6,0.3,1,0.3c0.4,0,0.7-0.1,1-0.2c0.3-0.2,0.6-0.4,0.8-0.7
		c0,0,0.1,0,0.1,0c0,0,0.1,0,0.1,0l0.6,0.3c0,0,0.1,0.1,0.1,0.1c0,0,0,0.1,0,0.1c-0.3,0.5-0.7,0.9-1.2,1.1s-1,0.3-1.6,0.3
		c-0.6,0-1.1-0.1-1.6-0.4c-0.5-0.3-0.8-0.7-1.1-1.1c-0.3-0.5-0.4-1.1-0.4-1.7c0-0.7,0.1-1.3,0.4-1.8s0.6-0.9,1.1-1.2
		c0.5-0.3,1-0.4,1.6-0.4c0.6,0,1.1,0.1,1.6,0.4c0.4,0.3,0.8,0.6,1,1.1s0.4,1.1,0.4,1.8v0c0,0.1,0,0.1,0,0.2c0,0-0.1,0.1-0.1,0.1
		h-4.4c-0.1,0-0.1,0.1-0.1,0.2C51.1,35.1,51.2,35.5,51.4,35.7z M54.4,33.8c0.1,0,0.1,0,0.2,0c0,0,0-0.1,0-0.1c0-0.3-0.1-0.6-0.2-0.9
		c-0.1-0.3-0.3-0.5-0.6-0.7s-0.6-0.2-0.9-0.2c-0.4,0-0.7,0.1-0.9,0.3c-0.3,0.2-0.5,0.4-0.6,0.7c-0.1,0.3-0.2,0.6-0.2,1L54.4,33.8z"
		/>
	<path fill="#42BDAE" d="M58.1,37.3c0,0.1,0,0.1-0.1,0.2c0,0-0.1,0-0.2,0H57c-0.1,0-0.1,0-0.2,0c0,0,0-0.1,0-0.2l0-8.5
		c0-0.1,0.1-0.2,0.2-0.2H58c0.1,0,0.2,0.1,0.2,0.2V37.3z"/>
	<path fill="#42BDAE" d="M60.8,29.9c0,0.1,0,0.2-0.1,0.2c0,0-0.1,0.1-0.2,0.1h-0.9c-0.1,0-0.1,0-0.2-0.1c0,0,0-0.1,0-0.2v-1.1
		c0-0.1,0.1-0.2,0.2-0.2h1c0,0,0.1,0,0.1,0.1c0,0,0,0.1,0,0.1V29.9z M60.8,37.3c0,0.1,0,0.1-0.1,0.2s-0.1,0-0.2,0h-0.8
		c-0.1,0-0.1,0-0.2,0c0,0,0-0.1,0-0.2v-6c0-0.1,0-0.1,0-0.1c0,0,0.1,0,0.1,0h1c0.1,0,0.1,0.1,0.1,0.2V37.3z"/>
	<path fill="#42BDAE" d="M62.2,37.3v-6c0-0.1,0.1-0.2,0.2-0.2h0.9c0.1,0,0.1,0.1,0.1,0.2V32c0,0,0,0.1,0,0.1c0,0,0,0,0.1,0
		c0.4-0.3,0.8-0.6,1.1-0.7c0.3-0.2,0.7-0.2,1-0.2c0.6,0,1.1,0.2,1.4,0.5c0.3,0.3,0.5,0.8,0.5,1.3v4.4c0,0.1-0.1,0.2-0.2,0.2h-0.9
		c-0.1,0-0.2-0.1-0.2-0.2v-4.2c0-0.4-0.1-0.6-0.3-0.8c-0.2-0.2-0.5-0.3-0.8-0.3c-0.3,0-0.6,0.1-0.8,0.2c-0.3,0.1-0.6,0.4-0.9,0.7
		v4.4c0,0.1,0,0.1-0.1,0.2s-0.1,0-0.2,0h-0.9C62.2,37.5,62.2,37.4,62.2,37.3z"/>
	<path fill="#42BDAE" d="M75.1,31.2v0.5c0,0.2-0.1,0.2-0.2,0.2c-0.1,0-0.2,0-0.4,0c-0.1,0-0.2,0-0.3,0c-0.1,0-0.2,0.1-0.2,0.1
		c0,0,0,0.1,0,0.2c0,0,0,0.1,0.1,0.2c0.1,0.1,0.1,0.3,0.1,0.5c0,0.6-0.2,1-0.7,1.4s-1.1,0.5-2,0.5c-0.5,0-0.9,0-1.2,0.1
		c-0.2,0.1-0.4,0.2-0.4,0.3c0,0.1,0.1,0.2,0.2,0.3c0.2,0.1,0.4,0.1,0.8,0.1l1.6,0.1c0.7,0,1.3,0.2,1.6,0.5c0.4,0.3,0.5,0.7,0.5,1.2
		c0,0.6-0.3,1.1-0.8,1.5c-0.6,0.4-1.3,0.5-2.4,0.5c-1.1,0-1.9-0.1-2.4-0.4s-0.8-0.7-0.8-1.2c0-0.3,0.1-0.5,0.3-0.7s0.5-0.4,0.8-0.6
		c0.1,0,0.1-0.1,0-0.1c-0.4-0.2-0.6-0.4-0.6-0.8c0-0.2,0.1-0.4,0.3-0.5c0.2-0.2,0.4-0.3,0.8-0.4c0,0,0.1,0,0.1-0.1
		c0,0,0-0.1-0.1-0.1c-0.4-0.2-0.6-0.4-0.8-0.7c-0.2-0.3-0.3-0.6-0.3-0.9c0-0.6,0.2-1.1,0.7-1.5c0.5-0.4,1.2-0.5,2.1-0.5
		c0.8,0,1.4,0.2,1.8,0.5c0.1,0,0.1,0.1,0.1,0.1c0,0,0.1,0,0.1-0.1c0.2-0.2,0.3-0.3,0.6-0.4c0.2-0.1,0.4-0.2,0.6-0.2
		C75,31,75.1,31.1,75.1,31.2z M70.5,36.9c-0.2,0-0.3,0-0.5,0.1c-0.2,0.1-0.3,0.2-0.4,0.3c-0.1,0.1-0.2,0.3-0.2,0.5
		c0,0.7,0.8,1.1,2.3,1.1c0.6,0,1.1-0.1,1.4-0.3s0.5-0.5,0.5-0.8c0-0.5-0.4-0.8-1.1-0.9L70.5,36.9z M72.6,34c0.3-0.2,0.4-0.5,0.4-0.9
		c0-0.4-0.1-0.7-0.4-0.9c-0.3-0.2-0.6-0.3-1.1-0.3c-0.5,0-0.9,0.1-1.1,0.3C70.1,32.3,70,32.7,70,33c0,0.4,0.1,0.7,0.4,0.9
		s0.6,0.3,1.1,0.3C72,34.3,72.4,34.2,72.6,34z"/>
</g>
<path fill="none" stroke="#42BDAE" stroke-miterlimit="10" d="M1,1c0,1.5,1.2,2.8,2.8,2.8S6.5,2.5,6.5,1"/>
<path fill="none" stroke="#42BDAE" stroke-miterlimit="10" d="M8.7,5.9"/>
<path fill="none" stroke="#42BDAE" stroke-miterlimit="10" d="M8.7,1c0,1.5,1.2,2.8,2.8,2.8c1.5,0,2.8-1.2,2.8-2.8"/>
<path fill="none" stroke="#37B34A" stroke-width="0.6918" stroke-miterlimit="10" d="M16.5,5.9"/>
<path fill="none" stroke="#42BDAE" stroke-miterlimit="10" d="M16.5,1c0,1.5,1.2,2.8,2.8,2.8C20.7,3.8,22,2.5,22,1"/>
<path fill="none" stroke="#42BDAE" stroke-miterlimit="10" d="M1,16.7c0-1.5,1.2-2.8,2.8-2.8s2.8,1.2,2.8,2.8"/>
<path fill="none" stroke="#42BDAE" stroke-miterlimit="10" d="M8.7,16.7c0-1.5,1.2-2.8,2.8-2.8c1.5,0,2.8,1.2,2.8,2.8"/>
<path fill="none" stroke="#42BDAE" stroke-miterlimit="10" d="M16.5,16.7c0-1.5,1.2-2.8,2.8-2.8c1.5,0,2.8,1.2,2.8,2.8"/>
<circle fill="none" stroke="#42BDAE" stroke-miterlimit="10" cx="3.8" cy="8.9" r="2.8"/>
<circle fill="none" stroke="#42BDAE" stroke-miterlimit="10" cx="11.5" cy="8.9" r="2.8"/>
<circle fill="#42BDAE" stroke="#42BDAE" stroke-miterlimit="10" cx="19.2" cy="8.9" r="2.8"/>
<path fill="none" stroke="#979797" stroke-width="0.9915" stroke-miterlimit="10" d="M143.4,20.3"/>
<g>
	<g>
		<path fill="#CCCCCC" d="M145.6,16.6c-0.1-0.1-0.1-0.2-0.1-0.4V1.1c0-0.3,0.1-0.4,0.4-0.4h4.5c0.2,0,0.3,0,0.3,0.1
			c0.1,0,0.1,0.1,0.2,0.3l3.3,9c0,0.1,0.1,0.2,0.2,0.2s0.1-0.1,0.2-0.2l3.1-8.9c0.1-0.3,0.2-0.5,0.5-0.5h4.6c0.2,0,0.3,0.1,0.3,0.4
			v15.1c0,0.2,0,0.3-0.1,0.4c-0.1,0.1-0.2,0.1-0.4,0.1h-2.8c-0.2,0-0.3,0-0.4-0.1c-0.1-0.1-0.1-0.2-0.1-0.3V5.6c0-0.1,0-0.2-0.1-0.2
			s-0.1,0.1-0.1,0.2l-3.8,10.8c-0.1,0.2-0.2,0.3-0.5,0.3h-1.8c-0.3,0-0.4-0.1-0.5-0.3l-3.7-10.6c0-0.1-0.1-0.2-0.1-0.2
			c-0.1,0-0.1,0.1-0.1,0.2v10.6c0,0.2,0,0.3-0.1,0.3c-0.1,0.1-0.2,0.1-0.3,0.1h-2.2C145.8,16.7,145.7,16.7,145.6,16.6z"/>
		<path fill="#CCCCCC" d="M165.2,16.6c-0.1-0.1-0.1-0.2-0.1-0.4V1.1c0-0.3,0.1-0.4,0.4-0.4h4.5c0.2,0,0.3,0,0.3,0.1
			c0.1,0,0.1,0.1,0.2,0.3l3.3,9c0,0.1,0.1,0.2,0.2,0.2c0.1,0,0.1-0.1,0.2-0.2l3.1-8.9c0.1-0.3,0.2-0.5,0.5-0.5h4.6
			c0.2,0,0.3,0.1,0.3,0.4v15.1c0,0.2,0,0.3-0.1,0.4c-0.1,0.1-0.2,0.1-0.4,0.1h-2.8c-0.2,0-0.3,0-0.4-0.1c-0.1-0.1-0.1-0.2-0.1-0.3
			V5.6c0-0.1,0-0.2-0.1-0.2c0,0-0.1,0.1-0.1,0.2l-3.8,10.8c-0.1,0.2-0.2,0.3-0.5,0.3h-1.8c-0.3,0-0.4-0.1-0.5-0.3l-3.7-10.6
			c0-0.1-0.1-0.2-0.1-0.2c-0.1,0-0.1,0.1-0.1,0.2v10.6c0,0.2,0,0.3-0.1,0.3c-0.1,0.1-0.2,0.1-0.3,0.1h-2.2
			C165.3,16.7,165.2,16.7,165.2,16.6z"/>
	</g>
</g>
<path fill="none" stroke="#979797" stroke-width="0.9915" stroke-miterlimit="10" d="M143.5,20.3"/>
<g>
	<g>
		<path fill="#CCCCCC" d="M145.5,26.8v-8.5c0-0.1,0-0.1,0-0.1c0,0,0.1,0,0.1,0h1.6c0.1,0,0.1,0,0.2,0s0.1,0.1,0.1,0.1l2.4,6.3
			c0,0.1,0.1,0.1,0.1,0.1c0,0,0.1,0,0.1-0.1l2.4-6.2c0-0.1,0.1-0.2,0.2-0.2h1.6c0.1,0,0.2,0.1,0.2,0.2v8.5c0,0.1,0,0.1,0,0.2
			c0,0-0.1,0-0.2,0h-1c-0.1,0-0.1,0-0.2,0c0,0,0-0.1,0-0.2v-6.6c0,0,0-0.1,0-0.1c0,0,0,0,0,0.1l-2.5,6.6c0,0.1-0.1,0.2-0.2,0.2h-0.7
			c-0.1,0-0.2-0.1-0.3-0.2l-2.4-6.5c0-0.1,0-0.1-0.1-0.1c0,0,0,0,0,0.1v6.5c0,0.1,0,0.1,0,0.1c0,0-0.1,0-0.1,0h-0.8
			C145.6,27,145.5,26.9,145.5,26.8z"/>
		<path fill="#CCCCCC" d="M156.9,26.7c-0.5-0.3-0.8-0.7-1.1-1.2c-0.3-0.5-0.4-1.1-0.4-1.7c0-0.6,0.1-1.2,0.4-1.7
			c0.3-0.5,0.6-0.9,1.1-1.2c0.5-0.3,1-0.4,1.6-0.4c0.6,0,1.1,0.1,1.6,0.4c0.5,0.3,0.8,0.7,1.1,1.2c0.3,0.5,0.4,1.1,0.4,1.7
			c0,0.6-0.1,1.2-0.4,1.7s-0.6,0.9-1.1,1.2c-0.5,0.3-1,0.4-1.6,0.4C157.9,27.1,157.4,27,156.9,26.7z M159.8,25.6
			c0.3-0.4,0.5-1,0.5-1.8s-0.2-1.4-0.5-1.8c-0.3-0.4-0.8-0.6-1.3-0.6c-0.6,0-1,0.2-1.3,0.6s-0.5,1-0.5,1.8c0,0.8,0.2,1.3,0.5,1.8
			s0.8,0.6,1.3,0.6C159.1,26.2,159.5,26,159.8,25.6z"/>
		<path fill="#CCCCCC" d="M163.9,26.8c0,0.1,0,0.1-0.1,0.2c0,0-0.1,0-0.2,0h-0.8c-0.1,0-0.1,0-0.2,0c0,0,0-0.1,0-0.2l0-8.5
			c0-0.1,0.1-0.2,0.2-0.2h0.9c0.1,0,0.2,0.1,0.2,0.2V26.8z"/>
		<path fill="#CCCCCC" d="M166.6,25.2c0.2,0.3,0.4,0.5,0.7,0.7c0.3,0.2,0.6,0.3,1,0.3c0.4,0,0.7-0.1,1-0.2c0.3-0.2,0.6-0.4,0.8-0.7
			c0,0,0.1,0,0.1,0c0,0,0.1,0,0.1,0l0.6,0.3c0,0,0.1,0.1,0.1,0.1c0,0,0,0.1,0,0.1c-0.3,0.5-0.7,0.9-1.2,1.1c-0.4,0.2-1,0.3-1.6,0.3
			c-0.6,0-1.1-0.1-1.6-0.4c-0.5-0.3-0.8-0.7-1.1-1.1c-0.3-0.5-0.4-1.1-0.4-1.7c0-0.7,0.1-1.3,0.4-1.8s0.6-0.9,1.1-1.2
			c0.5-0.3,1-0.4,1.6-0.4c0.6,0,1.1,0.1,1.6,0.4c0.4,0.3,0.8,0.6,1,1.1s0.4,1.1,0.4,1.8v0c0,0.1,0,0.1,0,0.2c0,0-0.1,0.1-0.2,0.1
			h-4.4c-0.1,0-0.1,0.1-0.1,0.2C166.3,24.6,166.4,25,166.6,25.2z M169.6,23.3c0.1,0,0.1,0,0.2,0c0,0,0-0.1,0-0.1
			c0-0.3-0.1-0.6-0.2-0.9c-0.1-0.3-0.3-0.5-0.6-0.7s-0.6-0.2-0.9-0.2c-0.4,0-0.7,0.1-0.9,0.3c-0.3,0.2-0.5,0.4-0.6,0.7
			c-0.1,0.3-0.2,0.6-0.2,1L169.6,23.3z"/>
		<path fill="#CCCCCC" d="M176.3,21c0.4,0.3,0.8,0.7,1,1.2c0,0,0,0.1,0,0.1c0,0,0,0.1-0.1,0.1l-0.9,0.1h0c0,0-0.1,0-0.1-0.1
			c-0.2-0.3-0.4-0.6-0.6-0.7c-0.2-0.2-0.5-0.2-0.8-0.2c-0.6,0-1,0.2-1.3,0.6s-0.5,1-0.5,1.8c0,0.8,0.2,1.4,0.5,1.8
			c0.3,0.4,0.8,0.6,1.4,0.6c0.4,0,0.7-0.1,0.9-0.3c0.3-0.2,0.5-0.5,0.7-0.8c0,0,0-0.1,0.1-0.1c0,0,0.1,0,0.1,0l0.6,0.2
			c0.1,0,0.1,0.1,0,0.2c-0.2,0.5-0.6,0.9-1,1.2c-0.4,0.3-1,0.5-1.6,0.5c-0.6,0-1.1-0.1-1.6-0.4c-0.5-0.3-0.8-0.7-1.1-1.2
			s-0.4-1.1-0.4-1.7c0-0.6,0.1-1.2,0.4-1.7c0.3-0.5,0.6-0.9,1.1-1.2s1-0.4,1.6-0.4C175.4,20.5,175.9,20.7,176.3,21z"/>
		<path fill="#CCCCCC" d="M182.3,25.2v-4.4c0-0.1,0.1-0.2,0.2-0.2h0.9c0.1,0,0.2,0.1,0.2,0.2l0,6c0,0.1,0,0.2-0.1,0.2h-0.9
			c-0.1,0-0.1-0.1-0.1-0.2v-0.7c0-0.1,0-0.1-0.1,0c-0.4,0.4-0.8,0.6-1.1,0.8c-0.3,0.1-0.7,0.2-1.1,0.2c-0.6,0-1-0.2-1.4-0.5
			s-0.5-0.8-0.5-1.4v-4.4c0-0.1,0.1-0.2,0.2-0.2h0.9c0.1,0,0.2,0.1,0.2,0.2V25c0,0.4,0.1,0.6,0.3,0.8s0.5,0.3,0.8,0.3
			C181.1,26.2,181.7,25.8,182.3,25.2z"/>
		<path fill="#CCCCCC" d="M186.2,26.8c0,0.1,0,0.1-0.1,0.2s-0.1,0-0.2,0h-0.8c-0.1,0-0.1,0-0.2,0s0-0.1,0-0.2l0-8.5
			c0-0.1,0.1-0.2,0.2-0.2h0.9c0.1,0,0.2,0.1,0.2,0.2V26.8z"/>
		<path fill="#CCCCCC" d="M189.2,27.1c-0.6,0-1.1-0.2-1.5-0.5c-0.4-0.3-0.5-0.7-0.5-1.3c0-0.6,0.3-1.2,0.8-1.5s1.4-0.6,2.4-0.6
			l0.8-0.1c0.1,0,0.2-0.1,0.2-0.2v-0.3c0-0.4-0.1-0.7-0.4-0.9c-0.2-0.2-0.6-0.3-1-0.3c-0.7,0-1.2,0.3-1.6,0.9c0,0-0.1,0.1-0.1,0.1
			c0,0-0.1,0-0.1,0l-0.8-0.2c0,0-0.1,0-0.1-0.1c0,0,0-0.1,0-0.1c0.2-0.4,0.6-0.8,1-1c0.5-0.2,1-0.4,1.7-0.4c0.8,0,1.5,0.2,1.9,0.5
			c0.4,0.4,0.6,0.9,0.6,1.5v4.2c0,0.1,0,0.1,0,0.2c0,0-0.1,0-0.1,0h-0.8c-0.1,0-0.2-0.1-0.2-0.2l0-0.5c0-0.1,0-0.1-0.1-0.1
			c0,0-0.1,0-0.1,0.1C190.7,26.8,190,27.1,189.2,27.1z M191.3,23.8l-0.6,0c-0.7,0-1.2,0.2-1.6,0.4c-0.4,0.2-0.6,0.5-0.6,0.9
			c0,0.3,0.1,0.6,0.3,0.7c0.2,0.2,0.5,0.3,0.9,0.3c0.4,0,0.8-0.1,1.2-0.4c0.3-0.3,0.5-0.6,0.5-0.8V24
			C191.4,23.9,191.4,23.8,191.3,23.8z"/>
		<path fill="#CCCCCC" d="M193.9,26.8v-6c0-0.1,0.1-0.2,0.2-0.2h0.9c0.1,0,0.1,0.1,0.1,0.2v0.8c0,0,0,0.1,0,0.1c0,0,0.1,0,0.1,0
			c0.3-0.3,0.6-0.6,0.9-0.8s0.6-0.3,0.9-0.3c0.3,0,0.4,0.1,0.4,0.2v0.9c0,0.1,0,0.1-0.1,0.1c-0.2,0-0.4-0.1-0.6-0.1
			c-0.2,0-0.5,0.1-0.7,0.2s-0.5,0.3-0.6,0.5c-0.2,0.2-0.3,0.4-0.3,0.6v3.8c0,0.1-0.1,0.2-0.2,0.2h-0.9C194,27,193.9,26.9,193.9,26.8
			z"/>
		<path fill="#CCCCCC" d="M145.5,37.3v-8.5c0-0.1,0-0.1,0-0.1c0,0,0.1,0,0.1,0h1.6c0.1,0,0.1,0,0.2,0c0,0,0.1,0.1,0.1,0.1l2.4,6.3
			c0,0.1,0.1,0.1,0.1,0.1c0,0,0.1,0,0.1-0.1l2.4-6.2c0-0.1,0.1-0.2,0.2-0.2h1.6c0.1,0,0.2,0.1,0.2,0.2v8.5c0,0.1,0,0.1,0,0.2
			c0,0-0.1,0-0.2,0h-1c-0.1,0-0.1,0-0.2,0c0,0,0-0.1,0-0.2v-6.6c0,0,0-0.1,0-0.1s0,0,0,0.1l-2.5,6.6c0,0.1-0.1,0.2-0.2,0.2h-0.7
			c-0.1,0-0.2-0.1-0.3-0.2l-2.4-6.5c0-0.1,0-0.1-0.1-0.1s0,0,0,0.1v6.5c0,0.1,0,0.1,0,0.1c0,0-0.1,0-0.1,0h-0.8
			C145.6,37.5,145.5,37.4,145.5,37.3z"/>
		<path fill="#CCCCCC" d="M156.9,37.2c-0.5-0.3-0.8-0.7-1.1-1.2c-0.3-0.5-0.4-1.1-0.4-1.7c0-0.6,0.1-1.2,0.4-1.7
			c0.3-0.5,0.6-0.9,1.1-1.2c0.5-0.3,1-0.4,1.6-0.4c0.6,0,1.1,0.1,1.6,0.4c0.5,0.3,0.8,0.7,1.1,1.2c0.3,0.5,0.4,1.1,0.4,1.7
			c0,0.6-0.1,1.2-0.4,1.7s-0.6,0.9-1.1,1.2c-0.5,0.3-1,0.4-1.6,0.4C157.9,37.6,157.4,37.5,156.9,37.2z M159.8,36.1
			c0.3-0.4,0.5-1,0.5-1.8s-0.2-1.4-0.5-1.8c-0.3-0.4-0.8-0.6-1.3-0.6c-0.6,0-1,0.2-1.3,0.6s-0.5,1-0.5,1.8c0,0.8,0.2,1.3,0.5,1.8
			s0.8,0.6,1.3,0.6C159.1,36.7,159.5,36.5,159.8,36.1z"/>
		<path fill="#CCCCCC" d="M166.9,37.3v-0.5c0-0.1,0-0.1-0.1-0.1c0,0-0.1,0-0.1,0.1c-0.2,0.2-0.5,0.4-0.8,0.6
			c-0.3,0.2-0.6,0.2-1.1,0.2c-0.5,0-1-0.1-1.3-0.4s-0.7-0.6-0.9-1.1c-0.2-0.5-0.3-1.1-0.3-1.8c0-0.7,0.1-1.3,0.4-1.8
			c0.2-0.5,0.6-0.9,1-1.2s0.9-0.4,1.4-0.4c0.3,0,0.6,0.1,0.9,0.2c0.3,0.1,0.5,0.3,0.7,0.5c0,0,0.1,0.1,0.1,0.1c0,0,0.1,0,0.1-0.1
			v-2.8c0-0.1,0.1-0.2,0.2-0.2h1c0,0,0.1,0,0.1,0c0,0,0,0.1,0,0.1v8.5c0,0.1,0,0.1-0.1,0.2s-0.1,0-0.2,0h-0.8
			C167,37.5,166.9,37.4,166.9,37.3z M166.2,32.1c-0.2-0.1-0.5-0.2-0.8-0.2c-0.5,0-1,0.2-1.3,0.6s-0.5,1-0.5,1.8s0.2,1.4,0.5,1.8
			c0.3,0.4,0.8,0.6,1.3,0.6c0.3,0,0.5-0.1,0.8-0.2c0.2-0.1,0.4-0.3,0.6-0.5c0.1-0.2,0.2-0.4,0.2-0.6v-2.8
			C166.7,32.4,166.4,32.2,166.2,32.1z"/>
		<path fill="#CCCCCC" d="M170.8,35.7c0.2,0.3,0.4,0.5,0.7,0.7c0.3,0.2,0.6,0.3,1,0.3c0.4,0,0.7-0.1,1-0.2c0.3-0.2,0.6-0.4,0.8-0.7
			c0,0,0.1,0,0.1,0c0,0,0.1,0,0.1,0L175,36c0,0,0.1,0.1,0.1,0.1c0,0,0,0.1,0,0.1c-0.3,0.5-0.7,0.9-1.2,1.1c-0.4,0.2-1,0.3-1.6,0.3
			c-0.6,0-1.1-0.1-1.6-0.4c-0.5-0.3-0.8-0.7-1.1-1.1c-0.3-0.5-0.4-1.1-0.4-1.7c0-0.7,0.1-1.3,0.4-1.8s0.6-0.9,1.1-1.2
			c0.5-0.3,1-0.4,1.6-0.4c0.6,0,1.1,0.1,1.6,0.4c0.4,0.3,0.8,0.6,1,1.1s0.4,1.1,0.4,1.8v0c0,0.1,0,0.1,0,0.2c0,0-0.1,0.1-0.2,0.1
			h-4.4c-0.1,0-0.1,0.1-0.1,0.2C170.5,35.1,170.6,35.5,170.8,35.7z M173.8,33.8c0.1,0,0.1,0,0.2,0c0,0,0-0.1,0-0.1
			c0-0.3-0.1-0.6-0.2-0.9c-0.1-0.3-0.3-0.5-0.6-0.7s-0.6-0.2-0.9-0.2c-0.4,0-0.7,0.1-0.9,0.3c-0.3,0.2-0.5,0.4-0.6,0.7
			c-0.1,0.3-0.2,0.6-0.2,1L173.8,33.8z"/>
		<path fill="#CCCCCC" d="M177.5,37.3c0,0.1,0,0.1-0.1,0.2c0,0-0.1,0-0.2,0h-0.8c-0.1,0-0.1,0-0.2,0c0,0,0-0.1,0-0.2l0-8.5
			c0-0.1,0.1-0.2,0.2-0.2h0.9c0.1,0,0.2,0.1,0.2,0.2V37.3z"/>
		<path fill="#CCCCCC" d="M180.2,29.9c0,0.1,0,0.2-0.1,0.2c0,0-0.1,0.1-0.2,0.1h-0.9c-0.1,0-0.1,0-0.2-0.1c0,0,0-0.1,0-0.2v-1.1
			c0-0.1,0.1-0.2,0.2-0.2h1c0,0,0.1,0,0.1,0.1c0,0,0,0.1,0,0.1V29.9z M180.2,37.3c0,0.1,0,0.1-0.1,0.2c0,0-0.1,0-0.2,0h-0.8
			c-0.1,0-0.1,0-0.2,0c0,0,0-0.1,0-0.2v-6c0-0.1,0-0.1,0-0.1c0,0,0.1,0,0.1,0h1c0.1,0,0.1,0.1,0.1,0.2V37.3z"/>
		<path fill="#CCCCCC" d="M181.6,37.3v-6c0-0.1,0.1-0.2,0.2-0.2h0.9c0.1,0,0.1,0.1,0.1,0.2V32c0,0,0,0.1,0,0.1s0,0,0.1,0
			c0.4-0.3,0.8-0.6,1.1-0.7s0.7-0.2,1-0.2c0.6,0,1.1,0.2,1.4,0.5c0.3,0.3,0.5,0.8,0.5,1.3v4.4c0,0.1-0.1,0.2-0.2,0.2h-0.9
			c-0.1,0-0.2-0.1-0.2-0.2v-4.2c0-0.4-0.1-0.6-0.3-0.8c-0.2-0.2-0.5-0.3-0.8-0.3c-0.3,0-0.6,0.1-0.8,0.2c-0.3,0.1-0.6,0.4-0.9,0.7
			v4.4c0,0.1,0,0.1-0.1,0.2c0,0-0.1,0-0.2,0h-0.9C181.7,37.5,181.6,37.4,181.6,37.3z"/>
		<path fill="#CCCCCC" d="M194.5,31.2v0.5c0,0.2-0.1,0.2-0.2,0.2c-0.1,0-0.2,0-0.4,0c-0.1,0-0.2,0-0.3,0c-0.1,0-0.2,0.1-0.2,0.1
			c0,0,0,0.1,0,0.2c0,0,0,0.1,0.1,0.2c0.1,0.1,0.1,0.3,0.1,0.5c0,0.6-0.2,1-0.7,1.4s-1.1,0.5-2,0.5c-0.5,0-0.9,0-1.2,0.1
			c-0.2,0.1-0.4,0.2-0.4,0.3c0,0.1,0.1,0.2,0.2,0.3c0.2,0.1,0.4,0.1,0.8,0.1l1.6,0.1c0.7,0,1.3,0.2,1.6,0.5c0.4,0.3,0.5,0.7,0.5,1.2
			c0,0.6-0.3,1.1-0.8,1.5c-0.6,0.4-1.3,0.5-2.4,0.5c-1.1,0-1.9-0.1-2.4-0.4s-0.8-0.7-0.8-1.2c0-0.3,0.1-0.5,0.3-0.7
			c0.2-0.2,0.5-0.4,0.8-0.6c0.1,0,0.1-0.1,0-0.1c-0.4-0.2-0.6-0.4-0.6-0.8c0-0.2,0.1-0.4,0.3-0.5s0.4-0.3,0.8-0.4c0,0,0.1,0,0.1-0.1
			c0,0,0-0.1-0.1-0.1c-0.4-0.2-0.6-0.4-0.8-0.7s-0.3-0.6-0.3-0.9c0-0.6,0.2-1.1,0.7-1.5c0.5-0.4,1.2-0.5,2.1-0.5
			c0.8,0,1.4,0.2,1.8,0.5c0.1,0,0.1,0.1,0.1,0.1c0,0,0.1,0,0.1-0.1c0.2-0.2,0.3-0.3,0.6-0.4c0.2-0.1,0.4-0.2,0.6-0.2
			C194.5,31,194.5,31.1,194.5,31.2z M189.9,36.9c-0.2,0-0.3,0-0.5,0.1c-0.2,0.1-0.3,0.2-0.4,0.3c-0.1,0.1-0.2,0.3-0.2,0.5
			c0,0.7,0.8,1.1,2.3,1.1c0.6,0,1.1-0.1,1.4-0.3s0.5-0.5,0.5-0.8c0-0.5-0.4-0.8-1.1-0.9L189.9,36.9z M192.1,34
			c0.3-0.2,0.4-0.5,0.4-0.9c0-0.4-0.1-0.7-0.4-0.9c-0.3-0.2-0.6-0.3-1.1-0.3c-0.5,0-0.9,0.1-1.1,0.3c-0.3,0.2-0.4,0.5-0.4,0.9
			c0,0.4,0.1,0.7,0.4,0.9c0.3,0.2,0.6,0.3,1.1,0.3C191.4,34.3,191.8,34.2,192.1,34z"/>
	</g>
</g>
<path fill="none" stroke="#CCCCCC" stroke-miterlimit="10" d="M120.4,1c0,1.5,1.2,2.8,2.8,2.8S126,2.5,126,1"/>
<path fill="none" stroke="#CCCCCC" stroke-miterlimit="10" d="M128.2,5.9"/>
<path fill="none" stroke="#CCCCCC" stroke-miterlimit="10" d="M128.2,1c0,1.5,1.2,2.8,2.8,2.8c1.5,0,2.8-1.2,2.8-2.8"/>
<path fill="none" stroke="#37B34A" stroke-width="0.6918" stroke-miterlimit="10" d="M135.9,5.9"/>
<path fill="none" stroke="#CCCCCC" stroke-miterlimit="10" d="M135.9,1c0,1.5,1.2,2.8,2.8,2.8s2.8-1.2,2.8-2.8"/>
<path fill="none" stroke="#CCCCCC" stroke-miterlimit="10" d="M120.4,16.7c0-1.5,1.2-2.8,2.8-2.8s2.8,1.2,2.8,2.8"/>
<path fill="none" stroke="#CCCCCC" stroke-miterlimit="10" d="M128.2,16.7c0-1.5,1.2-2.8,2.8-2.8c1.5,0,2.8,1.2,2.8,2.8"/>
<path fill="none" stroke="#CCCCCC" stroke-miterlimit="10" d="M135.9,16.7c0-1.5,1.2-2.8,2.8-2.8s2.8,1.2,2.8,2.8"/>
<circle fill="none" stroke="#CCCCCC" stroke-miterlimit="10" cx="123.2" cy="8.9" r="2.8"/>
<circle fill="none" stroke="#CCCCCC" stroke-miterlimit="10" cx="130.9" cy="8.9" r="2.8"/>
<circle fill="#CCCCCC" stroke="#CCCCCC" stroke-miterlimit="10" cx="138.7" cy="8.9" r="2.8"/>
<g>
</g>
<g>
</g>
<g>
</g>
<g>
</g>
<g>
</g>
<g>
</g>
<g>
</g>
<g>
</g>
<g>
</g>
<g>
</g>
<g>
</g>
<g>
</g>
<g>
</g>
<g>
</g>
<g>
</g>
</svg>
