<?xml version="1.0" encoding="utf-8"?>
<!-- Generator: Adobe Illustrator 17.1.0, SVG Export Plug-In . SVG Version: 6.00 Build 0)  -->
<!DOCTYPE svg PUBLIC "-//W3C//DTD SVG 1.1//EN" "http://www.w3.org/Graphics/SVG/1.1/DTD/svg11.dtd">
<svg version="1.1" id="Layer_1" xmlns="http://www.w3.org/2000/svg" xmlns:xlink="http://www.w3.org/1999/xlink" x="0px" y="0px"
	 width="240px" height="40px" viewBox="0 0 240 40" enable-background="new 0 0 240 40" xml:space="preserve">
<path fill="none" stroke="#F6A330" stroke-width="0.9915" stroke-miterlimit="10" d="M23.9,20.3"/>
<g>
	<path fill="#979797" d="M39,16.3c0,0.1,0,0.2-0.1,0.3c-0.1,0.1-0.2,0.1-0.3,0.1h-3.2c-0.2,0-0.4-0.1-0.5-0.4l-2.3-6
		c0-0.1-0.1-0.2-0.2-0.2c-0.1,0-0.2-0.1-0.4-0.1h-2c-0.1,0-0.2,0-0.2,0.1s-0.1,0.1-0.1,0.2v6c0,0.2,0,0.3-0.1,0.4
		c-0.1,0.1-0.2,0.1-0.4,0.1h-2.7c-0.2,0-0.3,0-0.4-0.1c-0.1-0.1-0.1-0.2-0.1-0.3V1.1c0-0.3,0.1-0.4,0.3-0.4h6.7
		c1.9,0,3.4,0.4,4.5,1.1c1.1,0.8,1.6,1.8,1.6,3.3c0,1-0.3,1.9-0.8,2.7s-1.3,1.3-2.1,1.6c-0.1,0-0.1,0.2-0.1,0.3l2.8,6.4
		C39,16.2,39,16.3,39,16.3z M34.6,6.9c0.4-0.4,0.6-0.9,0.6-1.5c0-0.7-0.2-1.2-0.7-1.6c-0.4-0.4-1-0.5-1.8-0.5h-2.6
		c-0.2,0-0.3,0-0.3,0.1c-0.1,0.1-0.1,0.1-0.1,0.3v3.5c0,0.1,0,0.2,0.1,0.3c0,0.1,0.1,0.1,0.2,0.1h2.6C33.6,7.4,34.2,7.3,34.6,6.9z"
		/>
</g>
<path fill="none" stroke="#979797" stroke-width="0.9915" stroke-miterlimit="10" d="M24,20.3"/>
<g>
	<path fill="#979797" d="M32.7,26.8c0,0,0,0.1,0,0.1c0,0-0.1,0-0.1,0h-1.2c-0.1,0-0.2-0.1-0.2-0.2l-1.5-3.6c0-0.1-0.1-0.1-0.3-0.1
		h-1.8c-0.1,0-0.1,0-0.1,0.1v3.6c0,0.1,0,0.1-0.1,0.2s-0.1,0-0.2,0h-1c-0.1,0-0.1,0-0.2,0c0,0,0-0.1,0-0.1v-8.5c0-0.1,0-0.1,0-0.1
		c0,0,0.1,0,0.1,0h3.5c1,0,1.8,0.2,2.3,0.6c0.5,0.4,0.8,1,0.8,1.7c0,0.6-0.2,1.1-0.5,1.5c-0.3,0.4-0.7,0.7-1.2,0.8
		c0,0-0.1,0.1,0,0.1L32.7,26.8C32.7,26.8,32.7,26.8,32.7,26.8z M30.8,21.7c0.3-0.2,0.5-0.6,0.5-1.1c0-0.5-0.1-0.8-0.4-1.1
		c-0.3-0.2-0.7-0.4-1.3-0.4h-1.9c-0.1,0-0.1,0-0.2,0c0,0,0,0.1,0,0.1v2.6c0,0.1,0,0.2,0.1,0.2h1.8C30,22,30.5,21.9,30.8,21.7z"/>
	<path fill="#979797" d="M35.2,25.2c0.2,0.3,0.4,0.5,0.7,0.7c0.3,0.2,0.6,0.3,1,0.3c0.4,0,0.7-0.1,1-0.2c0.3-0.2,0.6-0.4,0.8-0.7
		c0,0,0.1,0,0.1,0c0,0,0.1,0,0.1,0l0.6,0.3c0,0,0.1,0.1,0.1,0.1c0,0,0,0.1,0,0.1c-0.3,0.5-0.7,0.9-1.2,1.1s-1,0.3-1.6,0.3
		c-0.6,0-1.1-0.1-1.6-0.4c-0.5-0.3-0.8-0.7-1.1-1.1c-0.3-0.5-0.4-1.1-0.4-1.7c0-0.7,0.1-1.3,0.4-1.8s0.6-0.9,1.1-1.2
		c0.5-0.3,1-0.4,1.6-0.4c0.6,0,1.1,0.1,1.6,0.4c0.4,0.3,0.8,0.6,1,1.1s0.4,1.1,0.4,1.8v0c0,0.1,0,0.1,0,0.2c0,0-0.1,0.1-0.1,0.1
		h-4.4c-0.1,0-0.1,0.1-0.1,0.2C35,24.6,35,25,35.2,25.2z M38.2,23.3c0.1,0,0.1,0,0.2,0c0,0,0-0.1,0-0.1c0-0.3-0.1-0.6-0.2-0.9
		c-0.1-0.3-0.3-0.5-0.6-0.7s-0.6-0.2-0.9-0.2c-0.4,0-0.7,0.1-0.9,0.3c-0.3,0.2-0.5,0.4-0.6,0.7C35,22.6,35,23,35,23.3L38.2,23.3z"/>
	<path fill="#979797" d="M42,26.8c0,0.1,0,0.1-0.1,0.2c0,0-0.1,0-0.2,0h-0.8c-0.1,0-0.1,0-0.2,0c0,0,0-0.1,0-0.2l0-8.5
		c0-0.1,0.1-0.2,0.2-0.2h0.9c0.1,0,0.2,0.1,0.2,0.2V26.8z"/>
	<path fill="#979797" d="M44.9,27.1c-0.6,0-1.1-0.2-1.5-0.5c-0.4-0.3-0.5-0.7-0.5-1.3c0-0.6,0.3-1.2,0.8-1.5s1.4-0.6,2.4-0.6
		l0.8-0.1c0.1,0,0.2-0.1,0.2-0.2v-0.3c0-0.4-0.1-0.7-0.4-0.9c-0.2-0.2-0.6-0.3-1-0.3c-0.7,0-1.2,0.3-1.6,0.9c0,0-0.1,0.1-0.1,0.1
		c0,0-0.1,0-0.1,0l-0.8-0.2c0,0-0.1,0-0.1-0.1c0,0,0-0.1,0-0.1c0.2-0.4,0.6-0.8,1-1s1-0.4,1.7-0.4c0.8,0,1.5,0.2,1.9,0.5
		c0.4,0.4,0.6,0.9,0.6,1.5v4.2c0,0.1,0,0.1,0,0.2s-0.1,0-0.1,0h-0.8c-0.1,0-0.2-0.1-0.2-0.2l0-0.5c0-0.1,0-0.1-0.1-0.1
		c0,0-0.1,0-0.1,0.1C46.4,26.8,45.7,27.1,44.9,27.1z M47,23.8l-0.6,0c-0.7,0-1.2,0.2-1.6,0.4c-0.4,0.2-0.6,0.5-0.6,0.9
		c0,0.3,0.1,0.6,0.3,0.7c0.2,0.2,0.5,0.3,0.9,0.3c0.4,0,0.8-0.1,1.2-0.4c0.3-0.3,0.5-0.6,0.5-0.8V24C47.2,23.9,47.1,23.8,47,23.8z"
		/>
	<path fill="#979797" d="M55.3,26.9c0,0.1-0.1,0.1-0.2,0.1H54c-0.1,0-0.2,0-0.3-0.1l-1.5-2.1c0-0.1-0.1-0.1-0.1-0.1
		c0,0-0.1,0-0.1,0.1l-1.6,2.1c0,0.1-0.1,0.1-0.3,0.1h-0.7c-0.1,0-0.2,0-0.2-0.1c0-0.1,0-0.1,0.1-0.2l2.1-2.7c0-0.1,0.1-0.1,0.1-0.1
		c0,0,0-0.1-0.1-0.2l-2-2.8c0,0,0-0.1,0-0.1c0-0.1,0.1-0.1,0.2-0.1h1c0.1,0,0.1,0,0.2,0s0.1,0.1,0.1,0.1l1.5,2c0,0,0.1,0.1,0.1,0.1
		c0,0,0.1,0,0.1-0.1l1.4-2c0,0,0.1-0.1,0.1-0.1s0.1,0,0.2,0h0.8c0.1,0,0.1,0,0.1,0.1c0,0,0,0.1,0,0.1l-2,2.6c0,0-0.1,0.1-0.1,0.1
		c0,0,0,0.1,0.1,0.2l2.2,2.9C55.2,26.8,55.3,26.9,55.3,26.9z"/>
	<path fill="#979797" d="M57.7,27.1c-0.6,0-1.1-0.2-1.5-0.5c-0.4-0.3-0.5-0.7-0.5-1.3c0-0.6,0.3-1.2,0.8-1.5s1.4-0.6,2.4-0.6
		l0.8-0.1c0.1,0,0.2-0.1,0.2-0.2v-0.3c0-0.4-0.1-0.7-0.4-0.9c-0.2-0.2-0.6-0.3-1-0.3c-0.7,0-1.2,0.3-1.6,0.9c0,0-0.1,0.1-0.1,0.1
		c0,0-0.1,0-0.1,0L56,22.1c0,0-0.1,0-0.1-0.1c0,0,0-0.1,0-0.1c0.2-0.4,0.6-0.8,1-1s1-0.4,1.7-0.4c0.8,0,1.5,0.2,1.9,0.5
		c0.4,0.4,0.6,0.9,0.6,1.5v4.2c0,0.1,0,0.1,0,0.2s-0.1,0-0.1,0h-0.8c-0.1,0-0.2-0.1-0.2-0.2l0-0.5c0-0.1,0-0.1-0.1-0.1
		c0,0-0.1,0-0.1,0.1C59.1,26.8,58.4,27.1,57.7,27.1z M59.7,23.8l-0.6,0c-0.7,0-1.2,0.2-1.6,0.4c-0.4,0.2-0.6,0.5-0.6,0.9
		c0,0.3,0.1,0.6,0.3,0.7c0.2,0.2,0.5,0.3,0.9,0.3c0.4,0,0.8-0.1,1.2-0.4c0.3-0.3,0.5-0.6,0.5-0.8V24C59.9,23.9,59.8,23.8,59.7,23.8z
		"/>
	<path fill="#979797" d="M64.4,21.6c-0.1,0-0.1,0-0.1,0.1v3.5c0,0.3,0.1,0.6,0.2,0.7c0.1,0.1,0.3,0.2,0.6,0.2h0.8
		c0.1,0,0.1,0,0.1,0.1v0.5c0,0.1-0.1,0.2-0.2,0.2c-0.3,0-0.7,0.1-1.2,0.1c-0.5,0-0.9-0.1-1.2-0.4S63,26,63,25.5v-3.8
		c0-0.1,0-0.1-0.1-0.1H62c-0.1,0-0.2,0-0.2-0.1v-0.6c0-0.1,0-0.1,0.1-0.1h1c0.1,0,0.1,0,0.1-0.1l0.1-1.9c0-0.1,0.1-0.2,0.1-0.2h0.8
		c0.1,0,0.2,0.1,0.2,0.2v1.9c0,0.1,0,0.1,0.1,0.1h1.4c0.1,0,0.1,0,0.1,0.1v0.6c0,0.1-0.1,0.1-0.2,0.1H64.4z"/>
	<path fill="#979797" d="M68.2,19.4c0,0.1,0,0.2-0.1,0.2c0,0-0.1,0.1-0.2,0.1h-0.9c-0.1,0-0.1,0-0.2-0.1c0,0,0-0.1,0-0.2v-1.1
		c0-0.1,0.1-0.2,0.2-0.2h1c0,0,0.1,0,0.1,0.1c0,0,0,0.1,0,0.1V19.4z M68.2,26.8c0,0.1,0,0.1-0.1,0.2s-0.1,0-0.2,0h-0.8
		c-0.1,0-0.1,0-0.2,0c0,0,0-0.1,0-0.2v-6c0-0.1,0-0.1,0-0.1c0,0,0.1,0,0.1,0h1c0.1,0,0.1,0.1,0.1,0.2V26.8z"/>
	<path fill="#979797" d="M70.7,26.7c-0.5-0.3-0.8-0.7-1.1-1.2c-0.3-0.5-0.4-1.1-0.4-1.7c0-0.6,0.1-1.2,0.4-1.7
		c0.3-0.5,0.6-0.9,1.1-1.2c0.5-0.3,1-0.4,1.6-0.4c0.6,0,1.1,0.1,1.6,0.4c0.5,0.3,0.8,0.7,1.1,1.2c0.3,0.5,0.4,1.1,0.4,1.7
		c0,0.6-0.1,1.2-0.4,1.7s-0.6,0.9-1.1,1.2c-0.5,0.3-1,0.4-1.6,0.4S71.2,27,70.7,26.7z M73.7,25.6c0.3-0.4,0.5-1,0.5-1.8
		S74,22.5,73.7,22c-0.3-0.4-0.8-0.6-1.3-0.6c-0.6,0-1,0.2-1.3,0.6c-0.3,0.4-0.5,1-0.5,1.8c0,0.8,0.2,1.3,0.5,1.8
		c0.3,0.4,0.8,0.6,1.3,0.6C72.9,26.2,73.3,26,73.7,25.6z"/>
	<path fill="#979797" d="M76.5,26.8v-6c0-0.1,0.1-0.2,0.2-0.2h0.9c0.1,0,0.1,0.1,0.1,0.2v0.7c0,0,0,0.1,0,0.1c0,0,0,0,0.1,0
		c0.4-0.3,0.8-0.6,1.1-0.7c0.3-0.2,0.7-0.2,1-0.2c0.6,0,1.1,0.2,1.4,0.5c0.3,0.3,0.5,0.8,0.5,1.3v4.4c0,0.1-0.1,0.2-0.2,0.2h-0.9
		c-0.1,0-0.2-0.1-0.2-0.2v-4.2c0-0.4-0.1-0.6-0.3-0.8c-0.2-0.2-0.5-0.3-0.8-0.3c-0.3,0-0.6,0.1-0.8,0.2c-0.3,0.1-0.6,0.4-0.9,0.7
		v4.4c0,0.1,0,0.1-0.1,0.2s-0.1,0-0.2,0h-0.9C76.5,27,76.5,26.9,76.5,26.8z"/>
</g>
<path fill="none" stroke="#979797" stroke-miterlimit="10" d="M1,1c0,1.5,1.2,2.8,2.8,2.8S6.5,2.5,6.5,1"/>
<path fill="none" stroke="#979797" stroke-miterlimit="10" d="M8.7,5.9"/>
<path fill="none" stroke="#979797" stroke-miterlimit="10" d="M8.7,1c0,1.5,1.2,2.8,2.8,2.8c1.5,0,2.8-1.2,2.8-2.8"/>
<path fill="none" stroke="#F6A330" stroke-width="0.6918" stroke-miterlimit="10" d="M16.5,5.9"/>
<path fill="none" stroke="#979797" stroke-miterlimit="10" d="M16.5,1c0,1.5,1.2,2.8,2.8,2.8C20.7,3.8,22,2.5,22,1"/>
<path fill="none" stroke="#979797" stroke-miterlimit="10" d="M1,16.7c0-1.5,1.2-2.8,2.8-2.8s2.8,1.2,2.8,2.8"/>
<path fill="none" stroke="#979797" stroke-miterlimit="10" d="M8.7,16.7c0-1.5,1.2-2.8,2.8-2.8c1.5,0,2.8,1.2,2.8,2.8"/>
<path fill="none" stroke="#979797" stroke-miterlimit="10" d="M16.5,16.7c0-1.5,1.2-2.8,2.8-2.8c1.5,0,2.8,1.2,2.8,2.8"/>
<circle fill="none" stroke="#979797" stroke-miterlimit="10" cx="3.8" cy="8.9" r="2.8"/>
<circle fill="none" stroke="#979797" stroke-miterlimit="10" cx="11.5" cy="8.9" r="2.8"/>
<circle fill="#979797" stroke="#979797" stroke-miterlimit="10" cx="19.2" cy="8.9" r="2.8"/>
<path fill="none" stroke="#979797" stroke-width="0.9915" stroke-miterlimit="10" d="M143.4,20.3"/>
<g>
	<g>
		<path fill="#CCCCCC" d="M158.5,16.3c0,0.1,0,0.2-0.1,0.3c-0.1,0.1-0.2,0.1-0.3,0.1h-3.2c-0.2,0-0.4-0.1-0.5-0.4l-2.3-6
			c0-0.1-0.1-0.2-0.2-0.2c-0.1,0-0.2-0.1-0.4-0.1h-2c-0.1,0-0.2,0-0.2,0.1s-0.1,0.1-0.1,0.2v6c0,0.2,0,0.3-0.1,0.4
			c-0.1,0.1-0.2,0.1-0.4,0.1h-2.7c-0.2,0-0.3,0-0.4-0.1c-0.1-0.1-0.1-0.2-0.1-0.3V1.1c0-0.3,0.1-0.4,0.3-0.4h6.7
			c1.9,0,3.4,0.4,4.5,1.1c1.1,0.8,1.6,1.8,1.6,3.3c0,1-0.3,1.9-0.8,2.7c-0.6,0.7-1.3,1.3-2.1,1.6c-0.1,0-0.1,0.2-0.1,0.3l2.8,6.4
			C158.5,16.2,158.5,16.3,158.5,16.3z M154.1,6.9c0.4-0.4,0.6-0.9,0.6-1.5c0-0.7-0.2-1.2-0.7-1.6c-0.4-0.4-1-0.5-1.8-0.5h-2.6
			c-0.2,0-0.3,0-0.3,0.1s-0.1,0.1-0.1,0.3v3.5c0,0.1,0,0.2,0.1,0.3c0,0.1,0.1,0.1,0.2,0.1h2.6C153,7.4,153.6,7.3,154.1,6.9z"/>
	</g>
</g>
<path fill="none" stroke="#979797" stroke-width="0.9915" stroke-miterlimit="10" d="M143.5,20.3"/>
<g>
	<g>
		<path fill="#CCCCCC" d="M152.2,26.8c0,0,0,0.1,0,0.1c0,0-0.1,0-0.1,0h-1.2c-0.1,0-0.2-0.1-0.2-0.2l-1.5-3.6c0-0.1-0.1-0.1-0.3-0.1
			h-1.8c-0.1,0-0.1,0-0.1,0.1v3.6c0,0.1,0,0.1-0.1,0.2s-0.1,0-0.2,0h-1c-0.1,0-0.1,0-0.2,0c0,0,0-0.1,0-0.1v-8.5c0-0.1,0-0.1,0-0.1
			c0,0,0.1,0,0.1,0h3.5c1,0,1.8,0.2,2.3,0.6c0.5,0.4,0.8,1,0.8,1.7c0,0.6-0.2,1.1-0.5,1.5c-0.3,0.4-0.7,0.7-1.2,0.8
			c0,0-0.1,0.1,0,0.1L152.2,26.8C152.1,26.8,152.2,26.8,152.2,26.8z M150.3,21.7c0.3-0.2,0.5-0.6,0.5-1.1c0-0.5-0.1-0.8-0.4-1.1
			c-0.3-0.2-0.7-0.4-1.3-0.4h-1.9c-0.1,0-0.1,0-0.2,0s0,0.1,0,0.1v2.6c0,0.1,0,0.2,0.1,0.2h1.8C149.5,22,150,21.9,150.3,21.7z"/>
		<path fill="#CCCCCC" d="M154.7,25.2c0.2,0.3,0.4,0.5,0.7,0.7c0.3,0.2,0.6,0.3,1,0.3c0.4,0,0.7-0.1,1-0.2c0.3-0.2,0.6-0.4,0.8-0.7
			c0,0,0.1,0,0.1,0c0,0,0.1,0,0.1,0l0.6,0.3c0,0,0.1,0.1,0.1,0.1c0,0,0,0.1,0,0.1c-0.3,0.5-0.7,0.9-1.2,1.1s-1,0.3-1.6,0.3
			c-0.6,0-1.1-0.1-1.6-0.4c-0.5-0.3-0.8-0.7-1.1-1.1c-0.3-0.5-0.4-1.1-0.4-1.7c0-0.7,0.1-1.3,0.4-1.8c0.3-0.5,0.6-0.9,1.1-1.2
			c0.5-0.3,1-0.4,1.6-0.4c0.6,0,1.1,0.1,1.6,0.4c0.4,0.3,0.8,0.6,1,1.1s0.4,1.1,0.4,1.8v0c0,0.1,0,0.1,0,0.2c0,0-0.1,0.1-0.2,0.1
			h-4.4c-0.1,0-0.1,0.1-0.1,0.2C154.4,24.6,154.5,25,154.7,25.2z M157.7,23.3c0.1,0,0.1,0,0.2,0c0,0,0-0.1,0-0.1
			c0-0.3-0.1-0.6-0.2-0.9c-0.1-0.3-0.3-0.5-0.6-0.7s-0.6-0.2-0.9-0.2c-0.4,0-0.7,0.1-0.9,0.3c-0.3,0.2-0.5,0.4-0.6,0.7
			c-0.1,0.3-0.2,0.6-0.2,1L157.7,23.3z"/>
		<path fill="#CCCCCC" d="M161.4,26.8c0,0.1,0,0.1-0.1,0.2s-0.1,0-0.2,0h-0.8c-0.1,0-0.1,0-0.2,0s0-0.1,0-0.2l0-8.5
			c0-0.1,0.1-0.2,0.2-0.2h0.9c0.1,0,0.2,0.1,0.2,0.2V26.8z"/>
		<path fill="#CCCCCC" d="M164.4,27.1c-0.6,0-1.1-0.2-1.5-0.5c-0.4-0.3-0.5-0.7-0.5-1.3c0-0.6,0.3-1.2,0.8-1.5
			c0.6-0.4,1.4-0.6,2.4-0.6l0.8-0.1c0.1,0,0.2-0.1,0.2-0.2v-0.3c0-0.4-0.1-0.7-0.4-0.9c-0.2-0.2-0.6-0.3-1-0.3
			c-0.7,0-1.2,0.3-1.6,0.9c0,0-0.1,0.1-0.1,0.1c0,0-0.1,0-0.1,0l-0.8-0.2c0,0-0.1,0-0.1-0.1c0,0,0-0.1,0-0.1c0.2-0.4,0.6-0.8,1-1
			s1-0.4,1.7-0.4c0.8,0,1.5,0.2,1.9,0.5c0.4,0.4,0.6,0.9,0.6,1.5v4.2c0,0.1,0,0.1,0,0.2s-0.1,0-0.1,0h-0.8c-0.1,0-0.2-0.1-0.2-0.2
			l0-0.5c0-0.1,0-0.1-0.1-0.1c0,0-0.1,0-0.1,0.1C165.8,26.8,165.2,27.1,164.4,27.1z M166.4,23.8l-0.6,0c-0.7,0-1.2,0.2-1.6,0.4
			c-0.4,0.2-0.6,0.5-0.6,0.9c0,0.3,0.1,0.6,0.3,0.7c0.2,0.2,0.5,0.3,0.9,0.3c0.4,0,0.8-0.1,1.2-0.4c0.3-0.3,0.5-0.6,0.5-0.8V24
			C166.6,23.9,166.5,23.8,166.4,23.8z"/>
		<path fill="#CCCCCC" d="M174.7,26.9c0,0.1-0.1,0.1-0.2,0.1h-1.1c-0.1,0-0.2,0-0.3-0.1l-1.5-2.1c0-0.1-0.1-0.1-0.1-0.1
			c0,0-0.1,0-0.1,0.1l-1.6,2.1c0,0.1-0.1,0.1-0.3,0.1h-0.7c-0.1,0-0.2,0-0.2-0.1c0-0.1,0-0.1,0.1-0.2l2.1-2.7c0-0.1,0.1-0.1,0.1-0.1
			c0,0,0-0.1-0.1-0.2l-2-2.8c0,0,0-0.1,0-0.1c0-0.1,0.1-0.1,0.2-0.1h1c0.1,0,0.1,0,0.2,0s0.1,0.1,0.1,0.1l1.5,2c0,0,0.1,0.1,0.1,0.1
			c0,0,0.1,0,0.1-0.1l1.4-2c0,0,0.1-0.1,0.1-0.1s0.1,0,0.2,0h0.8c0.1,0,0.1,0,0.1,0.1c0,0,0,0.1,0,0.1l-2,2.6c0,0-0.1,0.1-0.1,0.1
			c0,0,0,0.1,0.1,0.2l2.2,2.9C174.7,26.8,174.7,26.9,174.7,26.9z"/>
		<path fill="#CCCCCC" d="M177.1,27.1c-0.6,0-1.1-0.2-1.5-0.5c-0.4-0.3-0.5-0.7-0.5-1.3c0-0.6,0.3-1.2,0.8-1.5
			c0.6-0.4,1.4-0.6,2.4-0.6l0.8-0.1c0.1,0,0.2-0.1,0.2-0.2v-0.3c0-0.4-0.1-0.7-0.4-0.9c-0.2-0.2-0.6-0.3-1-0.3
			c-0.7,0-1.2,0.3-1.6,0.9c0,0,0,0.1-0.1,0.1c0,0-0.1,0-0.1,0l-0.8-0.2c0,0-0.1,0-0.1-0.1c0,0,0-0.1,0-0.1c0.2-0.4,0.6-0.8,1-1
			s1-0.4,1.7-0.4c0.8,0,1.5,0.2,1.9,0.5c0.4,0.4,0.6,0.9,0.6,1.5v4.2c0,0.1,0,0.1,0,0.2s-0.1,0-0.1,0h-0.8c-0.1,0-0.2-0.1-0.2-0.2
			l0-0.5c0-0.1,0-0.1-0.1-0.1c0,0-0.1,0-0.1,0.1C178.6,26.8,177.9,27.1,177.1,27.1z M179.2,23.8l-0.6,0c-0.7,0-1.2,0.2-1.6,0.4
			c-0.4,0.2-0.6,0.5-0.6,0.9c0,0.3,0.1,0.6,0.3,0.7c0.2,0.2,0.5,0.3,0.9,0.3c0.4,0,0.8-0.1,1.2-0.4c0.3-0.3,0.5-0.6,0.5-0.8V24
			C179.3,23.9,179.3,23.8,179.2,23.8z"/>
		<path fill="#CCCCCC" d="M183.8,21.6c-0.1,0-0.1,0-0.1,0.1v3.5c0,0.3,0.1,0.6,0.2,0.7c0.1,0.1,0.3,0.2,0.6,0.2h0.8
			c0.1,0,0.1,0,0.1,0.1v0.5c0,0.1-0.1,0.2-0.2,0.2c-0.3,0-0.7,0.1-1.2,0.1c-0.5,0-0.9-0.1-1.2-0.4s-0.4-0.6-0.4-1.1v-3.8
			c0-0.1,0-0.1-0.1-0.1h-0.9c-0.1,0-0.2,0-0.2-0.1v-0.6c0-0.1,0-0.1,0.1-0.1h1c0.1,0,0.1,0,0.1-0.1l0.1-1.9c0-0.1,0.1-0.2,0.1-0.2
			h0.8c0.1,0,0.2,0.1,0.2,0.2v1.9c0,0.1,0,0.1,0.1,0.1h1.4c0.1,0,0.1,0,0.1,0.1v0.6c0,0.1-0.1,0.1-0.2,0.1H183.8z"/>
		<path fill="#CCCCCC" d="M187.7,19.4c0,0.1,0,0.2-0.1,0.2c0,0-0.1,0.1-0.2,0.1h-0.9c-0.1,0-0.1,0-0.2-0.1c0,0,0-0.1,0-0.2v-1.1
			c0-0.1,0.1-0.2,0.2-0.2h1c0,0,0.1,0,0.1,0.1c0,0,0,0.1,0,0.1V19.4z M187.6,26.8c0,0.1,0,0.1-0.1,0.2c0,0-0.1,0-0.2,0h-0.8
			c-0.1,0-0.1,0-0.2,0c0,0,0-0.1,0-0.2v-6c0-0.1,0-0.1,0-0.1c0,0,0.1,0,0.1,0h1c0.1,0,0.1,0.1,0.1,0.2V26.8z"/>
		<path fill="#CCCCCC" d="M190.2,26.7c-0.5-0.3-0.8-0.7-1.1-1.2s-0.4-1.1-0.4-1.7c0-0.6,0.1-1.2,0.4-1.7s0.6-0.9,1.1-1.2
			c0.5-0.3,1-0.4,1.6-0.4c0.6,0,1.1,0.1,1.6,0.4c0.5,0.3,0.8,0.7,1.1,1.2s0.4,1.1,0.4,1.7c0,0.6-0.1,1.2-0.4,1.7s-0.6,0.9-1.1,1.2
			c-0.5,0.3-1,0.4-1.6,0.4C191.2,27.1,190.6,27,190.2,26.7z M193.1,25.6c0.3-0.4,0.5-1,0.5-1.8s-0.2-1.4-0.5-1.8s-0.8-0.6-1.3-0.6
			s-1,0.2-1.3,0.6c-0.3,0.4-0.5,1-0.5,1.8c0,0.8,0.2,1.3,0.5,1.8c0.3,0.4,0.8,0.6,1.3,0.6C192.3,26.2,192.8,26,193.1,25.6z"/>
		<path fill="#CCCCCC" d="M195.9,26.8v-6c0-0.1,0.1-0.2,0.2-0.2h0.9c0.1,0,0.1,0.1,0.1,0.2v0.7c0,0,0,0.1,0,0.1c0,0,0,0,0.1,0
			c0.4-0.3,0.8-0.6,1.1-0.7c0.3-0.2,0.7-0.2,1-0.2c0.6,0,1.1,0.2,1.4,0.5c0.3,0.3,0.5,0.8,0.5,1.3v4.4c0,0.1-0.1,0.2-0.2,0.2h-0.9
			c-0.1,0-0.2-0.1-0.2-0.2v-4.2c0-0.4-0.1-0.6-0.3-0.8c-0.2-0.2-0.5-0.3-0.8-0.3c-0.3,0-0.6,0.1-0.8,0.2c-0.3,0.1-0.6,0.4-0.9,0.7
			v4.4c0,0.1,0,0.1-0.1,0.2c0,0-0.1,0-0.2,0h-0.9C196,27,195.9,26.9,195.9,26.8z"/>
	</g>
</g>
<path fill="none" stroke="#CCCCCC" stroke-miterlimit="10" d="M120.4,1c0,1.5,1.2,2.8,2.8,2.8S126,2.5,126,1"/>
<path fill="none" stroke="#CCCCCC" stroke-miterlimit="10" d="M128.2,5.9"/>
<path fill="none" stroke="#CCCCCC" stroke-miterlimit="10" d="M128.2,1c0,1.5,1.2,2.8,2.8,2.8c1.5,0,2.8-1.2,2.8-2.8"/>
<path fill="none" stroke="#37B34A" stroke-width="0.6918" stroke-miterlimit="10" d="M135.9,5.9"/>
<path fill="none" stroke="#CCCCCC" stroke-miterlimit="10" d="M135.9,1c0,1.5,1.2,2.8,2.8,2.8s2.8-1.2,2.8-2.8"/>
<path fill="none" stroke="#CCCCCC" stroke-miterlimit="10" d="M120.4,16.7c0-1.5,1.2-2.8,2.8-2.8s2.8,1.2,2.8,2.8"/>
<path fill="none" stroke="#CCCCCC" stroke-miterlimit="10" d="M128.2,16.7c0-1.5,1.2-2.8,2.8-2.8c1.5,0,2.8,1.2,2.8,2.8"/>
<path fill="none" stroke="#CCCCCC" stroke-miterlimit="10" d="M135.9,16.7c0-1.5,1.2-2.8,2.8-2.8s2.8,1.2,2.8,2.8"/>
<circle fill="none" stroke="#CCCCCC" stroke-miterlimit="10" cx="123.2" cy="8.9" r="2.8"/>
<circle fill="none" stroke="#CCCCCC" stroke-miterlimit="10" cx="130.9" cy="8.9" r="2.8"/>
<circle fill="#CCCCCC" stroke="#CCCCCC" stroke-miterlimit="10" cx="138.7" cy="8.9" r="2.8"/>
<g>
</g>
<g>
</g>
<g>
</g>
<g>
</g>
<g>
</g>
<g>
</g>
<g>
</g>
<g>
</g>
<g>
</g>
<g>
</g>
<g>
</g>
<g>
</g>
<g>
</g>
<g>
</g>
<g>
</g>
</svg>
