<?xml version="1.0" encoding="utf-8"?>
<!-- Generator: Adobe Illustrator 17.1.0, SVG Export Plug-In . SVG Version: 6.00 Build 0)  -->
<!DOCTYPE svg PUBLIC "-//W3C//DTD SVG 1.1//EN" "http://www.w3.org/Graphics/SVG/1.1/DTD/svg11.dtd">
<svg version="1.1" id="Layer_1" xmlns="http://www.w3.org/2000/svg" xmlns:xlink="http://www.w3.org/1999/xlink" x="0px" y="0px"
	 width="240px" height="40px" viewBox="0 0 240 40" enable-background="new 0 0 240 40" xml:space="preserve">
<path fill="none" stroke="#F6A330" stroke-width="0.9915" stroke-miterlimit="10" d="M23.9,20.3"/>
<g>
	<path fill="#F6A330" d="M39,16.3c0,0.1,0,0.2-0.1,0.3c-0.1,0.1-0.2,0.1-0.3,0.1h-3.2c-0.2,0-0.4-0.1-0.5-0.4l-2.3-6
		c0-0.1-0.1-0.2-0.2-0.2c-0.1,0-0.2-0.1-0.4-0.1h-2c-0.1,0-0.2,0-0.2,0.1s-0.1,0.1-0.1,0.2v6c0,0.2,0,0.3-0.1,0.4
		c-0.1,0.1-0.2,0.1-0.4,0.1h-2.7c-0.2,0-0.3,0-0.4-0.1c-0.1-0.1-0.1-0.2-0.1-0.3V1.1c0-0.3,0.1-0.4,0.3-0.4h6.7
		c1.9,0,3.4,0.4,4.5,1.1c1.1,0.8,1.6,1.8,1.6,3.3c0,1-0.3,1.9-0.8,2.7s-1.3,1.3-2.1,1.6c-0.1,0-0.1,0.2-0.1,0.3l2.8,6.4
		C39,16.2,39,16.3,39,16.3z M34.6,6.9c0.4-0.4,0.6-0.9,0.6-1.5c0-0.7-0.2-1.2-0.7-1.6c-0.4-0.4-1-0.5-1.8-0.5h-2.6
		c-0.2,0-0.3,0-0.3,0.1c-0.1,0.1-0.1,0.1-0.1,0.3v3.5c0,0.1,0,0.2,0.1,0.3c0,0.1,0.1,0.1,0.2,0.1h2.6C33.6,7.4,34.2,7.3,34.6,6.9z"
		/>
	<path fill="#F6A330" d="M46.4,0.8c2.8,0.1,5,0.8,6.4,2.2c1.4,1.4,2.1,3.3,2.1,5.7c0,2.5-0.7,4.5-2.2,5.9s-3.6,2.1-6.4,2.1h-4.7
		c-0.2,0-0.3,0-0.4-0.1c-0.1-0.1-0.1-0.2-0.1-0.4v-15c0-0.2,0-0.3,0.1-0.3c0.1-0.1,0.2-0.1,0.4-0.1C44,0.7,45.6,0.7,46.4,0.8z
		 M44.9,3.7v10.1c0,0.1,0,0.2,0.1,0.2c0,0,0.1,0.1,0.2,0.1h0.4c1.8,0,3.1-0.4,4-1.3s1.3-2.2,1.3-4.2c0-1.8-0.4-3.1-1.1-3.9
		C49.1,4,48,3.5,46.4,3.4l-1.3,0C45,3.4,44.9,3.5,44.9,3.7z"/>
	<path fill="#F6A330" d="M66.6,1.1c0.9,0.4,1.7,1,2.3,1.7c0.6,0.7,1,1.5,1.1,2.4c0,0.1,0,0.2,0,0.3c0,0.1,0,0.1-0.1,0.2
		s-0.1,0.1-0.2,0.1L66.9,6c-0.1,0-0.2,0-0.2-0.1c0,0-0.1-0.1-0.1-0.3c-0.2-0.8-0.5-1.4-0.9-1.9c-0.5-0.5-1.1-0.7-1.9-0.7
		c-2.3,0-3.4,1.8-3.4,5.5c0,1.9,0.3,3.3,0.9,4.2c0.6,0.9,1.4,1.3,2.6,1.3c0.9,0,1.6-0.2,2.2-0.6c0.6-0.4,1.1-1.1,1.5-2.1
		c0-0.1,0.1-0.2,0.3-0.2c0.1,0,0.2,0,0.2,0l2.1,0.5c0.2,0.1,0.3,0.3,0.2,0.5c-0.1,0.6-0.5,1.3-1,2C68.7,15,68,15.6,67,16.1
		c-0.9,0.5-2.1,0.8-3.4,0.8c-1.5,0-2.8-0.3-3.9-1c-1.1-0.7-1.9-1.7-2.5-2.9c-0.6-1.3-0.9-2.7-0.9-4.4c0-1.6,0.3-3.1,0.9-4.3
		c0.6-1.2,1.4-2.2,2.5-2.8c1.1-0.7,2.4-1,3.9-1C64.7,0.5,65.7,0.7,66.6,1.1z"/>
</g>
<path fill="none" stroke="#979797" stroke-width="0.9915" stroke-miterlimit="10" d="M24,20.3"/>
<g>
	<path fill="#F6A330" d="M32.7,26.8c0,0,0,0.1,0,0.1c0,0-0.1,0-0.1,0h-1.2c-0.1,0-0.2-0.1-0.2-0.2l-1.5-3.6c0-0.1-0.1-0.1-0.3-0.1
		h-1.8c-0.1,0-0.1,0-0.1,0.1v3.6c0,0.1,0,0.1-0.1,0.2s-0.1,0-0.2,0h-1c-0.1,0-0.1,0-0.2,0c0,0,0-0.1,0-0.1v-8.5c0-0.1,0-0.1,0-0.1
		c0,0,0.1,0,0.1,0h3.5c1,0,1.8,0.2,2.3,0.6c0.5,0.4,0.8,1,0.8,1.7c0,0.6-0.2,1.1-0.5,1.5c-0.3,0.4-0.7,0.7-1.2,0.8
		c0,0-0.1,0.1,0,0.1L32.7,26.8C32.7,26.8,32.7,26.8,32.7,26.8z M30.8,21.7c0.3-0.2,0.5-0.6,0.5-1.1c0-0.5-0.1-0.8-0.4-1.1
		c-0.3-0.2-0.7-0.4-1.3-0.4h-1.9c-0.1,0-0.1,0-0.2,0c0,0,0,0.1,0,0.1v2.6c0,0.1,0,0.2,0.1,0.2h1.8C30,22,30.5,21.9,30.8,21.7z"/>
	<path fill="#F6A330" d="M35.2,25.2c0.2,0.3,0.4,0.5,0.7,0.7c0.3,0.2,0.6,0.3,1,0.3c0.4,0,0.7-0.1,1-0.2c0.3-0.2,0.6-0.4,0.8-0.7
		c0,0,0.1,0,0.1,0c0,0,0.1,0,0.1,0l0.6,0.3c0,0,0.1,0.1,0.1,0.1c0,0,0,0.1,0,0.1c-0.3,0.5-0.7,0.9-1.2,1.1s-1,0.3-1.6,0.3
		c-0.6,0-1.1-0.1-1.6-0.4c-0.5-0.3-0.8-0.7-1.1-1.1c-0.3-0.5-0.4-1.1-0.4-1.7c0-0.7,0.1-1.3,0.4-1.8s0.6-0.9,1.1-1.2
		c0.5-0.3,1-0.4,1.6-0.4c0.6,0,1.1,0.1,1.6,0.4c0.4,0.3,0.8,0.6,1,1.1s0.4,1.1,0.4,1.8v0c0,0.1,0,0.1,0,0.2c0,0-0.1,0.1-0.1,0.1
		h-4.4c-0.1,0-0.1,0.1-0.1,0.2C35,24.6,35,25,35.2,25.2z M38.2,23.3c0.1,0,0.1,0,0.2,0c0,0,0-0.1,0-0.1c0-0.3-0.1-0.6-0.2-0.9
		c-0.1-0.3-0.3-0.5-0.6-0.7s-0.6-0.2-0.9-0.2c-0.4,0-0.7,0.1-0.9,0.3c-0.3,0.2-0.5,0.4-0.6,0.7C35,22.6,35,23,35,23.3L38.2,23.3z"/>
	<path fill="#F6A330" d="M45,26.8v-0.5c0-0.1,0-0.1-0.1-0.1c0,0-0.1,0-0.1,0.1c-0.2,0.2-0.5,0.4-0.8,0.6c-0.3,0.2-0.6,0.2-1.1,0.2
		c-0.5,0-1-0.1-1.3-0.4s-0.7-0.6-0.9-1.1c-0.2-0.5-0.3-1.1-0.3-1.8c0-0.7,0.1-1.3,0.4-1.8c0.2-0.5,0.6-0.9,1-1.2s0.9-0.4,1.4-0.4
		c0.3,0,0.6,0.1,0.9,0.2c0.3,0.1,0.5,0.3,0.7,0.5c0,0,0.1,0.1,0.1,0.1c0,0,0.1,0,0.1-0.1v-2.8c0-0.1,0.1-0.2,0.2-0.2h1
		c0,0,0.1,0,0.1,0c0,0,0,0.1,0,0.1v8.5c0,0.1,0,0.1-0.1,0.2s-0.1,0-0.2,0h-0.8C45,27,45,26.9,45,26.8z M44.2,21.6
		c-0.2-0.1-0.5-0.2-0.8-0.2c-0.5,0-1,0.2-1.3,0.6s-0.5,1-0.5,1.8s0.2,1.4,0.5,1.8c0.3,0.4,0.8,0.6,1.3,0.6c0.3,0,0.5-0.1,0.8-0.2
		c0.2-0.1,0.4-0.3,0.6-0.5s0.2-0.4,0.2-0.6v-2.8C44.7,21.9,44.5,21.7,44.2,21.6z"/>
	<path fill="#F6A330" d="M48.9,19.4c0,0.1,0,0.2-0.1,0.2c0,0-0.1,0.1-0.2,0.1h-0.9c-0.1,0-0.1,0-0.2-0.1c0,0,0-0.1,0-0.2v-1.1
		c0-0.1,0.1-0.2,0.2-0.2h1c0,0,0.1,0,0.1,0.1c0,0,0,0.1,0,0.1V19.4z M48.9,26.8c0,0.1,0,0.1-0.1,0.2s-0.1,0-0.2,0h-0.8
		c-0.1,0-0.1,0-0.2,0c0,0,0-0.1,0-0.2v-6c0-0.1,0-0.1,0-0.1c0,0,0.1,0,0.1,0h1c0.1,0,0.1,0.1,0.1,0.2V26.8z"/>
	<path fill="#F6A330" d="M54.6,26.8v-0.5c0-0.1,0-0.1-0.1-0.1c0,0-0.1,0-0.1,0.1c-0.2,0.2-0.5,0.4-0.8,0.6c-0.3,0.2-0.6,0.2-1.1,0.2
		c-0.5,0-1-0.1-1.3-0.4s-0.7-0.6-0.9-1.1c-0.2-0.5-0.3-1.1-0.3-1.8c0-0.7,0.1-1.3,0.4-1.8c0.2-0.5,0.6-0.9,1-1.2s0.9-0.4,1.4-0.4
		c0.3,0,0.6,0.1,0.9,0.2c0.3,0.1,0.5,0.3,0.7,0.5c0,0,0.1,0.1,0.1,0.1c0,0,0.1,0,0.1-0.1v-2.8c0-0.1,0.1-0.2,0.2-0.2h1
		c0,0,0.1,0,0.1,0c0,0,0,0.1,0,0.1v8.5c0,0.1,0,0.1-0.1,0.2s-0.1,0-0.2,0h-0.8C54.6,27,54.6,26.9,54.6,26.8z M53.8,21.6
		c-0.2-0.1-0.5-0.2-0.8-0.2c-0.5,0-1,0.2-1.3,0.6s-0.5,1-0.5,1.8s0.2,1.4,0.5,1.8c0.3,0.4,0.8,0.6,1.3,0.6c0.3,0,0.5-0.1,0.8-0.2
		c0.2-0.1,0.4-0.3,0.6-0.5s0.2-0.4,0.2-0.6v-2.8C54.3,21.9,54.1,21.7,53.8,21.6z"/>
	<path fill="#F6A330" d="M61.2,25.2v-4.4c0-0.1,0.1-0.2,0.2-0.2h0.9c0.1,0,0.2,0.1,0.2,0.2l0,6c0,0.1,0,0.2-0.1,0.2h-0.9
		c-0.1,0-0.1-0.1-0.1-0.2v-0.7c0-0.1,0-0.1-0.1,0c-0.4,0.4-0.8,0.6-1.1,0.8c-0.3,0.1-0.7,0.2-1.1,0.2c-0.6,0-1-0.2-1.4-0.5
		s-0.5-0.8-0.5-1.4v-4.4c0-0.1,0.1-0.2,0.2-0.2h0.9c0.1,0,0.2,0.1,0.2,0.2V25c0,0.4,0.1,0.6,0.3,0.8c0.2,0.2,0.5,0.3,0.8,0.3
		C60,26.2,60.6,25.8,61.2,25.2z"/>
	<path fill="#F6A330" d="M65.5,27.1c-0.6,0-1.1-0.2-1.5-0.5c-0.4-0.3-0.5-0.7-0.5-1.3c0-0.6,0.3-1.2,0.8-1.5s1.4-0.6,2.4-0.6
		l0.8-0.1c0.1,0,0.2-0.1,0.2-0.2v-0.3c0-0.4-0.1-0.7-0.4-0.9c-0.2-0.2-0.6-0.3-1-0.3c-0.7,0-1.2,0.3-1.6,0.9c0,0-0.1,0.1-0.1,0.1
		c0,0-0.1,0-0.1,0l-0.8-0.2c0,0-0.1,0-0.1-0.1c0,0,0-0.1,0-0.1c0.2-0.4,0.6-0.8,1-1s1-0.4,1.7-0.4c0.8,0,1.5,0.2,1.9,0.5
		c0.4,0.4,0.6,0.9,0.6,1.5v4.2c0,0.1,0,0.1,0,0.2s-0.1,0-0.1,0h-0.8c-0.1,0-0.2-0.1-0.2-0.2l0-0.5c0-0.1,0-0.1-0.1-0.1
		c0,0-0.1,0-0.1,0.1C66.9,26.8,66.2,27.1,65.5,27.1z M67.5,23.8l-0.6,0c-0.7,0-1.2,0.2-1.6,0.4c-0.4,0.2-0.6,0.5-0.6,0.9
		c0,0.3,0.1,0.6,0.3,0.7c0.2,0.2,0.5,0.3,0.9,0.3c0.4,0,0.8-0.1,1.2-0.4c0.3-0.3,0.5-0.6,0.5-0.8V24C67.7,23.9,67.6,23.8,67.5,23.8z
		"/>
	<path fill="#F6A330" d="M71.5,26.8c0,0.1,0,0.1-0.1,0.2c0,0-0.1,0-0.2,0h-0.8c-0.1,0-0.1,0-0.2,0c0,0,0-0.1,0-0.2l0-8.5
		c0-0.1,0.1-0.2,0.2-0.2h0.9c0.1,0,0.2,0.1,0.2,0.2V26.8z"/>
	<path fill="#F6A330" d="M77.7,18.1c1.6,0,2.8,0.4,3.5,1.2c0.8,0.7,1.1,1.8,1.1,3.2c0,1.5-0.4,2.6-1.2,3.4c-0.8,0.8-2,1.1-3.6,1.1
		h-2c-0.1,0-0.2-0.1-0.2-0.2v-8.5c0-0.1,0-0.1,0-0.1c0,0,0.1,0,0.2,0C76.5,18.1,77.2,18.1,77.7,18.1z M76.8,19.3v6.5
		c0,0.1,0,0.1,0,0.1s0.1,0,0.1,0h0.4c0.8,0,1.5-0.1,2-0.3c0.5-0.2,0.9-0.6,1.1-1.1s0.4-1.2,0.4-2c0-0.8-0.1-1.5-0.3-1.9
		c-0.2-0.5-0.6-0.8-1-1c-0.5-0.2-1.1-0.3-1.8-0.4l-0.7,0C76.8,19.2,76.8,19.2,76.8,19.3z"/>
	<path fill="#F6A330" d="M84.9,19.4c0,0.1,0,0.2-0.1,0.2c0,0-0.1,0.1-0.2,0.1h-0.9c-0.1,0-0.1,0-0.2-0.1c0,0,0-0.1,0-0.2v-1.1
		c0-0.1,0.1-0.2,0.2-0.2h1c0,0,0.1,0,0.1,0.1c0,0,0,0.1,0,0.1V19.4z M84.9,26.8c0,0.1,0,0.1-0.1,0.2s-0.1,0-0.2,0h-0.8
		c-0.1,0-0.1,0-0.2,0c0,0,0-0.1,0-0.2v-6c0-0.1,0-0.1,0-0.1c0,0,0.1,0,0.1,0h1c0.1,0,0.1,0.1,0.1,0.2V26.8z"/>
	<path fill="#F6A330" d="M87.5,20.8v0.5c0,0.1,0,0.1,0,0.1c0,0,0.1,0,0.1-0.1c0.2-0.2,0.5-0.4,0.8-0.6c0.3-0.2,0.6-0.2,1.1-0.2
		c0.5,0,0.9,0.1,1.3,0.4c0.4,0.2,0.7,0.6,0.9,1.1c0.2,0.5,0.3,1.1,0.3,1.8c0,0.7-0.1,1.3-0.3,1.8c-0.2,0.5-0.5,0.9-0.9,1.2
		c-0.4,0.3-0.9,0.4-1.4,0.4c-0.6,0-1.2-0.2-1.7-0.6c-0.1-0.1-0.1-0.1-0.1-0.1c0,0-0.1,0.1-0.1,0.2v2.2c0,0.1,0,0.2-0.1,0.2h-1
		c-0.1,0-0.2-0.1-0.2-0.2v-8c0-0.1,0-0.1,0.1-0.2c0,0,0.1,0,0.2,0h0.8C87.5,20.6,87.5,20.7,87.5,20.8z M88.2,26.1
		c0.2,0.1,0.5,0.2,0.8,0.2c0.6,0,1-0.2,1.3-0.6c0.3-0.4,0.5-1.1,0.5-1.9c0-0.8-0.2-1.4-0.5-1.8c-0.3-0.4-0.7-0.6-1.3-0.6
		c-0.3,0-0.6,0.1-0.8,0.2s-0.4,0.3-0.6,0.5c-0.1,0.2-0.2,0.4-0.2,0.6v2.9C87.8,25.8,88,25.9,88.2,26.1z"/>
	<path fill="#F6A330" d="M94.3,26.7c-0.5-0.3-0.8-0.7-1.1-1.2c-0.3-0.5-0.4-1.1-0.4-1.7c0-0.6,0.1-1.2,0.4-1.7
		c0.3-0.5,0.6-0.9,1.1-1.2c0.5-0.3,1-0.4,1.6-0.4c0.6,0,1.1,0.1,1.6,0.4c0.5,0.3,0.8,0.7,1.1,1.2c0.3,0.5,0.4,1.1,0.4,1.7
		c0,0.6-0.1,1.2-0.4,1.7s-0.6,0.9-1.1,1.2c-0.5,0.3-1,0.4-1.6,0.4S94.8,27,94.3,26.7z M97.3,25.6c0.3-0.4,0.5-1,0.5-1.8
		s-0.2-1.4-0.5-1.8c-0.3-0.4-0.8-0.6-1.3-0.6c-0.6,0-1,0.2-1.3,0.6c-0.3,0.4-0.5,1-0.5,1.8c0,0.8,0.2,1.3,0.5,1.8
		c0.3,0.4,0.8,0.6,1.3,0.6C96.5,26.2,96.9,26,97.3,25.6z"/>
	<path fill="#F6A330" d="M101.3,26.8c0,0.1,0,0.1-0.1,0.2c0,0-0.1,0-0.2,0h-0.8c-0.1,0-0.1,0-0.2,0c0,0,0-0.1,0-0.2l0-8.5
		c0-0.1,0.1-0.2,0.2-0.2h0.9c0.1,0,0.2,0.1,0.2,0.2V26.8z"/>
	<path fill="#F6A330" d="M104,25.2c0.2,0.3,0.4,0.5,0.7,0.7c0.3,0.2,0.6,0.3,1,0.3c0.4,0,0.7-0.1,1-0.2c0.3-0.2,0.6-0.4,0.8-0.7
		c0,0,0.1,0,0.1,0c0,0,0.1,0,0.1,0l0.6,0.3c0,0,0.1,0.1,0.1,0.1c0,0,0,0.1,0,0.1c-0.3,0.5-0.7,0.9-1.2,1.1s-1,0.3-1.6,0.3
		c-0.6,0-1.1-0.1-1.6-0.4c-0.5-0.3-0.8-0.7-1.1-1.1c-0.3-0.5-0.4-1.1-0.4-1.7c0-0.7,0.1-1.3,0.4-1.8s0.6-0.9,1.1-1.2
		c0.5-0.3,1-0.4,1.6-0.4c0.6,0,1.1,0.1,1.6,0.4c0.4,0.3,0.8,0.6,1,1.1s0.4,1.1,0.4,1.8v0c0,0.1,0,0.1,0,0.2c0,0-0.1,0.1-0.1,0.1
		h-4.4c-0.1,0-0.1,0.1-0.1,0.2C103.7,24.6,103.8,25,104,25.2z M107,23.3c0.1,0,0.1,0,0.2,0c0,0,0-0.1,0-0.1c0-0.3-0.1-0.6-0.2-0.9
		c-0.1-0.3-0.3-0.5-0.6-0.7s-0.6-0.2-0.9-0.2c-0.4,0-0.7,0.1-0.9,0.3c-0.3,0.2-0.5,0.4-0.6,0.7c-0.1,0.3-0.2,0.6-0.2,1L107,23.3z"/>
	<path fill="#F6A330" d="M31.1,28.8c0.5,0.2,0.9,0.5,1.2,0.9c0.3,0.4,0.5,0.8,0.6,1.3c0,0,0,0.1,0,0.1c0,0,0,0.1,0,0.1
		c0,0,0,0-0.1,0l-1.1,0.1h0c0,0-0.1,0-0.1-0.1c-0.1-0.5-0.3-0.9-0.7-1.2c-0.3-0.3-0.8-0.4-1.3-0.4c-0.8,0-1.4,0.3-1.8,0.9
		c-0.4,0.6-0.6,1.5-0.6,2.6c0,1.2,0.2,2,0.6,2.6c0.4,0.6,1,0.9,1.8,0.9c0.5,0,1-0.1,1.4-0.4c0.4-0.3,0.7-0.7,0.9-1.3
		c0-0.1,0.1-0.1,0.2-0.1l0.9,0.2c0.1,0,0.1,0.1,0.1,0.2c-0.1,0.4-0.3,0.8-0.6,1.1s-0.7,0.7-1.2,0.9c-0.5,0.2-1,0.4-1.7,0.4
		c-0.8,0-1.5-0.2-2.1-0.6s-1-0.9-1.3-1.6S25.7,34,25.7,33c0-0.9,0.2-1.7,0.5-2.4c0.3-0.7,0.8-1.2,1.3-1.6c0.6-0.4,1.3-0.5,2.1-0.5
		C30.1,28.5,30.6,28.6,31.1,28.8z"/>
	<path fill="#F6A330" d="M35,37.2c-0.5-0.3-0.8-0.7-1.1-1.2c-0.3-0.5-0.4-1.1-0.4-1.7c0-0.6,0.1-1.2,0.4-1.7
		c0.3-0.5,0.6-0.9,1.1-1.2c0.5-0.3,1-0.4,1.6-0.4c0.6,0,1.1,0.1,1.6,0.4c0.5,0.3,0.8,0.7,1.1,1.2c0.3,0.5,0.4,1.1,0.4,1.7
		c0,0.6-0.1,1.2-0.4,1.7s-0.6,0.9-1.1,1.2c-0.5,0.3-1,0.4-1.6,0.4S35.4,37.5,35,37.2z M37.9,36.1c0.3-0.4,0.5-1,0.5-1.8
		s-0.2-1.4-0.5-1.8c-0.3-0.4-0.8-0.6-1.3-0.6c-0.6,0-1,0.2-1.3,0.6c-0.3,0.4-0.5,1-0.5,1.8c0,0.8,0.2,1.3,0.5,1.8
		c0.3,0.4,0.8,0.6,1.3,0.6C37.2,36.7,37.6,36.5,37.9,36.1z"/>
	<path fill="#F6A330" d="M44.5,35.7v-4.4c0-0.1,0.1-0.2,0.2-0.2h0.9c0.1,0,0.2,0.1,0.2,0.2l0,6c0,0.1,0,0.2-0.1,0.2h-0.9
		c-0.1,0-0.1-0.1-0.1-0.2v-0.7c0-0.1,0-0.1-0.1,0c-0.4,0.4-0.8,0.6-1.1,0.8c-0.3,0.1-0.7,0.2-1.1,0.2c-0.6,0-1-0.2-1.4-0.5
		s-0.5-0.8-0.5-1.4v-4.4c0-0.1,0.1-0.2,0.2-0.2h0.9c0.1,0,0.2,0.1,0.2,0.2v4.2c0,0.4,0.1,0.6,0.3,0.8c0.2,0.2,0.5,0.3,0.8,0.3
		C43.3,36.7,43.9,36.3,44.5,35.7z"/>
	<path fill="#F6A330" d="M48.2,31.3v0.5c0,0.1,0,0.1,0,0.1c0,0,0.1,0,0.1-0.1c0.2-0.2,0.5-0.4,0.8-0.6s0.6-0.2,1.1-0.2
		c0.5,0,0.9,0.1,1.3,0.4c0.4,0.2,0.7,0.6,0.9,1.1c0.2,0.5,0.3,1.1,0.3,1.8c0,0.7-0.1,1.3-0.3,1.8c-0.2,0.5-0.5,0.9-0.9,1.2
		c-0.4,0.3-0.9,0.4-1.4,0.4c-0.6,0-1.2-0.2-1.7-0.6c-0.1-0.1-0.1-0.1-0.1-0.1c0,0-0.1,0.1-0.1,0.2v2.2c0,0.1,0,0.2-0.1,0.2h-1
		c-0.1,0-0.2-0.1-0.2-0.2v-8c0-0.1,0-0.1,0.1-0.2c0,0,0.1,0,0.2,0H48C48.2,31.1,48.2,31.2,48.2,31.3z M48.9,36.6
		c0.2,0.1,0.5,0.2,0.8,0.2c0.6,0,1-0.2,1.3-0.6c0.3-0.4,0.5-1.1,0.5-1.9c0-0.8-0.2-1.4-0.5-1.8c-0.3-0.4-0.7-0.6-1.3-0.6
		c-0.3,0-0.6,0.1-0.8,0.2s-0.4,0.3-0.6,0.5c-0.1,0.2-0.2,0.4-0.2,0.6V36C48.5,36.3,48.7,36.4,48.9,36.6z"/>
	<path fill="#F6A330" d="M55.2,29.9c0,0.1,0,0.2-0.1,0.2c0,0-0.1,0.1-0.2,0.1H54c-0.1,0-0.1,0-0.2-0.1c0,0,0-0.1,0-0.2v-1.1
		c0-0.1,0.1-0.2,0.2-0.2h1c0,0,0.1,0,0.1,0.1c0,0,0,0.1,0,0.1V29.9z M55.1,37.3c0,0.1,0,0.1-0.1,0.2s-0.1,0-0.2,0h-0.8
		c-0.1,0-0.1,0-0.2,0c0,0,0-0.1,0-0.2v-6c0-0.1,0-0.1,0-0.1c0,0,0.1,0,0.1,0h1c0.1,0,0.1,0.1,0.1,0.2V37.3z"/>
	<path fill="#F6A330" d="M56.5,37.3v-6c0-0.1,0.1-0.2,0.2-0.2h0.9c0.1,0,0.1,0.1,0.1,0.2V32c0,0,0,0.1,0,0.1c0,0,0,0,0.1,0
		c0.4-0.3,0.8-0.6,1.1-0.7c0.3-0.2,0.7-0.2,1-0.2c0.6,0,1.1,0.2,1.4,0.5c0.3,0.3,0.5,0.8,0.5,1.3v4.4c0,0.1-0.1,0.2-0.2,0.2h-0.9
		c-0.1,0-0.2-0.1-0.2-0.2v-4.2c0-0.4-0.1-0.6-0.3-0.8c-0.2-0.2-0.5-0.3-0.8-0.3c-0.3,0-0.6,0.1-0.8,0.2c-0.3,0.1-0.6,0.4-0.9,0.7
		v4.4c0,0.1,0,0.1-0.1,0.2s-0.1,0-0.2,0h-0.9C56.6,37.5,56.5,37.4,56.5,37.3z"/>
	<path fill="#F6A330" d="M69.5,31.2v0.5c0,0.2-0.1,0.2-0.2,0.2c-0.1,0-0.2,0-0.4,0c-0.1,0-0.2,0-0.3,0c-0.1,0-0.2,0.1-0.2,0.1
		c0,0,0,0.1,0,0.2c0,0,0,0.1,0.1,0.2c0.1,0.1,0.1,0.3,0.1,0.5c0,0.6-0.2,1-0.7,1.4s-1.1,0.5-2,0.5c-0.5,0-0.9,0-1.2,0.1
		c-0.2,0.1-0.4,0.2-0.4,0.3c0,0.1,0.1,0.2,0.2,0.3c0.2,0.1,0.4,0.1,0.8,0.1l1.6,0.1c0.7,0,1.3,0.2,1.6,0.5c0.4,0.3,0.5,0.7,0.5,1.2
		c0,0.6-0.3,1.1-0.8,1.5c-0.6,0.4-1.3,0.5-2.4,0.5c-1.1,0-1.9-0.1-2.4-0.4s-0.8-0.7-0.8-1.2c0-0.3,0.1-0.5,0.3-0.7s0.5-0.4,0.8-0.6
		c0.1,0,0.1-0.1,0-0.1c-0.4-0.2-0.6-0.4-0.6-0.8c0-0.2,0.1-0.4,0.3-0.5c0.2-0.2,0.4-0.3,0.8-0.4c0,0,0.1,0,0.1-0.1
		c0,0,0-0.1-0.1-0.1c-0.4-0.2-0.6-0.4-0.8-0.7c-0.2-0.3-0.3-0.6-0.3-0.9c0-0.6,0.2-1.1,0.7-1.5c0.5-0.4,1.2-0.5,2.1-0.5
		c0.8,0,1.4,0.2,1.8,0.5c0.1,0,0.1,0.1,0.1,0.1c0,0,0.1,0,0.1-0.1c0.2-0.2,0.3-0.3,0.6-0.4c0.2-0.1,0.4-0.2,0.6-0.2
		C69.4,31,69.5,31.1,69.5,31.2z M64.9,36.9c-0.2,0-0.3,0-0.5,0.1c-0.2,0.1-0.3,0.2-0.4,0.3c-0.1,0.1-0.2,0.3-0.2,0.5
		c0,0.7,0.8,1.1,2.3,1.1c0.6,0,1.1-0.1,1.4-0.3s0.5-0.5,0.5-0.8c0-0.5-0.4-0.8-1.1-0.9L64.9,36.9z M67,34c0.3-0.2,0.4-0.5,0.4-0.9
		c0-0.4-0.1-0.7-0.4-0.9c-0.3-0.2-0.6-0.3-1.1-0.3c-0.5,0-0.9,0.1-1.1,0.3c-0.3,0.2-0.4,0.5-0.4,0.9c0,0.4,0.1,0.7,0.4,0.9
		s0.6,0.3,1.1,0.3C66.4,34.3,66.7,34.2,67,34z"/>
</g>
<path fill="none" stroke="#F6A330" stroke-miterlimit="10" d="M1,1c0,1.5,1.2,2.8,2.8,2.8S6.5,2.5,6.5,1"/>
<path fill="none" stroke="#F6A330" stroke-miterlimit="10" d="M8.7,5.9"/>
<path fill="none" stroke="#F6A330" stroke-miterlimit="10" d="M8.7,1c0,1.5,1.2,2.8,2.8,2.8c1.5,0,2.8-1.2,2.8-2.8"/>
<path fill="none" stroke="#F6A330" stroke-width="0.6918" stroke-miterlimit="10" d="M16.5,5.9"/>
<path fill="none" stroke="#F6A330" stroke-miterlimit="10" d="M16.5,1c0,1.5,1.2,2.8,2.8,2.8C20.7,3.8,22,2.5,22,1"/>
<path fill="none" stroke="#F6A330" stroke-miterlimit="10" d="M1,16.7c0-1.5,1.2-2.8,2.8-2.8s2.8,1.2,2.8,2.8"/>
<path fill="none" stroke="#F6A330" stroke-miterlimit="10" d="M8.7,16.7c0-1.5,1.2-2.8,2.8-2.8c1.5,0,2.8,1.2,2.8,2.8"/>
<path fill="none" stroke="#F6A330" stroke-miterlimit="10" d="M16.5,16.7c0-1.5,1.2-2.8,2.8-2.8c1.5,0,2.8,1.2,2.8,2.8"/>
<circle fill="none" stroke="#F6A330" stroke-miterlimit="10" cx="3.8" cy="8.9" r="2.8"/>
<circle fill="none" stroke="#F6A330" stroke-miterlimit="10" cx="11.5" cy="8.9" r="2.8"/>
<circle fill="#F6A330" stroke="#F6A330" stroke-miterlimit="10" cx="19.2" cy="8.9" r="2.8"/>
<path fill="none" stroke="#979797" stroke-width="0.9915" stroke-miterlimit="10" d="M143.4,20.3"/>
<g>
	<g>
		<path fill="#CCCCCC" d="M158.5,16.3c0,0.1,0,0.2-0.1,0.3c-0.1,0.1-0.2,0.1-0.3,0.1h-3.2c-0.2,0-0.4-0.1-0.5-0.4l-2.3-6
			c0-0.1-0.1-0.2-0.2-0.2c-0.1,0-0.2-0.1-0.4-0.1h-2c-0.1,0-0.2,0-0.2,0.1s-0.1,0.1-0.1,0.2v6c0,0.2,0,0.3-0.1,0.4
			c-0.1,0.1-0.2,0.1-0.4,0.1h-2.7c-0.2,0-0.3,0-0.4-0.1c-0.1-0.1-0.1-0.2-0.1-0.3V1.1c0-0.3,0.1-0.4,0.3-0.4h6.7
			c1.9,0,3.4,0.4,4.5,1.1c1.1,0.8,1.6,1.8,1.6,3.3c0,1-0.3,1.9-0.8,2.7c-0.6,0.7-1.3,1.3-2.1,1.6c-0.1,0-0.1,0.2-0.1,0.3l2.8,6.4
			C158.5,16.2,158.5,16.3,158.5,16.3z M154.1,6.9c0.4-0.4,0.6-0.9,0.6-1.5c0-0.7-0.2-1.2-0.7-1.6c-0.4-0.4-1-0.5-1.8-0.5h-2.6
			c-0.2,0-0.3,0-0.3,0.1s-0.1,0.1-0.1,0.3v3.5c0,0.1,0,0.2,0.1,0.3c0,0.1,0.1,0.1,0.2,0.1h2.6C153,7.4,153.6,7.3,154.1,6.9z"/>
		<path fill="#CCCCCC" d="M165.9,0.8c2.8,0.1,5,0.8,6.4,2.2c1.4,1.4,2.1,3.3,2.1,5.7c0,2.5-0.7,4.5-2.2,5.9s-3.6,2.1-6.4,2.1h-4.7
			c-0.2,0-0.3,0-0.4-0.1c-0.1-0.1-0.1-0.2-0.1-0.4v-15c0-0.2,0-0.3,0.1-0.3c0.1-0.1,0.2-0.1,0.4-0.1C163.4,0.7,165,0.7,165.9,0.8z
			 M164.4,3.7v10.1c0,0.1,0,0.2,0.1,0.2c0,0,0.1,0.1,0.2,0.1h0.4c1.8,0,3.1-0.4,4-1.3c0.9-0.8,1.3-2.2,1.3-4.2
			c0-1.8-0.4-3.1-1.1-3.9c-0.7-0.8-1.9-1.2-3.4-1.3l-1.3,0C164.4,3.4,164.4,3.5,164.4,3.7z"/>
		<path fill="#CCCCCC" d="M186.1,1.1c0.9,0.4,1.7,1,2.3,1.7c0.6,0.7,1,1.5,1.1,2.4c0,0.1,0,0.2,0,0.3c0,0.1,0,0.1-0.1,0.2
			s-0.1,0.1-0.2,0.1L186.3,6c-0.1,0-0.2,0-0.2-0.1S186,5.8,186,5.7c-0.2-0.8-0.5-1.4-0.9-1.9c-0.5-0.5-1.1-0.7-1.9-0.7
			c-2.3,0-3.4,1.8-3.4,5.5c0,1.9,0.3,3.3,0.9,4.2c0.6,0.9,1.4,1.3,2.6,1.3c0.9,0,1.6-0.2,2.2-0.6c0.6-0.4,1.1-1.1,1.5-2.1
			c0-0.1,0.1-0.2,0.3-0.2c0.1,0,0.2,0,0.2,0l2.1,0.5c0.2,0.1,0.3,0.3,0.2,0.5c-0.1,0.6-0.5,1.3-1,2c-0.5,0.7-1.3,1.3-2.2,1.9
			c-0.9,0.5-2.1,0.8-3.4,0.8c-1.5,0-2.8-0.3-3.9-1c-1.1-0.7-1.9-1.7-2.5-2.9s-0.9-2.7-0.9-4.4c0-1.6,0.3-3.1,0.9-4.3
			s1.4-2.2,2.5-2.8c1.1-0.7,2.4-1,3.9-1C184.1,0.5,185.1,0.7,186.1,1.1z"/>
	</g>
</g>
<path fill="none" stroke="#979797" stroke-width="0.9915" stroke-miterlimit="10" d="M143.5,20.3"/>
<g>
	<g>
		<path fill="#CCCCCC" d="M152.2,26.8c0,0,0,0.1,0,0.1c0,0-0.1,0-0.1,0h-1.2c-0.1,0-0.2-0.1-0.2-0.2l-1.5-3.6c0-0.1-0.1-0.1-0.3-0.1
			h-1.8c-0.1,0-0.1,0-0.1,0.1v3.6c0,0.1,0,0.1-0.1,0.2s-0.1,0-0.2,0h-1c-0.1,0-0.1,0-0.2,0c0,0,0-0.1,0-0.1v-8.5c0-0.1,0-0.1,0-0.1
			c0,0,0.1,0,0.1,0h3.5c1,0,1.8,0.2,2.3,0.6c0.5,0.4,0.8,1,0.8,1.7c0,0.6-0.2,1.1-0.5,1.5c-0.3,0.4-0.7,0.7-1.2,0.8
			c0,0-0.1,0.1,0,0.1L152.2,26.8C152.1,26.8,152.2,26.8,152.2,26.8z M150.3,21.7c0.3-0.2,0.5-0.6,0.5-1.1c0-0.5-0.1-0.8-0.4-1.1
			c-0.3-0.2-0.7-0.4-1.3-0.4h-1.9c-0.1,0-0.1,0-0.2,0s0,0.1,0,0.1v2.6c0,0.1,0,0.2,0.1,0.2h1.8C149.5,22,150,21.9,150.3,21.7z"/>
		<path fill="#CCCCCC" d="M154.7,25.2c0.2,0.3,0.4,0.5,0.7,0.7c0.3,0.2,0.6,0.3,1,0.3c0.4,0,0.7-0.1,1-0.2c0.3-0.2,0.6-0.4,0.8-0.7
			c0,0,0.1,0,0.1,0c0,0,0.1,0,0.1,0l0.6,0.3c0,0,0.1,0.1,0.1,0.1c0,0,0,0.1,0,0.1c-0.3,0.5-0.7,0.9-1.2,1.1s-1,0.3-1.6,0.3
			c-0.6,0-1.1-0.1-1.6-0.4c-0.5-0.3-0.8-0.7-1.1-1.1c-0.3-0.5-0.4-1.1-0.4-1.7c0-0.7,0.1-1.3,0.4-1.8c0.3-0.5,0.6-0.9,1.1-1.2
			c0.5-0.3,1-0.4,1.6-0.4c0.6,0,1.1,0.1,1.6,0.4c0.4,0.3,0.8,0.6,1,1.1s0.4,1.1,0.4,1.8v0c0,0.1,0,0.1,0,0.2c0,0-0.1,0.1-0.2,0.1
			h-4.4c-0.1,0-0.1,0.1-0.1,0.2C154.4,24.6,154.5,25,154.7,25.2z M157.7,23.3c0.1,0,0.1,0,0.2,0c0,0,0-0.1,0-0.1
			c0-0.3-0.1-0.6-0.2-0.9c-0.1-0.3-0.3-0.5-0.6-0.7s-0.6-0.2-0.9-0.2c-0.4,0-0.7,0.1-0.9,0.3c-0.3,0.2-0.5,0.4-0.6,0.7
			c-0.1,0.3-0.2,0.6-0.2,1L157.7,23.3z"/>
		<path fill="#CCCCCC" d="M164.4,26.8v-0.5c0-0.1,0-0.1-0.1-0.1c0,0-0.1,0-0.1,0.1c-0.2,0.2-0.5,0.4-0.8,0.6
			c-0.3,0.2-0.6,0.2-1.1,0.2c-0.5,0-1-0.1-1.3-0.4c-0.4-0.2-0.7-0.6-0.9-1.1c-0.2-0.5-0.3-1.1-0.3-1.8c0-0.7,0.1-1.3,0.4-1.8
			c0.2-0.5,0.6-0.9,1-1.2s0.9-0.4,1.4-0.4c0.3,0,0.6,0.1,0.9,0.2c0.3,0.1,0.5,0.3,0.7,0.5c0,0,0.1,0.1,0.1,0.1c0,0,0.1,0,0.1-0.1
			v-2.8c0-0.1,0.1-0.2,0.2-0.2h1c0,0,0.1,0,0.1,0c0,0,0,0.1,0,0.1v8.5c0,0.1,0,0.1-0.1,0.2c0,0-0.1,0-0.2,0h-0.8
			C164.5,27,164.4,26.9,164.4,26.8z M163.7,21.6c-0.2-0.1-0.5-0.2-0.8-0.2c-0.5,0-1,0.2-1.3,0.6s-0.5,1-0.5,1.8s0.2,1.4,0.5,1.8
			c0.3,0.4,0.8,0.6,1.3,0.6c0.3,0,0.5-0.1,0.8-0.2c0.2-0.1,0.4-0.3,0.6-0.5s0.2-0.4,0.2-0.6v-2.8C164.1,21.9,163.9,21.7,163.7,21.6z
			"/>
		<path fill="#CCCCCC" d="M168.3,19.4c0,0.1,0,0.2-0.1,0.2c0,0-0.1,0.1-0.2,0.1h-0.9c-0.1,0-0.1,0-0.2-0.1c0,0,0-0.1,0-0.2v-1.1
			c0-0.1,0.1-0.2,0.2-0.2h1c0,0,0.1,0,0.1,0.1c0,0,0,0.1,0,0.1V19.4z M168.3,26.8c0,0.1,0,0.1-0.1,0.2c0,0-0.1,0-0.2,0h-0.8
			c-0.1,0-0.1,0-0.2,0c0,0,0-0.1,0-0.2v-6c0-0.1,0-0.1,0-0.1c0,0,0.1,0,0.1,0h1c0.1,0,0.1,0.1,0.1,0.2V26.8z"/>
		<path fill="#CCCCCC" d="M174,26.8v-0.5c0-0.1,0-0.1-0.1-0.1c0,0-0.1,0-0.1,0.1c-0.2,0.2-0.5,0.4-0.8,0.6c-0.3,0.2-0.6,0.2-1.1,0.2
			c-0.5,0-1-0.1-1.3-0.4c-0.4-0.2-0.7-0.6-0.9-1.1c-0.2-0.5-0.3-1.1-0.3-1.8c0-0.7,0.1-1.3,0.4-1.8c0.2-0.5,0.6-0.9,1-1.2
			s0.9-0.4,1.4-0.4c0.3,0,0.6,0.1,0.9,0.2c0.3,0.1,0.5,0.3,0.7,0.5c0,0,0.1,0.1,0.1,0.1c0,0,0.1,0,0.1-0.1v-2.8
			c0-0.1,0.1-0.2,0.2-0.2h1c0,0,0.1,0,0.1,0c0,0,0,0.1,0,0.1v8.5c0,0.1,0,0.1-0.1,0.2c0,0-0.1,0-0.2,0h-0.8
			C174.1,27,174,26.9,174,26.8z M173.3,21.6c-0.2-0.1-0.5-0.2-0.8-0.2c-0.5,0-1,0.2-1.3,0.6s-0.5,1-0.5,1.8s0.2,1.4,0.5,1.8
			c0.3,0.4,0.8,0.6,1.3,0.6c0.3,0,0.5-0.1,0.8-0.2c0.2-0.1,0.4-0.3,0.6-0.5s0.2-0.4,0.2-0.6v-2.8C173.7,21.9,173.5,21.7,173.3,21.6z
			"/>
		<path fill="#CCCCCC" d="M180.7,25.2v-4.4c0-0.1,0.1-0.2,0.2-0.2h0.9c0.1,0,0.2,0.1,0.2,0.2l0,6c0,0.1,0,0.2-0.1,0.2h-0.9
			c-0.1,0-0.1-0.1-0.1-0.2v-0.7c0-0.1,0-0.1-0.1,0c-0.4,0.4-0.8,0.6-1.1,0.8c-0.3,0.1-0.7,0.2-1.1,0.2c-0.6,0-1-0.2-1.4-0.5
			c-0.4-0.3-0.5-0.8-0.5-1.4v-4.4c0-0.1,0.1-0.2,0.2-0.2h0.9c0.1,0,0.2,0.1,0.2,0.2V25c0,0.4,0.1,0.6,0.3,0.8
			c0.2,0.2,0.5,0.3,0.8,0.3C179.5,26.2,180.1,25.8,180.7,25.2z"/>
		<path fill="#CCCCCC" d="M184.9,27.1c-0.6,0-1.1-0.2-1.5-0.5c-0.4-0.3-0.5-0.7-0.5-1.3c0-0.6,0.3-1.2,0.8-1.5s1.4-0.6,2.4-0.6
			l0.8-0.1c0.1,0,0.2-0.1,0.2-0.2v-0.3c0-0.4-0.1-0.7-0.4-0.9c-0.2-0.2-0.6-0.3-1-0.3c-0.7,0-1.2,0.3-1.6,0.9c0,0,0,0.1-0.1,0.1
			c0,0-0.1,0-0.1,0l-0.8-0.2c0,0-0.1,0-0.1-0.1c0,0,0-0.1,0-0.1c0.2-0.4,0.6-0.8,1-1c0.5-0.2,1-0.4,1.7-0.4c0.8,0,1.5,0.2,1.9,0.5
			c0.4,0.4,0.6,0.9,0.6,1.5v4.2c0,0.1,0,0.1,0,0.2c0,0-0.1,0-0.1,0h-0.8c-0.1,0-0.2-0.1-0.2-0.2l0-0.5c0-0.1,0-0.1-0.1-0.1
			c0,0-0.1,0-0.1,0.1C186.4,26.8,185.7,27.1,184.9,27.1z M187,23.8l-0.6,0c-0.7,0-1.2,0.2-1.6,0.4c-0.4,0.2-0.6,0.5-0.6,0.9
			c0,0.3,0.1,0.6,0.3,0.7s0.5,0.3,0.9,0.3c0.4,0,0.8-0.1,1.2-0.4c0.3-0.3,0.5-0.6,0.5-0.8V24C187.1,23.9,187.1,23.8,187,23.8z"/>
		<path fill="#CCCCCC" d="M190.9,26.8c0,0.1,0,0.1-0.1,0.2c0,0-0.1,0-0.2,0h-0.8c-0.1,0-0.1,0-0.2,0c0,0,0-0.1,0-0.2l0-8.5
			c0-0.1,0.1-0.2,0.2-0.2h0.9c0.1,0,0.2,0.1,0.2,0.2V26.8z"/>
		<path fill="#CCCCCC" d="M197.1,18.1c1.6,0,2.8,0.4,3.5,1.2c0.8,0.7,1.1,1.8,1.1,3.2c0,1.5-0.4,2.6-1.2,3.4c-0.8,0.8-2,1.1-3.6,1.1
			h-2c-0.1,0-0.2-0.1-0.2-0.2v-8.5c0-0.1,0-0.1,0-0.1c0,0,0.1,0,0.2,0C195.9,18.1,196.7,18.1,197.1,18.1z M196.2,19.3v6.5
			c0,0.1,0,0.1,0,0.1c0,0,0.1,0,0.1,0h0.4c0.8,0,1.5-0.1,2-0.3c0.5-0.2,0.9-0.6,1.1-1.1s0.4-1.2,0.4-2c0-0.8-0.1-1.5-0.3-1.9
			c-0.2-0.5-0.6-0.8-1-1c-0.5-0.2-1.1-0.3-1.8-0.4l-0.7,0C196.3,19.2,196.2,19.2,196.2,19.3z"/>
		<path fill="#CCCCCC" d="M204.3,19.4c0,0.1,0,0.2-0.1,0.2c0,0-0.1,0.1-0.2,0.1h-0.9c-0.1,0-0.1,0-0.2-0.1c0,0,0-0.1,0-0.2v-1.1
			c0-0.1,0.1-0.2,0.2-0.2h1c0,0,0.1,0,0.1,0.1c0,0,0,0.1,0,0.1V19.4z M204.3,26.8c0,0.1,0,0.1-0.1,0.2c0,0-0.1,0-0.2,0h-0.8
			c-0.1,0-0.1,0-0.2,0c0,0,0-0.1,0-0.2v-6c0-0.1,0-0.1,0-0.1c0,0,0.1,0,0.1,0h1c0.1,0,0.1,0.1,0.1,0.2V26.8z"/>
		<path fill="#CCCCCC" d="M207,20.8v0.5c0,0.1,0,0.1,0,0.1c0,0,0.1,0,0.1-0.1c0.2-0.2,0.5-0.4,0.8-0.6c0.3-0.2,0.6-0.2,1.1-0.2
			c0.5,0,0.9,0.1,1.3,0.4s0.7,0.6,0.9,1.1c0.2,0.5,0.3,1.1,0.3,1.8c0,0.7-0.1,1.3-0.3,1.8s-0.5,0.9-0.9,1.2
			c-0.4,0.3-0.9,0.4-1.4,0.4c-0.6,0-1.2-0.2-1.7-0.6c-0.1-0.1-0.1-0.1-0.1-0.1c0,0-0.1,0.1-0.1,0.2v2.2c0,0.1,0,0.2-0.1,0.2h-1
			c-0.1,0-0.2-0.1-0.2-0.2v-8c0-0.1,0-0.1,0.1-0.2c0,0,0.1,0,0.2,0h0.8C206.9,20.6,207,20.7,207,20.8z M207.7,26.1
			c0.2,0.1,0.5,0.2,0.8,0.2c0.6,0,1-0.2,1.3-0.6s0.5-1.1,0.5-1.9c0-0.8-0.2-1.4-0.5-1.8s-0.7-0.6-1.3-0.6c-0.3,0-0.6,0.1-0.8,0.2
			s-0.4,0.3-0.6,0.5c-0.1,0.2-0.2,0.4-0.2,0.6v2.9C207.2,25.8,207.4,25.9,207.7,26.1z"/>
		<path fill="#CCCCCC" d="M213.7,26.7c-0.5-0.3-0.8-0.7-1.1-1.2s-0.4-1.1-0.4-1.7c0-0.6,0.1-1.2,0.4-1.7s0.6-0.9,1.1-1.2
			c0.5-0.3,1-0.4,1.6-0.4c0.6,0,1.1,0.1,1.6,0.4c0.5,0.3,0.8,0.7,1.1,1.2s0.4,1.1,0.4,1.7c0,0.6-0.1,1.2-0.4,1.7s-0.6,0.9-1.1,1.2
			c-0.5,0.3-1,0.4-1.6,0.4C214.7,27.1,214.2,27,213.7,26.7z M216.7,25.6c0.3-0.4,0.5-1,0.5-1.8s-0.2-1.4-0.5-1.8s-0.8-0.6-1.3-0.6
			s-1,0.2-1.3,0.6c-0.3,0.4-0.5,1-0.5,1.8c0,0.8,0.2,1.3,0.5,1.8c0.3,0.4,0.8,0.6,1.3,0.6C215.9,26.2,216.4,26,216.7,25.6z"/>
		<path fill="#CCCCCC" d="M220.8,26.8c0,0.1,0,0.1-0.1,0.2c0,0-0.1,0-0.2,0h-0.8c-0.1,0-0.1,0-0.2,0c0,0,0-0.1,0-0.2l0-8.5
			c0-0.1,0.1-0.2,0.2-0.2h0.9c0.1,0,0.2,0.1,0.2,0.2V26.8z"/>
		<path fill="#CCCCCC" d="M223.4,25.2c0.2,0.3,0.4,0.5,0.7,0.7c0.3,0.2,0.6,0.3,1,0.3c0.4,0,0.7-0.1,1-0.2c0.3-0.2,0.6-0.4,0.8-0.7
			c0,0,0.1,0,0.1,0c0,0,0.1,0,0.1,0l0.6,0.3c0,0,0.1,0.1,0.1,0.1c0,0,0,0.1,0,0.1c-0.3,0.5-0.7,0.9-1.2,1.1c-0.4,0.2-1,0.3-1.6,0.3
			c-0.6,0-1.1-0.1-1.6-0.4c-0.5-0.3-0.8-0.7-1.1-1.1c-0.3-0.5-0.4-1.1-0.4-1.7c0-0.7,0.1-1.3,0.4-1.8s0.6-0.9,1.1-1.2
			c0.5-0.3,1-0.4,1.6-0.4c0.6,0,1.1,0.1,1.6,0.4c0.4,0.3,0.8,0.6,1,1.1s0.4,1.1,0.4,1.8v0c0,0.1,0,0.1,0,0.2c0,0-0.1,0.1-0.1,0.1
			h-4.4c-0.1,0-0.1,0.1-0.1,0.2C223.1,24.6,223.2,25,223.4,25.2z M226.4,23.3c0.1,0,0.1,0,0.2,0c0,0,0-0.1,0-0.1
			c0-0.3-0.1-0.6-0.2-0.9c-0.1-0.3-0.3-0.5-0.6-0.7s-0.5-0.2-0.9-0.2c-0.4,0-0.7,0.1-0.9,0.3c-0.3,0.2-0.5,0.4-0.6,0.7
			c-0.1,0.3-0.2,0.6-0.2,1L226.4,23.3z"/>
		<path fill="#CCCCCC" d="M150.5,28.8c0.5,0.2,0.9,0.5,1.2,0.9c0.3,0.4,0.5,0.8,0.6,1.3c0,0,0,0.1,0,0.1c0,0,0,0.1,0,0.1
			c0,0,0,0-0.1,0l-1.1,0.1h0c0,0-0.1,0-0.1-0.1c-0.1-0.5-0.3-0.9-0.7-1.2c-0.3-0.3-0.8-0.4-1.3-0.4c-0.8,0-1.4,0.3-1.8,0.9
			s-0.6,1.5-0.6,2.6c0,1.2,0.2,2,0.6,2.6c0.4,0.6,1,0.9,1.8,0.9c0.5,0,1-0.1,1.4-0.4c0.4-0.3,0.7-0.7,0.9-1.3c0-0.1,0.1-0.1,0.2-0.1
			l0.9,0.2c0.1,0,0.1,0.1,0.1,0.2c-0.1,0.4-0.3,0.8-0.6,1.1c-0.3,0.4-0.7,0.7-1.2,0.9s-1,0.4-1.7,0.4c-0.8,0-1.5-0.2-2.1-0.6
			s-1-0.9-1.3-1.6s-0.5-1.5-0.5-2.4c0-0.9,0.2-1.7,0.5-2.4c0.3-0.7,0.8-1.2,1.3-1.6c0.6-0.4,1.3-0.5,2.1-0.5
			C149.5,28.5,150.1,28.6,150.5,28.8z"/>
		<path fill="#CCCCCC" d="M154.4,37.2c-0.5-0.3-0.8-0.7-1.1-1.2c-0.3-0.5-0.4-1.1-0.4-1.7c0-0.6,0.1-1.2,0.4-1.7s0.6-0.9,1.1-1.2
			c0.5-0.3,1-0.4,1.6-0.4c0.6,0,1.1,0.1,1.6,0.4s0.8,0.7,1.1,1.2c0.3,0.5,0.4,1.1,0.4,1.7c0,0.6-0.1,1.2-0.4,1.7s-0.6,0.9-1.1,1.2
			s-1,0.4-1.6,0.4S154.9,37.5,154.4,37.2z M157.4,36.1c0.3-0.4,0.5-1,0.5-1.8s-0.2-1.4-0.5-1.8s-0.8-0.6-1.3-0.6
			c-0.6,0-1,0.2-1.3,0.6c-0.3,0.4-0.5,1-0.5,1.8c0,0.8,0.2,1.3,0.5,1.8c0.3,0.4,0.8,0.6,1.3,0.6C156.6,36.7,157,36.5,157.4,36.1z"/>
		<path fill="#CCCCCC" d="M164,35.7v-4.4c0-0.1,0.1-0.2,0.2-0.2h0.9c0.1,0,0.2,0.1,0.2,0.2l0,6c0,0.1,0,0.2-0.1,0.2h-0.9
			c-0.1,0-0.1-0.1-0.1-0.2v-0.7c0-0.1,0-0.1-0.1,0c-0.4,0.4-0.8,0.6-1.1,0.8c-0.3,0.1-0.7,0.2-1.1,0.2c-0.6,0-1-0.2-1.4-0.5
			c-0.4-0.3-0.5-0.8-0.5-1.4v-4.4c0-0.1,0.1-0.2,0.2-0.2h0.9c0.1,0,0.2,0.1,0.2,0.2v4.2c0,0.4,0.1,0.6,0.3,0.8
			c0.2,0.2,0.5,0.3,0.8,0.3C162.8,36.7,163.4,36.3,164,35.7z"/>
		<path fill="#CCCCCC" d="M167.7,31.3v0.5c0,0.1,0,0.1,0,0.1c0,0,0.1,0,0.1-0.1c0.2-0.2,0.5-0.4,0.8-0.6s0.6-0.2,1.1-0.2
			c0.5,0,0.9,0.1,1.3,0.4s0.7,0.6,0.9,1.1c0.2,0.5,0.3,1.1,0.3,1.8c0,0.7-0.1,1.3-0.3,1.8s-0.5,0.9-0.9,1.2
			c-0.4,0.3-0.9,0.4-1.4,0.4c-0.6,0-1.2-0.2-1.7-0.6c-0.1-0.1-0.1-0.1-0.1-0.1c0,0-0.1,0.1-0.1,0.2v2.2c0,0.1,0,0.2-0.1,0.2h-1
			c-0.1,0-0.2-0.1-0.2-0.2v-8c0-0.1,0-0.1,0.1-0.2c0,0,0.1,0,0.2,0h0.8C167.6,31.1,167.7,31.2,167.7,31.3z M168.4,36.6
			c0.2,0.1,0.5,0.2,0.8,0.2c0.6,0,1-0.2,1.3-0.6s0.5-1.1,0.5-1.9c0-0.8-0.2-1.4-0.5-1.8s-0.7-0.6-1.3-0.6c-0.3,0-0.6,0.1-0.8,0.2
			s-0.4,0.3-0.6,0.5c-0.1,0.2-0.2,0.4-0.2,0.6V36C167.9,36.3,168.1,36.4,168.4,36.6z"/>
		<path fill="#CCCCCC" d="M174.6,29.9c0,0.1,0,0.2-0.1,0.2c0,0-0.1,0.1-0.2,0.1h-0.9c-0.1,0-0.1,0-0.2-0.1c0,0,0-0.1,0-0.2v-1.1
			c0-0.1,0.1-0.2,0.2-0.2h1c0,0,0.1,0,0.1,0.1c0,0,0,0.1,0,0.1V29.9z M174.6,37.3c0,0.1,0,0.1-0.1,0.2c0,0-0.1,0-0.2,0h-0.8
			c-0.1,0-0.1,0-0.2,0c0,0,0-0.1,0-0.2v-6c0-0.1,0-0.1,0-0.1c0,0,0.1,0,0.1,0h1c0.1,0,0.1,0.1,0.1,0.2V37.3z"/>
		<path fill="#CCCCCC" d="M176,37.3v-6c0-0.1,0.1-0.2,0.2-0.2h0.9c0.1,0,0.1,0.1,0.1,0.2V32c0,0,0,0.1,0,0.1c0,0,0,0,0.1,0
			c0.4-0.3,0.8-0.6,1.1-0.7c0.3-0.2,0.7-0.2,1-0.2c0.6,0,1.1,0.2,1.4,0.5c0.3,0.3,0.5,0.8,0.5,1.3v4.4c0,0.1-0.1,0.2-0.2,0.2h-0.9
			c-0.1,0-0.2-0.1-0.2-0.2v-4.2c0-0.4-0.1-0.6-0.3-0.8c-0.2-0.2-0.5-0.3-0.8-0.3c-0.3,0-0.6,0.1-0.8,0.2c-0.3,0.1-0.6,0.4-0.9,0.7
			v4.4c0,0.1,0,0.1-0.1,0.2c0,0-0.1,0-0.2,0h-0.9C176,37.5,176,37.4,176,37.3z"/>
		<path fill="#CCCCCC" d="M188.9,31.2v0.5c0,0.2-0.1,0.2-0.2,0.2c-0.1,0-0.2,0-0.4,0s-0.2,0-0.3,0c-0.1,0-0.2,0.1-0.2,0.1
			c0,0,0,0.1,0,0.2c0,0,0,0.1,0.1,0.2c0.1,0.1,0.1,0.3,0.1,0.5c0,0.6-0.2,1-0.7,1.4s-1.1,0.5-2,0.5c-0.5,0-0.9,0-1.2,0.1
			s-0.4,0.2-0.4,0.3c0,0.1,0.1,0.2,0.2,0.3c0.2,0.1,0.4,0.1,0.8,0.1l1.6,0.1c0.7,0,1.3,0.2,1.6,0.5c0.4,0.3,0.5,0.7,0.5,1.2
			c0,0.6-0.3,1.1-0.8,1.5c-0.6,0.4-1.3,0.5-2.4,0.5c-1.1,0-1.9-0.1-2.4-0.4s-0.8-0.7-0.8-1.2c0-0.3,0.1-0.5,0.3-0.7
			c0.2-0.2,0.5-0.4,0.8-0.6c0.1,0,0.1-0.1,0-0.1c-0.4-0.2-0.6-0.4-0.6-0.8c0-0.2,0.1-0.4,0.3-0.5c0.2-0.2,0.4-0.3,0.8-0.4
			c0,0,0.1,0,0.1-0.1c0,0,0-0.1-0.1-0.1c-0.4-0.2-0.6-0.4-0.8-0.7c-0.2-0.3-0.3-0.6-0.3-0.9c0-0.6,0.2-1.1,0.7-1.5
			c0.5-0.4,1.2-0.5,2.1-0.5c0.8,0,1.4,0.2,1.8,0.5c0.1,0,0.1,0.1,0.1,0.1c0,0,0.1,0,0.1-0.1c0.2-0.2,0.3-0.3,0.6-0.4
			s0.4-0.2,0.6-0.2C188.8,31,188.9,31.1,188.9,31.2z M184.3,36.9c-0.2,0-0.3,0-0.5,0.1s-0.3,0.2-0.4,0.3c-0.1,0.1-0.2,0.3-0.2,0.5
			c0,0.7,0.8,1.1,2.3,1.1c0.6,0,1.1-0.1,1.4-0.3s0.5-0.5,0.5-0.8c0-0.5-0.4-0.8-1.1-0.9L184.3,36.9z M186.4,34
			c0.3-0.2,0.4-0.5,0.4-0.9c0-0.4-0.1-0.7-0.4-0.9c-0.3-0.2-0.6-0.3-1.1-0.3c-0.5,0-0.9,0.1-1.1,0.3c-0.3,0.2-0.4,0.5-0.4,0.9
			c0,0.4,0.1,0.7,0.4,0.9c0.3,0.2,0.7,0.3,1.1,0.3C185.8,34.3,186.2,34.2,186.4,34z"/>
	</g>
</g>
<path fill="none" stroke="#CCCCCC" stroke-miterlimit="10" d="M120.4,1c0,1.5,1.2,2.8,2.8,2.8S126,2.5,126,1"/>
<path fill="none" stroke="#CCCCCC" stroke-miterlimit="10" d="M128.2,5.9"/>
<path fill="none" stroke="#CCCCCC" stroke-miterlimit="10" d="M128.2,1c0,1.5,1.2,2.8,2.8,2.8c1.5,0,2.8-1.2,2.8-2.8"/>
<path fill="none" stroke="#37B34A" stroke-width="0.6918" stroke-miterlimit="10" d="M135.9,5.9"/>
<path fill="none" stroke="#CCCCCC" stroke-miterlimit="10" d="M135.9,1c0,1.5,1.2,2.8,2.8,2.8s2.8-1.2,2.8-2.8"/>
<path fill="none" stroke="#CCCCCC" stroke-miterlimit="10" d="M120.4,16.7c0-1.5,1.2-2.8,2.8-2.8s2.8,1.2,2.8,2.8"/>
<path fill="none" stroke="#CCCCCC" stroke-miterlimit="10" d="M128.2,16.7c0-1.5,1.2-2.8,2.8-2.8c1.5,0,2.8,1.2,2.8,2.8"/>
<path fill="none" stroke="#CCCCCC" stroke-miterlimit="10" d="M135.9,16.7c0-1.5,1.2-2.8,2.8-2.8s2.8,1.2,2.8,2.8"/>
<circle fill="none" stroke="#CCCCCC" stroke-miterlimit="10" cx="123.2" cy="8.9" r="2.8"/>
<circle fill="none" stroke="#CCCCCC" stroke-miterlimit="10" cx="130.9" cy="8.9" r="2.8"/>
<circle fill="#CCCCCC" stroke="#CCCCCC" stroke-miterlimit="10" cx="138.7" cy="8.9" r="2.8"/>
<g>
</g>
<g>
</g>
<g>
</g>
<g>
</g>
<g>
</g>
<g>
</g>
<g>
</g>
<g>
</g>
<g>
</g>
<g>
</g>
<g>
</g>
<g>
</g>
<g>
</g>
<g>
</g>
<g>
</g>
</svg>
