<?xml version="1.0" encoding="utf-8"?>
<!-- Generator: Adobe Illustrator 17.1.0, SVG Export Plug-In . SVG Version: 6.00 Build 0)  -->
<!DOCTYPE svg PUBLIC "-//W3C//DTD SVG 1.1//EN" "http://www.w3.org/Graphics/SVG/1.1/DTD/svg11.dtd">
<svg version="1.1" id="Layer_1" xmlns="http://www.w3.org/2000/svg" xmlns:xlink="http://www.w3.org/1999/xlink" x="0px" y="0px"
	 width="240px" height="40px" viewBox="0 0 240 40" enable-background="new 0 0 240 40" xml:space="preserve">
<path fill="none" stroke="#979797" stroke-width="0.9915" stroke-miterlimit="10" d="M23.9,20.3"/>
<g>
	<path fill="#37B34A" d="M25.2,16.3c0-0.1,0-0.2,0-0.3l5.4-14.9c0.1-0.2,0.1-0.3,0.2-0.3c0.1-0.1,0.2-0.1,0.4-0.1h3.2
		c0.2,0,0.3,0,0.4,0.1C35,0.9,35,1.1,35.1,1.2l5.3,14.9c0,0.1,0,0.2,0,0.2c0,0.1,0,0.2-0.1,0.3c-0.1,0.1-0.1,0.1-0.2,0.1H37
		c-0.2,0-0.4-0.1-0.4-0.3l-1.1-3.1c0-0.1-0.1-0.1-0.1-0.2c0,0-0.1-0.1-0.2-0.1h-5.3c-0.1,0-0.2,0.1-0.3,0.2l-1.1,3.2
		c-0.1,0.2-0.2,0.3-0.5,0.3h-2.5C25.3,16.7,25.2,16.6,25.2,16.3z M34.3,10.2c0.1,0,0.2-0.1,0.2-0.2c0-0.1,0-0.2,0-0.2l-1.8-5
		c0-0.1-0.1-0.1-0.2-0.1c0,0-0.1,0.1-0.1,0.2l-1.8,5c0,0.1,0,0.2,0,0.2c0,0.1,0.1,0.2,0.2,0.2H34.3z"/>
</g>
<path fill="none" stroke="#979797" stroke-width="0.9915" stroke-miterlimit="10" d="M24,20.3"/>
<g>
	<path fill="#37B34A" d="M25.5,26.9l0-0.1l3.1-8.5c0-0.1,0.1-0.1,0.1-0.1c0,0,0.1,0,0.2,0h1.2c0.2,0,0.3,0.1,0.3,0.2l3,8.5
		c0,0,0,0,0,0.1c0,0.1,0,0.2-0.1,0.2h-1.1c-0.1,0-0.2,0-0.2-0.1l-0.8-2.1c0,0,0-0.1,0-0.1c0,0,0,0-0.1,0h-3.3c-0.1,0-0.1,0-0.1,0.1
		l-0.8,2.2c0,0.1-0.1,0.1-0.2,0.1h-0.9C25.5,27,25.5,27,25.5,26.9z M30.6,23.5c0.1,0,0.1,0,0.1,0c0,0,0-0.1,0-0.1l-1.3-3.6
		c0-0.1-0.1-0.1-0.1-0.1c0,0-0.1,0-0.1,0.1l-1.3,3.6l0,0.1c0,0.1,0,0.1,0.1,0.1H30.6z"/>
	<path fill="#37B34A" d="M37.6,21.6c-0.3-0.1-0.6-0.2-0.9-0.2c-0.4,0-0.7,0.1-1,0.2c-0.3,0.2-0.4,0.4-0.4,0.7c0,0.2,0.1,0.3,0.2,0.4
		c0.1,0.1,0.4,0.2,0.7,0.3l1.5,0.4c0.6,0.1,1,0.4,1.2,0.7s0.4,0.7,0.4,1.1c0,0.4-0.1,0.7-0.3,1s-0.5,0.5-1,0.7
		c-0.4,0.2-0.9,0.2-1.4,0.2c-0.6,0-1.2-0.1-1.7-0.4s-0.8-0.6-1-1c0,0,0-0.1,0-0.1c0,0,0-0.1,0.1-0.1l0.6-0.3c0,0,0.1,0,0.1,0
		c0,0,0.1,0,0.1,0c0.4,0.6,1.1,1,1.9,1c0.4,0,0.8-0.1,1.1-0.2c0.3-0.2,0.4-0.4,0.4-0.7c0-0.2-0.1-0.4-0.2-0.5
		c-0.2-0.1-0.4-0.3-0.8-0.4l-1.2-0.3c-0.6-0.1-1-0.4-1.3-0.6c-0.3-0.3-0.4-0.6-0.4-1.1c0-0.4,0.1-0.7,0.3-1s0.5-0.5,0.9-0.7
		c0.4-0.2,0.8-0.2,1.3-0.2c0.5,0,1,0.1,1.5,0.3s0.8,0.5,1,0.8c0,0,0,0.1,0,0.1c0,0,0,0.1-0.1,0.1l-0.6,0.3c0,0,0,0-0.1,0
		c0,0-0.1,0-0.1-0.1C38.1,21.9,37.9,21.7,37.6,21.6z"/>
	<path fill="#37B34A" d="M43.5,21.6c-0.3-0.1-0.6-0.2-0.9-0.2c-0.4,0-0.7,0.1-1,0.2c-0.3,0.2-0.4,0.4-0.4,0.7c0,0.2,0.1,0.3,0.2,0.4
		c0.1,0.1,0.4,0.2,0.7,0.3l1.5,0.4c0.6,0.1,1,0.4,1.2,0.7s0.4,0.7,0.4,1.1c0,0.4-0.1,0.7-0.3,1s-0.5,0.5-1,0.7
		c-0.4,0.2-0.9,0.2-1.4,0.2c-0.6,0-1.2-0.1-1.7-0.4s-0.8-0.6-1-1c0,0,0-0.1,0-0.1c0,0,0-0.1,0.1-0.1l0.6-0.3c0,0,0.1,0,0.1,0
		c0,0,0.1,0,0.1,0c0.4,0.6,1.1,1,1.9,1c0.4,0,0.8-0.1,1.1-0.2c0.3-0.2,0.4-0.4,0.4-0.7c0-0.2-0.1-0.4-0.2-0.5
		c-0.2-0.1-0.4-0.3-0.8-0.4l-1.2-0.3c-0.6-0.1-1-0.4-1.3-0.6c-0.3-0.3-0.4-0.6-0.4-1.1c0-0.4,0.1-0.7,0.3-1s0.5-0.5,0.9-0.7
		c0.4-0.2,0.8-0.2,1.3-0.2c0.5,0,1,0.1,1.5,0.3s0.8,0.5,1,0.8c0,0,0,0.1,0,0.1c0,0,0,0.1-0.1,0.1l-0.6,0.3c0,0,0,0-0.1,0
		c0,0-0.1,0-0.1-0.1C44,21.9,43.8,21.7,43.5,21.6z"/>
	<path fill="#37B34A" d="M47.6,19.4c0,0.1,0,0.2-0.1,0.2c0,0-0.1,0.1-0.2,0.1h-0.9c-0.1,0-0.1,0-0.2-0.1c0,0,0-0.1,0-0.2v-1.1
		c0-0.1,0.1-0.2,0.2-0.2h1c0,0,0.1,0,0.1,0.1c0,0,0,0.1,0,0.1V19.4z M47.5,26.8c0,0.1,0,0.1-0.1,0.2s-0.1,0-0.2,0h-0.8
		c-0.1,0-0.1,0-0.2,0c0,0,0-0.1,0-0.2v-6c0-0.1,0-0.1,0-0.1c0,0,0.1,0,0.1,0h1c0.1,0,0.1,0.1,0.1,0.2V26.8z"/>
	<path fill="#37B34A" d="M55.1,20.7v0.5c0,0.2-0.1,0.2-0.2,0.2c-0.1,0-0.2,0-0.4,0c-0.1,0-0.2,0-0.3,0c-0.1,0-0.2,0.1-0.2,0.1
		c0,0,0,0.1,0,0.2c0,0,0,0.1,0.1,0.2c0.1,0.1,0.1,0.3,0.1,0.5c0,0.6-0.2,1-0.7,1.4s-1.1,0.5-2,0.5c-0.5,0-0.9,0-1.2,0.1
		C50.1,24.7,50,24.8,50,25c0,0.1,0.1,0.2,0.2,0.3c0.2,0.1,0.4,0.1,0.8,0.1l1.6,0.1c0.7,0,1.3,0.2,1.6,0.5c0.4,0.3,0.5,0.7,0.5,1.2
		c0,0.6-0.3,1.1-0.8,1.5c-0.6,0.4-1.3,0.5-2.4,0.5c-1.1,0-1.9-0.1-2.4-0.4s-0.8-0.7-0.8-1.2c0-0.3,0.1-0.5,0.3-0.7s0.5-0.4,0.8-0.6
		c0.1,0,0.1-0.1,0-0.1c-0.4-0.2-0.6-0.4-0.6-0.8c0-0.2,0.1-0.4,0.3-0.5c0.2-0.2,0.4-0.3,0.8-0.4c0,0,0.1,0,0.1-0.1
		c0,0,0-0.1-0.1-0.1c-0.4-0.2-0.6-0.4-0.8-0.7c-0.2-0.3-0.3-0.6-0.3-0.9c0-0.6,0.2-1.1,0.7-1.5c0.5-0.4,1.2-0.5,2.1-0.5
		c0.8,0,1.4,0.2,1.8,0.5c0.1,0,0.1,0.1,0.1,0.1c0,0,0.1,0,0.1-0.1c0.2-0.2,0.3-0.3,0.6-0.4c0.2-0.1,0.4-0.2,0.6-0.2
		C55,20.5,55.1,20.6,55.1,20.7z M50.5,26.4c-0.2,0-0.3,0-0.5,0.1c-0.2,0.1-0.3,0.2-0.4,0.3c-0.1,0.1-0.2,0.3-0.2,0.5
		c0,0.7,0.8,1.1,2.3,1.1c0.6,0,1.1-0.1,1.4-0.3s0.5-0.5,0.5-0.8c0-0.5-0.4-0.8-1.1-0.9L50.5,26.4z M52.6,23.5
		c0.3-0.2,0.4-0.5,0.4-0.9c0-0.4-0.1-0.7-0.4-0.9c-0.3-0.2-0.6-0.3-1.1-0.3c-0.5,0-0.9,0.1-1.1,0.3c-0.3,0.2-0.4,0.5-0.4,0.9
		c0,0.4,0.1,0.7,0.4,0.9s0.6,0.3,1.1,0.3C52,23.8,52.4,23.7,52.6,23.5z"/>
	<path fill="#37B34A" d="M56,26.8v-6c0-0.1,0.1-0.2,0.2-0.2h0.9c0.1,0,0.1,0.1,0.1,0.2v0.7c0,0,0,0.1,0,0.1c0,0,0,0,0.1,0
		c0.4-0.3,0.8-0.6,1.1-0.7c0.3-0.2,0.7-0.2,1-0.2c0.6,0,1.1,0.2,1.4,0.5c0.3,0.3,0.5,0.8,0.5,1.3v4.4c0,0.1-0.1,0.2-0.2,0.2h-0.9
		c-0.1,0-0.2-0.1-0.2-0.2v-4.2c0-0.4-0.1-0.6-0.3-0.8c-0.2-0.2-0.5-0.3-0.8-0.3c-0.3,0-0.6,0.1-0.8,0.2c-0.3,0.1-0.6,0.4-0.9,0.7
		v4.4c0,0.1,0,0.1-0.1,0.2s-0.1,0-0.2,0h-0.9C56,27,56,26.9,56,26.8z"/>
	<path fill="#37B34A" d="M62.7,26.8v-6c0-0.1,0.1-0.2,0.2-0.2h0.9c0.1,0,0.1,0.1,0.1,0.2v0.7c0,0,0,0.1,0,0.1c0,0,0.1,0,0.1,0
		c0.4-0.3,0.8-0.6,1.1-0.7c0.3-0.2,0.7-0.2,1-0.2c0.4,0,0.8,0.1,1.1,0.3c0.3,0.2,0.5,0.5,0.6,0.8c0,0,0,0,0,0c0,0,0.1,0,0.1-0.1
		c0.4-0.3,0.7-0.6,1.1-0.8c0.3-0.2,0.7-0.3,1.1-0.3c0.6,0,1,0.2,1.4,0.5c0.3,0.3,0.5,0.8,0.5,1.4v4.4c0,0.1-0.1,0.2-0.2,0.2h-0.9
		c-0.1,0-0.1,0-0.1,0s0-0.1,0-0.2v-4.2c0-0.4-0.1-0.6-0.3-0.8c-0.2-0.2-0.4-0.3-0.8-0.3c-0.5,0-1,0.3-1.5,0.8
		c-0.1,0.1-0.1,0.1-0.1,0.2c0,0.1,0,0.1,0,0.2v4.2c0,0.1-0.1,0.2-0.2,0.2h-0.9c-0.1,0-0.2-0.1-0.2-0.2v-4.2c0-0.4-0.1-0.6-0.3-0.8
		c-0.2-0.2-0.4-0.3-0.8-0.3c-0.3,0-0.6,0.1-0.8,0.2c-0.2,0.1-0.5,0.4-0.9,0.7v4.4c0,0.1,0,0.1-0.1,0.2s-0.1,0-0.2,0h-0.9
		C62.8,27,62.7,26.9,62.7,26.8z"/>
	<path fill="#37B34A" d="M74.6,25.2c0.2,0.3,0.4,0.5,0.7,0.7c0.3,0.2,0.6,0.3,1,0.3c0.4,0,0.7-0.1,1-0.2c0.3-0.2,0.6-0.4,0.8-0.7
		c0,0,0.1,0,0.1,0c0,0,0.1,0,0.1,0l0.6,0.3c0,0,0.1,0.1,0.1,0.1c0,0,0,0.1,0,0.1c-0.3,0.5-0.7,0.9-1.2,1.1s-1,0.3-1.6,0.3
		c-0.6,0-1.1-0.1-1.6-0.4c-0.5-0.3-0.8-0.7-1.1-1.1c-0.3-0.5-0.4-1.1-0.4-1.7c0-0.7,0.1-1.3,0.4-1.8s0.6-0.9,1.1-1.2
		c0.5-0.3,1-0.4,1.6-0.4c0.6,0,1.1,0.1,1.6,0.4c0.4,0.3,0.8,0.6,1,1.1s0.4,1.1,0.4,1.8v0c0,0.1,0,0.1,0,0.2c0,0-0.1,0.1-0.1,0.1
		h-4.4c-0.1,0-0.1,0.1-0.1,0.2C74.3,24.6,74.4,25,74.6,25.2z M77.6,23.3c0.1,0,0.1,0,0.2,0c0,0,0-0.1,0-0.1c0-0.3-0.1-0.6-0.2-0.9
		c-0.1-0.3-0.3-0.5-0.6-0.7s-0.6-0.2-0.9-0.2c-0.4,0-0.7,0.1-0.9,0.3c-0.3,0.2-0.5,0.4-0.6,0.7c-0.1,0.3-0.2,0.6-0.2,1L77.6,23.3z"
		/>
	<path fill="#37B34A" d="M80,26.8v-6c0-0.1,0.1-0.2,0.2-0.2h0.9c0.1,0,0.1,0.1,0.1,0.2v0.7c0,0,0,0.1,0,0.1c0,0,0,0,0.1,0
		c0.4-0.3,0.8-0.6,1.1-0.7c0.3-0.2,0.7-0.2,1-0.2c0.6,0,1.1,0.2,1.4,0.5c0.3,0.3,0.5,0.8,0.5,1.3v4.4c0,0.1-0.1,0.2-0.2,0.2h-0.9
		c-0.1,0-0.2-0.1-0.2-0.2v-4.2c0-0.4-0.1-0.6-0.3-0.8c-0.2-0.2-0.5-0.3-0.8-0.3c-0.3,0-0.6,0.1-0.8,0.2c-0.3,0.1-0.6,0.4-0.9,0.7
		v4.4c0,0.1,0,0.1-0.1,0.2s-0.1,0-0.2,0h-0.9C80.1,27,80,26.9,80,26.8z"/>
	<path fill="#37B34A" d="M88.8,21.6c-0.1,0-0.1,0-0.1,0.1v3.5c0,0.3,0.1,0.6,0.2,0.7c0.1,0.1,0.3,0.2,0.6,0.2h0.8
		c0.1,0,0.1,0,0.1,0.1v0.5c0,0.1-0.1,0.2-0.2,0.2c-0.3,0-0.7,0.1-1.2,0.1c-0.5,0-0.9-0.1-1.2-0.4s-0.4-0.6-0.4-1.1v-3.8
		c0-0.1,0-0.1-0.1-0.1h-0.9c-0.1,0-0.2,0-0.2-0.1v-0.6c0-0.1,0-0.1,0.1-0.1h1c0.1,0,0.1,0,0.1-0.1l0.1-1.9c0-0.1,0.1-0.2,0.1-0.2
		h0.8c0.1,0,0.2,0.1,0.2,0.2v1.9c0,0.1,0,0.1,0.1,0.1h1.4c0.1,0,0.1,0,0.1,0.1v0.6c0,0.1-0.1,0.1-0.2,0.1H88.8z"/>
</g>
<path fill="none" stroke="#37B34A" stroke-miterlimit="10" d="M1,1c0,1.5,1.2,2.8,2.8,2.8S6.5,2.5,6.5,1"/>
<path fill="none" stroke="#37B34A" stroke-width="0.6918" stroke-miterlimit="10" d="M8.7,5.9"/>
<path fill="none" stroke="#37B34A" stroke-miterlimit="10" d="M8.7,1c0,1.5,1.2,2.8,2.8,2.8c1.5,0,2.8-1.2,2.8-2.8"/>
<path fill="none" stroke="#37B34A" stroke-width="0.6918" stroke-miterlimit="10" d="M16.5,5.9"/>
<path fill="none" stroke="#37B34A" stroke-miterlimit="10" d="M16.5,1c0,1.5,1.2,2.8,2.8,2.8C20.7,3.8,22,2.5,22,1"/>
<path fill="none" stroke="#37B34A" stroke-miterlimit="10" d="M1,16.7c0-1.5,1.2-2.8,2.8-2.8s2.8,1.2,2.8,2.8"/>
<path fill="none" stroke="#37B34A" stroke-miterlimit="10" d="M8.7,16.7c0-1.5,1.2-2.8,2.8-2.8c1.5,0,2.8,1.2,2.8,2.8"/>
<path fill="none" stroke="#37B34A" stroke-miterlimit="10" d="M16.5,16.7c0-1.5,1.2-2.8,2.8-2.8c1.5,0,2.8,1.2,2.8,2.8"/>
<circle fill="none" stroke="#37B34A" stroke-miterlimit="10" cx="3.8" cy="8.9" r="2.8"/>
<circle fill="none" stroke="#37B34A" stroke-miterlimit="10" cx="11.5" cy="8.9" r="2.8"/>
<circle fill="#37B34A" stroke="#37B34A" stroke-miterlimit="10" cx="19.2" cy="8.9" r="2.8"/>
<path fill="none" stroke="#979797" stroke-width="0.9915" stroke-miterlimit="10" d="M143.4,20.3"/>
<g>
	<path fill="#CCCCCC" d="M144.7,16.3c0-0.1,0-0.2,0-0.3l5.4-14.9c0.1-0.2,0.1-0.3,0.2-0.3c0.1-0.1,0.2-0.1,0.4-0.1h3.2
		c0.2,0,0.3,0,0.4,0.1s0.2,0.2,0.2,0.3l5.3,14.9c0,0.1,0,0.2,0,0.2c0,0.1,0,0.2-0.1,0.3c-0.1,0.1-0.1,0.1-0.2,0.1h-3.2
		c-0.2,0-0.4-0.1-0.4-0.3l-1.1-3.1c0-0.1-0.1-0.1-0.1-0.2c0,0-0.1-0.1-0.2-0.1h-5.3c-0.1,0-0.2,0.1-0.3,0.2l-1.1,3.2
		c-0.1,0.2-0.2,0.3-0.5,0.3H145C144.8,16.7,144.7,16.6,144.7,16.3z M153.7,10.2c0.1,0,0.2-0.1,0.2-0.2c0-0.1,0-0.2,0-0.2l-1.8-5
		c0-0.1-0.1-0.1-0.2-0.1c0,0-0.1,0.1-0.1,0.2l-1.8,5c0,0.1,0,0.2,0,0.2c0,0.1,0.1,0.2,0.2,0.2H153.7z"/>
</g>
<path fill="none" stroke="#979797" stroke-width="0.9915" stroke-miterlimit="10" d="M143.5,20.3"/>
<g>
	<path fill="#CCCCCC" d="M144.9,26.9l0-0.1l3.1-8.5c0-0.1,0.1-0.1,0.1-0.1c0,0,0.1,0,0.2,0h1.2c0.2,0,0.3,0.1,0.3,0.2l3,8.5
		c0,0,0,0,0,0.1c0,0.1,0,0.2-0.1,0.2h-1.1c-0.1,0-0.2,0-0.2-0.1l-0.8-2.1c0,0,0-0.1,0-0.1c0,0,0,0-0.1,0h-3.3c-0.1,0-0.1,0-0.1,0.1
		l-0.8,2.2c0,0.1-0.1,0.1-0.2,0.1h-0.9C145,27,144.9,27,144.9,26.9z M150.1,23.5c0.1,0,0.1,0,0.1,0c0,0,0-0.1,0-0.1l-1.3-3.6
		c0-0.1-0.1-0.1-0.1-0.1c0,0-0.1,0-0.1,0.1l-1.3,3.6l0,0.1c0,0.1,0,0.1,0.1,0.1H150.1z"/>
	<path fill="#CCCCCC" d="M157.1,21.6c-0.3-0.1-0.6-0.2-0.9-0.2c-0.4,0-0.7,0.1-1,0.2s-0.4,0.4-0.4,0.7c0,0.2,0.1,0.3,0.2,0.4
		c0.1,0.1,0.4,0.2,0.7,0.3l1.5,0.4c0.6,0.1,1,0.4,1.2,0.7c0.3,0.3,0.4,0.7,0.4,1.1c0,0.4-0.1,0.7-0.3,1s-0.5,0.5-1,0.7
		s-0.9,0.2-1.4,0.2c-0.6,0-1.2-0.1-1.7-0.4c-0.5-0.2-0.8-0.6-1-1c0,0,0-0.1,0-0.1c0,0,0-0.1,0.1-0.1l0.6-0.3c0,0,0.1,0,0.1,0
		c0,0,0.1,0,0.1,0c0.4,0.6,1.1,1,1.9,1c0.4,0,0.8-0.1,1.1-0.2s0.4-0.4,0.4-0.7c0-0.2-0.1-0.4-0.2-0.5c-0.2-0.1-0.4-0.3-0.8-0.4
		l-1.2-0.3c-0.6-0.1-1-0.4-1.3-0.6c-0.3-0.3-0.4-0.6-0.4-1.1c0-0.4,0.1-0.7,0.3-1s0.5-0.5,0.9-0.7c0.4-0.2,0.8-0.2,1.3-0.2
		c0.5,0,1,0.1,1.5,0.3c0.4,0.2,0.8,0.5,1,0.8c0,0,0,0.1,0,0.1c0,0,0,0.1-0.1,0.1l-0.6,0.3c0,0,0,0-0.1,0c0,0-0.1,0-0.1-0.1
		C157.6,21.9,157.3,21.7,157.1,21.6z"/>
	<path fill="#CCCCCC" d="M163,21.6c-0.3-0.1-0.6-0.2-0.9-0.2c-0.4,0-0.7,0.1-1,0.2s-0.4,0.4-0.4,0.7c0,0.2,0.1,0.3,0.2,0.4
		c0.1,0.1,0.4,0.2,0.7,0.3l1.5,0.4c0.6,0.1,1,0.4,1.2,0.7c0.3,0.3,0.4,0.7,0.4,1.1c0,0.4-0.1,0.7-0.3,1s-0.5,0.5-1,0.7
		s-0.9,0.2-1.4,0.2c-0.6,0-1.2-0.1-1.7-0.4c-0.5-0.2-0.8-0.6-1-1c0,0,0-0.1,0-0.1c0,0,0-0.1,0.1-0.1l0.6-0.3c0,0,0.1,0,0.1,0
		c0,0,0.1,0,0.1,0c0.4,0.6,1.1,1,1.9,1c0.4,0,0.8-0.1,1.1-0.2s0.4-0.4,0.4-0.7c0-0.2-0.1-0.4-0.2-0.5c-0.2-0.1-0.4-0.3-0.8-0.4
		l-1.2-0.3c-0.6-0.1-1-0.4-1.3-0.6c-0.3-0.3-0.4-0.6-0.4-1.1c0-0.4,0.1-0.7,0.3-1s0.5-0.5,0.9-0.7c0.4-0.2,0.8-0.2,1.3-0.2
		c0.5,0,1,0.1,1.5,0.3c0.4,0.2,0.8,0.5,1,0.8c0,0,0,0.1,0,0.1c0,0,0,0.1-0.1,0.1l-0.6,0.3c0,0,0,0-0.1,0c0,0-0.1,0-0.1-0.1
		C163.5,21.9,163.2,21.7,163,21.6z"/>
	<path fill="#CCCCCC" d="M167,19.4c0,0.1,0,0.2-0.1,0.2c0,0-0.1,0.1-0.2,0.1h-0.9c-0.1,0-0.1,0-0.2-0.1c0,0,0-0.1,0-0.2v-1.1
		c0-0.1,0.1-0.2,0.2-0.2h1c0,0,0.1,0,0.1,0.1c0,0,0,0.1,0,0.1V19.4z M167,26.8c0,0.1,0,0.1-0.1,0.2c0,0-0.1,0-0.2,0h-0.8
		c-0.1,0-0.1,0-0.2,0c0,0,0-0.1,0-0.2v-6c0-0.1,0-0.1,0-0.1c0,0,0.1,0,0.1,0h1c0.1,0,0.1,0.1,0.1,0.2V26.8z"/>
	<path fill="#CCCCCC" d="M174.6,20.7v0.5c0,0.2-0.1,0.2-0.2,0.2c-0.1,0-0.2,0-0.4,0s-0.2,0-0.3,0c-0.1,0-0.2,0.1-0.2,0.1
		c0,0,0,0.1,0,0.2c0,0,0,0.1,0.1,0.2c0.1,0.1,0.1,0.3,0.1,0.5c0,0.6-0.2,1-0.7,1.4s-1.1,0.5-2,0.5c-0.5,0-0.9,0-1.2,0.1
		s-0.4,0.2-0.4,0.3c0,0.1,0.1,0.2,0.2,0.3c0.2,0.1,0.4,0.1,0.8,0.1l1.6,0.1c0.7,0,1.3,0.2,1.6,0.5c0.4,0.3,0.5,0.7,0.5,1.2
		c0,0.6-0.3,1.1-0.8,1.5c-0.6,0.4-1.3,0.5-2.4,0.5c-1.1,0-1.9-0.1-2.4-0.4s-0.8-0.7-0.8-1.2c0-0.3,0.1-0.5,0.3-0.7
		c0.2-0.2,0.5-0.4,0.8-0.6c0.1,0,0.1-0.1,0-0.1c-0.4-0.2-0.6-0.4-0.6-0.8c0-0.2,0.1-0.4,0.3-0.5c0.2-0.2,0.4-0.3,0.8-0.4
		c0,0,0.1,0,0.1-0.1c0,0,0-0.1-0.1-0.1c-0.4-0.2-0.6-0.4-0.8-0.7c-0.2-0.3-0.3-0.6-0.3-0.9c0-0.6,0.2-1.1,0.7-1.5
		c0.5-0.4,1.2-0.5,2.1-0.5c0.8,0,1.4,0.2,1.8,0.5c0.1,0,0.1,0.1,0.1,0.1c0,0,0.1,0,0.1-0.1c0.2-0.2,0.3-0.3,0.6-0.4s0.4-0.2,0.6-0.2
		C174.5,20.5,174.6,20.6,174.6,20.7z M169.9,26.4c-0.2,0-0.3,0-0.5,0.1s-0.3,0.2-0.4,0.3c-0.1,0.1-0.2,0.3-0.2,0.5
		c0,0.7,0.8,1.1,2.3,1.1c0.6,0,1.1-0.1,1.4-0.3s0.5-0.5,0.5-0.8c0-0.5-0.4-0.8-1.1-0.9L169.9,26.4z M172.1,23.5
		c0.3-0.2,0.4-0.5,0.4-0.9c0-0.4-0.1-0.7-0.4-0.9c-0.3-0.2-0.6-0.3-1.1-0.3c-0.5,0-0.9,0.1-1.1,0.3c-0.3,0.2-0.4,0.5-0.4,0.9
		c0,0.4,0.1,0.7,0.4,0.9c0.3,0.2,0.7,0.3,1.1,0.3C171.4,23.8,171.8,23.7,172.1,23.5z"/>
	<path fill="#CCCCCC" d="M175.4,26.8v-6c0-0.1,0.1-0.2,0.2-0.2h0.9c0.1,0,0.1,0.1,0.1,0.2v0.7c0,0,0,0.1,0,0.1c0,0,0,0,0.1,0
		c0.4-0.3,0.8-0.6,1.1-0.7c0.3-0.2,0.7-0.2,1-0.2c0.6,0,1.1,0.2,1.4,0.5c0.3,0.3,0.5,0.8,0.5,1.3v4.4c0,0.1-0.1,0.2-0.2,0.2h-0.9
		c-0.1,0-0.2-0.1-0.2-0.2v-4.2c0-0.4-0.1-0.6-0.3-0.8c-0.2-0.2-0.5-0.3-0.8-0.3c-0.3,0-0.6,0.1-0.8,0.2c-0.3,0.1-0.6,0.4-0.9,0.7
		v4.4c0,0.1,0,0.1-0.1,0.2s-0.1,0-0.2,0h-0.9C175.5,27,175.4,26.9,175.4,26.8z"/>
	<path fill="#CCCCCC" d="M182.2,26.8v-6c0-0.1,0.1-0.2,0.2-0.2h0.9c0.1,0,0.1,0.1,0.1,0.2v0.7c0,0,0,0.1,0,0.1s0.1,0,0.1,0
		c0.4-0.3,0.8-0.6,1.1-0.7c0.3-0.2,0.7-0.2,1-0.2c0.4,0,0.8,0.1,1.1,0.3c0.3,0.2,0.5,0.5,0.6,0.8c0,0,0,0,0,0c0,0,0.1,0,0.1-0.1
		c0.4-0.3,0.7-0.6,1.1-0.8c0.3-0.2,0.7-0.3,1.1-0.3c0.6,0,1,0.2,1.3,0.5c0.3,0.3,0.5,0.8,0.5,1.4v4.4c0,0.1-0.1,0.2-0.2,0.2h-0.9
		c-0.1,0-0.1,0-0.1,0c0,0,0-0.1,0-0.2v-4.2c0-0.4-0.1-0.6-0.3-0.8c-0.2-0.2-0.4-0.3-0.8-0.3c-0.5,0-1,0.3-1.5,0.8
		c-0.1,0.1-0.1,0.1-0.1,0.2c0,0.1,0,0.1,0,0.2v4.2c0,0.1-0.1,0.2-0.2,0.2h-0.9c-0.1,0-0.2-0.1-0.2-0.2v-4.2c0-0.4-0.1-0.6-0.3-0.8
		c-0.2-0.2-0.4-0.3-0.8-0.3c-0.3,0-0.6,0.1-0.8,0.2c-0.2,0.1-0.5,0.4-0.9,0.7v4.4c0,0.1,0,0.1-0.1,0.2s-0.1,0-0.2,0h-0.9
		C182.2,27,182.2,26.9,182.2,26.8z"/>
	<path fill="#CCCCCC" d="M194,25.2c0.2,0.3,0.4,0.5,0.7,0.7c0.3,0.2,0.6,0.3,1,0.3c0.4,0,0.7-0.1,1-0.2c0.3-0.2,0.6-0.4,0.8-0.7
		c0,0,0.1,0,0.1,0c0,0,0.1,0,0.1,0l0.6,0.3c0,0,0.1,0.1,0.1,0.1c0,0,0,0.1,0,0.1c-0.3,0.5-0.7,0.9-1.2,1.1s-1,0.3-1.6,0.3
		c-0.6,0-1.1-0.1-1.6-0.4c-0.5-0.3-0.8-0.7-1.1-1.1c-0.3-0.5-0.4-1.1-0.4-1.7c0-0.7,0.1-1.3,0.4-1.8c0.3-0.5,0.6-0.9,1.1-1.2
		c0.5-0.3,1-0.4,1.6-0.4c0.6,0,1.1,0.1,1.6,0.4c0.4,0.3,0.8,0.6,1,1.1s0.4,1.1,0.4,1.8v0c0,0.1,0,0.1,0,0.2c0,0-0.1,0.1-0.2,0.1
		h-4.4c-0.1,0-0.1,0.1-0.1,0.2C193.7,24.6,193.8,25,194,25.2z M197,23.3c0.1,0,0.1,0,0.2,0c0,0,0-0.1,0-0.1c0-0.3-0.1-0.6-0.2-0.9
		c-0.1-0.3-0.3-0.5-0.6-0.7s-0.6-0.2-0.9-0.2c-0.4,0-0.7,0.1-0.9,0.3c-0.3,0.2-0.5,0.4-0.6,0.7c-0.1,0.3-0.2,0.6-0.2,1L197,23.3z"/>
	<path fill="#CCCCCC" d="M199.5,26.8v-6c0-0.1,0.1-0.2,0.2-0.2h0.9c0.1,0,0.1,0.1,0.1,0.2v0.7c0,0,0,0.1,0,0.1s0.1,0,0.1,0
		c0.4-0.3,0.8-0.6,1.1-0.7c0.3-0.2,0.7-0.2,1-0.2c0.6,0,1.1,0.2,1.4,0.5c0.3,0.3,0.5,0.8,0.5,1.3v4.4c0,0.1-0.1,0.2-0.2,0.2h-0.9
		c-0.1,0-0.2-0.1-0.2-0.2v-4.2c0-0.4-0.1-0.6-0.3-0.8c-0.2-0.2-0.5-0.3-0.8-0.3c-0.3,0-0.6,0.1-0.8,0.2c-0.3,0.1-0.6,0.4-0.9,0.7
		v4.4c0,0.1,0,0.1-0.1,0.2s-0.1,0-0.2,0h-0.9C199.5,27,199.5,26.9,199.5,26.8z"/>
	<path fill="#CCCCCC" d="M208.2,21.6c-0.1,0-0.1,0-0.1,0.1v3.5c0,0.3,0.1,0.6,0.2,0.7c0.1,0.1,0.3,0.2,0.6,0.2h0.8
		c0.1,0,0.1,0,0.1,0.1v0.5c0,0.1-0.1,0.2-0.2,0.2c-0.3,0-0.7,0.1-1.2,0.1c-0.5,0-0.9-0.1-1.2-0.4s-0.4-0.6-0.4-1.1v-3.8
		c0-0.1,0-0.1-0.1-0.1h-0.9c-0.1,0-0.2,0-0.2-0.1v-0.6c0-0.1,0-0.1,0.1-0.1h1c0.1,0,0.1,0,0.1-0.1l0.1-1.9c0-0.1,0.1-0.2,0.1-0.2
		h0.8c0.1,0,0.2,0.1,0.2,0.2v1.9c0,0.1,0,0.1,0.1,0.1h1.4c0.1,0,0.1,0,0.1,0.1v0.6c0,0.1-0.1,0.1-0.2,0.1H208.2z"/>
</g>
<path fill="none" stroke="#CCCCCC" stroke-miterlimit="10" d="M120.4,1c0,1.5,1.2,2.8,2.8,2.8S126,2.5,126,1"/>
<path fill="none" stroke="#CCCCCC" stroke-miterlimit="10" d="M128.2,5.9"/>
<path fill="none" stroke="#CCCCCC" stroke-miterlimit="10" d="M128.2,1c0,1.5,1.2,2.8,2.8,2.8c1.5,0,2.8-1.2,2.8-2.8"/>
<path fill="none" stroke="#37B34A" stroke-width="0.6918" stroke-miterlimit="10" d="M135.9,5.9"/>
<path fill="none" stroke="#CCCCCC" stroke-miterlimit="10" d="M135.9,1c0,1.5,1.2,2.8,2.8,2.8s2.8-1.2,2.8-2.8"/>
<path fill="none" stroke="#CCCCCC" stroke-miterlimit="10" d="M120.4,16.7c0-1.5,1.2-2.8,2.8-2.8s2.8,1.2,2.8,2.8"/>
<path fill="none" stroke="#CCCCCC" stroke-miterlimit="10" d="M128.2,16.7c0-1.5,1.2-2.8,2.8-2.8c1.5,0,2.8,1.2,2.8,2.8"/>
<path fill="none" stroke="#CCCCCC" stroke-miterlimit="10" d="M135.9,16.7c0-1.5,1.2-2.8,2.8-2.8s2.8,1.2,2.8,2.8"/>
<circle fill="none" stroke="#CCCCCC" stroke-miterlimit="10" cx="123.2" cy="8.9" r="2.8"/>
<circle fill="none" stroke="#CCCCCC" stroke-miterlimit="10" cx="130.9" cy="8.9" r="2.8"/>
<circle fill="#CCCCCC" stroke="#CCCCCC" stroke-miterlimit="10" cx="138.7" cy="8.9" r="2.8"/>
<g>
</g>
<g>
</g>
<g>
</g>
<g>
</g>
<g>
</g>
<g>
</g>
<g>
</g>
<g>
</g>
<g>
</g>
<g>
</g>
<g>
</g>
<g>
</g>
<g>
</g>
<g>
</g>
<g>
</g>
</svg>
