<?xml version="1.0" encoding="utf-8"?>
<!-- Generator: Adobe Illustrator 17.1.0, SVG Export Plug-In . SVG Version: 6.00 Build 0)  -->
<!DOCTYPE svg PUBLIC "-//W3C//DTD SVG 1.1//EN" "http://www.w3.org/Graphics/SVG/1.1/DTD/svg11.dtd">
<svg version="1.1" id="Layer_1" xmlns="http://www.w3.org/2000/svg" xmlns:xlink="http://www.w3.org/1999/xlink" x="0px" y="0px"
	 width="240px" height="40px" viewBox="0 0 240 40" enable-background="new 0 0 240 40" xml:space="preserve">
<path fill="none" stroke="#F6A330" stroke-width="0.9915" stroke-miterlimit="10" d="M23.9,20.3"/>
<g>
	<path fill="#42DDFE" d="M33.9,3.5c-0.5-0.2-1.1-0.4-1.9-0.4c-0.9,0-1.5,0.2-2,0.5c-0.5,0.3-0.7,0.7-0.7,1.2c0,0.7,0.6,1.3,1.7,1.6
		l3.4,1c1.3,0.4,2.2,0.9,2.9,1.7c0.6,0.8,0.9,1.7,0.9,2.8c0,1-0.3,1.9-0.8,2.6c-0.5,0.7-1.3,1.3-2.2,1.7c-1,0.4-2.1,0.6-3.4,0.6
		c-1.5,0-2.8-0.2-4-0.7c-1.2-0.5-2-1.2-2.6-2c-0.1-0.1-0.1-0.2-0.1-0.3c0-0.1,0.1-0.2,0.2-0.4l1.7-1.1c0.1-0.1,0.3-0.1,0.4-0.1
		c0.1,0,0.2,0.1,0.3,0.2c0.5,0.7,1.1,1.2,1.6,1.5c0.5,0.3,1.3,0.4,2.2,0.4c1,0,1.7-0.2,2.3-0.5c0.5-0.3,0.8-0.8,0.8-1.4
		c0-0.4-0.1-0.7-0.4-1s-0.7-0.5-1.4-0.7l-3.3-0.9c-1.2-0.3-2.2-0.9-2.9-1.7c-0.7-0.8-1-1.7-1-2.8c0-0.9,0.3-1.7,0.8-2.5
		c0.5-0.7,1.2-1.3,2.2-1.7c0.9-0.4,2-0.6,3.2-0.6c1.2,0,2.3,0.2,3.3,0.6s1.8,1,2.3,1.6c0.1,0.1,0.1,0.2,0.1,0.3c0,0.1,0,0.2-0.1,0.2
		l-1.8,1.3c-0.1,0.1-0.2,0.1-0.2,0.1c-0.1,0-0.2-0.1-0.3-0.2C34.8,4.1,34.4,3.8,33.9,3.5z"/>
	<path fill="#42DDFE" d="M53.3,0.9c0.1,0.1,0.1,0.2,0,0.3l-5.2,15c-0.1,0.3-0.3,0.5-0.7,0.5h-2.7c-0.3,0-0.6-0.2-0.7-0.5L39,1.2
		l0-0.2c0-0.1,0-0.2,0.1-0.2c0.1-0.1,0.2-0.1,0.3-0.1h3.1c0.2,0,0.4,0.1,0.5,0.4L46.4,12c0,0.1,0,0.2,0.1,0.2c0.1,0,0.1-0.1,0.2-0.2
		l3.4-10.9c0.1-0.2,0.2-0.4,0.5-0.4H53C53.1,0.7,53.2,0.8,53.3,0.9z"/>
</g>
<path fill="none" stroke="#979797" stroke-width="0.9915" stroke-miterlimit="10" d="M24,20.3"/>
<g>
	<path fill="#42DDFE" d="M30.2,19.3C29.8,19.1,29.5,19,29,19c-0.6,0-1,0.1-1.3,0.4c-0.3,0.2-0.5,0.6-0.5,1c0,0.6,0.4,1,1.2,1.2
		l1.8,0.6c1.4,0.4,2,1.2,2,2.4c0,0.8-0.3,1.4-0.9,1.9c-0.6,0.5-1.4,0.7-2.4,0.7c-0.8,0-1.4-0.1-2-0.4c-0.6-0.3-1-0.6-1.4-1.1
		c0-0.1,0-0.1,0-0.1c0-0.1,0-0.1,0.1-0.2l0.6-0.4c0.1,0,0.1-0.1,0.2-0.1c0.1,0,0.1,0,0.1,0.1c0.3,0.4,0.7,0.7,1,0.9
		c0.3,0.2,0.8,0.3,1.3,0.3c0.6,0,1.1-0.1,1.5-0.3s0.5-0.6,0.5-1c0-0.3-0.1-0.5-0.3-0.7c-0.2-0.2-0.5-0.4-1-0.5l-1.8-0.6
		c-0.6-0.2-1.1-0.5-1.5-0.9c-0.3-0.4-0.5-0.9-0.5-1.4c0-0.5,0.1-1,0.4-1.3c0.3-0.4,0.6-0.7,1.1-0.9c0.5-0.2,1-0.3,1.6-0.3
		c0.6,0,1.2,0.1,1.7,0.3c0.5,0.2,0.9,0.5,1.2,0.9c0,0,0.1,0.1,0.1,0.1c0,0,0,0.1-0.1,0.1L31.2,20c0,0-0.1,0-0.1,0c0,0-0.1,0-0.1-0.1
		C30.7,19.6,30.5,19.4,30.2,19.3z"/>
	<path fill="#42DDFE" d="M35,21.6c-0.1,0-0.1,0-0.1,0.1v3.5c0,0.3,0.1,0.6,0.2,0.7c0.1,0.1,0.3,0.2,0.6,0.2h0.8c0.1,0,0.1,0,0.1,0.1
		v0.5c0,0.1-0.1,0.2-0.2,0.2c-0.3,0-0.7,0.1-1.2,0.1c-0.5,0-0.9-0.1-1.2-0.4s-0.4-0.6-0.4-1.1v-3.8c0-0.1,0-0.1-0.1-0.1h-0.9
		c-0.1,0-0.2,0-0.2-0.1v-0.6c0-0.1,0-0.1,0.1-0.1h1c0.1,0,0.1,0,0.1-0.1l0.1-1.9c0-0.1,0.1-0.2,0.1-0.2h0.8c0.1,0,0.2,0.1,0.2,0.2
		v1.9c0,0.1,0,0.1,0.1,0.1h1.4c0.1,0,0.1,0,0.1,0.1v0.6c0,0.1-0.1,0.1-0.2,0.1H35z"/>
	<path fill="#42DDFE" d="M37.6,26.8v-6c0-0.1,0.1-0.2,0.2-0.2h0.9c0.1,0,0.1,0.1,0.1,0.2v0.8c0,0,0,0.1,0,0.1c0,0,0.1,0,0.1,0
		c0.3-0.3,0.6-0.6,0.9-0.8c0.3-0.2,0.6-0.3,0.9-0.3c0.3,0,0.4,0.1,0.4,0.2v0.9c0,0.1,0,0.1-0.1,0.1c-0.2,0-0.4-0.1-0.6-0.1
		c-0.2,0-0.5,0.1-0.7,0.2s-0.5,0.3-0.6,0.5c-0.2,0.2-0.3,0.4-0.3,0.6v3.8c0,0.1-0.1,0.2-0.2,0.2h-0.9C37.6,27,37.6,26.9,37.6,26.8z"
		/>
	<path fill="#42DDFE" d="M46.1,25.2v-4.4c0-0.1,0.1-0.2,0.2-0.2h0.9c0.1,0,0.2,0.1,0.2,0.2l0,6c0,0.1,0,0.2-0.1,0.2h-0.9
		c-0.1,0-0.1-0.1-0.1-0.2v-0.7c0-0.1,0-0.1-0.1,0c-0.4,0.4-0.8,0.6-1.1,0.8c-0.3,0.1-0.7,0.2-1.1,0.2c-0.6,0-1-0.2-1.4-0.5
		s-0.5-0.8-0.5-1.4v-4.4c0-0.1,0.1-0.2,0.2-0.2H43c0.1,0,0.2,0.1,0.2,0.2V25c0,0.4,0.1,0.6,0.3,0.8c0.2,0.2,0.5,0.3,0.8,0.3
		C44.9,26.2,45.5,25.8,46.1,25.2z"/>
	<path fill="#42DDFE" d="M53,21c0.4,0.3,0.8,0.7,1,1.2c0,0,0,0.1,0,0.1c0,0,0,0.1-0.1,0.1l-0.9,0.1h0c0,0-0.1,0-0.1-0.1
		c-0.2-0.3-0.4-0.6-0.6-0.7c-0.2-0.2-0.5-0.2-0.8-0.2c-0.6,0-1,0.2-1.3,0.6s-0.5,1-0.5,1.8c0,0.8,0.2,1.4,0.5,1.8
		c0.3,0.4,0.8,0.6,1.4,0.6c0.4,0,0.7-0.1,0.9-0.3c0.3-0.2,0.5-0.5,0.7-0.8c0,0,0-0.1,0.1-0.1s0.1,0,0.1,0l0.6,0.2
		c0.1,0,0.1,0.1,0,0.2c-0.2,0.5-0.6,0.9-1,1.2c-0.4,0.3-1,0.5-1.6,0.5c-0.6,0-1.1-0.1-1.6-0.4S49,26,48.8,25.5
		c-0.3-0.5-0.4-1.1-0.4-1.7c0-0.6,0.1-1.2,0.4-1.7c0.3-0.5,0.6-0.9,1.1-1.2c0.5-0.3,1-0.4,1.6-0.4C52.1,20.5,52.6,20.7,53,21z"/>
	<path fill="#42DDFE" d="M56.9,21.6c-0.1,0-0.1,0-0.1,0.1v3.5c0,0.3,0.1,0.6,0.2,0.7c0.1,0.1,0.3,0.2,0.6,0.2h0.8
		c0.1,0,0.1,0,0.1,0.1v0.5c0,0.1-0.1,0.2-0.2,0.2c-0.3,0-0.7,0.1-1.2,0.1c-0.5,0-0.9-0.1-1.2-0.4s-0.4-0.6-0.4-1.1v-3.8
		c0-0.1,0-0.1-0.1-0.1h-0.9c-0.1,0-0.2,0-0.2-0.1v-0.6c0-0.1,0-0.1,0.1-0.1h1c0.1,0,0.1,0,0.1-0.1l0.1-1.9c0-0.1,0.1-0.2,0.1-0.2
		h0.8c0.1,0,0.2,0.1,0.2,0.2v1.9c0,0.1,0,0.1,0.1,0.1h1.4c0.1,0,0.1,0,0.1,0.1v0.6c0,0.1-0.1,0.1-0.2,0.1H56.9z"/>
	<path fill="#42DDFE" d="M63.5,25.2v-4.4c0-0.1,0.1-0.2,0.2-0.2h0.9c0.1,0,0.2,0.1,0.2,0.2l0,6c0,0.1,0,0.2-0.1,0.2h-0.9
		c-0.1,0-0.1-0.1-0.1-0.2v-0.7c0-0.1,0-0.1-0.1,0c-0.4,0.4-0.8,0.6-1.1,0.8c-0.3,0.1-0.7,0.2-1.1,0.2c-0.6,0-1-0.2-1.4-0.5
		s-0.5-0.8-0.5-1.4v-4.4c0-0.1,0.1-0.2,0.2-0.2h0.9c0.1,0,0.2,0.1,0.2,0.2V25c0,0.4,0.1,0.6,0.3,0.8c0.2,0.2,0.5,0.3,0.8,0.3
		C62.3,26.2,62.9,25.8,63.5,25.2z"/>
	<path fill="#42DDFE" d="M66.2,26.8v-6c0-0.1,0.1-0.2,0.2-0.2h0.9c0.1,0,0.1,0.1,0.1,0.2v0.8c0,0,0,0.1,0,0.1c0,0,0.1,0,0.1,0
		c0.3-0.3,0.6-0.6,0.9-0.8c0.3-0.2,0.6-0.3,0.9-0.3c0.3,0,0.4,0.1,0.4,0.2v0.9c0,0.1,0,0.1-0.1,0.1c-0.2,0-0.4-0.1-0.6-0.1
		c-0.2,0-0.5,0.1-0.7,0.2s-0.5,0.3-0.6,0.5c-0.2,0.2-0.3,0.4-0.3,0.6v3.8c0,0.1-0.1,0.2-0.2,0.2h-0.9C66.2,27,66.2,26.9,66.2,26.8z"
		/>
	<path fill="#42DDFE" d="M71.7,25.2c0.2,0.3,0.4,0.5,0.7,0.7c0.3,0.2,0.6,0.3,1,0.3c0.4,0,0.7-0.1,1-0.2c0.3-0.2,0.6-0.4,0.8-0.7
		c0,0,0.1,0,0.1,0c0,0,0.1,0,0.1,0l0.6,0.3c0,0,0.1,0.1,0.1,0.1c0,0,0,0.1,0,0.1c-0.3,0.5-0.7,0.9-1.2,1.1s-1,0.3-1.6,0.3
		c-0.6,0-1.1-0.1-1.6-0.4c-0.5-0.3-0.8-0.7-1.1-1.1c-0.3-0.5-0.4-1.1-0.4-1.7c0-0.7,0.1-1.3,0.4-1.8s0.6-0.9,1.1-1.2
		c0.5-0.3,1-0.4,1.6-0.4c0.6,0,1.1,0.1,1.6,0.4c0.4,0.3,0.8,0.6,1,1.1s0.4,1.1,0.4,1.8v0c0,0.1,0,0.1,0,0.2c0,0-0.1,0.1-0.1,0.1
		h-4.4c-0.1,0-0.1,0.1-0.1,0.2C71.4,24.6,71.5,25,71.7,25.2z M74.7,23.3c0.1,0,0.1,0,0.2,0c0,0,0-0.1,0-0.1c0-0.3-0.1-0.6-0.2-0.9
		c-0.1-0.3-0.3-0.5-0.6-0.7s-0.6-0.2-0.9-0.2c-0.4,0-0.7,0.1-0.9,0.3c-0.3,0.2-0.5,0.4-0.6,0.7c-0.1,0.3-0.2,0.6-0.2,1L74.7,23.3z"
		/>
	<path fill="#42DDFE" d="M33.1,28.7c0,0,0,0.1,0,0.1l-3,8.5c0,0.1-0.1,0.1-0.1,0.2s-0.1,0-0.2,0h-1c-0.2,0-0.3-0.1-0.3-0.2l-2.9-8.5
		c0,0,0,0,0-0.1c0,0,0-0.1,0-0.1c0,0,0.1,0,0.1,0h1.1c0.1,0,0.2,0.1,0.2,0.2l2.3,6.9c0,0.1,0,0.1,0.1,0.1c0,0,0.1,0,0.1-0.1l2.3-6.9
		c0-0.1,0.1-0.2,0.2-0.2h0.9C33,28.6,33,28.6,33.1,28.7z"/>
	<path fill="#42DDFE" d="M35.2,29.9c0,0.1,0,0.2-0.1,0.2c0,0-0.1,0.1-0.2,0.1h-0.9c-0.1,0-0.1,0-0.2-0.1c0,0,0-0.1,0-0.2v-1.1
		c0-0.1,0.1-0.2,0.2-0.2h1c0,0,0.1,0,0.1,0.1c0,0,0,0.1,0,0.1V29.9z M35.2,37.3c0,0.1,0,0.1-0.1,0.2s-0.1,0-0.2,0h-0.8
		c-0.1,0-0.1,0-0.2,0c0,0,0-0.1,0-0.2v-6c0-0.1,0-0.1,0-0.1c0,0,0.1,0,0.1,0h1c0.1,0,0.1,0.1,0.1,0.2V37.3z"/>
	<path fill="#42DDFE" d="M39.7,32.1c-0.3-0.1-0.6-0.2-0.9-0.2c-0.4,0-0.7,0.1-1,0.2c-0.3,0.2-0.4,0.4-0.4,0.7c0,0.2,0.1,0.3,0.2,0.4
		c0.1,0.1,0.4,0.2,0.7,0.3l1.5,0.4c0.6,0.1,1,0.4,1.2,0.7s0.4,0.7,0.4,1.1c0,0.4-0.1,0.7-0.3,1s-0.5,0.5-1,0.7
		c-0.4,0.2-0.9,0.2-1.4,0.2c-0.6,0-1.2-0.1-1.7-0.4s-0.8-0.6-1-1c0,0,0-0.1,0-0.1c0,0,0-0.1,0.1-0.1l0.6-0.3c0,0,0.1,0,0.1,0
		c0,0,0.1,0,0.1,0c0.4,0.6,1.1,1,1.9,1c0.4,0,0.8-0.1,1.1-0.2c0.3-0.2,0.4-0.4,0.4-0.7c0-0.2-0.1-0.4-0.2-0.5
		c-0.2-0.1-0.4-0.3-0.8-0.4L38,34.7c-0.6-0.1-1-0.4-1.3-0.6c-0.3-0.3-0.4-0.6-0.4-1.1c0-0.4,0.1-0.7,0.3-1s0.5-0.5,0.9-0.7
		c0.4-0.2,0.8-0.2,1.3-0.2c0.5,0,1,0.1,1.5,0.3s0.8,0.5,1,0.8c0,0,0,0.1,0,0.1c0,0,0,0.1-0.1,0.1l-0.6,0.3c0,0,0,0-0.1,0
		c0,0-0.1,0-0.1-0.1C40.2,32.4,40,32.2,39.7,32.1z"/>
	<path fill="#42DDFE" d="M46.5,35.7v-4.4c0-0.1,0.1-0.2,0.2-0.2h0.9c0.1,0,0.2,0.1,0.2,0.2l0,6c0,0.1,0,0.2-0.1,0.2h-0.9
		c-0.1,0-0.1-0.1-0.1-0.2v-0.7c0-0.1,0-0.1-0.1,0c-0.4,0.4-0.8,0.6-1.1,0.8c-0.3,0.1-0.7,0.2-1.1,0.2c-0.6,0-1-0.2-1.4-0.5
		s-0.5-0.8-0.5-1.4v-4.4c0-0.1,0.1-0.2,0.2-0.2h0.9c0.1,0,0.2,0.1,0.2,0.2v4.2c0,0.4,0.1,0.6,0.3,0.8c0.2,0.2,0.5,0.3,0.8,0.3
		C45.3,36.7,45.9,36.3,46.5,35.7z"/>
	<path fill="#42DDFE" d="M50.7,37.6c-0.6,0-1.1-0.2-1.5-0.5c-0.4-0.3-0.5-0.7-0.5-1.3c0-0.6,0.3-1.2,0.8-1.5s1.4-0.6,2.4-0.6
		l0.8-0.1c0.1,0,0.2-0.1,0.2-0.2v-0.3c0-0.4-0.1-0.7-0.4-0.9c-0.2-0.2-0.6-0.3-1-0.3c-0.7,0-1.2,0.3-1.6,0.9c0,0-0.1,0.1-0.1,0.1
		c0,0-0.1,0-0.1,0L49,32.6c0,0-0.1,0-0.1-0.1c0,0,0-0.1,0-0.1c0.2-0.4,0.6-0.8,1-1s1-0.4,1.7-0.4c0.8,0,1.5,0.2,1.9,0.5
		c0.4,0.4,0.6,0.9,0.6,1.5v4.2c0,0.1,0,0.1,0,0.2s-0.1,0-0.1,0h-0.8c-0.1,0-0.2-0.1-0.2-0.2l0-0.5c0-0.1,0-0.1-0.1-0.1
		c0,0-0.1,0-0.1,0.1C52.2,37.3,51.5,37.6,50.7,37.6z M52.8,34.3l-0.6,0c-0.7,0-1.2,0.2-1.6,0.4C50.2,35,50,35.3,50,35.7
		c0,0.3,0.1,0.6,0.3,0.7c0.2,0.2,0.5,0.3,0.9,0.3c0.4,0,0.8-0.1,1.2-0.4c0.3-0.3,0.5-0.6,0.5-0.8v-0.9C53,34.4,52.9,34.3,52.8,34.3z
		"/>
	<path fill="#42DDFE" d="M56.8,37.3c0,0.1,0,0.1-0.1,0.2c0,0-0.1,0-0.2,0h-0.8c-0.1,0-0.1,0-0.2,0c0,0,0-0.1,0-0.2l0-8.5
		c0-0.1,0.1-0.2,0.2-0.2h0.9c0.1,0,0.2,0.1,0.2,0.2V37.3z"/>
	<path fill="#42DDFE" d="M59.5,29.9c0,0.1,0,0.2-0.1,0.2c0,0-0.1,0.1-0.2,0.1h-0.9c-0.1,0-0.1,0-0.2-0.1c0,0,0-0.1,0-0.2v-1.1
		c0-0.1,0.1-0.2,0.2-0.2h1c0,0,0.1,0,0.1,0.1c0,0,0,0.1,0,0.1V29.9z M59.4,37.3c0,0.1,0,0.1-0.1,0.2s-0.1,0-0.2,0h-0.8
		c-0.1,0-0.1,0-0.2,0c0,0,0-0.1,0-0.2v-6c0-0.1,0-0.1,0-0.1c0,0,0.1,0,0.1,0h1c0.1,0,0.1,0.1,0.1,0.2V37.3z"/>
	<path fill="#42DDFE" d="M60.4,37.5c0,0,0-0.1,0-0.1v-0.4c0-0.1,0-0.1,0-0.2s0.1-0.1,0.1-0.2l3.3-4.4l0-0.1c0,0,0-0.1-0.1-0.1h-3
		c-0.1,0-0.1,0-0.1,0s0-0.1,0-0.1v-0.5c0-0.1,0-0.1,0.1-0.1h4.6c0.1,0,0.1,0,0.1,0.1v0.4c0,0.1,0,0.2-0.1,0.4L62,36.5
		c0,0,0,0.1,0,0.1c0,0,0,0.1,0.1,0.1h3.3c0.1,0,0.2,0,0.2,0.1v0.6c0,0.1-0.1,0.2-0.2,0.2h-4.8C60.4,37.5,60.4,37.5,60.4,37.5z"/>
	<path fill="#42DDFE" d="M68,37.6c-0.6,0-1.1-0.2-1.5-0.5c-0.4-0.3-0.5-0.7-0.5-1.3c0-0.6,0.3-1.2,0.8-1.5s1.4-0.6,2.4-0.6l0.8-0.1
		c0.1,0,0.2-0.1,0.2-0.2v-0.3c0-0.4-0.1-0.7-0.4-0.9c-0.2-0.2-0.6-0.3-1-0.3c-0.7,0-1.2,0.3-1.6,0.9c0,0-0.1,0.1-0.1,0.1
		c0,0-0.1,0-0.1,0l-0.8-0.2c0,0-0.1,0-0.1-0.1c0,0,0-0.1,0-0.1c0.2-0.4,0.6-0.8,1-1s1-0.4,1.7-0.4c0.8,0,1.5,0.2,1.9,0.5
		c0.4,0.4,0.6,0.9,0.6,1.5v4.2c0,0.1,0,0.1,0,0.2s-0.1,0-0.1,0h-0.8c-0.1,0-0.2-0.1-0.2-0.2l0-0.5c0-0.1,0-0.1-0.1-0.1
		c0,0-0.1,0-0.1,0.1C69.5,37.3,68.8,37.6,68,37.6z M70.1,34.3l-0.6,0c-0.7,0-1.2,0.2-1.6,0.4c-0.4,0.2-0.6,0.5-0.6,0.9
		c0,0.3,0.1,0.6,0.3,0.7c0.2,0.2,0.5,0.3,0.9,0.3c0.4,0,0.8-0.1,1.2-0.4c0.3-0.3,0.5-0.6,0.5-0.8v-0.9
		C70.3,34.4,70.2,34.3,70.1,34.3z"/>
	<path fill="#42DDFE" d="M74.8,32.1c-0.1,0-0.1,0-0.1,0.1v3.5c0,0.3,0.1,0.6,0.2,0.7c0.1,0.1,0.3,0.2,0.6,0.2h0.8
		c0.1,0,0.1,0,0.1,0.1v0.5c0,0.1-0.1,0.2-0.2,0.2c-0.3,0-0.7,0.1-1.2,0.1c-0.5,0-0.9-0.1-1.2-0.4s-0.4-0.6-0.4-1.1v-3.8
		c0-0.1,0-0.1-0.1-0.1h-0.9c-0.1,0-0.2,0-0.2-0.1v-0.6c0-0.1,0-0.1,0.1-0.1h1c0.1,0,0.1,0,0.1-0.1l0.1-1.9c0-0.1,0.1-0.2,0.1-0.2
		h0.8c0.1,0,0.2,0.1,0.2,0.2V31c0,0.1,0,0.1,0.1,0.1h1.4c0.1,0,0.1,0,0.1,0.1v0.6c0,0.1-0.1,0.1-0.2,0.1H74.8z"/>
	<path fill="#42DDFE" d="M78.6,29.9c0,0.1,0,0.2-0.1,0.2c0,0-0.1,0.1-0.2,0.1h-0.9c-0.1,0-0.1,0-0.2-0.1c0,0,0-0.1,0-0.2v-1.1
		c0-0.1,0.1-0.2,0.2-0.2h1c0,0,0.1,0,0.1,0.1c0,0,0,0.1,0,0.1V29.9z M78.5,37.3c0,0.1,0,0.1-0.1,0.2s-0.1,0-0.2,0h-0.8
		c-0.1,0-0.1,0-0.2,0c0,0,0-0.1,0-0.2v-6c0-0.1,0-0.1,0-0.1c0,0,0.1,0,0.1,0h1c0.1,0,0.1,0.1,0.1,0.2V37.3z"/>
	<path fill="#42DDFE" d="M81.1,37.2c-0.5-0.3-0.8-0.7-1.1-1.2c-0.3-0.5-0.4-1.1-0.4-1.7c0-0.6,0.1-1.2,0.4-1.7
		c0.3-0.5,0.6-0.9,1.1-1.2c0.5-0.3,1-0.4,1.6-0.4c0.6,0,1.1,0.1,1.6,0.4c0.5,0.3,0.8,0.7,1.1,1.2c0.3,0.5,0.4,1.1,0.4,1.7
		c0,0.6-0.1,1.2-0.4,1.7s-0.6,0.9-1.1,1.2c-0.5,0.3-1,0.4-1.6,0.4S81.5,37.5,81.1,37.2z M84,36.1c0.3-0.4,0.5-1,0.5-1.8
		S84.3,33,84,32.5c-0.3-0.4-0.8-0.6-1.3-0.6c-0.6,0-1,0.2-1.3,0.6c-0.3,0.4-0.5,1-0.5,1.8c0,0.8,0.2,1.3,0.5,1.8
		c0.3,0.4,0.8,0.6,1.3,0.6C83.3,36.7,83.7,36.5,84,36.1z"/>
	<path fill="#42DDFE" d="M86.8,37.3v-6c0-0.1,0.1-0.2,0.2-0.2h0.9c0.1,0,0.1,0.1,0.1,0.2V32c0,0,0,0.1,0,0.1c0,0,0,0,0.1,0
		c0.4-0.3,0.8-0.6,1.1-0.7c0.3-0.2,0.7-0.2,1-0.2c0.6,0,1.1,0.2,1.4,0.5c0.3,0.3,0.5,0.8,0.5,1.3v4.4c0,0.1-0.1,0.2-0.2,0.2h-0.9
		c-0.1,0-0.2-0.1-0.2-0.2v-4.2c0-0.4-0.1-0.6-0.3-0.8c-0.2-0.2-0.5-0.3-0.8-0.3c-0.3,0-0.6,0.1-0.8,0.2c-0.3,0.1-0.6,0.4-0.9,0.7
		v4.4c0,0.1,0,0.1-0.1,0.2s-0.1,0-0.2,0H87C86.9,37.5,86.8,37.4,86.8,37.3z"/>
</g>
<path fill="none" stroke="#42DDFE" stroke-miterlimit="10" d="M1,1c0,1.5,1.2,2.8,2.8,2.8S6.5,2.5,6.5,1"/>
<path fill="none" stroke="#42DDFE" stroke-miterlimit="10" d="M8.7,5.9"/>
<path fill="none" stroke="#42DDFE" stroke-miterlimit="10" d="M8.7,1c0,1.5,1.2,2.8,2.8,2.8c1.5,0,2.8-1.2,2.8-2.8"/>
<path fill="none" stroke="#42DDFE" stroke-width="0.6918" stroke-miterlimit="10" d="M16.5,5.9"/>
<path fill="none" stroke="#42DDFE" stroke-miterlimit="10" d="M16.5,1c0,1.5,1.2,2.8,2.8,2.8C20.7,3.8,22,2.5,22,1"/>
<path fill="none" stroke="#42DDFE" stroke-miterlimit="10" d="M1,16.7c0-1.5,1.2-2.8,2.8-2.8s2.8,1.2,2.8,2.8"/>
<path fill="none" stroke="#42DDFE" stroke-miterlimit="10" d="M8.7,16.7c0-1.5,1.2-2.8,2.8-2.8c1.5,0,2.8,1.2,2.8,2.8"/>
<path fill="none" stroke="#42DDFE" stroke-miterlimit="10" d="M16.5,16.7c0-1.5,1.2-2.8,2.8-2.8c1.5,0,2.8,1.2,2.8,2.8"/>
<circle fill="none" stroke="#42DDFE" stroke-miterlimit="10" cx="3.8" cy="8.9" r="2.8"/>
<circle fill="none" stroke="#42DDFE" stroke-miterlimit="10" cx="11.5" cy="8.9" r="2.8"/>
<circle fill="#42DDFE" stroke="#42DDFE" stroke-miterlimit="10" cx="19.2" cy="8.9" r="2.8"/>
<path fill="none" stroke="#979797" stroke-width="0.9915" stroke-miterlimit="10" d="M143.4,20.3"/>
<g>
	<g>
		<path fill="#CCCCCC" d="M153.4,3.5c-0.5-0.2-1.1-0.4-1.9-0.4c-0.9,0-1.5,0.2-2,0.5c-0.5,0.3-0.7,0.7-0.7,1.2
			c0,0.7,0.6,1.3,1.7,1.6l3.4,1c1.3,0.4,2.2,0.9,2.9,1.7c0.6,0.8,0.9,1.7,0.9,2.8c0,1-0.3,1.9-0.8,2.6c-0.5,0.7-1.3,1.3-2.2,1.7
			c-1,0.4-2.1,0.6-3.4,0.6c-1.5,0-2.8-0.2-4-0.7c-1.2-0.5-2-1.2-2.6-2c-0.1-0.1-0.1-0.2-0.1-0.3c0-0.1,0.1-0.2,0.2-0.4l1.7-1.1
			c0.1-0.1,0.3-0.1,0.4-0.1c0.1,0,0.2,0.1,0.3,0.2c0.5,0.7,1.1,1.2,1.6,1.5c0.5,0.3,1.3,0.4,2.2,0.4c1,0,1.7-0.2,2.3-0.5
			c0.5-0.3,0.8-0.8,0.8-1.4c0-0.4-0.1-0.7-0.4-1c-0.3-0.3-0.7-0.5-1.4-0.7l-3.3-0.9c-1.2-0.3-2.2-0.9-2.9-1.7c-0.7-0.8-1-1.7-1-2.8
			c0-0.9,0.3-1.7,0.8-2.5c0.5-0.7,1.2-1.3,2.2-1.7c0.9-0.4,2-0.6,3.2-0.6c1.2,0,2.3,0.2,3.3,0.6s1.8,1,2.3,1.6
			c0.1,0.1,0.1,0.2,0.1,0.3c0,0.1,0,0.2-0.1,0.2l-1.8,1.3c-0.1,0.1-0.2,0.1-0.2,0.1c-0.1,0-0.2-0.1-0.3-0.2
			C154.3,4.1,153.8,3.8,153.4,3.5z"/>
		<path fill="#CCCCCC" d="M172.7,0.9c0.1,0.1,0.1,0.2,0,0.3l-5.2,15c-0.1,0.3-0.3,0.5-0.7,0.5h-2.7c-0.3,0-0.6-0.2-0.7-0.5l-5.1-15
			l0-0.2c0-0.1,0-0.2,0.1-0.2s0.2-0.1,0.3-0.1h3.1c0.2,0,0.4,0.1,0.5,0.4l3.5,10.9c0,0.1,0,0.2,0.1,0.2s0.1-0.1,0.2-0.2l3.4-10.9
			c0.1-0.2,0.2-0.4,0.5-0.4h2.4C172.6,0.7,172.7,0.8,172.7,0.9z"/>
	</g>
</g>
<path fill="none" stroke="#979797" stroke-width="0.9915" stroke-miterlimit="10" d="M143.5,20.3"/>
<g>
	<g>
		<path fill="#CCCCCC" d="M149.6,19.3c-0.3-0.2-0.7-0.2-1.1-0.2c-0.6,0-1,0.1-1.3,0.4c-0.3,0.2-0.5,0.6-0.5,1c0,0.6,0.4,1,1.2,1.2
			l1.8,0.6c1.4,0.4,2,1.2,2,2.4c0,0.8-0.3,1.4-0.9,1.9c-0.6,0.5-1.4,0.7-2.4,0.7c-0.8,0-1.4-0.1-2-0.4c-0.6-0.3-1-0.6-1.4-1.1
			c0-0.1,0-0.1,0-0.1c0-0.1,0-0.1,0.1-0.2l0.6-0.4c0.1,0,0.1-0.1,0.2-0.1c0.1,0,0.1,0,0.1,0.1c0.3,0.4,0.7,0.7,1,0.9
			c0.3,0.2,0.8,0.3,1.3,0.3c0.6,0,1.1-0.1,1.5-0.3c0.4-0.2,0.5-0.6,0.5-1c0-0.3-0.1-0.5-0.3-0.7c-0.2-0.2-0.5-0.4-1-0.5l-1.8-0.6
			c-0.6-0.2-1.1-0.5-1.5-0.9s-0.5-0.9-0.5-1.4c0-0.5,0.1-1,0.4-1.3c0.3-0.4,0.6-0.7,1.1-0.9c0.5-0.2,1-0.3,1.7-0.3
			c0.6,0,1.2,0.1,1.7,0.3c0.5,0.2,0.9,0.5,1.2,0.9c0,0,0.1,0.1,0.1,0.1c0,0,0,0.1-0.1,0.1l-0.7,0.5c0,0-0.1,0-0.1,0
			c0,0-0.1,0-0.1-0.1C150.2,19.6,149.9,19.4,149.6,19.3z"/>
		<path fill="#CCCCCC" d="M154.5,21.6c-0.1,0-0.1,0-0.1,0.1v3.5c0,0.3,0.1,0.6,0.2,0.7s0.3,0.2,0.6,0.2h0.8c0.1,0,0.1,0,0.1,0.1v0.5
			c0,0.1-0.1,0.2-0.2,0.2c-0.3,0-0.7,0.1-1.2,0.1c-0.5,0-0.9-0.1-1.2-0.4s-0.4-0.6-0.4-1.1v-3.8c0-0.1,0-0.1-0.1-0.1h-0.9
			c-0.1,0-0.2,0-0.2-0.1v-0.6c0-0.1,0-0.1,0.1-0.1h1c0.1,0,0.1,0,0.1-0.1l0.1-1.9c0-0.1,0.1-0.2,0.1-0.2h0.8c0.1,0,0.2,0.1,0.2,0.2
			v1.9c0,0.1,0,0.1,0.1,0.1h1.4c0.1,0,0.1,0,0.1,0.1v0.6c0,0.1-0.1,0.1-0.2,0.1H154.5z"/>
		<path fill="#CCCCCC" d="M157,26.8v-6c0-0.1,0.1-0.2,0.2-0.2h0.9c0.1,0,0.1,0.1,0.1,0.2v0.8c0,0,0,0.1,0,0.1c0,0,0.1,0,0.1,0
			c0.3-0.3,0.6-0.6,0.9-0.8s0.6-0.3,0.9-0.3c0.3,0,0.4,0.1,0.4,0.2v0.9c0,0.1,0,0.1-0.1,0.1c-0.2,0-0.4-0.1-0.6-0.1
			c-0.2,0-0.5,0.1-0.7,0.2s-0.5,0.3-0.6,0.5c-0.2,0.2-0.3,0.4-0.3,0.6v3.8c0,0.1-0.1,0.2-0.2,0.2h-0.9C157.1,27,157,26.9,157,26.8z"
			/>
		<path fill="#CCCCCC" d="M165.5,25.2v-4.4c0-0.1,0.1-0.2,0.2-0.2h0.9c0.1,0,0.2,0.1,0.2,0.2l0,6c0,0.1,0,0.2-0.1,0.2h-0.9
			c-0.1,0-0.1-0.1-0.1-0.2v-0.7c0-0.1,0-0.1-0.1,0c-0.4,0.4-0.8,0.6-1.1,0.8c-0.3,0.1-0.7,0.2-1.1,0.2c-0.6,0-1-0.2-1.4-0.5
			s-0.5-0.8-0.5-1.4v-4.4c0-0.1,0.1-0.2,0.2-0.2h0.9c0.1,0,0.2,0.1,0.2,0.2V25c0,0.4,0.1,0.6,0.3,0.8c0.2,0.2,0.5,0.3,0.8,0.3
			C164.3,26.2,164.9,25.8,165.5,25.2z"/>
		<path fill="#CCCCCC" d="M172.5,21c0.4,0.3,0.8,0.7,1,1.2c0,0,0,0.1,0,0.1c0,0,0,0.1-0.1,0.1l-0.9,0.1h0c0,0-0.1,0-0.1-0.1
			c-0.2-0.3-0.4-0.6-0.6-0.7c-0.2-0.2-0.5-0.2-0.8-0.2c-0.6,0-1,0.2-1.3,0.6s-0.5,1-0.5,1.8c0,0.8,0.2,1.4,0.5,1.8
			c0.3,0.4,0.8,0.6,1.4,0.6c0.4,0,0.7-0.1,0.9-0.3c0.3-0.2,0.5-0.5,0.7-0.8c0,0,0-0.1,0.1-0.1s0.1,0,0.1,0l0.6,0.2
			c0.1,0,0.1,0.1,0,0.2c-0.2,0.5-0.6,0.9-1,1.2c-0.4,0.3-1,0.5-1.6,0.5c-0.6,0-1.1-0.1-1.6-0.4s-0.8-0.7-1.1-1.2s-0.4-1.1-0.4-1.7
			c0-0.6,0.1-1.2,0.4-1.7s0.6-0.9,1.1-1.2c0.5-0.3,1-0.4,1.6-0.4C171.5,20.5,172,20.7,172.5,21z"/>
		<path fill="#CCCCCC" d="M176.4,21.6c-0.1,0-0.1,0-0.1,0.1v3.5c0,0.3,0.1,0.6,0.2,0.7c0.1,0.1,0.3,0.2,0.6,0.2h0.8
			c0.1,0,0.1,0,0.1,0.1v0.5c0,0.1-0.1,0.2-0.2,0.2c-0.3,0-0.7,0.1-1.2,0.1c-0.5,0-0.9-0.1-1.2-0.4S175,26,175,25.5v-3.8
			c0-0.1,0-0.1-0.1-0.1H174c-0.1,0-0.2,0-0.2-0.1v-0.6c0-0.1,0-0.1,0.1-0.1h1c0.1,0,0.1,0,0.1-0.1l0.1-1.9c0-0.1,0.1-0.2,0.1-0.2
			h0.8c0.1,0,0.2,0.1,0.2,0.2v1.9c0,0.1,0,0.1,0.1,0.1h1.4c0.1,0,0.1,0,0.1,0.1v0.6c0,0.1-0.1,0.1-0.2,0.1H176.4z"/>
		<path fill="#CCCCCC" d="M182.9,25.2v-4.4c0-0.1,0.1-0.2,0.2-0.2h0.9c0.1,0,0.2,0.1,0.2,0.2l0,6c0,0.1,0,0.2-0.1,0.2h-0.9
			c-0.1,0-0.1-0.1-0.1-0.2v-0.7c0-0.1,0-0.1-0.1,0c-0.4,0.4-0.8,0.6-1.1,0.8c-0.3,0.1-0.7,0.2-1.1,0.2c-0.6,0-1-0.2-1.4-0.5
			c-0.4-0.3-0.5-0.8-0.5-1.4v-4.4c0-0.1,0.1-0.2,0.2-0.2h0.9c0.1,0,0.2,0.1,0.2,0.2V25c0,0.4,0.1,0.6,0.3,0.8
			c0.2,0.2,0.5,0.3,0.8,0.3C181.8,26.2,182.3,25.8,182.9,25.2z"/>
		<path fill="#CCCCCC" d="M185.6,26.8v-6c0-0.1,0.1-0.2,0.2-0.2h0.9c0.1,0,0.1,0.1,0.1,0.2v0.8c0,0,0,0.1,0,0.1c0,0,0.1,0,0.1,0
			c0.3-0.3,0.6-0.6,0.9-0.8s0.6-0.3,0.9-0.3c0.3,0,0.4,0.1,0.4,0.2v0.9c0,0.1,0,0.1-0.1,0.1c-0.2,0-0.4-0.1-0.6-0.1
			c-0.2,0-0.5,0.1-0.7,0.2s-0.5,0.3-0.6,0.5c-0.2,0.2-0.3,0.4-0.3,0.6v3.8c0,0.1-0.1,0.2-0.2,0.2h-0.9
			C185.7,27,185.6,26.9,185.6,26.8z"/>
		<path fill="#CCCCCC" d="M191.1,25.2c0.2,0.3,0.4,0.5,0.7,0.7c0.3,0.2,0.6,0.3,1,0.3c0.4,0,0.7-0.1,1-0.2c0.3-0.2,0.6-0.4,0.8-0.7
			c0,0,0.1,0,0.1,0c0,0,0.1,0,0.1,0l0.6,0.3c0,0,0.1,0.1,0.1,0.1c0,0,0,0.1,0,0.1c-0.3,0.5-0.7,0.9-1.2,1.1c-0.4,0.2-1,0.3-1.6,0.3
			c-0.6,0-1.1-0.1-1.6-0.4c-0.5-0.3-0.8-0.7-1.1-1.1c-0.3-0.5-0.4-1.1-0.4-1.7c0-0.7,0.1-1.3,0.4-1.8s0.6-0.9,1.1-1.2
			c0.5-0.3,1-0.4,1.6-0.4c0.6,0,1.1,0.1,1.6,0.4c0.4,0.3,0.8,0.6,1,1.1s0.4,1.1,0.4,1.8v0c0,0.1,0,0.1,0,0.2c0,0-0.1,0.1-0.1,0.1
			H191c-0.1,0-0.1,0.1-0.1,0.2C190.9,24.6,190.9,25,191.1,25.2z M194.1,23.3c0.1,0,0.1,0,0.2,0c0,0,0-0.1,0-0.1
			c0-0.3-0.1-0.6-0.2-0.9c-0.1-0.3-0.3-0.5-0.6-0.7s-0.5-0.2-0.9-0.2c-0.4,0-0.7,0.1-0.9,0.3c-0.3,0.2-0.5,0.4-0.6,0.7
			c-0.1,0.3-0.2,0.6-0.2,1L194.1,23.3z"/>
		<path fill="#CCCCCC" d="M152.5,28.7c0,0,0,0.1,0,0.1l-3,8.5c0,0.1-0.1,0.1-0.1,0.2c0,0-0.1,0-0.2,0h-1c-0.2,0-0.3-0.1-0.3-0.2
			l-2.9-8.5c0,0,0,0,0-0.1c0,0,0-0.1,0-0.1c0,0,0.1,0,0.1,0h1.1c0.1,0,0.2,0.1,0.2,0.2l2.3,6.9c0,0.1,0,0.1,0.1,0.1
			c0,0,0.1,0,0.1-0.1l2.3-6.9c0-0.1,0.1-0.2,0.2-0.2h0.9C152.4,28.6,152.5,28.6,152.5,28.7z"/>
		<path fill="#CCCCCC" d="M154.6,29.9c0,0.1,0,0.2-0.1,0.2c0,0-0.1,0.1-0.2,0.1h-0.9c-0.1,0-0.1,0-0.2-0.1c0,0,0-0.1,0-0.2v-1.1
			c0-0.1,0.1-0.2,0.2-0.2h1c0,0,0.1,0,0.1,0.1c0,0,0,0.1,0,0.1V29.9z M154.6,37.3c0,0.1,0,0.1-0.1,0.2c0,0-0.1,0-0.2,0h-0.8
			c-0.1,0-0.1,0-0.2,0c0,0,0-0.1,0-0.2v-6c0-0.1,0-0.1,0-0.1c0,0,0.1,0,0.1,0h1c0.1,0,0.1,0.1,0.1,0.2V37.3z"/>
		<path fill="#CCCCCC" d="M159.2,32.1c-0.3-0.1-0.6-0.2-0.9-0.2c-0.4,0-0.7,0.1-1,0.2c-0.3,0.2-0.4,0.4-0.4,0.7
			c0,0.2,0.1,0.3,0.2,0.4s0.4,0.2,0.7,0.3l1.5,0.4c0.6,0.1,1,0.4,1.2,0.7c0.3,0.3,0.4,0.7,0.4,1.1c0,0.4-0.1,0.7-0.3,1
			s-0.5,0.5-1,0.7c-0.4,0.2-0.9,0.2-1.4,0.2c-0.6,0-1.2-0.1-1.7-0.4c-0.5-0.2-0.8-0.6-1-1c0,0,0-0.1,0-0.1c0,0,0-0.1,0.1-0.1
			l0.6-0.3c0,0,0.1,0,0.1,0c0,0,0.1,0,0.1,0c0.4,0.6,1.1,1,1.9,1c0.4,0,0.8-0.1,1.1-0.2c0.3-0.2,0.4-0.4,0.4-0.7
			c0-0.2-0.1-0.4-0.2-0.5c-0.2-0.1-0.4-0.3-0.8-0.4l-1.2-0.3c-0.6-0.1-1-0.4-1.3-0.6c-0.3-0.3-0.4-0.6-0.4-1.1c0-0.4,0.1-0.7,0.3-1
			s0.5-0.5,0.9-0.7c0.4-0.2,0.8-0.2,1.3-0.2c0.5,0,1,0.1,1.5,0.3c0.4,0.2,0.8,0.5,1,0.8c0,0,0,0.1,0,0.1c0,0,0,0.1-0.1,0.1l-0.6,0.3
			c0,0,0,0-0.1,0c0,0-0.1,0-0.1-0.1C159.7,32.4,159.4,32.2,159.2,32.1z"/>
		<path fill="#CCCCCC" d="M165.9,35.7v-4.4c0-0.1,0.1-0.2,0.2-0.2h0.9c0.1,0,0.2,0.1,0.2,0.2l0,6c0,0.1,0,0.2-0.1,0.2h-0.9
			c-0.1,0-0.1-0.1-0.1-0.2v-0.7c0-0.1,0-0.1-0.1,0c-0.4,0.4-0.8,0.6-1.1,0.8c-0.3,0.1-0.7,0.2-1.1,0.2c-0.6,0-1-0.2-1.4-0.5
			c-0.4-0.3-0.5-0.8-0.5-1.4v-4.4c0-0.1,0.1-0.2,0.2-0.2h0.9c0.1,0,0.2,0.1,0.2,0.2v4.2c0,0.4,0.1,0.6,0.3,0.8
			c0.2,0.2,0.5,0.3,0.8,0.3C164.8,36.7,165.3,36.3,165.9,35.7z"/>
		<path fill="#CCCCCC" d="M170.2,37.6c-0.6,0-1.1-0.2-1.5-0.5c-0.4-0.3-0.5-0.7-0.5-1.3c0-0.6,0.3-1.2,0.8-1.5s1.4-0.6,2.4-0.6
			l0.8-0.1c0.1,0,0.2-0.1,0.2-0.2v-0.3c0-0.4-0.1-0.7-0.4-0.9c-0.2-0.2-0.6-0.3-1-0.3c-0.7,0-1.2,0.3-1.6,0.9c0,0-0.1,0.1-0.1,0.1
			c0,0-0.1,0-0.1,0l-0.8-0.2c0,0-0.1,0-0.1-0.1c0,0,0-0.1,0-0.1c0.2-0.4,0.6-0.8,1-1c0.5-0.2,1-0.4,1.7-0.4c0.8,0,1.5,0.2,1.9,0.5
			c0.4,0.4,0.6,0.9,0.6,1.5v4.2c0,0.1,0,0.1,0,0.2c0,0-0.1,0-0.1,0h-0.8c-0.1,0-0.2-0.1-0.2-0.2l0-0.5c0-0.1,0-0.1-0.1-0.1
			c0,0-0.1,0-0.1,0.1C171.6,37.3,171,37.6,170.2,37.6z M172.2,34.3l-0.6,0c-0.7,0-1.2,0.2-1.6,0.4c-0.4,0.2-0.6,0.5-0.6,0.9
			c0,0.3,0.1,0.6,0.3,0.7c0.2,0.2,0.5,0.3,0.9,0.3c0.4,0,0.8-0.1,1.2-0.4c0.3-0.3,0.5-0.6,0.5-0.8v-0.9
			C172.4,34.4,172.4,34.3,172.2,34.3z"/>
		<path fill="#CCCCCC" d="M176.2,37.3c0,0.1,0,0.1-0.1,0.2c0,0-0.1,0-0.2,0h-0.8c-0.1,0-0.1,0-0.2,0c0,0,0-0.1,0-0.2l0-8.5
			c0-0.1,0.1-0.2,0.2-0.2h0.9c0.1,0,0.2,0.1,0.2,0.2V37.3z"/>
		<path fill="#CCCCCC" d="M178.9,29.9c0,0.1,0,0.2-0.1,0.2c0,0-0.1,0.1-0.2,0.1h-0.9c-0.1,0-0.1,0-0.2-0.1c0,0,0-0.1,0-0.2v-1.1
			c0-0.1,0.1-0.2,0.2-0.2h1c0,0,0.1,0,0.1,0.1c0,0,0,0.1,0,0.1V29.9z M178.9,37.3c0,0.1,0,0.1-0.1,0.2c0,0-0.1,0-0.2,0h-0.8
			c-0.1,0-0.1,0-0.2,0c0,0,0-0.1,0-0.2v-6c0-0.1,0-0.1,0-0.1c0,0,0.1,0,0.1,0h1c0.1,0,0.1,0.1,0.1,0.2V37.3z"/>
		<path fill="#CCCCCC" d="M179.8,37.5c0,0,0-0.1,0-0.1v-0.4c0-0.1,0-0.1,0-0.2s0.1-0.1,0.1-0.2l3.3-4.4l0-0.1c0,0,0-0.1-0.1-0.1h-3
			c-0.1,0-0.1,0-0.1,0c0,0,0-0.1,0-0.1v-0.5c0-0.1,0-0.1,0.1-0.1h4.6c0.1,0,0.1,0,0.1,0.1v0.4c0,0.1,0,0.2-0.1,0.4l-3.3,4.4
			c0,0,0,0.1,0,0.1c0,0,0,0.1,0.1,0.1h3.3c0.1,0,0.2,0,0.2,0.1v0.6c0,0.1-0.1,0.2-0.2,0.2h-4.8C179.9,37.5,179.8,37.5,179.8,37.5z"
			/>
		<path fill="#CCCCCC" d="M187.5,37.6c-0.6,0-1.1-0.2-1.5-0.5c-0.4-0.3-0.5-0.7-0.5-1.3c0-0.6,0.3-1.2,0.8-1.5s1.4-0.6,2.4-0.6
			l0.8-0.1c0.1,0,0.2-0.1,0.2-0.2v-0.3c0-0.4-0.1-0.7-0.4-0.9c-0.2-0.2-0.6-0.3-1-0.3c-0.7,0-1.2,0.3-1.6,0.9c0,0-0.1,0.1-0.1,0.1
			c0,0-0.1,0-0.1,0l-0.8-0.2c0,0-0.1,0-0.1-0.1c0,0,0-0.1,0-0.1c0.2-0.4,0.6-0.8,1-1c0.5-0.2,1-0.4,1.7-0.4c0.8,0,1.5,0.2,1.9,0.5
			c0.4,0.4,0.6,0.9,0.6,1.5v4.2c0,0.1,0,0.1,0,0.2c0,0-0.1,0-0.1,0h-0.8c-0.1,0-0.2-0.1-0.2-0.2l0-0.5c0-0.1,0-0.1-0.1-0.1
			c0,0-0.1,0-0.1,0.1C188.9,37.3,188.2,37.6,187.5,37.6z M189.5,34.3l-0.6,0c-0.7,0-1.2,0.2-1.6,0.4c-0.4,0.2-0.6,0.5-0.6,0.9
			c0,0.3,0.1,0.6,0.3,0.7c0.2,0.2,0.5,0.3,0.9,0.3c0.4,0,0.8-0.1,1.2-0.4c0.3-0.3,0.5-0.6,0.5-0.8v-0.9
			C189.7,34.4,189.6,34.3,189.5,34.3z"/>
		<path fill="#CCCCCC" d="M194.2,32.1c-0.1,0-0.1,0-0.1,0.1v3.5c0,0.3,0.1,0.6,0.2,0.7s0.3,0.2,0.6,0.2h0.8c0.1,0,0.1,0,0.1,0.1v0.5
			c0,0.1-0.1,0.2-0.2,0.2c-0.3,0-0.7,0.1-1.2,0.1c-0.5,0-0.9-0.1-1.2-0.4s-0.4-0.6-0.4-1.1v-3.8c0-0.1,0-0.1-0.1-0.1h-0.9
			c-0.1,0-0.2,0-0.2-0.1v-0.6c0-0.1,0-0.1,0.1-0.1h1c0.1,0,0.1,0,0.1-0.1l0.1-1.9c0-0.1,0.1-0.2,0.1-0.2h0.8c0.1,0,0.2,0.1,0.2,0.2
			V31c0,0.1,0,0.1,0.1,0.1h1.4c0.1,0,0.1,0,0.1,0.1v0.6c0,0.1-0.1,0.1-0.2,0.1H194.2z"/>
		<path fill="#CCCCCC" d="M198,29.9c0,0.1,0,0.2-0.1,0.2c0,0-0.1,0.1-0.2,0.1h-0.9c-0.1,0-0.1,0-0.2-0.1c0,0,0-0.1,0-0.2v-1.1
			c0-0.1,0.1-0.2,0.2-0.2h1c0,0,0.1,0,0.1,0.1c0,0,0,0.1,0,0.1V29.9z M198,37.3c0,0.1,0,0.1-0.1,0.2c0,0-0.1,0-0.2,0h-0.8
			c-0.1,0-0.1,0-0.2,0c0,0,0-0.1,0-0.2v-6c0-0.1,0-0.1,0-0.1c0,0,0.1,0,0.1,0h1c0.1,0,0.1,0.1,0.1,0.2V37.3z"/>
		<path fill="#CCCCCC" d="M200.5,37.2c-0.5-0.3-0.8-0.7-1.1-1.2S199,35,199,34.4c0-0.6,0.1-1.2,0.4-1.7c0.3-0.5,0.6-0.9,1.1-1.2
			c0.5-0.3,1-0.4,1.6-0.4c0.6,0,1.1,0.1,1.6,0.4c0.5,0.3,0.8,0.7,1.1,1.2s0.4,1.1,0.4,1.7c0,0.6-0.1,1.2-0.4,1.7s-0.6,0.9-1.1,1.2
			c-0.5,0.3-1,0.4-1.6,0.4S201,37.5,200.5,37.2z M203.5,36.1c0.3-0.4,0.5-1,0.5-1.8s-0.2-1.4-0.5-1.8c-0.3-0.4-0.8-0.6-1.3-0.6
			c-0.6,0-1,0.2-1.3,0.6s-0.5,1-0.5,1.8c0,0.8,0.2,1.3,0.5,1.8s0.8,0.6,1.3,0.6C202.7,36.7,203.1,36.5,203.5,36.1z"/>
		<path fill="#CCCCCC" d="M206.3,37.3v-6c0-0.1,0.1-0.2,0.2-0.2h0.9c0.1,0,0.1,0.1,0.1,0.2V32c0,0,0,0.1,0,0.1c0,0,0,0,0.1,0
			c0.4-0.3,0.8-0.6,1.1-0.7s0.7-0.2,1-0.2c0.6,0,1.1,0.2,1.4,0.5c0.3,0.3,0.5,0.8,0.5,1.3v4.4c0,0.1-0.1,0.2-0.2,0.2h-0.9
			c-0.1,0-0.2-0.1-0.2-0.2v-4.2c0-0.4-0.1-0.6-0.3-0.8c-0.2-0.2-0.5-0.3-0.8-0.3c-0.3,0-0.6,0.1-0.8,0.2c-0.3,0.1-0.6,0.4-0.9,0.7
			v4.4c0,0.1,0,0.1-0.1,0.2s-0.1,0-0.2,0h-0.9C206.3,37.5,206.3,37.4,206.3,37.3z"/>
	</g>
</g>
<path fill="none" stroke="#CCCCCC" stroke-miterlimit="10" d="M120.4,1c0,1.5,1.2,2.8,2.8,2.8S126,2.5,126,1"/>
<path fill="none" stroke="#CCCCCC" stroke-miterlimit="10" d="M128.2,5.9"/>
<path fill="none" stroke="#CCCCCC" stroke-miterlimit="10" d="M128.2,1c0,1.5,1.2,2.8,2.8,2.8c1.5,0,2.8-1.2,2.8-2.8"/>
<path fill="none" stroke="#37B34A" stroke-width="0.6918" stroke-miterlimit="10" d="M135.9,5.9"/>
<path fill="none" stroke="#CCCCCC" stroke-miterlimit="10" d="M135.9,1c0,1.5,1.2,2.8,2.8,2.8s2.8-1.2,2.8-2.8"/>
<path fill="none" stroke="#CCCCCC" stroke-miterlimit="10" d="M120.4,16.7c0-1.5,1.2-2.8,2.8-2.8s2.8,1.2,2.8,2.8"/>
<path fill="none" stroke="#CCCCCC" stroke-miterlimit="10" d="M128.2,16.7c0-1.5,1.2-2.8,2.8-2.8c1.5,0,2.8,1.2,2.8,2.8"/>
<path fill="none" stroke="#CCCCCC" stroke-miterlimit="10" d="M135.9,16.7c0-1.5,1.2-2.8,2.8-2.8s2.8,1.2,2.8,2.8"/>
<circle fill="none" stroke="#CCCCCC" stroke-miterlimit="10" cx="123.2" cy="8.9" r="2.8"/>
<circle fill="none" stroke="#CCCCCC" stroke-miterlimit="10" cx="130.9" cy="8.9" r="2.8"/>
<circle fill="#CCCCCC" stroke="#CCCCCC" stroke-miterlimit="10" cx="138.7" cy="8.9" r="2.8"/>
<g>
</g>
<g>
</g>
<g>
</g>
<g>
</g>
<g>
</g>
<g>
</g>
<g>
</g>
<g>
</g>
<g>
</g>
<g>
</g>
<g>
</g>
<g>
</g>
<g>
</g>
<g>
</g>
<g>
</g>
</svg>
