<?xml version="1.0" encoding="utf-8"?>
<!-- Generator: Adobe Illustrator 17.1.0, SVG Export Plug-In . SVG Version: 6.00 Build 0)  -->
<!DOCTYPE svg PUBLIC "-//W3C//DTD SVG 1.1//EN" "http://www.w3.org/Graphics/SVG/1.1/DTD/svg11.dtd">
<svg version="1.1" id="Layer_1" xmlns="http://www.w3.org/2000/svg" xmlns:xlink="http://www.w3.org/1999/xlink" x="0px" y="0px"
	 width="240px" height="40px" viewBox="0 0 240 40" enable-background="new 0 0 240 40" xml:space="preserve">
<path fill="none" stroke="#42BDAE" stroke-width="0.9893817" stroke-miterlimit="10" d="M13.241828,19.9883232"/>
<polyline fill="none" stroke="#FF9D3B" stroke-width="0.7451853" stroke-miterlimit="10" points="1.1495405,13.094594 
	4.7058163,13.094594 7.2280388,17.4632168 4.7058163,21.8318577 1.1495405,21.8318577 "/>
<polyline fill="none" stroke="#FF9D3B" stroke-width="0.7451853" stroke-miterlimit="10" points="12.5072298,7.8368979 
	8.9509535,7.8368979 6.4287314,12.2055216 8.9509535,16.5741615 12.5072298,16.5741615 "/>
<g>
	<g>
		
			<line fill="none" stroke="#FF9D3B" stroke-linecap="round" stroke-miterlimit="10" x1="1.4673755" y1="3.1706064" x2="1.4673755" y2="3.1706064"/>
		
			<line fill="none" stroke="#FF9D3B" stroke-linecap="round" stroke-miterlimit="10" stroke-dasharray="0,1.6851619" x1="3.1525376" y1="3.1706064" x2="3.9951184" y2="3.1706064"/>
		
			<line fill="none" stroke="#FF9D3B" stroke-linecap="round" stroke-miterlimit="10" x1="4.8376994" y1="3.1706064" x2="4.8376994" y2="3.1706064"/>
		
			<line fill="none" stroke="#FF9D3B" stroke-linecap="round" stroke-miterlimit="10" stroke-dasharray="0,1.5935614" x1="5.6344795" y1="4.5506716" x2="6.829649" y2="6.620769"/>
		
			<line fill="none" stroke="#FF9D3B" stroke-linecap="round" stroke-miterlimit="10" x1="7.2280388" y1="7.3108015" x2="7.2280388" y2="7.3108015"/>
		
			<line fill="none" stroke="#FF9D3B" stroke-linecap="round" stroke-miterlimit="10" stroke-dasharray="0,1.5935658" x1="6.4312592" y1="8.6908722" x2="5.2360892" y2="10.7609777"/>
		
			<line fill="none" stroke="#FF9D3B" stroke-linecap="round" stroke-miterlimit="10" x1="4.8376994" y1="11.4510126" x2="4.8376994" y2="11.4510126"/>
		
			<line fill="none" stroke="#FF9D3B" stroke-linecap="round" stroke-miterlimit="10" stroke-dasharray="0,1.6851619" x1="3.1525376" y1="11.4510126" x2="2.3099566" y2="11.4510126"/>
		
			<line fill="none" stroke="#FF9D3B" stroke-linecap="round" stroke-miterlimit="10" x1="1.4673755" y1="11.4510126" x2="1.4673755" y2="11.4510126"/>
	</g>
</g>
<path fill="none" stroke="#000000" stroke-width="0.5004681" stroke-miterlimit="10" d="M2.7575917,12.770997"/>
<g>
	<path fill="#777777" d="M15.1074219,8.2583008h2.7392578c0.4985352,0,0.9091797,0.0683594,1.2319336,0.203125
		c0.3222656,0.1367188,0.5771484,0.3085938,0.7641602,0.5175781s0.3173828,0.4433594,0.390625,0.7041016
		c0.0732422,0.2597656,0.1098633,0.5117188,0.1098633,0.7529297c0,0.2421875-0.0366211,0.4931641-0.1098633,0.7539062
		s-0.2036133,0.4951172-0.390625,0.7041016s-0.4418945,0.3808594-0.7641602,0.5166016
		c-0.3227539,0.1357422-0.7333984,0.2041016-1.2319336,0.2041016h-1.6831055v3.4316406h-1.0561523V8.2583008z
		 M16.1635742,11.6899414h1.3857422c0.2055664,0,0.4086914-0.015625,0.6108398-0.0488281
		c0.2011719-0.0332031,0.3808594-0.09375,0.5385742-0.1816406s0.2841797-0.2148438,0.3798828-0.3798828
		c0.0952148-0.1650391,0.1430664-0.3789062,0.1430664-0.6435547c0-0.2636719-0.0478516-0.4785156-0.1430664-0.6435547
		c-0.0957031-0.1650391-0.222168-0.2910156-0.3798828-0.3789062s-0.3374023-0.1484375-0.5385742-0.1816406
		c-0.2021484-0.0332031-0.4052734-0.0498047-0.6108398-0.0498047h-1.3857422V11.6899414z"/>
	<path fill="#777777" d="M21.1025391,10.8325195h0.9897461v0.8027344h0.0219727
		c0.0664062-0.1386719,0.1542969-0.265625,0.2641602-0.3789062c0.1098633-0.1142578,0.2329102-0.2109375,0.3686523-0.2919922
		s0.2841797-0.1445312,0.4453125-0.1923828s0.3227539-0.0712891,0.4838867-0.0712891
		c0.1616211,0,0.3081055,0.0214844,0.4404297,0.0654297l-0.0444336,1.0673828
		c-0.0805664-0.0224609-0.1611328-0.0400391-0.2416992-0.0546875c-0.0810547-0.0146484-0.1616211-0.0224609-0.2421875-0.0224609
		c-0.4838867,0-0.8544922,0.1357422-1.1108398,0.4072266c-0.2568359,0.2714844-0.3852539,0.6923828-0.3852539,1.2646484v2.6181641
		h-0.9897461V10.8325195z"/>
	<path fill="#777777" d="M24.4467773,13.4389648c0-0.3808594,0.0712891-0.7363281,0.2143555-1.0664062
		s0.3393555-0.6201172,0.5883789-0.8691406c0.2495117-0.2490234,0.5429688-0.4453125,0.8803711-0.5888672
		c0.3369141-0.1425781,0.7001953-0.2138672,1.0888672-0.2138672s0.7514648,0.0712891,1.0888672,0.2138672
		c0.3374023,0.1435547,0.6308594,0.3398438,0.8798828,0.5888672c0.2495117,0.2490234,0.4458008,0.5390625,0.5888672,0.8691406
		c0.1425781,0.3300781,0.2143555,0.6855469,0.2143555,1.0664062c0,0.3818359-0.0717773,0.7392578-0.2143555,1.0732422
		c-0.1430664,0.3330078-0.3393555,0.6230469-0.5888672,0.8691406c-0.2490234,0.2451172-0.5424805,0.4394531-0.8798828,0.5830078
		c-0.3374023,0.1425781-0.7001953,0.2138672-1.0888672,0.2138672s-0.7519531-0.0712891-1.0888672-0.2138672
		c-0.3374023-0.1435547-0.6308594-0.3378906-0.8803711-0.5830078c-0.2490234-0.2460938-0.4453125-0.5361328-0.5883789-0.8691406
		C24.5180664,14.1782227,24.4467773,13.8208008,24.4467773,13.4389648z M25.5024414,13.4389648
		c0,0.2646484,0.0405273,0.5087891,0.1210938,0.7314453c0.0805664,0.2246094,0.1943359,0.4150391,0.3413086,0.5722656
		c0.1464844,0.1582031,0.3261719,0.2822266,0.5385742,0.3740234c0.2128906,0.0917969,0.4511719,0.1376953,0.715332,0.1376953
		c0.2636719,0,0.5019531-0.0458984,0.7148438-0.1376953s0.3920898-0.2158203,0.5390625-0.3740234
		c0.1464844-0.1572266,0.2602539-0.3476562,0.3408203-0.5722656c0.0805664-0.2226562,0.1210938-0.4667969,0.1210938-0.7314453
		c0-0.2636719-0.0405273-0.5068359-0.1210938-0.7314453c-0.0805664-0.2236328-0.1943359-0.4140625-0.3408203-0.5712891
		c-0.1469727-0.1582031-0.3261719-0.2822266-0.5390625-0.3740234s-0.4511719-0.1376953-0.7148438-0.1376953
		c-0.2641602,0-0.5024414,0.0458984-0.715332,0.1376953c-0.2124023,0.0917969-0.3920898,0.2158203-0.5385742,0.3740234
		c-0.1469727,0.1572266-0.2607422,0.3476562-0.3413086,0.5712891C25.5429688,12.9321289,25.5024414,13.175293,25.5024414,13.4389648
		z"/>
	<path fill="#777777" d="M33.7524414,11.6899414h-1.4189453v2.3652344c0,0.1474609,0.003418,0.2919922,0.0107422,0.4345703
		c0.0073242,0.1435547,0.0351562,0.2714844,0.0825195,0.3847656c0.0478516,0.1142578,0.1210938,0.2060547,0.2202148,0.2753906
		s0.2436523,0.1044922,0.4345703,0.1044922c0.1171875,0,0.2382812-0.0107422,0.362793-0.0332031
		c0.1245117-0.0214844,0.2382812-0.0625,0.3413086-0.1210938v0.9023438
		c-0.1176758,0.0664062-0.2695312,0.1113281-0.456543,0.1376953c-0.1870117,0.0253906-0.3320312,0.0380859-0.4345703,0.0380859
		c-0.3813477,0-0.6767578-0.0527344-0.8857422-0.1591797s-0.362793-0.2441406-0.4619141-0.4130859
		c-0.0991211-0.1679688-0.1577148-0.3574219-0.1757812-0.5664062c-0.0185547-0.2089844-0.027832-0.4189453-0.027832-0.6318359
		v-2.7177734h-1.144043v-0.8574219h1.144043V9.3696289h0.9902344v1.4628906h1.4189453V11.6899414z"/>
	<path fill="#777777" d="M35.5014648,13.8022461c0,0.2275391,0.0493164,0.4345703,0.1484375,0.6220703
		c0.0991211,0.1865234,0.2290039,0.3457031,0.390625,0.4785156c0.1611328,0.1318359,0.3481445,0.234375,0.5610352,0.3076172
		c0.2124023,0.0732422,0.4326172,0.1103516,0.659668,0.1103516c0.3081055,0,0.5756836-0.0722656,0.8032227-0.2148438
		c0.2270508-0.1435547,0.4360352-0.3320312,0.6269531-0.5664062l0.7480469,0.5722656
		c-0.550293,0.7109375-1.3203125,1.0664062-2.3100586,1.0664062c-0.4106445,0-0.7827148-0.0693359-1.1166992-0.2089844
		c-0.3334961-0.1386719-0.6157227-0.3320312-0.8466797-0.5771484c-0.230957-0.2460938-0.4091797-0.5351562-0.5336914-0.8691406
		s-0.1870117-0.6943359-0.1870117-1.0839844c0-0.3886719,0.0678711-0.7490234,0.2036133-1.0830078
		s0.3227539-0.6230469,0.5610352-0.8691406c0.2382812-0.2451172,0.5224609-0.4384766,0.8525391-0.5771484
		c0.3300781-0.1396484,0.6889648-0.2089844,1.0776367-0.2089844c0.4624023,0,0.8525391,0.0800781,1.171875,0.2421875
		c0.3188477,0.1611328,0.5810547,0.3720703,0.7861328,0.6318359c0.2055664,0.2607422,0.3540039,0.5537109,0.4458008,0.8798828
		c0.0913086,0.3271484,0.137207,0.6582031,0.137207,0.9960938v0.3515625H35.5014648z M38.6254883,13.0102539
		c-0.0073242-0.2197266-0.0424805-0.421875-0.1044922-0.6044922c-0.0625-0.1835938-0.15625-0.3427734-0.2807617-0.4785156
		s-0.2802734-0.2421875-0.4672852-0.3193359s-0.4052734-0.1152344-0.6547852-0.1152344
		c-0.2416992,0-0.4638672,0.0458984-0.6655273,0.1376953c-0.2016602,0.0908203-0.3720703,0.2099609-0.5112305,0.3574219
		c-0.1396484,0.1464844-0.2475586,0.3095703-0.324707,0.4892578c-0.0766602,0.1796875-0.1152344,0.3574219-0.1152344,0.5332031
		H38.6254883z"/>
	<path fill="#777777" d="M40.440918,8.9624023c0-0.1982422,0.0712891-0.3681641,0.2143555-0.5117188
		c0.1430664-0.1425781,0.3134766-0.2138672,0.5112305-0.2138672c0.1982422,0,0.3686523,0.0712891,0.5117188,0.2138672
		c0.1430664,0.1435547,0.2143555,0.3134766,0.2143555,0.5117188s-0.0712891,0.3681641-0.2143555,0.5117188
		c-0.1430664,0.1425781-0.3134766,0.2138672-0.5117188,0.2138672c-0.1977539,0-0.3681641-0.0712891-0.5112305-0.2138672
		C40.512207,9.3305664,40.440918,9.1606445,40.440918,8.9624023z M40.671875,10.8325195h0.9897461v5.2138672H40.671875V10.8325195z"
		/>
	<path fill="#777777" d="M42.9599609,10.8325195h0.9897461v0.8027344h0.0219727
		c0.125-0.2783203,0.3413086-0.5039062,0.6494141-0.6767578c0.3076172-0.171875,0.6635742-0.2578125,1.0668945-0.2578125
		c0.2490234,0,0.4892578,0.0380859,0.7202148,0.1152344c0.2314453,0.0771484,0.4326172,0.1962891,0.6049805,0.3574219
		s0.3100586,0.3681641,0.4125977,0.6210938c0.1025391,0.2539062,0.1542969,0.5527344,0.1542969,0.8964844v3.3554688h-0.9902344
		v-3.0800781c0-0.2421875-0.0327148-0.4492188-0.0991211-0.6210938c-0.065918-0.1728516-0.1538086-0.3115234-0.2636719-0.4179688
		c-0.1103516-0.1064453-0.2368164-0.1835938-0.3793945-0.2314453c-0.1430664-0.0478516-0.2915039-0.0712891-0.4458008-0.0712891
		c-0.2055664,0-0.3959961,0.0332031-0.5717773,0.0986328C44.6538086,11.7895508,44.5,11.894043,44.3676758,12.0366211
		c-0.1318359,0.1435547-0.234375,0.3251953-0.3076172,0.5449219c-0.0737305,0.2197266-0.1103516,0.4804688-0.1103516,0.78125
		v2.6835938h-0.9897461V10.8325195z"/>
	<path fill="#777777" d="M51.6611328,8.2583008h2.7167969c0.5498047,0,1.0322266,0.0625,1.4462891,0.1875
		c0.4145508,0.1240234,0.7739258,0.2910156,1.078125,0.5s0.5571289,0.4492188,0.7592773,0.7207031
		c0.2016602,0.2714844,0.3608398,0.5498047,0.4785156,0.8359375c0.1171875,0.2861328,0.2011719,0.5722656,0.2529297,0.8583984
		c0.0512695,0.2851562,0.0766602,0.5498047,0.0766602,0.7919922c0,0.4980469-0.0917969,0.9804688-0.2749023,1.4462891
		s-0.4545898,0.8798828-0.8139648,1.2431641c-0.359375,0.3623047-0.8046875,0.6542969-1.3364258,0.8740234
		s-1.1459961,0.3300781-1.8422852,0.3300781h-2.5410156V8.2583008z M52.7167969,15.0561523h1.3310547
		c0.4472656,0,0.8706055-0.0605469,1.2705078-0.1816406s0.75-0.3017578,1.0507812-0.5439453
		c0.300293-0.2421875,0.5385742-0.5449219,0.7148438-0.9072266c0.1757812-0.3632812,0.2641602-0.7871094,0.2641602-1.2705078
		c0-0.25-0.0405273-0.5410156-0.1210938-0.875c-0.0810547-0.3339844-0.2329102-0.6503906-0.456543-0.9511719
		s-0.5336914-0.5556641-0.9296875-0.7646484s-0.9091797-0.3134766-1.5400391-0.3134766h-1.5839844V15.0561523z"/>
	<path fill="#777777" d="M58.84375,10.8325195h1.144043l1.5439453,4.0703125h0.0224609l1.480957-4.0703125h1.0556641
		l-2.4750977,6.3359375c-0.0874023,0.2275391-0.1787109,0.4345703-0.2739258,0.6210938
		c-0.0947266,0.1875-0.2080078,0.3466797-0.3393555,0.4785156s-0.2900391,0.2353516-0.4765625,0.3085938
		s-0.4145508,0.109375-0.6845703,0.109375c-0.1459961,0-0.2939453-0.0087891-0.4438477-0.0273438
		c-0.1494141-0.0185547-0.2939453-0.0566406-0.4326172-0.1152344l0.1206055-0.9023438
		c0.1962891,0.0810547,0.3930664,0.1210938,0.5898438,0.1210938c0.1533203,0,0.2822266-0.0205078,0.3881836-0.0605469
		c0.1054688-0.0400391,0.1962891-0.0986328,0.2729492-0.1757812s0.140625-0.1669922,0.1914062-0.2695312
		s0.1020508-0.2197266,0.1533203-0.3515625l0.3203125-0.8251953L58.84375,10.8325195z"/>
	<path fill="#777777" d="M64.6850586,10.8325195h0.9897461v0.8027344h0.0219727
		c0.125-0.2783203,0.3413086-0.5039062,0.6494141-0.6767578c0.3076172-0.171875,0.6635742-0.2578125,1.0668945-0.2578125
		c0.2490234,0,0.4892578,0.0380859,0.7202148,0.1152344c0.2314453,0.0771484,0.4326172,0.1962891,0.6049805,0.3574219
		s0.3100586,0.3681641,0.4125977,0.6210938c0.1025391,0.2539062,0.1542969,0.5527344,0.1542969,0.8964844v3.3554688h-0.9902344
		v-3.0800781c0-0.2421875-0.0327148-0.4492188-0.0991211-0.6210938c-0.065918-0.1728516-0.1538086-0.3115234-0.2636719-0.4179688
		c-0.1103516-0.1064453-0.2368164-0.1835938-0.3793945-0.2314453c-0.1430664-0.0478516-0.2915039-0.0712891-0.4458008-0.0712891
		c-0.2055664,0-0.3959961,0.0332031-0.5717773,0.0986328c-0.1762695,0.0664062-0.3300781,0.1708984-0.4624023,0.3134766
		c-0.1318359,0.1435547-0.234375,0.3251953-0.3076172,0.5449219c-0.0737305,0.2197266-0.1103516,0.4804688-0.1103516,0.78125
		v2.6835938h-0.9897461V10.8325195z"/>
	<path fill="#777777" d="M70.5483398,11.4702148c0.2788086-0.2568359,0.6010742-0.4492188,0.9677734-0.5771484
		s0.7333984-0.1923828,1.1000977-0.1923828c0.3813477,0,0.7094727,0.0478516,0.984375,0.1425781
		c0.2753906,0.0957031,0.5009766,0.2236328,0.6767578,0.3847656c0.1757812,0.1621094,0.3061523,0.3466797,0.390625,0.5556641
		c0.0839844,0.2089844,0.1264648,0.4277344,0.1264648,0.6542969v2.6621094c0,0.1835938,0.003418,0.3525391,0.0107422,0.5058594
		c0.0073242,0.1542969,0.0185547,0.3007812,0.0332031,0.4404297h-0.8798828
		c-0.0219727-0.2636719-0.0332031-0.5283203-0.0332031-0.7919922h-0.0219727
		c-0.2202148,0.3369141-0.4804688,0.5761719-0.7807617,0.7148438c-0.3007812,0.1396484-0.6494141,0.2089844-1.0454102,0.2089844
		c-0.2416992,0-0.4726562-0.0332031-0.6928711-0.0986328c-0.2197266-0.0664062-0.4125977-0.1650391-0.5776367-0.296875
		c-0.1650391-0.1328125-0.2949219-0.2958984-0.3901367-0.4902344c-0.0957031-0.1933594-0.1430664-0.4189453-0.1430664-0.6757812
		c0-0.3378906,0.0751953-0.6201172,0.2255859-0.8476562c0.1499023-0.2265625,0.3554688-0.4121094,0.6157227-0.5546875
		c0.2602539-0.1435547,0.5644531-0.2460938,0.9130859-0.3085938c0.3481445-0.0625,0.7207031-0.09375,1.1166992-0.09375h0.7255859
		v-0.2197266c0-0.1318359-0.0253906-0.2636719-0.0766602-0.3955078c-0.0517578-0.1328125-0.128418-0.2519531-0.230957-0.3574219
		c-0.1030273-0.1064453-0.230957-0.1914062-0.3852539-0.2539062c-0.1538086-0.0615234-0.3374023-0.0927734-0.5498047-0.0927734
		c-0.190918,0-0.3574219,0.0185547-0.5004883,0.0546875c-0.1430664,0.0371094-0.2734375,0.0830078-0.390625,0.1376953
		s-0.2236328,0.1191406-0.3188477,0.1923828c-0.0957031,0.0732422-0.1870117,0.1425781-0.2753906,0.2089844L70.5483398,11.4702148z
		 M73.3422852,13.5385742c-0.2348633,0-0.4750977,0.0126953-0.7207031,0.0380859
		c-0.2456055,0.0263672-0.4692383,0.0751953-0.6708984,0.1484375s-0.3666992,0.1767578-0.4946289,0.3085938
		c-0.128418,0.1318359-0.1928711,0.3007812-0.1928711,0.5058594c0,0.3007812,0.1010742,0.5166016,0.3027344,0.6484375
		c0.2016602,0.1328125,0.4746094,0.1982422,0.8193359,0.1982422c0.2714844,0,0.5024414-0.0458984,0.6928711-0.1376953
		c0.190918-0.0908203,0.3447266-0.2099609,0.4624023-0.3574219c0.1171875-0.1464844,0.2011719-0.3095703,0.2529297-0.4892578
		c0.0512695-0.1796875,0.0766602-0.3574219,0.0766602-0.5332031v-0.3300781H73.3422852z"/>
	<path fill="#777777" d="M75.9604492,10.8325195h0.9238281v0.8134766H76.90625
		c0.0219727-0.0732422,0.0791016-0.1650391,0.1704102-0.2744141c0.0917969-0.1103516,0.2094727-0.2148438,0.3520508-0.3134766
		c0.1430664-0.0996094,0.3120117-0.1835938,0.5063477-0.2529297c0.1938477-0.0703125,0.4086914-0.1044922,0.6435547-0.1044922
		c0.3881836,0,0.7148438,0.0800781,0.9790039,0.2421875c0.2636719,0.1611328,0.4799805,0.4033203,0.6489258,0.7255859
		c0.168457-0.3222656,0.4067383-0.5644531,0.7148438-0.7255859c0.3081055-0.1621094,0.6196289-0.2421875,0.9350586-0.2421875
		c0.4033203,0,0.7333984,0.0654297,0.9892578,0.1972656c0.2578125,0.1328125,0.4589844,0.3066406,0.6054688,0.5224609
		c0.1464844,0.2167969,0.2480469,0.4628906,0.3027344,0.7373047c0.0546875,0.2753906,0.0820312,0.5595703,0.0820312,0.8525391
		v3.0361328h-0.9902344v-2.9042969c0-0.1972656-0.0117188-0.3886719-0.0371094-0.5712891
		c-0.0263672-0.1835938-0.0800781-0.3447266-0.1601562-0.484375c-0.0810547-0.1396484-0.1943359-0.2509766-0.3408203-0.3359375
		c-0.1469727-0.0839844-0.3413086-0.1259766-0.5830078-0.1259766c-0.4770508,0-0.8178711,0.1464844-1.0234375,0.4394531
		c-0.2050781,0.2939453-0.3076172,0.671875-0.3076172,1.1337891v2.8486328h-0.9902344v-2.7275391
		c0-0.25-0.0126953-0.4775391-0.0385742-0.6826172c-0.0253906-0.2050781-0.0766602-0.3828125-0.1538086-0.5332031
		s-0.1870117-0.2675781-0.3300781-0.3525391c-0.1430664-0.0839844-0.3354492-0.1259766-0.5776367-0.1259766
		c-0.1757812,0-0.3461914,0.0351562-0.5112305,0.1044922s-0.3100586,0.1738281-0.4345703,0.3134766
		c-0.125,0.1396484-0.2236328,0.3173828-0.296875,0.5332031c-0.0737305,0.2167969-0.1103516,0.4716797-0.1103516,0.7646484
		v2.7060547h-0.9897461V10.8325195z"/>
	<path fill="#777777" d="M84.9023438,8.9624023c0-0.1982422,0.0712891-0.3681641,0.2148438-0.5117188
		c0.1425781-0.1425781,0.3134766-0.2138672,0.5117188-0.2138672c0.1972656,0,0.3681641,0.0712891,0.5107422,0.2138672
		c0.1435547,0.1435547,0.2148438,0.3134766,0.2148438,0.5117188s-0.0712891,0.3681641-0.2148438,0.5117188
		c-0.1425781,0.1425781-0.3134766,0.2138672-0.5107422,0.2138672c-0.1982422,0-0.3691406-0.0712891-0.5117188-0.2138672
		C84.9736328,9.3305664,84.9023438,9.1606445,84.9023438,8.9624023z M85.1337891,10.8325195h0.9902344v5.2138672h-0.9902344
		V10.8325195z"/>
	<path fill="#777777" d="M91.1503906,12.2182617c-0.1826172-0.1904297-0.375-0.3349609-0.5771484-0.4345703
		c-0.2021484-0.0986328-0.4414062-0.1484375-0.7207031-0.1484375c-0.2714844,0-0.5078125,0.0498047-0.7089844,0.1484375
		c-0.2021484,0.0996094-0.3710938,0.2353516-0.5058594,0.4072266c-0.1357422,0.171875-0.2382812,0.3701172-0.3085938,0.59375
		c-0.0693359,0.2236328-0.1044922,0.4570312-0.1044922,0.6982422c0,0.2421875,0.0400391,0.4716797,0.1210938,0.6875
		c0.0810547,0.2167969,0.1943359,0.4052734,0.3408203,0.5673828c0.1464844,0.1611328,0.3232422,0.2871094,0.5283203,0.3789062
		s0.4365234,0.1376953,0.6933594,0.1376953c0.2783203,0,0.5166016-0.0498047,0.7148438-0.1484375
		s0.3808594-0.2441406,0.5498047-0.4345703l0.7041016,0.7041016c-0.2568359,0.2861328-0.5556641,0.4912109-0.8964844,0.6162109
		c-0.3408203,0.1240234-0.7021484,0.1865234-1.0839844,0.1865234c-0.4033203,0-0.7714844-0.0654297-1.1054688-0.1982422
		c-0.3330078-0.1318359-0.6210938-0.3164062-0.8632812-0.5546875s-0.4287109-0.5244141-0.5605469-0.8583984
		c-0.1328125-0.3339844-0.1982422-0.7021484-0.1982422-1.1054688s0.0654297-0.7734375,0.1982422-1.1113281
		c0.1318359-0.3369141,0.3164062-0.6269531,0.5546875-0.8691406c0.2382812-0.2412109,0.5244141-0.4306641,0.8583984-0.5664062
		s0.7060547-0.203125,1.1162109-0.203125c0.3818359,0,0.7460938,0.0673828,1.0947266,0.203125
		s0.6503906,0.3427734,0.9072266,0.6220703L91.1503906,12.2182617z"/>
	<path fill="#777777" d="M95.2197266,12.1411133c-0.1171875-0.1464844-0.2617188-0.2695312-0.4335938-0.3681641
		c-0.1728516-0.0986328-0.3837891-0.1484375-0.6328125-0.1484375c-0.2353516,0-0.4384766,0.0498047-0.6103516,0.1484375
		c-0.1728516,0.0986328-0.2587891,0.2441406-0.2587891,0.4345703c0,0.1542969,0.0498047,0.2783203,0.1484375,0.3740234
		s0.2158203,0.171875,0.3525391,0.2304688c0.1347656,0.0595703,0.2802734,0.1035156,0.4335938,0.1328125
		c0.1542969,0.0292969,0.2861328,0.0546875,0.3964844,0.0761719c0.2128906,0.0517578,0.4121094,0.1142578,0.5996094,0.1875
		c0.1865234,0.0732422,0.3476562,0.1689453,0.4833984,0.2861328s0.2421875,0.2597656,0.3193359,0.4287109
		s0.1152344,0.3740234,0.1152344,0.6162109c0,0.2929688-0.0615234,0.5439453-0.1865234,0.7529297
		s-0.2861328,0.3798828-0.484375,0.5117188c-0.1972656,0.1318359-0.4228516,0.2275391-0.6757812,0.2861328
		c-0.2539062,0.0585938-0.5087891,0.0878906-0.7646484,0.0878906c-0.4326172,0-0.8125-0.0654297-1.1386719-0.1982422
		c-0.3261719-0.1318359-0.6181641-0.3740234-0.875-0.7255859l0.7480469-0.6162109
		c0.1611328,0.1611328,0.3417969,0.3046875,0.5390625,0.4296875c0.1982422,0.1240234,0.4404297,0.1865234,0.7265625,0.1865234
		c0.1240234,0,0.2509766-0.0126953,0.3789062-0.0380859c0.1289062-0.0263672,0.2421875-0.0664062,0.3408203-0.1210938
		c0.0996094-0.0556641,0.1796875-0.125,0.2421875-0.2089844c0.0625-0.0849609,0.09375-0.1816406,0.09375-0.2919922
		c0-0.1464844-0.0458984-0.2675781-0.1376953-0.3632812c-0.0917969-0.0947266-0.2011719-0.1699219-0.3300781-0.2246094
		c-0.1279297-0.0556641-0.2636719-0.0996094-0.40625-0.1328125c-0.1435547-0.0322266-0.2695312-0.0605469-0.3798828-0.0820312
		c-0.2128906-0.0517578-0.4140625-0.1103516-0.6054688-0.1757812c-0.1904297-0.0664062-0.359375-0.1542969-0.5058594-0.2646484
		c-0.1464844-0.109375-0.2636719-0.2490234-0.3515625-0.4179688c-0.0878906-0.1679688-0.1318359-0.3769531-0.1318359-0.6269531
		c0-0.2705078,0.0566406-0.5078125,0.1699219-0.7089844c0.1142578-0.2021484,0.2646484-0.3691406,0.4511719-0.5009766
		c0.1875-0.1318359,0.3994141-0.2304688,0.6376953-0.296875s0.4785156-0.0986328,0.7207031-0.0986328
		c0.3525391,0,0.6894531,0.0654297,1.0117188,0.1972656c0.3232422,0.1328125,0.5800781,0.3525391,0.7705078,0.6601562
		L95.2197266,12.1411133z"/>
</g>
<circle fill="#FF9D3B" cx="10.9019566" cy="12.1129742" r="1.1422229"/>
<path fill="none" stroke="#000000" stroke-width="0.5733722" stroke-miterlimit="10" d="M2.2592747,14.1545305"/>
<path fill="none" stroke="#42BDAE" stroke-width="0.9893817" stroke-miterlimit="10" d="M133.2357025,19.9883232"/>
<polyline fill="none" stroke="#CCCCCC" stroke-width="0.7451853" stroke-miterlimit="10" points="121.1434174,13.094594 
	124.6996918,13.094594 127.2219162,17.4632168 124.6996918,21.8318577 121.1434174,21.8318577 "/>
<polyline fill="none" stroke="#CCCCCC" stroke-width="0.7451853" stroke-miterlimit="10" points="132.5010986,7.8368979 
	128.9448242,7.8368979 126.4226074,12.2055216 128.9448242,16.5741615 132.5010986,16.5741615 "/>
<g>
	<g>
		
			<line fill="none" stroke="#CCCCCC" stroke-linecap="round" stroke-miterlimit="10" x1="121.4612503" y1="3.1706064" x2="121.4612503" y2="3.1706064"/>
		
			<line fill="none" stroke="#CCCCCC" stroke-linecap="round" stroke-miterlimit="10" stroke-dasharray="0,1.6851619" x1="123.1464081" y1="3.1706064" x2="123.9889908" y2="3.1706064"/>
		
			<line fill="none" stroke="#CCCCCC" stroke-linecap="round" stroke-miterlimit="10" x1="124.8315735" y1="3.1706064" x2="124.8315735" y2="3.1706064"/>
		
			<line fill="none" stroke="#CCCCCC" stroke-linecap="round" stroke-miterlimit="10" stroke-dasharray="0,1.5935614" x1="125.6283493" y1="4.5506716" x2="126.8235245" y2="6.620769"/>
		
			<line fill="none" stroke="#CCCCCC" stroke-linecap="round" stroke-miterlimit="10" x1="127.2219162" y1="7.3108015" x2="127.2219162" y2="7.3108015"/>
		
			<line fill="none" stroke="#CCCCCC" stroke-linecap="round" stroke-miterlimit="10" stroke-dasharray="0,1.5935658" x1="126.4251328" y1="8.6908722" x2="125.2299652" y2="10.7609777"/>
		
			<line fill="none" stroke="#CCCCCC" stroke-linecap="round" stroke-miterlimit="10" x1="124.8315735" y1="11.4510126" x2="124.8315735" y2="11.4510126"/>
		
			<line fill="none" stroke="#CCCCCC" stroke-linecap="round" stroke-miterlimit="10" stroke-dasharray="0,1.6851619" x1="123.1464081" y1="11.4510126" x2="122.303833" y2="11.4510126"/>
		
			<line fill="none" stroke="#CCCCCC" stroke-linecap="round" stroke-miterlimit="10" x1="121.4612503" y1="11.4510126" x2="121.4612503" y2="11.4510126"/>
	</g>
</g>
<path fill="none" stroke="#000000" stroke-width="0.5004681" stroke-miterlimit="10" d="M122.7514648,12.770997"/>
<g>
	<path fill="#CCCCCC" d="M135.1015625,8.2583008h2.7392578c0.4980469,0,0.9091797,0.0683594,1.2314453,0.203125
		c0.3222656,0.1367188,0.5771484,0.3085938,0.7646484,0.5175781c0.1865234,0.2089844,0.3173828,0.4433594,0.390625,0.7041016
		c0.0732422,0.2597656,0.109375,0.5117188,0.109375,0.7529297c0,0.2421875-0.0361328,0.4931641-0.109375,0.7539062
		s-0.2041016,0.4951172-0.390625,0.7041016c-0.1875,0.2089844-0.4423828,0.3808594-0.7646484,0.5166016
		s-0.7333984,0.2041016-1.2314453,0.2041016h-1.6835938v3.4316406h-1.0556641V8.2583008z M136.1572266,11.6899414h1.3857422
		c0.2060547,0,0.4091797-0.015625,0.6113281-0.0488281c0.2011719-0.0332031,0.3808594-0.09375,0.5380859-0.1816406
		c0.1582031-0.0878906,0.2841797-0.2148438,0.3798828-0.3798828s0.1435547-0.3789062,0.1435547-0.6435547
		c0-0.2636719-0.0478516-0.4785156-0.1435547-0.6435547s-0.2216797-0.2910156-0.3798828-0.3789062
		c-0.1572266-0.0878906-0.3369141-0.1484375-0.5380859-0.1816406c-0.2021484-0.0332031-0.4052734-0.0498047-0.6113281-0.0498047
		h-1.3857422V11.6899414z"/>
	<path fill="#CCCCCC" d="M141.0966797,10.8325195h0.9892578v0.8027344h0.0224609
		c0.0664062-0.1386719,0.1542969-0.265625,0.2636719-0.3789062c0.1103516-0.1142578,0.2333984-0.2109375,0.3691406-0.2919922
		s0.2841797-0.1445312,0.4453125-0.1923828s0.3222656-0.0712891,0.4833984-0.0712891
		c0.1621094,0,0.3085938,0.0214844,0.4404297,0.0654297l-0.0439453,1.0673828
		c-0.0810547-0.0224609-0.1611328-0.0400391-0.2421875-0.0546875s-0.1611328-0.0224609-0.2421875-0.0224609
		c-0.4833984,0-0.8544922,0.1357422-1.1103516,0.4072266c-0.2568359,0.2714844-0.3857422,0.6923828-0.3857422,1.2646484v2.6181641
		h-0.9892578V10.8325195z"/>
	<path fill="#CCCCCC" d="M144.4404297,13.4389648c0-0.3808594,0.0712891-0.7363281,0.2148438-1.0664062
		c0.1425781-0.3300781,0.3388672-0.6201172,0.5878906-0.8691406c0.25-0.2490234,0.5429688-0.4453125,0.8808594-0.5888672
		c0.3369141-0.1425781,0.7001953-0.2138672,1.0888672-0.2138672s0.7509766,0.0712891,1.0888672,0.2138672
		c0.3369141,0.1435547,0.6308594,0.3398438,0.8798828,0.5888672s0.4453125,0.5390625,0.5888672,0.8691406
		c0.1425781,0.3300781,0.2138672,0.6855469,0.2138672,1.0664062c0,0.3818359-0.0712891,0.7392578-0.2138672,1.0732422
		c-0.1435547,0.3330078-0.3398438,0.6230469-0.5888672,0.8691406c-0.2490234,0.2451172-0.5429688,0.4394531-0.8798828,0.5830078
		c-0.3378906,0.1425781-0.7001953,0.2138672-1.0888672,0.2138672s-0.7519531-0.0712891-1.0888672-0.2138672
		c-0.3378906-0.1435547-0.6308594-0.3378906-0.8808594-0.5830078c-0.2490234-0.2460938-0.4453125-0.5361328-0.5878906-0.8691406
		C144.5117188,14.1782227,144.4404297,13.8208008,144.4404297,13.4389648z M145.4960938,13.4389648
		c0,0.2646484,0.0410156,0.5087891,0.1210938,0.7314453c0.0810547,0.2246094,0.1943359,0.4150391,0.3417969,0.5722656
		c0.1464844,0.1582031,0.3261719,0.2822266,0.5380859,0.3740234c0.2128906,0.0917969,0.4511719,0.1376953,0.7158203,0.1376953
		c0.2636719,0,0.5019531-0.0458984,0.7148438-0.1376953s0.3916016-0.2158203,0.5390625-0.3740234
		c0.1464844-0.1572266,0.2597656-0.3476562,0.3408203-0.5722656c0.0800781-0.2226562,0.1210938-0.4667969,0.1210938-0.7314453
		c0-0.2636719-0.0410156-0.5068359-0.1210938-0.7314453c-0.0810547-0.2236328-0.1943359-0.4140625-0.3408203-0.5712891
		c-0.1474609-0.1582031-0.3261719-0.2822266-0.5390625-0.3740234s-0.4511719-0.1376953-0.7148438-0.1376953
		c-0.2646484,0-0.5029297,0.0458984-0.7158203,0.1376953c-0.2119141,0.0917969-0.3916016,0.2158203-0.5380859,0.3740234
		c-0.1474609,0.1572266-0.2607422,0.3476562-0.3417969,0.5712891
		C145.5371094,12.9321289,145.4960938,13.175293,145.4960938,13.4389648z"/>
	<path fill="#CCCCCC" d="M153.7460938,11.6899414h-1.4189453v2.3652344c0,0.1474609,0.0039062,0.2919922,0.0107422,0.4345703
		c0.0078125,0.1435547,0.0351562,0.2714844,0.0830078,0.3847656c0.0478516,0.1142578,0.1210938,0.2060547,0.2197266,0.2753906
		c0.0996094,0.0693359,0.2441406,0.1044922,0.4345703,0.1044922c0.1171875,0,0.2382812-0.0107422,0.3632812-0.0332031
		c0.1240234-0.0214844,0.2382812-0.0625,0.3408203-0.1210938v0.9023438
		c-0.1171875,0.0664062-0.2695312,0.1113281-0.4560547,0.1376953c-0.1875,0.0253906-0.3320312,0.0380859-0.4345703,0.0380859
		c-0.3818359,0-0.6767578-0.0527344-0.8857422-0.1591797s-0.3632812-0.2441406-0.4619141-0.4130859
		c-0.0996094-0.1679688-0.1582031-0.3574219-0.1757812-0.5664062c-0.0185547-0.2089844-0.0283203-0.4189453-0.0283203-0.6318359
		v-2.7177734h-1.1435547v-0.8574219h1.1435547V9.3696289h0.9902344v1.4628906h1.4189453V11.6899414z"/>
	<path fill="#CCCCCC" d="M155.4951172,13.8022461c0,0.2275391,0.0498047,0.4345703,0.1484375,0.6220703
		c0.0996094,0.1865234,0.2294922,0.3457031,0.390625,0.4785156c0.1611328,0.1318359,0.3486328,0.234375,0.5615234,0.3076172
		c0.2119141,0.0732422,0.4326172,0.1103516,0.6591797,0.1103516c0.3085938,0,0.5761719-0.0722656,0.8037109-0.2148438
		c0.2265625-0.1435547,0.4355469-0.3320312,0.6269531-0.5664062l0.7480469,0.5722656
		c-0.5507812,0.7109375-1.3203125,1.0664062-2.3105469,1.0664062c-0.4101562,0-0.7822266-0.0693359-1.1162109-0.2089844
		c-0.3339844-0.1386719-0.6162109-0.3320312-0.8466797-0.5771484c-0.2314453-0.2460938-0.4091797-0.5351562-0.5341797-0.8691406
		c-0.1240234-0.3339844-0.1865234-0.6943359-0.1865234-1.0839844c0-0.3886719,0.0673828-0.7490234,0.203125-1.0830078
		s0.3232422-0.6230469,0.5615234-0.8691406c0.2382812-0.2451172,0.5224609-0.4384766,0.8525391-0.5771484
		c0.3300781-0.1396484,0.6884766-0.2089844,1.0771484-0.2089844c0.4628906,0,0.8525391,0.0800781,1.171875,0.2421875
		c0.3193359,0.1611328,0.5810547,0.3720703,0.7861328,0.6318359c0.2060547,0.2607422,0.3544922,0.5537109,0.4462891,0.8798828
		c0.0908203,0.3271484,0.1367188,0.6582031,0.1367188,0.9960938v0.3515625H155.4951172z M158.6191406,13.0102539
		c-0.0068359-0.2197266-0.0419922-0.421875-0.1044922-0.6044922c-0.0625-0.1835938-0.15625-0.3427734-0.2802734-0.4785156
		c-0.125-0.1357422-0.2802734-0.2421875-0.4677734-0.3193359c-0.1865234-0.0771484-0.4052734-0.1152344-0.6542969-0.1152344
		c-0.2421875,0-0.4638672,0.0458984-0.6660156,0.1376953c-0.2011719,0.0908203-0.3720703,0.2099609-0.5107422,0.3574219
		c-0.1396484,0.1464844-0.2480469,0.3095703-0.3251953,0.4892578c-0.0761719,0.1796875-0.1152344,0.3574219-0.1152344,0.5332031
		H158.6191406z"/>
	<path fill="#CCCCCC" d="M160.4345703,8.9624023c0-0.1982422,0.0712891-0.3681641,0.2148438-0.5117188
		c0.1425781-0.1425781,0.3134766-0.2138672,0.5107422-0.2138672c0.1982422,0,0.3691406,0.0712891,0.5117188,0.2138672
		c0.1435547,0.1435547,0.2148438,0.3134766,0.2148438,0.5117188s-0.0712891,0.3681641-0.2148438,0.5117188
		c-0.1425781,0.1425781-0.3134766,0.2138672-0.5117188,0.2138672c-0.1972656,0-0.3681641-0.0712891-0.5107422-0.2138672
		C160.5058594,9.3305664,160.4345703,9.1606445,160.4345703,8.9624023z M160.6660156,10.8325195h0.9892578v5.2138672h-0.9892578
		V10.8325195z"/>
	<path fill="#CCCCCC" d="M162.9541016,10.8325195h0.9892578v0.8027344h0.0224609
		c0.125-0.2783203,0.3408203-0.5039062,0.6494141-0.6767578c0.3076172-0.171875,0.6630859-0.2578125,1.0664062-0.2578125
		c0.2490234,0,0.4892578,0.0380859,0.7207031,0.1152344s0.4326172,0.1962891,0.6044922,0.3574219
		c0.1728516,0.1611328,0.3105469,0.3681641,0.4130859,0.6210938c0.1025391,0.2539062,0.1542969,0.5527344,0.1542969,0.8964844
		v3.3554688h-0.9902344v-3.0800781c0-0.2421875-0.0332031-0.4492188-0.0996094-0.6210938
		c-0.0654297-0.1728516-0.1533203-0.3115234-0.2636719-0.4179688s-0.2363281-0.1835938-0.3789062-0.2314453
		c-0.1435547-0.0478516-0.2919922-0.0712891-0.4462891-0.0712891c-0.2050781,0-0.3955078,0.0332031-0.5712891,0.0986328
		c-0.1767578,0.0664062-0.3300781,0.1708984-0.4628906,0.3134766c-0.1318359,0.1435547-0.234375,0.3251953-0.3076172,0.5449219
		s-0.1103516,0.4804688-0.1103516,0.78125v2.6835938h-0.9892578V10.8325195z"/>
	<path fill="#CCCCCC" d="M171.6552734,8.2583008h2.7167969c0.5498047,0,1.0322266,0.0625,1.4462891,0.1875
		c0.4140625,0.1240234,0.7734375,0.2910156,1.078125,0.5c0.3037109,0.2089844,0.5566406,0.4492188,0.7587891,0.7207031
		s0.3613281,0.5498047,0.4785156,0.8359375s0.2011719,0.5722656,0.2529297,0.8583984
		c0.0517578,0.2851562,0.0771484,0.5498047,0.0771484,0.7919922c0,0.4980469-0.0917969,0.9804688-0.2753906,1.4462891
		c-0.1826172,0.4658203-0.4541016,0.8798828-0.8134766,1.2431641c-0.359375,0.3623047-0.8046875,0.6542969-1.3369141,0.8740234
		c-0.53125,0.2197266-1.1455078,0.3300781-1.8417969,0.3300781h-2.5410156V8.2583008z M172.7109375,15.0561523h1.3310547
		c0.4472656,0,0.8701172-0.0605469,1.2705078-0.1816406c0.3994141-0.1210938,0.75-0.3017578,1.0507812-0.5439453
		c0.2998047-0.2421875,0.5380859-0.5449219,0.7148438-0.9072266c0.1757812-0.3632812,0.2636719-0.7871094,0.2636719-1.2705078
		c0-0.25-0.0400391-0.5410156-0.1210938-0.875s-0.2324219-0.6503906-0.4560547-0.9511719s-0.5341797-0.5556641-0.9296875-0.7646484
		c-0.3964844-0.2089844-0.9091797-0.3134766-1.5400391-0.3134766h-1.5839844V15.0561523z"/>
	<path fill="#CCCCCC" d="M178.8378906,10.8325195h1.1435547l1.5439453,4.0703125h0.0224609l1.4814453-4.0703125h1.0556641
		l-2.4755859,6.3359375c-0.0869141,0.2275391-0.1787109,0.4345703-0.2734375,0.6210938
		c-0.0947266,0.1875-0.2080078,0.3466797-0.3398438,0.4785156c-0.1308594,0.1318359-0.2900391,0.2353516-0.4765625,0.3085938
		s-0.4140625,0.109375-0.6845703,0.109375c-0.1455078,0-0.2939453-0.0087891-0.4433594-0.0273438
		s-0.2939453-0.0566406-0.4326172-0.1152344l0.1201172-0.9023438c0.1962891,0.0810547,0.3935547,0.1210938,0.5898438,0.1210938
		c0.1533203,0,0.2822266-0.0205078,0.3886719-0.0605469c0.1054688-0.0400391,0.1962891-0.0986328,0.2724609-0.1757812
		c0.0771484-0.0771484,0.140625-0.1669922,0.1914062-0.2695312s0.1025391-0.2197266,0.1533203-0.3515625l0.3203125-0.8251953
		L178.8378906,10.8325195z"/>
	<path fill="#CCCCCC" d="M184.6787109,10.8325195h0.9902344v0.8027344h0.0214844
		c0.125-0.2783203,0.3417969-0.5039062,0.6494141-0.6767578c0.3076172-0.171875,0.6640625-0.2578125,1.0673828-0.2578125
		c0.2490234,0,0.4892578,0.0380859,0.7197266,0.1152344c0.2314453,0.0771484,0.4326172,0.1962891,0.6054688,0.3574219
		c0.171875,0.1611328,0.3095703,0.3681641,0.4121094,0.6210938c0.1025391,0.2539062,0.1542969,0.5527344,0.1542969,0.8964844
		v3.3554688h-0.9902344v-3.0800781c0-0.2421875-0.0322266-0.4492188-0.0986328-0.6210938
		c-0.0664062-0.1728516-0.1542969-0.3115234-0.2636719-0.4179688c-0.1103516-0.1064453-0.2373047-0.1835938-0.3798828-0.2314453
		s-0.2910156-0.0712891-0.4453125-0.0712891c-0.2060547,0-0.3964844,0.0332031-0.5722656,0.0986328
		c-0.1757812,0.0664062-0.3300781,0.1708984-0.4619141,0.3134766c-0.1318359,0.1435547-0.234375,0.3251953-0.3076172,0.5449219
		c-0.0742188,0.2197266-0.1103516,0.4804688-0.1103516,0.78125v2.6835938h-0.9902344V10.8325195z"/>
	<path fill="#CCCCCC" d="M190.5419922,11.4702148c0.2792969-0.2568359,0.6015625-0.4492188,0.9677734-0.5771484
		c0.3671875-0.1279297,0.7333984-0.1923828,1.1005859-0.1923828c0.3808594,0,0.7089844,0.0478516,0.984375,0.1425781
		c0.2753906,0.0957031,0.5009766,0.2236328,0.6767578,0.3847656c0.1757812,0.1621094,0.3056641,0.3466797,0.390625,0.5556641
		c0.0839844,0.2089844,0.1259766,0.4277344,0.1259766,0.6542969v2.6621094c0,0.1835938,0.0039062,0.3525391,0.0107422,0.5058594
		c0.0078125,0.1542969,0.0185547,0.3007812,0.0332031,0.4404297h-0.8798828
		c-0.0214844-0.2636719-0.0332031-0.5283203-0.0332031-0.7919922h-0.0214844
		c-0.2207031,0.3369141-0.4804688,0.5761719-0.78125,0.7148438c-0.3007812,0.1396484-0.6494141,0.2089844-1.0449219,0.2089844
		c-0.2421875,0-0.4726562-0.0332031-0.6933594-0.0986328c-0.2197266-0.0664062-0.4121094-0.1650391-0.5771484-0.296875
		c-0.1650391-0.1328125-0.2949219-0.2958984-0.390625-0.4902344c-0.0957031-0.1933594-0.1425781-0.4189453-0.1425781-0.6757812
		c0-0.3378906,0.0751953-0.6201172,0.2255859-0.8476562c0.1494141-0.2265625,0.3554688-0.4121094,0.6152344-0.5546875
		c0.2607422-0.1435547,0.5644531-0.2460938,0.9130859-0.3085938s0.7207031-0.09375,1.1171875-0.09375h0.7255859v-0.2197266
		c0-0.1318359-0.0253906-0.2636719-0.0771484-0.3955078c-0.0517578-0.1328125-0.1279297-0.2519531-0.2304688-0.3574219
		c-0.1035156-0.1064453-0.2314453-0.1914062-0.3857422-0.2539062c-0.1533203-0.0615234-0.3369141-0.0927734-0.5498047-0.0927734
		c-0.1904297,0-0.3574219,0.0185547-0.5,0.0546875c-0.1435547,0.0371094-0.2734375,0.0830078-0.390625,0.1376953
		s-0.2236328,0.1191406-0.3193359,0.1923828s-0.1865234,0.1425781-0.2753906,0.2089844L190.5419922,11.4702148z
		 M193.3359375,13.5385742c-0.234375,0-0.4746094,0.0126953-0.7207031,0.0380859
		c-0.2451172,0.0263672-0.46875,0.0751953-0.6708984,0.1484375c-0.2011719,0.0732422-0.3662109,0.1767578-0.4941406,0.3085938
		c-0.1289062,0.1318359-0.1933594,0.3007812-0.1933594,0.5058594c0,0.3007812,0.1015625,0.5166016,0.3027344,0.6484375
		c0.2021484,0.1328125,0.4746094,0.1982422,0.8193359,0.1982422c0.2714844,0,0.5029297-0.0458984,0.6933594-0.1376953
		c0.1904297-0.0908203,0.3447266-0.2099609,0.4619141-0.3574219c0.1171875-0.1464844,0.2011719-0.3095703,0.2529297-0.4892578
		s0.0771484-0.3574219,0.0771484-0.5332031v-0.3300781H193.3359375z"/>
	<path fill="#CCCCCC" d="M195.9541016,10.8325195h0.9238281v0.8134766h0.0224609
		c0.0214844-0.0732422,0.0791016-0.1650391,0.1699219-0.2744141c0.0917969-0.1103516,0.2099609-0.2148438,0.3525391-0.3134766
		c0.1425781-0.0996094,0.3115234-0.1835938,0.5058594-0.2529297c0.1943359-0.0703125,0.4091797-0.1044922,0.6435547-0.1044922
		c0.3886719,0,0.7148438,0.0800781,0.9794922,0.2421875c0.2636719,0.1611328,0.4794922,0.4033203,0.6484375,0.7255859
		c0.1689453-0.3222656,0.4072266-0.5644531,0.7148438-0.7255859c0.3085938-0.1621094,0.6201172-0.2421875,0.9355469-0.2421875
		c0.4033203,0,0.7333984,0.0654297,0.9892578,0.1972656c0.2578125,0.1328125,0.4589844,0.3066406,0.6054688,0.5224609
		c0.1464844,0.2167969,0.2480469,0.4628906,0.3027344,0.7373047c0.0546875,0.2753906,0.0820312,0.5595703,0.0820312,0.8525391
		v3.0361328h-0.9902344v-2.9042969c0-0.1972656-0.0117188-0.3886719-0.0371094-0.5712891
		c-0.0263672-0.1835938-0.0800781-0.3447266-0.1601562-0.484375c-0.0810547-0.1396484-0.1943359-0.2509766-0.3408203-0.3359375
		c-0.1474609-0.0839844-0.3417969-0.1259766-0.5830078-0.1259766c-0.4775391,0-0.8183594,0.1464844-1.0234375,0.4394531
		c-0.2050781,0.2939453-0.3076172,0.671875-0.3076172,1.1337891v2.8486328h-0.9902344v-2.7275391
		c0-0.25-0.0126953-0.4775391-0.0390625-0.6826172c-0.0253906-0.2050781-0.0761719-0.3828125-0.1533203-0.5332031
		s-0.1875-0.2675781-0.3300781-0.3525391c-0.1435547-0.0839844-0.3359375-0.1259766-0.578125-0.1259766
		c-0.1757812,0-0.3457031,0.0351562-0.5107422,0.1044922s-0.3105469,0.1738281-0.4345703,0.3134766
		c-0.125,0.1396484-0.2236328,0.3173828-0.296875,0.5332031c-0.0742188,0.2167969-0.1103516,0.4716797-0.1103516,0.7646484
		v2.7060547h-0.9902344V10.8325195z"/>
	<path fill="#CCCCCC" d="M204.8964844,8.9624023c0-0.1982422,0.0712891-0.3681641,0.2148438-0.5117188
		c0.1425781-0.1425781,0.3134766-0.2138672,0.5117188-0.2138672c0.1972656,0,0.3681641,0.0712891,0.5107422,0.2138672
		c0.1435547,0.1435547,0.2148438,0.3134766,0.2148438,0.5117188s-0.0712891,0.3681641-0.2148438,0.5117188
		c-0.1425781,0.1425781-0.3134766,0.2138672-0.5107422,0.2138672c-0.1982422,0-0.3691406-0.0712891-0.5117188-0.2138672
		C204.9677734,9.3305664,204.8964844,9.1606445,204.8964844,8.9624023z M205.1279297,10.8325195h0.9902344v5.2138672h-0.9902344
		V10.8325195z"/>
	<path fill="#CCCCCC" d="M211.1445312,12.2182617c-0.1826172-0.1904297-0.375-0.3349609-0.5771484-0.4345703
		c-0.2021484-0.0986328-0.4414062-0.1484375-0.7207031-0.1484375c-0.2714844,0-0.5078125,0.0498047-0.7089844,0.1484375
		c-0.2021484,0.0996094-0.3710938,0.2353516-0.5058594,0.4072266c-0.1357422,0.171875-0.2382812,0.3701172-0.3085938,0.59375
		c-0.0693359,0.2236328-0.1044922,0.4570312-0.1044922,0.6982422c0,0.2421875,0.0400391,0.4716797,0.1210938,0.6875
		c0.0810547,0.2167969,0.1943359,0.4052734,0.3408203,0.5673828c0.1464844,0.1611328,0.3232422,0.2871094,0.5283203,0.3789062
		s0.4365234,0.1376953,0.6933594,0.1376953c0.2783203,0,0.5166016-0.0498047,0.7148438-0.1484375
		s0.3808594-0.2441406,0.5498047-0.4345703l0.7041016,0.7041016c-0.2568359,0.2861328-0.5556641,0.4912109-0.8964844,0.6162109
		c-0.3408203,0.1240234-0.7021484,0.1865234-1.0839844,0.1865234c-0.4033203,0-0.7714844-0.0654297-1.1054688-0.1982422
		c-0.3330078-0.1318359-0.6210938-0.3164062-0.8632812-0.5546875s-0.4287109-0.5244141-0.5605469-0.8583984
		c-0.1328125-0.3339844-0.1982422-0.7021484-0.1982422-1.1054688s0.0654297-0.7734375,0.1982422-1.1113281
		c0.1318359-0.3369141,0.3164062-0.6269531,0.5546875-0.8691406c0.2382812-0.2412109,0.5244141-0.4306641,0.8583984-0.5664062
		s0.7060547-0.203125,1.1162109-0.203125c0.3818359,0,0.7460938,0.0673828,1.0947266,0.203125
		s0.6503906,0.3427734,0.9072266,0.6220703L211.1445312,12.2182617z"/>
	<path fill="#CCCCCC" d="M215.2138672,12.1411133c-0.1171875-0.1464844-0.2617188-0.2695312-0.4335938-0.3681641
		c-0.1728516-0.0986328-0.3837891-0.1484375-0.6328125-0.1484375c-0.2353516,0-0.4384766,0.0498047-0.6103516,0.1484375
		c-0.1728516,0.0986328-0.2587891,0.2441406-0.2587891,0.4345703c0,0.1542969,0.0498047,0.2783203,0.1484375,0.3740234
		s0.2158203,0.171875,0.3525391,0.2304688c0.1347656,0.0595703,0.2802734,0.1035156,0.4335938,0.1328125
		c0.1542969,0.0292969,0.2861328,0.0546875,0.3964844,0.0761719c0.2128906,0.0517578,0.4121094,0.1142578,0.5996094,0.1875
		c0.1865234,0.0732422,0.3476562,0.1689453,0.4833984,0.2861328s0.2421875,0.2597656,0.3193359,0.4287109
		s0.1152344,0.3740234,0.1152344,0.6162109c0,0.2929688-0.0615234,0.5439453-0.1865234,0.7529297
		s-0.2861328,0.3798828-0.484375,0.5117188c-0.1972656,0.1318359-0.4228516,0.2275391-0.6757812,0.2861328
		c-0.2539062,0.0585938-0.5087891,0.0878906-0.7646484,0.0878906c-0.4326172,0-0.8125-0.0654297-1.1386719-0.1982422
		c-0.3261719-0.1318359-0.6181641-0.3740234-0.875-0.7255859L212.75,14.6381836
		c0.1611328,0.1611328,0.3417969,0.3046875,0.5390625,0.4296875c0.1982422,0.1240234,0.4404297,0.1865234,0.7265625,0.1865234
		c0.1240234,0,0.2509766-0.0126953,0.3789062-0.0380859c0.1289062-0.0263672,0.2421875-0.0664062,0.3408203-0.1210938
		c0.0996094-0.0556641,0.1796875-0.125,0.2421875-0.2089844c0.0625-0.0849609,0.09375-0.1816406,0.09375-0.2919922
		c0-0.1464844-0.0458984-0.2675781-0.1376953-0.3632812c-0.0917969-0.0947266-0.2011719-0.1699219-0.3300781-0.2246094
		c-0.1279297-0.0556641-0.2636719-0.0996094-0.40625-0.1328125c-0.1435547-0.0322266-0.2695312-0.0605469-0.3798828-0.0820312
		c-0.2128906-0.0517578-0.4140625-0.1103516-0.6054688-0.1757812c-0.1904297-0.0664062-0.359375-0.1542969-0.5058594-0.2646484
		c-0.1464844-0.109375-0.2636719-0.2490234-0.3515625-0.4179688c-0.0878906-0.1679688-0.1318359-0.3769531-0.1318359-0.6269531
		c0-0.2705078,0.0566406-0.5078125,0.1699219-0.7089844c0.1142578-0.2021484,0.2646484-0.3691406,0.4511719-0.5009766
		c0.1875-0.1318359,0.3994141-0.2304688,0.6376953-0.296875s0.4785156-0.0986328,0.7207031-0.0986328
		c0.3525391,0,0.6894531,0.0654297,1.0117188,0.1972656c0.3232422,0.1328125,0.5800781,0.3525391,0.7705078,0.6601562
		L215.2138672,12.1411133z"/>
</g>
<circle fill="#CCCCCC" cx="130.8958282" cy="12.1129742" r="1.1422229"/>
<path fill="none" stroke="#000000" stroke-width="0.5733722" stroke-miterlimit="10" d="M122.2531509,14.1545305"/>
<path fill="none" stroke="#000000" stroke-width="0.5004681" stroke-miterlimit="10" d="M122.2575912,12.770997"/>
<path fill="none" stroke="#000000" stroke-width="0.5733722" stroke-miterlimit="10" d="M121.7592773,14.1545305"/>
<g>
</g>
<g>
</g>
<g>
</g>
<g>
</g>
<g>
</g>
<g>
</g>
<g>
</g>
<g>
</g>
<g>
</g>
<g>
</g>
<g>
</g>
<g>
</g>
<g>
</g>
<g>
</g>
<g>
</g>
</svg>
