<?xml version="1.0" encoding="utf-8"?>
<!-- Generator: Adobe Illustrator 17.1.0, SVG Export Plug-In . SVG Version: 6.00 Build 0)  -->
<!DOCTYPE svg PUBLIC "-//W3C//DTD SVG 1.1//EN" "http://www.w3.org/Graphics/SVG/1.1/DTD/svg11.dtd">
<svg version="1.1" id="Layer_1" xmlns="http://www.w3.org/2000/svg" xmlns:xlink="http://www.w3.org/1999/xlink" x="0px" y="0px"
	 width="240px" height="40px" viewBox="0 0 240 40" enable-background="new 0 0 240 40" xml:space="preserve">
<g>
	<path d="M27.8608398,9.6708984h0.9570312l3.3330078,7.7880859h-1.2319336l-0.7807617-1.9248047h-3.7070312l-0.7700195,1.9248047
		h-1.2319336L27.8608398,9.6708984z M29.7529297,14.6103516l-1.4521484-3.5751953h-0.0219727l-1.4736328,3.5751953H29.7529297z"/>
	<path d="M32.6352539,9.1425781H33.625v3.8505859h0.0219727c0.1762695-0.2714844,0.4291992-0.4863281,0.7592773-0.6435547
		c0.3300781-0.1582031,0.6821289-0.2363281,1.0561523-0.2363281c0.402832,0,0.7680664,0.0693359,1.0942383,0.2089844
		c0.3261719,0.1386719,0.6049805,0.3320312,0.8359375,0.5771484c0.230957,0.2460938,0.4086914,0.5351562,0.5336914,0.8691406
		c0.1245117,0.3339844,0.1870117,0.6943359,0.1870117,1.0830078c0,0.3896484-0.0625,0.7480469-0.1870117,1.078125
		c-0.125,0.3300781-0.3027344,0.6201172-0.5336914,0.8691406c-0.230957,0.25-0.5097656,0.4443359-0.8359375,0.5830078
		c-0.3261719,0.1396484-0.6914062,0.2089844-1.0942383,0.2089844c-0.3520508,0-0.6953125-0.0771484-1.0288086-0.2304688
		c-0.3334961-0.1542969-0.5957031-0.3701172-0.7866211-0.6494141H33.625v0.7480469h-0.9897461V9.1425781z M35.3413086,16.6669922
		c0.2636719,0,0.5019531-0.0458984,0.7148438-0.1376953s0.3920898-0.2158203,0.5390625-0.3740234
		c0.1464844-0.1572266,0.2602539-0.3476562,0.3408203-0.5722656c0.0805664-0.2226562,0.1210938-0.4667969,0.1210938-0.7314453
		c0-0.2636719-0.0405273-0.5068359-0.1210938-0.7314453c-0.0805664-0.2236328-0.1943359-0.4140625-0.3408203-0.5712891
		c-0.1469727-0.1582031-0.3261719-0.2822266-0.5390625-0.3740234s-0.4511719-0.1376953-0.7148438-0.1376953
		c-0.2641602,0-0.5024414,0.0458984-0.715332,0.1376953c-0.2124023,0.0917969-0.3920898,0.2158203-0.5385742,0.3740234
		c-0.1469727,0.1572266-0.2607422,0.3476562-0.3413086,0.5712891C33.6655273,14.3447266,33.625,14.5878906,33.625,14.8515625
		c0,0.2646484,0.0405273,0.5087891,0.1210938,0.7314453c0.0805664,0.2246094,0.1943359,0.4150391,0.3413086,0.5722656
		c0.1464844,0.1582031,0.3261719,0.2822266,0.5385742,0.3740234C34.8388672,16.6210938,35.0771484,16.6669922,35.3413086,16.6669922
		z"/>
	<path d="M38.828125,14.8515625c0-0.3808594,0.0712891-0.7363281,0.2143555-1.0664062s0.3393555-0.6201172,0.5883789-0.8691406
		c0.2495117-0.2490234,0.5429688-0.4453125,0.8803711-0.5888672c0.3369141-0.1425781,0.7001953-0.2138672,1.0888672-0.2138672
		s0.7514648,0.0712891,1.0888672,0.2138672c0.3374023,0.1435547,0.6308594,0.3398438,0.8798828,0.5888672
		c0.2495117,0.2490234,0.4458008,0.5390625,0.5888672,0.8691406c0.1425781,0.3300781,0.2143555,0.6855469,0.2143555,1.0664062
		c0,0.3818359-0.0717773,0.7392578-0.2143555,1.0732422c-0.1430664,0.3330078-0.3393555,0.6230469-0.5888672,0.8691406
		c-0.2490234,0.2451172-0.5424805,0.4394531-0.8798828,0.5830078c-0.3374023,0.1425781-0.7001953,0.2138672-1.0888672,0.2138672
		s-0.7519531-0.0712891-1.0888672-0.2138672c-0.3374023-0.1435547-0.6308594-0.3378906-0.8803711-0.5830078
		c-0.2490234-0.2460938-0.4453125-0.5361328-0.5883789-0.8691406C38.8994141,15.5908203,38.828125,15.2333984,38.828125,14.8515625z
		 M39.8837891,14.8515625c0,0.2646484,0.0405273,0.5087891,0.1210938,0.7314453
		c0.0805664,0.2246094,0.1943359,0.4150391,0.3413086,0.5722656c0.1464844,0.1582031,0.3261719,0.2822266,0.5385742,0.3740234
		c0.2128906,0.0917969,0.4511719,0.1376953,0.715332,0.1376953c0.2636719,0,0.5019531-0.0458984,0.7148438-0.1376953
		s0.3920898-0.2158203,0.5390625-0.3740234c0.1464844-0.1572266,0.2602539-0.3476562,0.3408203-0.5722656
		c0.0805664-0.2226562,0.1210938-0.4667969,0.1210938-0.7314453c0-0.2636719-0.0405273-0.5068359-0.1210938-0.7314453
		c-0.0805664-0.2236328-0.1943359-0.4140625-0.3408203-0.5712891c-0.1469727-0.1582031-0.3261719-0.2822266-0.5390625-0.3740234
		s-0.4511719-0.1376953-0.7148438-0.1376953c-0.2641602,0-0.5024414,0.0458984-0.715332,0.1376953
		c-0.2124023,0.0917969-0.3920898,0.2158203-0.5385742,0.3740234c-0.1469727,0.1572266-0.2607422,0.3476562-0.3413086,0.5712891
		C39.9243164,14.3447266,39.8837891,14.5878906,39.8837891,14.8515625z"/>
	<path d="M49.9599609,17.4589844h-0.9902344V16.65625h-0.0219727c-0.1245117,0.2783203-0.3408203,0.5039062-0.6489258,0.6757812
		c-0.3081055,0.1728516-0.6635742,0.2587891-1.0668945,0.2587891c-0.2568359,0-0.4990234-0.0380859-0.7260742-0.1152344
		c-0.2275391-0.0771484-0.4272461-0.1962891-0.5996094-0.3574219s-0.3100586-0.3691406-0.4125977-0.6220703
		s-0.1538086-0.5517578-0.1538086-0.8964844v-3.3544922h0.9897461v3.0800781c0,0.2421875,0.0332031,0.4492188,0.0991211,0.6210938
		c0.065918,0.1728516,0.1542969,0.3115234,0.2641602,0.4179688s0.2363281,0.1835938,0.3793945,0.2314453
		s0.2915039,0.0712891,0.4453125,0.0712891c0.2055664,0,0.3959961-0.0332031,0.5722656-0.0986328
		c0.1757812-0.0664062,0.3300781-0.1708984,0.4619141-0.3134766c0.1318359-0.1435547,0.2348633-0.3251953,0.3081055-0.5449219
		s0.1098633-0.4804688,0.1098633-0.78125v-2.6835938h0.9902344V17.4589844z"/>
	<path d="M54.4150391,13.1025391h-1.4189453v2.3652344c0,0.1474609,0.003418,0.2919922,0.0107422,0.4345703
		c0.0073242,0.1435547,0.0351562,0.2714844,0.0825195,0.3847656c0.0478516,0.1142578,0.1210938,0.2060547,0.2202148,0.2753906
		s0.2436523,0.1044922,0.4345703,0.1044922c0.1171875,0,0.2382812-0.0107422,0.362793-0.0332031
		c0.1245117-0.0214844,0.2382812-0.0625,0.3413086-0.1210938v0.9023438
		c-0.1176758,0.0664062-0.2695312,0.1113281-0.456543,0.1376953c-0.1870117,0.0253906-0.3320312,0.0380859-0.4345703,0.0380859
		c-0.3813477,0-0.6767578-0.0527344-0.8857422-0.1591797s-0.362793-0.2441406-0.4619141-0.4130859
		c-0.0991211-0.1679688-0.1577148-0.3574219-0.1757812-0.5664062c-0.0185547-0.2089844-0.027832-0.4189453-0.027832-0.6318359
		v-2.7177734h-1.144043v-0.8574219h1.144043v-1.4628906h0.9902344v1.4628906h1.4189453V13.1025391z"/>
</g>
<polygon opacity="0.99" fill="#F3FF99" points="5.0468173,9.1881447 12.0079403,5.1691384 18.9690647,9.1881447 
	18.9690647,17.2261581 12.0079403,21.2451649 5.0468173,17.2261581 "/>
<circle fill="none" stroke="#000000" stroke-width="0.5" stroke-miterlimit="10" cx="12.0571842" cy="2.8286235" r="1.7466447"/>
<circle fill="none" stroke="#000000" stroke-width="0.5" stroke-miterlimit="10" cx="12.0571842" cy="13.1602249" r="1.7466447"/>
<circle fill="none" stroke="#000000" stroke-width="0.5" stroke-miterlimit="10" cx="12.0571842" cy="23.5535164" r="1.7466447"/>
<circle fill="none" stroke="#000000" stroke-width="0.5" stroke-miterlimit="10" cx="2.7466447" cy="18.471035" r="1.7466447"/>
<circle fill="none" stroke="#000000" stroke-width="0.5" stroke-miterlimit="10" cx="2.7466447" cy="8.1394339" r="1.7466447"/>
<circle fill="none" stroke="#000000" stroke-width="0.5" stroke-miterlimit="10" cx="21.4027901" cy="18.471035" r="1.7466447"/>
<circle fill="none" stroke="#000000" stroke-width="0.5" stroke-miterlimit="10" cx="21.4027901" cy="8.1394339" r="1.7466447"/>
<line fill="none" stroke="#000000" stroke-width="0.5" stroke-miterlimit="10" stroke-dasharray="0.7907899,0.7907899" x1="21.5157299" y1="10.5394821" x2="21.5157299" y2="16.75"/>
<line fill="none" stroke="#000000" stroke-width="0.5" stroke-miterlimit="10" stroke-dasharray="0.7907899,0.7907899" x1="2.7240634" y1="10.5394821" x2="2.7240634" y2="16.75"/>
<line fill="none" stroke="#000000" stroke-width="0.5" stroke-miterlimit="10" stroke-dasharray="0.7907899,0.7907899" x1="12.1407299" y1="15.6668816" x2="12.1407299" y2="21.8773994"/>
<line fill="none" stroke="#000000" stroke-width="0.5" stroke-miterlimit="10" x1="4.2964306" y1="7.2179332" x2="10.5065565" y2="3.6361592"/>
<line fill="none" stroke="#000000" stroke-width="0.5" stroke-miterlimit="10" stroke-dasharray="0.7872308,0.7873204" x1="13.5729675" y1="22.7045956" x2="19.8346291" y2="19.2774315"/>
<line fill="none" stroke="#000000" stroke-width="0.5" stroke-miterlimit="10" stroke-dasharray="0.7873204,0.7873204" x1="4.3221989" y1="19.328968" x2="10.5580931" y2="22.7045956"/>
<line fill="none" stroke="#000000" stroke-width="0.5" stroke-miterlimit="10" x1="13.5987358" y1="3.6876955" x2="19.9119339" y2="7.2952375"/>
<line fill="none" stroke="#000000" stroke-width="0.5" stroke-miterlimit="10" x1="4.2706623" y1="9.0345888" x2="10.4550209" y2="12.3586807"/>
<line fill="none" stroke="#000000" stroke-width="0.5" stroke-miterlimit="10" x1="13.5858517" y1="12.3200283" x2="19.8861656" y2="8.957284"/>
<g>
	<path fill="#FFFFFF" d="M147.8398438,9.6708984h0.9570312l3.3330078,7.7880859h-1.2314453l-0.78125-1.9248047h-3.7070312
		l-0.7695312,1.9248047h-1.2324219L147.8398438,9.6708984z M149.7324219,14.6103516l-1.4521484-3.5751953h-0.0224609
		l-1.4736328,3.5751953H149.7324219z"/>
	<path fill="#FFFFFF" d="M152.6142578,9.1425781h0.9892578v3.8505859h0.0224609
		c0.1757812-0.2714844,0.4287109-0.4863281,0.7587891-0.6435547c0.3300781-0.1582031,0.6826172-0.2363281,1.0566406-0.2363281
		c0.4023438,0,0.7675781,0.0693359,1.09375,0.2089844c0.3261719,0.1386719,0.6054688,0.3320312,0.8359375,0.5771484
		c0.2314453,0.2460938,0.4091797,0.5351562,0.5341797,0.8691406c0.1240234,0.3339844,0.1865234,0.6943359,0.1865234,1.0830078
		c0,0.3896484-0.0625,0.7480469-0.1865234,1.078125c-0.125,0.3300781-0.3027344,0.6201172-0.5341797,0.8691406
		c-0.2304688,0.25-0.5097656,0.4443359-0.8359375,0.5830078c-0.3261719,0.1396484-0.6914062,0.2089844-1.09375,0.2089844
		c-0.3525391,0-0.6953125-0.0771484-1.0292969-0.2304688c-0.3330078-0.1542969-0.5957031-0.3701172-0.7861328-0.6494141h-0.0224609
		v0.7480469h-0.9892578V9.1425781z M155.3203125,16.6669922c0.2636719,0,0.5019531-0.0458984,0.7148438-0.1376953
		s0.3916016-0.2158203,0.5390625-0.3740234c0.1464844-0.1572266,0.2597656-0.3476562,0.3408203-0.5722656
		c0.0800781-0.2226562,0.1210938-0.4667969,0.1210938-0.7314453c0-0.2636719-0.0410156-0.5068359-0.1210938-0.7314453
		c-0.0810547-0.2236328-0.1943359-0.4140625-0.3408203-0.5712891c-0.1474609-0.1582031-0.3261719-0.2822266-0.5390625-0.3740234
		s-0.4511719-0.1376953-0.7148438-0.1376953c-0.2646484,0-0.5029297,0.0458984-0.7158203,0.1376953
		c-0.2119141,0.0917969-0.3916016,0.2158203-0.5380859,0.3740234c-0.1474609,0.1572266-0.2607422,0.3476562-0.3417969,0.5712891
		c-0.0800781,0.2246094-0.1210938,0.4677734-0.1210938,0.7314453c0,0.2646484,0.0410156,0.5087891,0.1210938,0.7314453
		c0.0810547,0.2246094,0.1943359,0.4150391,0.3417969,0.5722656c0.1464844,0.1582031,0.3261719,0.2822266,0.5380859,0.3740234
		C154.8173828,16.6210938,155.0556641,16.6669922,155.3203125,16.6669922z"/>
	<path fill="#FFFFFF" d="M158.8076172,14.8515625c0-0.3808594,0.0712891-0.7363281,0.2138672-1.0664062
		c0.1435547-0.3300781,0.3398438-0.6201172,0.5888672-0.8691406s0.5429688-0.4453125,0.8798828-0.5888672
		c0.3369141-0.1425781,0.7001953-0.2138672,1.0888672-0.2138672s0.7519531,0.0712891,1.0888672,0.2138672
		c0.3378906,0.1435547,0.6308594,0.3398438,0.8798828,0.5888672c0.25,0.2490234,0.4462891,0.5390625,0.5888672,0.8691406
		s0.2148438,0.6855469,0.2148438,1.0664062c0,0.3818359-0.0722656,0.7392578-0.2148438,1.0732422
		c-0.1425781,0.3330078-0.3388672,0.6230469-0.5888672,0.8691406c-0.2490234,0.2451172-0.5419922,0.4394531-0.8798828,0.5830078
		c-0.3369141,0.1425781-0.7001953,0.2138672-1.0888672,0.2138672s-0.7519531-0.0712891-1.0888672-0.2138672
		c-0.3369141-0.1435547-0.6308594-0.3378906-0.8798828-0.5830078c-0.2490234-0.2460938-0.4453125-0.5361328-0.5888672-0.8691406
		C158.8789062,15.5908203,158.8076172,15.2333984,158.8076172,14.8515625z M159.8632812,14.8515625
		c0,0.2646484,0.0400391,0.5087891,0.1210938,0.7314453c0.0800781,0.2246094,0.1943359,0.4150391,0.3408203,0.5722656
		c0.1464844,0.1582031,0.3261719,0.2822266,0.5390625,0.3740234s0.4511719,0.1376953,0.7148438,0.1376953
		s0.5019531-0.0458984,0.7148438-0.1376953s0.3925781-0.2158203,0.5390625-0.3740234
		c0.1464844-0.1572266,0.2607422-0.3476562,0.3408203-0.5722656c0.0810547-0.2226562,0.1210938-0.4667969,0.1210938-0.7314453
		c0-0.2636719-0.0400391-0.5068359-0.1210938-0.7314453c-0.0800781-0.2236328-0.1943359-0.4140625-0.3408203-0.5712891
		c-0.1464844-0.1582031-0.3261719-0.2822266-0.5390625-0.3740234s-0.4511719-0.1376953-0.7148438-0.1376953
		s-0.5019531,0.0458984-0.7148438,0.1376953s-0.3925781,0.2158203-0.5390625,0.3740234
		c-0.1464844,0.1572266-0.2607422,0.3476562-0.3408203,0.5712891
		C159.9033203,14.3447266,159.8632812,14.5878906,159.8632812,14.8515625z"/>
	<path fill="#FFFFFF" d="M169.9394531,17.4589844h-0.9902344V16.65625h-0.0224609
		c-0.1240234,0.2783203-0.3408203,0.5039062-0.6484375,0.6757812c-0.3085938,0.1728516-0.6640625,0.2587891-1.0673828,0.2587891
		c-0.2568359,0-0.4990234-0.0380859-0.7255859-0.1152344c-0.2275391-0.0771484-0.4277344-0.1962891-0.5996094-0.3574219
		c-0.1728516-0.1611328-0.3105469-0.3691406-0.4130859-0.6220703s-0.1533203-0.5517578-0.1533203-0.8964844v-3.3544922h0.9892578
		v3.0800781c0,0.2421875,0.0332031,0.4492188,0.0996094,0.6210938c0.0654297,0.1728516,0.1542969,0.3115234,0.2636719,0.4179688
		c0.1103516,0.1064453,0.2363281,0.1835938,0.3798828,0.2314453c0.1425781,0.0478516,0.2910156,0.0712891,0.4453125,0.0712891
		c0.2050781,0,0.3955078-0.0332031,0.5722656-0.0986328c0.1757812-0.0664062,0.3300781-0.1708984,0.4619141-0.3134766
		c0.1318359-0.1435547,0.234375-0.3251953,0.3076172-0.5449219s0.1103516-0.4804688,0.1103516-0.78125v-2.6835938h0.9902344
		V17.4589844z"/>
	<path fill="#FFFFFF" d="M174.3935547,13.1025391h-1.4189453v2.3652344c0,0.1474609,0.0039062,0.2919922,0.0107422,0.4345703
		c0.0078125,0.1435547,0.0351562,0.2714844,0.0830078,0.3847656c0.0478516,0.1142578,0.1210938,0.2060547,0.2197266,0.2753906
		c0.0996094,0.0693359,0.2441406,0.1044922,0.4345703,0.1044922c0.1171875,0,0.2382812-0.0107422,0.3632812-0.0332031
		c0.1240234-0.0214844,0.2382812-0.0625,0.3408203-0.1210938v0.9023438
		c-0.1171875,0.0664062-0.2695312,0.1113281-0.4560547,0.1376953c-0.1875,0.0253906-0.3320312,0.0380859-0.4345703,0.0380859
		c-0.3818359,0-0.6767578-0.0527344-0.8857422-0.1591797s-0.3632812-0.2441406-0.4619141-0.4130859
		c-0.0996094-0.1679688-0.1582031-0.3574219-0.1757812-0.5664062c-0.0185547-0.2089844-0.0283203-0.4189453-0.0283203-0.6318359
		v-2.7177734h-1.1435547v-0.8574219h1.1435547v-1.4628906h0.9902344v1.4628906h1.4189453V13.1025391z"/>
</g>
<polygon opacity="0.99" fill="#F3FF99" points="125.0259857,9.1881447 131.9871063,5.1691384 138.9482269,9.1881447 
	138.9482269,17.2261581 131.9871063,21.2451649 125.0259857,17.2261581 "/>
<circle fill="none" stroke="#FFFFFF" stroke-width="0.5" stroke-miterlimit="10" cx="132.0363464" cy="2.8286235" r="1.7466447"/>
<circle fill="none" stroke="#FFFFFF" stroke-width="0.5" stroke-miterlimit="10" cx="132.0363464" cy="13.1602249" r="1.7466447"/>
<circle fill="none" stroke="#FFFFFF" stroke-width="0.5" stroke-miterlimit="10" cx="132.0363464" cy="23.5535164" r="1.7466447"/>
<circle fill="none" stroke="#FFFFFF" stroke-width="0.5" stroke-miterlimit="10" cx="122.7258148" cy="18.471035" r="1.7466447"/>
<circle fill="none" stroke="#FFFFFF" stroke-width="0.5" stroke-miterlimit="10" cx="122.7258148" cy="8.1394339" r="1.7466447"/>
<circle fill="none" stroke="#FFFFFF" stroke-width="0.5" stroke-miterlimit="10" cx="141.381958" cy="18.471035" r="1.7466447"/>
<circle fill="none" stroke="#FFFFFF" stroke-width="0.5" stroke-miterlimit="10" cx="141.381958" cy="8.1394339" r="1.7466447"/>
<line fill="none" stroke="#FAFAFA" stroke-width="0.5" stroke-miterlimit="10" stroke-dasharray="0.7907899,0.7907899" x1="141.4949036" y1="10.5394821" x2="141.4949036" y2="16.75"/>
<line fill="none" stroke="#FFFFFF" stroke-width="0.5" stroke-miterlimit="10" stroke-dasharray="0.7907899,0.7907899" x1="122.7032318" y1="10.5394821" x2="122.7032318" y2="16.75"/>
<line fill="none" stroke="#FFFFFF" stroke-width="0.5" stroke-miterlimit="10" stroke-dasharray="0.7907899,0.7907899" x1="132.1199036" y1="15.6668816" x2="132.1199036" y2="21.8773994"/>
<line fill="none" stroke="#FFFFFF" stroke-width="0.5" stroke-miterlimit="10" x1="124.2755966" y1="7.2179332" x2="130.4857178" y2="3.6361592"/>
<line fill="none" stroke="#FFFFFF" stroke-width="0.5" stroke-miterlimit="10" stroke-dasharray="0.7872308,0.7873204" x1="133.5521393" y1="22.7045956" x2="139.813797" y2="19.2774315"/>
<line fill="none" stroke="#FFFFFF" stroke-width="0.5" stroke-miterlimit="10" stroke-dasharray="0.7873204,0.7873204" x1="124.3013687" y1="19.328968" x2="130.537262" y2="22.7045956"/>
<line fill="none" stroke="#FFFFFF" stroke-width="0.5" stroke-miterlimit="10" x1="133.5778961" y1="3.6876955" x2="139.891098" y2="7.2952375"/>
<line fill="none" stroke="#FFFFFF" stroke-width="0.5" stroke-miterlimit="10" x1="124.2498322" y1="9.0345888" x2="130.4341888" y2="12.3586807"/>
<line fill="none" stroke="#FFFFFF" stroke-width="0.5" stroke-miterlimit="10" x1="133.5650177" y1="12.3200283" x2="139.8653412" y2="8.957284"/>
<g>
</g>
<g>
</g>
<g>
</g>
<g>
</g>
<g>
</g>
<g>
</g>
<g>
</g>
<g>
</g>
<g>
</g>
<g>
</g>
<g>
</g>
<g>
</g>
<g>
</g>
<g>
</g>
<g>
</g>
</svg>
