<?xml version="1.0" encoding="utf-8"?>
<!-- Generator: Adobe Illustrator 17.1.0, SVG Export Plug-In . SVG Version: 6.00 Build 0)  -->
<!DOCTYPE svg PUBLIC "-//W3C//DTD SVG 1.1//EN" "http://www.w3.org/Graphics/SVG/1.1/DTD/svg11.dtd">
<svg version="1.1" id="Layer_1" xmlns="http://www.w3.org/2000/svg" xmlns:xlink="http://www.w3.org/1999/xlink" x="0px" y="0px"
	 width="240px" height="40px" viewBox="0 0 240 40" enable-background="new 0 0 240 40" xml:space="preserve">
<path fill="#FAFAFA" stroke="#FAFAFA" stroke-width="0.75" d="M11,12c0.6,1.3,0.6,2.6,0.1,3.9c-0.5,1.3-1.4,2.3-2.7,2.9
	c-1.3,0.6-2.6,0.6-4,0.1c-1.3-0.5-2.3-1.4-2.9-2.7c-0.6-1.3-0.6-2.6-0.1-4C2,11,2.9,10,4.2,9.5s2.6-0.6,3.9-0.1
	C9.5,9.8,10.5,10.7,11,12z"/>
<path fill="none" stroke="#FAFAFA" stroke-width="0.75" d="M17.3,7.9c-0.6,0.7-1.4,1-2.4,1.1C14,9,13.2,8.7,12.5,8
	c-0.7-0.6-1-1.4-1.1-2.4c0-0.9,0.3-1.8,0.9-2.4s1.4-1,2.4-1.1c0.9,0,1.8,0.3,2.4,0.9c0.7,0.6,1,1.4,1.1,2.4
	C18.2,6.4,17.9,7.2,17.3,7.9z"/>
<path fill="#FAFAFA" stroke="#FAFAFA" stroke-width="0.75" d="M19.2,16.5c-0.7-0.1-1.2-0.3-1.6-0.8c-0.4-0.5-0.6-1.1-0.6-1.7
	c0.1-0.7,0.3-1.2,0.8-1.6s1.1-0.6,1.7-0.6c0.7,0.1,1.2,0.3,1.6,0.8c0.4,0.5,0.6,1.1,0.6,1.7c-0.1,0.7-0.3,1.2-0.8,1.6
	C20.4,16.3,19.8,16.5,19.2,16.5z"/>
<path fill="none" stroke="#FAFAFA" stroke-width="0.75" d="M13.5,22.2c-0.3-0.3-0.5-0.6-0.6-1c-0.1-0.4,0-0.8,0.3-1.1
	c0.3-0.3,0.6-0.5,1-0.6c0.4-0.1,0.8,0,1.1,0.3c0.3,0.3,0.5,0.6,0.6,1c0.1,0.4,0,0.8-0.3,1.1c-0.3,0.3-0.6,0.5-1,0.6
	C14.2,22.5,13.8,22.4,13.5,22.2z"/>
<line fill="none" stroke="#FAFAFA" stroke-width="0.75" x1="11.4" y1="14.1" x2="16.9" y2="14.1"/>
<line fill="none" stroke="#FAFAFA" stroke-width="0.75" x1="16.3" y1="8.5" x2="18.3" y2="12.3"/>
<line fill="none" stroke="#FAFAFA" stroke-width="0.75" x1="17.9" y1="15.8" x2="15.2" y2="19.9"/>
<circle opacity="0.99" fill="#FF9800" cx="6.3" cy="14.2" r="3.6"/>
<g>
	<path fill="#FAFAFA" d="M24.6,10.3h2.7c0.3,0,0.7,0,0.9,0.1s0.5,0.2,0.7,0.4c0.2,0.2,0.4,0.4,0.5,0.6c0.1,0.2,0.2,0.5,0.2,0.9
		c0,0.4-0.1,0.8-0.4,1.1c-0.2,0.3-0.6,0.5-1,0.6v0c0.2,0,0.5,0.1,0.7,0.2c0.2,0.1,0.4,0.2,0.5,0.4c0.2,0.2,0.3,0.4,0.4,0.6
		C30,15.4,30,15.7,30,16c0,0.4-0.1,0.7-0.2,0.9c-0.1,0.3-0.3,0.5-0.6,0.7c-0.2,0.2-0.5,0.3-0.9,0.4c-0.3,0.1-0.7,0.1-1.1,0.1h-2.7
		V10.3z M25.7,13.6h1.4c0.2,0,0.4,0,0.6-0.1c0.2,0,0.3-0.1,0.5-0.2c0.1-0.1,0.2-0.2,0.3-0.4s0.1-0.3,0.1-0.5c0-0.3-0.1-0.6-0.3-0.8
		c-0.2-0.2-0.5-0.3-0.9-0.3h-1.7V13.6z M25.7,17.2h1.6c0.2,0,0.3,0,0.5,0s0.4-0.1,0.5-0.2c0.2-0.1,0.3-0.2,0.4-0.4
		c0.1-0.2,0.2-0.4,0.2-0.7c0-0.5-0.2-0.8-0.5-1c-0.3-0.2-0.7-0.3-1.2-0.3h-1.6V17.2z"/>
	<path fill="#FAFAFA" d="M31.1,9.8h1v8.3h-1V9.8z"/>
	<path fill="#FAFAFA" d="M33.1,15.5c0-0.4,0.1-0.7,0.2-1.1s0.3-0.6,0.6-0.9c0.2-0.2,0.5-0.4,0.9-0.6c0.3-0.1,0.7-0.2,1.1-0.2
		s0.8,0.1,1.1,0.2c0.3,0.1,0.6,0.3,0.9,0.6c0.2,0.2,0.4,0.5,0.6,0.9c0.1,0.3,0.2,0.7,0.2,1.1c0,0.4-0.1,0.7-0.2,1.1
		c-0.1,0.3-0.3,0.6-0.6,0.9c-0.2,0.2-0.5,0.4-0.9,0.6c-0.3,0.1-0.7,0.2-1.1,0.2s-0.8-0.1-1.1-0.2c-0.3-0.1-0.6-0.3-0.9-0.6
		c-0.2-0.2-0.4-0.5-0.6-0.9C33.2,16.3,33.1,15.9,33.1,15.5z M34.2,15.5c0,0.3,0,0.5,0.1,0.7c0.1,0.2,0.2,0.4,0.3,0.6
		c0.1,0.2,0.3,0.3,0.5,0.4c0.2,0.1,0.5,0.1,0.7,0.1c0.3,0,0.5,0,0.7-0.1s0.4-0.2,0.5-0.4c0.1-0.2,0.3-0.3,0.3-0.6
		c0.1-0.2,0.1-0.5,0.1-0.7c0-0.3,0-0.5-0.1-0.7c-0.1-0.2-0.2-0.4-0.3-0.6c-0.1-0.2-0.3-0.3-0.5-0.4s-0.5-0.1-0.7-0.1
		c-0.3,0-0.5,0-0.7,0.1c-0.2,0.1-0.4,0.2-0.5,0.4c-0.1,0.2-0.3,0.3-0.3,0.6C34.2,15,34.2,15.3,34.2,15.5z"/>
	<path fill="#FAFAFA" d="M44.9,18.1c0,0.4-0.1,0.8-0.2,1.1s-0.3,0.6-0.6,0.8s-0.5,0.4-0.9,0.6c-0.4,0.1-0.7,0.2-1.2,0.2
		c-0.5,0-1-0.1-1.4-0.2c-0.4-0.1-0.8-0.4-1.2-0.7l0.7-0.8c0.3,0.3,0.5,0.5,0.8,0.6c0.3,0.1,0.6,0.2,1,0.2c0.4,0,0.7-0.1,0.9-0.2
		c0.2-0.1,0.4-0.2,0.6-0.4c0.1-0.2,0.2-0.4,0.3-0.6c0.1-0.2,0.1-0.4,0.1-0.7v-0.8h0c-0.2,0.3-0.4,0.5-0.8,0.7s-0.7,0.2-1,0.2
		c-0.4,0-0.7-0.1-1.1-0.2s-0.6-0.3-0.8-0.6c-0.2-0.2-0.4-0.5-0.6-0.8c-0.1-0.3-0.2-0.7-0.2-1.1c0-0.4,0.1-0.7,0.2-1.1
		c0.1-0.3,0.3-0.6,0.5-0.9s0.5-0.4,0.8-0.6c0.3-0.1,0.7-0.2,1.1-0.2c0.4,0,0.7,0.1,1,0.2c0.3,0.2,0.6,0.4,0.8,0.6h0v-0.7h1V18.1z
		 M42.2,13.7c-0.3,0-0.5,0-0.7,0.1c-0.2,0.1-0.4,0.2-0.5,0.4c-0.1,0.2-0.3,0.3-0.3,0.6c-0.1,0.2-0.1,0.5-0.1,0.7
		c0,0.5,0.2,1,0.5,1.3c0.3,0.3,0.7,0.5,1.3,0.5c0.5,0,0.9-0.2,1.3-0.5c0.3-0.3,0.5-0.7,0.5-1.3c0-0.3,0-0.5-0.1-0.7
		c-0.1-0.2-0.2-0.4-0.3-0.6c-0.1-0.2-0.3-0.3-0.5-0.4S42.4,13.7,42.2,13.7z"/>
</g>
<path opacity="0.99" fill="#FF9800" d="M18.3,14.7c-0.2-0.3-0.2-0.6-0.1-1s0.3-0.6,0.6-0.8c0.3-0.2,0.6-0.2,1-0.1
	c0.3,0.1,0.6,0.3,0.8,0.6c0.2,0.3,0.2,0.6,0.1,1c-0.1,0.3-0.3,0.6-0.6,0.8c-0.3,0.2-0.6,0.2-1,0.1C18.7,15.3,18.4,15.1,18.3,14.7z"
	/>
<path fill="none" stroke="#D3E6EA" stroke-width="0.75" d="M131,12c0.6,1.3,0.6,2.6,0.1,3.9c-0.5,1.3-1.4,2.3-2.7,2.9
	c-1.3,0.6-2.6,0.6-4,0.1c-1.3-0.5-2.3-1.4-2.9-2.7c-0.6-1.3-0.6-2.6-0.1-4c0.5-1.3,1.4-2.3,2.7-2.9c1.3-0.6,2.6-0.6,3.9-0.1
	C129.5,9.8,130.5,10.7,131,12z"/>
<path fill="none" stroke="#D3E6EA" stroke-width="0.75" d="M137.3,7.9c-0.6,0.7-1.4,1-2.4,1.1c-0.9,0-1.7-0.3-2.4-0.9
	c-0.7-0.6-1-1.4-1.1-2.4c0-0.9,0.3-1.8,0.9-2.4c0.6-0.7,1.4-1,2.4-1.1c0.9,0,1.8,0.3,2.4,0.9c0.7,0.6,1,1.4,1.1,2.4
	C138.2,6.4,137.9,7.2,137.3,7.9z"/>
<path fill="none" stroke="#D3E6EA" stroke-width="0.75" d="M139.2,16.5c-0.7-0.1-1.2-0.3-1.6-0.8c-0.4-0.5-0.6-1.1-0.6-1.7
	c0.1-0.7,0.3-1.2,0.8-1.6c0.5-0.4,1.1-0.6,1.7-0.6c0.7,0.1,1.2,0.3,1.6,0.8c0.4,0.5,0.6,1.1,0.6,1.7c-0.1,0.7-0.3,1.2-0.8,1.6
	C140.4,16.3,139.8,16.5,139.2,16.5z"/>
<path fill="none" stroke="#D3E6EA" stroke-width="0.75" d="M133.5,22.2c-0.3-0.3-0.5-0.6-0.6-1c-0.1-0.4,0-0.8,0.3-1.1
	c0.3-0.3,0.6-0.5,1-0.6c0.4-0.1,0.8,0,1.1,0.3c0.3,0.3,0.5,0.6,0.6,1c0.1,0.4,0,0.8-0.3,1.1c-0.3,0.3-0.6,0.5-1,0.6
	C134.2,22.5,133.8,22.4,133.5,22.2z"/>
<line fill="none" stroke="#D3E6EA" stroke-width="0.75" x1="131.4" y1="14.1" x2="136.9" y2="14.1"/>
<line fill="none" stroke="#D3E6EA" stroke-width="0.75" x1="136.3" y1="8.5" x2="138.3" y2="12.3"/>
<line fill="none" stroke="#D3E6EA" stroke-width="0.75" x1="137.9" y1="15.8" x2="135.2" y2="19.9"/>
<g>
	<path fill="#D3E6EA" d="M144.6,10.3h2.7c0.3,0,0.7,0,0.9,0.1c0.3,0.1,0.5,0.2,0.7,0.4c0.2,0.2,0.4,0.4,0.5,0.6
		c0.1,0.2,0.2,0.5,0.2,0.9c0,0.4-0.1,0.8-0.4,1.1c-0.2,0.3-0.6,0.5-1,0.6v0c0.2,0,0.5,0.1,0.7,0.2c0.2,0.1,0.4,0.2,0.5,0.4
		c0.2,0.2,0.3,0.4,0.4,0.6c0.1,0.2,0.1,0.5,0.1,0.7c0,0.4-0.1,0.7-0.2,0.9s-0.3,0.5-0.6,0.7c-0.2,0.2-0.5,0.3-0.9,0.4
		c-0.3,0.1-0.7,0.1-1.1,0.1h-2.7V10.3z M145.7,13.6h1.4c0.2,0,0.4,0,0.6-0.1s0.3-0.1,0.5-0.2c0.1-0.1,0.2-0.2,0.3-0.4
		s0.1-0.3,0.1-0.5c0-0.3-0.1-0.6-0.3-0.8c-0.2-0.2-0.5-0.3-0.9-0.3h-1.7V13.6z M145.7,17.2h1.6c0.2,0,0.3,0,0.5,0s0.4-0.1,0.5-0.2
		c0.2-0.1,0.3-0.2,0.4-0.4c0.1-0.2,0.2-0.4,0.2-0.7c0-0.5-0.2-0.8-0.5-1c-0.3-0.2-0.7-0.3-1.2-0.3h-1.6V17.2z"/>
	<path fill="#D3E6EA" d="M151.1,9.8h1v8.3h-1V9.8z"/>
	<path fill="#D3E6EA" d="M153.1,15.5c0-0.4,0.1-0.7,0.2-1.1c0.1-0.3,0.3-0.6,0.6-0.9c0.2-0.2,0.5-0.4,0.9-0.6
		c0.3-0.1,0.7-0.2,1.1-0.2s0.8,0.1,1.1,0.2c0.3,0.1,0.6,0.3,0.9,0.6s0.4,0.5,0.6,0.9c0.1,0.3,0.2,0.7,0.2,1.1c0,0.4-0.1,0.7-0.2,1.1
		c-0.1,0.3-0.3,0.6-0.6,0.9c-0.2,0.2-0.5,0.4-0.9,0.6c-0.3,0.1-0.7,0.2-1.1,0.2s-0.8-0.1-1.1-0.2c-0.3-0.1-0.6-0.3-0.9-0.6
		c-0.2-0.2-0.4-0.5-0.6-0.9C153.2,16.3,153.1,15.9,153.1,15.5z M154.2,15.5c0,0.3,0,0.5,0.1,0.7c0.1,0.2,0.2,0.4,0.3,0.6
		c0.1,0.2,0.3,0.3,0.5,0.4c0.2,0.1,0.5,0.1,0.7,0.1c0.3,0,0.5,0,0.7-0.1s0.4-0.2,0.5-0.4c0.1-0.2,0.3-0.3,0.3-0.6
		c0.1-0.2,0.1-0.5,0.1-0.7c0-0.3,0-0.5-0.1-0.7c-0.1-0.2-0.2-0.4-0.3-0.6c-0.1-0.2-0.3-0.3-0.5-0.4s-0.5-0.1-0.7-0.1
		c-0.3,0-0.5,0-0.7,0.1c-0.2,0.1-0.4,0.2-0.5,0.4c-0.1,0.2-0.3,0.3-0.3,0.6C154.2,15,154.2,15.3,154.2,15.5z"/>
	<path fill="#D3E6EA" d="M164.9,18.1c0,0.4-0.1,0.8-0.2,1.1s-0.3,0.6-0.6,0.8c-0.2,0.2-0.5,0.4-0.9,0.6c-0.4,0.1-0.7,0.2-1.2,0.2
		c-0.5,0-1-0.1-1.4-0.2c-0.4-0.1-0.8-0.4-1.2-0.7l0.7-0.8c0.3,0.3,0.5,0.5,0.8,0.6c0.3,0.1,0.6,0.2,1,0.2c0.4,0,0.7-0.1,0.9-0.2
		c0.2-0.1,0.4-0.2,0.6-0.4c0.1-0.2,0.2-0.4,0.3-0.6c0.1-0.2,0.1-0.4,0.1-0.7v-0.8h0c-0.2,0.3-0.4,0.5-0.8,0.7s-0.7,0.2-1,0.2
		c-0.4,0-0.7-0.1-1.1-0.2s-0.6-0.3-0.8-0.6s-0.4-0.5-0.5-0.8c-0.1-0.3-0.2-0.7-0.2-1.1c0-0.4,0.1-0.7,0.2-1.1
		c0.1-0.3,0.3-0.6,0.5-0.9c0.2-0.2,0.5-0.4,0.8-0.6c0.3-0.1,0.7-0.2,1.1-0.2c0.4,0,0.7,0.1,1,0.2c0.3,0.2,0.6,0.4,0.8,0.6h0v-0.7h1
		V18.1z M162.2,13.7c-0.3,0-0.5,0-0.7,0.1c-0.2,0.1-0.4,0.2-0.5,0.4c-0.1,0.2-0.3,0.3-0.3,0.6c-0.1,0.2-0.1,0.5-0.1,0.7
		c0,0.5,0.2,1,0.5,1.3c0.3,0.3,0.7,0.5,1.3,0.5c0.5,0,0.9-0.2,1.3-0.5c0.3-0.3,0.5-0.7,0.5-1.3c0-0.3,0-0.5-0.1-0.7
		c-0.1-0.2-0.2-0.4-0.3-0.6c-0.1-0.2-0.3-0.3-0.5-0.4S162.4,13.7,162.2,13.7z"/>
</g>
<g>
</g>
<g>
</g>
<g>
</g>
<g>
</g>
<g>
</g>
<g>
</g>
<g>
</g>
<g>
</g>
<g>
</g>
<g>
</g>
<g>
</g>
<g>
</g>
<g>
</g>
<g>
</g>
<g>
</g>
</svg>
