<?xml version="1.0" encoding="utf-8"?>
<!-- Generator: Adobe Illustrator 17.1.0, SVG Export Plug-In . SVG Version: 6.00 Build 0)  -->
<!DOCTYPE svg PUBLIC "-//W3C//DTD SVG 1.1//EN" "http://www.w3.org/Graphics/SVG/1.1/DTD/svg11.dtd">
<svg version="1.1" id="Layer_1" xmlns="http://www.w3.org/2000/svg" xmlns:xlink="http://www.w3.org/1999/xlink" x="0px" y="0px"
	 width="240px" height="40px" viewBox="0 0 240 40" enable-background="new 0 0 240 40" xml:space="preserve">
<path fill="none" stroke="#42BDAE" stroke-width="0.9894" stroke-miterlimit="10" d="M13.2,20"/>
<polyline fill="none" stroke="#48B0E3" stroke-width="0.7452" stroke-miterlimit="10" points="1.1,13.1 4.7,13.1 7.2,17.5 4.7,21.8 
	1.1,21.8 "/>
<polyline fill="none" stroke="#48B0E3" stroke-width="0.7452" stroke-miterlimit="10" points="12.5,7.8 9,7.8 6.4,12.2 9,16.6 
	12.5,16.6 "/>
<g>
	<g>
		<line fill="none" stroke="#48B0E3" stroke-linecap="round" stroke-miterlimit="10" x1="1.5" y1="3.2" x2="1.5" y2="3.2"/>
		
			<line fill="none" stroke="#48B0E3" stroke-linecap="round" stroke-miterlimit="10" stroke-dasharray="0,1.6852" x1="3.2" y1="3.2" x2="4" y2="3.2"/>
		<line fill="none" stroke="#48B0E3" stroke-linecap="round" stroke-miterlimit="10" x1="4.8" y1="3.2" x2="4.8" y2="3.2"/>
		
			<line fill="none" stroke="#48B0E3" stroke-linecap="round" stroke-miterlimit="10" stroke-dasharray="0,1.5936" x1="5.6" y1="4.6" x2="6.8" y2="6.6"/>
		<line fill="none" stroke="#48B0E3" stroke-linecap="round" stroke-miterlimit="10" x1="7.2" y1="7.3" x2="7.2" y2="7.3"/>
		
			<line fill="none" stroke="#48B0E3" stroke-linecap="round" stroke-miterlimit="10" stroke-dasharray="0,1.5936" x1="6.4" y1="8.7" x2="5.2" y2="10.8"/>
		<line fill="none" stroke="#48B0E3" stroke-linecap="round" stroke-miterlimit="10" x1="4.8" y1="11.5" x2="4.8" y2="11.5"/>
		
			<line fill="none" stroke="#48B0E3" stroke-linecap="round" stroke-miterlimit="10" stroke-dasharray="0,1.6852" x1="3.2" y1="11.5" x2="2.3" y2="11.5"/>
		<line fill="none" stroke="#48B0E3" stroke-linecap="round" stroke-miterlimit="10" x1="1.5" y1="11.5" x2="1.5" y2="11.5"/>
	</g>
</g>
<path fill="none" stroke="#48B0E3" stroke-width="0.5005" stroke-miterlimit="10" d="M2.8,12.8"/>
<g>
	<path fill="#777777" d="M15.1,8.3h2.7c0.5,0,0.9,0.1,1.2,0.2c0.3,0.1,0.6,0.3,0.8,0.5s0.3,0.4,0.4,0.7c0.1,0.3,0.1,0.5,0.1,0.8
		c0,0.2,0,0.5-0.1,0.8s-0.2,0.5-0.4,0.7s-0.4,0.4-0.8,0.5c-0.3,0.1-0.7,0.2-1.2,0.2h-1.7V16h-1.1V8.3z M16.2,11.7h1.4
		c0.2,0,0.4,0,0.6,0c0.2,0,0.4-0.1,0.5-0.2s0.3-0.2,0.4-0.4c0.1-0.2,0.1-0.4,0.1-0.6c0-0.3,0-0.5-0.1-0.6c-0.1-0.2-0.2-0.3-0.4-0.4
		s-0.3-0.1-0.5-0.2c-0.2,0-0.4,0-0.6,0h-1.4V11.7z"/>
	<path fill="#777777" d="M21.1,10.8h1v0.8h0c0.1-0.1,0.2-0.3,0.3-0.4c0.1-0.1,0.2-0.2,0.4-0.3s0.3-0.1,0.4-0.2s0.3-0.1,0.5-0.1
		c0.2,0,0.3,0,0.4,0.1l0,1.1c-0.1,0-0.2,0-0.2-0.1c-0.1,0-0.2,0-0.2,0c-0.5,0-0.9,0.1-1.1,0.4c-0.3,0.3-0.4,0.7-0.4,1.3V16h-1V10.8z
		"/>
	<path fill="#777777" d="M24.4,13.4c0-0.4,0.1-0.7,0.2-1.1s0.3-0.6,0.6-0.9c0.2-0.2,0.5-0.4,0.9-0.6c0.3-0.1,0.7-0.2,1.1-0.2
		s0.8,0.1,1.1,0.2c0.3,0.1,0.6,0.3,0.9,0.6c0.2,0.2,0.4,0.5,0.6,0.9c0.1,0.3,0.2,0.7,0.2,1.1c0,0.4-0.1,0.7-0.2,1.1
		c-0.1,0.3-0.3,0.6-0.6,0.9c-0.2,0.2-0.5,0.4-0.9,0.6c-0.3,0.1-0.7,0.2-1.1,0.2s-0.8-0.1-1.1-0.2c-0.3-0.1-0.6-0.3-0.9-0.6
		c-0.2-0.2-0.4-0.5-0.6-0.9C24.5,14.2,24.4,13.8,24.4,13.4z M25.5,13.4c0,0.3,0,0.5,0.1,0.7c0.1,0.2,0.2,0.4,0.3,0.6
		c0.1,0.2,0.3,0.3,0.5,0.4c0.2,0.1,0.5,0.1,0.7,0.1c0.3,0,0.5,0,0.7-0.1s0.4-0.2,0.5-0.4c0.1-0.2,0.3-0.3,0.3-0.6
		c0.1-0.2,0.1-0.5,0.1-0.7c0-0.3,0-0.5-0.1-0.7c-0.1-0.2-0.2-0.4-0.3-0.6c-0.1-0.2-0.3-0.3-0.5-0.4s-0.5-0.1-0.7-0.1
		c-0.3,0-0.5,0-0.7,0.1c-0.2,0.1-0.4,0.2-0.5,0.4c-0.1,0.2-0.3,0.3-0.3,0.6C25.5,12.9,25.5,13.2,25.5,13.4z"/>
	<path fill="#777777" d="M33.8,11.7h-1.4v2.4c0,0.1,0,0.3,0,0.4c0,0.1,0,0.3,0.1,0.4c0,0.1,0.1,0.2,0.2,0.3s0.2,0.1,0.4,0.1
		c0.1,0,0.2,0,0.4,0c0.1,0,0.2-0.1,0.3-0.1V16c-0.1,0.1-0.3,0.1-0.5,0.1c-0.2,0-0.3,0-0.4,0c-0.4,0-0.7-0.1-0.9-0.2
		s-0.4-0.2-0.5-0.4c-0.1-0.2-0.2-0.4-0.2-0.6c0-0.2,0-0.4,0-0.6v-2.7h-1.1v-0.9h1.1V9.4h1v1.5h1.4V11.7z"/>
	<path fill="#777777" d="M35.5,13.8c0,0.2,0,0.4,0.1,0.6c0.1,0.2,0.2,0.3,0.4,0.5c0.2,0.1,0.3,0.2,0.6,0.3c0.2,0.1,0.4,0.1,0.7,0.1
		c0.3,0,0.6-0.1,0.8-0.2c0.2-0.1,0.4-0.3,0.6-0.6l0.7,0.6c-0.6,0.7-1.3,1.1-2.3,1.1c-0.4,0-0.8-0.1-1.1-0.2
		c-0.3-0.1-0.6-0.3-0.8-0.6c-0.2-0.2-0.4-0.5-0.5-0.9s-0.2-0.7-0.2-1.1c0-0.4,0.1-0.7,0.2-1.1s0.3-0.6,0.6-0.9
		c0.2-0.2,0.5-0.4,0.9-0.6c0.3-0.1,0.7-0.2,1.1-0.2c0.5,0,0.9,0.1,1.2,0.2c0.3,0.2,0.6,0.4,0.8,0.6c0.2,0.3,0.4,0.6,0.4,0.9
		c0.1,0.3,0.1,0.7,0.1,1v0.4H35.5z M38.6,13c0-0.2,0-0.4-0.1-0.6c-0.1-0.2-0.2-0.3-0.3-0.5s-0.3-0.2-0.5-0.3s-0.4-0.1-0.7-0.1
		c-0.2,0-0.5,0-0.7,0.1c-0.2,0.1-0.4,0.2-0.5,0.4c-0.1,0.1-0.2,0.3-0.3,0.5c-0.1,0.2-0.1,0.4-0.1,0.5H38.6z"/>
	<path fill="#777777" d="M40.4,9c0-0.2,0.1-0.4,0.2-0.5c0.1-0.1,0.3-0.2,0.5-0.2c0.2,0,0.4,0.1,0.5,0.2c0.1,0.1,0.2,0.3,0.2,0.5
		s-0.1,0.4-0.2,0.5c-0.1,0.1-0.3,0.2-0.5,0.2c-0.2,0-0.4-0.1-0.5-0.2C40.5,9.3,40.4,9.2,40.4,9z M40.7,10.8h1V16h-1V10.8z"/>
	<path fill="#777777" d="M43,10.8h1v0.8h0c0.1-0.3,0.3-0.5,0.6-0.7c0.3-0.2,0.7-0.3,1.1-0.3c0.2,0,0.5,0,0.7,0.1
		c0.2,0.1,0.4,0.2,0.6,0.4s0.3,0.4,0.4,0.6c0.1,0.3,0.2,0.6,0.2,0.9V16h-1V13c0-0.2,0-0.4-0.1-0.6c-0.1-0.2-0.2-0.3-0.3-0.4
		c-0.1-0.1-0.2-0.2-0.4-0.2c-0.1,0-0.3-0.1-0.4-0.1c-0.2,0-0.4,0-0.6,0.1c-0.2,0.1-0.3,0.2-0.5,0.3c-0.1,0.1-0.2,0.3-0.3,0.5
		c-0.1,0.2-0.1,0.5-0.1,0.8V16h-1V10.8z"/>
	<path fill="#777777" d="M52.1,14.4c0.2,0.3,0.4,0.5,0.7,0.6c0.3,0.1,0.6,0.2,0.9,0.2c0.2,0,0.4,0,0.5-0.1c0.2-0.1,0.4-0.1,0.5-0.2
		s0.3-0.2,0.4-0.4c0.1-0.2,0.1-0.3,0.1-0.6c0-0.3-0.1-0.5-0.3-0.7c-0.2-0.2-0.4-0.3-0.7-0.4c-0.3-0.1-0.6-0.2-0.9-0.3
		c-0.3-0.1-0.6-0.2-0.9-0.4c-0.3-0.2-0.5-0.4-0.7-0.7c-0.2-0.3-0.3-0.7-0.3-1.2c0-0.2,0-0.5,0.1-0.7C51.7,9.3,51.8,9,52,8.8
		c0.2-0.2,0.5-0.4,0.8-0.5c0.3-0.1,0.7-0.2,1.2-0.2c0.4,0,0.8,0.1,1.2,0.2s0.7,0.4,1,0.7l-0.9,0.8c-0.1-0.2-0.3-0.4-0.6-0.5
		c-0.2-0.1-0.5-0.2-0.8-0.2c-0.3,0-0.5,0-0.7,0.1c-0.2,0.1-0.4,0.2-0.5,0.3c-0.1,0.1-0.2,0.3-0.2,0.4c0,0.1-0.1,0.3-0.1,0.4
		c0,0.3,0.1,0.6,0.3,0.8c0.2,0.2,0.4,0.3,0.7,0.4s0.6,0.2,0.9,0.3c0.3,0.1,0.6,0.2,0.9,0.4c0.3,0.2,0.5,0.4,0.7,0.6
		c0.2,0.3,0.3,0.6,0.3,1.1c0,0.4-0.1,0.7-0.2,1s-0.3,0.6-0.6,0.8c-0.2,0.2-0.5,0.4-0.9,0.5c-0.3,0.1-0.7,0.2-1.1,0.2
		c-0.5,0-1-0.1-1.4-0.3c-0.4-0.2-0.8-0.4-1.1-0.8L52.1,14.4z"/>
	<path fill="#777777" d="M60.2,11.7h-1.4v2.4c0,0.1,0,0.3,0,0.4c0,0.1,0,0.3,0.1,0.4c0,0.1,0.1,0.2,0.2,0.3s0.2,0.1,0.4,0.1
		c0.1,0,0.2,0,0.4,0c0.1,0,0.2-0.1,0.3-0.1V16c-0.1,0.1-0.3,0.1-0.5,0.1c-0.2,0-0.3,0-0.4,0c-0.4,0-0.7-0.1-0.9-0.2
		s-0.4-0.2-0.5-0.4c-0.1-0.2-0.2-0.4-0.2-0.6c0-0.2,0-0.4,0-0.6v-2.7h-1.1v-0.9h1.1V9.4h1v1.5h1.4V11.7z"/>
	<path fill="#777777" d="M61.2,10.8h1v0.8h0c0.1-0.1,0.2-0.3,0.3-0.4c0.1-0.1,0.2-0.2,0.4-0.3s0.3-0.1,0.4-0.2s0.3-0.1,0.5-0.1
		c0.2,0,0.3,0,0.4,0.1l0,1.1c-0.1,0-0.2,0-0.2-0.1c-0.1,0-0.2,0-0.2,0c-0.5,0-0.9,0.1-1.1,0.4c-0.3,0.3-0.4,0.7-0.4,1.3V16h-1V10.8z
		"/>
	<path fill="#777777" d="M69.6,16h-1v-0.8h0c-0.1,0.3-0.3,0.5-0.6,0.7c-0.3,0.2-0.7,0.3-1.1,0.3c-0.3,0-0.5,0-0.7-0.1
		c-0.2-0.1-0.4-0.2-0.6-0.4s-0.3-0.4-0.4-0.6S65,14.5,65,14.2v-3.4h1v3.1c0,0.2,0,0.4,0.1,0.6c0.1,0.2,0.2,0.3,0.3,0.4
		s0.2,0.2,0.4,0.2s0.3,0.1,0.4,0.1c0.2,0,0.4,0,0.6-0.1c0.2-0.1,0.3-0.2,0.5-0.3c0.1-0.1,0.2-0.3,0.3-0.5s0.1-0.5,0.1-0.8v-2.7h1V16
		z"/>
	<path fill="#777777" d="M74.6,12.2c-0.2-0.2-0.4-0.3-0.6-0.4c-0.2-0.1-0.4-0.1-0.7-0.1c-0.3,0-0.5,0-0.7,0.1
		c-0.2,0.1-0.4,0.2-0.5,0.4s-0.2,0.4-0.3,0.6c-0.1,0.2-0.1,0.5-0.1,0.7c0,0.2,0,0.5,0.1,0.7c0.1,0.2,0.2,0.4,0.3,0.6
		c0.1,0.2,0.3,0.3,0.5,0.4c0.2,0.1,0.4,0.1,0.7,0.1c0.3,0,0.5,0,0.7-0.1c0.2-0.1,0.4-0.2,0.5-0.4l0.7,0.7c-0.3,0.3-0.6,0.5-0.9,0.6
		c-0.3,0.1-0.7,0.2-1.1,0.2c-0.4,0-0.8-0.1-1.1-0.2c-0.3-0.1-0.6-0.3-0.9-0.6c-0.2-0.2-0.4-0.5-0.6-0.9c-0.1-0.3-0.2-0.7-0.2-1.1
		s0.1-0.8,0.2-1.1c0.1-0.3,0.3-0.6,0.6-0.9c0.2-0.2,0.5-0.4,0.9-0.6s0.7-0.2,1.1-0.2c0.4,0,0.7,0.1,1.1,0.2s0.7,0.3,0.9,0.6
		L74.6,12.2z"/>
	<path fill="#777777" d="M79.1,11.7h-1.4v2.4c0,0.1,0,0.3,0,0.4c0,0.1,0,0.3,0.1,0.4c0,0.1,0.1,0.2,0.2,0.3s0.2,0.1,0.4,0.1
		c0.1,0,0.2,0,0.4,0c0.1,0,0.2-0.1,0.3-0.1V16c-0.1,0.1-0.3,0.1-0.5,0.1c-0.2,0-0.3,0-0.4,0c-0.4,0-0.7-0.1-0.9-0.2
		s-0.4-0.2-0.5-0.4c-0.1-0.2-0.2-0.4-0.2-0.6c0-0.2,0-0.4,0-0.6v-2.7h-1.1v-0.9h1.1V9.4h1v1.5h1.4V11.7z"/>
	<path fill="#777777" d="M84.7,16h-1v-0.8h0c-0.1,0.3-0.3,0.5-0.6,0.7c-0.3,0.2-0.7,0.3-1.1,0.3c-0.3,0-0.5,0-0.7-0.1
		c-0.2-0.1-0.4-0.2-0.6-0.4s-0.3-0.4-0.4-0.6s-0.2-0.6-0.2-0.9v-3.4h1v3.1c0,0.2,0,0.4,0.1,0.6c0.1,0.2,0.2,0.3,0.3,0.4
		s0.2,0.2,0.4,0.2s0.3,0.1,0.4,0.1c0.2,0,0.4,0,0.6-0.1c0.2-0.1,0.3-0.2,0.5-0.3c0.1-0.1,0.2-0.3,0.3-0.5s0.1-0.5,0.1-0.8v-2.7h1V16
		z"/>
	<path fill="#777777" d="M86,10.8h1v0.8h0c0.1-0.1,0.2-0.3,0.3-0.4c0.1-0.1,0.2-0.2,0.4-0.3s0.3-0.1,0.4-0.2s0.3-0.1,0.5-0.1
		c0.2,0,0.3,0,0.4,0.1l0,1.1c-0.1,0-0.2,0-0.2-0.1c-0.1,0-0.2,0-0.2,0c-0.5,0-0.9,0.1-1.1,0.4s-0.4,0.7-0.4,1.3V16h-1V10.8z"/>
	<path fill="#777777" d="M90.3,13.8c0,0.2,0,0.4,0.1,0.6c0.1,0.2,0.2,0.3,0.4,0.5c0.2,0.1,0.3,0.2,0.6,0.3s0.4,0.1,0.7,0.1
		c0.3,0,0.6-0.1,0.8-0.2c0.2-0.1,0.4-0.3,0.6-0.6l0.7,0.6c-0.5,0.7-1.3,1.1-2.3,1.1c-0.4,0-0.8-0.1-1.1-0.2
		c-0.3-0.1-0.6-0.3-0.8-0.6c-0.2-0.2-0.4-0.5-0.5-0.9s-0.2-0.7-0.2-1.1c0-0.4,0.1-0.7,0.2-1.1s0.3-0.6,0.6-0.9
		c0.2-0.2,0.5-0.4,0.9-0.6c0.3-0.1,0.7-0.2,1.1-0.2c0.5,0,0.9,0.1,1.2,0.2c0.3,0.2,0.6,0.4,0.8,0.6c0.2,0.3,0.4,0.6,0.4,0.9
		c0.1,0.3,0.1,0.7,0.1,1v0.4H90.3z M93.4,13c0-0.2,0-0.4-0.1-0.6c-0.1-0.2-0.2-0.3-0.3-0.5c-0.1-0.1-0.3-0.2-0.5-0.3
		c-0.2-0.1-0.4-0.1-0.7-0.1c-0.2,0-0.5,0-0.7,0.1c-0.2,0.1-0.4,0.2-0.5,0.4c-0.1,0.1-0.2,0.3-0.3,0.5s-0.1,0.4-0.1,0.5H93.4z"/>
</g>
<circle fill="#48B0E3" cx="10.9" cy="12.1" r="1.1"/>
<path fill="none" stroke="#48B0E3" stroke-width="0.5734" stroke-miterlimit="10" d="M2.3,14.2"/>
<path fill="none" stroke="#42BDAE" stroke-width="0.9894" stroke-miterlimit="10" d="M133.2,20"/>
<polyline fill="none" stroke="#CCCCCC" stroke-width="0.7452" stroke-miterlimit="10" points="121.1,13.1 124.7,13.1 127.2,17.5 
	124.7,21.8 121.1,21.8 "/>
<polyline fill="none" stroke="#CCCCCC" stroke-width="0.7452" stroke-miterlimit="10" points="132.5,7.8 128.9,7.8 126.4,12.2 
	128.9,16.6 132.5,16.6 "/>
<g>
	<g>
		<line fill="none" stroke="#CCCCCC" stroke-linecap="round" stroke-miterlimit="10" x1="121.5" y1="3.2" x2="121.5" y2="3.2"/>
		
			<line fill="none" stroke="#CCCCCC" stroke-linecap="round" stroke-miterlimit="10" stroke-dasharray="0,1.6852" x1="123.1" y1="3.2" x2="124" y2="3.2"/>
		<line fill="none" stroke="#CCCCCC" stroke-linecap="round" stroke-miterlimit="10" x1="124.8" y1="3.2" x2="124.8" y2="3.2"/>
		
			<line fill="none" stroke="#CCCCCC" stroke-linecap="round" stroke-miterlimit="10" stroke-dasharray="0,1.5936" x1="125.6" y1="4.6" x2="126.8" y2="6.6"/>
		<line fill="none" stroke="#CCCCCC" stroke-linecap="round" stroke-miterlimit="10" x1="127.2" y1="7.3" x2="127.2" y2="7.3"/>
		
			<line fill="none" stroke="#CCCCCC" stroke-linecap="round" stroke-miterlimit="10" stroke-dasharray="0,1.5936" x1="126.4" y1="8.7" x2="125.2" y2="10.8"/>
		<line fill="none" stroke="#CCCCCC" stroke-linecap="round" stroke-miterlimit="10" x1="124.8" y1="11.5" x2="124.8" y2="11.5"/>
		
			<line fill="none" stroke="#CCCCCC" stroke-linecap="round" stroke-miterlimit="10" stroke-dasharray="0,1.6852" x1="123.1" y1="11.5" x2="122.3" y2="11.5"/>
		<line fill="none" stroke="#CCCCCC" stroke-linecap="round" stroke-miterlimit="10" x1="121.5" y1="11.5" x2="121.5" y2="11.5"/>
	</g>
</g>
<path fill="none" stroke="#000000" stroke-width="0.5005" stroke-miterlimit="10" d="M122.8,12.8"/>
<g>
	<path fill="#CCCCCC" d="M135.1,8.3h2.7c0.5,0,0.9,0.1,1.2,0.2c0.3,0.1,0.6,0.3,0.8,0.5c0.2,0.2,0.3,0.4,0.4,0.7
		c0.1,0.3,0.1,0.5,0.1,0.8c0,0.2,0,0.5-0.1,0.8s-0.2,0.5-0.4,0.7c-0.2,0.2-0.4,0.4-0.8,0.5s-0.7,0.2-1.2,0.2h-1.7V16h-1.1V8.3z
		 M136.2,11.7h1.4c0.2,0,0.4,0,0.6,0c0.2,0,0.4-0.1,0.5-0.2c0.2-0.1,0.3-0.2,0.4-0.4s0.1-0.4,0.1-0.6c0-0.3,0-0.5-0.1-0.6
		s-0.2-0.3-0.4-0.4c-0.2-0.1-0.3-0.1-0.5-0.2c-0.2,0-0.4,0-0.6,0h-1.4V11.7z"/>
	<path fill="#CCCCCC" d="M141.1,10.8h1v0.8h0c0.1-0.1,0.2-0.3,0.3-0.4c0.1-0.1,0.2-0.2,0.4-0.3s0.3-0.1,0.4-0.2s0.3-0.1,0.5-0.1
		c0.2,0,0.3,0,0.4,0.1l0,1.1c-0.1,0-0.2,0-0.2-0.1s-0.2,0-0.2,0c-0.5,0-0.9,0.1-1.1,0.4c-0.3,0.3-0.4,0.7-0.4,1.3V16h-1V10.8z"/>
	<path fill="#CCCCCC" d="M144.4,13.4c0-0.4,0.1-0.7,0.2-1.1c0.1-0.3,0.3-0.6,0.6-0.9s0.5-0.4,0.9-0.6c0.3-0.1,0.7-0.2,1.1-0.2
		s0.8,0.1,1.1,0.2c0.3,0.1,0.6,0.3,0.9,0.6c0.2,0.2,0.4,0.5,0.6,0.9s0.2,0.7,0.2,1.1c0,0.4-0.1,0.7-0.2,1.1
		c-0.1,0.3-0.3,0.6-0.6,0.9c-0.2,0.2-0.5,0.4-0.9,0.6c-0.3,0.1-0.7,0.2-1.1,0.2s-0.8-0.1-1.1-0.2c-0.3-0.1-0.6-0.3-0.9-0.6
		c-0.2-0.2-0.4-0.5-0.6-0.9C144.5,14.2,144.4,13.8,144.4,13.4z M145.5,13.4c0,0.3,0,0.5,0.1,0.7c0.1,0.2,0.2,0.4,0.3,0.6
		c0.1,0.2,0.3,0.3,0.5,0.4s0.5,0.1,0.7,0.1s0.5,0,0.7-0.1s0.4-0.2,0.5-0.4c0.1-0.2,0.3-0.3,0.3-0.6c0.1-0.2,0.1-0.5,0.1-0.7
		c0-0.3,0-0.5-0.1-0.7c-0.1-0.2-0.2-0.4-0.3-0.6c-0.1-0.2-0.3-0.3-0.5-0.4s-0.5-0.1-0.7-0.1s-0.5,0-0.7,0.1s-0.4,0.2-0.5,0.4
		c-0.1,0.2-0.3,0.3-0.3,0.6C145.5,12.9,145.5,13.2,145.5,13.4z"/>
	<path fill="#CCCCCC" d="M153.7,11.7h-1.4v2.4c0,0.1,0,0.3,0,0.4c0,0.1,0,0.3,0.1,0.4c0,0.1,0.1,0.2,0.2,0.3
		c0.1,0.1,0.2,0.1,0.4,0.1c0.1,0,0.2,0,0.4,0c0.1,0,0.2-0.1,0.3-0.1V16c-0.1,0.1-0.3,0.1-0.5,0.1c-0.2,0-0.3,0-0.4,0
		c-0.4,0-0.7-0.1-0.9-0.2s-0.4-0.2-0.5-0.4c-0.1-0.2-0.2-0.4-0.2-0.6c0-0.2,0-0.4,0-0.6v-2.7h-1.1v-0.9h1.1V9.4h1v1.5h1.4V11.7z"/>
	<path fill="#CCCCCC" d="M155.5,13.8c0,0.2,0,0.4,0.1,0.6c0.1,0.2,0.2,0.3,0.4,0.5c0.2,0.1,0.3,0.2,0.6,0.3c0.2,0.1,0.4,0.1,0.7,0.1
		c0.3,0,0.6-0.1,0.8-0.2c0.2-0.1,0.4-0.3,0.6-0.6l0.7,0.6c-0.6,0.7-1.3,1.1-2.3,1.1c-0.4,0-0.8-0.1-1.1-0.2
		c-0.3-0.1-0.6-0.3-0.8-0.6c-0.2-0.2-0.4-0.5-0.5-0.9c-0.1-0.3-0.2-0.7-0.2-1.1c0-0.4,0.1-0.7,0.2-1.1s0.3-0.6,0.6-0.9
		c0.2-0.2,0.5-0.4,0.9-0.6c0.3-0.1,0.7-0.2,1.1-0.2c0.5,0,0.9,0.1,1.2,0.2c0.3,0.2,0.6,0.4,0.8,0.6c0.2,0.3,0.4,0.6,0.4,0.9
		c0.1,0.3,0.1,0.7,0.1,1v0.4H155.5z M158.6,13c0-0.2,0-0.4-0.1-0.6c-0.1-0.2-0.2-0.3-0.3-0.5c-0.1-0.1-0.3-0.2-0.5-0.3
		c-0.2-0.1-0.4-0.1-0.7-0.1c-0.2,0-0.5,0-0.7,0.1c-0.2,0.1-0.4,0.2-0.5,0.4c-0.1,0.1-0.2,0.3-0.3,0.5c-0.1,0.2-0.1,0.4-0.1,0.5
		H158.6z"/>
	<path fill="#CCCCCC" d="M160.4,9c0-0.2,0.1-0.4,0.2-0.5c0.1-0.1,0.3-0.2,0.5-0.2s0.4,0.1,0.5,0.2c0.1,0.1,0.2,0.3,0.2,0.5
		s-0.1,0.4-0.2,0.5c-0.1,0.1-0.3,0.2-0.5,0.2s-0.4-0.1-0.5-0.2C160.5,9.3,160.4,9.2,160.4,9z M160.7,10.8h1V16h-1V10.8z"/>
	<path fill="#CCCCCC" d="M163,10.8h1v0.8h0c0.1-0.3,0.3-0.5,0.6-0.7c0.3-0.2,0.7-0.3,1.1-0.3c0.2,0,0.5,0,0.7,0.1s0.4,0.2,0.6,0.4
		c0.2,0.2,0.3,0.4,0.4,0.6c0.1,0.3,0.2,0.6,0.2,0.9V16h-1V13c0-0.2,0-0.4-0.1-0.6c-0.1-0.2-0.2-0.3-0.3-0.4s-0.2-0.2-0.4-0.2
		c-0.1,0-0.3-0.1-0.4-0.1c-0.2,0-0.4,0-0.6,0.1c-0.2,0.1-0.3,0.2-0.5,0.3c-0.1,0.1-0.2,0.3-0.3,0.5s-0.1,0.5-0.1,0.8V16h-1V10.8z"/>
	<path fill="#CCCCCC" d="M172.1,14.4c0.2,0.3,0.4,0.5,0.7,0.6c0.3,0.1,0.6,0.2,0.9,0.2c0.2,0,0.4,0,0.5-0.1c0.2-0.1,0.3-0.1,0.5-0.2
		s0.3-0.2,0.4-0.4c0.1-0.2,0.1-0.3,0.1-0.6c0-0.3-0.1-0.5-0.3-0.7c-0.2-0.2-0.4-0.3-0.7-0.4c-0.3-0.1-0.6-0.2-0.9-0.3
		c-0.3-0.1-0.6-0.2-0.9-0.4c-0.3-0.2-0.5-0.4-0.7-0.7s-0.3-0.7-0.3-1.2c0-0.2,0-0.5,0.1-0.7s0.3-0.5,0.5-0.7
		c0.2-0.2,0.5-0.4,0.8-0.5s0.7-0.2,1.2-0.2c0.4,0,0.8,0.1,1.2,0.2s0.7,0.4,1,0.7l-0.9,0.8c-0.1-0.2-0.3-0.4-0.6-0.5
		c-0.2-0.1-0.5-0.2-0.8-0.2c-0.3,0-0.5,0-0.7,0.1c-0.2,0.1-0.3,0.2-0.5,0.3c-0.1,0.1-0.2,0.3-0.2,0.4c0,0.1-0.1,0.3-0.1,0.4
		c0,0.3,0.1,0.6,0.3,0.8c0.2,0.2,0.4,0.3,0.7,0.4s0.6,0.2,0.9,0.3c0.3,0.1,0.6,0.2,0.9,0.4c0.3,0.2,0.5,0.4,0.7,0.6s0.3,0.6,0.3,1.1
		c0,0.4-0.1,0.7-0.2,1c-0.1,0.3-0.3,0.6-0.6,0.8c-0.2,0.2-0.5,0.4-0.9,0.5c-0.3,0.1-0.7,0.2-1.1,0.2c-0.5,0-1-0.1-1.4-0.3
		c-0.4-0.2-0.8-0.4-1.1-0.8L172.1,14.4z"/>
	<path fill="#CCCCCC" d="M180.2,11.7h-1.4v2.4c0,0.1,0,0.3,0,0.4c0,0.1,0,0.3,0.1,0.4c0,0.1,0.1,0.2,0.2,0.3
		c0.1,0.1,0.2,0.1,0.4,0.1c0.1,0,0.2,0,0.4,0c0.1,0,0.2-0.1,0.3-0.1V16c-0.1,0.1-0.3,0.1-0.5,0.1c-0.2,0-0.3,0-0.4,0
		c-0.4,0-0.7-0.1-0.9-0.2s-0.4-0.2-0.5-0.4c-0.1-0.2-0.2-0.4-0.2-0.6c0-0.2,0-0.4,0-0.6v-2.7h-1.1v-0.9h1.1V9.4h1v1.5h1.4V11.7z"/>
	<path fill="#CCCCCC" d="M181.2,10.8h1v0.8h0c0.1-0.1,0.2-0.3,0.3-0.4c0.1-0.1,0.2-0.2,0.4-0.3s0.3-0.1,0.4-0.2s0.3-0.1,0.5-0.1
		s0.3,0,0.4,0.1l0,1.1c-0.1,0-0.2,0-0.2-0.1c-0.1,0-0.2,0-0.2,0c-0.5,0-0.9,0.1-1.1,0.4s-0.4,0.7-0.4,1.3V16h-1V10.8z"/>
	<path fill="#CCCCCC" d="M189.6,16h-1v-0.8h0c-0.1,0.3-0.3,0.5-0.6,0.7c-0.3,0.2-0.7,0.3-1.1,0.3c-0.3,0-0.5,0-0.7-0.1
		s-0.4-0.2-0.6-0.4c-0.2-0.2-0.3-0.4-0.4-0.6s-0.2-0.6-0.2-0.9v-3.4h1v3.1c0,0.2,0,0.4,0.1,0.6c0.1,0.2,0.2,0.3,0.3,0.4
		c0.1,0.1,0.2,0.2,0.4,0.2c0.1,0,0.3,0.1,0.4,0.1c0.2,0,0.4,0,0.6-0.1c0.2-0.1,0.3-0.2,0.5-0.3c0.1-0.1,0.2-0.3,0.3-0.5
		s0.1-0.5,0.1-0.8v-2.7h1V16z"/>
	<path fill="#CCCCCC" d="M194.6,12.2c-0.2-0.2-0.4-0.3-0.6-0.4c-0.2-0.1-0.4-0.1-0.7-0.1c-0.3,0-0.5,0-0.7,0.1
		c-0.2,0.1-0.4,0.2-0.5,0.4s-0.2,0.4-0.3,0.6c-0.1,0.2-0.1,0.5-0.1,0.7c0,0.2,0,0.5,0.1,0.7c0.1,0.2,0.2,0.4,0.3,0.6
		c0.1,0.2,0.3,0.3,0.5,0.4s0.4,0.1,0.7,0.1c0.3,0,0.5,0,0.7-0.1s0.4-0.2,0.5-0.4l0.7,0.7c-0.3,0.3-0.6,0.5-0.9,0.6
		c-0.3,0.1-0.7,0.2-1.1,0.2c-0.4,0-0.8-0.1-1.1-0.2c-0.3-0.1-0.6-0.3-0.9-0.6c-0.2-0.2-0.4-0.5-0.6-0.9s-0.2-0.7-0.2-1.1
		s0.1-0.8,0.2-1.1c0.1-0.3,0.3-0.6,0.6-0.9c0.2-0.2,0.5-0.4,0.9-0.6c0.3-0.1,0.7-0.2,1.1-0.2c0.4,0,0.7,0.1,1.1,0.2
		c0.3,0.1,0.7,0.3,0.9,0.6L194.6,12.2z"/>
	<path fill="#CCCCCC" d="M199.1,11.7h-1.4v2.4c0,0.1,0,0.3,0,0.4c0,0.1,0,0.3,0.1,0.4c0,0.1,0.1,0.2,0.2,0.3
		c0.1,0.1,0.2,0.1,0.4,0.1c0.1,0,0.2,0,0.4,0c0.1,0,0.2-0.1,0.3-0.1V16c-0.1,0.1-0.3,0.1-0.5,0.1c-0.2,0-0.3,0-0.4,0
		c-0.4,0-0.7-0.1-0.9-0.2s-0.4-0.2-0.5-0.4c-0.1-0.2-0.2-0.4-0.2-0.6c0-0.2,0-0.4,0-0.6v-2.7h-1.1v-0.9h1.1V9.4h1v1.5h1.4V11.7z"/>
	<path fill="#CCCCCC" d="M204.7,16h-1v-0.8h0c-0.1,0.3-0.3,0.5-0.6,0.7c-0.3,0.2-0.7,0.3-1.1,0.3c-0.3,0-0.5,0-0.7-0.1
		c-0.2-0.1-0.4-0.2-0.6-0.4c-0.2-0.2-0.3-0.4-0.4-0.6s-0.2-0.6-0.2-0.9v-3.4h1v3.1c0,0.2,0,0.4,0.1,0.6c0.1,0.2,0.2,0.3,0.3,0.4
		c0.1,0.1,0.2,0.2,0.4,0.2c0.1,0,0.3,0.1,0.4,0.1c0.2,0,0.4,0,0.6-0.1c0.2-0.1,0.3-0.2,0.5-0.3c0.1-0.1,0.2-0.3,0.3-0.5
		s0.1-0.5,0.1-0.8v-2.7h1V16z"/>
	<path fill="#CCCCCC" d="M206,10.8h1v0.8h0c0.1-0.1,0.2-0.3,0.3-0.4c0.1-0.1,0.2-0.2,0.4-0.3s0.3-0.1,0.4-0.2s0.3-0.1,0.5-0.1
		c0.2,0,0.3,0,0.4,0.1l0,1.1c-0.1,0-0.2,0-0.2-0.1c-0.1,0-0.2,0-0.2,0c-0.5,0-0.9,0.1-1.1,0.4s-0.4,0.7-0.4,1.3V16h-1V10.8z"/>
	<path fill="#CCCCCC" d="M210.3,13.8c0,0.2,0,0.4,0.1,0.6c0.1,0.2,0.2,0.3,0.4,0.5c0.2,0.1,0.3,0.2,0.6,0.3s0.4,0.1,0.7,0.1
		c0.3,0,0.6-0.1,0.8-0.2c0.2-0.1,0.4-0.3,0.6-0.6l0.7,0.6c-0.5,0.7-1.3,1.1-2.3,1.1c-0.4,0-0.8-0.1-1.1-0.2
		c-0.3-0.1-0.6-0.3-0.8-0.6c-0.2-0.2-0.4-0.5-0.5-0.9s-0.2-0.7-0.2-1.1c0-0.4,0.1-0.7,0.2-1.1s0.3-0.6,0.6-0.9
		c0.2-0.2,0.5-0.4,0.9-0.6c0.3-0.1,0.7-0.2,1.1-0.2c0.5,0,0.9,0.1,1.2,0.2c0.3,0.2,0.6,0.4,0.8,0.6c0.2,0.3,0.4,0.6,0.4,0.9
		c0.1,0.3,0.1,0.7,0.1,1v0.4H210.3z M213.4,13c0-0.2,0-0.4-0.1-0.6c-0.1-0.2-0.2-0.3-0.3-0.5c-0.1-0.1-0.3-0.2-0.5-0.3
		c-0.2-0.1-0.4-0.1-0.7-0.1c-0.2,0-0.5,0-0.7,0.1c-0.2,0.1-0.4,0.2-0.5,0.4c-0.1,0.1-0.2,0.3-0.3,0.5s-0.1,0.4-0.1,0.5H213.4z"/>
</g>
<circle fill="#CCCCCC" cx="130.9" cy="12.1" r="1.1"/>
<path fill="none" stroke="#000000" stroke-width="0.5734" stroke-miterlimit="10" d="M122.3,14.2"/>
<path fill="none" stroke="#000000" stroke-width="0.5005" stroke-miterlimit="10" d="M122.3,12.8"/>
<path fill="none" stroke="#000000" stroke-width="0.5734" stroke-miterlimit="10" d="M121.8,14.2"/>
<g>
</g>
<g>
</g>
<g>
</g>
<g>
</g>
<g>
</g>
<g>
</g>
<g>
</g>
<g>
</g>
<g>
</g>
<g>
</g>
<g>
</g>
<g>
</g>
<g>
</g>
<g>
</g>
<g>
</g>
</svg>
