<?xml version="1.0" encoding="utf-8"?>
<!-- Generator: Adobe Illustrator 17.1.0, SVG Export Plug-In . SVG Version: 6.00 Build 0)  -->
<!DOCTYPE svg PUBLIC "-//W3C//DTD SVG 1.1//EN" "http://www.w3.org/Graphics/SVG/1.1/DTD/svg11.dtd">
<svg version="1.1" id="Layer_1" xmlns="http://www.w3.org/2000/svg" xmlns:xlink="http://www.w3.org/1999/xlink" x="0px" y="0px"
	 width="240px" height="40px" viewBox="0 0 240 40" enable-background="new 0 0 240 40" xml:space="preserve">
<path fill="none" stroke="#42BDAE" stroke-width="0.9893817" stroke-miterlimit="10" d="M13.241828,19.9883232"/>
<polyline fill="none" stroke="#FF0303" stroke-width="0.7451853" stroke-miterlimit="10" points="1.1495405,13.094594 
	4.7058163,13.094594 7.2280388,17.4632168 4.7058163,21.8318577 1.1495405,21.8318577 "/>
<polyline fill="none" stroke="#FF0303" stroke-width="0.7451853" stroke-miterlimit="10" points="12.5072298,7.8368979 
	8.9509535,7.8368979 6.4287314,12.2055216 8.9509535,16.5741615 12.5072298,16.5741615 "/>
<g>
	<g>
		
			<line fill="none" stroke="#FF0303" stroke-linecap="round" stroke-miterlimit="10" x1="1.4673755" y1="3.1706064" x2="1.4673755" y2="3.1706064"/>
		
			<line fill="none" stroke="#FF0303" stroke-linecap="round" stroke-miterlimit="10" stroke-dasharray="0,1.6851619" x1="3.1525376" y1="3.1706064" x2="3.9951184" y2="3.1706064"/>
		
			<line fill="none" stroke="#FF0303" stroke-linecap="round" stroke-miterlimit="10" x1="4.8376994" y1="3.1706064" x2="4.8376994" y2="3.1706064"/>
		
			<line fill="none" stroke="#FF0303" stroke-linecap="round" stroke-miterlimit="10" stroke-dasharray="0,1.5935614" x1="5.6344795" y1="4.5506716" x2="6.829649" y2="6.620769"/>
		
			<line fill="none" stroke="#FF0303" stroke-linecap="round" stroke-miterlimit="10" x1="7.2280388" y1="7.3108015" x2="7.2280388" y2="7.3108015"/>
		
			<line fill="none" stroke="#FF0303" stroke-linecap="round" stroke-miterlimit="10" stroke-dasharray="0,1.5935658" x1="6.4312592" y1="8.6908722" x2="5.2360892" y2="10.7609777"/>
		
			<line fill="none" stroke="#FF0303" stroke-linecap="round" stroke-miterlimit="10" x1="4.8376994" y1="11.4510126" x2="4.8376994" y2="11.4510126"/>
		
			<line fill="none" stroke="#FF0303" stroke-linecap="round" stroke-miterlimit="10" stroke-dasharray="0,1.6851619" x1="3.1525376" y1="11.4510126" x2="2.3099566" y2="11.4510126"/>
		
			<line fill="none" stroke="#FF0303" stroke-linecap="round" stroke-miterlimit="10" x1="1.4673755" y1="11.4510126" x2="1.4673755" y2="11.4510126"/>
	</g>
</g>
<path fill="none" stroke="#000000" stroke-width="0.5004681" stroke-miterlimit="10" d="M2.7575917,12.770997"/>
<g>
	<path fill="#777777" d="M15.0302734,8.2583008h1.5732422l2.4750977,5.8964844h0.0439453l2.453125-5.8964844h1.5727539v7.7880859
		h-1.0561523V9.644043h-0.0219727l-2.6289062,6.4023438h-0.7041016L16.1083984,9.644043h-0.0219727v6.4023438h-1.0561523V8.2583008z
		"/>
	<path fill="#777777" d="M25.293457,13.8022461c0,0.2275391,0.0493164,0.4345703,0.1484375,0.6220703
		c0.0991211,0.1865234,0.2290039,0.3457031,0.390625,0.4785156c0.1611328,0.1318359,0.3481445,0.234375,0.5610352,0.3076172
		c0.2124023,0.0732422,0.4326172,0.1103516,0.659668,0.1103516c0.3081055,0,0.5756836-0.0722656,0.8032227-0.2148438
		c0.2270508-0.1435547,0.4360352-0.3320312,0.6269531-0.5664062l0.7480469,0.5722656
		c-0.550293,0.7109375-1.3203125,1.0664062-2.3100586,1.0664062c-0.4106445,0-0.7827148-0.0693359-1.1166992-0.2089844
		c-0.3334961-0.1386719-0.6157227-0.3320312-0.8466797-0.5771484c-0.230957-0.2460938-0.4091797-0.5351562-0.5336914-0.8691406
		s-0.1870117-0.6943359-0.1870117-1.0839844c0-0.3886719,0.0678711-0.7490234,0.2036133-1.0830078
		s0.3227539-0.6230469,0.5610352-0.8691406c0.2382812-0.2451172,0.5224609-0.4384766,0.8525391-0.5771484
		c0.3300781-0.1396484,0.6889648-0.2089844,1.0776367-0.2089844c0.4624023,0,0.8525391,0.0800781,1.171875,0.2421875
		c0.3188477,0.1611328,0.5810547,0.3720703,0.7861328,0.6318359c0.2055664,0.2607422,0.3540039,0.5537109,0.4458008,0.8798828
		c0.0913086,0.3271484,0.137207,0.6582031,0.137207,0.9960938v0.3515625H25.293457z M28.4174805,13.0102539
		c-0.0073242-0.2197266-0.0424805-0.421875-0.1044922-0.6044922c-0.0625-0.1835938-0.15625-0.3427734-0.2807617-0.4785156
		s-0.2802734-0.2421875-0.4672852-0.3193359s-0.4052734-0.1152344-0.6547852-0.1152344
		c-0.2416992,0-0.4638672,0.0458984-0.6655273,0.1376953c-0.2016602,0.0908203-0.3720703,0.2099609-0.5112305,0.3574219
		c-0.1396484,0.1464844-0.2475586,0.3095703-0.324707,0.4892578c-0.0766602,0.1796875-0.1152344,0.3574219-0.1152344,0.5332031
		H28.4174805z"/>
	<path fill="#777777" d="M33.1806641,11.6899414h-1.4189453v2.3652344c0,0.1474609,0.003418,0.2919922,0.0107422,0.4345703
		c0.0073242,0.1435547,0.0351562,0.2714844,0.0825195,0.3847656c0.0478516,0.1142578,0.1210938,0.2060547,0.2202148,0.2753906
		s0.2436523,0.1044922,0.4345703,0.1044922c0.1171875,0,0.2382812-0.0107422,0.362793-0.0332031
		c0.1245117-0.0214844,0.2382812-0.0625,0.3413086-0.1210938v0.9023438
		c-0.1176758,0.0664062-0.2695312,0.1113281-0.456543,0.1376953c-0.1870117,0.0253906-0.3320312,0.0380859-0.4345703,0.0380859
		c-0.3813477,0-0.6767578-0.0527344-0.8857422-0.1591797s-0.362793-0.2441406-0.4619141-0.4130859
		c-0.0991211-0.1679688-0.1577148-0.3574219-0.1757812-0.5664062c-0.0185547-0.2089844-0.027832-0.4189453-0.027832-0.6318359
		v-2.7177734h-1.144043v-0.8574219h1.144043V9.3696289h0.9902344v1.4628906h1.4189453V11.6899414z"/>
	<path fill="#777777" d="M34.203125,11.4702148c0.2788086-0.2568359,0.6010742-0.4492188,0.9677734-0.5771484
		s0.7333984-0.1923828,1.1000977-0.1923828c0.3813477,0,0.7094727,0.0478516,0.984375,0.1425781
		c0.2753906,0.0957031,0.5009766,0.2236328,0.6767578,0.3847656c0.1757812,0.1621094,0.3061523,0.3466797,0.390625,0.5556641
		c0.0839844,0.2089844,0.1264648,0.4277344,0.1264648,0.6542969v2.6621094c0,0.1835938,0.003418,0.3525391,0.0107422,0.5058594
		c0.0073242,0.1542969,0.0185547,0.3007812,0.0332031,0.4404297h-0.8798828
		c-0.0219727-0.2636719-0.0332031-0.5283203-0.0332031-0.7919922h-0.0219727
		c-0.2202148,0.3369141-0.4804688,0.5761719-0.7807617,0.7148438c-0.3007812,0.1396484-0.6494141,0.2089844-1.0454102,0.2089844
		c-0.2416992,0-0.4726562-0.0332031-0.6928711-0.0986328c-0.2197266-0.0664062-0.4125977-0.1650391-0.5776367-0.296875
		c-0.1650391-0.1328125-0.2949219-0.2958984-0.3901367-0.4902344c-0.0957031-0.1933594-0.1430664-0.4189453-0.1430664-0.6757812
		c0-0.3378906,0.0751953-0.6201172,0.2255859-0.8476562c0.1499023-0.2265625,0.3554688-0.4121094,0.6157227-0.5546875
		c0.2602539-0.1435547,0.5644531-0.2460938,0.9130859-0.3085938c0.3481445-0.0625,0.7207031-0.09375,1.1166992-0.09375h0.7255859
		v-0.2197266c0-0.1318359-0.0253906-0.2636719-0.0766602-0.3955078c-0.0517578-0.1328125-0.128418-0.2519531-0.230957-0.3574219
		c-0.1030273-0.1064453-0.230957-0.1914062-0.3852539-0.2539062c-0.1538086-0.0615234-0.3374023-0.0927734-0.5498047-0.0927734
		c-0.190918,0-0.3574219,0.0185547-0.5004883,0.0546875c-0.1430664,0.0371094-0.2734375,0.0830078-0.390625,0.1376953
		s-0.2236328,0.1191406-0.3188477,0.1923828c-0.0957031,0.0732422-0.1870117,0.1425781-0.2753906,0.2089844L34.203125,11.4702148z
		 M36.9970703,13.5385742c-0.2348633,0-0.4750977,0.0126953-0.7207031,0.0380859
		c-0.2456055,0.0263672-0.4692383,0.0751953-0.6708984,0.1484375s-0.3666992,0.1767578-0.4946289,0.3085938
		c-0.128418,0.1318359-0.1928711,0.3007812-0.1928711,0.5058594c0,0.3007812,0.1010742,0.5166016,0.3027344,0.6484375
		c0.2016602,0.1328125,0.4746094,0.1982422,0.8193359,0.1982422c0.2714844,0,0.5024414-0.0458984,0.6928711-0.1376953
		c0.190918-0.0908203,0.3447266-0.2099609,0.4624023-0.3574219c0.1171875-0.1464844,0.2011719-0.3095703,0.2529297-0.4892578
		c0.0512695-0.1796875,0.0766602-0.3574219,0.0766602-0.5332031v-0.3300781H36.9970703z"/>
	<path fill="#777777" d="M39.6152344,7.7299805h0.9897461v3.8505859h0.0219727
		c0.1762695-0.2714844,0.4291992-0.4863281,0.7592773-0.6435547c0.3300781-0.1582031,0.6821289-0.2363281,1.0561523-0.2363281
		c0.402832,0,0.7680664,0.0693359,1.0942383,0.2089844c0.3261719,0.1386719,0.6049805,0.3320312,0.8359375,0.5771484
		c0.230957,0.2460938,0.4086914,0.5351562,0.5336914,0.8691406c0.1245117,0.3339844,0.1870117,0.6943359,0.1870117,1.0830078
		c0,0.3896484-0.0625,0.7480469-0.1870117,1.078125c-0.125,0.3300781-0.3027344,0.6201172-0.5336914,0.8691406
		c-0.230957,0.25-0.5097656,0.4443359-0.8359375,0.5830078c-0.3261719,0.1396484-0.6914062,0.2089844-1.0942383,0.2089844
		c-0.3520508,0-0.6953125-0.0771484-1.0288086-0.2304688c-0.3334961-0.1542969-0.5957031-0.3701172-0.7866211-0.6494141h-0.0219727
		v0.7480469h-0.9897461V7.7299805z M42.3212891,15.2543945c0.2636719,0,0.5019531-0.0458984,0.7148438-0.1376953
		s0.3920898-0.2158203,0.5390625-0.3740234c0.1464844-0.1572266,0.2602539-0.3476562,0.3408203-0.5722656
		c0.0805664-0.2226562,0.1210938-0.4667969,0.1210938-0.7314453c0-0.2636719-0.0405273-0.5068359-0.1210938-0.7314453
		c-0.0805664-0.2236328-0.1943359-0.4140625-0.3408203-0.5712891c-0.1469727-0.1582031-0.3261719-0.2822266-0.5390625-0.3740234
		s-0.4511719-0.1376953-0.7148438-0.1376953c-0.2641602,0-0.5024414,0.0458984-0.715332,0.1376953
		c-0.2124023,0.0917969-0.3920898,0.2158203-0.5385742,0.3740234c-0.1469727,0.1572266-0.2607422,0.3476562-0.3413086,0.5712891
		c-0.0805664,0.2246094-0.1210938,0.4677734-0.1210938,0.7314453c0,0.2646484,0.0405273,0.5087891,0.1210938,0.7314453
		c0.0805664,0.2246094,0.1943359,0.4150391,0.3413086,0.5722656c0.1464844,0.1582031,0.3261719,0.2822266,0.5385742,0.3740234
		C41.8188477,15.2084961,42.0571289,15.2543945,42.3212891,15.2543945z"/>
	<path fill="#777777" d="M45.8081055,13.4389648c0-0.3808594,0.0712891-0.7363281,0.2143555-1.0664062
		s0.3393555-0.6201172,0.5883789-0.8691406c0.2495117-0.2490234,0.5429688-0.4453125,0.8803711-0.5888672
		c0.3369141-0.1425781,0.7001953-0.2138672,1.0888672-0.2138672s0.7514648,0.0712891,1.0888672,0.2138672
		c0.3374023,0.1435547,0.6308594,0.3398438,0.8798828,0.5888672c0.2495117,0.2490234,0.4458008,0.5390625,0.5888672,0.8691406
		c0.1425781,0.3300781,0.2143555,0.6855469,0.2143555,1.0664062c0,0.3818359-0.0717773,0.7392578-0.2143555,1.0732422
		c-0.1430664,0.3330078-0.3393555,0.6230469-0.5888672,0.8691406c-0.2490234,0.2451172-0.5424805,0.4394531-0.8798828,0.5830078
		c-0.3374023,0.1425781-0.7001953,0.2138672-1.0888672,0.2138672s-0.7519531-0.0712891-1.0888672-0.2138672
		c-0.3374023-0.1435547-0.6308594-0.3378906-0.8803711-0.5830078c-0.2490234-0.2460938-0.4453125-0.5361328-0.5883789-0.8691406
		C45.8793945,14.1782227,45.8081055,13.8208008,45.8081055,13.4389648z M46.8637695,13.4389648
		c0,0.2646484,0.0405273,0.5087891,0.1210938,0.7314453c0.0805664,0.2246094,0.1943359,0.4150391,0.3413086,0.5722656
		c0.1464844,0.1582031,0.3261719,0.2822266,0.5385742,0.3740234c0.2128906,0.0917969,0.4511719,0.1376953,0.715332,0.1376953
		c0.2636719,0,0.5019531-0.0458984,0.7148438-0.1376953s0.3920898-0.2158203,0.5390625-0.3740234
		c0.1464844-0.1572266,0.2602539-0.3476562,0.3408203-0.5722656c0.0805664-0.2226562,0.1210938-0.4667969,0.1210938-0.7314453
		c0-0.2636719-0.0405273-0.5068359-0.1210938-0.7314453c-0.0805664-0.2236328-0.1943359-0.4140625-0.3408203-0.5712891
		c-0.1469727-0.1582031-0.3261719-0.2822266-0.5390625-0.3740234s-0.4511719-0.1376953-0.7148438-0.1376953
		c-0.2641602,0-0.5024414,0.0458984-0.715332,0.1376953c-0.2124023,0.0917969-0.3920898,0.2158203-0.5385742,0.3740234
		c-0.1469727,0.1572266-0.2607422,0.3476562-0.3413086,0.5712891C46.9042969,12.9321289,46.8637695,13.175293,46.8637695,13.4389648
		z"/>
	<path fill="#777777" d="M52.3969727,7.7299805h0.9897461v8.3164062h-0.9897461V7.7299805z"/>
	<path fill="#777777" d="M54.4316406,13.4389648c0-0.3808594,0.0712891-0.7363281,0.2143555-1.0664062
		s0.3393555-0.6201172,0.5883789-0.8691406c0.2495117-0.2490234,0.5429688-0.4453125,0.8803711-0.5888672
		c0.3369141-0.1425781,0.7001953-0.2138672,1.0888672-0.2138672s0.7514648,0.0712891,1.0888672,0.2138672
		c0.3374023,0.1435547,0.6308594,0.3398438,0.8798828,0.5888672c0.2495117,0.2490234,0.4458008,0.5390625,0.5888672,0.8691406
		c0.1425781,0.3300781,0.2143555,0.6855469,0.2143555,1.0664062c0,0.3818359-0.0717773,0.7392578-0.2143555,1.0732422
		c-0.1430664,0.3330078-0.3393555,0.6230469-0.5888672,0.8691406c-0.2490234,0.2451172-0.5424805,0.4394531-0.8798828,0.5830078
		c-0.3374023,0.1425781-0.7001953,0.2138672-1.0888672,0.2138672s-0.7519531-0.0712891-1.0888672-0.2138672
		c-0.3374023-0.1435547-0.6308594-0.3378906-0.8803711-0.5830078c-0.2490234-0.2460938-0.4453125-0.5361328-0.5883789-0.8691406
		C54.5029297,14.1782227,54.4316406,13.8208008,54.4316406,13.4389648z M55.4873047,13.4389648
		c0,0.2646484,0.0405273,0.5087891,0.1210938,0.7314453c0.0805664,0.2246094,0.1943359,0.4150391,0.3413086,0.5722656
		c0.1464844,0.1582031,0.3261719,0.2822266,0.5385742,0.3740234c0.2128906,0.0917969,0.4511719,0.1376953,0.715332,0.1376953
		c0.2636719,0,0.5019531-0.0458984,0.7148438-0.1376953s0.3920898-0.2158203,0.5390625-0.3740234
		c0.1464844-0.1572266,0.2602539-0.3476562,0.3408203-0.5722656c0.0805664-0.2226562,0.1210938-0.4667969,0.1210938-0.7314453
		c0-0.2636719-0.0405273-0.5068359-0.1210938-0.7314453c-0.0805664-0.2236328-0.1943359-0.4140625-0.3408203-0.5712891
		c-0.1469727-0.1582031-0.3261719-0.2822266-0.5390625-0.3740234s-0.4511719-0.1376953-0.7148438-0.1376953
		c-0.2641602,0-0.5024414,0.0458984-0.715332,0.1376953c-0.2124023,0.0917969-0.3920898,0.2158203-0.5385742,0.3740234
		c-0.1469727,0.1572266-0.2607422,0.3476562-0.3413086,0.5712891C55.527832,12.9321289,55.4873047,13.175293,55.4873047,13.4389648z
		"/>
	<path fill="#777777" d="M60.9433594,10.8325195h0.9238281v0.8134766h0.0219727
		c0.0219727-0.0732422,0.0791016-0.1650391,0.1704102-0.2744141c0.0917969-0.1103516,0.2094727-0.2148438,0.3520508-0.3134766
		c0.1430664-0.0996094,0.3120117-0.1835938,0.5063477-0.2529297c0.1938477-0.0703125,0.4086914-0.1044922,0.6435547-0.1044922
		c0.3881836,0,0.7148438,0.0800781,0.9790039,0.2421875c0.2636719,0.1611328,0.4799805,0.4033203,0.6489258,0.7255859
		c0.168457-0.3222656,0.4067383-0.5644531,0.7148438-0.7255859c0.3081055-0.1621094,0.6196289-0.2421875,0.9350586-0.2421875
		c0.4033203,0,0.7333984,0.0654297,0.9897461,0.1972656c0.2568359,0.1328125,0.4584961,0.3066406,0.6049805,0.5224609
		c0.1469727,0.2167969,0.2475586,0.4628906,0.3027344,0.7373047c0.0551758,0.2753906,0.0825195,0.5595703,0.0825195,0.8525391
		v3.0361328h-0.9902344v-2.9042969c0-0.1972656-0.0126953-0.3886719-0.0380859-0.5712891
		c-0.0258789-0.1835938-0.0791016-0.3447266-0.159668-0.484375c-0.0810547-0.1396484-0.1943359-0.2509766-0.3408203-0.3359375
		c-0.1469727-0.0839844-0.3413086-0.1259766-0.5830078-0.1259766c-0.4770508,0-0.8178711,0.1464844-1.0234375,0.4394531
		c-0.2050781,0.2939453-0.3076172,0.671875-0.3076172,1.1337891v2.8486328h-0.9902344v-2.7275391
		c0-0.25-0.0126953-0.4775391-0.0385742-0.6826172c-0.0253906-0.2050781-0.0766602-0.3828125-0.1538086-0.5332031
		s-0.1870117-0.2675781-0.3300781-0.3525391c-0.1430664-0.0839844-0.3354492-0.1259766-0.5776367-0.1259766
		c-0.1757812,0-0.3461914,0.0351562-0.5112305,0.1044922s-0.3100586,0.1738281-0.4345703,0.3134766
		c-0.125,0.1396484-0.2236328,0.3173828-0.296875,0.5332031c-0.0737305,0.2167969-0.1103516,0.4716797-0.1103516,0.7646484
		v2.7060547h-0.9897461V10.8325195z"/>
	<path fill="#777777" d="M69.8867188,8.9624023c0-0.1982422,0.0712891-0.3681641,0.2143555-0.5117188
		c0.1430664-0.1425781,0.3134766-0.2138672,0.5112305-0.2138672c0.1982422,0,0.3686523,0.0712891,0.5117188,0.2138672
		c0.1430664,0.1435547,0.2143555,0.3134766,0.2143555,0.5117188s-0.0712891,0.3681641-0.2143555,0.5117188
		c-0.1430664,0.1425781-0.3134766,0.2138672-0.5117188,0.2138672c-0.1977539,0-0.3681641-0.0712891-0.5112305-0.2138672
		C69.9580078,9.3305664,69.8867188,9.1606445,69.8867188,8.9624023z M70.1176758,10.8325195h0.9897461v5.2138672h-0.9897461
		V10.8325195z"/>
	<path fill="#777777" d="M76.1342773,12.2182617c-0.1835938-0.1904297-0.3759766-0.3349609-0.5776367-0.4345703
		c-0.2016602-0.0986328-0.4418945-0.1484375-0.7202148-0.1484375c-0.2714844,0-0.5083008,0.0498047-0.7094727,0.1484375
		c-0.2021484,0.0996094-0.3706055,0.2353516-0.5063477,0.4072266s-0.2382812,0.3701172-0.3081055,0.59375
		c-0.0693359,0.2236328-0.1044922,0.4570312-0.1044922,0.6982422c0,0.2421875,0.0405273,0.4716797,0.1210938,0.6875
		c0.0805664,0.2167969,0.1943359,0.4052734,0.3413086,0.5673828c0.1464844,0.1611328,0.3222656,0.2871094,0.527832,0.3789062
		c0.2050781,0.0917969,0.4360352,0.1376953,0.6928711,0.1376953c0.2788086,0,0.5170898-0.0498047,0.715332-0.1484375
		c0.1977539-0.0986328,0.3808594-0.2441406,0.5498047-0.4345703l0.7041016,0.7041016
		c-0.2568359,0.2861328-0.5556641,0.4912109-0.8964844,0.6162109c-0.3413086,0.1240234-0.7026367,0.1865234-1.0834961,0.1865234
		c-0.4033203,0-0.7719727-0.0654297-1.1054688-0.1982422c-0.3339844-0.1318359-0.621582-0.3164062-0.8637695-0.5546875
		c-0.2416992-0.2382812-0.4287109-0.5244141-0.5610352-0.8583984c-0.1318359-0.3339844-0.1977539-0.7021484-0.1977539-1.1054688
		s0.065918-0.7734375,0.1977539-1.1113281c0.1323242-0.3369141,0.3173828-0.6269531,0.5556641-0.8691406
		c0.2382812-0.2412109,0.5244141-0.4306641,0.8579102-0.5664062s0.7055664-0.203125,1.1166992-0.203125
		c0.3808594,0,0.7460938,0.0673828,1.0942383,0.203125s0.6508789,0.3427734,0.9077148,0.6220703L76.1342773,12.2182617z"/>
	<path fill="#777777" d="M80.4238281,12.1411133c-0.1171875-0.1464844-0.262207-0.2695312-0.4345703-0.3681641
		s-0.3833008-0.1484375-0.6323242-0.1484375c-0.2348633,0-0.4384766,0.0498047-0.6108398,0.1484375
		s-0.2583008,0.2441406-0.2583008,0.4345703c0,0.1542969,0.0493164,0.2783203,0.1484375,0.3740234
		s0.2163086,0.171875,0.3520508,0.2304688c0.1357422,0.0595703,0.2807617,0.1035156,0.4345703,0.1328125
		s0.2861328,0.0546875,0.3959961,0.0761719c0.2124023,0.0517578,0.4125977,0.1142578,0.5996094,0.1875
		s0.3481445,0.1689453,0.4838867,0.2861328s0.2421875,0.2597656,0.3188477,0.4287109
		c0.0771484,0.1689453,0.1157227,0.3740234,0.1157227,0.6162109c0,0.2929688-0.0625,0.5439453-0.1870117,0.7529297
		c-0.125,0.2089844-0.2861328,0.3798828-0.4838867,0.5117188c-0.1982422,0.1318359-0.4238281,0.2275391-0.6767578,0.2861328
		s-0.5078125,0.0878906-0.7646484,0.0878906c-0.4326172,0-0.8120117-0.0654297-1.1381836-0.1982422
		c-0.3266602-0.1318359-0.6181641-0.3740234-0.8745117-0.7255859l0.7480469-0.6162109
		c0.1611328,0.1611328,0.3408203,0.3046875,0.5390625,0.4296875c0.1977539,0.1240234,0.4399414,0.1865234,0.7255859,0.1865234
		c0.125,0,0.2514648-0.0126953,0.3798828-0.0380859c0.1279297-0.0263672,0.2416992-0.0664062,0.3408203-0.1210938
		c0.0991211-0.0556641,0.1796875-0.125,0.2421875-0.2089844c0.0620117-0.0849609,0.0932617-0.1816406,0.0932617-0.2919922
		c0-0.1464844-0.0458984-0.2675781-0.1376953-0.3632812c-0.0913086-0.0947266-0.2016602-0.1699219-0.3295898-0.2246094
		c-0.128418-0.0556641-0.2641602-0.0996094-0.4072266-0.1328125c-0.1430664-0.0322266-0.2695312-0.0605469-0.3793945-0.0820312
		c-0.2128906-0.0517578-0.4145508-0.1103516-0.6049805-0.1757812c-0.190918-0.0664062-0.359375-0.1542969-0.5058594-0.2646484
		c-0.1469727-0.109375-0.2641602-0.2490234-0.3520508-0.4179688c-0.0883789-0.1679688-0.1323242-0.3769531-0.1323242-0.6269531
		c0-0.2705078,0.0571289-0.5078125,0.1708984-0.7089844c0.1132812-0.2021484,0.2636719-0.3691406,0.4506836-0.5009766
		s0.3999023-0.2304688,0.6381836-0.296875s0.4785156-0.0986328,0.7202148-0.0986328
		c0.3520508,0,0.6894531,0.0654297,1.012207,0.1972656c0.3227539,0.1328125,0.5791016,0.3525391,0.7700195,0.6601562
		L80.4238281,12.1411133z"/>
</g>
<circle fill="#FF0303" cx="10.9019566" cy="12.1129742" r="1.1422229"/>
<path fill="none" stroke="#000000" stroke-width="0.5733722" stroke-miterlimit="10" d="M2.2592747,14.1545305"/>
<path fill="none" stroke="#42BDAE" stroke-width="0.9893817" stroke-miterlimit="10" d="M133.2357025,19.9883232"/>
<polyline fill="none" stroke="#CCCCCC" stroke-width="0.7451853" stroke-miterlimit="10" points="121.1434174,13.094594 
	124.6996918,13.094594 127.2219162,17.4632168 124.6996918,21.8318577 121.1434174,21.8318577 "/>
<polyline fill="none" stroke="#CCCCCC" stroke-width="0.7451853" stroke-miterlimit="10" points="132.5010986,7.8368979 
	128.9448242,7.8368979 126.4226074,12.2055216 128.9448242,16.5741615 132.5010986,16.5741615 "/>
<g>
	<g>
		
			<line fill="none" stroke="#CCCCCC" stroke-linecap="round" stroke-miterlimit="10" x1="121.4612503" y1="3.1706064" x2="121.4612503" y2="3.1706064"/>
		
			<line fill="none" stroke="#CCCCCC" stroke-linecap="round" stroke-miterlimit="10" stroke-dasharray="0,1.6851619" x1="123.1464081" y1="3.1706064" x2="123.9889908" y2="3.1706064"/>
		
			<line fill="none" stroke="#CCCCCC" stroke-linecap="round" stroke-miterlimit="10" x1="124.8315735" y1="3.1706064" x2="124.8315735" y2="3.1706064"/>
		
			<line fill="none" stroke="#CCCCCC" stroke-linecap="round" stroke-miterlimit="10" stroke-dasharray="0,1.5935614" x1="125.6283493" y1="4.5506716" x2="126.8235245" y2="6.620769"/>
		
			<line fill="none" stroke="#CCCCCC" stroke-linecap="round" stroke-miterlimit="10" x1="127.2219162" y1="7.3108015" x2="127.2219162" y2="7.3108015"/>
		
			<line fill="none" stroke="#CCCCCC" stroke-linecap="round" stroke-miterlimit="10" stroke-dasharray="0,1.5935658" x1="126.4251328" y1="8.6908722" x2="125.2299652" y2="10.7609777"/>
		
			<line fill="none" stroke="#CCCCCC" stroke-linecap="round" stroke-miterlimit="10" x1="124.8315735" y1="11.4510126" x2="124.8315735" y2="11.4510126"/>
		
			<line fill="none" stroke="#CCCCCC" stroke-linecap="round" stroke-miterlimit="10" stroke-dasharray="0,1.6851619" x1="123.1464081" y1="11.4510126" x2="122.303833" y2="11.4510126"/>
		
			<line fill="none" stroke="#CCCCCC" stroke-linecap="round" stroke-miterlimit="10" x1="121.4612503" y1="11.4510126" x2="121.4612503" y2="11.4510126"/>
	</g>
</g>
<path fill="none" stroke="#000000" stroke-width="0.5004681" stroke-miterlimit="10" d="M122.7514648,12.770997"/>
<g>
	<path fill="#CCCCCC" d="M135.0244141,8.2583008h1.5732422l2.4746094,5.8964844h0.0439453l2.453125-5.8964844h1.5732422v7.7880859
		h-1.0566406V9.644043h-0.0214844l-2.6289062,6.4023438h-0.7041016l-2.6289062-6.4023438h-0.0224609v6.4023438h-1.0556641V8.2583008
		z"/>
	<path fill="#CCCCCC" d="M145.2871094,13.8022461c0,0.2275391,0.0498047,0.4345703,0.1484375,0.6220703
		c0.0996094,0.1865234,0.2294922,0.3457031,0.390625,0.4785156c0.1611328,0.1318359,0.3486328,0.234375,0.5615234,0.3076172
		c0.2119141,0.0732422,0.4326172,0.1103516,0.6591797,0.1103516c0.3085938,0,0.5761719-0.0722656,0.8037109-0.2148438
		c0.2265625-0.1435547,0.4355469-0.3320312,0.6269531-0.5664062l0.7480469,0.5722656
		c-0.5507812,0.7109375-1.3203125,1.0664062-2.3105469,1.0664062c-0.4101562,0-0.7822266-0.0693359-1.1162109-0.2089844
		c-0.3339844-0.1386719-0.6162109-0.3320312-0.8466797-0.5771484c-0.2314453-0.2460938-0.4091797-0.5351562-0.5341797-0.8691406
		c-0.1240234-0.3339844-0.1865234-0.6943359-0.1865234-1.0839844c0-0.3886719,0.0673828-0.7490234,0.203125-1.0830078
		s0.3232422-0.6230469,0.5615234-0.8691406c0.2382812-0.2451172,0.5224609-0.4384766,0.8525391-0.5771484
		c0.3300781-0.1396484,0.6884766-0.2089844,1.0771484-0.2089844c0.4628906,0,0.8525391,0.0800781,1.171875,0.2421875
		c0.3193359,0.1611328,0.5810547,0.3720703,0.7861328,0.6318359c0.2060547,0.2607422,0.3544922,0.5537109,0.4462891,0.8798828
		c0.0908203,0.3271484,0.1367188,0.6582031,0.1367188,0.9960938v0.3515625H145.2871094z M148.4111328,13.0102539
		c-0.0068359-0.2197266-0.0419922-0.421875-0.1044922-0.6044922c-0.0625-0.1835938-0.15625-0.3427734-0.2802734-0.4785156
		c-0.125-0.1357422-0.2802734-0.2421875-0.4677734-0.3193359c-0.1865234-0.0771484-0.4052734-0.1152344-0.6542969-0.1152344
		c-0.2421875,0-0.4638672,0.0458984-0.6660156,0.1376953c-0.2011719,0.0908203-0.3720703,0.2099609-0.5107422,0.3574219
		c-0.1396484,0.1464844-0.2480469,0.3095703-0.3251953,0.4892578c-0.0761719,0.1796875-0.1152344,0.3574219-0.1152344,0.5332031
		H148.4111328z"/>
	<path fill="#CCCCCC" d="M153.1748047,11.6899414h-1.4189453v2.3652344c0,0.1474609,0.0029297,0.2919922,0.0107422,0.4345703
		c0.0068359,0.1435547,0.0351562,0.2714844,0.0820312,0.3847656c0.0478516,0.1142578,0.1210938,0.2060547,0.2207031,0.2753906
		c0.0986328,0.0693359,0.2431641,0.1044922,0.4345703,0.1044922c0.1171875,0,0.2382812-0.0107422,0.3623047-0.0332031
		c0.125-0.0214844,0.2382812-0.0625,0.3417969-0.1210938v0.9023438c-0.1181641,0.0664062-0.2695312,0.1113281-0.4570312,0.1376953
		c-0.1865234,0.0253906-0.3320312,0.0380859-0.4345703,0.0380859c-0.3808594,0-0.6767578-0.0527344-0.8857422-0.1591797
		s-0.3623047-0.2441406-0.4619141-0.4130859c-0.0986328-0.1679688-0.1572266-0.3574219-0.1757812-0.5664062
		s-0.0273438-0.4189453-0.0273438-0.6318359v-2.7177734h-1.1445312v-0.8574219h1.1445312V9.3696289h0.9902344v1.4628906h1.4189453
		V11.6899414z"/>
	<path fill="#CCCCCC" d="M154.1972656,11.4702148c0.2783203-0.2568359,0.6005859-0.4492188,0.9677734-0.5771484
		c0.3662109-0.1279297,0.7333984-0.1923828,1.0996094-0.1923828c0.3818359,0,0.7099609,0.0478516,0.984375,0.1425781
		c0.2753906,0.0957031,0.5009766,0.2236328,0.6767578,0.3847656c0.1757812,0.1621094,0.3066406,0.3466797,0.390625,0.5556641
		s0.1269531,0.4277344,0.1269531,0.6542969v2.6621094c0,0.1835938,0.0029297,0.3525391,0.0107422,0.5058594
		c0.0068359,0.1542969,0.0185547,0.3007812,0.0332031,0.4404297h-0.8798828
		c-0.0224609-0.2636719-0.0332031-0.5283203-0.0332031-0.7919922h-0.0224609
		c-0.2197266,0.3369141-0.4804688,0.5761719-0.7802734,0.7148438c-0.3007812,0.1396484-0.6494141,0.2089844-1.0458984,0.2089844
		c-0.2412109,0-0.4726562-0.0332031-0.6923828-0.0986328c-0.2197266-0.0664062-0.4130859-0.1650391-0.578125-0.296875
		c-0.1650391-0.1328125-0.2949219-0.2958984-0.3896484-0.4902344c-0.0957031-0.1933594-0.1435547-0.4189453-0.1435547-0.6757812
		c0-0.3378906,0.0751953-0.6201172,0.2255859-0.8476562c0.1503906-0.2265625,0.3554688-0.4121094,0.6162109-0.5546875
		c0.2597656-0.1435547,0.5644531-0.2460938,0.9130859-0.3085938c0.3476562-0.0625,0.7207031-0.09375,1.1162109-0.09375h0.7255859
		v-0.2197266c0-0.1318359-0.0253906-0.2636719-0.0761719-0.3955078c-0.0517578-0.1328125-0.1289062-0.2519531-0.2314453-0.3574219
		c-0.1025391-0.1064453-0.2304688-0.1914062-0.3847656-0.2539062c-0.1542969-0.0615234-0.3378906-0.0927734-0.5498047-0.0927734
		c-0.1914062,0-0.3574219,0.0185547-0.5009766,0.0546875c-0.1425781,0.0371094-0.2734375,0.0830078-0.390625,0.1376953
		s-0.2236328,0.1191406-0.3183594,0.1923828c-0.0957031,0.0732422-0.1875,0.1425781-0.2753906,0.2089844L154.1972656,11.4702148z
		 M156.9912109,13.5385742c-0.2353516,0-0.4755859,0.0126953-0.7207031,0.0380859
		c-0.2460938,0.0263672-0.4697266,0.0751953-0.6708984,0.1484375c-0.2021484,0.0732422-0.3671875,0.1767578-0.4951172,0.3085938
		s-0.1923828,0.3007812-0.1923828,0.5058594c0,0.3007812,0.1005859,0.5166016,0.3027344,0.6484375
		c0.2011719,0.1328125,0.4746094,0.1982422,0.8193359,0.1982422c0.2714844,0,0.5019531-0.0458984,0.6923828-0.1376953
		c0.1914062-0.0908203,0.3447266-0.2099609,0.4628906-0.3574219c0.1171875-0.1464844,0.2011719-0.3095703,0.2529297-0.4892578
		c0.0507812-0.1796875,0.0761719-0.3574219,0.0761719-0.5332031v-0.3300781H156.9912109z"/>
	<path fill="#CCCCCC" d="M159.609375,7.7299805h0.9892578v3.8505859h0.0224609
		c0.1757812-0.2714844,0.4287109-0.4863281,0.7587891-0.6435547c0.3300781-0.1582031,0.6826172-0.2363281,1.0566406-0.2363281
		c0.4023438,0,0.7675781,0.0693359,1.09375,0.2089844c0.3261719,0.1386719,0.6054688,0.3320312,0.8359375,0.5771484
		c0.2314453,0.2460938,0.4091797,0.5351562,0.5341797,0.8691406c0.1240234,0.3339844,0.1865234,0.6943359,0.1865234,1.0830078
		c0,0.3896484-0.0625,0.7480469-0.1865234,1.078125c-0.125,0.3300781-0.3027344,0.6201172-0.5341797,0.8691406
		c-0.2304688,0.25-0.5097656,0.4443359-0.8359375,0.5830078c-0.3261719,0.1396484-0.6914062,0.2089844-1.09375,0.2089844
		c-0.3525391,0-0.6953125-0.0771484-1.0292969-0.2304688c-0.3330078-0.1542969-0.5957031-0.3701172-0.7861328-0.6494141h-0.0224609
		v0.7480469h-0.9892578V7.7299805z M162.3154297,15.2543945c0.2636719,0,0.5019531-0.0458984,0.7148438-0.1376953
		s0.3916016-0.2158203,0.5390625-0.3740234c0.1464844-0.1572266,0.2597656-0.3476562,0.3408203-0.5722656
		c0.0800781-0.2226562,0.1210938-0.4667969,0.1210938-0.7314453c0-0.2636719-0.0410156-0.5068359-0.1210938-0.7314453
		c-0.0810547-0.2236328-0.1943359-0.4140625-0.3408203-0.5712891c-0.1474609-0.1582031-0.3261719-0.2822266-0.5390625-0.3740234
		s-0.4511719-0.1376953-0.7148438-0.1376953c-0.2646484,0-0.5029297,0.0458984-0.7158203,0.1376953
		c-0.2119141,0.0917969-0.3916016,0.2158203-0.5380859,0.3740234c-0.1474609,0.1572266-0.2607422,0.3476562-0.3417969,0.5712891
		c-0.0800781,0.2246094-0.1210938,0.4677734-0.1210938,0.7314453c0,0.2646484,0.0410156,0.5087891,0.1210938,0.7314453
		c0.0810547,0.2246094,0.1943359,0.4150391,0.3417969,0.5722656c0.1464844,0.1582031,0.3261719,0.2822266,0.5380859,0.3740234
		C161.8125,15.2084961,162.0507812,15.2543945,162.3154297,15.2543945z"/>
	<path fill="#CCCCCC" d="M165.8017578,13.4389648c0-0.3808594,0.0712891-0.7363281,0.2148438-1.0664062
		c0.1425781-0.3300781,0.3388672-0.6201172,0.5878906-0.8691406c0.25-0.2490234,0.5429688-0.4453125,0.8808594-0.5888672
		c0.3369141-0.1425781,0.7001953-0.2138672,1.0888672-0.2138672s0.7509766,0.0712891,1.0888672,0.2138672
		c0.3369141,0.1435547,0.6308594,0.3398438,0.8798828,0.5888672s0.4453125,0.5390625,0.5888672,0.8691406
		c0.1425781,0.3300781,0.2138672,0.6855469,0.2138672,1.0664062c0,0.3818359-0.0712891,0.7392578-0.2138672,1.0732422
		c-0.1435547,0.3330078-0.3398438,0.6230469-0.5888672,0.8691406c-0.2490234,0.2451172-0.5429688,0.4394531-0.8798828,0.5830078
		c-0.3378906,0.1425781-0.7001953,0.2138672-1.0888672,0.2138672s-0.7519531-0.0712891-1.0888672-0.2138672
		c-0.3378906-0.1435547-0.6308594-0.3378906-0.8808594-0.5830078c-0.2490234-0.2460938-0.4453125-0.5361328-0.5878906-0.8691406
		C165.8730469,14.1782227,165.8017578,13.8208008,165.8017578,13.4389648z M166.8574219,13.4389648
		c0,0.2646484,0.0410156,0.5087891,0.1210938,0.7314453c0.0810547,0.2246094,0.1943359,0.4150391,0.3417969,0.5722656
		c0.1464844,0.1582031,0.3261719,0.2822266,0.5380859,0.3740234c0.2128906,0.0917969,0.4511719,0.1376953,0.7158203,0.1376953
		c0.2636719,0,0.5019531-0.0458984,0.7148438-0.1376953s0.3916016-0.2158203,0.5390625-0.3740234
		c0.1464844-0.1572266,0.2597656-0.3476562,0.3408203-0.5722656c0.0800781-0.2226562,0.1210938-0.4667969,0.1210938-0.7314453
		c0-0.2636719-0.0410156-0.5068359-0.1210938-0.7314453c-0.0810547-0.2236328-0.1943359-0.4140625-0.3408203-0.5712891
		c-0.1474609-0.1582031-0.3261719-0.2822266-0.5390625-0.3740234s-0.4511719-0.1376953-0.7148438-0.1376953
		c-0.2646484,0-0.5029297,0.0458984-0.7158203,0.1376953c-0.2119141,0.0917969-0.3916016,0.2158203-0.5380859,0.3740234
		c-0.1474609,0.1572266-0.2607422,0.3476562-0.3417969,0.5712891
		C166.8984375,12.9321289,166.8574219,13.175293,166.8574219,13.4389648z"/>
	<path fill="#CCCCCC" d="M172.390625,7.7299805h0.9902344v8.3164062h-0.9902344V7.7299805z"/>
	<path fill="#CCCCCC" d="M174.4257812,13.4389648c0-0.3808594,0.0712891-0.7363281,0.2138672-1.0664062
		c0.1435547-0.3300781,0.3398438-0.6201172,0.5888672-0.8691406s0.5429688-0.4453125,0.8798828-0.5888672
		c0.3369141-0.1425781,0.7001953-0.2138672,1.0888672-0.2138672s0.7519531,0.0712891,1.0888672,0.2138672
		c0.3378906,0.1435547,0.6308594,0.3398438,0.8798828,0.5888672c0.25,0.2490234,0.4462891,0.5390625,0.5888672,0.8691406
		s0.2148438,0.6855469,0.2148438,1.0664062c0,0.3818359-0.0722656,0.7392578-0.2148438,1.0732422
		c-0.1425781,0.3330078-0.3388672,0.6230469-0.5888672,0.8691406c-0.2490234,0.2451172-0.5419922,0.4394531-0.8798828,0.5830078
		c-0.3369141,0.1425781-0.7001953,0.2138672-1.0888672,0.2138672s-0.7519531-0.0712891-1.0888672-0.2138672
		c-0.3369141-0.1435547-0.6308594-0.3378906-0.8798828-0.5830078c-0.2490234-0.2460938-0.4453125-0.5361328-0.5888672-0.8691406
		C174.4970703,14.1782227,174.4257812,13.8208008,174.4257812,13.4389648z M175.4814453,13.4389648
		c0,0.2646484,0.0400391,0.5087891,0.1210938,0.7314453c0.0800781,0.2246094,0.1943359,0.4150391,0.3408203,0.5722656
		c0.1464844,0.1582031,0.3261719,0.2822266,0.5390625,0.3740234s0.4511719,0.1376953,0.7148438,0.1376953
		s0.5019531-0.0458984,0.7148438-0.1376953s0.3925781-0.2158203,0.5390625-0.3740234
		c0.1464844-0.1572266,0.2607422-0.3476562,0.3408203-0.5722656c0.0810547-0.2226562,0.1210938-0.4667969,0.1210938-0.7314453
		c0-0.2636719-0.0400391-0.5068359-0.1210938-0.7314453c-0.0800781-0.2236328-0.1943359-0.4140625-0.3408203-0.5712891
		c-0.1464844-0.1582031-0.3261719-0.2822266-0.5390625-0.3740234s-0.4511719-0.1376953-0.7148438-0.1376953
		s-0.5019531,0.0458984-0.7148438,0.1376953s-0.3925781,0.2158203-0.5390625,0.3740234
		c-0.1464844,0.1572266-0.2607422,0.3476562-0.3408203,0.5712891
		C175.5214844,12.9321289,175.4814453,13.175293,175.4814453,13.4389648z"/>
	<path fill="#CCCCCC" d="M180.9375,10.8325195h0.9238281v0.8134766h0.0214844
		c0.0224609-0.0732422,0.0791016-0.1650391,0.1708984-0.2744141c0.0917969-0.1103516,0.2089844-0.2148438,0.3515625-0.3134766
		c0.1435547-0.0996094,0.3125-0.1835938,0.5068359-0.2529297c0.1933594-0.0703125,0.4082031-0.1044922,0.6435547-0.1044922
		c0.3876953,0,0.7148438,0.0800781,0.9785156,0.2421875c0.2636719,0.1611328,0.4804688,0.4033203,0.6494141,0.7255859
		c0.1679688-0.3222656,0.40625-0.5644531,0.7148438-0.7255859c0.3076172-0.1621094,0.6191406-0.2421875,0.9345703-0.2421875
		c0.4033203,0,0.7333984,0.0654297,0.9902344,0.1972656c0.2568359,0.1328125,0.4580078,0.3066406,0.6044922,0.5224609
		c0.1474609,0.2167969,0.2480469,0.4628906,0.3027344,0.7373047c0.0556641,0.2753906,0.0830078,0.5595703,0.0830078,0.8525391
		v3.0361328h-0.9902344v-2.9042969c0-0.1972656-0.0126953-0.3886719-0.0380859-0.5712891
		c-0.0263672-0.1835938-0.0791016-0.3447266-0.1601562-0.484375s-0.1943359-0.2509766-0.3408203-0.3359375
		c-0.1464844-0.0839844-0.3408203-0.1259766-0.5830078-0.1259766c-0.4765625,0-0.8173828,0.1464844-1.0234375,0.4394531
		c-0.2050781,0.2939453-0.3076172,0.671875-0.3076172,1.1337891v2.8486328h-0.9902344v-2.7275391
		c0-0.25-0.0126953-0.4775391-0.0380859-0.6826172s-0.0771484-0.3828125-0.1542969-0.5332031
		s-0.1865234-0.2675781-0.3300781-0.3525391c-0.1425781-0.0839844-0.3349609-0.1259766-0.5771484-0.1259766
		c-0.1757812,0-0.3466797,0.0351562-0.5117188,0.1044922s-0.3095703,0.1738281-0.4345703,0.3134766
		s-0.2236328,0.3173828-0.296875,0.5332031c-0.0732422,0.2167969-0.1103516,0.4716797-0.1103516,0.7646484v2.7060547H180.9375
		V10.8325195z"/>
	<path fill="#CCCCCC" d="M189.8808594,8.9624023c0-0.1982422,0.0712891-0.3681641,0.2138672-0.5117188
		c0.1435547-0.1425781,0.3134766-0.2138672,0.5117188-0.2138672s0.3681641,0.0712891,0.5117188,0.2138672
		c0.1425781,0.1435547,0.2138672,0.3134766,0.2138672,0.5117188s-0.0712891,0.3681641-0.2138672,0.5117188
		c-0.1435547,0.1425781-0.3134766,0.2138672-0.5117188,0.2138672s-0.3681641-0.0712891-0.5117188-0.2138672
		C189.9521484,9.3305664,189.8808594,9.1606445,189.8808594,8.9624023z M190.1113281,10.8325195h0.9902344v5.2138672h-0.9902344
		V10.8325195z"/>
	<path fill="#CCCCCC" d="M196.1279297,12.2182617c-0.1835938-0.1904297-0.3759766-0.3349609-0.5771484-0.4345703
		c-0.2021484-0.0986328-0.4423828-0.1484375-0.7207031-0.1484375c-0.2714844,0-0.5078125,0.0498047-0.7089844,0.1484375
		c-0.2021484,0.0996094-0.3710938,0.2353516-0.5068359,0.4072266s-0.2382812,0.3701172-0.3076172,0.59375
		s-0.1044922,0.4570312-0.1044922,0.6982422c0,0.2421875,0.0400391,0.4716797,0.1210938,0.6875
		c0.0800781,0.2167969,0.1943359,0.4052734,0.3408203,0.5673828c0.1464844,0.1611328,0.3222656,0.2871094,0.5283203,0.3789062
		c0.2050781,0.0917969,0.4355469,0.1376953,0.6923828,0.1376953c0.2792969,0,0.5175781-0.0498047,0.7158203-0.1484375
		c0.1972656-0.0986328,0.3808594-0.2441406,0.5498047-0.4345703l0.7041016,0.7041016
		c-0.2568359,0.2861328-0.5556641,0.4912109-0.8964844,0.6162109c-0.3417969,0.1240234-0.703125,0.1865234-1.0839844,0.1865234
		c-0.4033203,0-0.7714844-0.0654297-1.1054688-0.1982422c-0.3339844-0.1318359-0.6210938-0.3164062-0.8632812-0.5546875
		s-0.4287109-0.5244141-0.5615234-0.8583984c-0.1318359-0.3339844-0.1972656-0.7021484-0.1972656-1.1054688
		s0.0654297-0.7734375,0.1972656-1.1113281c0.1328125-0.3369141,0.3173828-0.6269531,0.5556641-0.8691406
		c0.2382812-0.2412109,0.5244141-0.4306641,0.8583984-0.5664062c0.3330078-0.1357422,0.7050781-0.203125,1.1162109-0.203125
		c0.3808594,0,0.7460938,0.0673828,1.0947266,0.203125c0.3476562,0.1357422,0.6503906,0.3427734,0.9072266,0.6220703
		L196.1279297,12.2182617z"/>
	<path fill="#CCCCCC" d="M200.4179688,12.1411133c-0.1171875-0.1464844-0.2626953-0.2695312-0.4345703-0.3681641
		c-0.1728516-0.0986328-0.3837891-0.1484375-0.6328125-0.1484375c-0.234375,0-0.4384766,0.0498047-0.6103516,0.1484375
		c-0.1728516,0.0986328-0.2587891,0.2441406-0.2587891,0.4345703c0,0.1542969,0.0498047,0.2783203,0.1484375,0.3740234
		c0.0996094,0.0957031,0.2167969,0.171875,0.3525391,0.2304688c0.1357422,0.0595703,0.2802734,0.1035156,0.4345703,0.1328125
		c0.1533203,0.0292969,0.2861328,0.0546875,0.3955078,0.0761719c0.2128906,0.0517578,0.4130859,0.1142578,0.5996094,0.1875
		c0.1875,0.0732422,0.3486328,0.1689453,0.484375,0.2861328s0.2421875,0.2597656,0.3183594,0.4287109
		c0.0771484,0.1689453,0.1162109,0.3740234,0.1162109,0.6162109c0,0.2929688-0.0625,0.5439453-0.1875,0.7529297
		s-0.2861328,0.3798828-0.4833984,0.5117188c-0.1982422,0.1318359-0.4238281,0.2275391-0.6767578,0.2861328
		s-0.5078125,0.0878906-0.7646484,0.0878906c-0.4326172,0-0.8125-0.0654297-1.1386719-0.1982422
		c-0.3261719-0.1318359-0.6181641-0.3740234-0.8740234-0.7255859l0.7480469-0.6162109
		c0.1611328,0.1611328,0.3408203,0.3046875,0.5390625,0.4296875c0.1972656,0.1240234,0.4394531,0.1865234,0.7255859,0.1865234
		c0.125,0,0.2509766-0.0126953,0.3798828-0.0380859c0.1279297-0.0263672,0.2412109-0.0664062,0.3408203-0.1210938
		c0.0986328-0.0556641,0.1796875-0.125,0.2421875-0.2089844c0.0615234-0.0849609,0.0927734-0.1816406,0.0927734-0.2919922
		c0-0.1464844-0.0458984-0.2675781-0.1376953-0.3632812c-0.0908203-0.0947266-0.2011719-0.1699219-0.3291016-0.2246094
		c-0.1289062-0.0556641-0.2646484-0.0996094-0.4072266-0.1328125c-0.1435547-0.0322266-0.2695312-0.0605469-0.3798828-0.0820312
		c-0.2128906-0.0517578-0.4140625-0.1103516-0.6044922-0.1757812c-0.1914062-0.0664062-0.359375-0.1542969-0.5058594-0.2646484
		c-0.1474609-0.109375-0.2646484-0.2490234-0.3525391-0.4179688c-0.0878906-0.1679688-0.1318359-0.3769531-0.1318359-0.6269531
		c0-0.2705078,0.0566406-0.5078125,0.1708984-0.7089844c0.1132812-0.2021484,0.2636719-0.3691406,0.4501953-0.5009766
		c0.1875-0.1318359,0.4003906-0.2304688,0.6386719-0.296875s0.4785156-0.0986328,0.7197266-0.0986328
		c0.3525391,0,0.6894531,0.0654297,1.0126953,0.1972656c0.3222656,0.1328125,0.5791016,0.3525391,0.7695312,0.6601562
		L200.4179688,12.1411133z"/>
</g>
<circle fill="#CCCCCC" cx="130.8958282" cy="12.1129742" r="1.1422229"/>
<path fill="none" stroke="#000000" stroke-width="0.5733722" stroke-miterlimit="10" d="M122.2531509,14.1545305"/>
<path fill="none" stroke="#000000" stroke-width="0.5004681" stroke-miterlimit="10" d="M122.2575912,12.770997"/>
<path fill="none" stroke="#000000" stroke-width="0.5733722" stroke-miterlimit="10" d="M121.7592773,14.1545305"/>
<g>
</g>
<g>
</g>
<g>
</g>
<g>
</g>
<g>
</g>
<g>
</g>
<g>
</g>
<g>
</g>
<g>
</g>
<g>
</g>
<g>
</g>
<g>
</g>
<g>
</g>
<g>
</g>
<g>
</g>
</svg>
