<?xml version="1.0" encoding="utf-8"?>
<!-- Generator: Adobe Illustrator 17.1.0, SVG Export Plug-In . SVG Version: 6.00 Build 0)  -->
<!DOCTYPE svg PUBLIC "-//W3C//DTD SVG 1.1//EN" "http://www.w3.org/Graphics/SVG/1.1/DTD/svg11.dtd">
<svg version="1.1" id="Layer_1" xmlns="http://www.w3.org/2000/svg" xmlns:xlink="http://www.w3.org/1999/xlink" x="0px" y="0px"
	 width="240px" height="40px" viewBox="0 0 240 40" enable-background="new 0 0 240 40" xml:space="preserve">
<path fill="none" stroke="#42BDAE" stroke-width="0.9893817" stroke-miterlimit="10" d="M13.241828,19.9883232"/>
<polyline fill="none" stroke="#37B34A" stroke-width="0.7451853" stroke-miterlimit="10" points="1.1495405,13.094594 
	4.7058163,13.094594 7.2280388,17.4632168 4.7058163,21.8318577 1.1495405,21.8318577 "/>
<polyline fill="none" stroke="#37B34A" stroke-width="0.7451853" stroke-miterlimit="10" points="12.5072298,7.8368979 
	8.9509535,7.8368979 6.4287314,12.2055216 8.9509535,16.5741615 12.5072298,16.5741615 "/>
<g>
	<g>
		
			<line fill="none" stroke="#37B34A" stroke-linecap="round" stroke-miterlimit="10" x1="1.4673755" y1="3.1706064" x2="1.4673755" y2="3.1706064"/>
		
			<line fill="none" stroke="#37B34A" stroke-linecap="round" stroke-miterlimit="10" stroke-dasharray="0,1.6851619" x1="3.1525373" y1="3.1706064" x2="3.9951184" y2="3.1706064"/>
		
			<line fill="none" stroke="#37B34A" stroke-linecap="round" stroke-miterlimit="10" x1="4.8376994" y1="3.1706064" x2="4.8376994" y2="3.1706064"/>
		
			<line fill="none" stroke="#37B34A" stroke-linecap="round" stroke-miterlimit="10" stroke-dasharray="0,1.5935614" x1="5.6344795" y1="4.5506716" x2="6.829649" y2="6.620769"/>
		
			<line fill="none" stroke="#37B34A" stroke-linecap="round" stroke-miterlimit="10" x1="7.2280393" y1="7.3108015" x2="7.2280393" y2="7.3108015"/>
		
			<line fill="none" stroke="#37B34A" stroke-linecap="round" stroke-miterlimit="10" stroke-dasharray="0,1.5935658" x1="6.4312592" y1="8.6908722" x2="5.2360897" y2="10.7609777"/>
		
			<line fill="none" stroke="#37B34A" stroke-linecap="round" stroke-miterlimit="10" x1="4.8376994" y1="11.4510126" x2="4.8376994" y2="11.4510126"/>
		
			<line fill="none" stroke="#37B34A" stroke-linecap="round" stroke-miterlimit="10" stroke-dasharray="0,1.6851619" x1="3.1525373" y1="11.4510126" x2="2.3099566" y2="11.4510126"/>
		
			<line fill="none" stroke="#37B34A" stroke-linecap="round" stroke-miterlimit="10" x1="1.4673755" y1="11.4510126" x2="1.4673755" y2="11.4510126"/>
	</g>
</g>
<path fill="none" stroke="#000000" stroke-width="0.5004681" stroke-miterlimit="10" d="M2.7575917,12.770997"/>
<g>
	<path fill="#777777" d="M15.1074219,3.5043945h1.0561523v7.7880859h-1.0561523V3.5043945z"/>
	<path fill="#777777" d="M17.6376953,6.0786133h0.9897461v0.8027344h0.0219727
		c0.125-0.2783203,0.3413086-0.5039062,0.6494141-0.6767578c0.3076172-0.171875,0.6635742-0.2578125,1.0668945-0.2578125
		c0.2490234,0,0.4892578,0.0380859,0.7202148,0.1152344c0.2314453,0.0771484,0.4326172,0.1962891,0.6049805,0.3574219
		s0.3100586,0.3681641,0.4125977,0.6210938c0.1025391,0.2539062,0.1542969,0.5527344,0.1542969,0.8964844v3.3554688h-0.9902344
		V8.2124023c0-0.2421875-0.0327148-0.4492188-0.0991211-0.6210938c-0.065918-0.1728516-0.1538086-0.3115234-0.2636719-0.4179688
		c-0.1103516-0.1064453-0.2368164-0.1835938-0.3793945-0.2314453c-0.1430664-0.0478516-0.2915039-0.0712891-0.4458008-0.0712891
		c-0.2055664,0-0.3959961,0.0332031-0.5717773,0.0986328c-0.1762695,0.0664062-0.3300781,0.1708984-0.4624023,0.3134766
		c-0.1318359,0.1435547-0.234375,0.3251953-0.3076172,0.5449219c-0.0737305,0.2197266-0.1103516,0.4804688-0.1103516,0.78125
		v2.6835938h-0.9897461V6.0786133z"/>
	<path fill="#777777" d="M26.2724609,6.9360352h-1.4189453v2.3652344c0,0.1474609,0.003418,0.2919922,0.0107422,0.4345703
		c0.0073242,0.1435547,0.0351562,0.2714844,0.0825195,0.3847656c0.0478516,0.1142578,0.1210938,0.2060547,0.2202148,0.2753906
		s0.2436523,0.1044922,0.4345703,0.1044922c0.1171875,0,0.2382812-0.0107422,0.362793-0.0332031
		c0.1245117-0.0214844,0.2382812-0.0625,0.3413086-0.1210938v0.9023438
		c-0.1176758,0.0664062-0.2695312,0.1113281-0.456543,0.1376953c-0.1870117,0.0253906-0.3320312,0.0380859-0.4345703,0.0380859
		c-0.3813477,0-0.6767578-0.0527344-0.8857422-0.1591797s-0.362793-0.2441406-0.4619141-0.4130859
		c-0.0991211-0.1679688-0.1577148-0.3574219-0.1757812-0.5664062c-0.0185547-0.2089844-0.027832-0.4189453-0.027832-0.6318359
		V6.9360352h-1.144043V6.0786133h1.144043V4.6157227h0.9902344v1.4628906h1.4189453V6.9360352z"/>
	<path fill="#777777" d="M27.2734375,6.0786133h0.9897461v0.8027344h0.0219727
		c0.0664062-0.1386719,0.1542969-0.265625,0.2641602-0.3789062c0.1098633-0.1142578,0.2329102-0.2109375,0.3686523-0.2919922
		s0.2841797-0.1445312,0.4453125-0.1923828s0.3227539-0.0712891,0.4838867-0.0712891
		c0.1616211,0,0.3081055,0.0214844,0.4404297,0.0654297l-0.0444336,1.0673828
		c-0.0805664-0.0224609-0.1611328-0.0400391-0.2416992-0.0546875c-0.0810547-0.0146484-0.1616211-0.0224609-0.2421875-0.0224609
		c-0.4838867,0-0.8544922,0.1357422-1.1108398,0.4072266c-0.2568359,0.2714844-0.3852539,0.6923828-0.3852539,1.2646484v2.6181641
		h-0.9897461V6.0786133z"/>
	<path fill="#777777" d="M30.9145508,4.2084961c0-0.1982422,0.0712891-0.3681641,0.2143555-0.5117188
		c0.1430664-0.1425781,0.3134766-0.2138672,0.5112305-0.2138672c0.1982422,0,0.3686523,0.0712891,0.5117188,0.2138672
		c0.1430664,0.1435547,0.2143555,0.3134766,0.2143555,0.5117188s-0.0712891,0.3681641-0.2143555,0.5117188
		C32.0087891,4.862793,31.8383789,4.934082,31.6401367,4.934082c-0.1977539,0-0.3681641-0.0712891-0.5112305-0.2138672
		C30.9858398,4.5766602,30.9145508,4.4067383,30.9145508,4.2084961z M31.1455078,6.0786133h0.9897461v5.2138672h-0.9897461
		V6.0786133z"/>
	<path fill="#777777" d="M33.4331055,6.0786133h0.9897461v0.8027344h0.0219727
		c0.125-0.2783203,0.3413086-0.5039062,0.6494141-0.6767578c0.3076172-0.171875,0.6635742-0.2578125,1.0668945-0.2578125
		c0.2490234,0,0.4892578,0.0380859,0.7202148,0.1152344c0.2314453,0.0771484,0.4326172,0.1962891,0.6049805,0.3574219
		s0.3100586,0.3681641,0.4125977,0.6210938c0.1025391,0.2539062,0.1542969,0.5527344,0.1542969,0.8964844v3.3554688h-0.9902344
		V8.2124023c0-0.2421875-0.0327148-0.4492188-0.0991211-0.6210938c-0.065918-0.1728516-0.1538086-0.3115234-0.2636719-0.4179688
		c-0.1103516-0.1064453-0.2368164-0.1835938-0.3793945-0.2314453C36.1777344,6.894043,36.0292969,6.8706055,35.875,6.8706055
		c-0.2055664,0-0.3959961,0.0332031-0.5717773,0.0986328c-0.1762695,0.0664062-0.3300781,0.1708984-0.4624023,0.3134766
		c-0.1318359,0.1435547-0.234375,0.3251953-0.3076172,0.5449219c-0.0737305,0.2197266-0.1103516,0.4804688-0.1103516,0.78125
		v2.6835938h-0.9897461V6.0786133z"/>
	<path fill="#777777" d="M42.0463867,7.387207c-0.1171875-0.1464844-0.262207-0.2695312-0.4345703-0.3681641
		s-0.3833008-0.1484375-0.6323242-0.1484375c-0.2348633,0-0.4384766,0.0498047-0.6108398,0.1484375
		s-0.2583008,0.2441406-0.2583008,0.4345703c0,0.1542969,0.0493164,0.2783203,0.1484375,0.3740234
		s0.2163086,0.171875,0.3520508,0.2304688c0.1357422,0.0595703,0.2807617,0.1035156,0.4345703,0.1328125
		s0.2861328,0.0546875,0.3959961,0.0761719c0.2124023,0.0517578,0.4125977,0.1142578,0.5996094,0.1875
		s0.3481445,0.1689453,0.4838867,0.2861328s0.2421875,0.2597656,0.3188477,0.4287109
		c0.0771484,0.1689453,0.1157227,0.3740234,0.1157227,0.6162109c0,0.2929688-0.0625,0.5439453-0.1870117,0.7529297
		c-0.125,0.2089844-0.2861328,0.3798828-0.4838867,0.5117188c-0.1982422,0.1318359-0.4238281,0.2275391-0.6767578,0.2861328
		s-0.5078125,0.0878906-0.7646484,0.0878906c-0.4326172,0-0.8120117-0.0654297-1.1381836-0.1982422
		c-0.3266602-0.1318359-0.6181641-0.3740234-0.8745117-0.7255859l0.7480469-0.6162109
		c0.1611328,0.1611328,0.3408203,0.3046875,0.5390625,0.4296875c0.1977539,0.1240234,0.4399414,0.1865234,0.7255859,0.1865234
		c0.125,0,0.2514648-0.0126953,0.3798828-0.0380859c0.1279297-0.0263672,0.2416992-0.0664062,0.3408203-0.1210938
		c0.0991211-0.0556641,0.1796875-0.125,0.2421875-0.2089844c0.0620117-0.0849609,0.0932617-0.1816406,0.0932617-0.2919922
		c0-0.1464844-0.0458984-0.2675781-0.1376953-0.3632812c-0.0913086-0.0947266-0.2016602-0.1699219-0.3295898-0.2246094
		c-0.128418-0.0556641-0.2641602-0.0996094-0.4072266-0.1328125c-0.1430664-0.0322266-0.2695312-0.0605469-0.3793945-0.0820312
		c-0.2128906-0.0517578-0.4145508-0.1103516-0.6049805-0.1757812c-0.190918-0.0664062-0.359375-0.1542969-0.5058594-0.2646484
		c-0.1469727-0.109375-0.2641602-0.2490234-0.3520508-0.4179688c-0.0883789-0.1679688-0.1323242-0.3769531-0.1323242-0.6269531
		c0-0.2705078,0.0571289-0.5078125,0.1708984-0.7089844c0.1132812-0.2021484,0.2636719-0.3691406,0.4506836-0.5009766
		s0.3999023-0.2304688,0.6381836-0.296875s0.4785156-0.0986328,0.7202148-0.0986328
		c0.3520508,0,0.6894531,0.0654297,1.012207,0.1972656c0.3227539,0.1328125,0.5791016,0.3525391,0.7700195,0.6601562
		L42.0463867,7.387207z"/>
	<path fill="#777777" d="M43.7294922,4.2084961c0-0.1982422,0.0712891-0.3681641,0.2143555-0.5117188
		c0.1430664-0.1425781,0.3134766-0.2138672,0.5112305-0.2138672c0.1982422,0,0.3686523,0.0712891,0.5117188,0.2138672
		c0.1430664,0.1435547,0.2143555,0.3134766,0.2143555,0.5117188s-0.0712891,0.3681641-0.2143555,0.5117188
		C44.8237305,4.862793,44.6533203,4.934082,44.4550781,4.934082c-0.1977539,0-0.3681641-0.0712891-0.5112305-0.2138672
		C43.8007812,4.5766602,43.7294922,4.4067383,43.7294922,4.2084961z M43.9604492,6.0786133h0.9897461v5.2138672h-0.9897461
		V6.0786133z"/>
	<path fill="#777777" d="M49.9770508,7.4643555c-0.1835938-0.1904297-0.3759766-0.3349609-0.5776367-0.4345703
		c-0.2016602-0.0986328-0.4418945-0.1484375-0.7202148-0.1484375c-0.2714844,0-0.5083008,0.0498047-0.7094727,0.1484375
		c-0.2021484,0.0996094-0.3706055,0.2353516-0.5063477,0.4072266s-0.2382812,0.3701172-0.3081055,0.59375
		c-0.0693359,0.2236328-0.1044922,0.4570312-0.1044922,0.6982422c0,0.2421875,0.0405273,0.4716797,0.1210938,0.6875
		c0.0805664,0.2167969,0.1943359,0.4052734,0.3413086,0.5673828c0.1464844,0.1611328,0.3222656,0.2871094,0.527832,0.3789062
		c0.2050781,0.0917969,0.4360352,0.1376953,0.6928711,0.1376953c0.2788086,0,0.5170898-0.0498047,0.715332-0.1484375
		c0.1977539-0.0986328,0.3808594-0.2441406,0.5498047-0.4345703l0.7041016,0.7041016
		c-0.2568359,0.2861328-0.5556641,0.4912109-0.8964844,0.6162109c-0.3413086,0.1240234-0.7026367,0.1865234-1.0834961,0.1865234
		c-0.4033203,0-0.7719727-0.0654297-1.1054688-0.1982422c-0.3339844-0.1318359-0.621582-0.3164062-0.8637695-0.5546875
		c-0.2416992-0.2382812-0.4287109-0.5244141-0.5610352-0.8583984c-0.1318359-0.3339844-0.1977539-0.7021484-0.1977539-1.1054688
		s0.065918-0.7734375,0.1977539-1.1113281c0.1323242-0.3369141,0.3173828-0.6269531,0.5556641-0.8691406
		c0.2382812-0.2412109,0.5244141-0.4306641,0.8579102-0.5664062s0.7055664-0.203125,1.1166992-0.203125
		c0.3808594,0,0.7460938,0.0673828,1.0942383,0.203125s0.6508789,0.3427734,0.9077148,0.6220703L49.9770508,7.4643555z"/>
	<path fill="#777777" d="M51.296875,6.7163086c0.2788086-0.2568359,0.6010742-0.4492188,0.9677734-0.5771484
		s0.7333984-0.1923828,1.1000977-0.1923828c0.3813477,0,0.7094727,0.0478516,0.984375,0.1425781
		c0.2753906,0.0957031,0.5009766,0.2236328,0.6767578,0.3847656c0.1757812,0.1621094,0.3061523,0.3466797,0.390625,0.5556641
		c0.0839844,0.2089844,0.1264648,0.4277344,0.1264648,0.6542969v2.6621094c0,0.1835938,0.003418,0.3525391,0.0107422,0.5058594
		c0.0073242,0.1542969,0.0185547,0.3007812,0.0332031,0.4404297h-0.8798828
		c-0.0219727-0.2636719-0.0332031-0.5283203-0.0332031-0.7919922h-0.0219727
		c-0.2202148,0.3369141-0.4804688,0.5761719-0.7807617,0.7148438c-0.3007812,0.1396484-0.6494141,0.2089844-1.0454102,0.2089844
		c-0.2416992,0-0.4726562-0.0332031-0.6928711-0.0986328c-0.2197266-0.0664062-0.4125977-0.1650391-0.5776367-0.296875
		c-0.1650391-0.1328125-0.2949219-0.2958984-0.3901367-0.4902344c-0.0957031-0.1933594-0.1430664-0.4189453-0.1430664-0.6757812
		c0-0.3378906,0.0751953-0.6201172,0.2255859-0.8476562c0.1499023-0.2265625,0.3554688-0.4121094,0.6157227-0.5546875
		c0.2602539-0.1435547,0.5644531-0.2460938,0.9130859-0.3085938c0.3481445-0.0625,0.7207031-0.09375,1.1166992-0.09375h0.7255859
		V7.8383789c0-0.1318359-0.0253906-0.2636719-0.0766602-0.3955078c-0.0517578-0.1328125-0.128418-0.2519531-0.230957-0.3574219
		c-0.1030273-0.1064453-0.230957-0.1914062-0.3852539-0.2539062c-0.1538086-0.0615234-0.3374023-0.0927734-0.5498047-0.0927734
		c-0.190918,0-0.3574219,0.0185547-0.5004883,0.0546875c-0.1430664,0.0371094-0.2734375,0.0830078-0.390625,0.1376953
		s-0.2236328,0.1191406-0.3188477,0.1923828c-0.0957031,0.0732422-0.1870117,0.1425781-0.2753906,0.2089844L51.296875,6.7163086z
		 M54.0908203,8.784668c-0.2348633,0-0.4750977,0.0126953-0.7207031,0.0380859
		c-0.2456055,0.0263672-0.4692383,0.0751953-0.6708984,0.1484375s-0.3666992,0.1767578-0.4946289,0.3085938
		c-0.128418,0.1318359-0.1928711,0.3007812-0.1928711,0.5058594c0,0.3007812,0.1010742,0.5166016,0.3027344,0.6484375
		c0.2016602,0.1328125,0.4746094,0.1982422,0.8193359,0.1982422c0.2714844,0,0.5024414-0.0458984,0.6928711-0.1376953
		c0.190918-0.0908203,0.3447266-0.2099609,0.4624023-0.3574219c0.1171875-0.1464844,0.2011719-0.3095703,0.2529297-0.4892578
		c0.0512695-0.1796875,0.0766602-0.3574219,0.0766602-0.5332031V8.784668H54.0908203z"/>
	<path fill="#777777" d="M56.7861328,2.9760742h0.9897461v8.3164062h-0.9897461V2.9760742z"/>
	<path fill="#777777" d="M59.1508789,2.9760742h0.9897461v8.3164062h-0.9897461V2.9760742z"/>
	<path fill="#777777" d="M60.8222656,6.0786133h1.144043l1.5439453,4.0703125h0.0224609l1.480957-4.0703125h1.0556641
		l-2.4750977,6.3359375c-0.0874023,0.2275391-0.1787109,0.4345703-0.2739258,0.6210938
		c-0.0947266,0.1875-0.2080078,0.3466797-0.3393555,0.4785156s-0.2900391,0.2353516-0.4765625,0.3085938
		s-0.4145508,0.109375-0.6845703,0.109375c-0.1459961,0-0.2939453-0.0087891-0.4438477-0.0273438
		c-0.1494141-0.0185547-0.2939453-0.0566406-0.4326172-0.1152344l0.1206055-0.9023438
		c0.1962891,0.0810547,0.3930664,0.1210938,0.5898438,0.1210938c0.1533203,0,0.2822266-0.0205078,0.3881836-0.0605469
		c0.1054688-0.0400391,0.1962891-0.0986328,0.2729492-0.1757812s0.140625-0.1669922,0.1914062-0.2695312
		s0.1020508-0.2197266,0.1533203-0.3515625l0.3203125-0.8251953L60.8222656,6.0786133z"/>
	<path fill="#777777" d="M69.5239258,3.5043945h2.7167969c0.5498047,0,1.0322266,0.0625,1.4462891,0.1875
		c0.4145508,0.1240234,0.7739258,0.2910156,1.078125,0.5s0.5571289,0.4492188,0.7592773,0.7207031
		c0.2016602,0.2714844,0.3608398,0.5498047,0.4785156,0.8359375c0.1171875,0.2861328,0.2011719,0.5722656,0.2529297,0.8583984
		c0.0512695,0.2851562,0.0766602,0.5498047,0.0766602,0.7919922c0,0.4980469-0.0917969,0.9804688-0.2749023,1.4462891
		s-0.4545898,0.8798828-0.8139648,1.2431641c-0.359375,0.3623047-0.8046875,0.6542969-1.3364258,0.8740234
		s-1.1459961,0.3300781-1.8422852,0.3300781h-2.5410156V3.5043945z M70.5795898,10.3022461h1.3310547
		c0.4472656,0,0.8706055-0.0605469,1.2705078-0.1816406s0.75-0.3017578,1.0507812-0.5439453
		c0.300293-0.2421875,0.5385742-0.5449219,0.7148438-0.9072266c0.1757812-0.3632812,0.2641602-0.7871094,0.2641602-1.2705078
		c0-0.25-0.0405273-0.5410156-0.1210938-0.875c-0.0810547-0.3339844-0.2329102-0.6503906-0.456543-0.9511719
		s-0.5336914-0.5556641-0.9296875-0.7646484s-0.9091797-0.3134766-1.5400391-0.3134766h-1.5839844V10.3022461z"/>
	<path fill="#777777" d="M77.1689453,4.2084961c0-0.1982422,0.0712891-0.3681641,0.2143555-0.5117188
		c0.1430664-0.1425781,0.3134766-0.2138672,0.5112305-0.2138672c0.1982422,0,0.3686523,0.0712891,0.5117188,0.2138672
		c0.1430664,0.1435547,0.2143555,0.3134766,0.2143555,0.5117188S78.5493164,4.5766602,78.40625,4.7202148
		C78.2631836,4.862793,78.0927734,4.934082,77.8945312,4.934082c-0.1977539,0-0.3681641-0.0712891-0.5112305-0.2138672
		C77.2402344,4.5766602,77.1689453,4.4067383,77.1689453,4.2084961z M77.3999023,6.0786133h0.9897461v5.2138672h-0.9897461
		V6.0786133z"/>
	<path fill="#777777" d="M82.4594727,7.387207c-0.1171875-0.1464844-0.262207-0.2695312-0.4345703-0.3681641
		s-0.3833008-0.1484375-0.6323242-0.1484375c-0.2348633,0-0.4384766,0.0498047-0.6108398,0.1484375
		s-0.2583008,0.2441406-0.2583008,0.4345703c0,0.1542969,0.0493164,0.2783203,0.1484375,0.3740234
		s0.2163086,0.171875,0.3520508,0.2304688c0.1357422,0.0595703,0.2807617,0.1035156,0.4345703,0.1328125
		s0.2861328,0.0546875,0.3959961,0.0761719c0.2124023,0.0517578,0.4125977,0.1142578,0.5996094,0.1875
		C82.640625,8.527832,82.8027344,8.6235352,82.9375,8.7407227c0.1357422,0.1171875,0.2421875,0.2597656,0.3193359,0.4287109
		s0.1152344,0.3740234,0.1152344,0.6162109c0,0.2929688-0.0615234,0.5439453-0.1865234,0.7529297
		s-0.2861328,0.3798828-0.484375,0.5117188c-0.1977539,0.1318359-0.4233398,0.2275391-0.6762695,0.2861328
		s-0.5078125,0.0878906-0.7646484,0.0878906c-0.4326172,0-0.8120117-0.0654297-1.1381836-0.1982422
		c-0.3266602-0.1318359-0.6181641-0.3740234-0.8745117-0.7255859l0.7480469-0.6162109
		c0.1611328,0.1611328,0.3408203,0.3046875,0.5390625,0.4296875c0.1977539,0.1240234,0.4399414,0.1865234,0.7255859,0.1865234
		c0.125,0,0.2514648-0.0126953,0.3798828-0.0380859c0.1279297-0.0263672,0.2416992-0.0664062,0.3408203-0.1210938
		c0.0991211-0.0556641,0.1796875-0.125,0.2421875-0.2089844c0.0620117-0.0849609,0.0932617-0.1816406,0.0932617-0.2919922
		c0-0.1464844-0.0458984-0.2675781-0.1376953-0.3632812c-0.0913086-0.0947266-0.2016602-0.1699219-0.3295898-0.2246094
		c-0.128418-0.0556641-0.2641602-0.0996094-0.4072266-0.1328125C81.2988281,9.0874023,81.1723633,9.059082,81.0625,9.0375977
		c-0.2128906-0.0517578-0.4145508-0.1103516-0.6049805-0.1757812c-0.190918-0.0664062-0.359375-0.1542969-0.5058594-0.2646484
		C79.8046875,8.487793,79.6875,8.3481445,79.5996094,8.1791992c-0.0883789-0.1679688-0.1323242-0.3769531-0.1323242-0.6269531
		c0-0.2705078,0.0571289-0.5078125,0.1708984-0.7089844c0.1132812-0.2021484,0.2636719-0.3691406,0.4506836-0.5009766
		s0.3999023-0.2304688,0.6381836-0.296875s0.4785156-0.0986328,0.7202148-0.0986328
		c0.3520508,0,0.6894531,0.0654297,1.012207,0.1972656c0.3227539,0.1328125,0.5795898,0.3525391,0.7700195,0.6601562
		L82.4594727,7.387207z"/>
	<path fill="#777777" d="M84.0439453,8.6850586c0-0.3808594,0.0712891-0.7363281,0.2148438-1.0664062
		c0.1425781-0.3300781,0.3388672-0.6201172,0.5878906-0.8691406s0.5429688-0.4453125,0.8798828-0.5888672
		c0.3378906-0.1425781,0.7001953-0.2138672,1.0888672-0.2138672s0.7519531,0.0712891,1.0898438,0.2138672
		c0.3369141,0.1435547,0.6298828,0.3398438,0.8798828,0.5888672c0.2490234,0.2490234,0.4453125,0.5390625,0.5878906,0.8691406
		c0.1435547,0.3300781,0.2148438,0.6855469,0.2148438,1.0664062c0,0.3818359-0.0712891,0.7392578-0.2148438,1.0732422
		c-0.1425781,0.3330078-0.3388672,0.6230469-0.5878906,0.8691406c-0.25,0.2451172-0.5429688,0.4394531-0.8798828,0.5830078
		c-0.3378906,0.1425781-0.7011719,0.2138672-1.0898438,0.2138672s-0.7509766-0.0712891-1.0888672-0.2138672
		c-0.3369141-0.1435547-0.6308594-0.3378906-0.8798828-0.5830078c-0.2490234-0.2460938-0.4453125-0.5361328-0.5878906-0.8691406
		C84.1152344,9.4243164,84.0439453,9.0668945,84.0439453,8.6850586z M85.0996094,8.6850586
		c0,0.2646484,0.0400391,0.5087891,0.1210938,0.7314453c0.0810547,0.2246094,0.1943359,0.4150391,0.3408203,0.5722656
		c0.1464844,0.1582031,0.3261719,0.2822266,0.5390625,0.3740234s0.4511719,0.1376953,0.7148438,0.1376953
		c0.2646484,0,0.5029297-0.0458984,0.7158203-0.1376953c0.2119141-0.0917969,0.3916016-0.2158203,0.5390625-0.3740234
		c0.1464844-0.1572266,0.2597656-0.3476562,0.3408203-0.5722656c0.0800781-0.2226562,0.1210938-0.4667969,0.1210938-0.7314453
		c0-0.2636719-0.0410156-0.5068359-0.1210938-0.7314453c-0.0810547-0.2236328-0.1943359-0.4140625-0.3408203-0.5712891
		c-0.1474609-0.1582031-0.3271484-0.2822266-0.5390625-0.3740234c-0.2128906-0.0917969-0.4511719-0.1376953-0.7158203-0.1376953
		c-0.2636719,0-0.5019531,0.0458984-0.7148438,0.1376953s-0.3925781,0.2158203-0.5390625,0.3740234
		c-0.1464844,0.1572266-0.2597656,0.3476562-0.3408203,0.5712891C85.1396484,8.1782227,85.0996094,8.4213867,85.0996094,8.6850586z"
		/>
	<path fill="#777777" d="M90.5556641,6.0786133h0.9902344v0.8027344h0.0214844
		c0.0664062-0.1386719,0.1542969-0.265625,0.2646484-0.3789062c0.109375-0.1142578,0.2324219-0.2109375,0.3681641-0.2919922
		s0.2841797-0.1445312,0.4453125-0.1923828s0.3222656-0.0712891,0.484375-0.0712891
		c0.1611328,0,0.3076172,0.0214844,0.4394531,0.0654297l-0.0439453,1.0673828
		c-0.0800781-0.0224609-0.1611328-0.0400391-0.2421875-0.0546875c-0.0800781-0.0146484-0.1611328-0.0224609-0.2412109-0.0224609
		c-0.484375,0-0.8544922,0.1357422-1.1113281,0.4072266s-0.3847656,0.6923828-0.3847656,1.2646484v2.6181641h-0.9902344V6.0786133z"
		/>
	<path fill="#777777" d="M99.3769531,11.2924805h-0.9892578v-0.7480469h-0.0224609
		c-0.1904297,0.2792969-0.453125,0.4951172-0.7861328,0.6494141c-0.3339844,0.1533203-0.6767578,0.2304688-1.0283203,0.2304688
		c-0.4042969,0-0.7685547-0.0693359-1.0947266-0.2089844c-0.3261719-0.1386719-0.6054688-0.3330078-0.8359375-0.5830078
		c-0.2314453-0.2490234-0.4091797-0.5390625-0.5341797-0.8691406c-0.1240234-0.3300781-0.1865234-0.6884766-0.1865234-1.078125
		c0-0.3886719,0.0625-0.7490234,0.1865234-1.0830078c0.125-0.3339844,0.3027344-0.6230469,0.5341797-0.8691406
		c0.2304688-0.2451172,0.5097656-0.4384766,0.8359375-0.5771484c0.3261719-0.1396484,0.6904297-0.2089844,1.0947266-0.2089844
		c0.3730469,0,0.7255859,0.078125,1.0556641,0.2363281c0.3300781,0.1572266,0.5830078,0.3720703,0.7587891,0.6435547h0.0224609
		V2.9760742h0.9892578V11.2924805z M96.6708984,10.5004883c0.2646484,0,0.5029297-0.0458984,0.7158203-0.1376953
		c0.2119141-0.0917969,0.3916016-0.2158203,0.5390625-0.3740234c0.1464844-0.1572266,0.2597656-0.3476562,0.3408203-0.5722656
		c0.0800781-0.2226562,0.1210938-0.4667969,0.1210938-0.7314453c0-0.2636719-0.0410156-0.5068359-0.1210938-0.7314453
		c-0.0810547-0.2236328-0.1943359-0.4140625-0.3408203-0.5712891c-0.1474609-0.1582031-0.3271484-0.2822266-0.5390625-0.3740234
		c-0.2128906-0.0917969-0.4511719-0.1376953-0.7158203-0.1376953c-0.2636719,0-0.5019531,0.0458984-0.7148438,0.1376953
		s-0.3925781,0.2158203-0.5390625,0.3740234c-0.1464844,0.1572266-0.2597656,0.3476562-0.3408203,0.5712891
		c-0.0810547,0.2246094-0.1210938,0.4677734-0.1210938,0.7314453c0,0.2646484,0.0400391,0.5087891,0.1210938,0.7314453
		c0.0810547,0.2246094,0.1943359,0.4150391,0.3408203,0.5722656c0.1464844,0.1582031,0.3261719,0.2822266,0.5390625,0.3740234
		S96.4072266,10.5004883,96.6708984,10.5004883z"/>
	<path fill="#777777" d="M101.3466797,9.0483398c0,0.2275391,0.0498047,0.4345703,0.1484375,0.6220703
		c0.0986328,0.1865234,0.2294922,0.3457031,0.390625,0.4785156c0.1611328,0.1318359,0.3476562,0.234375,0.5605469,0.3076172
		s0.4326172,0.1103516,0.6601562,0.1103516c0.3085938,0,0.5761719-0.0722656,0.8027344-0.2148438
		c0.2275391-0.1435547,0.4365234-0.3320312,0.6269531-0.5664062l0.7480469,0.5722656
		c-0.5498047,0.7109375-1.3193359,1.0664062-2.3095703,1.0664062c-0.4111328,0-0.7832031-0.0693359-1.1162109-0.2089844
		c-0.3339844-0.1386719-0.6162109-0.3320312-0.8476562-0.5771484c-0.2304688-0.2460938-0.4082031-0.5351562-0.5332031-0.8691406
		s-0.1865234-0.6943359-0.1865234-1.0839844c0-0.3886719,0.0673828-0.7490234,0.203125-1.0830078
		s0.3222656-0.6230469,0.5605469-0.8691406c0.2382812-0.2451172,0.5224609-0.4384766,0.8525391-0.5771484
		c0.3300781-0.1396484,0.6894531-0.2089844,1.078125-0.2089844c0.4619141,0,0.8525391,0.0800781,1.171875,0.2421875
		c0.3193359,0.1611328,0.5810547,0.3720703,0.7861328,0.6318359c0.2050781,0.2607422,0.3535156,0.5537109,0.4453125,0.8798828
		c0.0917969,0.3271484,0.1376953,0.6582031,0.1376953,0.9960938v0.3515625H101.3466797z M104.4707031,8.2563477
		c-0.0078125-0.2197266-0.0419922-0.421875-0.1044922-0.6044922c-0.0625-0.1835938-0.15625-0.3427734-0.2802734-0.4785156
		c-0.125-0.1357422-0.28125-0.2421875-0.4677734-0.3193359c-0.1875-0.0771484-0.4052734-0.1152344-0.6542969-0.1152344
		c-0.2421875,0-0.4638672,0.0458984-0.6660156,0.1376953c-0.2011719,0.0908203-0.3720703,0.2099609-0.5117188,0.3574219
		c-0.1386719,0.1464844-0.2470703,0.3095703-0.3242188,0.4892578s-0.1152344,0.3574219-0.1152344,0.5332031H104.4707031z"/>
	<path fill="#777777" d="M106.4394531,6.0786133h0.9902344v0.8027344h0.0214844
		c0.0664062-0.1386719,0.1542969-0.265625,0.2646484-0.3789062c0.109375-0.1142578,0.2324219-0.2109375,0.3681641-0.2919922
		s0.2841797-0.1445312,0.4453125-0.1923828s0.3222656-0.0712891,0.484375-0.0712891
		c0.1611328,0,0.3076172,0.0214844,0.4394531,0.0654297l-0.0439453,1.0673828
		c-0.0800781-0.0224609-0.1611328-0.0400391-0.2421875-0.0546875c-0.0800781-0.0146484-0.1611328-0.0224609-0.2412109-0.0224609
		c-0.484375,0-0.8544922,0.1357422-1.1113281,0.4072266s-0.3847656,0.6923828-0.3847656,1.2646484v2.6181641h-0.9902344V6.0786133z"
		/>
	<path fill="#777777" d="M15.1074219,14.0043945h2.7392578c0.4985352,0,0.9091797,0.0683594,1.2319336,0.203125
		c0.3222656,0.1367188,0.5771484,0.3085938,0.7641602,0.5175781s0.3173828,0.4433594,0.390625,0.7041016
		c0.0732422,0.2597656,0.1098633,0.5117188,0.1098633,0.7529297c0,0.2421875-0.0366211,0.4931641-0.1098633,0.7539062
		s-0.2036133,0.4951172-0.390625,0.7041016s-0.4418945,0.3808594-0.7641602,0.5166016
		c-0.3227539,0.1357422-0.7333984,0.2041016-1.2319336,0.2041016h-1.6831055v3.4311523h-1.0561523V14.0043945z
		 M16.1635742,17.4360352h1.3857422c0.2055664,0,0.4086914-0.015625,0.6108398-0.0488281
		c0.2011719-0.0332031,0.3808594-0.09375,0.5385742-0.1816406s0.2841797-0.2148438,0.3798828-0.3798828
		c0.0952148-0.1650391,0.1430664-0.3789062,0.1430664-0.6435547c0-0.2636719-0.0478516-0.4785156-0.1430664-0.6435547
		c-0.0957031-0.1650391-0.222168-0.2910156-0.3798828-0.3789062s-0.3374023-0.1484375-0.5385742-0.1816406
		c-0.2021484-0.0332031-0.4052734-0.0498047-0.6108398-0.0498047h-1.3857422V17.4360352z"/>
	<path fill="#777777" d="M20.6621094,16.5786133h0.9897461v0.8027344h0.0219727
		c0.0664062-0.1386719,0.1542969-0.265625,0.2641602-0.3789062c0.1098633-0.1142578,0.2329102-0.2109375,0.3686523-0.2919922
		s0.2841797-0.1445312,0.4453125-0.1923828s0.3227539-0.0712891,0.4838867-0.0712891
		c0.1616211,0,0.3081055,0.0214844,0.4404297,0.0654297l-0.0444336,1.0673828
		c-0.0805664-0.0224609-0.1611328-0.0400391-0.2416992-0.0546875c-0.0810547-0.0146484-0.1616211-0.0224609-0.2421875-0.0224609
		c-0.4838867,0-0.8544922,0.1357422-1.1108398,0.4072266c-0.2568359,0.2714844-0.3852539,0.6923828-0.3852539,1.2646484v2.6176758
		h-0.9897461V16.5786133z"/>
	<path fill="#777777" d="M23.8305664,19.1850586c0-0.3808594,0.0712891-0.7363281,0.2143555-1.0664062
		s0.3393555-0.6201172,0.5883789-0.8691406c0.2495117-0.2490234,0.5429688-0.4453125,0.8803711-0.5888672
		c0.3369141-0.1425781,0.7001953-0.2138672,1.0888672-0.2138672s0.7514648,0.0712891,1.0888672,0.2138672
		c0.3374023,0.1435547,0.6308594,0.3398438,0.8798828,0.5888672c0.2495117,0.2490234,0.4458008,0.5390625,0.5888672,0.8691406
		c0.1425781,0.3300781,0.2143555,0.6855469,0.2143555,1.0664062c0,0.3818359-0.0717773,0.7392578-0.2143555,1.0732422
		c-0.1430664,0.3330078-0.3393555,0.6230469-0.5888672,0.8686523c-0.2490234,0.2451172-0.5424805,0.4394531-0.8798828,0.5830078
		c-0.3374023,0.1425781-0.7001953,0.2138672-1.0888672,0.2138672s-0.7519531-0.0712891-1.0888672-0.2138672
		c-0.3374023-0.1435547-0.6308594-0.3378906-0.8803711-0.5830078c-0.2490234-0.2456055-0.4453125-0.5356445-0.5883789-0.8686523
		C23.9018555,19.9243164,23.8305664,19.5668945,23.8305664,19.1850586z M24.8862305,19.1850586
		c0,0.2646484,0.0405273,0.5087891,0.1210938,0.7314453c0.0805664,0.2246094,0.1943359,0.4150391,0.3413086,0.5722656
		c0.1464844,0.1582031,0.3261719,0.2822266,0.5385742,0.3740234C26.1000977,20.9545898,26.3383789,21,26.6025391,21
		c0.2636719,0,0.5019531-0.0454102,0.7148438-0.137207s0.3920898-0.2158203,0.5390625-0.3740234
		c0.1464844-0.1572266,0.2602539-0.3476562,0.3408203-0.5722656c0.0805664-0.2226562,0.1210938-0.4667969,0.1210938-0.7314453
		c0-0.2636719-0.0405273-0.5068359-0.1210938-0.7314453c-0.0805664-0.2236328-0.1943359-0.4140625-0.3408203-0.5712891
		c-0.1469727-0.1582031-0.3261719-0.2822266-0.5390625-0.3740234s-0.4511719-0.1376953-0.7148438-0.1376953
		c-0.2641602,0-0.5024414,0.0458984-0.715332,0.1376953c-0.2124023,0.0917969-0.3920898,0.2158203-0.5385742,0.3740234
		c-0.1469727,0.1572266-0.2607422,0.3476562-0.3413086,0.5712891
		C24.9267578,18.6782227,24.8862305,18.9213867,24.8862305,19.1850586z"/>
	<path fill="#777777" d="M32.828125,17.4360352h-1.4189453v2.3652344c0,0.1474609,0.003418,0.2919922,0.0107422,0.4345703
		c0.0073242,0.1435547,0.0351562,0.2714844,0.0825195,0.3847656c0.0478516,0.1142578,0.1210938,0.2060547,0.2202148,0.2753906
		S31.9663086,21,32.1572266,21c0.1171875,0,0.2382812-0.0102539,0.362793-0.0327148
		c0.1245117-0.0214844,0.2382812-0.0625,0.3413086-0.1210938v0.9018555
		c-0.1176758,0.0664062-0.2695312,0.1113281-0.456543,0.1376953c-0.1870117,0.0253906-0.3320312,0.0380859-0.4345703,0.0380859
		c-0.3813477,0-0.6767578-0.0527344-0.8857422-0.1591797s-0.362793-0.2441406-0.4619141-0.4130859
		c-0.0991211-0.1679688-0.1577148-0.3569336-0.1757812-0.565918c-0.0185547-0.2089844-0.027832-0.4189453-0.027832-0.6318359
		v-2.7177734h-1.144043v-0.8574219h1.144043v-1.4628906h0.9902344v1.4628906h1.4189453V17.4360352z"/>
	<path fill="#777777" d="M34.203125,19.5483398c0,0.2275391,0.0493164,0.4345703,0.1484375,0.6220703
		c0.0991211,0.1865234,0.2290039,0.3457031,0.390625,0.4785156c0.1611328,0.1318359,0.3481445,0.234375,0.5610352,0.3076172
		c0.2124023,0.0727539,0.4326172,0.1098633,0.659668,0.1098633c0.3081055,0,0.5756836-0.0717773,0.8032227-0.2143555
		c0.2270508-0.1435547,0.4360352-0.3320312,0.6269531-0.5664062l0.7480469,0.5722656
		c-0.550293,0.7104492-1.3203125,1.065918-2.3100586,1.065918c-0.4106445,0-0.7827148-0.0693359-1.1166992-0.2089844
		c-0.3334961-0.1386719-0.6157227-0.3320312-0.8466797-0.5771484c-0.230957-0.2456055-0.4091797-0.534668-0.5336914-0.8686523
		s-0.1870117-0.6943359-0.1870117-1.0839844c0-0.3886719,0.0678711-0.7490234,0.2036133-1.0830078
		s0.3227539-0.6230469,0.5610352-0.8691406c0.2382812-0.2451172,0.5224609-0.4384766,0.8525391-0.5771484
		c0.3300781-0.1396484,0.6889648-0.2089844,1.0776367-0.2089844c0.4624023,0,0.8525391,0.0800781,1.171875,0.2421875
		c0.3188477,0.1611328,0.5810547,0.3720703,0.7861328,0.6318359c0.2055664,0.2607422,0.3540039,0.5537109,0.4458008,0.8798828
		c0.0913086,0.3271484,0.137207,0.6582031,0.137207,0.9960938v0.3515625H34.203125z M37.3271484,18.7563477
		c-0.0073242-0.2197266-0.0424805-0.421875-0.1044922-0.6044922c-0.0625-0.1835938-0.15625-0.3427734-0.2807617-0.4785156
		s-0.2802734-0.2421875-0.4672852-0.3193359s-0.4052734-0.1152344-0.6547852-0.1152344
		c-0.2416992,0-0.4638672,0.0458984-0.6655273,0.1376953c-0.2016602,0.0908203-0.3720703,0.2099609-0.5112305,0.3574219
		c-0.1396484,0.1464844-0.2475586,0.3095703-0.324707,0.4892578c-0.0766602,0.1796875-0.1152344,0.3574219-0.1152344,0.5332031
		H37.3271484z"/>
	<path fill="#777777" d="M39.1425781,14.7084961c0-0.1982422,0.0712891-0.3681641,0.2143555-0.5117188
		c0.1430664-0.1425781,0.3134766-0.2138672,0.5112305-0.2138672c0.1982422,0,0.3686523,0.0712891,0.5117188,0.2138672
		c0.1430664,0.1435547,0.2143555,0.3134766,0.2143555,0.5117188s-0.0712891,0.3681641-0.2143555,0.5117188
		c-0.1430664,0.1425781-0.3134766,0.2138672-0.5117188,0.2138672c-0.1977539,0-0.3681641-0.0712891-0.5112305-0.2138672
		C39.2138672,15.0766602,39.1425781,14.9067383,39.1425781,14.7084961z M39.3735352,16.5786133h0.9897461v5.2133789h-0.9897461
		V16.5786133z"/>
	<path fill="#777777" d="M41.6611328,16.5786133h0.9897461v0.8027344h0.0219727
		c0.125-0.2783203,0.3413086-0.5039062,0.6494141-0.6767578c0.3076172-0.171875,0.6635742-0.2578125,1.0668945-0.2578125
		c0.2490234,0,0.4892578,0.0380859,0.7202148,0.1152344c0.2314453,0.0771484,0.4326172,0.1962891,0.6049805,0.3574219
		s0.3100586,0.3681641,0.4125977,0.6210938c0.1025391,0.2539062,0.1542969,0.5527344,0.1542969,0.8964844v3.3549805h-0.9902344
		v-3.0795898c0-0.2421875-0.0327148-0.4492188-0.0991211-0.6210938c-0.065918-0.1728516-0.1538086-0.3115234-0.2636719-0.4179688
		c-0.1103516-0.1064453-0.2368164-0.1835938-0.3793945-0.2314453c-0.1430664-0.0478516-0.2915039-0.0712891-0.4458008-0.0712891
		c-0.2055664,0-0.3959961,0.0332031-0.5717773,0.0986328c-0.1762695,0.0664062-0.3300781,0.1708984-0.4624023,0.3134766
		c-0.1318359,0.1435547-0.234375,0.3251953-0.3076172,0.5449219c-0.0737305,0.2197266-0.1103516,0.4804688-0.1103516,0.78125
		v2.6831055h-0.9897461V16.5786133z"/>
	<path fill="#777777" d="M50.2739258,17.887207c-0.1171875-0.1464844-0.262207-0.2695312-0.4345703-0.3681641
		s-0.3833008-0.1484375-0.6323242-0.1484375c-0.2348633,0-0.4384766,0.0498047-0.6108398,0.1484375
		s-0.2583008,0.2441406-0.2583008,0.4345703c0,0.1542969,0.0493164,0.2783203,0.1484375,0.3740234
		s0.2163086,0.171875,0.3520508,0.2304688c0.1357422,0.0595703,0.2807617,0.1035156,0.4345703,0.1328125
		s0.2861328,0.0546875,0.3959961,0.0761719c0.2124023,0.0517578,0.4125977,0.1142578,0.5996094,0.1875
		s0.3481445,0.1689453,0.4838867,0.2861328s0.2421875,0.2597656,0.3188477,0.4287109
		c0.0771484,0.1689453,0.1157227,0.3740234,0.1157227,0.6162109c0,0.2929688-0.0625,0.5439453-0.1870117,0.7524414
		c-0.125,0.2089844-0.2861328,0.3798828-0.4838867,0.5117188c-0.1982422,0.1318359-0.4238281,0.2275391-0.6767578,0.2861328
		s-0.5078125,0.0878906-0.7646484,0.0878906c-0.4326172,0-0.8120117-0.0654297-1.1381836-0.1982422
		C47.6098633,21.59375,47.3183594,21.3515625,47.0620117,21l0.7480469-0.6157227
		c0.1611328,0.1611328,0.3408203,0.3046875,0.5390625,0.4296875C48.546875,20.9379883,48.7890625,21,49.074707,21
		c0.125,0,0.2514648-0.012207,0.3798828-0.0375977c0.1279297-0.0263672,0.2416992-0.0664062,0.3408203-0.1210938
		c0.0991211-0.0556641,0.1796875-0.125,0.2421875-0.2089844c0.0620117-0.0849609,0.0932617-0.1816406,0.0932617-0.2919922
		c0-0.1464844-0.0458984-0.2675781-0.1376953-0.3632812c-0.0913086-0.0947266-0.2016602-0.1699219-0.3295898-0.2246094
		c-0.128418-0.0556641-0.2641602-0.0996094-0.4072266-0.1328125c-0.1430664-0.0322266-0.2695312-0.0605469-0.3793945-0.0820312
		c-0.2128906-0.0517578-0.4145508-0.1103516-0.6049805-0.1757812c-0.190918-0.0664062-0.359375-0.1542969-0.5058594-0.2646484
		c-0.1469727-0.109375-0.2641602-0.2490234-0.3520508-0.4179688c-0.0883789-0.1679688-0.1323242-0.3769531-0.1323242-0.6269531
		c0-0.2705078,0.0571289-0.5078125,0.1708984-0.7089844c0.1132812-0.2021484,0.2636719-0.3691406,0.4506836-0.5009766
		s0.3999023-0.2304688,0.6381836-0.296875s0.4785156-0.0986328,0.7202148-0.0986328
		c0.3520508,0,0.6894531,0.0654297,1.012207,0.1972656c0.3227539,0.1328125,0.5791016,0.3525391,0.7700195,0.6601562
		L50.2739258,17.887207z"/>
</g>
<circle fill="#37B34A" cx="10.9019566" cy="12.1129742" r="1.1422229"/>
<path fill="none" stroke="#000000" stroke-width="0.5733722" stroke-miterlimit="10" d="M2.2592747,14.1545305"/>
<path fill="none" stroke="#42BDAE" stroke-width="0.9893817" stroke-miterlimit="10" d="M133.2357025,19.9883232"/>
<polyline fill="none" stroke="#CCCCCC" stroke-width="0.7451853" stroke-miterlimit="10" points="121.1434174,13.094594 
	124.6996918,13.094594 127.2219162,17.4632168 124.6996918,21.8318577 121.1434174,21.8318577 "/>
<polyline fill="none" stroke="#CCCCCC" stroke-width="0.7451853" stroke-miterlimit="10" points="132.5010986,7.8368979 
	128.9448242,7.8368979 126.4226074,12.2055216 128.9448242,16.5741615 132.5010986,16.5741615 "/>
<g>
	<g>
		
			<line fill="none" stroke="#CCCCCC" stroke-linecap="round" stroke-miterlimit="10" x1="121.4612503" y1="3.1706064" x2="121.4612503" y2="3.1706064"/>
		
			<line fill="none" stroke="#CCCCCC" stroke-linecap="round" stroke-miterlimit="10" stroke-dasharray="0,1.6851619" x1="123.1464081" y1="3.1706064" x2="123.9889908" y2="3.1706064"/>
		
			<line fill="none" stroke="#CCCCCC" stroke-linecap="round" stroke-miterlimit="10" x1="124.8315735" y1="3.1706064" x2="124.8315735" y2="3.1706064"/>
		
			<line fill="none" stroke="#CCCCCC" stroke-linecap="round" stroke-miterlimit="10" stroke-dasharray="0,1.5935614" x1="125.6283493" y1="4.5506716" x2="126.8235245" y2="6.620769"/>
		
			<line fill="none" stroke="#CCCCCC" stroke-linecap="round" stroke-miterlimit="10" x1="127.2219162" y1="7.3108015" x2="127.2219162" y2="7.3108015"/>
		
			<line fill="none" stroke="#CCCCCC" stroke-linecap="round" stroke-miterlimit="10" stroke-dasharray="0,1.5935658" x1="126.4251328" y1="8.6908722" x2="125.2299652" y2="10.7609777"/>
		
			<line fill="none" stroke="#CCCCCC" stroke-linecap="round" stroke-miterlimit="10" x1="124.8315735" y1="11.4510126" x2="124.8315735" y2="11.4510126"/>
		
			<line fill="none" stroke="#CCCCCC" stroke-linecap="round" stroke-miterlimit="10" stroke-dasharray="0,1.6851619" x1="123.1464081" y1="11.4510126" x2="122.303833" y2="11.4510126"/>
		
			<line fill="none" stroke="#CCCCCC" stroke-linecap="round" stroke-miterlimit="10" x1="121.4612503" y1="11.4510126" x2="121.4612503" y2="11.4510126"/>
	</g>
</g>
<path fill="none" stroke="#000000" stroke-width="0.5004681" stroke-miterlimit="10" d="M122.7514648,12.770997"/>
<g>
	<path fill="#CCCCCC" d="M135.1015625,3.5043945h1.0556641v7.7880859h-1.0556641V3.5043945z"/>
	<path fill="#CCCCCC" d="M137.6318359,6.0786133h0.9892578v0.8027344h0.0224609
		c0.125-0.2783203,0.3408203-0.5039062,0.6494141-0.6767578c0.3076172-0.171875,0.6630859-0.2578125,1.0664062-0.2578125
		c0.2490234,0,0.4892578,0.0380859,0.7207031,0.1152344s0.4326172,0.1962891,0.6044922,0.3574219
		c0.1728516,0.1611328,0.3105469,0.3681641,0.4130859,0.6210938c0.1025391,0.2539062,0.1542969,0.5527344,0.1542969,0.8964844
		v3.3554688h-0.9902344V8.2124023c0-0.2421875-0.0332031-0.4492188-0.0996094-0.6210938
		c-0.0654297-0.1728516-0.1533203-0.3115234-0.2636719-0.4179688s-0.2363281-0.1835938-0.3789062-0.2314453
		c-0.1435547-0.0478516-0.2919922-0.0712891-0.4462891-0.0712891c-0.2050781,0-0.3955078,0.0332031-0.5712891,0.0986328
		c-0.1767578,0.0664062-0.3300781,0.1708984-0.4628906,0.3134766c-0.1318359,0.1435547-0.234375,0.3251953-0.3076172,0.5449219
		s-0.1103516,0.4804688-0.1103516,0.78125v2.6835938h-0.9892578V6.0786133z"/>
	<path fill="#CCCCCC" d="M146.2666016,6.9360352h-1.4189453v2.3652344c0,0.1474609,0.0029297,0.2919922,0.0107422,0.4345703
		c0.0068359,0.1435547,0.0351562,0.2714844,0.0820312,0.3847656c0.0478516,0.1142578,0.1210938,0.2060547,0.2207031,0.2753906
		c0.0986328,0.0693359,0.2431641,0.1044922,0.4345703,0.1044922c0.1171875,0,0.2382812-0.0107422,0.3623047-0.0332031
		c0.125-0.0214844,0.2382812-0.0625,0.3417969-0.1210938v0.9023438c-0.1181641,0.0664062-0.2695312,0.1113281-0.4570312,0.1376953
		c-0.1865234,0.0253906-0.3320312,0.0380859-0.4345703,0.0380859c-0.3808594,0-0.6767578-0.0527344-0.8857422-0.1591797
		s-0.3623047-0.2441406-0.4619141-0.4130859c-0.0986328-0.1679688-0.1572266-0.3574219-0.1757812-0.5664062
		s-0.0273438-0.4189453-0.0273438-0.6318359V6.9360352h-1.1445312V6.0786133h1.1445312V4.6157227h0.9902344v1.4628906h1.4189453
		V6.9360352z"/>
	<path fill="#CCCCCC" d="M147.2675781,6.0786133h0.9892578v0.8027344h0.0224609
		c0.0664062-0.1386719,0.1542969-0.265625,0.2636719-0.3789062c0.1103516-0.1142578,0.2333984-0.2109375,0.3691406-0.2919922
		s0.2841797-0.1445312,0.4453125-0.1923828s0.3222656-0.0712891,0.4833984-0.0712891
		c0.1621094,0,0.3085938,0.0214844,0.4404297,0.0654297l-0.0439453,1.0673828
		c-0.0810547-0.0224609-0.1611328-0.0400391-0.2421875-0.0546875s-0.1611328-0.0224609-0.2421875-0.0224609
		c-0.4833984,0-0.8544922,0.1357422-1.1103516,0.4072266c-0.2568359,0.2714844-0.3857422,0.6923828-0.3857422,1.2646484v2.6181641
		h-0.9892578V6.0786133z"/>
	<path fill="#CCCCCC" d="M150.9082031,4.2084961c0-0.1982422,0.0712891-0.3681641,0.2148438-0.5117188
		c0.1425781-0.1425781,0.3134766-0.2138672,0.5107422-0.2138672c0.1982422,0,0.3691406,0.0712891,0.5117188,0.2138672
		c0.1435547,0.1435547,0.2148438,0.3134766,0.2148438,0.5117188s-0.0712891,0.3681641-0.2148438,0.5117188
		c-0.1425781,0.1425781-0.3134766,0.2138672-0.5117188,0.2138672c-0.1972656,0-0.3681641-0.0712891-0.5107422-0.2138672
		C150.9794922,4.5766602,150.9082031,4.4067383,150.9082031,4.2084961z M151.1396484,6.0786133h0.9892578v5.2138672h-0.9892578
		V6.0786133z"/>
	<path fill="#CCCCCC" d="M153.4267578,6.0786133h0.9902344v0.8027344h0.0214844
		c0.125-0.2783203,0.3417969-0.5039062,0.6494141-0.6767578c0.3076172-0.171875,0.6640625-0.2578125,1.0673828-0.2578125
		c0.2490234,0,0.4892578,0.0380859,0.7197266,0.1152344c0.2314453,0.0771484,0.4326172,0.1962891,0.6054688,0.3574219
		c0.171875,0.1611328,0.3095703,0.3681641,0.4121094,0.6210938c0.1025391,0.2539062,0.1542969,0.5527344,0.1542969,0.8964844
		v3.3554688h-0.9902344V8.2124023c0-0.2421875-0.0322266-0.4492188-0.0986328-0.6210938
		c-0.0664062-0.1728516-0.1542969-0.3115234-0.2636719-0.4179688c-0.1103516-0.1064453-0.2373047-0.1835938-0.3798828-0.2314453
		s-0.2910156-0.0712891-0.4453125-0.0712891c-0.2060547,0-0.3964844,0.0332031-0.5722656,0.0986328
		c-0.1757812,0.0664062-0.3300781,0.1708984-0.4619141,0.3134766c-0.1318359,0.1435547-0.234375,0.3251953-0.3076172,0.5449219
		c-0.0742188,0.2197266-0.1103516,0.4804688-0.1103516,0.78125v2.6835938h-0.9902344V6.0786133z"/>
	<path fill="#CCCCCC" d="M162.0400391,7.387207c-0.1171875-0.1464844-0.2617188-0.2695312-0.4345703-0.3681641
		c-0.171875-0.0986328-0.3828125-0.1484375-0.6318359-0.1484375c-0.2353516,0-0.4384766,0.0498047-0.6113281,0.1484375
		c-0.171875,0.0986328-0.2578125,0.2441406-0.2578125,0.4345703c0,0.1542969,0.0488281,0.2783203,0.1484375,0.3740234
		c0.0986328,0.0957031,0.2158203,0.171875,0.3515625,0.2304688c0.1357422,0.0595703,0.28125,0.1035156,0.4345703,0.1328125
		c0.1542969,0.0292969,0.2861328,0.0546875,0.3964844,0.0761719c0.2119141,0.0517578,0.4121094,0.1142578,0.5996094,0.1875
		c0.1865234,0.0732422,0.3476562,0.1689453,0.4833984,0.2861328s0.2421875,0.2597656,0.3193359,0.4287109
		s0.1152344,0.3740234,0.1152344,0.6162109c0,0.2929688-0.0625,0.5439453-0.1865234,0.7529297
		c-0.125,0.2089844-0.2861328,0.3798828-0.484375,0.5117188s-0.4238281,0.2275391-0.6767578,0.2861328
		s-0.5078125,0.0878906-0.7646484,0.0878906c-0.4326172,0-0.8115234-0.0654297-1.1376953-0.1982422
		c-0.3271484-0.1318359-0.6181641-0.3740234-0.875-0.7255859l0.7480469-0.6162109
		c0.1611328,0.1611328,0.3408203,0.3046875,0.5390625,0.4296875c0.1982422,0.1240234,0.4404297,0.1865234,0.7255859,0.1865234
		c0.125,0,0.2519531-0.0126953,0.3798828-0.0380859c0.1279297-0.0263672,0.2421875-0.0664062,0.3408203-0.1210938
		c0.0996094-0.0556641,0.1796875-0.125,0.2421875-0.2089844c0.0625-0.0849609,0.09375-0.1816406,0.09375-0.2919922
		c0-0.1464844-0.0458984-0.2675781-0.1376953-0.3632812c-0.0917969-0.0947266-0.2021484-0.1699219-0.3300781-0.2246094
		c-0.1279297-0.0556641-0.2636719-0.0996094-0.4072266-0.1328125c-0.1425781-0.0322266-0.2695312-0.0605469-0.3789062-0.0820312
		c-0.2128906-0.0517578-0.4150391-0.1103516-0.6054688-0.1757812c-0.1904297-0.0664062-0.359375-0.1542969-0.5058594-0.2646484
		c-0.1464844-0.109375-0.2636719-0.2490234-0.3515625-0.4179688c-0.0888672-0.1679688-0.1328125-0.3769531-0.1328125-0.6269531
		c0-0.2705078,0.0576172-0.5078125,0.1708984-0.7089844c0.1132812-0.2021484,0.2636719-0.3691406,0.4511719-0.5009766
		c0.1865234-0.1318359,0.3994141-0.2304688,0.6376953-0.296875s0.4785156-0.0986328,0.7207031-0.0986328
		c0.3515625,0,0.6894531,0.0654297,1.0117188,0.1972656c0.3232422,0.1328125,0.5791016,0.3525391,0.7705078,0.6601562
		L162.0400391,7.387207z"/>
	<path fill="#CCCCCC" d="M163.7236328,4.2084961c0-0.1982422,0.0712891-0.3681641,0.2138672-0.5117188
		c0.1435547-0.1425781,0.3134766-0.2138672,0.5117188-0.2138672s0.3681641,0.0712891,0.5117188,0.2138672
		c0.1425781,0.1435547,0.2138672,0.3134766,0.2138672,0.5117188s-0.0712891,0.3681641-0.2138672,0.5117188
		c-0.1435547,0.1425781-0.3134766,0.2138672-0.5117188,0.2138672S164.0810547,4.862793,163.9375,4.7202148
		C163.7949219,4.5766602,163.7236328,4.4067383,163.7236328,4.2084961z M163.9541016,6.0786133h0.9902344v5.2138672h-0.9902344
		V6.0786133z"/>
	<path fill="#CCCCCC" d="M169.9707031,7.4643555c-0.1835938-0.1904297-0.3759766-0.3349609-0.5771484-0.4345703
		c-0.2021484-0.0986328-0.4423828-0.1484375-0.7207031-0.1484375c-0.2714844,0-0.5078125,0.0498047-0.7089844,0.1484375
		c-0.2021484,0.0996094-0.3710938,0.2353516-0.5068359,0.4072266s-0.2382812,0.3701172-0.3076172,0.59375
		s-0.1044922,0.4570312-0.1044922,0.6982422c0,0.2421875,0.0400391,0.4716797,0.1210938,0.6875
		c0.0800781,0.2167969,0.1943359,0.4052734,0.3408203,0.5673828c0.1464844,0.1611328,0.3222656,0.2871094,0.5283203,0.3789062
		c0.2050781,0.0917969,0.4355469,0.1376953,0.6923828,0.1376953c0.2792969,0,0.5175781-0.0498047,0.7158203-0.1484375
		c0.1972656-0.0986328,0.3808594-0.2441406,0.5498047-0.4345703l0.7041016,0.7041016
		c-0.2568359,0.2861328-0.5556641,0.4912109-0.8964844,0.6162109c-0.3417969,0.1240234-0.703125,0.1865234-1.0839844,0.1865234
		c-0.4033203,0-0.7714844-0.0654297-1.1054688-0.1982422c-0.3339844-0.1318359-0.6210938-0.3164062-0.8632812-0.5546875
		s-0.4287109-0.5244141-0.5615234-0.8583984c-0.1318359-0.3339844-0.1972656-0.7021484-0.1972656-1.1054688
		s0.0654297-0.7734375,0.1972656-1.1113281c0.1328125-0.3369141,0.3173828-0.6269531,0.5556641-0.8691406
		c0.2382812-0.2412109,0.5244141-0.4306641,0.8583984-0.5664062c0.3330078-0.1357422,0.7050781-0.203125,1.1162109-0.203125
		c0.3808594,0,0.7460938,0.0673828,1.0947266,0.203125c0.3476562,0.1357422,0.6503906,0.3427734,0.9072266,0.6220703
		L169.9707031,7.4643555z"/>
	<path fill="#CCCCCC" d="M171.2910156,6.7163086c0.2783203-0.2568359,0.6005859-0.4492188,0.9677734-0.5771484
		c0.3662109-0.1279297,0.7333984-0.1923828,1.0996094-0.1923828c0.3818359,0,0.7099609,0.0478516,0.984375,0.1425781
		c0.2753906,0.0957031,0.5009766,0.2236328,0.6767578,0.3847656c0.1757812,0.1621094,0.3066406,0.3466797,0.390625,0.5556641
		s0.1269531,0.4277344,0.1269531,0.6542969v2.6621094c0,0.1835938,0.0029297,0.3525391,0.0107422,0.5058594
		c0.0068359,0.1542969,0.0185547,0.3007812,0.0332031,0.4404297h-0.8798828
		c-0.0224609-0.2636719-0.0332031-0.5283203-0.0332031-0.7919922h-0.0224609
		c-0.2197266,0.3369141-0.4804688,0.5761719-0.7802734,0.7148438c-0.3007812,0.1396484-0.6494141,0.2089844-1.0458984,0.2089844
		c-0.2412109,0-0.4726562-0.0332031-0.6923828-0.0986328c-0.2197266-0.0664062-0.4130859-0.1650391-0.578125-0.296875
		c-0.1650391-0.1328125-0.2949219-0.2958984-0.3896484-0.4902344c-0.0957031-0.1933594-0.1435547-0.4189453-0.1435547-0.6757812
		c0-0.3378906,0.0751953-0.6201172,0.2255859-0.8476562c0.1503906-0.2265625,0.3554688-0.4121094,0.6162109-0.5546875
		c0.2597656-0.1435547,0.5644531-0.2460938,0.9130859-0.3085938c0.3476562-0.0625,0.7207031-0.09375,1.1162109-0.09375h0.7255859
		V7.8383789c0-0.1318359-0.0253906-0.2636719-0.0761719-0.3955078c-0.0517578-0.1328125-0.1289062-0.2519531-0.2314453-0.3574219
		c-0.1025391-0.1064453-0.2304688-0.1914062-0.3847656-0.2539062c-0.1542969-0.0615234-0.3378906-0.0927734-0.5498047-0.0927734
		c-0.1914062,0-0.3574219,0.0185547-0.5009766,0.0546875c-0.1425781,0.0371094-0.2734375,0.0830078-0.390625,0.1376953
		s-0.2236328,0.1191406-0.3183594,0.1923828c-0.0957031,0.0732422-0.1875,0.1425781-0.2753906,0.2089844L171.2910156,6.7163086z
		 M174.0849609,8.784668c-0.2353516,0-0.4755859,0.0126953-0.7207031,0.0380859
		c-0.2460938,0.0263672-0.4697266,0.0751953-0.6708984,0.1484375c-0.2021484,0.0732422-0.3671875,0.1767578-0.4951172,0.3085938
		s-0.1923828,0.3007812-0.1923828,0.5058594c0,0.3007812,0.1005859,0.5166016,0.3027344,0.6484375
		c0.2011719,0.1328125,0.4746094,0.1982422,0.8193359,0.1982422c0.2714844,0,0.5019531-0.0458984,0.6923828-0.1376953
		c0.1914062-0.0908203,0.3447266-0.2099609,0.4628906-0.3574219c0.1171875-0.1464844,0.2011719-0.3095703,0.2529297-0.4892578
		c0.0507812-0.1796875,0.0761719-0.3574219,0.0761719-0.5332031V8.784668H174.0849609z"/>
	<path fill="#CCCCCC" d="M176.7802734,2.9760742h0.9892578v8.3164062h-0.9892578V2.9760742z"/>
	<path fill="#CCCCCC" d="M179.1445312,2.9760742h0.9902344v8.3164062h-0.9902344V2.9760742z"/>
	<path fill="#CCCCCC" d="M180.8164062,6.0786133h1.1435547l1.5439453,4.0703125h0.0224609l1.4814453-4.0703125h1.0556641
		l-2.4755859,6.3359375c-0.0869141,0.2275391-0.1787109,0.4345703-0.2734375,0.6210938
		c-0.0947266,0.1875-0.2080078,0.3466797-0.3398438,0.4785156c-0.1308594,0.1318359-0.2900391,0.2353516-0.4765625,0.3085938
		s-0.4140625,0.109375-0.6845703,0.109375c-0.1455078,0-0.2939453-0.0087891-0.4433594-0.0273438
		s-0.2939453-0.0566406-0.4326172-0.1152344l0.1201172-0.9023438c0.1962891,0.0810547,0.3935547,0.1210938,0.5898438,0.1210938
		c0.1533203,0,0.2822266-0.0205078,0.3886719-0.0605469c0.1054688-0.0400391,0.1962891-0.0986328,0.2724609-0.1757812
		c0.0771484-0.0771484,0.140625-0.1669922,0.1914062-0.2695312s0.1025391-0.2197266,0.1533203-0.3515625l0.3203125-0.8251953
		L180.8164062,6.0786133z"/>
	<path fill="#CCCCCC" d="M189.5175781,3.5043945h2.7167969c0.5498047,0,1.0322266,0.0625,1.4462891,0.1875
		c0.4150391,0.1240234,0.7744141,0.2910156,1.078125,0.5c0.3046875,0.2089844,0.5576172,0.4492188,0.7597656,0.7207031
		c0.2011719,0.2714844,0.3603516,0.5498047,0.4785156,0.8359375c0.1171875,0.2861328,0.2011719,0.5722656,0.2529297,0.8583984
		c0.0507812,0.2851562,0.0761719,0.5498047,0.0761719,0.7919922c0,0.4980469-0.0917969,0.9804688-0.2744141,1.4462891
		c-0.1835938,0.4658203-0.4550781,0.8798828-0.8144531,1.2431641c-0.359375,0.3623047-0.8046875,0.6542969-1.3359375,0.8740234
		c-0.5322266,0.2197266-1.1464844,0.3300781-1.8427734,0.3300781h-2.5410156V3.5043945z M190.5732422,10.3022461h1.3310547
		c0.4472656,0,0.8710938-0.0605469,1.2705078-0.1816406c0.4003906-0.1210938,0.75-0.3017578,1.0507812-0.5439453
		s0.5390625-0.5449219,0.7148438-0.9072266c0.1757812-0.3632812,0.2646484-0.7871094,0.2646484-1.2705078
		c0-0.25-0.0410156-0.5410156-0.1210938-0.875c-0.0810547-0.3339844-0.2333984-0.6503906-0.4570312-0.9511719
		s-0.5332031-0.5556641-0.9296875-0.7646484c-0.3955078-0.2089844-0.9091797-0.3134766-1.5400391-0.3134766h-1.5839844V10.3022461z"
		/>
	<path fill="#CCCCCC" d="M197.1630859,4.2084961c0-0.1982422,0.0712891-0.3681641,0.2138672-0.5117188
		c0.1435547-0.1425781,0.3134766-0.2138672,0.5117188-0.2138672s0.3681641,0.0712891,0.5117188,0.2138672
		c0.1425781,0.1435547,0.2138672,0.3134766,0.2138672,0.5117188s-0.0712891,0.3681641-0.2138672,0.5117188
		c-0.1435547,0.1425781-0.3134766,0.2138672-0.5117188,0.2138672s-0.3681641-0.0712891-0.5117188-0.2138672
		C197.234375,4.5766602,197.1630859,4.4067383,197.1630859,4.2084961z M197.3935547,6.0786133h0.9902344v5.2138672h-0.9902344
		V6.0786133z"/>
	<path fill="#CCCCCC" d="M202.453125,7.387207c-0.1171875-0.1464844-0.2617188-0.2695312-0.4345703-0.3681641
		c-0.171875-0.0986328-0.3828125-0.1484375-0.6318359-0.1484375c-0.2353516,0-0.4384766,0.0498047-0.6113281,0.1484375
		c-0.171875,0.0986328-0.2578125,0.2441406-0.2578125,0.4345703c0,0.1542969,0.0488281,0.2783203,0.1484375,0.3740234
		c0.0986328,0.0957031,0.2158203,0.171875,0.3515625,0.2304688c0.1357422,0.0595703,0.28125,0.1035156,0.4345703,0.1328125
		c0.1542969,0.0292969,0.2861328,0.0546875,0.3964844,0.0761719c0.2119141,0.0517578,0.4121094,0.1142578,0.5996094,0.1875
		c0.1865234,0.0732422,0.3486328,0.1689453,0.4833984,0.2861328c0.1357422,0.1171875,0.2421875,0.2597656,0.3193359,0.4287109
		s0.1152344,0.3740234,0.1152344,0.6162109c0,0.2929688-0.0615234,0.5439453-0.1865234,0.7529297
		s-0.2861328,0.3798828-0.484375,0.5117188s-0.4238281,0.2275391-0.6767578,0.2861328s-0.5078125,0.0878906-0.7646484,0.0878906
		c-0.4326172,0-0.8115234-0.0654297-1.1376953-0.1982422c-0.3271484-0.1318359-0.6181641-0.3740234-0.875-0.7255859
		l0.7480469-0.6162109c0.1611328,0.1611328,0.3408203,0.3046875,0.5390625,0.4296875
		c0.1982422,0.1240234,0.4404297,0.1865234,0.7255859,0.1865234c0.125,0,0.2519531-0.0126953,0.3798828-0.0380859
		c0.1279297-0.0263672,0.2421875-0.0664062,0.3408203-0.1210938c0.0996094-0.0556641,0.1796875-0.125,0.2421875-0.2089844
		c0.0625-0.0849609,0.09375-0.1816406,0.09375-0.2919922c0-0.1464844-0.0458984-0.2675781-0.1376953-0.3632812
		c-0.0917969-0.0947266-0.2021484-0.1699219-0.3300781-0.2246094c-0.1279297-0.0556641-0.2636719-0.0996094-0.4072266-0.1328125
		c-0.1425781-0.0322266-0.2695312-0.0605469-0.3789062-0.0820312c-0.2128906-0.0517578-0.4150391-0.1103516-0.6054688-0.1757812
		c-0.1904297-0.0664062-0.359375-0.1542969-0.5058594-0.2646484c-0.1464844-0.109375-0.2636719-0.2490234-0.3515625-0.4179688
		c-0.0888672-0.1679688-0.1328125-0.3769531-0.1328125-0.6269531c0-0.2705078,0.0576172-0.5078125,0.1708984-0.7089844
		c0.1132812-0.2021484,0.2636719-0.3691406,0.4511719-0.5009766c0.1865234-0.1318359,0.3994141-0.2304688,0.6376953-0.296875
		s0.4785156-0.0986328,0.7207031-0.0986328c0.3515625,0,0.6894531,0.0654297,1.0117188,0.1972656
		c0.3232422,0.1328125,0.5800781,0.3525391,0.7705078,0.6601562L202.453125,7.387207z"/>
	<path fill="#CCCCCC" d="M204.0380859,8.6850586c0-0.3808594,0.0712891-0.7363281,0.2148438-1.0664062
		c0.1425781-0.3300781,0.3388672-0.6201172,0.5878906-0.8691406s0.5429688-0.4453125,0.8798828-0.5888672
		c0.3378906-0.1425781,0.7001953-0.2138672,1.0888672-0.2138672s0.7519531,0.0712891,1.0898438,0.2138672
		c0.3369141,0.1435547,0.6298828,0.3398438,0.8798828,0.5888672c0.2490234,0.2490234,0.4453125,0.5390625,0.5878906,0.8691406
		c0.1435547,0.3300781,0.2148438,0.6855469,0.2148438,1.0664062c0,0.3818359-0.0712891,0.7392578-0.2148438,1.0732422
		c-0.1425781,0.3330078-0.3388672,0.6230469-0.5878906,0.8691406c-0.25,0.2451172-0.5429688,0.4394531-0.8798828,0.5830078
		c-0.3378906,0.1425781-0.7011719,0.2138672-1.0898438,0.2138672s-0.7509766-0.0712891-1.0888672-0.2138672
		c-0.3369141-0.1435547-0.6308594-0.3378906-0.8798828-0.5830078c-0.2490234-0.2460938-0.4453125-0.5361328-0.5878906-0.8691406
		C204.109375,9.4243164,204.0380859,9.0668945,204.0380859,8.6850586z M205.09375,8.6850586
		c0,0.2646484,0.0400391,0.5087891,0.1210938,0.7314453c0.0810547,0.2246094,0.1943359,0.4150391,0.3408203,0.5722656
		c0.1464844,0.1582031,0.3261719,0.2822266,0.5390625,0.3740234s0.4511719,0.1376953,0.7148438,0.1376953
		c0.2646484,0,0.5029297-0.0458984,0.7158203-0.1376953c0.2119141-0.0917969,0.3916016-0.2158203,0.5390625-0.3740234
		c0.1464844-0.1572266,0.2597656-0.3476562,0.3408203-0.5722656c0.0800781-0.2226562,0.1210938-0.4667969,0.1210938-0.7314453
		c0-0.2636719-0.0410156-0.5068359-0.1210938-0.7314453c-0.0810547-0.2236328-0.1943359-0.4140625-0.3408203-0.5712891
		c-0.1474609-0.1582031-0.3271484-0.2822266-0.5390625-0.3740234c-0.2128906-0.0917969-0.4511719-0.1376953-0.7158203-0.1376953
		c-0.2636719,0-0.5019531,0.0458984-0.7148438,0.1376953s-0.3925781,0.2158203-0.5390625,0.3740234
		c-0.1464844,0.1572266-0.2597656,0.3476562-0.3408203,0.5712891C205.1337891,8.1782227,205.09375,8.4213867,205.09375,8.6850586z"
		/>
	<path fill="#CCCCCC" d="M210.5498047,6.0786133h0.9902344v0.8027344h0.0214844
		c0.0664062-0.1386719,0.1542969-0.265625,0.2646484-0.3789062c0.109375-0.1142578,0.2324219-0.2109375,0.3681641-0.2919922
		s0.2841797-0.1445312,0.4453125-0.1923828s0.3222656-0.0712891,0.484375-0.0712891
		c0.1611328,0,0.3076172,0.0214844,0.4394531,0.0654297l-0.0439453,1.0673828
		c-0.0800781-0.0224609-0.1611328-0.0400391-0.2421875-0.0546875c-0.0800781-0.0146484-0.1611328-0.0224609-0.2412109-0.0224609
		c-0.484375,0-0.8544922,0.1357422-1.1113281,0.4072266s-0.3847656,0.6923828-0.3847656,1.2646484v2.6181641h-0.9902344V6.0786133z"
		/>
	<path fill="#CCCCCC" d="M219.3710938,11.2924805h-0.9892578v-0.7480469h-0.0224609
		c-0.1904297,0.2792969-0.453125,0.4951172-0.7861328,0.6494141c-0.3339844,0.1533203-0.6767578,0.2304688-1.0283203,0.2304688
		c-0.4042969,0-0.7685547-0.0693359-1.0947266-0.2089844c-0.3261719-0.1386719-0.6054688-0.3330078-0.8359375-0.5830078
		c-0.2314453-0.2490234-0.4091797-0.5390625-0.5341797-0.8691406c-0.1240234-0.3300781-0.1865234-0.6884766-0.1865234-1.078125
		c0-0.3886719,0.0625-0.7490234,0.1865234-1.0830078c0.125-0.3339844,0.3027344-0.6230469,0.5341797-0.8691406
		c0.2304688-0.2451172,0.5097656-0.4384766,0.8359375-0.5771484c0.3261719-0.1396484,0.6904297-0.2089844,1.0947266-0.2089844
		c0.3730469,0,0.7255859,0.078125,1.0556641,0.2363281c0.3300781,0.1572266,0.5830078,0.3720703,0.7587891,0.6435547h0.0224609
		V2.9760742h0.9892578V11.2924805z M216.6650391,10.5004883c0.2646484,0,0.5029297-0.0458984,0.7158203-0.1376953
		c0.2119141-0.0917969,0.3916016-0.2158203,0.5390625-0.3740234c0.1464844-0.1572266,0.2597656-0.3476562,0.3408203-0.5722656
		c0.0800781-0.2226562,0.1210938-0.4667969,0.1210938-0.7314453c0-0.2636719-0.0410156-0.5068359-0.1210938-0.7314453
		c-0.0810547-0.2236328-0.1943359-0.4140625-0.3408203-0.5712891c-0.1474609-0.1582031-0.3271484-0.2822266-0.5390625-0.3740234
		c-0.2128906-0.0917969-0.4511719-0.1376953-0.7158203-0.1376953c-0.2636719,0-0.5019531,0.0458984-0.7148438,0.1376953
		s-0.3925781,0.2158203-0.5390625,0.3740234c-0.1464844,0.1572266-0.2597656,0.3476562-0.3408203,0.5712891
		c-0.0810547,0.2246094-0.1210938,0.4677734-0.1210938,0.7314453c0,0.2646484,0.0400391,0.5087891,0.1210938,0.7314453
		c0.0810547,0.2246094,0.1943359,0.4150391,0.3408203,0.5722656c0.1464844,0.1582031,0.3261719,0.2822266,0.5390625,0.3740234
		S216.4013672,10.5004883,216.6650391,10.5004883z"/>
	<path fill="#CCCCCC" d="M221.3408203,9.0483398c0,0.2275391,0.0498047,0.4345703,0.1484375,0.6220703
		c0.0986328,0.1865234,0.2294922,0.3457031,0.390625,0.4785156c0.1611328,0.1318359,0.3476562,0.234375,0.5605469,0.3076172
		s0.4326172,0.1103516,0.6601562,0.1103516c0.3085938,0,0.5761719-0.0722656,0.8027344-0.2148438
		c0.2275391-0.1435547,0.4365234-0.3320312,0.6269531-0.5664062l0.7480469,0.5722656
		c-0.5498047,0.7109375-1.3193359,1.0664062-2.3095703,1.0664062c-0.4111328,0-0.7832031-0.0693359-1.1162109-0.2089844
		c-0.3339844-0.1386719-0.6162109-0.3320312-0.8476562-0.5771484c-0.2304688-0.2460938-0.4082031-0.5351562-0.5332031-0.8691406
		s-0.1865234-0.6943359-0.1865234-1.0839844c0-0.3886719,0.0673828-0.7490234,0.203125-1.0830078
		s0.3222656-0.6230469,0.5605469-0.8691406c0.2382812-0.2451172,0.5224609-0.4384766,0.8525391-0.5771484
		c0.3300781-0.1396484,0.6894531-0.2089844,1.078125-0.2089844c0.4619141,0,0.8525391,0.0800781,1.171875,0.2421875
		c0.3193359,0.1611328,0.5810547,0.3720703,0.7861328,0.6318359c0.2050781,0.2607422,0.3535156,0.5537109,0.4453125,0.8798828
		c0.0917969,0.3271484,0.1376953,0.6582031,0.1376953,0.9960938v0.3515625H221.3408203z M224.4648438,8.2563477
		c-0.0078125-0.2197266-0.0419922-0.421875-0.1044922-0.6044922c-0.0625-0.1835938-0.15625-0.3427734-0.2802734-0.4785156
		c-0.125-0.1357422-0.28125-0.2421875-0.4677734-0.3193359c-0.1875-0.0771484-0.4052734-0.1152344-0.6542969-0.1152344
		c-0.2421875,0-0.4638672,0.0458984-0.6660156,0.1376953c-0.2011719,0.0908203-0.3720703,0.2099609-0.5117188,0.3574219
		c-0.1386719,0.1464844-0.2470703,0.3095703-0.3242188,0.4892578s-0.1152344,0.3574219-0.1152344,0.5332031H224.4648438z"/>
	<path fill="#CCCCCC" d="M226.4335938,6.0786133h0.9902344v0.8027344h0.0214844
		c0.0664062-0.1386719,0.1542969-0.265625,0.2646484-0.3789062c0.109375-0.1142578,0.2324219-0.2109375,0.3681641-0.2919922
		s0.2841797-0.1445312,0.4453125-0.1923828s0.3222656-0.0712891,0.484375-0.0712891
		c0.1611328,0,0.3076172,0.0214844,0.4394531,0.0654297l-0.0439453,1.0673828
		c-0.0800781-0.0224609-0.1611328-0.0400391-0.2421875-0.0546875C229.0810547,7.0102539,229,7.0024414,228.9199219,7.0024414
		c-0.484375,0-0.8544922,0.1357422-1.1113281,0.4072266s-0.3847656,0.6923828-0.3847656,1.2646484v2.6181641h-0.9902344V6.0786133z"
		/>
	<path fill="#CCCCCC" d="M135.1015625,14.0043945h2.7392578c0.4980469,0,0.9091797,0.0683594,1.2314453,0.203125
		c0.3222656,0.1367188,0.5771484,0.3085938,0.7646484,0.5175781c0.1865234,0.2089844,0.3173828,0.4433594,0.390625,0.7041016
		c0.0732422,0.2597656,0.109375,0.5117188,0.109375,0.7529297c0,0.2421875-0.0361328,0.4931641-0.109375,0.7539062
		s-0.2041016,0.4951172-0.390625,0.7041016c-0.1875,0.2089844-0.4423828,0.3808594-0.7646484,0.5166016
		s-0.7333984,0.2041016-1.2314453,0.2041016h-1.6835938v3.4311523h-1.0556641V14.0043945z M136.1572266,17.4360352h1.3857422
		c0.2060547,0,0.4091797-0.015625,0.6113281-0.0488281c0.2011719-0.0332031,0.3808594-0.09375,0.5380859-0.1816406
		c0.1582031-0.0878906,0.2841797-0.2148438,0.3798828-0.3798828s0.1435547-0.3789062,0.1435547-0.6435547
		c0-0.2636719-0.0478516-0.4785156-0.1435547-0.6435547s-0.2216797-0.2910156-0.3798828-0.3789062
		c-0.1572266-0.0878906-0.3369141-0.1484375-0.5380859-0.1816406c-0.2021484-0.0332031-0.4052734-0.0498047-0.6113281-0.0498047
		h-1.3857422V17.4360352z"/>
	<path fill="#CCCCCC" d="M140.65625,16.5786133h0.9892578v0.8027344h0.0224609
		c0.0664062-0.1386719,0.1542969-0.265625,0.2636719-0.3789062c0.1103516-0.1142578,0.2333984-0.2109375,0.3691406-0.2919922
		s0.2841797-0.1445312,0.4453125-0.1923828s0.3222656-0.0712891,0.4833984-0.0712891
		c0.1621094,0,0.3085938,0.0214844,0.4404297,0.0654297l-0.0439453,1.0673828
		c-0.0810547-0.0224609-0.1611328-0.0400391-0.2421875-0.0546875s-0.1611328-0.0224609-0.2421875-0.0224609
		c-0.4833984,0-0.8544922,0.1357422-1.1103516,0.4072266c-0.2568359,0.2714844-0.3857422,0.6923828-0.3857422,1.2646484v2.6176758
		H140.65625V16.5786133z"/>
	<path fill="#CCCCCC" d="M143.8242188,19.1850586c0-0.3808594,0.0712891-0.7363281,0.2148438-1.0664062
		c0.1425781-0.3300781,0.3388672-0.6201172,0.5878906-0.8691406c0.25-0.2490234,0.5429688-0.4453125,0.8808594-0.5888672
		c0.3369141-0.1425781,0.7001953-0.2138672,1.0888672-0.2138672s0.7509766,0.0712891,1.0888672,0.2138672
		c0.3369141,0.1435547,0.6308594,0.3398438,0.8798828,0.5888672s0.4453125,0.5390625,0.5888672,0.8691406
		c0.1425781,0.3300781,0.2138672,0.6855469,0.2138672,1.0664062c0,0.3818359-0.0712891,0.7392578-0.2138672,1.0732422
		c-0.1435547,0.3330078-0.3398438,0.6230469-0.5888672,0.8686523c-0.2490234,0.2451172-0.5429688,0.4394531-0.8798828,0.5830078
		c-0.3378906,0.1425781-0.7001953,0.2138672-1.0888672,0.2138672s-0.7519531-0.0712891-1.0888672-0.2138672
		c-0.3378906-0.1435547-0.6308594-0.3378906-0.8808594-0.5830078c-0.2490234-0.2456055-0.4453125-0.5356445-0.5878906-0.8686523
		C143.8955078,19.9243164,143.8242188,19.5668945,143.8242188,19.1850586z M144.8798828,19.1850586
		c0,0.2646484,0.0410156,0.5087891,0.1210938,0.7314453c0.0810547,0.2246094,0.1943359,0.4150391,0.3417969,0.5722656
		c0.1464844,0.1582031,0.3261719,0.2822266,0.5380859,0.3740234C146.09375,20.9545898,146.3320312,21,146.5966797,21
		c0.2636719,0,0.5019531-0.0454102,0.7148438-0.137207s0.3916016-0.2158203,0.5390625-0.3740234
		c0.1464844-0.1572266,0.2597656-0.3476562,0.3408203-0.5722656c0.0800781-0.2226562,0.1210938-0.4667969,0.1210938-0.7314453
		c0-0.2636719-0.0410156-0.5068359-0.1210938-0.7314453c-0.0810547-0.2236328-0.1943359-0.4140625-0.3408203-0.5712891
		c-0.1474609-0.1582031-0.3261719-0.2822266-0.5390625-0.3740234s-0.4511719-0.1376953-0.7148438-0.1376953
		c-0.2646484,0-0.5029297,0.0458984-0.7158203,0.1376953c-0.2119141,0.0917969-0.3916016,0.2158203-0.5380859,0.3740234
		c-0.1474609,0.1572266-0.2607422,0.3476562-0.3417969,0.5712891
		C144.9208984,18.6782227,144.8798828,18.9213867,144.8798828,19.1850586z"/>
	<path fill="#CCCCCC" d="M152.8222656,17.4360352h-1.4189453v2.3652344c0,0.1474609,0.0029297,0.2919922,0.0107422,0.4345703
		c0.0068359,0.1435547,0.0351562,0.2714844,0.0820312,0.3847656c0.0478516,0.1142578,0.1210938,0.2060547,0.2207031,0.2753906
		C151.8154297,20.965332,151.9599609,21,152.1513672,21c0.1171875,0,0.2382812-0.0102539,0.3623047-0.0327148
		c0.125-0.0214844,0.2382812-0.0625,0.3417969-0.1210938v0.9018555c-0.1181641,0.0664062-0.2695312,0.1113281-0.4570312,0.1376953
		c-0.1865234,0.0253906-0.3320312,0.0380859-0.4345703,0.0380859c-0.3808594,0-0.6767578-0.0527344-0.8857422-0.1591797
		s-0.3623047-0.2441406-0.4619141-0.4130859c-0.0986328-0.1679688-0.1572266-0.3569336-0.1757812-0.565918
		s-0.0273438-0.4189453-0.0273438-0.6318359v-2.7177734h-1.1445312v-0.8574219h1.1445312v-1.4628906h0.9902344v1.4628906h1.4189453
		V17.4360352z"/>
	<path fill="#CCCCCC" d="M154.1972656,19.5483398c0,0.2275391,0.0488281,0.4345703,0.1484375,0.6220703
		c0.0986328,0.1865234,0.2285156,0.3457031,0.390625,0.4785156c0.1611328,0.1318359,0.3476562,0.234375,0.5605469,0.3076172
		c0.2128906,0.0727539,0.4326172,0.1098633,0.6601562,0.1098633c0.3076172,0,0.5751953-0.0717773,0.8027344-0.2143555
		c0.2275391-0.1435547,0.4365234-0.3320312,0.6269531-0.5664062l0.7480469,0.5722656
		c-0.5498047,0.7104492-1.3203125,1.065918-2.3095703,1.065918c-0.4111328,0-0.7832031-0.0693359-1.1171875-0.2089844
		c-0.3330078-0.1386719-0.6152344-0.3320312-0.8466797-0.5771484c-0.2304688-0.2456055-0.4091797-0.534668-0.5332031-0.8686523
		c-0.125-0.3339844-0.1875-0.6943359-0.1875-1.0839844c0-0.3886719,0.0683594-0.7490234,0.2041016-1.0830078
		s0.3222656-0.6230469,0.5605469-0.8691406c0.2382812-0.2451172,0.5224609-0.4384766,0.8525391-0.5771484
		c0.3300781-0.1396484,0.6894531-0.2089844,1.078125-0.2089844c0.4619141,0,0.8525391,0.0800781,1.171875,0.2421875
		c0.3183594,0.1611328,0.5810547,0.3720703,0.7861328,0.6318359c0.2050781,0.2607422,0.3535156,0.5537109,0.4453125,0.8798828
		c0.0917969,0.3271484,0.1376953,0.6582031,0.1376953,0.9960938v0.3515625H154.1972656z M157.3212891,18.7563477
		c-0.0078125-0.2197266-0.0429688-0.421875-0.1044922-0.6044922c-0.0625-0.1835938-0.15625-0.3427734-0.28125-0.4785156
		c-0.1240234-0.1357422-0.2802734-0.2421875-0.4667969-0.3193359c-0.1875-0.0771484-0.4052734-0.1152344-0.6552734-0.1152344
		c-0.2412109,0-0.4638672,0.0458984-0.6650391,0.1376953c-0.2021484,0.0908203-0.3720703,0.2099609-0.5117188,0.3574219
		c-0.1396484,0.1464844-0.2470703,0.3095703-0.3242188,0.4892578s-0.1152344,0.3574219-0.1152344,0.5332031H157.3212891z"/>
	<path fill="#CCCCCC" d="M159.1367188,14.7084961c0-0.1982422,0.0712891-0.3681641,0.2138672-0.5117188
		c0.1435547-0.1425781,0.3134766-0.2138672,0.5117188-0.2138672s0.3681641,0.0712891,0.5117188,0.2138672
		c0.1425781,0.1435547,0.2138672,0.3134766,0.2138672,0.5117188s-0.0712891,0.3681641-0.2138672,0.5117188
		c-0.1435547,0.1425781-0.3134766,0.2138672-0.5117188,0.2138672s-0.3681641-0.0712891-0.5117188-0.2138672
		C159.2080078,15.0766602,159.1367188,14.9067383,159.1367188,14.7084961z M159.3671875,16.5786133h0.9902344v5.2133789h-0.9902344
		V16.5786133z"/>
	<path fill="#CCCCCC" d="M161.6552734,16.5786133h0.9892578v0.8027344h0.0224609
		c0.125-0.2783203,0.3408203-0.5039062,0.6494141-0.6767578c0.3076172-0.171875,0.6630859-0.2578125,1.0664062-0.2578125
		c0.2490234,0,0.4892578,0.0380859,0.7207031,0.1152344s0.4326172,0.1962891,0.6044922,0.3574219
		c0.1728516,0.1611328,0.3105469,0.3681641,0.4130859,0.6210938c0.1025391,0.2539062,0.1542969,0.5527344,0.1542969,0.8964844
		v3.3549805h-0.9902344v-3.0795898c0-0.2421875-0.0332031-0.4492188-0.0996094-0.6210938
		c-0.0654297-0.1728516-0.1533203-0.3115234-0.2636719-0.4179688s-0.2363281-0.1835938-0.3789062-0.2314453
		c-0.1435547-0.0478516-0.2919922-0.0712891-0.4462891-0.0712891c-0.2050781,0-0.3955078,0.0332031-0.5712891,0.0986328
		c-0.1767578,0.0664062-0.3300781,0.1708984-0.4628906,0.3134766c-0.1318359,0.1435547-0.234375,0.3251953-0.3076172,0.5449219
		s-0.1103516,0.4804688-0.1103516,0.78125v2.6831055h-0.9892578V16.5786133z"/>
	<path fill="#CCCCCC" d="M170.2675781,17.887207c-0.1171875-0.1464844-0.2617188-0.2695312-0.4345703-0.3681641
		c-0.171875-0.0986328-0.3828125-0.1484375-0.6318359-0.1484375c-0.2353516,0-0.4384766,0.0498047-0.6113281,0.1484375
		c-0.171875,0.0986328-0.2578125,0.2441406-0.2578125,0.4345703c0,0.1542969,0.0488281,0.2783203,0.1484375,0.3740234
		c0.0986328,0.0957031,0.2158203,0.171875,0.3515625,0.2304688c0.1357422,0.0595703,0.28125,0.1035156,0.4345703,0.1328125
		c0.1542969,0.0292969,0.2861328,0.0546875,0.3964844,0.0761719c0.2119141,0.0517578,0.4121094,0.1142578,0.5996094,0.1875
		c0.1865234,0.0732422,0.3476562,0.1689453,0.4833984,0.2861328s0.2421875,0.2597656,0.3193359,0.4287109
		s0.1152344,0.3740234,0.1152344,0.6162109c0,0.2929688-0.0625,0.5439453-0.1865234,0.7524414
		c-0.125,0.2089844-0.2861328,0.3798828-0.484375,0.5117188s-0.4238281,0.2275391-0.6767578,0.2861328
		s-0.5078125,0.0878906-0.7646484,0.0878906c-0.4326172,0-0.8115234-0.0654297-1.1376953-0.1982422
		C167.6035156,21.59375,167.3125,21.3515625,167.0556641,21l0.7480469-0.6157227
		c0.1611328,0.1611328,0.3408203,0.3046875,0.5390625,0.4296875C168.5410156,20.9379883,168.7832031,21,169.0683594,21
		c0.125,0,0.2519531-0.012207,0.3798828-0.0375977c0.1279297-0.0263672,0.2421875-0.0664062,0.3408203-0.1210938
		c0.0996094-0.0556641,0.1796875-0.125,0.2421875-0.2089844c0.0625-0.0849609,0.09375-0.1816406,0.09375-0.2919922
		c0-0.1464844-0.0458984-0.2675781-0.1376953-0.3632812c-0.0917969-0.0947266-0.2021484-0.1699219-0.3300781-0.2246094
		c-0.1279297-0.0556641-0.2636719-0.0996094-0.4072266-0.1328125c-0.1425781-0.0322266-0.2695312-0.0605469-0.3789062-0.0820312
		c-0.2128906-0.0517578-0.4150391-0.1103516-0.6054688-0.1757812c-0.1904297-0.0664062-0.359375-0.1542969-0.5058594-0.2646484
		c-0.1464844-0.109375-0.2636719-0.2490234-0.3515625-0.4179688c-0.0888672-0.1679688-0.1328125-0.3769531-0.1328125-0.6269531
		c0-0.2705078,0.0576172-0.5078125,0.1708984-0.7089844c0.1132812-0.2021484,0.2636719-0.3691406,0.4511719-0.5009766
		c0.1865234-0.1318359,0.3994141-0.2304688,0.6376953-0.296875s0.4785156-0.0986328,0.7207031-0.0986328
		c0.3515625,0,0.6894531,0.0654297,1.0117188,0.1972656c0.3232422,0.1328125,0.5791016,0.3525391,0.7705078,0.6601562
		L170.2675781,17.887207z"/>
</g>
<circle fill="#CCCCCC" cx="130.8958282" cy="12.1129742" r="1.1422229"/>
<path fill="none" stroke="#000000" stroke-width="0.5733722" stroke-miterlimit="10" d="M122.2531509,14.1545305"/>
<path fill="none" stroke="#000000" stroke-width="0.5004681" stroke-miterlimit="10" d="M122.2575912,12.770997"/>
<path fill="none" stroke="#000000" stroke-width="0.5733722" stroke-miterlimit="10" d="M121.7592773,14.1545305"/>
<g>
</g>
<g>
</g>
<g>
</g>
<g>
</g>
<g>
</g>
<g>
</g>
<g>
</g>
<g>
</g>
<g>
</g>
<g>
</g>
<g>
</g>
<g>
</g>
<g>
</g>
<g>
</g>
<g>
</g>
</svg>
