<?xml version="1.0" encoding="utf-8"?>
<!-- Generator: Adobe Illustrator 17.1.0, SVG Export Plug-In . SVG Version: 6.00 Build 0)  -->
<!DOCTYPE svg PUBLIC "-//W3C//DTD SVG 1.1//EN" "http://www.w3.org/Graphics/SVG/1.1/DTD/svg11.dtd">
<svg version="1.1" id="Layer_1" xmlns="http://www.w3.org/2000/svg" xmlns:xlink="http://www.w3.org/1999/xlink" x="0px" y="0px"
	 width="240px" height="40px" viewBox="0 0 240 40" enable-background="new 0 0 240 40" xml:space="preserve">
<path fill="none" stroke="#979797" stroke-width="0.9915338" stroke-miterlimit="10" d="M24.4307995,20.3267651"/>
<g>
	<path fill="#37B34A" d="M26.6337891,0.9716797h2.3740234l5.6679688,13.0288086h-3.2387695l-1.1225586-2.7602539H25.253418
		l-1.0854492,2.7602539h-3.1655273L26.6337891,0.9716797z M27.737793,4.762207l-1.5825195,4.0488281h3.1835938L27.737793,4.762207z"
		/>
</g>
<path fill="none" stroke="#979797" stroke-width="0.9915338" stroke-miterlimit="10" d="M24.5442295,20.2938766"/>
<g>
	<path fill="#37B34A" d="M25.1538086,16.5634766h1.0561523l3.6777344,8.5947266h-1.359375l-0.8618164-2.1240234h-4.0908203
		l-0.8496094,2.1240234h-1.359375L25.1538086,16.5634766z M27.2416992,22.0146484l-1.6025391-3.9458008h-0.0239258
		l-1.6264648,3.9458008H27.2416992z"/>
	<path fill="#37B34A" d="M33.480957,20.8481445c-0.1293945-0.1616211-0.2895508-0.296875-0.4794922-0.40625
		s-0.4228516-0.1640625-0.6977539-0.1640625c-0.2592773,0-0.4838867,0.0546875-0.6738281,0.1640625
		c-0.1904297,0.109375-0.2851562,0.269043-0.2851562,0.4794922c0,0.1704102,0.0546875,0.3081055,0.1635742,0.4135742
		c0.109375,0.1044922,0.2387695,0.1894531,0.3886719,0.2548828c0.1494141,0.0644531,0.3095703,0.1132812,0.4794922,0.1455078
		s0.3154297,0.0605469,0.4370117,0.0849609c0.234375,0.0566406,0.4550781,0.125,0.6616211,0.2060547
		c0.2060547,0.0810547,0.3842773,0.1865234,0.5341797,0.3154297c0.1494141,0.1298828,0.2666016,0.2880859,0.3515625,0.4736328
		c0.0849609,0.1865234,0.1274414,0.4130859,0.1274414,0.6796875c0,0.3242188-0.0688477,0.6005859-0.2060547,0.8320312
		c-0.1376953,0.2304688-0.3154297,0.4179688-0.5341797,0.5644531c-0.2182617,0.1455078-0.4672852,0.25-0.746582,0.3154297
		c-0.2792969,0.0644531-0.5605469,0.0966797-0.84375,0.0966797c-0.4775391,0-0.8959961-0.0722656-1.2563477-0.21875
		c-0.3598633-0.1455078-0.6816406-0.4121094-0.9648438-0.8007812l0.8256836-0.6796875
		c0.1777344,0.1777344,0.3759766,0.3359375,0.5947266,0.4736328c0.2182617,0.1376953,0.4853516,0.2060547,0.8007812,0.2060547
		c0.1376953,0,0.2773438-0.0136719,0.4189453-0.0419922s0.2670898-0.0732422,0.3764648-0.1337891
		c0.1088867-0.0605469,0.1982422-0.1376953,0.2670898-0.2304688c0.0683594-0.09375,0.1030273-0.2001953,0.1030273-0.3222656
		c0-0.1611328-0.0507812-0.2949219-0.1518555-0.4003906s-0.2226562-0.1884766-0.3642578-0.2490234
		s-0.2910156-0.109375-0.4487305-0.1455078c-0.1582031-0.0361328-0.2973633-0.0664062-0.4189453-0.0908203
		c-0.2348633-0.0566406-0.4575195-0.1210938-0.6674805-0.1943359c-0.2109375-0.0732422-0.3969727-0.1699219-0.5585938-0.2910156
		c-0.1621094-0.1220703-0.2915039-0.2753906-0.3881836-0.4619141c-0.097168-0.1855469-0.1459961-0.4160156-0.1459961-0.6914062
		c0-0.2998047,0.0625-0.5610352,0.1884766-0.7836914c0.125-0.222168,0.2910156-0.4067383,0.4975586-0.5522461
		c0.2060547-0.1455078,0.440918-0.2548828,0.7041016-0.3276367c0.2626953-0.0727539,0.527832-0.109375,0.7949219-0.109375
		c0.3886719,0,0.7607422,0.0727539,1.1166992,0.21875c0.355957,0.1455078,0.6391602,0.3881836,0.8496094,0.7280273
		L33.480957,20.8481445z"/>
	<path fill="#37B34A" d="M38.5664062,20.8481445c-0.1293945-0.1616211-0.2895508-0.296875-0.4794922-0.40625
		s-0.4228516-0.1640625-0.6977539-0.1640625c-0.2592773,0-0.4838867,0.0546875-0.6738281,0.1640625
		c-0.1904297,0.109375-0.2851562,0.269043-0.2851562,0.4794922c0,0.1704102,0.0546875,0.3081055,0.1635742,0.4135742
		c0.109375,0.1044922,0.2387695,0.1894531,0.3886719,0.2548828c0.1494141,0.0644531,0.3095703,0.1132812,0.4794922,0.1455078
		s0.3154297,0.0605469,0.4370117,0.0849609c0.234375,0.0566406,0.4550781,0.125,0.6616211,0.2060547
		c0.2060547,0.0810547,0.3842773,0.1865234,0.5341797,0.3154297c0.1494141,0.1298828,0.2666016,0.2880859,0.3515625,0.4736328
		c0.0849609,0.1865234,0.1274414,0.4130859,0.1274414,0.6796875c0,0.3242188-0.0688477,0.6005859-0.2060547,0.8320312
		c-0.1376953,0.2304688-0.3154297,0.4179688-0.5341797,0.5644531c-0.2182617,0.1455078-0.4672852,0.25-0.746582,0.3154297
		c-0.2792969,0.0644531-0.5605469,0.0966797-0.84375,0.0966797c-0.4775391,0-0.8959961-0.0722656-1.2563477-0.21875
		c-0.3598633-0.1455078-0.6816406-0.4121094-0.9648438-0.8007812l0.8256836-0.6796875
		c0.1777344,0.1777344,0.3759766,0.3359375,0.5947266,0.4736328c0.2182617,0.1376953,0.4853516,0.2060547,0.8007812,0.2060547
		c0.1376953,0,0.2773438-0.0136719,0.4189453-0.0419922s0.2670898-0.0732422,0.3764648-0.1337891
		c0.1088867-0.0605469,0.1982422-0.1376953,0.2670898-0.2304688c0.0683594-0.09375,0.1030273-0.2001953,0.1030273-0.3222656
		c0-0.1611328-0.0507812-0.2949219-0.1518555-0.4003906s-0.2226562-0.1884766-0.3642578-0.2490234
		s-0.2910156-0.109375-0.4487305-0.1455078c-0.1582031-0.0361328-0.2973633-0.0664062-0.4189453-0.0908203
		c-0.2348633-0.0566406-0.4575195-0.1210938-0.6674805-0.1943359c-0.2109375-0.0732422-0.3969727-0.1699219-0.5585938-0.2910156
		c-0.1621094-0.1220703-0.2915039-0.2753906-0.3881836-0.4619141c-0.097168-0.1855469-0.1459961-0.4160156-0.1459961-0.6914062
		c0-0.2998047,0.0625-0.5610352,0.1884766-0.7836914c0.125-0.222168,0.2910156-0.4067383,0.4975586-0.5522461
		c0.2060547-0.1455078,0.440918-0.2548828,0.7041016-0.3276367c0.2626953-0.0727539,0.527832-0.109375,0.7949219-0.109375
		c0.3886719,0,0.7607422,0.0727539,1.1166992,0.21875c0.355957,0.1455078,0.6391602,0.3881836,0.8496094,0.7280273
		L38.5664062,20.8481445z"/>
	<path fill="#37B34A" d="M40.4233398,17.340332c0-0.2182617,0.0791016-0.40625,0.2368164-0.5644531
		c0.1577148-0.1577148,0.3461914-0.2363281,0.5644531-0.2363281c0.21875,0,0.4067383,0.0786133,0.5644531,0.2363281
		c0.1577148,0.1582031,0.2368164,0.3461914,0.2368164,0.5644531c0,0.21875-0.0791016,0.4067383-0.2368164,0.5644531
		s-0.3457031,0.2368164-0.5644531,0.2368164c-0.2182617,0-0.4067383-0.0791016-0.5644531-0.2368164
		S40.4233398,17.559082,40.4233398,17.340332z M40.6782227,19.4038086h1.0927734v5.7543945h-1.0927734V19.4038086z"/>
	<path fill="#37B34A" d="M48.96875,25.109375c0,0.4375-0.0751953,0.8359375-0.2246094,1.1962891
		c-0.1499023,0.359375-0.3623047,0.6708984-0.637207,0.9345703C47.831543,27.5029297,47.5,27.7070312,47.1113281,27.8525391
		c-0.3881836,0.1464844-0.8173828,0.21875-1.2866211,0.21875c-0.550293,0-1.0541992-0.0771484-1.5112305-0.2304688
		c-0.4570312-0.1542969-0.8920898-0.4208984-1.3046875-0.8007812l0.7402344-0.9228516
		c0.2832031,0.3076172,0.5908203,0.5400391,0.9223633,0.6982422c0.3320312,0.1572266,0.7084961,0.2363281,1.1289062,0.2363281
		c0.4047852,0,0.7407227-0.0585938,1.0078125-0.1757812s0.4794922-0.2695312,0.637207-0.4550781
		c0.1577148-0.1865234,0.269043-0.3994141,0.3339844-0.6376953c0.0644531-0.2382812,0.0966797-0.4794922,0.0966797-0.7216797
		v-0.8505859h-0.0361328c-0.2104492,0.3486328-0.4956055,0.6054688-0.855957,0.7714844
		c-0.3598633,0.1660156-0.7382812,0.2490234-1.1347656,0.2490234c-0.4208984,0-0.8115234-0.0751953-1.1713867-0.2246094
		c-0.3603516-0.1503906-0.6699219-0.3564453-0.9287109-0.6191406S43.2875977,23.8125,43.1420898,23.453125
		c-0.1455078-0.3603516-0.2182617-0.7509766-0.2182617-1.171875s0.0683594-0.8154297,0.2060547-1.1835938
		c0.1376953-0.3686523,0.3339844-0.6899414,0.5888672-0.965332c0.2548828-0.2749023,0.5625-0.4892578,0.9223633-0.6435547
		c0.3603516-0.1533203,0.7626953-0.2304688,1.2080078-0.2304688c0.3881836,0,0.7666016,0.0849609,1.1347656,0.2548828
		s0.6577148,0.4086914,0.8681641,0.7163086h0.0239258v-0.8256836H48.96875V25.109375z M45.9824219,20.277832
		c-0.2910156,0-0.5541992,0.0507812-0.7890625,0.1518555c-0.234375,0.1015625-0.4326172,0.2387695-0.5947266,0.4125977
		c-0.1616211,0.1743164-0.2871094,0.3852539-0.3759766,0.6323242c-0.0893555,0.2460938-0.1337891,0.515625-0.1337891,0.8066406
		c0,0.5830078,0.1699219,1.0498047,0.5097656,1.4023438c0.3398438,0.3515625,0.8012695,0.5273438,1.3837891,0.5273438
		c0.5830078,0,1.0439453-0.1757812,1.3837891-0.5273438c0.3398438-0.3525391,0.5097656-0.8193359,0.5097656-1.4023438
		c0-0.2910156-0.0444336-0.5605469-0.1333008-0.8066406c-0.0893555-0.2470703-0.2143555-0.4580078-0.3764648-0.6323242
		c-0.1616211-0.1738281-0.3598633-0.3110352-0.5947266-0.4125977C46.5366211,20.3286133,46.2739258,20.277832,45.9824219,20.277832z
		"/>
	<path fill="#37B34A" d="M50.315918,19.4038086h1.0927734v0.8862305h0.0244141
		c0.137207-0.3071289,0.3759766-0.5561523,0.7158203-0.746582c0.3398438-0.1899414,0.7324219-0.2851562,1.1777344-0.2851562
		c0.2749023,0,0.5400391,0.0424805,0.7949219,0.1274414s0.4775391,0.2167969,0.6674805,0.3945312
		c0.1904297,0.1782227,0.3417969,0.4067383,0.4555664,0.6860352c0.112793,0.2788086,0.1699219,0.6088867,0.1699219,0.9897461
		v3.7021484h-1.0927734v-3.3984375c0-0.2675781-0.0361328-0.4960938-0.109375-0.6865234
		c-0.0727539-0.1899414-0.1699219-0.3442383-0.2910156-0.4614258c-0.121582-0.1171875-0.2612305-0.2021484-0.4189453-0.2548828
		s-0.3217773-0.0791016-0.4916992-0.0791016c-0.2265625,0-0.4370117,0.0366211-0.6308594,0.109375
		c-0.1943359,0.0727539-0.3642578,0.1879883-0.5097656,0.3461914c-0.1459961,0.1577148-0.2592773,0.3583984-0.340332,0.6015625
		c-0.0805664,0.2421875-0.1210938,0.5292969-0.1210938,0.8613281v2.9619141H50.315918V19.4038086z"/>
	<path fill="#37B34A" d="M56.7612305,19.4038086H57.78125v0.8984375h0.0239258
		c0.0244141-0.0805664,0.0869141-0.1821289,0.1884766-0.3032227c0.1010742-0.121582,0.2304688-0.2368164,0.3881836-0.3461914
		s0.34375-0.2021484,0.5585938-0.2792969c0.2143555-0.0766602,0.4506836-0.1152344,0.7099609-0.1152344
		c0.4287109,0,0.7890625,0.0893555,1.0805664,0.2670898c0.2910156,0.1782227,0.5297852,0.4453125,0.7158203,0.8012695
		c0.1860352-0.355957,0.4492188-0.6230469,0.7890625-0.8012695c0.3398438-0.1777344,0.684082-0.2670898,1.0317383-0.2670898
		c0.4453125,0,0.809082,0.0727539,1.0927734,0.21875c0.2832031,0.1455078,0.5053711,0.3378906,0.6674805,0.5761719
		c0.1616211,0.2392578,0.2729492,0.5102539,0.3339844,0.8134766c0.0605469,0.3041992,0.0908203,0.6176758,0.0908203,0.940918
		v3.3505859h-1.0922852v-3.2041016c0-0.21875-0.0141602-0.4296875-0.0424805-0.6318359
		c-0.0288086-0.2021484-0.0874023-0.3803711-0.1762695-0.534668c-0.0888672-0.1533203-0.2143555-0.2768555-0.3759766-0.3701172
		c-0.1621094-0.0927734-0.3764648-0.1396484-0.6435547-0.1396484c-0.5263672,0-0.9023438,0.1621094-1.1289062,0.4858398
		c-0.2265625,0.3242188-0.3398438,0.7412109-0.3398438,1.2509766v3.1435547h-1.0922852v-3.0107422
		c0-0.2744141-0.0146484-0.5253906-0.0424805-0.7519531c-0.0288086-0.2265625-0.0849609-0.4233398-0.1699219-0.5893555
		s-0.206543-0.2954102-0.3642578-0.3886719c-0.1577148-0.0927734-0.3701172-0.1396484-0.637207-0.1396484
		c-0.1943359,0-0.3823242,0.0385742-0.5644531,0.1157227c-0.1821289,0.0766602-0.3422852,0.1918945-0.4794922,0.3457031
		c-0.1376953,0.1538086-0.2470703,0.3505859-0.328125,0.5888672c-0.0805664,0.2392578-0.1210938,0.5205078-0.1210938,0.84375
		v2.9863281h-1.0927734V19.4038086z"/>
	<path fill="#37B34A" d="M67.6254883,22.6816406c0,0.2509766,0.0546875,0.4794922,0.1640625,0.6865234
		c0.1088867,0.2060547,0.2524414,0.3818359,0.4306641,0.5273438c0.1777344,0.1455078,0.3842773,0.2597656,0.6191406,0.3398438
		c0.234375,0.0810547,0.4775391,0.1220703,0.7280273,0.1220703c0.340332,0,0.6352539-0.0791016,0.8862305-0.2373047
		c0.2509766-0.1572266,0.4814453-0.3662109,0.6918945-0.625l0.8256836,0.6308594
		c-0.6069336,0.7851562-1.456543,1.1777344-2.5493164,1.1777344c-0.453125,0-0.8637695-0.0771484-1.2319336-0.2304688
		s-0.6796875-0.3662109-0.9345703-0.6376953c-0.2548828-0.2705078-0.4511719-0.5898438-0.5888672-0.9589844
		c-0.1376953-0.3681641-0.206543-0.7666016-0.206543-1.1953125s0.074707-0.8271484,0.2246094-1.1953125
		c0.1499023-0.3686523,0.355957-0.6884766,0.6191406-0.9594727s0.5766602-0.4833984,0.940918-0.6376953
		c0.3642578-0.1533203,0.7602539-0.2304688,1.1894531-0.2304688c0.5097656,0,0.940918,0.0893555,1.2929688,0.2670898
		c0.3520508,0.1782227,0.6411133,0.4106445,0.8676758,0.6982422c0.2265625,0.2871094,0.3901367,0.6108398,0.4916992,0.9716797
		c0.1010742,0.359375,0.1518555,0.7255859,0.1518555,1.0986328v0.3876953H67.6254883z M71.0727539,21.8076172
		c-0.0083008-0.2421875-0.0463867-0.4648438-0.1152344-0.6679688c-0.0688477-0.2016602-0.171875-0.3779297-0.3095703-0.527832
		c-0.1376953-0.1494141-0.3095703-0.2670898-0.5161133-0.3520508c-0.2060547-0.0849609-0.4467773-0.1274414-0.722168-0.1274414
		c-0.2670898,0-0.5117188,0.0507812-0.734375,0.1518555s-0.4106445,0.2324219-0.5644531,0.3945312
		c-0.1538086,0.1616211-0.2729492,0.3417969-0.3579102,0.5410156c-0.0849609,0.1982422-0.1274414,0.3935547-0.1274414,0.5878906
		H71.0727539z"/>
	<path fill="#37B34A" d="M73.2451172,19.4038086h1.0927734v0.8862305h0.0244141
		c0.137207-0.3071289,0.3759766-0.5561523,0.7158203-0.746582c0.3398438-0.1899414,0.7324219-0.2851562,1.1777344-0.2851562
		c0.2749023,0,0.5400391,0.0424805,0.7949219,0.1274414s0.4775391,0.2167969,0.6674805,0.3945312
		c0.1904297,0.1782227,0.3417969,0.4067383,0.4555664,0.6860352c0.112793,0.2788086,0.1699219,0.6088867,0.1699219,0.9897461
		v3.7021484h-1.0927734v-3.3984375c0-0.2675781-0.0361328-0.4960938-0.109375-0.6865234
		c-0.0727539-0.1899414-0.1699219-0.3442383-0.2910156-0.4614258c-0.121582-0.1171875-0.2612305-0.2021484-0.4189453-0.2548828
		s-0.3217773-0.0791016-0.4916992-0.0791016c-0.2265625,0-0.4370117,0.0366211-0.6308594,0.109375
		c-0.1943359,0.0727539-0.3642578,0.1879883-0.5097656,0.3461914c-0.1459961,0.1577148-0.2592773,0.3583984-0.340332,0.6015625
		c-0.0805664,0.2421875-0.1210938,0.5292969-0.1210938,0.8613281v2.9619141h-1.0927734V19.4038086z"/>
	<path fill="#37B34A" d="M82.7744141,20.3510742h-1.565918v2.6098633c0,0.1621094,0.0039062,0.3222656,0.012207,0.4794922
		c0.0078125,0.1582031,0.0380859,0.2998047,0.0908203,0.4248047c0.0527344,0.1259766,0.1337891,0.2265625,0.2426758,0.3037109
		c0.109375,0.0771484,0.269043,0.1152344,0.4794922,0.1152344c0.1293945,0,0.2631836-0.0117188,0.4008789-0.0361328
		c0.137207-0.0244141,0.2626953-0.0693359,0.3759766-0.1337891v0.9951172
		c-0.1293945,0.0732422-0.2973633,0.1240234-0.503418,0.1523438c-0.206543,0.0283203-0.3662109,0.0419922-0.4794922,0.0419922
		c-0.4208984,0-0.746582-0.0585938-0.9770508-0.1757812c-0.230957-0.1171875-0.4008789-0.2685547-0.5102539-0.4550781
		c-0.1088867-0.1865234-0.1738281-0.3945312-0.1938477-0.625c-0.0205078-0.2314453-0.0302734-0.4638672-0.0302734-0.6982422
		v-2.9985352h-1.2626953v-0.9472656h1.2626953v-1.6142578h1.0922852v1.6142578h1.565918V20.3510742z"/>
</g>
<path fill="none" stroke="#37B34A" stroke-miterlimit="10" d="M1.5000036,1c0,1.2611165,1.0223334,2.2834499,2.2834394,2.2834499
	S6.0668826,2.2611165,6.0668826,1"/>
<path fill="none" stroke="#37B34A" stroke-miterlimit="10" d="M7.8936405,5.0551014"/>
<path fill="none" stroke="#37B34A" stroke-miterlimit="10" d="M7.8936405,1c0,1.2611165,1.0223331,2.2834499,2.2834396,2.2834499
	c1.261116,0,2.2834501-1.0223334,2.2834501-2.2834499"/>
<path fill="none" stroke="#37B34A" stroke-miterlimit="10" d="M14.2872772,5.0551014"/>
<path fill="none" stroke="#37B34A" stroke-miterlimit="10" d="M14.2872772,1c0,1.2611165,1.0223331,2.2834499,2.2834492,2.2834499
	c1.2611065,0,2.2834396-1.0223334,2.2834396-2.2834499"/>
<path fill="none" stroke="#37B34A" stroke-miterlimit="10" d="M1.5000036,13.9870892
	c0-1.261117,1.0223334-2.2834501,2.2834394-2.2834501s2.2834396,1.0223331,2.2834396,2.2834501"/>
<path fill="none" stroke="#37B34A" stroke-miterlimit="10" d="M7.8936405,13.9870892
	c0-1.261117,1.0223331-2.2834501,2.2834396-2.2834501c1.261116,0,2.2834501,1.0223331,2.2834501,2.2834501"/>
<path fill="none" stroke="#37B34A" stroke-miterlimit="10" d="M14.2872772,13.9870892
	c0-1.261117,1.0223331-2.2834501,2.2834492-2.2834501c1.2611065,0,2.2834396,1.0223331,2.2834396,2.2834501"/>
<circle fill="none" stroke="#37B34A" stroke-miterlimit="10" cx="3.783443" cy="7.5078197" r="2.283443"/>
<circle fill="none" stroke="#37B34A" stroke-miterlimit="10" cx="10.177083" cy="7.5078197" r="2.283443"/>
<circle fill="#37B34A" stroke="#37B34A" stroke-miterlimit="10" cx="16.5707226" cy="7.5078197" r="2.283443"/>
<path fill="none" stroke="#979797" stroke-width="0.9915338" stroke-miterlimit="10" d="M141.4308014,20.3267651"/>
<g>
	<path fill="#CCCCCC" d="M143.6337891,0.9716797h2.3740234l5.6679688,13.0288086h-3.2392578l-1.1220703-2.7602539h-5.0615234
		l-1.0849609,2.7602539h-3.1660156L143.6337891,0.9716797z M144.7373047,4.762207l-1.5820312,4.0488281h3.1835938
		L144.7373047,4.762207z"/>
</g>
<path fill="none" stroke="#979797" stroke-width="0.9915338" stroke-miterlimit="10" d="M141.5442352,20.2938766"/>
<g>
	<path fill="#CCCCCC" d="M142.1542969,16.5634766h1.0556641l3.6777344,8.5947266h-1.359375l-0.8613281-2.1240234h-4.0908203
		l-0.8496094,2.1240234h-1.359375L142.1542969,16.5634766z M144.2421875,22.0146484l-1.6025391-3.9458008h-0.0244141
		l-1.6259766,3.9458008H144.2421875z"/>
	<path fill="#CCCCCC" d="M150.4814453,20.8481445c-0.1298828-0.1616211-0.2900391-0.296875-0.4794922-0.40625
		c-0.1904297-0.109375-0.4228516-0.1640625-0.6982422-0.1640625c-0.2587891,0-0.4833984,0.0546875-0.6738281,0.1640625
		s-0.2851562,0.269043-0.2851562,0.4794922c0,0.1704102,0.0546875,0.3081055,0.1640625,0.4135742
		c0.109375,0.1044922,0.2382812,0.1894531,0.3886719,0.2548828c0.1494141,0.0644531,0.3095703,0.1132812,0.4794922,0.1455078
		s0.3154297,0.0605469,0.4365234,0.0849609c0.234375,0.0566406,0.4550781,0.125,0.6621094,0.2060547
		c0.2060547,0.0810547,0.3837891,0.1865234,0.5341797,0.3154297c0.1494141,0.1298828,0.2666016,0.2880859,0.3515625,0.4736328
		c0.0849609,0.1865234,0.1269531,0.4130859,0.1269531,0.6796875c0,0.3242188-0.0683594,0.6005859-0.2060547,0.8320312
		c-0.1376953,0.2304688-0.3154297,0.4179688-0.5341797,0.5644531c-0.2177734,0.1455078-0.4667969,0.25-0.7460938,0.3154297
		c-0.2792969,0.0644531-0.5605469,0.0966797-0.84375,0.0966797c-0.4775391,0-0.8964844-0.0722656-1.2568359-0.21875
		c-0.359375-0.1455078-0.6816406-0.4121094-0.9648438-0.8007812l0.8261719-0.6796875
		c0.1777344,0.1777344,0.3759766,0.3359375,0.5947266,0.4736328c0.2177734,0.1376953,0.4853516,0.2060547,0.8007812,0.2060547
		c0.1376953,0,0.2773438-0.0136719,0.4189453-0.0419922s0.2666016-0.0732422,0.3759766-0.1337891
		s0.1982422-0.1376953,0.2675781-0.2304688c0.0683594-0.09375,0.1025391-0.2001953,0.1025391-0.3222656
		c0-0.1611328-0.0507812-0.2949219-0.1513672-0.4003906c-0.1015625-0.1054688-0.2226562-0.1884766-0.3642578-0.2490234
		s-0.2910156-0.109375-0.4492188-0.1455078s-0.296875-0.0664062-0.4189453-0.0908203
		c-0.234375-0.0566406-0.4570312-0.1210938-0.6669922-0.1943359c-0.2109375-0.0732422-0.3974609-0.1699219-0.5585938-0.2910156
		c-0.1621094-0.1220703-0.2919922-0.2753906-0.3886719-0.4619141c-0.0966797-0.1855469-0.1455078-0.4160156-0.1455078-0.6914062
		c0-0.2998047,0.0625-0.5610352,0.1884766-0.7836914c0.125-0.222168,0.2910156-0.4067383,0.4970703-0.5522461
		s0.4414062-0.2548828,0.7041016-0.3276367s0.5283203-0.109375,0.7949219-0.109375
		c0.3886719,0,0.7607422,0.0727539,1.1171875,0.21875c0.3554688,0.1455078,0.6386719,0.3881836,0.8496094,0.7280273
		L150.4814453,20.8481445z"/>
	<path fill="#CCCCCC" d="M155.5664062,20.8481445c-0.1289062-0.1616211-0.2890625-0.296875-0.4794922-0.40625
		c-0.1894531-0.109375-0.4228516-0.1640625-0.6972656-0.1640625c-0.2597656,0-0.484375,0.0546875-0.6738281,0.1640625
		c-0.1904297,0.109375-0.2851562,0.269043-0.2851562,0.4794922c0,0.1704102,0.0546875,0.3081055,0.1630859,0.4135742
		c0.109375,0.1044922,0.2392578,0.1894531,0.3886719,0.2548828c0.1494141,0.0644531,0.3095703,0.1132812,0.4794922,0.1455078
		s0.3154297,0.0605469,0.4375,0.0849609c0.234375,0.0566406,0.4550781,0.125,0.6611328,0.2060547
		s0.3847656,0.1865234,0.5341797,0.3154297c0.1494141,0.1298828,0.2666016,0.2880859,0.3515625,0.4736328
		c0.0849609,0.1865234,0.1279297,0.4130859,0.1279297,0.6796875c0,0.3242188-0.0693359,0.6005859-0.2060547,0.8320312
		c-0.1376953,0.2304688-0.3154297,0.4179688-0.5341797,0.5644531c-0.21875,0.1455078-0.4677734,0.25-0.7470703,0.3154297
		c-0.2792969,0.0644531-0.5605469,0.0966797-0.84375,0.0966797c-0.4775391,0-0.8955078-0.0722656-1.2558594-0.21875
		c-0.3603516-0.1455078-0.6816406-0.4121094-0.9648438-0.8007812l0.8251953-0.6796875
		c0.1777344,0.1777344,0.3759766,0.3359375,0.5947266,0.4736328s0.4853516,0.2060547,0.8007812,0.2060547
		c0.1376953,0,0.2773438-0.0136719,0.4189453-0.0419922s0.2675781-0.0732422,0.3769531-0.1337891
		c0.1083984-0.0605469,0.1982422-0.1376953,0.2666016-0.2304688c0.0683594-0.09375,0.1035156-0.2001953,0.1035156-0.3222656
		c0-0.1611328-0.0507812-0.2949219-0.1523438-0.4003906c-0.1005859-0.1054688-0.2226562-0.1884766-0.3642578-0.2490234
		s-0.2910156-0.109375-0.4482422-0.1455078c-0.1582031-0.0361328-0.2978516-0.0664062-0.4189453-0.0908203
		c-0.2353516-0.0566406-0.4580078-0.1210938-0.6679688-0.1943359c-0.2109375-0.0732422-0.3964844-0.1699219-0.5585938-0.2910156
		c-0.1621094-0.1220703-0.2910156-0.2753906-0.3876953-0.4619141c-0.0976562-0.1855469-0.1464844-0.4160156-0.1464844-0.6914062
		c0-0.2998047,0.0625-0.5610352,0.1884766-0.7836914c0.125-0.222168,0.2910156-0.4067383,0.4980469-0.5522461
		c0.2060547-0.1455078,0.4404297-0.2548828,0.7041016-0.3276367c0.2626953-0.0727539,0.5273438-0.109375,0.7949219-0.109375
		c0.3886719,0,0.7607422,0.0727539,1.1162109,0.21875c0.3564453,0.1455078,0.6396484,0.3881836,0.8496094,0.7280273
		L155.5664062,20.8481445z"/>
	<path fill="#CCCCCC" d="M157.4238281,17.340332c0-0.2182617,0.0791016-0.40625,0.2363281-0.5644531
		c0.1582031-0.1577148,0.3466797-0.2363281,0.5644531-0.2363281c0.21875,0,0.4072266,0.0786133,0.5644531,0.2363281
		c0.1582031,0.1582031,0.2373047,0.3461914,0.2373047,0.5644531c0,0.21875-0.0791016,0.4067383-0.2373047,0.5644531
		c-0.1572266,0.1577148-0.3457031,0.2368164-0.5644531,0.2368164c-0.2177734,0-0.40625-0.0791016-0.5644531-0.2368164
		C157.5029297,17.7470703,157.4238281,17.559082,157.4238281,17.340332z M157.6787109,19.4038086h1.0927734v5.7543945h-1.0927734
		V19.4038086z"/>
	<path fill="#CCCCCC" d="M165.96875,25.109375c0,0.4375-0.0751953,0.8359375-0.2246094,1.1962891
		c-0.1494141,0.359375-0.3623047,0.6708984-0.6367188,0.9345703c-0.2753906,0.2626953-0.6074219,0.4667969-0.9960938,0.6123047
		c-0.3876953,0.1464844-0.8173828,0.21875-1.2861328,0.21875c-0.5507812,0-1.0546875-0.0771484-1.5117188-0.2304688
		c-0.4570312-0.1542969-0.8916016-0.4208984-1.3046875-0.8007812l0.7402344-0.9228516
		c0.2832031,0.3076172,0.5908203,0.5400391,0.9228516,0.6982422c0.3320312,0.1572266,0.7080078,0.2363281,1.1289062,0.2363281
		c0.4042969,0,0.7402344-0.0585938,1.0078125-0.1757812c0.2666016-0.1171875,0.4794922-0.2695312,0.6367188-0.4550781
		c0.1582031-0.1865234,0.2695312-0.3994141,0.3339844-0.6376953s0.0966797-0.4794922,0.0966797-0.7216797v-0.8505859h-0.0361328
		c-0.2099609,0.3486328-0.4951172,0.6054688-0.8554688,0.7714844s-0.7382812,0.2490234-1.1347656,0.2490234
		c-0.4208984,0-0.8115234-0.0751953-1.171875-0.2246094c-0.3603516-0.1503906-0.6699219-0.3564453-0.9287109-0.6191406
		s-0.4609375-0.5751953-0.6064453-0.9345703c-0.1455078-0.3603516-0.21875-0.7509766-0.21875-1.171875
		s0.0683594-0.8154297,0.2060547-1.1835938c0.1376953-0.3686523,0.3339844-0.6899414,0.5888672-0.965332
		c0.2548828-0.2749023,0.5625-0.4892578,0.9228516-0.6435547c0.3603516-0.1533203,0.7626953-0.2304688,1.2080078-0.2304688
		c0.3876953,0,0.7666016,0.0849609,1.1347656,0.2548828s0.6572266,0.4086914,0.8681641,0.7163086h0.0234375v-0.8256836h1.0927734
		V25.109375z M162.9824219,20.277832c-0.2910156,0-0.5537109,0.0507812-0.7890625,0.1518555
		c-0.234375,0.1015625-0.4326172,0.2387695-0.5947266,0.4125977c-0.1611328,0.1743164-0.2871094,0.3852539-0.3759766,0.6323242
		c-0.0888672,0.2460938-0.1337891,0.515625-0.1337891,0.8066406c0,0.5830078,0.1699219,1.0498047,0.5097656,1.4023438
		c0.3398438,0.3515625,0.8017578,0.5273438,1.3837891,0.5273438c0.5830078,0,1.0439453-0.1757812,1.3837891-0.5273438
		c0.3398438-0.3525391,0.5097656-0.8193359,0.5097656-1.4023438c0-0.2910156-0.0439453-0.5605469-0.1328125-0.8066406
		c-0.0898438-0.2470703-0.2148438-0.4580078-0.3769531-0.6323242c-0.1611328-0.1738281-0.359375-0.3110352-0.5947266-0.4125977
		C163.5371094,20.3286133,163.2744141,20.277832,162.9824219,20.277832z"/>
	<path fill="#CCCCCC" d="M167.3164062,19.4038086h1.0927734v0.8862305h0.0244141
		c0.1367188-0.3071289,0.3759766-0.5561523,0.7158203-0.746582c0.3398438-0.1899414,0.7324219-0.2851562,1.1777344-0.2851562
		c0.2744141,0,0.5400391,0.0424805,0.7949219,0.1274414s0.4775391,0.2167969,0.6669922,0.3945312
		c0.1904297,0.1782227,0.3417969,0.4067383,0.4560547,0.6860352c0.1123047,0.2788086,0.1699219,0.6088867,0.1699219,0.9897461
		v3.7021484h-1.0927734v-3.3984375c0-0.2675781-0.0361328-0.4960938-0.109375-0.6865234
		c-0.0732422-0.1899414-0.1699219-0.3442383-0.2910156-0.4614258c-0.1220703-0.1171875-0.2617188-0.2021484-0.4189453-0.2548828
		c-0.1582031-0.0527344-0.3222656-0.0791016-0.4921875-0.0791016c-0.2265625,0-0.4365234,0.0366211-0.6308594,0.109375
		s-0.3642578,0.1879883-0.5097656,0.3461914c-0.1455078,0.1577148-0.2587891,0.3583984-0.3398438,0.6015625
		c-0.0810547,0.2421875-0.1210938,0.5292969-0.1210938,0.8613281v2.9619141h-1.0927734V19.4038086z"/>
	<path fill="#CCCCCC" d="M173.7617188,19.4038086h1.0195312v0.8984375h0.0244141
		c0.0244141-0.0805664,0.0869141-0.1821289,0.1884766-0.3032227c0.1005859-0.121582,0.2304688-0.2368164,0.3876953-0.3461914
		c0.1582031-0.109375,0.34375-0.2021484,0.5585938-0.2792969c0.2148438-0.0766602,0.4511719-0.1152344,0.7099609-0.1152344
		c0.4287109,0,0.7890625,0.0893555,1.0810547,0.2670898c0.2910156,0.1782227,0.5292969,0.4453125,0.7158203,0.8012695
		c0.1855469-0.355957,0.4492188-0.6230469,0.7890625-0.8012695c0.3398438-0.1777344,0.6835938-0.2670898,1.03125-0.2670898
		c0.4453125,0,0.8095703,0.0727539,1.0927734,0.21875c0.2832031,0.1455078,0.5058594,0.3378906,0.6679688,0.5761719
		c0.1611328,0.2392578,0.2724609,0.5102539,0.3339844,0.8134766c0.0605469,0.3041992,0.0908203,0.6176758,0.0908203,0.940918
		v3.3505859h-1.0927734v-3.2041016c0-0.21875-0.0136719-0.4296875-0.0419922-0.6318359
		c-0.0292969-0.2021484-0.0878906-0.3803711-0.1767578-0.534668c-0.0888672-0.1533203-0.2138672-0.2768555-0.3759766-0.3701172
		c-0.1621094-0.0927734-0.3759766-0.1396484-0.6435547-0.1396484c-0.5263672,0-0.9023438,0.1621094-1.1289062,0.4858398
		c-0.2265625,0.3242188-0.3398438,0.7412109-0.3398438,1.2509766v3.1435547h-1.0917969v-3.0107422
		c0-0.2744141-0.0146484-0.5253906-0.0429688-0.7519531s-0.0849609-0.4233398-0.1699219-0.5893555
		s-0.2060547-0.2954102-0.3642578-0.3886719c-0.1572266-0.0927734-0.3701172-0.1396484-0.6367188-0.1396484
		c-0.1943359,0-0.3828125,0.0385742-0.5644531,0.1157227c-0.1826172,0.0766602-0.3427734,0.1918945-0.4794922,0.3457031
		c-0.1376953,0.1538086-0.2470703,0.3505859-0.328125,0.5888672c-0.0810547,0.2392578-0.1210938,0.5205078-0.1210938,0.84375
		v2.9863281h-1.0927734V19.4038086z"/>
	<path fill="#CCCCCC" d="M184.6259766,22.6816406c0,0.2509766,0.0546875,0.4794922,0.1640625,0.6865234
		c0.1083984,0.2060547,0.2519531,0.3818359,0.4306641,0.5273438c0.1777344,0.1455078,0.3837891,0.2597656,0.6191406,0.3398438
		c0.234375,0.0810547,0.4775391,0.1220703,0.7275391,0.1220703c0.3408203,0,0.6357422-0.0791016,0.8867188-0.2373047
		c0.2509766-0.1572266,0.4814453-0.3662109,0.6914062-0.625l0.8261719,0.6308594
		c-0.6074219,0.7851562-1.4570312,1.1777344-2.5498047,1.1777344c-0.453125,0-0.8632812-0.0771484-1.2314453-0.2304688
		s-0.6796875-0.3662109-0.9345703-0.6376953c-0.2548828-0.2705078-0.4511719-0.5898438-0.5888672-0.9589844
		c-0.1376953-0.3681641-0.2070312-0.7666016-0.2070312-1.1953125s0.0751953-0.8271484,0.2246094-1.1953125
		c0.1503906-0.3686523,0.3564453-0.6884766,0.6191406-0.9594727c0.2636719-0.2709961,0.5771484-0.4833984,0.9414062-0.6376953
		c0.3642578-0.1533203,0.7597656-0.2304688,1.1894531-0.2304688c0.5097656,0,0.9404297,0.0893555,1.2929688,0.2670898
		c0.3515625,0.1782227,0.640625,0.4106445,0.8671875,0.6982422c0.2265625,0.2871094,0.390625,0.6108398,0.4921875,0.9716797
		c0.1005859,0.359375,0.1513672,0.7255859,0.1513672,1.0986328v0.3876953H184.6259766z M188.0732422,21.8076172
		c-0.0087891-0.2421875-0.046875-0.4648438-0.1152344-0.6679688c-0.0693359-0.2016602-0.171875-0.3779297-0.3095703-0.527832
		c-0.1376953-0.1494141-0.3095703-0.2670898-0.5166016-0.3520508c-0.2060547-0.0849609-0.4462891-0.1274414-0.7216797-0.1274414
		c-0.2675781,0-0.5117188,0.0507812-0.734375,0.1518555s-0.4111328,0.2324219-0.5644531,0.3945312
		c-0.1542969,0.1616211-0.2734375,0.3417969-0.3583984,0.5410156c-0.0849609,0.1982422-0.1269531,0.3935547-0.1269531,0.5878906
		H188.0732422z"/>
	<path fill="#CCCCCC" d="M190.2451172,19.4038086h1.0927734v0.8862305h0.0244141
		c0.1376953-0.3071289,0.3759766-0.5561523,0.7158203-0.746582c0.3398438-0.1899414,0.7324219-0.2851562,1.1777344-0.2851562
		c0.2753906,0,0.5400391,0.0424805,0.7949219,0.1274414s0.4775391,0.2167969,0.6679688,0.3945312
		c0.1904297,0.1782227,0.3417969,0.4067383,0.4550781,0.6860352c0.1132812,0.2788086,0.1699219,0.6088867,0.1699219,0.9897461
		v3.7021484h-1.0927734v-3.3984375c0-0.2675781-0.0361328-0.4960938-0.109375-0.6865234
		c-0.0722656-0.1899414-0.1699219-0.3442383-0.2910156-0.4614258s-0.2607422-0.2021484-0.4189453-0.2548828
		c-0.1572266-0.0527344-0.3212891-0.0791016-0.4912109-0.0791016c-0.2265625,0-0.4375,0.0366211-0.6308594,0.109375
		c-0.1943359,0.0727539-0.3642578,0.1879883-0.5097656,0.3461914c-0.1464844,0.1577148-0.2597656,0.3583984-0.3408203,0.6015625
		c-0.0800781,0.2421875-0.1210938,0.5292969-0.1210938,0.8613281v2.9619141h-1.0927734V19.4038086z"/>
	<path fill="#CCCCCC" d="M199.7744141,20.3510742h-1.5654297v2.6098633c0,0.1621094,0.0039062,0.3222656,0.0117188,0.4794922
		c0.0078125,0.1582031,0.0380859,0.2998047,0.0908203,0.4248047c0.0527344,0.1259766,0.1337891,0.2265625,0.2431641,0.3037109
		s0.2685547,0.1152344,0.4794922,0.1152344c0.1289062,0,0.2626953-0.0117188,0.4003906-0.0361328
		s0.2626953-0.0693359,0.3759766-0.1337891v0.9951172c-0.1289062,0.0732422-0.296875,0.1240234-0.5029297,0.1523438
		c-0.2070312,0.0283203-0.3662109,0.0419922-0.4794922,0.0419922c-0.4208984,0-0.7470703-0.0585938-0.9775391-0.1757812
		s-0.4003906-0.2685547-0.5097656-0.4550781s-0.1738281-0.3945312-0.1943359-0.625
		c-0.0205078-0.2314453-0.0302734-0.4638672-0.0302734-0.6982422v-2.9985352h-1.2626953v-0.9472656h1.2626953v-1.6142578h1.0927734
		v1.6142578h1.5654297V20.3510742z"/>
</g>
<path fill="none" stroke="#CCCCCC" stroke-miterlimit="10" d="M118.5,1c0,1.2611165,1.0223389,2.2834499,2.2834396,2.2834499
	c1.2611084,0,2.2834396-1.0223334,2.2834396-2.2834499"/>
<path fill="none" stroke="#CCCCCC" stroke-miterlimit="10" d="M124.8936386,5.0551014"/>
<path fill="none" stroke="#CCCCCC" stroke-miterlimit="10" d="M124.8936386,1c0,1.2611165,1.0223389,2.2834499,2.2834396,2.2834499
	c1.2611237,0,2.2834473-1.0223334,2.2834473-2.2834499"/>
<path fill="none" stroke="#37B34A" stroke-miterlimit="10" d="M131.2872772,5.0551014"/>
<path fill="none" stroke="#CCCCCC" stroke-miterlimit="10" d="M131.2872772,1c0,1.2611165,1.0223389,2.2834499,2.2834473,2.2834499
	S135.8541718,2.2611165,135.8541718,1"/>
<path fill="none" stroke="#CCCCCC" stroke-miterlimit="10" d="M118.5,13.9870892
	c0-1.261117,1.0223389-2.2834501,2.2834396-2.2834501c1.2611084,0,2.2834396,1.0223331,2.2834396,2.2834501"/>
<path fill="none" stroke="#CCCCCC" stroke-miterlimit="10" d="M124.8936386,13.9870892
	c0-1.261117,1.0223389-2.2834501,2.2834396-2.2834501c1.2611237,0,2.2834473,1.0223331,2.2834473,2.2834501"/>
<path fill="none" stroke="#CCCCCC" stroke-miterlimit="10" d="M131.2872772,13.9870892
	c0-1.261117,1.0223389-2.2834501,2.2834473-2.2834501s2.2834473,1.0223331,2.2834473,2.2834501"/>
<circle fill="none" stroke="#CCCCCC" stroke-miterlimit="10" cx="120.7834396" cy="7.5078197" r="2.283443"/>
<circle fill="none" stroke="#CCCCCC" stroke-miterlimit="10" cx="127.1770859" cy="7.5078197" r="2.283443"/>
<circle fill="#CCCCCC" stroke="#CCCCCC" stroke-miterlimit="10" cx="133.5707245" cy="7.5078197" r="2.283443"/>
<g>
</g>
<g>
</g>
<g>
</g>
<g>
</g>
<g>
</g>
<g>
</g>
<g>
</g>
<g>
</g>
<g>
</g>
<g>
</g>
<g>
</g>
<g>
</g>
<g>
</g>
<g>
</g>
<g>
</g>
</svg>
