<?xml version="1.0" encoding="utf-8"?>
<!-- Generator: Adobe Illustrator 17.1.0, SVG Export Plug-In . SVG Version: 6.00 Build 0)  -->
<!DOCTYPE svg PUBLIC "-//W3C//DTD SVG 1.1//EN" "http://www.w3.org/Graphics/SVG/1.1/DTD/svg11.dtd">
<svg version="1.1" id="Layer_1" xmlns="http://www.w3.org/2000/svg" xmlns:xlink="http://www.w3.org/1999/xlink" x="0px" y="0px"
	 width="240px" height="40px" viewBox="0 0 240 40" enable-background="new 0 0 240 40" xml:space="preserve">
<path fill="none" stroke="#979797" stroke-width="0.9915" stroke-miterlimit="10" d="M24.4,20.3"/>
<g>
	<path fill="#D9A4FC" d="M22.3,1h5c0.7,0,1.3,0.1,1.9,0.2c0.6,0.1,1.1,0.3,1.6,0.6c0.4,0.3,0.8,0.7,1.1,1.2c0.3,0.5,0.4,1.1,0.4,1.9
		c0,0.9-0.2,1.7-0.7,2.3s-1.2,1.1-2.1,1.2l3.3,5.5h-3.4l-2.7-5.2h-1.4V14h-2.9V1z M25.2,6.4h1.7c0.3,0,0.5,0,0.8,0s0.5-0.1,0.8-0.2
		c0.2-0.1,0.4-0.2,0.6-0.4s0.2-0.5,0.2-0.8c0-0.3-0.1-0.6-0.2-0.8c-0.1-0.2-0.3-0.3-0.5-0.5c-0.2-0.1-0.4-0.2-0.7-0.2
		c-0.3,0-0.5-0.1-0.8-0.1h-1.9V6.4z"/>
</g>
<path fill="none" stroke="#979797" stroke-width="0.9915" stroke-miterlimit="10" d="M24.5,20.3"/>
<g>
	<path fill="#D9A4FC" d="M22.5,16.6h3c0.6,0,1,0.1,1.4,0.2c0.4,0.1,0.6,0.3,0.8,0.6c0.2,0.2,0.4,0.5,0.4,0.8
		c0.1,0.3,0.1,0.6,0.1,0.8c0,0.3,0,0.5-0.1,0.8s-0.2,0.5-0.4,0.7c-0.2,0.2-0.4,0.4-0.7,0.5c-0.3,0.1-0.6,0.2-0.9,0.3l2.4,3.9h-1.5
		l-2.2-3.8h-1.3v3.8h-1.2V16.6z M23.6,20.4h1.5c0.2,0,0.5,0,0.7-0.1c0.2,0,0.4-0.1,0.6-0.2c0.2-0.1,0.3-0.2,0.4-0.4
		c0.1-0.2,0.2-0.4,0.2-0.7c0-0.3-0.1-0.5-0.2-0.7c-0.1-0.2-0.2-0.3-0.4-0.4c-0.2-0.1-0.4-0.2-0.6-0.2c-0.2,0-0.4-0.1-0.7-0.1h-1.5
		V20.4z"/>
	<path fill="#D9A4FC" d="M30.1,22.7c0,0.3,0.1,0.5,0.2,0.7c0.1,0.2,0.3,0.4,0.4,0.5c0.2,0.1,0.4,0.3,0.6,0.3
		c0.2,0.1,0.5,0.1,0.7,0.1c0.3,0,0.6-0.1,0.9-0.2c0.3-0.2,0.5-0.4,0.7-0.6l0.8,0.6c-0.6,0.8-1.5,1.2-2.5,1.2c-0.5,0-0.9-0.1-1.2-0.2
		s-0.7-0.4-0.9-0.6c-0.3-0.3-0.5-0.6-0.6-1C29,23.1,29,22.7,29,22.3s0.1-0.8,0.2-1.2c0.1-0.4,0.4-0.7,0.6-1s0.6-0.5,0.9-0.6
		c0.4-0.2,0.8-0.2,1.2-0.2c0.5,0,0.9,0.1,1.3,0.3c0.4,0.2,0.6,0.4,0.9,0.7c0.2,0.3,0.4,0.6,0.5,1c0.1,0.4,0.2,0.7,0.2,1.1v0.4H30.1z
		 M33.6,21.8c0-0.2,0-0.5-0.1-0.7c-0.1-0.2-0.2-0.4-0.3-0.5c-0.1-0.1-0.3-0.3-0.5-0.4c-0.2-0.1-0.4-0.1-0.7-0.1
		c-0.3,0-0.5,0.1-0.7,0.2s-0.4,0.2-0.6,0.4c-0.2,0.2-0.3,0.3-0.4,0.5c-0.1,0.2-0.1,0.4-0.1,0.6H33.6z"/>
	<path fill="#D9A4FC" d="M35.8,16h1.1v9.2h-1.1V16z"/>
	<path fill="#D9A4FC" d="M38.4,20.1c0.3-0.3,0.7-0.5,1.1-0.6c0.4-0.1,0.8-0.2,1.2-0.2c0.4,0,0.8,0.1,1.1,0.2
		c0.3,0.1,0.6,0.2,0.7,0.4c0.2,0.2,0.3,0.4,0.4,0.6s0.1,0.5,0.1,0.7v2.9c0,0.2,0,0.4,0,0.6c0,0.2,0,0.3,0,0.5h-1c0-0.3,0-0.6,0-0.9
		h0c-0.2,0.4-0.5,0.6-0.9,0.8c-0.3,0.2-0.7,0.2-1.2,0.2c-0.3,0-0.5,0-0.8-0.1c-0.2-0.1-0.5-0.2-0.6-0.3s-0.3-0.3-0.4-0.5
		c-0.1-0.2-0.2-0.5-0.2-0.7c0-0.4,0.1-0.7,0.2-0.9s0.4-0.5,0.7-0.6c0.3-0.2,0.6-0.3,1-0.3c0.4-0.1,0.8-0.1,1.2-0.1H42v-0.2
		c0-0.1,0-0.3-0.1-0.4c-0.1-0.1-0.1-0.3-0.3-0.4c-0.1-0.1-0.3-0.2-0.4-0.3c-0.2-0.1-0.4-0.1-0.6-0.1c-0.2,0-0.4,0-0.6,0.1
		c-0.2,0-0.3,0.1-0.4,0.2s-0.2,0.1-0.4,0.2c-0.1,0.1-0.2,0.2-0.3,0.2L38.4,20.1z M41.5,22.4c-0.3,0-0.5,0-0.8,0
		c-0.3,0-0.5,0.1-0.7,0.2c-0.2,0.1-0.4,0.2-0.5,0.3s-0.2,0.3-0.2,0.6c0,0.3,0.1,0.6,0.3,0.7c0.2,0.1,0.5,0.2,0.9,0.2
		c0.3,0,0.6,0,0.8-0.2s0.4-0.2,0.5-0.4s0.2-0.3,0.3-0.5s0.1-0.4,0.1-0.6v-0.4H41.5z"/>
	<path fill="#D9A4FC" d="M45.9,22.1l-2-2.7h1.4l1.4,2l1.4-2h1.3l-2,2.7l2.3,3.1h-1.4l-1.7-2.4l-1.7,2.4h-1.3L45.9,22.1z"/>
	<path fill="#D9A4FC" d="M50.4,20.1c0.3-0.3,0.7-0.5,1.1-0.6c0.4-0.1,0.8-0.2,1.2-0.2c0.4,0,0.8,0.1,1.1,0.2
		c0.3,0.1,0.6,0.2,0.7,0.4c0.2,0.2,0.3,0.4,0.4,0.6s0.1,0.5,0.1,0.7v2.9c0,0.2,0,0.4,0,0.6c0,0.2,0,0.3,0,0.5h-1c0-0.3,0-0.6,0-0.9
		h0c-0.2,0.4-0.5,0.6-0.9,0.8c-0.3,0.2-0.7,0.2-1.2,0.2c-0.3,0-0.5,0-0.8-0.1c-0.2-0.1-0.5-0.2-0.6-0.3s-0.3-0.3-0.4-0.5
		c-0.1-0.2-0.2-0.5-0.2-0.7c0-0.4,0.1-0.7,0.2-0.9s0.4-0.5,0.7-0.6c0.3-0.2,0.6-0.3,1-0.3c0.4-0.1,0.8-0.1,1.2-0.1H54v-0.2
		c0-0.1,0-0.3-0.1-0.4c-0.1-0.1-0.1-0.3-0.3-0.4c-0.1-0.1-0.3-0.2-0.4-0.3c-0.2-0.1-0.4-0.1-0.6-0.1c-0.2,0-0.4,0-0.6,0.1
		c-0.2,0-0.3,0.1-0.4,0.2s-0.2,0.1-0.4,0.2c-0.1,0.1-0.2,0.2-0.3,0.2L50.4,20.1z M53.4,22.4c-0.3,0-0.5,0-0.8,0
		c-0.3,0-0.5,0.1-0.7,0.2c-0.2,0.1-0.4,0.2-0.5,0.3s-0.2,0.3-0.2,0.6c0,0.3,0.1,0.6,0.3,0.7c0.2,0.1,0.5,0.2,0.9,0.2
		c0.3,0,0.6,0,0.8-0.2s0.4-0.2,0.5-0.4s0.2-0.3,0.3-0.5s0.1-0.4,0.1-0.6v-0.4H53.4z"/>
	<path fill="#D9A4FC" d="M59.4,20.4h-1.6V23c0,0.2,0,0.3,0,0.5c0,0.2,0,0.3,0.1,0.4c0.1,0.1,0.1,0.2,0.2,0.3
		c0.1,0.1,0.3,0.1,0.5,0.1c0.1,0,0.3,0,0.4,0c0.1,0,0.3-0.1,0.4-0.1v1c-0.1,0.1-0.3,0.1-0.5,0.2c-0.2,0-0.4,0-0.5,0
		c-0.4,0-0.7-0.1-1-0.2c-0.2-0.1-0.4-0.3-0.5-0.5c-0.1-0.2-0.2-0.4-0.2-0.6c0-0.2,0-0.5,0-0.7v-3h-1.3v-0.9h1.3v-1.6h1.1v1.6h1.6
		V20.4z"/>
	<path fill="#D9A4FC" d="M60.4,17.3c0-0.2,0.1-0.4,0.2-0.6c0.2-0.2,0.3-0.2,0.6-0.2c0.2,0,0.4,0.1,0.6,0.2c0.2,0.2,0.2,0.3,0.2,0.6
		c0,0.2-0.1,0.4-0.2,0.6s-0.3,0.2-0.6,0.2c-0.2,0-0.4-0.1-0.6-0.2S60.4,17.6,60.4,17.3z M60.6,19.4h1.1v5.8h-1.1V19.4z"/>
	<path fill="#D9A4FC" d="M62.9,22.3c0-0.4,0.1-0.8,0.2-1.2c0.2-0.4,0.4-0.7,0.6-1c0.3-0.3,0.6-0.5,1-0.6s0.8-0.2,1.2-0.2
		c0.4,0,0.8,0.1,1.2,0.2c0.4,0.2,0.7,0.4,1,0.6c0.3,0.3,0.5,0.6,0.6,1c0.2,0.4,0.2,0.8,0.2,1.2s-0.1,0.8-0.2,1.2s-0.4,0.7-0.6,1
		s-0.6,0.5-1,0.6c-0.4,0.2-0.8,0.2-1.2,0.2c-0.4,0-0.8-0.1-1.2-0.2c-0.4-0.2-0.7-0.4-1-0.6c-0.3-0.3-0.5-0.6-0.6-1
		C62.9,23.1,62.9,22.7,62.9,22.3z M64,22.3c0,0.3,0,0.6,0.1,0.8c0.1,0.2,0.2,0.5,0.4,0.6c0.2,0.2,0.4,0.3,0.6,0.4
		c0.2,0.1,0.5,0.2,0.8,0.2c0.3,0,0.6-0.1,0.8-0.2c0.2-0.1,0.4-0.2,0.6-0.4c0.2-0.2,0.3-0.4,0.4-0.6c0.1-0.2,0.1-0.5,0.1-0.8
		s0-0.6-0.1-0.8c-0.1-0.2-0.2-0.5-0.4-0.6c-0.2-0.2-0.4-0.3-0.6-0.4c-0.2-0.1-0.5-0.2-0.8-0.2c-0.3,0-0.6,0.1-0.8,0.2
		c-0.2,0.1-0.4,0.2-0.6,0.4c-0.2,0.2-0.3,0.4-0.4,0.6C64.1,21.7,64,22,64,22.3z"/>
	<path fill="#D9A4FC" d="M70,19.4h1.1v0.9h0c0.1-0.3,0.4-0.6,0.7-0.7c0.3-0.2,0.7-0.3,1.2-0.3c0.3,0,0.5,0,0.8,0.1s0.5,0.2,0.7,0.4
		c0.2,0.2,0.3,0.4,0.5,0.7c0.1,0.3,0.2,0.6,0.2,1v3.7H74v-3.4c0-0.3,0-0.5-0.1-0.7c-0.1-0.2-0.2-0.3-0.3-0.5
		c-0.1-0.1-0.3-0.2-0.4-0.3s-0.3-0.1-0.5-0.1c-0.2,0-0.4,0-0.6,0.1c-0.2,0.1-0.4,0.2-0.5,0.3c-0.1,0.2-0.3,0.4-0.3,0.6
		c-0.1,0.2-0.1,0.5-0.1,0.9v3H70V19.4z"/>
</g>
<path fill="none" stroke="#D9A4FC" stroke-miterlimit="10" d="M1.5,1c0,1.3,1,2.3,2.3,2.3s2.3-1,2.3-2.3"/>
<path fill="none" stroke="#D9A4FC" stroke-miterlimit="10" d="M7.9,5.1"/>
<path fill="none" stroke="#D9A4FC" stroke-miterlimit="10" d="M7.9,1c0,1.3,1,2.3,2.3,2.3c1.3,0,2.3-1,2.3-2.3"/>
<path fill="none" stroke="#37B34A" stroke-miterlimit="10" d="M14.3,5.1"/>
<path fill="none" stroke="#D9A4FC" stroke-miterlimit="10" d="M14.3,1c0,1.3,1,2.3,2.3,2.3c1.3,0,2.3-1,2.3-2.3"/>
<path fill="none" stroke="#D9A4FC" stroke-miterlimit="10" d="M1.5,14c0-1.3,1-2.3,2.3-2.3s2.3,1,2.3,2.3"/>
<path fill="none" stroke="#D9A4FC" stroke-miterlimit="10" d="M7.9,14c0-1.3,1-2.3,2.3-2.3c1.3,0,2.3,1,2.3,2.3"/>
<path fill="none" stroke="#D9A4FC" stroke-miterlimit="10" d="M14.3,14c0-1.3,1-2.3,2.3-2.3c1.3,0,2.3,1,2.3,2.3"/>
<circle fill="none" stroke="#D9A4FC" stroke-miterlimit="10" cx="3.8" cy="7.5" r="2.3"/>
<circle fill="none" stroke="#D9A4FC" stroke-miterlimit="10" cx="10.2" cy="7.5" r="2.3"/>
<circle fill="#D9A4FC" stroke="#D9A4FC" stroke-miterlimit="10" cx="16.6" cy="7.5" r="2.3"/>
<path fill="none" stroke="#979797" stroke-width="0.9915" stroke-miterlimit="10" d="M141.4,20.3"/>
<g>
	<path fill="#CCCCCC" d="M139.3,1h5c0.7,0,1.3,0.1,1.9,0.2c0.6,0.1,1.1,0.3,1.6,0.6c0.4,0.3,0.8,0.7,1.1,1.2
		c0.3,0.5,0.4,1.1,0.4,1.9c0,0.9-0.2,1.7-0.7,2.3s-1.2,1.1-2.1,1.2l3.3,5.5h-3.4l-2.7-5.2h-1.4V14h-2.9V1z M142.2,6.4h1.7
		c0.3,0,0.5,0,0.8,0s0.5-0.1,0.8-0.2c0.2-0.1,0.4-0.2,0.6-0.4s0.2-0.5,0.2-0.8c0-0.3-0.1-0.6-0.2-0.8c-0.1-0.2-0.3-0.3-0.5-0.5
		c-0.2-0.1-0.4-0.2-0.7-0.2c-0.3,0-0.5-0.1-0.8-0.1h-1.9V6.4z"/>
</g>
<path fill="none" stroke="#979797" stroke-width="0.9915" stroke-miterlimit="10" d="M141.5,20.3"/>
<g>
	<path fill="#CCCCCC" d="M139.5,16.6h3c0.6,0,1,0.1,1.4,0.2c0.4,0.1,0.6,0.3,0.8,0.6c0.2,0.2,0.4,0.5,0.4,0.8
		c0.1,0.3,0.1,0.6,0.1,0.8c0,0.3,0,0.5-0.1,0.8c-0.1,0.3-0.2,0.5-0.4,0.7c-0.2,0.2-0.4,0.4-0.7,0.5c-0.3,0.1-0.6,0.2-0.9,0.3
		l2.4,3.9h-1.5l-2.2-3.8h-1.3v3.8h-1.2V16.6z M140.6,20.4h1.5c0.2,0,0.5,0,0.7-0.1c0.2,0,0.4-0.1,0.6-0.2c0.2-0.1,0.3-0.2,0.4-0.4
		c0.1-0.2,0.2-0.4,0.2-0.7c0-0.3-0.1-0.5-0.2-0.7c-0.1-0.2-0.2-0.3-0.4-0.4c-0.2-0.1-0.4-0.2-0.6-0.2c-0.2,0-0.4-0.1-0.7-0.1h-1.5
		V20.4z"/>
	<path fill="#CCCCCC" d="M147.1,22.7c0,0.3,0.1,0.5,0.2,0.7c0.1,0.2,0.3,0.4,0.4,0.5c0.2,0.1,0.4,0.3,0.6,0.3
		c0.2,0.1,0.5,0.1,0.7,0.1c0.3,0,0.6-0.1,0.9-0.2c0.3-0.2,0.5-0.4,0.7-0.6l0.8,0.6c-0.6,0.8-1.5,1.2-2.5,1.2c-0.5,0-0.9-0.1-1.2-0.2
		s-0.7-0.4-0.9-0.6c-0.3-0.3-0.5-0.6-0.6-1c-0.1-0.4-0.2-0.8-0.2-1.2s0.1-0.8,0.2-1.2c0.2-0.4,0.4-0.7,0.6-1
		c0.3-0.3,0.6-0.5,0.9-0.6c0.4-0.2,0.8-0.2,1.2-0.2c0.5,0,0.9,0.1,1.3,0.3c0.4,0.2,0.6,0.4,0.9,0.7c0.2,0.3,0.4,0.6,0.5,1
		c0.1,0.4,0.2,0.7,0.2,1.1v0.4H147.1z M150.6,21.8c0-0.2,0-0.5-0.1-0.7c-0.1-0.2-0.2-0.4-0.3-0.5c-0.1-0.1-0.3-0.3-0.5-0.4
		c-0.2-0.1-0.4-0.1-0.7-0.1c-0.3,0-0.5,0.1-0.7,0.2s-0.4,0.2-0.6,0.4c-0.2,0.2-0.3,0.3-0.4,0.5c-0.1,0.2-0.1,0.4-0.1,0.6H150.6z"/>
	<path fill="#CCCCCC" d="M152.8,16h1.1v9.2h-1.1V16z"/>
	<path fill="#CCCCCC" d="M155.4,20.1c0.3-0.3,0.7-0.5,1.1-0.6c0.4-0.1,0.8-0.2,1.2-0.2c0.4,0,0.8,0.1,1.1,0.2
		c0.3,0.1,0.6,0.2,0.7,0.4c0.2,0.2,0.3,0.4,0.4,0.6c0.1,0.2,0.1,0.5,0.1,0.7v2.9c0,0.2,0,0.4,0,0.6s0,0.3,0,0.5h-1
		c0-0.3,0-0.6,0-0.9h0c-0.2,0.4-0.5,0.6-0.9,0.8c-0.3,0.2-0.7,0.2-1.2,0.2c-0.3,0-0.5,0-0.8-0.1c-0.2-0.1-0.5-0.2-0.6-0.3
		c-0.2-0.1-0.3-0.3-0.4-0.5c-0.1-0.2-0.2-0.5-0.2-0.7c0-0.4,0.1-0.7,0.2-0.9s0.4-0.5,0.7-0.6c0.3-0.2,0.6-0.3,1-0.3
		c0.4-0.1,0.8-0.1,1.2-0.1h0.8v-0.2c0-0.1,0-0.3-0.1-0.4c-0.1-0.1-0.1-0.3-0.3-0.4c-0.1-0.1-0.3-0.2-0.4-0.3
		c-0.2-0.1-0.4-0.1-0.6-0.1c-0.2,0-0.4,0-0.6,0.1c-0.2,0-0.3,0.1-0.4,0.2c-0.1,0.1-0.2,0.1-0.4,0.2c-0.1,0.1-0.2,0.2-0.3,0.2
		L155.4,20.1z M158.5,22.4c-0.3,0-0.5,0-0.8,0c-0.3,0-0.5,0.1-0.7,0.2c-0.2,0.1-0.4,0.2-0.5,0.3s-0.2,0.3-0.2,0.6
		c0,0.3,0.1,0.6,0.3,0.7c0.2,0.1,0.5,0.2,0.9,0.2c0.3,0,0.6,0,0.8-0.2c0.2-0.1,0.4-0.2,0.5-0.4c0.1-0.2,0.2-0.3,0.3-0.5
		s0.1-0.4,0.1-0.6v-0.4H158.5z"/>
	<path fill="#CCCCCC" d="M162.9,22.1l-2-2.7h1.4l1.4,2l1.4-2h1.3l-2,2.7l2.3,3.1h-1.4l-1.7-2.4l-1.7,2.4h-1.3L162.9,22.1z"/>
	<path fill="#CCCCCC" d="M167.4,20.1c0.3-0.3,0.7-0.5,1.1-0.6s0.8-0.2,1.2-0.2c0.4,0,0.8,0.1,1.1,0.2c0.3,0.1,0.6,0.2,0.7,0.4
		c0.2,0.2,0.3,0.4,0.4,0.6c0.1,0.2,0.1,0.5,0.1,0.7v2.9c0,0.2,0,0.4,0,0.6c0,0.2,0,0.3,0,0.5h-1c0-0.3,0-0.6,0-0.9h0
		c-0.2,0.4-0.5,0.6-0.9,0.8s-0.7,0.2-1.2,0.2c-0.3,0-0.5,0-0.8-0.1c-0.2-0.1-0.5-0.2-0.6-0.3c-0.2-0.1-0.3-0.3-0.4-0.5
		c-0.1-0.2-0.2-0.5-0.2-0.7c0-0.4,0.1-0.7,0.2-0.9s0.4-0.5,0.7-0.6c0.3-0.2,0.6-0.3,1-0.3c0.4-0.1,0.8-0.1,1.2-0.1h0.8v-0.2
		c0-0.1,0-0.3-0.1-0.4c-0.1-0.1-0.1-0.3-0.3-0.4c-0.1-0.1-0.3-0.2-0.4-0.3c-0.2-0.1-0.4-0.1-0.6-0.1c-0.2,0-0.4,0-0.6,0.1
		c-0.2,0-0.3,0.1-0.4,0.2c-0.1,0.1-0.2,0.1-0.4,0.2c-0.1,0.1-0.2,0.2-0.3,0.2L167.4,20.1z M170.4,22.4c-0.3,0-0.5,0-0.8,0
		c-0.3,0-0.5,0.1-0.7,0.2c-0.2,0.1-0.4,0.2-0.5,0.3s-0.2,0.3-0.2,0.6c0,0.3,0.1,0.6,0.3,0.7c0.2,0.1,0.5,0.2,0.9,0.2
		c0.3,0,0.6,0,0.8-0.2c0.2-0.1,0.4-0.2,0.5-0.4c0.1-0.2,0.2-0.3,0.3-0.5s0.1-0.4,0.1-0.6v-0.4H170.4z"/>
	<path fill="#CCCCCC" d="M176.4,20.4h-1.6V23c0,0.2,0,0.3,0,0.5c0,0.2,0,0.3,0.1,0.4c0.1,0.1,0.1,0.2,0.2,0.3s0.3,0.1,0.5,0.1
		c0.1,0,0.3,0,0.4,0s0.3-0.1,0.4-0.1v1c-0.1,0.1-0.3,0.1-0.5,0.2c-0.2,0-0.4,0-0.5,0c-0.4,0-0.7-0.1-1-0.2s-0.4-0.3-0.5-0.5
		s-0.2-0.4-0.2-0.6c0-0.2,0-0.5,0-0.7v-3h-1.3v-0.9h1.3v-1.6h1.1v1.6h1.6V20.4z"/>
	<path fill="#CCCCCC" d="M177.4,17.3c0-0.2,0.1-0.4,0.2-0.6c0.2-0.2,0.3-0.2,0.6-0.2c0.2,0,0.4,0.1,0.6,0.2c0.2,0.2,0.2,0.3,0.2,0.6
		c0,0.2-0.1,0.4-0.2,0.6c-0.2,0.2-0.3,0.2-0.6,0.2c-0.2,0-0.4-0.1-0.6-0.2C177.4,17.7,177.4,17.6,177.4,17.3z M177.6,19.4h1.1v5.8
		h-1.1V19.4z"/>
	<path fill="#CCCCCC" d="M179.9,22.3c0-0.4,0.1-0.8,0.2-1.2c0.2-0.4,0.4-0.7,0.6-1c0.3-0.3,0.6-0.5,1-0.6s0.8-0.2,1.2-0.2
		s0.8,0.1,1.2,0.2c0.4,0.2,0.7,0.4,1,0.6c0.3,0.3,0.5,0.6,0.6,1c0.2,0.4,0.2,0.8,0.2,1.2s-0.1,0.8-0.2,1.2c-0.2,0.4-0.4,0.7-0.6,1
		c-0.3,0.3-0.6,0.5-1,0.6c-0.4,0.2-0.8,0.2-1.2,0.2s-0.8-0.1-1.2-0.2c-0.4-0.2-0.7-0.4-1-0.6s-0.5-0.6-0.6-1S179.9,22.7,179.9,22.3z
		 M181,22.3c0,0.3,0,0.6,0.1,0.8c0.1,0.2,0.2,0.5,0.4,0.6s0.4,0.3,0.6,0.4c0.2,0.1,0.5,0.2,0.8,0.2s0.6-0.1,0.8-0.2
		c0.2-0.1,0.4-0.2,0.6-0.4s0.3-0.4,0.4-0.6s0.1-0.5,0.1-0.8s0-0.6-0.1-0.8c-0.1-0.2-0.2-0.5-0.4-0.6c-0.2-0.2-0.4-0.3-0.6-0.4
		c-0.2-0.1-0.5-0.2-0.8-0.2s-0.6,0.1-0.8,0.2c-0.2,0.1-0.4,0.2-0.6,0.4c-0.2,0.2-0.3,0.4-0.4,0.6C181.1,21.7,181,22,181,22.3z"/>
	<path fill="#CCCCCC" d="M187,19.4h1.1v0.9h0c0.1-0.3,0.4-0.6,0.7-0.7c0.3-0.2,0.7-0.3,1.2-0.3c0.3,0,0.5,0,0.8,0.1s0.5,0.2,0.7,0.4
		c0.2,0.2,0.3,0.4,0.5,0.7c0.1,0.3,0.2,0.6,0.2,1v3.7H191v-3.4c0-0.3,0-0.5-0.1-0.7c-0.1-0.2-0.2-0.3-0.3-0.5
		c-0.1-0.1-0.3-0.2-0.4-0.3c-0.2-0.1-0.3-0.1-0.5-0.1c-0.2,0-0.4,0-0.6,0.1s-0.4,0.2-0.5,0.3c-0.1,0.2-0.3,0.4-0.3,0.6
		c-0.1,0.2-0.1,0.5-0.1,0.9v3H187V19.4z"/>
</g>
<path fill="none" stroke="#CCCCCC" stroke-miterlimit="10" d="M118.5,1c0,1.3,1,2.3,2.3,2.3c1.3,0,2.3-1,2.3-2.3"/>
<path fill="none" stroke="#CCCCCC" stroke-miterlimit="10" d="M124.9,5.1"/>
<path fill="none" stroke="#CCCCCC" stroke-miterlimit="10" d="M124.9,1c0,1.3,1,2.3,2.3,2.3c1.3,0,2.3-1,2.3-2.3"/>
<path fill="none" stroke="#37B34A" stroke-miterlimit="10" d="M131.3,5.1"/>
<path fill="none" stroke="#CCCCCC" stroke-miterlimit="10" d="M131.3,1c0,1.3,1,2.3,2.3,2.3s2.3-1,2.3-2.3"/>
<path fill="none" stroke="#CCCCCC" stroke-miterlimit="10" d="M118.5,14c0-1.3,1-2.3,2.3-2.3c1.3,0,2.3,1,2.3,2.3"/>
<path fill="none" stroke="#CCCCCC" stroke-miterlimit="10" d="M124.9,14c0-1.3,1-2.3,2.3-2.3c1.3,0,2.3,1,2.3,2.3"/>
<path fill="none" stroke="#CCCCCC" stroke-miterlimit="10" d="M131.3,14c0-1.3,1-2.3,2.3-2.3s2.3,1,2.3,2.3"/>
<circle fill="none" stroke="#CCCCCC" stroke-miterlimit="10" cx="120.8" cy="7.5" r="2.3"/>
<circle fill="none" stroke="#CCCCCC" stroke-miterlimit="10" cx="127.2" cy="7.5" r="2.3"/>
<circle fill="#CCCCCC" stroke="#CCCCCC" stroke-miterlimit="10" cx="133.6" cy="7.5" r="2.3"/>
<g>
</g>
<g>
</g>
<g>
</g>
<g>
</g>
<g>
</g>
<g>
</g>
<g>
</g>
<g>
</g>
<g>
</g>
<g>
</g>
<g>
</g>
<g>
</g>
<g>
</g>
<g>
</g>
<g>
</g>
</svg>
