<?xml version="1.0" encoding="utf-8"?>
<!-- Generator: Adobe Illustrator 17.1.0, SVG Export Plug-In . SVG Version: 6.00 Build 0)  -->
<!DOCTYPE svg PUBLIC "-//W3C//DTD SVG 1.1//EN" "http://www.w3.org/Graphics/SVG/1.1/DTD/svg11.dtd">
<svg version="1.1" id="Layer_1" xmlns="http://www.w3.org/2000/svg" xmlns:xlink="http://www.w3.org/1999/xlink" x="0px" y="0px"
	 width="240px" height="40px" viewBox="0 0 240 40" enable-background="new 0 0 240 40" xml:space="preserve">
<path fill="none" stroke="#979797" stroke-width="0.9915338" stroke-miterlimit="10" d="M24.4307995,20.3267651"/>
<g>
	<path fill="#06EDE1" d="M28.7866211,4.1552734c-0.2329102-0.2944336-0.5488281-0.512207-0.9472656-0.6533203
		c-0.3989258-0.1411133-0.7763672-0.2119141-1.1318359-0.2119141c-0.2089844,0-0.4233398,0.0249023-0.644043,0.0737305
		C25.8422852,3.4130859,25.6337891,3.4897461,25.4375,3.59375c-0.1962891,0.1044922-0.355957,0.2426758-0.4785156,0.4140625
		c-0.1225586,0.171875-0.184082,0.3803711-0.184082,0.6259766c0,0.3925781,0.1474609,0.6928711,0.4418945,0.9013672
		c0.2944336,0.2089844,0.6655273,0.3867188,1.1132812,0.5336914c0.4477539,0.1474609,0.9291992,0.2944336,1.4448242,0.4418945
		c0.5151367,0.1469727,0.996582,0.355957,1.4443359,0.6254883c0.4477539,0.2700195,0.8188477,0.6323242,1.1132812,1.0859375
		c0.2944336,0.4541016,0.4418945,1.0610352,0.4418945,1.8217773c0,0.7241211-0.1352539,1.355957-0.4047852,1.8955078
		c-0.2700195,0.5400391-0.6352539,0.987793-1.0952148,1.3432617c-0.4599609,0.355957-0.9936523,0.6196289-1.6010742,0.7915039
		c-0.6069336,0.1713867-1.2485352,0.2573242-1.9228516,0.2573242c-0.8466797,0-1.6318359-0.128418-2.3554688-0.3862305
		c-0.7241211-0.2578125-1.3989258-0.6748047-2.0244141-1.2514648l2.0424805-2.2451172
		c0.2944336,0.3930664,0.6655273,0.6962891,1.1137695,0.9111328c0.4477539,0.2148438,0.9106445,0.3217773,1.3891602,0.3217773
		c0.2329102,0,0.4692383-0.0273438,0.7084961-0.0825195s0.4536133-0.1381836,0.644043-0.2485352
		c0.1899414-0.1103516,0.3432617-0.2514648,0.4599609-0.4233398s0.1748047-0.3740234,0.1748047-0.6074219
		c0-0.3920898-0.1503906-0.7021484-0.4506836-0.9291992c-0.3007812-0.2270508-0.6782227-0.4199219-1.1318359-0.5795898
		c-0.4541016-0.1591797-0.9448242-0.3188477-1.472168-0.4785156c-0.5273438-0.1591797-1.0185547-0.3740234-1.472168-0.644043
		c-0.4541016-0.2695312-0.8310547-0.6254883-1.1318359-1.0673828s-0.4506836-1.0244141-0.4506836-1.7480469
		c0-0.699707,0.1381836-1.3129883,0.4140625-1.840332s0.644043-0.9692383,1.1040039-1.3251953
		c0.4599609-0.3554688,0.9907227-0.6225586,1.5917969-0.800293s1.2207031-0.2670898,1.8588867-0.2670898
		c0.7358398,0,1.4472656,0.1044922,2.1347656,0.3129883c0.6865234,0.2089844,1.3061523,0.5585938,1.8583984,1.0488281
		L28.7866211,4.1552734z"/>
	<path fill="#06EDE1" d="M31.6206055,0.9716797h3.2758789l3.2202148,8.5385742h0.0371094l3.2753906-8.5385742h3.0732422
		l-5.3735352,13.0288086h-2.300293L31.6206055,0.9716797z"/>
</g>
<path fill="none" stroke="#979797" stroke-width="0.9915338" stroke-miterlimit="10" d="M24.5442295,20.2938766"/>
<g>
	<path fill="#06EDE1" d="M22.7138672,23.3613281c0.2104492,0.3164062,0.4794922,0.5488281,0.8071289,0.6982422
		c0.328125,0.1503906,0.6655273,0.2246094,1.0136719,0.2246094c0.1943359,0,0.3925781-0.0302734,0.5947266-0.0908203
		s0.3867188-0.1523438,0.5527344-0.2734375c0.1655273-0.1210938,0.3012695-0.2705078,0.40625-0.4492188
		c0.1054688-0.1777344,0.1577148-0.3837891,0.1577148-0.6191406c0-0.3310547-0.1049805-0.5839844-0.3154297-0.7587891
		c-0.2104492-0.1738281-0.4716797-0.3193359-0.7827148-0.4365234c-0.3120117-0.1171875-0.6518555-0.2304688-1.0200195-0.3398438
		s-0.7080078-0.2607422-1.0195312-0.4555664c-0.3115234-0.1943359-0.5722656-0.4555664-0.7827148-0.7832031
		s-0.315918-0.7705078-0.315918-1.3291016c0-0.2504883,0.0546875-0.5175781,0.1640625-0.8012695
		c0.109375-0.2832031,0.28125-0.5419922,0.5161133-0.7768555c0.234375-0.234375,0.5356445-0.4306641,0.9042969-0.5883789
		c0.3681641-0.1582031,0.8110352-0.2368164,1.3291016-0.2368164c0.4692383,0,0.918457,0.0649414,1.347168,0.1943359
		s0.8051758,0.3925781,1.1289062,0.7885742l-0.9467773,0.8618164c-0.1455078-0.2260742-0.3520508-0.4082031-0.6191406-0.5458984
		S25.2631836,17.4375,24.9233398,17.4375c-0.3237305,0-0.5927734,0.0424805-0.8071289,0.1274414
		c-0.2148438,0.0849609-0.3867188,0.1943359-0.5161133,0.3276367c-0.1293945,0.1337891-0.2207031,0.2773438-0.2729492,0.4311523
		c-0.0527344,0.1538086-0.0791016,0.2954102-0.0791016,0.4248047c0,0.3642578,0.1049805,0.6435547,0.3154297,0.8374023
		c0.2104492,0.1943359,0.4716797,0.3520508,0.7832031,0.4736328c0.3115234,0.1210938,0.6513672,0.2304688,1.0195312,0.3276367
		s0.7080078,0.2329102,1.0195312,0.4067383c0.3115234,0.1733398,0.5727539,0.4091797,0.7832031,0.7041016
		c0.2104492,0.2958984,0.3154297,0.7021484,0.3154297,1.2207031c0,0.4121094-0.0786133,0.7841797-0.2368164,1.1162109
		c-0.1577148,0.3320312-0.3701172,0.6113281-0.637207,0.8378906s-0.5825195,0.4003906-0.9467773,0.5214844
		c-0.3642578,0.1220703-0.7524414,0.1826172-1.1650391,0.1826172c-0.5507812,0-1.0727539-0.0976562-1.565918-0.2919922
		c-0.4936523-0.1933594-0.8862305-0.4931641-1.1777344-0.8974609L22.7138672,23.3613281z"/>
	<path fill="#06EDE1" d="M31.7089844,20.3510742h-1.565918v2.6098633c0,0.1621094,0.0039062,0.3222656,0.012207,0.4794922
		c0.0078125,0.1582031,0.0380859,0.2998047,0.0908203,0.4248047c0.0527344,0.1259766,0.1337891,0.2265625,0.2426758,0.3037109
		c0.109375,0.0771484,0.269043,0.1152344,0.4794922,0.1152344c0.1293945,0,0.2631836-0.0117188,0.4008789-0.0361328
		c0.137207-0.0244141,0.2626953-0.0693359,0.3759766-0.1337891v0.9951172
		c-0.1293945,0.0732422-0.2973633,0.1240234-0.503418,0.1523438c-0.206543,0.0283203-0.3662109,0.0419922-0.4794922,0.0419922
		c-0.4208984,0-0.746582-0.0585938-0.9770508-0.1757812c-0.230957-0.1171875-0.4008789-0.2685547-0.5102539-0.4550781
		c-0.1088867-0.1865234-0.1738281-0.3945312-0.1938477-0.625c-0.0205078-0.2314453-0.0302734-0.4638672-0.0302734-0.6982422
		v-2.9985352h-1.2626953v-0.9472656h1.2626953v-1.6142578h1.0922852v1.6142578h1.565918V20.3510742z"/>
	<path fill="#06EDE1" d="M32.8129883,19.4038086h1.0927734v0.8862305h0.0244141
		c0.0727539-0.1533203,0.1699219-0.2929688,0.2910156-0.418457c0.121582-0.1254883,0.2568359-0.2329102,0.4067383-0.3217773
		c0.1494141-0.0888672,0.3134766-0.159668,0.4916992-0.2124023c0.1777344-0.0527344,0.355957-0.0791016,0.5341797-0.0791016
		c0.1777344,0,0.3398438,0.0244141,0.4853516,0.0727539l-0.0483398,1.1777344
		c-0.0893555-0.0244141-0.1782227-0.0444336-0.2670898-0.0610352c-0.0893555-0.0161133-0.1782227-0.0239258-0.2670898-0.0239258
		c-0.5341797,0-0.9428711,0.1499023-1.2260742,0.449707c-0.2832031,0.2993164-0.4248047,0.7641602-0.4248047,1.3959961v2.8886719
		h-1.0927734V19.4038086z"/>
	<path fill="#06EDE1" d="M42.0996094,25.1582031h-1.0927734v-0.8857422h-0.0244141
		c-0.1376953,0.3076172-0.3759766,0.5556641-0.7158203,0.7460938s-0.7324219,0.2851562-1.1777344,0.2851562
		c-0.2832031,0-0.550293-0.0419922-0.8007812-0.1269531c-0.2509766-0.0849609-0.4716797-0.2167969-0.6616211-0.3945312
		c-0.1904297-0.1787109-0.3422852-0.4072266-0.4550781-0.6865234c-0.1137695-0.2792969-0.1704102-0.6083984-0.1704102-0.9892578
		v-3.7026367H38.09375v3.3999023c0,0.2666016,0.0361328,0.4951172,0.109375,0.6855469
		c0.0727539,0.1904297,0.1699219,0.34375,0.2910156,0.4609375c0.121582,0.1171875,0.2612305,0.2021484,0.4189453,0.2548828
		s0.3217773,0.0791016,0.4916992,0.0791016c0.2260742,0,0.4370117-0.0361328,0.6308594-0.109375
		c0.1943359-0.0722656,0.3642578-0.1875,0.5102539-0.3457031c0.1455078-0.1582031,0.2587891-0.3583984,0.3398438-0.6005859
		c0.0805664-0.2431641,0.1210938-0.5302734,0.1210938-0.8623047v-2.9624023h1.0927734V25.1582031z"/>
	<path fill="#06EDE1" d="M47.5615234,20.934082c-0.2026367-0.2109375-0.4150391-0.3706055-0.637207-0.4799805
		c-0.2226562-0.109375-0.487793-0.1640625-0.7954102-0.1640625c-0.2993164,0-0.5600586,0.0546875-0.7827148,0.1640625
		S44.9375,20.7128906,44.7875977,20.902832c-0.1494141,0.190918-0.2626953,0.409668-0.3398438,0.6567383
		c-0.0766602,0.2460938-0.1152344,0.5029297-0.1152344,0.7705078c0,0.2666016,0.0444336,0.5195312,0.1337891,0.7587891
		c0.0888672,0.2382812,0.2143555,0.4472656,0.3759766,0.625c0.1621094,0.1777344,0.355957,0.3173828,0.5830078,0.4189453
		c0.2260742,0.1005859,0.480957,0.1513672,0.7646484,0.1513672c0.3071289,0,0.5703125-0.0546875,0.7890625-0.1640625
		c0.2182617-0.109375,0.4204102-0.2685547,0.6069336-0.4794922l0.7768555,0.7773438
		c-0.2836914,0.3154297-0.6132812,0.5419922-0.9892578,0.6796875c-0.3764648,0.1376953-0.7753906,0.2060547-1.1958008,0.2060547
		c-0.4453125,0-0.8520508-0.0722656-1.2197266-0.21875c-0.3686523-0.1455078-0.6860352-0.3496094-0.953125-0.6123047
		s-0.4736328-0.5791016-0.6191406-0.9472656s-0.2182617-0.7744141-0.2182617-1.2197266s0.0727539-0.8535156,0.2182617-1.2265625
		c0.1455078-0.3720703,0.3500977-0.6918945,0.6132812-0.9589844c0.2626953-0.2670898,0.578125-0.4750977,0.9467773-0.625
		c0.3681641-0.1499023,0.7788086-0.2246094,1.2319336-0.2246094c0.4204102,0,0.8232422,0.074707,1.2075195,0.2246094
		s0.7182617,0.378418,1.0014648,0.6855469L47.5615234,20.934082z"/>
	<path fill="#06EDE1" d="M52.8051758,20.3510742h-1.565918v2.6098633c0,0.1621094,0.0039062,0.3222656,0.012207,0.4794922
		c0.0078125,0.1582031,0.0380859,0.2998047,0.0908203,0.4248047c0.0527344,0.1259766,0.1337891,0.2265625,0.2426758,0.3037109
		c0.109375,0.0771484,0.269043,0.1152344,0.4794922,0.1152344c0.1293945,0,0.2631836-0.0117188,0.4008789-0.0361328
		c0.137207-0.0244141,0.2626953-0.0693359,0.3759766-0.1337891v0.9951172
		c-0.1293945,0.0732422-0.2973633,0.1240234-0.503418,0.1523438c-0.206543,0.0283203-0.3662109,0.0419922-0.4794922,0.0419922
		c-0.4208984,0-0.746582-0.0585938-0.9770508-0.1757812c-0.230957-0.1171875-0.4008789-0.2685547-0.5102539-0.4550781
		c-0.1088867-0.1865234-0.1738281-0.3945312-0.1938477-0.625c-0.0205078-0.2314453-0.0302734-0.4638672-0.0302734-0.6982422
		v-2.9985352h-1.2626953v-0.9472656h1.2626953v-1.6142578h1.0922852v1.6142578h1.565918V20.3510742z"/>
	<path fill="#06EDE1" d="M59.0083008,25.1582031h-1.0927734v-0.8857422h-0.0244141
		c-0.1376953,0.3076172-0.3759766,0.5556641-0.7158203,0.7460938s-0.7324219,0.2851562-1.1777344,0.2851562
		c-0.2832031,0-0.550293-0.0419922-0.8007812-0.1269531c-0.2509766-0.0849609-0.4716797-0.2167969-0.6616211-0.3945312
		c-0.1904297-0.1787109-0.3422852-0.4072266-0.4550781-0.6865234c-0.1137695-0.2792969-0.1704102-0.6083984-0.1704102-0.9892578
		v-3.7026367h1.0927734v3.3999023c0,0.2666016,0.0361328,0.4951172,0.109375,0.6855469
		c0.0727539,0.1904297,0.1699219,0.34375,0.2910156,0.4609375c0.121582,0.1171875,0.2612305,0.2021484,0.4189453,0.2548828
		s0.3217773,0.0791016,0.4916992,0.0791016c0.2260742,0,0.4370117-0.0361328,0.6308594-0.109375
		c0.1943359-0.0722656,0.3642578-0.1875,0.5102539-0.3457031c0.1455078-0.1582031,0.2587891-0.3583984,0.3398438-0.6005859
		c0.0805664-0.2431641,0.1210938-0.5302734,0.1210938-0.8623047v-2.9624023h1.0927734V25.1582031z"/>
	<path fill="#06EDE1" d="M60.3549805,19.4038086h1.0927734v0.8862305h0.0244141
		c0.0727539-0.1533203,0.1699219-0.2929688,0.2910156-0.418457c0.121582-0.1254883,0.2568359-0.2329102,0.4067383-0.3217773
		c0.1494141-0.0888672,0.3134766-0.159668,0.4916992-0.2124023c0.1777344-0.0527344,0.355957-0.0791016,0.5341797-0.0791016
		c0.1777344,0,0.3398438,0.0244141,0.4853516,0.0727539l-0.0483398,1.1777344
		c-0.0893555-0.0244141-0.1782227-0.0444336-0.2670898-0.0610352c-0.0893555-0.0161133-0.1782227-0.0239258-0.2670898-0.0239258
		c-0.5341797,0-0.9428711,0.1499023-1.2260742,0.449707c-0.2832031,0.2993164-0.4248047,0.7641602-0.4248047,1.3959961v2.8886719
		h-1.0927734V19.4038086z"/>
	<path fill="#06EDE1" d="M65.1503906,22.6816406c0,0.2509766,0.0546875,0.4794922,0.1640625,0.6865234
		c0.1088867,0.2060547,0.2524414,0.3818359,0.4306641,0.5273438c0.1777344,0.1455078,0.3842773,0.2597656,0.6191406,0.3398438
		c0.234375,0.0810547,0.4775391,0.1220703,0.7280273,0.1220703c0.340332,0,0.6352539-0.0791016,0.8862305-0.2373047
		c0.2509766-0.1572266,0.4814453-0.3662109,0.6918945-0.625l0.8256836,0.6308594
		c-0.6069336,0.7851562-1.456543,1.1777344-2.5493164,1.1777344c-0.453125,0-0.8637695-0.0771484-1.2319336-0.2304688
		s-0.6796875-0.3662109-0.9345703-0.6376953c-0.2548828-0.2705078-0.4511719-0.5898438-0.5888672-0.9589844
		c-0.1376953-0.3681641-0.206543-0.7666016-0.206543-1.1953125s0.074707-0.8271484,0.2246094-1.1953125
		c0.1499023-0.3686523,0.355957-0.6884766,0.6191406-0.9594727s0.5766602-0.4833984,0.940918-0.6376953
		c0.3642578-0.1533203,0.7602539-0.2304688,1.1894531-0.2304688c0.5097656,0,0.940918,0.0893555,1.2929688,0.2670898
		c0.3520508,0.1782227,0.6411133,0.4106445,0.8676758,0.6982422c0.2265625,0.2871094,0.3901367,0.6108398,0.4916992,0.9716797
		c0.1010742,0.359375,0.1518555,0.7255859,0.1518555,1.0986328v0.3876953H65.1503906z M68.5976562,21.8076172
		c-0.0083008-0.2421875-0.0463867-0.4648438-0.1152344-0.6679688c-0.0688477-0.2016602-0.171875-0.3779297-0.3095703-0.527832
		c-0.1376953-0.1494141-0.3095703-0.2670898-0.5161133-0.3520508c-0.2060547-0.0849609-0.4467773-0.1274414-0.722168-0.1274414
		c-0.2670898,0-0.5117188,0.0507812-0.734375,0.1518555s-0.4106445,0.2324219-0.5644531,0.3945312
		c-0.1538086,0.1616211-0.2729492,0.3417969-0.3579102,0.5410156c-0.0849609,0.1982422-0.1274414,0.3935547-0.1274414,0.5878906
		H68.5976562z"/>
	<path fill="#06EDE1" d="M21.2817383,27.6914062h1.347168l2.5249023,6.9912109h0.0244141l2.6220703-6.9912109h1.2744141
		l-3.3867188,8.59375h-1.0922852L21.2817383,27.6914062z"/>
	<path fill="#06EDE1" d="M29.3774414,28.4677734c0-0.21875,0.0791016-0.40625,0.2368164-0.5644531
		c0.1577148-0.1572266,0.3461914-0.2363281,0.5644531-0.2363281c0.21875,0,0.4067383,0.0791016,0.5644531,0.2363281
		c0.1577148,0.1582031,0.2368164,0.3457031,0.2368164,0.5644531S30.9008789,28.875,30.7431641,29.0322266
		c-0.1577148,0.1582031-0.3457031,0.2373047-0.5644531,0.2373047c-0.2182617,0-0.4067383-0.0791016-0.5644531-0.2373047
		C29.456543,28.875,29.3774414,28.6865234,29.3774414,28.4677734z M29.6323242,30.53125h1.0927734v5.7539062h-1.0927734V30.53125z"
		/>
	<path fill="#06EDE1" d="M35.2163086,31.9755859c-0.1293945-0.1611328-0.2895508-0.296875-0.4794922-0.40625
		s-0.4228516-0.1640625-0.6977539-0.1640625c-0.2592773,0-0.4838867,0.0546875-0.6738281,0.1640625
		c-0.1904297,0.109375-0.2851562,0.2695312-0.2851562,0.4794922c0,0.1699219,0.0546875,0.3076172,0.1635742,0.4130859
		c0.109375,0.1044922,0.2387695,0.1894531,0.3886719,0.2548828c0.1494141,0.0644531,0.3095703,0.1132812,0.4794922,0.1455078
		s0.3154297,0.0605469,0.4370117,0.0849609c0.234375,0.0566406,0.4550781,0.125,0.6616211,0.2060547
		c0.2060547,0.0810547,0.3842773,0.1865234,0.5341797,0.3154297c0.1494141,0.1298828,0.2666016,0.2880859,0.3515625,0.4736328
		c0.0849609,0.1865234,0.1274414,0.4130859,0.1274414,0.6796875c0,0.3242188-0.0688477,0.6005859-0.2060547,0.8320312
		c-0.1376953,0.2304688-0.3154297,0.4179688-0.5341797,0.5644531c-0.2182617,0.1455078-0.4672852,0.25-0.746582,0.3154297
		c-0.2792969,0.0644531-0.5605469,0.0966797-0.84375,0.0966797c-0.4775391,0-0.8959961-0.0722656-1.2563477-0.21875
		c-0.3598633-0.1455078-0.6816406-0.4121094-0.9648438-0.8007812l0.8256836-0.6796875
		c0.1777344,0.1777344,0.3759766,0.3359375,0.5947266,0.4736328c0.2182617,0.1376953,0.4853516,0.2060547,0.8007812,0.2060547
		c0.1376953,0,0.2773438-0.0136719,0.4189453-0.0419922s0.2670898-0.0732422,0.3764648-0.1337891
		c0.1088867-0.0605469,0.1982422-0.1376953,0.2670898-0.2304688c0.0683594-0.09375,0.1030273-0.2001953,0.1030273-0.3222656
		c0-0.1611328-0.0507812-0.2949219-0.1518555-0.4003906s-0.2226562-0.1884766-0.3642578-0.2490234
		s-0.2910156-0.109375-0.4487305-0.1455078c-0.1582031-0.0361328-0.2973633-0.0664062-0.4189453-0.0908203
		c-0.2348633-0.0566406-0.4575195-0.1210938-0.6674805-0.1943359c-0.2109375-0.0732422-0.3969727-0.1699219-0.5585938-0.2910156
		c-0.1621094-0.1220703-0.2915039-0.2753906-0.3881836-0.4619141c-0.097168-0.1855469-0.1459961-0.4160156-0.1459961-0.6914062
		c0-0.2998047,0.0625-0.5605469,0.1884766-0.7832031c0.125-0.2226562,0.2910156-0.40625,0.4975586-0.5517578
		c0.2060547-0.1464844,0.440918-0.2548828,0.7041016-0.328125c0.2626953-0.0732422,0.527832-0.109375,0.7949219-0.109375
		c0.3886719,0,0.7607422,0.0732422,1.1166992,0.21875s0.6391602,0.3886719,0.8496094,0.7285156L35.2163086,31.9755859z"/>
	<path fill="#06EDE1" d="M42.3413086,36.2851562h-1.0927734v-0.8857422h-0.0244141
		c-0.1376953,0.3076172-0.3759766,0.5556641-0.7158203,0.7460938s-0.7324219,0.2851562-1.1777344,0.2851562
		c-0.2832031,0-0.550293-0.0419922-0.8007812-0.1269531c-0.2509766-0.0849609-0.4716797-0.2167969-0.6616211-0.3945312
		c-0.1904297-0.1787109-0.3422852-0.4072266-0.4550781-0.6865234c-0.1137695-0.2792969-0.1704102-0.6083984-0.1704102-0.9892578
		V30.53125h1.0927734v3.3994141c0,0.2666016,0.0361328,0.4951172,0.109375,0.6855469
		c0.0727539,0.1904297,0.1699219,0.34375,0.2910156,0.4609375c0.121582,0.1171875,0.2612305,0.2021484,0.4189453,0.2548828
		s0.3217773,0.0791016,0.4916992,0.0791016c0.2260742,0,0.4370117-0.0361328,0.6308594-0.109375
		c0.1943359-0.0722656,0.3642578-0.1875,0.5102539-0.3457031c0.1455078-0.1582031,0.2587891-0.3583984,0.3398438-0.6005859
		c0.0805664-0.2431641,0.1210938-0.5302734,0.1210938-0.8623047V30.53125h1.0927734V36.2851562z"/>
	<path fill="#06EDE1" d="M43.7128906,31.2353516c0.3076172-0.2832031,0.6635742-0.4951172,1.0683594-0.6367188
		c0.4042969-0.1416016,0.809082-0.2128906,1.2138672-0.2128906c0.4204102,0,0.7827148,0.0527344,1.0864258,0.1582031
		c0.3032227,0.1044922,0.5522461,0.2470703,0.746582,0.4248047c0.1938477,0.1777344,0.3374023,0.3818359,0.4306641,0.6123047
		c0.0932617,0.2314453,0.1396484,0.4716797,0.1396484,0.7226562v2.9375c0,0.2021484,0.0039062,0.3886719,0.012207,0.5585938
		c0.0078125,0.1699219,0.0200195,0.3320312,0.0361328,0.4853516h-0.9707031
		c-0.0244141-0.2910156-0.0366211-0.5830078-0.0366211-0.8740234h-0.0244141
		c-0.2426758,0.3720703-0.5297852,0.6357422-0.8618164,0.7890625c-0.331543,0.1533203-0.7158203,0.2304688-1.152832,0.2304688
		c-0.2670898,0-0.5219727-0.0361328-0.7646484-0.109375c-0.2431641-0.0722656-0.4555664-0.1816406-0.6376953-0.3271484
		s-0.3256836-0.3261719-0.4306641-0.5400391c-0.1054688-0.2148438-0.1577148-0.4638672-0.1577148-0.7470703
		c0-0.3720703,0.0825195-0.6835938,0.2485352-0.9345703s0.3925781-0.4550781,0.6796875-0.6132812
		c0.2875977-0.1572266,0.6230469-0.2705078,1.0078125-0.3398438c0.3842773-0.0683594,0.7949219-0.1025391,1.2319336-0.1025391
		h0.8012695v-0.2431641c0-0.1455078-0.0283203-0.2910156-0.0849609-0.4365234
		c-0.0566406-0.1464844-0.1416016-0.2773438-0.2548828-0.3945312c-0.1137695-0.1171875-0.2548828-0.2109375-0.4248047-0.2792969
		c-0.1699219-0.0693359-0.3725586-0.1035156-0.6069336-0.1035156c-0.2104492,0-0.3945312,0.0205078-0.5522461,0.0605469
		c-0.1582031,0.0410156-0.3017578,0.0908203-0.4311523,0.1523438c-0.1293945,0.0605469-0.2470703,0.1308594-0.3520508,0.2119141
		s-0.206543,0.1582031-0.3032227,0.2304688L43.7128906,31.2353516z M46.7963867,33.5175781
		c-0.2592773,0-0.5244141,0.0146484-0.7954102,0.0419922c-0.2709961,0.0292969-0.5180664,0.0839844-0.7402344,0.1640625
		c-0.2226562,0.0810547-0.4047852,0.1943359-0.5463867,0.3398438s-0.2124023,0.3320312-0.2124023,0.5585938
		c0,0.3320312,0.1113281,0.5703125,0.3339844,0.7158203c0.222168,0.1464844,0.5239258,0.21875,0.9042969,0.21875
		c0.2993164,0,0.5541992-0.0498047,0.7646484-0.1513672s0.3803711-0.2324219,0.5097656-0.3945312
		s0.2226562-0.3417969,0.2792969-0.5400391s0.0849609-0.3945312,0.0849609-0.5888672v-0.3642578H46.7963867z"/>
	<path fill="#06EDE1" d="M49.7695312,27.1083984h1.0927734v9.1767578h-1.0927734V27.1083984z"/>
	<path fill="#06EDE1" d="M52.1245117,28.4677734c0-0.21875,0.0791016-0.40625,0.2368164-0.5644531
		c0.1577148-0.1572266,0.3461914-0.2363281,0.5644531-0.2363281c0.21875,0,0.4067383,0.0791016,0.5644531,0.2363281
		c0.1577148,0.1582031,0.2368164,0.3457031,0.2368164,0.5644531S53.6479492,28.875,53.4902344,29.0322266
		c-0.1577148,0.1582031-0.3457031,0.2373047-0.5644531,0.2373047c-0.2182617,0-0.4067383-0.0791016-0.5644531-0.2373047
		C52.2036133,28.875,52.1245117,28.6865234,52.1245117,28.4677734z M52.3793945,30.53125h1.0927734v5.7539062h-1.0927734V30.53125z"
		/>
	<path fill="#06EDE1" d="M54.503418,35.3017578l3.2651367-3.8232422H54.612793V30.53125h4.4912109v0.9716797l-3.2895508,3.8349609
		h3.4594727v0.9472656H54.503418V35.3017578z"/>
	<path fill="#06EDE1" d="M60.2451172,31.2353516c0.3076172-0.2832031,0.6635742-0.4951172,1.0683594-0.6367188
		c0.4042969-0.1416016,0.809082-0.2128906,1.2138672-0.2128906c0.4204102,0,0.7827148,0.0527344,1.0864258,0.1582031
		c0.3032227,0.1044922,0.5522461,0.2470703,0.746582,0.4248047c0.1938477,0.1777344,0.3374023,0.3818359,0.4306641,0.6123047
		c0.0932617,0.2314453,0.1396484,0.4716797,0.1396484,0.7226562v2.9375c0,0.2021484,0.0039062,0.3886719,0.012207,0.5585938
		c0.0078125,0.1699219,0.0200195,0.3320312,0.0361328,0.4853516h-0.9707031
		c-0.0244141-0.2910156-0.0366211-0.5830078-0.0366211-0.8740234h-0.0244141
		c-0.2426758,0.3720703-0.5297852,0.6357422-0.8618164,0.7890625c-0.331543,0.1533203-0.7158203,0.2304688-1.152832,0.2304688
		c-0.2670898,0-0.5219727-0.0361328-0.7646484-0.109375c-0.2431641-0.0722656-0.4555664-0.1816406-0.6376953-0.3271484
		s-0.3256836-0.3261719-0.4306641-0.5400391c-0.1054688-0.2148438-0.1577148-0.4638672-0.1577148-0.7470703
		c0-0.3720703,0.0825195-0.6835938,0.2485352-0.9345703s0.3925781-0.4550781,0.6796875-0.6132812
		c0.2875977-0.1572266,0.6230469-0.2705078,1.0078125-0.3398438c0.3842773-0.0683594,0.7949219-0.1025391,1.2319336-0.1025391
		h0.8012695v-0.2431641c0-0.1455078-0.0283203-0.2910156-0.0849609-0.4365234
		c-0.0566406-0.1464844-0.1416016-0.2773438-0.2548828-0.3945312c-0.1137695-0.1171875-0.2548828-0.2109375-0.4248047-0.2792969
		c-0.1699219-0.0693359-0.3725586-0.1035156-0.6069336-0.1035156c-0.2104492,0-0.3945312,0.0205078-0.5522461,0.0605469
		c-0.1582031,0.0410156-0.3017578,0.0908203-0.4311523,0.1523438c-0.1293945,0.0605469-0.2470703,0.1308594-0.3520508,0.2119141
		s-0.206543,0.1582031-0.3032227,0.2304688L60.2451172,31.2353516z M63.3286133,33.5175781
		c-0.2592773,0-0.5244141,0.0146484-0.7954102,0.0419922c-0.2709961,0.0292969-0.5180664,0.0839844-0.7402344,0.1640625
		c-0.2226562,0.0810547-0.4047852,0.1943359-0.5463867,0.3398438s-0.2124023,0.3320312-0.2124023,0.5585938
		c0,0.3320312,0.1113281,0.5703125,0.3339844,0.7158203c0.222168,0.1464844,0.5239258,0.21875,0.9042969,0.21875
		c0.2993164,0,0.5541992-0.0498047,0.7646484-0.1513672s0.3803711-0.2324219,0.5097656-0.3945312
		s0.2226562-0.3417969,0.2792969-0.5400391s0.0849609-0.3945312,0.0849609-0.5888672v-0.3642578H63.3286133z"/>
	<path fill="#06EDE1" d="M69.300293,31.4785156h-1.565918v2.609375c0,0.1621094,0.0039062,0.3222656,0.012207,0.4794922
		c0.0078125,0.1582031,0.0380859,0.2998047,0.0908203,0.4248047c0.0527344,0.1259766,0.1337891,0.2265625,0.2426758,0.3037109
		c0.109375,0.0771484,0.269043,0.1152344,0.4794922,0.1152344c0.1293945,0,0.2631836-0.0117188,0.4008789-0.0361328
		c0.137207-0.0244141,0.2626953-0.0693359,0.3759766-0.1337891v0.9951172
		c-0.1293945,0.0732422-0.2973633,0.1240234-0.503418,0.1523438c-0.206543,0.0283203-0.3662109,0.0419922-0.4794922,0.0419922
		c-0.4208984,0-0.746582-0.0585938-0.9770508-0.1757812c-0.230957-0.1171875-0.4008789-0.2685547-0.5102539-0.4550781
		c-0.1088867-0.1865234-0.1738281-0.3945312-0.1938477-0.625c-0.0205078-0.2314453-0.0302734-0.4638672-0.0302734-0.6982422
		v-2.9980469h-1.2626953V30.53125h1.2626953v-1.6142578h1.0922852V30.53125h1.565918V31.4785156z"/>
	<path fill="#06EDE1" d="M70.2348633,28.4677734c0-0.21875,0.0791016-0.40625,0.2368164-0.5644531
		c0.1577148-0.1572266,0.3461914-0.2363281,0.5644531-0.2363281c0.21875,0,0.4067383,0.0791016,0.5644531,0.2363281
		c0.1577148,0.1582031,0.2368164,0.3457031,0.2368164,0.5644531S71.7583008,28.875,71.6005859,29.0322266
		c-0.1577148,0.1582031-0.3457031,0.2373047-0.5644531,0.2373047c-0.2182617,0-0.4067383-0.0791016-0.5644531-0.2373047
		C70.3139648,28.875,70.2348633,28.6865234,70.2348633,28.4677734z M70.4897461,30.53125h1.0927734v5.7539062h-1.0927734V30.53125z"
		/>
	<path fill="#06EDE1" d="M72.7353516,33.4082031c0-0.4208984,0.0786133-0.8134766,0.2363281-1.1777344
		c0.1582031-0.3632812,0.3745117-0.6835938,0.6494141-0.9589844c0.2753906-0.2744141,0.5991211-0.4912109,0.9711914-0.6494141
		c0.3720703-0.1572266,0.7729492-0.2363281,1.2016602-0.2363281c0.4291992,0,0.8295898,0.0791016,1.2016602,0.2363281
		c0.3725586,0.1582031,0.6962891,0.375,0.9711914,0.6494141c0.2749023,0.2753906,0.4916992,0.5957031,0.6494141,0.9589844
		c0.1577148,0.3642578,0.2368164,0.7568359,0.2368164,1.1777344s-0.0791016,0.8154297-0.2368164,1.1835938
		s-0.3745117,0.6875-0.6494141,0.9589844s-0.5986328,0.4853516-0.9711914,0.6435547
		c-0.3720703,0.1572266-0.7724609,0.2363281-1.2016602,0.2363281c-0.4287109,0-0.8295898-0.0791016-1.2016602-0.2363281
		c-0.3720703-0.1582031-0.6958008-0.3720703-0.9711914-0.6435547c-0.2749023-0.2714844-0.4912109-0.5908203-0.6494141-0.9589844
		C72.8139648,34.2236328,72.7353516,33.8291016,72.7353516,33.4082031z M73.9003906,33.4082031
		c0,0.2910156,0.0444336,0.5605469,0.1337891,0.8076172c0.0888672,0.2470703,0.2143555,0.4570312,0.3759766,0.6308594
		c0.1621094,0.1738281,0.3603516,0.3115234,0.5947266,0.4130859c0.2348633,0.1005859,0.4980469,0.1513672,0.7890625,0.1513672
		c0.2915039,0,0.5541992-0.0507812,0.7890625-0.1513672c0.2348633-0.1015625,0.4331055-0.2392578,0.5947266-0.4130859
		c0.1621094-0.1738281,0.2871094-0.3837891,0.3764648-0.6308594C77.6430664,33.96875,77.6875,33.6992188,77.6875,33.4082031
		s-0.0444336-0.5605469-0.1333008-0.8066406c-0.0893555-0.2470703-0.2143555-0.4580078-0.3764648-0.6318359
		c-0.1616211-0.1738281-0.3598633-0.3115234-0.5947266-0.4121094c-0.2348633-0.1015625-0.4975586-0.1523438-0.7890625-0.1523438
		c-0.2910156,0-0.5541992,0.0507812-0.7890625,0.1523438c-0.234375,0.1005859-0.4326172,0.2382812-0.5947266,0.4121094
		c-0.1616211,0.1738281-0.2871094,0.3847656-0.3759766,0.6318359
		C73.9448242,32.8476562,73.9003906,33.1171875,73.9003906,33.4082031z"/>
	<path fill="#06EDE1" d="M79.9213867,30.53125h1.0927734v0.8867188h0.0244141
		c0.137207-0.3076172,0.3759766-0.5566406,0.7158203-0.7470703c0.3398438-0.1894531,0.7324219-0.2851562,1.1777344-0.2851562
		c0.2749023,0,0.5400391,0.0429688,0.7949219,0.1279297s0.4775391,0.2158203,0.6674805,0.3945312
		c0.1904297,0.1777344,0.3417969,0.40625,0.4555664,0.6855469c0.112793,0.2792969,0.1699219,0.6083984,0.1699219,0.9892578
		v3.7021484h-1.0927734v-3.3984375c0-0.2675781-0.0361328-0.4960938-0.109375-0.6865234
		c-0.0727539-0.1894531-0.1699219-0.34375-0.2910156-0.4609375c-0.121582-0.1171875-0.2612305-0.2021484-0.4189453-0.2548828
		s-0.3217773-0.0791016-0.4916992-0.0791016c-0.2265625,0-0.4370117,0.0361328-0.6308594,0.109375
		c-0.1943359,0.0732422-0.3642578,0.1884766-0.5097656,0.3457031c-0.1459961,0.1582031-0.2592773,0.3583984-0.340332,0.6015625
		c-0.0805664,0.2421875-0.1210938,0.5292969-0.1210938,0.8613281v2.9619141h-1.0927734V30.53125z"/>
</g>
<path fill="none" stroke="#06EDE1" stroke-miterlimit="10" d="M1.5000036,1c0,1.2611165,1.0223334,2.2834499,2.2834394,2.2834499
	S6.0668826,2.2611165,6.0668826,1"/>
<path fill="none" stroke="#06EDE1" stroke-miterlimit="10" d="M7.8936405,5.0551014"/>
<path fill="none" stroke="#06EDE1" stroke-miterlimit="10" d="M7.8936405,1c0,1.2611165,1.0223331,2.2834499,2.2834396,2.2834499
	c1.261116,0,2.2834501-1.0223334,2.2834501-2.2834499"/>
<path fill="none" stroke="#37B34A" stroke-miterlimit="10" d="M14.2872772,5.0551014"/>
<path fill="none" stroke="#06EDE1" stroke-miterlimit="10" d="M14.2872772,1c0,1.2611165,1.0223331,2.2834499,2.2834492,2.2834499
	c1.2611065,0,2.2834396-1.0223334,2.2834396-2.2834499"/>
<path fill="none" stroke="#06EDE1" stroke-miterlimit="10" d="M1.5000036,13.9870892
	c0-1.261117,1.0223334-2.2834501,2.2834394-2.2834501s2.2834396,1.0223331,2.2834396,2.2834501"/>
<path fill="none" stroke="#06EDE1" stroke-miterlimit="10" d="M7.8936405,13.9870892
	c0-1.261117,1.0223331-2.2834501,2.2834396-2.2834501c1.261116,0,2.2834501,1.0223331,2.2834501,2.2834501"/>
<path fill="none" stroke="#06EDE1" stroke-miterlimit="10" d="M14.2872772,13.9870892
	c0-1.261117,1.0223331-2.2834501,2.2834492-2.2834501c1.2611065,0,2.2834396,1.0223331,2.2834396,2.2834501"/>
<circle fill="none" stroke="#06EDE1" stroke-miterlimit="10" cx="3.783443" cy="7.5078197" r="2.283443"/>
<circle fill="none" stroke="#06EDE1" stroke-miterlimit="10" cx="10.177083" cy="7.5078197" r="2.283443"/>
<circle fill="#06EDE1" stroke="#06EDE1" stroke-miterlimit="10" cx="16.5707226" cy="7.5078197" r="2.283443"/>
<path fill="none" stroke="#979797" stroke-width="0.9915338" stroke-miterlimit="10" d="M141.4308014,20.3267651"/>
<g>
	<path fill="#CCCCCC" d="M145.7861328,4.1552734c-0.2324219-0.2944336-0.5488281-0.512207-0.9472656-0.6533203
		s-0.7763672-0.2119141-1.1318359-0.2119141c-0.2089844,0-0.4228516,0.0249023-0.6435547,0.0737305
		c-0.2216797,0.0493164-0.4296875,0.1259766-0.6259766,0.2299805c-0.1962891,0.1044922-0.3564453,0.2426758-0.4785156,0.4140625
		c-0.1230469,0.171875-0.1845703,0.3803711-0.1845703,0.6259766c0,0.3925781,0.1474609,0.6928711,0.4423828,0.9013672
		c0.2939453,0.2089844,0.6650391,0.3867188,1.1132812,0.5336914c0.4472656,0.1474609,0.9287109,0.2944336,1.4443359,0.4418945
		c0.515625,0.1469727,0.9970703,0.355957,1.4443359,0.6254883c0.4482422,0.2700195,0.8193359,0.6323242,1.1132812,1.0859375
		c0.2949219,0.4541016,0.4423828,1.0610352,0.4423828,1.8217773c0,0.7241211-0.1357422,1.355957-0.4052734,1.8955078
		c-0.2695312,0.5400391-0.6347656,0.987793-1.0947266,1.3432617c-0.4599609,0.355957-0.9941406,0.6196289-1.6015625,0.7915039
		c-0.6064453,0.1713867-1.2480469,0.2573242-1.9228516,0.2573242c-0.8466797,0-1.6318359-0.128418-2.3554688-0.3862305
		s-1.3984375-0.6748047-2.0244141-1.2514648l2.0429688-2.2451172c0.2939453,0.3930664,0.6650391,0.6962891,1.1132812,0.9111328
		s0.9111328,0.3217773,1.3896484,0.3217773c0.2324219,0,0.46875-0.0273438,0.7080078-0.0825195
		s0.4541016-0.1381836,0.6445312-0.2485352c0.1894531-0.1103516,0.3427734-0.2514648,0.4599609-0.4233398
		c0.1162109-0.171875,0.1748047-0.3740234,0.1748047-0.6074219c0-0.3920898-0.1503906-0.7021484-0.4511719-0.9291992
		s-0.6777344-0.4199219-1.1318359-0.5795898c-0.4541016-0.1591797-0.9443359-0.3188477-1.4716797-0.4785156
		c-0.5273438-0.1591797-1.0185547-0.3740234-1.4726562-0.644043c-0.4541016-0.2695312-0.8310547-0.6254883-1.1318359-1.0673828
		s-0.4501953-1.0244141-0.4501953-1.7480469c0-0.699707,0.1376953-1.3129883,0.4140625-1.840332
		c0.2753906-0.5273438,0.6435547-0.9692383,1.1035156-1.3251953c0.4599609-0.3554688,0.9912109-0.6225586,1.5917969-0.800293
		c0.6015625-0.1777344,1.2207031-0.2670898,1.859375-0.2670898c0.7353516,0,1.4472656,0.1044922,2.1347656,0.3129883
		c0.6865234,0.2089844,1.3056641,0.5585938,1.8583984,1.0488281L145.7861328,4.1552734z"/>
	<path fill="#CCCCCC" d="M148.6201172,0.9716797h3.2763672l3.2197266,8.5385742h0.0371094l3.2753906-8.5385742h3.0732422
		l-5.3730469,13.0288086h-2.3007812L148.6201172,0.9716797z"/>
</g>
<path fill="none" stroke="#979797" stroke-width="0.9915338" stroke-miterlimit="10" d="M141.5442352,20.2938766"/>
<g>
	<path fill="#CCCCCC" d="M139.7138672,23.3613281c0.2109375,0.3164062,0.4794922,0.5488281,0.8076172,0.6982422
		c0.328125,0.1503906,0.6650391,0.2246094,1.0136719,0.2246094c0.1943359,0,0.3925781-0.0302734,0.5947266-0.0908203
		s0.3867188-0.1523438,0.5527344-0.2734375c0.1650391-0.1210938,0.3007812-0.2705078,0.40625-0.4492188
		c0.1054688-0.1777344,0.1572266-0.3837891,0.1572266-0.6191406c0-0.3310547-0.1044922-0.5839844-0.3154297-0.7587891
		c-0.2099609-0.1738281-0.4716797-0.3193359-0.7822266-0.4365234c-0.3125-0.1171875-0.6523438-0.2304688-1.0205078-0.3398438
		s-0.7080078-0.2607422-1.0195312-0.4555664c-0.3115234-0.1943359-0.5722656-0.4555664-0.7822266-0.7832031
		c-0.2109375-0.3276367-0.3164062-0.7705078-0.3164062-1.3291016c0-0.2504883,0.0546875-0.5175781,0.1640625-0.8012695
		c0.109375-0.2832031,0.28125-0.5419922,0.5166016-0.7768555c0.234375-0.234375,0.5351562-0.4306641,0.9042969-0.5883789
		c0.3681641-0.1582031,0.8105469-0.2368164,1.3291016-0.2368164c0.46875,0,0.9179688,0.0649414,1.3466797,0.1943359
		s0.8056641,0.3925781,1.1289062,0.7885742l-0.9462891,0.8618164c-0.1455078-0.2260742-0.3525391-0.4082031-0.6191406-0.5458984
		c-0.2675781-0.1376953-0.5703125-0.206543-0.9101562-0.206543c-0.3242188,0-0.5927734,0.0424805-0.8076172,0.1274414
		s-0.3867188,0.1943359-0.515625,0.3276367c-0.1298828,0.1337891-0.2207031,0.2773438-0.2734375,0.4311523
		s-0.0791016,0.2954102-0.0791016,0.4248047c0,0.3642578,0.1054688,0.6435547,0.3154297,0.8374023
		c0.2109375,0.1943359,0.4716797,0.3520508,0.7832031,0.4736328c0.3115234,0.1210938,0.6513672,0.2304688,1.0195312,0.3276367
		s0.7080078,0.2329102,1.0195312,0.4067383c0.3115234,0.1733398,0.5732422,0.4091797,0.7832031,0.7041016
		c0.2109375,0.2958984,0.3154297,0.7021484,0.3154297,1.2207031c0,0.4121094-0.078125,0.7841797-0.2363281,1.1162109
		s-0.3701172,0.6113281-0.6376953,0.8378906c-0.2666016,0.2265625-0.5820312,0.4003906-0.9462891,0.5214844
		c-0.3642578,0.1220703-0.7529297,0.1826172-1.1650391,0.1826172c-0.5507812,0-1.0732422-0.0976562-1.5664062-0.2919922
		c-0.4931641-0.1933594-0.8857422-0.4931641-1.1777344-0.8974609L139.7138672,23.3613281z"/>
	<path fill="#CCCCCC" d="M148.7089844,20.3510742h-1.5654297v2.6098633c0,0.1621094,0.0039062,0.3222656,0.0117188,0.4794922
		c0.0078125,0.1582031,0.0380859,0.2998047,0.0908203,0.4248047c0.0527344,0.1259766,0.1337891,0.2265625,0.2431641,0.3037109
		s0.2685547,0.1152344,0.4794922,0.1152344c0.1289062,0,0.2626953-0.0117188,0.4003906-0.0361328
		s0.2626953-0.0693359,0.3759766-0.1337891v0.9951172c-0.1289062,0.0732422-0.296875,0.1240234-0.5029297,0.1523438
		c-0.2070312,0.0283203-0.3662109,0.0419922-0.4794922,0.0419922c-0.4208984,0-0.7470703-0.0585938-0.9775391-0.1757812
		s-0.4003906-0.2685547-0.5097656-0.4550781s-0.1738281-0.3945312-0.1943359-0.625
		c-0.0205078-0.2314453-0.0302734-0.4638672-0.0302734-0.6982422v-2.9985352h-1.2626953v-0.9472656h1.2626953v-1.6142578h1.0927734
		v1.6142578h1.5654297V20.3510742z"/>
	<path fill="#CCCCCC" d="M149.8134766,19.4038086h1.0927734v0.8862305h0.0244141
		c0.0722656-0.1533203,0.1699219-0.2929688,0.2910156-0.418457s0.2568359-0.2329102,0.40625-0.3217773
		s0.3134766-0.159668,0.4921875-0.2124023c0.1777344-0.0527344,0.3554688-0.0791016,0.5341797-0.0791016
		c0.1777344,0,0.3398438,0.0244141,0.4853516,0.0727539l-0.0488281,1.1777344
		c-0.0888672-0.0244141-0.1777344-0.0444336-0.2666016-0.0610352c-0.0898438-0.0161133-0.1787109-0.0239258-0.2675781-0.0239258
		c-0.5341797,0-0.9423828,0.1499023-1.2255859,0.449707c-0.2832031,0.2993164-0.4248047,0.7641602-0.4248047,1.3959961v2.8886719
		h-1.0927734V19.4038086z"/>
	<path fill="#CCCCCC" d="M159.0996094,25.1582031h-1.0927734v-0.8857422h-0.0244141
		c-0.1376953,0.3076172-0.3759766,0.5556641-0.7158203,0.7460938s-0.7324219,0.2851562-1.1777344,0.2851562
		c-0.2832031,0-0.5498047-0.0419922-0.8007812-0.1269531s-0.4716797-0.2167969-0.6611328-0.3945312
		c-0.1904297-0.1787109-0.3427734-0.4072266-0.4550781-0.6865234c-0.1142578-0.2792969-0.1708984-0.6083984-0.1708984-0.9892578
		v-3.7026367h1.0927734v3.3999023c0,0.2666016,0.0361328,0.4951172,0.109375,0.6855469s0.1699219,0.34375,0.2910156,0.4609375
		c0.1220703,0.1171875,0.2617188,0.2021484,0.4189453,0.2548828c0.1582031,0.0527344,0.3222656,0.0791016,0.4921875,0.0791016
		c0.2255859,0,0.4365234-0.0361328,0.6308594-0.109375c0.1943359-0.0722656,0.3642578-0.1875,0.5097656-0.3457031
		s0.2587891-0.3583984,0.3398438-0.6005859c0.0810547-0.2431641,0.1210938-0.5302734,0.1210938-0.8623047v-2.9624023h1.0927734
		V25.1582031z"/>
	<path fill="#CCCCCC" d="M164.5615234,20.934082c-0.2021484-0.2109375-0.4150391-0.3706055-0.6367188-0.4799805
		c-0.2226562-0.109375-0.4882812-0.1640625-0.7958984-0.1640625c-0.2988281,0-0.5595703,0.0546875-0.7822266,0.1640625
		s-0.4091797,0.2587891-0.5585938,0.4487305c-0.1494141,0.190918-0.2626953,0.409668-0.3398438,0.6567383
		c-0.0771484,0.2460938-0.1152344,0.5029297-0.1152344,0.7705078c0,0.2666016,0.0439453,0.5195312,0.1337891,0.7587891
		c0.0888672,0.2382812,0.2138672,0.4472656,0.3759766,0.625s0.3554688,0.3173828,0.5830078,0.4189453
		c0.2255859,0.1005859,0.4804688,0.1513672,0.7646484,0.1513672c0.3066406,0,0.5703125-0.0546875,0.7890625-0.1640625
		c0.2177734-0.109375,0.4199219-0.2685547,0.6064453-0.4794922l0.7773438,0.7773438
		c-0.2841797,0.3154297-0.6132812,0.5419922-0.9892578,0.6796875c-0.3769531,0.1376953-0.7753906,0.2060547-1.1962891,0.2060547
		c-0.4453125,0-0.8515625-0.0722656-1.2197266-0.21875c-0.3681641-0.1455078-0.6855469-0.3496094-0.953125-0.6123047
		c-0.2666016-0.2626953-0.4736328-0.5791016-0.6191406-0.9472656s-0.2177734-0.7744141-0.2177734-1.2197266
		s0.0722656-0.8535156,0.2177734-1.2265625c0.1455078-0.3720703,0.3505859-0.6918945,0.6132812-0.9589844
		s0.578125-0.4750977,0.9472656-0.625c0.3681641-0.1499023,0.7783203-0.2246094,1.2314453-0.2246094
		c0.4208984,0,0.8232422,0.074707,1.2080078,0.2246094c0.3837891,0.1499023,0.7177734,0.378418,1.0009766,0.6855469
		L164.5615234,20.934082z"/>
	<path fill="#CCCCCC" d="M169.8056641,20.3510742h-1.5664062v2.6098633c0,0.1621094,0.0039062,0.3222656,0.0126953,0.4794922
		c0.0078125,0.1582031,0.0380859,0.2998047,0.0908203,0.4248047c0.0527344,0.1259766,0.1337891,0.2265625,0.2421875,0.3037109
		c0.109375,0.0771484,0.2695312,0.1152344,0.4794922,0.1152344c0.1298828,0,0.2636719-0.0117188,0.4013672-0.0361328
		c0.1367188-0.0244141,0.2626953-0.0693359,0.3759766-0.1337891v0.9951172
		c-0.1298828,0.0732422-0.2978516,0.1240234-0.5039062,0.1523438s-0.3662109,0.0419922-0.4794922,0.0419922
		c-0.4208984,0-0.7460938-0.0585938-0.9765625-0.1757812c-0.2314453-0.1171875-0.4013672-0.2685547-0.5107422-0.4550781
		c-0.1083984-0.1865234-0.1738281-0.3945312-0.1933594-0.625c-0.0205078-0.2314453-0.0302734-0.4638672-0.0302734-0.6982422
		v-2.9985352h-1.2626953v-0.9472656h1.2626953v-1.6142578h1.0917969v1.6142578h1.5664062V20.3510742z"/>
	<path fill="#CCCCCC" d="M176.0087891,25.1582031h-1.0927734v-0.8857422h-0.0244141
		c-0.1376953,0.3076172-0.3759766,0.5556641-0.7158203,0.7460938s-0.7324219,0.2851562-1.1777344,0.2851562
		c-0.2832031,0-0.5507812-0.0419922-0.8007812-0.1269531c-0.2509766-0.0849609-0.4716797-0.2167969-0.6621094-0.3945312
		c-0.1904297-0.1787109-0.3417969-0.4072266-0.4550781-0.6865234s-0.1699219-0.6083984-0.1699219-0.9892578v-3.7026367h1.0927734
		v3.3999023c0,0.2666016,0.0361328,0.4951172,0.109375,0.6855469c0.0722656,0.1904297,0.1699219,0.34375,0.2910156,0.4609375
		s0.2607422,0.2021484,0.4189453,0.2548828c0.1572266,0.0527344,0.3212891,0.0791016,0.4912109,0.0791016
		c0.2265625,0,0.4375-0.0361328,0.6308594-0.109375c0.1943359-0.0722656,0.3642578-0.1875,0.5107422-0.3457031
		c0.1455078-0.1582031,0.2587891-0.3583984,0.3398438-0.6005859c0.0800781-0.2431641,0.1210938-0.5302734,0.1210938-0.8623047
		v-2.9624023h1.0927734V25.1582031z"/>
	<path fill="#CCCCCC" d="M177.3554688,19.4038086h1.0927734v0.8862305h0.0244141
		c0.0722656-0.1533203,0.1699219-0.2929688,0.2910156-0.418457s0.2568359-0.2329102,0.40625-0.3217773
		s0.3134766-0.159668,0.4921875-0.2124023c0.1777344-0.0527344,0.3554688-0.0791016,0.5341797-0.0791016
		c0.1777344,0,0.3398438,0.0244141,0.4853516,0.0727539l-0.0488281,1.1777344
		c-0.0888672-0.0244141-0.1777344-0.0444336-0.2666016-0.0610352c-0.0898438-0.0161133-0.1787109-0.0239258-0.2675781-0.0239258
		c-0.5341797,0-0.9423828,0.1499023-1.2255859,0.449707c-0.2832031,0.2993164-0.4248047,0.7641602-0.4248047,1.3959961v2.8886719
		h-1.0927734V19.4038086z"/>
	<path fill="#CCCCCC" d="M182.1503906,22.6816406c0,0.2509766,0.0546875,0.4794922,0.1640625,0.6865234
		c0.109375,0.2060547,0.2529297,0.3818359,0.4306641,0.5273438s0.3847656,0.2597656,0.6191406,0.3398438
		c0.234375,0.0810547,0.4775391,0.1220703,0.7285156,0.1220703c0.3398438,0,0.6347656-0.0791016,0.8857422-0.2373047
		c0.2509766-0.1572266,0.4814453-0.3662109,0.6923828-0.625l0.8251953,0.6308594
		c-0.6064453,0.7851562-1.4560547,1.1777344-2.5488281,1.1777344c-0.453125,0-0.8642578-0.0771484-1.2324219-0.2304688
		s-0.6796875-0.3662109-0.9345703-0.6376953c-0.2548828-0.2705078-0.4511719-0.5898438-0.5888672-0.9589844
		c-0.1376953-0.3681641-0.2060547-0.7666016-0.2060547-1.1953125s0.0742188-0.8271484,0.2246094-1.1953125
		c0.1494141-0.3686523,0.3554688-0.6884766,0.6191406-0.9594727c0.2626953-0.2709961,0.5761719-0.4833984,0.9404297-0.6376953
		c0.3642578-0.1533203,0.7607422-0.2304688,1.1894531-0.2304688c0.5097656,0,0.9414062,0.0893555,1.2929688,0.2670898
		c0.3525391,0.1782227,0.6416016,0.4106445,0.8681641,0.6982422c0.2265625,0.2871094,0.3896484,0.6108398,0.4912109,0.9716797
		c0.1015625,0.359375,0.1523438,0.7255859,0.1523438,1.0986328v0.3876953H182.1503906z M185.5976562,21.8076172
		c-0.0078125-0.2421875-0.0458984-0.4648438-0.1152344-0.6679688c-0.0683594-0.2016602-0.171875-0.3779297-0.3095703-0.527832
		c-0.1376953-0.1494141-0.3095703-0.2670898-0.515625-0.3520508s-0.4472656-0.1274414-0.7226562-0.1274414
		c-0.2666016,0-0.5117188,0.0507812-0.734375,0.1518555s-0.4101562,0.2324219-0.5644531,0.3945312
		c-0.1533203,0.1616211-0.2724609,0.3417969-0.3574219,0.5410156c-0.0849609,0.1982422-0.1279297,0.3935547-0.1279297,0.5878906
		H185.5976562z"/>
	<path fill="#CCCCCC" d="M138.2822266,27.6914062h1.3466797l2.5253906,6.9912109h0.0244141l2.6220703-6.9912109h1.2744141
		l-3.3867188,8.59375h-1.0927734L138.2822266,27.6914062z"/>
	<path fill="#CCCCCC" d="M146.3779297,28.4677734c0-0.21875,0.0791016-0.40625,0.2363281-0.5644531
		c0.1582031-0.1572266,0.3466797-0.2363281,0.5644531-0.2363281c0.21875,0,0.4072266,0.0791016,0.5644531,0.2363281
		c0.1582031,0.1582031,0.2373047,0.3457031,0.2373047,0.5644531s-0.0791016,0.4072266-0.2373047,0.5644531
		c-0.1572266,0.1582031-0.3457031,0.2373047-0.5644531,0.2373047c-0.2177734,0-0.40625-0.0791016-0.5644531-0.2373047
		C146.4570312,28.875,146.3779297,28.6865234,146.3779297,28.4677734z M146.6328125,30.53125h1.0927734v5.7539062h-1.0927734
		V30.53125z"/>
	<path fill="#CCCCCC" d="M152.2167969,31.9755859c-0.1298828-0.1611328-0.2900391-0.296875-0.4794922-0.40625
		c-0.1904297-0.109375-0.4228516-0.1640625-0.6982422-0.1640625c-0.2587891,0-0.4833984,0.0546875-0.6738281,0.1640625
		s-0.2851562,0.2695312-0.2851562,0.4794922c0,0.1699219,0.0546875,0.3076172,0.1640625,0.4130859
		c0.109375,0.1044922,0.2382812,0.1894531,0.3886719,0.2548828c0.1494141,0.0644531,0.3095703,0.1132812,0.4794922,0.1455078
		s0.3154297,0.0605469,0.4365234,0.0849609c0.234375,0.0566406,0.4550781,0.125,0.6621094,0.2060547
		c0.2060547,0.0810547,0.3837891,0.1865234,0.5341797,0.3154297c0.1494141,0.1298828,0.2666016,0.2880859,0.3515625,0.4736328
		c0.0849609,0.1865234,0.1269531,0.4130859,0.1269531,0.6796875c0,0.3242188-0.0683594,0.6005859-0.2060547,0.8320312
		c-0.1376953,0.2304688-0.3154297,0.4179688-0.5341797,0.5644531c-0.2177734,0.1455078-0.4667969,0.25-0.7460938,0.3154297
		c-0.2792969,0.0644531-0.5605469,0.0966797-0.84375,0.0966797c-0.4775391,0-0.8964844-0.0722656-1.2568359-0.21875
		c-0.359375-0.1455078-0.6816406-0.4121094-0.9648438-0.8007812l0.8261719-0.6796875
		c0.1777344,0.1777344,0.3759766,0.3359375,0.5947266,0.4736328c0.2177734,0.1376953,0.4853516,0.2060547,0.8007812,0.2060547
		c0.1376953,0,0.2773438-0.0136719,0.4189453-0.0419922s0.2666016-0.0732422,0.3759766-0.1337891
		s0.1982422-0.1376953,0.2675781-0.2304688c0.0683594-0.09375,0.1025391-0.2001953,0.1025391-0.3222656
		c0-0.1611328-0.0507812-0.2949219-0.1513672-0.4003906c-0.1015625-0.1054688-0.2226562-0.1884766-0.3642578-0.2490234
		s-0.2910156-0.109375-0.4492188-0.1455078s-0.296875-0.0664062-0.4189453-0.0908203
		c-0.234375-0.0566406-0.4570312-0.1210938-0.6669922-0.1943359c-0.2109375-0.0732422-0.3974609-0.1699219-0.5585938-0.2910156
		c-0.1621094-0.1220703-0.2919922-0.2753906-0.3886719-0.4619141c-0.0966797-0.1855469-0.1455078-0.4160156-0.1455078-0.6914062
		c0-0.2998047,0.0625-0.5605469,0.1884766-0.7832031c0.125-0.2226562,0.2910156-0.40625,0.4970703-0.5517578
		c0.2060547-0.1464844,0.4414062-0.2548828,0.7041016-0.328125s0.5283203-0.109375,0.7949219-0.109375
		c0.3886719,0,0.7607422,0.0732422,1.1171875,0.21875c0.3554688,0.1455078,0.6386719,0.3886719,0.8496094,0.7285156
		L152.2167969,31.9755859z"/>
	<path fill="#CCCCCC" d="M159.3417969,36.2851562h-1.0927734v-0.8857422h-0.0244141
		c-0.1376953,0.3076172-0.3759766,0.5556641-0.7158203,0.7460938s-0.7324219,0.2851562-1.1777344,0.2851562
		c-0.2832031,0-0.5507812-0.0419922-0.8007812-0.1269531c-0.2509766-0.0849609-0.4716797-0.2167969-0.6621094-0.3945312
		c-0.1904297-0.1787109-0.3417969-0.4072266-0.4550781-0.6865234s-0.1699219-0.6083984-0.1699219-0.9892578V30.53125h1.0927734
		v3.3994141c0,0.2666016,0.0361328,0.4951172,0.109375,0.6855469c0.0722656,0.1904297,0.1699219,0.34375,0.2910156,0.4609375
		s0.2607422,0.2021484,0.4189453,0.2548828c0.1572266,0.0527344,0.3212891,0.0791016,0.4912109,0.0791016
		c0.2265625,0,0.4375-0.0361328,0.6308594-0.109375c0.1943359-0.0722656,0.3642578-0.1875,0.5107422-0.3457031
		c0.1455078-0.1582031,0.2587891-0.3583984,0.3398438-0.6005859c0.0800781-0.2431641,0.1210938-0.5302734,0.1210938-0.8623047
		V30.53125h1.0927734V36.2851562z"/>
	<path fill="#CCCCCC" d="M160.7128906,31.2353516c0.3076172-0.2832031,0.6640625-0.4951172,1.0683594-0.6367188
		s0.8095703-0.2128906,1.2138672-0.2128906c0.4208984,0,0.7832031,0.0527344,1.0869141,0.1582031
		c0.3027344,0.1044922,0.5517578,0.2470703,0.7460938,0.4248047s0.3378906,0.3818359,0.4306641,0.6123047
		c0.09375,0.2314453,0.1396484,0.4716797,0.1396484,0.7226562v2.9375c0,0.2021484,0.0039062,0.3886719,0.0126953,0.5585938
		c0.0078125,0.1699219,0.0195312,0.3320312,0.0361328,0.4853516h-0.9707031
		c-0.0244141-0.2910156-0.0371094-0.5830078-0.0371094-0.8740234h-0.0244141
		c-0.2421875,0.3720703-0.5292969,0.6357422-0.8613281,0.7890625s-0.7158203,0.2304688-1.1533203,0.2304688
		c-0.2666016,0-0.5214844-0.0361328-0.7646484-0.109375c-0.2431641-0.0722656-0.4550781-0.1816406-0.6376953-0.3271484
		c-0.1816406-0.1455078-0.3251953-0.3261719-0.4306641-0.5400391c-0.1054688-0.2148438-0.1572266-0.4638672-0.1572266-0.7470703
		c0-0.3720703,0.0820312-0.6835938,0.2480469-0.9345703s0.3925781-0.4550781,0.6796875-0.6132812
		c0.2880859-0.1572266,0.6230469-0.2705078,1.0078125-0.3398438c0.3847656-0.0683594,0.7949219-0.1025391,1.2324219-0.1025391
		h0.8007812v-0.2431641c0-0.1455078-0.0283203-0.2910156-0.0849609-0.4365234
		c-0.0566406-0.1464844-0.1416016-0.2773438-0.2548828-0.3945312s-0.2548828-0.2109375-0.4248047-0.2792969
		c-0.1699219-0.0693359-0.3720703-0.1035156-0.6064453-0.1035156c-0.2109375,0-0.3945312,0.0205078-0.5527344,0.0605469
		c-0.1582031,0.0410156-0.3017578,0.0908203-0.4306641,0.1523438c-0.1298828,0.0605469-0.2470703,0.1308594-0.3525391,0.2119141
		c-0.1044922,0.0810547-0.2060547,0.1582031-0.3027344,0.2304688L160.7128906,31.2353516z M163.796875,33.5175781
		c-0.2597656,0-0.5244141,0.0146484-0.7958984,0.0419922c-0.2705078,0.0292969-0.5175781,0.0839844-0.7402344,0.1640625
		c-0.2226562,0.0810547-0.4042969,0.1943359-0.5458984,0.3398438s-0.2128906,0.3320312-0.2128906,0.5585938
		c0,0.3320312,0.1113281,0.5703125,0.3339844,0.7158203c0.2226562,0.1464844,0.5244141,0.21875,0.9042969,0.21875
		c0.2998047,0,0.5546875-0.0498047,0.7646484-0.1513672c0.2109375-0.1015625,0.3808594-0.2324219,0.5097656-0.3945312
		c0.1298828-0.1621094,0.2226562-0.3417969,0.2792969-0.5400391s0.0849609-0.3945312,0.0849609-0.5888672v-0.3642578H163.796875z"/>
	<path fill="#CCCCCC" d="M166.7695312,27.1083984h1.0927734v9.1767578h-1.0927734V27.1083984z"/>
	<path fill="#CCCCCC" d="M169.125,28.4677734c0-0.21875,0.0791016-0.40625,0.2363281-0.5644531
		c0.1582031-0.1572266,0.3466797-0.2363281,0.5644531-0.2363281c0.21875,0,0.4072266,0.0791016,0.5644531,0.2363281
		c0.1582031,0.1582031,0.2373047,0.3457031,0.2373047,0.5644531s-0.0791016,0.4072266-0.2373047,0.5644531
		c-0.1572266,0.1582031-0.3457031,0.2373047-0.5644531,0.2373047c-0.2177734,0-0.40625-0.0791016-0.5644531-0.2373047
		C169.2041016,28.875,169.125,28.6865234,169.125,28.4677734z M169.3798828,30.53125h1.0927734v5.7539062h-1.0927734V30.53125z"/>
	<path fill="#CCCCCC" d="M171.5039062,35.3017578l3.2646484-3.8232422h-3.1552734V30.53125h4.4912109v0.9716797
		l-3.2900391,3.8349609h3.4599609v0.9472656h-4.7705078V35.3017578z"/>
	<path fill="#CCCCCC" d="M177.2451172,31.2353516c0.3076172-0.2832031,0.6640625-0.4951172,1.0683594-0.6367188
		s0.8095703-0.2128906,1.2138672-0.2128906c0.4208984,0,0.7832031,0.0527344,1.0869141,0.1582031
		c0.3027344,0.1044922,0.5517578,0.2470703,0.7460938,0.4248047s0.3378906,0.3818359,0.4306641,0.6123047
		c0.09375,0.2314453,0.1396484,0.4716797,0.1396484,0.7226562v2.9375c0,0.2021484,0.0039062,0.3886719,0.0126953,0.5585938
		c0.0078125,0.1699219,0.0195312,0.3320312,0.0361328,0.4853516h-0.9707031
		c-0.0244141-0.2910156-0.0371094-0.5830078-0.0371094-0.8740234h-0.0244141
		c-0.2421875,0.3720703-0.5292969,0.6357422-0.8613281,0.7890625s-0.7158203,0.2304688-1.1533203,0.2304688
		c-0.2666016,0-0.5214844-0.0361328-0.7646484-0.109375c-0.2431641-0.0722656-0.4550781-0.1816406-0.6376953-0.3271484
		c-0.1816406-0.1455078-0.3251953-0.3261719-0.4306641-0.5400391c-0.1054688-0.2148438-0.1572266-0.4638672-0.1572266-0.7470703
		c0-0.3720703,0.0820312-0.6835938,0.2480469-0.9345703s0.3925781-0.4550781,0.6796875-0.6132812
		c0.2880859-0.1572266,0.6230469-0.2705078,1.0078125-0.3398438c0.3847656-0.0683594,0.7949219-0.1025391,1.2324219-0.1025391
		h0.8007812v-0.2431641c0-0.1455078-0.0283203-0.2910156-0.0849609-0.4365234
		c-0.0566406-0.1464844-0.1416016-0.2773438-0.2548828-0.3945312s-0.2548828-0.2109375-0.4248047-0.2792969
		c-0.1699219-0.0693359-0.3720703-0.1035156-0.6064453-0.1035156c-0.2109375,0-0.3945312,0.0205078-0.5527344,0.0605469
		c-0.1582031,0.0410156-0.3017578,0.0908203-0.4306641,0.1523438c-0.1298828,0.0605469-0.2470703,0.1308594-0.3525391,0.2119141
		c-0.1044922,0.0810547-0.2060547,0.1582031-0.3027344,0.2304688L177.2451172,31.2353516z M180.3291016,33.5175781
		c-0.2597656,0-0.5244141,0.0146484-0.7958984,0.0419922c-0.2705078,0.0292969-0.5175781,0.0839844-0.7402344,0.1640625
		c-0.2226562,0.0810547-0.4042969,0.1943359-0.5458984,0.3398438s-0.2128906,0.3320312-0.2128906,0.5585938
		c0,0.3320312,0.1113281,0.5703125,0.3339844,0.7158203c0.2226562,0.1464844,0.5244141,0.21875,0.9042969,0.21875
		c0.2998047,0,0.5546875-0.0498047,0.7646484-0.1513672c0.2109375-0.1015625,0.3808594-0.2324219,0.5097656-0.3945312
		c0.1298828-0.1621094,0.2226562-0.3417969,0.2792969-0.5400391s0.0849609-0.3945312,0.0849609-0.5888672v-0.3642578H180.3291016z"
		/>
	<path fill="#CCCCCC" d="M186.3007812,31.4785156h-1.5664062v2.609375c0,0.1621094,0.0039062,0.3222656,0.0126953,0.4794922
		c0.0078125,0.1582031,0.0380859,0.2998047,0.0908203,0.4248047c0.0527344,0.1259766,0.1337891,0.2265625,0.2421875,0.3037109
		c0.109375,0.0771484,0.2695312,0.1152344,0.4794922,0.1152344c0.1298828,0,0.2636719-0.0117188,0.4013672-0.0361328
		c0.1367188-0.0244141,0.2626953-0.0693359,0.3759766-0.1337891v0.9951172
		c-0.1298828,0.0732422-0.2978516,0.1240234-0.5039062,0.1523438s-0.3662109,0.0419922-0.4794922,0.0419922
		c-0.4208984,0-0.7460938-0.0585938-0.9765625-0.1757812c-0.2314453-0.1171875-0.4013672-0.2685547-0.5107422-0.4550781
		c-0.1083984-0.1865234-0.1738281-0.3945312-0.1933594-0.625c-0.0205078-0.2314453-0.0302734-0.4638672-0.0302734-0.6982422
		v-2.9980469h-1.2626953V30.53125h1.2626953v-1.6142578h1.0917969V30.53125h1.5664062V31.4785156z"/>
	<path fill="#CCCCCC" d="M187.2353516,28.4677734c0-0.21875,0.0791016-0.40625,0.2363281-0.5644531
		c0.1582031-0.1572266,0.3466797-0.2363281,0.5644531-0.2363281c0.21875,0,0.4072266,0.0791016,0.5644531,0.2363281
		c0.1582031,0.1582031,0.2373047,0.3457031,0.2373047,0.5644531s-0.0791016,0.4072266-0.2373047,0.5644531
		c-0.1572266,0.1582031-0.3457031,0.2373047-0.5644531,0.2373047c-0.2177734,0-0.40625-0.0791016-0.5644531-0.2373047
		C187.3144531,28.875,187.2353516,28.6865234,187.2353516,28.4677734z M187.4902344,30.53125h1.0927734v5.7539062h-1.0927734
		V30.53125z"/>
	<path fill="#CCCCCC" d="M189.7353516,33.4082031c0-0.4208984,0.0791016-0.8134766,0.2363281-1.1777344
		c0.1582031-0.3632812,0.375-0.6835938,0.6494141-0.9589844c0.2753906-0.2744141,0.5996094-0.4912109,0.9716797-0.6494141
		c0.3720703-0.1572266,0.7724609-0.2363281,1.2011719-0.2363281c0.4296875,0,0.8300781,0.0791016,1.2021484,0.2363281
		c0.3720703,0.1582031,0.6962891,0.375,0.9707031,0.6494141c0.2753906,0.2753906,0.4921875,0.5957031,0.6494141,0.9589844
		c0.1582031,0.3642578,0.2373047,0.7568359,0.2373047,1.1777344s-0.0791016,0.8154297-0.2373047,1.1835938
		c-0.1572266,0.3681641-0.3740234,0.6875-0.6494141,0.9589844c-0.2744141,0.2714844-0.5986328,0.4853516-0.9707031,0.6435547
		c-0.3720703,0.1572266-0.7724609,0.2363281-1.2021484,0.2363281c-0.4287109,0-0.8291016-0.0791016-1.2011719-0.2363281
		c-0.3720703-0.1582031-0.6962891-0.3720703-0.9716797-0.6435547c-0.2744141-0.2714844-0.4912109-0.5908203-0.6494141-0.9589844
		C189.8144531,34.2236328,189.7353516,33.8291016,189.7353516,33.4082031z M190.9003906,33.4082031
		c0,0.2910156,0.0449219,0.5605469,0.1337891,0.8076172s0.2148438,0.4570312,0.3759766,0.6308594
		c0.1621094,0.1738281,0.3603516,0.3115234,0.5947266,0.4130859c0.2353516,0.1005859,0.4980469,0.1513672,0.7890625,0.1513672
		c0.2919922,0,0.5546875-0.0507812,0.7890625-0.1513672c0.2353516-0.1015625,0.4335938-0.2392578,0.5947266-0.4130859
		c0.1621094-0.1738281,0.2871094-0.3837891,0.3769531-0.6308594c0.0888672-0.2470703,0.1328125-0.5166016,0.1328125-0.8076172
		s-0.0439453-0.5605469-0.1328125-0.8066406c-0.0898438-0.2470703-0.2148438-0.4580078-0.3769531-0.6318359
		c-0.1611328-0.1738281-0.359375-0.3115234-0.5947266-0.4121094c-0.234375-0.1015625-0.4970703-0.1523438-0.7890625-0.1523438
		c-0.2910156,0-0.5537109,0.0507812-0.7890625,0.1523438c-0.234375,0.1005859-0.4326172,0.2382812-0.5947266,0.4121094
		c-0.1611328,0.1738281-0.2871094,0.3847656-0.3759766,0.6318359
		C190.9453125,32.8476562,190.9003906,33.1171875,190.9003906,33.4082031z"/>
	<path fill="#CCCCCC" d="M196.921875,30.53125h1.0927734v0.8867188h0.0244141
		c0.1367188-0.3076172,0.3759766-0.5566406,0.7158203-0.7470703c0.3398438-0.1894531,0.7324219-0.2851562,1.1777344-0.2851562
		c0.2744141,0,0.5400391,0.0429688,0.7949219,0.1279297s0.4775391,0.2158203,0.6669922,0.3945312
		c0.1904297,0.1777344,0.3417969,0.40625,0.4560547,0.6855469c0.1123047,0.2792969,0.1699219,0.6083984,0.1699219,0.9892578
		v3.7021484h-1.0927734v-3.3984375c0-0.2675781-0.0361328-0.4960938-0.109375-0.6865234
		c-0.0732422-0.1894531-0.1699219-0.34375-0.2910156-0.4609375c-0.1220703-0.1171875-0.2617188-0.2021484-0.4189453-0.2548828
		c-0.1582031-0.0527344-0.3222656-0.0791016-0.4921875-0.0791016c-0.2265625,0-0.4365234,0.0361328-0.6308594,0.109375
		s-0.3642578,0.1884766-0.5097656,0.3457031c-0.1455078,0.1582031-0.2587891,0.3583984-0.3398438,0.6015625
		c-0.0810547,0.2421875-0.1210938,0.5292969-0.1210938,0.8613281v2.9619141h-1.0927734V30.53125z"/>
</g>
<path fill="none" stroke="#CCCCCC" stroke-miterlimit="10" d="M118.5,1c0,1.2611165,1.0223389,2.2834499,2.2834396,2.2834499
	c1.2611084,0,2.2834396-1.0223334,2.2834396-2.2834499"/>
<path fill="none" stroke="#CCCCCC" stroke-miterlimit="10" d="M124.8936386,5.0551014"/>
<path fill="none" stroke="#CCCCCC" stroke-miterlimit="10" d="M124.8936386,1c0,1.2611165,1.0223389,2.2834499,2.2834396,2.2834499
	c1.2611237,0,2.2834473-1.0223334,2.2834473-2.2834499"/>
<path fill="none" stroke="#37B34A" stroke-miterlimit="10" d="M131.2872772,5.0551014"/>
<path fill="none" stroke="#CCCCCC" stroke-miterlimit="10" d="M131.2872772,1c0,1.2611165,1.0223389,2.2834499,2.2834473,2.2834499
	S135.8541718,2.2611165,135.8541718,1"/>
<path fill="none" stroke="#CCCCCC" stroke-miterlimit="10" d="M118.5,13.9870892
	c0-1.261117,1.0223389-2.2834501,2.2834396-2.2834501c1.2611084,0,2.2834396,1.0223331,2.2834396,2.2834501"/>
<path fill="none" stroke="#CCCCCC" stroke-miterlimit="10" d="M124.8936386,13.9870892
	c0-1.261117,1.0223389-2.2834501,2.2834396-2.2834501c1.2611237,0,2.2834473,1.0223331,2.2834473,2.2834501"/>
<path fill="none" stroke="#CCCCCC" stroke-miterlimit="10" d="M131.2872772,13.9870892
	c0-1.261117,1.0223389-2.2834501,2.2834473-2.2834501s2.2834473,1.0223331,2.2834473,2.2834501"/>
<circle fill="none" stroke="#CCCCCC" stroke-miterlimit="10" cx="120.7834396" cy="7.5078197" r="2.283443"/>
<circle fill="none" stroke="#CCCCCC" stroke-miterlimit="10" cx="127.1770859" cy="7.5078197" r="2.283443"/>
<circle fill="#CCCCCC" stroke="#CCCCCC" stroke-miterlimit="10" cx="133.5707245" cy="7.5078197" r="2.283443"/>
<g>
</g>
<g>
</g>
<g>
</g>
<g>
</g>
<g>
</g>
<g>
</g>
<g>
</g>
<g>
</g>
<g>
</g>
<g>
</g>
<g>
</g>
<g>
</g>
<g>
</g>
<g>
</g>
<g>
</g>
</svg>
