<?xml version="1.0" encoding="utf-8"?>
<!-- Generator: Adobe Illustrator 17.1.0, SVG Export Plug-In . SVG Version: 6.00 Build 0)  -->
<!DOCTYPE svg PUBLIC "-//W3C//DTD SVG 1.1//EN" "http://www.w3.org/Graphics/SVG/1.1/DTD/svg11.dtd">
<svg version="1.1" id="Layer_1" xmlns="http://www.w3.org/2000/svg" xmlns:xlink="http://www.w3.org/1999/xlink" x="0px" y="0px"
	 width="240px" height="40px" viewBox="0 0 240 40" enable-background="new 0 0 240 40" xml:space="preserve">
<path fill="none" stroke="#979797" stroke-width="0.9915338" stroke-miterlimit="10" d="M24.4307995,20.3267651"/>
<g>
	<path fill="#D9A4FC" d="M22.3461914,0.9716797h5.0419922c0.6625977,0,1.2910156,0.0644531,1.8862305,0.1928711
		c0.5952148,0.1289062,1.1162109,0.34375,1.5644531,0.6445312c0.4477539,0.300293,0.8032227,0.7055664,1.0673828,1.2143555
		c0.2636719,0.5092773,0.3955078,1.144043,0.3955078,1.9047852c0,0.9199219-0.2392578,1.7021484-0.7177734,2.3461914
		S30.40625,8.3266602,29.4863281,8.4980469l3.3125,5.5024414h-3.4414062l-2.7236328-5.2080078h-1.4169922v5.2080078h-2.8706055
		V0.9716797z M25.2167969,6.3632812h1.6928711c0.2578125,0,0.5307617-0.0087891,0.8188477-0.0273438
		s0.5493164-0.0737305,0.7822266-0.1655273C28.7436523,6.078125,28.9370117,5.934082,29.090332,5.737793
		s0.2299805-0.472168,0.2299805-0.828125c0-0.3310547-0.0673828-0.5947266-0.2021484-0.7915039
		c-0.1352539-0.1958008-0.3066406-0.3461914-0.5151367-0.4506836c-0.2089844-0.1040039-0.4482422-0.1748047-0.7177734-0.2114258
		c-0.2700195-0.0371094-0.5336914-0.0551758-0.7915039-0.0551758h-1.8769531V6.3632812z"/>
</g>
<path fill="none" stroke="#979797" stroke-width="0.9915338" stroke-miterlimit="10" d="M24.5442295,20.2938766"/>
<g>
	<path fill="#D9A4FC" d="M22.4589844,16.5634766h3.0224609c0.550293,0,1.003418,0.0751953,1.3598633,0.2246094
		c0.355957,0.1499023,0.637207,0.3398438,0.8432617,0.5708008c0.206543,0.2304688,0.3500977,0.4897461,0.4311523,0.7768555
		c0.0805664,0.2871094,0.1210938,0.5644531,0.1210938,0.831543c0,0.2749023-0.0483398,0.5400391-0.1455078,0.7949219
		s-0.2368164,0.4853516-0.418457,0.6918945c-0.1821289,0.2060547-0.4047852,0.3803711-0.6679688,0.5219727
		c-0.2631836,0.1420898-0.5561523,0.2290039-0.8798828,0.2612305l2.4399414,3.9208984h-1.456543l-2.1850586-3.7871094h-1.2988281
		v3.7871094h-1.1655273V16.5634766z M23.6245117,20.3510742h1.5292969c0.2265625,0,0.4511719-0.0185547,0.6738281-0.0546875
		c0.222168-0.0366211,0.4204102-0.1035156,0.5947266-0.2006836c0.1738281-0.0966797,0.3134766-0.2363281,0.4189453-0.418457
		c0.1049805-0.1821289,0.1577148-0.4189453,0.1577148-0.7099609c0-0.2915039-0.0527344-0.5283203-0.1577148-0.7104492
		c-0.1054688-0.1821289-0.2451172-0.3217773-0.4189453-0.418457c-0.1743164-0.097168-0.3725586-0.1640625-0.5947266-0.2006836
		c-0.2226562-0.0361328-0.4472656-0.0541992-0.6738281-0.0541992h-1.5292969V20.3510742z"/>
	<path fill="#D9A4FC" d="M30.1186523,22.6816406c0,0.2509766,0.0546875,0.4794922,0.1640625,0.6865234
		c0.1088867,0.2060547,0.2524414,0.3818359,0.4306641,0.5273438c0.1777344,0.1455078,0.3842773,0.2597656,0.6191406,0.3398438
		c0.234375,0.0810547,0.4775391,0.1220703,0.7280273,0.1220703c0.340332,0,0.6352539-0.0791016,0.8862305-0.2373047
		c0.2509766-0.1572266,0.4814453-0.3662109,0.6918945-0.625l0.8256836,0.6308594
		c-0.6069336,0.7851562-1.456543,1.1777344-2.5493164,1.1777344c-0.453125,0-0.8637695-0.0771484-1.2319336-0.2304688
		s-0.6796875-0.3662109-0.9345703-0.6376953c-0.2548828-0.2705078-0.4511719-0.5898438-0.5888672-0.9589844
		c-0.1376953-0.3681641-0.206543-0.7666016-0.206543-1.1953125s0.074707-0.8271484,0.2246094-1.1953125
		c0.1499023-0.3686523,0.355957-0.6884766,0.6191406-0.9594727s0.5766602-0.4833984,0.940918-0.6376953
		c0.3642578-0.1533203,0.7602539-0.2304688,1.1894531-0.2304688c0.5097656,0,0.940918,0.0893555,1.2929688,0.2670898
		c0.3520508,0.1782227,0.6411133,0.4106445,0.8676758,0.6982422c0.2265625,0.2871094,0.3901367,0.6108398,0.4916992,0.9716797
		c0.1010742,0.359375,0.1518555,0.7255859,0.1518555,1.0986328v0.3876953H30.1186523z M33.565918,21.8076172
		c-0.0083008-0.2421875-0.0463867-0.4648438-0.1152344-0.6679688c-0.0688477-0.2016602-0.171875-0.3779297-0.3095703-0.527832
		C33.003418,20.4624023,32.831543,20.3447266,32.625,20.2597656c-0.2060547-0.0849609-0.4467773-0.1274414-0.722168-0.1274414
		c-0.2670898,0-0.5117188,0.0507812-0.734375,0.1518555s-0.4106445,0.2324219-0.5644531,0.3945312
		c-0.1538086,0.1616211-0.2729492,0.3417969-0.3579102,0.5410156c-0.0849609,0.1982422-0.1274414,0.3935547-0.1274414,0.5878906
		H33.565918z"/>
	<path fill="#D9A4FC" d="M35.8232422,15.980957h1.0927734v9.1772461h-1.0927734V15.980957z"/>
	<path fill="#D9A4FC" d="M38.3725586,20.1079102c0.3076172-0.2832031,0.6635742-0.4956055,1.0683594-0.637207
		c0.4042969-0.1416016,0.809082-0.2124023,1.2138672-0.2124023c0.4204102,0,0.7827148,0.0527344,1.0864258,0.1577148
		c0.3032227,0.1054688,0.5522461,0.2470703,0.746582,0.4248047c0.1938477,0.1782227,0.3374023,0.3828125,0.4306641,0.6132812
		s0.1396484,0.4711914,0.1396484,0.7226562v2.9375c0,0.2021484,0.0039062,0.3886719,0.012207,0.5585938
		c0.0078125,0.1699219,0.0200195,0.3320312,0.0361328,0.4853516h-0.9707031
		c-0.0244141-0.2910156-0.0366211-0.5830078-0.0366211-0.8740234H42.074707
		c-0.2426758,0.3720703-0.5297852,0.6357422-0.8618164,0.7890625c-0.331543,0.1533203-0.7158203,0.2304688-1.152832,0.2304688
		c-0.2670898,0-0.5219727-0.0361328-0.7646484-0.109375c-0.2431641-0.0722656-0.4555664-0.1816406-0.6376953-0.3271484
		s-0.3256836-0.3261719-0.4306641-0.5400391c-0.1054688-0.2148438-0.1577148-0.4638672-0.1577148-0.7470703
		c0-0.3720703,0.0825195-0.6835938,0.2485352-0.9345703s0.3925781-0.4550781,0.6796875-0.6132812
		c0.2875977-0.1572266,0.6230469-0.2705078,1.0078125-0.3398438c0.3842773-0.0683594,0.7949219-0.1025391,1.2319336-0.1025391
		h0.8012695v-0.2431641c0-0.1455078-0.0283203-0.2910156-0.0849609-0.4379883
		c-0.0566406-0.1450195-0.1416016-0.2763672-0.2548828-0.394043c-0.1137695-0.1171875-0.2548828-0.2104492-0.4248047-0.2792969
		c-0.1699219-0.0683594-0.3725586-0.1030273-0.6069336-0.1030273c-0.2104492,0-0.3945312,0.0205078-0.5522461,0.0605469
		c-0.1582031,0.0405273-0.3017578,0.0913086-0.4311523,0.1518555s-0.2470703,0.1318359-0.3520508,0.2124023
		c-0.1049805,0.0810547-0.206543,0.1577148-0.3032227,0.2304688L38.3725586,20.1079102z M41.4560547,22.390625
		c-0.2592773,0-0.5244141,0.0146484-0.7954102,0.0419922c-0.2709961,0.0292969-0.5180664,0.0839844-0.7402344,0.1640625
		c-0.2226562,0.0810547-0.4047852,0.1943359-0.5463867,0.3398438s-0.2124023,0.3320312-0.2124023,0.5585938
		c0,0.3320312,0.1113281,0.5703125,0.3339844,0.7158203c0.222168,0.1464844,0.5239258,0.21875,0.9042969,0.21875
		c0.2993164,0,0.5541992-0.0498047,0.7646484-0.1513672s0.3803711-0.2324219,0.5097656-0.3945312
		s0.2226562-0.3417969,0.2792969-0.5400391s0.0849609-0.3945312,0.0849609-0.5888672V22.390625H41.4560547z"/>
	<path fill="#D9A4FC" d="M45.9223633,22.0869141l-2.0390625-2.6831055h1.4082031l1.3955078,2.0395508l1.3720703-2.0395508h1.3227539
		l-1.9663086,2.6831055l2.3305664,3.0712891h-1.4082031l-1.6992188-2.4160156l-1.6992188,2.4160156h-1.3476562
		L45.9223633,22.0869141z"/>
	<path fill="#D9A4FC" d="M50.3652344,20.1079102c0.3076172-0.2832031,0.6635742-0.4956055,1.0683594-0.637207
		c0.4042969-0.1416016,0.809082-0.2124023,1.2138672-0.2124023c0.4204102,0,0.7827148,0.0527344,1.0864258,0.1577148
		c0.3032227,0.1054688,0.5522461,0.2470703,0.746582,0.4248047c0.1938477,0.1782227,0.3374023,0.3828125,0.4306641,0.6132812
		s0.1396484,0.4711914,0.1396484,0.7226562v2.9375c0,0.2021484,0.0039062,0.3886719,0.012207,0.5585938
		c0.0078125,0.1699219,0.0200195,0.3320312,0.0361328,0.4853516H54.128418
		c-0.0244141-0.2910156-0.0366211-0.5830078-0.0366211-0.8740234h-0.0244141
		c-0.2426758,0.3720703-0.5297852,0.6357422-0.8618164,0.7890625c-0.331543,0.1533203-0.7158203,0.2304688-1.152832,0.2304688
		c-0.2670898,0-0.5219727-0.0361328-0.7646484-0.109375c-0.2431641-0.0722656-0.4555664-0.1816406-0.6376953-0.3271484
		s-0.3256836-0.3261719-0.4306641-0.5400391c-0.1054688-0.2148438-0.1577148-0.4638672-0.1577148-0.7470703
		c0-0.3720703,0.0825195-0.6835938,0.2485352-0.9345703s0.3925781-0.4550781,0.6796875-0.6132812
		c0.2875977-0.1572266,0.6230469-0.2705078,1.0078125-0.3398438c0.3842773-0.0683594,0.7949219-0.1025391,1.2319336-0.1025391
		H54.03125v-0.2431641c0-0.1455078-0.0283203-0.2910156-0.0849609-0.4379883
		c-0.0566406-0.1450195-0.1416016-0.2763672-0.2548828-0.394043c-0.1137695-0.1171875-0.2548828-0.2104492-0.4248047-0.2792969
		c-0.1699219-0.0683594-0.3725586-0.1030273-0.6069336-0.1030273c-0.2104492,0-0.3945312,0.0205078-0.5522461,0.0605469
		c-0.1582031,0.0405273-0.3017578,0.0913086-0.4311523,0.1518555s-0.2470703,0.1318359-0.3520508,0.2124023
		c-0.1049805,0.0810547-0.206543,0.1577148-0.3032227,0.2304688L50.3652344,20.1079102z M53.4487305,22.390625
		c-0.2592773,0-0.5244141,0.0146484-0.7954102,0.0419922c-0.2709961,0.0292969-0.5180664,0.0839844-0.7402344,0.1640625
		c-0.2226562,0.0810547-0.4047852,0.1943359-0.5463867,0.3398438s-0.2124023,0.3320312-0.2124023,0.5585938
		c0,0.3320312,0.1113281,0.5703125,0.3339844,0.7158203c0.222168,0.1464844,0.5239258,0.21875,0.9042969,0.21875
		c0.2993164,0,0.5541992-0.0498047,0.7646484-0.1513672s0.3803711-0.2324219,0.5097656-0.3945312
		s0.2226562-0.3417969,0.2792969-0.5400391s0.0849609-0.3945312,0.0849609-0.5888672V22.390625H53.4487305z"/>
	<path fill="#D9A4FC" d="M59.4204102,20.3510742h-1.565918v2.6098633c0,0.1621094,0.0039062,0.3222656,0.012207,0.4794922
		c0.0078125,0.1582031,0.0380859,0.2998047,0.0908203,0.4248047c0.0527344,0.1259766,0.1337891,0.2265625,0.2426758,0.3037109
		c0.109375,0.0771484,0.269043,0.1152344,0.4794922,0.1152344c0.1293945,0,0.2631836-0.0117188,0.4008789-0.0361328
		c0.137207-0.0244141,0.2626953-0.0693359,0.3759766-0.1337891v0.9951172
		c-0.1293945,0.0732422-0.2973633,0.1240234-0.503418,0.1523438c-0.206543,0.0283203-0.3662109,0.0419922-0.4794922,0.0419922
		c-0.4208984,0-0.746582-0.0585938-0.9770508-0.1757812c-0.230957-0.1171875-0.4008789-0.2685547-0.5102539-0.4550781
		c-0.1088867-0.1865234-0.1738281-0.3945312-0.1938477-0.625c-0.0205078-0.2314453-0.0302734-0.4638672-0.0302734-0.6982422
		v-2.9985352h-1.2626953v-0.9472656h1.2626953v-1.6142578h1.0922852v1.6142578h1.565918V20.3510742z"/>
	<path fill="#D9A4FC" d="M60.3549805,17.340332c0-0.2182617,0.0791016-0.40625,0.2368164-0.5644531
		c0.1577148-0.1577148,0.3461914-0.2363281,0.5644531-0.2363281c0.21875,0,0.4067383,0.0786133,0.5644531,0.2363281
		c0.1577148,0.1582031,0.2368164,0.3461914,0.2368164,0.5644531c0,0.21875-0.0791016,0.4067383-0.2368164,0.5644531
		S61.375,18.1416016,61.15625,18.1416016c-0.2182617,0-0.4067383-0.0791016-0.5644531-0.2368164
		S60.3549805,17.559082,60.3549805,17.340332z M60.6098633,19.4038086h1.0927734v5.7543945h-1.0927734V19.4038086z"/>
	<path fill="#D9A4FC" d="M62.8554688,22.28125c0-0.4208984,0.0786133-0.8134766,0.2363281-1.1767578
		c0.1582031-0.3652344,0.3745117-0.6845703,0.6494141-0.9599609c0.2753906-0.2749023,0.5991211-0.4916992,0.9711914-0.6494141
		s0.7729492-0.2368164,1.2016602-0.2368164c0.4291992,0,0.8295898,0.0791016,1.2016602,0.2368164
		c0.3725586,0.1577148,0.6962891,0.3745117,0.9711914,0.6494141c0.2749023,0.2753906,0.4916992,0.5947266,0.6494141,0.9599609
		c0.1577148,0.3632812,0.2368164,0.7558594,0.2368164,1.1767578s-0.0791016,0.8154297-0.2368164,1.1835938
		s-0.3745117,0.6875-0.6494141,0.9589844s-0.5986328,0.4853516-0.9711914,0.6435547
		c-0.3720703,0.1572266-0.7724609,0.2363281-1.2016602,0.2363281c-0.4287109,0-0.8295898-0.0791016-1.2016602-0.2363281
		c-0.3720703-0.1582031-0.6958008-0.3720703-0.9711914-0.6435547c-0.2749023-0.2714844-0.4912109-0.5908203-0.6494141-0.9589844
		C62.934082,23.0966797,62.8554688,22.7021484,62.8554688,22.28125z M64.0205078,22.28125
		c0,0.2910156,0.0444336,0.5605469,0.1337891,0.8076172c0.0888672,0.2470703,0.2143555,0.4570312,0.3759766,0.6308594
		C64.6923828,23.8935547,64.890625,24.03125,65.125,24.1328125c0.2348633,0.1005859,0.4980469,0.1513672,0.7890625,0.1513672
		c0.2915039,0,0.5541992-0.0507812,0.7890625-0.1513672c0.2348633-0.1015625,0.4331055-0.2392578,0.5947266-0.4130859
		c0.1621094-0.1738281,0.2871094-0.3837891,0.3764648-0.6308594c0.0888672-0.2470703,0.1333008-0.5166016,0.1333008-0.8076172
		s-0.0444336-0.5605469-0.1333008-0.8066406c-0.0893555-0.2470703-0.2143555-0.4580078-0.3764648-0.6323242
		c-0.1616211-0.1738281-0.3598633-0.3110352-0.5947266-0.4125977c-0.2348633-0.1010742-0.4975586-0.1518555-0.7890625-0.1518555
		c-0.2910156,0-0.5541992,0.0507812-0.7890625,0.1518555c-0.234375,0.1015625-0.4326172,0.2387695-0.5947266,0.4125977
		c-0.1616211,0.1743164-0.2871094,0.3852539-0.3759766,0.6323242C64.0649414,21.7207031,64.0205078,21.9902344,64.0205078,22.28125z
		"/>
	<path fill="#D9A4FC" d="M70.0415039,19.4038086h1.0927734v0.8862305h0.0244141
		c0.137207-0.3071289,0.3759766-0.5561523,0.7158203-0.746582c0.3398438-0.1899414,0.7324219-0.2851562,1.1777344-0.2851562
		c0.2749023,0,0.5400391,0.0424805,0.7949219,0.1274414s0.4775391,0.2167969,0.6674805,0.3945312
		c0.1904297,0.1782227,0.3417969,0.4067383,0.4555664,0.6860352c0.112793,0.2788086,0.1699219,0.6088867,0.1699219,0.9897461
		v3.7021484h-1.0927734v-3.3984375c0-0.2675781-0.0361328-0.4960938-0.109375-0.6865234
		c-0.0727539-0.1899414-0.1699219-0.3442383-0.2910156-0.4614258c-0.121582-0.1171875-0.2612305-0.2021484-0.4189453-0.2548828
		S72.90625,20.277832,72.7363281,20.277832c-0.2265625,0-0.4370117,0.0366211-0.6308594,0.109375
		c-0.1943359,0.0727539-0.3642578,0.1879883-0.5097656,0.3461914c-0.1459961,0.1577148-0.2592773,0.3583984-0.340332,0.6015625
		c-0.0805664,0.2421875-0.1210938,0.5292969-0.1210938,0.8613281v2.9619141h-1.0927734V19.4038086z"/>
</g>
<path fill="none" stroke="#D9A4FC" stroke-miterlimit="10" d="M1.5000036,1c0,1.2611165,1.0223334,2.2834499,2.2834394,2.2834499
	S6.0668826,2.2611165,6.0668826,1"/>
<path fill="none" stroke="#D9A4FC" stroke-miterlimit="10" d="M7.8936405,5.0551014"/>
<path fill="none" stroke="#D9A4FC" stroke-miterlimit="10" d="M7.8936405,1c0,1.2611165,1.0223331,2.2834499,2.2834396,2.2834499
	c1.261116,0,2.2834501-1.0223334,2.2834501-2.2834499"/>
<path fill="none" stroke="#37B34A" stroke-miterlimit="10" d="M14.2872772,5.0551014"/>
<path fill="none" stroke="#D9A4FC" stroke-miterlimit="10" d="M14.2872772,1c0,1.2611165,1.0223331,2.2834499,2.2834492,2.2834499
	c1.2611065,0,2.2834396-1.0223334,2.2834396-2.2834499"/>
<path fill="none" stroke="#D9A4FC" stroke-miterlimit="10" d="M1.5000036,13.9870892
	c0-1.261117,1.0223334-2.2834501,2.2834394-2.2834501s2.2834396,1.0223331,2.2834396,2.2834501"/>
<path fill="none" stroke="#D9A4FC" stroke-miterlimit="10" d="M7.8936405,13.9870892
	c0-1.261117,1.0223331-2.2834501,2.2834396-2.2834501c1.261116,0,2.2834501,1.0223331,2.2834501,2.2834501"/>
<path fill="none" stroke="#D9A4FC" stroke-miterlimit="10" d="M14.2872772,13.9870892
	c0-1.261117,1.0223331-2.2834501,2.2834492-2.2834501c1.2611065,0,2.2834396,1.0223331,2.2834396,2.2834501"/>
<circle fill="none" stroke="#D9A4FC" stroke-miterlimit="10" cx="3.783443" cy="7.5078197" r="2.283443"/>
<circle fill="none" stroke="#D9A4FC" stroke-miterlimit="10" cx="10.177083" cy="7.5078197" r="2.283443"/>
<circle fill="#D9A4FC" stroke="#D9A4FC" stroke-miterlimit="10" cx="16.5707226" cy="7.5078197" r="2.283443"/>
<path fill="none" stroke="#979797" stroke-width="0.9915338" stroke-miterlimit="10" d="M141.4308014,20.3267651"/>
<g>
	<path fill="#CCCCCC" d="M139.3457031,0.9716797h5.0419922c0.6630859,0,1.2910156,0.0644531,1.8867188,0.1928711
		c0.5947266,0.1289062,1.1162109,0.34375,1.5644531,0.6445312c0.4472656,0.300293,0.8027344,0.7055664,1.0673828,1.2143555
		c0.2636719,0.5092773,0.3955078,1.144043,0.3955078,1.9047852c0,0.9199219-0.2392578,1.7021484-0.7177734,2.3461914
		s-1.1777344,1.0522461-2.0976562,1.2236328l3.3125,5.5024414h-3.4414062l-2.7236328-5.2080078h-1.4169922v5.2080078h-2.8710938
		V0.9716797z M142.2167969,6.3632812h1.6923828c0.2578125,0,0.53125-0.0087891,0.8193359-0.0273438
		s0.5488281-0.0737305,0.7822266-0.1655273c0.2324219-0.0922852,0.4257812-0.2363281,0.5791016-0.4326172
		s0.2304688-0.472168,0.2304688-0.828125c0-0.3310547-0.0673828-0.5947266-0.2021484-0.7915039
		c-0.1357422-0.1958008-0.3066406-0.3461914-0.515625-0.4506836c-0.2089844-0.1040039-0.4482422-0.1748047-0.7177734-0.2114258
		c-0.2695312-0.0371094-0.5332031-0.0551758-0.7910156-0.0551758h-1.8769531V6.3632812z"/>
</g>
<path fill="none" stroke="#979797" stroke-width="0.9915338" stroke-miterlimit="10" d="M141.5442352,20.2938766"/>
<g>
	<path fill="#CCCCCC" d="M139.4589844,16.5634766h3.0224609c0.5507812,0,1.0039062,0.0751953,1.3603516,0.2246094
		c0.3554688,0.1499023,0.6367188,0.3398438,0.8427734,0.5708008c0.2070312,0.2304688,0.3505859,0.4897461,0.4316406,0.7768555
		c0.0800781,0.2871094,0.1210938,0.5644531,0.1210938,0.831543c0,0.2749023-0.0488281,0.5400391-0.1455078,0.7949219
		c-0.0976562,0.2548828-0.2373047,0.4853516-0.4189453,0.6918945c-0.1816406,0.2060547-0.4042969,0.3803711-0.6679688,0.5219727
		c-0.2626953,0.1420898-0.5556641,0.2290039-0.8798828,0.2612305l2.4404297,3.9208984h-1.4570312l-2.1845703-3.7871094H140.625
		v3.7871094h-1.1660156V16.5634766z M140.625,20.3510742h1.5292969c0.2265625,0,0.4511719-0.0185547,0.6738281-0.0546875
		c0.2216797-0.0366211,0.4199219-0.1035156,0.5947266-0.2006836c0.1738281-0.0966797,0.3134766-0.2363281,0.4189453-0.418457
		c0.1044922-0.1821289,0.1572266-0.4189453,0.1572266-0.7099609c0-0.2915039-0.0527344-0.5283203-0.1572266-0.7104492
		c-0.1054688-0.1821289-0.2451172-0.3217773-0.4189453-0.418457c-0.1748047-0.097168-0.3730469-0.1640625-0.5947266-0.2006836
		c-0.2226562-0.0361328-0.4472656-0.0541992-0.6738281-0.0541992H140.625V20.3510742z"/>
	<path fill="#CCCCCC" d="M147.1191406,22.6816406c0,0.2509766,0.0546875,0.4794922,0.1640625,0.6865234
		c0.1083984,0.2060547,0.2519531,0.3818359,0.4306641,0.5273438c0.1777344,0.1455078,0.3837891,0.2597656,0.6191406,0.3398438
		c0.234375,0.0810547,0.4775391,0.1220703,0.7275391,0.1220703c0.3408203,0,0.6357422-0.0791016,0.8867188-0.2373047
		c0.2509766-0.1572266,0.4814453-0.3662109,0.6914062-0.625l0.8261719,0.6308594
		c-0.6074219,0.7851562-1.4570312,1.1777344-2.5498047,1.1777344c-0.453125,0-0.8632812-0.0771484-1.2314453-0.2304688
		s-0.6796875-0.3662109-0.9345703-0.6376953c-0.2548828-0.2705078-0.4511719-0.5898438-0.5888672-0.9589844
		c-0.1376953-0.3681641-0.2070312-0.7666016-0.2070312-1.1953125s0.0751953-0.8271484,0.2246094-1.1953125
		c0.1503906-0.3686523,0.3564453-0.6884766,0.6191406-0.9594727c0.2636719-0.2709961,0.5771484-0.4833984,0.9414062-0.6376953
		c0.3642578-0.1533203,0.7597656-0.2304688,1.1894531-0.2304688c0.5097656,0,0.9404297,0.0893555,1.2929688,0.2670898
		c0.3515625,0.1782227,0.640625,0.4106445,0.8671875,0.6982422c0.2265625,0.2871094,0.390625,0.6108398,0.4921875,0.9716797
		c0.1005859,0.359375,0.1513672,0.7255859,0.1513672,1.0986328v0.3876953H147.1191406z M150.5664062,21.8076172
		c-0.0087891-0.2421875-0.046875-0.4648438-0.1152344-0.6679688c-0.0693359-0.2016602-0.171875-0.3779297-0.3095703-0.527832
		c-0.1376953-0.1494141-0.3095703-0.2670898-0.5166016-0.3520508c-0.2060547-0.0849609-0.4462891-0.1274414-0.7216797-0.1274414
		c-0.2675781,0-0.5117188,0.0507812-0.734375,0.1518555s-0.4111328,0.2324219-0.5644531,0.3945312
		c-0.1542969,0.1616211-0.2734375,0.3417969-0.3583984,0.5410156c-0.0849609,0.1982422-0.1269531,0.3935547-0.1269531,0.5878906
		H150.5664062z"/>
	<path fill="#CCCCCC" d="M152.8232422,15.980957h1.0927734v9.1772461h-1.0927734V15.980957z"/>
	<path fill="#CCCCCC" d="M155.3730469,20.1079102c0.3076172-0.2832031,0.6630859-0.4956055,1.0683594-0.637207
		c0.4042969-0.1416016,0.8085938-0.2124023,1.2138672-0.2124023c0.4199219,0,0.7822266,0.0527344,1.0859375,0.1577148
		c0.3037109,0.1054688,0.5527344,0.2470703,0.7470703,0.4248047c0.1933594,0.1782227,0.3369141,0.3828125,0.4306641,0.6132812
		c0.0927734,0.2304688,0.1396484,0.4711914,0.1396484,0.7226562v2.9375c0,0.2021484,0.0039062,0.3886719,0.0117188,0.5585938
		s0.0205078,0.3320312,0.0361328,0.4853516h-0.9707031c-0.0244141-0.2910156-0.0361328-0.5830078-0.0361328-0.8740234h-0.0244141
		c-0.2431641,0.3720703-0.5302734,0.6357422-0.8623047,0.7890625c-0.3310547,0.1533203-0.7158203,0.2304688-1.1523438,0.2304688
		c-0.2675781,0-0.5224609-0.0361328-0.7646484-0.109375c-0.2431641-0.0722656-0.4560547-0.1816406-0.6376953-0.3271484
		c-0.1826172-0.1455078-0.3261719-0.3261719-0.4306641-0.5400391c-0.1054688-0.2148438-0.1582031-0.4638672-0.1582031-0.7470703
		c0-0.3720703,0.0830078-0.6835938,0.2490234-0.9345703s0.3925781-0.4550781,0.6796875-0.6132812
		c0.2871094-0.1572266,0.6230469-0.2705078,1.0078125-0.3398438c0.3837891-0.0683594,0.7949219-0.1025391,1.2314453-0.1025391
		h0.8017578v-0.2431641c0-0.1455078-0.0283203-0.2910156-0.0849609-0.4379883
		c-0.0566406-0.1450195-0.1416016-0.2763672-0.2548828-0.394043c-0.1142578-0.1171875-0.2548828-0.2104492-0.4248047-0.2792969
		c-0.1699219-0.0683594-0.3730469-0.1030273-0.6074219-0.1030273c-0.2099609,0-0.3945312,0.0205078-0.5517578,0.0605469
		c-0.1582031,0.0405273-0.3017578,0.0913086-0.4316406,0.1518555c-0.1289062,0.0605469-0.2470703,0.1318359-0.3515625,0.2124023
		c-0.1054688,0.0810547-0.2070312,0.1577148-0.3037109,0.2304688L155.3730469,20.1079102z M158.4560547,22.390625
		c-0.2587891,0-0.5244141,0.0146484-0.7949219,0.0419922c-0.2714844,0.0292969-0.5185547,0.0839844-0.7402344,0.1640625
		c-0.2226562,0.0810547-0.4052734,0.1943359-0.546875,0.3398438s-0.2119141,0.3320312-0.2119141,0.5585938
		c0,0.3320312,0.1113281,0.5703125,0.3339844,0.7158203c0.2216797,0.1464844,0.5234375,0.21875,0.9042969,0.21875
		c0.2988281,0,0.5537109-0.0498047,0.7646484-0.1513672c0.2099609-0.1015625,0.3798828-0.2324219,0.5097656-0.3945312
		c0.1289062-0.1621094,0.2226562-0.3417969,0.2792969-0.5400391s0.0849609-0.3945312,0.0849609-0.5888672V22.390625H158.4560547z"/>
	<path fill="#CCCCCC" d="M162.9228516,22.0869141l-2.0390625-2.6831055h1.4082031l1.3955078,2.0395508l1.3720703-2.0395508
		h1.3222656l-1.9658203,2.6831055l2.3300781,3.0712891h-1.4082031l-1.6992188-2.4160156l-1.6992188,2.4160156h-1.3476562
		L162.9228516,22.0869141z"/>
	<path fill="#CCCCCC" d="M167.3652344,20.1079102c0.3076172-0.2832031,0.6640625-0.4956055,1.0683594-0.637207
		s0.8095703-0.2124023,1.2138672-0.2124023c0.4208984,0,0.7832031,0.0527344,1.0869141,0.1577148
		c0.3027344,0.1054688,0.5517578,0.2470703,0.7460938,0.4248047c0.1943359,0.1782227,0.3378906,0.3828125,0.4306641,0.6132812
		c0.09375,0.2304688,0.1396484,0.4711914,0.1396484,0.7226562v2.9375c0,0.2021484,0.0039062,0.3886719,0.0126953,0.5585938
		c0.0078125,0.1699219,0.0195312,0.3320312,0.0361328,0.4853516h-0.9707031
		c-0.0244141-0.2910156-0.0371094-0.5830078-0.0371094-0.8740234h-0.0244141
		c-0.2421875,0.3720703-0.5292969,0.6357422-0.8613281,0.7890625s-0.7158203,0.2304688-1.1533203,0.2304688
		c-0.2666016,0-0.5214844-0.0361328-0.7646484-0.109375c-0.2431641-0.0722656-0.4550781-0.1816406-0.6376953-0.3271484
		c-0.1816406-0.1455078-0.3251953-0.3261719-0.4306641-0.5400391c-0.1054688-0.2148438-0.1572266-0.4638672-0.1572266-0.7470703
		c0-0.3720703,0.0820312-0.6835938,0.2480469-0.9345703s0.3925781-0.4550781,0.6796875-0.6132812
		c0.2880859-0.1572266,0.6230469-0.2705078,1.0078125-0.3398438c0.3847656-0.0683594,0.7949219-0.1025391,1.2324219-0.1025391
		h0.8007812v-0.2431641c0-0.1455078-0.0283203-0.2910156-0.0849609-0.4379883
		c-0.0566406-0.1450195-0.1416016-0.2763672-0.2548828-0.394043c-0.1132812-0.1171875-0.2548828-0.2104492-0.4248047-0.2792969
		c-0.1699219-0.0683594-0.3720703-0.1030273-0.6064453-0.1030273c-0.2109375,0-0.3945312,0.0205078-0.5527344,0.0605469
		c-0.1582031,0.0405273-0.3017578,0.0913086-0.4306641,0.1518555c-0.1298828,0.0605469-0.2470703,0.1318359-0.3525391,0.2124023
		c-0.1044922,0.0810547-0.2060547,0.1577148-0.3027344,0.2304688L167.3652344,20.1079102z M170.4492188,22.390625
		c-0.2597656,0-0.5244141,0.0146484-0.7958984,0.0419922c-0.2705078,0.0292969-0.5175781,0.0839844-0.7402344,0.1640625
		c-0.2226562,0.0810547-0.4042969,0.1943359-0.5458984,0.3398438s-0.2128906,0.3320312-0.2128906,0.5585938
		c0,0.3320312,0.1113281,0.5703125,0.3339844,0.7158203c0.2226562,0.1464844,0.5244141,0.21875,0.9042969,0.21875
		c0.2998047,0,0.5546875-0.0498047,0.7646484-0.1513672c0.2109375-0.1015625,0.3808594-0.2324219,0.5097656-0.3945312
		c0.1298828-0.1621094,0.2226562-0.3417969,0.2792969-0.5400391s0.0849609-0.3945312,0.0849609-0.5888672V22.390625H170.4492188z"/>
	<path fill="#CCCCCC" d="M176.4208984,20.3510742h-1.5664062v2.6098633c0,0.1621094,0.0039062,0.3222656,0.0126953,0.4794922
		c0.0078125,0.1582031,0.0380859,0.2998047,0.0908203,0.4248047c0.0527344,0.1259766,0.1337891,0.2265625,0.2421875,0.3037109
		c0.109375,0.0771484,0.2695312,0.1152344,0.4794922,0.1152344c0.1298828,0,0.2636719-0.0117188,0.4013672-0.0361328
		c0.1367188-0.0244141,0.2626953-0.0693359,0.3759766-0.1337891v0.9951172
		c-0.1298828,0.0732422-0.2978516,0.1240234-0.5039062,0.1523438s-0.3662109,0.0419922-0.4794922,0.0419922
		c-0.4208984,0-0.7460938-0.0585938-0.9765625-0.1757812c-0.2314453-0.1171875-0.4013672-0.2685547-0.5107422-0.4550781
		c-0.1083984-0.1865234-0.1738281-0.3945312-0.1933594-0.625c-0.0205078-0.2314453-0.0302734-0.4638672-0.0302734-0.6982422
		v-2.9985352H172.5v-0.9472656h1.2626953v-1.6142578h1.0917969v1.6142578h1.5664062V20.3510742z"/>
	<path fill="#CCCCCC" d="M177.3554688,17.340332c0-0.2182617,0.0791016-0.40625,0.2363281-0.5644531
		c0.1582031-0.1577148,0.3466797-0.2363281,0.5644531-0.2363281c0.21875,0,0.4072266,0.0786133,0.5644531,0.2363281
		c0.1582031,0.1582031,0.2373047,0.3461914,0.2373047,0.5644531c0,0.21875-0.0791016,0.4067383-0.2373047,0.5644531
		C178.5634766,18.0625,178.375,18.1416016,178.15625,18.1416016c-0.2177734,0-0.40625-0.0791016-0.5644531-0.2368164
		C177.4345703,17.7470703,177.3554688,17.559082,177.3554688,17.340332z M177.6103516,19.4038086h1.0927734v5.7543945h-1.0927734
		V19.4038086z"/>
	<path fill="#CCCCCC" d="M179.8554688,22.28125c0-0.4208984,0.0791016-0.8134766,0.2363281-1.1767578
		c0.1582031-0.3652344,0.375-0.6845703,0.6494141-0.9599609c0.2753906-0.2749023,0.5996094-0.4916992,0.9716797-0.6494141
		s0.7724609-0.2368164,1.2011719-0.2368164c0.4296875,0,0.8300781,0.0791016,1.2021484,0.2368164
		s0.6962891,0.3745117,0.9707031,0.6494141c0.2753906,0.2753906,0.4921875,0.5947266,0.6494141,0.9599609
		c0.1582031,0.3632812,0.2373047,0.7558594,0.2373047,1.1767578s-0.0791016,0.8154297-0.2373047,1.1835938
		c-0.1572266,0.3681641-0.3740234,0.6875-0.6494141,0.9589844c-0.2744141,0.2714844-0.5986328,0.4853516-0.9707031,0.6435547
		c-0.3720703,0.1572266-0.7724609,0.2363281-1.2021484,0.2363281c-0.4287109,0-0.8291016-0.0791016-1.2011719-0.2363281
		c-0.3720703-0.1582031-0.6962891-0.3720703-0.9716797-0.6435547c-0.2744141-0.2714844-0.4912109-0.5908203-0.6494141-0.9589844
		C179.9345703,23.0966797,179.8554688,22.7021484,179.8554688,22.28125z M181.0205078,22.28125
		c0,0.2910156,0.0449219,0.5605469,0.1337891,0.8076172s0.2148438,0.4570312,0.3759766,0.6308594
		c0.1621094,0.1738281,0.3603516,0.3115234,0.5947266,0.4130859c0.2353516,0.1005859,0.4980469,0.1513672,0.7890625,0.1513672
		c0.2919922,0,0.5546875-0.0507812,0.7890625-0.1513672c0.2353516-0.1015625,0.4335938-0.2392578,0.5947266-0.4130859
		c0.1621094-0.1738281,0.2871094-0.3837891,0.3769531-0.6308594c0.0888672-0.2470703,0.1328125-0.5166016,0.1328125-0.8076172
		s-0.0439453-0.5605469-0.1328125-0.8066406c-0.0898438-0.2470703-0.2148438-0.4580078-0.3769531-0.6323242
		c-0.1611328-0.1738281-0.359375-0.3110352-0.5947266-0.4125977c-0.234375-0.1010742-0.4970703-0.1518555-0.7890625-0.1518555
		c-0.2910156,0-0.5537109,0.0507812-0.7890625,0.1518555c-0.234375,0.1015625-0.4326172,0.2387695-0.5947266,0.4125977
		c-0.1611328,0.1743164-0.2871094,0.3852539-0.3759766,0.6323242
		C181.0654297,21.7207031,181.0205078,21.9902344,181.0205078,22.28125z"/>
	<path fill="#CCCCCC" d="M187.0419922,19.4038086h1.0927734v0.8862305h0.0244141
		c0.1367188-0.3071289,0.3759766-0.5561523,0.7158203-0.746582c0.3398438-0.1899414,0.7324219-0.2851562,1.1777344-0.2851562
		c0.2744141,0,0.5400391,0.0424805,0.7949219,0.1274414s0.4775391,0.2167969,0.6669922,0.3945312
		c0.1904297,0.1782227,0.3417969,0.4067383,0.4560547,0.6860352c0.1123047,0.2788086,0.1699219,0.6088867,0.1699219,0.9897461
		v3.7021484h-1.0927734v-3.3984375c0-0.2675781-0.0361328-0.4960938-0.109375-0.6865234
		c-0.0732422-0.1899414-0.1699219-0.3442383-0.2910156-0.4614258c-0.1220703-0.1171875-0.2617188-0.2021484-0.4189453-0.2548828
		c-0.1582031-0.0527344-0.3222656-0.0791016-0.4921875-0.0791016c-0.2265625,0-0.4365234,0.0366211-0.6308594,0.109375
		s-0.3642578,0.1879883-0.5097656,0.3461914c-0.1455078,0.1577148-0.2587891,0.3583984-0.3398438,0.6015625
		c-0.0810547,0.2421875-0.1210938,0.5292969-0.1210938,0.8613281v2.9619141h-1.0927734V19.4038086z"/>
</g>
<path fill="none" stroke="#CCCCCC" stroke-miterlimit="10" d="M118.5,1c0,1.2611165,1.0223389,2.2834499,2.2834396,2.2834499
	c1.2611084,0,2.2834396-1.0223334,2.2834396-2.2834499"/>
<path fill="none" stroke="#CCCCCC" stroke-miterlimit="10" d="M124.8936386,5.0551014"/>
<path fill="none" stroke="#CCCCCC" stroke-miterlimit="10" d="M124.8936386,1c0,1.2611165,1.0223389,2.2834499,2.2834396,2.2834499
	c1.2611237,0,2.2834473-1.0223334,2.2834473-2.2834499"/>
<path fill="none" stroke="#37B34A" stroke-miterlimit="10" d="M131.2872772,5.0551014"/>
<path fill="none" stroke="#CCCCCC" stroke-miterlimit="10" d="M131.2872772,1c0,1.2611165,1.0223389,2.2834499,2.2834473,2.2834499
	S135.8541718,2.2611165,135.8541718,1"/>
<path fill="none" stroke="#CCCCCC" stroke-miterlimit="10" d="M118.5,13.9870892
	c0-1.261117,1.0223389-2.2834501,2.2834396-2.2834501c1.2611084,0,2.2834396,1.0223331,2.2834396,2.2834501"/>
<path fill="none" stroke="#CCCCCC" stroke-miterlimit="10" d="M124.8936386,13.9870892
	c0-1.261117,1.0223389-2.2834501,2.2834396-2.2834501c1.2611237,0,2.2834473,1.0223331,2.2834473,2.2834501"/>
<path fill="none" stroke="#CCCCCC" stroke-miterlimit="10" d="M131.2872772,13.9870892
	c0-1.261117,1.0223389-2.2834501,2.2834473-2.2834501s2.2834473,1.0223331,2.2834473,2.2834501"/>
<circle fill="none" stroke="#CCCCCC" stroke-miterlimit="10" cx="120.7834396" cy="7.5078197" r="2.283443"/>
<circle fill="none" stroke="#CCCCCC" stroke-miterlimit="10" cx="127.1770859" cy="7.5078197" r="2.283443"/>
<circle fill="#CCCCCC" stroke="#CCCCCC" stroke-miterlimit="10" cx="133.5707245" cy="7.5078197" r="2.283443"/>
<g>
</g>
<g>
</g>
<g>
</g>
<g>
</g>
<g>
</g>
<g>
</g>
<g>
</g>
<g>
</g>
<g>
</g>
<g>
</g>
<g>
</g>
<g>
</g>
<g>
</g>
<g>
</g>
<g>
</g>
</svg>
