<?xml version="1.0" encoding="utf-8"?>
<!-- Generator: Adobe Illustrator 17.1.0, SVG Export Plug-In . SVG Version: 6.00 Build 0)  -->
<!DOCTYPE svg PUBLIC "-//W3C//DTD SVG 1.1//EN" "http://www.w3.org/Graphics/SVG/1.1/DTD/svg11.dtd">
<svg version="1.1" id="Layer_1" xmlns="http://www.w3.org/2000/svg" xmlns:xlink="http://www.w3.org/1999/xlink" x="0px" y="0px"
	 width="240px" height="40px" viewBox="0 0 240 40" enable-background="new 0 0 240 40" xml:space="preserve">
<path fill="none" stroke="#979797" stroke-width="0.9915" stroke-miterlimit="10" d="M24.4,20.3"/>
<g>
	<path fill="#436BB3" d="M30.9,4.4c-0.3-0.3-0.6-0.6-1-0.8c-0.4-0.2-0.9-0.3-1.4-0.3c-0.5,0-1,0.1-1.5,0.3c-0.5,0.2-0.9,0.5-1.2,0.9
		c-0.3,0.4-0.6,0.8-0.8,1.3c-0.2,0.5-0.3,1.1-0.3,1.7c0,0.6,0.1,1.2,0.3,1.7c0.2,0.5,0.5,1,0.8,1.3c0.3,0.4,0.7,0.7,1.2,0.9
		s0.9,0.3,1.4,0.3c0.6,0,1.1-0.1,1.6-0.4c0.5-0.2,0.8-0.6,1.1-1l2.4,1.8c-0.6,0.8-1.3,1.3-2.1,1.7s-1.7,0.6-2.6,0.6
		c-1,0-2-0.2-2.8-0.5c-0.9-0.3-1.6-0.8-2.2-1.4c-0.6-0.6-1.1-1.3-1.5-2.2c-0.4-0.8-0.5-1.8-0.5-2.8c0-1,0.2-2,0.5-2.8
		c0.3-0.8,0.8-1.6,1.5-2.2c0.6-0.6,1.4-1.1,2.2-1.4c0.9-0.3,1.8-0.5,2.8-0.5c0.4,0,0.8,0,1.2,0.1c0.4,0.1,0.8,0.2,1.2,0.3
		c0.4,0.1,0.8,0.3,1.1,0.6c0.4,0.2,0.7,0.5,1,0.9L30.9,4.4z"/>
	<path fill="#436BB3" d="M41.4,4.2c-0.2-0.3-0.5-0.5-0.9-0.7c-0.4-0.1-0.8-0.2-1.1-0.2c-0.2,0-0.4,0-0.6,0.1c-0.2,0-0.4,0.1-0.6,0.2
		c-0.2,0.1-0.4,0.2-0.5,0.4c-0.1,0.2-0.2,0.4-0.2,0.6c0,0.4,0.1,0.7,0.4,0.9c0.3,0.2,0.7,0.4,1.1,0.5c0.4,0.1,0.9,0.3,1.4,0.4
		c0.5,0.1,1,0.4,1.4,0.6c0.4,0.3,0.8,0.6,1.1,1.1c0.3,0.5,0.4,1.1,0.4,1.8c0,0.7-0.1,1.4-0.4,1.9c-0.3,0.5-0.6,1-1.1,1.3
		c-0.5,0.4-1,0.6-1.6,0.8c-0.6,0.2-1.2,0.3-1.9,0.3c-0.8,0-1.6-0.1-2.4-0.4c-0.7-0.3-1.4-0.7-2-1.3l2-2.2c0.3,0.4,0.7,0.7,1.1,0.9
		c0.4,0.2,0.9,0.3,1.4,0.3c0.2,0,0.5,0,0.7-0.1s0.5-0.1,0.6-0.2c0.2-0.1,0.3-0.3,0.5-0.4s0.2-0.4,0.2-0.6c0-0.4-0.2-0.7-0.5-0.9
		c-0.3-0.2-0.7-0.4-1.1-0.6c-0.5-0.2-0.9-0.3-1.5-0.5c-0.5-0.2-1-0.4-1.5-0.6c-0.5-0.3-0.8-0.6-1.1-1.1s-0.5-1-0.5-1.7
		c0-0.7,0.1-1.3,0.4-1.8s0.6-1,1.1-1.3c0.5-0.4,1-0.6,1.6-0.8s1.2-0.3,1.9-0.3c0.7,0,1.4,0.1,2.1,0.3c0.7,0.2,1.3,0.6,1.9,1
		L41.4,4.2z"/>
</g>
<path fill="none" stroke="#979797" stroke-width="0.9915" stroke-miterlimit="10" d="M24.5,20.3"/>
<g>
	<path fill="#436BB3" d="M28.4,18.4c-0.2-0.3-0.6-0.6-0.9-0.7c-0.4-0.2-0.8-0.3-1.2-0.3c-0.5,0-0.9,0.1-1.3,0.3
		c-0.4,0.2-0.7,0.4-1,0.7c-0.3,0.3-0.5,0.7-0.6,1.1s-0.2,0.9-0.2,1.4c0,0.5,0.1,0.9,0.2,1.3c0.1,0.4,0.4,0.8,0.6,1.1
		c0.3,0.3,0.6,0.5,1,0.7c0.4,0.2,0.8,0.3,1.3,0.3c0.5,0,0.9-0.1,1.3-0.3c0.4-0.2,0.7-0.5,0.9-0.8l1,0.7c-0.1,0.1-0.2,0.2-0.3,0.4
		c-0.2,0.2-0.4,0.3-0.6,0.5s-0.6,0.3-1,0.4c-0.4,0.1-0.8,0.2-1.3,0.2c-0.7,0-1.3-0.1-1.8-0.4s-1-0.6-1.4-1s-0.7-0.9-0.9-1.4
		c-0.2-0.5-0.3-1.1-0.3-1.6c0-0.7,0.1-1.3,0.3-1.8c0.2-0.6,0.5-1,0.9-1.5c0.4-0.4,0.9-0.7,1.4-1c0.6-0.2,1.2-0.3,1.8-0.3
		c0.6,0,1.1,0.1,1.7,0.3s1,0.6,1.3,1L28.4,18.4z"/>
	<path fill="#436BB3" d="M30.4,16h1.1v4.3h0c0.1-0.3,0.4-0.6,0.7-0.7c0.3-0.2,0.7-0.3,1.2-0.3c0.3,0,0.5,0,0.8,0.1s0.5,0.2,0.7,0.4
		c0.2,0.2,0.3,0.4,0.5,0.7c0.1,0.3,0.2,0.6,0.2,1v3.7h-1.1v-3.4c0-0.3,0-0.5-0.1-0.7c-0.1-0.2-0.2-0.3-0.3-0.5
		c-0.1-0.1-0.3-0.2-0.4-0.3s-0.3-0.1-0.5-0.1c-0.2,0-0.4,0-0.6,0.1c-0.2,0.1-0.4,0.2-0.5,0.3c-0.1,0.2-0.3,0.4-0.3,0.6
		c-0.1,0.2-0.1,0.5-0.1,0.9v3h-1.1V16z"/>
	<path fill="#436BB3" d="M37.7,22.7c0,0.3,0.1,0.5,0.2,0.7c0.1,0.2,0.3,0.4,0.4,0.5c0.2,0.1,0.4,0.3,0.6,0.3
		c0.2,0.1,0.5,0.1,0.7,0.1c0.3,0,0.6-0.1,0.9-0.2c0.3-0.2,0.5-0.4,0.7-0.6l0.8,0.6c-0.6,0.8-1.5,1.2-2.5,1.2c-0.5,0-0.9-0.1-1.2-0.2
		s-0.7-0.4-0.9-0.6c-0.3-0.3-0.5-0.6-0.6-1c-0.1-0.4-0.2-0.8-0.2-1.2s0.1-0.8,0.2-1.2c0.1-0.4,0.4-0.7,0.6-1s0.6-0.5,0.9-0.6
		c0.4-0.2,0.8-0.2,1.2-0.2c0.5,0,0.9,0.1,1.3,0.3c0.4,0.2,0.6,0.4,0.9,0.7c0.2,0.3,0.4,0.6,0.5,1c0.1,0.4,0.2,0.7,0.2,1.1v0.4H37.7z
		 M41.1,21.8c0-0.2,0-0.5-0.1-0.7c-0.1-0.2-0.2-0.4-0.3-0.5c-0.1-0.1-0.3-0.3-0.5-0.4c-0.2-0.1-0.4-0.1-0.7-0.1
		c-0.3,0-0.5,0.1-0.7,0.2s-0.4,0.2-0.6,0.4c-0.2,0.2-0.3,0.3-0.4,0.5c-0.1,0.2-0.1,0.4-0.1,0.6H41.1z"/>
	<path fill="#436BB3" d="M43.3,19.4h1v0.9h0c0-0.1,0.1-0.2,0.2-0.3c0.1-0.1,0.2-0.2,0.4-0.3s0.3-0.2,0.6-0.3
		c0.2-0.1,0.5-0.1,0.7-0.1c0.4,0,0.8,0.1,1.1,0.3c0.3,0.2,0.5,0.4,0.7,0.8c0.2-0.4,0.4-0.6,0.8-0.8c0.3-0.2,0.7-0.3,1-0.3
		c0.4,0,0.8,0.1,1.1,0.2c0.3,0.1,0.5,0.3,0.7,0.6c0.2,0.2,0.3,0.5,0.3,0.8c0.1,0.3,0.1,0.6,0.1,0.9v3.4h-1.1V22c0-0.2,0-0.4,0-0.6
		c0-0.2-0.1-0.4-0.2-0.5c-0.1-0.2-0.2-0.3-0.4-0.4c-0.2-0.1-0.4-0.1-0.6-0.1c-0.5,0-0.9,0.2-1.1,0.5c-0.2,0.3-0.3,0.7-0.3,1.3v3.1
		h-1.1v-3c0-0.3,0-0.5,0-0.8c0-0.2-0.1-0.4-0.2-0.6s-0.2-0.3-0.4-0.4c-0.2-0.1-0.4-0.1-0.6-0.1c-0.2,0-0.4,0-0.6,0.1
		c-0.2,0.1-0.3,0.2-0.5,0.3c-0.1,0.2-0.2,0.4-0.3,0.6c-0.1,0.2-0.1,0.5-0.1,0.8v3h-1.1V19.4z"/>
	<path fill="#436BB3" d="M53.2,17.3c0-0.2,0.1-0.4,0.2-0.6c0.2-0.2,0.3-0.2,0.6-0.2c0.2,0,0.4,0.1,0.6,0.2c0.2,0.2,0.2,0.3,0.2,0.6
		c0,0.2-0.1,0.4-0.2,0.6s-0.3,0.2-0.6,0.2c-0.2,0-0.4-0.1-0.6-0.2S53.2,17.6,53.2,17.3z M53.4,19.4h1.1v5.8h-1.1V19.4z"/>
	<path fill="#436BB3" d="M60.1,20.9c-0.2-0.2-0.4-0.4-0.6-0.5c-0.2-0.1-0.5-0.2-0.8-0.2c-0.3,0-0.6,0.1-0.8,0.2s-0.4,0.3-0.6,0.4
		c-0.1,0.2-0.3,0.4-0.3,0.7c-0.1,0.2-0.1,0.5-0.1,0.8c0,0.3,0,0.5,0.1,0.8c0.1,0.2,0.2,0.4,0.4,0.6c0.2,0.2,0.4,0.3,0.6,0.4
		c0.2,0.1,0.5,0.2,0.8,0.2c0.3,0,0.6-0.1,0.8-0.2c0.2-0.1,0.4-0.3,0.6-0.5l0.8,0.8c-0.3,0.3-0.6,0.5-1,0.7c-0.4,0.1-0.8,0.2-1.2,0.2
		c-0.4,0-0.9-0.1-1.2-0.2c-0.4-0.1-0.7-0.3-1-0.6s-0.5-0.6-0.6-0.9s-0.2-0.8-0.2-1.2s0.1-0.9,0.2-1.2c0.1-0.4,0.4-0.7,0.6-1
		c0.3-0.3,0.6-0.5,0.9-0.6c0.4-0.1,0.8-0.2,1.2-0.2c0.4,0,0.8,0.1,1.2,0.2s0.7,0.4,1,0.7L60.1,20.9z"/>
	<path fill="#436BB3" d="M61.5,20.1c0.3-0.3,0.7-0.5,1.1-0.6c0.4-0.1,0.8-0.2,1.2-0.2c0.4,0,0.8,0.1,1.1,0.2
		c0.3,0.1,0.6,0.2,0.7,0.4c0.2,0.2,0.3,0.4,0.4,0.6s0.1,0.5,0.1,0.7v2.9c0,0.2,0,0.4,0,0.6c0,0.2,0,0.3,0,0.5h-1c0-0.3,0-0.6,0-0.9
		h0c-0.2,0.4-0.5,0.6-0.9,0.8c-0.3,0.2-0.7,0.2-1.2,0.2c-0.3,0-0.5,0-0.8-0.1c-0.2-0.1-0.5-0.2-0.6-0.3s-0.3-0.3-0.4-0.5
		c-0.1-0.2-0.2-0.5-0.2-0.7c0-0.4,0.1-0.7,0.2-0.9s0.4-0.5,0.7-0.6c0.3-0.2,0.6-0.3,1-0.3c0.4-0.1,0.8-0.1,1.2-0.1h0.8v-0.2
		c0-0.1,0-0.3-0.1-0.4c-0.1-0.1-0.1-0.3-0.3-0.4c-0.1-0.1-0.3-0.2-0.4-0.3c-0.2-0.1-0.4-0.1-0.6-0.1c-0.2,0-0.4,0-0.6,0.1
		c-0.2,0-0.3,0.1-0.4,0.2s-0.2,0.1-0.4,0.2c-0.1,0.1-0.2,0.2-0.3,0.2L61.5,20.1z M64.6,22.4c-0.3,0-0.5,0-0.8,0
		c-0.3,0-0.5,0.1-0.7,0.2c-0.2,0.1-0.4,0.2-0.5,0.3s-0.2,0.3-0.2,0.6c0,0.3,0.1,0.6,0.3,0.7c0.2,0.1,0.5,0.2,0.9,0.2
		c0.3,0,0.6,0,0.8-0.2s0.4-0.2,0.5-0.4s0.2-0.3,0.3-0.5s0.1-0.4,0.1-0.6v-0.4H64.6z"/>
	<path fill="#436BB3" d="M67.6,16h1.1v9.2h-1.1V16z"/>
	<path fill="#436BB3" d="M22.7,34.5c0.2,0.3,0.5,0.5,0.8,0.7c0.3,0.2,0.7,0.2,1,0.2c0.2,0,0.4,0,0.6-0.1s0.4-0.2,0.6-0.3
		c0.2-0.1,0.3-0.3,0.4-0.4c0.1-0.2,0.2-0.4,0.2-0.6c0-0.3-0.1-0.6-0.3-0.8c-0.2-0.2-0.5-0.3-0.8-0.4c-0.3-0.1-0.7-0.2-1-0.3
		s-0.7-0.3-1-0.5s-0.6-0.5-0.8-0.8S22,30.4,22,29.9c0-0.3,0.1-0.5,0.2-0.8s0.3-0.5,0.5-0.8c0.2-0.2,0.5-0.4,0.9-0.6
		c0.4-0.2,0.8-0.2,1.3-0.2c0.5,0,0.9,0.1,1.3,0.2c0.4,0.1,0.8,0.4,1.1,0.8l-0.9,0.9c-0.1-0.2-0.4-0.4-0.6-0.5s-0.6-0.2-0.9-0.2
		c-0.3,0-0.6,0-0.8,0.1c-0.2,0.1-0.4,0.2-0.5,0.3c-0.1,0.1-0.2,0.3-0.3,0.4c-0.1,0.2-0.1,0.3-0.1,0.4c0,0.4,0.1,0.6,0.3,0.8
		s0.5,0.4,0.8,0.5c0.3,0.1,0.7,0.2,1,0.3s0.7,0.2,1,0.4c0.3,0.2,0.6,0.4,0.8,0.7c0.2,0.3,0.3,0.7,0.3,1.2c0,0.4-0.1,0.8-0.2,1.1
		c-0.2,0.3-0.4,0.6-0.6,0.8s-0.6,0.4-0.9,0.5c-0.4,0.1-0.8,0.2-1.2,0.2c-0.6,0-1.1-0.1-1.6-0.3c-0.5-0.2-0.9-0.5-1.2-0.9L22.7,34.5z
		"/>
	<path fill="#436BB3" d="M28.6,27.1h1.1v4.3h0c0.1-0.3,0.4-0.6,0.7-0.7c0.3-0.2,0.7-0.3,1.2-0.3c0.3,0,0.5,0,0.8,0.1
		s0.5,0.2,0.7,0.4c0.2,0.2,0.3,0.4,0.5,0.7c0.1,0.3,0.2,0.6,0.2,1v3.7h-1.1v-3.4c0-0.3,0-0.5-0.1-0.7c-0.1-0.2-0.2-0.3-0.3-0.5
		c-0.1-0.1-0.3-0.2-0.4-0.3s-0.3-0.1-0.5-0.1c-0.2,0-0.4,0-0.6,0.1c-0.2,0.1-0.4,0.2-0.5,0.3c-0.1,0.2-0.3,0.4-0.3,0.6
		c-0.1,0.2-0.1,0.5-0.1,0.9v3h-1.1V27.1z"/>
	<path fill="#436BB3" d="M34.9,28.5c0-0.2,0.1-0.4,0.2-0.6c0.2-0.2,0.3-0.2,0.6-0.2c0.2,0,0.4,0.1,0.6,0.2c0.2,0.2,0.2,0.3,0.2,0.6
		s-0.1,0.4-0.2,0.6c-0.2,0.2-0.3,0.2-0.6,0.2c-0.2,0-0.4-0.1-0.6-0.2C35,28.9,34.9,28.7,34.9,28.5z M35.2,30.5h1.1v5.8h-1.1V30.5z"
		/>
	<path fill="#436BB3" d="M38.1,31.5h-1.2v-0.9h1.2v-1.3c0-0.8,0.1-1.3,0.4-1.7s0.8-0.6,1.5-0.6c0.1,0,0.2,0,0.4,0
		c0.1,0,0.3,0,0.4,0.1l-0.1,1c-0.1,0-0.2-0.1-0.3-0.1c-0.1,0-0.2,0-0.3,0c-0.2,0-0.4,0-0.5,0.1c-0.1,0.1-0.2,0.1-0.3,0.3
		s-0.1,0.2-0.1,0.4c0,0.2,0,0.3,0,0.5v1.3h1.3v0.9h-1.3v4.8h-1.1V31.5z"/>
	<path fill="#436BB3" d="M45,31.5h-1.6v2.6c0,0.2,0,0.3,0,0.5c0,0.2,0,0.3,0.1,0.4c0.1,0.1,0.1,0.2,0.2,0.3c0.1,0.1,0.3,0.1,0.5,0.1
		c0.1,0,0.3,0,0.4,0c0.1,0,0.3-0.1,0.4-0.1v1c-0.1,0.1-0.3,0.1-0.5,0.2c-0.2,0-0.4,0-0.5,0c-0.4,0-0.7-0.1-1-0.2
		c-0.2-0.1-0.4-0.3-0.5-0.5c-0.1-0.2-0.2-0.4-0.2-0.6c0-0.2,0-0.5,0-0.7v-3h-1.3v-0.9h1.3v-1.6h1.1v1.6H45V31.5z"/>
</g>
<path fill="none" stroke="#436BB3" stroke-miterlimit="10" d="M1.5,1c0,1.3,1,2.3,2.3,2.3s2.3-1,2.3-2.3"/>
<path fill="none" stroke="#436BB3" stroke-miterlimit="10" d="M7.9,5.1"/>
<path fill="none" stroke="#436BB3" stroke-miterlimit="10" d="M7.9,1c0,1.3,1,2.3,2.3,2.3c1.3,0,2.3-1,2.3-2.3"/>
<path fill="none" stroke="#37B34A" stroke-miterlimit="10" d="M14.3,5.1"/>
<path fill="none" stroke="#436BB3" stroke-miterlimit="10" d="M14.3,1c0,1.3,1,2.3,2.3,2.3c1.3,0,2.3-1,2.3-2.3"/>
<path fill="none" stroke="#436BB3" stroke-miterlimit="10" d="M1.5,14c0-1.3,1-2.3,2.3-2.3s2.3,1,2.3,2.3"/>
<path fill="none" stroke="#436BB3" stroke-miterlimit="10" d="M7.9,14c0-1.3,1-2.3,2.3-2.3c1.3,0,2.3,1,2.3,2.3"/>
<path fill="none" stroke="#436BB3" stroke-miterlimit="10" d="M14.3,14c0-1.3,1-2.3,2.3-2.3c1.3,0,2.3,1,2.3,2.3"/>
<circle fill="none" stroke="#436BB3" stroke-miterlimit="10" cx="3.8" cy="7.5" r="2.3"/>
<circle fill="none" stroke="#436BB3" stroke-miterlimit="10" cx="10.2" cy="7.5" r="2.3"/>
<circle fill="#436BB3" stroke="#436BB3" stroke-miterlimit="10" cx="16.6" cy="7.5" r="2.3"/>
<path fill="none" stroke="#979797" stroke-width="0.9915" stroke-miterlimit="10" d="M141.4,20.3"/>
<g>
	<path fill="#CCCCCC" d="M147.9,4.4c-0.3-0.3-0.6-0.6-1-0.8s-0.9-0.3-1.4-0.3c-0.5,0-1,0.1-1.5,0.3c-0.5,0.2-0.9,0.5-1.2,0.9
		c-0.3,0.4-0.6,0.8-0.8,1.3c-0.2,0.5-0.3,1.1-0.3,1.7c0,0.6,0.1,1.2,0.3,1.7c0.2,0.5,0.5,1,0.8,1.3c0.3,0.4,0.7,0.7,1.2,0.9
		c0.4,0.2,0.9,0.3,1.4,0.3c0.6,0,1.1-0.1,1.6-0.4c0.5-0.2,0.8-0.6,1.1-1l2.4,1.8c-0.6,0.8-1.3,1.3-2.1,1.7s-1.7,0.6-2.6,0.6
		c-1,0-2-0.2-2.8-0.5c-0.9-0.3-1.6-0.8-2.2-1.4s-1.1-1.3-1.5-2.2c-0.3-0.8-0.5-1.8-0.5-2.8c0-1,0.2-2,0.5-2.8
		c0.3-0.8,0.8-1.6,1.5-2.2c0.6-0.6,1.4-1.1,2.2-1.4c0.9-0.3,1.8-0.5,2.8-0.5c0.4,0,0.8,0,1.2,0.1s0.8,0.2,1.2,0.3
		c0.4,0.1,0.8,0.3,1.1,0.6c0.4,0.2,0.7,0.5,1,0.9L147.9,4.4z"/>
	<path fill="#CCCCCC" d="M158.4,4.2c-0.2-0.3-0.5-0.5-0.9-0.7s-0.8-0.2-1.1-0.2c-0.2,0-0.4,0-0.6,0.1c-0.2,0-0.4,0.1-0.6,0.2
		c-0.2,0.1-0.4,0.2-0.5,0.4c-0.1,0.2-0.2,0.4-0.2,0.6c0,0.4,0.1,0.7,0.4,0.9c0.3,0.2,0.7,0.4,1.1,0.5c0.4,0.1,0.9,0.3,1.4,0.4
		c0.5,0.1,1,0.4,1.4,0.6c0.4,0.3,0.8,0.6,1.1,1.1c0.3,0.5,0.4,1.1,0.4,1.8c0,0.7-0.1,1.4-0.4,1.9c-0.3,0.5-0.6,1-1.1,1.3
		c-0.5,0.4-1,0.6-1.6,0.8c-0.6,0.2-1.2,0.3-1.9,0.3c-0.8,0-1.6-0.1-2.4-0.4s-1.4-0.7-2-1.3l2-2.2c0.3,0.4,0.7,0.7,1.1,0.9
		s0.9,0.3,1.4,0.3c0.2,0,0.5,0,0.7-0.1s0.5-0.1,0.6-0.2c0.2-0.1,0.3-0.3,0.5-0.4c0.1-0.2,0.2-0.4,0.2-0.6c0-0.4-0.2-0.7-0.5-0.9
		s-0.7-0.4-1.1-0.6c-0.5-0.2-0.9-0.3-1.5-0.5c-0.5-0.2-1-0.4-1.5-0.6c-0.5-0.3-0.8-0.6-1.1-1.1s-0.5-1-0.5-1.7
		c0-0.7,0.1-1.3,0.4-1.8c0.3-0.5,0.6-1,1.1-1.3c0.5-0.4,1-0.6,1.6-0.8c0.6-0.2,1.2-0.3,1.9-0.3c0.7,0,1.4,0.1,2.1,0.3
		c0.7,0.2,1.3,0.6,1.9,1L158.4,4.2z"/>
</g>
<path fill="none" stroke="#979797" stroke-width="0.9915" stroke-miterlimit="10" d="M141.5,20.3"/>
<g>
	<path fill="#CCCCCC" d="M145.4,18.4c-0.2-0.3-0.5-0.6-0.9-0.7c-0.4-0.2-0.8-0.3-1.2-0.3c-0.5,0-0.9,0.1-1.3,0.3
		c-0.4,0.2-0.7,0.4-1,0.7c-0.3,0.3-0.5,0.7-0.6,1.1c-0.2,0.4-0.2,0.9-0.2,1.4c0,0.5,0.1,0.9,0.2,1.3s0.4,0.8,0.6,1.1
		c0.3,0.3,0.6,0.5,1,0.7c0.4,0.2,0.8,0.3,1.3,0.3c0.5,0,0.9-0.1,1.3-0.3c0.4-0.2,0.7-0.5,0.9-0.8l1,0.7c-0.1,0.1-0.2,0.2-0.3,0.4
		s-0.4,0.3-0.6,0.5c-0.3,0.2-0.6,0.3-1,0.4s-0.8,0.2-1.3,0.2c-0.7,0-1.3-0.1-1.8-0.4c-0.5-0.3-1-0.6-1.4-1c-0.4-0.4-0.7-0.9-0.9-1.4
		c-0.2-0.5-0.3-1.1-0.3-1.6c0-0.7,0.1-1.3,0.3-1.8s0.5-1,0.9-1.5c0.4-0.4,0.9-0.7,1.4-1c0.5-0.2,1.2-0.3,1.8-0.3
		c0.6,0,1.1,0.1,1.7,0.3c0.5,0.2,1,0.6,1.3,1L145.4,18.4z"/>
	<path fill="#CCCCCC" d="M147.4,16h1.1v4.3h0c0.1-0.3,0.4-0.6,0.7-0.7c0.3-0.2,0.7-0.3,1.2-0.3c0.3,0,0.5,0,0.8,0.1s0.5,0.2,0.7,0.4
		c0.2,0.2,0.3,0.4,0.5,0.7c0.1,0.3,0.2,0.6,0.2,1v3.7h-1.1v-3.4c0-0.3,0-0.5-0.1-0.7c-0.1-0.2-0.2-0.3-0.3-0.5s-0.3-0.2-0.4-0.3
		c-0.2-0.1-0.3-0.1-0.5-0.1c-0.2,0-0.4,0-0.6,0.1c-0.2,0.1-0.4,0.2-0.5,0.3c-0.1,0.2-0.3,0.4-0.3,0.6c-0.1,0.2-0.1,0.5-0.1,0.9v3
		h-1.1V16z"/>
	<path fill="#CCCCCC" d="M154.7,22.7c0,0.3,0.1,0.5,0.2,0.7c0.1,0.2,0.3,0.4,0.4,0.5c0.2,0.1,0.4,0.3,0.6,0.3
		c0.2,0.1,0.5,0.1,0.7,0.1c0.3,0,0.6-0.1,0.9-0.2c0.3-0.2,0.5-0.4,0.7-0.6l0.8,0.6c-0.6,0.8-1.5,1.2-2.5,1.2c-0.5,0-0.9-0.1-1.2-0.2
		s-0.7-0.4-0.9-0.6c-0.3-0.3-0.5-0.6-0.6-1c-0.1-0.4-0.2-0.8-0.2-1.2s0.1-0.8,0.2-1.2c0.2-0.4,0.4-0.7,0.6-1
		c0.3-0.3,0.6-0.5,0.9-0.6c0.4-0.2,0.8-0.2,1.2-0.2c0.5,0,0.9,0.1,1.3,0.3c0.4,0.2,0.6,0.4,0.9,0.7c0.2,0.3,0.4,0.6,0.5,1
		c0.1,0.4,0.2,0.7,0.2,1.1v0.4H154.7z M158.1,21.8c0-0.2,0-0.5-0.1-0.7c-0.1-0.2-0.2-0.4-0.3-0.5c-0.1-0.1-0.3-0.3-0.5-0.4
		c-0.2-0.1-0.4-0.1-0.7-0.1c-0.3,0-0.5,0.1-0.7,0.2s-0.4,0.2-0.6,0.4c-0.2,0.2-0.3,0.3-0.4,0.5c-0.1,0.2-0.1,0.4-0.1,0.6H158.1z"/>
	<path fill="#CCCCCC" d="M160.3,19.4h1v0.9h0c0-0.1,0.1-0.2,0.2-0.3c0.1-0.1,0.2-0.2,0.4-0.3c0.2-0.1,0.3-0.2,0.6-0.3
		c0.2-0.1,0.5-0.1,0.7-0.1c0.4,0,0.8,0.1,1.1,0.3c0.3,0.2,0.5,0.4,0.7,0.8c0.2-0.4,0.4-0.6,0.8-0.8c0.3-0.2,0.7-0.3,1-0.3
		c0.4,0,0.8,0.1,1.1,0.2c0.3,0.1,0.5,0.3,0.7,0.6c0.2,0.2,0.3,0.5,0.3,0.8c0.1,0.3,0.1,0.6,0.1,0.9v3.4h-1.1V22c0-0.2,0-0.4,0-0.6
		c0-0.2-0.1-0.4-0.2-0.5c-0.1-0.2-0.2-0.3-0.4-0.4c-0.2-0.1-0.4-0.1-0.6-0.1c-0.5,0-0.9,0.2-1.1,0.5c-0.2,0.3-0.3,0.7-0.3,1.3v3.1
		h-1.1v-3c0-0.3,0-0.5,0-0.8s-0.1-0.4-0.2-0.6s-0.2-0.3-0.4-0.4c-0.2-0.1-0.4-0.1-0.6-0.1c-0.2,0-0.4,0-0.6,0.1
		c-0.2,0.1-0.3,0.2-0.5,0.3c-0.1,0.2-0.2,0.4-0.3,0.6c-0.1,0.2-0.1,0.5-0.1,0.8v3h-1.1V19.4z"/>
	<path fill="#CCCCCC" d="M170.2,17.3c0-0.2,0.1-0.4,0.2-0.6c0.2-0.2,0.3-0.2,0.6-0.2c0.2,0,0.4,0.1,0.6,0.2c0.2,0.2,0.2,0.3,0.2,0.6
		c0,0.2-0.1,0.4-0.2,0.6c-0.2,0.2-0.3,0.2-0.6,0.2c-0.2,0-0.4-0.1-0.6-0.2C170.3,17.7,170.2,17.6,170.2,17.3z M170.4,19.4h1.1v5.8
		h-1.1V19.4z"/>
	<path fill="#CCCCCC" d="M177.1,20.9c-0.2-0.2-0.4-0.4-0.6-0.5c-0.2-0.1-0.5-0.2-0.8-0.2c-0.3,0-0.6,0.1-0.8,0.2s-0.4,0.3-0.6,0.4
		c-0.1,0.2-0.3,0.4-0.3,0.7c-0.1,0.2-0.1,0.5-0.1,0.8c0,0.3,0,0.5,0.1,0.8c0.1,0.2,0.2,0.4,0.4,0.6s0.4,0.3,0.6,0.4
		c0.2,0.1,0.5,0.2,0.8,0.2c0.3,0,0.6-0.1,0.8-0.2c0.2-0.1,0.4-0.3,0.6-0.5l0.8,0.8c-0.3,0.3-0.6,0.5-1,0.7c-0.4,0.1-0.8,0.2-1.2,0.2
		c-0.4,0-0.9-0.1-1.2-0.2c-0.4-0.1-0.7-0.3-1-0.6c-0.3-0.3-0.5-0.6-0.6-0.9s-0.2-0.8-0.2-1.2s0.1-0.9,0.2-1.2c0.1-0.4,0.4-0.7,0.6-1
		s0.6-0.5,0.9-0.6c0.4-0.1,0.8-0.2,1.2-0.2c0.4,0,0.8,0.1,1.2,0.2c0.4,0.1,0.7,0.4,1,0.7L177.1,20.9z"/>
	<path fill="#CCCCCC" d="M178.5,20.1c0.3-0.3,0.7-0.5,1.1-0.6c0.4-0.1,0.8-0.2,1.2-0.2c0.4,0,0.8,0.1,1.1,0.2
		c0.3,0.1,0.6,0.2,0.7,0.4c0.2,0.2,0.3,0.4,0.4,0.6c0.1,0.2,0.1,0.5,0.1,0.7v2.9c0,0.2,0,0.4,0,0.6s0,0.3,0,0.5h-1
		c0-0.3,0-0.6,0-0.9h0c-0.2,0.4-0.5,0.6-0.9,0.8c-0.3,0.2-0.7,0.2-1.2,0.2c-0.3,0-0.5,0-0.8-0.1c-0.2-0.1-0.5-0.2-0.6-0.3
		c-0.2-0.1-0.3-0.3-0.4-0.5c-0.1-0.2-0.2-0.5-0.2-0.7c0-0.4,0.1-0.7,0.2-0.9s0.4-0.5,0.7-0.6c0.3-0.2,0.6-0.3,1-0.3
		c0.4-0.1,0.8-0.1,1.2-0.1h0.8v-0.2c0-0.1,0-0.3-0.1-0.4c-0.1-0.1-0.1-0.3-0.3-0.4c-0.1-0.1-0.3-0.2-0.4-0.3
		c-0.2-0.1-0.4-0.1-0.6-0.1c-0.2,0-0.4,0-0.6,0.1c-0.2,0-0.3,0.1-0.4,0.2c-0.1,0.1-0.2,0.1-0.4,0.2c-0.1,0.1-0.2,0.2-0.3,0.2
		L178.5,20.1z M181.6,22.4c-0.3,0-0.5,0-0.8,0c-0.3,0-0.5,0.1-0.7,0.2c-0.2,0.1-0.4,0.2-0.5,0.3s-0.2,0.3-0.2,0.6
		c0,0.3,0.1,0.6,0.3,0.7c0.2,0.1,0.5,0.2,0.9,0.2c0.3,0,0.6,0,0.8-0.2c0.2-0.1,0.4-0.2,0.5-0.4c0.1-0.2,0.2-0.3,0.3-0.5
		s0.1-0.4,0.1-0.6v-0.4H181.6z"/>
	<path fill="#CCCCCC" d="M184.6,16h1.1v9.2h-1.1V16z"/>
	<path fill="#CCCCCC" d="M139.7,34.5c0.2,0.3,0.5,0.5,0.8,0.7c0.3,0.2,0.7,0.2,1,0.2c0.2,0,0.4,0,0.6-0.1s0.4-0.2,0.6-0.3
		c0.2-0.1,0.3-0.3,0.4-0.4c0.1-0.2,0.2-0.4,0.2-0.6c0-0.3-0.1-0.6-0.3-0.8c-0.2-0.2-0.5-0.3-0.8-0.4c-0.3-0.1-0.7-0.2-1-0.3
		s-0.7-0.3-1-0.5s-0.6-0.5-0.8-0.8c-0.2-0.3-0.3-0.8-0.3-1.3c0-0.3,0.1-0.5,0.2-0.8s0.3-0.5,0.5-0.8c0.2-0.2,0.5-0.4,0.9-0.6
		c0.4-0.2,0.8-0.2,1.3-0.2c0.5,0,0.9,0.1,1.3,0.2c0.4,0.1,0.8,0.4,1.1,0.8l-0.9,0.9c-0.1-0.2-0.4-0.4-0.6-0.5
		c-0.3-0.1-0.6-0.2-0.9-0.2c-0.3,0-0.6,0-0.8,0.1s-0.4,0.2-0.5,0.3c-0.1,0.1-0.2,0.3-0.3,0.4s-0.1,0.3-0.1,0.4
		c0,0.4,0.1,0.6,0.3,0.8c0.2,0.2,0.5,0.4,0.8,0.5c0.3,0.1,0.7,0.2,1,0.3s0.7,0.2,1,0.4c0.3,0.2,0.6,0.4,0.8,0.7
		c0.2,0.3,0.3,0.7,0.3,1.2c0,0.4-0.1,0.8-0.2,1.1s-0.4,0.6-0.6,0.8c-0.3,0.2-0.6,0.4-0.9,0.5c-0.4,0.1-0.8,0.2-1.2,0.2
		c-0.6,0-1.1-0.1-1.6-0.3c-0.5-0.2-0.9-0.5-1.2-0.9L139.7,34.5z"/>
	<path fill="#CCCCCC" d="M145.6,27.1h1.1v4.3h0c0.1-0.3,0.4-0.6,0.7-0.7c0.3-0.2,0.7-0.3,1.2-0.3c0.3,0,0.5,0,0.8,0.1
		s0.5,0.2,0.7,0.4c0.2,0.2,0.3,0.4,0.5,0.7c0.1,0.3,0.2,0.6,0.2,1v3.7h-1.1v-3.4c0-0.3,0-0.5-0.1-0.7c-0.1-0.2-0.2-0.3-0.3-0.5
		c-0.1-0.1-0.3-0.2-0.4-0.3c-0.2-0.1-0.3-0.1-0.5-0.1c-0.2,0-0.4,0-0.6,0.1s-0.4,0.2-0.5,0.3c-0.1,0.2-0.3,0.4-0.3,0.6
		c-0.1,0.2-0.1,0.5-0.1,0.9v3h-1.1V27.1z"/>
	<path fill="#CCCCCC" d="M151.9,28.5c0-0.2,0.1-0.4,0.2-0.6c0.2-0.2,0.3-0.2,0.6-0.2c0.2,0,0.4,0.1,0.6,0.2c0.2,0.2,0.2,0.3,0.2,0.6
		s-0.1,0.4-0.2,0.6c-0.2,0.2-0.3,0.2-0.6,0.2c-0.2,0-0.4-0.1-0.6-0.2C152,28.9,151.9,28.7,151.9,28.5z M152.2,30.5h1.1v5.8h-1.1
		V30.5z"/>
	<path fill="#CCCCCC" d="M155.1,31.5h-1.2v-0.9h1.2v-1.3c0-0.8,0.1-1.3,0.4-1.7c0.3-0.4,0.8-0.6,1.5-0.6c0.1,0,0.2,0,0.4,0
		c0.1,0,0.3,0,0.4,0.1l-0.1,1c-0.1,0-0.2-0.1-0.3-0.1c-0.1,0-0.2,0-0.3,0c-0.2,0-0.4,0-0.5,0.1c-0.1,0.1-0.2,0.1-0.3,0.3
		c-0.1,0.1-0.1,0.2-0.1,0.4c0,0.2,0,0.3,0,0.5v1.3h1.3v0.9h-1.3v4.8h-1.1V31.5z"/>
	<path fill="#CCCCCC" d="M162,31.5h-1.6v2.6c0,0.2,0,0.3,0,0.5c0,0.2,0,0.3,0.1,0.4c0.1,0.1,0.1,0.2,0.2,0.3s0.3,0.1,0.5,0.1
		c0.1,0,0.3,0,0.4,0s0.3-0.1,0.4-0.1v1c-0.1,0.1-0.3,0.1-0.5,0.2c-0.2,0-0.4,0-0.5,0c-0.4,0-0.7-0.1-1-0.2s-0.4-0.3-0.5-0.5
		s-0.2-0.4-0.2-0.6c0-0.2,0-0.5,0-0.7v-3h-1.3v-0.9h1.3v-1.6h1.1v1.6h1.6V31.5z"/>
</g>
<path fill="none" stroke="#CCCCCC" stroke-miterlimit="10" d="M118.5,1c0,1.3,1,2.3,2.3,2.3c1.3,0,2.3-1,2.3-2.3"/>
<path fill="none" stroke="#CCCCCC" stroke-miterlimit="10" d="M124.9,5.1"/>
<path fill="none" stroke="#CCCCCC" stroke-miterlimit="10" d="M124.9,1c0,1.3,1,2.3,2.3,2.3c1.3,0,2.3-1,2.3-2.3"/>
<path fill="none" stroke="#37B34A" stroke-miterlimit="10" d="M131.3,5.1"/>
<path fill="none" stroke="#CCCCCC" stroke-miterlimit="10" d="M131.3,1c0,1.3,1,2.3,2.3,2.3s2.3-1,2.3-2.3"/>
<path fill="none" stroke="#CCCCCC" stroke-miterlimit="10" d="M118.5,14c0-1.3,1-2.3,2.3-2.3c1.3,0,2.3,1,2.3,2.3"/>
<path fill="none" stroke="#CCCCCC" stroke-miterlimit="10" d="M124.9,14c0-1.3,1-2.3,2.3-2.3c1.3,0,2.3,1,2.3,2.3"/>
<path fill="none" stroke="#CCCCCC" stroke-miterlimit="10" d="M131.3,14c0-1.3,1-2.3,2.3-2.3s2.3,1,2.3,2.3"/>
<circle fill="none" stroke="#CCCCCC" stroke-miterlimit="10" cx="120.8" cy="7.5" r="2.3"/>
<circle fill="none" stroke="#CCCCCC" stroke-miterlimit="10" cx="127.2" cy="7.5" r="2.3"/>
<circle fill="#CCCCCC" stroke="#CCCCCC" stroke-miterlimit="10" cx="133.6" cy="7.5" r="2.3"/>
<g>
</g>
<g>
</g>
<g>
</g>
<g>
</g>
<g>
</g>
<g>
</g>
<g>
</g>
<g>
</g>
<g>
</g>
<g>
</g>
<g>
</g>
<g>
</g>
<g>
</g>
<g>
</g>
<g>
</g>
</svg>
