<?xml version="1.0" encoding="utf-8"?>
<!-- Generator: Adobe Illustrator 17.1.0, SVG Export Plug-In . SVG Version: 6.00 Build 0)  -->
<!DOCTYPE svg PUBLIC "-//W3C//DTD SVG 1.1//EN" "http://www.w3.org/Graphics/SVG/1.1/DTD/svg11.dtd">
<svg version="1.1" id="Layer_1" xmlns="http://www.w3.org/2000/svg" xmlns:xlink="http://www.w3.org/1999/xlink" x="0px" y="0px"
	 width="240px" height="40px" viewBox="0 0 240 40" enable-background="new 0 0 240 40" xml:space="preserve">
<path fill="none" stroke="#979797" stroke-width="0.9915" stroke-miterlimit="10" d="M24.4,20.3"/>
<g>
	<path fill="#48B0E3" d="M28.8,4.2c-0.2-0.3-0.5-0.5-0.9-0.7c-0.4-0.1-0.8-0.2-1.1-0.2c-0.2,0-0.4,0-0.6,0.1c-0.2,0-0.4,0.1-0.6,0.2
		C25.2,3.7,25.1,3.8,25,4c-0.1,0.2-0.2,0.4-0.2,0.6c0,0.4,0.1,0.7,0.4,0.9c0.3,0.2,0.7,0.4,1.1,0.5c0.4,0.1,0.9,0.3,1.4,0.4
		c0.5,0.1,1,0.4,1.4,0.6c0.4,0.3,0.8,0.6,1.1,1.1c0.3,0.5,0.4,1.1,0.4,1.8c0,0.7-0.1,1.4-0.4,1.9c-0.3,0.5-0.6,1-1.1,1.3
		c-0.5,0.4-1,0.6-1.6,0.8c-0.6,0.2-1.2,0.3-1.9,0.3c-0.8,0-1.6-0.1-2.4-0.4c-0.7-0.3-1.4-0.7-2-1.3l2-2.2c0.3,0.4,0.7,0.7,1.1,0.9
		c0.4,0.2,0.9,0.3,1.4,0.3c0.2,0,0.5,0,0.7-0.1s0.5-0.1,0.6-0.2c0.2-0.1,0.3-0.3,0.5-0.4s0.2-0.4,0.2-0.6c0-0.4-0.2-0.7-0.5-0.9
		c-0.3-0.2-0.7-0.4-1.1-0.6c-0.5-0.2-0.9-0.3-1.5-0.5c-0.5-0.2-1-0.4-1.5-0.6c-0.5-0.3-0.8-0.6-1.1-1.1s-0.5-1-0.5-1.7
		c0-0.7,0.1-1.3,0.4-1.8s0.6-1,1.1-1.3c0.5-0.4,1-0.6,1.6-0.8s1.2-0.3,1.9-0.3c0.7,0,1.4,0.1,2.1,0.3c0.7,0.2,1.3,0.6,1.9,1
		L28.8,4.2z"/>
	<path fill="#48B0E3" d="M36.5,1h2.4l5.7,13h-3.2l-1.1-2.8h-5.1L34,14h-3.2L36.5,1z M37.6,4.8l-1.6,4h3.2L37.6,4.8z"/>
</g>
<path fill="none" stroke="#979797" stroke-width="0.9915" stroke-miterlimit="10" d="M24.5,20.3"/>
<g>
	<path fill="#48B0E3" d="M22.7,23.4c0.2,0.3,0.5,0.5,0.8,0.7c0.3,0.2,0.7,0.2,1,0.2c0.2,0,0.4,0,0.6-0.1s0.4-0.2,0.6-0.3
		c0.2-0.1,0.3-0.3,0.4-0.4c0.1-0.2,0.2-0.4,0.2-0.6c0-0.3-0.1-0.6-0.3-0.8c-0.2-0.2-0.5-0.3-0.8-0.4c-0.3-0.1-0.7-0.2-1-0.3
		s-0.7-0.3-1-0.5c-0.3-0.2-0.6-0.5-0.8-0.8S22,19.3,22,18.7c0-0.3,0.1-0.5,0.2-0.8c0.1-0.3,0.3-0.5,0.5-0.8c0.2-0.2,0.5-0.4,0.9-0.6
		c0.4-0.2,0.8-0.2,1.3-0.2c0.5,0,0.9,0.1,1.3,0.2s0.8,0.4,1.1,0.8l-0.9,0.9c-0.1-0.2-0.4-0.4-0.6-0.5s-0.6-0.2-0.9-0.2
		c-0.3,0-0.6,0-0.8,0.1c-0.2,0.1-0.4,0.2-0.5,0.3c-0.1,0.1-0.2,0.3-0.3,0.4c-0.1,0.2-0.1,0.3-0.1,0.4c0,0.4,0.1,0.6,0.3,0.8
		c0.2,0.2,0.5,0.4,0.8,0.5c0.3,0.1,0.7,0.2,1,0.3s0.7,0.2,1,0.4c0.3,0.2,0.6,0.4,0.8,0.7c0.2,0.3,0.3,0.7,0.3,1.2
		c0,0.4-0.1,0.8-0.2,1.1c-0.2,0.3-0.4,0.6-0.6,0.8s-0.6,0.4-0.9,0.5c-0.4,0.1-0.8,0.2-1.2,0.2c-0.6,0-1.1-0.1-1.6-0.3
		c-0.5-0.2-0.9-0.5-1.2-0.9L22.7,23.4z"/>
	<path fill="#48B0E3" d="M28.6,19.4h1.1v0.8h0c0.2-0.3,0.5-0.5,0.9-0.7s0.7-0.3,1.1-0.3c0.4,0,0.8,0.1,1.2,0.2
		c0.4,0.2,0.7,0.4,0.9,0.6c0.3,0.3,0.5,0.6,0.6,1c0.1,0.4,0.2,0.8,0.2,1.2c0,0.4-0.1,0.8-0.2,1.2c-0.1,0.4-0.3,0.7-0.6,1
		c-0.3,0.3-0.6,0.5-0.9,0.6c-0.4,0.2-0.8,0.2-1.2,0.2c-0.4,0-0.8-0.1-1.2-0.3s-0.6-0.4-0.8-0.7h0v4.2h-1.1V19.4z M31.6,20.3
		c-0.3,0-0.6,0.1-0.8,0.2c-0.2,0.1-0.4,0.2-0.6,0.4c-0.2,0.2-0.3,0.4-0.4,0.6c-0.1,0.2-0.1,0.5-0.1,0.8s0,0.6,0.1,0.8
		s0.2,0.5,0.4,0.6c0.2,0.2,0.4,0.3,0.6,0.4c0.2,0.1,0.5,0.2,0.8,0.2s0.6-0.1,0.8-0.2c0.2-0.1,0.4-0.2,0.6-0.4
		c0.2-0.2,0.3-0.4,0.4-0.6c0.1-0.2,0.1-0.5,0.1-0.8s0-0.6-0.1-0.8c-0.1-0.2-0.2-0.5-0.4-0.6c-0.2-0.2-0.4-0.3-0.6-0.4
		C32.2,20.3,31.9,20.3,31.6,20.3z"/>
	<path fill="#48B0E3" d="M36.6,22.7c0,0.3,0.1,0.5,0.2,0.7c0.1,0.2,0.3,0.4,0.4,0.5c0.2,0.1,0.4,0.3,0.6,0.3
		c0.2,0.1,0.5,0.1,0.7,0.1c0.3,0,0.6-0.1,0.9-0.2c0.3-0.2,0.5-0.4,0.7-0.6l0.8,0.6c-0.6,0.8-1.5,1.2-2.5,1.2c-0.5,0-0.9-0.1-1.2-0.2
		s-0.7-0.4-0.9-0.6c-0.3-0.3-0.5-0.6-0.6-1c-0.1-0.4-0.2-0.8-0.2-1.2s0.1-0.8,0.2-1.2c0.1-0.4,0.4-0.7,0.6-1s0.6-0.5,0.9-0.6
		c0.4-0.2,0.8-0.2,1.2-0.2c0.5,0,0.9,0.1,1.3,0.3c0.4,0.2,0.6,0.4,0.9,0.7c0.2,0.3,0.4,0.6,0.5,1c0.1,0.4,0.2,0.7,0.2,1.1v0.4H36.6z
		 M40,21.8c0-0.2,0-0.5-0.1-0.7c-0.1-0.2-0.2-0.4-0.3-0.5c-0.1-0.1-0.3-0.3-0.5-0.4c-0.2-0.1-0.4-0.1-0.7-0.1
		c-0.3,0-0.5,0.1-0.7,0.2s-0.4,0.2-0.6,0.4c-0.2,0.2-0.3,0.3-0.4,0.5c-0.1,0.2-0.1,0.4-0.1,0.6H40z"/>
	<path fill="#48B0E3" d="M46.3,20.9c-0.2-0.2-0.4-0.4-0.6-0.5c-0.2-0.1-0.5-0.2-0.8-0.2c-0.3,0-0.6,0.1-0.8,0.2s-0.4,0.3-0.6,0.4
		c-0.1,0.2-0.3,0.4-0.3,0.7c-0.1,0.2-0.1,0.5-0.1,0.8c0,0.3,0,0.5,0.1,0.8c0.1,0.2,0.2,0.4,0.4,0.6c0.2,0.2,0.4,0.3,0.6,0.4
		c0.2,0.1,0.5,0.2,0.8,0.2c0.3,0,0.6-0.1,0.8-0.2c0.2-0.1,0.4-0.3,0.6-0.5l0.8,0.8c-0.3,0.3-0.6,0.5-1,0.7c-0.4,0.1-0.8,0.2-1.2,0.2
		c-0.4,0-0.9-0.1-1.2-0.2c-0.4-0.1-0.7-0.3-1-0.6s-0.5-0.6-0.6-0.9s-0.2-0.8-0.2-1.2s0.1-0.9,0.2-1.2c0.1-0.4,0.4-0.7,0.6-1
		c0.3-0.3,0.6-0.5,0.9-0.6c0.4-0.1,0.8-0.2,1.2-0.2c0.4,0,0.8,0.1,1.2,0.2s0.7,0.4,1,0.7L46.3,20.9z"/>
	<path fill="#48B0E3" d="M51.3,20.4h-1.6V23c0,0.2,0,0.3,0,0.5c0,0.2,0,0.3,0.1,0.4c0.1,0.1,0.1,0.2,0.2,0.3
		c0.1,0.1,0.3,0.1,0.5,0.1c0.1,0,0.3,0,0.4,0c0.1,0,0.3-0.1,0.4-0.1v1c-0.1,0.1-0.3,0.1-0.5,0.2c-0.2,0-0.4,0-0.5,0
		c-0.4,0-0.7-0.1-1-0.2c-0.2-0.1-0.4-0.3-0.5-0.5c-0.1-0.2-0.2-0.4-0.2-0.6c0-0.2,0-0.5,0-0.7v-3h-1.3v-0.9h1.3v-1.6h1.1v1.6h1.6
		V20.4z"/>
	<path fill="#48B0E3" d="M52.4,19.4h1.1v0.9h0c0.1-0.2,0.2-0.3,0.3-0.4c0.1-0.1,0.3-0.2,0.4-0.3c0.1-0.1,0.3-0.2,0.5-0.2
		c0.2-0.1,0.4-0.1,0.5-0.1c0.2,0,0.3,0,0.5,0.1l0,1.2c-0.1,0-0.2,0-0.3-0.1c-0.1,0-0.2,0-0.3,0c-0.5,0-0.9,0.1-1.2,0.4
		c-0.3,0.3-0.4,0.8-0.4,1.4v2.9h-1.1V19.4z"/>
	<path fill="#48B0E3" d="M61.7,25.2h-1.1v-0.9h0c-0.1,0.3-0.4,0.6-0.7,0.7s-0.7,0.3-1.2,0.3c-0.3,0-0.6,0-0.8-0.1
		c-0.3-0.1-0.5-0.2-0.7-0.4c-0.2-0.2-0.3-0.4-0.5-0.7c-0.1-0.3-0.2-0.6-0.2-1v-3.7h1.1v3.4c0,0.3,0,0.5,0.1,0.7
		c0.1,0.2,0.2,0.3,0.3,0.5c0.1,0.1,0.3,0.2,0.4,0.3s0.3,0.1,0.5,0.1c0.2,0,0.4,0,0.6-0.1c0.2-0.1,0.4-0.2,0.5-0.3
		c0.1-0.2,0.3-0.4,0.3-0.6c0.1-0.2,0.1-0.5,0.1-0.9v-3h1.1V25.2z"/>
	<path fill="#48B0E3" d="M63,19.4h1v0.9h0c0-0.1,0.1-0.2,0.2-0.3c0.1-0.1,0.2-0.2,0.4-0.3s0.3-0.2,0.6-0.3c0.2-0.1,0.5-0.1,0.7-0.1
		c0.4,0,0.8,0.1,1.1,0.3c0.3,0.2,0.5,0.4,0.7,0.8c0.2-0.4,0.4-0.6,0.8-0.8c0.3-0.2,0.7-0.3,1-0.3c0.4,0,0.8,0.1,1.1,0.2
		c0.3,0.1,0.5,0.3,0.7,0.6c0.2,0.2,0.3,0.5,0.3,0.8c0.1,0.3,0.1,0.6,0.1,0.9v3.4h-1.1V22c0-0.2,0-0.4,0-0.6c0-0.2-0.1-0.4-0.2-0.5
		c-0.1-0.2-0.2-0.3-0.4-0.4c-0.2-0.1-0.4-0.1-0.6-0.1c-0.5,0-0.9,0.2-1.1,0.5c-0.2,0.3-0.3,0.7-0.3,1.3v3.1h-1.1v-3
		c0-0.3,0-0.5,0-0.8c0-0.2-0.1-0.4-0.2-0.6s-0.2-0.3-0.4-0.4c-0.2-0.1-0.4-0.1-0.6-0.1c-0.2,0-0.4,0-0.6,0.1
		c-0.2,0.1-0.3,0.2-0.5,0.3c-0.1,0.2-0.2,0.4-0.3,0.6c-0.1,0.2-0.1,0.5-0.1,0.8v3H63V19.4z"/>
	<path fill="#48B0E3" d="M25.2,27.7h1.1l3.7,8.6h-1.4l-0.9-2.1h-4.1l-0.8,2.1h-1.4L25.2,27.7z M27.2,33.1l-1.6-3.9h0L24,33.1H27.2z"
		/>
	<path fill="#48B0E3" d="M30.4,30.5h1.1v0.9h0c0.1-0.3,0.4-0.6,0.7-0.7c0.3-0.2,0.7-0.3,1.2-0.3c0.3,0,0.5,0,0.8,0.1
		s0.5,0.2,0.7,0.4c0.2,0.2,0.3,0.4,0.5,0.7c0.1,0.3,0.2,0.6,0.2,1v3.7h-1.1v-3.4c0-0.3,0-0.5-0.1-0.7c-0.1-0.2-0.2-0.3-0.3-0.5
		c-0.1-0.1-0.3-0.2-0.4-0.3s-0.3-0.1-0.5-0.1c-0.2,0-0.4,0-0.6,0.1c-0.2,0.1-0.4,0.2-0.5,0.3c-0.1,0.2-0.3,0.4-0.3,0.6
		c-0.1,0.2-0.1,0.5-0.1,0.9v3h-1.1V30.5z"/>
	<path fill="#48B0E3" d="M36.9,31.2c0.3-0.3,0.7-0.5,1.1-0.6c0.4-0.1,0.8-0.2,1.2-0.2c0.4,0,0.8,0.1,1.1,0.2
		c0.3,0.1,0.6,0.2,0.7,0.4c0.2,0.2,0.3,0.4,0.4,0.6c0.1,0.2,0.1,0.5,0.1,0.7v2.9c0,0.2,0,0.4,0,0.6c0,0.2,0,0.3,0,0.5h-1
		c0-0.3,0-0.6,0-0.9h0c-0.2,0.4-0.5,0.6-0.9,0.8c-0.3,0.2-0.7,0.2-1.2,0.2c-0.3,0-0.5,0-0.8-0.1c-0.2-0.1-0.5-0.2-0.6-0.3
		s-0.3-0.3-0.4-0.5c-0.1-0.2-0.2-0.5-0.2-0.7c0-0.4,0.1-0.7,0.2-0.9s0.4-0.5,0.7-0.6c0.3-0.2,0.6-0.3,1-0.3c0.4-0.1,0.8-0.1,1.2-0.1
		h0.8v-0.2c0-0.1,0-0.3-0.1-0.4c-0.1-0.1-0.1-0.3-0.3-0.4c-0.1-0.1-0.3-0.2-0.4-0.3c-0.2-0.1-0.4-0.1-0.6-0.1c-0.2,0-0.4,0-0.6,0.1
		c-0.2,0-0.3,0.1-0.4,0.2c-0.1,0.1-0.2,0.1-0.4,0.2s-0.2,0.2-0.3,0.2L36.9,31.2z M40,33.5c-0.3,0-0.5,0-0.8,0
		c-0.3,0-0.5,0.1-0.7,0.2c-0.2,0.1-0.4,0.2-0.5,0.3s-0.2,0.3-0.2,0.6c0,0.3,0.1,0.6,0.3,0.7c0.2,0.1,0.5,0.2,0.9,0.2
		c0.3,0,0.6,0,0.8-0.2s0.4-0.2,0.5-0.4s0.2-0.3,0.3-0.5s0.1-0.4,0.1-0.6v-0.4H40z"/>
	<path fill="#48B0E3" d="M42.9,27.1H44v9.2h-1.1V27.1z"/>
	<path fill="#48B0E3" d="M44.8,30.5h1.3l1.7,4.5h0l1.6-4.5h1.2l-2.7,7c-0.1,0.3-0.2,0.5-0.3,0.7c-0.1,0.2-0.2,0.4-0.4,0.5
		c-0.1,0.1-0.3,0.3-0.5,0.3c-0.2,0.1-0.5,0.1-0.8,0.1c-0.2,0-0.3,0-0.5,0c-0.2,0-0.3-0.1-0.5-0.1l0.1-1c0.2,0.1,0.4,0.1,0.7,0.1
		c0.2,0,0.3,0,0.4-0.1c0.1,0,0.2-0.1,0.3-0.2s0.2-0.2,0.2-0.3s0.1-0.2,0.2-0.4l0.4-0.9L44.8,30.5z"/>
	<path fill="#48B0E3" d="M54.3,32c-0.1-0.2-0.3-0.3-0.5-0.4s-0.4-0.2-0.7-0.2c-0.3,0-0.5,0.1-0.7,0.2c-0.2,0.1-0.3,0.3-0.3,0.5
		c0,0.2,0.1,0.3,0.2,0.4c0.1,0.1,0.2,0.2,0.4,0.3c0.1,0.1,0.3,0.1,0.5,0.1s0.3,0.1,0.4,0.1c0.2,0.1,0.5,0.1,0.7,0.2
		c0.2,0.1,0.4,0.2,0.5,0.3c0.1,0.1,0.3,0.3,0.4,0.5c0.1,0.2,0.1,0.4,0.1,0.7c0,0.3-0.1,0.6-0.2,0.8c-0.1,0.2-0.3,0.4-0.5,0.6
		c-0.2,0.1-0.5,0.2-0.7,0.3c-0.3,0.1-0.6,0.1-0.8,0.1c-0.5,0-0.9-0.1-1.3-0.2c-0.4-0.1-0.7-0.4-1-0.8l0.8-0.7
		c0.2,0.2,0.4,0.3,0.6,0.5c0.2,0.1,0.5,0.2,0.8,0.2c0.1,0,0.3,0,0.4,0s0.3-0.1,0.4-0.1c0.1-0.1,0.2-0.1,0.3-0.2
		c0.1-0.1,0.1-0.2,0.1-0.3c0-0.2-0.1-0.3-0.2-0.4s-0.2-0.2-0.4-0.2s-0.3-0.1-0.4-0.1c-0.2,0-0.3-0.1-0.4-0.1
		c-0.2-0.1-0.5-0.1-0.7-0.2c-0.2-0.1-0.4-0.2-0.6-0.3c-0.2-0.1-0.3-0.3-0.4-0.5C51,32.7,51,32.4,51,32.2c0-0.3,0.1-0.6,0.2-0.8
		c0.1-0.2,0.3-0.4,0.5-0.6c0.2-0.1,0.4-0.3,0.7-0.3c0.3-0.1,0.5-0.1,0.8-0.1c0.4,0,0.8,0.1,1.1,0.2s0.6,0.4,0.8,0.7L54.3,32z"/>
	<path fill="#48B0E3" d="M56.2,28.5c0-0.2,0.1-0.4,0.2-0.6c0.2-0.2,0.3-0.2,0.6-0.2c0.2,0,0.4,0.1,0.6,0.2c0.2,0.2,0.2,0.3,0.2,0.6
		s-0.1,0.4-0.2,0.6c-0.2,0.2-0.3,0.2-0.6,0.2c-0.2,0-0.4-0.1-0.6-0.2C56.2,28.9,56.2,28.7,56.2,28.5z M56.4,30.5h1.1v5.8h-1.1V30.5z
		"/>
	<path fill="#48B0E3" d="M62,32c-0.1-0.2-0.3-0.3-0.5-0.4s-0.4-0.2-0.7-0.2c-0.3,0-0.5,0.1-0.7,0.2c-0.2,0.1-0.3,0.3-0.3,0.5
		c0,0.2,0.1,0.3,0.2,0.4c0.1,0.1,0.2,0.2,0.4,0.3c0.1,0.1,0.3,0.1,0.5,0.1s0.3,0.1,0.4,0.1c0.2,0.1,0.5,0.1,0.7,0.2
		c0.2,0.1,0.4,0.2,0.5,0.3c0.1,0.1,0.3,0.3,0.4,0.5c0.1,0.2,0.1,0.4,0.1,0.7c0,0.3-0.1,0.6-0.2,0.8c-0.1,0.2-0.3,0.4-0.5,0.6
		c-0.2,0.1-0.5,0.2-0.7,0.3c-0.3,0.1-0.6,0.1-0.8,0.1c-0.5,0-0.9-0.1-1.3-0.2c-0.4-0.1-0.7-0.4-1-0.8l0.8-0.7
		c0.2,0.2,0.4,0.3,0.6,0.5c0.2,0.1,0.5,0.2,0.8,0.2c0.1,0,0.3,0,0.4,0s0.3-0.1,0.4-0.1c0.1-0.1,0.2-0.1,0.3-0.2
		c0.1-0.1,0.1-0.2,0.1-0.3c0-0.2-0.1-0.3-0.2-0.4s-0.2-0.2-0.4-0.2s-0.3-0.1-0.4-0.1c-0.2,0-0.3-0.1-0.4-0.1
		c-0.2-0.1-0.5-0.1-0.7-0.2c-0.2-0.1-0.4-0.2-0.6-0.3c-0.2-0.1-0.3-0.3-0.4-0.5c-0.1-0.2-0.1-0.4-0.1-0.7c0-0.3,0.1-0.6,0.2-0.8
		c0.1-0.2,0.3-0.4,0.5-0.6c0.2-0.1,0.4-0.3,0.7-0.3c0.3-0.1,0.5-0.1,0.8-0.1c0.4,0,0.8,0.1,1.1,0.2s0.6,0.4,0.8,0.7L62,32z"/>
</g>
<path fill="none" stroke="#48B0E3" stroke-miterlimit="10" d="M1.5,1c0,1.3,1,2.3,2.3,2.3s2.3-1,2.3-2.3"/>
<path fill="none" stroke="#48B0E3" stroke-miterlimit="10" d="M7.9,5.1"/>
<path fill="none" stroke="#48B0E3" stroke-miterlimit="10" d="M7.9,1c0,1.3,1,2.3,2.3,2.3c1.3,0,2.3-1,2.3-2.3"/>
<path fill="none" stroke="#37B34A" stroke-miterlimit="10" d="M14.3,5.1"/>
<path fill="none" stroke="#48B0E3" stroke-miterlimit="10" d="M14.3,1c0,1.3,1,2.3,2.3,2.3c1.3,0,2.3-1,2.3-2.3"/>
<path fill="none" stroke="#48B0E3" stroke-miterlimit="10" d="M1.5,14c0-1.3,1-2.3,2.3-2.3s2.3,1,2.3,2.3"/>
<path fill="none" stroke="#48B0E3" stroke-miterlimit="10" d="M7.9,14c0-1.3,1-2.3,2.3-2.3c1.3,0,2.3,1,2.3,2.3"/>
<path fill="none" stroke="#48B0E3" stroke-miterlimit="10" d="M14.3,14c0-1.3,1-2.3,2.3-2.3c1.3,0,2.3,1,2.3,2.3"/>
<circle fill="none" stroke="#48B0E3" stroke-miterlimit="10" cx="3.8" cy="7.5" r="2.3"/>
<circle fill="none" stroke="#48B0E3" stroke-miterlimit="10" cx="10.2" cy="7.5" r="2.3"/>
<circle fill="#48B0E3" stroke="#48B0E3" stroke-miterlimit="10" cx="16.6" cy="7.5" r="2.3"/>
<path fill="none" stroke="#979797" stroke-width="0.9915" stroke-miterlimit="10" d="M141.4,20.3"/>
<g>
	<path fill="#CCCCCC" d="M145.8,4.2c-0.2-0.3-0.5-0.5-0.9-0.7s-0.8-0.2-1.1-0.2c-0.2,0-0.4,0-0.6,0.1c-0.2,0-0.4,0.1-0.6,0.2
		c-0.2,0.1-0.4,0.2-0.5,0.4c-0.1,0.2-0.2,0.4-0.2,0.6c0,0.4,0.1,0.7,0.4,0.9c0.3,0.2,0.7,0.4,1.1,0.5c0.4,0.1,0.9,0.3,1.4,0.4
		c0.5,0.1,1,0.4,1.4,0.6c0.4,0.3,0.8,0.6,1.1,1.1c0.3,0.5,0.4,1.1,0.4,1.8c0,0.7-0.1,1.4-0.4,1.9c-0.3,0.5-0.6,1-1.1,1.3
		c-0.5,0.4-1,0.6-1.6,0.8c-0.6,0.2-1.2,0.3-1.9,0.3c-0.8,0-1.6-0.1-2.4-0.4s-1.4-0.7-2-1.3l2-2.2c0.3,0.4,0.7,0.7,1.1,0.9
		s0.9,0.3,1.4,0.3c0.2,0,0.5,0,0.7-0.1s0.5-0.1,0.6-0.2c0.2-0.1,0.3-0.3,0.5-0.4c0.1-0.2,0.2-0.4,0.2-0.6c0-0.4-0.2-0.7-0.5-0.9
		s-0.7-0.4-1.1-0.6c-0.5-0.2-0.9-0.3-1.5-0.5c-0.5-0.2-1-0.4-1.5-0.6c-0.5-0.3-0.8-0.6-1.1-1.1s-0.5-1-0.5-1.7
		c0-0.7,0.1-1.3,0.4-1.8c0.3-0.5,0.6-1,1.1-1.3c0.5-0.4,1-0.6,1.6-0.8c0.6-0.2,1.2-0.3,1.9-0.3c0.7,0,1.4,0.1,2.1,0.3
		c0.7,0.2,1.3,0.6,1.9,1L145.8,4.2z"/>
	<path fill="#CCCCCC" d="M153.5,1h2.4l5.7,13h-3.2l-1.1-2.8h-5.1L151,14h-3.2L153.5,1z M154.6,4.8l-1.6,4h3.2L154.6,4.8z"/>
</g>
<path fill="none" stroke="#979797" stroke-width="0.9915" stroke-miterlimit="10" d="M141.5,20.3"/>
<g>
	<path fill="#CCCCCC" d="M139.7,23.4c0.2,0.3,0.5,0.5,0.8,0.7c0.3,0.2,0.7,0.2,1,0.2c0.2,0,0.4,0,0.6-0.1s0.4-0.2,0.6-0.3
		c0.2-0.1,0.3-0.3,0.4-0.4c0.1-0.2,0.2-0.4,0.2-0.6c0-0.3-0.1-0.6-0.3-0.8c-0.2-0.2-0.5-0.3-0.8-0.4c-0.3-0.1-0.7-0.2-1-0.3
		s-0.7-0.3-1-0.5c-0.3-0.2-0.6-0.5-0.8-0.8c-0.2-0.3-0.3-0.8-0.3-1.3c0-0.3,0.1-0.5,0.2-0.8c0.1-0.3,0.3-0.5,0.5-0.8
		c0.2-0.2,0.5-0.4,0.9-0.6c0.4-0.2,0.8-0.2,1.3-0.2c0.5,0,0.9,0.1,1.3,0.2s0.8,0.4,1.1,0.8l-0.9,0.9c-0.1-0.2-0.4-0.4-0.6-0.5
		c-0.3-0.1-0.6-0.2-0.9-0.2c-0.3,0-0.6,0-0.8,0.1s-0.4,0.2-0.5,0.3c-0.1,0.1-0.2,0.3-0.3,0.4s-0.1,0.3-0.1,0.4
		c0,0.4,0.1,0.6,0.3,0.8c0.2,0.2,0.5,0.4,0.8,0.5c0.3,0.1,0.7,0.2,1,0.3s0.7,0.2,1,0.4c0.3,0.2,0.6,0.4,0.8,0.7
		c0.2,0.3,0.3,0.7,0.3,1.2c0,0.4-0.1,0.8-0.2,1.1s-0.4,0.6-0.6,0.8c-0.3,0.2-0.6,0.4-0.9,0.5c-0.4,0.1-0.8,0.2-1.2,0.2
		c-0.6,0-1.1-0.1-1.6-0.3c-0.5-0.2-0.9-0.5-1.2-0.9L139.7,23.4z"/>
	<path fill="#CCCCCC" d="M145.6,19.4h1.1v0.8h0c0.2-0.3,0.5-0.5,0.9-0.7s0.7-0.3,1.1-0.3c0.4,0,0.8,0.1,1.2,0.2
		c0.4,0.2,0.7,0.4,0.9,0.6c0.3,0.3,0.5,0.6,0.6,1c0.1,0.4,0.2,0.8,0.2,1.2c0,0.4-0.1,0.8-0.2,1.2c-0.1,0.4-0.3,0.7-0.6,1
		c-0.3,0.3-0.6,0.5-0.9,0.6s-0.8,0.2-1.2,0.2c-0.4,0-0.8-0.1-1.2-0.3s-0.6-0.4-0.8-0.7h0v4.2h-1.1V19.4z M148.6,20.3
		c-0.3,0-0.6,0.1-0.8,0.2c-0.2,0.1-0.4,0.2-0.6,0.4c-0.2,0.2-0.3,0.4-0.4,0.6c-0.1,0.2-0.1,0.5-0.1,0.8s0,0.6,0.1,0.8
		s0.2,0.5,0.4,0.6c0.2,0.2,0.4,0.3,0.6,0.4c0.2,0.1,0.5,0.2,0.8,0.2c0.3,0,0.6-0.1,0.8-0.2c0.2-0.1,0.4-0.2,0.6-0.4
		c0.2-0.2,0.3-0.4,0.4-0.6s0.1-0.5,0.1-0.8s0-0.6-0.1-0.8c-0.1-0.2-0.2-0.5-0.4-0.6c-0.2-0.2-0.4-0.3-0.6-0.4
		C149.2,20.3,148.9,20.3,148.6,20.3z"/>
	<path fill="#CCCCCC" d="M153.6,22.7c0,0.3,0.1,0.5,0.2,0.7c0.1,0.2,0.3,0.4,0.4,0.5c0.2,0.1,0.4,0.3,0.6,0.3
		c0.2,0.1,0.5,0.1,0.7,0.1c0.3,0,0.6-0.1,0.9-0.2c0.3-0.2,0.5-0.4,0.7-0.6l0.8,0.6c-0.6,0.8-1.5,1.2-2.5,1.2c-0.5,0-0.9-0.1-1.2-0.2
		s-0.7-0.4-0.9-0.6c-0.3-0.3-0.5-0.6-0.6-1c-0.1-0.4-0.2-0.8-0.2-1.2s0.1-0.8,0.2-1.2c0.2-0.4,0.4-0.7,0.6-1
		c0.3-0.3,0.6-0.5,0.9-0.6c0.4-0.2,0.8-0.2,1.2-0.2c0.5,0,0.9,0.1,1.3,0.3c0.4,0.2,0.6,0.4,0.9,0.7c0.2,0.3,0.4,0.6,0.5,1
		c0.1,0.4,0.2,0.7,0.2,1.1v0.4H153.6z M157,21.8c0-0.2,0-0.5-0.1-0.7c-0.1-0.2-0.2-0.4-0.3-0.5c-0.1-0.1-0.3-0.3-0.5-0.4
		c-0.2-0.1-0.4-0.1-0.7-0.1c-0.3,0-0.5,0.1-0.7,0.2s-0.4,0.2-0.6,0.4c-0.2,0.2-0.3,0.3-0.4,0.5c-0.1,0.2-0.1,0.4-0.1,0.6H157z"/>
	<path fill="#CCCCCC" d="M163.3,20.9c-0.2-0.2-0.4-0.4-0.6-0.5s-0.5-0.2-0.8-0.2c-0.3,0-0.6,0.1-0.8,0.2s-0.4,0.3-0.6,0.4
		c-0.1,0.2-0.3,0.4-0.3,0.7c-0.1,0.2-0.1,0.5-0.1,0.8c0,0.3,0,0.5,0.1,0.8c0.1,0.2,0.2,0.4,0.4,0.6c0.2,0.2,0.4,0.3,0.6,0.4
		c0.2,0.1,0.5,0.2,0.8,0.2c0.3,0,0.6-0.1,0.8-0.2s0.4-0.3,0.6-0.5l0.8,0.8c-0.3,0.3-0.6,0.5-1,0.7s-0.8,0.2-1.2,0.2
		c-0.4,0-0.9-0.1-1.2-0.2c-0.4-0.1-0.7-0.3-1-0.6c-0.3-0.3-0.5-0.6-0.6-0.9s-0.2-0.8-0.2-1.2s0.1-0.9,0.2-1.2c0.1-0.4,0.3-0.7,0.6-1
		c0.3-0.3,0.6-0.5,0.9-0.6s0.8-0.2,1.2-0.2c0.4,0,0.8,0.1,1.2,0.2c0.4,0.1,0.7,0.4,1,0.7L163.3,20.9z"/>
	<path fill="#CCCCCC" d="M168.3,20.4h-1.6V23c0,0.2,0,0.3,0,0.5c0,0.2,0,0.3,0.1,0.4c0.1,0.1,0.1,0.2,0.2,0.3
		c0.1,0.1,0.3,0.1,0.5,0.1c0.1,0,0.3,0,0.4,0c0.1,0,0.3-0.1,0.4-0.1v1c-0.1,0.1-0.3,0.1-0.5,0.2s-0.4,0-0.5,0c-0.4,0-0.7-0.1-1-0.2
		c-0.2-0.1-0.4-0.3-0.5-0.5c-0.1-0.2-0.2-0.4-0.2-0.6c0-0.2,0-0.5,0-0.7v-3h-1.3v-0.9h1.3v-1.6h1.1v1.6h1.6V20.4z"/>
	<path fill="#CCCCCC" d="M169.4,19.4h1.1v0.9h0c0.1-0.2,0.2-0.3,0.3-0.4c0.1-0.1,0.3-0.2,0.4-0.3c0.1-0.1,0.3-0.2,0.5-0.2
		s0.4-0.1,0.5-0.1s0.3,0,0.5,0.1l0,1.2c-0.1,0-0.2,0-0.3-0.1c-0.1,0-0.2,0-0.3,0c-0.5,0-0.9,0.1-1.2,0.4c-0.3,0.3-0.4,0.8-0.4,1.4
		v2.9h-1.1V19.4z"/>
	<path fill="#CCCCCC" d="M178.7,25.2h-1.1v-0.9h0c-0.1,0.3-0.4,0.6-0.7,0.7s-0.7,0.3-1.2,0.3c-0.3,0-0.6,0-0.8-0.1
		c-0.3-0.1-0.5-0.2-0.7-0.4c-0.2-0.2-0.3-0.4-0.5-0.7s-0.2-0.6-0.2-1v-3.7h1.1v3.4c0,0.3,0,0.5,0.1,0.7c0.1,0.2,0.2,0.3,0.3,0.5
		s0.3,0.2,0.4,0.3c0.2,0.1,0.3,0.1,0.5,0.1c0.2,0,0.4,0,0.6-0.1c0.2-0.1,0.4-0.2,0.5-0.3c0.1-0.2,0.3-0.4,0.3-0.6
		c0.1-0.2,0.1-0.5,0.1-0.9v-3h1.1V25.2z"/>
	<path fill="#CCCCCC" d="M180,19.4h1v0.9h0c0-0.1,0.1-0.2,0.2-0.3c0.1-0.1,0.2-0.2,0.4-0.3c0.2-0.1,0.3-0.2,0.6-0.3
		c0.2-0.1,0.5-0.1,0.7-0.1c0.4,0,0.8,0.1,1.1,0.3c0.3,0.2,0.5,0.4,0.7,0.8c0.2-0.4,0.4-0.6,0.8-0.8c0.3-0.2,0.7-0.3,1-0.3
		c0.4,0,0.8,0.1,1.1,0.2c0.3,0.1,0.5,0.3,0.7,0.6c0.2,0.2,0.3,0.5,0.3,0.8c0.1,0.3,0.1,0.6,0.1,0.9v3.4h-1.1V22c0-0.2,0-0.4,0-0.6
		c0-0.2-0.1-0.4-0.2-0.5c-0.1-0.2-0.2-0.3-0.4-0.4c-0.2-0.1-0.4-0.1-0.6-0.1c-0.5,0-0.9,0.2-1.1,0.5c-0.2,0.3-0.3,0.7-0.3,1.3v3.1
		h-1.1v-3c0-0.3,0-0.5,0-0.8s-0.1-0.4-0.2-0.6s-0.2-0.3-0.4-0.4c-0.2-0.1-0.4-0.1-0.6-0.1c-0.2,0-0.4,0-0.6,0.1
		c-0.2,0.1-0.3,0.2-0.5,0.3c-0.1,0.2-0.2,0.4-0.3,0.6c-0.1,0.2-0.1,0.5-0.1,0.8v3H180V19.4z"/>
	<path fill="#CCCCCC" d="M142.2,27.7h1.1l3.7,8.6h-1.4l-0.9-2.1h-4.1l-0.8,2.1h-1.4L142.2,27.7z M144.2,33.1l-1.6-3.9h0l-1.6,3.9
		H144.2z"/>
	<path fill="#CCCCCC" d="M147.4,30.5h1.1v0.9h0c0.1-0.3,0.4-0.6,0.7-0.7c0.3-0.2,0.7-0.3,1.2-0.3c0.3,0,0.5,0,0.8,0.1
		s0.5,0.2,0.7,0.4c0.2,0.2,0.3,0.4,0.5,0.7s0.2,0.6,0.2,1v3.7h-1.1v-3.4c0-0.3,0-0.5-0.1-0.7c-0.1-0.2-0.2-0.3-0.3-0.5
		s-0.3-0.2-0.4-0.3c-0.2-0.1-0.3-0.1-0.5-0.1c-0.2,0-0.4,0-0.6,0.1c-0.2,0.1-0.4,0.2-0.5,0.3c-0.1,0.2-0.3,0.4-0.3,0.6
		c-0.1,0.2-0.1,0.5-0.1,0.9v3h-1.1V30.5z"/>
	<path fill="#CCCCCC" d="M153.9,31.2c0.3-0.3,0.7-0.5,1.1-0.6s0.8-0.2,1.2-0.2c0.4,0,0.8,0.1,1.1,0.2c0.3,0.1,0.6,0.2,0.7,0.4
		s0.3,0.4,0.4,0.6c0.1,0.2,0.1,0.5,0.1,0.7v2.9c0,0.2,0,0.4,0,0.6c0,0.2,0,0.3,0,0.5h-1c0-0.3,0-0.6,0-0.9h0
		c-0.2,0.4-0.5,0.6-0.9,0.8s-0.7,0.2-1.2,0.2c-0.3,0-0.5,0-0.8-0.1c-0.2-0.1-0.5-0.2-0.6-0.3c-0.2-0.1-0.3-0.3-0.4-0.5
		c-0.1-0.2-0.2-0.5-0.2-0.7c0-0.4,0.1-0.7,0.2-0.9s0.4-0.5,0.7-0.6c0.3-0.2,0.6-0.3,1-0.3c0.4-0.1,0.8-0.1,1.2-0.1h0.8v-0.2
		c0-0.1,0-0.3-0.1-0.4c-0.1-0.1-0.1-0.3-0.3-0.4s-0.3-0.2-0.4-0.3c-0.2-0.1-0.4-0.1-0.6-0.1c-0.2,0-0.4,0-0.6,0.1
		c-0.2,0-0.3,0.1-0.4,0.2c-0.1,0.1-0.2,0.1-0.4,0.2c-0.1,0.1-0.2,0.2-0.3,0.2L153.9,31.2z M157,33.5c-0.3,0-0.5,0-0.8,0
		c-0.3,0-0.5,0.1-0.7,0.2c-0.2,0.1-0.4,0.2-0.5,0.3s-0.2,0.3-0.2,0.6c0,0.3,0.1,0.6,0.3,0.7c0.2,0.1,0.5,0.2,0.9,0.2
		c0.3,0,0.6,0,0.8-0.2c0.2-0.1,0.4-0.2,0.5-0.4c0.1-0.2,0.2-0.3,0.3-0.5s0.1-0.4,0.1-0.6v-0.4H157z"/>
	<path fill="#CCCCCC" d="M159.9,27.1h1.1v9.2h-1.1V27.1z"/>
	<path fill="#CCCCCC" d="M161.8,30.5h1.3l1.7,4.5h0l1.6-4.5h1.2l-2.7,7c-0.1,0.3-0.2,0.5-0.3,0.7c-0.1,0.2-0.2,0.4-0.4,0.5
		s-0.3,0.3-0.5,0.3c-0.2,0.1-0.5,0.1-0.8,0.1c-0.2,0-0.3,0-0.5,0c-0.2,0-0.3-0.1-0.5-0.1l0.1-1c0.2,0.1,0.4,0.1,0.7,0.1
		c0.2,0,0.3,0,0.4-0.1c0.1,0,0.2-0.1,0.3-0.2c0.1-0.1,0.2-0.2,0.2-0.3c0.1-0.1,0.1-0.2,0.2-0.4l0.4-0.9L161.8,30.5z"/>
	<path fill="#CCCCCC" d="M171.3,32c-0.1-0.2-0.3-0.3-0.5-0.4c-0.2-0.1-0.4-0.2-0.7-0.2c-0.3,0-0.5,0.1-0.7,0.2s-0.3,0.3-0.3,0.5
		c0,0.2,0.1,0.3,0.2,0.4c0.1,0.1,0.2,0.2,0.4,0.3c0.1,0.1,0.3,0.1,0.5,0.1s0.3,0.1,0.4,0.1c0.2,0.1,0.5,0.1,0.7,0.2
		c0.2,0.1,0.4,0.2,0.5,0.3c0.1,0.1,0.3,0.3,0.4,0.5c0.1,0.2,0.1,0.4,0.1,0.7c0,0.3-0.1,0.6-0.2,0.8c-0.1,0.2-0.3,0.4-0.5,0.6
		c-0.2,0.1-0.5,0.2-0.7,0.3c-0.3,0.1-0.6,0.1-0.8,0.1c-0.5,0-0.9-0.1-1.3-0.2c-0.4-0.1-0.7-0.4-1-0.8l0.8-0.7
		c0.2,0.2,0.4,0.3,0.6,0.5c0.2,0.1,0.5,0.2,0.8,0.2c0.1,0,0.3,0,0.4,0s0.3-0.1,0.4-0.1s0.2-0.1,0.3-0.2c0.1-0.1,0.1-0.2,0.1-0.3
		c0-0.2-0.1-0.3-0.2-0.4c-0.1-0.1-0.2-0.2-0.4-0.2s-0.3-0.1-0.4-0.1s-0.3-0.1-0.4-0.1c-0.2-0.1-0.5-0.1-0.7-0.2
		c-0.2-0.1-0.4-0.2-0.6-0.3c-0.2-0.1-0.3-0.3-0.4-0.5c-0.1-0.2-0.1-0.4-0.1-0.7c0-0.3,0.1-0.6,0.2-0.8c0.1-0.2,0.3-0.4,0.5-0.6
		c0.2-0.1,0.4-0.3,0.7-0.3s0.5-0.1,0.8-0.1c0.4,0,0.8,0.1,1.1,0.2c0.4,0.1,0.6,0.4,0.8,0.7L171.3,32z"/>
	<path fill="#CCCCCC" d="M173.2,28.5c0-0.2,0.1-0.4,0.2-0.6c0.2-0.2,0.3-0.2,0.6-0.2s0.4,0.1,0.6,0.2c0.2,0.2,0.2,0.3,0.2,0.6
		s-0.1,0.4-0.2,0.6c-0.2,0.2-0.3,0.2-0.6,0.2s-0.4-0.1-0.6-0.2C173.2,28.9,173.2,28.7,173.2,28.5z M173.4,30.5h1.1v5.8h-1.1V30.5z"
		/>
	<path fill="#CCCCCC" d="M179,32c-0.1-0.2-0.3-0.3-0.5-0.4c-0.2-0.1-0.4-0.2-0.7-0.2c-0.3,0-0.5,0.1-0.7,0.2s-0.3,0.3-0.3,0.5
		c0,0.2,0.1,0.3,0.2,0.4c0.1,0.1,0.2,0.2,0.4,0.3c0.1,0.1,0.3,0.1,0.5,0.1s0.3,0.1,0.4,0.1c0.2,0.1,0.5,0.1,0.7,0.2
		c0.2,0.1,0.4,0.2,0.5,0.3c0.1,0.1,0.3,0.3,0.4,0.5c0.1,0.2,0.1,0.4,0.1,0.7c0,0.3-0.1,0.6-0.2,0.8c-0.1,0.2-0.3,0.4-0.5,0.6
		c-0.2,0.1-0.5,0.2-0.7,0.3c-0.3,0.1-0.6,0.1-0.8,0.1c-0.5,0-0.9-0.1-1.3-0.2c-0.4-0.1-0.7-0.4-1-0.8l0.8-0.7
		c0.2,0.2,0.4,0.3,0.6,0.5c0.2,0.1,0.5,0.2,0.8,0.2c0.1,0,0.3,0,0.4,0s0.3-0.1,0.4-0.1s0.2-0.1,0.3-0.2c0.1-0.1,0.1-0.2,0.1-0.3
		c0-0.2-0.1-0.3-0.2-0.4c-0.1-0.1-0.2-0.2-0.4-0.2s-0.3-0.1-0.4-0.1s-0.3-0.1-0.4-0.1c-0.2-0.1-0.5-0.1-0.7-0.2
		c-0.2-0.1-0.4-0.2-0.6-0.3c-0.2-0.1-0.3-0.3-0.4-0.5c-0.1-0.2-0.1-0.4-0.1-0.7c0-0.3,0.1-0.6,0.2-0.8c0.1-0.2,0.3-0.4,0.5-0.6
		c0.2-0.1,0.4-0.3,0.7-0.3s0.5-0.1,0.8-0.1c0.4,0,0.8,0.1,1.1,0.2c0.4,0.1,0.6,0.4,0.8,0.7L179,32z"/>
</g>
<path fill="none" stroke="#CCCCCC" stroke-miterlimit="10" d="M118.5,1c0,1.3,1,2.3,2.3,2.3c1.3,0,2.3-1,2.3-2.3"/>
<path fill="none" stroke="#CCCCCC" stroke-miterlimit="10" d="M124.9,5.1"/>
<path fill="none" stroke="#CCCCCC" stroke-miterlimit="10" d="M124.9,1c0,1.3,1,2.3,2.3,2.3c1.3,0,2.3-1,2.3-2.3"/>
<path fill="none" stroke="#37B34A" stroke-miterlimit="10" d="M131.3,5.1"/>
<path fill="none" stroke="#CCCCCC" stroke-miterlimit="10" d="M131.3,1c0,1.3,1,2.3,2.3,2.3s2.3-1,2.3-2.3"/>
<path fill="none" stroke="#CCCCCC" stroke-miterlimit="10" d="M118.5,14c0-1.3,1-2.3,2.3-2.3c1.3,0,2.3,1,2.3,2.3"/>
<path fill="none" stroke="#CCCCCC" stroke-miterlimit="10" d="M124.9,14c0-1.3,1-2.3,2.3-2.3c1.3,0,2.3,1,2.3,2.3"/>
<path fill="none" stroke="#CCCCCC" stroke-miterlimit="10" d="M131.3,14c0-1.3,1-2.3,2.3-2.3s2.3,1,2.3,2.3"/>
<circle fill="none" stroke="#CCCCCC" stroke-miterlimit="10" cx="120.8" cy="7.5" r="2.3"/>
<circle fill="none" stroke="#CCCCCC" stroke-miterlimit="10" cx="127.2" cy="7.5" r="2.3"/>
<circle fill="#CCCCCC" stroke="#CCCCCC" stroke-miterlimit="10" cx="133.6" cy="7.5" r="2.3"/>
<g>
</g>
<g>
</g>
<g>
</g>
<g>
</g>
<g>
</g>
<g>
</g>
<g>
</g>
<g>
</g>
<g>
</g>
<g>
</g>
<g>
</g>
<g>
</g>
<g>
</g>
<g>
</g>
<g>
</g>
</svg>
