<?xml version="1.0" encoding="utf-8"?>
<!-- Generator: Adobe Illustrator 17.1.0, SVG Export Plug-In . SVG Version: 6.00 Build 0)  -->
<!DOCTYPE svg PUBLIC "-//W3C//DTD SVG 1.1//EN" "http://www.w3.org/Graphics/SVG/1.1/DTD/svg11.dtd">
<svg version="1.1" id="Layer_1" xmlns="http://www.w3.org/2000/svg" xmlns:xlink="http://www.w3.org/1999/xlink" x="0px" y="0px"
	 width="240px" height="40px" viewBox="0 0 240 40" enable-background="new 0 0 240 40" xml:space="preserve">
<path fill="none" stroke="#979797" stroke-width="0.9915" stroke-miterlimit="10" d="M24.4,20.3"/>
<g>
	<path fill="#42BDAE" d="M22.3,1h4.3l3,8.5h0l3-8.5h4.3v13h-2.9V4h0l-3.4,10h-2.2L25.3,4h0v10h-2.9V1z"/>
	<path fill="#42BDAE" d="M39,1h4.3l3,8.5h0l3-8.5h4.3v13h-2.9V4h0l-3.4,10h-2.2L41.9,4h0v10H39V1z"/>
</g>
<path fill="none" stroke="#979797" stroke-width="0.9915" stroke-miterlimit="10" d="M24.5,20.3"/>
<g>
	<path fill="#42BDAE" d="M22.4,16.6h1.7l2.7,6.5h0l2.7-6.5h1.7v8.6h-1.2v-7.1h0l-2.9,7.1h-0.8l-2.9-7.1h0v7.1h-1.2V16.6z"/>
	<path fill="#42BDAE" d="M32.1,22.3c0-0.4,0.1-0.8,0.2-1.2c0.2-0.4,0.4-0.7,0.6-1c0.3-0.3,0.6-0.5,1-0.6s0.8-0.2,1.2-0.2
		c0.4,0,0.8,0.1,1.2,0.2c0.4,0.2,0.7,0.4,1,0.6c0.3,0.3,0.5,0.6,0.6,1c0.2,0.4,0.2,0.8,0.2,1.2s-0.1,0.8-0.2,1.2s-0.4,0.7-0.6,1
		s-0.6,0.5-1,0.6c-0.4,0.2-0.8,0.2-1.2,0.2c-0.4,0-0.8-0.1-1.2-0.2c-0.4-0.2-0.7-0.4-1-0.6c-0.3-0.3-0.5-0.6-0.6-1
		C32.2,23.1,32.1,22.7,32.1,22.3z M33.3,22.3c0,0.3,0,0.6,0.1,0.8c0.1,0.2,0.2,0.5,0.4,0.6c0.2,0.2,0.4,0.3,0.6,0.4
		c0.2,0.1,0.5,0.2,0.8,0.2c0.3,0,0.6-0.1,0.8-0.2c0.2-0.1,0.4-0.2,0.6-0.4c0.2-0.2,0.3-0.4,0.4-0.6c0.1-0.2,0.1-0.5,0.1-0.8
		s0-0.6-0.1-0.8c-0.1-0.2-0.2-0.5-0.4-0.6c-0.2-0.2-0.4-0.3-0.6-0.4c-0.2-0.1-0.5-0.2-0.8-0.2c-0.3,0-0.6,0.1-0.8,0.2
		c-0.2,0.1-0.4,0.2-0.6,0.4c-0.2,0.2-0.3,0.4-0.4,0.6C33.3,21.7,33.3,22,33.3,22.3z"/>
	<path fill="#42BDAE" d="M38.9,16H40v9.2h-1.1V16z"/>
	<path fill="#42BDAE" d="M41.8,22.7c0,0.3,0.1,0.5,0.2,0.7c0.1,0.2,0.3,0.4,0.4,0.5c0.2,0.1,0.4,0.3,0.6,0.3
		c0.2,0.1,0.5,0.1,0.7,0.1c0.3,0,0.6-0.1,0.9-0.2c0.3-0.2,0.5-0.4,0.7-0.6l0.8,0.6c-0.6,0.8-1.5,1.2-2.5,1.2c-0.5,0-0.9-0.1-1.2-0.2
		s-0.7-0.4-0.9-0.6c-0.3-0.3-0.5-0.6-0.6-1c-0.1-0.4-0.2-0.8-0.2-1.2s0.1-0.8,0.2-1.2c0.1-0.4,0.4-0.7,0.6-1s0.6-0.5,0.9-0.6
		c0.4-0.2,0.8-0.2,1.2-0.2c0.5,0,0.9,0.1,1.3,0.3c0.4,0.2,0.6,0.4,0.9,0.7c0.2,0.3,0.4,0.6,0.5,1c0.1,0.4,0.2,0.7,0.2,1.1v0.4H41.8z
		 M45.3,21.8c0-0.2,0-0.5-0.1-0.7c-0.1-0.2-0.2-0.4-0.3-0.5c-0.1-0.1-0.3-0.3-0.5-0.4c-0.2-0.1-0.4-0.1-0.7-0.1
		c-0.3,0-0.5,0.1-0.7,0.2s-0.4,0.2-0.6,0.4C42.2,20.8,42,21,42,21.2c-0.1,0.2-0.1,0.4-0.1,0.6H45.3z"/>
	<path fill="#42BDAE" d="M51.3,20.9c-0.2-0.2-0.4-0.4-0.6-0.5c-0.2-0.1-0.5-0.2-0.8-0.2c-0.3,0-0.6,0.1-0.8,0.2s-0.4,0.3-0.6,0.4
		c-0.1,0.2-0.3,0.4-0.3,0.7c-0.1,0.2-0.1,0.5-0.1,0.8c0,0.3,0,0.5,0.1,0.8c0.1,0.2,0.2,0.4,0.4,0.6c0.2,0.2,0.4,0.3,0.6,0.4
		c0.2,0.1,0.5,0.2,0.8,0.2c0.3,0,0.6-0.1,0.8-0.2c0.2-0.1,0.4-0.3,0.6-0.5l0.8,0.8c-0.3,0.3-0.6,0.5-1,0.7c-0.4,0.1-0.8,0.2-1.2,0.2
		c-0.4,0-0.9-0.1-1.2-0.2c-0.4-0.1-0.7-0.3-1-0.6s-0.5-0.6-0.6-0.9S47,22.8,47,22.3s0.1-0.9,0.2-1.2c0.1-0.4,0.4-0.7,0.6-1
		c0.3-0.3,0.6-0.5,0.9-0.6c0.4-0.1,0.8-0.2,1.2-0.2c0.4,0,0.8,0.1,1.2,0.2s0.7,0.4,1,0.7L51.3,20.9z"/>
	<path fill="#42BDAE" d="M57.7,25.2h-1.1v-0.9h0c-0.1,0.3-0.4,0.6-0.7,0.7s-0.7,0.3-1.2,0.3c-0.3,0-0.6,0-0.8-0.1
		c-0.3-0.1-0.5-0.2-0.7-0.4c-0.2-0.2-0.3-0.4-0.5-0.7c-0.1-0.3-0.2-0.6-0.2-1v-3.7h1.1v3.4c0,0.3,0,0.5,0.1,0.7
		c0.1,0.2,0.2,0.3,0.3,0.5c0.1,0.1,0.3,0.2,0.4,0.3s0.3,0.1,0.5,0.1c0.2,0,0.4,0,0.6-0.1c0.2-0.1,0.4-0.2,0.5-0.3
		c0.1-0.2,0.3-0.4,0.3-0.6c0.1-0.2,0.1-0.5,0.1-0.9v-3h1.1V25.2z"/>
	<path fill="#42BDAE" d="M58.9,16H60v9.2h-1.1V16z"/>
	<path fill="#42BDAE" d="M61.2,20.1c0.3-0.3,0.7-0.5,1.1-0.6c0.4-0.1,0.8-0.2,1.2-0.2c0.4,0,0.8,0.1,1.1,0.2
		c0.3,0.1,0.6,0.2,0.7,0.4c0.2,0.2,0.3,0.4,0.4,0.6s0.1,0.5,0.1,0.7v2.9c0,0.2,0,0.4,0,0.6c0,0.2,0,0.3,0,0.5h-1c0-0.3,0-0.6,0-0.9
		h0c-0.2,0.4-0.5,0.6-0.9,0.8c-0.3,0.2-0.7,0.2-1.2,0.2c-0.3,0-0.5,0-0.8-0.1c-0.2-0.1-0.5-0.2-0.6-0.3s-0.3-0.3-0.4-0.5
		c-0.1-0.2-0.2-0.5-0.2-0.7c0-0.4,0.1-0.7,0.2-0.9s0.4-0.5,0.7-0.6c0.3-0.2,0.6-0.3,1-0.3c0.4-0.1,0.8-0.1,1.2-0.1h0.8v-0.2
		c0-0.1,0-0.3-0.1-0.4c-0.1-0.1-0.1-0.3-0.3-0.4c-0.1-0.1-0.3-0.2-0.4-0.3c-0.2-0.1-0.4-0.1-0.6-0.1c-0.2,0-0.4,0-0.6,0.1
		c-0.2,0-0.3,0.1-0.4,0.2s-0.2,0.1-0.4,0.2c-0.1,0.1-0.2,0.2-0.3,0.2L61.2,20.1z M64.3,22.4c-0.3,0-0.5,0-0.8,0
		c-0.3,0-0.5,0.1-0.7,0.2c-0.2,0.1-0.4,0.2-0.5,0.3S62,23.3,62,23.5c0,0.3,0.1,0.6,0.3,0.7c0.2,0.1,0.5,0.2,0.9,0.2
		c0.3,0,0.6,0,0.8-0.2s0.4-0.2,0.5-0.4s0.2-0.3,0.3-0.5s0.1-0.4,0.1-0.6v-0.4H64.3z"/>
	<path fill="#42BDAE" d="M67,19.4h1.1v0.9h0c0.1-0.2,0.2-0.3,0.3-0.4c0.1-0.1,0.3-0.2,0.4-0.3c0.1-0.1,0.3-0.2,0.5-0.2
		c0.2-0.1,0.4-0.1,0.5-0.1c0.2,0,0.3,0,0.5,0.1l0,1.2c-0.1,0-0.2,0-0.3-0.1c-0.1,0-0.2,0-0.3,0c-0.5,0-0.9,0.1-1.2,0.4
		c-0.3,0.3-0.4,0.8-0.4,1.4v2.9H67V19.4z"/>
	<path fill="#42BDAE" d="M22.4,27.7h1.7l2.7,6.5h0l2.7-6.5h1.7v8.6h-1.2v-7.1h0l-2.9,7.1h-0.8l-2.9-7.1h0v7.1h-1.2V27.7z"/>
	<path fill="#42BDAE" d="M32.1,33.4c0-0.4,0.1-0.8,0.2-1.2c0.2-0.4,0.4-0.7,0.6-1c0.3-0.3,0.6-0.5,1-0.6c0.4-0.2,0.8-0.2,1.2-0.2
		c0.4,0,0.8,0.1,1.2,0.2c0.4,0.2,0.7,0.4,1,0.6c0.3,0.3,0.5,0.6,0.6,1c0.2,0.4,0.2,0.8,0.2,1.2s-0.1,0.8-0.2,1.2s-0.4,0.7-0.6,1
		s-0.6,0.5-1,0.6c-0.4,0.2-0.8,0.2-1.2,0.2c-0.4,0-0.8-0.1-1.2-0.2c-0.4-0.2-0.7-0.4-1-0.6c-0.3-0.3-0.5-0.6-0.6-1
		C32.2,34.2,32.1,33.8,32.1,33.4z M33.3,33.4c0,0.3,0,0.6,0.1,0.8c0.1,0.2,0.2,0.5,0.4,0.6c0.2,0.2,0.4,0.3,0.6,0.4
		c0.2,0.1,0.5,0.2,0.8,0.2c0.3,0,0.6-0.1,0.8-0.2c0.2-0.1,0.4-0.2,0.6-0.4c0.2-0.2,0.3-0.4,0.4-0.6c0.1-0.2,0.1-0.5,0.1-0.8
		s0-0.6-0.1-0.8c-0.1-0.2-0.2-0.5-0.4-0.6c-0.2-0.2-0.4-0.3-0.6-0.4c-0.2-0.1-0.5-0.2-0.8-0.2c-0.3,0-0.6,0.1-0.8,0.2
		c-0.2,0.1-0.4,0.2-0.6,0.4c-0.2,0.2-0.3,0.4-0.4,0.6C33.3,32.8,33.3,33.1,33.3,33.4z"/>
	<path fill="#42BDAE" d="M44.9,36.3h-1.1v-0.8h0c-0.2,0.3-0.5,0.5-0.9,0.7s-0.7,0.3-1.1,0.3c-0.4,0-0.8-0.1-1.2-0.2
		c-0.4-0.2-0.7-0.4-0.9-0.6c-0.3-0.3-0.5-0.6-0.6-1s-0.2-0.8-0.2-1.2s0.1-0.8,0.2-1.2s0.3-0.7,0.6-1s0.6-0.5,0.9-0.6
		c0.4-0.2,0.8-0.2,1.2-0.2c0.4,0,0.8,0.1,1.2,0.3c0.4,0.2,0.6,0.4,0.8,0.7h0v-4.2h1.1V36.3z M41.9,35.4c0.3,0,0.6-0.1,0.8-0.2
		c0.2-0.1,0.4-0.2,0.6-0.4c0.2-0.2,0.3-0.4,0.4-0.6c0.1-0.2,0.1-0.5,0.1-0.8s0-0.6-0.1-0.8c-0.1-0.2-0.2-0.5-0.4-0.6
		c-0.2-0.2-0.4-0.3-0.6-0.4c-0.2-0.1-0.5-0.2-0.8-0.2c-0.3,0-0.6,0.1-0.8,0.2c-0.2,0.1-0.4,0.2-0.6,0.4c-0.2,0.2-0.3,0.4-0.4,0.6
		C40,32.8,40,33.1,40,33.4s0,0.6,0.1,0.8c0.1,0.2,0.2,0.5,0.4,0.6c0.2,0.2,0.4,0.3,0.6,0.4C41.3,35.4,41.6,35.4,41.9,35.4z"/>
	<path fill="#42BDAE" d="M46.8,33.8c0,0.3,0.1,0.5,0.2,0.7c0.1,0.2,0.3,0.4,0.4,0.5c0.2,0.1,0.4,0.3,0.6,0.3
		c0.2,0.1,0.5,0.1,0.7,0.1c0.3,0,0.6-0.1,0.9-0.2c0.3-0.2,0.5-0.4,0.7-0.6l0.8,0.6c-0.6,0.8-1.5,1.2-2.5,1.2c-0.5,0-0.9-0.1-1.2-0.2
		s-0.7-0.4-0.9-0.6c-0.3-0.3-0.5-0.6-0.6-1c-0.1-0.4-0.2-0.8-0.2-1.2s0.1-0.8,0.2-1.2s0.4-0.7,0.6-1s0.6-0.5,0.9-0.6
		c0.4-0.2,0.8-0.2,1.2-0.2c0.5,0,0.9,0.1,1.3,0.3c0.4,0.2,0.6,0.4,0.9,0.7s0.4,0.6,0.5,1c0.1,0.4,0.2,0.7,0.2,1.1v0.4H46.8z
		 M50.3,32.9c0-0.2,0-0.5-0.1-0.7s-0.2-0.4-0.3-0.5s-0.3-0.3-0.5-0.4c-0.2-0.1-0.4-0.1-0.7-0.1c-0.3,0-0.5,0.1-0.7,0.2
		c-0.2,0.1-0.4,0.2-0.6,0.4c-0.2,0.2-0.3,0.3-0.4,0.5s-0.1,0.4-0.1,0.6H50.3z"/>
	<path fill="#42BDAE" d="M52.3,27.1h1.1v9.2h-1.1V27.1z"/>
	<path fill="#42BDAE" d="M54.4,28.5c0-0.2,0.1-0.4,0.2-0.6c0.2-0.2,0.3-0.2,0.6-0.2c0.2,0,0.4,0.1,0.6,0.2c0.2,0.2,0.2,0.3,0.2,0.6
		S56,28.9,55.8,29c-0.2,0.2-0.3,0.2-0.6,0.2c-0.2,0-0.4-0.1-0.6-0.2C54.5,28.9,54.4,28.7,54.4,28.5z M54.7,30.5h1.1v5.8h-1.1V30.5z"
		/>
	<path fill="#42BDAE" d="M57,30.5h1.1v0.9h0c0.1-0.3,0.4-0.6,0.7-0.7c0.3-0.2,0.7-0.3,1.2-0.3c0.3,0,0.5,0,0.8,0.1s0.5,0.2,0.7,0.4
		c0.2,0.2,0.3,0.4,0.5,0.7c0.1,0.3,0.2,0.6,0.2,1v3.7H61v-3.4c0-0.3,0-0.5-0.1-0.7c-0.1-0.2-0.2-0.3-0.3-0.5
		c-0.1-0.1-0.3-0.2-0.4-0.3s-0.3-0.1-0.5-0.1c-0.2,0-0.4,0-0.6,0.1c-0.2,0.1-0.4,0.2-0.5,0.3c-0.1,0.2-0.3,0.4-0.3,0.6
		c-0.1,0.2-0.1,0.5-0.1,0.9v3H57V30.5z"/>
	<path fill="#42BDAE" d="M69,36.2c0,0.4-0.1,0.8-0.2,1.2c-0.1,0.4-0.4,0.7-0.6,0.9c-0.3,0.3-0.6,0.5-1,0.6c-0.4,0.1-0.8,0.2-1.3,0.2
		c-0.6,0-1.1-0.1-1.5-0.2c-0.5-0.2-0.9-0.4-1.3-0.8l0.7-0.9c0.3,0.3,0.6,0.5,0.9,0.7c0.3,0.2,0.7,0.2,1.1,0.2c0.4,0,0.7-0.1,1-0.2
		s0.5-0.3,0.6-0.5c0.2-0.2,0.3-0.4,0.3-0.6c0.1-0.2,0.1-0.5,0.1-0.7v-0.9h0c-0.2,0.3-0.5,0.6-0.9,0.8c-0.4,0.2-0.7,0.2-1.1,0.2
		c-0.4,0-0.8-0.1-1.2-0.2c-0.4-0.2-0.7-0.4-0.9-0.6s-0.5-0.6-0.6-0.9C63,34.2,63,33.8,63,33.4s0.1-0.8,0.2-1.2s0.3-0.7,0.6-1
		s0.6-0.5,0.9-0.6c0.4-0.2,0.8-0.2,1.2-0.2c0.4,0,0.8,0.1,1.1,0.3s0.7,0.4,0.9,0.7h0v-0.8H69V36.2z M66,31.4c-0.3,0-0.6,0.1-0.8,0.2
		c-0.2,0.1-0.4,0.2-0.6,0.4c-0.2,0.2-0.3,0.4-0.4,0.6c-0.1,0.2-0.1,0.5-0.1,0.8c0,0.6,0.2,1,0.5,1.4c0.3,0.4,0.8,0.5,1.4,0.5
		c0.6,0,1-0.2,1.4-0.5c0.3-0.4,0.5-0.8,0.5-1.4c0-0.3,0-0.6-0.1-0.8c-0.1-0.2-0.2-0.5-0.4-0.6c-0.2-0.2-0.4-0.3-0.6-0.4
		C66.6,31.5,66.3,31.4,66,31.4z"/>
</g>
<path fill="none" stroke="#42BDAE" stroke-miterlimit="10" d="M1.5,1c0,1.3,1,2.3,2.3,2.3s2.3-1,2.3-2.3"/>
<path fill="none" stroke="#42BDAE" stroke-miterlimit="10" d="M7.9,5.1"/>
<path fill="none" stroke="#42BDAE" stroke-miterlimit="10" d="M7.9,1c0,1.3,1,2.3,2.3,2.3c1.3,0,2.3-1,2.3-2.3"/>
<path fill="none" stroke="#37B34A" stroke-miterlimit="10" d="M14.3,5.1"/>
<path fill="none" stroke="#42BDAE" stroke-miterlimit="10" d="M14.3,1c0,1.3,1,2.3,2.3,2.3c1.3,0,2.3-1,2.3-2.3"/>
<path fill="none" stroke="#42BDAE" stroke-miterlimit="10" d="M1.5,14c0-1.3,1-2.3,2.3-2.3s2.3,1,2.3,2.3"/>
<path fill="none" stroke="#42BDAE" stroke-miterlimit="10" d="M7.9,14c0-1.3,1-2.3,2.3-2.3c1.3,0,2.3,1,2.3,2.3"/>
<path fill="none" stroke="#42BDAE" stroke-miterlimit="10" d="M14.3,14c0-1.3,1-2.3,2.3-2.3c1.3,0,2.3,1,2.3,2.3"/>
<circle fill="none" stroke="#42BDAE" stroke-miterlimit="10" cx="3.8" cy="7.5" r="2.3"/>
<circle fill="none" stroke="#42BDAE" stroke-miterlimit="10" cx="10.2" cy="7.5" r="2.3"/>
<circle fill="#42BDAE" stroke="#42BDAE" stroke-miterlimit="10" cx="16.6" cy="7.5" r="2.3"/>
<path fill="none" stroke="#979797" stroke-width="0.9915" stroke-miterlimit="10" d="M141.4,20.3"/>
<g>
	<path fill="#CCCCCC" d="M139.3,1h4.3l3,8.5h0l3-8.5h4.3v13h-2.9V4h0l-3.4,10h-2.2l-3.3-10h0v10h-2.9V1z"/>
	<path fill="#CCCCCC" d="M156,1h4.3l3,8.5h0l3-8.5h4.3v13h-2.9V4h0l-3.4,10h-2.2l-3.3-10h0v10H156V1z"/>
</g>
<path fill="none" stroke="#979797" stroke-width="0.9915" stroke-miterlimit="10" d="M141.5,20.3"/>
<g>
	<path fill="#CCCCCC" d="M139.4,16.6h1.7l2.7,6.5h0l2.7-6.5h1.7v8.6h-1.2v-7.1h0l-2.9,7.1h-0.8l-2.9-7.1h0v7.1h-1.2V16.6z"/>
	<path fill="#CCCCCC" d="M149.1,22.3c0-0.4,0.1-0.8,0.2-1.2c0.2-0.4,0.4-0.7,0.6-1c0.3-0.3,0.6-0.5,1-0.6s0.8-0.2,1.2-0.2
		c0.4,0,0.8,0.1,1.2,0.2s0.7,0.4,1,0.6c0.3,0.3,0.5,0.6,0.6,1c0.2,0.4,0.2,0.8,0.2,1.2s-0.1,0.8-0.2,1.2c-0.2,0.4-0.4,0.7-0.6,1
		c-0.3,0.3-0.6,0.5-1,0.6c-0.4,0.2-0.8,0.2-1.2,0.2c-0.4,0-0.8-0.1-1.2-0.2c-0.4-0.2-0.7-0.4-1-0.6c-0.3-0.3-0.5-0.6-0.6-1
		C149.2,23.1,149.1,22.7,149.1,22.3z M150.3,22.3c0,0.3,0,0.6,0.1,0.8s0.2,0.5,0.4,0.6c0.2,0.2,0.4,0.3,0.6,0.4
		c0.2,0.1,0.5,0.2,0.8,0.2c0.3,0,0.6-0.1,0.8-0.2c0.2-0.1,0.4-0.2,0.6-0.4c0.2-0.2,0.3-0.4,0.4-0.6c0.1-0.2,0.1-0.5,0.1-0.8
		s0-0.6-0.1-0.8c-0.1-0.2-0.2-0.5-0.4-0.6c-0.2-0.2-0.4-0.3-0.6-0.4c-0.2-0.1-0.5-0.2-0.8-0.2c-0.3,0-0.6,0.1-0.8,0.2
		c-0.2,0.1-0.4,0.2-0.6,0.4c-0.2,0.2-0.3,0.4-0.4,0.6C150.3,21.7,150.3,22,150.3,22.3z"/>
	<path fill="#CCCCCC" d="M155.9,16h1.1v9.2h-1.1V16z"/>
	<path fill="#CCCCCC" d="M158.8,22.7c0,0.3,0.1,0.5,0.2,0.7c0.1,0.2,0.3,0.4,0.4,0.5s0.4,0.3,0.6,0.3c0.2,0.1,0.5,0.1,0.7,0.1
		c0.3,0,0.6-0.1,0.9-0.2c0.3-0.2,0.5-0.4,0.7-0.6l0.8,0.6c-0.6,0.8-1.5,1.2-2.5,1.2c-0.5,0-0.9-0.1-1.2-0.2s-0.7-0.4-0.9-0.6
		c-0.3-0.3-0.5-0.6-0.6-1c-0.1-0.4-0.2-0.8-0.2-1.2s0.1-0.8,0.2-1.2c0.1-0.4,0.4-0.7,0.6-1c0.3-0.3,0.6-0.5,0.9-0.6
		c0.4-0.2,0.8-0.2,1.2-0.2c0.5,0,0.9,0.1,1.3,0.3c0.4,0.2,0.6,0.4,0.9,0.7c0.2,0.3,0.4,0.6,0.5,1c0.1,0.4,0.2,0.7,0.2,1.1v0.4H158.8
		z M162.3,21.8c0-0.2,0-0.5-0.1-0.7c-0.1-0.2-0.2-0.4-0.3-0.5c-0.1-0.1-0.3-0.3-0.5-0.4s-0.4-0.1-0.7-0.1c-0.3,0-0.5,0.1-0.7,0.2
		s-0.4,0.2-0.6,0.4c-0.2,0.2-0.3,0.3-0.4,0.5c-0.1,0.2-0.1,0.4-0.1,0.6H162.3z"/>
	<path fill="#CCCCCC" d="M168.3,20.9c-0.2-0.2-0.4-0.4-0.6-0.5c-0.2-0.1-0.5-0.2-0.8-0.2c-0.3,0-0.6,0.1-0.8,0.2s-0.4,0.3-0.6,0.4
		c-0.1,0.2-0.3,0.4-0.3,0.7c-0.1,0.2-0.1,0.5-0.1,0.8c0,0.3,0,0.5,0.1,0.8c0.1,0.2,0.2,0.4,0.4,0.6s0.4,0.3,0.6,0.4
		c0.2,0.1,0.5,0.2,0.8,0.2c0.3,0,0.6-0.1,0.8-0.2c0.2-0.1,0.4-0.3,0.6-0.5l0.8,0.8c-0.3,0.3-0.6,0.5-1,0.7c-0.4,0.1-0.8,0.2-1.2,0.2
		c-0.4,0-0.9-0.1-1.2-0.2c-0.4-0.1-0.7-0.3-1-0.6c-0.3-0.3-0.5-0.6-0.6-0.9s-0.2-0.8-0.2-1.2s0.1-0.9,0.2-1.2c0.1-0.4,0.4-0.7,0.6-1
		s0.6-0.5,0.9-0.6c0.4-0.1,0.8-0.2,1.2-0.2c0.4,0,0.8,0.1,1.2,0.2c0.4,0.1,0.7,0.4,1,0.7L168.3,20.9z"/>
	<path fill="#CCCCCC" d="M174.7,25.2h-1.1v-0.9h0c-0.1,0.3-0.4,0.6-0.7,0.7s-0.7,0.3-1.2,0.3c-0.3,0-0.6,0-0.8-0.1
		c-0.3-0.1-0.5-0.2-0.7-0.4c-0.2-0.2-0.3-0.4-0.5-0.7s-0.2-0.6-0.2-1v-3.7h1.1v3.4c0,0.3,0,0.5,0.1,0.7c0.1,0.2,0.2,0.3,0.3,0.5
		s0.3,0.2,0.4,0.3c0.2,0.1,0.3,0.1,0.5,0.1c0.2,0,0.4,0,0.6-0.1c0.2-0.1,0.4-0.2,0.5-0.3c0.1-0.2,0.3-0.4,0.3-0.6
		c0.1-0.2,0.1-0.5,0.1-0.9v-3h1.1V25.2z"/>
	<path fill="#CCCCCC" d="M175.9,16h1.1v9.2h-1.1V16z"/>
	<path fill="#CCCCCC" d="M178.2,20.1c0.3-0.3,0.7-0.5,1.1-0.6c0.4-0.1,0.8-0.2,1.2-0.2c0.4,0,0.8,0.1,1.1,0.2
		c0.3,0.1,0.6,0.2,0.7,0.4c0.2,0.2,0.3,0.4,0.4,0.6c0.1,0.2,0.1,0.5,0.1,0.7v2.9c0,0.2,0,0.4,0,0.6s0,0.3,0,0.5h-1
		c0-0.3,0-0.6,0-0.9h0c-0.2,0.4-0.5,0.6-0.9,0.8c-0.3,0.2-0.7,0.2-1.2,0.2c-0.3,0-0.5,0-0.8-0.1c-0.2-0.1-0.5-0.2-0.6-0.3
		c-0.2-0.1-0.3-0.3-0.4-0.5c-0.1-0.2-0.2-0.5-0.2-0.7c0-0.4,0.1-0.7,0.2-0.9s0.4-0.5,0.7-0.6c0.3-0.2,0.6-0.3,1-0.3
		c0.4-0.1,0.8-0.1,1.2-0.1h0.8v-0.2c0-0.1,0-0.3-0.1-0.4c-0.1-0.1-0.1-0.3-0.3-0.4c-0.1-0.1-0.3-0.2-0.4-0.3
		c-0.2-0.1-0.4-0.1-0.6-0.1c-0.2,0-0.4,0-0.6,0.1c-0.2,0-0.3,0.1-0.4,0.2c-0.1,0.1-0.2,0.1-0.4,0.2c-0.1,0.1-0.2,0.2-0.3,0.2
		L178.2,20.1z M181.3,22.4c-0.3,0-0.5,0-0.8,0c-0.3,0-0.5,0.1-0.7,0.2c-0.2,0.1-0.4,0.2-0.5,0.3s-0.2,0.3-0.2,0.6
		c0,0.3,0.1,0.6,0.3,0.7c0.2,0.1,0.5,0.2,0.9,0.2c0.3,0,0.6,0,0.8-0.2c0.2-0.1,0.4-0.2,0.5-0.4c0.1-0.2,0.2-0.3,0.3-0.5
		s0.1-0.4,0.1-0.6v-0.4H181.3z"/>
	<path fill="#CCCCCC" d="M184,19.4h1.1v0.9h0c0.1-0.2,0.2-0.3,0.3-0.4s0.3-0.2,0.4-0.3s0.3-0.2,0.5-0.2c0.2-0.1,0.4-0.1,0.5-0.1
		c0.2,0,0.3,0,0.5,0.1l0,1.2c-0.1,0-0.2,0-0.3-0.1c-0.1,0-0.2,0-0.3,0c-0.5,0-0.9,0.1-1.2,0.4c-0.3,0.3-0.4,0.8-0.4,1.4v2.9H184
		V19.4z"/>
	<path fill="#CCCCCC" d="M139.4,27.7h1.7l2.7,6.5h0l2.7-6.5h1.7v8.6h-1.2v-7.1h0l-2.9,7.1h-0.8l-2.9-7.1h0v7.1h-1.2V27.7z"/>
	<path fill="#CCCCCC" d="M149.1,33.4c0-0.4,0.1-0.8,0.2-1.2c0.2-0.4,0.4-0.7,0.6-1c0.3-0.3,0.6-0.5,1-0.6c0.4-0.2,0.8-0.2,1.2-0.2
		c0.4,0,0.8,0.1,1.2,0.2c0.4,0.2,0.7,0.4,1,0.6c0.3,0.3,0.5,0.6,0.6,1c0.2,0.4,0.2,0.8,0.2,1.2s-0.1,0.8-0.2,1.2
		c-0.2,0.4-0.4,0.7-0.6,1c-0.3,0.3-0.6,0.5-1,0.6c-0.4,0.2-0.8,0.2-1.2,0.2c-0.4,0-0.8-0.1-1.2-0.2c-0.4-0.2-0.7-0.4-1-0.6
		c-0.3-0.3-0.5-0.6-0.6-1C149.2,34.2,149.1,33.8,149.1,33.4z M150.3,33.4c0,0.3,0,0.6,0.1,0.8s0.2,0.5,0.4,0.6
		c0.2,0.2,0.4,0.3,0.6,0.4c0.2,0.1,0.5,0.2,0.8,0.2c0.3,0,0.6-0.1,0.8-0.2c0.2-0.1,0.4-0.2,0.6-0.4c0.2-0.2,0.3-0.4,0.4-0.6
		c0.1-0.2,0.1-0.5,0.1-0.8s0-0.6-0.1-0.8c-0.1-0.2-0.2-0.5-0.4-0.6c-0.2-0.2-0.4-0.3-0.6-0.4c-0.2-0.1-0.5-0.2-0.8-0.2
		c-0.3,0-0.6,0.1-0.8,0.2c-0.2,0.1-0.4,0.2-0.6,0.4c-0.2,0.2-0.3,0.4-0.4,0.6C150.3,32.8,150.3,33.1,150.3,33.4z"/>
	<path fill="#CCCCCC" d="M161.9,36.3h-1.1v-0.8h0c-0.2,0.3-0.5,0.5-0.9,0.7s-0.7,0.3-1.1,0.3c-0.4,0-0.8-0.1-1.2-0.2
		c-0.4-0.2-0.7-0.4-0.9-0.6c-0.3-0.3-0.5-0.6-0.6-1s-0.2-0.8-0.2-1.2s0.1-0.8,0.2-1.2s0.3-0.7,0.6-1s0.6-0.5,0.9-0.6
		c0.4-0.2,0.8-0.2,1.2-0.2c0.4,0,0.8,0.1,1.2,0.3c0.4,0.2,0.6,0.4,0.8,0.7h0v-4.2h1.1V36.3z M158.9,35.4c0.3,0,0.6-0.1,0.8-0.2
		c0.2-0.1,0.4-0.2,0.6-0.4s0.3-0.4,0.4-0.6s0.1-0.5,0.1-0.8s0-0.6-0.1-0.8c-0.1-0.2-0.2-0.5-0.4-0.6s-0.4-0.3-0.6-0.4
		c-0.2-0.1-0.5-0.2-0.8-0.2s-0.6,0.1-0.8,0.2c-0.2,0.1-0.4,0.2-0.6,0.4s-0.3,0.4-0.4,0.6c-0.1,0.2-0.1,0.5-0.1,0.8s0,0.6,0.1,0.8
		c0.1,0.2,0.2,0.5,0.4,0.6s0.4,0.3,0.6,0.4C158.3,35.4,158.6,35.4,158.9,35.4z"/>
	<path fill="#CCCCCC" d="M163.8,33.8c0,0.3,0.1,0.5,0.2,0.7c0.1,0.2,0.3,0.4,0.4,0.5c0.2,0.1,0.4,0.3,0.6,0.3
		c0.2,0.1,0.5,0.1,0.7,0.1c0.3,0,0.6-0.1,0.9-0.2c0.3-0.2,0.5-0.4,0.7-0.6l0.8,0.6c-0.6,0.8-1.5,1.2-2.5,1.2c-0.5,0-0.9-0.1-1.2-0.2
		s-0.7-0.4-0.9-0.6c-0.3-0.3-0.5-0.6-0.6-1c-0.1-0.4-0.2-0.8-0.2-1.2s0.1-0.8,0.2-1.2c0.2-0.4,0.4-0.7,0.6-1
		c0.3-0.3,0.6-0.5,0.9-0.6c0.4-0.2,0.8-0.2,1.2-0.2c0.5,0,0.9,0.1,1.3,0.3c0.4,0.2,0.6,0.4,0.9,0.7s0.4,0.6,0.5,1
		c0.1,0.4,0.2,0.7,0.2,1.1v0.4H163.8z M167.3,32.9c0-0.2,0-0.5-0.1-0.7c-0.1-0.2-0.2-0.4-0.3-0.5s-0.3-0.3-0.5-0.4
		c-0.2-0.1-0.4-0.1-0.7-0.1c-0.3,0-0.5,0.1-0.7,0.2c-0.2,0.1-0.4,0.2-0.6,0.4c-0.2,0.2-0.3,0.3-0.4,0.5s-0.1,0.4-0.1,0.6H167.3z"/>
	<path fill="#CCCCCC" d="M169.3,27.1h1.1v9.2h-1.1V27.1z"/>
	<path fill="#CCCCCC" d="M171.4,28.5c0-0.2,0.1-0.4,0.2-0.6c0.2-0.2,0.3-0.2,0.6-0.2s0.4,0.1,0.6,0.2c0.2,0.2,0.2,0.3,0.2,0.6
		s-0.1,0.4-0.2,0.6c-0.2,0.2-0.3,0.2-0.6,0.2s-0.4-0.1-0.6-0.2C171.5,28.9,171.4,28.7,171.4,28.5z M171.7,30.5h1.1v5.8h-1.1V30.5z"
		/>
	<path fill="#CCCCCC" d="M174,30.5h1.1v0.9h0c0.1-0.3,0.4-0.6,0.7-0.7c0.3-0.2,0.7-0.3,1.2-0.3c0.3,0,0.5,0,0.8,0.1s0.5,0.2,0.7,0.4
		c0.2,0.2,0.3,0.4,0.5,0.7s0.2,0.6,0.2,1v3.7H178v-3.4c0-0.3,0-0.5-0.1-0.7c-0.1-0.2-0.2-0.3-0.3-0.5s-0.3-0.2-0.4-0.3
		c-0.2-0.1-0.3-0.1-0.5-0.1c-0.2,0-0.4,0-0.6,0.1c-0.2,0.1-0.4,0.2-0.5,0.3c-0.1,0.2-0.3,0.4-0.3,0.6c-0.1,0.2-0.1,0.5-0.1,0.9v3
		H174V30.5z"/>
	<path fill="#CCCCCC" d="M186,36.2c0,0.4-0.1,0.8-0.2,1.2c-0.1,0.4-0.4,0.7-0.6,0.9c-0.3,0.3-0.6,0.5-1,0.6
		c-0.4,0.1-0.8,0.2-1.3,0.2c-0.6,0-1.1-0.1-1.5-0.2c-0.5-0.2-0.9-0.4-1.3-0.8l0.7-0.9c0.3,0.3,0.6,0.5,0.9,0.7
		c0.3,0.2,0.7,0.2,1.1,0.2c0.4,0,0.7-0.1,1-0.2c0.3-0.1,0.5-0.3,0.6-0.5c0.2-0.2,0.3-0.4,0.3-0.6s0.1-0.5,0.1-0.7v-0.9h0
		c-0.2,0.3-0.5,0.6-0.9,0.8s-0.7,0.2-1.1,0.2c-0.4,0-0.8-0.1-1.2-0.2c-0.4-0.2-0.7-0.4-0.9-0.6s-0.5-0.6-0.6-0.9
		c-0.1-0.4-0.2-0.8-0.2-1.2s0.1-0.8,0.2-1.2s0.3-0.7,0.6-1s0.6-0.5,0.9-0.6c0.4-0.2,0.8-0.2,1.2-0.2c0.4,0,0.8,0.1,1.1,0.3
		s0.7,0.4,0.9,0.7h0v-0.8h1.1V36.2z M183,31.4c-0.3,0-0.6,0.1-0.8,0.2c-0.2,0.1-0.4,0.2-0.6,0.4c-0.2,0.2-0.3,0.4-0.4,0.6
		c-0.1,0.2-0.1,0.5-0.1,0.8c0,0.6,0.2,1,0.5,1.4c0.3,0.4,0.8,0.5,1.4,0.5c0.6,0,1-0.2,1.4-0.5c0.3-0.4,0.5-0.8,0.5-1.4
		c0-0.3,0-0.6-0.1-0.8c-0.1-0.2-0.2-0.5-0.4-0.6c-0.2-0.2-0.4-0.3-0.6-0.4C183.6,31.5,183.3,31.4,183,31.4z"/>
</g>
<path fill="none" stroke="#CCCCCC" stroke-miterlimit="10" d="M118.5,1c0,1.3,1,2.3,2.3,2.3c1.3,0,2.3-1,2.3-2.3"/>
<path fill="none" stroke="#CCCCCC" stroke-miterlimit="10" d="M124.9,5.1"/>
<path fill="none" stroke="#CCCCCC" stroke-miterlimit="10" d="M124.9,1c0,1.3,1,2.3,2.3,2.3c1.3,0,2.3-1,2.3-2.3"/>
<path fill="none" stroke="#37B34A" stroke-miterlimit="10" d="M131.3,5.1"/>
<path fill="none" stroke="#CCCCCC" stroke-miterlimit="10" d="M131.3,1c0,1.3,1,2.3,2.3,2.3s2.3-1,2.3-2.3"/>
<path fill="none" stroke="#CCCCCC" stroke-miterlimit="10" d="M118.5,14c0-1.3,1-2.3,2.3-2.3c1.3,0,2.3,1,2.3,2.3"/>
<path fill="none" stroke="#CCCCCC" stroke-miterlimit="10" d="M124.9,14c0-1.3,1-2.3,2.3-2.3c1.3,0,2.3,1,2.3,2.3"/>
<path fill="none" stroke="#CCCCCC" stroke-miterlimit="10" d="M131.3,14c0-1.3,1-2.3,2.3-2.3s2.3,1,2.3,2.3"/>
<circle fill="none" stroke="#CCCCCC" stroke-miterlimit="10" cx="120.8" cy="7.5" r="2.3"/>
<circle fill="none" stroke="#CCCCCC" stroke-miterlimit="10" cx="127.2" cy="7.5" r="2.3"/>
<circle fill="#CCCCCC" stroke="#CCCCCC" stroke-miterlimit="10" cx="133.6" cy="7.5" r="2.3"/>
<g>
</g>
<g>
</g>
<g>
</g>
<g>
</g>
<g>
</g>
<g>
</g>
<g>
</g>
<g>
</g>
<g>
</g>
<g>
</g>
<g>
</g>
<g>
</g>
<g>
</g>
<g>
</g>
<g>
</g>
</svg>
