<?xml version="1.0" encoding="UTF-8" standalone="no"?>
<!-- Created with Inkscape (http://www.inkscape.org/) -->

<svg
   xmlns:dc="http://purl.org/dc/elements/1.1/"
   xmlns:cc="http://creativecommons.org/ns#"
   xmlns:rdf="http://www.w3.org/1999/02/22-rdf-syntax-ns#"
   xmlns:svg="http://www.w3.org/2000/svg"
   xmlns="http://www.w3.org/2000/svg"
   xmlns:sodipodi="http://sodipodi.sourceforge.net/DTD/sodipodi-0.dtd"
   xmlns:inkscape="http://www.inkscape.org/namespaces/inkscape"
   version="1.1"
   id="svg2"
   xml:space="preserve"
   width="109.31808"
   height="32.088703"
   viewBox="0 0 109.31808 32.088703"
   sodipodi:docname="publications-on.svg"
   inkscape:version="0.92.2 5c3e80d, 2017-08-06"
   inkscape:export-filename="/Users/adam/Dropbox/NMRBox/web-graphics/community-tab/publications-on.png"
   inkscape:export-xdpi="198.99001"
   inkscape:export-ydpi="198.99001"><metadata
     id="metadata8"><rdf:RDF><cc:Work
         rdf:about=""><dc:format>image/svg+xml</dc:format><dc:type
           rdf:resource="http://purl.org/dc/dcmitype/StillImage" /><dc:title></dc:title></cc:Work></rdf:RDF></metadata><defs
     id="defs6"><clipPath
       clipPathUnits="userSpaceOnUse"
       id="clipPath18"><path
         d="M 0,40 H 240 V 0 H 0 Z"
         id="path16"
         inkscape:connector-curvature="0" /></clipPath><clipPath
       clipPathUnits="userSpaceOnUse"
       id="clipPath70"><path
         d="M 0,40 H 240 V 0 H 0 Z"
         id="path68"
         inkscape:connector-curvature="0" /></clipPath></defs><sodipodi:namedview
     pagecolor="#ffffff"
     bordercolor="#666666"
     borderopacity="1"
     objecttolerance="10"
     gridtolerance="10"
     guidetolerance="10"
     inkscape:pageopacity="0"
     inkscape:pageshadow="2"
     inkscape:window-width="1949"
     inkscape:window-height="1233"
     id="namedview4"
     showgrid="false"
     inkscape:pagecheckerboard="true"
     fit-margin-top="2"
     fit-margin-left="2"
     fit-margin-right="2"
     fit-margin-bottom="2"
     inkscape:zoom="10.83078"
     inkscape:cx="-0.83096245"
     inkscape:cy="16.044352"
     inkscape:window-x="165"
     inkscape:window-y="136"
     inkscape:window-maximized="0"
     inkscape:current-layer="g10" /><g
     id="g10"
     inkscape:groupmode="layer"
     inkscape:label="co-icon-events-240x40"
     transform="matrix(1.3333333,0,0,-1.3333333,0.94025319,52.943918)"><g
       aria-label="Publications"
       transform="scale(1,-1)"
       style="font-variant:normal;font-weight:500;font-stretch:normal;font-size:11px;font-family:'Avenir Medium';-inkscape-font-specification:Avenir-Medium;writing-mode:lr-tb;fill:#fafafa;fill-opacity:1;fill-rule:nonzero;stroke:none;stroke-width:0.99999994"
       id="text62-6"><path
         d="m 24.608401,-29.662001 h 2.739 q 0.748,0 1.232,0.209 0.484,0.198 0.759,0.517 0.286,0.308 0.396,0.704 0.11,0.385 0.11,0.748 0,0.363 -0.11,0.759 -0.11,0.385 -0.396,0.704 -0.275,0.308 -0.759,0.517 -0.484,0.198 -1.232,0.198 h -1.683 v 3.432 h -1.056 z m 1.056,3.432 h 1.386 q 0.308,0 0.605,-0.044 0.308,-0.055 0.539,-0.187 0.242,-0.132 0.385,-0.374 0.143,-0.253 0.143,-0.649 0,-0.396 -0.143,-0.638 -0.143,-0.253 -0.385,-0.385 -0.231,-0.132 -0.539,-0.176 -0.297,-0.055 -0.605,-0.055 h -1.386 z"
         style="font-style:normal;font-variant:normal;font-weight:500;font-stretch:normal;font-size:11px;font-family:Avenir;-inkscape-font-specification:'Avenir, Medium';font-variant-ligatures:normal;font-variant-caps:normal;font-variant-numeric:normal;font-feature-settings:normal;text-align:start;letter-spacing:-0.30000001px;writing-mode:lr-tb;text-anchor:start;fill:#fafafa;fill-opacity:1;stroke-width:0.99999994"
         id="path842" /><path
         d="m 35.206651,-21.874001 h -0.99 v -0.803 h -0.022 q -0.187,0.418 -0.649,0.682 -0.462,0.253 -1.067,0.253 -0.385,0 -0.726,-0.121 -0.341,-0.11 -0.605,-0.352 -0.253,-0.242 -0.407,-0.616 -0.154,-0.385 -0.154,-0.902 v -3.355 h 0.99 v 3.08 q 0,0.363 0.099,0.627 0.099,0.253 0.264,0.418 0.165,0.154 0.374,0.231 0.22,0.066 0.451,0.066 0.308,0 0.572,-0.099 0.264,-0.099 0.462,-0.308 0.198,-0.22 0.308,-0.55 0.11,-0.33 0.11,-0.781 v -2.684 h 0.99 z"
         style="font-style:normal;font-variant:normal;font-weight:500;font-stretch:normal;font-size:11px;font-family:Avenir;-inkscape-font-specification:'Avenir, Medium';font-variant-ligatures:normal;font-variant-caps:normal;font-variant-numeric:normal;font-feature-settings:normal;text-align:start;letter-spacing:-0.30000001px;writing-mode:lr-tb;text-anchor:start;fill:#fafafa;fill-opacity:1;stroke-width:0.99999994"
         id="path844" /><path
         d="m 36.409697,-30.190001 h 0.99 v 3.85 h 0.022 q 0.264,-0.407 0.759,-0.638 0.495,-0.242 1.056,-0.242 0.605,0 1.089,0.209 0.495,0.209 0.836,0.583 0.352,0.363 0.539,0.869 0.187,0.495 0.187,1.078 0,0.583 -0.187,1.078 -0.187,0.495 -0.539,0.869 -0.341,0.374 -0.836,0.583 -0.484,0.209 -1.089,0.209 -0.528,0 -1.034,-0.231 -0.495,-0.231 -0.781,-0.649 h -0.022 v 0.748 h -0.99 z m 2.706,7.524 q 0.396,0 0.715,-0.132 0.319,-0.143 0.539,-0.374 0.22,-0.242 0.341,-0.572 0.121,-0.341 0.121,-0.737 0,-0.396 -0.121,-0.726 -0.121,-0.341 -0.341,-0.572 -0.22,-0.242 -0.539,-0.374 -0.319,-0.143 -0.715,-0.143 -0.396,0 -0.715,0.143 -0.319,0.132 -0.539,0.374 -0.22,0.231 -0.341,0.572 -0.121,0.33 -0.121,0.726 0,0.396 0.121,0.737 0.121,0.33 0.341,0.572 0.22,0.231 0.539,0.374 0.319,0.132 0.715,0.132 z"
         style="font-style:normal;font-variant:normal;font-weight:500;font-stretch:normal;font-size:11px;font-family:Avenir;-inkscape-font-specification:'Avenir, Medium';font-variant-ligatures:normal;font-variant-caps:normal;font-variant-numeric:normal;font-feature-settings:normal;text-align:start;letter-spacing:-0.30000001px;writing-mode:lr-tb;text-anchor:start;fill:#fafafa;fill-opacity:1;stroke-width:0.99999994"
         id="path846" /><path
         d="m 42.911308,-30.190001 h 0.99 v 8.316 h -0.99 z"
         style="font-style:normal;font-variant:normal;font-weight:500;font-stretch:normal;font-size:11px;font-family:Avenir;-inkscape-font-specification:'Avenir, Medium';font-variant-ligatures:normal;font-variant-caps:normal;font-variant-numeric:normal;font-feature-settings:normal;text-align:start;letter-spacing:-0.30000001px;writing-mode:lr-tb;text-anchor:start;fill:#fafafa;fill-opacity:1;stroke-width:0.99999994"
         id="path848" /><path
         d="m 45.253885,-27.088001 h 0.99 v 5.214 h -0.99 z m -0.231,-1.87 q 0,-0.297 0.209,-0.506 0.22,-0.22 0.517,-0.22 0.297,0 0.506,0.22 0.22,0.209 0.22,0.506 0,0.297 -0.22,0.517 -0.209,0.209 -0.506,0.209 -0.297,0 -0.517,-0.209 -0.209,-0.22 -0.209,-0.517 z"
         style="font-style:normal;font-variant:normal;font-weight:500;font-stretch:normal;font-size:11px;font-family:Avenir;-inkscape-font-specification:'Avenir, Medium';font-variant-ligatures:normal;font-variant-caps:normal;font-variant-numeric:normal;font-feature-settings:normal;text-align:start;letter-spacing:-0.30000001px;writing-mode:lr-tb;text-anchor:start;fill:#fafafa;fill-opacity:1;stroke-width:0.99999994"
         id="path850" /><path
         d="m 51.248463,-25.702001 q -0.275,-0.286 -0.583,-0.429 -0.297,-0.154 -0.715,-0.154 -0.407,0 -0.715,0.154 -0.297,0.143 -0.506,0.407 -0.198,0.253 -0.308,0.594 -0.099,0.33 -0.099,0.693 0,0.363 0.121,0.693 0.121,0.319 0.341,0.561 0.22,0.242 0.528,0.385 0.308,0.132 0.693,0.132 0.418,0 0.715,-0.143 0.297,-0.154 0.55,-0.44 l 0.704,0.704 q -0.385,0.429 -0.902,0.616 -0.506,0.187 -1.078,0.187 -0.605,0 -1.111,-0.198 -0.495,-0.198 -0.858,-0.55 -0.363,-0.363 -0.561,-0.858 -0.198,-0.506 -0.198,-1.111 0,-0.605 0.198,-1.111 0.198,-0.506 0.55,-0.869 0.363,-0.363 0.858,-0.561 0.506,-0.209 1.122,-0.209 0.572,0 1.089,0.209 0.528,0.198 0.913,0.616 z"
         style="font-style:normal;font-variant:normal;font-weight:500;font-stretch:normal;font-size:11px;font-family:Avenir;-inkscape-font-specification:'Avenir, Medium';font-variant-ligatures:normal;font-variant-caps:normal;font-variant-numeric:normal;font-feature-settings:normal;text-align:start;letter-spacing:-0.30000001px;writing-mode:lr-tb;text-anchor:start;fill:#fafafa;fill-opacity:1;stroke-width:0.99999994"
         id="path852" /><path
         d="m 52.548105,-26.450001 q 0.418,-0.385 0.968,-0.572 0.55,-0.198 1.1,-0.198 0.572,0 0.979,0.143 0.418,0.143 0.682,0.385 0.264,0.242 0.385,0.561 0.132,0.308 0.132,0.649 v 2.662 q 0,0.275 0.011,0.506 0.011,0.231 0.033,0.44 h -0.88 q -0.033,-0.396 -0.033,-0.792 h -0.022 q -0.33,0.506 -0.781,0.715 -0.451,0.209 -1.045,0.209 -0.363,0 -0.693,-0.099 -0.33,-0.099 -0.583,-0.297 -0.242,-0.198 -0.385,-0.484 -0.143,-0.297 -0.143,-0.682 0,-0.506 0.22,-0.847 0.231,-0.341 0.616,-0.55 0.396,-0.22 0.913,-0.308 0.528,-0.099 1.122,-0.099 h 0.726 v -0.22 q 0,-0.198 -0.077,-0.396 -0.077,-0.198 -0.231,-0.352 -0.154,-0.165 -0.385,-0.253 -0.231,-0.099 -0.55,-0.099 -0.286,0 -0.506,0.055 -0.209,0.055 -0.385,0.143 -0.176,0.077 -0.319,0.187 -0.143,0.11 -0.275,0.209 z m 2.794,2.068 q -0.352,0 -0.726,0.044 -0.363,0.033 -0.671,0.143 -0.297,0.11 -0.495,0.308 -0.187,0.198 -0.187,0.506 0,0.451 0.297,0.649 0.308,0.198 0.825,0.198 0.407,0 0.693,-0.132 0.286,-0.143 0.462,-0.363 0.176,-0.22 0.253,-0.484 0.077,-0.275 0.077,-0.539 v -0.33 z"
         style="font-style:normal;font-variant:normal;font-weight:500;font-stretch:normal;font-size:11px;font-family:Avenir;-inkscape-font-specification:'Avenir, Medium';font-variant-ligatures:normal;font-variant-caps:normal;font-variant-numeric:normal;font-feature-settings:normal;text-align:start;letter-spacing:-0.30000001px;writing-mode:lr-tb;text-anchor:start;fill:#fafafa;fill-opacity:1;stroke-width:0.99999994"
         id="path854" /><path
         d="m 60.734949,-26.230001 h -1.419 v 2.365 q 0,0.22 0.011,0.44 0.011,0.209 0.077,0.385 0.077,0.165 0.22,0.275 0.154,0.099 0.44,0.099 0.176,0 0.363,-0.033 0.187,-0.033 0.341,-0.121 v 0.902 q -0.176,0.099 -0.462,0.132 -0.275,0.044 -0.429,0.044 -0.572,0 -0.891,-0.154 -0.308,-0.165 -0.462,-0.418 -0.143,-0.253 -0.176,-0.561 -0.022,-0.319 -0.022,-0.638 v -2.717 h -1.144 v -0.858 h 1.144 v -1.463 h 0.99 v 1.463 h 1.419 z"
         style="font-style:normal;font-variant:normal;font-weight:500;font-stretch:normal;font-size:11px;font-family:Avenir;-inkscape-font-specification:'Avenir, Medium';font-variant-ligatures:normal;font-variant-caps:normal;font-variant-numeric:normal;font-feature-settings:normal;text-align:start;letter-spacing:-0.30000001px;writing-mode:lr-tb;text-anchor:start;fill:#fafafa;fill-opacity:1;stroke-width:0.99999994"
         id="path856" /><path
         d="m 61.778493,-27.088001 h 0.99 v 5.214 h -0.99 z m -0.231,-1.87 q 0,-0.297 0.209,-0.506 0.22,-0.22 0.517,-0.22 0.297,0 0.506,0.22 0.22,0.209 0.22,0.506 0,0.297 -0.22,0.517 -0.209,0.209 -0.506,0.209 -0.297,0 -0.517,-0.209 -0.209,-0.22 -0.209,-0.517 z"
         style="font-style:normal;font-variant:normal;font-weight:500;font-stretch:normal;font-size:11px;font-family:Avenir;-inkscape-font-specification:'Avenir, Medium';font-variant-ligatures:normal;font-variant-caps:normal;font-variant-numeric:normal;font-feature-settings:normal;text-align:start;letter-spacing:-0.30000001px;writing-mode:lr-tb;text-anchor:start;fill:#fafafa;fill-opacity:1;stroke-width:0.99999994"
         id="path858" /><path
         d="m 64.847072,-24.481001 q 0,0.396 0.121,0.737 0.121,0.33 0.341,0.572 0.22,0.231 0.539,0.374 0.319,0.132 0.715,0.132 0.396,0 0.715,-0.132 0.319,-0.143 0.539,-0.374 0.22,-0.242 0.341,-0.572 0.121,-0.341 0.121,-0.737 0,-0.396 -0.121,-0.726 -0.121,-0.341 -0.341,-0.572 -0.22,-0.242 -0.539,-0.374 -0.319,-0.143 -0.715,-0.143 -0.396,0 -0.715,0.143 -0.319,0.132 -0.539,0.374 -0.22,0.231 -0.341,0.572 -0.121,0.33 -0.121,0.726 z m -1.056,0 q 0,-0.572 0.209,-1.067 0.22,-0.495 0.594,-0.869 0.374,-0.374 0.88,-0.583 0.506,-0.22 1.089,-0.22 0.583,0 1.089,0.22 0.506,0.209 0.88,0.583 0.374,0.374 0.583,0.869 0.22,0.495 0.22,1.067 0,0.572 -0.22,1.078 -0.209,0.495 -0.583,0.869 -0.374,0.363 -0.88,0.583 -0.506,0.209 -1.089,0.209 -0.583,0 -1.089,-0.209 -0.506,-0.22 -0.88,-0.583 -0.374,-0.374 -0.594,-0.869 -0.209,-0.506 -0.209,-1.078 z"
         style="font-style:normal;font-variant:normal;font-weight:500;font-stretch:normal;font-size:11px;font-family:Avenir;-inkscape-font-specification:'Avenir, Medium';font-variant-ligatures:normal;font-variant-caps:normal;font-variant-numeric:normal;font-feature-settings:normal;text-align:start;letter-spacing:-0.30000001px;writing-mode:lr-tb;text-anchor:start;fill:#fafafa;fill-opacity:1;stroke-width:0.99999994"
         id="path860" /><path
         d="m 70.275323,-27.088001 h 0.99 v 0.803 h 0.022 q 0.187,-0.418 0.649,-0.671 0.462,-0.264 1.067,-0.264 0.374,0 0.715,0.121 0.352,0.11 0.605,0.352 0.264,0.242 0.418,0.627 0.154,0.374 0.154,0.891 v 3.355 h -0.99 v -3.08 q 0,-0.363 -0.099,-0.616 -0.099,-0.264 -0.264,-0.418 -0.165,-0.165 -0.385,-0.231 -0.209,-0.077 -0.44,-0.077 -0.308,0 -0.572,0.099 -0.264,0.099 -0.462,0.319 -0.198,0.209 -0.308,0.539 -0.11,0.33 -0.11,0.781 v 2.684 h -0.99 z"
         style="font-style:normal;font-variant:normal;font-weight:500;font-stretch:normal;font-size:11px;font-family:Avenir;-inkscape-font-specification:'Avenir, Medium';font-variant-ligatures:normal;font-variant-caps:normal;font-variant-numeric:normal;font-feature-settings:normal;text-align:start;letter-spacing:-0.30000001px;writing-mode:lr-tb;text-anchor:start;fill:#fafafa;fill-opacity:1;stroke-width:0.99999994"
         id="path862" /><path
         d="m 78.87037,-25.779001 q -0.176,-0.22 -0.44,-0.363 -0.253,-0.154 -0.627,-0.154 -0.352,0 -0.616,0.154 -0.253,0.143 -0.253,0.429 0,0.231 0.143,0.374 0.154,0.143 0.352,0.231 0.209,0.088 0.44,0.132 0.231,0.044 0.396,0.077 0.319,0.077 0.594,0.187 0.286,0.11 0.484,0.286 0.209,0.176 0.319,0.429 0.121,0.253 0.121,0.616 0,0.44 -0.187,0.759 -0.187,0.308 -0.484,0.506 -0.297,0.198 -0.682,0.286 -0.374,0.088 -0.759,0.088 -0.649,0 -1.144,-0.198 -0.484,-0.198 -0.869,-0.726 l 0.748,-0.616 q 0.242,0.242 0.539,0.429 0.297,0.187 0.726,0.187 0.187,0 0.374,-0.033 0.198,-0.044 0.341,-0.121 0.154,-0.088 0.242,-0.209 0.099,-0.132 0.099,-0.297 0,-0.22 -0.143,-0.363 -0.132,-0.143 -0.33,-0.22 -0.187,-0.088 -0.407,-0.132 -0.209,-0.055 -0.374,-0.088 -0.319,-0.077 -0.605,-0.176 -0.286,-0.099 -0.506,-0.264 -0.22,-0.165 -0.352,-0.418 -0.132,-0.253 -0.132,-0.627 0,-0.407 0.165,-0.704 0.176,-0.308 0.451,-0.506 0.286,-0.198 0.638,-0.297 0.363,-0.099 0.726,-0.099 0.528,0 1.012,0.198 0.484,0.198 0.77,0.66 z"
         style="font-style:normal;font-variant:normal;font-weight:500;font-stretch:normal;font-size:11px;font-family:Avenir;-inkscape-font-specification:'Avenir, Medium';font-variant-ligatures:normal;font-variant-caps:normal;font-variant-numeric:normal;font-feature-settings:normal;text-align:start;letter-spacing:-0.30000001px;writing-mode:lr-tb;text-anchor:start;fill:#fafafa;fill-opacity:1;stroke-width:0.99999994"
         id="path864" /></g><g
       id="g12"><g
         id="g14"
         clip-path="url(#clipPath18)"><g
           id="g20"
           transform="translate(11.0443,27.9577)"><path
             d="m 0,0 c 0.585,-1.298 0.627,-2.613 0.125,-3.943 -0.502,-1.329 -1.403,-2.287 -2.701,-2.873 -1.298,-0.585 -2.615,-0.627 -3.95,-0.125 -1.335,0.501 -2.296,1.401 -2.881,2.7 -0.585,1.298 -0.625,2.615 -0.118,3.951 0.507,1.335 1.409,2.296 2.708,2.881 1.298,0.586 2.613,0.625 3.943,0.117 C -1.543,2.201 -0.585,1.298 0,0"
             style="fill:#fafafa;fill-opacity:1;fill-rule:nonzero;stroke:none"
             id="path22"
             inkscape:connector-curvature="0" /></g><g
           id="g24"
           transform="translate(11.0443,27.9577)"><path
             d="m 0,0 c 0.585,-1.298 0.627,-2.613 0.125,-3.943 -0.502,-1.329 -1.403,-2.287 -2.701,-2.873 -1.298,-0.585 -2.615,-0.627 -3.95,-0.125 -1.335,0.501 -2.296,1.401 -2.881,2.7 -0.585,1.298 -0.625,2.615 -0.118,3.951 0.507,1.335 1.409,2.296 2.708,2.881 1.298,0.586 2.613,0.625 3.943,0.117 C -1.543,2.201 -0.585,1.298 0,0 Z"
             style="fill:none;stroke:#fafafa;stroke-width:0.75;stroke-linecap:butt;stroke-linejoin:miter;stroke-miterlimit:4;stroke-dasharray:none;stroke-opacity:1"
             id="path26"
             inkscape:connector-curvature="0" /></g><g
           id="g28"
           transform="translate(17.2914,32.0896)"><path
             d="m 0,0 c -0.646,-0.683 -1.438,-1.038 -2.375,-1.065 -0.938,-0.027 -1.749,0.282 -2.432,0.928 -0.683,0.646 -1.039,1.439 -1.067,2.38 -0.029,0.941 0.279,1.753 0.925,2.436 0.646,0.683 1.44,1.037 2.383,1.063 0.942,0.025 1.755,-0.285 2.438,-0.93 C 0.555,4.166 0.909,3.373 0.933,2.434 0.957,1.494 0.646,0.683 0,0 Z"
             style="fill:none;stroke:#fafafa;stroke-width:0.75;stroke-linecap:butt;stroke-linejoin:miter;stroke-miterlimit:4;stroke-dasharray:none;stroke-opacity:1"
             id="path30"
             inkscape:connector-curvature="0" /></g><g
           id="g32"
           transform="translate(19.1961,23.5342)"><path
             d="m 0,0 c -0.651,0.054 -1.187,0.329 -1.609,0.826 -0.421,0.497 -0.605,1.071 -0.552,1.721 0.054,0.651 0.33,1.188 0.828,1.612 0.498,0.424 1.072,0.609 1.723,0.555 C 1.04,4.661 1.577,4.384 2,3.884 2.423,3.384 2.607,2.808 2.554,2.158 2.5,1.507 2.224,0.971 1.724,0.55 1.226,0.13 0.651,-0.054 0,0"
             style="fill:#fafafa;fill-opacity:1;fill-rule:nonzero;stroke:none"
             id="path34"
             inkscape:connector-curvature="0" /></g><g
           id="g36"
           transform="translate(19.1961,23.5342)"><path
             d="m 0,0 c -0.651,0.054 -1.187,0.329 -1.609,0.826 -0.421,0.497 -0.605,1.071 -0.552,1.721 0.054,0.651 0.33,1.188 0.828,1.612 0.498,0.424 1.072,0.609 1.723,0.555 C 1.04,4.661 1.577,4.384 2,3.884 2.423,3.384 2.607,2.808 2.554,2.158 2.5,1.507 2.224,0.971 1.724,0.55 1.226,0.13 0.651,-0.054 0,0 Z"
             style="fill:none;stroke:#fafafa;stroke-width:0.75;stroke-linecap:butt;stroke-linejoin:miter;stroke-miterlimit:4;stroke-dasharray:none;stroke-opacity:1"
             id="path38"
             inkscape:connector-curvature="0" /></g><g
           id="g40"
           transform="translate(13.4954,17.8289)"><path
             d="m 0,0 c -0.337,0.256 -0.535,0.592 -0.593,1.011 -0.058,0.418 0.041,0.795 0.296,1.133 0.256,0.337 0.593,0.535 1.013,0.594 C 1.135,2.797 1.514,2.698 1.851,2.443 2.188,2.187 2.385,1.85 2.443,1.429 2.5,1.009 2.401,0.63 2.146,0.293 1.891,-0.044 1.553,-0.241 1.134,-0.298 0.715,-0.355 0.337,-0.255 0,0 Z"
             style="fill:none;stroke:#fafafa;stroke-width:0.75;stroke-linecap:butt;stroke-linejoin:miter;stroke-miterlimit:4;stroke-dasharray:none;stroke-opacity:1"
             id="path42"
             inkscape:connector-curvature="0" /></g><g
           id="g44"
           transform="translate(11.3892,25.885)"><path
             d="M 0,0 H 5.517"
             style="fill:none;stroke:#fafafa;stroke-width:0.75;stroke-linecap:butt;stroke-linejoin:miter;stroke-miterlimit:4;stroke-dasharray:none;stroke-opacity:1"
             id="path46"
             inkscape:connector-curvature="0" /></g><g
           id="g48"
           transform="translate(16.3257,31.5033)"><path
             d="M 0,0 1.95,-3.791"
             style="fill:none;stroke:#fafafa;stroke-width:0.75;stroke-linecap:butt;stroke-linejoin:miter;stroke-miterlimit:4;stroke-dasharray:none;stroke-opacity:1"
             id="path50"
             inkscape:connector-curvature="0" /></g><g
           id="g52"
           transform="translate(17.9398,24.2429)"><path
             d="M 0,0 -2.698,-4.142"
             style="fill:none;stroke:#fafafa;stroke-width:0.75;stroke-linecap:butt;stroke-linejoin:miter;stroke-miterlimit:4;stroke-dasharray:none;stroke-opacity:1"
             id="path54"
             inkscape:connector-curvature="0" /></g><g
           id="g56"
           transform="translate(9.8803,25.8201)"
           style="fill:#03f3f9;fill-opacity:1"><path
             d="m 0,0 c 0,-1.993 -1.616,-3.609 -3.609,-3.609 -1.993,0 -3.609,1.616 -3.609,3.609 0,1.993 1.616,3.609 3.609,3.609 C -1.616,3.609 0,1.993 0,0"
             style="fill:#03f3f9;fill-opacity:1;fill-rule:nonzero;stroke:none"
             id="path58"
             inkscape:connector-curvature="0" /></g></g></g><g
       id="g72"
       transform="translate(18.2609,25.2606)"
       style="fill:#03f3f9;fill-opacity:1"><path
         d="M 0,0 C -0.176,0.314 -0.215,0.644 -0.117,0.99 -0.02,1.336 0.186,1.596 0.5,1.772 0.814,1.948 1.145,1.987 1.492,1.89 1.839,1.793 2.1,1.587 2.276,1.273 2.452,0.959 2.49,0.628 2.392,0.281 2.293,-0.067 2.087,-0.328 1.773,-0.504 1.459,-0.68 1.129,-0.718 0.782,-0.619 0.437,-0.52 0.176,-0.314 0,0"
         style="fill:#03f3f9;fill-opacity:1;fill-rule:nonzero;stroke:none"
         id="path74"
         inkscape:connector-curvature="0" /></g></g></svg>