<?xml version="1.0" encoding="UTF-8" standalone="no"?>
<!-- Generator: Adobe Illustrator 17.1.0, SVG Export Plug-In . SVG Version: 6.00 Build 0)  -->

<svg
   xmlns:dc="http://purl.org/dc/elements/1.1/"
   xmlns:cc="http://creativecommons.org/ns#"
   xmlns:rdf="http://www.w3.org/1999/02/22-rdf-syntax-ns#"
   xmlns:svg="http://www.w3.org/2000/svg"
   xmlns="http://www.w3.org/2000/svg"
   xmlns:sodipodi="http://sodipodi.sourceforge.net/DTD/sodipodi-0.dtd"
   xmlns:inkscape="http://www.inkscape.org/namespaces/inkscape"
   version="1.1"
   id="Layer_1"
   x="0px"
   y="0px"
   width="57.371998"
   height="19.533894"
   viewBox="0 0 57.371998 19.533894"
   enable-background="new 0 0 240 40"
   xml:space="preserve"
   sodipodi:docname="rp-icon-protein-structure-menu-outline.svg"
   inkscape:version="0.92.2 5c3e80d, 2017-08-06"><metadata
     id="metadata350"><rdf:RDF><cc:Work
         rdf:about=""><dc:format>image/svg+xml</dc:format><dc:type
           rdf:resource="http://purl.org/dc/dcmitype/StillImage" /><dc:title></dc:title></cc:Work></rdf:RDF></metadata><defs
     id="defs348" /><sodipodi:namedview
     pagecolor="#ffffff"
     bordercolor="#666666"
     borderopacity="1"
     objecttolerance="10"
     gridtolerance="10"
     guidetolerance="10"
     inkscape:pageopacity="0"
     inkscape:pageshadow="2"
     inkscape:window-width="1920"
     inkscape:window-height="1156"
     id="namedview346"
     showgrid="false"
     fit-margin-top="0"
     fit-margin-left="0"
     fit-margin-right="0"
     fit-margin-bottom="0"
     inkscape:zoom="12.792484"
     inkscape:cx="15.197785"
     inkscape:cy="10.544575"
     inkscape:window-x="61"
     inkscape:window-y="38"
     inkscape:window-maximized="0"
     inkscape:current-layer="g3302"
     inkscape:pagecheckerboard="true" /><g
     id="g3302"
     transform="translate(-0.96025427,-2.6705564)"><path
       id="path179"
       d="M 13.241828,19.988323"
       stroke-miterlimit="10"
       inkscape:connector-curvature="0"
       style="fill:none;stroke:#42bdae;stroke-width:0.98938167;stroke-miterlimit:10" /><path
       style="fill:none;stroke:#3636f3;stroke-width:0.74518532;stroke-miterlimit:10;stroke-opacity:1"
       d="m 1.1495405,13.094594 h 3.5562758 l 2.5222225,4.368623 -2.5222225,4.368641 H 1.1495405"
       id="polyline181" /><path
       style="fill:none;stroke:#3636f3;stroke-width:0.74518532;stroke-miterlimit:10;stroke-opacity:1"
       d="M 12.50723,7.8368979 H 8.9509535 L 6.4287314,12.205522 8.9509535,16.574161 H 12.50723"
       id="polyline183" /><g
       id="g205"
       style="stroke:#3636f3;stroke-opacity:1"><g
         id="g203"
         style="stroke:#3636f3;stroke-opacity:1"><path
           style="fill:none;stroke:#3636f3;stroke-linecap:round;stroke-miterlimit:10;stroke-opacity:1"
           d="m 1.4673755,3.1706064 v 0"
           id="line185" /><path
           style="fill:none;stroke:#3636f3;stroke-linecap:round;stroke-miterlimit:10;stroke-dasharray:0, 1.6851619;stroke-opacity:1"
           d="M 3.1525376,3.1706064 H 3.9951184"
           id="line187" /><path
           style="fill:none;stroke:#3636f3;stroke-linecap:round;stroke-miterlimit:10;stroke-opacity:1"
           d="m 4.8376994,3.1706064 v 0"
           id="line189" /><path
           style="fill:none;stroke:#3636f3;stroke-linecap:round;stroke-miterlimit:10;stroke-dasharray:0, 1.5935614;stroke-opacity:1"
           d="M 5.6344795,4.5506716 6.829649,6.620769"
           id="line191" /><path
           style="fill:none;stroke:#3636f3;stroke-linecap:round;stroke-miterlimit:10;stroke-opacity:1"
           d="m 7.2280388,7.3108015 v 0"
           id="line193" /><path
           style="fill:none;stroke:#3636f3;stroke-linecap:round;stroke-miterlimit:10;stroke-dasharray:0, 1.5935658;stroke-opacity:1"
           d="m 6.4312592,8.6908722 -1.19517,2.0701058"
           id="line195" /><path
           style="fill:none;stroke:#3636f3;stroke-linecap:round;stroke-miterlimit:10;stroke-opacity:1"
           d="m 4.8376994,11.451013 v 0"
           id="line197" /><path
           style="fill:none;stroke:#3636f3;stroke-linecap:round;stroke-miterlimit:10;stroke-dasharray:0, 1.6851619;stroke-opacity:1"
           d="M 3.1525376,11.451013 H 2.3099566"
           id="line199" /><path
           style="fill:none;stroke:#3636f3;stroke-linecap:round;stroke-miterlimit:10;stroke-opacity:1"
           d="m 1.4673755,11.451013 v 0"
           id="line201" /></g></g><path
       id="path207"
       d="M 2.7575917,12.770997"
       stroke-miterlimit="10"
       inkscape:connector-curvature="0"
       style="fill:none;stroke:#000000;stroke-width:0.50046808;stroke-miterlimit:10" /><g
       id="g239"><g
         aria-label="Structure"
         style="font-style:normal;font-variant:normal;font-weight:normal;font-stretch:normal;font-size:17.25025558px;line-height:125%;font-family:Calibri;-inkscape-font-specification:'Calibri, Normal';text-align:justify;letter-spacing:0px;word-spacing:0px;writing-mode:lr-tb;text-anchor:start;fill:#777777;fill-opacity:1;stroke:none;stroke-width:0.71876061px;stroke-linecap:butt;stroke-linejoin:miter;stroke-opacity:1"
         id="text4551"><path
           d="m 15.502088,14.500645 q 0.277334,0.416 0.704,0.618666 0.437334,0.192 0.896,0.192 0.256,0 0.522667,-0.07467 0.266667,-0.08533 0.48,-0.245334 0.224,-0.16 0.362667,-0.394666 0.138666,-0.234667 0.138666,-0.544 0,-0.437334 -0.277333,-0.661334 -0.277333,-0.234666 -0.693333,-0.384 -0.405334,-0.16 -0.896,-0.298666 -0.48,-0.149334 -0.896,-0.405334 -0.405334,-0.256 -0.682667,-0.682666 -0.277333,-0.437334 -0.277333,-1.173334 0,-0.330666 0.138666,-0.7039998 0.149334,-0.3733334 0.458667,-0.6826667 0.309333,-0.3093333 0.789333,-0.512 0.490667,-0.2133334 1.173334,-0.2133334 0.618666,0 1.184,0.1706667 0.565333,0.1706667 0.992,0.6933334 l -0.832,0.7573333 q -0.192,-0.2986667 -0.544,-0.48 -0.352,-0.1813333 -0.8,-0.1813333 -0.426667,0 -0.714667,0.1173333 -0.277333,0.1066667 -0.448,0.288 -0.170667,0.1706667 -0.245333,0.3733335 -0.064,0.202667 -0.064,0.373333 0,0.48 0.277333,0.736 0.277333,0.256 0.682667,0.416 0.416,0.16 0.896,0.288 0.490666,0.128 0.896,0.362667 0.416,0.224 0.693333,0.618667 0.277334,0.384 0.277334,1.066666 0,0.544 -0.213334,0.981334 -0.202667,0.437333 -0.554667,0.736 -0.352,0.298666 -0.832,0.458666 -0.48,0.16 -1.024,0.16 -0.725333,0 -1.376,-0.256 -0.650666,-0.256 -1.034666,-0.789333 z"
           style="font-style:normal;font-variant:normal;font-weight:500;font-stretch:normal;font-size:10.66666698px;font-family:Avenir;-inkscape-font-specification:'Avenir, Medium';font-variant-ligatures:normal;font-variant-caps:normal;font-variant-numeric:normal;font-feature-settings:normal;text-align:justify;writing-mode:lr-tb;text-anchor:start;fill:#777777;fill-opacity:1;stroke-width:0.71876061px"
           id="path858" /><path
           d="m 23.679588,11.855311 h -1.376 v 2.293334 q 0,0.213333 0.01067,0.426666 0.01067,0.202667 0.07467,0.373334 0.07467,0.16 0.213333,0.266666 0.149333,0.096 0.426667,0.096 0.170666,0 0.352,-0.032 0.181333,-0.032 0.330666,-0.117333 v 0.874667 q -0.170666,0.096 -0.448,0.128 -0.266666,0.04267 -0.416,0.04267 -0.554666,0 -0.864,-0.149333 -0.298666,-0.16 -0.448,-0.405333 -0.138666,-0.245334 -0.170666,-0.544 -0.02133,-0.309334 -0.02133,-0.618667 v -2.634667 h -1.109333 v -0.832 h 1.109333 V 9.6046445 h 0.96 v 1.4186665 h 1.376 z"
           style="font-style:normal;font-variant:normal;font-weight:500;font-stretch:normal;font-size:10.66666698px;font-family:Avenir;-inkscape-font-specification:'Avenir, Medium';font-variant-ligatures:normal;font-variant-caps:normal;font-variant-numeric:normal;font-feature-settings:normal;text-align:justify;writing-mode:lr-tb;text-anchor:start;fill:#777777;fill-opacity:1;stroke-width:0.71876061px"
           id="path860" /><path
           d="m 24.907755,11.023311 h 0.96 v 0.778667 h 0.02133 q 0.096,-0.202667 0.256,-0.362667 0.16,-0.170666 0.352,-0.288 0.202667,-0.117333 0.437334,-0.181333 0.234666,-0.07467 0.469333,-0.07467 0.234667,0 0.426667,0.064 l -0.04267,1.034667 q -0.117333,-0.032 -0.234667,-0.05333 -0.117333,-0.02133 -0.234666,-0.02133 -0.704,0 -1.077334,0.394667 -0.373333,0.394667 -0.373333,1.226667 v 2.538666 h -0.96 z"
           style="font-style:normal;font-variant:normal;font-weight:500;font-stretch:normal;font-size:10.66666698px;font-family:Avenir;-inkscape-font-specification:'Avenir, Medium';font-variant-ligatures:normal;font-variant-caps:normal;font-variant-numeric:normal;font-feature-settings:normal;text-align:justify;writing-mode:lr-tb;text-anchor:start;fill:#777777;fill-opacity:1;stroke-width:0.71876061px"
           id="path862" /><path
           d="m 33.325255,16.079311 h -0.96 v -0.778666 h -0.02133 q -0.181334,0.405333 -0.629334,0.661333 -0.448,0.245333 -1.034666,0.245333 -0.373334,0 -0.704,-0.117333 -0.330667,-0.106667 -0.586667,-0.341333 -0.245333,-0.234667 -0.394667,-0.597334 -0.149333,-0.373333 -0.149333,-0.874666 v -3.253334 h 0.96 v 2.986667 q 0,0.352 0.096,0.608 0.096,0.245333 0.256,0.405333 0.16,0.149334 0.362667,0.224 0.213333,0.064 0.437333,0.064 0.298667,0 0.554667,-0.096 0.256,-0.096 0.448,-0.298666 0.192,-0.213334 0.298666,-0.533334 0.106667,-0.32 0.106667,-0.757333 v -2.602667 h 0.96 z"
           style="font-style:normal;font-variant:normal;font-weight:500;font-stretch:normal;font-size:10.66666698px;font-family:Avenir;-inkscape-font-specification:'Avenir, Medium';font-variant-ligatures:normal;font-variant-caps:normal;font-variant-numeric:normal;font-feature-settings:normal;text-align:justify;writing-mode:lr-tb;text-anchor:start;fill:#777777;fill-opacity:1;stroke-width:0.71876061px"
           id="path864" /><path
           d="m 38.398755,12.367311 q -0.266667,-0.277333 -0.565333,-0.416 -0.288,-0.149333 -0.693334,-0.149333 -0.394666,0 -0.693333,0.149333 -0.288,0.138667 -0.490667,0.394667 -0.192,0.245333 -0.298666,0.576 -0.096,0.32 -0.096,0.672 0,0.352 0.117333,0.672 0.117333,0.309333 0.330667,0.544 0.213333,0.234667 0.512,0.373333 0.298666,0.128 0.672,0.128 0.405333,0 0.693333,-0.138666 0.288,-0.149334 0.533333,-0.426667 l 0.682667,0.682667 q -0.373333,0.416 -0.874667,0.597333 -0.490666,0.181333 -1.045333,0.181333 -0.586667,0 -1.077333,-0.192 -0.48,-0.192 -0.832,-0.533333 -0.352,-0.352 -0.544,-0.832 -0.192,-0.490667 -0.192,-1.077333 0,-0.586667 0.192,-1.077334 0.192,-0.490666 0.533333,-0.842666 0.352,-0.352 0.832,-0.544 0.490667,-0.202667 1.088,-0.202667 0.554667,0 1.056,0.202667 0.512,0.192 0.885334,0.597333 z"
           style="font-style:normal;font-variant:normal;font-weight:500;font-stretch:normal;font-size:10.66666698px;font-family:Avenir;-inkscape-font-specification:'Avenir, Medium';font-variant-ligatures:normal;font-variant-caps:normal;font-variant-numeric:normal;font-feature-settings:normal;text-align:justify;writing-mode:lr-tb;text-anchor:start;fill:#777777;fill-opacity:1;stroke-width:0.71876061px"
           id="path866" /><path
           d="m 42.637922,11.855311 h -1.376 v 2.293334 q 0,0.213333 0.01067,0.426666 0.01067,0.202667 0.07467,0.373334 0.07467,0.16 0.213333,0.266666 0.149333,0.096 0.426667,0.096 0.170666,0 0.352,-0.032 0.181333,-0.032 0.330666,-0.117333 v 0.874667 q -0.170666,0.096 -0.448,0.128 -0.266666,0.04267 -0.416,0.04267 -0.554666,0 -0.864,-0.149333 -0.298666,-0.16 -0.448,-0.405333 -0.138666,-0.245334 -0.170666,-0.544 -0.02133,-0.309334 -0.02133,-0.618667 v -2.634667 h -1.109333 v -0.832 h 1.109333 V 9.6046445 h 0.96 v 1.4186665 h 1.376 z"
           style="font-style:normal;font-variant:normal;font-weight:500;font-stretch:normal;font-size:10.66666698px;font-family:Avenir;-inkscape-font-specification:'Avenir, Medium';font-variant-ligatures:normal;font-variant-caps:normal;font-variant-numeric:normal;font-feature-settings:normal;text-align:justify;writing-mode:lr-tb;text-anchor:start;fill:#777777;fill-opacity:1;stroke-width:0.71876061px"
           id="path868" /><path
           d="m 48.346089,16.079311 h -0.96 v -0.778666 h -0.02133 q -0.181334,0.405333 -0.629334,0.661333 -0.448,0.245333 -1.034666,0.245333 -0.373334,0 -0.704,-0.117333 -0.330667,-0.106667 -0.586667,-0.341333 -0.245333,-0.234667 -0.394667,-0.597334 -0.149333,-0.373333 -0.149333,-0.874666 v -3.253334 h 0.96 v 2.986667 q 0,0.352 0.096,0.608 0.096,0.245333 0.256,0.405333 0.16,0.149334 0.362667,0.224 0.213333,0.064 0.437333,0.064 0.298667,0 0.554667,-0.096 0.256,-0.096 0.448,-0.298666 0.192,-0.213334 0.298666,-0.533334 0.106667,-0.32 0.106667,-0.757333 v -2.602667 h 0.96 z"
           style="font-style:normal;font-variant:normal;font-weight:500;font-stretch:normal;font-size:10.66666698px;font-family:Avenir;-inkscape-font-specification:'Avenir, Medium';font-variant-ligatures:normal;font-variant-caps:normal;font-variant-numeric:normal;font-feature-settings:normal;text-align:justify;writing-mode:lr-tb;text-anchor:start;fill:#777777;fill-opacity:1;stroke-width:0.71876061px"
           id="path870" /><path
           d="m 49.803587,11.023311 h 0.96 v 0.778667 h 0.02133 q 0.096,-0.202667 0.256,-0.362667 0.16,-0.170666 0.352,-0.288 0.202667,-0.117333 0.437334,-0.181333 0.234667,-0.07467 0.469333,-0.07467 0.234667,0 0.426667,0.064 l -0.04267,1.034667 q -0.117333,-0.032 -0.234666,-0.05333 -0.117334,-0.02133 -0.234667,-0.02133 -0.704,0 -1.077334,0.394667 -0.373333,0.394667 -0.373333,1.226667 v 2.538666 h -0.96 z"
           style="font-style:normal;font-variant:normal;font-weight:500;font-stretch:normal;font-size:10.66666698px;font-family:Avenir;-inkscape-font-specification:'Avenir, Medium';font-variant-ligatures:normal;font-variant-caps:normal;font-variant-numeric:normal;font-feature-settings:normal;text-align:justify;writing-mode:lr-tb;text-anchor:start;fill:#777777;fill-opacity:1;stroke-width:0.71876061px"
           id="path872" /><path
           d="m 54.27892,13.903311 q 0,0.330667 0.138667,0.608 0.149333,0.266667 0.384,0.458667 0.234667,0.192 0.544,0.298667 0.309333,0.106666 0.64,0.106666 0.448,0 0.778667,-0.202666 0.330667,-0.213334 0.608,-0.554667 l 0.725333,0.554667 q -0.8,1.034666 -2.24,1.034666 -0.597333,0 -1.088,-0.202666 -0.48,-0.202667 -0.821333,-0.554667 -0.330667,-0.362667 -0.512,-0.842667 -0.181334,-0.490666 -0.181334,-1.056 0,-0.565333 0.192,-1.045333 0.202667,-0.490667 0.544,-0.842667 0.352,-0.362666 0.832,-0.565333 0.48,-0.202667 1.045334,-0.202667 0.672,0 1.130667,0.234667 0.469333,0.234667 0.768,0.618667 0.298666,0.373333 0.426666,0.853333 0.138667,0.469333 0.138667,0.96 v 0.341333 z m 3.029334,-0.768 q -0.01067,-0.32 -0.106667,-0.586666 -0.08533,-0.266667 -0.266666,-0.458667 -0.181334,-0.202667 -0.458667,-0.309333 -0.266667,-0.117334 -0.629333,-0.117334 -0.352001,0 -0.650667,0.138667 -0.288,0.128 -0.490667,0.341333 -0.202667,0.213334 -0.32,0.48 -0.106667,0.256 -0.106667,0.512 z"
           style="font-style:normal;font-variant:normal;font-weight:500;font-stretch:normal;font-size:10.66666698px;font-family:Avenir;-inkscape-font-specification:'Avenir, Medium';font-variant-ligatures:normal;font-variant-caps:normal;font-variant-numeric:normal;font-feature-settings:normal;text-align:justify;writing-mode:lr-tb;text-anchor:start;fill:#777777;fill-opacity:1;stroke-width:0.71876061px"
           id="path874" /></g></g><path
       style="fill:#3636f3;fill-opacity:1"
       d="m 12.044179,12.112974 a 1.1422229,1.1422229 0 0 1 -1.142222,1.142223 1.1422229,1.1422229 0 0 1 -1.1422233,-1.142223 1.1422229,1.1422229 0 0 1 1.1422233,-1.142223 1.1422229,1.1422229 0 0 1 1.142222,1.142223 z"
       id="circle241" /><path
       id="path243"
       d="M 2.2592747,14.154531"
       stroke-miterlimit="10"
       inkscape:connector-curvature="0"
       style="fill:none;stroke:#000000;stroke-width:0.57337219;stroke-miterlimit:10" /><g
       id="g315" /><g
       id="g317" /><g
       id="g319" /><g
       id="g321" /><g
       id="g323" /><g
       id="g325" /><g
       id="g327" /><g
       id="g329" /><g
       id="g331" /><g
       id="g333" /><g
       id="g335" /><g
       id="g337" /><g
       id="g339" /><g
       id="g341" /><g
       id="g343" /></g></svg>