<?xml version="1.0" encoding="UTF-8" standalone="no"?>
<!-- Generator: Adobe Illustrator 17.1.0, SVG Export Plug-In . SVG Version: 6.00 Build 0)  -->

<svg
   xmlns:dc="http://purl.org/dc/elements/1.1/"
   xmlns:cc="http://creativecommons.org/ns#"
   xmlns:rdf="http://www.w3.org/1999/02/22-rdf-syntax-ns#"
   xmlns:svg="http://www.w3.org/2000/svg"
   xmlns="http://www.w3.org/2000/svg"
   xmlns:sodipodi="http://sodipodi.sourceforge.net/DTD/sodipodi-0.dtd"
   xmlns:inkscape="http://www.inkscape.org/namespaces/inkscape"
   version="1.1"
   id="Layer_1"
   x="0px"
   y="0px"
   width="61.432137"
   height="12.400001"
   viewBox="0 0 61.432142 12.399999"
   enable-background="new 0 0 240 40"
   xml:space="preserve"
   sodipodi:docname="sw-icon-TEMP-menu.svg"
   inkscape:version="0.92.2 5c3e80d, 2017-08-06"><metadata
     id="metadata362"><rdf:RDF><cc:Work
         rdf:about=""><dc:format>image/svg+xml</dc:format><dc:type
           rdf:resource="http://purl.org/dc/dcmitype/StillImage" /><dc:title></dc:title></cc:Work></rdf:RDF></metadata><defs
     id="defs360" /><sodipodi:namedview
     pagecolor="#ffffff"
     bordercolor="#666666"
     borderopacity="1"
     objecttolerance="10"
     gridtolerance="10"
     guidetolerance="10"
     inkscape:pageopacity="0"
     inkscape:pageshadow="2"
     inkscape:window-width="2499"
     inkscape:window-height="1381"
     id="namedview358"
     showgrid="false"
     fit-margin-top="0"
     fit-margin-left="0"
     fit-margin-right="0"
     fit-margin-bottom="0"
     inkscape:zoom="15.959608"
     inkscape:cx="25.493221"
     inkscape:cy="1.6636088"
     inkscape:window-x="63"
     inkscape:window-y="17"
     inkscape:window-maximized="0"
     inkscape:current-layer="g917"
     inkscape:pagecheckerboard="true" /><g
     id="g8621"
     transform="translate(-7.4112309,-3.1804496)"><rect
       style="opacity:0.86000001;fill:none;fill-opacity:1;stroke:#3366ff;stroke-width:0;stroke-linecap:round;stroke-linejoin:miter;stroke-miterlimit:4;stroke-dasharray:none;stroke-dashoffset:86.40000153;stroke-opacity:1"
       id="rect827"
       width="11.988998"
       height="12.4"
       x="7.411232"
       y="-15.58045"
       ry="0"
       transform="scale(1,-1)" /><g
       id="g917"
       transform="translate(0,-0.04423049)"><g
         aria-label="Predictor"
         style="font-style:normal;font-variant:normal;font-weight:normal;font-stretch:normal;font-size:26.68686295px;line-height:125%;font-family:Calibri;-inkscape-font-specification:'Calibri, Normal';text-align:justify;letter-spacing:0px;word-spacing:0px;writing-mode:lr-tb;text-anchor:start;fill:#cc99ff;fill-opacity:1;stroke:none;stroke-width:1.11195266px;stroke-linecap:butt;stroke-linejoin:miter;stroke-opacity:1"
         id="text862"><path
           d="m 21.689052,3.7939998 h 2.953346 q 0.806536,0 1.328413,0.2253558 0.521876,0.2134949 0.818397,0.5574589 0.308382,0.3321032 0.42699,0.759093 0.118608,0.415129 0.118608,0.8065363 0,0.3914074 -0.118608,0.8183972 -0.118608,0.415129 -0.42699,0.759093 -0.296521,0.3321032 -0.818397,0.557459 -0.521877,0.2134949 -1.328413,0.2134949 h -1.814707 v 3.7005781 h -1.138639 z m 1.138639,3.7005785 h 1.494465 q 0.332103,0 0.652345,-0.047443 0.332103,-0.059304 0.581181,-0.2016341 0.260938,-0.14233 0.415129,-0.4032682 0.154191,-0.272799 0.154191,-0.6997889 0,-0.4269898 -0.154191,-0.687928 Q 25.81662,5.1817167 25.555682,5.0393868 25.306604,4.8970569 24.974501,4.8496136 24.654259,4.7903094 24.322156,4.7903094 h -1.494465 z"
           style="font-style:normal;font-variant:normal;font-weight:500;font-stretch:normal;font-size:11.8608284px;font-family:Avenir;-inkscape-font-specification:'Avenir Medium';letter-spacing:-0.11px;fill:#cc99ff;fill-opacity:1;stroke-width:1.11195266px"
           id="path1532"
           inkscape:connector-curvature="0" /><path
           d="m 28.34862,6.5694337 h 1.067474 v 0.8658404 h 0.02372 q 0.106747,-0.2253557 0.28466,-0.4032681 0.177912,-0.1897733 0.391407,-0.3202424 0.225356,-0.1304691 0.486294,-0.2016341 0.260938,-0.083026 0.521876,-0.083026 0.260939,0 0.474434,0.071165 l -0.04744,1.1505004 q -0.130469,-0.035583 -0.260938,-0.059304 -0.130469,-0.023722 -0.260938,-0.023722 -0.782815,0 -1.197944,0.4388506 -0.415129,0.4388507 -0.415129,1.3639953 V 12.191466 H 28.34862 Z"
           style="font-style:normal;font-variant:normal;font-weight:500;font-stretch:normal;font-size:11.8608284px;font-family:Avenir;-inkscape-font-specification:'Avenir Medium';letter-spacing:-0.11px;fill:#cc99ff;fill-opacity:1;stroke-width:1.11195266px"
           id="path1534"
           inkscape:connector-curvature="0" /><path
           d="m 33.214978,9.7718573 q 0,0.3676857 0.154191,0.6760677 0.166052,0.29652 0.42699,0.510015 0.260938,0.213495 0.604902,0.332103 0.343964,0.118609 0.71165,0.118609 0.498155,0 0.865841,-0.225356 0.367685,-0.237217 0.676067,-0.616763 l 0.806536,0.616763 q -0.889562,1.1505 -2.490774,1.1505 -0.664206,0 -1.209804,-0.225355 -0.533738,-0.225356 -0.913284,-0.616764 -0.367686,-0.403268 -0.56932,-0.937005 -0.201634,-0.545598 -0.201634,-1.174222 0,-0.6286239 0.213495,-1.1623612 0.225356,-0.5455981 0.604902,-0.9370054 0.391407,-0.4032682 0.925145,-0.6286239 0.533737,-0.2253558 1.162361,-0.2253558 0.747232,0 1.257248,0.2609383 0.521876,0.2609382 0.853979,0.687928 0.332104,0.415129 0.474434,0.9488663 0.15419,0.5218764 0.15419,1.0674745 V 9.7718573 Z M 36.583454,8.9178777 Q 36.571593,8.5620528 36.464845,8.2655321 36.369959,7.9690114 36.168325,7.7555165 35.966691,7.5301608 35.658309,7.4115525 35.361788,7.2810834 34.95852,7.2810834 q -0.391407,0 -0.72351,0.1541907 -0.320243,0.14233 -0.545598,0.3795466 -0.225356,0.2372165 -0.355825,0.5337372 -0.118609,0.2846599 -0.118609,0.5693198 z"
           style="font-style:normal;font-variant:normal;font-weight:500;font-stretch:normal;font-size:11.8608284px;font-family:Avenir;-inkscape-font-specification:'Avenir Medium';letter-spacing:-0.11px;fill:#cc99ff;fill-opacity:1;stroke-width:1.11195266px"
           id="path1536"
           inkscape:connector-curvature="0" /><path
           d="M 44.534556,12.191466 H 43.467081 V 11.38493 h -0.02372 q -0.308381,0.450711 -0.853979,0.699789 -0.533738,0.249077 -1.103057,0.249077 -0.652346,0 -1.186083,-0.225355 -0.521877,-0.225356 -0.901423,-0.628624 -0.367686,-0.403269 -0.56932,-0.937006 -0.201634,-0.533737 -0.201634,-1.162361 0,-0.6286239 0.201634,-1.1623612 0.201634,-0.5455981 0.56932,-0.9370054 0.379546,-0.4032682 0.901423,-0.6286239 0.533737,-0.2253558 1.186083,-0.2253558 0.604902,0 1.138639,0.2609383 0.533737,0.2490774 0.818397,0.687928 h 0.02372 V 3.2246801 h 1.067475 z m -2.917764,-0.853979 q 0.42699,0 0.770954,-0.14233 0.343964,-0.154191 0.58118,-0.403268 0.237217,-0.260939 0.367686,-0.616763 0.130469,-0.3676862 0.130469,-0.794676 0,-0.4269898 -0.130469,-0.7828147 Q 43.206143,8.2299496 42.968926,7.9808722 42.73171,7.719934 42.387746,7.5776041 42.043782,7.4234133 41.616792,7.4234133 q -0.42699,0 -0.770954,0.1541908 -0.343964,0.1423299 -0.581181,0.4032681 -0.237216,0.2490774 -0.367685,0.6167631 -0.130469,0.3558249 -0.130469,0.7828147 0,0.4269898 0.130469,0.794676 0.130469,0.355824 0.367685,0.616763 0.237217,0.249077 0.581181,0.403268 0.343964,0.14233 0.770954,0.14233 z"
           style="font-style:normal;font-variant:normal;font-weight:500;font-stretch:normal;font-size:11.8608284px;font-family:Avenir;-inkscape-font-specification:'Avenir Medium';letter-spacing:-0.11px;fill:#cc99ff;fill-opacity:1;stroke-width:1.11195266px"
           id="path1538"
           inkscape:connector-curvature="0" /><path
           d="M 46.124546,6.5694337 H 47.19202 V 12.191466 H 46.124546 Z M 45.875468,4.5530928 q 0,-0.3202423 0.225356,-0.5455981 0.237216,-0.2372165 0.557459,-0.2372165 0.320242,0 0.545598,0.2372165 0.237217,0.2253558 0.237217,0.5455981 0,0.3202424 -0.237217,0.557459 -0.225356,0.2253557 -0.545598,0.2253557 -0.320243,0 -0.557459,-0.2253557 -0.225356,-0.2372166 -0.225356,-0.557459 z"
           style="font-style:normal;font-variant:normal;font-weight:500;font-stretch:normal;font-size:11.8608284px;font-family:Avenir;-inkscape-font-specification:'Avenir Medium';letter-spacing:-0.11px;fill:#cc99ff;fill-opacity:1;stroke-width:1.11195266px"
           id="path1540"
           inkscape:connector-curvature="0" /><path
           d="M 52.801719,8.063898 Q 52.505198,7.7555165 52.173095,7.6013257 51.852852,7.4352741 51.402141,7.4352741 q -0.438851,0 -0.770954,0.1660516 -0.320242,0.1541908 -0.545598,0.4388507 -0.213495,0.272799 -0.332103,0.6404847 -0.106748,0.3558249 -0.106748,0.7472322 0,0.3914074 0.130469,0.7472327 0.130469,0.343964 0.367686,0.604902 0.237217,0.260938 0.56932,0.415129 0.332103,0.14233 0.747232,0.14233 0.450711,0 0.770954,-0.154191 0.320242,-0.166052 0.593041,-0.474433 l 0.759093,0.759093 q -0.415129,0.462572 -0.972588,0.664206 -0.545598,0.201634 -1.162361,0.201634 -0.652345,0 -1.197944,-0.213495 -0.533737,-0.213495 -0.925144,-0.593041 -0.391407,-0.391407 -0.604902,-0.925145 -0.213495,-0.545598 -0.213495,-1.1979433 0,-0.6523456 0.213495,-1.1979437 0.213495,-0.5455981 0.593041,-0.9370055 0.391407,-0.3914073 0.925145,-0.6049022 0.545598,-0.2253557 1.209804,-0.2253557 0.616763,0 1.174222,0.2253557 0.56932,0.2134949 0.984449,0.6642064 z"
           style="font-style:normal;font-variant:normal;font-weight:500;font-stretch:normal;font-size:11.8608284px;font-family:Avenir;-inkscape-font-specification:'Avenir Medium';letter-spacing:-0.11px;fill:#cc99ff;fill-opacity:1;stroke-width:1.11195266px"
           id="path1542"
           inkscape:connector-curvature="0" /><path
           d="m 57.405469,7.4945783 h -1.530046 v 2.5500777 q 0,0.237217 0.01186,0.474434 0.01186,0.225355 0.08303,0.415129 0.08303,0.177912 0.237217,0.29652 0.166051,0.106748 0.474433,0.106748 0.189773,0 0.391407,-0.03558 0.201634,-0.03558 0.367686,-0.130469 v 0.972588 q -0.189773,0.106747 -0.498155,0.14233 -0.296521,0.04744 -0.462572,0.04744 -0.616763,0 -0.960727,-0.166051 -0.332103,-0.177913 -0.498155,-0.450712 -0.154191,-0.272799 -0.189773,-0.604902 -0.02372,-0.343964 -0.02372,-0.687928 V 7.4945783 H 53.574422 V 6.5694337 h 1.233526 V 4.9919435 h 1.067475 v 1.5774902 h 1.530046 z"
           style="font-style:normal;font-variant:normal;font-weight:500;font-stretch:normal;font-size:11.8608284px;font-family:Avenir;-inkscape-font-specification:'Avenir Medium';letter-spacing:-0.11px;fill:#cc99ff;fill-opacity:1;stroke-width:1.11195266px"
           id="path1544"
           inkscape:connector-curvature="0" /><path
           d="m 59.526974,9.38045 q 0,0.4269898 0.130469,0.794676 0.130469,0.355824 0.367686,0.616763 0.237216,0.249077 0.58118,0.403268 0.343964,0.14233 0.770954,0.14233 0.42699,0 0.770954,-0.14233 0.343964,-0.154191 0.581181,-0.403268 0.237216,-0.260939 0.367685,-0.616763 0.130469,-0.3676862 0.130469,-0.794676 0,-0.4269898 -0.130469,-0.7828147 Q 62.966614,8.2299496 62.729398,7.9808722 62.492181,7.719934 62.148217,7.5776041 61.804253,7.4234133 61.377263,7.4234133 q -0.42699,0 -0.770954,0.1541908 -0.343964,0.1423299 -0.58118,0.4032681 -0.237217,0.2490774 -0.367686,0.6167631 -0.130469,0.3558249 -0.130469,0.7828147 z m -1.13864,0 q 0,-0.6167631 0.225356,-1.1505004 0.237217,-0.5337372 0.640485,-0.9370054 0.403268,-0.4032682 0.948866,-0.6286239 0.545598,-0.2372166 1.174222,-0.2372166 0.628624,0 1.174222,0.2372166 0.545598,0.2253557 0.948866,0.6286239 0.403269,0.4032682 0.628624,0.9370054 0.237217,0.5337373 0.237217,1.1505004 0,0.6167631 -0.237217,1.162361 -0.225355,0.533737 -0.628624,0.937006 -0.403268,0.391407 -0.948866,0.628624 -0.545598,0.225355 -1.174222,0.225355 -0.628624,0 -1.174222,-0.225355 Q 59.657443,11.871224 59.254175,11.479817 58.850907,11.076548 58.61369,10.542811 58.388334,9.9972131 58.388334,9.38045 Z"
           style="font-style:normal;font-variant:normal;font-weight:500;font-stretch:normal;font-size:11.8608284px;font-family:Avenir;-inkscape-font-specification:'Avenir Medium';letter-spacing:-0.11px;fill:#cc99ff;fill-opacity:1;stroke-width:1.11195266px"
           id="path1546"
           inkscape:connector-curvature="0" /><path
           d="m 65.593503,6.5694337 h 1.067474 v 0.8658404 h 0.02372 q 0.106747,-0.2253557 0.28466,-0.4032681 0.177912,-0.1897733 0.391407,-0.3202424 0.225356,-0.1304691 0.486294,-0.2016341 0.260938,-0.083026 0.521877,-0.083026 0.260938,0 0.474433,0.071165 l -0.04744,1.1505004 q -0.130469,-0.035583 -0.260938,-0.059304 -0.130469,-0.023722 -0.260938,-0.023722 -0.782815,0 -1.197944,0.4388506 -0.415129,0.4388507 -0.415129,1.3639953 v 2.8228772 h -1.067474 z"
           style="font-style:normal;font-variant:normal;font-weight:500;font-stretch:normal;font-size:11.8608284px;font-family:Avenir;-inkscape-font-specification:'Avenir Medium';letter-spacing:-0.11px;fill:#cc99ff;fill-opacity:1;stroke-width:1.11195266px"
           id="path1548"
           inkscape:connector-curvature="0" /></g><g
         id="g901"
         style="stroke:#cc99ff;stroke-opacity:1"><path
           id="path239-1"
           d="m 7.9112309,3.8677384 c 0,0.821 0.6315385,1.4525384 1.4525384,1.4525384 0.8209997,0 1.4525387,-0.6315384 1.4525387,-1.4525384"
           stroke-miterlimit="10"
           inkscape:connector-curvature="0"
           style="fill:none;stroke:#cc99ff;stroke-width:1;stroke-miterlimit:10;stroke-opacity:1" /><path
           id="path241-1"
           d="M 11.953077,6.457046"
           stroke-miterlimit="10"
           inkscape:connector-curvature="0"
           style="fill:none;stroke:#cc99ff;stroke-width:1;stroke-miterlimit:10;stroke-opacity:1" /><path
           id="path243-6"
           d="m 11.953077,3.8677384 c 0,0.821 0.631538,1.4525384 1.452538,1.4525384 0.821,0 1.452539,-0.6315384 1.452539,-1.4525384"
           stroke-miterlimit="10"
           inkscape:connector-curvature="0"
           style="fill:none;stroke:#cc99ff;stroke-width:1;stroke-miterlimit:10;stroke-opacity:1" /><path
           id="path245-1"
           d="M 15.994923,6.457046"
           stroke-miterlimit="10"
           inkscape:connector-curvature="0"
           style="fill:none;stroke:#cc99ff;stroke-width:1;stroke-miterlimit:10;stroke-opacity:1" /><path
           id="path247-1"
           d="m 15.994923,3.8677384 c 0,0.821 0.631539,1.4525384 1.452539,1.4525384 0.821,0 1.452538,-0.6315384 1.452538,-1.4525384"
           stroke-miterlimit="10"
           inkscape:connector-curvature="0"
           style="fill:none;stroke:#cc99ff;stroke-width:1;stroke-miterlimit:10;stroke-opacity:1" /><path
           id="path249-8"
           d="m 7.9112309,12.077738 c 0,-0.821 0.6315385,-1.452538 1.4525384,-1.452538 0.8209997,0 1.4525387,0.631538 1.4525387,1.452538"
           stroke-miterlimit="10"
           inkscape:connector-curvature="0"
           style="fill:none;stroke:#cc99ff;stroke-width:1;stroke-miterlimit:10;stroke-opacity:1" /><path
           id="path251-1"
           d="m 11.953077,12.077738 c 0,-0.821 0.631538,-1.452538 1.452538,-1.452538 0.821,0 1.452539,0.631538 1.452539,1.452538"
           stroke-miterlimit="10"
           inkscape:connector-curvature="0"
           style="fill:none;stroke:#cc99ff;stroke-width:1;stroke-miterlimit:10;stroke-opacity:1" /><path
           id="path253-1"
           d="m 15.994923,12.077738 c 0,-0.821 0.631539,-1.452538 1.452539,-1.452538 0.821,0 1.452538,0.631538 1.452538,1.452538"
           stroke-miterlimit="10"
           inkscape:connector-curvature="0"
           style="fill:none;stroke:#cc99ff;stroke-width:1;stroke-miterlimit:10;stroke-opacity:1" /><path
           style="fill:none;stroke:#cc99ff;stroke-width:1;stroke-miterlimit:10;stroke-opacity:1"
           d="M 10.816308,7.9727383 A 1.4525384,1.4525384 0 0 1 9.3637695,9.4252766 1.4525384,1.4525384 0 0 1 7.9112312,7.9727383 1.4525384,1.4525384 0 0 1 9.3637695,6.5201999 1.4525384,1.4525384 0 0 1 10.816308,7.9727383 Z"
           id="circle255-5"
           inkscape:connector-curvature="0" /><path
           style="fill:none;stroke:#cc99ff;stroke-width:1;stroke-miterlimit:10;stroke-opacity:1"
           d="M 14.858154,7.9727383 A 1.4525384,1.4525384 0 0 1 13.405616,9.4252766 1.4525384,1.4525384 0 0 1 11.953077,7.9727383 1.4525384,1.4525384 0 0 1 13.405616,6.5201999 1.4525384,1.4525384 0 0 1 14.858154,7.9727383 Z"
           id="circle257-0"
           inkscape:connector-curvature="0" /><path
           style="fill:#cc99ff;fill-opacity:1;stroke:#cc99ff;stroke-width:1;stroke-miterlimit:10;stroke-opacity:1"
           d="M 18.9,7.9727383 A 1.4525384,1.4525384 0 0 1 17.447462,9.4252766 1.4525384,1.4525384 0 0 1 15.994924,7.9727383 1.4525384,1.4525384 0 0 1 17.447462,6.5201999 1.4525384,1.4525384 0 0 1 18.9,7.9727383 Z"
           id="circle259-0"
           inkscape:connector-curvature="0" /></g></g></g></svg>