<?xml version="1.0" encoding="UTF-8" standalone="no"?>
<!-- Generator: Adobe Illustrator 17.1.0, SVG Export Plug-In . SVG Version: 6.00 Build 0)  -->

<svg
   xmlns:dc="http://purl.org/dc/elements/1.1/"
   xmlns:cc="http://creativecommons.org/ns#"
   xmlns:rdf="http://www.w3.org/1999/02/22-rdf-syntax-ns#"
   xmlns:svg="http://www.w3.org/2000/svg"
   xmlns="http://www.w3.org/2000/svg"
   xmlns:sodipodi="http://sodipodi.sourceforge.net/DTD/sodipodi-0.dtd"
   xmlns:inkscape="http://www.inkscape.org/namespaces/inkscape"
   version="1.1"
   id="Layer_1"
   x="0px"
   y="0px"
   width="199.78438"
   height="12.400001"
   viewBox="0 0 199.7844 12.399999"
   enable-background="new 0 0 240 40"
   xml:space="preserve"
   sodipodi:docname="sw-icon-TEMP-menu.svg"
   inkscape:version="0.92.2 5c3e80d, 2017-08-06"><metadata
     id="metadata362"><rdf:RDF><cc:Work
         rdf:about=""><dc:format>image/svg+xml</dc:format><dc:type
           rdf:resource="http://purl.org/dc/dcmitype/StillImage" /><dc:title></dc:title></cc:Work></rdf:RDF></metadata><defs
     id="defs360" /><sodipodi:namedview
     pagecolor="#ffffff"
     bordercolor="#666666"
     borderopacity="1"
     objecttolerance="10"
     gridtolerance="10"
     guidetolerance="10"
     inkscape:pageopacity="0"
     inkscape:pageshadow="2"
     inkscape:window-width="2500"
     inkscape:window-height="1395"
     id="namedview358"
     showgrid="false"
     fit-margin-top="0"
     fit-margin-left="0"
     fit-margin-right="0"
     fit-margin-bottom="0"
     inkscape:zoom="7.979804"
     inkscape:cx="94.596184"
     inkscape:cy="6.2442321"
     inkscape:window-x="58"
     inkscape:window-y="22"
     inkscape:window-maximized="0"
     inkscape:current-layer="g8621"
     inkscape:pagecheckerboard="true" /><g
     id="g8621"
     transform="translate(-7.4112309,-3.1804496)"><path
       transform="scale(1,-1)"
       style="opacity:0.86000001;fill:none;fill-opacity:1;stroke:#010000;stroke-width:0;stroke-linecap:round;stroke-linejoin:miter;stroke-miterlimit:4;stroke-dasharray:none;stroke-dashoffset:86.40000153;stroke-opacity:1"
       d="M 7.411232,-15.58045 H 19.40023 V -3.1804504 H 7.411232 Z"
       id="rect827" /><g
       id="g917"
       transform="translate(0,-0.04423049)"><g
         aria-label="Spectrum Analysis and Visualization"
         style="font-style:normal;font-variant:normal;font-weight:normal;font-stretch:normal;font-size:26.68686295px;line-height:125%;font-family:Calibri;-inkscape-font-specification:'Calibri, Normal';text-align:justify;letter-spacing:0px;word-spacing:0px;writing-mode:lr-tb;text-anchor:start;fill:#ff0000;fill-opacity:1;stroke:none;stroke-width:1.11195266px;stroke-linecap:butt;stroke-linejoin:miter;stroke-opacity:1"
         id="text862"><path
           d="m 21.938129,10.436064 q 0.308382,0.462572 0.782815,0.687928 0.486294,0.213495 0.996309,0.213495 0.28466,0 0.581181,-0.08303 0.296521,-0.09489 0.533737,-0.272799 0.249078,-0.177913 0.403268,-0.438851 0.154191,-0.260938 0.154191,-0.6049021 0,-0.4862939 -0.308381,-0.7353713 Q 24.772867,8.9415993 24.310295,8.7755478 23.859583,8.5976353 23.313985,8.4434446 22.780248,8.277393 22.317676,7.9927331 21.866964,7.7080732 21.558583,7.2336401 21.250201,6.7473461 21.250201,5.9289489 q 0,-0.3676856 0.154191,-0.7828146 0.166052,-0.415129 0.510016,-0.7590931 0.343964,-0.343964 0.877701,-0.5693197 0.545598,-0.2372166 1.304691,-0.2372166 0.687928,0 1.316552,0.1897733 0.628624,0.1897732 1.103057,0.7709538 L 25.591264,5.3833508 Q 25.377769,5.0512476 24.986362,4.8496136 24.594955,4.6479795 24.0968,4.6479795 q -0.474433,0 -0.794676,0.1304691 -0.308381,0.1186083 -0.498154,0.3202423 -0.189774,0.1897733 -0.272799,0.415129 -0.07117,0.2253558 -0.07117,0.415129 0,0.5337373 0.308381,0.8183972 0.308382,0.2846599 0.759093,0.4625723 0.462573,0.1779124 0.99631,0.3202424 0.545598,0.1423299 0.996309,0.4032681 0.462573,0.2490774 0.770954,0.6879281 0.308382,0.4269898 0.308382,1.1860828 0,0.6049022 -0.237217,1.0911962 -0.225356,0.486294 -0.616763,0.818397 -0.391407,0.332103 -0.925145,0.510016 -0.533737,0.177912 -1.138639,0.177912 -0.806536,0 -1.530047,-0.28466 -0.72351,-0.28466 -1.1505,-0.877701 z"
           style="font-style:normal;font-variant:normal;font-weight:500;font-stretch:normal;font-size:11.8608284px;font-family:Avenir;-inkscape-font-specification:'Avenir Medium';letter-spacing:-0.11px;fill:#ff0000;fill-opacity:1;stroke-width:1.11195266px"
           id="path1162" /><path
           d="m 27.908472,6.5694337 h 1.067474 V 7.37597 h 0.02372 q 0.308381,-0.4507115 0.842119,-0.6997889 0.545598,-0.2490774 1.114918,-0.2490774 0.652345,0 1.174222,0.2253558 0.533737,0.2253557 0.901423,0.6286239 0.379546,0.4032681 0.58118,0.9488662 0.201634,0.5337373 0.201634,1.1505004 0,0.628624 -0.201634,1.174222 -0.201634,0.533737 -0.58118,0.937005 -0.367686,0.391408 -0.901423,0.616764 -0.521877,0.225355 -1.174222,0.225355 -0.604903,0 -1.13864,-0.249077 -0.533737,-0.260938 -0.818397,-0.699789 h -0.02372 v 4.15129 h -1.067474 z m 2.917764,0.8539796 q -0.42699,0 -0.770954,0.1541908 -0.343964,0.1423299 -0.581181,0.4032681 -0.237217,0.2490774 -0.367686,0.6167631 -0.130469,0.3558249 -0.130469,0.7828147 0,0.4269898 0.130469,0.794676 0.130469,0.355824 0.367686,0.616763 0.237217,0.249077 0.581181,0.403268 0.343964,0.14233 0.770954,0.14233 0.426989,0 0.770953,-0.14233 0.343964,-0.154191 0.581181,-0.403268 0.237217,-0.260939 0.367686,-0.616763 0.130469,-0.3676862 0.130469,-0.794676 0,-0.4269898 -0.130469,-0.7828147 Q 32.415587,8.2299496 32.17837,7.9808722 31.941153,7.719934 31.597189,7.5776041 31.253225,7.4234133 30.826236,7.4234133 Z"
           style="font-style:normal;font-variant:normal;font-weight:500;font-stretch:normal;font-size:11.8608284px;font-family:Avenir;-inkscape-font-specification:'Avenir Medium';letter-spacing:-0.11px;fill:#ff0000;fill-opacity:1;stroke-width:1.11195266px"
           id="path1164" /><path
           d="m 35.855866,9.7718573 q 0,0.3676857 0.154191,0.6760677 0.166051,0.29652 0.426989,0.510015 0.260939,0.213495 0.604903,0.332103 0.343964,0.118609 0.711649,0.118609 0.498155,0 0.865841,-0.225356 0.367685,-0.237217 0.676067,-0.616763 l 0.806536,0.616763 q -0.889562,1.1505 -2.490774,1.1505 -0.664206,0 -1.209804,-0.225355 -0.533737,-0.225356 -0.913284,-0.616764 -0.367686,-0.403268 -0.56932,-0.937005 -0.201634,-0.545598 -0.201634,-1.174222 0,-0.6286239 0.213495,-1.1623612 0.225356,-0.5455981 0.604902,-0.9370054 0.391408,-0.4032682 0.925145,-0.6286239 0.533737,-0.2253558 1.162361,-0.2253558 0.747232,0 1.257248,0.2609383 0.521876,0.2609382 0.85398,0.687928 0.332103,0.415129 0.474433,0.9488663 0.154191,0.5218764 0.154191,1.0674745 V 9.7718573 Z M 39.224341,8.9178777 Q 39.21248,8.5620528 39.105733,8.2655321 39.010846,7.9690114 38.809212,7.7555165 38.607578,7.5301608 38.299196,7.4115525 38.002676,7.2810834 37.599408,7.2810834 q -0.391408,0 -0.723511,0.1541907 -0.320242,0.14233 -0.545598,0.3795466 -0.225356,0.2372165 -0.355825,0.5337372 -0.118608,0.2846599 -0.118608,0.5693198 z"
           style="font-style:normal;font-variant:normal;font-weight:500;font-stretch:normal;font-size:11.8608284px;font-family:Avenir;-inkscape-font-specification:'Avenir Medium';letter-spacing:-0.11px;fill:#ff0000;fill-opacity:1;stroke-width:1.11195266px"
           id="path1166" /><path
           d="M 45.562369,8.063898 Q 45.265849,7.7555165 44.933745,7.6013257 44.613503,7.4352741 44.162791,7.4352741 q -0.43885,0 -0.770953,0.1660516 -0.320243,0.1541908 -0.545598,0.4388507 -0.213495,0.272799 -0.332104,0.6404847 -0.106747,0.3558249 -0.106747,0.7472322 0,0.3914074 0.130469,0.7472327 0.130469,0.343964 0.367686,0.604902 0.237216,0.260938 0.569319,0.415129 0.332104,0.14233 0.747233,0.14233 0.450711,0 0.770953,-0.154191 0.320243,-0.166052 0.593042,-0.474433 l 0.759093,0.759093 q -0.415129,0.462572 -0.972588,0.664206 -0.545598,0.201634 -1.162361,0.201634 -0.652346,0 -1.197944,-0.213495 -0.533737,-0.213495 -0.925145,-0.593041 -0.391407,-0.391407 -0.604902,-0.925145 -0.213495,-0.545598 -0.213495,-1.1979433 0,-0.6523456 0.213495,-1.1979437 0.213495,-0.5455981 0.593042,-0.9370055 0.391407,-0.3914073 0.925144,-0.6049022 0.545598,-0.2253557 1.209805,-0.2253557 0.616763,0 1.174222,0.2253557 0.56932,0.2134949 0.984449,0.6642064 z"
           style="font-style:normal;font-variant:normal;font-weight:500;font-stretch:normal;font-size:11.8608284px;font-family:Avenir;-inkscape-font-specification:'Avenir Medium';letter-spacing:-0.11px;fill:#ff0000;fill-opacity:1;stroke-width:1.11195266px"
           id="path1168" /><path
           d="m 50.166122,7.4945783 h -1.530047 v 2.5500777 q 0,0.237217 0.01186,0.474434 0.01186,0.225355 0.08303,0.415129 0.08303,0.177912 0.237216,0.29652 0.166052,0.106748 0.474433,0.106748 0.189774,0 0.391408,-0.03558 0.201634,-0.03558 0.367686,-0.130469 v 0.972588 q -0.189774,0.106747 -0.498155,0.14233 -0.296521,0.04744 -0.462573,0.04744 -0.616763,0 -0.960727,-0.166051 -0.332103,-0.177913 -0.498154,-0.450712 -0.154191,-0.272799 -0.189774,-0.604902 -0.02372,-0.343964 -0.02372,-0.687928 V 7.4945783 H 46.335074 V 6.5694337 h 1.233527 V 4.9919435 h 1.067474 v 1.5774902 h 1.530047 z"
           style="font-style:normal;font-variant:normal;font-weight:500;font-stretch:normal;font-size:11.8608284px;font-family:Avenir;-inkscape-font-specification:'Avenir Medium';letter-spacing:-0.11px;fill:#ff0000;fill-opacity:1;stroke-width:1.11195266px"
           id="path1170" /><path
           d="m 51.421786,6.5694337 h 1.067475 v 0.8658404 h 0.02372 q 0.106748,-0.2253557 0.28466,-0.4032681 0.177912,-0.1897733 0.391407,-0.3202424 0.225356,-0.1304691 0.486294,-0.2016341 0.260939,-0.083026 0.521877,-0.083026 0.260938,0 0.474433,0.071165 l -0.04744,1.1505004 q -0.130469,-0.035583 -0.260939,-0.059304 -0.130469,-0.023722 -0.260938,-0.023722 -0.782814,0 -1.197943,0.4388506 -0.415129,0.4388507 -0.415129,1.3639953 v 2.8228768 h -1.067475 z"
           style="font-style:normal;font-variant:normal;font-weight:500;font-stretch:normal;font-size:11.8608284px;font-family:Avenir;-inkscape-font-specification:'Avenir Medium';letter-spacing:-0.11px;fill:#ff0000;fill-opacity:1;stroke-width:1.11195266px"
           id="path1172" /><path
           d="m 60.671646,12.191466 h -1.067474 v -0.86584 h -0.02372 q -0.201634,0.450711 -0.699789,0.735371 -0.498155,0.272799 -1.1505,0.272799 -0.415129,0 -0.782815,-0.130469 -0.367685,-0.118608 -0.652345,-0.379546 -0.272799,-0.260939 -0.438851,-0.664207 -0.166052,-0.415129 -0.166052,-0.972588 V 6.5694337 h 1.067475 v 3.3210319 q 0,0.3914074 0.106747,0.6760674 0.106748,0.272799 0.28466,0.450711 0.177913,0.166052 0.403268,0.249078 0.237217,0.07116 0.486294,0.07116 0.332104,0 0.616764,-0.106748 0.284659,-0.106747 0.498154,-0.332103 0.213495,-0.237217 0.332104,-0.593041 0.118608,-0.3558252 0.118608,-0.8421192 V 6.5694337 h 1.067474 z"
           style="font-style:normal;font-variant:normal;font-weight:500;font-stretch:normal;font-size:11.8608284px;font-family:Avenir;-inkscape-font-specification:'Avenir Medium';letter-spacing:-0.11px;fill:#ff0000;fill-opacity:1;stroke-width:1.11195266px"
           id="path1174" /><path
           d="m 62.182316,6.5694337 h 0.99631 V 7.447135 h 0.02372 q 0.03558,-0.1186083 0.177912,-0.2965207 0.154191,-0.1779125 0.379547,-0.3321032 0.237216,-0.1660516 0.545598,-0.2727991 0.320242,-0.1186083 0.699789,-0.1186083 0.628624,0 1.055613,0.2609383 0.42699,0.2609382 0.699789,0.7828146 0.272799,-0.5218764 0.770954,-0.7828146 0.498155,-0.2609383 1.00817,-0.2609383 0.652346,0 1.067475,0.2134949 0.415129,0.213495 0.652346,0.5693198 0.237216,0.343964 0.320242,0.7946755 0.09489,0.4388507 0.09489,0.9132838 V 12.191466 H 69.607195 V 9.0602076 q 0,-0.3202423 -0.04744,-0.616763 Q 69.524169,8.1469238 69.3937,7.9215681 69.263231,7.6962124 69.026014,7.5657433 q -0.237216,-0.14233 -0.628623,-0.14233 -0.770954,0 -1.103058,0.4744332 Q 66.96223,8.3722796 66.96223,9.1195118 V 12.191466 H 65.894756 V 9.2499809 q 0,-0.4032682 -0.04744,-0.7353714 -0.03558,-0.3321032 -0.166051,-0.5693197 -0.118608,-0.2490774 -0.355825,-0.3795465 -0.225356,-0.14233 -0.616763,-0.14233 -0.28466,0 -0.557459,0.1186083 -0.260938,0.1067475 -0.462572,0.3321032 -0.201634,0.2253557 -0.320243,0.5811806 -0.118608,0.343964 -0.118608,0.8183971 v 2.9177635 h -1.067475 z"
           style="font-style:normal;font-variant:normal;font-weight:500;font-stretch:normal;font-size:11.8608284px;font-family:Avenir;-inkscape-font-specification:'Avenir Medium';letter-spacing:-0.11px;fill:#ff0000;fill-opacity:1;stroke-width:1.11195266px"
           id="path1176" /><path
           d="m 78.257985,3.7939998 h 1.031892 l 3.593831,8.3974662 h -1.328413 l -0.842119,-2.075645 h -3.997099 l -0.830258,2.075645 h -1.328413 z m 2.040062,5.325512 -1.565629,-3.8547693 h -0.02372 l -1.589351,3.8547693 z"
           style="font-style:normal;font-variant:normal;font-weight:500;font-stretch:normal;font-size:11.8608284px;font-family:Avenir;-inkscape-font-specification:'Avenir Medium';letter-spacing:-0.11px;fill:#ff0000;fill-opacity:1;stroke-width:1.11195266px"
           id="path1178" /><path
           d="m 83.581727,6.5694337 h 1.067474 v 0.8658404 h 0.02372 q 0.201634,-0.4507114 0.699789,-0.7235105 0.498155,-0.2846599 1.1505,-0.2846599 0.403268,0 0.770954,0.1304691 0.379546,0.1186083 0.652346,0.3795466 0.284659,0.2609382 0.450711,0.6760672 0.166052,0.4032681 0.166052,0.9607271 V 12.191466 H 87.4958 V 8.8704344 q 0,-0.3914074 -0.106747,-0.6642064 -0.106748,-0.2846599 -0.28466,-0.4507115 -0.177913,-0.1779124 -0.415129,-0.2490774 -0.225356,-0.083026 -0.474433,-0.083026 -0.332104,0 -0.616763,0.1067475 -0.28466,0.1067474 -0.498155,0.343964 -0.213495,0.2253557 -0.332103,0.5811806 -0.118609,0.3558248 -0.118609,0.8421188 v 2.8940418 h -1.067474 z"
           style="font-style:normal;font-variant:normal;font-weight:500;font-stretch:normal;font-size:11.8608284px;font-family:Avenir;-inkscape-font-specification:'Avenir Medium';letter-spacing:-0.11px;fill:#ff0000;fill-opacity:1;stroke-width:1.11195266px"
           id="path1180" /><path
           d="m 90.097666,7.2573617 q 0.450712,-0.415129 1.043753,-0.6167631 0.593042,-0.2134949 1.186083,-0.2134949 0.616763,0 1.055614,0.1541908 0.450711,0.1541908 0.735371,0.415129 0.28466,0.2609382 0.415129,0.6049022 0.14233,0.3321032 0.14233,0.6997889 v 2.8703204 q 0,0.296521 0.01186,0.545598 0.01186,0.249078 0.03558,0.474433 h -0.948866 q -0.03558,-0.426989 -0.03558,-0.853979 h -0.02372 q -0.355825,0.545598 -0.842119,0.770954 -0.486294,0.225355 -1.126778,0.225355 -0.391408,0 -0.747233,-0.106747 -0.355825,-0.106748 -0.628624,-0.320243 -0.260938,-0.213494 -0.415129,-0.521876 -0.15419,-0.320242 -0.15419,-0.735371 0,-0.545598 0.237216,-0.9132841 0.249078,-0.3676857 0.664207,-0.5930415 0.426989,-0.2372165 0.984448,-0.3321032 0.56932,-0.1067474 1.209805,-0.1067474 h 0.782815 V 8.4671662 q 0,-0.2134949 -0.08303,-0.4269898 Q 93.513585,7.8266815 93.347533,7.6606299 93.181482,7.4827175 92.932404,7.3878308 92.683327,7.2810834 92.339363,7.2810834 q -0.308382,0 -0.545598,0.059304 -0.225356,0.059304 -0.415129,0.1541908 -0.189773,0.083026 -0.343964,0.2016341 -0.154191,0.1186083 -0.296521,0.2253557 z m 3.012651,2.2298358 q -0.379547,0 -0.782815,0.047443 -0.391407,0.035583 -0.72351,0.1541907 -0.320243,0.1186083 -0.533738,0.3321035 -0.201634,0.213495 -0.201634,0.545598 0,0.486294 0.320243,0.699789 0.332103,0.213495 0.889562,0.213495 0.43885,0 0.747232,-0.14233 0.308381,-0.154191 0.498155,-0.391408 0.189773,-0.237216 0.272799,-0.521876 0.08303,-0.296521 0.08303,-0.5811807 V 9.4871975 Z"
           style="font-style:normal;font-variant:normal;font-weight:500;font-stretch:normal;font-size:11.8608284px;font-family:Avenir;-inkscape-font-specification:'Avenir Medium';letter-spacing:-0.11px;fill:#ff0000;fill-opacity:1;stroke-width:1.11195266px"
           id="path1182" /><path
           d="m 96.209041,3.2246801 h 1.067475 v 8.9667859 h -1.067475 z"
           style="font-style:normal;font-variant:normal;font-weight:500;font-stretch:normal;font-size:11.8608284px;font-family:Avenir;-inkscape-font-specification:'Avenir Medium';letter-spacing:-0.11px;fill:#ff0000;fill-opacity:1;stroke-width:1.11195266px"
           id="path1184" /><path
           d="m 98.189328,6.5694337 h 1.233526 l 1.672376,4.3885063 h 0.0237 l 1.58935,-4.3885063 h 1.1505 l -2.66868,6.8318373 q -0.14233,0.367686 -0.29652,0.664206 -0.15419,0.308382 -0.36769,0.521877 -0.21349,0.213495 -0.52188,0.332103 -0.296516,0.118608 -0.735367,0.118608 -0.237216,0 -0.486294,-0.03558 -0.237216,-0.02372 -0.462572,-0.118609 l 0.130469,-0.972588 q 0.320243,0.13047 0.640485,0.13047 0.249077,0 0.415129,-0.07116 0.177912,-0.05931 0.296521,-0.189774 0.130469,-0.118608 0.213499,-0.28466 0.083,-0.166051 0.16605,-0.379546 l 0.34396,-0.889562 z"
           style="font-style:normal;font-variant:normal;font-weight:500;font-stretch:normal;font-size:11.8608284px;font-family:Avenir;-inkscape-font-specification:'Avenir Medium';letter-spacing:-0.11px;fill:#ff0000;fill-opacity:1;stroke-width:1.11195266px"
           id="path1186" /><path
           d="m 107.67474,7.9808722 q -0.18978,-0.2372165 -0.47444,-0.3914073 -0.2728,-0.1660516 -0.67606,-0.1660516 -0.37955,0 -0.66421,0.1660516 -0.2728,0.1541908 -0.2728,0.4625723 0,0.2490774 0.15419,0.4032682 0.16605,0.1541908 0.37955,0.2490774 0.22535,0.094887 0.47443,0.1423299 0.24908,0.047443 0.42699,0.083026 0.34396,0.083026 0.64048,0.2016341 0.30839,0.1186083 0.52188,0.3083815 0.22536,0.1897733 0.34397,0.4625724 0.13046,0.2727995 0.13046,0.6642065 0,0.474433 -0.20163,0.818397 -0.20163,0.332103 -0.52188,0.545598 -0.32024,0.213495 -0.73537,0.308382 -0.40327,0.09489 -0.81839,0.09489 -0.69979,0 -1.23353,-0.213495 -0.52188,-0.213495 -0.93701,-0.782814 l 0.80654,-0.664207 q 0.26094,0.260939 0.58118,0.462573 0.32024,0.201634 0.78282,0.201634 0.20163,0 0.40326,-0.03558 0.2135,-0.04744 0.36769,-0.130469 0.16605,-0.09489 0.26094,-0.225356 0.10674,-0.14233 0.10674,-0.320242 0,-0.237217 -0.15419,-0.391407 -0.14233,-0.154191 -0.35582,-0.2372169 -0.20163,-0.094887 -0.43885,-0.14233 -0.22536,-0.059304 -0.40327,-0.094887 -0.34396,-0.083026 -0.65235,-0.1897732 -0.30838,-0.1067475 -0.54559,-0.2846599 -0.23722,-0.1779125 -0.37955,-0.4507115 -0.14233,-0.2727991 -0.14233,-0.6760672 0,-0.4388507 0.17791,-0.759093 0.18978,-0.3321032 0.4863,-0.5455981 0.30838,-0.213495 0.68792,-0.3202424 0.39141,-0.1067475 0.78282,-0.1067475 0.56932,0 1.0912,0.2134949 0.52187,0.213495 0.83025,0.7116497 z"
           style="font-style:normal;font-variant:normal;font-weight:500;font-stretch:normal;font-size:11.8608284px;font-family:Avenir;-inkscape-font-specification:'Avenir Medium';letter-spacing:-0.11px;fill:#ff0000;fill-opacity:1;stroke-width:1.11195266px"
           id="path1188" /><path
           d="m 109.91745,6.5694337 h 1.06747 v 5.6220323 h -1.06747 z m -0.24908,-2.0163409 q 0,-0.3202423 0.22535,-0.5455981 0.23722,-0.2372165 0.55746,-0.2372165 0.32025,0 0.5456,0.2372165 0.23722,0.2253558 0.23722,0.5455981 0,0.3202424 -0.23722,0.557459 -0.22535,0.2253557 -0.5456,0.2253557 -0.32024,0 -0.55746,-0.2253557 -0.22535,-0.2372166 -0.22535,-0.557459 z"
           style="font-style:normal;font-variant:normal;font-weight:500;font-stretch:normal;font-size:11.8608284px;font-family:Avenir;-inkscape-font-specification:'Avenir Medium';letter-spacing:-0.11px;fill:#ff0000;fill-opacity:1;stroke-width:1.11195266px"
           id="path1190" /><path
           d="m 115.56273,7.9808722 q -0.18977,-0.2372165 -0.47443,-0.3914073 -0.2728,-0.1660516 -0.67607,-0.1660516 -0.37955,0 -0.66421,0.1660516 -0.2728,0.1541908 -0.2728,0.4625723 0,0.2490774 0.15419,0.4032682 0.16606,0.1541908 0.37955,0.2490774 0.22536,0.094887 0.47443,0.1423299 0.24908,0.047443 0.42699,0.083026 0.34397,0.083026 0.64049,0.2016341 0.30838,0.1186083 0.52187,0.3083815 0.22536,0.1897733 0.34397,0.4625724 0.13047,0.2727995 0.13047,0.6642065 0,0.474433 -0.20164,0.818397 -0.20163,0.332103 -0.52187,0.545598 -0.32025,0.213495 -0.73537,0.308382 -0.40327,0.09489 -0.8184,0.09489 -0.69979,0 -1.23353,-0.213495 -0.52187,-0.213495 -0.937,-0.782814 l 0.80653,-0.664207 q 0.26094,0.260939 0.58118,0.462573 0.32025,0.201634 0.78282,0.201634 0.20163,0 0.40327,-0.03558 0.21349,-0.04744 0.36768,-0.130469 0.16605,-0.09489 0.26094,-0.225356 0.10675,-0.14233 0.10675,-0.320242 0,-0.237217 -0.15419,-0.391407 -0.14233,-0.154191 -0.35583,-0.2372169 -0.20163,-0.094887 -0.43885,-0.14233 -0.22535,-0.059304 -0.40327,-0.094887 -0.34396,-0.083026 -0.65234,-0.1897732 -0.30838,-0.1067475 -0.5456,-0.2846599 -0.23722,-0.1779125 -0.37955,-0.4507115 -0.14233,-0.2727991 -0.14233,-0.6760672 0,-0.4388507 0.17792,-0.759093 0.18977,-0.3321032 0.48629,-0.5455981 0.30838,-0.213495 0.68793,-0.3202424 0.3914,-0.1067475 0.78281,-0.1067475 0.56932,0 1.0912,0.2134949 0.52187,0.213495 0.83026,0.7116497 z"
           style="font-style:normal;font-variant:normal;font-weight:500;font-stretch:normal;font-size:11.8608284px;font-family:Avenir;-inkscape-font-specification:'Avenir Medium';letter-spacing:-0.11px;fill:#ff0000;fill-opacity:1;stroke-width:1.11195266px"
           id="path1192" /><path
           d="m 120.92565,7.2573617 q 0.45072,-0.415129 1.04376,-0.6167631 0.59304,-0.2134949 1.18608,-0.2134949 0.61676,0 1.05561,0.1541908 0.45071,0.1541908 0.73537,0.415129 0.28466,0.2609382 0.41513,0.6049022 0.14233,0.3321032 0.14233,0.6997889 v 2.8703204 q 0,0.296521 0.0119,0.545598 0.0119,0.249078 0.0356,0.474433 h -0.94887 q -0.0356,-0.426989 -0.0356,-0.853979 h -0.0237 q -0.35583,0.545598 -0.84212,0.770954 -0.4863,0.225355 -1.12678,0.225355 -0.39141,0 -0.74723,-0.106747 -0.35583,-0.106748 -0.62863,-0.320243 -0.26094,-0.213494 -0.41513,-0.521876 -0.15419,-0.320242 -0.15419,-0.735371 0,-0.545598 0.23722,-0.9132841 0.24908,-0.3676857 0.66421,-0.5930415 0.42699,-0.2372165 0.98445,-0.3321032 0.56931,-0.1067474 1.2098,-0.1067474 h 0.78281 V 8.4671662 q 0,-0.2134949 -0.083,-0.4269898 -0.083,-0.2134949 -0.24908,-0.3795465 -0.16605,-0.1779124 -0.41513,-0.2727991 -0.24908,-0.1067474 -0.59304,-0.1067474 -0.30838,0 -0.5456,0.059304 -0.22535,0.059304 -0.41513,0.1541908 -0.18977,0.083026 -0.34396,0.2016341 -0.15419,0.1186083 -0.29652,0.2253557 z m 3.01265,2.2298358 q -0.37954,0 -0.78281,0.047443 -0.39141,0.035583 -0.72351,0.1541907 -0.32024,0.1186083 -0.53374,0.3321035 -0.20163,0.213495 -0.20163,0.545598 0,0.486294 0.32024,0.699789 0.3321,0.213495 0.88956,0.213495 0.43885,0 0.74723,-0.14233 0.30839,-0.154191 0.49816,-0.391408 0.18977,-0.237216 0.2728,-0.521876 0.083,-0.296521 0.083,-0.5811807 V 9.4871975 Z"
           style="font-style:normal;font-variant:normal;font-weight:500;font-stretch:normal;font-size:11.8608284px;font-family:Avenir;-inkscape-font-specification:'Avenir Medium';letter-spacing:-0.11px;fill:#ff0000;fill-opacity:1;stroke-width:1.11195266px"
           id="path1194" /><path
           d="m 126.954,6.5694337 h 1.06748 v 0.8658404 h 0.0237 q 0.20163,-0.4507114 0.69979,-0.7235105 0.49815,-0.2846599 1.1505,-0.2846599 0.40327,0 0.77095,0.1304691 0.37955,0.1186083 0.65235,0.3795466 0.28466,0.2609382 0.45071,0.6760672 0.16605,0.4032681 0.16605,0.9607271 v 3.6175523 h -1.06747 V 8.8704344 q 0,-0.3914074 -0.10675,-0.6642064 -0.10675,-0.2846599 -0.28466,-0.4507115 -0.17791,-0.1779124 -0.41513,-0.2490774 -0.22536,-0.083026 -0.47443,-0.083026 -0.33211,0 -0.61677,0.1067475 -0.28466,0.1067474 -0.49815,0.343964 -0.2135,0.2253557 -0.3321,0.5811806 -0.11861,0.3558248 -0.11861,0.8421188 V 12.191466 H 126.954 Z"
           style="font-style:normal;font-variant:normal;font-weight:500;font-stretch:normal;font-size:11.8608284px;font-family:Avenir;-inkscape-font-specification:'Avenir Medium';letter-spacing:-0.11px;fill:#ff0000;fill-opacity:1;stroke-width:1.11195266px"
           id="path1196" /><path
           d="m 139.08011,12.191466 h -1.06747 V 11.38493 h -0.0237 q -0.30838,0.450711 -0.85398,0.699789 -0.53374,0.249077 -1.10306,0.249077 -0.65234,0 -1.18608,-0.225355 -0.52188,-0.225356 -0.90142,-0.628624 -0.36769,-0.403269 -0.56932,-0.937006 -0.20164,-0.533737 -0.20164,-1.162361 0,-0.6286239 0.20164,-1.1623612 0.20163,-0.5455981 0.56932,-0.9370054 0.37954,-0.4032682 0.90142,-0.6286239 0.53374,-0.2253558 1.18608,-0.2253558 0.6049,0 1.13864,0.2609383 0.53374,0.2490774 0.8184,0.687928 h 0.0237 V 3.2246801 h 1.06747 z m -2.91776,-0.853979 q 0.42699,0 0.77095,-0.14233 0.34397,-0.154191 0.58119,-0.403268 0.23721,-0.260939 0.36768,-0.616763 0.13047,-0.3676862 0.13047,-0.794676 0,-0.4269898 -0.13047,-0.7828147 -0.13047,-0.3676857 -0.36768,-0.6167631 -0.23722,-0.2609382 -0.58119,-0.4032681 -0.34396,-0.1541908 -0.77095,-0.1541908 -0.42699,0 -0.77095,0.1541908 -0.34397,0.1423299 -0.58118,0.4032681 -0.23722,0.2490774 -0.36769,0.6167631 -0.13047,0.3558249 -0.13047,0.7828147 0,0.4269898 0.13047,0.794676 0.13047,0.355824 0.36769,0.616763 0.23721,0.249077 0.58118,0.403268 0.34396,0.14233 0.77095,0.14233 z"
           style="font-style:normal;font-variant:normal;font-weight:500;font-stretch:normal;font-size:11.8608284px;font-family:Avenir;-inkscape-font-specification:'Avenir Medium';letter-spacing:-0.11px;fill:#ff0000;fill-opacity:1;stroke-width:1.11195266px"
           id="path1198" /><path
           d="m 142.88891,3.7939998 h 1.31655 l 2.46705,6.8318372 h 0.0237 l 2.56194,-6.8318372 h 1.24539 l -3.30917,8.3974662 h -1.06748 z"
           style="font-style:normal;font-variant:normal;font-weight:500;font-stretch:normal;font-size:11.8608284px;font-family:Avenir;-inkscape-font-specification:'Avenir Medium';letter-spacing:-0.11px;fill:#ff0000;fill-opacity:1;stroke-width:1.11195266px"
           id="path1200" /><path
           d="m 151.01365,6.5694337 h 1.06748 v 5.6220323 h -1.06748 z m -0.24908,-2.0163409 q 0,-0.3202423 0.22536,-0.5455981 0.23722,-0.2372165 0.55746,-0.2372165 0.32024,0 0.5456,0.2372165 0.23721,0.2253558 0.23721,0.5455981 0,0.3202424 -0.23721,0.557459 -0.22536,0.2253557 -0.5456,0.2253557 -0.32024,0 -0.55746,-0.2253557 -0.22536,-0.2372166 -0.22536,-0.557459 z"
           style="font-style:normal;font-variant:normal;font-weight:500;font-stretch:normal;font-size:11.8608284px;font-family:Avenir;-inkscape-font-specification:'Avenir Medium';letter-spacing:-0.11px;fill:#ff0000;fill-opacity:1;stroke-width:1.11195266px"
           id="path1202" /><path
           d="m 156.65894,7.9808722 q -0.18978,-0.2372165 -0.47444,-0.3914073 -0.2728,-0.1660516 -0.67607,-0.1660516 -0.37954,0 -0.6642,0.1660516 -0.2728,0.1541908 -0.2728,0.4625723 0,0.2490774 0.15419,0.4032682 0.16605,0.1541908 0.37955,0.2490774 0.22535,0.094887 0.47443,0.1423299 0.24908,0.047443 0.42699,0.083026 0.34396,0.083026 0.64048,0.2016341 0.30839,0.1186083 0.52188,0.3083815 0.22536,0.1897733 0.34396,0.4625724 0.13047,0.2727995 0.13047,0.6642065 0,0.474433 -0.20163,0.818397 -0.20163,0.332103 -0.52188,0.545598 -0.32024,0.213495 -0.73537,0.308382 -0.40327,0.09489 -0.8184,0.09489 -0.69978,0 -1.23352,-0.213495 -0.52188,-0.213495 -0.93701,-0.782814 l 0.80654,-0.664207 q 0.26094,0.260939 0.58118,0.462573 0.32024,0.201634 0.78281,0.201634 0.20164,0 0.40327,-0.03558 0.2135,-0.04744 0.36769,-0.130469 0.16605,-0.09489 0.26094,-0.225356 0.10674,-0.14233 0.10674,-0.320242 0,-0.237217 -0.15419,-0.391407 -0.14233,-0.154191 -0.35582,-0.2372169 -0.20164,-0.094887 -0.43885,-0.14233 -0.22536,-0.059304 -0.40327,-0.094887 -0.34396,-0.083026 -0.65235,-0.1897732 -0.30838,-0.1067475 -0.54559,-0.2846599 -0.23722,-0.1779125 -0.37955,-0.4507115 -0.14233,-0.2727991 -0.14233,-0.6760672 0,-0.4388507 0.17791,-0.759093 0.18978,-0.3321032 0.4863,-0.5455981 0.30838,-0.213495 0.68792,-0.3202424 0.39141,-0.1067475 0.78282,-0.1067475 0.56932,0 1.0912,0.2134949 0.52187,0.213495 0.83025,0.7116497 z"
           style="font-style:normal;font-variant:normal;font-weight:500;font-stretch:normal;font-size:11.8608284px;font-family:Avenir;-inkscape-font-specification:'Avenir Medium';letter-spacing:-0.11px;fill:#ff0000;fill-opacity:1;stroke-width:1.11195266px"
           id="path1204" /><path
           d="m 163.80017,12.191466 h -1.06747 v -0.86584 h -0.0237 q -0.20164,0.450711 -0.69979,0.735371 -0.49815,0.272799 -1.1505,0.272799 -0.41513,0 -0.78282,-0.130469 -0.36768,-0.118608 -0.65234,-0.379546 -0.2728,-0.260939 -0.43885,-0.664207 -0.16605,-0.415129 -0.16605,-0.972588 V 6.5694337 h 1.06747 v 3.3210319 q 0,0.3914074 0.10675,0.6760674 0.10675,0.272799 0.28466,0.450711 0.17791,0.166052 0.40327,0.249078 0.23721,0.07116 0.48629,0.07116 0.3321,0 0.61676,-0.106748 0.28466,-0.106747 0.49816,-0.332103 0.21349,-0.237217 0.3321,-0.593041 0.11861,-0.3558252 0.11861,-0.8421192 V 6.5694337 h 1.06747 z"
           style="font-style:normal;font-variant:normal;font-weight:500;font-stretch:normal;font-size:11.8608284px;font-family:Avenir;-inkscape-font-specification:'Avenir Medium';letter-spacing:-0.11px;fill:#ff0000;fill-opacity:1;stroke-width:1.11195266px"
           id="path1206" /><path
           d="m 165.33457,7.2573617 q 0.45071,-0.415129 1.04375,-0.6167631 0.59304,-0.2134949 1.18608,-0.2134949 0.61677,0 1.05562,0.1541908 0.45071,0.1541908 0.73537,0.415129 0.28466,0.2609382 0.41513,0.6049022 0.14233,0.3321032 0.14233,0.6997889 v 2.8703204 q 0,0.296521 0.0119,0.545598 0.0119,0.249078 0.0356,0.474433 h -0.94887 q -0.0356,-0.426989 -0.0356,-0.853979 h -0.0237 q -0.35583,0.545598 -0.84212,0.770954 -0.48629,0.225355 -1.12678,0.225355 -0.39141,0 -0.74723,-0.106747 -0.35583,-0.106748 -0.62862,-0.320243 -0.26094,-0.213494 -0.41513,-0.521876 -0.15419,-0.320242 -0.15419,-0.735371 0,-0.545598 0.23721,-0.9132841 0.24908,-0.3676857 0.66421,-0.5930415 0.42699,-0.2372165 0.98445,-0.3321032 0.56932,-0.1067474 1.2098,-0.1067474 h 0.78282 V 8.4671662 q 0,-0.2134949 -0.083,-0.4269898 -0.083,-0.2134949 -0.24908,-0.3795465 -0.16605,-0.1779124 -0.41513,-0.2727991 -0.24907,-0.1067474 -0.59304,-0.1067474 -0.30838,0 -0.54559,0.059304 -0.22536,0.059304 -0.41513,0.1541908 -0.18978,0.083026 -0.34397,0.2016341 -0.15419,0.1186083 -0.29652,0.2253557 z m 3.01265,2.2298358 q -0.37955,0 -0.78282,0.047443 -0.3914,0.035583 -0.72351,0.1541907 -0.32024,0.1186083 -0.53374,0.3321035 -0.20163,0.213495 -0.20163,0.545598 0,0.486294 0.32024,0.699789 0.33211,0.213495 0.88957,0.213495 0.43885,0 0.74723,-0.14233 0.30838,-0.154191 0.49815,-0.391408 0.18978,-0.237216 0.2728,-0.521876 0.083,-0.296521 0.083,-0.5811807 V 9.4871975 Z"
           style="font-style:normal;font-variant:normal;font-weight:500;font-stretch:normal;font-size:11.8608284px;font-family:Avenir;-inkscape-font-specification:'Avenir Medium';letter-spacing:-0.11px;fill:#ff0000;fill-opacity:1;stroke-width:1.11195266px"
           id="path1208" /><path
           d="m 171.44593,3.2246801 h 1.06748 v 8.9667859 h -1.06748 z"
           style="font-style:normal;font-variant:normal;font-weight:500;font-stretch:normal;font-size:11.8608284px;font-family:Avenir;-inkscape-font-specification:'Avenir Medium';letter-spacing:-0.11px;fill:#ff0000;fill-opacity:1;stroke-width:1.11195266px"
           id="path1210" /><path
           d="m 174.18531,6.5694337 h 1.06748 v 5.6220323 h -1.06748 z m -0.24907,-2.0163409 q 0,-0.3202423 0.22535,-0.5455981 0.23722,-0.2372165 0.55746,-0.2372165 0.32024,0 0.5456,0.2372165 0.23722,0.2253558 0.23722,0.5455981 0,0.3202424 -0.23722,0.557459 -0.22536,0.2253557 -0.5456,0.2253557 -0.32024,0 -0.55746,-0.2253557 -0.22535,-0.2372166 -0.22535,-0.557459 z"
           style="font-style:normal;font-variant:normal;font-weight:500;font-stretch:normal;font-size:11.8608284px;font-family:Avenir;-inkscape-font-specification:'Avenir Medium';letter-spacing:-0.11px;fill:#ff0000;fill-opacity:1;stroke-width:1.11195266px"
           id="path1212" /><path
           d="m 176.45026,11.230739 3.19056,-3.7361607 h -3.08381 V 6.5694337 h 4.3885 v 0.9488662 l -3.21428,3.7480221 h 3.38034 v 0.925144 h -4.66131 z"
           style="font-style:normal;font-variant:normal;font-weight:500;font-stretch:normal;font-size:11.8608284px;font-family:Avenir;-inkscape-font-specification:'Avenir Medium';letter-spacing:-0.11px;fill:#ff0000;fill-opacity:1;stroke-width:1.11195266px"
           id="path1214" /><path
           d="m 182.24565,7.2573617 q 0.45072,-0.415129 1.04376,-0.6167631 0.59304,-0.2134949 1.18608,-0.2134949 0.61676,0 1.05561,0.1541908 0.45071,0.1541908 0.73537,0.415129 0.28466,0.2609382 0.41513,0.6049022 0.14233,0.3321032 0.14233,0.6997889 v 2.8703204 q 0,0.296521 0.0119,0.545598 0.0119,0.249078 0.0356,0.474433 h -0.94887 q -0.0356,-0.426989 -0.0356,-0.853979 h -0.0237 q -0.35583,0.545598 -0.84212,0.770954 -0.4863,0.225355 -1.12678,0.225355 -0.39141,0 -0.74723,-0.106747 -0.35583,-0.106748 -0.62863,-0.320243 -0.26094,-0.213494 -0.41513,-0.521876 -0.15419,-0.320242 -0.15419,-0.735371 0,-0.545598 0.23722,-0.9132841 0.24908,-0.3676857 0.66421,-0.5930415 0.42699,-0.2372165 0.98444,-0.3321032 0.56932,-0.1067474 1.20981,-0.1067474 h 0.78281 V 8.4671662 q 0,-0.2134949 -0.083,-0.4269898 -0.083,-0.2134949 -0.24908,-0.3795465 -0.16605,-0.1779124 -0.41513,-0.2727991 -0.24908,-0.1067474 -0.59304,-0.1067474 -0.30838,0 -0.5456,0.059304 -0.22535,0.059304 -0.41513,0.1541908 -0.18977,0.083026 -0.34396,0.2016341 -0.15419,0.1186083 -0.29652,0.2253557 z m 3.01265,2.2298358 q -0.37954,0 -0.78281,0.047443 -0.39141,0.035583 -0.72351,0.1541907 -0.32024,0.1186083 -0.53374,0.3321035 -0.20163,0.213495 -0.20163,0.545598 0,0.486294 0.32024,0.699789 0.3321,0.213495 0.88956,0.213495 0.43885,0 0.74723,-0.14233 0.30839,-0.154191 0.49816,-0.391408 0.18977,-0.237216 0.2728,-0.521876 0.083,-0.296521 0.083,-0.5811807 V 9.4871975 Z"
           style="font-style:normal;font-variant:normal;font-weight:500;font-stretch:normal;font-size:11.8608284px;font-family:Avenir;-inkscape-font-specification:'Avenir Medium';letter-spacing:-0.11px;fill:#ff0000;fill-opacity:1;stroke-width:1.11195266px"
           id="path1216" /><path
           d="m 191.28666,7.4945783 h -1.53005 v 2.5500777 q 0,0.237217 0.0119,0.474434 0.0119,0.225355 0.083,0.415129 0.083,0.177912 0.23722,0.29652 0.16605,0.106748 0.47443,0.106748 0.18977,0 0.39141,-0.03558 0.20163,-0.03558 0.36768,-0.130469 v 0.972588 q -0.18977,0.106747 -0.49815,0.14233 -0.29652,0.04744 -0.46257,0.04744 -0.61677,0 -0.96073,-0.166051 -0.3321,-0.177913 -0.49816,-0.450712 -0.15419,-0.272799 -0.18977,-0.604902 -0.0237,-0.343964 -0.0237,-0.687928 V 7.4945783 h -1.23353 V 6.5694337 h 1.23353 V 4.9919435 h 1.06747 v 1.5774902 h 1.53005 z"
           style="font-style:normal;font-variant:normal;font-weight:500;font-stretch:normal;font-size:11.8608284px;font-family:Avenir;-inkscape-font-specification:'Avenir Medium';letter-spacing:-0.11px;fill:#ff0000;fill-opacity:1;stroke-width:1.11195266px"
           id="path1218" /><path
           d="m 192.62535,6.5694337 h 1.06747 v 5.6220323 h -1.06747 z m -0.24908,-2.0163409 q 0,-0.3202423 0.22536,-0.5455981 0.23721,-0.2372165 0.55745,-0.2372165 0.32025,0 0.5456,0.2372165 0.23722,0.2253558 0.23722,0.5455981 0,0.3202424 -0.23722,0.557459 -0.22535,0.2253557 -0.5456,0.2253557 -0.32024,0 -0.55745,-0.2253557 -0.22536,-0.2372166 -0.22536,-0.557459 z"
           style="font-style:normal;font-variant:normal;font-weight:500;font-stretch:normal;font-size:11.8608284px;font-family:Avenir;-inkscape-font-specification:'Avenir Medium';letter-spacing:-0.11px;fill:#ff0000;fill-opacity:1;stroke-width:1.11195266px"
           id="path1220" /><path
           d="m 196.14754,9.38045 q 0,0.4269898 0.13047,0.794676 0.13047,0.355824 0.36769,0.616763 0.23721,0.249077 0.58118,0.403268 0.34396,0.14233 0.77095,0.14233 0.42699,0 0.77095,-0.14233 0.34397,-0.154191 0.58118,-0.403268 0.23722,-0.260939 0.36769,-0.616763 0.13047,-0.3676862 0.13047,-0.794676 0,-0.4269898 -0.13047,-0.7828147 -0.13047,-0.3676857 -0.36769,-0.6167631 -0.23721,-0.2609382 -0.58118,-0.4032681 -0.34396,-0.1541908 -0.77095,-0.1541908 -0.42699,0 -0.77095,0.1541908 -0.34397,0.1423299 -0.58118,0.4032681 -0.23722,0.2490774 -0.36769,0.6167631 -0.13047,0.3558249 -0.13047,0.7828147 z m -1.13864,0 q 0,-0.6167631 0.22536,-1.1505004 0.23721,-0.5337372 0.64048,-0.9370054 0.40327,-0.4032682 0.94887,-0.6286239 0.5456,-0.2372166 1.17422,-0.2372166 0.62862,0 1.17422,0.2372166 0.5456,0.2253557 0.94887,0.6286239 0.40327,0.4032682 0.62862,0.9370054 0.23722,0.5337373 0.23722,1.1505004 0,0.6167631 -0.23722,1.162361 -0.22535,0.533737 -0.62862,0.937006 -0.40327,0.391407 -0.94887,0.628624 -0.5456,0.225355 -1.17422,0.225355 -0.62862,0 -1.17422,-0.225355 -0.5456,-0.237217 -0.94887,-0.628624 -0.40327,-0.403269 -0.64048,-0.937006 Q 195.0089,9.9972131 195.0089,9.38045 Z"
           style="font-style:normal;font-variant:normal;font-weight:500;font-stretch:normal;font-size:11.8608284px;font-family:Avenir;-inkscape-font-specification:'Avenir Medium';letter-spacing:-0.11px;fill:#ff0000;fill-opacity:1;stroke-width:1.11195266px"
           id="path1222" /><path
           d="m 202.21406,6.5694337 h 1.06747 v 0.8658404 h 0.0237 q 0.20164,-0.4507114 0.69979,-0.7235105 0.49816,-0.2846599 1.1505,-0.2846599 0.40327,0 0.77096,0.1304691 0.37954,0.1186083 0.65234,0.3795466 0.28466,0.2609382 0.45071,0.6760672 0.16606,0.4032681 0.16606,0.9607271 v 3.6175523 h -1.06748 V 8.8704344 q 0,-0.3914074 -0.10675,-0.6642064 -0.10674,-0.2846599 -0.28466,-0.4507115 -0.17791,-0.1779124 -0.41512,-0.2490774 -0.22536,-0.083026 -0.47444,-0.083026 -0.3321,0 -0.61676,0.1067475 -0.28466,0.1067474 -0.49816,0.343964 -0.21349,0.2253557 -0.3321,0.5811806 -0.11861,0.3558248 -0.11861,0.8421188 v 2.8940418 h -1.06747 z"
           style="font-style:normal;font-variant:normal;font-weight:500;font-stretch:normal;font-size:11.8608284px;font-family:Avenir;-inkscape-font-specification:'Avenir Medium';letter-spacing:-0.11px;fill:#ff0000;fill-opacity:1;stroke-width:1.11195266px"
           id="path1224" /></g><g
         id="g901"
         style="stroke:#ff0000;stroke-opacity:1"><path
           id="path239-1"
           d="m 7.9112309,3.8677384 c 0,0.821 0.6315385,1.4525384 1.4525384,1.4525384 0.8209997,0 1.4525387,-0.6315384 1.4525387,-1.4525384"
           stroke-miterlimit="10"
           inkscape:connector-curvature="0"
           style="fill:none;stroke:#ff0000;stroke-width:1;stroke-miterlimit:10;stroke-opacity:1" /><path
           id="path241-1"
           d="M 11.953077,6.457046"
           stroke-miterlimit="10"
           inkscape:connector-curvature="0"
           style="fill:none;stroke:#ff0000;stroke-width:1;stroke-miterlimit:10;stroke-opacity:1" /><path
           id="path243-6"
           d="m 11.953077,3.8677384 c 0,0.821 0.631538,1.4525384 1.452538,1.4525384 0.821,0 1.452539,-0.6315384 1.452539,-1.4525384"
           stroke-miterlimit="10"
           inkscape:connector-curvature="0"
           style="fill:none;stroke:#ff0000;stroke-width:1;stroke-miterlimit:10;stroke-opacity:1" /><path
           id="path245-1"
           d="M 15.994923,6.457046"
           stroke-miterlimit="10"
           inkscape:connector-curvature="0"
           style="fill:none;stroke:#ff0000;stroke-width:1;stroke-miterlimit:10;stroke-opacity:1" /><path
           id="path247-1"
           d="m 15.994923,3.8677384 c 0,0.821 0.631539,1.4525384 1.452539,1.4525384 0.821,0 1.452538,-0.6315384 1.452538,-1.4525384"
           stroke-miterlimit="10"
           inkscape:connector-curvature="0"
           style="fill:none;stroke:#ff0000;stroke-width:1;stroke-miterlimit:10;stroke-opacity:1" /><path
           id="path249-8"
           d="m 7.9112309,12.077738 c 0,-0.821 0.6315385,-1.452538 1.4525384,-1.452538 0.8209997,0 1.4525387,0.631538 1.4525387,1.452538"
           stroke-miterlimit="10"
           inkscape:connector-curvature="0"
           style="fill:none;stroke:#ff0000;stroke-width:1;stroke-miterlimit:10;stroke-opacity:1" /><path
           id="path251-1"
           d="m 11.953077,12.077738 c 0,-0.821 0.631538,-1.452538 1.452538,-1.452538 0.821,0 1.452539,0.631538 1.452539,1.452538"
           stroke-miterlimit="10"
           inkscape:connector-curvature="0"
           style="fill:none;stroke:#ff0000;stroke-width:1;stroke-miterlimit:10;stroke-opacity:1" /><path
           id="path253-1"
           d="m 15.994923,12.077738 c 0,-0.821 0.631539,-1.452538 1.452539,-1.452538 0.821,0 1.452538,0.631538 1.452538,1.452538"
           stroke-miterlimit="10"
           inkscape:connector-curvature="0"
           style="fill:none;stroke:#ff0000;stroke-width:1;stroke-miterlimit:10;stroke-opacity:1" /><path
           style="fill:none;stroke:#ff0000;stroke-width:1;stroke-miterlimit:10;stroke-opacity:1"
           d="M 10.816308,7.9727383 A 1.4525384,1.4525384 0 0 1 9.3637695,9.4252766 1.4525384,1.4525384 0 0 1 7.9112312,7.9727383 1.4525384,1.4525384 0 0 1 9.3637695,6.5201999 1.4525384,1.4525384 0 0 1 10.816308,7.9727383 Z"
           id="circle255-5" /><path
           style="fill:none;stroke:#ff0000;stroke-width:1;stroke-miterlimit:10;stroke-opacity:1"
           d="M 14.858154,7.9727383 A 1.4525384,1.4525384 0 0 1 13.405616,9.4252766 1.4525384,1.4525384 0 0 1 11.953077,7.9727383 1.4525384,1.4525384 0 0 1 13.405616,6.5201999 1.4525384,1.4525384 0 0 1 14.858154,7.9727383 Z"
           id="circle257-0" /><path
           style="fill:#ff0000;fill-opacity:1;stroke:#ff0000;stroke-width:1;stroke-miterlimit:10;stroke-opacity:1"
           d="M 18.9,7.9727383 A 1.4525384,1.4525384 0 0 1 17.447462,9.4252766 1.4525384,1.4525384 0 0 1 15.994924,7.9727383 1.4525384,1.4525384 0 0 1 17.447462,6.5201999 1.4525384,1.4525384 0 0 1 18.9,7.9727383 Z"
           id="circle259-0" /></g></g></g></svg>