<?xml version="1.0" encoding="utf-8"?>
<!-- Generator: Adobe Illustrator 17.1.0, SVG Export Plug-In . SVG Version: 6.00 Build 0)  -->
<!DOCTYPE svg PUBLIC "-//W3C//DTD SVG 1.1//EN" "http://www.w3.org/Graphics/SVG/1.1/DTD/svg11.dtd">
<svg version="1.1" id="Layer_1" xmlns="http://www.w3.org/2000/svg" xmlns:xlink="http://www.w3.org/1999/xlink" x="0px" y="0px"
	 width="240px" height="40px" viewBox="0 0 240 40" enable-background="new 0 0 240 40" xml:space="preserve">
<path fill="#FFFFFF" stroke="#FFFFFF" stroke-width="0.75" d="M11.0443411,12.0422564
	c0.5854559,1.2984123,0.6270466,2.6127472,0.1249952,3.9425278c-0.5022259,1.3298445-1.4025135,2.2875814-2.7006865,2.8731489
	C7.170414,19.443325,5.8536072,19.48522,4.5182309,18.9836159c-1.3352492-0.5012531-2.2954583-1.4012375-2.8808026-2.6998882
	c-0.5855676-1.2981739-0.6247511-2.6151714-0.1181405-3.9509792c0.5068498-1.3356953,1.4094167-2.2964468,2.7078288-2.8819027
	s2.6127629-0.6242733,3.9434528-0.116992C9.5009079,9.8412619,10.4589491,10.7440205,11.0443411,12.0422564z"/>
<path fill="none" stroke="#FFFFFF" stroke-width="0.75" d="M17.2914486,7.9104228
	c-0.6457596,0.6830411-1.4375353,1.0380874-2.3752708,1.0652957c-0.9379482,0.0271091-1.748415-0.2821379-2.4315128-0.9280529
	c-0.6830416-0.6457586-1.0390263-1.4391394-1.0676832-2.3798862c-0.0289268-0.9410028,0.2797518-1.7530322,0.9255104-2.4360733
	s1.4399204-1.0373638,2.3825855-1.06318c0.9424095-0.0255463,1.7552633,0.2844248,2.4384604,0.9301264
	c0.6828842,0.6458154,1.0364819,1.438472,1.0604229,2.3779266C18.2481155,6.4161334,17.9370499,7.2274384,17.2914486,7.9104228z"/>
<path fill="#FFFFFF" stroke="#FFFFFF" stroke-width="0.75" d="M19.1960831,16.4658279
	c-0.6508541-0.0539017-1.1870232-0.3291435-1.6087551-0.825839c-0.4216156-0.4969425-0.6055298-1.0707169-0.5517426-1.721323
	c0.0537872-0.6506071,0.3296051-1.1880093,0.8273354-1.6119614s1.0718994-0.6090345,1.7226868-0.5553122
	c0.6508541,0.0539026,1.1874352,0.3308382,1.6105309,0.8307238c0.4227352,0.5000162,0.6074238,1.0753536,0.5537014,1.726141
	c-0.0537872,0.6506062-0.3300152,1.1863155-0.8292923,1.6071434C20.4216309,16.3360958,19.8466892,16.5196152,19.1960831,16.4658279
	z"/>
<path fill="none" stroke="#FFFFFF" stroke-width="0.75" d="M13.4953756,22.1710663
	c-0.3373032-0.2555866-0.5348444-0.5924416-0.5928373-1.010664c-0.057992-0.4182205,0.0407066-0.7957706,0.2961378-1.1330166
	c0.2554884-0.3370895,0.5928545-0.5351715,1.0125256-0.5940437c0.419301-0.0589161,0.7977877,0.0394402,1.1348209,0.2947731
	c0.3373032,0.2555885,0.5346594,0.5933952,0.5921831,1.0137329c0.0575809,0.4204941-0.0413446,0.7993641-0.2966766,1.1363983
	c-0.2554884,0.3370895-0.5927267,0.5340633-1.0119286,0.5908184C14.2104979,22.5256081,13.8324089,22.4263992,13.4953756,22.1710663
	z"/>
<line fill="none" stroke="#FFFFFF" stroke-width="0.75" x1="11.3891783" y1="14.1150217" x2="16.9065838" y2="14.1150217"/>
<line fill="none" stroke="#FFFFFF" stroke-width="0.75" x1="16.3256702" y1="8.4967318" x2="18.275877" y2="12.2873077"/>
<line fill="none" stroke="#FFFFFF" stroke-width="0.75" x1="17.9398041" y1="15.7570868" x2="15.2413435" y2="19.8985844"/>
<circle opacity="0.99" fill="#FF9800" cx="6.2713146" cy="14.1798639" r="3.6089954"/>
<g>
	<path fill="#FFFFFF" d="M24.6083984,10.3378906h2.7060547c0.3374023,0,0.6508789,0.0400391,0.9404297,0.1210938
		s0.5390625,0.2001953,0.7480469,0.3574219c0.2089844,0.1582031,0.3740234,0.359375,0.4951172,0.6054688
		c0.1210938,0.2451172,0.1811523,0.5332031,0.1811523,0.8632812c0,0.4472656-0.1245117,0.8125-0.3735352,1.0947266
		c-0.2495117,0.2822266-0.5722656,0.4892578-0.9682617,0.6210938v0.0224609
		c0.2348633,0.0146484,0.4545898,0.0751953,0.6601562,0.1806641c0.2050781,0.1064453,0.3828125,0.2460938,0.5332031,0.4179688
		c0.1503906,0.1728516,0.2695312,0.3730469,0.3574219,0.5996094c0.0883789,0.2275391,0.1323242,0.4736328,0.1323242,0.7373047
		c0,0.3515625-0.0717773,0.6621094-0.2143555,0.9296875c-0.1430664,0.2675781-0.3393555,0.4931641-0.5888672,0.6767578
		c-0.2490234,0.1826172-0.5390625,0.3222656-0.8686523,0.4179688c-0.3300781,0.0947266-0.6860352,0.1425781-1.0673828,0.1425781
		h-2.6728516V10.3378906z M25.6645508,13.5722656h1.440918c0.1977539,0,0.3847656-0.0205078,0.5610352-0.0605469
		c0.1757812-0.0400391,0.3300781-0.1083984,0.4619141-0.2041016c0.1318359-0.0947266,0.2363281-0.2158203,0.3134766-0.3623047
		s0.1157227-0.3261719,0.1157227-0.5390625c0-0.3085938-0.0991211-0.5761719-0.2973633-0.8037109
		c-0.1977539-0.2265625-0.5097656-0.3408203-0.9350586-0.3408203h-1.6606445V13.5722656z M25.6645508,17.2021484h1.5507812
		c0.1611328,0,0.3393555-0.0166016,0.5336914-0.0498047s0.3754883-0.0986328,0.5444336-0.1982422
		c0.168457-0.0986328,0.3115234-0.2324219,0.4291992-0.4013672c0.1171875-0.1679688,0.1757812-0.3916016,0.1757812-0.6708984
		c0-0.4619141-0.1503906-0.8085938-0.4511719-1.0390625c-0.3007812-0.2314453-0.7075195-0.3466797-1.2207031-0.3466797h-1.5620117
		V17.2021484z"/>
	<path fill="#FFFFFF" d="M31.0874023,9.8095703h0.9897461v8.3164062h-0.9897461V9.8095703z"/>
	<path fill="#FFFFFF" d="M33.1225586,15.5185547c0-0.3808594,0.0712891-0.7363281,0.2143555-1.0664062
		s0.3393555-0.6201172,0.5883789-0.8691406c0.2495117-0.2490234,0.5429688-0.4453125,0.8803711-0.5888672
		c0.3369141-0.1425781,0.7001953-0.2138672,1.0888672-0.2138672s0.7514648,0.0712891,1.0888672,0.2138672
		c0.3374023,0.1435547,0.6308594,0.3398438,0.8798828,0.5888672c0.2495117,0.2490234,0.4458008,0.5390625,0.5888672,0.8691406
		c0.1425781,0.3300781,0.2143555,0.6855469,0.2143555,1.0664062c0,0.3818359-0.0717773,0.7392578-0.2143555,1.0732422
		c-0.1430664,0.3330078-0.3393555,0.6230469-0.5888672,0.8691406c-0.2490234,0.2451172-0.5424805,0.4394531-0.8798828,0.5830078
		c-0.3374023,0.1425781-0.7001953,0.2138672-1.0888672,0.2138672s-0.7519531-0.0712891-1.0888672-0.2138672
		c-0.3374023-0.1435547-0.6308594-0.3378906-0.8803711-0.5830078c-0.2490234-0.2460938-0.4453125-0.5361328-0.5883789-0.8691406
		C33.1938477,16.2578125,33.1225586,15.9003906,33.1225586,15.5185547z M34.1782227,15.5185547
		c0,0.2646484,0.0405273,0.5087891,0.1210938,0.7314453c0.0805664,0.2246094,0.1943359,0.4150391,0.3413086,0.5722656
		c0.1464844,0.1582031,0.3261719,0.2822266,0.5385742,0.3740234c0.2128906,0.0917969,0.4511719,0.1376953,0.715332,0.1376953
		c0.2636719,0,0.5019531-0.0458984,0.7148438-0.1376953s0.3920898-0.2158203,0.5390625-0.3740234
		c0.1464844-0.1572266,0.2602539-0.3476562,0.3408203-0.5722656c0.0805664-0.2226562,0.1210938-0.4667969,0.1210938-0.7314453
		c0-0.2636719-0.0405273-0.5068359-0.1210938-0.7314453c-0.0805664-0.2236328-0.1943359-0.4140625-0.3408203-0.5712891
		c-0.1469727-0.1582031-0.3261719-0.2822266-0.5390625-0.3740234s-0.4511719-0.1376953-0.7148438-0.1376953
		c-0.2641602,0-0.5024414,0.0458984-0.715332,0.1376953c-0.2124023,0.0917969-0.3920898,0.2158203-0.5385742,0.3740234
		c-0.1469727,0.1572266-0.2607422,0.3476562-0.3413086,0.5712891C34.21875,15.0117188,34.1782227,15.2548828,34.1782227,15.5185547z
		"/>
	<path fill="#FFFFFF" d="M44.859375,18.0820312c0,0.3955078-0.0678711,0.7568359-0.2036133,1.0830078
		s-0.328125,0.609375-0.5776367,0.8476562s-0.5498047,0.4228516-0.9018555,0.5556641
		c-0.3520508,0.1318359-0.7407227,0.1972656-1.1660156,0.1972656c-0.4990234,0-0.9550781-0.0693359-1.3696289-0.2089844
		c-0.4140625-0.1386719-0.8085938-0.3808594-1.1826172-0.7255859l0.6713867-0.8359375
		c0.2563477,0.2783203,0.5351562,0.4892578,0.8359375,0.6328125c0.300293,0.1425781,0.6416016,0.2138672,1.0229492,0.2138672
		c0.3666992,0,0.6708984-0.0527344,0.9130859-0.1591797c0.2416992-0.1064453,0.4345703-0.2441406,0.5771484-0.4130859
		c0.1430664-0.1679688,0.2441406-0.3603516,0.3027344-0.5771484c0.0585938-0.2158203,0.0878906-0.4345703,0.0878906-0.6542969
		v-0.7705078h-0.0327148c-0.190918,0.3154297-0.449707,0.5488281-0.7758789,0.6992188s-0.6689453,0.2255859-1.0283203,0.2255859
		c-0.3813477,0-0.7353516-0.0683594-1.0615234-0.2041016s-0.6069336-0.3222656-0.8413086-0.5605469
		c-0.2348633-0.2382812-0.4179688-0.5205078-0.550293-0.8476562c-0.1318359-0.3261719-0.1977539-0.6796875-0.1977539-1.0615234
		c0-0.3808594,0.0620117-0.7382812,0.1870117-1.0722656c0.1245117-0.3330078,0.3022461-0.625,0.5332031-0.8740234
		s0.5097656-0.4443359,0.8359375-0.5830078c0.3266602-0.1396484,0.6914062-0.2089844,1.0947266-0.2089844
		c0.3520508,0,0.6948242,0.0771484,1.0283203,0.2304688c0.3339844,0.1542969,0.5957031,0.3710938,0.7866211,0.6494141h0.0219727
		v-0.7480469h0.9902344V18.0820312z M42.1533203,13.7041016c-0.2641602,0-0.5024414,0.0458984-0.715332,0.1376953
		c-0.2124023,0.0917969-0.3920898,0.2158203-0.5385742,0.3740234c-0.1469727,0.1572266-0.2607422,0.3476562-0.3413086,0.5712891
		c-0.0805664,0.2246094-0.1210938,0.4677734-0.1210938,0.7314453c0,0.5283203,0.1542969,0.9521484,0.4624023,1.2705078
		c0.3076172,0.3193359,0.7255859,0.4785156,1.2539062,0.4785156c0.527832,0,0.9458008-0.1591797,1.2539062-0.4785156
		c0.3081055-0.3183594,0.4619141-0.7421875,0.4619141-1.2705078c0-0.2636719-0.0405273-0.5068359-0.1210938-0.7314453
		c-0.0805664-0.2236328-0.1943359-0.4140625-0.3408203-0.5712891c-0.1469727-0.1582031-0.3261719-0.2822266-0.5390625-0.3740234
		S42.4169922,13.7041016,42.1533203,13.7041016z"/>
</g>
<path opacity="0.99" fill="#FF9800" d="M18.2608871,14.7394018c-0.175745-0.314311-0.2146969-0.6442795-0.1173286-0.9899597
	s0.3033085-0.6064281,0.6174202-0.7820997c0.3141098-0.1756716,0.6446781-0.2148418,0.9918976-0.1175823
	c0.3469505,0.0971317,0.6082249,0.3026543,0.783968,0.6169653c0.1756725,0.3141117,0.2142429,0.6448956,0.1158428,0.9920807
	c-0.0985298,0.3474569-0.3048496,0.6090212-0.6190338,0.7844934c-0.3141098,0.1756716-0.6442242,0.2142248-0.9904118,0.1154613
	C18.6974525,15.2598515,18.4365578,15.0535135,18.2608871,14.7394018z"/>
<path fill="none" stroke="#D3E6EA" stroke-width="0.75" d="M131.044342,12.0422564
	c0.5854492,1.2984123,0.6270447,2.6127472,0.125,3.9425278c-0.5022278,1.3298445-1.4025116,2.2875814-2.7006989,2.8731489
	c-1.298233,0.585392-2.615036,0.6272869-3.9504089,0.1256828c-1.3352509-0.5012531-2.2954636-1.4012375-2.880806-2.6998882
	c-0.5855713-1.2981739-0.6247482-2.6151714-0.1181412-3.9509792c0.5068512-1.3356953,1.4094162-2.2964468,2.7078323-2.8819027
	c1.2984085-0.5854559,2.6127625-0.6242733,3.9434433-0.116992C129.5009155,9.8412619,130.4589539,10.7440205,131.044342,12.0422564z
	"/>
<path fill="none" stroke="#D3E6EA" stroke-width="0.75" d="M137.2914429,7.9104228
	c-0.645752,0.6830411-1.4375305,1.0380874-2.3752594,1.0652957c-0.9379578,0.0271091-1.7484131-0.2821379-2.4315186-0.9280529
	c-0.6830444-0.6457586-1.039032-1.4391394-1.067688-2.3798862c-0.0289154-0.9410028,0.2797546-1.7530322,0.9255219-2.4360733
	c0.645752-0.6830413,1.4399109-1.0373638,2.3825836-1.06318c0.9423981-0.0255463,1.7552643,0.2844248,2.4384613,0.9301264
	c0.6828766,0.6458154,1.0364838,1.438472,1.0604248,2.3779266C138.2481079,6.4161334,137.9370575,7.2274384,137.2914429,7.9104228z"
	/>
<path fill="none" stroke="#D3E6EA" stroke-width="0.75" d="M139.1960754,16.4658279
	c-0.6508484-0.0539017-1.1870117-0.3291435-1.6087494-0.825839c-0.4216156-0.4969425-0.6055298-1.0707169-0.5517426-1.721323
	c0.0537872-0.6506071,0.3296051-1.1880093,0.8273315-1.6119614c0.4977417-0.4239521,1.0718994-0.6090345,1.7226868-0.5553122
	c0.6508636,0.0539026,1.187439,0.3308382,1.6105347,0.8307238c0.4227448,0.5000162,0.6074219,1.0753536,0.5537109,1.726141
	c-0.0538025,0.6506062-0.3300171,1.1863155-0.8292999,1.6071434
	C140.4216309,16.3360958,139.8466949,16.5196152,139.1960754,16.4658279z"/>
<path fill="none" stroke="#D3E6EA" stroke-width="0.75" d="M133.4953766,22.1710663
	c-0.3373108-0.2555866-0.5348511-0.5924416-0.5928345-1.010664c-0.0579987-0.4182205,0.0406952-0.7957706,0.2961273-1.1330166
	c0.2554932-0.3370895,0.592865-0.5351715,1.0125275-0.5940437c0.4193115-0.0589161,0.7977905,0.0394402,1.1348267,0.2947731
	c0.3372955,0.2555885,0.5346527,0.5933952,0.5921783,1.0137329c0.0575867,0.4204941-0.0413361,0.7993641-0.2966766,1.1363983
	c-0.2554779,0.3370895-0.5927277,0.5340633-1.0119324,0.5908184
	C134.210495,22.5256081,133.8324127,22.4263992,133.4953766,22.1710663z"/>
<line fill="none" stroke="#D3E6EA" stroke-width="0.75" x1="131.3891754" y1="14.1150217" x2="136.9065857" y2="14.1150217"/>
<line fill="none" stroke="#D3E6EA" stroke-width="0.75" x1="136.3256683" y1="8.4967318" x2="138.2758789" y2="12.2873077"/>
<line fill="none" stroke="#D3E6EA" stroke-width="0.75" x1="137.9398041" y1="15.7570868" x2="135.2413483" y2="19.8985844"/>
<g>
	<path fill="#D3E6EA" d="M144.6083984,10.3378906h2.7060547c0.3369141,0,0.6503906,0.0400391,0.9404297,0.1210938
		c0.2890625,0.0810547,0.5390625,0.2001953,0.7480469,0.3574219c0.2089844,0.1582031,0.3740234,0.359375,0.4951172,0.6054688
		c0.1210938,0.2451172,0.1806641,0.5332031,0.1806641,0.8632812c0,0.4472656-0.1240234,0.8125-0.3730469,1.0947266
		c-0.25,0.2822266-0.5722656,0.4892578-0.96875,0.6210938v0.0224609c0.2353516,0.0146484,0.4550781,0.0751953,0.6601562,0.1806641
		c0.2050781,0.1064453,0.3828125,0.2460938,0.5332031,0.4179688c0.1503906,0.1728516,0.2695312,0.3730469,0.3574219,0.5996094
		c0.0888672,0.2275391,0.1328125,0.4736328,0.1328125,0.7373047c0,0.3515625-0.0722656,0.6621094-0.2148438,0.9296875
		s-0.3388672,0.4931641-0.5888672,0.6767578c-0.2490234,0.1826172-0.5390625,0.3222656-0.8681641,0.4179688
		c-0.3300781,0.0947266-0.6865234,0.1425781-1.0673828,0.1425781h-2.6728516V10.3378906z M145.6640625,13.5722656h1.4414062
		c0.1972656,0,0.3847656-0.0205078,0.5605469-0.0605469s0.3300781-0.1083984,0.4619141-0.2041016
		c0.1318359-0.0947266,0.2363281-0.2158203,0.3134766-0.3623047s0.1162109-0.3261719,0.1162109-0.5390625
		c0-0.3085938-0.0996094-0.5761719-0.2978516-0.8037109c-0.1972656-0.2265625-0.5097656-0.3408203-0.9345703-0.3408203h-1.6611328
		V13.5722656z M145.6640625,17.2021484h1.5507812c0.1611328,0,0.3398438-0.0166016,0.5341797-0.0498047
		s0.375-0.0986328,0.5439453-0.1982422c0.1689453-0.0986328,0.3115234-0.2324219,0.4296875-0.4013672
		c0.1171875-0.1679688,0.1757812-0.3916016,0.1757812-0.6708984c0-0.4619141-0.1503906-0.8085938-0.4511719-1.0390625
		c-0.3007812-0.2314453-0.7080078-0.3466797-1.2207031-0.3466797h-1.5625V17.2021484z"/>
	<path fill="#D3E6EA" d="M151.0869141,9.8095703h0.9902344v8.3164062h-0.9902344V9.8095703z"/>
	<path fill="#D3E6EA" d="M153.1220703,15.5185547c0-0.3808594,0.0712891-0.7363281,0.2138672-1.0664062
		c0.1435547-0.3300781,0.3398438-0.6201172,0.5888672-0.8691406s0.5429688-0.4453125,0.8798828-0.5888672
		c0.3369141-0.1425781,0.7001953-0.2138672,1.0888672-0.2138672s0.7519531,0.0712891,1.0888672,0.2138672
		c0.3378906,0.1435547,0.6308594,0.3398438,0.8798828,0.5888672c0.25,0.2490234,0.4462891,0.5390625,0.5888672,0.8691406
		s0.2148438,0.6855469,0.2148438,1.0664062c0,0.3818359-0.0722656,0.7392578-0.2148438,1.0732422
		c-0.1425781,0.3330078-0.3388672,0.6230469-0.5888672,0.8691406c-0.2490234,0.2451172-0.5419922,0.4394531-0.8798828,0.5830078
		c-0.3369141,0.1425781-0.7001953,0.2138672-1.0888672,0.2138672s-0.7519531-0.0712891-1.0888672-0.2138672
		c-0.3369141-0.1435547-0.6308594-0.3378906-0.8798828-0.5830078c-0.2490234-0.2460938-0.4453125-0.5361328-0.5888672-0.8691406
		C153.1933594,16.2578125,153.1220703,15.9003906,153.1220703,15.5185547z M154.1777344,15.5185547
		c0,0.2646484,0.0400391,0.5087891,0.1210938,0.7314453c0.0800781,0.2246094,0.1943359,0.4150391,0.3408203,0.5722656
		c0.1464844,0.1582031,0.3261719,0.2822266,0.5390625,0.3740234s0.4511719,0.1376953,0.7148438,0.1376953
		s0.5019531-0.0458984,0.7148438-0.1376953s0.3925781-0.2158203,0.5390625-0.3740234
		c0.1464844-0.1572266,0.2607422-0.3476562,0.3408203-0.5722656c0.0810547-0.2226562,0.1210938-0.4667969,0.1210938-0.7314453
		c0-0.2636719-0.0400391-0.5068359-0.1210938-0.7314453c-0.0800781-0.2236328-0.1943359-0.4140625-0.3408203-0.5712891
		c-0.1464844-0.1582031-0.3261719-0.2822266-0.5390625-0.3740234s-0.4511719-0.1376953-0.7148438-0.1376953
		s-0.5019531,0.0458984-0.7148438,0.1376953s-0.3925781,0.2158203-0.5390625,0.3740234
		c-0.1464844,0.1572266-0.2607422,0.3476562-0.3408203,0.5712891
		C154.2177734,15.0117188,154.1777344,15.2548828,154.1777344,15.5185547z"/>
	<path fill="#D3E6EA" d="M164.8583984,18.0820312c0,0.3955078-0.0673828,0.7568359-0.203125,1.0830078
		s-0.328125,0.609375-0.578125,0.8476562c-0.2490234,0.2382812-0.5498047,0.4228516-0.9013672,0.5556641
		c-0.3525391,0.1318359-0.7412109,0.1972656-1.1660156,0.1972656c-0.4990234,0-0.9550781-0.0693359-1.3701172-0.2089844
		c-0.4140625-0.1386719-0.8085938-0.3808594-1.1826172-0.7255859l0.671875-0.8359375
		c0.2558594,0.2783203,0.5351562,0.4892578,0.8359375,0.6328125c0.2998047,0.1425781,0.6416016,0.2138672,1.0224609,0.2138672
		c0.3671875,0,0.6708984-0.0527344,0.9130859-0.1591797s0.4345703-0.2441406,0.5771484-0.4130859
		c0.1435547-0.1679688,0.2441406-0.3603516,0.3027344-0.5771484c0.0585938-0.2158203,0.0878906-0.4345703,0.0878906-0.6542969
		v-0.7705078h-0.0322266c-0.1914062,0.3154297-0.4501953,0.5488281-0.7763672,0.6992188s-0.6689453,0.2255859-1.0283203,0.2255859
		c-0.3808594,0-0.7353516-0.0683594-1.0615234-0.2041016s-0.6064453-0.3222656-0.8408203-0.5605469
		c-0.2353516-0.2382812-0.4179688-0.5205078-0.5507812-0.8476562c-0.1318359-0.3261719-0.1972656-0.6796875-0.1972656-1.0615234
		c0-0.3808594,0.0615234-0.7382812,0.1865234-1.0722656c0.125-0.3330078,0.3027344-0.625,0.5332031-0.8740234
		c0.2314453-0.2490234,0.5097656-0.4443359,0.8359375-0.5830078c0.3271484-0.1396484,0.6914062-0.2089844,1.0947266-0.2089844
		c0.3525391,0,0.6953125,0.0771484,1.0283203,0.2304688c0.3339844,0.1542969,0.5957031,0.3710938,0.7871094,0.6494141h0.0214844
		v-0.7480469h0.9902344V18.0820312z M162.1523438,13.7041016c-0.2636719,0-0.5019531,0.0458984-0.7148438,0.1376953
		s-0.3925781,0.2158203-0.5390625,0.3740234c-0.1464844,0.1572266-0.2607422,0.3476562-0.3408203,0.5712891
		c-0.0810547,0.2246094-0.1210938,0.4677734-0.1210938,0.7314453c0,0.5283203,0.1542969,0.9521484,0.4619141,1.2705078
		c0.3076172,0.3193359,0.7255859,0.4785156,1.2539062,0.4785156s0.9462891-0.1591797,1.2539062-0.4785156
		c0.3085938-0.3183594,0.4619141-0.7421875,0.4619141-1.2705078c0-0.2636719-0.0400391-0.5068359-0.1210938-0.7314453
		c-0.0800781-0.2236328-0.1943359-0.4140625-0.3408203-0.5712891c-0.1464844-0.1582031-0.3261719-0.2822266-0.5390625-0.3740234
		S162.4160156,13.7041016,162.1523438,13.7041016z"/>
</g>
<g>
</g>
<g>
</g>
<g>
</g>
<g>
</g>
<g>
</g>
<g>
</g>
<g>
</g>
<g>
</g>
<g>
</g>
<g>
</g>
<g>
</g>
<g>
</g>
<g>
</g>
<g>
</g>
<g>
</g>
</svg>
