<?xml version="1.0" encoding="utf-8"?>
<!-- Generator: Adobe Illustrator 17.1.0, SVG Export Plug-In . SVG Version: 6.00 Build 0)  -->
<!DOCTYPE svg PUBLIC "-//W3C//DTD SVG 1.1//EN" "http://www.w3.org/Graphics/SVG/1.1/DTD/svg11.dtd">
<svg version="1.1" id="Layer_1" xmlns="http://www.w3.org/2000/svg" xmlns:xlink="http://www.w3.org/1999/xlink" x="0px" y="0px"
	 width="240px" height="40px" viewBox="0 0 240 40" enable-background="new 0 0 240 40" xml:space="preserve">
<path fill="#FFFFFF" stroke="#FFFFFF" stroke-width="0.75" d="M11.0443411,12.0422564
	c0.5854559,1.2984123,0.6270466,2.6127472,0.1249952,3.9425278c-0.5022259,1.3298445-1.4025135,2.2875814-2.7006865,2.8731489
	C7.170414,19.443325,5.8536072,19.48522,4.5182309,18.9836159c-1.3352492-0.5012531-2.2954583-1.4012375-2.8808026-2.6998882
	c-0.5855676-1.2981739-0.6247511-2.6151714-0.1181405-3.9509792c0.5068498-1.3356953,1.4094167-2.2964468,2.7078288-2.8819027
	s2.6127629-0.6242733,3.9434528-0.116992C9.5009079,9.8412619,10.4589491,10.7440205,11.0443411,12.0422564z"/>
<path fill="none" stroke="#FFFFFF" stroke-width="0.75" d="M17.2914486,7.9104228
	c-0.6457596,0.6830411-1.4375353,1.0380874-2.3752708,1.0652957c-0.9379482,0.0271091-1.748415-0.2821379-2.4315128-0.9280529
	c-0.6830416-0.6457586-1.0390263-1.4391394-1.0676832-2.3798862c-0.0289268-0.9410028,0.2797518-1.7530322,0.9255104-2.4360733
	s1.4399204-1.0373638,2.3825855-1.06318c0.9424095-0.0255463,1.7552633,0.2844248,2.4384604,0.9301264
	c0.6828842,0.6458154,1.0364819,1.438472,1.0604229,2.3779266C18.2481155,6.4161334,17.9370499,7.2274384,17.2914486,7.9104228z"/>
<path fill="#FFFFFF" stroke="#FFFFFF" stroke-width="0.75" d="M19.1960831,16.4658279
	c-0.6508541-0.0539017-1.1870232-0.3291435-1.6087551-0.825839c-0.4216156-0.4969425-0.6055298-1.0707169-0.5517426-1.721323
	c0.0537872-0.6506071,0.3296051-1.1880093,0.8273354-1.6119614s1.0718994-0.6090345,1.7226868-0.5553122
	c0.6508541,0.0539026,1.1874352,0.3308382,1.6105309,0.8307238c0.4227352,0.5000162,0.6074238,1.0753536,0.5537014,1.726141
	c-0.0537872,0.6506062-0.3300152,1.1863155-0.8292923,1.6071434C20.4216309,16.3360958,19.8466892,16.5196152,19.1960831,16.4658279
	z"/>
<path fill="none" stroke="#FFFFFF" stroke-width="0.75" d="M13.4953756,22.1710663
	c-0.3373032-0.2555866-0.5348444-0.5924416-0.5928373-1.010664c-0.057992-0.4182205,0.0407066-0.7957706,0.2961378-1.1330166
	c0.2554884-0.3370895,0.5928545-0.5351715,1.0125256-0.5940437c0.419301-0.0589161,0.7977877,0.0394402,1.1348209,0.2947731
	c0.3373032,0.2555885,0.5346594,0.5933952,0.5921831,1.0137329c0.0575809,0.4204941-0.0413446,0.7993641-0.2966766,1.1363983
	c-0.2554884,0.3370895-0.5927267,0.5340633-1.0119286,0.5908184C14.2104979,22.5256081,13.8324089,22.4263992,13.4953756,22.1710663
	z"/>
<line fill="none" stroke="#FFFFFF" stroke-width="0.75" x1="11.3891783" y1="14.1150217" x2="16.9065838" y2="14.1150217"/>
<line fill="none" stroke="#FFFFFF" stroke-width="0.75" x1="16.3256702" y1="8.4967318" x2="18.275877" y2="12.2873077"/>
<line fill="none" stroke="#FFFFFF" stroke-width="0.75" x1="17.9398041" y1="15.7570868" x2="15.2413435" y2="19.8985844"/>
<circle fill="#C7E807" cx="6.2713146" cy="14.1798639" r="3.6089954"/>
<g>
	<path fill="#FFFFFF" d="M24.6083984,10.3378906h4.8950195v0.9902344h-3.8388672v2.4414062h3.574707v0.9902344h-3.574707v3.3662109
		h-1.0561523V10.3378906z"/>
	<path fill="#FFFFFF" d="M30.1416016,15.5185547c0-0.3808594,0.0712891-0.7363281,0.2143555-1.0664062
		s0.3393555-0.6201172,0.5883789-0.8691406c0.2495117-0.2490234,0.5429688-0.4453125,0.8803711-0.5888672
		c0.3369141-0.1425781,0.7001953-0.2138672,1.0888672-0.2138672s0.7514648,0.0712891,1.0888672,0.2138672
		c0.3374023,0.1435547,0.6308594,0.3398438,0.8798828,0.5888672c0.2495117,0.2490234,0.4458008,0.5390625,0.5888672,0.8691406
		c0.1425781,0.3300781,0.2143555,0.6855469,0.2143555,1.0664062c0,0.3818359-0.0717773,0.7392578-0.2143555,1.0732422
		c-0.1430664,0.3330078-0.3393555,0.6230469-0.5888672,0.8691406c-0.2490234,0.2451172-0.5424805,0.4394531-0.8798828,0.5830078
		c-0.3374023,0.1425781-0.7001953,0.2138672-1.0888672,0.2138672s-0.7519531-0.0712891-1.0888672-0.2138672
		c-0.3374023-0.1435547-0.6308594-0.3378906-0.8803711-0.5830078c-0.2490234-0.2460938-0.4453125-0.5361328-0.5883789-0.8691406
		C30.2128906,16.2578125,30.1416016,15.9003906,30.1416016,15.5185547z M31.1972656,15.5185547
		c0,0.2646484,0.0405273,0.5087891,0.1210938,0.7314453c0.0805664,0.2246094,0.1943359,0.4150391,0.3413086,0.5722656
		c0.1464844,0.1582031,0.3261719,0.2822266,0.5385742,0.3740234c0.2128906,0.0917969,0.4511719,0.1376953,0.715332,0.1376953
		c0.2636719,0,0.5019531-0.0458984,0.7148438-0.1376953s0.3920898-0.2158203,0.5390625-0.3740234
		c0.1464844-0.1572266,0.2602539-0.3476562,0.3408203-0.5722656c0.0805664-0.2226562,0.1210938-0.4667969,0.1210938-0.7314453
		c0-0.2636719-0.0405273-0.5068359-0.1210938-0.7314453c-0.0805664-0.2236328-0.1943359-0.4140625-0.3408203-0.5712891
		c-0.1469727-0.1582031-0.3261719-0.2822266-0.5390625-0.3740234s-0.4511719-0.1376953-0.7148438-0.1376953
		c-0.2641602,0-0.5024414,0.0458984-0.715332,0.1376953c-0.2124023,0.0917969-0.3920898,0.2158203-0.5385742,0.3740234
		c-0.1469727,0.1572266-0.2607422,0.3476562-0.3413086,0.5712891C31.237793,15.0117188,31.1972656,15.2548828,31.1972656,15.5185547
		z"/>
	<path fill="#FFFFFF" d="M36.6533203,12.9121094h0.9897461v0.8027344h0.0219727
		c0.0664062-0.1386719,0.1542969-0.265625,0.2641602-0.3789062c0.1098633-0.1142578,0.2329102-0.2109375,0.3686523-0.2919922
		s0.2841797-0.1445312,0.4453125-0.1923828s0.3227539-0.0712891,0.4838867-0.0712891
		c0.1616211,0,0.3081055,0.0214844,0.4404297,0.0654297l-0.0444336,1.0673828
		c-0.0805664-0.0224609-0.1611328-0.0400391-0.2416992-0.0546875c-0.0810547-0.0146484-0.1616211-0.0224609-0.2421875-0.0224609
		c-0.4838867,0-0.8544922,0.1357422-1.1108398,0.4072266c-0.2568359,0.2714844-0.3852539,0.6923828-0.3852539,1.2646484v2.6181641
		h-0.9897461V12.9121094z"/>
	<path fill="#FFFFFF" d="M45.0683594,18.1259766H44.078125v-0.8027344h-0.0219727
		c-0.1245117,0.2783203-0.3408203,0.5039062-0.6489258,0.6757812c-0.3081055,0.1728516-0.6635742,0.2587891-1.0668945,0.2587891
		c-0.2568359,0-0.4990234-0.0380859-0.7260742-0.1152344c-0.2275391-0.0771484-0.4272461-0.1962891-0.5996094-0.3574219
		s-0.3100586-0.3691406-0.4125977-0.6220703s-0.1538086-0.5517578-0.1538086-0.8964844v-3.3544922h0.9897461v3.0800781
		c0,0.2421875,0.0332031,0.4492188,0.0991211,0.6210938c0.065918,0.1728516,0.1542969,0.3115234,0.2641602,0.4179688
		s0.2363281,0.1835938,0.3793945,0.2314453s0.2915039,0.0712891,0.4453125,0.0712891
		c0.2055664,0,0.3959961-0.0332031,0.5722656-0.0986328c0.1757812-0.0664062,0.3300781-0.1708984,0.4619141-0.3134766
		c0.1318359-0.1435547,0.2348633-0.3251953,0.3081055-0.5449219s0.1098633-0.4804688,0.1098633-0.78125v-2.6835938h0.9902344
		V18.1259766z"/>
	<path fill="#FFFFFF" d="M46.2890625,12.9121094h0.9238281v0.8134766h0.0219727
		c0.0219727-0.0732422,0.0791016-0.1650391,0.1704102-0.2744141c0.0917969-0.1103516,0.2094727-0.2148438,0.3520508-0.3134766
		c0.1430664-0.0996094,0.3120117-0.1835938,0.5063477-0.2529297c0.1938477-0.0703125,0.4086914-0.1044922,0.6435547-0.1044922
		c0.3881836,0,0.7148438,0.0800781,0.9790039,0.2421875c0.2636719,0.1611328,0.4799805,0.4033203,0.6489258,0.7255859
		c0.168457-0.3222656,0.4067383-0.5644531,0.7148438-0.7255859c0.3081055-0.1621094,0.6196289-0.2421875,0.9350586-0.2421875
		c0.4033203,0,0.7333984,0.0654297,0.9897461,0.1972656c0.2568359,0.1328125,0.4584961,0.3066406,0.6049805,0.5224609
		c0.1469727,0.2167969,0.2475586,0.4628906,0.3027344,0.7373047c0.0551758,0.2753906,0.0825195,0.5595703,0.0825195,0.8525391
		v3.0361328h-0.9902344v-2.9042969c0-0.1972656-0.0126953-0.3886719-0.0380859-0.5712891
		c-0.0258789-0.1835938-0.0791016-0.3447266-0.159668-0.484375c-0.0810547-0.1396484-0.1943359-0.2509766-0.3408203-0.3359375
		c-0.1469727-0.0839844-0.3413086-0.1259766-0.5830078-0.1259766c-0.4770508,0-0.8178711,0.1464844-1.0234375,0.4394531
		c-0.2050781,0.2939453-0.3076172,0.671875-0.3076172,1.1337891v2.8486328h-0.9902344v-2.7275391
		c0-0.25-0.0126953-0.4775391-0.0385742-0.6826172c-0.0253906-0.2050781-0.0766602-0.3828125-0.1538086-0.5332031
		s-0.1870117-0.2675781-0.3300781-0.3525391c-0.1430664-0.0839844-0.3354492-0.1259766-0.5776367-0.1259766
		c-0.1757812,0-0.3461914,0.0351562-0.5112305,0.1044922s-0.3100586,0.1738281-0.4345703,0.3134766
		c-0.125,0.1396484-0.2236328,0.3173828-0.296875,0.5332031c-0.0737305,0.2167969-0.1103516,0.4716797-0.1103516,0.7646484
		v2.7060547h-0.9897461V12.9121094z"/>
</g>
<path fill="#C7E807" d="M18.2608871,14.7394018c-0.175745-0.314311-0.2146969-0.6442795-0.1173286-0.9899597
	s0.3033085-0.6064281,0.6174202-0.7820997c0.3141098-0.1756716,0.6446781-0.2148418,0.9918976-0.1175823
	c0.3469505,0.0971317,0.6082249,0.3026543,0.783968,0.6169653c0.1756725,0.3141117,0.2142429,0.6448956,0.1158428,0.9920807
	c-0.0985298,0.3474569-0.3048496,0.6090212-0.6190338,0.7844934c-0.3141098,0.1756716-0.6442242,0.2142248-0.9904118,0.1154613
	C18.6974525,15.2598515,18.4365578,15.0535135,18.2608871,14.7394018z"/>
<path fill="none" stroke="#D3E6EA" stroke-width="0.75" d="M131.044342,12.0422564
	c0.5854492,1.2984123,0.6270447,2.6127472,0.125,3.9425278c-0.5022278,1.3298445-1.4025116,2.2875814-2.7006989,2.8731489
	c-1.298233,0.585392-2.615036,0.6272869-3.9504089,0.1256828c-1.3352509-0.5012531-2.2954636-1.4012375-2.880806-2.6998882
	c-0.5855713-1.2981739-0.6247482-2.6151714-0.1181412-3.9509792c0.5068512-1.3356953,1.4094162-2.2964468,2.7078323-2.8819027
	c1.2984085-0.5854559,2.6127625-0.6242733,3.9434433-0.116992C129.5009155,9.8412619,130.4589539,10.7440205,131.044342,12.0422564z
	"/>
<path fill="none" stroke="#D3E6EA" stroke-width="0.75" d="M137.2914429,7.9104228
	c-0.645752,0.6830411-1.4375305,1.0380874-2.3752594,1.0652957c-0.9379578,0.0271091-1.7484131-0.2821379-2.4315186-0.9280529
	c-0.6830444-0.6457586-1.039032-1.4391394-1.067688-2.3798862c-0.0289154-0.9410028,0.2797546-1.7530322,0.9255219-2.4360733
	c0.645752-0.6830413,1.4399109-1.0373638,2.3825836-1.06318c0.9423981-0.0255463,1.7552643,0.2844248,2.4384613,0.9301264
	c0.6828766,0.6458154,1.0364838,1.438472,1.0604248,2.3779266C138.2481079,6.4161334,137.9370575,7.2274384,137.2914429,7.9104228z"
	/>
<path fill="none" stroke="#D3E6EA" stroke-width="0.75" d="M139.1960754,16.4658279
	c-0.6508484-0.0539017-1.1870117-0.3291435-1.6087494-0.825839c-0.4216156-0.4969425-0.6055298-1.0707169-0.5517426-1.721323
	c0.0537872-0.6506071,0.3296051-1.1880093,0.8273315-1.6119614c0.4977417-0.4239521,1.0718994-0.6090345,1.7226868-0.5553122
	c0.6508636,0.0539026,1.187439,0.3308382,1.6105347,0.8307238c0.4227448,0.5000162,0.6074219,1.0753536,0.5537109,1.726141
	c-0.0538025,0.6506062-0.3300171,1.1863155-0.8292999,1.6071434
	C140.4216309,16.3360958,139.8466949,16.5196152,139.1960754,16.4658279z"/>
<path fill="none" stroke="#D3E6EA" stroke-width="0.75" d="M133.4953766,22.1710663
	c-0.3373108-0.2555866-0.5348511-0.5924416-0.5928345-1.010664c-0.0579987-0.4182205,0.0406952-0.7957706,0.2961273-1.1330166
	c0.2554932-0.3370895,0.592865-0.5351715,1.0125275-0.5940437c0.4193115-0.0589161,0.7977905,0.0394402,1.1348267,0.2947731
	c0.3372955,0.2555885,0.5346527,0.5933952,0.5921783,1.0137329c0.0575867,0.4204941-0.0413361,0.7993641-0.2966766,1.1363983
	c-0.2554779,0.3370895-0.5927277,0.5340633-1.0119324,0.5908184
	C134.210495,22.5256081,133.8324127,22.4263992,133.4953766,22.1710663z"/>
<line fill="none" stroke="#D3E6EA" stroke-width="0.75" x1="131.3891754" y1="14.1150217" x2="136.9065857" y2="14.1150217"/>
<line fill="none" stroke="#D3E6EA" stroke-width="0.75" x1="136.3256683" y1="8.4967318" x2="138.2758789" y2="12.2873077"/>
<line fill="none" stroke="#D3E6EA" stroke-width="0.75" x1="137.9398041" y1="15.7570868" x2="135.2413483" y2="19.8985844"/>
<g>
	<path fill="#D3E6EA" d="M144.6083984,10.3378906h4.8945312v0.9902344h-3.8388672v2.4414062h3.5751953v0.9902344h-3.5751953
		v3.3662109h-1.0556641V10.3378906z"/>
	<path fill="#D3E6EA" d="M150.1416016,15.5185547c0-0.3808594,0.0712891-0.7363281,0.2138672-1.0664062
		c0.1435547-0.3300781,0.3398438-0.6201172,0.5888672-0.8691406s0.5429688-0.4453125,0.8798828-0.5888672
		c0.3369141-0.1425781,0.7001953-0.2138672,1.0888672-0.2138672s0.7519531,0.0712891,1.0888672,0.2138672
		c0.3378906,0.1435547,0.6308594,0.3398438,0.8798828,0.5888672c0.25,0.2490234,0.4462891,0.5390625,0.5888672,0.8691406
		s0.2148438,0.6855469,0.2148438,1.0664062c0,0.3818359-0.0722656,0.7392578-0.2148438,1.0732422
		c-0.1425781,0.3330078-0.3388672,0.6230469-0.5888672,0.8691406c-0.2490234,0.2451172-0.5419922,0.4394531-0.8798828,0.5830078
		c-0.3369141,0.1425781-0.7001953,0.2138672-1.0888672,0.2138672s-0.7519531-0.0712891-1.0888672-0.2138672
		c-0.3369141-0.1435547-0.6308594-0.3378906-0.8798828-0.5830078c-0.2490234-0.2460938-0.4453125-0.5361328-0.5888672-0.8691406
		C150.2128906,16.2578125,150.1416016,15.9003906,150.1416016,15.5185547z M151.1972656,15.5185547
		c0,0.2646484,0.0400391,0.5087891,0.1210938,0.7314453c0.0800781,0.2246094,0.1943359,0.4150391,0.3408203,0.5722656
		c0.1464844,0.1582031,0.3261719,0.2822266,0.5390625,0.3740234s0.4511719,0.1376953,0.7148438,0.1376953
		s0.5019531-0.0458984,0.7148438-0.1376953s0.3925781-0.2158203,0.5390625-0.3740234
		c0.1464844-0.1572266,0.2607422-0.3476562,0.3408203-0.5722656c0.0810547-0.2226562,0.1210938-0.4667969,0.1210938-0.7314453
		c0-0.2636719-0.0400391-0.5068359-0.1210938-0.7314453c-0.0800781-0.2236328-0.1943359-0.4140625-0.3408203-0.5712891
		c-0.1464844-0.1582031-0.3261719-0.2822266-0.5390625-0.3740234s-0.4511719-0.1376953-0.7148438-0.1376953
		s-0.5019531,0.0458984-0.7148438,0.1376953s-0.3925781,0.2158203-0.5390625,0.3740234
		c-0.1464844,0.1572266-0.2607422,0.3476562-0.3408203,0.5712891
		C151.2373047,15.0117188,151.1972656,15.2548828,151.1972656,15.5185547z"/>
	<path fill="#D3E6EA" d="M156.6533203,12.9121094h0.9892578v0.8027344h0.0224609
		c0.0664062-0.1386719,0.1542969-0.265625,0.2636719-0.3789062c0.1103516-0.1142578,0.2333984-0.2109375,0.3691406-0.2919922
		s0.2841797-0.1445312,0.4453125-0.1923828s0.3222656-0.0712891,0.4833984-0.0712891
		c0.1621094,0,0.3085938,0.0214844,0.4404297,0.0654297l-0.0439453,1.0673828
		c-0.0810547-0.0224609-0.1611328-0.0400391-0.2421875-0.0546875s-0.1611328-0.0224609-0.2421875-0.0224609
		c-0.4833984,0-0.8544922,0.1357422-1.1103516,0.4072266c-0.2568359,0.2714844-0.3857422,0.6923828-0.3857422,1.2646484v2.6181641
		h-0.9892578V12.9121094z"/>
	<path fill="#D3E6EA" d="M165.0673828,18.1259766h-0.9902344v-0.8027344h-0.0214844
		c-0.125,0.2783203-0.3408203,0.5039062-0.6494141,0.6757812c-0.3076172,0.1728516-0.6630859,0.2587891-1.0664062,0.2587891
		c-0.2568359,0-0.4990234-0.0380859-0.7265625-0.1152344s-0.4267578-0.1962891-0.5996094-0.3574219
		c-0.171875-0.1611328-0.3095703-0.3691406-0.4121094-0.6220703s-0.1542969-0.5517578-0.1542969-0.8964844v-3.3544922H161.4375
		v3.0800781c0,0.2421875,0.0332031,0.4492188,0.0986328,0.6210938c0.0664062,0.1728516,0.1542969,0.3115234,0.2646484,0.4179688
		c0.109375,0.1064453,0.2363281,0.1835938,0.3789062,0.2314453c0.1435547,0.0478516,0.2919922,0.0712891,0.4453125,0.0712891
		c0.2060547,0,0.3964844-0.0332031,0.5722656-0.0986328c0.1757812-0.0664062,0.3300781-0.1708984,0.4619141-0.3134766
		c0.1318359-0.1435547,0.2353516-0.3251953,0.3085938-0.5449219s0.109375-0.4804688,0.109375-0.78125v-2.6835938h0.9902344
		V18.1259766z"/>
	<path fill="#D3E6EA" d="M166.2890625,12.9121094h0.9238281v0.8134766h0.0214844
		c0.0224609-0.0732422,0.0791016-0.1650391,0.1708984-0.2744141c0.0917969-0.1103516,0.2089844-0.2148438,0.3515625-0.3134766
		c0.1435547-0.0996094,0.3125-0.1835938,0.5068359-0.2529297c0.1933594-0.0703125,0.4082031-0.1044922,0.6435547-0.1044922
		c0.3876953,0,0.7148438,0.0800781,0.9785156,0.2421875c0.2636719,0.1611328,0.4804688,0.4033203,0.6494141,0.7255859
		c0.1679688-0.3222656,0.40625-0.5644531,0.7148438-0.7255859c0.3076172-0.1621094,0.6191406-0.2421875,0.9345703-0.2421875
		c0.4033203,0,0.7333984,0.0654297,0.9902344,0.1972656c0.2568359,0.1328125,0.4580078,0.3066406,0.6044922,0.5224609
		c0.1474609,0.2167969,0.2480469,0.4628906,0.3027344,0.7373047c0.0556641,0.2753906,0.0830078,0.5595703,0.0830078,0.8525391
		v3.0361328h-0.9902344v-2.9042969c0-0.1972656-0.0126953-0.3886719-0.0380859-0.5712891
		c-0.0263672-0.1835938-0.0791016-0.3447266-0.1601562-0.484375s-0.1943359-0.2509766-0.3408203-0.3359375
		c-0.1464844-0.0839844-0.3408203-0.1259766-0.5830078-0.1259766c-0.4765625,0-0.8173828,0.1464844-1.0234375,0.4394531
		c-0.2050781,0.2939453-0.3076172,0.671875-0.3076172,1.1337891v2.8486328h-0.9902344v-2.7275391
		c0-0.25-0.0126953-0.4775391-0.0380859-0.6826172s-0.0771484-0.3828125-0.1542969-0.5332031
		s-0.1865234-0.2675781-0.3300781-0.3525391c-0.1425781-0.0839844-0.3349609-0.1259766-0.5771484-0.1259766
		c-0.1757812,0-0.3466797,0.0351562-0.5117188,0.1044922s-0.3095703,0.1738281-0.4345703,0.3134766
		s-0.2236328,0.3173828-0.296875,0.5332031c-0.0732422,0.2167969-0.1103516,0.4716797-0.1103516,0.7646484v2.7060547h-0.9892578
		V12.9121094z"/>
</g>
<g>
</g>
<g>
</g>
<g>
</g>
<g>
</g>
<g>
</g>
<g>
</g>
<g>
</g>
<g>
</g>
<g>
</g>
<g>
</g>
<g>
</g>
<g>
</g>
<g>
</g>
<g>
</g>
<g>
</g>
</svg>
