<?xml version="1.0" encoding="utf-8"?>
<!-- Generator: Adobe Illustrator 17.1.0, SVG Export Plug-In . SVG Version: 6.00 Build 0)  -->
<!DOCTYPE svg PUBLIC "-//W3C//DTD SVG 1.1//EN" "http://www.w3.org/Graphics/SVG/1.1/DTD/svg11.dtd">
<svg version="1.1" id="Layer_1" xmlns="http://www.w3.org/2000/svg" xmlns:xlink="http://www.w3.org/1999/xlink" x="0px" y="0px"
	 width="240px" height="40px" viewBox="0 0 240 40" enable-background="new 0 0 240 40" xml:space="preserve">
<g>
	<path d="M25.4189453,9.6708984h2.7392578c0.4985352,0,0.9091797,0.0683594,1.2319336,0.203125
		c0.3222656,0.1367188,0.5771484,0.3085938,0.7641602,0.5175781s0.3173828,0.4433594,0.390625,0.7041016
		c0.0732422,0.2597656,0.1098633,0.5117188,0.1098633,0.7529297c0,0.25-0.0439453,0.4902344-0.1318359,0.7207031
		c-0.0878906,0.2314453-0.2143555,0.4404297-0.3793945,0.6269531c-0.1650391,0.1875-0.3666992,0.3447266-0.6049805,0.4736328
		c-0.2382812,0.1279297-0.5043945,0.2070312-0.7973633,0.2363281l2.2109375,3.5527344h-1.3203125l-1.9799805-3.4316406h-1.1767578
		v3.4316406h-1.0561523V9.6708984z M26.4750977,13.1025391h1.3857422c0.2055664,0,0.4086914-0.015625,0.6108398-0.0488281
		c0.2011719-0.0332031,0.3808594-0.09375,0.5385742-0.1816406s0.2841797-0.2148438,0.3798828-0.3798828
		c0.0952148-0.1650391,0.1430664-0.3789062,0.1430664-0.6435547c0-0.2636719-0.0478516-0.4785156-0.1430664-0.6435547
		c-0.0957031-0.1650391-0.222168-0.2910156-0.3798828-0.3789062s-0.3374023-0.1484375-0.5385742-0.1816406
		c-0.2021484-0.0332031-0.4052734-0.0498047-0.6108398-0.0498047h-1.3857422V13.1025391z"/>
	<path d="M32.3598633,15.2148438c0,0.2275391,0.0493164,0.4345703,0.1484375,0.6220703
		c0.0991211,0.1865234,0.2290039,0.3457031,0.390625,0.4785156c0.1611328,0.1318359,0.3481445,0.234375,0.5610352,0.3076172
		c0.2124023,0.0732422,0.4326172,0.1103516,0.659668,0.1103516c0.3081055,0,0.5756836-0.0722656,0.8032227-0.2148438
		c0.2270508-0.1435547,0.4360352-0.3320312,0.6269531-0.5664062l0.7480469,0.5722656
		c-0.550293,0.7109375-1.3203125,1.0664062-2.3100586,1.0664062c-0.4106445,0-0.7827148-0.0693359-1.1166992-0.2089844
		c-0.3334961-0.1386719-0.6157227-0.3320312-0.8466797-0.5771484c-0.230957-0.2460938-0.4091797-0.5351562-0.5336914-0.8691406
		s-0.1870117-0.6943359-0.1870117-1.0839844c0-0.3886719,0.0678711-0.7490234,0.2036133-1.0830078
		s0.3227539-0.6230469,0.5610352-0.8691406c0.2382812-0.2451172,0.5224609-0.4384766,0.8525391-0.5771484
		c0.3300781-0.1396484,0.6889648-0.2089844,1.0776367-0.2089844c0.4624023,0,0.8525391,0.0800781,1.171875,0.2421875
		c0.3188477,0.1611328,0.5810547,0.3720703,0.7861328,0.6318359c0.2055664,0.2607422,0.3540039,0.5537109,0.4458008,0.8798828
		c0.0913086,0.3271484,0.137207,0.6582031,0.137207,0.9960938v0.3515625H32.3598633z M35.4838867,14.4228516
		c-0.0073242-0.2197266-0.0424805-0.421875-0.1044922-0.6044922c-0.0625-0.1835938-0.15625-0.3427734-0.2807617-0.4785156
		s-0.2802734-0.2421875-0.4672852-0.3193359s-0.4052734-0.1152344-0.6547852-0.1152344
		c-0.2416992,0-0.4638672,0.0458984-0.6655273,0.1376953c-0.2016602,0.0908203-0.3720703,0.2099609-0.5112305,0.3574219
		c-0.1396484,0.1464844-0.2475586,0.3095703-0.324707,0.4892578c-0.0766602,0.1796875-0.1152344,0.3574219-0.1152344,0.5332031
		H35.4838867z"/>
	<path d="M40.2250977,13.5537109c-0.1171875-0.1464844-0.262207-0.2695312-0.4345703-0.3681641
		s-0.3833008-0.1484375-0.6323242-0.1484375c-0.2348633,0-0.4384766,0.0498047-0.6108398,0.1484375
		s-0.2583008,0.2441406-0.2583008,0.4345703c0,0.1542969,0.0493164,0.2783203,0.1484375,0.3740234
		s0.2163086,0.171875,0.3520508,0.2304688c0.1357422,0.0595703,0.2807617,0.1035156,0.4345703,0.1328125
		s0.2861328,0.0546875,0.3959961,0.0761719c0.2124023,0.0517578,0.4125977,0.1142578,0.5996094,0.1875
		s0.3481445,0.1689453,0.4838867,0.2861328s0.2421875,0.2597656,0.3188477,0.4287109
		c0.0771484,0.1689453,0.1157227,0.3740234,0.1157227,0.6162109c0,0.2929688-0.0625,0.5439453-0.1870117,0.7529297
		c-0.125,0.2089844-0.2861328,0.3798828-0.4838867,0.5117188c-0.1982422,0.1318359-0.4238281,0.2275391-0.6767578,0.2861328
		s-0.5078125,0.0878906-0.7646484,0.0878906c-0.4326172,0-0.8120117-0.0654297-1.1381836-0.1982422
		c-0.3266602-0.1318359-0.6181641-0.3740234-0.8745117-0.7255859l0.7480469-0.6162109
		c0.1611328,0.1611328,0.3408203,0.3046875,0.5390625,0.4296875c0.1977539,0.1240234,0.4399414,0.1865234,0.7255859,0.1865234
		c0.125,0,0.2514648-0.0126953,0.3798828-0.0380859c0.1279297-0.0263672,0.2416992-0.0664062,0.3408203-0.1210938
		c0.0991211-0.0556641,0.1796875-0.125,0.2421875-0.2089844c0.0620117-0.0849609,0.0932617-0.1816406,0.0932617-0.2919922
		c0-0.1464844-0.0458984-0.2675781-0.1376953-0.3632812c-0.0913086-0.0947266-0.2016602-0.1699219-0.3295898-0.2246094
		c-0.128418-0.0556641-0.2641602-0.0996094-0.4072266-0.1328125c-0.1430664-0.0322266-0.2695312-0.0605469-0.3793945-0.0820312
		c-0.2128906-0.0517578-0.4145508-0.1103516-0.6049805-0.1757812c-0.190918-0.0664062-0.359375-0.1542969-0.5058594-0.2646484
		c-0.1469727-0.109375-0.2641602-0.2490234-0.3520508-0.4179688c-0.0883789-0.1679688-0.1323242-0.3769531-0.1323242-0.6269531
		c0-0.2705078,0.0571289-0.5078125,0.1708984-0.7089844c0.1132812-0.2021484,0.2636719-0.3691406,0.4506836-0.5009766
		s0.3999023-0.2304688,0.6381836-0.296875s0.4785156-0.0986328,0.7202148-0.0986328
		c0.3520508,0,0.6894531,0.0654297,1.012207,0.1972656c0.3227539,0.1328125,0.5791016,0.3525391,0.7700195,0.6601562
		L40.2250977,13.5537109z"/>
	<path d="M42.8095703,15.2148438c0,0.2275391,0.0493164,0.4345703,0.1484375,0.6220703
		c0.0991211,0.1865234,0.2290039,0.3457031,0.390625,0.4785156c0.1611328,0.1318359,0.3481445,0.234375,0.5610352,0.3076172
		c0.2124023,0.0732422,0.4326172,0.1103516,0.659668,0.1103516c0.3081055,0,0.5756836-0.0722656,0.8032227-0.2148438
		c0.2270508-0.1435547,0.4360352-0.3320312,0.6269531-0.5664062l0.7480469,0.5722656
		c-0.550293,0.7109375-1.3203125,1.0664062-2.3100586,1.0664062c-0.4106445,0-0.7827148-0.0693359-1.1166992-0.2089844
		c-0.3334961-0.1386719-0.6157227-0.3320312-0.8466797-0.5771484c-0.230957-0.2460938-0.4091797-0.5351562-0.5336914-0.8691406
		s-0.1870117-0.6943359-0.1870117-1.0839844c0-0.3886719,0.0678711-0.7490234,0.2036133-1.0830078
		s0.3227539-0.6230469,0.5610352-0.8691406c0.2382812-0.2451172,0.5224609-0.4384766,0.8525391-0.5771484
		c0.3300781-0.1396484,0.6889648-0.2089844,1.0776367-0.2089844c0.4624023,0,0.8525391,0.0800781,1.171875,0.2421875
		c0.3188477,0.1611328,0.5810547,0.3720703,0.7861328,0.6318359c0.2055664,0.2607422,0.3540039,0.5537109,0.4458008,0.8798828
		c0.0913086,0.3271484,0.137207,0.6582031,0.137207,0.9960938v0.3515625H42.8095703z M45.9335938,14.4228516
		c-0.0073242-0.2197266-0.0424805-0.421875-0.1044922-0.6044922c-0.0625-0.1835938-0.15625-0.3427734-0.2807617-0.4785156
		s-0.2802734-0.2421875-0.4672852-0.3193359s-0.4052734-0.1152344-0.6547852-0.1152344
		c-0.2416992,0-0.4638672,0.0458984-0.6655273,0.1376953c-0.2016602,0.0908203-0.3720703,0.2099609-0.5112305,0.3574219
		c-0.1396484,0.1464844-0.2475586,0.3095703-0.324707,0.4892578c-0.0766602,0.1796875-0.1152344,0.3574219-0.1152344,0.5332031
		H45.9335938z"/>
	<path d="M47.9248047,12.8828125c0.2788086-0.2568359,0.6010742-0.4492188,0.9677734-0.5771484
		s0.7333984-0.1923828,1.1000977-0.1923828c0.3813477,0,0.7094727,0.0478516,0.984375,0.1425781
		c0.2753906,0.0957031,0.5009766,0.2236328,0.6767578,0.3847656c0.1757812,0.1621094,0.3061523,0.3466797,0.390625,0.5556641
		c0.0839844,0.2089844,0.1264648,0.4277344,0.1264648,0.6542969v2.6621094c0,0.1835938,0.003418,0.3525391,0.0107422,0.5058594
		c0.0073242,0.1542969,0.0185547,0.3007812,0.0332031,0.4404297h-0.8798828
		c-0.0219727-0.2636719-0.0332031-0.5283203-0.0332031-0.7919922h-0.0219727
		c-0.2202148,0.3369141-0.4804688,0.5761719-0.7807617,0.7148438c-0.3007812,0.1396484-0.6494141,0.2089844-1.0454102,0.2089844
		c-0.2416992,0-0.4726562-0.0332031-0.6928711-0.0986328c-0.2197266-0.0664062-0.4125977-0.1650391-0.5776367-0.296875
		c-0.1650391-0.1328125-0.2949219-0.2958984-0.3901367-0.4902344c-0.0957031-0.1933594-0.1430664-0.4189453-0.1430664-0.6757812
		c0-0.3378906,0.0751953-0.6201172,0.2255859-0.8476562c0.1499023-0.2265625,0.3554688-0.4121094,0.6157227-0.5546875
		c0.2602539-0.1435547,0.5644531-0.2460938,0.9130859-0.3085938c0.3481445-0.0625,0.7207031-0.09375,1.1166992-0.09375h0.7255859
		v-0.2197266c0-0.1318359-0.0253906-0.2636719-0.0766602-0.3955078c-0.0517578-0.1328125-0.128418-0.2519531-0.230957-0.3574219
		c-0.1030273-0.1064453-0.230957-0.1914062-0.3852539-0.2539062c-0.1538086-0.0615234-0.3374023-0.0927734-0.5498047-0.0927734
		c-0.190918,0-0.3574219,0.0185547-0.5004883,0.0546875c-0.1430664,0.0371094-0.2734375,0.0830078-0.390625,0.1376953
		s-0.2236328,0.1191406-0.3188477,0.1923828c-0.0957031,0.0732422-0.1870117,0.1425781-0.2753906,0.2089844L47.9248047,12.8828125z
		 M50.71875,14.9511719c-0.2348633,0-0.4750977,0.0126953-0.7207031,0.0380859
		c-0.2456055,0.0263672-0.4692383,0.0751953-0.6708984,0.1484375s-0.3666992,0.1767578-0.4946289,0.3085938
		c-0.128418,0.1318359-0.1928711,0.3007812-0.1928711,0.5058594c0,0.3007812,0.1010742,0.5166016,0.3027344,0.6484375
		c0.2016602,0.1328125,0.4746094,0.1982422,0.8193359,0.1982422c0.2714844,0,0.5024414-0.0458984,0.6928711-0.1376953
		c0.190918-0.0908203,0.3447266-0.2099609,0.4624023-0.3574219c0.1171875-0.1464844,0.2011719-0.3095703,0.2529297-0.4892578
		c0.0512695-0.1796875,0.0766602-0.3574219,0.0766602-0.5332031v-0.3300781H50.71875z"/>
	<path d="M53.3369141,12.2451172h0.9897461v0.8027344h0.0219727c0.0664062-0.1386719,0.1542969-0.265625,0.2641602-0.3789062
		c0.1098633-0.1142578,0.2329102-0.2109375,0.3686523-0.2919922s0.2841797-0.1445312,0.4453125-0.1923828
		s0.3227539-0.0712891,0.4838867-0.0712891c0.1616211,0,0.3081055,0.0214844,0.4404297,0.0654297l-0.0444336,1.0673828
		c-0.0805664-0.0224609-0.1611328-0.0400391-0.2416992-0.0546875c-0.0810547-0.0146484-0.1616211-0.0224609-0.2421875-0.0224609
		c-0.4838867,0-0.8544922,0.1357422-1.1108398,0.4072266c-0.2568359,0.2714844-0.3852539,0.6923828-0.3852539,1.2646484v2.6181641
		h-0.9897461V12.2451172z"/>
	<path d="M60.6630859,13.6308594c-0.1835938-0.1904297-0.3759766-0.3349609-0.5776367-0.4345703
		c-0.2016602-0.0986328-0.4418945-0.1484375-0.7202148-0.1484375c-0.2714844,0-0.5083008,0.0498047-0.7094727,0.1484375
		c-0.2021484,0.0996094-0.3706055,0.2353516-0.5063477,0.4072266s-0.2382812,0.3701172-0.3081055,0.59375
		c-0.0693359,0.2236328-0.1044922,0.4570312-0.1044922,0.6982422c0,0.2421875,0.0405273,0.4716797,0.1210938,0.6875
		c0.0805664,0.2167969,0.1943359,0.4052734,0.3413086,0.5673828c0.1464844,0.1611328,0.3222656,0.2871094,0.527832,0.3789062
		c0.2050781,0.0917969,0.4360352,0.1376953,0.6928711,0.1376953c0.2788086,0,0.5170898-0.0498047,0.715332-0.1484375
		c0.1977539-0.0986328,0.3808594-0.2441406,0.5498047-0.4345703l0.7041016,0.7041016
		c-0.2568359,0.2861328-0.5556641,0.4912109-0.8964844,0.6162109c-0.3413086,0.1240234-0.7026367,0.1865234-1.0834961,0.1865234
		c-0.4033203,0-0.7719727-0.0654297-1.1054688-0.1982422c-0.3339844-0.1318359-0.621582-0.3164062-0.8637695-0.5546875
		c-0.2416992-0.2382812-0.4287109-0.5244141-0.5610352-0.8583984c-0.1318359-0.3339844-0.1977539-0.7021484-0.1977539-1.1054688
		s0.065918-0.7734375,0.1977539-1.1113281c0.1323242-0.3369141,0.3173828-0.6269531,0.5556641-0.8691406
		c0.2382812-0.2412109,0.5244141-0.4306641,0.8579102-0.5664062s0.7055664-0.203125,1.1166992-0.203125
		c0.3808594,0,0.7460938,0.0673828,1.0942383,0.203125s0.6508789,0.3427734,0.9077148,0.6220703L60.6630859,13.6308594z"/>
	<path d="M61.9609375,9.1425781h0.9897461v3.9052734h0.0219727c0.125-0.2783203,0.3413086-0.5039062,0.6494141-0.6767578
		c0.3076172-0.171875,0.6635742-0.2578125,1.0668945-0.2578125c0.2490234,0,0.4892578,0.0380859,0.7202148,0.1152344
		c0.2314453,0.0771484,0.4326172,0.1962891,0.6049805,0.3574219s0.3100586,0.3681641,0.4125977,0.6210938
		c0.1025391,0.2539062,0.1542969,0.5527344,0.1542969,0.8964844v3.3554688h-0.9902344v-3.0800781
		c0-0.2421875-0.0327148-0.4492188-0.0991211-0.6210938c-0.065918-0.1728516-0.1538086-0.3115234-0.2636719-0.4179688
		c-0.1103516-0.1064453-0.2368164-0.1835938-0.3793945-0.2314453c-0.1430664-0.0478516-0.2915039-0.0712891-0.4458008-0.0712891
		c-0.2055664,0-0.3959961,0.0332031-0.5717773,0.0986328c-0.1762695,0.0664062-0.3300781,0.1708984-0.4624023,0.3134766
		c-0.1318359,0.1435547-0.234375,0.3251953-0.3076172,0.5449219c-0.0737305,0.2197266-0.1103516,0.4804688-0.1103516,0.78125
		v2.6835938h-0.9897461V9.1425781z"/>
</g>
<polygon opacity="0.99" fill="#F9E208" points="5.0468173,9.1881447 12.0079403,5.1691384 18.9690647,9.1881447 
	18.9690647,17.2261581 12.0079403,21.2451649 5.0468173,17.2261581 "/>
<circle fill="none" stroke="#000000" stroke-width="0.5" stroke-miterlimit="10" cx="12.0571842" cy="2.8286235" r="1.7466447"/>
<circle fill="none" stroke="#000000" stroke-width="0.5" stroke-miterlimit="10" cx="12.0571842" cy="13.1602249" r="1.7466447"/>
<circle fill="none" stroke="#000000" stroke-width="0.5" stroke-miterlimit="10" cx="12.0571842" cy="23.5535164" r="1.7466447"/>
<circle fill="none" stroke="#000000" stroke-width="0.5" stroke-miterlimit="10" cx="2.7466447" cy="18.471035" r="1.7466447"/>
<circle fill="none" stroke="#000000" stroke-width="0.5" stroke-miterlimit="10" cx="2.7466447" cy="8.1394339" r="1.7466447"/>
<circle fill="none" stroke="#000000" stroke-width="0.5" stroke-miterlimit="10" cx="21.4027901" cy="18.471035" r="1.7466447"/>
<circle fill="none" stroke="#000000" stroke-width="0.5" stroke-miterlimit="10" cx="21.4027901" cy="8.1394339" r="1.7466447"/>
<line fill="none" stroke="#000000" stroke-width="0.5" stroke-miterlimit="10" stroke-dasharray="0.7907899,0.7907899" x1="21.5157299" y1="10.5394821" x2="21.5157299" y2="16.75"/>
<line fill="none" stroke="#000000" stroke-width="0.5" stroke-miterlimit="10" stroke-dasharray="0.7907899,0.7907899" x1="2.7240634" y1="10.5394821" x2="2.7240634" y2="16.75"/>
<line fill="none" stroke="#000000" stroke-width="0.5" stroke-miterlimit="10" stroke-dasharray="0.7907899,0.7907899" x1="12.1407299" y1="15.6668816" x2="12.1407299" y2="21.8773994"/>
<line fill="none" stroke="#000000" stroke-width="0.5" stroke-miterlimit="10" x1="4.2964306" y1="7.2179332" x2="10.5065565" y2="3.6361592"/>
<line fill="none" stroke="#000000" stroke-width="0.5" stroke-miterlimit="10" stroke-dasharray="0.7872308,0.7873204" x1="13.5729675" y1="22.7045956" x2="19.8346291" y2="19.2774315"/>
<line fill="none" stroke="#000000" stroke-width="0.5" stroke-miterlimit="10" stroke-dasharray="0.7873204,0.7873204" x1="4.3221989" y1="19.328968" x2="10.5580931" y2="22.7045956"/>
<line fill="none" stroke="#000000" stroke-width="0.5" stroke-miterlimit="10" x1="13.5987358" y1="3.6876955" x2="19.9119339" y2="7.2952375"/>
<line fill="none" stroke="#000000" stroke-width="0.5" stroke-miterlimit="10" x1="4.2706623" y1="9.0345888" x2="10.4550209" y2="12.3586807"/>
<line fill="none" stroke="#000000" stroke-width="0.5" stroke-miterlimit="10" x1="13.5858517" y1="12.3200283" x2="19.8861656" y2="8.957284"/>
<g>
	<path fill="#FFFFFF" d="M145.3984375,9.6708984h2.7392578c0.4980469,0,0.9091797,0.0683594,1.2314453,0.203125
		c0.3222656,0.1367188,0.5771484,0.3085938,0.7646484,0.5175781c0.1865234,0.2089844,0.3173828,0.4433594,0.390625,0.7041016
		c0.0732422,0.2597656,0.109375,0.5117188,0.109375,0.7529297c0,0.25-0.0439453,0.4902344-0.1318359,0.7207031
		c-0.0878906,0.2314453-0.2138672,0.4404297-0.3789062,0.6269531c-0.1650391,0.1875-0.3671875,0.3447266-0.6054688,0.4736328
		c-0.2382812,0.1279297-0.5039062,0.2070312-0.796875,0.2363281l2.2109375,3.5527344h-1.3203125l-1.9804688-3.4316406h-1.1767578
		v3.4316406h-1.0556641V9.6708984z M146.4541016,13.1025391h1.3857422c0.2060547,0,0.4091797-0.015625,0.6113281-0.0488281
		c0.2011719-0.0332031,0.3808594-0.09375,0.5380859-0.1816406c0.1582031-0.0878906,0.2841797-0.2148438,0.3798828-0.3798828
		s0.1435547-0.3789062,0.1435547-0.6435547c0-0.2636719-0.0478516-0.4785156-0.1435547-0.6435547
		s-0.2216797-0.2910156-0.3798828-0.3789062c-0.1572266-0.0878906-0.3369141-0.1484375-0.5380859-0.1816406
		c-0.2021484-0.0332031-0.4052734-0.0498047-0.6113281-0.0498047h-1.3857422V13.1025391z"/>
	<path fill="#FFFFFF" d="M152.3388672,15.2148438c0,0.2275391,0.0498047,0.4345703,0.1484375,0.6220703
		c0.0996094,0.1865234,0.2294922,0.3457031,0.390625,0.4785156c0.1611328,0.1318359,0.3486328,0.234375,0.5615234,0.3076172
		c0.2119141,0.0732422,0.4326172,0.1103516,0.6591797,0.1103516c0.3085938,0,0.5761719-0.0722656,0.8037109-0.2148438
		c0.2265625-0.1435547,0.4355469-0.3320312,0.6269531-0.5664062l0.7480469,0.5722656
		c-0.5507812,0.7109375-1.3203125,1.0664062-2.3105469,1.0664062c-0.4101562,0-0.7822266-0.0693359-1.1162109-0.2089844
		c-0.3339844-0.1386719-0.6162109-0.3320312-0.8466797-0.5771484c-0.2314453-0.2460938-0.4091797-0.5351562-0.5341797-0.8691406
		c-0.1240234-0.3339844-0.1865234-0.6943359-0.1865234-1.0839844c0-0.3886719,0.0673828-0.7490234,0.203125-1.0830078
		s0.3232422-0.6230469,0.5615234-0.8691406c0.2382812-0.2451172,0.5224609-0.4384766,0.8525391-0.5771484
		c0.3300781-0.1396484,0.6884766-0.2089844,1.0771484-0.2089844c0.4628906,0,0.8525391,0.0800781,1.171875,0.2421875
		c0.3193359,0.1611328,0.5810547,0.3720703,0.7861328,0.6318359c0.2060547,0.2607422,0.3544922,0.5537109,0.4462891,0.8798828
		c0.0908203,0.3271484,0.1367188,0.6582031,0.1367188,0.9960938v0.3515625H152.3388672z M155.4628906,14.4228516
		c-0.0068359-0.2197266-0.0419922-0.421875-0.1044922-0.6044922c-0.0625-0.1835938-0.15625-0.3427734-0.2802734-0.4785156
		c-0.125-0.1357422-0.2802734-0.2421875-0.4677734-0.3193359c-0.1865234-0.0771484-0.4052734-0.1152344-0.6542969-0.1152344
		c-0.2421875,0-0.4638672,0.0458984-0.6660156,0.1376953c-0.2011719,0.0908203-0.3720703,0.2099609-0.5107422,0.3574219
		c-0.1396484,0.1464844-0.2480469,0.3095703-0.3251953,0.4892578c-0.0761719,0.1796875-0.1152344,0.3574219-0.1152344,0.5332031
		H155.4628906z"/>
	<path fill="#FFFFFF" d="M160.2041016,13.5537109c-0.1171875-0.1464844-0.2617188-0.2695312-0.4345703-0.3681641
		c-0.171875-0.0986328-0.3828125-0.1484375-0.6318359-0.1484375c-0.2353516,0-0.4384766,0.0498047-0.6113281,0.1484375
		c-0.171875,0.0986328-0.2578125,0.2441406-0.2578125,0.4345703c0,0.1542969,0.0488281,0.2783203,0.1484375,0.3740234
		c0.0986328,0.0957031,0.2158203,0.171875,0.3515625,0.2304688c0.1357422,0.0595703,0.28125,0.1035156,0.4345703,0.1328125
		c0.1542969,0.0292969,0.2861328,0.0546875,0.3964844,0.0761719c0.2119141,0.0517578,0.4121094,0.1142578,0.5996094,0.1875
		c0.1865234,0.0732422,0.3476562,0.1689453,0.4833984,0.2861328s0.2421875,0.2597656,0.3193359,0.4287109
		s0.1152344,0.3740234,0.1152344,0.6162109c0,0.2929688-0.0625,0.5439453-0.1865234,0.7529297
		c-0.125,0.2089844-0.2861328,0.3798828-0.484375,0.5117188s-0.4238281,0.2275391-0.6767578,0.2861328
		s-0.5078125,0.0878906-0.7646484,0.0878906c-0.4326172,0-0.8115234-0.0654297-1.1376953-0.1982422
		c-0.3271484-0.1318359-0.6181641-0.3740234-0.875-0.7255859l0.7480469-0.6162109
		c0.1611328,0.1611328,0.3408203,0.3046875,0.5390625,0.4296875c0.1982422,0.1240234,0.4404297,0.1865234,0.7255859,0.1865234
		c0.125,0,0.2519531-0.0126953,0.3798828-0.0380859c0.1279297-0.0263672,0.2421875-0.0664062,0.3408203-0.1210938
		c0.0996094-0.0556641,0.1796875-0.125,0.2421875-0.2089844c0.0625-0.0849609,0.09375-0.1816406,0.09375-0.2919922
		c0-0.1464844-0.0458984-0.2675781-0.1376953-0.3632812c-0.0917969-0.0947266-0.2021484-0.1699219-0.3300781-0.2246094
		c-0.1279297-0.0556641-0.2636719-0.0996094-0.4072266-0.1328125c-0.1425781-0.0322266-0.2695312-0.0605469-0.3789062-0.0820312
		c-0.2128906-0.0517578-0.4150391-0.1103516-0.6054688-0.1757812c-0.1904297-0.0664062-0.359375-0.1542969-0.5058594-0.2646484
		c-0.1464844-0.109375-0.2636719-0.2490234-0.3515625-0.4179688c-0.0888672-0.1679688-0.1328125-0.3769531-0.1328125-0.6269531
		c0-0.2705078,0.0576172-0.5078125,0.1708984-0.7089844c0.1132812-0.2021484,0.2636719-0.3691406,0.4511719-0.5009766
		c0.1865234-0.1318359,0.3994141-0.2304688,0.6376953-0.296875s0.4785156-0.0986328,0.7207031-0.0986328
		c0.3515625,0,0.6894531,0.0654297,1.0117188,0.1972656c0.3232422,0.1328125,0.5791016,0.3525391,0.7705078,0.6601562
		L160.2041016,13.5537109z"/>
	<path fill="#FFFFFF" d="M162.7890625,15.2148438c0,0.2275391,0.0488281,0.4345703,0.1484375,0.6220703
		c0.0986328,0.1865234,0.2285156,0.3457031,0.390625,0.4785156c0.1611328,0.1318359,0.3476562,0.234375,0.5605469,0.3076172
		s0.4326172,0.1103516,0.6601562,0.1103516c0.3076172,0,0.5751953-0.0722656,0.8027344-0.2148438
		c0.2275391-0.1435547,0.4365234-0.3320312,0.6269531-0.5664062l0.7480469,0.5722656
		c-0.5498047,0.7109375-1.3203125,1.0664062-2.3095703,1.0664062c-0.4111328,0-0.7832031-0.0693359-1.1171875-0.2089844
		c-0.3330078-0.1386719-0.6152344-0.3320312-0.8466797-0.5771484c-0.2304688-0.2460938-0.4091797-0.5351562-0.5332031-0.8691406
		c-0.125-0.3339844-0.1875-0.6943359-0.1875-1.0839844c0-0.3886719,0.0683594-0.7490234,0.2041016-1.0830078
		s0.3222656-0.6230469,0.5605469-0.8691406c0.2382812-0.2451172,0.5224609-0.4384766,0.8525391-0.5771484
		c0.3300781-0.1396484,0.6894531-0.2089844,1.078125-0.2089844c0.4619141,0,0.8525391,0.0800781,1.171875,0.2421875
		c0.3183594,0.1611328,0.5810547,0.3720703,0.7861328,0.6318359c0.2050781,0.2607422,0.3535156,0.5537109,0.4453125,0.8798828
		c0.0917969,0.3271484,0.1376953,0.6582031,0.1376953,0.9960938v0.3515625H162.7890625z M165.9130859,14.4228516
		c-0.0078125-0.2197266-0.0429688-0.421875-0.1044922-0.6044922c-0.0625-0.1835938-0.15625-0.3427734-0.28125-0.4785156
		c-0.1240234-0.1357422-0.2802734-0.2421875-0.4667969-0.3193359c-0.1875-0.0771484-0.4052734-0.1152344-0.6552734-0.1152344
		c-0.2412109,0-0.4638672,0.0458984-0.6650391,0.1376953c-0.2021484,0.0908203-0.3720703,0.2099609-0.5117188,0.3574219
		c-0.1396484,0.1464844-0.2470703,0.3095703-0.3242188,0.4892578s-0.1152344,0.3574219-0.1152344,0.5332031H165.9130859z"/>
	<path fill="#FFFFFF" d="M167.9042969,12.8828125c0.2783203-0.2568359,0.6005859-0.4492188,0.9677734-0.5771484
		c0.3662109-0.1279297,0.7333984-0.1923828,1.0996094-0.1923828c0.3818359,0,0.7099609,0.0478516,0.984375,0.1425781
		c0.2753906,0.0957031,0.5009766,0.2236328,0.6767578,0.3847656c0.1757812,0.1621094,0.3066406,0.3466797,0.390625,0.5556641
		s0.1269531,0.4277344,0.1269531,0.6542969v2.6621094c0,0.1835938,0.0029297,0.3525391,0.0107422,0.5058594
		c0.0068359,0.1542969,0.0185547,0.3007812,0.0332031,0.4404297h-0.8798828
		c-0.0224609-0.2636719-0.0332031-0.5283203-0.0332031-0.7919922h-0.0224609
		c-0.2197266,0.3369141-0.4804688,0.5761719-0.7802734,0.7148438c-0.3007812,0.1396484-0.6494141,0.2089844-1.0458984,0.2089844
		c-0.2412109,0-0.4726562-0.0332031-0.6923828-0.0986328c-0.2197266-0.0664062-0.4130859-0.1650391-0.578125-0.296875
		c-0.1650391-0.1328125-0.2949219-0.2958984-0.3896484-0.4902344c-0.0957031-0.1933594-0.1435547-0.4189453-0.1435547-0.6757812
		c0-0.3378906,0.0751953-0.6201172,0.2255859-0.8476562c0.1503906-0.2265625,0.3554688-0.4121094,0.6162109-0.5546875
		c0.2597656-0.1435547,0.5644531-0.2460938,0.9130859-0.3085938c0.3476562-0.0625,0.7207031-0.09375,1.1162109-0.09375h0.7255859
		v-0.2197266c0-0.1318359-0.0253906-0.2636719-0.0761719-0.3955078c-0.0517578-0.1328125-0.1289062-0.2519531-0.2314453-0.3574219
		c-0.1025391-0.1064453-0.2304688-0.1914062-0.3847656-0.2539062c-0.1542969-0.0615234-0.3378906-0.0927734-0.5498047-0.0927734
		c-0.1914062,0-0.3574219,0.0185547-0.5009766,0.0546875c-0.1425781,0.0371094-0.2734375,0.0830078-0.390625,0.1376953
		s-0.2236328,0.1191406-0.3183594,0.1923828c-0.0957031,0.0732422-0.1875,0.1425781-0.2753906,0.2089844L167.9042969,12.8828125z
		 M170.6982422,14.9511719c-0.2353516,0-0.4755859,0.0126953-0.7207031,0.0380859
		c-0.2460938,0.0263672-0.4697266,0.0751953-0.6708984,0.1484375c-0.2021484,0.0732422-0.3671875,0.1767578-0.4951172,0.3085938
		s-0.1923828,0.3007812-0.1923828,0.5058594c0,0.3007812,0.1005859,0.5166016,0.3027344,0.6484375
		c0.2011719,0.1328125,0.4746094,0.1982422,0.8193359,0.1982422c0.2714844,0,0.5019531-0.0458984,0.6923828-0.1376953
		c0.1914062-0.0908203,0.3447266-0.2099609,0.4628906-0.3574219c0.1171875-0.1464844,0.2011719-0.3095703,0.2529297-0.4892578
		c0.0507812-0.1796875,0.0761719-0.3574219,0.0761719-0.5332031v-0.3300781H170.6982422z"/>
	<path fill="#FFFFFF" d="M173.3164062,12.2451172h0.9892578v0.8027344h0.0224609
		c0.0664062-0.1386719,0.1542969-0.265625,0.2636719-0.3789062c0.1103516-0.1142578,0.2333984-0.2109375,0.3691406-0.2919922
		s0.2841797-0.1445312,0.4453125-0.1923828s0.3222656-0.0712891,0.4833984-0.0712891
		c0.1621094,0,0.3085938,0.0214844,0.4404297,0.0654297l-0.0439453,1.0673828
		c-0.0810547-0.0224609-0.1611328-0.0400391-0.2421875-0.0546875s-0.1611328-0.0224609-0.2421875-0.0224609
		c-0.4833984,0-0.8544922,0.1357422-1.1103516,0.4072266c-0.2568359,0.2714844-0.3857422,0.6923828-0.3857422,1.2646484v2.6181641
		h-0.9892578V12.2451172z"/>
	<path fill="#FFFFFF" d="M180.6416016,13.6308594c-0.1835938-0.1904297-0.3759766-0.3349609-0.5771484-0.4345703
		c-0.2021484-0.0986328-0.4423828-0.1484375-0.7207031-0.1484375c-0.2714844,0-0.5078125,0.0498047-0.7089844,0.1484375
		c-0.2021484,0.0996094-0.3710938,0.2353516-0.5068359,0.4072266s-0.2382812,0.3701172-0.3076172,0.59375
		s-0.1044922,0.4570312-0.1044922,0.6982422c0,0.2421875,0.0400391,0.4716797,0.1210938,0.6875
		c0.0800781,0.2167969,0.1943359,0.4052734,0.3408203,0.5673828c0.1464844,0.1611328,0.3222656,0.2871094,0.5283203,0.3789062
		c0.2050781,0.0917969,0.4355469,0.1376953,0.6923828,0.1376953c0.2792969,0,0.5175781-0.0498047,0.7158203-0.1484375
		c0.1972656-0.0986328,0.3808594-0.2441406,0.5498047-0.4345703l0.7041016,0.7041016
		c-0.2568359,0.2861328-0.5556641,0.4912109-0.8964844,0.6162109c-0.3417969,0.1240234-0.703125,0.1865234-1.0839844,0.1865234
		c-0.4033203,0-0.7714844-0.0654297-1.1054688-0.1982422c-0.3339844-0.1318359-0.6210938-0.3164062-0.8632812-0.5546875
		s-0.4287109-0.5244141-0.5615234-0.8583984c-0.1318359-0.3339844-0.1972656-0.7021484-0.1972656-1.1054688
		s0.0654297-0.7734375,0.1972656-1.1113281c0.1328125-0.3369141,0.3173828-0.6269531,0.5556641-0.8691406
		c0.2382812-0.2412109,0.5244141-0.4306641,0.8583984-0.5664062c0.3330078-0.1357422,0.7050781-0.203125,1.1162109-0.203125
		c0.3808594,0,0.7460938,0.0673828,1.0947266,0.203125c0.3476562,0.1357422,0.6503906,0.3427734,0.9072266,0.6220703
		L180.6416016,13.6308594z"/>
	<path fill="#FFFFFF" d="M181.9404297,9.1425781h0.9892578v3.9052734h0.0224609
		c0.125-0.2783203,0.3408203-0.5039062,0.6494141-0.6767578c0.3076172-0.171875,0.6630859-0.2578125,1.0664062-0.2578125
		c0.2490234,0,0.4892578,0.0380859,0.7207031,0.1152344s0.4326172,0.1962891,0.6044922,0.3574219
		c0.1728516,0.1611328,0.3105469,0.3681641,0.4130859,0.6210938c0.1025391,0.2539062,0.1542969,0.5527344,0.1542969,0.8964844
		v3.3554688h-0.9902344v-3.0800781c0-0.2421875-0.0332031-0.4492188-0.0996094-0.6210938
		c-0.0654297-0.1728516-0.1533203-0.3115234-0.2636719-0.4179688s-0.2363281-0.1835938-0.3789062-0.2314453
		c-0.1435547-0.0478516-0.2919922-0.0712891-0.4462891-0.0712891c-0.2050781,0-0.3955078,0.0332031-0.5712891,0.0986328
		c-0.1767578,0.0664062-0.3300781,0.1708984-0.4628906,0.3134766c-0.1318359,0.1435547-0.234375,0.3251953-0.3076172,0.5449219
		s-0.1103516,0.4804688-0.1103516,0.78125v2.6835938h-0.9892578V9.1425781z"/>
</g>
<polygon opacity="0.99" fill="#F9E208" points="125.0259857,9.1881447 131.9871063,5.1691384 138.9482269,9.1881447 
	138.9482269,17.2261581 131.9871063,21.2451649 125.0259857,17.2261581 "/>
<circle fill="none" stroke="#FFFFFF" stroke-width="0.5" stroke-miterlimit="10" cx="132.0363464" cy="2.8286235" r="1.7466447"/>
<circle fill="none" stroke="#FFFFFF" stroke-width="0.5" stroke-miterlimit="10" cx="132.0363464" cy="13.1602249" r="1.7466447"/>
<circle fill="none" stroke="#FFFFFF" stroke-width="0.5" stroke-miterlimit="10" cx="132.0363464" cy="23.5535164" r="1.7466447"/>
<circle fill="none" stroke="#FFFFFF" stroke-width="0.5" stroke-miterlimit="10" cx="122.7258148" cy="18.471035" r="1.7466447"/>
<circle fill="none" stroke="#FFFFFF" stroke-width="0.5" stroke-miterlimit="10" cx="122.7258148" cy="8.1394339" r="1.7466447"/>
<circle fill="none" stroke="#FFFFFF" stroke-width="0.5" stroke-miterlimit="10" cx="141.381958" cy="18.471035" r="1.7466447"/>
<circle fill="none" stroke="#FFFFFF" stroke-width="0.5" stroke-miterlimit="10" cx="141.381958" cy="8.1394339" r="1.7466447"/>
<line fill="none" stroke="#FFFFFF" stroke-width="0.5" stroke-miterlimit="10" stroke-dasharray="0.7907899,0.7907899" x1="141.4949036" y1="10.5394821" x2="141.4949036" y2="16.75"/>
<line fill="none" stroke="#FFFFFF" stroke-width="0.5" stroke-miterlimit="10" stroke-dasharray="0.7907899,0.7907899" x1="122.7032318" y1="10.5394821" x2="122.7032318" y2="16.75"/>
<line fill="none" stroke="#FFFFFF" stroke-width="0.5" stroke-miterlimit="10" stroke-dasharray="0.7907899,0.7907899" x1="132.1199036" y1="15.6668816" x2="132.1199036" y2="21.8773994"/>
<line fill="none" stroke="#FFFFFF" stroke-width="0.5" stroke-miterlimit="10" x1="124.2755966" y1="7.2179332" x2="130.4857178" y2="3.6361592"/>
<line fill="none" stroke="#FFFFFF" stroke-width="0.5" stroke-miterlimit="10" stroke-dasharray="0.7872308,0.7873204" x1="133.5521393" y1="22.7045956" x2="139.813797" y2="19.2774315"/>
<line fill="none" stroke="#FFFFFF" stroke-width="0.5" stroke-miterlimit="10" stroke-dasharray="0.7873204,0.7873204" x1="124.3013687" y1="19.328968" x2="130.537262" y2="22.7045956"/>
<line fill="none" stroke="#FFFFFF" stroke-width="0.5" stroke-miterlimit="10" x1="133.5778961" y1="3.6876955" x2="139.891098" y2="7.2952375"/>
<line fill="none" stroke="#FFFFFF" stroke-width="0.5" stroke-miterlimit="10" x1="124.2498322" y1="9.0345888" x2="130.4341888" y2="12.3586807"/>
<line fill="none" stroke="#FFFFFF" stroke-width="0.5" stroke-miterlimit="10" x1="133.5650177" y1="12.3200283" x2="139.8653412" y2="8.957284"/>
<g>
</g>
<g>
</g>
<g>
</g>
<g>
</g>
<g>
</g>
<g>
</g>
<g>
</g>
<g>
</g>
<g>
</g>
<g>
</g>
<g>
</g>
<g>
</g>
<g>
</g>
<g>
</g>
<g>
</g>
</svg>
