<?xml version="1.0" encoding="UTF-8" standalone="no"?>
<!-- Created with Inkscape (http://www.inkscape.org/) -->

<svg
   xmlns:dc="http://purl.org/dc/elements/1.1/"
   xmlns:cc="http://creativecommons.org/ns#"
   xmlns:rdf="http://www.w3.org/1999/02/22-rdf-syntax-ns#"
   xmlns:svg="http://www.w3.org/2000/svg"
   xmlns="http://www.w3.org/2000/svg"
   xmlns:sodipodi="http://sodipodi.sourceforge.net/DTD/sodipodi-0.dtd"
   xmlns:inkscape="http://www.inkscape.org/namespaces/inkscape"
   version="1.1"
   id="svg2"
   xml:space="preserve"
   width="87.371994"
   height="32.088703"
   viewBox="0 0 87.371994 32.088703"
   sodipodi:docname="connect-on.svg"
   inkscape:version="0.92.2 5c3e80d, 2017-08-06"
   inkscape:export-filename="/Users/adam/Dropbox/NMRBox/web-graphics/community-tab/connect-on.png"
   inkscape:export-xdpi="198.99001"
   inkscape:export-ydpi="198.99001"><metadata
     id="metadata8"><rdf:RDF><cc:Work
         rdf:about=""><dc:format>image/svg+xml</dc:format><dc:type
           rdf:resource="http://purl.org/dc/dcmitype/StillImage" /><dc:title></dc:title></cc:Work></rdf:RDF></metadata><defs
     id="defs6"><clipPath
       clipPathUnits="userSpaceOnUse"
       id="clipPath18"><path
         d="M 0,40 H 240 V 0 H 0 Z"
         id="path16"
         inkscape:connector-curvature="0" /></clipPath><clipPath
       clipPathUnits="userSpaceOnUse"
       id="clipPath70"><path
         d="M 0,40 H 240 V 0 H 0 Z"
         id="path68"
         inkscape:connector-curvature="0" /></clipPath><clipPath
       clipPathUnits="userSpaceOnUse"
       id="clipPath30"><path
         d="M 5.04681,34.8309 H 18.9691 V 18.7548 H 5.04681 Z"
         id="path28"
         inkscape:connector-curvature="0" /></clipPath></defs><sodipodi:namedview
     pagecolor="#ffffff"
     bordercolor="#666666"
     borderopacity="1"
     objecttolerance="10"
     gridtolerance="10"
     guidetolerance="10"
     inkscape:pageopacity="0"
     inkscape:pageshadow="2"
     inkscape:window-width="1846"
     inkscape:window-height="1185"
     id="namedview4"
     showgrid="false"
     inkscape:pagecheckerboard="true"
     fit-margin-top="2"
     fit-margin-left="2"
     fit-margin-right="2"
     fit-margin-bottom="2"
     inkscape:zoom="9.2445745"
     inkscape:cx="37.086778"
     inkscape:cy="16.044353"
     inkscape:window-x="457"
     inkscape:window-y="119"
     inkscape:window-maximized="0"
     inkscape:current-layer="g10" /><g
     id="g10"
     inkscape:groupmode="layer"
     inkscape:label="co-icon-events-240x40"
     transform="matrix(1.3333333,0,0,-1.3333333,0.94025319,52.943918)"><text
       y="-21.874001"
       x="23.607401"
       style="font-variant:normal;font-weight:500;font-stretch:normal;font-size:11px;font-family:'Avenir Medium';-inkscape-font-specification:Avenir-Medium;writing-mode:lr-tb;fill:#fafafa;fill-opacity:1;fill-rule:nonzero;stroke:none;stroke-width:0.99999994"
       id="text62-6"
       transform="scale(1,-1)"><tspan
         style="font-style:normal;font-variant:normal;font-weight:500;font-stretch:normal;font-size:11px;font-family:Avenir;-inkscape-font-specification:'Avenir, Medium';font-variant-ligatures:normal;font-variant-caps:normal;font-variant-numeric:normal;font-feature-settings:normal;text-align:start;letter-spacing:-0.30000001px;writing-mode:lr-tb;text-anchor:start;fill:#fafafa;fill-opacity:1;stroke-width:0.99999994"
         sodipodi:role="line"
         id="tspan60-9"
         y="-21.874001"
         x="23.607401">Connect</tspan></text>
<g
       id="g12"><g
         transform="translate(11.0443,27.9577)"
         id="g20"><path
           inkscape:connector-curvature="0"
           id="path22"
           style="fill:#fafafa;fill-opacity:1;fill-rule:nonzero;stroke:none"
           d="m 0,0 c 0.585,-1.298 0.627,-2.613 0.125,-3.943 -0.502,-1.329 -1.403,-2.287 -2.701,-2.873 -1.298,-0.585 -2.615,-0.627 -3.95,-0.125 -1.335,0.501 -2.296,1.401 -2.881,2.7 -0.585,1.298 -0.625,2.615 -0.118,3.951 0.507,1.335 1.409,2.296 2.708,2.881 1.298,0.586 2.613,0.625 3.943,0.117 C -1.543,2.201 -0.585,1.298 0,0" /></g><g
         transform="translate(11.0443,27.9577)"
         id="g24"><path
           inkscape:connector-curvature="0"
           id="path26"
           style="fill:none;stroke:#fafafa;stroke-width:0.75;stroke-linecap:butt;stroke-linejoin:miter;stroke-miterlimit:4;stroke-dasharray:none;stroke-opacity:1"
           d="m 0,0 c 0.585,-1.298 0.627,-2.613 0.125,-3.943 -0.502,-1.329 -1.403,-2.287 -2.701,-2.873 -1.298,-0.585 -2.615,-0.627 -3.95,-0.125 -1.335,0.501 -2.296,1.401 -2.881,2.7 -0.585,1.298 -0.625,2.615 -0.118,3.951 0.507,1.335 1.409,2.296 2.708,2.881 1.298,0.586 2.613,0.625 3.943,0.117 C -1.543,2.201 -0.585,1.298 0,0 Z" /></g><g
         transform="translate(17.2914,32.0896)"
         id="g28"><path
           inkscape:connector-curvature="0"
           id="path30"
           style="fill:none;stroke:#fafafa;stroke-width:0.75;stroke-linecap:butt;stroke-linejoin:miter;stroke-miterlimit:4;stroke-dasharray:none;stroke-opacity:1"
           d="m 0,0 c -0.646,-0.683 -1.438,-1.038 -2.375,-1.065 -0.938,-0.027 -1.749,0.282 -2.432,0.928 -0.683,0.646 -1.039,1.439 -1.067,2.38 -0.029,0.941 0.279,1.753 0.925,2.436 0.646,0.683 1.44,1.037 2.383,1.063 0.942,0.025 1.755,-0.285 2.438,-0.93 C 0.555,4.166 0.909,3.373 0.933,2.434 0.957,1.494 0.646,0.683 0,0 Z" /></g><g
         transform="translate(19.1961,23.5342)"
         id="g32"><path
           inkscape:connector-curvature="0"
           id="path34"
           style="fill:#fafafa;fill-opacity:1;fill-rule:nonzero;stroke:none"
           d="m 0,0 c -0.651,0.054 -1.187,0.329 -1.609,0.826 -0.421,0.497 -0.605,1.071 -0.552,1.721 0.054,0.651 0.33,1.188 0.828,1.612 0.498,0.424 1.072,0.609 1.723,0.555 C 1.04,4.661 1.577,4.384 2,3.884 2.423,3.384 2.607,2.808 2.554,2.158 2.5,1.507 2.224,0.971 1.724,0.55 1.226,0.13 0.651,-0.054 0,0" /></g><g
         transform="translate(19.1961,23.5342)"
         id="g36"><path
           inkscape:connector-curvature="0"
           id="path38"
           style="fill:none;stroke:#fafafa;stroke-width:0.75;stroke-linecap:butt;stroke-linejoin:miter;stroke-miterlimit:4;stroke-dasharray:none;stroke-opacity:1"
           d="m 0,0 c -0.651,0.054 -1.187,0.329 -1.609,0.826 -0.421,0.497 -0.605,1.071 -0.552,1.721 0.054,0.651 0.33,1.188 0.828,1.612 0.498,0.424 1.072,0.609 1.723,0.555 C 1.04,4.661 1.577,4.384 2,3.884 2.423,3.384 2.607,2.808 2.554,2.158 2.5,1.507 2.224,0.971 1.724,0.55 1.226,0.13 0.651,-0.054 0,0 Z" /></g><g
         transform="translate(13.4954,17.8289)"
         id="g40"><path
           inkscape:connector-curvature="0"
           id="path42"
           style="fill:none;stroke:#fafafa;stroke-width:0.75;stroke-linecap:butt;stroke-linejoin:miter;stroke-miterlimit:4;stroke-dasharray:none;stroke-opacity:1"
           d="m 0,0 c -0.337,0.256 -0.535,0.592 -0.593,1.011 -0.058,0.418 0.041,0.795 0.296,1.133 0.256,0.337 0.593,0.535 1.013,0.594 C 1.135,2.797 1.514,2.698 1.851,2.443 2.188,2.187 2.385,1.85 2.443,1.429 2.5,1.009 2.401,0.63 2.146,0.293 1.891,-0.044 1.553,-0.241 1.134,-0.298 0.715,-0.355 0.337,-0.255 0,0 Z" /></g><g
         transform="translate(11.3892,25.885)"
         id="g44"><path
           inkscape:connector-curvature="0"
           id="path46"
           style="fill:none;stroke:#fafafa;stroke-width:0.75;stroke-linecap:butt;stroke-linejoin:miter;stroke-miterlimit:4;stroke-dasharray:none;stroke-opacity:1"
           d="M 0,0 H 5.517" /></g><g
         transform="translate(16.3257,31.5033)"
         id="g48"><path
           inkscape:connector-curvature="0"
           id="path50"
           style="fill:none;stroke:#fafafa;stroke-width:0.75;stroke-linecap:butt;stroke-linejoin:miter;stroke-miterlimit:4;stroke-dasharray:none;stroke-opacity:1"
           d="M 0,0 1.95,-3.791" /></g><g
         transform="translate(17.9398,24.2429)"
         id="g52"><path
           inkscape:connector-curvature="0"
           id="path54"
           style="fill:none;stroke:#fafafa;stroke-width:0.75;stroke-linecap:butt;stroke-linejoin:miter;stroke-miterlimit:4;stroke-dasharray:none;stroke-opacity:1"
           d="M 0,0 -2.698,-4.142" /></g><g
         transform="translate(9.8803,25.8201)"
         id="g56"
         style="fill:#f3ff9a;fill-opacity:0.99215686"><path
           inkscape:connector-curvature="0"
           id="path58"
           style="fill:#f3ff9a;fill-opacity:0.99215686;fill-rule:nonzero;stroke:none"
           d="m 0,0 c 0,-1.993 -1.616,-3.609 -3.609,-3.609 -1.993,0 -3.609,1.616 -3.609,3.609 0,1.993 1.616,3.609 3.609,3.609 C -1.616,3.609 0,1.993 0,0" /></g></g><g
       id="g72"
       transform="translate(18.2609,25.2606)"
       style="fill:#f3ff9a;fill-opacity:0.99215686"><path
         d="M 0,0 C -0.176,0.314 -0.215,0.644 -0.117,0.99 -0.02,1.336 0.186,1.596 0.5,1.772 0.814,1.948 1.145,1.987 1.492,1.89 1.839,1.793 2.1,1.587 2.276,1.273 2.452,0.959 2.49,0.628 2.392,0.281 2.293,-0.067 2.087,-0.328 1.773,-0.504 1.459,-0.68 1.129,-0.718 0.782,-0.619 0.437,-0.52 0.176,-0.314 0,0"
         style="fill:#f3ff9a;fill-opacity:0.99215686;fill-rule:nonzero;stroke:none"
         id="path74"
         inkscape:connector-curvature="0" /></g></g></svg>