<?xml version="1.0" encoding="UTF-8" standalone="no"?>
<!-- Created with Inkscape (http://www.inkscape.org/) -->

<svg
   xmlns:dc="http://purl.org/dc/elements/1.1/"
   xmlns:cc="http://creativecommons.org/ns#"
   xmlns:rdf="http://www.w3.org/1999/02/22-rdf-syntax-ns#"
   xmlns:svg="http://www.w3.org/2000/svg"
   xmlns="http://www.w3.org/2000/svg"
   xmlns:sodipodi="http://sodipodi.sourceforge.net/DTD/sodipodi-0.dtd"
   xmlns:inkscape="http://www.inkscape.org/namespaces/inkscape"
   version="1.1"
   id="svg2"
   xml:space="preserve"
   width="132.21635"
   height="36.958534"
   viewBox="0 0 132.21635 36.958533"
   sodipodi:docname="documentation-on.svg"
   inkscape:version="0.92.2 5c3e80d, 2017-08-06"
   inkscape:export-filename="/Users/adam/Dropbox/NMRBox/web-graphics/support-tab/documentation-on.png"
   inkscape:export-xdpi="83.120178"
   inkscape:export-ydpi="83.120178"><metadata
     id="metadata8"><rdf:RDF><cc:Work
         rdf:about=""><dc:format>image/svg+xml</dc:format><dc:type
           rdf:resource="http://purl.org/dc/dcmitype/StillImage" /><dc:title></dc:title></cc:Work></rdf:RDF></metadata><defs
     id="defs6"><clipPath
       clipPathUnits="userSpaceOnUse"
       id="clipPath22"><path
         d="M 0,40 H 240 V 0 H 0 Z"
         id="path20"
         inkscape:connector-curvature="0" /></clipPath><clipPath
       clipPathUnits="userSpaceOnUse"
       id="clipPath30"><path
         d="M 5.04681,34.8309 H 18.9691 V 18.7548 H 5.04681 Z"
         id="path28"
         inkscape:connector-curvature="0" /></clipPath><clipPath
       clipPathUnits="userSpaceOnUse"
       id="clipPath114"><path
         d="M 0,40 H 240 V 0 H 0 Z"
         id="path112"
         inkscape:connector-curvature="0" /></clipPath><clipPath
       clipPathUnits="userSpaceOnUse"
       id="clipPath122"><path
         d="m 125.026,34.8309 h 13.922 V 18.7548 h -13.922 z"
         id="path120"
         inkscape:connector-curvature="0" /></clipPath><clipPath
       clipPathUnits="userSpaceOnUse"
       id="clipPath22-2"><path
         d="M 0,40 H 240 V 0 H 0 Z"
         id="path20-5"
         inkscape:connector-curvature="0" /></clipPath><clipPath
       clipPathUnits="userSpaceOnUse"
       id="clipPath30-4"><path
         d="M 5.04681,34.8309 H 18.9691 V 18.7548 H 5.04681 Z"
         id="path28-2"
         inkscape:connector-curvature="0" /></clipPath><clipPath
       clipPathUnits="userSpaceOnUse"
       id="clipPath22-7"><path
         d="M 0,40 H 240 V 0 H 0 Z"
         id="path20-8"
         inkscape:connector-curvature="0" /></clipPath><clipPath
       clipPathUnits="userSpaceOnUse"
       id="clipPath30-1"><path
         d="M 5.04681,34.8309 H 18.9691 V 18.7548 H 5.04681 Z"
         id="path28-7"
         inkscape:connector-curvature="0" /></clipPath><clipPath
       clipPathUnits="userSpaceOnUse"
       id="clipPath22-74"><path
         d="M 0,40 H 240 V 0 H 0 Z"
         id="path20-9"
         inkscape:connector-curvature="0" /></clipPath><clipPath
       clipPathUnits="userSpaceOnUse"
       id="clipPath30-6"><path
         d="M 5.04681,34.8309 H 18.9691 V 18.7548 H 5.04681 Z"
         id="path28-9"
         inkscape:connector-curvature="0" /></clipPath><clipPath
       clipPathUnits="userSpaceOnUse"
       id="clipPath30-5"><path
         d="M 5.04681,34.8309 H 18.9691 V 18.7548 H 5.04681 Z"
         id="path28-6"
         inkscape:connector-curvature="0" /></clipPath><clipPath
       clipPathUnits="userSpaceOnUse"
       id="clipPath18"><path
         d="M 0,40 H 240 V 0 H 0 Z"
         id="path16"
         inkscape:connector-curvature="0" /></clipPath><clipPath
       clipPathUnits="userSpaceOnUse"
       id="clipPath30-64"><path
         d="M 5.04681,34.8309 H 18.9691 V 18.7548 H 5.04681 Z"
         id="path28-92"
         inkscape:connector-curvature="0" /></clipPath></defs><sodipodi:namedview
     pagecolor="#007e99"
     bordercolor="#666666"
     borderopacity="1"
     objecttolerance="10"
     gridtolerance="10"
     guidetolerance="10"
     inkscape:pageopacity="0"
     inkscape:pageshadow="2"
     inkscape:window-width="2313"
     inkscape:window-height="1293"
     id="namedview4"
     showgrid="false"
     fit-margin-top="2"
     fit-margin-left="2"
     fit-margin-right="2"
     fit-margin-bottom="2"
     inkscape:zoom="11.708083"
     inkscape:cx="16.142695"
     inkscape:cy="18.479267"
     inkscape:window-x="139"
     inkscape:window-y="78"
     inkscape:window-maximized="0"
     inkscape:current-layer="g10"
     inkscape:pagecheckerboard="true" /><g
     id="g10"
     inkscape:groupmode="layer"
     inkscape:label="team-icon-about-240x40"
     transform="matrix(1.3333333,0,0,-1.3333333,-3.164528,54.224532)"><text
       id="text1003-2-8"
       y="-22.541"
       x="27.541096"
       style="font-style:normal;font-variant:normal;font-weight:normal;font-stretch:normal;font-size:16.875px;line-height:125%;font-family:sans-serif;-inkscape-font-specification:'sans-serif, Normal';text-align:start;letter-spacing:0px;word-spacing:0px;writing-mode:lr-tb;text-anchor:start;fill:#d3e6ea;fill-opacity:1;stroke:none;stroke-width:0.75px;stroke-linecap:butt;stroke-linejoin:miter;stroke-opacity:1"
       xml:space="preserve"
       transform="scale(1,-1)"><tspan
         style="font-style:normal;font-variant:normal;font-weight:500;font-stretch:normal;font-size:11px;font-family:Avenir;-inkscape-font-specification:'Avenir, Medium';font-variant-ligatures:normal;font-variant-caps:normal;font-variant-numeric:normal;font-feature-settings:normal;text-align:start;letter-spacing:-0.30000001px;writing-mode:lr-tb;text-anchor:start;fill:#d3e6ea;fill-opacity:1;stroke-width:0.75px"
         y="-22.541"
         x="27.541096"
         id="tspan1001-2-4"
         sodipodi:role="line">Documentation</tspan></text>
<g
       id="g1072"><g
         transform="translate(3.1230961)"
         id="g24"
         style="fill:#03f3f9;fill-opacity:0.99215686"><g
           id="g26"
           style="fill:#03f3f9;fill-opacity:0.99215686" /><g
           id="g38"
           style="fill:#03f3f9;fill-opacity:0.99215686"><g
             style="opacity:0.99000501;fill:#03f3f9;fill-opacity:0.99215686"
             id="g36"
             clip-path="url(#clipPath30)"><g
               id="g34"
               transform="translate(5.0468,30.8119)"
               style="fill:#03f3f9;fill-opacity:0.99215686"><path
                 inkscape:connector-curvature="0"
                 id="path32"
                 style="fill:#03f3f9;fill-opacity:0.99215686;fill-rule:nonzero;stroke:none"
                 d="M 0,0 6.961,4.019 13.922,0 V -8.038 L 6.961,-12.057 0,-8.038 Z" /></g></g></g></g><g
         transform="translate(16.926896,37.1714)"
         id="g40"><path
           inkscape:connector-curvature="0"
           id="path42"
           style="fill:none;stroke:#000000;stroke-width:0.5;stroke-linecap:butt;stroke-linejoin:miter;stroke-miterlimit:10;stroke-dasharray:none;stroke-opacity:1"
           d="m 0,0 c 0,-0.965 -0.782,-1.747 -1.747,-1.747 -0.964,0 -1.746,0.782 -1.746,1.747 0,0.965 0.782,1.747 1.746,1.747 C -0.782,1.747 0,0.965 0,0 Z" /></g><g
         transform="translate(16.926896,26.8398)"
         id="g44"><path
           inkscape:connector-curvature="0"
           id="path46"
           style="fill:none;stroke:#000000;stroke-width:0.5;stroke-linecap:butt;stroke-linejoin:miter;stroke-miterlimit:10;stroke-dasharray:none;stroke-opacity:1"
           d="m 0,0 c 0,-0.965 -0.782,-1.747 -1.747,-1.747 -0.964,0 -1.746,0.782 -1.746,1.747 0,0.965 0.782,1.747 1.746,1.747 C -0.782,1.747 0,0.965 0,0 Z" /></g><g
         transform="translate(16.926896,16.4465)"
         id="g48"><path
           inkscape:connector-curvature="0"
           id="path50"
           style="fill:none;stroke:#000000;stroke-width:0.5;stroke-linecap:butt;stroke-linejoin:miter;stroke-miterlimit:10;stroke-dasharray:none;stroke-opacity:1"
           d="m 0,0 c 0,-0.965 -0.782,-1.747 -1.747,-1.747 -0.964,0 -1.746,0.782 -1.746,1.747 0,0.965 0.782,1.747 1.746,1.747 C -0.782,1.747 0,0.965 0,0 Z" /></g><g
         transform="translate(7.6163961,21.529)"
         id="g52"><path
           inkscape:connector-curvature="0"
           id="path54"
           style="fill:none;stroke:#000000;stroke-width:0.5;stroke-linecap:butt;stroke-linejoin:miter;stroke-miterlimit:10;stroke-dasharray:none;stroke-opacity:1"
           d="m 0,0 c 0,-0.965 -0.782,-1.747 -1.747,-1.747 -0.964,0 -1.746,0.782 -1.746,1.747 0,0.965 0.782,1.747 1.746,1.747 C -0.782,1.747 0,0.965 0,0 Z" /></g><g
         transform="translate(7.6163961,31.8606)"
         id="g56"><path
           inkscape:connector-curvature="0"
           id="path58"
           style="fill:none;stroke:#000000;stroke-width:0.5;stroke-linecap:butt;stroke-linejoin:miter;stroke-miterlimit:10;stroke-dasharray:none;stroke-opacity:1"
           d="m 0,0 c 0,-0.965 -0.782,-1.747 -1.747,-1.747 -0.964,0 -1.746,0.782 -1.746,1.747 0,0.965 0.782,1.747 1.746,1.747 C -0.782,1.747 0,0.965 0,0 Z" /></g><g
         transform="translate(26.272496,21.529)"
         id="g60"><path
           inkscape:connector-curvature="0"
           id="path62"
           style="fill:none;stroke:#000000;stroke-width:0.5;stroke-linecap:butt;stroke-linejoin:miter;stroke-miterlimit:10;stroke-dasharray:none;stroke-opacity:1"
           d="m 0,0 c 0,-0.965 -0.782,-1.747 -1.747,-1.747 -0.964,0 -1.746,0.782 -1.746,1.747 0,0.965 0.782,1.747 1.746,1.747 C -0.782,1.747 0,0.965 0,0 Z" /></g><g
         transform="translate(26.272496,31.8606)"
         id="g64"><path
           inkscape:connector-curvature="0"
           id="path66"
           style="fill:none;stroke:#000000;stroke-width:0.5;stroke-linecap:butt;stroke-linejoin:miter;stroke-miterlimit:10;stroke-dasharray:none;stroke-opacity:1"
           d="m 0,0 c 0,-0.965 -0.782,-1.747 -1.747,-1.747 -0.964,0 -1.746,0.782 -1.746,1.747 0,0.965 0.782,1.747 1.746,1.747 C -0.782,1.747 0,0.965 0,0 Z" /></g><g
         transform="translate(24.638796,29.4605)"
         id="g68"><path
           inkscape:connector-curvature="0"
           id="path70"
           style="fill:none;stroke:#000000;stroke-width:0.5;stroke-linecap:butt;stroke-linejoin:miter;stroke-miterlimit:10;stroke-dasharray:0.791, 0.791;stroke-dashoffset:0;stroke-opacity:1"
           d="M 0,0 V -6.211" /></g><g
         transform="translate(5.8471961,29.4605)"
         id="g72"><path
           inkscape:connector-curvature="0"
           id="path74"
           style="fill:none;stroke:#000000;stroke-width:0.5;stroke-linecap:butt;stroke-linejoin:miter;stroke-miterlimit:10;stroke-dasharray:0.791, 0.791;stroke-dashoffset:0;stroke-opacity:1"
           d="M 0,0 V -6.211" /></g><g
         transform="translate(15.263796,24.3331)"
         id="g76"><path
           inkscape:connector-curvature="0"
           id="path78"
           style="fill:none;stroke:#000000;stroke-width:0.5;stroke-linecap:butt;stroke-linejoin:miter;stroke-miterlimit:10;stroke-dasharray:0.791, 0.791;stroke-dashoffset:0;stroke-opacity:1"
           d="M 0,0 V -6.211" /></g><g
         transform="translate(7.4194961,32.7821)"
         id="g80"><path
           inkscape:connector-curvature="0"
           id="path82"
           style="fill:none;stroke:#000000;stroke-width:0.5;stroke-linecap:butt;stroke-linejoin:miter;stroke-miterlimit:10;stroke-dasharray:none;stroke-opacity:1"
           d="M 0,0 6.21,3.582" /></g><g
         transform="translate(16.696096,17.2954)"
         id="g84"><path
           inkscape:connector-curvature="0"
           id="path86"
           style="fill:none;stroke:#000000;stroke-width:0.5;stroke-linecap:butt;stroke-linejoin:miter;stroke-miterlimit:10;stroke-dasharray:0.787, 0.787;stroke-dashoffset:0;stroke-opacity:1"
           d="M 0,0 6.262,3.427" /></g><g
         transform="translate(7.4452961,20.671)"
         id="g88"><path
           inkscape:connector-curvature="0"
           id="path90"
           style="fill:none;stroke:#000000;stroke-width:0.5;stroke-linecap:butt;stroke-linejoin:miter;stroke-miterlimit:10;stroke-dasharray:0.787, 0.787;stroke-dashoffset:0;stroke-opacity:1"
           d="M 0,0 6.236,-3.376" /></g><g
         transform="translate(16.721796,36.3123)"
         id="g92"><path
           inkscape:connector-curvature="0"
           id="path94"
           style="fill:none;stroke:#000000;stroke-width:0.5;stroke-linecap:butt;stroke-linejoin:miter;stroke-miterlimit:10;stroke-dasharray:none;stroke-opacity:1"
           d="M 0,0 6.313,-3.608" /></g><g
         transform="translate(7.3937961,30.9654)"
         id="g96"><path
           inkscape:connector-curvature="0"
           id="path98"
           style="fill:none;stroke:#000000;stroke-width:0.5;stroke-linecap:butt;stroke-linejoin:miter;stroke-miterlimit:10;stroke-dasharray:none;stroke-opacity:1"
           d="M 0,0 6.184,-3.324" /></g><g
         transform="translate(16.708896,27.68)"
         id="g100"><path
           inkscape:connector-curvature="0"
           id="path102"
           style="fill:none;stroke:#000000;stroke-width:0.5;stroke-linecap:butt;stroke-linejoin:miter;stroke-miterlimit:10;stroke-dasharray:none;stroke-opacity:1"
           d="M 0,0 6.3,3.363" /></g></g></g></svg>