<?xml version="1.0" encoding="UTF-8" standalone="no"?>
<!-- Created with Inkscape (http://www.inkscape.org/) -->

<svg
   xmlns:dc="http://purl.org/dc/elements/1.1/"
   xmlns:cc="http://creativecommons.org/ns#"
   xmlns:rdf="http://www.w3.org/1999/02/22-rdf-syntax-ns#"
   xmlns:svg="http://www.w3.org/2000/svg"
   xmlns="http://www.w3.org/2000/svg"
   xmlns:sodipodi="http://sodipodi.sourceforge.net/DTD/sodipodi-0.dtd"
   xmlns:inkscape="http://www.inkscape.org/namespaces/inkscape"
   version="1.1"
   id="svg2"
   xml:space="preserve"
   width="109.31808"
   height="32.088703"
   viewBox="0 0 109.31808 32.088703"
   sodipodi:docname="publications-off.svg"
   inkscape:version="0.92.2 5c3e80d, 2017-08-06"
   inkscape:export-filename="/Users/adam/Dropbox/NMRBox/web-graphics/community-tab/publications-off.png"
   inkscape:export-xdpi="95.734627"
   inkscape:export-ydpi="95.734627"><metadata
     id="metadata8"><rdf:RDF><cc:Work
         rdf:about=""><dc:format>image/svg+xml</dc:format><dc:type
           rdf:resource="http://purl.org/dc/dcmitype/StillImage" /><dc:title></dc:title></cc:Work></rdf:RDF></metadata><defs
     id="defs6"><clipPath
       clipPathUnits="userSpaceOnUse"
       id="clipPath18"><path
         d="M 0,40 H 240 V 0 H 0 Z"
         id="path16"
         inkscape:connector-curvature="0" /></clipPath><clipPath
       clipPathUnits="userSpaceOnUse"
       id="clipPath70"><path
         d="M 0,40 H 240 V 0 H 0 Z"
         id="path68"
         inkscape:connector-curvature="0" /></clipPath></defs><sodipodi:namedview
     pagecolor="#ffffff"
     bordercolor="#666666"
     borderopacity="1"
     objecttolerance="10"
     gridtolerance="10"
     guidetolerance="10"
     inkscape:pageopacity="0"
     inkscape:pageshadow="2"
     inkscape:window-width="1935"
     inkscape:window-height="1121"
     id="namedview4"
     showgrid="false"
     inkscape:pagecheckerboard="true"
     inkscape:zoom="6.9412996"
     inkscape:cx="-1.4301"
     inkscape:cy="8.6483334"
     inkscape:window-x="217"
     inkscape:window-y="142"
     inkscape:window-maximized="0"
     inkscape:current-layer="g10"
     fit-margin-top="2"
     fit-margin-left="2"
     fit-margin-right="2"
     fit-margin-bottom="2" /><g
     id="g10"
     inkscape:groupmode="layer"
     inkscape:label="co-icon-events-240x40"
     transform="matrix(1.3333333,0,0,-1.3333333,-159.05974,52.943918)"><text
       xml:space="preserve"
       style="font-style:normal;font-variant:normal;font-weight:normal;font-stretch:normal;font-size:18px;line-height:125%;font-family:Calibri;-inkscape-font-specification:'Calibri, Normal';text-align:justify;letter-spacing:0px;word-spacing:0px;writing-mode:lr-tb;text-anchor:start;fill:#d3e6ea;fill-opacity:1;stroke:none;stroke-width:0.75px;stroke-linecap:butt;stroke-linejoin:miter;stroke-opacity:1"
       x="143.60741"
       y="-21.874001"
       id="text948"
       transform="scale(1,-1)"><tspan
         sodipodi:role="line"
         id="tspan946"
         x="143.60741"
         y="-21.874001"
         style="font-style:normal;font-variant:normal;font-weight:500;font-stretch:normal;font-size:11px;font-family:Avenir;-inkscape-font-specification:'Avenir, Medium';font-variant-ligatures:normal;font-variant-caps:normal;font-variant-numeric:normal;font-feature-settings:normal;text-align:justify;letter-spacing:-0.30000001px;writing-mode:lr-tb;text-anchor:start;fill:#d3e6ea;fill-opacity:1;stroke-width:0.75px">Publications</tspan></text>
<g
       id="g76"
       transform="translate(131.0443,27.9577)"><path
         d="m 0,0 c 0.585,-1.298 0.627,-2.613 0.125,-3.943 -0.502,-1.329 -1.403,-2.287 -2.701,-2.873 -1.298,-0.585 -2.615,-0.627 -3.95,-0.125 -1.335,0.501 -2.296,1.401 -2.881,2.7 -0.585,1.298 -0.625,2.615 -0.118,3.951 0.507,1.335 1.409,2.296 2.708,2.881 1.298,0.586 2.613,0.625 3.943,0.117 C -1.543,2.201 -0.585,1.298 0,0 Z"
         style="fill:none;stroke:#d3e6ea;stroke-width:0.75;stroke-linecap:butt;stroke-linejoin:miter;stroke-miterlimit:4;stroke-dasharray:none;stroke-opacity:1"
         id="path78"
         inkscape:connector-curvature="0" /></g><g
       id="g80"
       transform="translate(137.2914,32.0896)"><path
         d="m 0,0 c -0.646,-0.683 -1.438,-1.038 -2.375,-1.065 -0.938,-0.027 -1.749,0.282 -2.432,0.928 -0.683,0.646 -1.039,1.439 -1.067,2.38 -0.029,0.941 0.279,1.753 0.925,2.436 0.646,0.683 1.44,1.037 2.383,1.063 0.942,0.025 1.755,-0.285 2.438,-0.93 C 0.555,4.166 0.909,3.373 0.933,2.434 0.957,1.494 0.646,0.683 0,0 Z"
         style="fill:none;stroke:#d3e6ea;stroke-width:0.75;stroke-linecap:butt;stroke-linejoin:miter;stroke-miterlimit:4;stroke-dasharray:none;stroke-opacity:1"
         id="path82"
         inkscape:connector-curvature="0" /></g><g
       id="g84"
       transform="translate(139.1961,23.5342)"><path
         d="M 0,0 C -0.651,0.054 -1.187,0.329 -1.609,0.826 -2.03,1.323 -2.214,1.897 -2.16,2.547 -2.107,3.198 -1.831,3.735 -1.333,4.159 -0.835,4.583 -0.261,4.768 0.39,4.714 1.04,4.661 1.577,4.384 2,3.884 2.423,3.384 2.607,2.808 2.554,2.158 2.5,1.507 2.224,0.971 1.724,0.55 1.226,0.13 0.651,-0.054 0,0 Z"
         style="fill:none;stroke:#d3e6ea;stroke-width:0.75;stroke-linecap:butt;stroke-linejoin:miter;stroke-miterlimit:4;stroke-dasharray:none;stroke-opacity:1"
         id="path86"
         inkscape:connector-curvature="0" /></g><g
       id="g88"
       transform="translate(133.4954,17.8289)"><path
         d="m 0,0 c -0.337,0.256 -0.535,0.592 -0.593,1.011 -0.058,0.418 0.041,0.795 0.296,1.133 0.256,0.337 0.593,0.535 1.013,0.594 C 1.135,2.797 1.514,2.698 1.851,2.443 2.188,2.187 2.385,1.85 2.443,1.429 2.5,1.009 2.401,0.63 2.146,0.293 1.891,-0.044 1.553,-0.241 1.134,-0.298 0.715,-0.355 0.337,-0.255 0,0 Z"
         style="fill:none;stroke:#d3e6ea;stroke-width:0.75;stroke-linecap:butt;stroke-linejoin:miter;stroke-miterlimit:4;stroke-dasharray:none;stroke-opacity:1"
         id="path90"
         inkscape:connector-curvature="0" /></g><g
       id="g92"
       transform="translate(131.3892,25.885)"><path
         d="M 0,0 H 5.517"
         style="fill:none;stroke:#d3e6ea;stroke-width:0.75;stroke-linecap:butt;stroke-linejoin:miter;stroke-miterlimit:4;stroke-dasharray:none;stroke-opacity:1"
         id="path94"
         inkscape:connector-curvature="0" /></g><g
       id="g96"
       transform="translate(136.3257,31.5033)"><path
         d="M 0,0 1.95,-3.791"
         style="fill:none;stroke:#d3e6ea;stroke-width:0.75;stroke-linecap:butt;stroke-linejoin:miter;stroke-miterlimit:4;stroke-dasharray:none;stroke-opacity:1"
         id="path98"
         inkscape:connector-curvature="0" /></g><g
       id="g100"
       transform="translate(137.9398,24.2429)"><path
         d="M 0,0 -2.698,-4.142"
         style="fill:none;stroke:#d3e6ea;stroke-width:0.75;stroke-linecap:butt;stroke-linejoin:miter;stroke-miterlimit:4;stroke-dasharray:none;stroke-opacity:1"
         id="path102"
         inkscape:connector-curvature="0" /></g></g></svg>