<?xml version="1.0" encoding="utf-8"?>
<!-- Generator: Adobe Illustrator 17.1.0, SVG Export Plug-In . SVG Version: 6.00 Build 0)  -->
<!DOCTYPE svg PUBLIC "-//W3C//DTD SVG 1.1//EN" "http://www.w3.org/Graphics/SVG/1.1/DTD/svg11.dtd">
<svg version="1.1" id="Layer_1" xmlns="http://www.w3.org/2000/svg" xmlns:xlink="http://www.w3.org/1999/xlink" x="0px" y="0px"
	 width="240px" height="40px" viewBox="0 0 240 40" enable-background="new 0 0 240 40" xml:space="preserve">
<path fill="none" stroke="#979797" stroke-width="0.9915338" stroke-miterlimit="10" d="M24.4307995,20.3267651"/>
<g>
	<path fill="#436BB3" d="M30.8662109,4.3574219c-0.2822266-0.3432617-0.6289062-0.6069336-1.0395508-0.7910156
		c-0.4111328-0.184082-0.8867188-0.2763672-1.4262695-0.2763672c-0.5400391,0-1.0395508,0.1044922-1.5,0.3129883
		c-0.4599609,0.2089844-0.8588867,0.5-1.1958008,0.8740234c-0.3378906,0.3745117-0.6015625,0.8188477-0.7915039,1.3344727
		c-0.1904297,0.5151367-0.2851562,1.0737305-0.2851562,1.6743164c0,0.6137695,0.0947266,1.175293,0.2851562,1.684082
		c0.1899414,0.5092773,0.4506836,0.9506836,0.7822266,1.324707c0.3310547,0.3745117,0.7207031,0.6660156,1.168457,0.8745117
		s0.9291992,0.3125,1.4448242,0.3125c0.5888672,0,1.1098633-0.1225586,1.5639648-0.3676758
		c0.4536133-0.2456055,0.828125-0.5893555,1.1225586-1.0307617l2.3925781,1.7851562
		c-0.5522461,0.7729492-1.2514648,1.3432617-2.0981445,1.7114258s-1.7177734,0.5517578-2.6132812,0.5517578
		c-1.0180664,0-1.9570312-0.1591797-2.8154297-0.4785156c-0.8588867-0.3188477-1.6010742-0.7753906-2.2265625-1.3706055
		c-0.6259766-0.5952148-1.1132812-1.315918-1.4628906-2.1625977c-0.3500977-0.8461914-0.5249023-1.7910156-0.5249023-2.8339844
		c0-1.0424805,0.1748047-1.9873047,0.5249023-2.8339844c0.3496094-0.8461914,0.8369141-1.5668945,1.4628906-2.1621094
		c0.6254883-0.5947266,1.3676758-1.0517578,2.2265625-1.3710938c0.8583984-0.3188477,1.7973633-0.4785156,2.8154297-0.4785156
		c0.3681641,0,0.7514648,0.0341797,1.1503906,0.1015625c0.3984375,0.0673828,0.7910156,0.1748047,1.1777344,0.3217773
		c0.3862305,0.1474609,0.7573242,0.34375,1.1132812,0.5888672c0.3554688,0.2456055,0.6748047,0.5458984,0.9570312,0.9018555
		L30.8662109,4.3574219z"/>
	<path fill="#436BB3" d="M41.3920898,4.1552734c-0.2329102-0.2944336-0.5488281-0.512207-0.9472656-0.6533203
		c-0.3989258-0.1411133-0.7763672-0.2119141-1.1318359-0.2119141c-0.2089844,0-0.4233398,0.0249023-0.644043,0.0737305
		c-0.2211914,0.0493164-0.4296875,0.1259766-0.6259766,0.2299805c-0.1962891,0.1044922-0.355957,0.2426758-0.4785156,0.4140625
		c-0.1225586,0.171875-0.184082,0.3803711-0.184082,0.6259766c0,0.3925781,0.1474609,0.6928711,0.4418945,0.9013672
		c0.2944336,0.2089844,0.6655273,0.3867188,1.1132812,0.5336914c0.4477539,0.1474609,0.9291992,0.2944336,1.4448242,0.4418945
		c0.5151367,0.1469727,0.996582,0.355957,1.4443359,0.6254883c0.4477539,0.2700195,0.8188477,0.6323242,1.1132812,1.0859375
		c0.2944336,0.4541016,0.4418945,1.0610352,0.4418945,1.8217773c0,0.7241211-0.1352539,1.355957-0.4047852,1.8955078
		c-0.2700195,0.5400391-0.6352539,0.987793-1.0952148,1.3432617c-0.4599609,0.355957-0.9936523,0.6196289-1.6010742,0.7915039
		c-0.6069336,0.1713867-1.2485352,0.2573242-1.9228516,0.2573242c-0.8466797,0-1.6318359-0.128418-2.3554688-0.3862305
		c-0.7241211-0.2578125-1.3989258-0.6748047-2.0244141-1.2514648l2.0424805-2.2451172
		c0.2944336,0.3930664,0.6655273,0.6962891,1.1137695,0.9111328c0.4477539,0.2148438,0.9106445,0.3217773,1.3891602,0.3217773
		c0.2329102,0,0.4692383-0.0273438,0.7084961-0.0825195s0.4536133-0.1381836,0.644043-0.2485352
		c0.1899414-0.1103516,0.3432617-0.2514648,0.4599609-0.4233398s0.1748047-0.3740234,0.1748047-0.6074219
		c0-0.3920898-0.1503906-0.7021484-0.4506836-0.9291992c-0.3007812-0.2270508-0.6782227-0.4199219-1.1318359-0.5795898
		c-0.4541016-0.1591797-0.9448242-0.3188477-1.472168-0.4785156c-0.5273438-0.1591797-1.0185547-0.3740234-1.472168-0.644043
		c-0.4541016-0.2695312-0.8310547-0.6254883-1.1318359-1.0673828s-0.4506836-1.0244141-0.4506836-1.7480469
		c0-0.699707,0.1381836-1.3129883,0.4140625-1.840332s0.644043-0.9692383,1.1040039-1.3251953
		c0.4599609-0.3554688,0.9907227-0.6225586,1.5917969-0.800293s1.2207031-0.2670898,1.8588867-0.2670898
		c0.7358398,0,1.4472656,0.1044922,2.1347656,0.3129883c0.6865234,0.2089844,1.3061523,0.5585938,1.8583984,1.0488281
		L41.3920898,4.1552734z"/>
</g>
<path fill="none" stroke="#979797" stroke-width="0.9915338" stroke-miterlimit="10" d="M24.5442295,20.2938766"/>
<g>
	<path fill="#436BB3" d="M28.4433594,18.4208984c-0.2426758-0.315918-0.550293-0.5585938-0.9223633-0.7285156
		C27.1484375,17.5224609,26.7641602,17.4375,26.3676758,17.4375c-0.4853516,0-0.9248047,0.0913086-1.3168945,0.2734375
		c-0.3925781,0.1816406-0.7285156,0.4306641-1.0078125,0.7460938c-0.2788086,0.315918-0.4956055,0.6860352-0.6494141,1.1108398
		s-0.2304688,0.8798828-0.2304688,1.3662109c0,0.4536133,0.0727539,0.8823242,0.21875,1.2866211
		c0.1455078,0.4042969,0.355957,0.7607422,0.6308594,1.0683594c0.2753906,0.3076172,0.6108398,0.5498047,1.0078125,0.7285156
		c0.3959961,0.1777344,0.8452148,0.2666016,1.347168,0.2666016c0.4936523,0,0.9267578-0.1005859,1.2988281-0.3037109
		c0.3720703-0.2021484,0.6879883-0.4853516,0.9467773-0.8496094l0.9833984,0.7402344
		c-0.0649414,0.0898438-0.1782227,0.2167969-0.3398438,0.3828125c-0.1621094,0.1660156-0.3764648,0.3320312-0.6435547,0.4980469
		s-0.5888672,0.3115234-0.9648438,0.4365234c-0.3764648,0.125-0.8115234,0.1884766-1.3051758,0.1884766
		c-0.6796875,0-1.2924805-0.1298828-1.8388672-0.3886719s-1.0117188-0.5986328-1.3959961-1.0195312
		s-0.6777344-0.8964844-0.8798828-1.4267578c-0.2026367-0.5292969-0.3037109-1.0654297-0.3037109-1.6079102
		c0-0.6640625,0.109375-1.2768555,0.328125-1.8393555c0.2182617-0.5625,0.5234375-1.0483398,0.9165039-1.4570312
		c0.3920898-0.4082031,0.8632812-0.7260742,1.4140625-0.9526367c0.550293-0.2265625,1.1572266-0.3398438,1.8208008-0.3398438
		c0.5664062,0,1.1225586,0.109375,1.6689453,0.3276367s0.9931641,0.5541992,1.3413086,1.0073242L28.4433594,18.4208984z"/>
	<path fill="#436BB3" d="M30.421875,15.980957h1.0927734v4.309082h0.0244141
		c0.137207-0.3071289,0.3759766-0.5561523,0.7158203-0.746582c0.3398438-0.1899414,0.7324219-0.2851562,1.1777344-0.2851562
		c0.2749023,0,0.5400391,0.0424805,0.7949219,0.1274414s0.4775391,0.2167969,0.6674805,0.3945312
		c0.1904297,0.1782227,0.3417969,0.4067383,0.4555664,0.6860352c0.112793,0.2788086,0.1699219,0.6088867,0.1699219,0.9897461
		v3.7021484h-1.0927734v-3.3984375c0-0.2675781-0.0361328-0.4960938-0.109375-0.6865234
		c-0.0727539-0.1899414-0.1699219-0.3442383-0.2910156-0.4614258c-0.121582-0.1171875-0.2612305-0.2021484-0.4189453-0.2548828
		s-0.3217773-0.0791016-0.4916992-0.0791016c-0.2265625,0-0.4370117,0.0366211-0.6308594,0.109375
		c-0.1943359,0.0727539-0.3642578,0.1879883-0.5097656,0.3461914c-0.1459961,0.1577148-0.2592773,0.3583984-0.340332,0.6015625
		c-0.0805664,0.2421875-0.1210938,0.5292969-0.1210938,0.8613281v2.9619141H30.421875V15.980957z"/>
	<path fill="#436BB3" d="M37.6928711,22.6816406c0,0.2509766,0.0546875,0.4794922,0.1640625,0.6865234
		c0.1088867,0.2060547,0.2524414,0.3818359,0.4306641,0.5273438c0.1777344,0.1455078,0.3842773,0.2597656,0.6191406,0.3398438
		c0.234375,0.0810547,0.4775391,0.1220703,0.7280273,0.1220703c0.340332,0,0.6352539-0.0791016,0.8862305-0.2373047
		c0.2509766-0.1572266,0.4814453-0.3662109,0.6918945-0.625l0.8256836,0.6308594
		c-0.6069336,0.7851562-1.456543,1.1777344-2.5493164,1.1777344c-0.453125,0-0.8637695-0.0771484-1.2319336-0.2304688
		s-0.6796875-0.3662109-0.9345703-0.6376953c-0.2548828-0.2705078-0.4511719-0.5898438-0.5888672-0.9589844
		c-0.1376953-0.3681641-0.206543-0.7666016-0.206543-1.1953125s0.074707-0.8271484,0.2246094-1.1953125
		c0.1499023-0.3686523,0.355957-0.6884766,0.6191406-0.9594727s0.5766602-0.4833984,0.940918-0.6376953
		c0.3642578-0.1533203,0.7602539-0.2304688,1.1894531-0.2304688c0.5097656,0,0.940918,0.0893555,1.2929688,0.2670898
		c0.3520508,0.1782227,0.6411133,0.4106445,0.8676758,0.6982422c0.2265625,0.2871094,0.3901367,0.6108398,0.4916992,0.9716797
		c0.1010742,0.359375,0.1518555,0.7255859,0.1518555,1.0986328v0.3876953H37.6928711z M41.1401367,21.8076172
		c-0.0083008-0.2421875-0.0463867-0.4648438-0.1152344-0.6679688c-0.0688477-0.2016602-0.171875-0.3779297-0.3095703-0.527832
		c-0.1376953-0.1494141-0.3095703-0.2670898-0.5161133-0.3520508c-0.2060547-0.0849609-0.4467773-0.1274414-0.722168-0.1274414
		c-0.2670898,0-0.5117188,0.0507812-0.734375,0.1518555s-0.4106445,0.2324219-0.5644531,0.3945312
		c-0.1538086,0.1616211-0.2729492,0.3417969-0.3579102,0.5410156c-0.0849609,0.1982422-0.1274414,0.3935547-0.1274414,0.5878906
		H41.1401367z"/>
	<path fill="#436BB3" d="M43.3129883,19.4038086h1.0200195v0.8984375h0.0239258
		c0.0244141-0.0805664,0.0869141-0.1821289,0.1884766-0.3032227c0.1010742-0.121582,0.2304688-0.2368164,0.3881836-0.3461914
		s0.34375-0.2021484,0.5585938-0.2792969c0.2143555-0.0766602,0.4506836-0.1152344,0.7099609-0.1152344
		c0.4287109,0,0.7890625,0.0893555,1.0805664,0.2670898c0.2910156,0.1782227,0.5297852,0.4453125,0.7158203,0.8012695
		c0.1860352-0.355957,0.4492188-0.6230469,0.7890625-0.8012695c0.3398438-0.1777344,0.684082-0.2670898,1.0317383-0.2670898
		c0.4453125,0,0.809082,0.0727539,1.0927734,0.21875c0.2832031,0.1455078,0.5053711,0.3378906,0.6674805,0.5761719
		c0.1616211,0.2392578,0.2729492,0.5102539,0.3339844,0.8134766c0.0605469,0.3041992,0.0908203,0.6176758,0.0908203,0.940918
		v3.3505859h-1.0922852v-3.2041016c0-0.21875-0.0141602-0.4296875-0.0424805-0.6318359
		c-0.0288086-0.2021484-0.0874023-0.3803711-0.1762695-0.534668c-0.0888672-0.1533203-0.2143555-0.2768555-0.3759766-0.3701172
		c-0.1621094-0.0927734-0.3764648-0.1396484-0.6435547-0.1396484c-0.5263672,0-0.9023438,0.1621094-1.1289062,0.4858398
		c-0.2265625,0.3242188-0.3398438,0.7412109-0.3398438,1.2509766v3.1435547H47.112793v-3.0107422
		c0-0.2744141-0.0146484-0.5253906-0.0424805-0.7519531c-0.0288086-0.2265625-0.0849609-0.4233398-0.1699219-0.5893555
		s-0.206543-0.2954102-0.3642578-0.3886719c-0.1577148-0.0927734-0.3701172-0.1396484-0.637207-0.1396484
		c-0.1943359,0-0.3823242,0.0385742-0.5644531,0.1157227c-0.1821289,0.0766602-0.3422852,0.1918945-0.4794922,0.3457031
		c-0.1376953,0.1538086-0.2470703,0.3505859-0.328125,0.5888672c-0.0805664,0.2392578-0.1210938,0.5205078-0.1210938,0.84375
		v2.9863281h-1.0927734V19.4038086z"/>
	<path fill="#436BB3" d="M53.1811523,17.340332c0-0.2182617,0.0791016-0.40625,0.2368164-0.5644531
		c0.1577148-0.1577148,0.3461914-0.2363281,0.5644531-0.2363281c0.21875,0,0.4067383,0.0786133,0.5644531,0.2363281
		c0.1577148,0.1582031,0.2368164,0.3461914,0.2368164,0.5644531c0,0.21875-0.0791016,0.4067383-0.2368164,0.5644531
		s-0.3457031,0.2368164-0.5644531,0.2368164c-0.2182617,0-0.4067383-0.0791016-0.5644531-0.2368164
		S53.1811523,17.559082,53.1811523,17.340332z M53.4360352,19.4038086h1.0927734v5.7543945h-1.0927734V19.4038086z"/>
	<path fill="#436BB3" d="M60.0761719,20.934082c-0.2026367-0.2109375-0.4150391-0.3706055-0.637207-0.4799805
		c-0.2226562-0.109375-0.487793-0.1640625-0.7954102-0.1640625c-0.2993164,0-0.5600586,0.0546875-0.7827148,0.1640625
		s-0.4086914,0.2587891-0.5585938,0.4487305c-0.1494141,0.190918-0.2626953,0.409668-0.3398438,0.6567383
		c-0.0766602,0.2460938-0.1152344,0.5029297-0.1152344,0.7705078c0,0.2666016,0.0444336,0.5195312,0.1337891,0.7587891
		c0.0888672,0.2382812,0.2143555,0.4472656,0.3759766,0.625c0.1621094,0.1777344,0.355957,0.3173828,0.5830078,0.4189453
		c0.2260742,0.1005859,0.480957,0.1513672,0.7646484,0.1513672c0.3071289,0,0.5703125-0.0546875,0.7890625-0.1640625
		c0.2182617-0.109375,0.4204102-0.2685547,0.6069336-0.4794922l0.7768555,0.7773438
		c-0.2836914,0.3154297-0.6132812,0.5419922-0.9892578,0.6796875c-0.3764648,0.1376953-0.7753906,0.2060547-1.1958008,0.2060547
		c-0.4453125,0-0.8520508-0.0722656-1.2197266-0.21875c-0.3686523-0.1455078-0.6860352-0.3496094-0.953125-0.6123047
		s-0.4736328-0.5791016-0.6191406-0.9472656s-0.2182617-0.7744141-0.2182617-1.2197266s0.0727539-0.8535156,0.2182617-1.2265625
		c0.1455078-0.3720703,0.3500977-0.6918945,0.6132812-0.9589844c0.2626953-0.2670898,0.578125-0.4750977,0.9467773-0.625
		c0.3681641-0.1499023,0.7788086-0.2246094,1.2319336-0.2246094c0.4204102,0,0.8232422,0.074707,1.2075195,0.2246094
		s0.7182617,0.378418,1.0014648,0.6855469L60.0761719,20.934082z"/>
	<path fill="#436BB3" d="M61.5322266,20.1079102c0.3076172-0.2832031,0.6635742-0.4956055,1.0683594-0.637207
		c0.4042969-0.1416016,0.809082-0.2124023,1.2138672-0.2124023c0.4204102,0,0.7827148,0.0527344,1.0864258,0.1577148
		c0.3032227,0.1054688,0.5522461,0.2470703,0.746582,0.4248047c0.1938477,0.1782227,0.3374023,0.3828125,0.4306641,0.6132812
		s0.1396484,0.4711914,0.1396484,0.7226562v2.9375c0,0.2021484,0.0039062,0.3886719,0.012207,0.5585938
		c0.0078125,0.1699219,0.0200195,0.3320312,0.0361328,0.4853516h-0.9707031
		c-0.0244141-0.2910156-0.0366211-0.5830078-0.0366211-0.8740234H65.234375
		c-0.2426758,0.3720703-0.5297852,0.6357422-0.8618164,0.7890625c-0.331543,0.1533203-0.7158203,0.2304688-1.152832,0.2304688
		c-0.2670898,0-0.5219727-0.0361328-0.7646484-0.109375c-0.2431641-0.0722656-0.4555664-0.1816406-0.6376953-0.3271484
		s-0.3256836-0.3261719-0.4306641-0.5400391c-0.1054688-0.2148438-0.1577148-0.4638672-0.1577148-0.7470703
		c0-0.3720703,0.0825195-0.6835938,0.2485352-0.9345703s0.3925781-0.4550781,0.6796875-0.6132812
		c0.2875977-0.1572266,0.6230469-0.2705078,1.0078125-0.3398438c0.3842773-0.0683594,0.7949219-0.1025391,1.2319336-0.1025391
		h0.8012695v-0.2431641c0-0.1455078-0.0283203-0.2910156-0.0849609-0.4379883
		c-0.0566406-0.1450195-0.1416016-0.2763672-0.2548828-0.394043c-0.1137695-0.1171875-0.2548828-0.2104492-0.4248047-0.2792969
		c-0.1699219-0.0683594-0.3725586-0.1030273-0.6069336-0.1030273c-0.2104492,0-0.3945312,0.0205078-0.5522461,0.0605469
		c-0.1582031,0.0405273-0.3017578,0.0913086-0.4311523,0.1518555s-0.2470703,0.1318359-0.3520508,0.2124023
		c-0.1049805,0.0810547-0.206543,0.1577148-0.3032227,0.2304688L61.5322266,20.1079102z M64.6157227,22.390625
		c-0.2592773,0-0.5244141,0.0146484-0.7954102,0.0419922c-0.2709961,0.0292969-0.5180664,0.0839844-0.7402344,0.1640625
		c-0.2226562,0.0810547-0.4047852,0.1943359-0.5463867,0.3398438s-0.2124023,0.3320312-0.2124023,0.5585938
		c0,0.3320312,0.1113281,0.5703125,0.3339844,0.7158203c0.222168,0.1464844,0.5239258,0.21875,0.9042969,0.21875
		c0.2993164,0,0.5541992-0.0498047,0.7646484-0.1513672s0.3803711-0.2324219,0.5097656-0.3945312
		s0.2226562-0.3417969,0.2792969-0.5400391s0.0849609-0.3945312,0.0849609-0.5888672V22.390625H64.6157227z"/>
	<path fill="#436BB3" d="M67.5893555,15.980957h1.0927734v9.1772461h-1.0927734V15.980957z"/>
	<path fill="#436BB3" d="M22.7138672,34.4882812c0.2104492,0.3164062,0.4794922,0.5488281,0.8071289,0.6982422
		c0.328125,0.1503906,0.6655273,0.2246094,1.0136719,0.2246094c0.1943359,0,0.3925781-0.0302734,0.5947266-0.0908203
		s0.3867188-0.1523438,0.5527344-0.2734375c0.1655273-0.1210938,0.3012695-0.2705078,0.40625-0.4492188
		c0.1054688-0.1777344,0.1577148-0.3837891,0.1577148-0.6191406c0-0.3310547-0.1049805-0.5839844-0.3154297-0.7587891
		c-0.2104492-0.1738281-0.4716797-0.3193359-0.7827148-0.4365234c-0.3120117-0.1171875-0.6518555-0.2304688-1.0200195-0.3398438
		s-0.7080078-0.2607422-1.0195312-0.4550781s-0.5722656-0.4550781-0.7827148-0.7832031s-0.315918-0.7705078-0.315918-1.3291016
		c0-0.2509766,0.0546875-0.5175781,0.1640625-0.8007812s0.28125-0.5419922,0.5161133-0.7773438
		c0.234375-0.234375,0.5356445-0.4306641,0.9042969-0.5888672c0.3681641-0.1572266,0.8110352-0.2363281,1.3291016-0.2363281
		c0.4692383,0,0.918457,0.0644531,1.347168,0.1943359c0.4287109,0.1289062,0.8051758,0.3925781,1.1289062,0.7890625
		l-0.9467773,0.8613281c-0.1455078-0.2265625-0.3520508-0.4082031-0.6191406-0.5458984s-0.5703125-0.2060547-0.9101562-0.2060547
		c-0.3237305,0-0.5927734,0.0419922-0.8071289,0.1269531c-0.2148438,0.0849609-0.3867188,0.1943359-0.5161133,0.328125
		c-0.1293945,0.1328125-0.2207031,0.2773438-0.2729492,0.4306641c-0.0527344,0.1533203-0.0791016,0.2958984-0.0791016,0.4248047
		c0,0.3642578,0.1049805,0.6435547,0.3154297,0.8378906s0.4716797,0.3515625,0.7832031,0.4726562
		c0.3115234,0.1220703,0.6513672,0.2314453,1.0195312,0.328125s0.7080078,0.2324219,1.0195312,0.40625
		c0.3115234,0.1748047,0.5727539,0.4091797,0.7832031,0.7041016c0.2104492,0.2958984,0.3154297,0.7021484,0.3154297,1.2207031
		c0,0.4121094-0.0786133,0.7841797-0.2368164,1.1162109c-0.1577148,0.3320312-0.3701172,0.6113281-0.637207,0.8378906
		s-0.5825195,0.4003906-0.9467773,0.5214844c-0.3642578,0.1220703-0.7524414,0.1826172-1.1650391,0.1826172
		c-0.5507812,0-1.0727539-0.0976562-1.565918-0.2919922c-0.4936523-0.1933594-0.8862305-0.4931641-1.1777344-0.8974609
		L22.7138672,34.4882812z"/>
	<path fill="#436BB3" d="M28.6254883,27.1083984h1.0927734v4.3095703h0.0244141
		c0.137207-0.3076172,0.3759766-0.5566406,0.7158203-0.7470703c0.3398438-0.1894531,0.7324219-0.2851562,1.1777344-0.2851562
		c0.2749023,0,0.5400391,0.0429688,0.7949219,0.1279297s0.4775391,0.2158203,0.6674805,0.3945312
		c0.1904297,0.1777344,0.3417969,0.40625,0.4555664,0.6855469c0.112793,0.2792969,0.1699219,0.6083984,0.1699219,0.9892578
		v3.7021484h-1.0927734v-3.3984375c0-0.2675781-0.0361328-0.4960938-0.109375-0.6865234
		c-0.0727539-0.1894531-0.1699219-0.34375-0.2910156-0.4609375c-0.121582-0.1171875-0.2612305-0.2021484-0.4189453-0.2548828
		s-0.3217773-0.0791016-0.4916992-0.0791016c-0.2265625,0-0.4370117,0.0361328-0.6308594,0.109375
		c-0.1943359,0.0732422-0.3642578,0.1884766-0.5097656,0.3457031c-0.1459961,0.1582031-0.2592773,0.3583984-0.340332,0.6015625
		c-0.0805664,0.2421875-0.1210938,0.5292969-0.1210938,0.8613281v2.9619141h-1.0927734V27.1083984z"/>
	<path fill="#436BB3" d="M34.9008789,28.4677734c0-0.21875,0.0791016-0.40625,0.2368164-0.5644531
		c0.1577148-0.1572266,0.3461914-0.2363281,0.5644531-0.2363281c0.21875,0,0.4067383,0.0791016,0.5644531,0.2363281
		c0.1577148,0.1582031,0.2368164,0.3457031,0.2368164,0.5644531S36.4243164,28.875,36.2666016,29.0322266
		c-0.1577148,0.1582031-0.3457031,0.2373047-0.5644531,0.2373047c-0.2182617,0-0.4067383-0.0791016-0.5644531-0.2373047
		C34.9799805,28.875,34.9008789,28.6865234,34.9008789,28.4677734z M35.1557617,30.53125h1.0927734v5.7539062h-1.0927734V30.53125z"
		/>
	<path fill="#436BB3" d="M38.105957,31.4785156h-1.2382812V30.53125h1.2382812v-1.2861328
		c0-0.7685547,0.1474609-1.3417969,0.4428711-1.7177734s0.8032227-0.5644531,1.5234375-0.5644531
		c0.1210938,0,0.2485352,0.0039062,0.3823242,0.0117188c0.1333008,0.0087891,0.2768555,0.0322266,0.4306641,0.0732422
		l-0.1210938,0.9707031c-0.1054688-0.0400391-0.206543-0.0683594-0.3037109-0.0849609
		c-0.097168-0.015625-0.2021484-0.0244141-0.3154297-0.0244141c-0.2021484,0-0.3642578,0.0302734-0.4853516,0.0917969
		c-0.121582,0.0605469-0.2167969,0.1474609-0.2856445,0.2607422s-0.1132812,0.2490234-0.1333008,0.40625
		c-0.0205078,0.1582031-0.0302734,0.3378906-0.0302734,0.5400391V30.53125h1.2988281v0.9472656h-1.3110352v4.8066406H38.105957
		V31.4785156z"/>
	<path fill="#436BB3" d="M44.987793,31.4785156h-1.565918v2.609375c0,0.1621094,0.0039062,0.3222656,0.012207,0.4794922
		c0.0078125,0.1582031,0.0380859,0.2998047,0.0908203,0.4248047c0.0527344,0.1259766,0.1337891,0.2265625,0.2426758,0.3037109
		c0.109375,0.0771484,0.269043,0.1152344,0.4794922,0.1152344c0.1293945,0,0.2631836-0.0117188,0.4008789-0.0361328
		c0.137207-0.0244141,0.2626953-0.0693359,0.3759766-0.1337891v0.9951172
		c-0.1293945,0.0732422-0.2973633,0.1240234-0.503418,0.1523438c-0.206543,0.0283203-0.3662109,0.0419922-0.4794922,0.0419922
		c-0.4208984,0-0.746582-0.0585938-0.9770508-0.1757812c-0.230957-0.1171875-0.4008789-0.2685547-0.5102539-0.4550781
		c-0.1088867-0.1865234-0.1738281-0.3945312-0.1938477-0.625c-0.0205078-0.2314453-0.0302734-0.4638672-0.0302734-0.6982422
		v-2.9980469h-1.2626953V30.53125h1.2626953v-1.6142578h1.0922852V30.53125h1.565918V31.4785156z"/>
</g>
<path fill="none" stroke="#436BB3" stroke-miterlimit="10" d="M1.5000036,1c0,1.2611165,1.0223334,2.2834499,2.2834394,2.2834499
	S6.0668826,2.2611165,6.0668826,1"/>
<path fill="none" stroke="#436BB3" stroke-miterlimit="10" d="M7.8936405,5.0551014"/>
<path fill="none" stroke="#436BB3" stroke-miterlimit="10" d="M7.8936405,1c0,1.2611165,1.0223331,2.2834499,2.2834396,2.2834499
	c1.261116,0,2.2834501-1.0223334,2.2834501-2.2834499"/>
<path fill="none" stroke="#37B34A" stroke-miterlimit="10" d="M14.2872772,5.0551014"/>
<path fill="none" stroke="#436BB3" stroke-miterlimit="10" d="M14.2872772,1c0,1.2611165,1.0223331,2.2834499,2.2834492,2.2834499
	c1.2611065,0,2.2834396-1.0223334,2.2834396-2.2834499"/>
<path fill="none" stroke="#436BB3" stroke-miterlimit="10" d="M1.5000036,13.9870892
	c0-1.261117,1.0223334-2.2834501,2.2834394-2.2834501s2.2834396,1.0223331,2.2834396,2.2834501"/>
<path fill="none" stroke="#436BB3" stroke-miterlimit="10" d="M7.8936405,13.9870892
	c0-1.261117,1.0223331-2.2834501,2.2834396-2.2834501c1.261116,0,2.2834501,1.0223331,2.2834501,2.2834501"/>
<path fill="none" stroke="#436BB3" stroke-miterlimit="10" d="M14.2872772,13.9870892
	c0-1.261117,1.0223331-2.2834501,2.2834492-2.2834501c1.2611065,0,2.2834396,1.0223331,2.2834396,2.2834501"/>
<circle fill="none" stroke="#436BB3" stroke-miterlimit="10" cx="3.783443" cy="7.5078197" r="2.283443"/>
<circle fill="none" stroke="#436BB3" stroke-miterlimit="10" cx="10.177083" cy="7.5078197" r="2.283443"/>
<circle fill="#436BB3" stroke="#436BB3" stroke-miterlimit="10" cx="16.5707226" cy="7.5078197" r="2.283443"/>
<path fill="none" stroke="#979797" stroke-width="0.9915338" stroke-miterlimit="10" d="M141.4308014,20.3267651"/>
<g>
	<path fill="#CCCCCC" d="M147.8662109,4.3574219c-0.2822266-0.3432617-0.6289062-0.6069336-1.0400391-0.7910156
		s-0.8867188-0.2763672-1.4257812-0.2763672c-0.5400391,0-1.0400391,0.1044922-1.5,0.3129883
		c-0.4599609,0.2089844-0.859375,0.5-1.1962891,0.8740234c-0.3378906,0.3745117-0.6015625,0.8188477-0.7910156,1.3344727
		c-0.1904297,0.5151367-0.2851562,1.0737305-0.2851562,1.6743164c0,0.6137695,0.0947266,1.175293,0.2851562,1.684082
		c0.1894531,0.5092773,0.4501953,0.9506836,0.7822266,1.324707c0.3310547,0.3745117,0.7207031,0.6660156,1.1679688,0.8745117
		c0.4482422,0.2084961,0.9296875,0.3125,1.4453125,0.3125c0.5888672,0,1.109375-0.1225586,1.5634766-0.3676758
		c0.4541016-0.2456055,0.828125-0.5893555,1.1230469-1.0307617l2.3925781,1.7851562
		c-0.5527344,0.7729492-1.2519531,1.3432617-2.0986328,1.7114258s-1.7177734,0.5517578-2.6132812,0.5517578
		c-1.0175781,0-1.9570312-0.1591797-2.8154297-0.4785156c-0.8583984-0.3188477-1.6005859-0.7753906-2.2265625-1.3706055
		s-1.1132812-1.315918-1.4628906-2.1625977c-0.3496094-0.8461914-0.5244141-1.7910156-0.5244141-2.8339844
		c0-1.0424805,0.1748047-1.9873047,0.5244141-2.8339844c0.3496094-0.8461914,0.8369141-1.5668945,1.4628906-2.1621094
		c0.6259766-0.5947266,1.3681641-1.0517578,2.2265625-1.3710938c0.8583984-0.3188477,1.7978516-0.4785156,2.8154297-0.4785156
		c0.3681641,0,0.7519531,0.0341797,1.1503906,0.1015625s0.7910156,0.1748047,1.1777344,0.3217773
		c0.3867188,0.1474609,0.7578125,0.34375,1.1132812,0.5888672c0.3554688,0.2456055,0.6748047,0.5458984,0.9570312,0.9018555
		L147.8662109,4.3574219z"/>
	<path fill="#CCCCCC" d="M158.3916016,4.1552734c-0.2324219-0.2944336-0.5488281-0.512207-0.9472656-0.6533203
		s-0.7763672-0.2119141-1.1318359-0.2119141c-0.2089844,0-0.4228516,0.0249023-0.6435547,0.0737305
		c-0.2216797,0.0493164-0.4296875,0.1259766-0.6259766,0.2299805c-0.1962891,0.1044922-0.3564453,0.2426758-0.4785156,0.4140625
		c-0.1230469,0.171875-0.1845703,0.3803711-0.1845703,0.6259766c0,0.3925781,0.1474609,0.6928711,0.4423828,0.9013672
		c0.2939453,0.2089844,0.6650391,0.3867188,1.1132812,0.5336914c0.4472656,0.1474609,0.9287109,0.2944336,1.4443359,0.4418945
		c0.515625,0.1469727,0.9970703,0.355957,1.4443359,0.6254883c0.4482422,0.2700195,0.8193359,0.6323242,1.1132812,1.0859375
		c0.2949219,0.4541016,0.4423828,1.0610352,0.4423828,1.8217773c0,0.7241211-0.1357422,1.355957-0.4052734,1.8955078
		c-0.2695312,0.5400391-0.6347656,0.987793-1.0947266,1.3432617c-0.4599609,0.355957-0.9941406,0.6196289-1.6015625,0.7915039
		c-0.6064453,0.1713867-1.2480469,0.2573242-1.9228516,0.2573242c-0.8466797,0-1.6318359-0.128418-2.3554688-0.3862305
		s-1.3984375-0.6748047-2.0244141-1.2514648l2.0429688-2.2451172c0.2939453,0.3930664,0.6650391,0.6962891,1.1132812,0.9111328
		s0.9111328,0.3217773,1.3896484,0.3217773c0.2324219,0,0.46875-0.0273438,0.7080078-0.0825195
		s0.4541016-0.1381836,0.6445312-0.2485352c0.1894531-0.1103516,0.3427734-0.2514648,0.4599609-0.4233398
		c0.1162109-0.171875,0.1748047-0.3740234,0.1748047-0.6074219c0-0.3920898-0.1503906-0.7021484-0.4511719-0.9291992
		s-0.6777344-0.4199219-1.1318359-0.5795898c-0.4541016-0.1591797-0.9443359-0.3188477-1.4716797-0.4785156
		c-0.5273438-0.1591797-1.0185547-0.3740234-1.4726562-0.644043c-0.4541016-0.2695312-0.8310547-0.6254883-1.1318359-1.0673828
		s-0.4501953-1.0244141-0.4501953-1.7480469c0-0.699707,0.1376953-1.3129883,0.4140625-1.840332
		c0.2753906-0.5273438,0.6435547-0.9692383,1.1035156-1.3251953c0.4599609-0.3554688,0.9912109-0.6225586,1.5917969-0.800293
		c0.6015625-0.1777344,1.2207031-0.2670898,1.859375-0.2670898c0.7353516,0,1.4472656,0.1044922,2.1347656,0.3129883
		c0.6865234,0.2089844,1.3056641,0.5585938,1.8583984,1.0488281L158.3916016,4.1552734z"/>
</g>
<path fill="none" stroke="#979797" stroke-width="0.9915338" stroke-miterlimit="10" d="M141.5442352,20.2938766"/>
<g>
	<path fill="#CCCCCC" d="M145.4433594,18.4208984c-0.2421875-0.315918-0.5498047-0.5585938-0.921875-0.7285156
		c-0.3730469-0.1699219-0.7568359-0.2548828-1.1533203-0.2548828c-0.4853516,0-0.9248047,0.0913086-1.3173828,0.2734375
		c-0.3925781,0.1816406-0.7285156,0.4306641-1.0078125,0.7460938c-0.2783203,0.315918-0.4951172,0.6860352-0.6494141,1.1108398
		c-0.1533203,0.4248047-0.2304688,0.8798828-0.2304688,1.3662109c0,0.4536133,0.0732422,0.8823242,0.21875,1.2866211
		s0.3564453,0.7607422,0.6308594,1.0683594c0.2753906,0.3076172,0.6113281,0.5498047,1.0078125,0.7285156
		c0.3964844,0.1777344,0.8457031,0.2666016,1.3476562,0.2666016c0.4931641,0,0.9267578-0.1005859,1.2988281-0.3037109
		c0.3720703-0.2021484,0.6875-0.4853516,0.9462891-0.8496094l0.9833984,0.7402344
		c-0.0644531,0.0898438-0.1777344,0.2167969-0.3398438,0.3828125s-0.3759766,0.3320312-0.6435547,0.4980469
		c-0.2666016,0.1660156-0.5888672,0.3115234-0.9648438,0.4365234s-0.8115234,0.1884766-1.3046875,0.1884766
		c-0.6796875,0-1.2929688-0.1298828-1.8388672-0.3886719c-0.546875-0.2587891-1.0117188-0.5986328-1.3964844-1.0195312
		c-0.3837891-0.4208984-0.6777344-0.8964844-0.8798828-1.4267578c-0.2021484-0.5292969-0.3037109-1.0654297-0.3037109-1.6079102
		c0-0.6640625,0.109375-1.2768555,0.328125-1.8393555s0.5234375-1.0483398,0.9169922-1.4570312
		c0.3916016-0.4082031,0.8632812-0.7260742,1.4140625-0.9526367c0.5498047-0.2265625,1.1572266-0.3398438,1.8203125-0.3398438
		c0.5664062,0,1.1230469,0.109375,1.6689453,0.3276367c0.546875,0.2182617,0.9931641,0.5541992,1.3417969,1.0073242
		L145.4433594,18.4208984z"/>
	<path fill="#CCCCCC" d="M147.421875,15.980957h1.0927734v4.309082h0.0244141
		c0.1376953-0.3071289,0.3759766-0.5561523,0.7158203-0.746582c0.3398438-0.1899414,0.7324219-0.2851562,1.1777344-0.2851562
		c0.2753906,0,0.5400391,0.0424805,0.7949219,0.1274414s0.4775391,0.2167969,0.6679688,0.3945312
		c0.1904297,0.1782227,0.3417969,0.4067383,0.4550781,0.6860352c0.1132812,0.2788086,0.1699219,0.6088867,0.1699219,0.9897461
		v3.7021484h-1.0927734v-3.3984375c0-0.2675781-0.0361328-0.4960938-0.109375-0.6865234
		c-0.0722656-0.1899414-0.1699219-0.3442383-0.2910156-0.4614258s-0.2607422-0.2021484-0.4189453-0.2548828
		c-0.1572266-0.0527344-0.3212891-0.0791016-0.4912109-0.0791016c-0.2265625,0-0.4375,0.0366211-0.6308594,0.109375
		c-0.1943359,0.0727539-0.3642578,0.1879883-0.5097656,0.3461914c-0.1464844,0.1577148-0.2597656,0.3583984-0.3408203,0.6015625
		c-0.0800781,0.2421875-0.1210938,0.5292969-0.1210938,0.8613281v2.9619141h-1.0927734V15.980957z"/>
	<path fill="#CCCCCC" d="M154.6933594,22.6816406c0,0.2509766,0.0546875,0.4794922,0.1640625,0.6865234
		c0.1083984,0.2060547,0.2519531,0.3818359,0.4306641,0.5273438c0.1777344,0.1455078,0.3837891,0.2597656,0.6191406,0.3398438
		c0.234375,0.0810547,0.4775391,0.1220703,0.7275391,0.1220703c0.3408203,0,0.6357422-0.0791016,0.8867188-0.2373047
		c0.2509766-0.1572266,0.4814453-0.3662109,0.6914062-0.625l0.8261719,0.6308594
		c-0.6074219,0.7851562-1.4570312,1.1777344-2.5498047,1.1777344c-0.453125,0-0.8632812-0.0771484-1.2314453-0.2304688
		s-0.6796875-0.3662109-0.9345703-0.6376953c-0.2548828-0.2705078-0.4511719-0.5898438-0.5888672-0.9589844
		c-0.1376953-0.3681641-0.2070312-0.7666016-0.2070312-1.1953125s0.0751953-0.8271484,0.2246094-1.1953125
		c0.1503906-0.3686523,0.3564453-0.6884766,0.6191406-0.9594727c0.2636719-0.2709961,0.5771484-0.4833984,0.9414062-0.6376953
		c0.3642578-0.1533203,0.7597656-0.2304688,1.1894531-0.2304688c0.5097656,0,0.9404297,0.0893555,1.2929688,0.2670898
		c0.3515625,0.1782227,0.640625,0.4106445,0.8671875,0.6982422c0.2265625,0.2871094,0.390625,0.6108398,0.4921875,0.9716797
		c0.1005859,0.359375,0.1513672,0.7255859,0.1513672,1.0986328v0.3876953H154.6933594z M158.140625,21.8076172
		c-0.0087891-0.2421875-0.046875-0.4648438-0.1152344-0.6679688c-0.0693359-0.2016602-0.171875-0.3779297-0.3095703-0.527832
		c-0.1376953-0.1494141-0.3095703-0.2670898-0.5166016-0.3520508c-0.2060547-0.0849609-0.4462891-0.1274414-0.7216797-0.1274414
		c-0.2675781,0-0.5117188,0.0507812-0.734375,0.1518555s-0.4111328,0.2324219-0.5644531,0.3945312
		c-0.1542969,0.1616211-0.2734375,0.3417969-0.3583984,0.5410156c-0.0849609,0.1982422-0.1269531,0.3935547-0.1269531,0.5878906
		H158.140625z"/>
	<path fill="#CCCCCC" d="M160.3134766,19.4038086h1.0195312v0.8984375h0.0244141
		c0.0244141-0.0805664,0.0869141-0.1821289,0.1884766-0.3032227c0.1005859-0.121582,0.2304688-0.2368164,0.3876953-0.3461914
		c0.1582031-0.109375,0.34375-0.2021484,0.5585938-0.2792969c0.2148438-0.0766602,0.4511719-0.1152344,0.7099609-0.1152344
		c0.4287109,0,0.7890625,0.0893555,1.0810547,0.2670898c0.2910156,0.1782227,0.5292969,0.4453125,0.7158203,0.8012695
		c0.1855469-0.355957,0.4492188-0.6230469,0.7890625-0.8012695c0.3398438-0.1777344,0.6835938-0.2670898,1.03125-0.2670898
		c0.4453125,0,0.8095703,0.0727539,1.0927734,0.21875c0.2832031,0.1455078,0.5058594,0.3378906,0.6679688,0.5761719
		c0.1611328,0.2392578,0.2724609,0.5102539,0.3339844,0.8134766c0.0605469,0.3041992,0.0908203,0.6176758,0.0908203,0.940918
		v3.3505859h-1.0927734v-3.2041016c0-0.21875-0.0136719-0.4296875-0.0419922-0.6318359
		c-0.0292969-0.2021484-0.0878906-0.3803711-0.1767578-0.534668c-0.0888672-0.1533203-0.2138672-0.2768555-0.3759766-0.3701172
		c-0.1621094-0.0927734-0.3759766-0.1396484-0.6435547-0.1396484c-0.5263672,0-0.9023438,0.1621094-1.1289062,0.4858398
		c-0.2265625,0.3242188-0.3398438,0.7412109-0.3398438,1.2509766v3.1435547h-1.0917969v-3.0107422
		c0-0.2744141-0.0146484-0.5253906-0.0429688-0.7519531s-0.0849609-0.4233398-0.1699219-0.5893555
		s-0.2060547-0.2954102-0.3642578-0.3886719c-0.1572266-0.0927734-0.3701172-0.1396484-0.6367188-0.1396484
		c-0.1943359,0-0.3828125,0.0385742-0.5644531,0.1157227c-0.1826172,0.0766602-0.3427734,0.1918945-0.4794922,0.3457031
		c-0.1376953,0.1538086-0.2470703,0.3505859-0.328125,0.5888672c-0.0810547,0.2392578-0.1210938,0.5205078-0.1210938,0.84375
		v2.9863281h-1.0927734V19.4038086z"/>
	<path fill="#CCCCCC" d="M170.1816406,17.340332c0-0.2182617,0.0791016-0.40625,0.2363281-0.5644531
		c0.1582031-0.1577148,0.3466797-0.2363281,0.5644531-0.2363281c0.21875,0,0.4072266,0.0786133,0.5644531,0.2363281
		c0.1582031,0.1582031,0.2373047,0.3461914,0.2373047,0.5644531c0,0.21875-0.0791016,0.4067383-0.2373047,0.5644531
		c-0.1572266,0.1577148-0.3457031,0.2368164-0.5644531,0.2368164c-0.2177734,0-0.40625-0.0791016-0.5644531-0.2368164
		C170.2607422,17.7470703,170.1816406,17.559082,170.1816406,17.340332z M170.4365234,19.4038086h1.0927734v5.7543945h-1.0927734
		V19.4038086z"/>
	<path fill="#CCCCCC" d="M177.0761719,20.934082c-0.2021484-0.2109375-0.4150391-0.3706055-0.6367188-0.4799805
		c-0.2226562-0.109375-0.4882812-0.1640625-0.7958984-0.1640625c-0.2988281,0-0.5595703,0.0546875-0.7822266,0.1640625
		s-0.4091797,0.2587891-0.5585938,0.4487305c-0.1494141,0.190918-0.2626953,0.409668-0.3398438,0.6567383
		c-0.0771484,0.2460938-0.1152344,0.5029297-0.1152344,0.7705078c0,0.2666016,0.0439453,0.5195312,0.1337891,0.7587891
		c0.0888672,0.2382812,0.2138672,0.4472656,0.3759766,0.625s0.3554688,0.3173828,0.5830078,0.4189453
		c0.2255859,0.1005859,0.4804688,0.1513672,0.7646484,0.1513672c0.3066406,0,0.5703125-0.0546875,0.7890625-0.1640625
		c0.2177734-0.109375,0.4199219-0.2685547,0.6064453-0.4794922l0.7773438,0.7773438
		c-0.2841797,0.3154297-0.6132812,0.5419922-0.9892578,0.6796875c-0.3769531,0.1376953-0.7753906,0.2060547-1.1962891,0.2060547
		c-0.4453125,0-0.8515625-0.0722656-1.2197266-0.21875c-0.3681641-0.1455078-0.6855469-0.3496094-0.953125-0.6123047
		c-0.2666016-0.2626953-0.4736328-0.5791016-0.6191406-0.9472656s-0.2177734-0.7744141-0.2177734-1.2197266
		s0.0722656-0.8535156,0.2177734-1.2265625c0.1455078-0.3720703,0.3505859-0.6918945,0.6132812-0.9589844
		s0.578125-0.4750977,0.9472656-0.625c0.3681641-0.1499023,0.7783203-0.2246094,1.2314453-0.2246094
		c0.4208984,0,0.8232422,0.074707,1.2080078,0.2246094c0.3837891,0.1499023,0.7177734,0.378418,1.0009766,0.6855469
		L177.0761719,20.934082z"/>
	<path fill="#CCCCCC" d="M178.5322266,20.1079102c0.3076172-0.2832031,0.6640625-0.4956055,1.0683594-0.637207
		s0.8095703-0.2124023,1.2138672-0.2124023c0.4208984,0,0.7832031,0.0527344,1.0869141,0.1577148
		c0.3027344,0.1054688,0.5517578,0.2470703,0.7460938,0.4248047c0.1943359,0.1782227,0.3378906,0.3828125,0.4306641,0.6132812
		c0.09375,0.2304688,0.1396484,0.4711914,0.1396484,0.7226562v2.9375c0,0.2021484,0.0039062,0.3886719,0.0126953,0.5585938
		c0.0078125,0.1699219,0.0195312,0.3320312,0.0361328,0.4853516h-0.9707031
		c-0.0244141-0.2910156-0.0371094-0.5830078-0.0371094-0.8740234h-0.0244141
		c-0.2421875,0.3720703-0.5292969,0.6357422-0.8613281,0.7890625s-0.7158203,0.2304688-1.1533203,0.2304688
		c-0.2666016,0-0.5214844-0.0361328-0.7646484-0.109375c-0.2431641-0.0722656-0.4550781-0.1816406-0.6376953-0.3271484
		c-0.1816406-0.1455078-0.3251953-0.3261719-0.4306641-0.5400391c-0.1054688-0.2148438-0.1572266-0.4638672-0.1572266-0.7470703
		c0-0.3720703,0.0820312-0.6835938,0.2480469-0.9345703s0.3925781-0.4550781,0.6796875-0.6132812
		c0.2880859-0.1572266,0.6230469-0.2705078,1.0078125-0.3398438c0.3847656-0.0683594,0.7949219-0.1025391,1.2324219-0.1025391
		h0.8007812v-0.2431641c0-0.1455078-0.0283203-0.2910156-0.0849609-0.4379883
		c-0.0566406-0.1450195-0.1416016-0.2763672-0.2548828-0.394043c-0.1132812-0.1171875-0.2548828-0.2104492-0.4248047-0.2792969
		c-0.1699219-0.0683594-0.3720703-0.1030273-0.6064453-0.1030273c-0.2109375,0-0.3945312,0.0205078-0.5527344,0.0605469
		c-0.1582031,0.0405273-0.3017578,0.0913086-0.4306641,0.1518555c-0.1298828,0.0605469-0.2470703,0.1318359-0.3525391,0.2124023
		c-0.1044922,0.0810547-0.2060547,0.1577148-0.3027344,0.2304688L178.5322266,20.1079102z M181.6162109,22.390625
		c-0.2597656,0-0.5244141,0.0146484-0.7958984,0.0419922c-0.2705078,0.0292969-0.5175781,0.0839844-0.7402344,0.1640625
		c-0.2226562,0.0810547-0.4042969,0.1943359-0.5458984,0.3398438s-0.2128906,0.3320312-0.2128906,0.5585938
		c0,0.3320312,0.1113281,0.5703125,0.3339844,0.7158203c0.2226562,0.1464844,0.5244141,0.21875,0.9042969,0.21875
		c0.2998047,0,0.5546875-0.0498047,0.7646484-0.1513672c0.2109375-0.1015625,0.3808594-0.2324219,0.5097656-0.3945312
		c0.1298828-0.1621094,0.2226562-0.3417969,0.2792969-0.5400391s0.0849609-0.3945312,0.0849609-0.5888672V22.390625H181.6162109z"/>
	<path fill="#CCCCCC" d="M184.5898438,15.980957h1.0927734v9.1772461h-1.0927734V15.980957z"/>
	<path fill="#CCCCCC" d="M139.7138672,34.4882812c0.2109375,0.3164062,0.4794922,0.5488281,0.8076172,0.6982422
		c0.328125,0.1503906,0.6650391,0.2246094,1.0136719,0.2246094c0.1943359,0,0.3925781-0.0302734,0.5947266-0.0908203
		s0.3867188-0.1523438,0.5527344-0.2734375c0.1650391-0.1210938,0.3007812-0.2705078,0.40625-0.4492188
		c0.1054688-0.1777344,0.1572266-0.3837891,0.1572266-0.6191406c0-0.3310547-0.1044922-0.5839844-0.3154297-0.7587891
		c-0.2099609-0.1738281-0.4716797-0.3193359-0.7822266-0.4365234c-0.3125-0.1171875-0.6523438-0.2304688-1.0205078-0.3398438
		s-0.7080078-0.2607422-1.0195312-0.4550781s-0.5722656-0.4550781-0.7822266-0.7832031
		c-0.2109375-0.328125-0.3164062-0.7705078-0.3164062-1.3291016c0-0.2509766,0.0546875-0.5175781,0.1640625-0.8007812
		s0.28125-0.5419922,0.5166016-0.7773438c0.234375-0.234375,0.5351562-0.4306641,0.9042969-0.5888672
		c0.3681641-0.1572266,0.8105469-0.2363281,1.3291016-0.2363281c0.46875,0,0.9179688,0.0644531,1.3466797,0.1943359
		c0.4287109,0.1289062,0.8056641,0.3925781,1.1289062,0.7890625l-0.9462891,0.8613281
		c-0.1455078-0.2265625-0.3525391-0.4082031-0.6191406-0.5458984c-0.2675781-0.1376953-0.5703125-0.2060547-0.9101562-0.2060547
		c-0.3242188,0-0.5927734,0.0419922-0.8076172,0.1269531s-0.3867188,0.1943359-0.515625,0.328125
		c-0.1298828,0.1328125-0.2207031,0.2773438-0.2734375,0.4306641s-0.0791016,0.2958984-0.0791016,0.4248047
		c0,0.3642578,0.1054688,0.6435547,0.3154297,0.8378906c0.2109375,0.1943359,0.4716797,0.3515625,0.7832031,0.4726562
		c0.3115234,0.1220703,0.6513672,0.2314453,1.0195312,0.328125s0.7080078,0.2324219,1.0195312,0.40625
		c0.3115234,0.1748047,0.5732422,0.4091797,0.7832031,0.7041016c0.2109375,0.2958984,0.3154297,0.7021484,0.3154297,1.2207031
		c0,0.4121094-0.078125,0.7841797-0.2363281,1.1162109s-0.3701172,0.6113281-0.6376953,0.8378906
		c-0.2666016,0.2265625-0.5820312,0.4003906-0.9462891,0.5214844c-0.3642578,0.1220703-0.7529297,0.1826172-1.1650391,0.1826172
		c-0.5507812,0-1.0732422-0.0976562-1.5664062-0.2919922c-0.4931641-0.1933594-0.8857422-0.4931641-1.1777344-0.8974609
		L139.7138672,34.4882812z"/>
	<path fill="#CCCCCC" d="M145.6259766,27.1083984h1.0927734v4.3095703h0.0244141
		c0.1367188-0.3076172,0.3759766-0.5566406,0.7158203-0.7470703c0.3398438-0.1894531,0.7324219-0.2851562,1.1777344-0.2851562
		c0.2744141,0,0.5400391,0.0429688,0.7949219,0.1279297s0.4775391,0.2158203,0.6669922,0.3945312
		c0.1904297,0.1777344,0.3417969,0.40625,0.4560547,0.6855469c0.1123047,0.2792969,0.1699219,0.6083984,0.1699219,0.9892578
		v3.7021484h-1.0927734v-3.3984375c0-0.2675781-0.0361328-0.4960938-0.109375-0.6865234
		c-0.0732422-0.1894531-0.1699219-0.34375-0.2910156-0.4609375c-0.1220703-0.1171875-0.2617188-0.2021484-0.4189453-0.2548828
		c-0.1582031-0.0527344-0.3222656-0.0791016-0.4921875-0.0791016c-0.2265625,0-0.4365234,0.0361328-0.6308594,0.109375
		s-0.3642578,0.1884766-0.5097656,0.3457031c-0.1455078,0.1582031-0.2587891,0.3583984-0.3398438,0.6015625
		c-0.0810547,0.2421875-0.1210938,0.5292969-0.1210938,0.8613281v2.9619141h-1.0927734V27.1083984z"/>
	<path fill="#CCCCCC" d="M151.9013672,28.4677734c0-0.21875,0.0791016-0.40625,0.2363281-0.5644531
		c0.1582031-0.1572266,0.3466797-0.2363281,0.5644531-0.2363281c0.21875,0,0.4072266,0.0791016,0.5644531,0.2363281
		c0.1582031,0.1582031,0.2373047,0.3457031,0.2373047,0.5644531s-0.0791016,0.4072266-0.2373047,0.5644531
		c-0.1572266,0.1582031-0.3457031,0.2373047-0.5644531,0.2373047c-0.2177734,0-0.40625-0.0791016-0.5644531-0.2373047
		C151.9804688,28.875,151.9013672,28.6865234,151.9013672,28.4677734z M152.15625,30.53125h1.0927734v5.7539062H152.15625V30.53125z
		"/>
	<path fill="#CCCCCC" d="M155.1064453,31.4785156h-1.2382812V30.53125h1.2382812v-1.2861328
		c0-0.7685547,0.1474609-1.3417969,0.4423828-1.7177734c0.2958984-0.3759766,0.8037109-0.5644531,1.5234375-0.5644531
		c0.1210938,0,0.2490234,0.0039062,0.3828125,0.0117188c0.1328125,0.0087891,0.2763672,0.0322266,0.4306641,0.0732422
		l-0.1210938,0.9707031c-0.1054688-0.0400391-0.2070312-0.0683594-0.3037109-0.0849609
		c-0.0976562-0.015625-0.2021484-0.0244141-0.3154297-0.0244141c-0.2021484,0-0.3642578,0.0302734-0.4853516,0.0917969
		c-0.1220703,0.0605469-0.2167969,0.1474609-0.2861328,0.2607422c-0.0683594,0.1132812-0.1132812,0.2490234-0.1328125,0.40625
		c-0.0205078,0.1582031-0.0302734,0.3378906-0.0302734,0.5400391V30.53125h1.2988281v0.9472656h-1.3115234v4.8066406h-1.0917969
		V31.4785156z"/>
	<path fill="#CCCCCC" d="M161.9882812,31.4785156h-1.5664062v2.609375c0,0.1621094,0.0039062,0.3222656,0.0126953,0.4794922
		c0.0078125,0.1582031,0.0380859,0.2998047,0.0908203,0.4248047c0.0527344,0.1259766,0.1337891,0.2265625,0.2421875,0.3037109
		c0.109375,0.0771484,0.2695312,0.1152344,0.4794922,0.1152344c0.1298828,0,0.2636719-0.0117188,0.4013672-0.0361328
		c0.1367188-0.0244141,0.2626953-0.0693359,0.3759766-0.1337891v0.9951172
		c-0.1298828,0.0732422-0.2978516,0.1240234-0.5039062,0.1523438s-0.3662109,0.0419922-0.4794922,0.0419922
		c-0.4208984,0-0.7460938-0.0585938-0.9765625-0.1757812c-0.2314453-0.1171875-0.4013672-0.2685547-0.5107422-0.4550781
		c-0.1083984-0.1865234-0.1738281-0.3945312-0.1933594-0.625c-0.0205078-0.2314453-0.0302734-0.4638672-0.0302734-0.6982422
		v-2.9980469h-1.2626953V30.53125h1.2626953v-1.6142578h1.0917969V30.53125h1.5664062V31.4785156z"/>
</g>
<path fill="none" stroke="#CCCCCC" stroke-miterlimit="10" d="M118.5,1c0,1.2611165,1.0223389,2.2834499,2.2834396,2.2834499
	c1.2611084,0,2.2834396-1.0223334,2.2834396-2.2834499"/>
<path fill="none" stroke="#CCCCCC" stroke-miterlimit="10" d="M124.8936386,5.0551014"/>
<path fill="none" stroke="#CCCCCC" stroke-miterlimit="10" d="M124.8936386,1c0,1.2611165,1.0223389,2.2834499,2.2834396,2.2834499
	c1.2611237,0,2.2834473-1.0223334,2.2834473-2.2834499"/>
<path fill="none" stroke="#37B34A" stroke-miterlimit="10" d="M131.2872772,5.0551014"/>
<path fill="none" stroke="#CCCCCC" stroke-miterlimit="10" d="M131.2872772,1c0,1.2611165,1.0223389,2.2834499,2.2834473,2.2834499
	S135.8541718,2.2611165,135.8541718,1"/>
<path fill="none" stroke="#CCCCCC" stroke-miterlimit="10" d="M118.5,13.9870892
	c0-1.261117,1.0223389-2.2834501,2.2834396-2.2834501c1.2611084,0,2.2834396,1.0223331,2.2834396,2.2834501"/>
<path fill="none" stroke="#CCCCCC" stroke-miterlimit="10" d="M124.8936386,13.9870892
	c0-1.261117,1.0223389-2.2834501,2.2834396-2.2834501c1.2611237,0,2.2834473,1.0223331,2.2834473,2.2834501"/>
<path fill="none" stroke="#CCCCCC" stroke-miterlimit="10" d="M131.2872772,13.9870892
	c0-1.261117,1.0223389-2.2834501,2.2834473-2.2834501s2.2834473,1.0223331,2.2834473,2.2834501"/>
<circle fill="none" stroke="#CCCCCC" stroke-miterlimit="10" cx="120.7834396" cy="7.5078197" r="2.283443"/>
<circle fill="none" stroke="#CCCCCC" stroke-miterlimit="10" cx="127.1770859" cy="7.5078197" r="2.283443"/>
<circle fill="#CCCCCC" stroke="#CCCCCC" stroke-miterlimit="10" cx="133.5707245" cy="7.5078197" r="2.283443"/>
<g>
</g>
<g>
</g>
<g>
</g>
<g>
</g>
<g>
</g>
<g>
</g>
<g>
</g>
<g>
</g>
<g>
</g>
<g>
</g>
<g>
</g>
<g>
</g>
<g>
</g>
<g>
</g>
<g>
</g>
</svg>
