<?xml version="1.0" encoding="utf-8"?>
<!-- Generator: Adobe Illustrator 17.1.0, SVG Export Plug-In . SVG Version: 6.00 Build 0)  -->
<!DOCTYPE svg PUBLIC "-//W3C//DTD SVG 1.1//EN" "http://www.w3.org/Graphics/SVG/1.1/DTD/svg11.dtd">
<svg version="1.1" id="Layer_1" xmlns="http://www.w3.org/2000/svg" xmlns:xlink="http://www.w3.org/1999/xlink" x="0px" y="0px"
	 width="240px" height="40px" viewBox="0 0 240 40" enable-background="new 0 0 240 40" xml:space="preserve">
<path fill="none" stroke="#979797" stroke-width="0.9915338" stroke-miterlimit="10" d="M24.4307995,20.3267651"/>
<g>
	<path fill="#42BDAE" d="M22.3461914,0.9716797h4.3427734l2.9995117,8.5019531h0.0371094l3.0175781-8.5019531h4.324707v13.0288086
		h-2.8706055V4.0078125h-0.0371094l-3.4228516,9.9926758h-2.1894531L25.253418,4.0078125h-0.0366211v9.9926758h-2.8706055V0.9716797
		z"/>
	<path fill="#42BDAE" d="M38.9814453,0.9716797h4.3427734l2.9995117,8.5019531h0.0371094l3.0175781-8.5019531h4.324707v13.0288086
		h-2.8706055V4.0078125h-0.0371094l-3.4228516,9.9926758h-2.1894531l-3.2944336-9.9926758h-0.0366211v9.9926758h-2.8706055
		V0.9716797z"/>
</g>
<path fill="none" stroke="#979797" stroke-width="0.9915338" stroke-miterlimit="10" d="M24.5442295,20.2938766"/>
<g>
	<path fill="#42BDAE" d="M22.3740234,16.5634766h1.7358398l2.7314453,6.5068359h0.0483398l2.7070312-6.5068359h1.7358398v8.5947266
		h-1.1655273v-7.0649414h-0.0244141l-2.9008789,7.0649414h-0.7768555l-2.9013672-7.0649414h-0.0239258v7.0649414h-1.1655273
		V16.5634766z"/>
	<path fill="#42BDAE" d="M32.1337891,22.28125c0-0.4208984,0.0786133-0.8134766,0.2363281-1.1767578
		c0.1582031-0.3652344,0.3745117-0.6845703,0.6494141-0.9599609c0.2753906-0.2749023,0.5991211-0.4916992,0.9711914-0.6494141
		s0.7729492-0.2368164,1.2016602-0.2368164c0.4291992,0,0.8295898,0.0791016,1.2016602,0.2368164
		c0.3725586,0.1577148,0.6962891,0.3745117,0.9711914,0.6494141c0.2749023,0.2753906,0.4916992,0.5947266,0.6494141,0.9599609
		c0.1577148,0.3632812,0.2368164,0.7558594,0.2368164,1.1767578s-0.0791016,0.8154297-0.2368164,1.1835938
		s-0.3745117,0.6875-0.6494141,0.9589844s-0.5986328,0.4853516-0.9711914,0.6435547
		c-0.3720703,0.1572266-0.7724609,0.2363281-1.2016602,0.2363281c-0.4287109,0-0.8295898-0.0791016-1.2016602-0.2363281
		c-0.3720703-0.1582031-0.6958008-0.3720703-0.9711914-0.6435547c-0.2749023-0.2714844-0.4912109-0.5908203-0.6494141-0.9589844
		C32.2124023,23.0966797,32.1337891,22.7021484,32.1337891,22.28125z M33.2988281,22.28125
		c0,0.2910156,0.0444336,0.5605469,0.1337891,0.8076172c0.0888672,0.2470703,0.2143555,0.4570312,0.3759766,0.6308594
		c0.1621094,0.1738281,0.3603516,0.3115234,0.5947266,0.4130859c0.2348633,0.1005859,0.4980469,0.1513672,0.7890625,0.1513672
		c0.2915039,0,0.5541992-0.0507812,0.7890625-0.1513672c0.2348633-0.1015625,0.4331055-0.2392578,0.5947266-0.4130859
		c0.1621094-0.1738281,0.2871094-0.3837891,0.3764648-0.6308594c0.0888672-0.2470703,0.1333008-0.5166016,0.1333008-0.8076172
		s-0.0444336-0.5605469-0.1333008-0.8066406c-0.0893555-0.2470703-0.2143555-0.4580078-0.3764648-0.6323242
		c-0.1616211-0.1738281-0.3598633-0.3110352-0.5947266-0.4125977c-0.2348633-0.1010742-0.4975586-0.1518555-0.7890625-0.1518555
		c-0.2910156,0-0.5541992,0.0507812-0.7890625,0.1518555c-0.234375,0.1015625-0.4326172,0.2387695-0.5947266,0.4125977
		c-0.1616211,0.1743164-0.2871094,0.3852539-0.3759766,0.6323242C33.3432617,21.7207031,33.2988281,21.9902344,33.2988281,22.28125z
		"/>
	<path fill="#42BDAE" d="M38.9433594,15.980957h1.0927734v9.1772461h-1.0927734V15.980957z"/>
	<path fill="#42BDAE" d="M41.8320312,22.6816406c0,0.2509766,0.0546875,0.4794922,0.1640625,0.6865234
		c0.1088867,0.2060547,0.2524414,0.3818359,0.4306641,0.5273438c0.1777344,0.1455078,0.3842773,0.2597656,0.6191406,0.3398438
		c0.234375,0.0810547,0.4775391,0.1220703,0.7280273,0.1220703c0.340332,0,0.6352539-0.0791016,0.8862305-0.2373047
		c0.2509766-0.1572266,0.4814453-0.3662109,0.6918945-0.625l0.8256836,0.6308594
		c-0.6069336,0.7851562-1.456543,1.1777344-2.5493164,1.1777344c-0.453125,0-0.8637695-0.0771484-1.2319336-0.2304688
		s-0.6796875-0.3662109-0.9345703-0.6376953c-0.2548828-0.2705078-0.4511719-0.5898438-0.5888672-0.9589844
		c-0.1376953-0.3681641-0.206543-0.7666016-0.206543-1.1953125s0.074707-0.8271484,0.2246094-1.1953125
		c0.1499023-0.3686523,0.355957-0.6884766,0.6191406-0.9594727s0.5766602-0.4833984,0.940918-0.6376953
		c0.3642578-0.1533203,0.7602539-0.2304688,1.1894531-0.2304688c0.5097656,0,0.940918,0.0893555,1.2929688,0.2670898
		c0.3520508,0.1782227,0.6411133,0.4106445,0.8676758,0.6982422c0.2265625,0.2871094,0.3901367,0.6108398,0.4916992,0.9716797
		c0.1010742,0.359375,0.1518555,0.7255859,0.1518555,1.0986328v0.3876953H41.8320312z M45.2792969,21.8076172
		c-0.0083008-0.2421875-0.0463867-0.4648438-0.1152344-0.6679688c-0.0688477-0.2016602-0.171875-0.3779297-0.3095703-0.527832
		c-0.1376953-0.1494141-0.3095703-0.2670898-0.5161133-0.3520508c-0.2060547-0.0849609-0.4467773-0.1274414-0.722168-0.1274414
		c-0.2670898,0-0.5117188,0.0507812-0.734375,0.1518555s-0.4106445,0.2324219-0.5644531,0.3945312
		c-0.1538086,0.1616211-0.2729492,0.3417969-0.3579102,0.5410156c-0.0849609,0.1982422-0.1274414,0.3935547-0.1274414,0.5878906
		H45.2792969z"/>
	<path fill="#42BDAE" d="M51.3491211,20.934082c-0.2026367-0.2109375-0.4150391-0.3706055-0.637207-0.4799805
		c-0.2226562-0.109375-0.487793-0.1640625-0.7954102-0.1640625c-0.2993164,0-0.5600586,0.0546875-0.7827148,0.1640625
		s-0.4086914,0.2587891-0.5585938,0.4487305C48.4257812,21.09375,48.3125,21.3125,48.2353516,21.5595703
		c-0.0766602,0.2460938-0.1152344,0.5029297-0.1152344,0.7705078c0,0.2666016,0.0444336,0.5195312,0.1337891,0.7587891
		c0.0888672,0.2382812,0.2143555,0.4472656,0.3759766,0.625c0.1621094,0.1777344,0.355957,0.3173828,0.5830078,0.4189453
		c0.2260742,0.1005859,0.480957,0.1513672,0.7646484,0.1513672c0.3071289,0,0.5703125-0.0546875,0.7890625-0.1640625
		c0.2182617-0.109375,0.4204102-0.2685547,0.6069336-0.4794922l0.7768555,0.7773438
		c-0.2836914,0.3154297-0.6132812,0.5419922-0.9892578,0.6796875c-0.3764648,0.1376953-0.7753906,0.2060547-1.1958008,0.2060547
		c-0.4453125,0-0.8520508-0.0722656-1.2197266-0.21875c-0.3686523-0.1455078-0.6860352-0.3496094-0.953125-0.6123047
		s-0.4736328-0.5791016-0.6191406-0.9472656s-0.2182617-0.7744141-0.2182617-1.2197266s0.0727539-0.8535156,0.2182617-1.2265625
		c0.1455078-0.3720703,0.3500977-0.6918945,0.6132812-0.9589844c0.2626953-0.2670898,0.578125-0.4750977,0.9467773-0.625
		c0.3681641-0.1499023,0.7788086-0.2246094,1.2319336-0.2246094c0.4204102,0,0.8232422,0.074707,1.2075195,0.2246094
		s0.7182617,0.378418,1.0014648,0.6855469L51.3491211,20.934082z"/>
	<path fill="#42BDAE" d="M57.6611328,25.1582031h-1.0927734v-0.8857422h-0.0244141
		c-0.1376953,0.3076172-0.3759766,0.5556641-0.7158203,0.7460938s-0.7324219,0.2851562-1.1777344,0.2851562
		c-0.2832031,0-0.550293-0.0419922-0.8007812-0.1269531c-0.2509766-0.0849609-0.4716797-0.2167969-0.6616211-0.3945312
		c-0.1904297-0.1787109-0.3422852-0.4072266-0.4550781-0.6865234C52.6191406,23.8164062,52.5625,23.4873047,52.5625,23.1064453
		v-3.7026367h1.0927734v3.3999023c0,0.2666016,0.0361328,0.4951172,0.109375,0.6855469
		c0.0727539,0.1904297,0.1699219,0.34375,0.2910156,0.4609375c0.121582,0.1171875,0.2612305,0.2021484,0.4189453,0.2548828
		s0.3217773,0.0791016,0.4916992,0.0791016c0.2260742,0,0.4370117-0.0361328,0.6308594-0.109375
		c0.1943359-0.0722656,0.3642578-0.1875,0.5102539-0.3457031c0.1455078-0.1582031,0.2587891-0.3583984,0.3398438-0.6005859
		c0.0805664-0.2431641,0.1210938-0.5302734,0.1210938-0.8623047v-2.9624023h1.0927734V25.1582031z"/>
	<path fill="#42BDAE" d="M58.8745117,15.980957h1.0927734v9.1772461h-1.0927734V15.980957z"/>
	<path fill="#42BDAE" d="M61.2050781,20.1079102c0.3076172-0.2832031,0.6635742-0.4956055,1.0683594-0.637207
		c0.4042969-0.1416016,0.809082-0.2124023,1.2138672-0.2124023c0.4204102,0,0.7827148,0.0527344,1.0864258,0.1577148
		c0.3032227,0.1054688,0.5522461,0.2470703,0.746582,0.4248047c0.1938477,0.1782227,0.3374023,0.3828125,0.4306641,0.6132812
		s0.1396484,0.4711914,0.1396484,0.7226562v2.9375c0,0.2021484,0.0039062,0.3886719,0.012207,0.5585938
		c0.0078125,0.1699219,0.0200195,0.3320312,0.0361328,0.4853516h-0.9707031
		c-0.0244141-0.2910156-0.0366211-0.5830078-0.0366211-0.8740234h-0.0244141
		c-0.2426758,0.3720703-0.5297852,0.6357422-0.8618164,0.7890625c-0.331543,0.1533203-0.7158203,0.2304688-1.152832,0.2304688
		c-0.2670898,0-0.5219727-0.0361328-0.7646484-0.109375c-0.2431641-0.0722656-0.4555664-0.1816406-0.6376953-0.3271484
		s-0.3256836-0.3261719-0.4306641-0.5400391c-0.1054688-0.2148438-0.1577148-0.4638672-0.1577148-0.7470703
		c0-0.3720703,0.0825195-0.6835938,0.2485352-0.9345703s0.3925781-0.4550781,0.6796875-0.6132812
		c0.2875977-0.1572266,0.6230469-0.2705078,1.0078125-0.3398438c0.3842773-0.0683594,0.7949219-0.1025391,1.2319336-0.1025391
		h0.8012695v-0.2431641c0-0.1455078-0.0283203-0.2910156-0.0849609-0.4379883
		c-0.0566406-0.1450195-0.1416016-0.2763672-0.2548828-0.394043c-0.1137695-0.1171875-0.2548828-0.2104492-0.4248047-0.2792969
		c-0.1699219-0.0683594-0.3725586-0.1030273-0.6069336-0.1030273c-0.2104492,0-0.3945312,0.0205078-0.5522461,0.0605469
		c-0.1582031,0.0405273-0.3017578,0.0913086-0.4311523,0.1518555s-0.2470703,0.1318359-0.3520508,0.2124023
		c-0.1049805,0.0810547-0.206543,0.1577148-0.3032227,0.2304688L61.2050781,20.1079102z M64.2885742,22.390625
		c-0.2592773,0-0.5244141,0.0146484-0.7954102,0.0419922c-0.2709961,0.0292969-0.5180664,0.0839844-0.7402344,0.1640625
		c-0.2226562,0.0810547-0.4047852,0.1943359-0.5463867,0.3398438s-0.2124023,0.3320312-0.2124023,0.5585938
		c0,0.3320312,0.1113281,0.5703125,0.3339844,0.7158203c0.222168,0.1464844,0.5239258,0.21875,0.9042969,0.21875
		c0.2993164,0,0.5541992-0.0498047,0.7646484-0.1513672s0.3803711-0.2324219,0.5097656-0.3945312
		s0.2226562-0.3417969,0.2792969-0.5400391s0.0849609-0.3945312,0.0849609-0.5888672V22.390625H64.2885742z"/>
	<path fill="#42BDAE" d="M66.9584961,19.4038086h1.0927734v0.8862305h0.0244141
		c0.0727539-0.1533203,0.1699219-0.2929688,0.2910156-0.418457c0.121582-0.1254883,0.2568359-0.2329102,0.4067383-0.3217773
		c0.1494141-0.0888672,0.3134766-0.159668,0.4916992-0.2124023c0.1777344-0.0527344,0.355957-0.0791016,0.5341797-0.0791016
		c0.1777344,0,0.3398438,0.0244141,0.4853516,0.0727539l-0.0483398,1.1777344
		c-0.0893555-0.0244141-0.1782227-0.0444336-0.2670898-0.0610352c-0.0893555-0.0161133-0.1782227-0.0239258-0.2670898-0.0239258
		c-0.5341797,0-0.9428711,0.1499023-1.2260742,0.449707c-0.2832031,0.2993164-0.4248047,0.7641602-0.4248047,1.3959961v2.8886719
		h-1.0927734V19.4038086z"/>
	<path fill="#42BDAE" d="M22.3740234,27.6914062h1.7358398l2.7314453,6.5058594h0.0483398l2.7070312-6.5058594h1.7358398v8.59375
		h-1.1655273v-7.0644531h-0.0244141l-2.9008789,7.0644531h-0.7768555l-2.9013672-7.0644531h-0.0239258v7.0644531h-1.1655273
		V27.6914062z"/>
	<path fill="#42BDAE" d="M32.1337891,33.4082031c0-0.4208984,0.0786133-0.8134766,0.2363281-1.1777344
		c0.1582031-0.3632812,0.3745117-0.6835938,0.6494141-0.9589844c0.2753906-0.2744141,0.5991211-0.4912109,0.9711914-0.6494141
		c0.3720703-0.1572266,0.7729492-0.2363281,1.2016602-0.2363281c0.4291992,0,0.8295898,0.0791016,1.2016602,0.2363281
		c0.3725586,0.1582031,0.6962891,0.375,0.9711914,0.6494141c0.2749023,0.2753906,0.4916992,0.5957031,0.6494141,0.9589844
		c0.1577148,0.3642578,0.2368164,0.7568359,0.2368164,1.1777344s-0.0791016,0.8154297-0.2368164,1.1835938
		s-0.3745117,0.6875-0.6494141,0.9589844s-0.5986328,0.4853516-0.9711914,0.6435547
		c-0.3720703,0.1572266-0.7724609,0.2363281-1.2016602,0.2363281c-0.4287109,0-0.8295898-0.0791016-1.2016602-0.2363281
		c-0.3720703-0.1582031-0.6958008-0.3720703-0.9711914-0.6435547c-0.2749023-0.2714844-0.4912109-0.5908203-0.6494141-0.9589844
		C32.2124023,34.2236328,32.1337891,33.8291016,32.1337891,33.4082031z M33.2988281,33.4082031
		c0,0.2910156,0.0444336,0.5605469,0.1337891,0.8076172c0.0888672,0.2470703,0.2143555,0.4570312,0.3759766,0.6308594
		c0.1621094,0.1738281,0.3603516,0.3115234,0.5947266,0.4130859c0.2348633,0.1005859,0.4980469,0.1513672,0.7890625,0.1513672
		c0.2915039,0,0.5541992-0.0507812,0.7890625-0.1513672c0.2348633-0.1015625,0.4331055-0.2392578,0.5947266-0.4130859
		c0.1621094-0.1738281,0.2871094-0.3837891,0.3764648-0.6308594c0.0888672-0.2470703,0.1333008-0.5166016,0.1333008-0.8076172
		s-0.0444336-0.5605469-0.1333008-0.8066406c-0.0893555-0.2470703-0.2143555-0.4580078-0.3764648-0.6318359
		c-0.1616211-0.1738281-0.3598633-0.3115234-0.5947266-0.4121094c-0.2348633-0.1015625-0.4975586-0.1523438-0.7890625-0.1523438
		c-0.2910156,0-0.5541992,0.0507812-0.7890625,0.1523438c-0.234375,0.1005859-0.4326172,0.2382812-0.5947266,0.4121094
		c-0.1616211,0.1738281-0.2871094,0.3847656-0.3759766,0.6318359
		C33.3432617,32.8476562,33.2988281,33.1171875,33.2988281,33.4082031z"/>
	<path fill="#42BDAE" d="M44.8671875,36.2851562h-1.0927734v-0.8251953h-0.0239258
		c-0.2104492,0.3076172-0.5,0.5458984-0.8681641,0.7158203s-0.746582,0.2548828-1.1347656,0.2548828
		c-0.4453125,0-0.8476562-0.0771484-1.2080078-0.2304688c-0.3598633-0.1533203-0.6674805-0.3681641-0.9223633-0.6435547
		c-0.2548828-0.2744141-0.4511719-0.5947266-0.5888672-0.9589844s-0.2060547-0.7607422-0.2060547-1.1894531
		s0.0683594-0.8271484,0.2060547-1.1953125s0.3339844-0.6875,0.5888672-0.9589844s0.5625-0.4833984,0.9223633-0.6376953
		c0.3603516-0.1533203,0.7626953-0.2304688,1.2080078-0.2304688c0.4125977,0,0.8012695,0.0869141,1.1650391,0.2607422
		c0.3642578,0.1748047,0.6435547,0.4111328,0.8378906,0.7099609h0.0239258v-4.2480469h1.0927734V36.2851562z M41.8808594,35.4111328
		c0.2915039,0,0.5541992-0.0507812,0.7890625-0.1513672c0.2348633-0.1015625,0.4331055-0.2392578,0.5947266-0.4130859
		c0.1621094-0.1738281,0.2871094-0.3837891,0.3764648-0.6308594c0.0888672-0.2470703,0.1333008-0.5166016,0.1333008-0.8076172
		s-0.0444336-0.5605469-0.1333008-0.8066406c-0.0893555-0.2470703-0.2143555-0.4580078-0.3764648-0.6318359
		c-0.1616211-0.1738281-0.3598633-0.3115234-0.5947266-0.4121094c-0.2348633-0.1015625-0.4975586-0.1523438-0.7890625-0.1523438
		c-0.2910156,0-0.5541992,0.0507812-0.7890625,0.1523438c-0.234375,0.1005859-0.4326172,0.2382812-0.5947266,0.4121094
		c-0.1616211,0.1738281-0.2871094,0.3847656-0.3759766,0.6318359c-0.0893555,0.2460938-0.1337891,0.515625-0.1337891,0.8066406
		s0.0444336,0.5605469,0.1337891,0.8076172c0.0888672,0.2470703,0.2143555,0.4570312,0.3759766,0.6308594
		c0.1621094,0.1738281,0.3603516,0.3115234,0.5947266,0.4130859C41.3266602,35.3603516,41.5898438,35.4111328,41.8808594,35.4111328
		z"/>
	<path fill="#42BDAE" d="M46.8212891,33.8085938c0,0.2509766,0.0546875,0.4794922,0.1640625,0.6865234
		c0.1088867,0.2060547,0.2524414,0.3818359,0.4306641,0.5273438c0.1777344,0.1455078,0.3842773,0.2597656,0.6191406,0.3398438
		c0.234375,0.0810547,0.4775391,0.1220703,0.7280273,0.1220703c0.340332,0,0.6352539-0.0791016,0.8862305-0.2373047
		c0.2509766-0.1572266,0.4814453-0.3662109,0.6918945-0.625l0.8256836,0.6308594
		c-0.6069336,0.7851562-1.456543,1.1777344-2.5493164,1.1777344c-0.453125,0-0.8637695-0.0771484-1.2319336-0.2304688
		s-0.6796875-0.3662109-0.9345703-0.6376953C46.1962891,35.2919922,46,34.9726562,45.8623047,34.6035156
		c-0.1376953-0.3681641-0.206543-0.7666016-0.206543-1.1953125s0.074707-0.8271484,0.2246094-1.1953125
		s0.355957-0.6875,0.6191406-0.9589844s0.5766602-0.4833984,0.940918-0.6376953
		c0.3642578-0.1533203,0.7602539-0.2304688,1.1894531-0.2304688c0.5097656,0,0.940918,0.0888672,1.2929688,0.2675781
		c0.3520508,0.1777344,0.6411133,0.4101562,0.8676758,0.6972656s0.3901367,0.6113281,0.4916992,0.9716797
		c0.1010742,0.359375,0.1518555,0.7255859,0.1518555,1.0986328v0.3876953H46.8212891z M50.2685547,32.9345703
		c-0.0083008-0.2421875-0.0463867-0.4648438-0.1152344-0.6669922s-0.171875-0.3789062-0.3095703-0.5283203
		s-0.3095703-0.2666016-0.5161133-0.3515625c-0.2060547-0.0849609-0.4467773-0.1279297-0.722168-0.1279297
		c-0.2670898,0-0.5117188,0.0507812-0.734375,0.1513672c-0.2226562,0.1015625-0.4106445,0.2333984-0.5644531,0.3945312
		c-0.1538086,0.1621094-0.2729492,0.3427734-0.3579102,0.5410156s-0.1274414,0.3935547-0.1274414,0.5878906H50.2685547z"/>
	<path fill="#42BDAE" d="M52.3076172,27.1083984h1.0927734v9.1767578h-1.0927734V27.1083984z"/>
	<path fill="#42BDAE" d="M54.4438477,28.4677734c0-0.21875,0.0791016-0.40625,0.2368164-0.5644531
		c0.1577148-0.1572266,0.3461914-0.2363281,0.5644531-0.2363281c0.21875,0,0.4067383,0.0791016,0.5644531,0.2363281
		c0.1577148,0.1582031,0.2368164,0.3457031,0.2368164,0.5644531S55.9672852,28.875,55.8095703,29.0322266
		c-0.1577148,0.1582031-0.3457031,0.2373047-0.5644531,0.2373047c-0.2182617,0-0.4067383-0.0791016-0.5644531-0.2373047
		C54.5229492,28.875,54.4438477,28.6865234,54.4438477,28.4677734z M54.6987305,30.53125h1.0927734v5.7539062h-1.0927734V30.53125z"
		/>
	<path fill="#42BDAE" d="M57.0048828,30.53125h1.0927734v0.8867188h0.0244141
		c0.137207-0.3076172,0.3759766-0.5566406,0.7158203-0.7470703c0.3398438-0.1894531,0.7324219-0.2851562,1.1777344-0.2851562
		c0.2749023,0,0.5400391,0.0429688,0.7949219,0.1279297s0.4775391,0.2158203,0.6674805,0.3945312
		c0.1904297,0.1777344,0.3417969,0.40625,0.4555664,0.6855469c0.112793,0.2792969,0.1699219,0.6083984,0.1699219,0.9892578
		v3.7021484h-1.0927734v-3.3984375c0-0.2675781-0.0361328-0.4960938-0.109375-0.6865234
		c-0.0727539-0.1894531-0.1699219-0.34375-0.2910156-0.4609375c-0.121582-0.1171875-0.2612305-0.2021484-0.4189453-0.2548828
		s-0.3217773-0.0791016-0.4916992-0.0791016c-0.2265625,0-0.4370117,0.0361328-0.6308594,0.109375
		c-0.1943359,0.0732422-0.3642578,0.1884766-0.5097656,0.3457031c-0.1459961,0.1582031-0.2592773,0.3583984-0.340332,0.6015625
		c-0.0805664,0.2421875-0.1210938,0.5292969-0.1210938,0.8613281v2.9619141h-1.0927734V30.53125z"/>
	<path fill="#42BDAE" d="M68.9980469,36.2363281c0,0.4375-0.0751953,0.8359375-0.2246094,1.1962891
		c-0.1499023,0.359375-0.3623047,0.6708984-0.637207,0.9345703c-0.2753906,0.2626953-0.6069336,0.4667969-0.9956055,0.6123047
		c-0.3881836,0.1464844-0.8173828,0.21875-1.2866211,0.21875c-0.550293,0-1.0541992-0.0771484-1.5112305-0.2304688
		c-0.4570312-0.1542969-0.8920898-0.4208984-1.3046875-0.8007812l0.7402344-0.9228516
		c0.2832031,0.3076172,0.5908203,0.5400391,0.9223633,0.6982422c0.3320312,0.1572266,0.7084961,0.2363281,1.1289062,0.2363281
		c0.4047852,0,0.7407227-0.0585938,1.0078125-0.1757812s0.4794922-0.2695312,0.637207-0.4550781
		c0.1577148-0.1865234,0.269043-0.3994141,0.3339844-0.6376953c0.0644531-0.2382812,0.0966797-0.4794922,0.0966797-0.7216797
		v-0.8505859h-0.0361328c-0.2104492,0.3486328-0.4956055,0.6054688-0.855957,0.7714844
		c-0.3598633,0.1660156-0.7382812,0.2490234-1.1347656,0.2490234c-0.4208984,0-0.8115234-0.0751953-1.1713867-0.2246094
		c-0.3603516-0.1503906-0.6699219-0.3564453-0.9287109-0.6191406s-0.4614258-0.5751953-0.6069336-0.9345703
		c-0.1455078-0.3603516-0.2182617-0.7509766-0.2182617-1.171875s0.0683594-0.8154297,0.2060547-1.1835938
		s0.3339844-0.6894531,0.5888672-0.9648438s0.5625-0.4892578,0.9223633-0.6435547
		c0.3603516-0.1533203,0.7626953-0.2304688,1.2080078-0.2304688c0.3881836,0,0.7666016,0.0849609,1.1347656,0.2548828
		s0.6577148,0.4091797,0.8681641,0.7158203h0.0239258V30.53125h1.0927734V36.2363281z M66.0117188,31.4052734
		c-0.2910156,0-0.5541992,0.0507812-0.7890625,0.1523438c-0.234375,0.1005859-0.4326172,0.2382812-0.5947266,0.4121094
		c-0.1616211,0.1738281-0.2871094,0.3847656-0.3759766,0.6318359c-0.0893555,0.2460938-0.1337891,0.515625-0.1337891,0.8066406
		c0,0.5830078,0.1699219,1.0498047,0.5097656,1.4023438c0.3398438,0.3515625,0.8012695,0.5273438,1.3837891,0.5273438
		c0.5830078,0,1.0439453-0.1757812,1.3837891-0.5273438c0.3398438-0.3525391,0.5097656-0.8193359,0.5097656-1.4023438
		c0-0.2910156-0.0444336-0.5605469-0.1333008-0.8066406c-0.0893555-0.2470703-0.2143555-0.4580078-0.3764648-0.6318359
		c-0.1616211-0.1738281-0.3598633-0.3115234-0.5947266-0.4121094C66.565918,31.4560547,66.3032227,31.4052734,66.0117188,31.4052734
		z"/>
</g>
<path fill="none" stroke="#42BDAE" stroke-miterlimit="10" d="M1.5000036,1c0,1.2611165,1.0223334,2.2834499,2.2834394,2.2834499
	S6.0668826,2.2611165,6.0668826,1"/>
<path fill="none" stroke="#42BDAE" stroke-miterlimit="10" d="M7.8936405,5.0551014"/>
<path fill="none" stroke="#42BDAE" stroke-miterlimit="10" d="M7.8936405,1c0,1.2611165,1.0223331,2.2834499,2.2834396,2.2834499
	c1.261116,0,2.2834501-1.0223334,2.2834501-2.2834499"/>
<path fill="none" stroke="#37B34A" stroke-miterlimit="10" d="M14.2872772,5.0551014"/>
<path fill="none" stroke="#42BDAE" stroke-miterlimit="10" d="M14.2872772,1c0,1.2611165,1.0223331,2.2834499,2.2834492,2.2834499
	c1.2611065,0,2.2834396-1.0223334,2.2834396-2.2834499"/>
<path fill="none" stroke="#42BDAE" stroke-miterlimit="10" d="M1.5000036,13.9870892
	c0-1.261117,1.0223334-2.2834501,2.2834394-2.2834501s2.2834396,1.0223331,2.2834396,2.2834501"/>
<path fill="none" stroke="#42BDAE" stroke-miterlimit="10" d="M7.8936405,13.9870892
	c0-1.261117,1.0223331-2.2834501,2.2834396-2.2834501c1.261116,0,2.2834501,1.0223331,2.2834501,2.2834501"/>
<path fill="none" stroke="#42BDAE" stroke-miterlimit="10" d="M14.2872772,13.9870892
	c0-1.261117,1.0223331-2.2834501,2.2834492-2.2834501c1.2611065,0,2.2834396,1.0223331,2.2834396,2.2834501"/>
<circle fill="none" stroke="#42BDAE" stroke-miterlimit="10" cx="3.783443" cy="7.5078197" r="2.283443"/>
<circle fill="none" stroke="#42BDAE" stroke-miterlimit="10" cx="10.177083" cy="7.5078197" r="2.283443"/>
<circle fill="#42BDAE" stroke="#42BDAE" stroke-miterlimit="10" cx="16.5707226" cy="7.5078197" r="2.283443"/>
<path fill="none" stroke="#979797" stroke-width="0.9915338" stroke-miterlimit="10" d="M141.4308014,20.3267651"/>
<g>
	<path fill="#CCCCCC" d="M139.3457031,0.9716797h4.3427734l3,8.5019531h0.0371094l3.0175781-8.5019531h4.3242188v13.0288086
		h-2.8701172V4.0078125h-0.0371094l-3.4228516,9.9926758h-2.1894531l-3.2949219-9.9926758h-0.0361328v9.9926758h-2.8710938
		V0.9716797z"/>
	<path fill="#CCCCCC" d="M155.9814453,0.9716797h4.3427734l2.9990234,8.5019531h0.0371094l3.0175781-8.5019531h4.3251953v13.0288086
		h-2.8710938V4.0078125h-0.0371094l-3.4228516,9.9926758h-2.1894531l-3.2939453-9.9926758h-0.0371094v9.9926758h-2.8701172
		V0.9716797z"/>
</g>
<path fill="none" stroke="#979797" stroke-width="0.9915338" stroke-miterlimit="10" d="M141.5442352,20.2938766"/>
<g>
	<path fill="#CCCCCC" d="M139.3740234,16.5634766h1.7363281l2.7314453,6.5068359h0.0478516l2.7070312-6.5068359h1.7363281v8.5947266
		h-1.1660156v-7.0649414h-0.0244141l-2.9003906,7.0649414h-0.7773438l-2.9013672-7.0649414h-0.0234375v7.0649414h-1.1660156
		V16.5634766z"/>
	<path fill="#CCCCCC" d="M149.1337891,22.28125c0-0.4208984,0.0791016-0.8134766,0.2363281-1.1767578
		c0.1582031-0.3652344,0.375-0.6845703,0.6494141-0.9599609c0.2753906-0.2749023,0.5996094-0.4916992,0.9716797-0.6494141
		s0.7724609-0.2368164,1.2011719-0.2368164c0.4296875,0,0.8300781,0.0791016,1.2021484,0.2368164
		s0.6962891,0.3745117,0.9707031,0.6494141c0.2753906,0.2753906,0.4921875,0.5947266,0.6494141,0.9599609
		c0.1582031,0.3632812,0.2373047,0.7558594,0.2373047,1.1767578s-0.0791016,0.8154297-0.2373047,1.1835938
		c-0.1572266,0.3681641-0.3740234,0.6875-0.6494141,0.9589844c-0.2744141,0.2714844-0.5986328,0.4853516-0.9707031,0.6435547
		c-0.3720703,0.1572266-0.7724609,0.2363281-1.2021484,0.2363281c-0.4287109,0-0.8291016-0.0791016-1.2011719-0.2363281
		c-0.3720703-0.1582031-0.6962891-0.3720703-0.9716797-0.6435547c-0.2744141-0.2714844-0.4912109-0.5908203-0.6494141-0.9589844
		C149.2128906,23.0966797,149.1337891,22.7021484,149.1337891,22.28125z M150.2988281,22.28125
		c0,0.2910156,0.0449219,0.5605469,0.1337891,0.8076172s0.2148438,0.4570312,0.3759766,0.6308594
		c0.1621094,0.1738281,0.3603516,0.3115234,0.5947266,0.4130859c0.2353516,0.1005859,0.4980469,0.1513672,0.7890625,0.1513672
		c0.2919922,0,0.5546875-0.0507812,0.7890625-0.1513672c0.2353516-0.1015625,0.4335938-0.2392578,0.5947266-0.4130859
		c0.1621094-0.1738281,0.2871094-0.3837891,0.3769531-0.6308594c0.0888672-0.2470703,0.1328125-0.5166016,0.1328125-0.8076172
		s-0.0439453-0.5605469-0.1328125-0.8066406c-0.0898438-0.2470703-0.2148438-0.4580078-0.3769531-0.6323242
		c-0.1611328-0.1738281-0.359375-0.3110352-0.5947266-0.4125977c-0.234375-0.1010742-0.4970703-0.1518555-0.7890625-0.1518555
		c-0.2910156,0-0.5537109,0.0507812-0.7890625,0.1518555c-0.234375,0.1015625-0.4326172,0.2387695-0.5947266,0.4125977
		c-0.1611328,0.1743164-0.2871094,0.3852539-0.3759766,0.6323242C150.34375,21.7207031,150.2988281,21.9902344,150.2988281,22.28125
		z"/>
	<path fill="#CCCCCC" d="M155.9433594,15.980957h1.0927734v9.1772461h-1.0927734V15.980957z"/>
	<path fill="#CCCCCC" d="M158.8320312,22.6816406c0,0.2509766,0.0546875,0.4794922,0.1640625,0.6865234
		c0.109375,0.2060547,0.2529297,0.3818359,0.4306641,0.5273438s0.3847656,0.2597656,0.6191406,0.3398438
		c0.234375,0.0810547,0.4775391,0.1220703,0.7285156,0.1220703c0.3398438,0,0.6347656-0.0791016,0.8857422-0.2373047
		c0.2509766-0.1572266,0.4814453-0.3662109,0.6923828-0.625l0.8251953,0.6308594
		c-0.6064453,0.7851562-1.4560547,1.1777344-2.5488281,1.1777344c-0.453125,0-0.8642578-0.0771484-1.2324219-0.2304688
		s-0.6796875-0.3662109-0.9345703-0.6376953c-0.2548828-0.2705078-0.4511719-0.5898438-0.5888672-0.9589844
		c-0.1376953-0.3681641-0.2060547-0.7666016-0.2060547-1.1953125s0.0742188-0.8271484,0.2246094-1.1953125
		c0.1494141-0.3686523,0.3554688-0.6884766,0.6191406-0.9594727c0.2626953-0.2709961,0.5761719-0.4833984,0.9404297-0.6376953
		c0.3642578-0.1533203,0.7607422-0.2304688,1.1894531-0.2304688c0.5097656,0,0.9414062,0.0893555,1.2929688,0.2670898
		c0.3525391,0.1782227,0.6416016,0.4106445,0.8681641,0.6982422c0.2265625,0.2871094,0.3896484,0.6108398,0.4912109,0.9716797
		c0.1015625,0.359375,0.1523438,0.7255859,0.1523438,1.0986328v0.3876953H158.8320312z M162.2792969,21.8076172
		c-0.0078125-0.2421875-0.0458984-0.4648438-0.1152344-0.6679688c-0.0683594-0.2016602-0.171875-0.3779297-0.3095703-0.527832
		c-0.1376953-0.1494141-0.3095703-0.2670898-0.515625-0.3520508s-0.4472656-0.1274414-0.7226562-0.1274414
		c-0.2666016,0-0.5117188,0.0507812-0.734375,0.1518555s-0.4101562,0.2324219-0.5644531,0.3945312
		c-0.1533203,0.1616211-0.2724609,0.3417969-0.3574219,0.5410156c-0.0849609,0.1982422-0.1279297,0.3935547-0.1279297,0.5878906
		H162.2792969z"/>
	<path fill="#CCCCCC" d="M168.3496094,20.934082c-0.203125-0.2109375-0.4150391-0.3706055-0.6376953-0.4799805
		s-0.4873047-0.1640625-0.7949219-0.1640625c-0.2998047,0-0.5605469,0.0546875-0.7832031,0.1640625
		s-0.4082031,0.2587891-0.5585938,0.4487305c-0.1494141,0.190918-0.2626953,0.409668-0.3398438,0.6567383
		c-0.0761719,0.2460938-0.1152344,0.5029297-0.1152344,0.7705078c0,0.2666016,0.0449219,0.5195312,0.1337891,0.7587891
		c0.0888672,0.2382812,0.2148438,0.4472656,0.3759766,0.625c0.1621094,0.1777344,0.3564453,0.3173828,0.5830078,0.4189453
		c0.2265625,0.1005859,0.4814453,0.1513672,0.7646484,0.1513672c0.3076172,0,0.5703125-0.0546875,0.7890625-0.1640625
		s0.4208984-0.2685547,0.6074219-0.4794922l0.7763672,0.7773438c-0.2832031,0.3154297-0.6132812,0.5419922-0.9892578,0.6796875
		s-0.7753906,0.2060547-1.1953125,0.2060547c-0.4453125,0-0.8525391-0.0722656-1.2197266-0.21875
		c-0.3691406-0.1455078-0.6865234-0.3496094-0.953125-0.6123047c-0.2675781-0.2626953-0.4736328-0.5791016-0.6191406-0.9472656
		s-0.21875-0.7744141-0.21875-1.2197266s0.0732422-0.8535156,0.21875-1.2265625
		c0.1455078-0.3720703,0.3496094-0.6918945,0.6132812-0.9589844c0.2626953-0.2670898,0.578125-0.4750977,0.9462891-0.625
		s0.7792969-0.2246094,1.2324219-0.2246094c0.4199219,0,0.8232422,0.074707,1.2070312,0.2246094
		c0.3847656,0.1499023,0.71875,0.378418,1.0019531,0.6855469L168.3496094,20.934082z"/>
	<path fill="#CCCCCC" d="M174.6611328,25.1582031h-1.0927734v-0.8857422h-0.0244141
		c-0.1376953,0.3076172-0.3759766,0.5556641-0.7158203,0.7460938s-0.7324219,0.2851562-1.1777344,0.2851562
		c-0.2832031,0-0.5498047-0.0419922-0.8007812-0.1269531s-0.4716797-0.2167969-0.6611328-0.3945312
		c-0.1904297-0.1787109-0.3427734-0.4072266-0.4550781-0.6865234c-0.1142578-0.2792969-0.1708984-0.6083984-0.1708984-0.9892578
		v-3.7026367h1.0927734v3.3999023c0,0.2666016,0.0361328,0.4951172,0.109375,0.6855469s0.1699219,0.34375,0.2910156,0.4609375
		c0.1220703,0.1171875,0.2617188,0.2021484,0.4189453,0.2548828c0.1582031,0.0527344,0.3222656,0.0791016,0.4921875,0.0791016
		c0.2255859,0,0.4365234-0.0361328,0.6308594-0.109375c0.1943359-0.0722656,0.3642578-0.1875,0.5097656-0.3457031
		s0.2587891-0.3583984,0.3398438-0.6005859c0.0810547-0.2431641,0.1210938-0.5302734,0.1210938-0.8623047v-2.9624023h1.0927734
		V25.1582031z"/>
	<path fill="#CCCCCC" d="M175.875,15.980957h1.0927734v9.1772461H175.875V15.980957z"/>
	<path fill="#CCCCCC" d="M178.2050781,20.1079102c0.3076172-0.2832031,0.6640625-0.4956055,1.0683594-0.637207
		s0.8095703-0.2124023,1.2138672-0.2124023c0.4208984,0,0.7832031,0.0527344,1.0869141,0.1577148
		c0.3027344,0.1054688,0.5517578,0.2470703,0.7460938,0.4248047c0.1943359,0.1782227,0.3378906,0.3828125,0.4306641,0.6132812
		c0.09375,0.2304688,0.1396484,0.4711914,0.1396484,0.7226562v2.9375c0,0.2021484,0.0039062,0.3886719,0.0126953,0.5585938
		c0.0078125,0.1699219,0.0195312,0.3320312,0.0361328,0.4853516H181.96875
		c-0.0244141-0.2910156-0.0371094-0.5830078-0.0371094-0.8740234h-0.0244141
		c-0.2421875,0.3720703-0.5292969,0.6357422-0.8613281,0.7890625s-0.7158203,0.2304688-1.1533203,0.2304688
		c-0.2666016,0-0.5214844-0.0361328-0.7646484-0.109375c-0.2431641-0.0722656-0.4550781-0.1816406-0.6376953-0.3271484
		c-0.1816406-0.1455078-0.3251953-0.3261719-0.4306641-0.5400391c-0.1054688-0.2148438-0.1572266-0.4638672-0.1572266-0.7470703
		c0-0.3720703,0.0820312-0.6835938,0.2480469-0.9345703s0.3925781-0.4550781,0.6796875-0.6132812
		c0.2880859-0.1572266,0.6230469-0.2705078,1.0078125-0.3398438c0.3847656-0.0683594,0.7949219-0.1025391,1.2324219-0.1025391
		h0.8007812v-0.2431641c0-0.1455078-0.0283203-0.2910156-0.0849609-0.4379883
		c-0.0566406-0.1450195-0.1416016-0.2763672-0.2548828-0.394043c-0.1132812-0.1171875-0.2548828-0.2104492-0.4248047-0.2792969
		c-0.1699219-0.0683594-0.3720703-0.1030273-0.6064453-0.1030273c-0.2109375,0-0.3945312,0.0205078-0.5527344,0.0605469
		c-0.1582031,0.0405273-0.3017578,0.0913086-0.4306641,0.1518555c-0.1298828,0.0605469-0.2470703,0.1318359-0.3525391,0.2124023
		c-0.1044922,0.0810547-0.2060547,0.1577148-0.3027344,0.2304688L178.2050781,20.1079102z M181.2890625,22.390625
		c-0.2597656,0-0.5244141,0.0146484-0.7958984,0.0419922c-0.2705078,0.0292969-0.5175781,0.0839844-0.7402344,0.1640625
		c-0.2226562,0.0810547-0.4042969,0.1943359-0.5458984,0.3398438s-0.2128906,0.3320312-0.2128906,0.5585938
		c0,0.3320312,0.1113281,0.5703125,0.3339844,0.7158203c0.2226562,0.1464844,0.5244141,0.21875,0.9042969,0.21875
		c0.2998047,0,0.5546875-0.0498047,0.7646484-0.1513672c0.2109375-0.1015625,0.3808594-0.2324219,0.5097656-0.3945312
		c0.1298828-0.1621094,0.2226562-0.3417969,0.2792969-0.5400391s0.0849609-0.3945312,0.0849609-0.5888672V22.390625H181.2890625z"/>
	<path fill="#CCCCCC" d="M183.9589844,19.4038086h1.0927734v0.8862305h0.0244141
		c0.0722656-0.1533203,0.1699219-0.2929688,0.2910156-0.418457s0.2568359-0.2329102,0.40625-0.3217773
		s0.3134766-0.159668,0.4921875-0.2124023c0.1777344-0.0527344,0.3554688-0.0791016,0.5341797-0.0791016
		c0.1777344,0,0.3398438,0.0244141,0.4853516,0.0727539l-0.0488281,1.1777344
		c-0.0888672-0.0244141-0.1777344-0.0444336-0.2666016-0.0610352c-0.0898438-0.0161133-0.1787109-0.0239258-0.2675781-0.0239258
		c-0.5341797,0-0.9423828,0.1499023-1.2255859,0.449707c-0.2832031,0.2993164-0.4248047,0.7641602-0.4248047,1.3959961v2.8886719
		h-1.0927734V19.4038086z"/>
	<path fill="#CCCCCC" d="M139.3740234,27.6914062h1.7363281l2.7314453,6.5058594h0.0478516l2.7070312-6.5058594h1.7363281v8.59375
		h-1.1660156v-7.0644531h-0.0244141l-2.9003906,7.0644531h-0.7773438l-2.9013672-7.0644531h-0.0234375v7.0644531h-1.1660156
		V27.6914062z"/>
	<path fill="#CCCCCC" d="M149.1337891,33.4082031c0-0.4208984,0.0791016-0.8134766,0.2363281-1.1777344
		c0.1582031-0.3632812,0.375-0.6835938,0.6494141-0.9589844c0.2753906-0.2744141,0.5996094-0.4912109,0.9716797-0.6494141
		c0.3720703-0.1572266,0.7724609-0.2363281,1.2011719-0.2363281c0.4296875,0,0.8300781,0.0791016,1.2021484,0.2363281
		c0.3720703,0.1582031,0.6962891,0.375,0.9707031,0.6494141c0.2753906,0.2753906,0.4921875,0.5957031,0.6494141,0.9589844
		c0.1582031,0.3642578,0.2373047,0.7568359,0.2373047,1.1777344s-0.0791016,0.8154297-0.2373047,1.1835938
		c-0.1572266,0.3681641-0.3740234,0.6875-0.6494141,0.9589844c-0.2744141,0.2714844-0.5986328,0.4853516-0.9707031,0.6435547
		c-0.3720703,0.1572266-0.7724609,0.2363281-1.2021484,0.2363281c-0.4287109,0-0.8291016-0.0791016-1.2011719-0.2363281
		c-0.3720703-0.1582031-0.6962891-0.3720703-0.9716797-0.6435547c-0.2744141-0.2714844-0.4912109-0.5908203-0.6494141-0.9589844
		C149.2128906,34.2236328,149.1337891,33.8291016,149.1337891,33.4082031z M150.2988281,33.4082031
		c0,0.2910156,0.0449219,0.5605469,0.1337891,0.8076172s0.2148438,0.4570312,0.3759766,0.6308594
		c0.1621094,0.1738281,0.3603516,0.3115234,0.5947266,0.4130859c0.2353516,0.1005859,0.4980469,0.1513672,0.7890625,0.1513672
		c0.2919922,0,0.5546875-0.0507812,0.7890625-0.1513672c0.2353516-0.1015625,0.4335938-0.2392578,0.5947266-0.4130859
		c0.1621094-0.1738281,0.2871094-0.3837891,0.3769531-0.6308594c0.0888672-0.2470703,0.1328125-0.5166016,0.1328125-0.8076172
		s-0.0439453-0.5605469-0.1328125-0.8066406c-0.0898438-0.2470703-0.2148438-0.4580078-0.3769531-0.6318359
		c-0.1611328-0.1738281-0.359375-0.3115234-0.5947266-0.4121094c-0.234375-0.1015625-0.4970703-0.1523438-0.7890625-0.1523438
		c-0.2910156,0-0.5537109,0.0507812-0.7890625,0.1523438c-0.234375,0.1005859-0.4326172,0.2382812-0.5947266,0.4121094
		c-0.1611328,0.1738281-0.2871094,0.3847656-0.3759766,0.6318359
		C150.34375,32.8476562,150.2988281,33.1171875,150.2988281,33.4082031z"/>
	<path fill="#CCCCCC" d="M161.8671875,36.2851562h-1.0927734v-0.8251953h-0.0234375
		c-0.2109375,0.3076172-0.5,0.5458984-0.8681641,0.7158203s-0.7470703,0.2548828-1.1347656,0.2548828
		c-0.4453125,0-0.8476562-0.0771484-1.2080078-0.2304688s-0.6679688-0.3681641-0.9228516-0.6435547
		c-0.2548828-0.2744141-0.4511719-0.5947266-0.5888672-0.9589844s-0.2060547-0.7607422-0.2060547-1.1894531
		s0.0683594-0.8271484,0.2060547-1.1953125s0.3339844-0.6875,0.5888672-0.9589844s0.5625-0.4833984,0.9228516-0.6376953
		c0.3603516-0.1533203,0.7626953-0.2304688,1.2080078-0.2304688c0.4121094,0,0.8007812,0.0869141,1.1650391,0.2607422
		c0.3642578,0.1748047,0.6435547,0.4111328,0.8378906,0.7099609h0.0234375v-4.2480469h1.0927734V36.2851562z
		 M158.8808594,35.4111328c0.2919922,0,0.5546875-0.0507812,0.7890625-0.1513672
		c0.2353516-0.1015625,0.4335938-0.2392578,0.5947266-0.4130859c0.1621094-0.1738281,0.2871094-0.3837891,0.3769531-0.6308594
		c0.0888672-0.2470703,0.1328125-0.5166016,0.1328125-0.8076172s-0.0439453-0.5605469-0.1328125-0.8066406
		c-0.0898438-0.2470703-0.2148438-0.4580078-0.3769531-0.6318359c-0.1611328-0.1738281-0.359375-0.3115234-0.5947266-0.4121094
		c-0.234375-0.1015625-0.4970703-0.1523438-0.7890625-0.1523438c-0.2910156,0-0.5537109,0.0507812-0.7890625,0.1523438
		c-0.234375,0.1005859-0.4326172,0.2382812-0.5947266,0.4121094c-0.1611328,0.1738281-0.2871094,0.3847656-0.3759766,0.6318359
		c-0.0888672,0.2460938-0.1337891,0.515625-0.1337891,0.8066406s0.0449219,0.5605469,0.1337891,0.8076172
		s0.2148438,0.4570312,0.3759766,0.6308594c0.1621094,0.1738281,0.3603516,0.3115234,0.5947266,0.4130859
		C158.3271484,35.3603516,158.5898438,35.4111328,158.8808594,35.4111328z"/>
	<path fill="#CCCCCC" d="M163.8212891,33.8085938c0,0.2509766,0.0546875,0.4794922,0.1640625,0.6865234
		c0.109375,0.2060547,0.2529297,0.3818359,0.4306641,0.5273438s0.3847656,0.2597656,0.6191406,0.3398438
		c0.234375,0.0810547,0.4775391,0.1220703,0.7285156,0.1220703c0.3398438,0,0.6347656-0.0791016,0.8857422-0.2373047
		c0.2509766-0.1572266,0.4814453-0.3662109,0.6923828-0.625l0.8251953,0.6308594
		c-0.6064453,0.7851562-1.4560547,1.1777344-2.5488281,1.1777344c-0.453125,0-0.8642578-0.0771484-1.2324219-0.2304688
		s-0.6796875-0.3662109-0.9345703-0.6376953c-0.2548828-0.2705078-0.4511719-0.5898438-0.5888672-0.9589844
		c-0.1376953-0.3681641-0.2060547-0.7666016-0.2060547-1.1953125s0.0742188-0.8271484,0.2246094-1.1953125
		c0.1494141-0.3681641,0.3554688-0.6875,0.6191406-0.9589844c0.2626953-0.2714844,0.5761719-0.4833984,0.9404297-0.6376953
		c0.3642578-0.1533203,0.7607422-0.2304688,1.1894531-0.2304688c0.5097656,0,0.9414062,0.0888672,1.2929688,0.2675781
		c0.3525391,0.1777344,0.6416016,0.4101562,0.8681641,0.6972656s0.3896484,0.6113281,0.4912109,0.9716797
		c0.1015625,0.359375,0.1523438,0.7255859,0.1523438,1.0986328v0.3876953H163.8212891z M167.2685547,32.9345703
		c-0.0078125-0.2421875-0.0458984-0.4648438-0.1152344-0.6669922c-0.0683594-0.2021484-0.171875-0.3789062-0.3095703-0.5283203
		s-0.3095703-0.2666016-0.515625-0.3515625s-0.4472656-0.1279297-0.7226562-0.1279297
		c-0.2666016,0-0.5117188,0.0507812-0.734375,0.1513672c-0.2226562,0.1015625-0.4101562,0.2333984-0.5644531,0.3945312
		c-0.1533203,0.1621094-0.2724609,0.3427734-0.3574219,0.5410156s-0.1279297,0.3935547-0.1279297,0.5878906H167.2685547z"/>
	<path fill="#CCCCCC" d="M169.3076172,27.1083984h1.0927734v9.1767578h-1.0927734V27.1083984z"/>
	<path fill="#CCCCCC" d="M171.4443359,28.4677734c0-0.21875,0.0791016-0.40625,0.2363281-0.5644531
		c0.1582031-0.1572266,0.3466797-0.2363281,0.5644531-0.2363281c0.21875,0,0.4072266,0.0791016,0.5644531,0.2363281
		c0.1582031,0.1582031,0.2373047,0.3457031,0.2373047,0.5644531s-0.0791016,0.4072266-0.2373047,0.5644531
		c-0.1572266,0.1582031-0.3457031,0.2373047-0.5644531,0.2373047c-0.2177734,0-0.40625-0.0791016-0.5644531-0.2373047
		C171.5234375,28.875,171.4443359,28.6865234,171.4443359,28.4677734z M171.6992188,30.53125h1.0927734v5.7539062h-1.0927734
		V30.53125z"/>
	<path fill="#CCCCCC" d="M174.0048828,30.53125h1.0927734v0.8867188h0.0244141
		c0.1376953-0.3076172,0.3759766-0.5566406,0.7158203-0.7470703c0.3398438-0.1894531,0.7324219-0.2851562,1.1777344-0.2851562
		c0.2753906,0,0.5400391,0.0429688,0.7949219,0.1279297s0.4775391,0.2158203,0.6679688,0.3945312
		c0.1904297,0.1777344,0.3417969,0.40625,0.4550781,0.6855469s0.1699219,0.6083984,0.1699219,0.9892578v3.7021484h-1.0927734
		v-3.3984375c0-0.2675781-0.0361328-0.4960938-0.109375-0.6865234c-0.0722656-0.1894531-0.1699219-0.34375-0.2910156-0.4609375
		s-0.2607422-0.2021484-0.4189453-0.2548828c-0.1572266-0.0527344-0.3212891-0.0791016-0.4912109-0.0791016
		c-0.2265625,0-0.4375,0.0361328-0.6308594,0.109375c-0.1943359,0.0732422-0.3642578,0.1884766-0.5097656,0.3457031
		c-0.1464844,0.1582031-0.2597656,0.3583984-0.3408203,0.6015625c-0.0800781,0.2421875-0.1210938,0.5292969-0.1210938,0.8613281
		v2.9619141h-1.0927734V30.53125z"/>
	<path fill="#CCCCCC" d="M185.9980469,36.2363281c0,0.4375-0.0751953,0.8359375-0.2246094,1.1962891
		c-0.1494141,0.359375-0.3623047,0.6708984-0.6367188,0.9345703c-0.2753906,0.2626953-0.6074219,0.4667969-0.9960938,0.6123047
		c-0.3876953,0.1464844-0.8173828,0.21875-1.2861328,0.21875c-0.5507812,0-1.0546875-0.0771484-1.5117188-0.2304688
		c-0.4570312-0.1542969-0.8916016-0.4208984-1.3046875-0.8007812l0.7402344-0.9228516
		c0.2832031,0.3076172,0.5908203,0.5400391,0.9228516,0.6982422c0.3320312,0.1572266,0.7080078,0.2363281,1.1289062,0.2363281
		c0.4042969,0,0.7402344-0.0585938,1.0078125-0.1757812c0.2666016-0.1171875,0.4794922-0.2695312,0.6367188-0.4550781
		c0.1582031-0.1865234,0.2695312-0.3994141,0.3339844-0.6376953s0.0966797-0.4794922,0.0966797-0.7216797v-0.8505859h-0.0361328
		c-0.2099609,0.3486328-0.4951172,0.6054688-0.8554688,0.7714844s-0.7382812,0.2490234-1.1347656,0.2490234
		c-0.4208984,0-0.8115234-0.0751953-1.171875-0.2246094c-0.3603516-0.1503906-0.6699219-0.3564453-0.9287109-0.6191406
		s-0.4609375-0.5751953-0.6064453-0.9345703c-0.1455078-0.3603516-0.21875-0.7509766-0.21875-1.171875
		s0.0683594-0.8154297,0.2060547-1.1835938s0.3339844-0.6894531,0.5888672-0.9648438s0.5625-0.4892578,0.9228516-0.6435547
		c0.3603516-0.1533203,0.7626953-0.2304688,1.2080078-0.2304688c0.3876953,0,0.7666016,0.0849609,1.1347656,0.2548828
		s0.6572266,0.4091797,0.8681641,0.7158203h0.0234375V30.53125h1.0927734V36.2363281z M183.0117188,31.4052734
		c-0.2910156,0-0.5537109,0.0507812-0.7890625,0.1523438c-0.234375,0.1005859-0.4326172,0.2382812-0.5947266,0.4121094
		c-0.1611328,0.1738281-0.2871094,0.3847656-0.3759766,0.6318359c-0.0888672,0.2460938-0.1337891,0.515625-0.1337891,0.8066406
		c0,0.5830078,0.1699219,1.0498047,0.5097656,1.4023438c0.3398438,0.3515625,0.8017578,0.5273438,1.3837891,0.5273438
		c0.5830078,0,1.0439453-0.1757812,1.3837891-0.5273438c0.3398438-0.3525391,0.5097656-0.8193359,0.5097656-1.4023438
		c0-0.2910156-0.0439453-0.5605469-0.1328125-0.8066406c-0.0898438-0.2470703-0.2148438-0.4580078-0.3769531-0.6318359
		c-0.1611328-0.1738281-0.359375-0.3115234-0.5947266-0.4121094
		C183.5664062,31.4560547,183.3037109,31.4052734,183.0117188,31.4052734z"/>
</g>
<path fill="none" stroke="#CCCCCC" stroke-miterlimit="10" d="M118.5,1c0,1.2611165,1.0223389,2.2834499,2.2834396,2.2834499
	c1.2611084,0,2.2834396-1.0223334,2.2834396-2.2834499"/>
<path fill="none" stroke="#CCCCCC" stroke-miterlimit="10" d="M124.8936386,5.0551014"/>
<path fill="none" stroke="#CCCCCC" stroke-miterlimit="10" d="M124.8936386,1c0,1.2611165,1.0223389,2.2834499,2.2834396,2.2834499
	c1.2611237,0,2.2834473-1.0223334,2.2834473-2.2834499"/>
<path fill="none" stroke="#37B34A" stroke-miterlimit="10" d="M131.2872772,5.0551014"/>
<path fill="none" stroke="#CCCCCC" stroke-miterlimit="10" d="M131.2872772,1c0,1.2611165,1.0223389,2.2834499,2.2834473,2.2834499
	S135.8541718,2.2611165,135.8541718,1"/>
<path fill="none" stroke="#CCCCCC" stroke-miterlimit="10" d="M118.5,13.9870892
	c0-1.261117,1.0223389-2.2834501,2.2834396-2.2834501c1.2611084,0,2.2834396,1.0223331,2.2834396,2.2834501"/>
<path fill="none" stroke="#CCCCCC" stroke-miterlimit="10" d="M124.8936386,13.9870892
	c0-1.261117,1.0223389-2.2834501,2.2834396-2.2834501c1.2611237,0,2.2834473,1.0223331,2.2834473,2.2834501"/>
<path fill="none" stroke="#CCCCCC" stroke-miterlimit="10" d="M131.2872772,13.9870892
	c0-1.261117,1.0223389-2.2834501,2.2834473-2.2834501s2.2834473,1.0223331,2.2834473,2.2834501"/>
<circle fill="none" stroke="#CCCCCC" stroke-miterlimit="10" cx="120.7834396" cy="7.5078197" r="2.283443"/>
<circle fill="none" stroke="#CCCCCC" stroke-miterlimit="10" cx="127.1770859" cy="7.5078197" r="2.283443"/>
<circle fill="#CCCCCC" stroke="#CCCCCC" stroke-miterlimit="10" cx="133.5707245" cy="7.5078197" r="2.283443"/>
<g>
</g>
<g>
</g>
<g>
</g>
<g>
</g>
<g>
</g>
<g>
</g>
<g>
</g>
<g>
</g>
<g>
</g>
<g>
</g>
<g>
</g>
<g>
</g>
<g>
</g>
<g>
</g>
<g>
</g>
</svg>
