<?xml version="1.0" encoding="utf-8"?>
<!-- Generator: Adobe Illustrator 17.1.0, SVG Export Plug-In . SVG Version: 6.00 Build 0)  -->
<!DOCTYPE svg PUBLIC "-//W3C//DTD SVG 1.1//EN" "http://www.w3.org/Graphics/SVG/1.1/DTD/svg11.dtd">
<svg version="1.1" id="Layer_1" xmlns="http://www.w3.org/2000/svg" xmlns:xlink="http://www.w3.org/1999/xlink" x="0px" y="0px"
	 width="240px" height="40px" viewBox="0 0 240 40" enable-background="new 0 0 240 40" xml:space="preserve">
<path fill="none" stroke="#979797" stroke-width="0.9915338" stroke-miterlimit="10" d="M24.4307995,20.3267651"/>
<g>
	<path fill="#F6A330" d="M22.3461914,0.9716797h5.0419922c0.6625977,0,1.2910156,0.0644531,1.8862305,0.1928711
		c0.5952148,0.1289062,1.1162109,0.34375,1.5644531,0.6445312c0.4477539,0.300293,0.8032227,0.7055664,1.0673828,1.2143555
		c0.2636719,0.5092773,0.3955078,1.144043,0.3955078,1.9047852c0,0.9199219-0.2392578,1.7021484-0.7177734,2.3461914
		S30.40625,8.3266602,29.4863281,8.4980469l3.3125,5.5024414h-3.4414062l-2.7236328-5.2080078h-1.4169922v5.2080078h-2.8706055
		V0.9716797z M25.2167969,6.3632812h1.6928711c0.2578125,0,0.5307617-0.0087891,0.8188477-0.0273438
		s0.5493164-0.0737305,0.7822266-0.1655273C28.7436523,6.078125,28.9370117,5.934082,29.090332,5.737793
		s0.2299805-0.472168,0.2299805-0.828125c0-0.3310547-0.0673828-0.5947266-0.2021484-0.7915039
		c-0.1352539-0.1958008-0.3066406-0.3461914-0.5151367-0.4506836c-0.2089844-0.1040039-0.4482422-0.1748047-0.7177734-0.2114258
		c-0.2700195-0.0371094-0.5336914-0.0551758-0.7915039-0.0551758h-1.8769531V6.3632812z"/>
	<path fill="#F6A330" d="M34.2709961,0.9716797h4.3061523c1.0424805,0,2.0332031,0.1166992,2.9716797,0.3496094
		s1.7578125,0.6103516,2.4570312,1.1318359s1.2539062,1.1992188,1.6650391,2.0332031
		c0.4111328,0.8344727,0.6166992,1.8466797,0.6166992,3.0366211c0,1.0551758-0.199707,1.984375-0.5981445,2.7875977
		c-0.3989258,0.8037109-0.9355469,1.4790039-1.6103516,2.0244141c-0.6748047,0.5458984-1.4536133,0.9599609-2.3369141,1.2421875
		s-1.8095703,0.4233398-2.7788086,0.4233398h-4.6923828V0.9716797z M37.1416016,11.3505859h1.4907227
		c0.6621094,0,1.2788086-0.0673828,1.8491211-0.2026367c0.5708008-0.1347656,1.0644531-0.3588867,1.4814453-0.6713867
		c0.4169922-0.3129883,0.7456055-0.7241211,0.9848633-1.2329102c0.2392578-0.5092773,0.3588867-1.1318359,0.3588867-1.8681641
		c0-0.6376953-0.1196289-1.1928711-0.3588867-1.6655273c-0.2392578-0.472168-0.5615234-0.8613281-0.9663086-1.168457
		c-0.4047852-0.3066406-0.8803711-0.5366211-1.4262695-0.6899414S39.4355469,3.621582,38.8344727,3.621582h-1.6928711V11.3505859z"
		/>
	<path fill="#F6A330" d="M56.7583008,4.3574219c-0.2822266-0.3432617-0.6289062-0.6069336-1.0395508-0.7910156
		c-0.4111328-0.184082-0.8867188-0.2763672-1.4262695-0.2763672c-0.5400391,0-1.0395508,0.1044922-1.5,0.3129883
		c-0.4599609,0.2089844-0.8588867,0.5-1.1958008,0.8740234c-0.3378906,0.3745117-0.6015625,0.8188477-0.7915039,1.3344727
		c-0.1904297,0.5151367-0.2851562,1.0737305-0.2851562,1.6743164c0,0.6137695,0.0947266,1.175293,0.2851562,1.684082
		c0.1899414,0.5092773,0.4506836,0.9506836,0.7822266,1.324707c0.3310547,0.3745117,0.7207031,0.6660156,1.168457,0.8745117
		s0.9291992,0.3125,1.4448242,0.3125c0.5888672,0,1.1098633-0.1225586,1.5639648-0.3676758
		c0.4536133-0.2456055,0.828125-0.5893555,1.1225586-1.0307617l2.3925781,1.7851562
		c-0.5522461,0.7729492-1.2514648,1.3432617-2.0981445,1.7114258s-1.7177734,0.5517578-2.6132812,0.5517578
		c-1.0180664,0-1.9570312-0.1591797-2.8154297-0.4785156c-0.8588867-0.3188477-1.6010742-0.7753906-2.2265625-1.3706055
		c-0.6259766-0.5952148-1.1132812-1.315918-1.4628906-2.1625977c-0.3500977-0.8461914-0.5249023-1.7910156-0.5249023-2.8339844
		c0-1.0424805,0.1748047-1.9873047,0.5249023-2.8339844c0.3496094-0.8461914,0.8369141-1.5668945,1.4628906-2.1621094
		c0.6254883-0.5947266,1.3676758-1.0517578,2.2265625-1.3710938c0.8583984-0.3188477,1.7973633-0.4785156,2.8154297-0.4785156
		c0.3681641,0,0.7514648,0.0341797,1.1503906,0.1015625c0.3984375,0.0673828,0.7910156,0.1748047,1.1777344,0.3217773
		c0.3862305,0.1474609,0.7573242,0.34375,1.1132812,0.5888672c0.3554688,0.2456055,0.6748047,0.5458984,0.9570312,0.9018555
		L56.7583008,4.3574219z"/>
</g>
<path fill="none" stroke="#979797" stroke-width="0.9915338" stroke-miterlimit="10" d="M24.5442295,20.2938766"/>
<g>
	<path fill="#F6A330" d="M22.4589844,16.5634766h3.0224609c0.550293,0,1.003418,0.0751953,1.3598633,0.2246094
		c0.355957,0.1499023,0.637207,0.3398438,0.8432617,0.5708008c0.206543,0.2304688,0.3500977,0.4897461,0.4311523,0.7768555
		c0.0805664,0.2871094,0.1210938,0.5644531,0.1210938,0.831543c0,0.2749023-0.0483398,0.5400391-0.1455078,0.7949219
		s-0.2368164,0.4853516-0.418457,0.6918945c-0.1821289,0.2060547-0.4047852,0.3803711-0.6679688,0.5219727
		c-0.2631836,0.1420898-0.5561523,0.2290039-0.8798828,0.2612305l2.4399414,3.9208984h-1.456543l-2.1850586-3.7871094h-1.2988281
		v3.7871094h-1.1655273V16.5634766z M23.6245117,20.3510742h1.5292969c0.2265625,0,0.4511719-0.0185547,0.6738281-0.0546875
		c0.222168-0.0366211,0.4204102-0.1035156,0.5947266-0.2006836c0.1738281-0.0966797,0.3134766-0.2363281,0.4189453-0.418457
		c0.1049805-0.1821289,0.1577148-0.4189453,0.1577148-0.7099609c0-0.2915039-0.0527344-0.5283203-0.1577148-0.7104492
		c-0.1054688-0.1821289-0.2451172-0.3217773-0.4189453-0.418457c-0.1743164-0.097168-0.3725586-0.1640625-0.5947266-0.2006836
		c-0.2226562-0.0361328-0.4472656-0.0541992-0.6738281-0.0541992h-1.5292969V20.3510742z"/>
	<path fill="#F6A330" d="M29.8999023,22.6816406c0,0.2509766,0.0546875,0.4794922,0.1640625,0.6865234
		c0.1088867,0.2060547,0.2524414,0.3818359,0.4306641,0.5273438c0.1777344,0.1455078,0.3842773,0.2597656,0.6191406,0.3398438
		c0.234375,0.0810547,0.4775391,0.1220703,0.7280273,0.1220703c0.340332,0,0.6352539-0.0791016,0.8862305-0.2373047
		c0.2509766-0.1572266,0.4814453-0.3662109,0.6918945-0.625l0.8256836,0.6308594
		c-0.6069336,0.7851562-1.456543,1.1777344-2.5493164,1.1777344c-0.453125,0-0.8637695-0.0771484-1.2319336-0.2304688
		s-0.6796875-0.3662109-0.9345703-0.6376953c-0.2548828-0.2705078-0.4511719-0.5898438-0.5888672-0.9589844
		c-0.1376953-0.3681641-0.206543-0.7666016-0.206543-1.1953125s0.074707-0.8271484,0.2246094-1.1953125
		c0.1499023-0.3686523,0.355957-0.6884766,0.6191406-0.9594727s0.5766602-0.4833984,0.940918-0.6376953
		c0.3642578-0.1533203,0.7602539-0.2304688,1.1894531-0.2304688c0.5097656,0,0.940918,0.0893555,1.2929688,0.2670898
		c0.3520508,0.1782227,0.6411133,0.4106445,0.8676758,0.6982422c0.2265625,0.2871094,0.3901367,0.6108398,0.4916992,0.9716797
		c0.1010742,0.359375,0.1518555,0.7255859,0.1518555,1.0986328v0.3876953H29.8999023z M33.347168,21.8076172
		c-0.0083008-0.2421875-0.0463867-0.4648438-0.1152344-0.6679688c-0.0688477-0.2016602-0.171875-0.3779297-0.3095703-0.527832
		c-0.1376953-0.1494141-0.3095703-0.2670898-0.5161133-0.3520508c-0.2060547-0.0849609-0.4467773-0.1274414-0.722168-0.1274414
		c-0.2670898,0-0.5117188,0.0507812-0.734375,0.1518555s-0.4106445,0.2324219-0.5644531,0.3945312
		c-0.1538086,0.1616211-0.2729492,0.3417969-0.3579102,0.5410156c-0.0849609,0.1982422-0.1274414,0.3935547-0.1274414,0.5878906
		H33.347168z"/>
	<path fill="#F6A330" d="M38.3603516,20.8481445c-0.1293945-0.1616211-0.2895508-0.296875-0.4794922-0.40625
		s-0.4228516-0.1640625-0.6977539-0.1640625c-0.2592773,0-0.4838867,0.0546875-0.6738281,0.1640625
		c-0.1904297,0.109375-0.2851562,0.269043-0.2851562,0.4794922c0,0.1704102,0.0546875,0.3081055,0.1635742,0.4135742
		c0.109375,0.1044922,0.2387695,0.1894531,0.3886719,0.2548828c0.1494141,0.0644531,0.3095703,0.1132812,0.4794922,0.1455078
		s0.3154297,0.0605469,0.4370117,0.0849609c0.234375,0.0566406,0.4550781,0.125,0.6616211,0.2060547
		c0.2060547,0.0810547,0.3842773,0.1865234,0.5341797,0.3154297c0.1494141,0.1298828,0.2666016,0.2880859,0.3515625,0.4736328
		c0.0849609,0.1865234,0.1274414,0.4130859,0.1274414,0.6796875c0,0.3242188-0.0688477,0.6005859-0.2060547,0.8320312
		c-0.1376953,0.2304688-0.3154297,0.4179688-0.5341797,0.5644531c-0.2182617,0.1455078-0.4672852,0.25-0.746582,0.3154297
		c-0.2792969,0.0644531-0.5605469,0.0966797-0.84375,0.0966797c-0.4775391,0-0.8959961-0.0722656-1.2563477-0.21875
		c-0.3598633-0.1455078-0.6816406-0.4121094-0.9648438-0.8007812l0.8256836-0.6796875
		c0.1777344,0.1777344,0.3759766,0.3359375,0.5947266,0.4736328c0.2182617,0.1376953,0.4853516,0.2060547,0.8007812,0.2060547
		c0.1376953,0,0.2773438-0.0136719,0.4189453-0.0419922s0.2670898-0.0732422,0.3764648-0.1337891
		c0.1088867-0.0605469,0.1982422-0.1376953,0.2670898-0.2304688c0.0683594-0.09375,0.1030273-0.2001953,0.1030273-0.3222656
		c0-0.1611328-0.0507812-0.2949219-0.1518555-0.4003906s-0.2226562-0.1884766-0.3642578-0.2490234
		s-0.2910156-0.109375-0.4487305-0.1455078c-0.1582031-0.0361328-0.2973633-0.0664062-0.4189453-0.0908203
		c-0.2348633-0.0566406-0.4575195-0.1210938-0.6674805-0.1943359c-0.2109375-0.0732422-0.3969727-0.1699219-0.5585938-0.2910156
		c-0.1621094-0.1220703-0.2915039-0.2753906-0.3881836-0.4619141c-0.097168-0.1855469-0.1459961-0.4160156-0.1459961-0.6914062
		c0-0.2998047,0.0625-0.5610352,0.1884766-0.7836914c0.125-0.222168,0.2910156-0.4067383,0.4975586-0.5522461
		c0.2060547-0.1455078,0.440918-0.2548828,0.7041016-0.3276367c0.2626953-0.0727539,0.527832-0.109375,0.7949219-0.109375
		c0.3886719,0,0.7607422,0.0727539,1.1166992,0.21875c0.355957,0.1455078,0.6391602,0.3881836,0.8496094,0.7280273
		L38.3603516,20.8481445z"/>
	<path fill="#F6A330" d="M39.9990234,17.340332c0-0.2182617,0.0791016-0.40625,0.2368164-0.5644531
		c0.1577148-0.1577148,0.3461914-0.2363281,0.5644531-0.2363281c0.21875,0,0.4067383,0.0786133,0.5644531,0.2363281
		c0.1577148,0.1582031,0.2368164,0.3461914,0.2368164,0.5644531c0,0.21875-0.0791016,0.4067383-0.2368164,0.5644531
		s-0.3457031,0.2368164-0.5644531,0.2368164c-0.2182617,0-0.4067383-0.0791016-0.5644531-0.2368164
		S39.9990234,17.559082,39.9990234,17.340332z M40.2539062,19.4038086h1.0927734v5.7543945h-1.0927734V19.4038086z"/>
	<path fill="#F6A330" d="M48.3261719,25.1582031h-1.0927734v-0.8251953h-0.0239258
		c-0.2104492,0.3076172-0.5,0.5458984-0.8681641,0.7158203s-0.746582,0.2548828-1.1347656,0.2548828
		c-0.4453125,0-0.8476562-0.0771484-1.2080078-0.2304688c-0.3598633-0.1533203-0.6674805-0.3681641-0.9223633-0.6435547
		c-0.2548828-0.2744141-0.4511719-0.5947266-0.5888672-0.9589844S42.28125,22.7099609,42.28125,22.28125
		s0.0683594-0.8271484,0.2060547-1.1953125c0.1376953-0.3686523,0.3339844-0.6884766,0.5888672-0.9594727
		s0.5625-0.4833984,0.9223633-0.6376953c0.3603516-0.1533203,0.7626953-0.2304688,1.2080078-0.2304688
		c0.4125977,0,0.8012695,0.0869141,1.1650391,0.2612305c0.3642578,0.1738281,0.6435547,0.4106445,0.8378906,0.7099609h0.0239258
		V15.980957h1.0927734V25.1582031z M45.3398438,24.2841797c0.2915039,0,0.5541992-0.0507812,0.7890625-0.1513672
		c0.2348633-0.1015625,0.4331055-0.2392578,0.5947266-0.4130859c0.1621094-0.1738281,0.2871094-0.3837891,0.3764648-0.6308594
		c0.0888672-0.2470703,0.1333008-0.5166016,0.1333008-0.8076172s-0.0444336-0.5605469-0.1333008-0.8066406
		c-0.0893555-0.2470703-0.2143555-0.4580078-0.3764648-0.6323242c-0.1616211-0.1738281-0.3598633-0.3110352-0.5947266-0.4125977
		c-0.2348633-0.1010742-0.4975586-0.1518555-0.7890625-0.1518555c-0.2910156,0-0.5541992,0.0507812-0.7890625,0.1518555
		c-0.234375,0.1015625-0.4326172,0.2387695-0.5947266,0.4125977c-0.1616211,0.1743164-0.2871094,0.3852539-0.3759766,0.6323242
		c-0.0893555,0.2460938-0.1337891,0.515625-0.1337891,0.8066406s0.0444336,0.5605469,0.1337891,0.8076172
		c0.0888672,0.2470703,0.2143555,0.4570312,0.3759766,0.6308594c0.1621094,0.1738281,0.3603516,0.3115234,0.5947266,0.4130859
		C44.7856445,24.2333984,45.0488281,24.2841797,45.3398438,24.2841797z"/>
	<path fill="#F6A330" d="M54.5532227,25.1582031h-1.0927734v-0.8857422h-0.0244141
		c-0.1376953,0.3076172-0.3759766,0.5556641-0.7158203,0.7460938s-0.7324219,0.2851562-1.1777344,0.2851562
		c-0.2832031,0-0.550293-0.0419922-0.8007812-0.1269531c-0.2509766-0.0849609-0.4716797-0.2167969-0.6616211-0.3945312
		C49.8896484,24.6035156,49.737793,24.375,49.625,24.0957031c-0.1137695-0.2792969-0.1704102-0.6083984-0.1704102-0.9892578
		v-3.7026367h1.0927734v3.3999023c0,0.2666016,0.0361328,0.4951172,0.109375,0.6855469
		c0.0727539,0.1904297,0.1699219,0.34375,0.2910156,0.4609375c0.121582,0.1171875,0.2612305,0.2021484,0.4189453,0.2548828
		s0.3217773,0.0791016,0.4916992,0.0791016c0.2260742,0,0.4370117-0.0361328,0.6308594-0.109375
		c0.1943359-0.0722656,0.3642578-0.1875,0.5102539-0.3457031c0.1455078-0.1582031,0.2587891-0.3583984,0.3398438-0.6005859
		c0.0805664-0.2431641,0.1210938-0.5302734,0.1210938-0.8623047v-2.9624023h1.0927734V25.1582031z"/>
	<path fill="#F6A330" d="M55.7060547,20.1079102c0.3076172-0.2832031,0.6635742-0.4956055,1.0683594-0.637207
		c0.4042969-0.1416016,0.809082-0.2124023,1.2138672-0.2124023c0.4204102,0,0.7827148,0.0527344,1.0864258,0.1577148
		c0.3032227,0.1054688,0.5522461,0.2470703,0.746582,0.4248047c0.1938477,0.1782227,0.3374023,0.3828125,0.4306641,0.6132812
		s0.1396484,0.4711914,0.1396484,0.7226562v2.9375c0,0.2021484,0.0039062,0.3886719,0.012207,0.5585938
		c0.0078125,0.1699219,0.0200195,0.3320312,0.0361328,0.4853516h-0.9707031
		c-0.0244141-0.2910156-0.0366211-0.5830078-0.0366211-0.8740234h-0.0244141
		c-0.2426758,0.3720703-0.5297852,0.6357422-0.8618164,0.7890625c-0.331543,0.1533203-0.7158203,0.2304688-1.152832,0.2304688
		c-0.2670898,0-0.5219727-0.0361328-0.7646484-0.109375c-0.2431641-0.0722656-0.4555664-0.1816406-0.6376953-0.3271484
		s-0.3256836-0.3261719-0.4306641-0.5400391c-0.1054688-0.2148438-0.1577148-0.4638672-0.1577148-0.7470703
		c0-0.3720703,0.0825195-0.6835938,0.2485352-0.9345703s0.3925781-0.4550781,0.6796875-0.6132812
		c0.2875977-0.1572266,0.6230469-0.2705078,1.0078125-0.3398438c0.3842773-0.0683594,0.7949219-0.1025391,1.2319336-0.1025391
		h0.8012695v-0.2431641c0-0.1455078-0.0283203-0.2910156-0.0849609-0.4379883
		c-0.0566406-0.1450195-0.1416016-0.2763672-0.2548828-0.394043c-0.1137695-0.1171875-0.2548828-0.2104492-0.4248047-0.2792969
		c-0.1699219-0.0683594-0.3725586-0.1030273-0.6069336-0.1030273c-0.2104492,0-0.3945312,0.0205078-0.5522461,0.0605469
		c-0.1582031,0.0405273-0.3017578,0.0913086-0.4311523,0.1518555s-0.2470703,0.1318359-0.3520508,0.2124023
		c-0.1049805,0.0810547-0.206543,0.1577148-0.3032227,0.2304688L55.7060547,20.1079102z M58.7895508,22.390625
		c-0.2592773,0-0.5244141,0.0146484-0.7954102,0.0419922c-0.2709961,0.0292969-0.5180664,0.0839844-0.7402344,0.1640625
		c-0.2226562,0.0810547-0.4047852,0.1943359-0.5463867,0.3398438s-0.2124023,0.3320312-0.2124023,0.5585938
		c0,0.3320312,0.1113281,0.5703125,0.3339844,0.7158203c0.222168,0.1464844,0.5239258,0.21875,0.9042969,0.21875
		c0.2993164,0,0.5541992-0.0498047,0.7646484-0.1513672s0.3803711-0.2324219,0.5097656-0.3945312
		s0.2226562-0.3417969,0.2792969-0.5400391s0.0849609-0.3945312,0.0849609-0.5888672V22.390625H58.7895508z"/>
	<path fill="#F6A330" d="M61.5444336,15.980957h1.0927734v9.1772461h-1.0927734V15.980957z"/>
	<path fill="#F6A330" d="M66.7880859,16.5634766h2.9985352c0.6069336,0,1.1386719,0.0688477,1.5961914,0.206543
		c0.4570312,0.1376953,0.8535156,0.3217773,1.1894531,0.5522461s0.6147461,0.4956055,0.8374023,0.7949219
		c0.2226562,0.2998047,0.3989258,0.6069336,0.5283203,0.9228516c0.1293945,0.3154297,0.2226562,0.6308594,0.2792969,0.9467773
		c0.0561523,0.3154297,0.0849609,0.6069336,0.0849609,0.8740234c0,0.550293-0.1015625,1.0825195-0.3037109,1.5961914
		c-0.2021484,0.5146484-0.5019531,0.9716797-0.8979492,1.3720703c-0.3969727,0.4003906-0.8881836,0.7226562-1.4750977,0.9648438
		c-0.5869141,0.2431641-1.2646484,0.3642578-2.0332031,0.3642578h-2.8041992V16.5634766z M67.9536133,24.0654297h1.46875
		c0.4936523,0,0.9609375-0.0664062,1.4018555-0.2001953s0.8276367-0.3339844,1.1591797-0.6005859
		c0.3320312-0.2675781,0.5952148-0.6005859,0.7890625-1.0019531c0.1943359-0.4003906,0.2915039-0.8671875,0.2915039-1.4018555
		c0-0.2753906-0.0444336-0.5966797-0.1333008-0.965332c-0.0893555-0.3681641-0.2573242-0.7177734-0.5039062-1.0498047
		c-0.2470703-0.331543-0.5888672-0.612793-1.0258789-0.84375c-0.4370117-0.2304688-1.003418-0.3457031-1.6992188-0.3457031
		h-1.7480469V24.0654297z"/>
	<path fill="#F6A330" d="M75.0058594,17.340332c0-0.2182617,0.0791016-0.40625,0.2368164-0.5644531
		c0.1577148-0.1577148,0.3461914-0.2363281,0.5644531-0.2363281c0.21875,0,0.4067383,0.0786133,0.5644531,0.2363281
		c0.1577148,0.1582031,0.2368164,0.3461914,0.2368164,0.5644531c0,0.21875-0.0791016,0.4067383-0.2368164,0.5644531
		s-0.3457031,0.2368164-0.5644531,0.2368164c-0.2182617,0-0.4067383-0.0791016-0.5644531-0.2368164
		S75.0058594,17.559082,75.0058594,17.340332z M75.2607422,19.4038086h1.0927734v5.7543945h-1.0927734V19.4038086z"/>
	<path fill="#F6A330" d="M77.5668945,19.4038086h1.0927734v0.8256836h0.0244141
		c0.2099609-0.3076172,0.4995117-0.5463867,0.8676758-0.7163086s0.746582-0.2548828,1.1347656-0.2548828
		c0.4453125,0,0.8476562,0.0771484,1.2080078,0.2304688c0.3598633,0.1542969,0.6674805,0.3686523,0.9223633,0.6435547
		c0.2548828,0.2753906,0.4511719,0.5966797,0.5888672,0.965332c0.1376953,0.3681641,0.206543,0.7626953,0.206543,1.1835938
		c0,0.4287109-0.0688477,0.8271484-0.206543,1.1953125c-0.1376953,0.3691406-0.3339844,0.6884766-0.5888672,0.9589844
		c-0.2548828,0.2714844-0.5625,0.484375-0.9223633,0.6376953c-0.3603516,0.1533203-0.7626953,0.2304688-1.2080078,0.2304688
		c-0.4125977,0-0.8007812-0.0869141-1.1650391-0.2607422s-0.6435547-0.4111328-0.8374023-0.7099609H78.659668v4.2480469h-1.0927734
		V19.4038086z M80.5532227,20.277832c-0.2915039,0-0.5541992,0.0507812-0.7890625,0.1518555
		c-0.2348633,0.1015625-0.4331055,0.2387695-0.5947266,0.4125977c-0.1621094,0.1743164-0.2875977,0.3852539-0.3764648,0.6323242
		c-0.0888672,0.2460938-0.1333008,0.515625-0.1333008,0.8066406s0.0444336,0.5605469,0.1333008,0.8076172
		s0.2143555,0.4570312,0.3764648,0.6308594c0.1616211,0.1738281,0.3598633,0.3115234,0.5947266,0.4130859
		c0.2348633,0.1005859,0.4975586,0.1513672,0.7890625,0.1513672s0.5541992-0.0507812,0.7890625-0.1513672
		c0.234375-0.1015625,0.4326172-0.2392578,0.5947266-0.4130859c0.1616211-0.1738281,0.2871094-0.3837891,0.3764648-0.6308594
		c0.0888672-0.2470703,0.1333008-0.5166016,0.1333008-0.8076172s-0.0444336-0.5605469-0.1333008-0.8066406
		c-0.0893555-0.2470703-0.2148438-0.4580078-0.3764648-0.6323242c-0.1621094-0.1738281-0.3603516-0.3110352-0.5947266-0.4125977
		C81.1074219,20.3286133,80.8447266,20.277832,80.5532227,20.277832z"/>
	<path fill="#F6A330" d="M84.1831055,22.28125c0-0.4208984,0.0786133-0.8134766,0.2363281-1.1767578
		c0.1582031-0.3652344,0.3745117-0.6845703,0.6494141-0.9599609c0.2753906-0.2749023,0.5991211-0.4916992,0.9711914-0.6494141
		s0.7729492-0.2368164,1.2016602-0.2368164c0.4291992,0,0.8295898,0.0791016,1.2016602,0.2368164
		c0.3725586,0.1577148,0.6962891,0.3745117,0.9711914,0.6494141c0.2749023,0.2753906,0.4916992,0.5947266,0.6494141,0.9599609
		c0.1577148,0.3632812,0.2368164,0.7558594,0.2368164,1.1767578s-0.0791016,0.8154297-0.2368164,1.1835938
		s-0.3745117,0.6875-0.6494141,0.9589844s-0.5986328,0.4853516-0.9711914,0.6435547
		c-0.3720703,0.1572266-0.7724609,0.2363281-1.2016602,0.2363281c-0.4287109,0-0.8295898-0.0791016-1.2016602-0.2363281
		c-0.3720703-0.1582031-0.6958008-0.3720703-0.9711914-0.6435547c-0.2749023-0.2714844-0.4912109-0.5908203-0.6494141-0.9589844
		C84.2617188,23.0966797,84.1831055,22.7021484,84.1831055,22.28125z M85.3481445,22.28125
		c0,0.2910156,0.0444336,0.5605469,0.1337891,0.8076172c0.0888672,0.2470703,0.2143555,0.4570312,0.3759766,0.6308594
		c0.1621094,0.1738281,0.3603516,0.3115234,0.5947266,0.4130859c0.2348633,0.1005859,0.4980469,0.1513672,0.7890625,0.1513672
		c0.2915039,0,0.5541992-0.0507812,0.7890625-0.1513672c0.2348633-0.1015625,0.4331055-0.2392578,0.5947266-0.4130859
		c0.1621094-0.1738281,0.2871094-0.3837891,0.3764648-0.6308594c0.0888672-0.2470703,0.1333008-0.5166016,0.1333008-0.8076172
		s-0.0444336-0.5605469-0.1333008-0.8066406c-0.0893555-0.2470703-0.2143555-0.4580078-0.3764648-0.6323242
		c-0.1616211-0.1738281-0.3598633-0.3110352-0.5947266-0.4125977c-0.2348633-0.1010742-0.4975586-0.1518555-0.7890625-0.1518555
		c-0.2910156,0-0.5541992,0.0507812-0.7890625,0.1518555c-0.234375,0.1015625-0.4326172,0.2387695-0.5947266,0.4125977
		c-0.1616211,0.1743164-0.2871094,0.3852539-0.3759766,0.6323242C85.3925781,21.7207031,85.3481445,21.9902344,85.3481445,22.28125z
		"/>
	<path fill="#F6A330" d="M91.2348633,15.980957h1.0927734v9.1772461h-1.0927734V15.980957z"/>
	<path fill="#F6A330" d="M94.3666992,22.6816406c0,0.2509766,0.0546875,0.4794922,0.1640625,0.6865234
		c0.1088867,0.2060547,0.2524414,0.3818359,0.4306641,0.5273438c0.1777344,0.1455078,0.3842773,0.2597656,0.6191406,0.3398438
		c0.234375,0.0810547,0.4775391,0.1220703,0.7280273,0.1220703c0.340332,0,0.6352539-0.0791016,0.8862305-0.2373047
		c0.2509766-0.1572266,0.4814453-0.3662109,0.6918945-0.625l0.8256836,0.6308594
		c-0.6069336,0.7851562-1.456543,1.1777344-2.5493164,1.1777344c-0.453125,0-0.8637695-0.0771484-1.2319336-0.2304688
		s-0.6796875-0.3662109-0.9345703-0.6376953c-0.2548828-0.2705078-0.4511719-0.5898438-0.5888672-0.9589844
		c-0.1376953-0.3681641-0.206543-0.7666016-0.206543-1.1953125s0.074707-0.8271484,0.2246094-1.1953125
		c0.1499023-0.3686523,0.355957-0.6884766,0.6191406-0.9594727s0.5766602-0.4833984,0.940918-0.6376953
		c0.3642578-0.1533203,0.7602539-0.2304688,1.1894531-0.2304688c0.5097656,0,0.940918,0.0893555,1.2929688,0.2670898
		c0.3520508,0.1782227,0.6411133,0.4106445,0.8676758,0.6982422c0.2265625,0.2871094,0.3901367,0.6108398,0.4916992,0.9716797
		c0.1010742,0.359375,0.1518555,0.7255859,0.1518555,1.0986328v0.3876953H94.3666992z M97.8139648,21.8076172
		c-0.0083008-0.2421875-0.0463867-0.4648438-0.1152344-0.6679688c-0.0688477-0.2016602-0.171875-0.3779297-0.3095703-0.527832
		c-0.1376953-0.1494141-0.3095703-0.2670898-0.5161133-0.3520508c-0.2060547-0.0849609-0.4467773-0.1274414-0.722168-0.1274414
		c-0.2670898,0-0.5117188,0.0507812-0.734375,0.1518555s-0.4106445,0.2324219-0.5644531,0.3945312
		c-0.1538086,0.1616211-0.2729492,0.3417969-0.3579102,0.5410156c-0.0849609,0.1982422-0.1274414,0.3935547-0.1274414,0.5878906
		H97.8139648z"/>
	<path fill="#F6A330" d="M28.4433594,29.5478516c-0.2426758-0.3154297-0.550293-0.5576172-0.9223633-0.7275391
		c-0.3725586-0.1699219-0.7568359-0.2548828-1.1533203-0.2548828c-0.4853516,0-0.9248047,0.0908203-1.3168945,0.2724609
		c-0.3925781,0.1826172-0.7285156,0.4316406-1.0078125,0.7470703c-0.2788086,0.3154297-0.4956055,0.6855469-0.6494141,1.1103516
		s-0.2304688,0.8798828-0.2304688,1.3652344c0,0.4541016,0.0727539,0.8828125,0.21875,1.2871094
		c0.1455078,0.4042969,0.355957,0.7607422,0.6308594,1.0683594c0.2753906,0.3076172,0.6108398,0.5498047,1.0078125,0.7285156
		c0.3959961,0.1777344,0.8452148,0.2666016,1.347168,0.2666016c0.4936523,0,0.9267578-0.1005859,1.2988281-0.3037109
		c0.3720703-0.2021484,0.6879883-0.4853516,0.9467773-0.8496094l0.9833984,0.7402344
		c-0.0649414,0.0898438-0.1782227,0.2167969-0.3398438,0.3828125c-0.1621094,0.1660156-0.3764648,0.3320312-0.6435547,0.4980469
		s-0.5888672,0.3115234-0.9648438,0.4365234c-0.3764648,0.125-0.8115234,0.1884766-1.3051758,0.1884766
		c-0.6796875,0-1.2924805-0.1298828-1.8388672-0.3886719s-1.0117188-0.5986328-1.3959961-1.0195312
		s-0.6777344-0.8964844-0.8798828-1.4267578c-0.2026367-0.5292969-0.3037109-1.0654297-0.3037109-1.6083984
		c0-0.6630859,0.109375-1.2763672,0.328125-1.8388672c0.2182617-0.5625,0.5234375-1.0478516,0.9165039-1.4560547
		c0.3920898-0.4091797,0.8632812-0.7265625,1.4140625-0.953125c0.550293-0.2265625,1.1572266-0.3398438,1.8208008-0.3398438
		c0.5664062,0,1.1225586,0.109375,1.6689453,0.328125c0.5463867,0.2177734,0.9931641,0.5537109,1.3413086,1.0068359
		L28.4433594,29.5478516z"/>
	<path fill="#F6A330" d="M29.9243164,33.4082031c0-0.4208984,0.0786133-0.8134766,0.2363281-1.1777344
		c0.1582031-0.3632812,0.3745117-0.6835938,0.6494141-0.9589844c0.2753906-0.2744141,0.5991211-0.4912109,0.9711914-0.6494141
		c0.3720703-0.1572266,0.7729492-0.2363281,1.2016602-0.2363281c0.4291992,0,0.8295898,0.0791016,1.2016602,0.2363281
		c0.3725586,0.1582031,0.6962891,0.375,0.9711914,0.6494141c0.2749023,0.2753906,0.4916992,0.5957031,0.6494141,0.9589844
		c0.1577148,0.3642578,0.2368164,0.7568359,0.2368164,1.1777344s-0.0791016,0.8154297-0.2368164,1.1835938
		s-0.3745117,0.6875-0.6494141,0.9589844s-0.5986328,0.4853516-0.9711914,0.6435547
		c-0.3720703,0.1572266-0.7724609,0.2363281-1.2016602,0.2363281c-0.4287109,0-0.8295898-0.0791016-1.2016602-0.2363281
		c-0.3720703-0.1582031-0.6958008-0.3720703-0.9711914-0.6435547c-0.2749023-0.2714844-0.4912109-0.5908203-0.6494141-0.9589844
		C30.0029297,34.2236328,29.9243164,33.8291016,29.9243164,33.4082031z M31.0893555,33.4082031
		c0,0.2910156,0.0444336,0.5605469,0.1337891,0.8076172c0.0888672,0.2470703,0.2143555,0.4570312,0.3759766,0.6308594
		c0.1621094,0.1738281,0.3603516,0.3115234,0.5947266,0.4130859c0.2348633,0.1005859,0.4980469,0.1513672,0.7890625,0.1513672
		c0.2915039,0,0.5541992-0.0507812,0.7890625-0.1513672c0.2348633-0.1015625,0.4331055-0.2392578,0.5947266-0.4130859
		c0.1621094-0.1738281,0.2871094-0.3837891,0.3764648-0.6308594c0.0888672-0.2470703,0.1333008-0.5166016,0.1333008-0.8076172
		s-0.0444336-0.5605469-0.1333008-0.8066406c-0.0893555-0.2470703-0.2143555-0.4580078-0.3764648-0.6318359
		c-0.1616211-0.1738281-0.3598633-0.3115234-0.5947266-0.4121094c-0.2348633-0.1015625-0.4975586-0.1523438-0.7890625-0.1523438
		c-0.2910156,0-0.5541992,0.0507812-0.7890625,0.1523438c-0.234375,0.1005859-0.4326172,0.2382812-0.5947266,0.4121094
		c-0.1616211,0.1738281-0.2871094,0.3847656-0.3759766,0.6318359
		C31.1337891,32.8476562,31.0893555,33.1171875,31.0893555,33.4082031z"/>
	<path fill="#F6A330" d="M41.9902344,36.2851562h-1.0927734v-0.8857422h-0.0244141
		c-0.1376953,0.3076172-0.3759766,0.5556641-0.7158203,0.7460938s-0.7324219,0.2851562-1.1777344,0.2851562
		c-0.2832031,0-0.550293-0.0419922-0.8007812-0.1269531c-0.2509766-0.0849609-0.4716797-0.2167969-0.6616211-0.3945312
		c-0.1904297-0.1787109-0.3422852-0.4072266-0.4550781-0.6865234c-0.1137695-0.2792969-0.1704102-0.6083984-0.1704102-0.9892578
		V30.53125h1.0927734v3.3994141c0,0.2666016,0.0361328,0.4951172,0.109375,0.6855469
		c0.0727539,0.1904297,0.1699219,0.34375,0.2910156,0.4609375c0.121582,0.1171875,0.2612305,0.2021484,0.4189453,0.2548828
		s0.3217773,0.0791016,0.4916992,0.0791016c0.2260742,0,0.4370117-0.0361328,0.6308594-0.109375
		c0.1943359-0.0722656,0.3642578-0.1875,0.5102539-0.3457031c0.1455078-0.1582031,0.2587891-0.3583984,0.3398438-0.6005859
		c0.0805664-0.2431641,0.1210938-0.5302734,0.1210938-0.8623047V30.53125h1.0927734V36.2851562z"/>
	<path fill="#F6A330" d="M43.1186523,30.53125h1.0927734v0.8251953h0.0244141
		c0.2099609-0.3066406,0.4995117-0.5458984,0.8676758-0.7158203s0.746582-0.2548828,1.1347656-0.2548828
		c0.4453125,0,0.8476562,0.0771484,1.2080078,0.2304688c0.3598633,0.1542969,0.6674805,0.3681641,0.9223633,0.6435547
		s0.4511719,0.5966797,0.5888672,0.9648438s0.206543,0.7626953,0.206543,1.1835938
		c0,0.4287109-0.0688477,0.8271484-0.206543,1.1953125c-0.1376953,0.3691406-0.3339844,0.6884766-0.5888672,0.9589844
		c-0.2548828,0.2714844-0.5625,0.484375-0.9223633,0.6376953c-0.3603516,0.1533203-0.7626953,0.2304688-1.2080078,0.2304688
		c-0.4125977,0-0.8007812-0.0869141-1.1650391-0.2607422s-0.6435547-0.4111328-0.8374023-0.7099609h-0.0244141v4.2480469h-1.0927734
		V30.53125z M46.1049805,31.4052734c-0.2915039,0-0.5541992,0.0507812-0.7890625,0.1523438
		c-0.2348633,0.1005859-0.4331055,0.2382812-0.5947266,0.4121094c-0.1621094,0.1738281-0.2875977,0.3847656-0.3764648,0.6318359
		c-0.0888672,0.2460938-0.1333008,0.515625-0.1333008,0.8066406s0.0444336,0.5605469,0.1333008,0.8076172
		s0.2143555,0.4570312,0.3764648,0.6308594c0.1616211,0.1738281,0.3598633,0.3115234,0.5947266,0.4130859
		c0.2348633,0.1005859,0.4975586,0.1513672,0.7890625,0.1513672s0.5541992-0.0507812,0.7890625-0.1513672
		c0.234375-0.1015625,0.4326172-0.2392578,0.5947266-0.4130859c0.1616211-0.1738281,0.2871094-0.3837891,0.3764648-0.6308594
		c0.0888672-0.2470703,0.1333008-0.5166016,0.1333008-0.8076172s-0.0444336-0.5605469-0.1333008-0.8066406
		c-0.0893555-0.2470703-0.2148438-0.4580078-0.3764648-0.6318359c-0.1621094-0.1738281-0.3603516-0.3115234-0.5947266-0.4121094
		C46.6591797,31.4560547,46.3964844,31.4052734,46.1049805,31.4052734z"/>
	<path fill="#F6A330" d="M49.8432617,28.4677734c0-0.21875,0.0791016-0.40625,0.2368164-0.5644531
		c0.1577148-0.1572266,0.3461914-0.2363281,0.5644531-0.2363281c0.21875,0,0.4067383,0.0791016,0.5644531,0.2363281
		c0.1577148,0.1582031,0.2368164,0.3457031,0.2368164,0.5644531S51.3666992,28.875,51.2089844,29.0322266
		c-0.1577148,0.1582031-0.3457031,0.2373047-0.5644531,0.2373047c-0.2182617,0-0.4067383-0.0791016-0.5644531-0.2373047
		C49.9223633,28.875,49.8432617,28.6865234,49.8432617,28.4677734z M50.0981445,30.53125h1.0927734v5.7539062h-1.0927734V30.53125z"
		/>
	<path fill="#F6A330" d="M52.4042969,30.53125h1.0927734v0.8867188h0.0244141
		c0.137207-0.3076172,0.3759766-0.5566406,0.7158203-0.7470703c0.3398438-0.1894531,0.7324219-0.2851562,1.1777344-0.2851562
		c0.2749023,0,0.5400391,0.0429688,0.7949219,0.1279297s0.4775391,0.2158203,0.6674805,0.3945312
		c0.1904297,0.1777344,0.3417969,0.40625,0.4555664,0.6855469c0.112793,0.2792969,0.1699219,0.6083984,0.1699219,0.9892578
		v3.7021484h-1.0927734v-3.3984375c0-0.2675781-0.0361328-0.4960938-0.109375-0.6865234
		c-0.0727539-0.1894531-0.1699219-0.34375-0.2910156-0.4609375c-0.121582-0.1171875-0.2612305-0.2021484-0.4189453-0.2548828
		s-0.3217773-0.0791016-0.4916992-0.0791016c-0.2265625,0-0.4370117,0.0361328-0.6308594,0.109375
		c-0.1943359,0.0732422-0.3642578,0.1884766-0.5097656,0.3457031c-0.1459961,0.1582031-0.2592773,0.3583984-0.340332,0.6015625
		c-0.0805664,0.2421875-0.1210938,0.5292969-0.1210938,0.8613281v2.9619141h-1.0927734V30.53125z"/>
	<path fill="#F6A330" d="M64.3974609,36.2363281c0,0.4375-0.0751953,0.8359375-0.2246094,1.1962891
		c-0.1499023,0.359375-0.3623047,0.6708984-0.637207,0.9345703c-0.2753906,0.2626953-0.6069336,0.4667969-0.9956055,0.6123047
		c-0.3881836,0.1464844-0.8173828,0.21875-1.2866211,0.21875c-0.550293,0-1.0541992-0.0771484-1.5112305-0.2304688
		c-0.4570312-0.1542969-0.8920898-0.4208984-1.3046875-0.8007812l0.7402344-0.9228516
		c0.2832031,0.3076172,0.5908203,0.5400391,0.9223633,0.6982422c0.3320312,0.1572266,0.7084961,0.2363281,1.1289062,0.2363281
		c0.4047852,0,0.7407227-0.0585938,1.0078125-0.1757812s0.4794922-0.2695312,0.637207-0.4550781
		c0.1577148-0.1865234,0.269043-0.3994141,0.3339844-0.6376953c0.0644531-0.2382812,0.0966797-0.4794922,0.0966797-0.7216797
		v-0.8505859h-0.0361328c-0.2104492,0.3486328-0.4956055,0.6054688-0.855957,0.7714844
		c-0.3598633,0.1660156-0.7382812,0.2490234-1.1347656,0.2490234c-0.4208984,0-0.8115234-0.0751953-1.1713867-0.2246094
		c-0.3603516-0.1503906-0.6699219-0.3564453-0.9287109-0.6191406s-0.4614258-0.5751953-0.6069336-0.9345703
		c-0.1455078-0.3603516-0.2182617-0.7509766-0.2182617-1.171875s0.0683594-0.8154297,0.2060547-1.1835938
		s0.3339844-0.6894531,0.5888672-0.9648438s0.5625-0.4892578,0.9223633-0.6435547
		c0.3603516-0.1533203,0.7626953-0.2304688,1.2080078-0.2304688c0.3881836,0,0.7666016,0.0849609,1.1347656,0.2548828
		s0.6577148,0.4091797,0.8681641,0.7158203h0.0239258V30.53125h1.0927734V36.2363281z M61.4111328,31.4052734
		c-0.2910156,0-0.5541992,0.0507812-0.7890625,0.1523438c-0.234375,0.1005859-0.4326172,0.2382812-0.5947266,0.4121094
		c-0.1616211,0.1738281-0.2871094,0.3847656-0.3759766,0.6318359c-0.0893555,0.2460938-0.1337891,0.515625-0.1337891,0.8066406
		c0,0.5830078,0.1699219,1.0498047,0.5097656,1.4023438c0.3398438,0.3515625,0.8012695,0.5273438,1.3837891,0.5273438
		c0.5830078,0,1.0439453-0.1757812,1.3837891-0.5273438c0.3398438-0.3525391,0.5097656-0.8193359,0.5097656-1.4023438
		c0-0.2910156-0.0444336-0.5605469-0.1333008-0.8066406c-0.0893555-0.2470703-0.2143555-0.4580078-0.3764648-0.6318359
		c-0.1616211-0.1738281-0.3598633-0.3115234-0.5947266-0.4121094C61.965332,31.4560547,61.7026367,31.4052734,61.4111328,31.4052734
		z"/>
</g>
<path fill="none" stroke="#F6A330" stroke-miterlimit="10" d="M1.5000036,1c0,1.2611165,1.0223334,2.2834499,2.2834394,2.2834499
	S6.0668826,2.2611165,6.0668826,1"/>
<path fill="none" stroke="#F6A330" stroke-miterlimit="10" d="M7.8936405,5.0551014"/>
<path fill="none" stroke="#F6A330" stroke-miterlimit="10" d="M7.8936405,1c0,1.2611165,1.0223331,2.2834499,2.2834396,2.2834499
	c1.261116,0,2.2834501-1.0223334,2.2834501-2.2834499"/>
<path fill="none" stroke="#37B34A" stroke-miterlimit="10" d="M14.2872772,5.0551014"/>
<path fill="none" stroke="#F6A330" stroke-miterlimit="10" d="M14.2872772,1c0,1.2611165,1.0223331,2.2834499,2.2834492,2.2834499
	c1.2611065,0,2.2834396-1.0223334,2.2834396-2.2834499"/>
<path fill="none" stroke="#F6A330" stroke-miterlimit="10" d="M1.5000036,13.9870892
	c0-1.261117,1.0223334-2.2834501,2.2834394-2.2834501s2.2834396,1.0223331,2.2834396,2.2834501"/>
<path fill="none" stroke="#F6A330" stroke-miterlimit="10" d="M7.8936405,13.9870892
	c0-1.261117,1.0223331-2.2834501,2.2834396-2.2834501c1.261116,0,2.2834501,1.0223331,2.2834501,2.2834501"/>
<path fill="none" stroke="#F6A330" stroke-miterlimit="10" d="M14.2872772,13.9870892
	c0-1.261117,1.0223331-2.2834501,2.2834492-2.2834501c1.2611065,0,2.2834396,1.0223331,2.2834396,2.2834501"/>
<circle fill="none" stroke="#F6A330" stroke-miterlimit="10" cx="3.783443" cy="7.5078197" r="2.283443"/>
<circle fill="none" stroke="#F6A330" stroke-miterlimit="10" cx="10.177083" cy="7.5078197" r="2.283443"/>
<circle fill="#F6A330" stroke="#F6A330" stroke-miterlimit="10" cx="16.5707226" cy="7.5078197" r="2.283443"/>
<path fill="none" stroke="#979797" stroke-width="0.9915338" stroke-miterlimit="10" d="M141.4308014,20.3267651"/>
<g>
	<path fill="#CCCCCC" d="M139.3457031,0.9716797h5.0419922c0.6630859,0,1.2910156,0.0644531,1.8867188,0.1928711
		c0.5947266,0.1289062,1.1162109,0.34375,1.5644531,0.6445312c0.4472656,0.300293,0.8027344,0.7055664,1.0673828,1.2143555
		c0.2636719,0.5092773,0.3955078,1.144043,0.3955078,1.9047852c0,0.9199219-0.2392578,1.7021484-0.7177734,2.3461914
		s-1.1777344,1.0522461-2.0976562,1.2236328l3.3125,5.5024414h-3.4414062l-2.7236328-5.2080078h-1.4169922v5.2080078h-2.8710938
		V0.9716797z M142.2167969,6.3632812h1.6923828c0.2578125,0,0.53125-0.0087891,0.8193359-0.0273438
		s0.5488281-0.0737305,0.7822266-0.1655273c0.2324219-0.0922852,0.4257812-0.2363281,0.5791016-0.4326172
		s0.2304688-0.472168,0.2304688-0.828125c0-0.3310547-0.0673828-0.5947266-0.2021484-0.7915039
		c-0.1357422-0.1958008-0.3066406-0.3461914-0.515625-0.4506836c-0.2089844-0.1040039-0.4482422-0.1748047-0.7177734-0.2114258
		c-0.2695312-0.0371094-0.5332031-0.0551758-0.7910156-0.0551758h-1.8769531V6.3632812z"/>
	<path fill="#CCCCCC" d="M151.2705078,0.9716797h4.3066406c1.0419922,0,2.0332031,0.1166992,2.9716797,0.3496094
		s1.7578125,0.6103516,2.4570312,1.1318359s1.2539062,1.1992188,1.6650391,2.0332031
		c0.4111328,0.8344727,0.6162109,1.8466797,0.6162109,3.0366211c0,1.0551758-0.1992188,1.984375-0.5976562,2.7875977
		c-0.3994141,0.8037109-0.9355469,1.4790039-1.6103516,2.0244141c-0.6748047,0.5458984-1.4541016,0.9599609-2.3369141,1.2421875
		c-0.8837891,0.2822266-1.8095703,0.4233398-2.7792969,0.4233398h-4.6923828V0.9716797z M154.1416016,11.3505859h1.4902344
		c0.6621094,0,1.2792969-0.0673828,1.8496094-0.2026367c0.5703125-0.1347656,1.0644531-0.3588867,1.4814453-0.6713867
		c0.4169922-0.3129883,0.7451172-0.7241211,0.984375-1.2329102c0.2392578-0.5092773,0.359375-1.1318359,0.359375-1.8681641
		c0-0.6376953-0.1201172-1.1928711-0.359375-1.6655273c-0.2392578-0.472168-0.5615234-0.8613281-0.9658203-1.168457
		c-0.4052734-0.3066406-0.8808594-0.5366211-1.4267578-0.6899414s-1.1191406-0.2299805-1.7207031-0.2299805h-1.6923828V11.3505859z"
		/>
	<path fill="#CCCCCC" d="M173.7578125,4.3574219c-0.2822266-0.3432617-0.6289062-0.6069336-1.0390625-0.7910156
		c-0.4111328-0.184082-0.8867188-0.2763672-1.4267578-0.2763672s-1.0390625,0.1044922-1.5,0.3129883
		c-0.4599609,0.2089844-0.8583984,0.5-1.1953125,0.8740234c-0.3378906,0.3745117-0.6015625,0.8188477-0.7919922,1.3344727
		c-0.1904297,0.5151367-0.2851562,1.0737305-0.2851562,1.6743164c0,0.6137695,0.0947266,1.175293,0.2851562,1.684082
		c0.1904297,0.5092773,0.4511719,0.9506836,0.7822266,1.324707c0.3310547,0.3745117,0.7207031,0.6660156,1.1689453,0.8745117
		c0.4472656,0.2084961,0.9287109,0.3125,1.4443359,0.3125c0.5888672,0,1.1103516-0.1225586,1.5644531-0.3676758
		c0.453125-0.2456055,0.828125-0.5893555,1.1220703-1.0307617l2.3925781,1.7851562
		c-0.5517578,0.7729492-1.2509766,1.3432617-2.0976562,1.7114258s-1.7177734,0.5517578-2.6132812,0.5517578
		c-1.0185547,0-1.9570312-0.1591797-2.8154297-0.4785156c-0.859375-0.3188477-1.6015625-0.7753906-2.2265625-1.3706055
		c-0.6259766-0.5952148-1.1132812-1.315918-1.4628906-2.1625977c-0.3505859-0.8461914-0.5253906-1.7910156-0.5253906-2.8339844
		c0-1.0424805,0.1748047-1.9873047,0.5253906-2.8339844c0.3496094-0.8461914,0.8369141-1.5668945,1.4628906-2.1621094
		c0.625-0.5947266,1.3671875-1.0517578,2.2265625-1.3710938c0.8583984-0.3188477,1.796875-0.4785156,2.8154297-0.4785156
		c0.3681641,0,0.7509766,0.0341797,1.1503906,0.1015625c0.3984375,0.0673828,0.7910156,0.1748047,1.1777344,0.3217773
		c0.3857422,0.1474609,0.7568359,0.34375,1.1132812,0.5888672c0.3554688,0.2456055,0.6748047,0.5458984,0.9570312,0.9018555
		L173.7578125,4.3574219z"/>
</g>
<path fill="none" stroke="#979797" stroke-width="0.9915338" stroke-miterlimit="10" d="M141.5442352,20.2938766"/>
<g>
	<path fill="#CCCCCC" d="M139.4589844,16.5634766h3.0224609c0.5507812,0,1.0039062,0.0751953,1.3603516,0.2246094
		c0.3554688,0.1499023,0.6367188,0.3398438,0.8427734,0.5708008c0.2070312,0.2304688,0.3505859,0.4897461,0.4316406,0.7768555
		c0.0800781,0.2871094,0.1210938,0.5644531,0.1210938,0.831543c0,0.2749023-0.0488281,0.5400391-0.1455078,0.7949219
		c-0.0976562,0.2548828-0.2373047,0.4853516-0.4189453,0.6918945c-0.1816406,0.2060547-0.4042969,0.3803711-0.6679688,0.5219727
		c-0.2626953,0.1420898-0.5556641,0.2290039-0.8798828,0.2612305l2.4404297,3.9208984h-1.4570312l-2.1845703-3.7871094H140.625
		v3.7871094h-1.1660156V16.5634766z M140.625,20.3510742h1.5292969c0.2265625,0,0.4511719-0.0185547,0.6738281-0.0546875
		c0.2216797-0.0366211,0.4199219-0.1035156,0.5947266-0.2006836c0.1738281-0.0966797,0.3134766-0.2363281,0.4189453-0.418457
		c0.1044922-0.1821289,0.1572266-0.4189453,0.1572266-0.7099609c0-0.2915039-0.0527344-0.5283203-0.1572266-0.7104492
		c-0.1054688-0.1821289-0.2451172-0.3217773-0.4189453-0.418457c-0.1748047-0.097168-0.3730469-0.1640625-0.5947266-0.2006836
		c-0.2226562-0.0361328-0.4472656-0.0541992-0.6738281-0.0541992H140.625V20.3510742z"/>
	<path fill="#CCCCCC" d="M146.9003906,22.6816406c0,0.2509766,0.0546875,0.4794922,0.1640625,0.6865234
		c0.1083984,0.2060547,0.2519531,0.3818359,0.4306641,0.5273438c0.1777344,0.1455078,0.3837891,0.2597656,0.6191406,0.3398438
		c0.234375,0.0810547,0.4775391,0.1220703,0.7275391,0.1220703c0.3408203,0,0.6357422-0.0791016,0.8867188-0.2373047
		c0.2509766-0.1572266,0.4814453-0.3662109,0.6914062-0.625l0.8261719,0.6308594
		c-0.6074219,0.7851562-1.4570312,1.1777344-2.5498047,1.1777344c-0.453125,0-0.8632812-0.0771484-1.2314453-0.2304688
		s-0.6796875-0.3662109-0.9345703-0.6376953c-0.2548828-0.2705078-0.4511719-0.5898438-0.5888672-0.9589844
		c-0.1376953-0.3681641-0.2070312-0.7666016-0.2070312-1.1953125s0.0751953-0.8271484,0.2246094-1.1953125
		c0.1503906-0.3686523,0.3564453-0.6884766,0.6191406-0.9594727c0.2636719-0.2709961,0.5771484-0.4833984,0.9414062-0.6376953
		c0.3642578-0.1533203,0.7597656-0.2304688,1.1894531-0.2304688c0.5097656,0,0.9404297,0.0893555,1.2929688,0.2670898
		c0.3515625,0.1782227,0.640625,0.4106445,0.8671875,0.6982422c0.2265625,0.2871094,0.390625,0.6108398,0.4921875,0.9716797
		c0.1005859,0.359375,0.1513672,0.7255859,0.1513672,1.0986328v0.3876953H146.9003906z M150.3476562,21.8076172
		c-0.0087891-0.2421875-0.046875-0.4648438-0.1152344-0.6679688c-0.0693359-0.2016602-0.171875-0.3779297-0.3095703-0.527832
		c-0.1376953-0.1494141-0.3095703-0.2670898-0.5166016-0.3520508c-0.2060547-0.0849609-0.4462891-0.1274414-0.7216797-0.1274414
		c-0.2675781,0-0.5117188,0.0507812-0.734375,0.1518555s-0.4111328,0.2324219-0.5644531,0.3945312
		c-0.1542969,0.1616211-0.2734375,0.3417969-0.3583984,0.5410156c-0.0849609,0.1982422-0.1269531,0.3935547-0.1269531,0.5878906
		H150.3476562z"/>
	<path fill="#CCCCCC" d="M155.3603516,20.8481445c-0.1289062-0.1616211-0.2890625-0.296875-0.4794922-0.40625
		c-0.1894531-0.109375-0.4228516-0.1640625-0.6972656-0.1640625c-0.2597656,0-0.484375,0.0546875-0.6738281,0.1640625
		c-0.1904297,0.109375-0.2851562,0.269043-0.2851562,0.4794922c0,0.1704102,0.0546875,0.3081055,0.1630859,0.4135742
		c0.109375,0.1044922,0.2392578,0.1894531,0.3886719,0.2548828c0.1494141,0.0644531,0.3095703,0.1132812,0.4794922,0.1455078
		s0.3154297,0.0605469,0.4375,0.0849609c0.234375,0.0566406,0.4550781,0.125,0.6611328,0.2060547
		s0.3847656,0.1865234,0.5341797,0.3154297c0.1494141,0.1298828,0.2666016,0.2880859,0.3515625,0.4736328
		c0.0849609,0.1865234,0.1279297,0.4130859,0.1279297,0.6796875c0,0.3242188-0.0693359,0.6005859-0.2060547,0.8320312
		c-0.1376953,0.2304688-0.3154297,0.4179688-0.5341797,0.5644531c-0.21875,0.1455078-0.4677734,0.25-0.7470703,0.3154297
		c-0.2792969,0.0644531-0.5605469,0.0966797-0.84375,0.0966797c-0.4775391,0-0.8955078-0.0722656-1.2558594-0.21875
		c-0.3603516-0.1455078-0.6816406-0.4121094-0.9648438-0.8007812l0.8251953-0.6796875
		c0.1777344,0.1777344,0.3759766,0.3359375,0.5947266,0.4736328s0.4853516,0.2060547,0.8007812,0.2060547
		c0.1376953,0,0.2773438-0.0136719,0.4189453-0.0419922s0.2675781-0.0732422,0.3769531-0.1337891
		c0.1083984-0.0605469,0.1982422-0.1376953,0.2666016-0.2304688c0.0683594-0.09375,0.1035156-0.2001953,0.1035156-0.3222656
		c0-0.1611328-0.0507812-0.2949219-0.1523438-0.4003906c-0.1005859-0.1054688-0.2226562-0.1884766-0.3642578-0.2490234
		s-0.2910156-0.109375-0.4482422-0.1455078c-0.1582031-0.0361328-0.2978516-0.0664062-0.4189453-0.0908203
		c-0.2353516-0.0566406-0.4580078-0.1210938-0.6679688-0.1943359c-0.2109375-0.0732422-0.3964844-0.1699219-0.5585938-0.2910156
		c-0.1621094-0.1220703-0.2910156-0.2753906-0.3876953-0.4619141c-0.0976562-0.1855469-0.1464844-0.4160156-0.1464844-0.6914062
		c0-0.2998047,0.0625-0.5610352,0.1884766-0.7836914c0.125-0.222168,0.2910156-0.4067383,0.4980469-0.5522461
		c0.2060547-0.1455078,0.4404297-0.2548828,0.7041016-0.3276367c0.2626953-0.0727539,0.5273438-0.109375,0.7949219-0.109375
		c0.3886719,0,0.7607422,0.0727539,1.1162109,0.21875c0.3564453,0.1455078,0.6396484,0.3881836,0.8496094,0.7280273
		L155.3603516,20.8481445z"/>
	<path fill="#CCCCCC" d="M156.9990234,17.340332c0-0.2182617,0.0791016-0.40625,0.2373047-0.5644531
		c0.1572266-0.1577148,0.3457031-0.2363281,0.5644531-0.2363281s0.40625,0.0786133,0.5644531,0.2363281
		c0.1572266,0.1582031,0.2363281,0.3461914,0.2363281,0.5644531c0,0.21875-0.0791016,0.4067383-0.2363281,0.5644531
		c-0.1582031,0.1577148-0.3457031,0.2368164-0.5644531,0.2368164s-0.4072266-0.0791016-0.5644531-0.2368164
		C157.078125,17.7470703,156.9990234,17.559082,156.9990234,17.340332z M157.2539062,19.4038086h1.0927734v5.7543945h-1.0927734
		V19.4038086z"/>
	<path fill="#CCCCCC" d="M165.3261719,25.1582031h-1.0927734v-0.8251953h-0.0234375
		c-0.2109375,0.3076172-0.5,0.5458984-0.8681641,0.7158203s-0.7470703,0.2548828-1.1347656,0.2548828
		c-0.4453125,0-0.8476562-0.0771484-1.2080078-0.2304688s-0.6679688-0.3681641-0.9228516-0.6435547
		c-0.2548828-0.2744141-0.4511719-0.5947266-0.5888672-0.9589844S159.28125,22.7099609,159.28125,22.28125
		s0.0683594-0.8271484,0.2060547-1.1953125c0.1376953-0.3686523,0.3339844-0.6884766,0.5888672-0.9594727
		s0.5625-0.4833984,0.9228516-0.6376953c0.3603516-0.1533203,0.7626953-0.2304688,1.2080078-0.2304688
		c0.4121094,0,0.8007812,0.0869141,1.1650391,0.2612305c0.3642578,0.1738281,0.6435547,0.4106445,0.8378906,0.7099609h0.0234375
		V15.980957h1.0927734V25.1582031z M162.3398438,24.2841797c0.2919922,0,0.5546875-0.0507812,0.7890625-0.1513672
		c0.2353516-0.1015625,0.4335938-0.2392578,0.5947266-0.4130859c0.1621094-0.1738281,0.2871094-0.3837891,0.3769531-0.6308594
		c0.0888672-0.2470703,0.1328125-0.5166016,0.1328125-0.8076172s-0.0439453-0.5605469-0.1328125-0.8066406
		c-0.0898438-0.2470703-0.2148438-0.4580078-0.3769531-0.6323242c-0.1611328-0.1738281-0.359375-0.3110352-0.5947266-0.4125977
		c-0.234375-0.1010742-0.4970703-0.1518555-0.7890625-0.1518555c-0.2910156,0-0.5537109,0.0507812-0.7890625,0.1518555
		c-0.234375,0.1015625-0.4326172,0.2387695-0.5947266,0.4125977c-0.1611328,0.1743164-0.2871094,0.3852539-0.3759766,0.6323242
		c-0.0888672,0.2460938-0.1337891,0.515625-0.1337891,0.8066406s0.0449219,0.5605469,0.1337891,0.8076172
		s0.2148438,0.4570312,0.3759766,0.6308594c0.1621094,0.1738281,0.3603516,0.3115234,0.5947266,0.4130859
		C161.7861328,24.2333984,162.0488281,24.2841797,162.3398438,24.2841797z"/>
	<path fill="#CCCCCC" d="M171.5537109,25.1582031h-1.0927734v-0.8857422h-0.0244141
		c-0.1376953,0.3076172-0.3759766,0.5556641-0.7158203,0.7460938s-0.7324219,0.2851562-1.1777344,0.2851562
		c-0.2832031,0-0.5507812-0.0419922-0.8007812-0.1269531c-0.2509766-0.0849609-0.4716797-0.2167969-0.6621094-0.3945312
		c-0.1904297-0.1787109-0.3417969-0.4072266-0.4550781-0.6865234s-0.1699219-0.6083984-0.1699219-0.9892578v-3.7026367h1.0927734
		v3.3999023c0,0.2666016,0.0361328,0.4951172,0.109375,0.6855469c0.0722656,0.1904297,0.1699219,0.34375,0.2910156,0.4609375
		s0.2607422,0.2021484,0.4189453,0.2548828c0.1572266,0.0527344,0.3212891,0.0791016,0.4912109,0.0791016
		c0.2265625,0,0.4375-0.0361328,0.6308594-0.109375c0.1943359-0.0722656,0.3642578-0.1875,0.5107422-0.3457031
		c0.1455078-0.1582031,0.2587891-0.3583984,0.3398438-0.6005859c0.0800781-0.2431641,0.1210938-0.5302734,0.1210938-0.8623047
		v-2.9624023h1.0927734V25.1582031z"/>
	<path fill="#CCCCCC" d="M172.7060547,20.1079102c0.3076172-0.2832031,0.6640625-0.4956055,1.0683594-0.637207
		s0.8095703-0.2124023,1.2138672-0.2124023c0.4208984,0,0.7832031,0.0527344,1.0869141,0.1577148
		c0.3027344,0.1054688,0.5517578,0.2470703,0.7460938,0.4248047c0.1943359,0.1782227,0.3378906,0.3828125,0.4306641,0.6132812
		c0.09375,0.2304688,0.1396484,0.4711914,0.1396484,0.7226562v2.9375c0,0.2021484,0.0039062,0.3886719,0.0126953,0.5585938
		c0.0078125,0.1699219,0.0195312,0.3320312,0.0361328,0.4853516h-0.9707031
		c-0.0244141-0.2910156-0.0371094-0.5830078-0.0371094-0.8740234h-0.0244141
		c-0.2421875,0.3720703-0.5292969,0.6357422-0.8613281,0.7890625s-0.7158203,0.2304688-1.1533203,0.2304688
		c-0.2666016,0-0.5214844-0.0361328-0.7646484-0.109375c-0.2431641-0.0722656-0.4550781-0.1816406-0.6376953-0.3271484
		c-0.1816406-0.1455078-0.3251953-0.3261719-0.4306641-0.5400391c-0.1054688-0.2148438-0.1572266-0.4638672-0.1572266-0.7470703
		c0-0.3720703,0.0820312-0.6835938,0.2480469-0.9345703s0.3925781-0.4550781,0.6796875-0.6132812
		c0.2880859-0.1572266,0.6230469-0.2705078,1.0078125-0.3398438c0.3847656-0.0683594,0.7949219-0.1025391,1.2324219-0.1025391
		h0.8007812v-0.2431641c0-0.1455078-0.0283203-0.2910156-0.0849609-0.4379883
		c-0.0566406-0.1450195-0.1416016-0.2763672-0.2548828-0.394043c-0.1132812-0.1171875-0.2548828-0.2104492-0.4248047-0.2792969
		c-0.1699219-0.0683594-0.3720703-0.1030273-0.6064453-0.1030273c-0.2109375,0-0.3945312,0.0205078-0.5527344,0.0605469
		c-0.1582031,0.0405273-0.3017578,0.0913086-0.4306641,0.1518555c-0.1298828,0.0605469-0.2470703,0.1318359-0.3525391,0.2124023
		c-0.1044922,0.0810547-0.2060547,0.1577148-0.3027344,0.2304688L172.7060547,20.1079102z M175.7900391,22.390625
		c-0.2597656,0-0.5244141,0.0146484-0.7958984,0.0419922c-0.2705078,0.0292969-0.5175781,0.0839844-0.7402344,0.1640625
		c-0.2226562,0.0810547-0.4042969,0.1943359-0.5458984,0.3398438s-0.2128906,0.3320312-0.2128906,0.5585938
		c0,0.3320312,0.1113281,0.5703125,0.3339844,0.7158203c0.2226562,0.1464844,0.5244141,0.21875,0.9042969,0.21875
		c0.2998047,0,0.5546875-0.0498047,0.7646484-0.1513672c0.2109375-0.1015625,0.3808594-0.2324219,0.5097656-0.3945312
		c0.1298828-0.1621094,0.2226562-0.3417969,0.2792969-0.5400391s0.0849609-0.3945312,0.0849609-0.5888672V22.390625H175.7900391z"/>
	<path fill="#CCCCCC" d="M178.5449219,15.980957h1.0927734v9.1772461h-1.0927734V15.980957z"/>
	<path fill="#CCCCCC" d="M183.7880859,16.5634766h2.9990234c0.6064453,0,1.1386719,0.0688477,1.5957031,0.206543
		s0.8535156,0.3217773,1.1894531,0.5522461s0.6152344,0.4956055,0.8378906,0.7949219
		c0.2226562,0.2998047,0.3984375,0.6069336,0.5283203,0.9228516c0.1289062,0.3154297,0.2226562,0.6308594,0.2792969,0.9467773
		c0.0556641,0.3154297,0.0849609,0.6069336,0.0849609,0.8740234c0,0.550293-0.1015625,1.0825195-0.3037109,1.5961914
		c-0.2021484,0.5146484-0.5019531,0.9716797-0.8984375,1.3720703s-0.8876953,0.7226562-1.4746094,0.9648438
		c-0.5869141,0.2431641-1.2646484,0.3642578-2.0332031,0.3642578h-2.8046875V16.5634766z M184.9541016,24.0654297h1.46875
		c0.4931641,0,0.9609375-0.0664062,1.4013672-0.2001953c0.4414062-0.1337891,0.828125-0.3339844,1.1591797-0.6005859
		c0.3320312-0.2675781,0.5957031-0.6005859,0.7890625-1.0019531c0.1943359-0.4003906,0.2919922-0.8671875,0.2919922-1.4018555
		c0-0.2753906-0.0449219-0.5966797-0.1337891-0.965332c-0.0888672-0.3681641-0.2568359-0.7177734-0.5039062-1.0498047
		c-0.2470703-0.331543-0.5888672-0.612793-1.0253906-0.84375c-0.4375-0.2304688-1.0039062-0.3457031-1.6992188-0.3457031h-1.7480469
		V24.0654297z"/>
	<path fill="#CCCCCC" d="M192.0058594,17.340332c0-0.2182617,0.0791016-0.40625,0.2373047-0.5644531
		c0.1572266-0.1577148,0.3457031-0.2363281,0.5644531-0.2363281s0.40625,0.0786133,0.5644531,0.2363281
		c0.1572266,0.1582031,0.2363281,0.3461914,0.2363281,0.5644531c0,0.21875-0.0791016,0.4067383-0.2363281,0.5644531
		c-0.1582031,0.1577148-0.3457031,0.2368164-0.5644531,0.2368164s-0.4072266-0.0791016-0.5644531-0.2368164
		C192.0849609,17.7470703,192.0058594,17.559082,192.0058594,17.340332z M192.2607422,19.4038086h1.0927734v5.7543945h-1.0927734
		V19.4038086z"/>
	<path fill="#CCCCCC" d="M194.5673828,19.4038086h1.0927734v0.8256836h0.0244141
		c0.2099609-0.3076172,0.4990234-0.5463867,0.8671875-0.7163086s0.7470703-0.2548828,1.1347656-0.2548828
		c0.4453125,0,0.8476562,0.0771484,1.2080078,0.2304688c0.3603516,0.1542969,0.6679688,0.3686523,0.9228516,0.6435547
		c0.2548828,0.2753906,0.4511719,0.5966797,0.5888672,0.965332c0.1376953,0.3681641,0.2060547,0.7626953,0.2060547,1.1835938
		c0,0.4287109-0.0683594,0.8271484-0.2060547,1.1953125c-0.1376953,0.3691406-0.3339844,0.6884766-0.5888672,0.9589844
		c-0.2548828,0.2714844-0.5625,0.484375-0.9228516,0.6376953s-0.7626953,0.2304688-1.2080078,0.2304688
		c-0.4121094,0-0.8007812-0.0869141-1.1650391-0.2607422s-0.6435547-0.4111328-0.8369141-0.7099609h-0.0244141v4.2480469h-1.0927734
		V19.4038086z M197.5537109,20.277832c-0.2919922,0-0.5546875,0.0507812-0.7890625,0.1518555
		c-0.2353516,0.1015625-0.4335938,0.2387695-0.5947266,0.4125977c-0.1621094,0.1743164-0.2880859,0.3852539-0.3769531,0.6323242
		c-0.0888672,0.2460938-0.1328125,0.515625-0.1328125,0.8066406s0.0439453,0.5605469,0.1328125,0.8076172
		s0.2148438,0.4570312,0.3769531,0.6308594c0.1611328,0.1738281,0.359375,0.3115234,0.5947266,0.4130859
		c0.234375,0.1005859,0.4970703,0.1513672,0.7890625,0.1513672c0.2910156,0,0.5537109-0.0507812,0.7890625-0.1513672
		c0.234375-0.1015625,0.4326172-0.2392578,0.5947266-0.4130859c0.1611328-0.1738281,0.2871094-0.3837891,0.3759766-0.6308594
		s0.1337891-0.5166016,0.1337891-0.8076172s-0.0449219-0.5605469-0.1337891-0.8066406
		c-0.0888672-0.2470703-0.2148438-0.4580078-0.3759766-0.6323242c-0.1621094-0.1738281-0.3603516-0.3110352-0.5947266-0.4125977
		C198.1074219,20.3286133,197.8447266,20.277832,197.5537109,20.277832z"/>
	<path fill="#CCCCCC" d="M201.1835938,22.28125c0-0.4208984,0.078125-0.8134766,0.2363281-1.1767578
		c0.1582031-0.3652344,0.3740234-0.6845703,0.6494141-0.9599609c0.2753906-0.2749023,0.5986328-0.4916992,0.9707031-0.6494141
		s0.7734375-0.2368164,1.2021484-0.2368164s0.8291016,0.0791016,1.2011719,0.2368164
		c0.3730469,0.1577148,0.6962891,0.3745117,0.9716797,0.6494141c0.2744141,0.2753906,0.4912109,0.5947266,0.6494141,0.9599609
		c0.1572266,0.3632812,0.2363281,0.7558594,0.2363281,1.1767578s-0.0791016,0.8154297-0.2363281,1.1835938
		c-0.1582031,0.3681641-0.375,0.6875-0.6494141,0.9589844c-0.2753906,0.2714844-0.5986328,0.4853516-0.9716797,0.6435547
		c-0.3720703,0.1572266-0.7724609,0.2363281-1.2011719,0.2363281s-0.8300781-0.0791016-1.2021484-0.2363281
		c-0.3720703-0.1582031-0.6953125-0.3720703-0.9707031-0.6435547s-0.4912109-0.5908203-0.6494141-0.9589844
		S201.1835938,22.7021484,201.1835938,22.28125z M202.3486328,22.28125c0,0.2910156,0.0439453,0.5605469,0.1337891,0.8076172
		c0.0888672,0.2470703,0.2138672,0.4570312,0.3759766,0.6308594s0.3603516,0.3115234,0.5947266,0.4130859
		c0.234375,0.1005859,0.4980469,0.1513672,0.7890625,0.1513672s0.5537109-0.0507812,0.7890625-0.1513672
		c0.234375-0.1015625,0.4326172-0.2392578,0.5947266-0.4130859s0.2871094-0.3837891,0.3759766-0.6308594
		s0.1337891-0.5166016,0.1337891-0.8076172s-0.0449219-0.5605469-0.1337891-0.8066406
		c-0.0888672-0.2470703-0.2138672-0.4580078-0.3759766-0.6323242c-0.1621094-0.1738281-0.3603516-0.3110352-0.5947266-0.4125977
		c-0.2353516-0.1010742-0.4980469-0.1518555-0.7890625-0.1518555s-0.5546875,0.0507812-0.7890625,0.1518555
		c-0.234375,0.1015625-0.4326172,0.2387695-0.5947266,0.4125977c-0.1621094,0.1743164-0.2871094,0.3852539-0.3759766,0.6323242
		C202.3925781,21.7207031,202.3486328,21.9902344,202.3486328,22.28125z"/>
	<path fill="#CCCCCC" d="M208.2353516,15.980957h1.0927734v9.1772461h-1.0927734V15.980957z"/>
	<path fill="#CCCCCC" d="M211.3671875,22.6816406c0,0.2509766,0.0546875,0.4794922,0.1640625,0.6865234
		c0.1083984,0.2060547,0.2519531,0.3818359,0.4306641,0.5273438c0.1777344,0.1455078,0.3837891,0.2597656,0.6191406,0.3398438
		c0.234375,0.0810547,0.4775391,0.1220703,0.7275391,0.1220703c0.3408203,0,0.6357422-0.0791016,0.8867188-0.2373047
		c0.2509766-0.1572266,0.4814453-0.3662109,0.6914062-0.625l0.8261719,0.6308594
		c-0.6074219,0.7851562-1.4570312,1.1777344-2.5498047,1.1777344c-0.453125,0-0.8632812-0.0771484-1.2314453-0.2304688
		s-0.6796875-0.3662109-0.9345703-0.6376953c-0.2548828-0.2705078-0.4511719-0.5898438-0.5888672-0.9589844
		c-0.1376953-0.3681641-0.2070312-0.7666016-0.2070312-1.1953125s0.0751953-0.8271484,0.2246094-1.1953125
		c0.1503906-0.3686523,0.3564453-0.6884766,0.6191406-0.9594727c0.2636719-0.2709961,0.5771484-0.4833984,0.9414062-0.6376953
		c0.3642578-0.1533203,0.7597656-0.2304688,1.1894531-0.2304688c0.5097656,0,0.9404297,0.0893555,1.2929688,0.2670898
		c0.3515625,0.1782227,0.640625,0.4106445,0.8671875,0.6982422c0.2265625,0.2871094,0.390625,0.6108398,0.4921875,0.9716797
		c0.1005859,0.359375,0.1513672,0.7255859,0.1513672,1.0986328v0.3876953H211.3671875z M214.8144531,21.8076172
		c-0.0087891-0.2421875-0.046875-0.4648438-0.1152344-0.6679688c-0.0693359-0.2016602-0.171875-0.3779297-0.3095703-0.527832
		c-0.1376953-0.1494141-0.3095703-0.2670898-0.5166016-0.3520508c-0.2060547-0.0849609-0.4462891-0.1274414-0.7216797-0.1274414
		c-0.2675781,0-0.5117188,0.0507812-0.734375,0.1518555s-0.4111328,0.2324219-0.5644531,0.3945312
		c-0.1542969,0.1616211-0.2734375,0.3417969-0.3583984,0.5410156c-0.0849609,0.1982422-0.1269531,0.3935547-0.1269531,0.5878906
		H214.8144531z"/>
	<path fill="#CCCCCC" d="M145.4433594,29.5478516c-0.2421875-0.3154297-0.5498047-0.5576172-0.921875-0.7275391
		c-0.3730469-0.1699219-0.7568359-0.2548828-1.1533203-0.2548828c-0.4853516,0-0.9248047,0.0908203-1.3173828,0.2724609
		c-0.3925781,0.1826172-0.7285156,0.4316406-1.0078125,0.7470703c-0.2783203,0.3154297-0.4951172,0.6855469-0.6494141,1.1103516
		c-0.1533203,0.4248047-0.2304688,0.8798828-0.2304688,1.3652344c0,0.4541016,0.0732422,0.8828125,0.21875,1.2871094
		s0.3564453,0.7607422,0.6308594,1.0683594c0.2753906,0.3076172,0.6113281,0.5498047,1.0078125,0.7285156
		c0.3964844,0.1777344,0.8457031,0.2666016,1.3476562,0.2666016c0.4931641,0,0.9267578-0.1005859,1.2988281-0.3037109
		c0.3720703-0.2021484,0.6875-0.4853516,0.9462891-0.8496094l0.9833984,0.7402344
		c-0.0644531,0.0898438-0.1777344,0.2167969-0.3398438,0.3828125s-0.3759766,0.3320312-0.6435547,0.4980469
		c-0.2666016,0.1660156-0.5888672,0.3115234-0.9648438,0.4365234s-0.8115234,0.1884766-1.3046875,0.1884766
		c-0.6796875,0-1.2929688-0.1298828-1.8388672-0.3886719c-0.546875-0.2587891-1.0117188-0.5986328-1.3964844-1.0195312
		c-0.3837891-0.4208984-0.6777344-0.8964844-0.8798828-1.4267578c-0.2021484-0.5292969-0.3037109-1.0654297-0.3037109-1.6083984
		c0-0.6630859,0.109375-1.2763672,0.328125-1.8388672s0.5234375-1.0478516,0.9169922-1.4560547
		c0.3916016-0.4091797,0.8632812-0.7265625,1.4140625-0.953125c0.5498047-0.2265625,1.1572266-0.3398438,1.8203125-0.3398438
		c0.5664062,0,1.1230469,0.109375,1.6689453,0.328125c0.546875,0.2177734,0.9931641,0.5537109,1.3417969,1.0068359
		L145.4433594,29.5478516z"/>
	<path fill="#CCCCCC" d="M146.9248047,33.4082031c0-0.4208984,0.078125-0.8134766,0.2363281-1.1777344
		c0.1582031-0.3632812,0.3740234-0.6835938,0.6494141-0.9589844c0.2753906-0.2744141,0.5986328-0.4912109,0.9707031-0.6494141
		c0.3720703-0.1572266,0.7734375-0.2363281,1.2021484-0.2363281s0.8291016,0.0791016,1.2011719,0.2363281
		c0.3730469,0.1582031,0.6962891,0.375,0.9716797,0.6494141c0.2744141,0.2753906,0.4912109,0.5957031,0.6494141,0.9589844
		c0.1572266,0.3642578,0.2363281,0.7568359,0.2363281,1.1777344s-0.0791016,0.8154297-0.2363281,1.1835938
		c-0.1582031,0.3681641-0.375,0.6875-0.6494141,0.9589844c-0.2753906,0.2714844-0.5986328,0.4853516-0.9716797,0.6435547
		c-0.3720703,0.1572266-0.7724609,0.2363281-1.2011719,0.2363281s-0.8300781-0.0791016-1.2021484-0.2363281
		c-0.3720703-0.1582031-0.6953125-0.3720703-0.9707031-0.6435547s-0.4912109-0.5908203-0.6494141-0.9589844
		S146.9248047,33.8291016,146.9248047,33.4082031z M148.0898438,33.4082031c0,0.2910156,0.0439453,0.5605469,0.1337891,0.8076172
		c0.0888672,0.2470703,0.2138672,0.4570312,0.3759766,0.6308594s0.3603516,0.3115234,0.5947266,0.4130859
		c0.234375,0.1005859,0.4980469,0.1513672,0.7890625,0.1513672s0.5537109-0.0507812,0.7890625-0.1513672
		c0.234375-0.1015625,0.4326172-0.2392578,0.5947266-0.4130859s0.2871094-0.3837891,0.3759766-0.6308594
		s0.1337891-0.5166016,0.1337891-0.8076172s-0.0449219-0.5605469-0.1337891-0.8066406
		c-0.0888672-0.2470703-0.2138672-0.4580078-0.3759766-0.6318359s-0.3603516-0.3115234-0.5947266-0.4121094
		c-0.2353516-0.1015625-0.4980469-0.1523438-0.7890625-0.1523438s-0.5546875,0.0507812-0.7890625,0.1523438
		c-0.234375,0.1005859-0.4326172,0.2382812-0.5947266,0.4121094s-0.2871094,0.3847656-0.3759766,0.6318359
		C148.1337891,32.8476562,148.0898438,33.1171875,148.0898438,33.4082031z"/>
	<path fill="#CCCCCC" d="M158.9902344,36.2851562h-1.0927734v-0.8857422h-0.0244141
		c-0.1376953,0.3076172-0.3759766,0.5556641-0.7158203,0.7460938s-0.7324219,0.2851562-1.1777344,0.2851562
		c-0.2832031,0-0.5498047-0.0419922-0.8007812-0.1269531s-0.4716797-0.2167969-0.6611328-0.3945312
		c-0.1904297-0.1787109-0.3427734-0.4072266-0.4550781-0.6865234c-0.1142578-0.2792969-0.1708984-0.6083984-0.1708984-0.9892578
		V30.53125h1.0927734v3.3994141c0,0.2666016,0.0361328,0.4951172,0.109375,0.6855469s0.1699219,0.34375,0.2910156,0.4609375
		c0.1220703,0.1171875,0.2617188,0.2021484,0.4189453,0.2548828c0.1582031,0.0527344,0.3222656,0.0791016,0.4921875,0.0791016
		c0.2255859,0,0.4365234-0.0361328,0.6308594-0.109375c0.1943359-0.0722656,0.3642578-0.1875,0.5097656-0.3457031
		s0.2587891-0.3583984,0.3398438-0.6005859c0.0810547-0.2431641,0.1210938-0.5302734,0.1210938-0.8623047V30.53125h1.0927734
		V36.2851562z"/>
	<path fill="#CCCCCC" d="M160.1191406,30.53125h1.0927734v0.8251953h0.0244141
		c0.2099609-0.3066406,0.4990234-0.5458984,0.8671875-0.7158203s0.7470703-0.2548828,1.1347656-0.2548828
		c0.4453125,0,0.8476562,0.0771484,1.2080078,0.2304688c0.3603516,0.1542969,0.6679688,0.3681641,0.9228516,0.6435547
		s0.4511719,0.5966797,0.5888672,0.9648438s0.2060547,0.7626953,0.2060547,1.1835938
		c0,0.4287109-0.0683594,0.8271484-0.2060547,1.1953125c-0.1376953,0.3691406-0.3339844,0.6884766-0.5888672,0.9589844
		c-0.2548828,0.2714844-0.5625,0.484375-0.9228516,0.6376953s-0.7626953,0.2304688-1.2080078,0.2304688
		c-0.4121094,0-0.8007812-0.0869141-1.1650391-0.2607422s-0.6435547-0.4111328-0.8369141-0.7099609h-0.0244141v4.2480469h-1.0927734
		V30.53125z M163.1054688,31.4052734c-0.2919922,0-0.5546875,0.0507812-0.7890625,0.1523438
		c-0.2353516,0.1005859-0.4335938,0.2382812-0.5947266,0.4121094c-0.1621094,0.1738281-0.2880859,0.3847656-0.3769531,0.6318359
		c-0.0888672,0.2460938-0.1328125,0.515625-0.1328125,0.8066406s0.0439453,0.5605469,0.1328125,0.8076172
		s0.2148438,0.4570312,0.3769531,0.6308594c0.1611328,0.1738281,0.359375,0.3115234,0.5947266,0.4130859
		c0.234375,0.1005859,0.4970703,0.1513672,0.7890625,0.1513672c0.2910156,0,0.5537109-0.0507812,0.7890625-0.1513672
		c0.234375-0.1015625,0.4326172-0.2392578,0.5947266-0.4130859c0.1611328-0.1738281,0.2871094-0.3837891,0.3759766-0.6308594
		s0.1337891-0.5166016,0.1337891-0.8076172s-0.0449219-0.5605469-0.1337891-0.8066406
		c-0.0888672-0.2470703-0.2148438-0.4580078-0.3759766-0.6318359c-0.1621094-0.1738281-0.3603516-0.3115234-0.5947266-0.4121094
		C163.6591797,31.4560547,163.3964844,31.4052734,163.1054688,31.4052734z"/>
	<path fill="#CCCCCC" d="M166.84375,28.4677734c0-0.21875,0.0791016-0.40625,0.2363281-0.5644531
		c0.1582031-0.1572266,0.3466797-0.2363281,0.5644531-0.2363281c0.21875,0,0.4072266,0.0791016,0.5644531,0.2363281
		c0.1582031,0.1582031,0.2373047,0.3457031,0.2373047,0.5644531s-0.0791016,0.4072266-0.2373047,0.5644531
		c-0.1572266,0.1582031-0.3457031,0.2373047-0.5644531,0.2373047c-0.2177734,0-0.40625-0.0791016-0.5644531-0.2373047
		C166.9228516,28.875,166.84375,28.6865234,166.84375,28.4677734z M167.0986328,30.53125h1.0927734v5.7539062h-1.0927734V30.53125z"
		/>
	<path fill="#CCCCCC" d="M169.4042969,30.53125h1.0927734v0.8867188h0.0244141
		c0.1376953-0.3076172,0.3759766-0.5566406,0.7158203-0.7470703c0.3398438-0.1894531,0.7324219-0.2851562,1.1777344-0.2851562
		c0.2753906,0,0.5400391,0.0429688,0.7949219,0.1279297s0.4775391,0.2158203,0.6679688,0.3945312
		c0.1904297,0.1777344,0.3417969,0.40625,0.4550781,0.6855469s0.1699219,0.6083984,0.1699219,0.9892578v3.7021484h-1.0927734
		v-3.3984375c0-0.2675781-0.0361328-0.4960938-0.109375-0.6865234c-0.0722656-0.1894531-0.1699219-0.34375-0.2910156-0.4609375
		s-0.2607422-0.2021484-0.4189453-0.2548828c-0.1572266-0.0527344-0.3212891-0.0791016-0.4912109-0.0791016
		c-0.2265625,0-0.4375,0.0361328-0.6308594,0.109375c-0.1943359,0.0732422-0.3642578,0.1884766-0.5097656,0.3457031
		c-0.1464844,0.1582031-0.2597656,0.3583984-0.3408203,0.6015625c-0.0800781,0.2421875-0.1210938,0.5292969-0.1210938,0.8613281
		v2.9619141h-1.0927734V30.53125z"/>
	<path fill="#CCCCCC" d="M181.3974609,36.2363281c0,0.4375-0.0751953,0.8359375-0.2246094,1.1962891
		c-0.1494141,0.359375-0.3623047,0.6708984-0.6367188,0.9345703c-0.2753906,0.2626953-0.6074219,0.4667969-0.9960938,0.6123047
		c-0.3876953,0.1464844-0.8173828,0.21875-1.2861328,0.21875c-0.5507812,0-1.0546875-0.0771484-1.5117188-0.2304688
		c-0.4570312-0.1542969-0.8916016-0.4208984-1.3046875-0.8007812l0.7402344-0.9228516
		c0.2832031,0.3076172,0.5908203,0.5400391,0.9228516,0.6982422c0.3320312,0.1572266,0.7080078,0.2363281,1.1289062,0.2363281
		c0.4042969,0,0.7402344-0.0585938,1.0078125-0.1757812c0.2666016-0.1171875,0.4794922-0.2695312,0.6367188-0.4550781
		c0.1582031-0.1865234,0.2695312-0.3994141,0.3339844-0.6376953s0.0966797-0.4794922,0.0966797-0.7216797v-0.8505859h-0.0361328
		c-0.2099609,0.3486328-0.4951172,0.6054688-0.8554688,0.7714844s-0.7382812,0.2490234-1.1347656,0.2490234
		c-0.4208984,0-0.8115234-0.0751953-1.171875-0.2246094c-0.3603516-0.1503906-0.6699219-0.3564453-0.9287109-0.6191406
		s-0.4609375-0.5751953-0.6064453-0.9345703c-0.1455078-0.3603516-0.21875-0.7509766-0.21875-1.171875
		s0.0683594-0.8154297,0.2060547-1.1835938s0.3339844-0.6894531,0.5888672-0.9648438s0.5625-0.4892578,0.9228516-0.6435547
		c0.3603516-0.1533203,0.7626953-0.2304688,1.2080078-0.2304688c0.3876953,0,0.7666016,0.0849609,1.1347656,0.2548828
		s0.6572266,0.4091797,0.8681641,0.7158203h0.0234375V30.53125h1.0927734V36.2363281z M178.4111328,31.4052734
		c-0.2910156,0-0.5537109,0.0507812-0.7890625,0.1523438c-0.234375,0.1005859-0.4326172,0.2382812-0.5947266,0.4121094
		c-0.1611328,0.1738281-0.2871094,0.3847656-0.3759766,0.6318359c-0.0888672,0.2460938-0.1337891,0.515625-0.1337891,0.8066406
		c0,0.5830078,0.1699219,1.0498047,0.5097656,1.4023438c0.3398438,0.3515625,0.8017578,0.5273438,1.3837891,0.5273438
		c0.5830078,0,1.0439453-0.1757812,1.3837891-0.5273438c0.3398438-0.3525391,0.5097656-0.8193359,0.5097656-1.4023438
		c0-0.2910156-0.0439453-0.5605469-0.1328125-0.8066406c-0.0898438-0.2470703-0.2148438-0.4580078-0.3769531-0.6318359
		c-0.1611328-0.1738281-0.359375-0.3115234-0.5947266-0.4121094
		C178.9658203,31.4560547,178.703125,31.4052734,178.4111328,31.4052734z"/>
</g>
<path fill="none" stroke="#CCCCCC" stroke-miterlimit="10" d="M118.5,1c0,1.2611165,1.0223389,2.2834499,2.2834396,2.2834499
	c1.2611084,0,2.2834396-1.0223334,2.2834396-2.2834499"/>
<path fill="none" stroke="#CCCCCC" stroke-miterlimit="10" d="M124.8936386,5.0551014"/>
<path fill="none" stroke="#CCCCCC" stroke-miterlimit="10" d="M124.8936386,1c0,1.2611165,1.0223389,2.2834499,2.2834396,2.2834499
	c1.2611237,0,2.2834473-1.0223334,2.2834473-2.2834499"/>
<path fill="none" stroke="#37B34A" stroke-miterlimit="10" d="M131.2872772,5.0551014"/>
<path fill="none" stroke="#CCCCCC" stroke-miterlimit="10" d="M131.2872772,1c0,1.2611165,1.0223389,2.2834499,2.2834473,2.2834499
	S135.8541718,2.2611165,135.8541718,1"/>
<path fill="none" stroke="#CCCCCC" stroke-miterlimit="10" d="M118.5,13.9870892
	c0-1.261117,1.0223389-2.2834501,2.2834396-2.2834501c1.2611084,0,2.2834396,1.0223331,2.2834396,2.2834501"/>
<path fill="none" stroke="#CCCCCC" stroke-miterlimit="10" d="M124.8936386,13.9870892
	c0-1.261117,1.0223389-2.2834501,2.2834396-2.2834501c1.2611237,0,2.2834473,1.0223331,2.2834473,2.2834501"/>
<path fill="none" stroke="#CCCCCC" stroke-miterlimit="10" d="M131.2872772,13.9870892
	c0-1.261117,1.0223389-2.2834501,2.2834473-2.2834501s2.2834473,1.0223331,2.2834473,2.2834501"/>
<circle fill="none" stroke="#CCCCCC" stroke-miterlimit="10" cx="120.7834396" cy="7.5078197" r="2.283443"/>
<circle fill="none" stroke="#CCCCCC" stroke-miterlimit="10" cx="127.1770859" cy="7.5078197" r="2.283443"/>
<circle fill="#CCCCCC" stroke="#CCCCCC" stroke-miterlimit="10" cx="133.5707245" cy="7.5078197" r="2.283443"/>
<g>
</g>
<g>
</g>
<g>
</g>
<g>
</g>
<g>
</g>
<g>
</g>
<g>
</g>
<g>
</g>
<g>
</g>
<g>
</g>
<g>
</g>
<g>
</g>
<g>
</g>
<g>
</g>
<g>
</g>
</svg>
