<?xml version="1.0" encoding="utf-8"?>
<!-- Generator: Adobe Illustrator 17.1.0, SVG Export Plug-In . SVG Version: 6.00 Build 0)  -->
<!DOCTYPE svg PUBLIC "-//W3C//DTD SVG 1.1//EN" "http://www.w3.org/Graphics/SVG/1.1/DTD/svg11.dtd">
<svg version="1.1" id="Layer_1" xmlns="http://www.w3.org/2000/svg" xmlns:xlink="http://www.w3.org/1999/xlink" x="0px" y="0px"
	 width="240px" height="40px" viewBox="0 0 240 40" enable-background="new 0 0 240 40" xml:space="preserve">
<g>
	<path d="M25.4189453,9.6708984h1.0561523v7.7880859h-1.0561523V9.6708984z"/>
	<path d="M27.9492188,12.2451172h0.9897461v0.8027344h0.0219727c0.125-0.2783203,0.3413086-0.5039062,0.6494141-0.6767578
		c0.3076172-0.171875,0.6635742-0.2578125,1.0668945-0.2578125c0.2490234,0,0.4892578,0.0380859,0.7202148,0.1152344
		c0.2314453,0.0771484,0.4326172,0.1962891,0.6049805,0.3574219s0.3100586,0.3681641,0.4125977,0.6210938
		c0.1025391,0.2539062,0.1542969,0.5527344,0.1542969,0.8964844v3.3554688h-0.9902344v-3.0800781
		c0-0.2421875-0.0327148-0.4492188-0.0991211-0.6210938c-0.065918-0.1728516-0.1538086-0.3115234-0.2636719-0.4179688
		c-0.1103516-0.1064453-0.2368164-0.1835938-0.3793945-0.2314453c-0.1430664-0.0478516-0.2915039-0.0712891-0.4458008-0.0712891
		c-0.2055664,0-0.3959961,0.0332031-0.5717773,0.0986328c-0.1762695,0.0664062-0.3300781,0.1708984-0.4624023,0.3134766
		c-0.1318359,0.1435547-0.234375,0.3251953-0.3076172,0.5449219c-0.0737305,0.2197266-0.1103516,0.4804688-0.1103516,0.78125
		v2.6835938h-0.9897461V12.2451172z"/>
	<path d="M36.5844727,13.1025391h-1.4189453v2.3652344c0,0.1474609,0.003418,0.2919922,0.0107422,0.4345703
		c0.0073242,0.1435547,0.0351562,0.2714844,0.0825195,0.3847656c0.0478516,0.1142578,0.1210938,0.2060547,0.2202148,0.2753906
		s0.2436523,0.1044922,0.4345703,0.1044922c0.1171875,0,0.2382812-0.0107422,0.362793-0.0332031
		c0.1245117-0.0214844,0.2382812-0.0625,0.3413086-0.1210938v0.9023438
		c-0.1176758,0.0664062-0.2695312,0.1113281-0.456543,0.1376953c-0.1870117,0.0253906-0.3320312,0.0380859-0.4345703,0.0380859
		c-0.3813477,0-0.6767578-0.0527344-0.8857422-0.1591797s-0.362793-0.2441406-0.4619141-0.4130859
		c-0.0991211-0.1679688-0.1577148-0.3574219-0.1757812-0.5664062c-0.0185547-0.2089844-0.027832-0.4189453-0.027832-0.6318359
		v-2.7177734H33.03125v-0.8574219h1.144043v-1.4628906h0.9902344v1.4628906h1.4189453V13.1025391z"/>
	<path d="M38.3330078,15.2148438c0,0.2275391,0.0493164,0.4345703,0.1484375,0.6220703
		c0.0991211,0.1865234,0.2290039,0.3457031,0.390625,0.4785156c0.1611328,0.1318359,0.3481445,0.234375,0.5610352,0.3076172
		c0.2124023,0.0732422,0.4326172,0.1103516,0.659668,0.1103516c0.3081055,0,0.5756836-0.0722656,0.8032227-0.2148438
		c0.2270508-0.1435547,0.4360352-0.3320312,0.6269531-0.5664062l0.7480469,0.5722656
		c-0.550293,0.7109375-1.3203125,1.0664062-2.3100586,1.0664062c-0.4106445,0-0.7827148-0.0693359-1.1166992-0.2089844
		c-0.3334961-0.1386719-0.6157227-0.3320312-0.8466797-0.5771484c-0.230957-0.2460938-0.4091797-0.5351562-0.5336914-0.8691406
		s-0.1870117-0.6943359-0.1870117-1.0839844c0-0.3886719,0.0678711-0.7490234,0.2036133-1.0830078
		s0.3227539-0.6230469,0.5610352-0.8691406c0.2382812-0.2451172,0.5224609-0.4384766,0.8525391-0.5771484
		c0.3300781-0.1396484,0.6889648-0.2089844,1.0776367-0.2089844c0.4624023,0,0.8525391,0.0800781,1.171875,0.2421875
		c0.3188477,0.1611328,0.5810547,0.3720703,0.7861328,0.6318359c0.2055664,0.2607422,0.3540039,0.5537109,0.4458008,0.8798828
		c0.0913086,0.3271484,0.137207,0.6582031,0.137207,0.9960938v0.3515625H38.3330078z M41.4570312,14.4228516
		c-0.0073242-0.2197266-0.0424805-0.421875-0.1044922-0.6044922c-0.0625-0.1835938-0.15625-0.3427734-0.2807617-0.4785156
		s-0.2802734-0.2421875-0.4672852-0.3193359s-0.4052734-0.1152344-0.6547852-0.1152344
		c-0.2416992,0-0.4638672,0.0458984-0.6655273,0.1376953c-0.2016602,0.0908203-0.3720703,0.2099609-0.5112305,0.3574219
		c-0.1396484,0.1464844-0.2475586,0.3095703-0.324707,0.4892578c-0.0766602,0.1796875-0.1152344,0.3574219-0.1152344,0.5332031
		H41.4570312z"/>
	<path d="M48.6513672,17.4150391c0,0.3955078-0.0678711,0.7568359-0.2036133,1.0830078s-0.328125,0.609375-0.5776367,0.8476562
		s-0.5498047,0.4228516-0.9018555,0.5556641c-0.3520508,0.1318359-0.7407227,0.1972656-1.1660156,0.1972656
		c-0.4990234,0-0.9550781-0.0693359-1.3696289-0.2089844c-0.4140625-0.1386719-0.8085938-0.3808594-1.1826172-0.7255859
		l0.6713867-0.8359375c0.2563477,0.2783203,0.5351562,0.4892578,0.8359375,0.6328125
		c0.300293,0.1425781,0.6416016,0.2138672,1.0229492,0.2138672c0.3666992,0,0.6708984-0.0527344,0.9130859-0.1591797
		c0.2416992-0.1064453,0.4345703-0.2441406,0.5771484-0.4130859c0.1430664-0.1679688,0.2441406-0.3603516,0.3027344-0.5771484
		c0.0585938-0.2158203,0.0878906-0.4345703,0.0878906-0.6542969v-0.7705078H47.628418
		c-0.190918,0.3154297-0.449707,0.5488281-0.7758789,0.6992188s-0.6689453,0.2255859-1.0283203,0.2255859
		c-0.3813477,0-0.7353516-0.0683594-1.0615234-0.2041016s-0.6069336-0.3222656-0.8413086-0.5605469
		c-0.2348633-0.2382812-0.4179688-0.5205078-0.550293-0.8476562c-0.1318359-0.3261719-0.1977539-0.6796875-0.1977539-1.0615234
		c0-0.3808594,0.0620117-0.7382812,0.1870117-1.0722656c0.1245117-0.3330078,0.3022461-0.625,0.5332031-0.8740234
		s0.5097656-0.4443359,0.8359375-0.5830078c0.3266602-0.1396484,0.6914062-0.2089844,1.0947266-0.2089844
		c0.3520508,0,0.6948242,0.0771484,1.0283203,0.2304688c0.3339844,0.1542969,0.5957031,0.3710938,0.7866211,0.6494141h0.0219727
		v-0.7480469h0.9902344V17.4150391z M45.9453125,13.0371094c-0.2641602,0-0.5024414,0.0458984-0.715332,0.1376953
		c-0.2124023,0.0917969-0.3920898,0.2158203-0.5385742,0.3740234c-0.1469727,0.1572266-0.2607422,0.3476562-0.3413086,0.5712891
		c-0.0805664,0.2246094-0.1210938,0.4677734-0.1210938,0.7314453c0,0.5283203,0.1542969,0.9521484,0.4624023,1.2705078
		c0.3076172,0.3193359,0.7255859,0.4785156,1.2539062,0.4785156c0.527832,0,0.9458008-0.1591797,1.2539062-0.4785156
		c0.3081055-0.3183594,0.4619141-0.7421875,0.4619141-1.2705078c0-0.2636719-0.0405273-0.5068359-0.1210938-0.7314453
		c-0.0805664-0.2236328-0.1943359-0.4140625-0.3408203-0.5712891c-0.1469727-0.1582031-0.3261719-0.2822266-0.5390625-0.3740234
		S46.2089844,13.0371094,45.9453125,13.0371094z"/>
	<path d="M49.8720703,12.2451172h0.9897461v0.8027344h0.0219727c0.0664062-0.1386719,0.1542969-0.265625,0.2641602-0.3789062
		c0.1098633-0.1142578,0.2329102-0.2109375,0.3686523-0.2919922s0.2841797-0.1445312,0.4453125-0.1923828
		s0.3227539-0.0712891,0.4838867-0.0712891c0.1616211,0,0.3081055,0.0214844,0.4404297,0.0654297l-0.0444336,1.0673828
		c-0.0805664-0.0224609-0.1611328-0.0400391-0.2416992-0.0546875c-0.0810547-0.0146484-0.1616211-0.0224609-0.2421875-0.0224609
		c-0.4838867,0-0.8544922,0.1357422-1.1108398,0.4072266c-0.2568359,0.2714844-0.3852539,0.6923828-0.3852539,1.2646484v2.6181641
		h-0.9897461V12.2451172z"/>
	<path d="M53.6889648,12.8828125c0.2788086-0.2568359,0.6010742-0.4492188,0.9677734-0.5771484
		s0.7333984-0.1923828,1.1000977-0.1923828c0.3813477,0,0.7094727,0.0478516,0.984375,0.1425781
		c0.2753906,0.0957031,0.5009766,0.2236328,0.6767578,0.3847656c0.1757812,0.1621094,0.3061523,0.3466797,0.390625,0.5556641
		c0.0839844,0.2089844,0.1264648,0.4277344,0.1264648,0.6542969v2.6621094c0,0.1835938,0.003418,0.3525391,0.0107422,0.5058594
		c0.0073242,0.1542969,0.0185547,0.3007812,0.0332031,0.4404297h-0.8798828
		c-0.0219727-0.2636719-0.0332031-0.5283203-0.0332031-0.7919922h-0.0219727
		c-0.2202148,0.3369141-0.4804688,0.5761719-0.7807617,0.7148438c-0.3007812,0.1396484-0.6494141,0.2089844-1.0454102,0.2089844
		c-0.2416992,0-0.4726562-0.0332031-0.6928711-0.0986328c-0.2197266-0.0664062-0.4125977-0.1650391-0.5776367-0.296875
		c-0.1650391-0.1328125-0.2949219-0.2958984-0.3901367-0.4902344c-0.0957031-0.1933594-0.1430664-0.4189453-0.1430664-0.6757812
		c0-0.3378906,0.0751953-0.6201172,0.2255859-0.8476562c0.1499023-0.2265625,0.3554688-0.4121094,0.6157227-0.5546875
		c0.2602539-0.1435547,0.5644531-0.2460938,0.9130859-0.3085938c0.3481445-0.0625,0.7207031-0.09375,1.1166992-0.09375h0.7255859
		v-0.2197266c0-0.1318359-0.0253906-0.2636719-0.0766602-0.3955078c-0.0517578-0.1328125-0.128418-0.2519531-0.230957-0.3574219
		c-0.1030273-0.1064453-0.230957-0.1914062-0.3852539-0.2539062c-0.1538086-0.0615234-0.3374023-0.0927734-0.5498047-0.0927734
		c-0.190918,0-0.3574219,0.0185547-0.5004883,0.0546875c-0.1430664,0.0371094-0.2734375,0.0830078-0.390625,0.1376953
		s-0.2236328,0.1191406-0.3188477,0.1923828c-0.0957031,0.0732422-0.1870117,0.1425781-0.2753906,0.2089844L53.6889648,12.8828125z
		 M56.4829102,14.9511719c-0.2348633,0-0.4750977,0.0126953-0.7207031,0.0380859
		c-0.2456055,0.0263672-0.4692383,0.0751953-0.6708984,0.1484375s-0.3666992,0.1767578-0.4946289,0.3085938
		c-0.128418,0.1318359-0.1928711,0.3007812-0.1928711,0.5058594c0,0.3007812,0.1010742,0.5166016,0.3027344,0.6484375
		c0.2016602,0.1328125,0.4746094,0.1982422,0.8193359,0.1982422c0.2714844,0,0.5024414-0.0458984,0.6928711-0.1376953
		c0.190918-0.0908203,0.3447266-0.2099609,0.4624023-0.3574219c0.1171875-0.1464844,0.2011719-0.3095703,0.2529297-0.4892578
		c0.0512695-0.1796875,0.0766602-0.3574219,0.0766602-0.5332031v-0.3300781H56.4829102z"/>
	<path d="M59.1782227,9.1425781h0.9897461v8.3164062h-0.9897461V9.1425781z"/>
</g>
<polygon opacity="0.99" fill="#A6FF27" points="5.0468173,9.1881447 12.0079403,5.1691384 18.9690647,9.1881447 
	18.9690647,17.2261581 12.0079403,21.2451649 5.0468173,17.2261581 "/>
<circle fill="none" stroke="#000000" stroke-width="0.5" stroke-miterlimit="10" cx="12.0571842" cy="2.8286235" r="1.7466447"/>
<circle fill="none" stroke="#000000" stroke-width="0.5" stroke-miterlimit="10" cx="12.0571842" cy="13.1602249" r="1.7466447"/>
<circle fill="none" stroke="#000000" stroke-width="0.5" stroke-miterlimit="10" cx="12.0571842" cy="23.5535164" r="1.7466447"/>
<circle fill="none" stroke="#000000" stroke-width="0.5" stroke-miterlimit="10" cx="2.7466447" cy="18.471035" r="1.7466447"/>
<circle fill="none" stroke="#000000" stroke-width="0.5" stroke-miterlimit="10" cx="2.7466447" cy="8.1394339" r="1.7466447"/>
<circle fill="none" stroke="#000000" stroke-width="0.5" stroke-miterlimit="10" cx="21.4027901" cy="18.471035" r="1.7466447"/>
<circle fill="none" stroke="#000000" stroke-width="0.5" stroke-miterlimit="10" cx="21.4027901" cy="8.1394339" r="1.7466447"/>
<line fill="none" stroke="#000000" stroke-width="0.5" stroke-miterlimit="10" stroke-dasharray="0.7907899,0.7907899" x1="21.5157299" y1="10.5394821" x2="21.5157299" y2="16.75"/>
<line fill="none" stroke="#000000" stroke-width="0.5" stroke-miterlimit="10" stroke-dasharray="0.7907899,0.7907899" x1="2.7240634" y1="10.5394821" x2="2.7240634" y2="16.75"/>
<line fill="none" stroke="#000000" stroke-width="0.5" stroke-miterlimit="10" stroke-dasharray="0.7907899,0.7907899" x1="12.1407299" y1="15.6668816" x2="12.1407299" y2="21.8773994"/>
<line fill="none" stroke="#000000" stroke-width="0.5" stroke-miterlimit="10" x1="4.2964306" y1="7.2179332" x2="10.5065565" y2="3.6361592"/>
<line fill="none" stroke="#000000" stroke-width="0.5" stroke-miterlimit="10" stroke-dasharray="0.7872308,0.7873204" x1="13.5729675" y1="22.7045956" x2="19.8346291" y2="19.2774315"/>
<line fill="none" stroke="#000000" stroke-width="0.5" stroke-miterlimit="10" stroke-dasharray="0.7873204,0.7873204" x1="4.3221989" y1="19.328968" x2="10.5580931" y2="22.7045956"/>
<line fill="none" stroke="#000000" stroke-width="0.5" stroke-miterlimit="10" x1="13.5987358" y1="3.6876955" x2="19.9119339" y2="7.2952375"/>
<line fill="none" stroke="#000000" stroke-width="0.5" stroke-miterlimit="10" x1="4.2706623" y1="9.0345888" x2="10.4550209" y2="12.3586807"/>
<line fill="none" stroke="#000000" stroke-width="0.5" stroke-miterlimit="10" x1="13.5858517" y1="12.3200283" x2="19.8861656" y2="8.957284"/>
<g>
	<path fill="#FFFFFF" d="M145.3984375,9.6708984h1.0556641v7.7880859h-1.0556641V9.6708984z"/>
	<path fill="#FFFFFF" d="M147.9287109,12.2451172h0.9892578v0.8027344h0.0224609
		c0.125-0.2783203,0.3408203-0.5039062,0.6494141-0.6767578c0.3076172-0.171875,0.6630859-0.2578125,1.0664062-0.2578125
		c0.2490234,0,0.4892578,0.0380859,0.7207031,0.1152344s0.4326172,0.1962891,0.6044922,0.3574219
		c0.1728516,0.1611328,0.3105469,0.3681641,0.4130859,0.6210938c0.1025391,0.2539062,0.1542969,0.5527344,0.1542969,0.8964844
		v3.3554688h-0.9902344v-3.0800781c0-0.2421875-0.0332031-0.4492188-0.0996094-0.6210938
		c-0.0654297-0.1728516-0.1533203-0.3115234-0.2636719-0.4179688s-0.2363281-0.1835938-0.3789062-0.2314453
		c-0.1435547-0.0478516-0.2919922-0.0712891-0.4462891-0.0712891c-0.2050781,0-0.3955078,0.0332031-0.5712891,0.0986328
		c-0.1767578,0.0664062-0.3300781,0.1708984-0.4628906,0.3134766c-0.1318359,0.1435547-0.234375,0.3251953-0.3076172,0.5449219
		s-0.1103516,0.4804688-0.1103516,0.78125v2.6835938h-0.9892578V12.2451172z"/>
	<path fill="#FFFFFF" d="M156.5634766,13.1025391h-1.4189453v2.3652344c0,0.1474609,0.0029297,0.2919922,0.0107422,0.4345703
		c0.0068359,0.1435547,0.0351562,0.2714844,0.0820312,0.3847656c0.0478516,0.1142578,0.1210938,0.2060547,0.2207031,0.2753906
		c0.0986328,0.0693359,0.2431641,0.1044922,0.4345703,0.1044922c0.1171875,0,0.2382812-0.0107422,0.3623047-0.0332031
		c0.125-0.0214844,0.2382812-0.0625,0.3417969-0.1210938v0.9023438c-0.1181641,0.0664062-0.2695312,0.1113281-0.4570312,0.1376953
		c-0.1865234,0.0253906-0.3320312,0.0380859-0.4345703,0.0380859c-0.3808594,0-0.6767578-0.0527344-0.8857422-0.1591797
		s-0.3623047-0.2441406-0.4619141-0.4130859c-0.0986328-0.1679688-0.1572266-0.3574219-0.1757812-0.5664062
		s-0.0273438-0.4189453-0.0273438-0.6318359v-2.7177734h-1.1445312v-0.8574219h1.1445312v-1.4628906h0.9902344v1.4628906h1.4189453
		V13.1025391z"/>
	<path fill="#FFFFFF" d="M158.3125,15.2148438c0,0.2275391,0.0488281,0.4345703,0.1484375,0.6220703
		c0.0986328,0.1865234,0.2285156,0.3457031,0.390625,0.4785156c0.1611328,0.1318359,0.3476562,0.234375,0.5605469,0.3076172
		s0.4326172,0.1103516,0.6601562,0.1103516c0.3076172,0,0.5751953-0.0722656,0.8027344-0.2148438
		c0.2275391-0.1435547,0.4365234-0.3320312,0.6269531-0.5664062L162.25,16.5244141
		c-0.5498047,0.7109375-1.3203125,1.0664062-2.3095703,1.0664062c-0.4111328,0-0.7832031-0.0693359-1.1171875-0.2089844
		c-0.3330078-0.1386719-0.6152344-0.3320312-0.8466797-0.5771484c-0.2304688-0.2460938-0.4091797-0.5351562-0.5332031-0.8691406
		c-0.125-0.3339844-0.1875-0.6943359-0.1875-1.0839844c0-0.3886719,0.0683594-0.7490234,0.2041016-1.0830078
		s0.3222656-0.6230469,0.5605469-0.8691406c0.2382812-0.2451172,0.5224609-0.4384766,0.8525391-0.5771484
		c0.3300781-0.1396484,0.6894531-0.2089844,1.078125-0.2089844c0.4619141,0,0.8525391,0.0800781,1.171875,0.2421875
		c0.3183594,0.1611328,0.5810547,0.3720703,0.7861328,0.6318359c0.2050781,0.2607422,0.3535156,0.5537109,0.4453125,0.8798828
		c0.0917969,0.3271484,0.1376953,0.6582031,0.1376953,0.9960938v0.3515625H158.3125z M161.4365234,14.4228516
		c-0.0078125-0.2197266-0.0429688-0.421875-0.1044922-0.6044922c-0.0625-0.1835938-0.15625-0.3427734-0.28125-0.4785156
		c-0.1240234-0.1357422-0.2802734-0.2421875-0.4667969-0.3193359c-0.1875-0.0771484-0.4052734-0.1152344-0.6552734-0.1152344
		c-0.2412109,0-0.4638672,0.0458984-0.6650391,0.1376953c-0.2021484,0.0908203-0.3720703,0.2099609-0.5117188,0.3574219
		c-0.1396484,0.1464844-0.2470703,0.3095703-0.3242188,0.4892578S158.3125,14.2470703,158.3125,14.4228516H161.4365234z"/>
	<path fill="#FFFFFF" d="M168.6298828,17.4150391c0,0.3955078-0.0673828,0.7568359-0.203125,1.0830078
		s-0.328125,0.609375-0.578125,0.8476562c-0.2490234,0.2382812-0.5498047,0.4228516-0.9013672,0.5556641
		c-0.3525391,0.1318359-0.7412109,0.1972656-1.1660156,0.1972656c-0.4990234,0-0.9550781-0.0693359-1.3701172-0.2089844
		c-0.4140625-0.1386719-0.8085938-0.3808594-1.1826172-0.7255859l0.671875-0.8359375
		c0.2558594,0.2783203,0.5351562,0.4892578,0.8359375,0.6328125c0.2998047,0.1425781,0.6416016,0.2138672,1.0224609,0.2138672
		c0.3671875,0,0.6708984-0.0527344,0.9130859-0.1591797s0.4345703-0.2441406,0.5771484-0.4130859
		c0.1435547-0.1679688,0.2441406-0.3603516,0.3027344-0.5771484c0.0585938-0.2158203,0.0878906-0.4345703,0.0878906-0.6542969
		v-0.7705078h-0.0322266c-0.1914062,0.3154297-0.4501953,0.5488281-0.7763672,0.6992188s-0.6689453,0.2255859-1.0283203,0.2255859
		c-0.3808594,0-0.7353516-0.0683594-1.0615234-0.2041016s-0.6064453-0.3222656-0.8408203-0.5605469
		c-0.2353516-0.2382812-0.4179688-0.5205078-0.5507812-0.8476562c-0.1318359-0.3261719-0.1972656-0.6796875-0.1972656-1.0615234
		c0-0.3808594,0.0615234-0.7382812,0.1865234-1.0722656c0.125-0.3330078,0.3027344-0.625,0.5332031-0.8740234
		c0.2314453-0.2490234,0.5097656-0.4443359,0.8359375-0.5830078c0.3271484-0.1396484,0.6914062-0.2089844,1.0947266-0.2089844
		c0.3525391,0,0.6953125,0.0771484,1.0283203,0.2304688c0.3339844,0.1542969,0.5957031,0.3710938,0.7871094,0.6494141h0.0214844
		v-0.7480469h0.9902344V17.4150391z M165.9238281,13.0371094c-0.2636719,0-0.5019531,0.0458984-0.7148438,0.1376953
		s-0.3925781,0.2158203-0.5390625,0.3740234c-0.1464844,0.1572266-0.2607422,0.3476562-0.3408203,0.5712891
		c-0.0810547,0.2246094-0.1210938,0.4677734-0.1210938,0.7314453c0,0.5283203,0.1542969,0.9521484,0.4619141,1.2705078
		c0.3076172,0.3193359,0.7255859,0.4785156,1.2539062,0.4785156s0.9462891-0.1591797,1.2539062-0.4785156
		c0.3085938-0.3183594,0.4619141-0.7421875,0.4619141-1.2705078c0-0.2636719-0.0400391-0.5068359-0.1210938-0.7314453
		c-0.0800781-0.2236328-0.1943359-0.4140625-0.3408203-0.5712891c-0.1464844-0.1582031-0.3261719-0.2822266-0.5390625-0.3740234
		S166.1875,13.0371094,165.9238281,13.0371094z"/>
	<path fill="#FFFFFF" d="M169.8515625,12.2451172h0.9892578v0.8027344h0.0224609
		c0.0664062-0.1386719,0.1542969-0.265625,0.2636719-0.3789062c0.1103516-0.1142578,0.2333984-0.2109375,0.3691406-0.2919922
		s0.2841797-0.1445312,0.4453125-0.1923828s0.3222656-0.0712891,0.4833984-0.0712891
		c0.1621094,0,0.3085938,0.0214844,0.4404297,0.0654297l-0.0439453,1.0673828
		c-0.0810547-0.0224609-0.1611328-0.0400391-0.2421875-0.0546875s-0.1611328-0.0224609-0.2421875-0.0224609
		c-0.4833984,0-0.8544922,0.1357422-1.1103516,0.4072266c-0.2568359,0.2714844-0.3857422,0.6923828-0.3857422,1.2646484v2.6181641
		h-0.9892578V12.2451172z"/>
	<path fill="#FFFFFF" d="M173.6679688,12.8828125c0.2792969-0.2568359,0.6015625-0.4492188,0.9677734-0.5771484
		c0.3671875-0.1279297,0.7333984-0.1923828,1.1005859-0.1923828c0.3808594,0,0.7089844,0.0478516,0.984375,0.1425781
		c0.2753906,0.0957031,0.5009766,0.2236328,0.6767578,0.3847656c0.1757812,0.1621094,0.3056641,0.3466797,0.390625,0.5556641
		c0.0839844,0.2089844,0.1259766,0.4277344,0.1259766,0.6542969v2.6621094c0,0.1835938,0.0039062,0.3525391,0.0107422,0.5058594
		c0.0078125,0.1542969,0.0185547,0.3007812,0.0332031,0.4404297h-0.8798828
		c-0.0214844-0.2636719-0.0332031-0.5283203-0.0332031-0.7919922h-0.0214844
		c-0.2207031,0.3369141-0.4804688,0.5761719-0.78125,0.7148438c-0.3007812,0.1396484-0.6494141,0.2089844-1.0449219,0.2089844
		c-0.2421875,0-0.4726562-0.0332031-0.6933594-0.0986328c-0.2197266-0.0664062-0.4121094-0.1650391-0.5771484-0.296875
		c-0.1650391-0.1328125-0.2949219-0.2958984-0.390625-0.4902344c-0.0957031-0.1933594-0.1425781-0.4189453-0.1425781-0.6757812
		c0-0.3378906,0.0751953-0.6201172,0.2255859-0.8476562c0.1494141-0.2265625,0.3554688-0.4121094,0.6152344-0.5546875
		c0.2607422-0.1435547,0.5644531-0.2460938,0.9130859-0.3085938s0.7207031-0.09375,1.1171875-0.09375h0.7255859v-0.2197266
		c0-0.1318359-0.0253906-0.2636719-0.0771484-0.3955078c-0.0517578-0.1328125-0.1279297-0.2519531-0.2304688-0.3574219
		c-0.1035156-0.1064453-0.2314453-0.1914062-0.3857422-0.2539062c-0.1533203-0.0615234-0.3369141-0.0927734-0.5498047-0.0927734
		c-0.1904297,0-0.3574219,0.0185547-0.5,0.0546875c-0.1435547,0.0371094-0.2734375,0.0830078-0.390625,0.1376953
		s-0.2236328,0.1191406-0.3193359,0.1923828s-0.1865234,0.1425781-0.2753906,0.2089844L173.6679688,12.8828125z
		 M176.4619141,14.9511719c-0.234375,0-0.4746094,0.0126953-0.7207031,0.0380859
		c-0.2451172,0.0263672-0.46875,0.0751953-0.6708984,0.1484375c-0.2011719,0.0732422-0.3662109,0.1767578-0.4941406,0.3085938
		c-0.1289062,0.1318359-0.1933594,0.3007812-0.1933594,0.5058594c0,0.3007812,0.1015625,0.5166016,0.3027344,0.6484375
		c0.2021484,0.1328125,0.4746094,0.1982422,0.8193359,0.1982422c0.2714844,0,0.5029297-0.0458984,0.6933594-0.1376953
		c0.1904297-0.0908203,0.3447266-0.2099609,0.4619141-0.3574219c0.1171875-0.1464844,0.2011719-0.3095703,0.2529297-0.4892578
		s0.0771484-0.3574219,0.0771484-0.5332031v-0.3300781H176.4619141z"/>
	<path fill="#FFFFFF" d="M179.1572266,9.1425781h0.9892578v8.3164062h-0.9892578V9.1425781z"/>
</g>
<polygon opacity="0.99" fill="#A6FF27" points="125.0259857,9.1881447 131.9871063,5.1691384 138.9482269,9.1881447 
	138.9482269,17.2261581 131.9871063,21.2451649 125.0259857,17.2261581 "/>
<circle fill="none" stroke="#FFFFFF" stroke-width="0.5" stroke-miterlimit="10" cx="132.0363464" cy="2.8286235" r="1.7466447"/>
<circle fill="none" stroke="#FFFFFF" stroke-width="0.5" stroke-miterlimit="10" cx="132.0363464" cy="13.1602249" r="1.7466447"/>
<circle fill="none" stroke="#FFFFFF" stroke-width="0.5" stroke-miterlimit="10" cx="132.0363464" cy="23.5535164" r="1.7466447"/>
<circle fill="none" stroke="#FFFFFF" stroke-width="0.5" stroke-miterlimit="10" cx="122.7258148" cy="18.471035" r="1.7466447"/>
<circle fill="none" stroke="#FFFFFF" stroke-width="0.5" stroke-miterlimit="10" cx="122.7258148" cy="8.1394339" r="1.7466447"/>
<circle fill="none" stroke="#FFFFFF" stroke-width="0.5" stroke-miterlimit="10" cx="141.381958" cy="18.471035" r="1.7466447"/>
<circle fill="none" stroke="#FFFFFF" stroke-width="0.5" stroke-miterlimit="10" cx="141.381958" cy="8.1394339" r="1.7466447"/>
<line fill="none" stroke="#FFFFFF" stroke-width="0.5" stroke-miterlimit="10" stroke-dasharray="0.7907899,0.7907899" x1="141.4949036" y1="10.5394821" x2="141.4949036" y2="16.75"/>
<line fill="none" stroke="#FFFFFF" stroke-width="0.5" stroke-miterlimit="10" stroke-dasharray="0.7907899,0.7907899" x1="122.7032318" y1="10.5394821" x2="122.7032318" y2="16.75"/>
<line fill="none" stroke="#FFFFFF" stroke-width="0.5" stroke-miterlimit="10" stroke-dasharray="0.7907899,0.7907899" x1="132.1199036" y1="15.6668816" x2="132.1199036" y2="21.8773994"/>
<line fill="none" stroke="#FFFFFF" stroke-width="0.5" stroke-miterlimit="10" x1="124.2755966" y1="7.2179332" x2="130.4857178" y2="3.6361592"/>
<line fill="none" stroke="#FFFFFF" stroke-width="0.5" stroke-miterlimit="10" stroke-dasharray="0.7872308,0.7873204" x1="133.5521393" y1="22.7045956" x2="139.813797" y2="19.2774315"/>
<line fill="none" stroke="#FFFFFF" stroke-width="0.5" stroke-miterlimit="10" stroke-dasharray="0.7873204,0.7873204" x1="124.3013687" y1="19.328968" x2="130.537262" y2="22.7045956"/>
<line fill="none" stroke="#FFFFFF" stroke-width="0.5" stroke-miterlimit="10" x1="133.5778961" y1="3.6876955" x2="139.891098" y2="7.2952375"/>
<line fill="none" stroke="#FFFFFF" stroke-width="0.5" stroke-miterlimit="10" x1="124.2498322" y1="9.0345888" x2="130.4341888" y2="12.3586807"/>
<line fill="none" stroke="#FFFFFF" stroke-width="0.5" stroke-miterlimit="10" x1="133.5650177" y1="12.3200283" x2="139.8653412" y2="8.957284"/>
<g>
</g>
<g>
</g>
<g>
</g>
<g>
</g>
<g>
</g>
<g>
</g>
<g>
</g>
<g>
</g>
<g>
</g>
<g>
</g>
<g>
</g>
<g>
</g>
<g>
</g>
<g>
</g>
<g>
</g>
</svg>
