<?xml version="1.0" encoding="UTF-8" standalone="no"?>
<!-- Generator: Adobe Illustrator 17.1.0, SVG Export Plug-In . SVG Version: 6.00 Build 0)  -->

<svg
   xmlns:dc="http://purl.org/dc/elements/1.1/"
   xmlns:cc="http://creativecommons.org/ns#"
   xmlns:rdf="http://www.w3.org/1999/02/22-rdf-syntax-ns#"
   xmlns:svg="http://www.w3.org/2000/svg"
   xmlns="http://www.w3.org/2000/svg"
   xmlns:sodipodi="http://sodipodi.sourceforge.net/DTD/sodipodi-0.dtd"
   xmlns:inkscape="http://www.inkscape.org/namespaces/inkscape"
   version="1.1"
   id="Layer_1"
   x="0px"
   y="0px"
   width="59.145836"
   height="19.533894"
   viewBox="0 0 59.145836 19.533894"
   enable-background="new 0 0 240 40"
   xml:space="preserve"
   sodipodi:docname="rp-icon-protein-dynamics-menu-outline.svg"
   inkscape:version="0.92.2 5c3e80d, 2017-08-06"><metadata
     id="metadata350"><rdf:RDF><cc:Work
         rdf:about=""><dc:format>image/svg+xml</dc:format><dc:type
           rdf:resource="http://purl.org/dc/dcmitype/StillImage" /><dc:title></dc:title></cc:Work></rdf:RDF></metadata><defs
     id="defs348" /><sodipodi:namedview
     pagecolor="#ffffff"
     bordercolor="#666666"
     borderopacity="1"
     objecttolerance="10"
     gridtolerance="10"
     guidetolerance="10"
     inkscape:pageopacity="0"
     inkscape:pageshadow="2"
     inkscape:window-width="1920"
     inkscape:window-height="1156"
     id="namedview346"
     showgrid="false"
     fit-margin-top="0"
     fit-margin-left="0"
     fit-margin-right="0"
     fit-margin-bottom="0"
     inkscape:zoom="12.792484"
     inkscape:cx="17.516116"
     inkscape:cy="10.544575"
     inkscape:window-x="36"
     inkscape:window-y="79"
     inkscape:window-maximized="0"
     inkscape:current-layer="g239"
     inkscape:pagecheckerboard="true" /><g
     id="g3302"
     transform="translate(-0.96025427,-2.6705564)"><path
       id="path179"
       d="M 13.241828,19.988323"
       stroke-miterlimit="10"
       inkscape:connector-curvature="0"
       style="fill:none;stroke:#42bdae;stroke-width:0.98938167;stroke-miterlimit:10" /><polyline
       id="polyline181"
       points="1.1495405,13.094594   4.7058163,13.094594 7.2280388,17.4632168 4.7058163,21.8318577 1.1495405,21.8318577 "
       stroke-miterlimit="10"
       style="fill:none;stroke:#ff9d3b;stroke-width:0.74518532;stroke-miterlimit:10" /><polyline
       id="polyline183"
       points="12.5072298,7.8368979   8.9509535,7.8368979 6.4287314,12.2055216 8.9509535,16.5741615 12.5072298,16.5741615 "
       stroke-miterlimit="10"
       style="fill:none;stroke:#ff9d3b;stroke-width:0.74518532;stroke-miterlimit:10" /><g
       id="g205"><g
         id="g203"><line
           id="line185"
           y2="3.1706064"
           x2="1.4673755"
           y1="3.1706064"
           x1="1.4673755"
           stroke-miterlimit="10"
           style="fill:none;stroke:#ff9d3b;stroke-linecap:round;stroke-miterlimit:10" /><line
           id="line187"
           y2="3.1706064"
           x2="3.9951184"
           y1="3.1706064"
           x1="3.1525376"
           stroke-miterlimit="10"
           style="fill:none;stroke:#ff9d3b;stroke-linecap:round;stroke-miterlimit:10;stroke-dasharray:0, 1.6851619" /><line
           id="line189"
           y2="3.1706064"
           x2="4.8376994"
           y1="3.1706064"
           x1="4.8376994"
           stroke-miterlimit="10"
           style="fill:none;stroke:#ff9d3b;stroke-linecap:round;stroke-miterlimit:10" /><line
           id="line191"
           y2="6.620769"
           x2="6.829649"
           y1="4.5506716"
           x1="5.6344795"
           stroke-miterlimit="10"
           style="fill:none;stroke:#ff9d3b;stroke-linecap:round;stroke-miterlimit:10;stroke-dasharray:0, 1.5935614" /><line
           id="line193"
           y2="7.3108015"
           x2="7.2280388"
           y1="7.3108015"
           x1="7.2280388"
           stroke-miterlimit="10"
           style="fill:none;stroke:#ff9d3b;stroke-linecap:round;stroke-miterlimit:10" /><line
           id="line195"
           y2="10.760978"
           x2="5.2360892"
           y1="8.6908722"
           x1="6.4312592"
           stroke-miterlimit="10"
           style="fill:none;stroke:#ff9d3b;stroke-linecap:round;stroke-miterlimit:10;stroke-dasharray:0, 1.5935658" /><line
           id="line197"
           y2="11.451013"
           x2="4.8376994"
           y1="11.451013"
           x1="4.8376994"
           stroke-miterlimit="10"
           style="fill:none;stroke:#ff9d3b;stroke-linecap:round;stroke-miterlimit:10" /><line
           id="line199"
           y2="11.451013"
           x2="2.3099566"
           y1="11.451013"
           x1="3.1525376"
           stroke-miterlimit="10"
           style="fill:none;stroke:#ff9d3b;stroke-linecap:round;stroke-miterlimit:10;stroke-dasharray:0, 1.6851619" /><line
           id="line201"
           y2="11.451013"
           x2="1.4673755"
           y1="11.451013"
           x1="1.4673755"
           stroke-miterlimit="10"
           style="fill:none;stroke:#ff9d3b;stroke-linecap:round;stroke-miterlimit:10" /></g></g><path
       id="path207"
       d="M 2.7575917,12.770997"
       stroke-miterlimit="10"
       inkscape:connector-curvature="0"
       style="fill:none;stroke:#000000;stroke-width:0.50046808;stroke-miterlimit:10" /><g
       id="g239"><g
         aria-label="Dynamics"
         style="font-style:normal;font-variant:normal;font-weight:normal;font-stretch:normal;font-size:17.25025558px;line-height:125%;font-family:Calibri;-inkscape-font-specification:'Calibri, Normal';text-align:justify;letter-spacing:0px;word-spacing:0px;writing-mode:lr-tb;text-anchor:start;fill:#777777;fill-opacity:1;stroke:none;stroke-width:0.71876061px;stroke-linecap:butt;stroke-linejoin:miter;stroke-opacity:1"
         id="text4551"><path
           d="m 15.107422,8.5273111 h 2.634666 q 0.8,0 1.397334,0.1813334 0.608,0.1813333 1.045333,0.4906667 0.448,0.2986666 0.736,0.6933333 0.298667,0.3946665 0.469334,0.8106665 0.170666,0.416 0.245333,0.832 0.07467,0.416 0.07467,0.768 0,0.725334 -0.266667,1.408 -0.266667,0.672 -0.789333,1.205334 -0.522667,0.522666 -1.301334,0.842666 -0.768,0.32 -1.781333,0.32 h -2.464 z m 1.024,6.5919999 h 1.290666 q 0.650667,0 1.226667,-0.170666 0.586667,-0.181334 1.024,-0.533334 0.437334,-0.352 0.693334,-0.874666 0.256,-0.533334 0.256,-1.237334 0,-0.362666 -0.117334,-0.842666 -0.117333,-0.490667 -0.448,-0.928 -0.32,-0.437334 -0.896,-0.7360005 -0.576,-0.3093333 -1.493333,-0.3093333 h -1.536 z"
           style="font-style:normal;font-variant:normal;font-weight:500;font-stretch:normal;font-size:10.66666698px;font-family:Avenir;-inkscape-font-specification:'Avenir, Medium';font-variant-ligatures:normal;font-variant-caps:normal;font-variant-numeric:normal;font-feature-settings:normal;text-align:justify;writing-mode:lr-tb;text-anchor:start;fill:#777777;fill-opacity:1;stroke-width:0.71876061px"
           id="path847" /><path
           d="m 22.320589,11.023311 h 1.109333 l 1.504,3.946667 h 0.02133 l 1.429334,-3.946667 h 1.034666 l -2.4,6.144 q -0.128,0.330667 -0.266666,0.597334 -0.138667,0.277333 -0.330667,0.469333 -0.192,0.192 -0.469333,0.298667 -0.266667,0.106666 -0.661334,0.106666 -0.213333,0 -0.437333,-0.032 -0.213333,-0.02133 -0.416,-0.106666 l 0.117333,-0.874667 q 0.288,0.117333 0.576,0.117333 0.224,0 0.373334,-0.064 0.16,-0.05333 0.266666,-0.170666 0.117334,-0.106667 0.192,-0.256 0.07467,-0.149334 0.149334,-0.341334 l 0.309333,-0.8 z"
           style="font-style:normal;font-variant:normal;font-weight:500;font-stretch:normal;font-size:10.66666698px;font-family:Avenir;-inkscape-font-specification:'Avenir, Medium';font-variant-ligatures:normal;font-variant-caps:normal;font-variant-numeric:normal;font-feature-settings:normal;text-align:justify;writing-mode:lr-tb;text-anchor:start;fill:#777777;fill-opacity:1;stroke-width:0.71876061px"
           id="path849" /><path
           d="m 28.261922,11.023311 h 0.96 v 0.778667 h 0.02133 q 0.181334,-0.405333 0.629334,-0.650667 0.448,-0.256 1.034666,-0.256 0.362667,0 0.693334,0.117334 0.341333,0.106666 0.586666,0.341333 0.256,0.234667 0.405334,0.608 0.149333,0.362667 0.149333,0.864 v 3.253333 h -0.96 v -2.986666 q 0,-0.352 -0.096,-0.597334 -0.096,-0.256 -0.256,-0.405333 -0.16,-0.16 -0.373333,-0.224 -0.202667,-0.07467 -0.426667,-0.07467 -0.298667,0 -0.554667,0.096 -0.256,0.096 -0.448,0.309334 -0.192,0.202666 -0.298666,0.522666 -0.106667,0.32 -0.106667,0.757334 v 2.602666 h -0.96 z"
           style="font-style:normal;font-variant:normal;font-weight:500;font-stretch:normal;font-size:10.66666698px;font-family:Avenir;-inkscape-font-specification:'Avenir, Medium';font-variant-ligatures:normal;font-variant-caps:normal;font-variant-numeric:normal;font-feature-settings:normal;text-align:justify;writing-mode:lr-tb;text-anchor:start;fill:#777777;fill-opacity:1;stroke-width:0.71876061px"
           id="path851" /><path
           d="m 34.220756,11.641978 q 0.405334,-0.373333 0.938667,-0.554667 0.533333,-0.192 1.066667,-0.192 0.554666,0 0.949333,0.138667 0.405333,0.138667 0.661333,0.373333 0.256,0.234667 0.373334,0.544 0.128,0.298667 0.128,0.629334 v 2.581333 q 0,0.266667 0.01067,0.490667 0.01067,0.224 0.032,0.426666 h -0.853333 q -0.032,-0.384 -0.032,-0.768 h -0.02133 q -0.32,0.490667 -0.757334,0.693334 -0.437333,0.202666 -1.013333,0.202666 -0.352,0 -0.672,-0.096 -0.32,-0.096 -0.565333,-0.288 -0.234667,-0.192 -0.373334,-0.469333 -0.138666,-0.288 -0.138666,-0.661333 0,-0.490667 0.213333,-0.821334 0.224,-0.330666 0.597333,-0.533333 0.384,-0.213333 0.885334,-0.298667 0.512,-0.096 1.088,-0.096 h 0.704 v -0.213333 q 0,-0.192 -0.07467,-0.384 -0.07467,-0.192 -0.224,-0.341333 -0.149333,-0.16 -0.373333,-0.245334 -0.224,-0.096 -0.533334,-0.096 -0.277333,0 -0.490666,0.05333 -0.202667,0.05333 -0.373334,0.138666 -0.170666,0.07467 -0.309333,0.181334 -0.138667,0.106666 -0.266667,0.202666 z m 2.709334,2.005333 q -0.341334,0 -0.704,0.04267 -0.352,0.032 -0.650667,0.138667 -0.288,0.106666 -0.48,0.298666 -0.181333,0.192 -0.181333,0.490667 0,0.437333 0.288,0.629333 0.298666,0.192 0.8,0.192 0.394666,0 0.672,-0.128 0.277333,-0.138666 0.448,-0.352 0.170666,-0.213333 0.245333,-0.469333 0.07467,-0.266667 0.07467,-0.522667 v -0.32 z"
           style="font-style:normal;font-variant:normal;font-weight:500;font-stretch:normal;font-size:10.66666698px;font-family:Avenir;-inkscape-font-specification:'Avenir, Medium';font-variant-ligatures:normal;font-variant-caps:normal;font-variant-numeric:normal;font-feature-settings:normal;text-align:justify;writing-mode:lr-tb;text-anchor:start;fill:#777777;fill-opacity:1;stroke-width:0.71876061px"
           id="path853" /><path
           d="m 39.741089,11.023311 h 0.896 v 0.789334 h 0.02133 q 0.032,-0.106667 0.16,-0.266667 0.138667,-0.16 0.341334,-0.298667 0.213333,-0.149333 0.490666,-0.245333 0.288,-0.106667 0.629334,-0.106667 0.565333,0 0.949333,0.234667 0.384,0.234667 0.629333,0.704 0.245334,-0.469333 0.693334,-0.704 0.448,-0.234667 0.906667,-0.234667 0.586666,0 0.96,0.192 0.373333,0.192 0.586666,0.512 0.213334,0.309334 0.288,0.714667 0.08533,0.394667 0.08533,0.821333 v 2.944 h -0.96 v -2.816 q 0,-0.288 -0.04267,-0.554666 -0.032,-0.266667 -0.149333,-0.469334 -0.117334,-0.202666 -0.330667,-0.32 -0.213333,-0.128 -0.565333,-0.128 -0.693334,0 -0.992001,0.426667 -0.298666,0.426667 -0.298666,1.098667 v 2.762666 h -0.96 v -2.645333 q 0,-0.362667 -0.04267,-0.661333 -0.032,-0.298667 -0.149333,-0.512 -0.106667,-0.224 -0.32,-0.341334 -0.202667,-0.128 -0.554667,-0.128 -0.256,0 -0.501333,0.106667 -0.234667,0.096 -0.416,0.298667 -0.181334,0.202666 -0.288,0.522666 -0.106667,0.309334 -0.106667,0.736 v 2.624 h -0.96 z"
           style="font-style:normal;font-variant:normal;font-weight:500;font-stretch:normal;font-size:10.66666698px;font-family:Avenir;-inkscape-font-specification:'Avenir, Medium';font-variant-ligatures:normal;font-variant-caps:normal;font-variant-numeric:normal;font-feature-settings:normal;text-align:justify;writing-mode:lr-tb;text-anchor:start;fill:#777777;fill-opacity:1;stroke-width:0.71876061px"
           id="path855" /><path
           d="m 48.89909,11.023311 h 0.96 v 5.056 h -0.96 z m -0.224,-1.8133332 q 0,-0.288 0.202666,-0.4906666 0.213334,-0.2133334 0.501334,-0.2133334 0.288,0 0.490666,0.2133334 0.213334,0.2026666 0.213334,0.4906666 0,0.288 -0.213334,0.5013334 -0.202666,0.2026667 -0.490666,0.2026667 -0.288,0 -0.501334,-0.2026667 Q 48.67509,9.4979778 48.67509,9.2099778 Z"
           style="font-style:normal;font-variant:normal;font-weight:500;font-stretch:normal;font-size:10.66666698px;font-family:Avenir;-inkscape-font-specification:'Avenir, Medium';font-variant-ligatures:normal;font-variant-caps:normal;font-variant-numeric:normal;font-feature-settings:normal;text-align:justify;writing-mode:lr-tb;text-anchor:start;fill:#777777;fill-opacity:1;stroke-width:0.71876061px"
           id="path857" /><path
           d="m 55.002923,12.367311 q -0.266667,-0.277333 -0.565333,-0.416 -0.288,-0.149333 -0.693334,-0.149333 -0.394666,0 -0.693333,0.149333 -0.288,0.138667 -0.490667,0.394667 -0.192,0.245333 -0.298666,0.576 -0.096,0.32 -0.096,0.672 0,0.352 0.117333,0.672 0.117333,0.309333 0.330667,0.544 0.213333,0.234667 0.512,0.373333 0.298666,0.128 0.672,0.128 0.405333,0 0.693333,-0.138666 0.288,-0.149334 0.533333,-0.426667 l 0.682667,0.682667 q -0.373333,0.416 -0.874667,0.597333 -0.490666,0.181333 -1.045333,0.181333 -0.586667,0 -1.077333,-0.192 -0.48,-0.192 -0.832,-0.533333 -0.352,-0.352 -0.544,-0.832 -0.192,-0.490667 -0.192,-1.077333 0,-0.586667 0.192,-1.077334 0.192,-0.490666 0.533333,-0.842666 0.352,-0.352 0.832,-0.544 0.490667,-0.202667 1.088,-0.202667 0.554667,0 1.056,0.202667 0.512,0.192 0.885333,0.597333 z"
           style="font-style:normal;font-variant:normal;font-weight:500;font-stretch:normal;font-size:10.66666698px;font-family:Avenir;-inkscape-font-specification:'Avenir, Medium';font-variant-ligatures:normal;font-variant-caps:normal;font-variant-numeric:normal;font-feature-settings:normal;text-align:justify;writing-mode:lr-tb;text-anchor:start;fill:#777777;fill-opacity:1;stroke-width:0.71876061px"
           id="path859" /><path
           d="m 59.220755,12.292645 q -0.170667,-0.213334 -0.426667,-0.352 -0.245333,-0.149334 -0.608,-0.149334 -0.341333,0 -0.597333,0.149334 -0.245333,0.138666 -0.245333,0.416 0,0.224 0.138666,0.362666 0.149334,0.138667 0.341334,0.224 0.202666,0.08533 0.426666,0.128 0.224,0.04267 0.384,0.07467 0.309334,0.07467 0.576,0.181333 0.277334,0.106667 0.469334,0.277334 0.202666,0.170666 0.309333,0.416 0.117333,0.245333 0.117333,0.597333 0,0.426667 -0.181333,0.736 -0.181333,0.298667 -0.469333,0.490667 -0.288,0.192 -0.661334,0.277333 -0.362666,0.08533 -0.736,0.08533 -0.629333,0 -1.109333,-0.192 -0.469333,-0.192 -0.842667,-0.704 l 0.725334,-0.597333 q 0.234666,0.234667 0.522666,0.416 0.288,0.181333 0.704,0.181333 0.181334,0 0.362667,-0.032 0.192,-0.04267 0.330667,-0.117333 0.149333,-0.08533 0.234666,-0.202667 0.096,-0.128 0.096,-0.288 0,-0.213333 -0.138666,-0.352 -0.128,-0.138666 -0.32,-0.213333 -0.181334,-0.08533 -0.394667,-0.128 -0.202667,-0.05333 -0.362667,-0.08533 -0.309333,-0.07467 -0.586666,-0.170667 -0.277334,-0.096 -0.490667,-0.256 -0.213333,-0.16 -0.341333,-0.405333 -0.128,-0.245334 -0.128,-0.608 0,-0.394667 0.16,-0.682667 0.170666,-0.298667 0.437333,-0.490667 0.277333,-0.192 0.618667,-0.288 0.352,-0.096 0.704,-0.096 0.512,0 0.981333,0.192 0.469333,0.192 0.746667,0.64 z"
           style="font-style:normal;font-variant:normal;font-weight:500;font-stretch:normal;font-size:10.66666698px;font-family:Avenir;-inkscape-font-specification:'Avenir, Medium';font-variant-ligatures:normal;font-variant-caps:normal;font-variant-numeric:normal;font-feature-settings:normal;text-align:justify;writing-mode:lr-tb;text-anchor:start;fill:#777777;fill-opacity:1;stroke-width:0.71876061px"
           id="path861" /></g></g><circle
       id="circle241"
       r="1.1422229"
       cy="12.112974"
       cx="10.901957"
       style="fill:#ff9d3b" /><path
       id="path243"
       d="M 2.2592747,14.154531"
       stroke-miterlimit="10"
       inkscape:connector-curvature="0"
       style="fill:none;stroke:#000000;stroke-width:0.57337219;stroke-miterlimit:10" /><g
       id="g315" /><g
       id="g317" /><g
       id="g319" /><g
       id="g321" /><g
       id="g323" /><g
       id="g325" /><g
       id="g327" /><g
       id="g329" /><g
       id="g331" /><g
       id="g333" /><g
       id="g335" /><g
       id="g337" /><g
       id="g339" /><g
       id="g341" /><g
       id="g343" /></g></svg>