<?xml version="1.0" encoding="UTF-8" standalone="no"?>
<!-- Generator: Adobe Illustrator 17.1.0, SVG Export Plug-In . SVG Version: 6.00 Build 0)  -->

<svg
   xmlns:dc="http://purl.org/dc/elements/1.1/"
   xmlns:cc="http://creativecommons.org/ns#"
   xmlns:rdf="http://www.w3.org/1999/02/22-rdf-syntax-ns#"
   xmlns:svg="http://www.w3.org/2000/svg"
   xmlns="http://www.w3.org/2000/svg"
   xmlns:sodipodi="http://sodipodi.sourceforge.net/DTD/sodipodi-0.dtd"
   xmlns:inkscape="http://www.inkscape.org/namespaces/inkscape"
   version="1.1"
   id="Layer_1"
   x="0px"
   y="0px"
   width="113.35319"
   height="19.533894"
   viewBox="0 0 113.35318 19.533894"
   enable-background="new 0 0 240 40"
   xml:space="preserve"
   sodipodi:docname="rp-icon-intrinsically-menu.svg"
   inkscape:version="0.92.2 5c3e80d, 2017-08-06"><metadata
     id="metadata237"><rdf:RDF><cc:Work
         rdf:about=""><dc:format>image/svg+xml</dc:format><dc:type
           rdf:resource="http://purl.org/dc/dcmitype/StillImage" /><dc:title></dc:title></cc:Work></rdf:RDF></metadata><defs
     id="defs235" /><sodipodi:namedview
     pagecolor="#ffffff"
     bordercolor="#666666"
     borderopacity="1"
     objecttolerance="10"
     gridtolerance="10"
     guidetolerance="10"
     inkscape:pageopacity="0"
     inkscape:pageshadow="2"
     inkscape:window-width="1920"
     inkscape:window-height="1125"
     id="namedview233"
     showgrid="false"
     fit-margin-top="0"
     fit-margin-left="0"
     fit-margin-right="0"
     fit-margin-bottom="0"
     inkscape:zoom="10.427884"
     inkscape:cx="13.112052"
     inkscape:cy="8.313628"
     inkscape:window-x="361"
     inkscape:window-y="98"
     inkscape:window-maximized="0"
     inkscape:current-layer="Layer_1"
     inkscape:pagecheckerboard="true" /><path
     style="fill:none;stroke:#42bdae;stroke-width:0.98938167;stroke-miterlimit:10"
     inkscape:connector-curvature="0"
     stroke-miterlimit="10"
     d="M 12.281574,17.317767"
     id="path2" /><path
     transform="translate(-0.96025427,-2.6705564)"
     style="fill:none;stroke:#37b34a;stroke-width:0.74518532;stroke-miterlimit:10"
     d="m 1.1495405,13.094594 h 3.5562758 l 2.5222225,4.368623 -2.5222225,4.368641 H 1.1495405"
     id="polyline4" /><path
     transform="translate(-0.96025427,-2.6705564)"
     style="fill:none;stroke:#37b34a;stroke-width:0.74518532;stroke-miterlimit:10"
     d="M 12.50723,7.8368979 H 8.9509535 L 6.4287314,12.205522 8.9509535,16.574161 H 12.50723"
     id="polyline6" /><g
     id="g28"
     transform="translate(-0.96025427,-2.6705564)"><g
       id="g26"><path
         style="fill:none;stroke:#37b34a;stroke-linecap:round;stroke-miterlimit:10"
         d="m 1.4673755,3.1706064 v 0"
         id="line8" /><path
         style="fill:none;stroke:#37b34a;stroke-linecap:round;stroke-miterlimit:10;stroke-dasharray:0, 1.6851619"
         d="M 3.1525373,3.1706064 H 3.9951184"
         id="line10" /><path
         style="fill:none;stroke:#37b34a;stroke-linecap:round;stroke-miterlimit:10"
         d="m 4.8376994,3.1706064 v 0"
         id="line12" /><path
         style="fill:none;stroke:#37b34a;stroke-linecap:round;stroke-miterlimit:10;stroke-dasharray:0, 1.5935614"
         d="M 5.6344795,4.5506716 6.829649,6.620769"
         id="line14" /><path
         style="fill:none;stroke:#37b34a;stroke-linecap:round;stroke-miterlimit:10"
         d="m 7.2280393,7.3108015 v 0"
         id="line16" /><path
         style="fill:none;stroke:#37b34a;stroke-linecap:round;stroke-miterlimit:10;stroke-dasharray:0, 1.5935658"
         d="M 6.4312592,8.6908722 5.2360897,10.760978"
         id="line18" /><path
         style="fill:none;stroke:#37b34a;stroke-linecap:round;stroke-miterlimit:10"
         d="m 4.8376994,11.451013 v 0"
         id="line20" /><path
         style="fill:none;stroke:#37b34a;stroke-linecap:round;stroke-miterlimit:10;stroke-dasharray:0, 1.6851619"
         d="M 3.1525373,11.451013 H 2.3099566"
         id="line22" /><path
         style="fill:none;stroke:#37b34a;stroke-linecap:round;stroke-miterlimit:10"
         d="m 1.4673755,11.451013 v 0"
         id="line24" /></g></g><path
     style="fill:none;stroke:#000000;stroke-width:0.50046808;stroke-miterlimit:10"
     inkscape:connector-curvature="0"
     stroke-miterlimit="10"
     d="M 1.7973374,10.100441"
     id="path30" /><path
     style="fill:#37b34a"
     d="M 11.083925,9.4424181 A 1.1422229,1.1422229 0 0 1 9.9417019,10.584641 1.1422229,1.1422229 0 0 1 8.799479,9.4424181 1.1422229,1.1422229 0 0 1 9.9417019,8.3001952 1.1422229,1.1422229 0 0 1 11.083925,9.4424181 Z"
     id="circle96" /><path
     style="fill:none;stroke:#000000;stroke-width:0.57337219;stroke-miterlimit:10"
     inkscape:connector-curvature="0"
     stroke-miterlimit="10"
     d="M 1.2990204,11.483975"
     id="path98" /><g
     id="g202"
     transform="translate(-0.96025427,-2.6705564)" /><g
     id="g204"
     transform="translate(-0.96025427,-2.6705564)" /><g
     id="g206"
     transform="translate(-0.96025427,-2.6705564)" /><g
     id="g208"
     transform="translate(-0.96025427,-2.6705564)" /><g
     id="g210"
     transform="translate(-0.96025427,-2.6705564)" /><g
     id="g212"
     transform="translate(-0.96025427,-2.6705564)" /><g
     id="g214"
     transform="translate(-0.96025427,-2.6705564)" /><g
     id="g216"
     transform="translate(-0.96025427,-2.6705564)" /><g
     id="g218"
     transform="translate(-0.96025427,-2.6705564)" /><g
     id="g220"
     transform="translate(-0.96025427,-2.6705564)" /><g
     id="g222"
     transform="translate(-0.96025427,-2.6705564)" /><g
     id="g224"
     transform="translate(-0.96025427,-2.6705564)" /><g
     id="g226"
     transform="translate(-0.96025427,-2.6705564)" /><g
     id="g228"
     transform="translate(-0.96025427,-2.6705564)" /><g
     id="g230"
     transform="translate(-0.96025427,-2.6705564)" /><g
     id="g974"
     style="fill:#777777;fill-opacity:1;stroke:none;stroke-opacity:1"><g
       aria-label="Intrinsically Disordered
"
       style="font-style:normal;font-variant:normal;font-weight:normal;font-stretch:normal;font-size:24px;line-height:125%;font-family:Calibri;-inkscape-font-specification:'Calibri, Normal';text-align:justify;letter-spacing:0px;word-spacing:0px;writing-mode:lr-tb;text-anchor:start;fill:#777777;fill-opacity:1;stroke:none;stroke-width:1px;stroke-linecap:butt;stroke-linejoin:miter;stroke-opacity:1"
       id="text878"><path
         d="m 14.108518,0.95376855 h 1.024 V 8.5057688 h -1.024 z"
         style="font-style:normal;font-variant:normal;font-weight:500;font-stretch:normal;font-size:10.66666698px;line-height:10.00000015%;font-family:Avenir;-inkscape-font-specification:'Avenir Medium';letter-spacing:-0.41999999px;fill:#777777;fill-opacity:1;stroke:none;stroke-opacity:1"
         id="path861" /><path
         d="m 16.401518,3.4497686 h 0.960001 v 0.7786667 h 0.02133 q 0.181333,-0.4053333 0.629333,-0.6506667 0.448,-0.256 1.034667,-0.256 0.362667,0 0.693333,0.1173334 0.341334,0.1066666 0.586667,0.3413333 0.256,0.2346667 0.405333,0.608 0.149334,0.3626667 0.149334,0.864 v 3.2533335 h -0.96 V 5.519102 q 0,-0.352 -0.096,-0.5973333 -0.096,-0.256 -0.256,-0.4053334 -0.16,-0.16 -0.373334,-0.224 -0.202666,-0.074667 -0.426666,-0.074667 -0.298667,0 -0.554667,0.096 -0.256,0.096 -0.448,0.3093333 -0.192,0.2026667 -0.298667,0.5226667 -0.106666,0.32 -0.106666,0.7573333 v 2.6026668 h -0.960001 z"
         style="font-style:normal;font-variant:normal;font-weight:500;font-stretch:normal;font-size:10.66666698px;line-height:10.00000015%;font-family:Avenir;-inkscape-font-specification:'Avenir Medium';letter-spacing:-0.41999999px;fill:#777777;fill-opacity:1;stroke:none;stroke-opacity:1"
         id="path863" /><path
         d="m 24.628352,4.2817687 h -1.376 v 2.2933334 q 0,0.2133333 0.01067,0.4266666 0.01067,0.2026667 0.07467,0.3733334 0.07467,0.16 0.213333,0.2666667 0.149333,0.096 0.426667,0.096 0.170666,0 0.352,-0.032 0.181333,-0.032 0.330666,-0.1173334 v 0.8746667 q -0.170666,0.096 -0.448,0.128 -0.266666,0.042667 -0.416,0.042667 -0.554666,0 -0.864,-0.1493334 -0.298666,-0.16 -0.448,-0.4053333 -0.138666,-0.2453333 -0.170666,-0.544 -0.02133,-0.3093334 -0.02133,-0.6186667 V 4.2817687 H 21.183019 V 3.4497686 h 1.109333 V 2.0311019 h 0.96 v 1.4186667 h 1.376 z"
         style="font-style:normal;font-variant:normal;font-weight:500;font-stretch:normal;font-size:10.66666698px;line-height:10.00000015%;font-family:Avenir;-inkscape-font-specification:'Avenir Medium';letter-spacing:-0.41999999px;fill:#777777;fill-opacity:1;stroke:none;stroke-opacity:1"
         id="path865" /><path
         d="m 25.436519,3.4497686 h 0.96 v 0.7786667 h 0.02133 q 0.096,-0.2026667 0.256,-0.3626667 0.16,-0.1706666 0.352,-0.288 0.202667,-0.1173333 0.437334,-0.1813333 0.234666,-0.074667 0.469333,-0.074667 0.234667,0 0.426667,0.064 l -0.04267,1.0346667 q -0.117333,-0.032 -0.234667,-0.053333 -0.117333,-0.021333 -0.234666,-0.021333 -0.704,0 -1.077334,0.3946666 -0.373333,0.3946667 -0.373333,1.2266667 v 2.5386668 h -0.96 z"
         style="font-style:normal;font-variant:normal;font-weight:500;font-stretch:normal;font-size:10.66666698px;line-height:10.00000015%;font-family:Avenir;-inkscape-font-specification:'Avenir Medium';letter-spacing:-0.41999999px;fill:#777777;fill-opacity:1;stroke:none;stroke-opacity:1"
         id="path867" /><path
         d="m 29.028685,3.4497686 h 0.96 v 5.0560002 h -0.96 z m -0.224,-1.8133334 q 0,-0.288 0.202667,-0.4906666 0.213333,-0.21333338 0.501333,-0.21333338 0.288,0 0.490667,0.21333338 0.213333,0.2026666 0.213333,0.4906666 0,0.288 -0.213333,0.5013334 -0.202667,0.2026667 -0.490667,0.2026667 -0.288,0 -0.501333,-0.2026667 -0.202667,-0.2133334 -0.202667,-0.5013334 z"
         style="font-style:normal;font-variant:normal;font-weight:500;font-stretch:normal;font-size:10.66666698px;line-height:10.00000015%;font-family:Avenir;-inkscape-font-specification:'Avenir Medium';letter-spacing:-0.41999999px;fill:#777777;fill-opacity:1;stroke:none;stroke-opacity:1"
         id="path869" /><path
         d="m 31.096519,3.4497686 h 0.96 v 0.7786667 h 0.02133 q 0.181333,-0.4053333 0.629333,-0.6506667 0.448,-0.256 1.034667,-0.256 0.362667,0 0.693333,0.1173334 0.341334,0.1066666 0.586667,0.3413333 0.256,0.2346667 0.405333,0.608 0.149334,0.3626667 0.149334,0.864 v 3.2533335 h -0.96 V 5.519102 q 0,-0.352 -0.096,-0.5973333 -0.096,-0.256 -0.256,-0.4053334 -0.16,-0.16 -0.373334,-0.224 -0.202666,-0.074667 -0.426666,-0.074667 -0.298667,0 -0.554667,0.096 -0.256,0.096 -0.448,0.3093333 -0.192,0.2026667 -0.298667,0.5226667 -0.106666,0.32 -0.106666,0.7573333 v 2.6026668 h -0.96 z"
         style="font-style:normal;font-variant:normal;font-weight:500;font-stretch:normal;font-size:10.66666698px;line-height:10.00000015%;font-family:Avenir;-inkscape-font-specification:'Avenir Medium';letter-spacing:-0.41999999px;fill:#777777;fill-opacity:1;stroke:none;stroke-opacity:1"
         id="path871" /><path
         d="m 39.302019,4.719102 q -0.170667,-0.2133333 -0.426667,-0.352 -0.245333,-0.1493334 -0.608,-0.1493334 -0.341333,0 -0.597333,0.1493334 -0.245334,0.1386667 -0.245334,0.416 0,0.224 0.138667,0.3626667 0.149333,0.1386666 0.341333,0.224 0.202667,0.085333 0.426667,0.128 0.224,0.042667 0.384,0.074667 0.309333,0.074667 0.576,0.1813333 0.277333,0.1066667 0.469333,0.2773333 0.202667,0.1706667 0.309334,0.416 0.117333,0.2453334 0.117333,0.5973334 0,0.4266667 -0.181333,0.736 -0.181334,0.2986667 -0.469334,0.4906667 -0.288,0.192 -0.661333,0.2773333 -0.362667,0.085333 -0.736,0.085333 -0.629333,0 -1.109333,-0.192 -0.469334,-0.192 -0.842667,-0.704 l 0.725333,-0.5973334 q 0.234667,0.2346667 0.522667,0.416 0.288,0.1813334 0.704,0.1813334 0.181333,0 0.362667,-0.032 0.192,-0.042667 0.330666,-0.1173334 0.149334,-0.085333 0.234667,-0.2026667 0.096,-0.128 0.096,-0.288 0,-0.2133333 -0.138667,-0.352 -0.128,-0.1386666 -0.32,-0.2133333 -0.181333,-0.085333 -0.394666,-0.128 -0.202667,-0.053333 -0.362667,-0.085333 -0.309333,-0.074667 -0.586667,-0.1706666 -0.277333,-0.096 -0.490666,-0.256 -0.213334,-0.16 -0.341334,-0.4053334 -0.128,-0.2453333 -0.128,-0.608 0,-0.3946667 0.16,-0.6826667 0.170667,-0.2986667 0.437334,-0.4906667 0.277333,-0.192 0.618666,-0.288 0.352,-0.096 0.704,-0.096 0.512,0 0.981334,0.192 0.469333,0.192 0.746666,0.64 z"
         style="font-style:normal;font-variant:normal;font-weight:500;font-stretch:normal;font-size:10.66666698px;line-height:10.00000015%;font-family:Avenir;-inkscape-font-specification:'Avenir Medium';letter-spacing:-0.41999999px;fill:#777777;fill-opacity:1;stroke:none;stroke-opacity:1"
         id="path873" /><path
         d="m 40.997853,3.4497686 h 0.96 v 5.0560002 h -0.96 z m -0.224,-1.8133334 q 0,-0.288 0.202667,-0.4906666 0.213333,-0.21333338 0.501333,-0.21333338 0.288,0 0.490667,0.21333338 0.213333,0.2026666 0.213333,0.4906666 0,0.288 -0.213333,0.5013334 -0.202667,0.2026667 -0.490667,0.2026667 -0.288,0 -0.501333,-0.2026667 -0.202667,-0.2133334 -0.202667,-0.5013334 z"
         style="font-style:normal;font-variant:normal;font-weight:500;font-stretch:normal;font-size:10.66666698px;line-height:10.00000015%;font-family:Avenir;-inkscape-font-specification:'Avenir Medium';letter-spacing:-0.41999999px;fill:#777777;fill-opacity:1;stroke:none;stroke-opacity:1"
         id="path875" /><path
         d="m 46.681686,4.7937687 q -0.266666,-0.2773334 -0.565333,-0.416 -0.288,-0.1493334 -0.693333,-0.1493334 -0.394667,0 -0.693334,0.1493334 -0.288,0.1386666 -0.490666,0.3946666 -0.192,0.2453334 -0.298667,0.576 -0.096,0.3200001 -0.096,0.6720001 0,0.352 0.117333,0.672 0.117334,0.3093333 0.330667,0.544 0.213333,0.2346667 0.512,0.3733333 0.298667,0.1280001 0.672,0.1280001 0.405333,0 0.693333,-0.1386667 0.288,-0.1493334 0.533334,-0.4266667 l 0.682666,0.6826667 q -0.373333,0.416 -0.874666,0.5973333 -0.490667,0.1813334 -1.045334,0.1813334 -0.586666,0 -1.077333,-0.192 -0.48,-0.192 -0.832,-0.5333334 -0.352,-0.352 -0.544,-0.832 -0.192,-0.4906667 -0.192,-1.0773334 0,-0.5866666 0.192,-1.0773333 0.192,-0.4906667 0.533333,-0.8426667 0.352,-0.352 0.832,-0.544 0.490667,-0.2026667 1.088,-0.2026667 0.554667,0 1.056,0.2026667 0.512,0.192 0.885334,0.5973333 z"
         style="font-style:normal;font-variant:normal;font-weight:500;font-stretch:normal;font-size:10.66666698px;line-height:10.00000015%;font-family:Avenir;-inkscape-font-specification:'Avenir Medium';letter-spacing:-0.41999999px;fill:#777777;fill-opacity:1;stroke:none;stroke-opacity:1"
         id="path877" /><path
         d="m 47.812852,4.0684353 q 0.405333,-0.3733333 0.938666,-0.5546667 0.533334,-0.192 1.066667,-0.192 0.554667,0 0.949333,0.1386667 0.405334,0.1386667 0.661334,0.3733333 0.256,0.2346667 0.373333,0.5440001 0.128,0.2986666 0.128,0.6293333 v 2.5813334 q 0,0.2666667 0.01067,0.4906667 0.01067,0.224 0.032,0.4266667 h -0.853334 q -0.032,-0.384 -0.032,-0.768 h -0.02133 q -0.32,0.4906666 -0.757333,0.6933333 -0.437334,0.2026667 -1.013334,0.2026667 -0.352,0 -0.672,-0.096 -0.32,-0.096 -0.565333,-0.288 -0.234667,-0.192 -0.373333,-0.4693334 -0.138667,-0.288 -0.138667,-0.6613333 0,-0.4906667 0.213333,-0.8213334 0.224,-0.3306667 0.597334,-0.5333333 0.384,-0.2133334 0.885333,-0.2986667 0.512,-0.096 1.088,-0.096 h 0.704 V 5.1564353 q 0,-0.192 -0.07467,-0.384 -0.07467,-0.192 -0.224,-0.3413333 -0.149333,-0.16 -0.373333,-0.2453334 -0.224,-0.096 -0.533333,-0.096 -0.277334,0 -0.490667,0.053333 -0.202667,0.053333 -0.373333,0.1386667 -0.170667,0.074667 -0.309334,0.1813333 -0.138666,0.1066667 -0.266666,0.2026667 z m 2.709333,2.0053334 q -0.341333,0 -0.704,0.042667 -0.352,0.032 -0.650667,0.1386666 -0.288,0.1066667 -0.48,0.2986667 -0.181333,0.192 -0.181333,0.4906667 0,0.4373333 0.288,0.6293334 0.298667,0.192 0.8,0.192 0.394667,0 0.672,-0.128 0.277333,-0.1386667 0.448,-0.3520001 0.170667,-0.2133333 0.245333,-0.4693333 0.07467,-0.2666667 0.07467,-0.5226667 v -0.32 z"
         style="font-style:normal;font-variant:normal;font-weight:500;font-stretch:normal;font-size:10.66666698px;line-height:10.00000015%;font-family:Avenir;-inkscape-font-specification:'Avenir Medium';letter-spacing:-0.41999999px;fill:#777777;fill-opacity:1;stroke:none;stroke-opacity:1"
         id="path879" /><path
         d="m 52.987851,0.44176854 h 0.96 V 8.5057688 h -0.96 z"
         style="font-style:normal;font-variant:normal;font-weight:500;font-stretch:normal;font-size:10.66666698px;line-height:10.00000015%;font-family:Avenir;-inkscape-font-specification:'Avenir Medium';letter-spacing:-0.41999999px;fill:#777777;fill-opacity:1;stroke:none;stroke-opacity:1"
         id="path881" /><path
         d="m 55.130353,0.44176854 h 0.96 V 8.5057688 h -0.96 z"
         style="font-style:normal;font-variant:normal;font-weight:500;font-stretch:normal;font-size:10.66666698px;line-height:10.00000015%;font-family:Avenir;-inkscape-font-specification:'Avenir Medium';letter-spacing:-0.41999999px;fill:#777777;fill-opacity:1;stroke:none;stroke-opacity:1"
         id="path883" /><path
         d="m 56.590188,3.4497686 h 1.109333 l 1.504,3.9466668 h 0.02133 l 1.429333,-3.9466668 h 1.034667 l -2.4,6.1440002 q -0.128,0.3306667 -0.266667,0.5973332 -0.138667,0.277334 -0.330667,0.469334 -0.192,0.192 -0.469333,0.298666 -0.266667,0.106667 -0.661333,0.106667 -0.213334,0 -0.437334,-0.032 -0.213333,-0.02133 -0.416,-0.106667 l 0.117334,-0.874667 q 0.288,0.117334 0.576,0.117334 0.224,0 0.373333,-0.064 0.16,-0.05333 0.266667,-0.1706668 0.117333,-0.1066667 0.192,-0.2560001 0.07467,-0.1493333 0.149333,-0.3413333 l 0.309333,-0.8 z"
         style="font-style:normal;font-variant:normal;font-weight:500;font-stretch:normal;font-size:10.66666698px;line-height:10.00000015%;font-family:Avenir;-inkscape-font-specification:'Avenir Medium';letter-spacing:-0.41999999px;fill:#777777;fill-opacity:1;stroke:none;stroke-opacity:1"
         id="path885" /><path
         d="m 64.724519,0.95376855 h 2.634666 q 0.8,0 1.397334,0.18133335 0.608,0.1813333 1.045333,0.4906667 0.448,0.2986666 0.736,0.6933333 0.298667,0.3946667 0.469333,0.8106667 0.170667,0.416 0.245334,0.832 0.07467,0.4160001 0.07467,0.7680001 0,0.7253333 -0.266666,1.408 -0.266667,0.672 -0.789334,1.2053334 -0.522666,0.5226667 -1.301333,0.8426667 -0.768,0.32 -1.781333,0.32 h -2.464 z m 1.024,6.59200015 h 1.290666 q 0.650667,0 1.226667,-0.1706666 0.586667,-0.1813334 1.024,-0.5333334 0.437333,-0.352 0.693333,-0.8746667 0.256,-0.5333333 0.256,-1.2373333 0,-0.3626667 -0.117333,-0.8426667 -0.117333,-0.4906667 -0.448,-0.9280001 -0.32,-0.4373333 -0.896,-0.736 -0.576,-0.3093333 -1.493333,-0.3093333 h -1.536 z"
         style="font-style:normal;font-variant:normal;font-weight:500;font-stretch:normal;font-size:10.66666698px;line-height:10.00000015%;font-family:Avenir;-inkscape-font-specification:'Avenir Medium';letter-spacing:-0.41999999px;fill:#777777;fill-opacity:1;stroke:none;stroke-opacity:1"
         id="path887" /><path
         d="m 72.200353,3.4497686 h 0.96 v 5.0560002 h -0.96 z M 71.976352,1.6364352 q 0,-0.288 0.202667,-0.4906666 0.213334,-0.21333338 0.501334,-0.21333338 0.288,0 0.490666,0.21333338 0.213334,0.2026666 0.213334,0.4906666 0,0.288 -0.213334,0.5013334 -0.202666,0.2026667 -0.490666,0.2026667 -0.288,0 -0.501334,-0.2026667 -0.202667,-0.2133334 -0.202667,-0.5013334 z"
         style="font-style:normal;font-variant:normal;font-weight:500;font-stretch:normal;font-size:10.66666698px;line-height:10.00000015%;font-family:Avenir;-inkscape-font-specification:'Avenir Medium';letter-spacing:-0.41999999px;fill:#777777;fill-opacity:1;stroke:none;stroke-opacity:1"
         id="path889" /><path
         d="m 76.956188,4.719102 q -0.170667,-0.2133333 -0.426667,-0.352 -0.245333,-0.1493334 -0.608,-0.1493334 -0.341333,0 -0.597333,0.1493334 -0.245334,0.1386667 -0.245334,0.416 0,0.224 0.138667,0.3626667 0.149333,0.1386666 0.341333,0.224 0.202667,0.085333 0.426667,0.128 0.224,0.042667 0.384,0.074667 0.309333,0.074667 0.576,0.1813333 0.277333,0.1066667 0.469333,0.2773333 0.202667,0.1706667 0.309334,0.416 0.117333,0.2453334 0.117333,0.5973334 0,0.4266667 -0.181333,0.736 -0.181334,0.2986667 -0.469334,0.4906667 -0.288,0.192 -0.661333,0.2773333 -0.362667,0.085333 -0.736,0.085333 -0.629333,0 -1.109333,-0.192 -0.469334,-0.192 -0.842667,-0.704 l 0.725333,-0.5973334 q 0.234667,0.2346667 0.522667,0.416 0.288,0.1813334 0.704,0.1813334 0.181333,0 0.362667,-0.032 0.192,-0.042667 0.330666,-0.1173334 0.149334,-0.085333 0.234667,-0.2026667 0.096,-0.128 0.096,-0.288 0,-0.2133333 -0.138667,-0.352 -0.128,-0.1386666 -0.32,-0.2133333 -0.181333,-0.085333 -0.394666,-0.128 -0.202667,-0.053333 -0.362667,-0.085333 -0.309333,-0.074667 -0.586667,-0.1706666 -0.277333,-0.096 -0.490666,-0.256 -0.213334,-0.16 -0.341334,-0.4053334 -0.128,-0.2453333 -0.128,-0.608 0,-0.3946667 0.16,-0.6826667 0.170667,-0.2986667 0.437334,-0.4906667 0.277333,-0.192 0.618666,-0.288 0.352,-0.096 0.704,-0.096 0.512,0 0.981334,0.192 0.469333,0.192 0.746666,0.64 z"
         style="font-style:normal;font-variant:normal;font-weight:500;font-stretch:normal;font-size:10.66666698px;line-height:10.00000015%;font-family:Avenir;-inkscape-font-specification:'Avenir Medium';letter-spacing:-0.41999999px;fill:#777777;fill-opacity:1;stroke:none;stroke-opacity:1"
         id="path891" /><path
         d="m 79.356024,5.9777687 q 0,0.384 0.117333,0.7146667 0.117334,0.32 0.330667,0.5546667 0.213333,0.224 0.522667,0.3626666 0.309333,0.1280001 0.693333,0.1280001 0.384,0 0.693334,-0.1280001 0.309333,-0.1386666 0.522666,-0.3626666 0.213334,-0.2346667 0.330667,-0.5546667 0.117333,-0.3306667 0.117333,-0.7146667 0,-0.384 -0.117333,-0.704 Q 82.449358,4.943102 82.236024,4.719102 82.022691,4.4844353 81.713358,4.3564353 81.404024,4.2177686 81.020024,4.2177686 q -0.384,0 -0.693333,0.1386667 -0.309334,0.128 -0.522667,0.3626667 -0.213333,0.224 -0.330667,0.5546667 -0.117333,0.32 -0.117333,0.704 z m -1.024,0 q 0,-0.5546667 0.202667,-1.0346667 0.213333,-0.48 0.576,-0.8426667 0.362666,-0.3626667 0.853333,-0.5653333 0.490667,-0.2133334 1.056,-0.2133334 0.565334,0 1.056,0.2133334 0.490667,0.2026666 0.853334,0.5653333 0.362666,0.3626667 0.565333,0.8426667 0.213333,0.48 0.213333,1.0346667 0,0.5546667 -0.213333,1.0453334 -0.202667,0.48 -0.565333,0.8426667 -0.362667,0.352 -0.853334,0.5653333 -0.490666,0.2026667 -1.056,0.2026667 -0.565333,0 -1.056,-0.2026667 Q 79.473357,8.2177688 79.110691,7.8657688 78.748024,7.5031021 78.534691,7.0231021 78.332024,6.5324354 78.332024,5.9777687 Z"
         style="font-style:normal;font-variant:normal;font-weight:500;font-stretch:normal;font-size:10.66666698px;line-height:10.00000015%;font-family:Avenir;-inkscape-font-specification:'Avenir Medium';letter-spacing:-0.41999999px;fill:#777777;fill-opacity:1;stroke:none;stroke-opacity:1"
         id="path893" /><path
         d="m 84.490688,3.4497686 h 0.96 v 0.7786667 h 0.02133 q 0.096,-0.2026667 0.256,-0.3626667 0.16,-0.1706666 0.352,-0.288 0.202667,-0.1173333 0.437333,-0.1813333 0.234667,-0.074667 0.469334,-0.074667 0.234666,0 0.426666,0.064 l -0.04267,1.0346667 q -0.117334,-0.032 -0.234667,-0.053333 -0.117333,-0.021333 -0.234667,-0.021333 -0.704,0 -1.077333,0.3946666 -0.373333,0.3946667 -0.373333,1.2266667 v 2.5386668 h -0.96 z"
         style="font-style:normal;font-variant:normal;font-weight:500;font-stretch:normal;font-size:10.66666698px;line-height:10.00000015%;font-family:Avenir;-inkscape-font-specification:'Avenir Medium';letter-spacing:-0.41999999px;fill:#777777;fill-opacity:1;stroke:none;stroke-opacity:1"
         id="path895" /><path
         d="m 92.887356,8.5057688 h -0.96 V 7.7804354 h -0.02133 q -0.277334,0.4053334 -0.768,0.6293334 -0.48,0.224 -0.992,0.224 -0.586667,0 -1.066667,-0.2026667 -0.469333,-0.2026667 -0.810667,-0.5653333 -0.330666,-0.3626667 -0.512,-0.8426667 -0.181333,-0.48 -0.181333,-1.0453334 0,-0.5653333 0.181333,-1.0453334 0.181334,-0.4906666 0.512,-0.8426667 0.341334,-0.3626666 0.810667,-0.5653333 0.48,-0.2026667 1.066667,-0.2026667 0.544,0 1.024,0.2346667 0.48,0.224 0.736,0.6186667 h 0.02133 V 0.44176854 h 0.96 z m -2.624,-0.768 q 0.384,0 0.693333,-0.1280001 0.309334,-0.1386666 0.522667,-0.3626666 0.213333,-0.2346667 0.330667,-0.5546667 0.117333,-0.3306667 0.117333,-0.7146667 0,-0.384 -0.117333,-0.704 Q 91.692689,4.943102 91.479356,4.719102 91.266023,4.4844353 90.956689,4.3564353 90.647356,4.2177686 90.263356,4.2177686 q -0.384,0 -0.693333,0.1386667 -0.309334,0.128 -0.522667,0.3626667 -0.213333,0.224 -0.330667,0.5546667 -0.117333,0.32 -0.117333,0.704 0,0.384 0.117333,0.7146667 0.117334,0.32 0.330667,0.5546667 0.213333,0.224 0.522667,0.3626666 0.309333,0.1280001 0.693333,0.1280001 z"
         style="font-style:normal;font-variant:normal;font-weight:500;font-stretch:normal;font-size:10.66666698px;line-height:10.00000015%;font-family:Avenir;-inkscape-font-specification:'Avenir Medium';letter-spacing:-0.41999999px;fill:#777777;fill-opacity:1;stroke:none;stroke-opacity:1"
         id="path897" /><path
         d="m 94.646853,6.3297687 q 0,0.3306667 0.138666,0.608 0.149334,0.2666667 0.384,0.4586667 0.234667,0.192 0.544,0.2986667 0.309334,0.1066667 0.64,0.1066667 0.448001,0 0.778667,-0.2026667 0.330667,-0.2133334 0.608,-0.5546667 l 0.725334,0.5546667 q -0.8,1.0346667 -2.240001,1.0346667 -0.597333,0 -1.088,-0.2026667 -0.48,-0.2026667 -0.821333,-0.5546667 -0.330667,-0.3626667 -0.512,-0.8426667 -0.181333,-0.4906666 -0.181333,-1.056 0,-0.5653333 0.192,-1.0453334 0.202666,-0.4906666 0.544,-0.8426667 0.352,-0.3626666 0.832,-0.5653333 0.48,-0.2026667 1.045333,-0.2026667 0.672,0 1.130667,0.2346667 0.469333,0.2346667 0.768,0.6186667 0.298667,0.3733333 0.426667,0.8533333 0.138666,0.4693334 0.138666,0.9600001 v 0.3413333 z m 3.029333,-0.768 Q 97.66552,5.2417687 97.56952,4.975102 97.484186,4.7084353 97.302853,4.5164353 97.12152,4.3137687 96.844186,4.207102 96.577519,4.0897686 96.214853,4.0897686 q -0.352,0 -0.650667,0.1386667 -0.288,0.128 -0.490667,0.3413334 -0.202666,0.2133333 -0.32,0.48 -0.106666,0.256 -0.106666,0.512 z"
         style="font-style:normal;font-variant:normal;font-weight:500;font-stretch:normal;font-size:10.66666698px;line-height:10.00000015%;font-family:Avenir;-inkscape-font-specification:'Avenir Medium';letter-spacing:-0.41999999px;fill:#777777;fill-opacity:1;stroke:none;stroke-opacity:1"
         id="path899" /><path
         d="m 99.439021,3.4497686 h 0.959999 v 0.7786667 h 0.0213 q 0.096,-0.2026667 0.256,-0.3626667 0.16,-0.1706666 0.352,-0.288 0.20267,-0.1173333 0.43734,-0.1813333 0.23466,-0.074667 0.46933,-0.074667 0.23467,0 0.42667,0.064 l -0.0427,1.0346667 q -0.11733,-0.032 -0.23467,-0.053333 -0.11733,-0.021333 -0.23466,-0.021333 -0.704,0 -1.07734,0.3946666 -0.37333,0.3946667 -0.37333,1.2266667 v 2.5386668 h -0.959999 z"
         style="font-style:normal;font-variant:normal;font-weight:500;font-stretch:normal;font-size:10.66666698px;line-height:10.00000015%;font-family:Avenir;-inkscape-font-specification:'Avenir Medium';letter-spacing:-0.41999999px;fill:#777777;fill-opacity:1;stroke:none;stroke-opacity:1"
         id="path901" /><path
         d="m 103.49436,6.3297687 q 0,0.3306667 0.13866,0.608 0.14934,0.2666667 0.384,0.4586667 0.23467,0.192 0.544,0.2986667 0.30934,0.1066667 0.64,0.1066667 0.448,0 0.77867,-0.2026667 0.33067,-0.2133334 0.608,-0.5546667 l 0.72533,0.5546667 q -0.8,1.0346667 -2.24,1.0346667 -0.59733,0 -1.088,-0.2026667 -0.48,-0.2026667 -0.82133,-0.5546667 -0.33067,-0.3626667 -0.512,-0.8426667 -0.18133,-0.4906666 -0.18133,-1.056 0,-0.5653333 0.192,-1.0453334 0.20266,-0.4906666 0.544,-0.8426667 0.352,-0.3626666 0.832,-0.5653333 0.48,-0.2026667 1.04533,-0.2026667 0.672,0 1.13067,0.2346667 0.46933,0.2346667 0.768,0.6186667 0.29866,0.3733333 0.42666,0.8533333 0.13867,0.4693334 0.13867,0.9600001 v 0.3413333 z m 3.02933,-0.768 q -0.0107,-0.32 -0.10667,-0.5866667 -0.0853,-0.2666667 -0.26666,-0.4586667 -0.18134,-0.2026666 -0.45867,-0.3093333 -0.26667,-0.1173334 -0.62933,-0.1173334 -0.352,0 -0.65067,0.1386667 -0.288,0.128 -0.49067,0.3413334 -0.20266,0.2133333 -0.32,0.48 -0.10666,0.256 -0.10666,0.512 z"
         style="font-style:normal;font-variant:normal;font-weight:500;font-stretch:normal;font-size:10.66666698px;line-height:10.00000015%;font-family:Avenir;-inkscape-font-specification:'Avenir Medium';letter-spacing:-0.41999999px;fill:#777777;fill-opacity:1;stroke:none;stroke-opacity:1"
         id="path903" /><path
         d="m 113.35318,8.5057688 h -0.96 V 7.7804354 h -0.0213 q -0.27733,0.4053334 -0.768,0.6293334 -0.48,0.224 -0.992,0.224 -0.58667,0 -1.06667,-0.2026667 -0.46933,-0.2026667 -0.81066,-0.5653333 -0.33067,-0.3626667 -0.512,-0.8426667 -0.18134,-0.48 -0.18134,-1.0453334 0,-0.5653333 0.18134,-1.0453334 0.18133,-0.4906666 0.512,-0.8426667 0.34133,-0.3626666 0.81066,-0.5653333 0.48,-0.2026667 1.06667,-0.2026667 0.544,0 1.024,0.2346667 0.48,0.224 0.736,0.6186667 h 0.0213 V 0.44176854 h 0.96 z m -2.624,-0.768 q 0.384,0 0.69334,-0.1280001 0.30933,-0.1386666 0.52266,-0.3626666 0.21334,-0.2346667 0.33067,-0.5546667 0.11733,-0.3306667 0.11733,-0.7146667 0,-0.384 -0.11733,-0.704 -0.11733,-0.3306667 -0.33067,-0.5546667 -0.21333,-0.2346667 -0.52266,-0.3626667 -0.30934,-0.1386667 -0.69334,-0.1386667 -0.384,0 -0.69333,0.1386667 -0.30933,0.128 -0.52267,0.3626667 -0.21333,0.224 -0.33066,0.5546667 -0.11734,0.32 -0.11734,0.704 0,0.384 0.11734,0.7146667 0.11733,0.32 0.33066,0.5546667 0.21334,0.224 0.52267,0.3626666 0.30933,0.1280001 0.69333,0.1280001 z"
         style="font-style:normal;font-variant:normal;font-weight:500;font-stretch:normal;font-size:10.66666698px;line-height:10.00000015%;font-family:Avenir;-inkscape-font-specification:'Avenir Medium';letter-spacing:-0.41999999px;fill:#777777;fill-opacity:1;stroke:none;stroke-opacity:1"
         id="path905" /></g><g
       aria-label="Proteins"
       style="font-style:normal;font-variant:normal;font-weight:normal;font-stretch:normal;font-size:24px;line-height:125%;font-family:Calibri;-inkscape-font-specification:'Calibri, Normal';text-align:justify;letter-spacing:0px;word-spacing:0px;writing-mode:lr-tb;text-anchor:start;fill:#777777;fill-opacity:1;stroke:none;stroke-width:1px;stroke-linecap:butt;stroke-linejoin:miter;stroke-opacity:1"
       id="text878-5"><path
         d="m 14.108518,11.473404 h 2.656 q 0.725334,0 1.194667,0.202666 0.469334,0.192 0.736,0.501334 0.277334,0.298666 0.384,0.682666 0.106667,0.373334 0.106667,0.725334 0,0.352 -0.106667,0.736 -0.106666,0.373333 -0.384,0.682667 -0.266666,0.298666 -0.736,0.501333 -0.469333,0.192 -1.194667,0.192 h -1.632 v 3.328 h -1.024 z m 1.024,3.328 h 1.344 q 0.298667,0 0.586667,-0.04267 0.298667,-0.05333 0.522667,-0.181333 0.234667,-0.128 0.373333,-0.362667 0.138667,-0.245333 0.138667,-0.629333 0,-0.384 -0.138667,-0.618667 -0.138666,-0.245333 -0.373333,-0.373333 -0.224,-0.128 -0.522667,-0.170667 -0.288,-0.05333 -0.586667,-0.05333 h -1.344 z"
         style="font-style:normal;font-variant:normal;font-weight:500;font-stretch:normal;font-size:10.66666698px;line-height:10.00000015%;font-family:Avenir;-inkscape-font-specification:'Avenir Medium';letter-spacing:-0.57999998px;fill:#777777;fill-opacity:1;stroke:none;stroke-opacity:1"
         id="path908" /><path
         d="m 19.616519,13.969404 h 0.96 v 0.778667 h 0.02133 q 0.096,-0.202667 0.256,-0.362667 0.16,-0.170667 0.352,-0.288 0.202667,-0.117334 0.437333,-0.181334 0.234667,-0.07467 0.469334,-0.07467 0.234666,0 0.426666,0.064 l -0.04267,1.034667 q -0.117334,-0.032 -0.234667,-0.05333 -0.117333,-0.02133 -0.234667,-0.02133 -0.704,0 -1.077333,0.394667 -0.373333,0.394666 -0.373333,1.226666 v 2.538667 h -0.96 z"
         style="font-style:normal;font-variant:normal;font-weight:500;font-stretch:normal;font-size:10.66666698px;line-height:10.00000015%;font-family:Avenir;-inkscape-font-specification:'Avenir Medium';letter-spacing:-0.57999998px;fill:#777777;fill-opacity:1;stroke:none;stroke-opacity:1"
         id="path910" /><path
         d="m 23.565185,16.497404 q 0,0.384 0.117333,0.714667 0.117334,0.32 0.330667,0.554666 0.213333,0.224 0.522667,0.362667 0.309333,0.128 0.693333,0.128 0.384,0 0.693333,-0.128 0.309334,-0.138667 0.522667,-0.362667 0.213333,-0.234666 0.330667,-0.554666 0.117333,-0.330667 0.117333,-0.714667 0,-0.384 -0.117333,-0.704 -0.117334,-0.330667 -0.330667,-0.554667 -0.213333,-0.234666 -0.522667,-0.362666 -0.309333,-0.138667 -0.693333,-0.138667 -0.384,0 -0.693333,0.138667 -0.309334,0.128 -0.522667,0.362666 -0.213333,0.224 -0.330667,0.554667 -0.117333,0.32 -0.117333,0.704 z m -1.024,0 q 0,-0.554667 0.202667,-1.034667 0.213333,-0.48 0.576,-0.842666 0.362666,-0.362667 0.853333,-0.565334 0.490667,-0.213333 1.056,-0.213333 0.565333,0 1.056,0.213333 0.490667,0.202667 0.853333,0.565334 0.362667,0.362666 0.565334,0.842666 0.213333,0.48 0.213333,1.034667 0,0.554667 -0.213333,1.045333 -0.202667,0.48 -0.565334,0.842667 -0.362666,0.352 -0.853333,0.565333 -0.490667,0.202667 -1.056,0.202667 -0.565333,0 -1.056,-0.202667 -0.490667,-0.213333 -0.853333,-0.565333 -0.362667,-0.362667 -0.576,-0.842667 -0.202667,-0.490666 -0.202667,-1.045333 z"
         style="font-style:normal;font-variant:normal;font-weight:500;font-stretch:normal;font-size:10.66666698px;line-height:10.00000015%;font-family:Avenir;-inkscape-font-specification:'Avenir Medium';letter-spacing:-0.57999998px;fill:#777777;fill-opacity:1;stroke:none;stroke-opacity:1"
         id="path912" /><path
         d="m 31.249186,14.801404 h -1.376 v 2.293333 q 0,0.213334 0.01067,0.426667 0.01067,0.202667 0.07467,0.373333 0.07467,0.16 0.213333,0.266667 0.149334,0.096 0.426667,0.096 0.170667,0 0.352,-0.032 0.181333,-0.032 0.330667,-0.117333 v 0.874666 q -0.170667,0.096 -0.448,0.128 -0.266667,0.04267 -0.416,0.04267 -0.554667,0 -0.864,-0.149333 -0.298667,-0.16 -0.448,-0.405334 -0.138667,-0.245333 -0.170667,-0.544 -0.02133,-0.309333 -0.02133,-0.618666 v -2.634667 h -1.109334 v -0.832 h 1.109334 v -1.418667 h 0.96 v 1.418667 h 1.376 z"
         style="font-style:normal;font-variant:normal;font-weight:500;font-stretch:normal;font-size:10.66666698px;line-height:10.00000015%;font-family:Avenir;-inkscape-font-specification:'Avenir Medium';letter-spacing:-0.57999998px;fill:#777777;fill-opacity:1;stroke:none;stroke-opacity:1"
         id="path914" /><path
         d="m 32.622685,16.849404 q 0,0.330667 0.138666,0.608 0.149334,0.266667 0.384,0.458667 0.234667,0.192 0.544,0.298666 0.309334,0.106667 0.64,0.106667 0.448,0 0.778667,-0.202667 0.330667,-0.213333 0.608,-0.554666 l 0.725334,0.554666 q -0.8,1.034667 -2.240001,1.034667 -0.597333,0 -1.088,-0.202667 -0.48,-0.202666 -0.821333,-0.554666 -0.330667,-0.362667 -0.512,-0.842667 -0.181333,-0.490667 -0.181333,-1.056 0,-0.565333 0.192,-1.045333 0.202666,-0.490667 0.544,-0.842667 0.352,-0.362667 0.832,-0.565334 0.48,-0.202666 1.045333,-0.202666 0.672,0 1.130667,0.234666 0.469333,0.234667 0.768,0.618667 0.298667,0.373334 0.426667,0.853334 0.138666,0.469333 0.138666,0.96 v 0.341333 z m 3.029333,-0.768 q -0.01067,-0.32 -0.106666,-0.586667 -0.08533,-0.266666 -0.266667,-0.458666 -0.181333,-0.202667 -0.458667,-0.309334 -0.266667,-0.117333 -0.629333,-0.117333 -0.352,0 -0.650667,0.138667 -0.288,0.128 -0.490667,0.341333 -0.202666,0.213333 -0.32,0.48 -0.106666,0.256 -0.106666,0.512 z"
         style="font-style:normal;font-variant:normal;font-weight:500;font-stretch:normal;font-size:10.66666698px;line-height:10.00000015%;font-family:Avenir;-inkscape-font-specification:'Avenir Medium';letter-spacing:-0.57999998px;fill:#777777;fill-opacity:1;stroke:none;stroke-opacity:1"
         id="path916" /><path
         d="m 37.329518,13.969404 h 0.96 v 5.056 h -0.96 z m -0.224,-1.813334 q 0,-0.288 0.202667,-0.490666 0.213333,-0.213334 0.501333,-0.213334 0.288,0 0.490667,0.213334 0.213333,0.202666 0.213333,0.490666 0,0.288 -0.213333,0.501334 -0.202667,0.202666 -0.490667,0.202666 -0.288,0 -0.501333,-0.202666 -0.202667,-0.213334 -0.202667,-0.501334 z"
         style="font-style:normal;font-variant:normal;font-weight:500;font-stretch:normal;font-size:10.66666698px;line-height:10.00000015%;font-family:Avenir;-inkscape-font-specification:'Avenir Medium';letter-spacing:-0.57999998px;fill:#777777;fill-opacity:1;stroke:none;stroke-opacity:1"
         id="path918" /><path
         d="m 39.237352,13.969404 h 0.96 v 0.778667 h 0.02133 q 0.181333,-0.405334 0.629333,-0.650667 0.448,-0.256 1.034667,-0.256 0.362667,0 0.693333,0.117333 0.341334,0.106667 0.586667,0.341334 0.256,0.234666 0.405333,0.608 0.149334,0.362666 0.149334,0.864 v 3.253333 h -0.96 v -2.986667 q 0,-0.352 -0.096,-0.597333 -0.096,-0.256 -0.256,-0.405333 -0.16,-0.16 -0.373334,-0.224 -0.202666,-0.07467 -0.426666,-0.07467 -0.298667,0 -0.554667,0.096 -0.256,0.096 -0.448,0.309333 -0.192,0.202667 -0.298667,0.522667 -0.106666,0.32 -0.106666,0.757333 v 2.602667 h -0.96 z"
         style="font-style:normal;font-variant:normal;font-weight:500;font-stretch:normal;font-size:10.66666698px;line-height:10.00000015%;font-family:Avenir;-inkscape-font-specification:'Avenir Medium';letter-spacing:-0.57999998px;fill:#777777;fill-opacity:1;stroke:none;stroke-opacity:1"
         id="path920" /><path
         d="m 47.282852,15.238737 q -0.170667,-0.213333 -0.426667,-0.352 -0.245333,-0.149333 -0.608,-0.149333 -0.341333,0 -0.597333,0.149333 -0.245334,0.138667 -0.245334,0.416 0,0.224 0.138667,0.362667 0.149333,0.138667 0.341333,0.224 0.202667,0.08533 0.426667,0.128 0.224,0.04267 0.384,0.07467 0.309333,0.07467 0.576,0.181333 0.277333,0.106667 0.469333,0.277333 0.202667,0.170667 0.309334,0.416 0.117333,0.245334 0.117333,0.597334 0,0.426666 -0.181333,0.736 -0.181334,0.298666 -0.469334,0.490666 -0.288,0.192 -0.661333,0.277334 -0.362667,0.08533 -0.736,0.08533 -0.629333,0 -1.109333,-0.192 -0.469334,-0.192 -0.842667,-0.704 l 0.725333,-0.597333 q 0.234667,0.234666 0.522667,0.416 0.288,0.181333 0.704,0.181333 0.181333,0 0.362667,-0.032 0.192,-0.04267 0.330666,-0.117333 0.149334,-0.08533 0.234667,-0.202667 0.096,-0.128 0.096,-0.288 0,-0.213333 -0.138667,-0.352 -0.128,-0.138667 -0.32,-0.213333 -0.181333,-0.08533 -0.394666,-0.128 -0.202667,-0.05333 -0.362667,-0.08533 -0.309333,-0.07467 -0.586667,-0.170666 -0.277333,-0.096 -0.490666,-0.256 -0.213334,-0.16 -0.341334,-0.405334 -0.128,-0.245333 -0.128,-0.608 0,-0.394666 0.16,-0.682666 0.170667,-0.298667 0.437334,-0.490667 0.277333,-0.192 0.618666,-0.288 0.352,-0.096 0.704,-0.096 0.512,0 0.981334,0.192 0.469333,0.192 0.746666,0.64 z"
         style="font-style:normal;font-variant:normal;font-weight:500;font-stretch:normal;font-size:10.66666698px;line-height:10.00000015%;font-family:Avenir;-inkscape-font-specification:'Avenir Medium';letter-spacing:-0.57999998px;fill:#777777;fill-opacity:1;stroke:none;stroke-opacity:1"
         id="path922" /></g></g></svg>