<?xml version="1.0" encoding="UTF-8" standalone="no"?>
<!-- Generator: Adobe Illustrator 17.1.0, SVG Export Plug-In . SVG Version: 6.00 Build 0)  -->

<svg
   xmlns:dc="http://purl.org/dc/elements/1.1/"
   xmlns:cc="http://creativecommons.org/ns#"
   xmlns:rdf="http://www.w3.org/1999/02/22-rdf-syntax-ns#"
   xmlns:svg="http://www.w3.org/2000/svg"
   xmlns="http://www.w3.org/2000/svg"
   xmlns:sodipodi="http://sodipodi.sourceforge.net/DTD/sodipodi-0.dtd"
   xmlns:inkscape="http://www.inkscape.org/namespaces/inkscape"
   version="1.1"
   id="Layer_1"
   x="0px"
   y="0px"
   width="49.389168"
   height="19.533894"
   viewBox="0 0 49.389168 19.533894"
   enable-background="new 0 0 240 40"
   xml:space="preserve"
   sodipodi:docname="rp-icon-binding-menu-outline.svg"
   inkscape:version="0.92.2 5c3e80d, 2017-08-06"><metadata
     id="metadata350"><rdf:RDF><cc:Work
         rdf:about=""><dc:format>image/svg+xml</dc:format><dc:type
           rdf:resource="http://purl.org/dc/dcmitype/StillImage" /><dc:title></dc:title></cc:Work></rdf:RDF></metadata><defs
     id="defs348" /><sodipodi:namedview
     pagecolor="#ffffff"
     bordercolor="#666666"
     borderopacity="1"
     objecttolerance="10"
     gridtolerance="10"
     guidetolerance="10"
     inkscape:pageopacity="0"
     inkscape:pageshadow="2"
     inkscape:window-width="1920"
     inkscape:window-height="1156"
     id="namedview346"
     showgrid="false"
     fit-margin-top="0"
     fit-margin-left="0"
     fit-margin-right="0"
     fit-margin-bottom="0"
     inkscape:zoom="12.792484"
     inkscape:cx="34.757074"
     inkscape:cy="10.544576"
     inkscape:window-x="62"
     inkscape:window-y="28"
     inkscape:window-maximized="0"
     inkscape:current-layer="g3302"
     inkscape:pagecheckerboard="true" /><g
     id="g3302"
     transform="translate(-0.96025427,-2.6705564)"><path
       id="path179"
       d="M 13.241828,19.988323"
       stroke-miterlimit="10"
       inkscape:connector-curvature="0"
       style="fill:none;stroke:#03f3f9;stroke-width:0.98938167;stroke-miterlimit:10;stroke-opacity:1" /><path
       style="fill:none;stroke:#03f3f9;stroke-width:0.74518532;stroke-miterlimit:10;stroke-opacity:1"
       d="m 1.1495405,13.094594 h 3.5562758 l 2.5222225,4.368623 -2.5222225,4.368641 H 1.1495405"
       id="polyline181" /><path
       style="fill:none;stroke:#03f3f9;stroke-width:0.74518532;stroke-miterlimit:10;stroke-opacity:1"
       d="M 12.50723,7.8368979 H 8.9509535 L 6.4287314,12.205522 8.9509535,16.574161 H 12.50723"
       id="polyline183" /><g
       id="g205"
       style="stroke:#03f3f9;stroke-opacity:1"><g
         id="g203"
         style="stroke:#03f3f9;stroke-opacity:1"><path
           style="fill:none;stroke:#03f3f9;stroke-linecap:round;stroke-miterlimit:10;stroke-opacity:1"
           d="m 1.4673755,3.1706064 v 0"
           id="line185" /><path
           style="fill:none;stroke:#03f3f9;stroke-linecap:round;stroke-miterlimit:10;stroke-dasharray:0, 1.6851619;stroke-opacity:1"
           d="M 3.1525376,3.1706064 H 3.9951184"
           id="line187" /><path
           style="fill:none;stroke:#03f3f9;stroke-linecap:round;stroke-miterlimit:10;stroke-opacity:1"
           d="m 4.8376994,3.1706064 v 0"
           id="line189" /><path
           style="fill:none;stroke:#03f3f9;stroke-linecap:round;stroke-miterlimit:10;stroke-dasharray:0, 1.5935614;stroke-opacity:1"
           d="M 5.6344795,4.5506716 6.829649,6.620769"
           id="line191" /><path
           style="fill:none;stroke:#03f3f9;stroke-linecap:round;stroke-miterlimit:10;stroke-opacity:1"
           d="m 7.2280388,7.3108015 v 0"
           id="line193" /><path
           style="fill:none;stroke:#03f3f9;stroke-linecap:round;stroke-miterlimit:10;stroke-dasharray:0, 1.5935658;stroke-opacity:1"
           d="m 6.4312592,8.6908722 -1.19517,2.0701058"
           id="line195" /><path
           style="fill:none;stroke:#03f3f9;stroke-linecap:round;stroke-miterlimit:10;stroke-opacity:1"
           d="m 4.8376994,11.451013 v 0"
           id="line197" /><path
           style="fill:none;stroke:#03f3f9;stroke-linecap:round;stroke-miterlimit:10;stroke-dasharray:0, 1.6851619;stroke-opacity:1"
           d="M 3.1525376,11.451013 H 2.3099566"
           id="line199" /><path
           style="fill:none;stroke:#03f3f9;stroke-linecap:round;stroke-miterlimit:10;stroke-opacity:1"
           d="m 1.4673755,11.451013 v 0"
           id="line201" /></g></g><path
       id="path207"
       d="M 2.7575917,12.770997"
       stroke-miterlimit="10"
       inkscape:connector-curvature="0"
       style="fill:none;stroke:#03f3f9;stroke-width:0.50046808;stroke-miterlimit:10;stroke-opacity:1" /><g
       id="g239"><g
         aria-label="Binding"
         style="font-style:normal;font-variant:normal;font-weight:normal;font-stretch:normal;font-size:17.25025558px;line-height:125%;font-family:Calibri;-inkscape-font-specification:'Calibri, Normal';text-align:justify;letter-spacing:0px;word-spacing:0px;writing-mode:lr-tb;text-anchor:start;fill:#777777;fill-opacity:1;stroke:none;stroke-width:0.71876061px;stroke-linecap:butt;stroke-linejoin:miter;stroke-opacity:1"
         id="text4551"><path
           d="m 15.278088,8.5273111 h 2.624 q 0.490667,0 0.906667,0.1173334 0.426667,0.1173333 0.725334,0.352 0.309333,0.224 0.48,0.5866667 0.181333,0.352 0.181333,0.8319998 0,0.650667 -0.362667,1.066667 -0.362666,0.405333 -0.938667,0.597333 v 0.02133 q 0.341334,0.02133 0.640001,0.181333 0.298666,0.149333 0.512,0.405333 0.224,0.245334 0.352,0.576 0.128,0.330667 0.128,0.714667 0,0.512 -0.213334,0.906667 -0.202666,0.384 -0.565333,0.650666 -0.362667,0.266667 -0.842667,0.405334 -0.48,0.138666 -1.034667,0.138666 h -2.592 z m 1.024,3.1359999 h 1.397334 q 0.288,0 0.544,-0.05333 0.256,-0.064 0.448,-0.202667 0.192,-0.138666 0.298666,-0.352 0.117334,-0.213333 0.117334,-0.522666 0,-0.448 -0.288,-0.7786672 -0.288,-0.3306666 -0.906667,-0.3306666 h -1.610667 z m 0,3.52 h 1.504 q 0.234667,0 0.512,-0.04267 0.288,-0.05333 0.533334,-0.192 0.245333,-0.149334 0.416,-0.394667 0.170667,-0.245333 0.170667,-0.650667 0,-0.672 -0.437334,-1.002666 -0.437333,-0.341334 -1.184,-0.341334 h -1.514667 z"
           style="font-style:normal;font-variant:normal;font-weight:500;font-stretch:normal;font-size:10.66666698px;font-family:Avenir;-inkscape-font-specification:'Avenir, Medium';font-variant-ligatures:normal;font-variant-caps:normal;font-variant-numeric:normal;font-feature-settings:normal;text-align:justify;writing-mode:lr-tb;text-anchor:start;fill:#777777;fill-opacity:1;stroke-width:0.71876061px"
           id="path858" /><path
           d="m 21.836589,11.023311 h 0.96 v 5.056 h -0.96 z m -0.224,-1.8133332 q 0,-0.288 0.202666,-0.4906666 0.213334,-0.2133334 0.501334,-0.2133334 0.288,0 0.490666,0.2133334 0.213334,0.2026666 0.213334,0.4906666 0,0.288 -0.213334,0.5013334 -0.202666,0.2026667 -0.490666,0.2026667 -0.288,0 -0.501334,-0.2026667 -0.202666,-0.2133334 -0.202666,-0.5013334 z"
           style="font-style:normal;font-variant:normal;font-weight:500;font-stretch:normal;font-size:10.66666698px;font-family:Avenir;-inkscape-font-specification:'Avenir, Medium';font-variant-ligatures:normal;font-variant-caps:normal;font-variant-numeric:normal;font-feature-settings:normal;text-align:justify;writing-mode:lr-tb;text-anchor:start;fill:#777777;fill-opacity:1;stroke-width:0.71876061px"
           id="path860" /><path
           d="m 24.324422,11.023311 h 0.96 v 0.778667 h 0.02133 q 0.181334,-0.405333 0.629334,-0.650667 0.448,-0.256 1.034666,-0.256 0.362667,0 0.693334,0.117334 0.341333,0.106666 0.586666,0.341333 0.256,0.234667 0.405334,0.608 0.149333,0.362667 0.149333,0.864 v 3.253333 h -0.96 v -2.986666 q 0,-0.352 -0.096,-0.597334 -0.096,-0.256 -0.256,-0.405333 -0.16,-0.16 -0.373333,-0.224 -0.202667,-0.07467 -0.426667,-0.07467 -0.298667,0 -0.554667,0.096 -0.256,0.096 -0.448,0.309334 -0.192,0.202666 -0.298666,0.522666 -0.106667,0.32 -0.106667,0.757334 v 2.602666 h -0.96 z"
           style="font-style:normal;font-variant:normal;font-weight:500;font-stretch:normal;font-size:10.66666698px;font-family:Avenir;-inkscape-font-specification:'Avenir, Medium';font-variant-ligatures:normal;font-variant-caps:normal;font-variant-numeric:normal;font-feature-settings:normal;text-align:justify;writing-mode:lr-tb;text-anchor:start;fill:#777777;fill-opacity:1;stroke-width:0.71876061px"
           id="path862" /><path
           d="m 35.328589,16.079311 h -0.96 v -0.725333 h -0.02133 q -0.277333,0.405333 -0.768,0.629333 -0.48,0.224 -0.992,0.224 -0.586666,0 -1.066666,-0.202666 -0.469334,-0.202667 -0.810667,-0.565334 -0.330667,-0.362666 -0.512,-0.842666 -0.181333,-0.48 -0.181333,-1.045334 0,-0.565333 0.181333,-1.045333 0.181333,-0.490667 0.512,-0.842667 0.341333,-0.362666 0.810667,-0.565333 0.48,-0.202667 1.066666,-0.202667 0.544,0 1.024,0.234667 0.48,0.224 0.736,0.618667 h 0.02133 V 8.0153111 h 0.96 z m -2.624,-0.768 q 0.384,0 0.693333,-0.128 0.309333,-0.138666 0.522667,-0.362666 0.213333,-0.234667 0.330666,-0.554667 0.117334,-0.330667 0.117334,-0.714667 0,-0.384 -0.117334,-0.704 -0.117333,-0.330666 -0.330666,-0.554666 -0.213334,-0.234667 -0.522667,-0.362667 -0.309333,-0.138667 -0.693333,-0.138667 -0.384,0 -0.693334,0.138667 -0.309333,0.128 -0.522666,0.362667 -0.213334,0.224 -0.330667,0.554666 -0.117333,0.32 -0.117333,0.704 0,0.384 0.117333,0.714667 0.117333,0.32 0.330667,0.554667 0.213333,0.224 0.522666,0.362666 0.309334,0.128 0.693334,0.128 z"
           style="font-style:normal;font-variant:normal;font-weight:500;font-stretch:normal;font-size:10.66666698px;font-family:Avenir;-inkscape-font-specification:'Avenir, Medium';font-variant-ligatures:normal;font-variant-caps:normal;font-variant-numeric:normal;font-feature-settings:normal;text-align:justify;writing-mode:lr-tb;text-anchor:start;fill:#777777;fill-opacity:1;stroke-width:0.71876061px"
           id="path864" /><path
           d="m 36.857422,11.023311 h 0.96 v 5.056 h -0.96 z m -0.224,-1.8133332 q 0,-0.288 0.202666,-0.4906666 0.213334,-0.2133334 0.501334,-0.2133334 0.288,0 0.490666,0.2133334 0.213334,0.2026666 0.213334,0.4906666 0,0.288 -0.213334,0.5013334 -0.202666,0.2026667 -0.490666,0.2026667 -0.288,0 -0.501334,-0.2026667 -0.202666,-0.2133334 -0.202666,-0.5013334 z"
           style="font-style:normal;font-variant:normal;font-weight:500;font-stretch:normal;font-size:10.66666698px;font-family:Avenir;-inkscape-font-specification:'Avenir, Medium';font-variant-ligatures:normal;font-variant-caps:normal;font-variant-numeric:normal;font-feature-settings:normal;text-align:justify;writing-mode:lr-tb;text-anchor:start;fill:#777777;fill-opacity:1;stroke-width:0.71876061px"
           id="path866" /><path
           d="m 39.345255,11.023311 h 0.96 v 0.778667 h 0.02133 q 0.181334,-0.405333 0.629334,-0.650667 0.448,-0.256 1.034666,-0.256 0.362667,0 0.693334,0.117334 0.341333,0.106666 0.586666,0.341333 0.256,0.234667 0.405334,0.608 0.149333,0.362667 0.149333,0.864 v 3.253333 h -0.96 v -2.986666 q 0,-0.352 -0.096,-0.597334 -0.096,-0.256 -0.256,-0.405333 -0.16,-0.16 -0.373333,-0.224 -0.202667,-0.07467 -0.426667,-0.07467 -0.298667,0 -0.554667,0.096 -0.256,0.096 -0.448,0.309334 -0.192,0.202666 -0.298666,0.522666 -0.106667,0.32 -0.106667,0.757334 v 2.602666 h -0.96 z"
           style="font-style:normal;font-variant:normal;font-weight:500;font-stretch:normal;font-size:10.66666698px;font-family:Avenir;-inkscape-font-specification:'Avenir, Medium';font-variant-ligatures:normal;font-variant-caps:normal;font-variant-numeric:normal;font-feature-settings:normal;text-align:justify;writing-mode:lr-tb;text-anchor:start;fill:#777777;fill-opacity:1;stroke-width:0.71876061px"
           id="path868" /><path
           d="m 50.349422,16.036645 q 0,0.576 -0.202667,1.045333 -0.192,0.48 -0.554666,0.821333 -0.362667,0.352 -0.874667,0.544 -0.512,0.192 -1.130667,0.192 -0.725333,0 -1.333333,-0.202666 -0.597334,-0.202667 -1.141334,-0.704 l 0.650667,-0.810667 q 0.373333,0.405333 0.810667,0.608 0.437333,0.213333 0.992,0.213333 0.533333,0 0.885333,-0.16 0.352,-0.149333 0.554667,-0.394666 0.213333,-0.245334 0.298666,-0.565334 0.08533,-0.309333 0.08533,-0.629333 v -0.746667 h -0.032 q -0.277334,0.458667 -0.757334,0.682667 -0.469333,0.213333 -0.992,0.213333 -0.554666,0 -1.034666,-0.192 -0.469334,-0.202666 -0.810667,-0.544 -0.341333,-0.352 -0.533333,-0.821333 -0.192,-0.48 -0.192,-1.034667 0,-0.554666 0.181333,-1.034666 0.181333,-0.490667 0.512,-0.853334 0.341333,-0.362666 0.810667,-0.565333 0.48,-0.202667 1.066666,-0.202667 0.512,0 0.992,0.224 0.490667,0.224 0.768,0.629334 h 0.02133 v -0.725334 h 0.96 z m -2.624,-4.245334 q -0.384,0 -0.693334,0.138667 -0.309333,0.128 -0.522666,0.362667 -0.213334,0.224 -0.330667,0.554666 -0.117333,0.32 -0.117333,0.704 0,0.768 0.448,1.237334 0.448,0.458666 1.216,0.458666 0.768,0 1.216,-0.458666 0.448,-0.469334 0.448,-1.237334 0,-0.384 -0.117334,-0.704 -0.117333,-0.330666 -0.330666,-0.554666 -0.213334,-0.234667 -0.522667,-0.362667 -0.309333,-0.138667 -0.693333,-0.138667 z"
           style="font-style:normal;font-variant:normal;font-weight:500;font-stretch:normal;font-size:10.66666698px;font-family:Avenir;-inkscape-font-specification:'Avenir, Medium';font-variant-ligatures:normal;font-variant-caps:normal;font-variant-numeric:normal;font-feature-settings:normal;text-align:justify;writing-mode:lr-tb;text-anchor:start;fill:#777777;fill-opacity:1;stroke-width:0.71876061px"
           id="path870" /></g></g><path
       style="fill:#03f3f9;fill-opacity:1"
       d="m 12.044179,12.112974 a 1.1422229,1.1422229 0 0 1 -1.142222,1.142223 1.1422229,1.1422229 0 0 1 -1.1422233,-1.142223 1.1422229,1.1422229 0 0 1 1.1422233,-1.142223 1.1422229,1.1422229 0 0 1 1.142222,1.142223 z"
       id="circle241" /><path
       id="path243"
       d="M 2.2592747,14.154531"
       stroke-miterlimit="10"
       inkscape:connector-curvature="0"
       style="fill:none;stroke:#03f3f9;stroke-width:0.57337219;stroke-miterlimit:10;stroke-opacity:1" /><g
       id="g315" /><g
       id="g317" /><g
       id="g319" /><g
       id="g321" /><g
       id="g323" /><g
       id="g325" /><g
       id="g327" /><g
       id="g329" /><g
       id="g331" /><g
       id="g333" /><g
       id="g335" /><g
       id="g337" /><g
       id="g339" /><g
       id="g341" /><g
       id="g343" /></g></svg>