<?xml version="1.0" encoding="UTF-8" standalone="no"?>
<!-- Generator: Adobe Illustrator 17.1.0, SVG Export Plug-In . SVG Version: 6.00 Build 0)  -->

<svg
   xmlns:dc="http://purl.org/dc/elements/1.1/"
   xmlns:cc="http://creativecommons.org/ns#"
   xmlns:rdf="http://www.w3.org/1999/02/22-rdf-syntax-ns#"
   xmlns:svg="http://www.w3.org/2000/svg"
   xmlns="http://www.w3.org/2000/svg"
   xmlns:sodipodi="http://sodipodi.sourceforge.net/DTD/sodipodi-0.dtd"
   xmlns:inkscape="http://www.inkscape.org/namespaces/inkscape"
   version="1.1"
   id="Layer_1"
   x="0px"
   y="0px"
   width="149.25179"
   height="12.400001"
   viewBox="0 0 149.2518 12.399999"
   enable-background="new 0 0 240 40"
   xml:space="preserve"
   sodipodi:docname="sw-icon-rdc-menu.svg"
   inkscape:version="0.92.2 5c3e80d, 2017-08-06"><metadata
     id="metadata362"><rdf:RDF><cc:Work
         rdf:about=""><dc:format>image/svg+xml</dc:format><dc:type
           rdf:resource="http://purl.org/dc/dcmitype/StillImage" /><dc:title></dc:title></cc:Work></rdf:RDF></metadata><defs
     id="defs360" /><sodipodi:namedview
     pagecolor="#ffffff"
     bordercolor="#666666"
     borderopacity="1"
     objecttolerance="10"
     gridtolerance="10"
     guidetolerance="10"
     inkscape:pageopacity="0"
     inkscape:pageshadow="2"
     inkscape:window-width="1920"
     inkscape:window-height="1156"
     id="namedview358"
     showgrid="false"
     fit-margin-top="0"
     fit-margin-left="0"
     fit-margin-right="0"
     fit-margin-bottom="0"
     inkscape:zoom="7.979804"
     inkscape:cx="51.442366"
     inkscape:cy="6.2442318"
     inkscape:window-x="4"
     inkscape:window-y="49"
     inkscape:window-maximized="0"
     inkscape:current-layer="g8621"
     inkscape:pagecheckerboard="true" /><g
     id="g8621"
     transform="translate(-7.4112305,-3.1804496)"><path
       transform="scale(1,-1)"
       style="opacity:0.86000001;fill:none;fill-opacity:1;stroke:#010000;stroke-width:0;stroke-linecap:round;stroke-linejoin:miter;stroke-miterlimit:4;stroke-dasharray:none;stroke-dashoffset:86.40000153;stroke-opacity:1"
       d="M 7.411232,-15.58045 H 19.40023 V -3.1804504 H 7.411232 Z"
       id="rect827" /><g
       id="g917"
       transform="translate(0,-0.04423049)"><g
         aria-label="Residual Dipolar Coupling"
         style="font-style:normal;font-variant:normal;font-weight:normal;font-stretch:normal;font-size:26.68686295px;line-height:125%;font-family:Calibri;-inkscape-font-specification:'Calibri, Normal';text-align:justify;letter-spacing:0px;word-spacing:0px;writing-mode:lr-tb;text-anchor:start;fill:#ff9933;fill-opacity:1;stroke:none;stroke-width:1.11195266px;stroke-linecap:butt;stroke-linejoin:miter;stroke-opacity:1"
         id="text862"><path
           d="m 21.689052,3.7939998 h 2.953346 q 0.806536,0 1.328413,0.2253558 0.521876,0.2134949 0.818397,0.5574589 0.308382,0.3321032 0.42699,0.759093 0.118608,0.415129 0.118608,0.8065363 0,0.4032682 -0.14233,0.7828147 -0.14233,0.3676857 -0.415129,0.6760672 -0.260938,0.2965208 -0.652345,0.5100157 -0.379547,0.201634 -0.85398,0.2490774 l 2.384026,3.8310472 H 26.231749 L 24.0968,8.4908879 h -1.269109 v 3.7005781 h -1.138639 z m 1.138639,3.7005785 h 1.494465 q 0.332103,0 0.652345,-0.047443 0.332103,-0.059304 0.581181,-0.2016341 0.260938,-0.14233 0.415129,-0.4032682 0.154191,-0.272799 0.154191,-0.6997889 0,-0.4269898 -0.154191,-0.687928 Q 25.81662,5.1817167 25.555682,5.0393868 25.306604,4.8970569 24.974501,4.8496136 24.654259,4.7903094 24.322156,4.7903094 h -1.494465 z"
           style="font-style:normal;font-variant:normal;font-weight:500;font-stretch:normal;font-size:11.8608284px;font-family:Avenir;-inkscape-font-specification:'Avenir Medium';letter-spacing:-0.11px;fill:#ff9933;fill-opacity:1;stroke-width:1.11195266px"
           id="path830" /><path
           d="m 29.363647,9.7718573 q 0,0.3676857 0.154191,0.6760677 0.166051,0.29652 0.426989,0.510015 0.260939,0.213495 0.604903,0.332103 0.343964,0.118609 0.711649,0.118609 0.498155,0 0.865841,-0.225356 0.367685,-0.237217 0.676067,-0.616763 l 0.806536,0.616763 q -0.889562,1.1505 -2.490774,1.1505 -0.664206,0 -1.209804,-0.225355 -0.533737,-0.225356 -0.913284,-0.616764 -0.367686,-0.403268 -0.56932,-0.937005 -0.201634,-0.545598 -0.201634,-1.174222 0,-0.6286239 0.213495,-1.1623612 0.225356,-0.5455981 0.604902,-0.9370054 0.391408,-0.4032682 0.925145,-0.6286239 0.533737,-0.2253558 1.162361,-0.2253558 0.747232,0 1.257248,0.2609383 0.521876,0.2609382 0.85398,0.687928 0.332103,0.415129 0.474433,0.9488663 0.154191,0.5218764 0.154191,1.0674745 V 9.7718573 Z M 32.732122,8.9178777 Q 32.720261,8.5620528 32.613514,8.2655321 32.518627,7.9690114 32.316993,7.7555165 32.115359,7.5301608 31.806977,7.4115525 31.510457,7.2810834 31.107189,7.2810834 q -0.391408,0 -0.723511,0.1541907 -0.320242,0.14233 -0.545598,0.3795466 -0.225356,0.2372165 -0.355825,0.5337372 -0.118608,0.2846599 -0.118608,0.5693198 z"
           style="font-style:normal;font-variant:normal;font-weight:500;font-stretch:normal;font-size:11.8608284px;font-family:Avenir;-inkscape-font-specification:'Avenir Medium';letter-spacing:-0.11px;fill:#ff9933;fill-opacity:1;stroke-width:1.11195266px"
           id="path832" /><path
           d="M 38.038258,7.9808722 Q 37.848485,7.7436557 37.563825,7.5894649 37.291026,7.4234133 36.887758,7.4234133 q -0.379547,0 -0.664207,0.1660516 -0.272799,0.1541908 -0.272799,0.4625723 0,0.2490774 0.154191,0.4032682 0.166052,0.1541908 0.379547,0.2490774 0.225355,0.094887 0.474433,0.1423299 0.249077,0.047443 0.42699,0.083026 0.343964,0.083026 0.640484,0.2016341 0.308382,0.1186083 0.521877,0.3083815 0.225356,0.1897733 0.343964,0.4625724 0.130469,0.2727995 0.130469,0.6642065 0,0.474433 -0.201634,0.818397 -0.201634,0.332103 -0.521877,0.545598 -0.320242,0.213495 -0.735371,0.308382 -0.403268,0.09489 -0.818397,0.09489 -0.699789,0 -1.233526,-0.213495 -0.521877,-0.213495 -0.937006,-0.782814 l 0.806537,-0.664207 q 0.260938,0.260939 0.58118,0.462573 0.320243,0.201634 0.782815,0.201634 0.201634,0 0.403268,-0.03558 0.213495,-0.04744 0.367686,-0.130469 0.166051,-0.09489 0.260938,-0.225356 0.106747,-0.14233 0.106747,-0.320242 0,-0.237217 -0.15419,-0.391407 -0.14233,-0.154191 -0.355825,-0.2372169 -0.201634,-0.094887 -0.438851,-0.14233 Q 36.709845,9.795579 36.531933,9.7599965 36.187969,9.6769707 35.879587,9.5702233 35.571206,9.4634758 35.333989,9.2855634 35.096773,9.1076509 34.954443,8.8348519 q -0.14233,-0.2727991 -0.14233,-0.6760672 0,-0.4388507 0.177912,-0.759093 0.189774,-0.3321032 0.486294,-0.5455981 0.308382,-0.213495 0.687928,-0.3202424 0.391408,-0.1067475 0.782815,-0.1067475 0.56932,0 1.091196,0.2134949 0.521877,0.213495 0.830258,0.7116497 z"
           style="font-style:normal;font-variant:normal;font-weight:500;font-stretch:normal;font-size:11.8608284px;font-family:Avenir;-inkscape-font-specification:'Avenir Medium';letter-spacing:-0.11px;fill:#ff9933;fill-opacity:1;stroke-width:1.11195266px"
           id="path834" /><path
           d="M 40.280965,6.5694337 H 41.34844 V 12.191466 H 40.280965 Z M 40.031888,4.5530928 q 0,-0.3202423 0.225356,-0.5455981 0.237216,-0.2372165 0.557459,-0.2372165 0.320242,0 0.545598,0.2372165 0.237216,0.2253558 0.237216,0.5455981 0,0.3202424 -0.237216,0.557459 -0.225356,0.2253557 -0.545598,0.2253557 -0.320243,0 -0.557459,-0.2253557 -0.225356,-0.2372166 -0.225356,-0.557459 z"
           style="font-style:normal;font-variant:normal;font-weight:500;font-stretch:normal;font-size:11.8608284px;font-family:Avenir;-inkscape-font-specification:'Avenir Medium';letter-spacing:-0.11px;fill:#ff9933;fill-opacity:1;stroke-width:1.11195266px"
           id="path836" /><path
           d="M 48.571211,12.191466 H 47.503736 V 11.38493 h -0.02372 q -0.308382,0.450711 -0.85398,0.699789 -0.533737,0.249077 -1.103057,0.249077 -0.652345,0 -1.186083,-0.225355 -0.521876,-0.225356 -0.901423,-0.628624 -0.367685,-0.403269 -0.569319,-0.937006 -0.201635,-0.533737 -0.201635,-1.162361 0,-0.6286239 0.201635,-1.1623612 0.201634,-0.5455981 0.569319,-0.9370054 0.379547,-0.4032682 0.901423,-0.6286239 0.533738,-0.2253558 1.186083,-0.2253558 0.604902,0 1.13864,0.2609383 0.533737,0.2490774 0.818397,0.687928 h 0.02372 V 3.2246801 h 1.067475 z m -2.917764,-0.853979 q 0.42699,0 0.770954,-0.14233 0.343964,-0.154191 0.581181,-0.403268 0.237216,-0.260939 0.367685,-0.616763 0.130469,-0.3676862 0.130469,-0.794676 0,-0.4269898 -0.130469,-0.7828147 Q 47.242798,8.2299496 47.005582,7.9808722 46.768365,7.719934 46.424401,7.5776041 46.080437,7.4234133 45.653447,7.4234133 q -0.42699,0 -0.770954,0.1541908 -0.343964,0.1423299 -0.58118,0.4032681 -0.237217,0.2490774 -0.367686,0.6167631 -0.130469,0.3558249 -0.130469,0.7828147 0,0.4269898 0.130469,0.794676 0.130469,0.355824 0.367686,0.616763 0.237216,0.249077 0.58118,0.403268 0.343964,0.14233 0.770954,0.14233 z"
           style="font-style:normal;font-variant:normal;font-weight:500;font-stretch:normal;font-size:11.8608284px;font-family:Avenir;-inkscape-font-specification:'Avenir Medium';letter-spacing:-0.11px;fill:#ff9933;fill-opacity:1;stroke-width:1.11195266px"
           id="path838" /><path
           d="m 55.059723,12.191466 h -1.067474 v -0.86584 h -0.02372 q -0.201634,0.450711 -0.699789,0.735371 -0.498155,0.272799 -1.1505,0.272799 -0.415129,0 -0.782815,-0.130469 -0.367686,-0.118608 -0.652346,-0.379546 -0.272799,-0.260939 -0.43885,-0.664207 -0.166052,-0.415129 -0.166052,-0.972588 V 6.5694337 h 1.067475 v 3.3210319 q 0,0.3914074 0.106747,0.6760674 0.106748,0.272799 0.28466,0.450711 0.177913,0.166052 0.403268,0.249078 0.237217,0.07116 0.486294,0.07116 0.332103,0 0.616763,-0.106748 0.28466,-0.106747 0.498155,-0.332103 0.213495,-0.237217 0.332103,-0.593041 0.118609,-0.3558252 0.118609,-0.8421192 V 6.5694337 h 1.067474 z"
           style="font-style:normal;font-variant:normal;font-weight:500;font-stretch:normal;font-size:11.8608284px;font-family:Avenir;-inkscape-font-specification:'Avenir Medium';letter-spacing:-0.11px;fill:#ff9933;fill-opacity:1;stroke-width:1.11195266px"
           id="path840" /><path
           d="m 56.594115,7.2573617 q 0.450711,-0.415129 1.043753,-0.6167631 0.593041,-0.2134949 1.186083,-0.2134949 0.616763,0 1.055613,0.1541908 0.450712,0.1541908 0.735372,0.415129 0.28466,0.2609382 0.415129,0.6049022 0.14233,0.3321032 0.14233,0.6997889 v 2.8703204 q 0,0.296521 0.01186,0.545598 0.01186,0.249078 0.03558,0.474433 h -0.948866 q -0.03558,-0.426989 -0.03558,-0.853979 h -0.02372 q -0.355825,0.545598 -0.842119,0.770954 -0.486294,0.225355 -1.126779,0.225355 -0.391407,0 -0.747232,-0.106747 -0.355825,-0.106748 -0.628624,-0.320243 -0.260938,-0.213494 -0.415129,-0.521876 -0.154191,-0.320242 -0.154191,-0.735371 0,-0.545598 0.237217,-0.9132841 0.249077,-0.3676857 0.664206,-0.5930415 0.42699,-0.2372165 0.984449,-0.3321032 0.56932,-0.1067474 1.209804,-0.1067474 h 0.782815 V 8.4671662 q 0,-0.2134949 -0.08303,-0.4269898 Q 60.010033,7.8266815 59.843982,7.6606299 59.67793,7.4827175 59.428853,7.3878308 59.179775,7.2810834 58.835811,7.2810834 q -0.308381,0 -0.545598,0.059304 -0.225355,0.059304 -0.415129,0.1541908 -0.189773,0.083026 -0.343964,0.2016341 -0.15419,0.1186083 -0.29652,0.2253557 z m 3.01265,2.2298358 q -0.379546,0 -0.782814,0.047443 -0.391408,0.035583 -0.723511,0.1541907 -0.320242,0.1186083 -0.533737,0.3321035 -0.201634,0.213495 -0.201634,0.545598 0,0.486294 0.320242,0.699789 0.332103,0.213495 0.889562,0.213495 0.438851,0 0.747232,-0.14233 0.308382,-0.154191 0.498155,-0.391408 0.189773,-0.237216 0.272799,-0.521876 0.08303,-0.296521 0.08303,-0.5811807 V 9.4871975 Z"
           style="font-style:normal;font-variant:normal;font-weight:500;font-stretch:normal;font-size:11.8608284px;font-family:Avenir;-inkscape-font-specification:'Avenir Medium';letter-spacing:-0.11px;fill:#ff9933;fill-opacity:1;stroke-width:1.11195266px"
           id="path842" /><path
           d="m 62.70549,3.2246801 h 1.067474 V 12.191466 H 62.70549 Z"
           style="font-style:normal;font-variant:normal;font-weight:500;font-stretch:normal;font-size:11.8608284px;font-family:Avenir;-inkscape-font-specification:'Avenir Medium';letter-spacing:-0.11px;fill:#ff9933;fill-opacity:1;stroke-width:1.11195266px"
           id="path844" /><path
           d="m 68.624397,3.7939998 h 2.929624 q 0.889563,0 1.553769,0.2016341 0.676067,0.2016341 1.162361,0.5455981 0.498155,0.3321032 0.818397,0.7709539 0.332103,0.4388506 0.521877,0.9014229 0.189773,0.4625723 0.272799,0.9251446 0.08303,0.4625723 0.08303,0.8539797 0,0.8065363 -0.296521,1.5656293 -0.296521,0.7472326 -0.877701,1.3402736 -0.581181,0.581181 -1.447021,0.937005 -0.85398,0.355825 -1.980759,0.355825 h -2.739851 z m 1.138639,7.3299922 h 1.435161 q 0.72351,0 1.363995,-0.189773 0.652345,-0.201635 1.138639,-0.593042 0.486294,-0.3914072 0.770954,-0.9725878 0.28466,-0.5930414 0.28466,-1.3758561 0,-0.4032682 -0.130469,-0.9370055 -0.130469,-0.5455981 -0.498155,-1.031892 -0.355825,-0.486294 -0.996309,-0.8183972 -0.640485,-0.343964 -1.660516,-0.343964 h -1.70796 z"
           style="font-style:normal;font-variant:normal;font-weight:500;font-stretch:normal;font-size:11.8608284px;font-family:Avenir;-inkscape-font-specification:'Avenir Medium';letter-spacing:-0.11px;fill:#ff9933;fill-opacity:1;stroke-width:1.11195266px"
           id="path846" /><path
           d="m 77.294189,6.5694337 h 1.067475 V 12.191466 H 77.294189 Z M 77.045112,4.5530928 q 0,-0.3202423 0.225355,-0.5455981 0.237217,-0.2372165 0.557459,-0.2372165 0.320243,0 0.545598,0.2372165 0.237217,0.2253558 0.237217,0.5455981 0,0.3202424 -0.237217,0.557459 -0.225355,0.2253557 -0.545598,0.2253557 -0.320242,0 -0.557459,-0.2253557 -0.225355,-0.2372166 -0.225355,-0.557459 z"
           style="font-style:normal;font-variant:normal;font-weight:500;font-stretch:normal;font-size:11.8608284px;font-family:Avenir;-inkscape-font-specification:'Avenir Medium';letter-spacing:-0.11px;fill:#ff9933;fill-opacity:1;stroke-width:1.11195266px"
           id="path848" /><path
           d="m 79.950543,6.5694337 h 1.067475 V 7.37597 h 0.02372 q 0.308382,-0.4507115 0.842119,-0.6997889 0.545598,-0.2490774 1.114918,-0.2490774 0.652346,0 1.174222,0.2253558 0.533737,0.2253557 0.901423,0.6286239 0.379546,0.4032681 0.581181,0.9488662 0.201634,0.5337373 0.201634,1.1505004 0,0.628624 -0.201634,1.174222 -0.201635,0.533737 -0.581181,0.937005 -0.367686,0.391408 -0.901423,0.616764 -0.521876,0.225355 -1.174222,0.225355 -0.604902,0 -1.13864,-0.249077 -0.533737,-0.260938 -0.818397,-0.699789 h -0.02372 v 4.15129 h -1.067475 z m 2.917764,0.8539796 q -0.42699,0 -0.770954,0.1541908 -0.343964,0.1423299 -0.581181,0.4032681 -0.237216,0.2490774 -0.367685,0.6167631 -0.130469,0.3558249 -0.130469,0.7828147 0,0.4269898 0.130469,0.794676 0.130469,0.355824 0.367685,0.616763 0.237217,0.249077 0.581181,0.403268 0.343964,0.14233 0.770954,0.14233 0.42699,0 0.770954,-0.14233 0.343964,-0.154191 0.58118,-0.403268 0.237217,-0.260939 0.367686,-0.616763 0.130469,-0.3676862 0.130469,-0.794676 0,-0.4269898 -0.130469,-0.7828147 Q 84.457658,8.2299496 84.220441,7.9808722 83.983225,7.719934 83.639261,7.5776041 83.295297,7.4234133 82.868307,7.4234133 Z"
           style="font-style:normal;font-variant:normal;font-weight:500;font-stretch:normal;font-size:11.8608284px;font-family:Avenir;-inkscape-font-specification:'Avenir Medium';letter-spacing:-0.11px;fill:#ff9933;fill-opacity:1;stroke-width:1.11195266px"
           id="path850" /><path
           d="m 87.957241,9.38045 q 0,0.4269898 0.130469,0.794676 0.130469,0.355824 0.367686,0.616763 0.237217,0.249077 0.581181,0.403268 0.343964,0.14233 0.770953,0.14233 0.42699,0 0.770954,-0.14233 0.343964,-0.154191 0.581181,-0.403268 0.237216,-0.260939 0.367686,-0.616763 0.130469,-0.3676862 0.130469,-0.794676 0,-0.4269898 -0.130469,-0.7828147 Q 91.396881,8.2299496 91.159665,7.9808722 90.922448,7.719934 90.578484,7.5776041 90.23452,7.4234133 89.80753,7.4234133 q -0.426989,0 -0.770953,0.1541908 Q 88.692613,7.719934 88.455396,7.9808722 88.218179,8.2299496 88.08771,8.5976353 87.957241,8.9534602 87.957241,9.38045 Z m -1.138639,0 q 0,-0.6167631 0.225355,-1.1505004 0.237217,-0.5337372 0.640485,-0.9370054 0.403268,-0.4032682 0.948866,-0.6286239 0.545599,-0.2372166 1.174222,-0.2372166 0.628624,0 1.174222,0.2372166 0.545599,0.2253557 0.948867,0.6286239 0.403268,0.4032682 0.628624,0.9370054 0.237216,0.5337373 0.237216,1.1505004 0,0.6167631 -0.237216,1.162361 -0.225356,0.533737 -0.628624,0.937006 -0.403268,0.391407 -0.948867,0.628624 -0.545598,0.225355 -1.174222,0.225355 -0.628623,0 -1.174222,-0.225355 Q 88.08771,11.871224 87.684442,11.479817 87.281174,11.076548 87.043957,10.542811 86.818602,9.9972131 86.818602,9.38045 Z"
           style="font-style:normal;font-variant:normal;font-weight:500;font-stretch:normal;font-size:11.8608284px;font-family:Avenir;-inkscape-font-specification:'Avenir Medium';letter-spacing:-0.11px;fill:#ff9933;fill-opacity:1;stroke-width:1.11195266px"
           id="path852" /><path
           d="m 94.106792,3.2246801 h 1.067475 v 8.9667859 h -1.067475 z"
           style="font-style:normal;font-variant:normal;font-weight:500;font-stretch:normal;font-size:11.8608284px;font-family:Avenir;-inkscape-font-specification:'Avenir Medium';letter-spacing:-0.11px;fill:#ff9933;fill-opacity:1;stroke-width:1.11195266px"
           id="path854" /><path
           d="m 96.786868,7.2573617 q 0.450711,-0.415129 1.043753,-0.6167631 0.593041,-0.2134949 1.186082,-0.2134949 0.616764,0 1.055617,0.1541908 0.45071,0.1541908 0.73537,0.415129 0.28466,0.2609382 0.41513,0.6049022 0.14233,0.3321032 0.14233,0.6997889 v 2.8703204 q 0,0.296521 0.0119,0.545598 0.0119,0.249078 0.0356,0.474433 h -0.94887 q -0.0356,-0.426989 -0.0356,-0.853979 h -0.0237 q -0.35582,0.545598 -0.842118,0.770954 -0.486294,0.225355 -1.126779,0.225355 -0.391407,0 -0.747232,-0.106747 -0.355825,-0.106748 -0.628624,-0.320243 -0.260938,-0.213494 -0.415129,-0.521876 -0.154191,-0.320242 -0.154191,-0.735371 0,-0.545598 0.237217,-0.9132841 0.249077,-0.3676857 0.664206,-0.5930415 0.42699,-0.2372165 0.984449,-0.3321032 0.569319,-0.1067474 1.209804,-0.1067474 h 0.782817 V 8.4671662 q 0,-0.2134949 -0.083,-0.4269898 -0.083,-0.2134949 -0.24908,-0.3795465 -0.166047,-0.1779124 -0.415124,-0.2727991 -0.249078,-0.1067474 -0.593042,-0.1067474 -0.308381,0 -0.545598,0.059304 -0.225356,0.059304 -0.415129,0.1541908 -0.189773,0.083026 -0.343964,0.2016341 -0.154191,0.1186083 -0.296521,0.2253557 z m 3.01265,2.2298358 q -0.379546,0 -0.782815,0.047443 -0.391407,0.035583 -0.72351,0.1541907 -0.320242,0.1186083 -0.533737,0.3321035 -0.201634,0.213495 -0.201634,0.545598 0,0.486294 0.320242,0.699789 0.332103,0.213495 0.889562,0.213495 0.438851,0 0.747232,-0.14233 0.308382,-0.154191 0.498152,-0.391408 0.18978,-0.237216 0.2728,-0.521876 0.083,-0.296521 0.083,-0.5811807 V 9.4871975 Z"
           style="font-style:normal;font-variant:normal;font-weight:500;font-stretch:normal;font-size:11.8608284px;font-family:Avenir;-inkscape-font-specification:'Avenir Medium';letter-spacing:-0.11px;fill:#ff9933;fill-opacity:1;stroke-width:1.11195266px"
           id="path856" /><path
           d="m 102.81522,6.5694337 h 1.06747 v 0.8658404 h 0.0237 q 0.10675,-0.2253557 0.28466,-0.4032681 0.17792,-0.1897733 0.39141,-0.3202424 0.22536,-0.1304691 0.48629,-0.2016341 0.26094,-0.083026 0.52188,-0.083026 0.26094,0 0.47443,0.071165 l -0.0474,1.1505004 q -0.13047,-0.035583 -0.26094,-0.059304 -0.13047,-0.023722 -0.26094,-0.023722 -0.78281,0 -1.19794,0.4388506 -0.41513,0.4388507 -0.41513,1.3639953 v 2.8228768 h -1.06747 z"
           style="font-style:normal;font-variant:normal;font-weight:500;font-stretch:normal;font-size:11.8608284px;font-family:Avenir;-inkscape-font-specification:'Avenir Medium';letter-spacing:-0.11px;fill:#ff9933;fill-opacity:1;stroke-width:1.11195266px"
           id="path858" /><path
           d="m 116.38324,5.6087066 q -0.35582,-0.4625723 -0.90142,-0.7116497 -0.5456,-0.2490774 -1.12678,-0.2490774 -0.71165,0 -1.29283,0.272799 -0.56932,0.2609382 -0.98445,0.7235106 -0.40327,0.4625723 -0.62862,1.0911962 -0.22536,0.616763 -0.22536,1.3284127 0,0.6642064 0.2135,1.2572479 0.21349,0.5930414 0.61676,1.0437531 0.40327,0.450711 0.98445,0.711649 0.58118,0.260939 1.31655,0.260939 0.72351,0 1.26911,-0.296521 0.5456,-0.296521 0.92514,-0.830258 l 0.96073,0.723511 q -0.0949,0.130469 -0.3321,0.379546 -0.23722,0.237217 -0.62863,0.486294 -0.3914,0.237217 -0.94886,0.415129 -0.5456,0.189773 -1.26911,0.189773 -0.99631,0 -1.80285,-0.379546 -0.79467,-0.379547 -1.36399,-0.99631 -0.55746,-0.616763 -0.85398,-1.3877168 -0.29652,-0.7828146 -0.29652,-1.5774902 0,-0.9725879 0.32024,-1.790985 0.32024,-0.830258 0.88956,-1.4232994 0.58118,-0.6049023 1.38772,-0.9370055 0.80653,-0.3321032 1.77912,-0.3321032 0.83026,0 1.62494,0.3202424 0.80653,0.3202423 1.31655,0.9844487 z"
           style="font-style:normal;font-variant:normal;font-weight:500;font-stretch:normal;font-size:11.8608284px;font-family:Avenir;-inkscape-font-specification:'Avenir Medium';letter-spacing:-0.11px;fill:#ff9933;fill-opacity:1;stroke-width:1.11195266px"
           id="path860" /><path
           d="m 119.35854,9.38045 q 0,0.4269898 0.13047,0.794676 0.13047,0.355824 0.36768,0.616763 0.23722,0.249077 0.58119,0.403268 0.34396,0.14233 0.77095,0.14233 0.42699,0 0.77095,-0.14233 0.34397,-0.154191 0.58118,-0.403268 0.23722,-0.260939 0.36769,-0.616763 0.13047,-0.3676862 0.13047,-0.794676 0,-0.4269898 -0.13047,-0.7828147 -0.13047,-0.3676857 -0.36769,-0.6167631 -0.23721,-0.2609382 -0.58118,-0.4032681 -0.34396,-0.1541908 -0.77095,-0.1541908 -0.42699,0 -0.77095,0.1541908 -0.34397,0.1423299 -0.58119,0.4032681 -0.23721,0.2490774 -0.36768,0.6167631 -0.13047,0.3558249 -0.13047,0.7828147 z m -1.13864,0 q 0,-0.6167631 0.22536,-1.1505004 0.23721,-0.5337372 0.64048,-0.9370054 0.40327,-0.4032682 0.94887,-0.6286239 0.5456,-0.2372166 1.17422,-0.2372166 0.62862,0 1.17422,0.2372166 0.5456,0.2253557 0.94887,0.6286239 0.40327,0.4032682 0.62862,0.9370054 0.23722,0.5337373 0.23722,1.1505004 0,0.6167631 -0.23722,1.162361 -0.22535,0.533737 -0.62862,0.937006 -0.40327,0.391407 -0.94887,0.628624 -0.5456,0.225355 -1.17422,0.225355 -0.62862,0 -1.17422,-0.225355 -0.5456,-0.237217 -0.94887,-0.628624 -0.40327,-0.403269 -0.64048,-0.937006 Q 118.2199,9.9972131 118.2199,9.38045 Z"
           style="font-style:normal;font-variant:normal;font-weight:500;font-stretch:normal;font-size:11.8608284px;font-family:Avenir;-inkscape-font-specification:'Avenir Medium';letter-spacing:-0.11px;fill:#ff9933;fill-opacity:1;stroke-width:1.11195266px"
           id="path862" /><path
           d="m 130.40662,12.191466 h -1.06747 v -0.86584 h -0.0237 q -0.20163,0.450711 -0.69978,0.735371 -0.49816,0.272799 -1.15051,0.272799 -0.41512,0 -0.78281,-0.130469 -0.36769,-0.118608 -0.65235,-0.379546 -0.27279,-0.260939 -0.43885,-0.664207 -0.16605,-0.415129 -0.16605,-0.972588 V 6.5694337 h 1.06748 v 3.3210319 q 0,0.3914074 0.10674,0.6760674 0.10675,0.272799 0.28466,0.450711 0.17792,0.166052 0.40327,0.249078 0.23722,0.07116 0.4863,0.07116 0.3321,0 0.61676,-0.106748 0.28466,-0.106747 0.49815,-0.332103 0.2135,-0.237217 0.33211,-0.593041 0.11861,-0.3558252 0.11861,-0.8421192 V 6.5694337 h 1.06747 z"
           style="font-style:normal;font-variant:normal;font-weight:500;font-stretch:normal;font-size:11.8608284px;font-family:Avenir;-inkscape-font-specification:'Avenir Medium';letter-spacing:-0.11px;fill:#ff9933;fill-opacity:1;stroke-width:1.11195266px"
           id="path864" /><path
           d="m 131.91729,6.5694337 h 1.06747 V 7.37597 h 0.0237 q 0.30838,-0.4507115 0.84212,-0.6997889 0.54559,-0.2490774 1.11491,-0.2490774 0.65235,0 1.17423,0.2253558 0.53373,0.2253557 0.90142,0.6286239 0.37954,0.4032681 0.58118,0.9488662 0.20163,0.5337373 0.20163,1.1505004 0,0.628624 -0.20163,1.174222 -0.20164,0.533737 -0.58118,0.937005 -0.36769,0.391408 -0.90142,0.616764 -0.52188,0.225355 -1.17423,0.225355 -0.6049,0 -1.13864,-0.249077 -0.53373,-0.260938 -0.81839,-0.699789 h -0.0237 v 4.15129 h -1.06747 z m 2.91776,0.8539796 q -0.42699,0 -0.77095,0.1541908 -0.34396,0.1423299 -0.58118,0.4032681 -0.23722,0.2490774 -0.36769,0.6167631 -0.13047,0.3558249 -0.13047,0.7828147 0,0.4269898 0.13047,0.794676 0.13047,0.355824 0.36769,0.616763 0.23722,0.249077 0.58118,0.403268 0.34396,0.14233 0.77095,0.14233 0.42699,0 0.77096,-0.14233 0.34396,-0.154191 0.58118,-0.403268 0.23722,-0.260939 0.36768,-0.616763 0.13047,-0.3676862 0.13047,-0.794676 0,-0.4269898 -0.13047,-0.7828147 -0.13046,-0.3676857 -0.36768,-0.6167631 -0.23722,-0.2609382 -0.58118,-0.4032681 -0.34397,-0.1541908 -0.77096,-0.1541908 z"
           style="font-style:normal;font-variant:normal;font-weight:500;font-stretch:normal;font-size:11.8608284px;font-family:Avenir;-inkscape-font-specification:'Avenir Medium';letter-spacing:-0.11px;fill:#ff9933;fill-opacity:1;stroke-width:1.11195266px"
           id="path866" /><path
           d="m 139.14117,3.2246801 h 1.06747 v 8.9667859 h -1.06747 z"
           style="font-style:normal;font-variant:normal;font-weight:500;font-stretch:normal;font-size:11.8608284px;font-family:Avenir;-inkscape-font-specification:'Avenir Medium';letter-spacing:-0.11px;fill:#ff9933;fill-opacity:1;stroke-width:1.11195266px"
           id="path868" /><path
           d="m 141.88055,6.5694337 h 1.06747 v 5.6220323 h -1.06747 z m -0.24908,-2.0163409 q 0,-0.3202423 0.22536,-0.5455981 0.23721,-0.2372165 0.55746,-0.2372165 0.32024,0 0.5456,0.2372165 0.23721,0.2253558 0.23721,0.5455981 0,0.3202424 -0.23721,0.557459 -0.22536,0.2253557 -0.5456,0.2253557 -0.32025,0 -0.55746,-0.2253557 -0.22536,-0.2372166 -0.22536,-0.557459 z"
           style="font-style:normal;font-variant:normal;font-weight:500;font-stretch:normal;font-size:11.8608284px;font-family:Avenir;-inkscape-font-specification:'Avenir Medium';letter-spacing:-0.11px;fill:#ff9933;fill-opacity:1;stroke-width:1.11195266px"
           id="path870" /><path
           d="m 144.5369,6.5694337 h 1.06748 v 0.8658404 h 0.0237 q 0.20163,-0.4507114 0.69979,-0.7235105 0.49815,-0.2846599 1.1505,-0.2846599 0.40327,0 0.77095,0.1304691 0.37955,0.1186083 0.65235,0.3795466 0.28466,0.2609382 0.45071,0.6760672 0.16605,0.4032681 0.16605,0.9607271 v 3.6175523 h -1.06747 V 8.8704344 q 0,-0.3914074 -0.10675,-0.6642064 -0.10675,-0.2846599 -0.28466,-0.4507115 -0.17791,-0.1779124 -0.41513,-0.2490774 -0.22535,-0.083026 -0.47443,-0.083026 -0.33211,0 -0.61677,0.1067475 -0.28466,0.1067474 -0.49815,0.343964 -0.21349,0.2253557 -0.3321,0.5811806 -0.11861,0.3558248 -0.11861,0.8421188 v 2.8940418 h -1.06748 z"
           style="font-style:normal;font-variant:normal;font-weight:500;font-stretch:normal;font-size:11.8608284px;font-family:Avenir;-inkscape-font-specification:'Avenir Medium';letter-spacing:-0.11px;fill:#ff9933;fill-opacity:1;stroke-width:1.11195266px"
           id="path872" /><path
           d="m 156.66302,12.144023 q 0,0.640485 -0.22536,1.162361 -0.2135,0.533737 -0.61676,0.913284 -0.40327,0.391407 -0.97259,0.604902 -0.56932,0.213495 -1.25725,0.213495 -0.80654,0 -1.4826,-0.225356 -0.66421,-0.225355 -1.26911,-0.782814 l 0.72351,-0.901423 q 0.41513,0.450711 0.90142,0.676067 0.4863,0.237217 1.10306,0.237217 0.59304,0 0.98445,-0.177913 0.39141,-0.166051 0.61676,-0.438851 0.23722,-0.272799 0.3321,-0.628623 0.0949,-0.343964 0.0949,-0.699789 v -0.830258 h -0.0356 q -0.30838,0.510015 -0.84212,0.759093 -0.52188,0.237216 -1.10306,0.237216 -0.61676,0 -1.1505,-0.213495 -0.52187,-0.225355 -0.90142,-0.604902 -0.37955,-0.391407 -0.59304,-0.913284 -0.2135,-0.5337369 -0.2135,-1.1505 0,-0.6167631 0.20164,-1.1505004 0.20163,-0.5455981 0.56932,-0.9488662 0.37954,-0.4032682 0.90142,-0.6286239 0.53374,-0.2253558 1.18608,-0.2253558 0.56932,0 1.10306,0.2490774 0.5456,0.2490774 0.85398,0.6997889 h 0.0237 V 6.5694337 h 1.06748 z m -2.91777,-4.7206097 q -0.42699,0 -0.77095,0.1541908 -0.34397,0.1423299 -0.58118,0.4032681 -0.23722,0.2490774 -0.36769,0.6167631 -0.13047,0.3558249 -0.13047,0.7828147 0,0.85398 0.49816,1.375856 0.49815,0.510016 1.35213,0.510016 0.85398,0 1.35214,-0.510016 0.49815,-0.521876 0.49815,-1.375856 0,-0.4269898 -0.13047,-0.7828147 -0.13047,-0.3676857 -0.36768,-0.6167631 -0.23722,-0.2609382 -0.58118,-0.4032681 -0.34397,-0.1541908 -0.77096,-0.1541908 z"
           style="font-style:normal;font-variant:normal;font-weight:500;font-stretch:normal;font-size:11.8608284px;font-family:Avenir;-inkscape-font-specification:'Avenir Medium';letter-spacing:-0.11px;fill:#ff9933;fill-opacity:1;stroke-width:1.11195266px"
           id="path874" /></g><g
         id="g901"><path
           id="path239-1"
           d="m 7.9112309,3.8677384 c 0,0.821 0.6315385,1.4525384 1.4525384,1.4525384 0.8209997,0 1.4525387,-0.6315384 1.4525387,-1.4525384"
           stroke-miterlimit="10"
           inkscape:connector-curvature="0"
           style="fill:none;stroke:#ff9933;stroke-width:1;stroke-miterlimit:10;stroke-opacity:1" /><path
           id="path241-1"
           d="M 11.953077,6.457046"
           stroke-miterlimit="10"
           inkscape:connector-curvature="0"
           style="fill:none;stroke:#ff9933;stroke-width:1;stroke-miterlimit:10;stroke-opacity:1" /><path
           id="path243-6"
           d="m 11.953077,3.8677384 c 0,0.821 0.631538,1.4525384 1.452538,1.4525384 0.821,0 1.452539,-0.6315384 1.452539,-1.4525384"
           stroke-miterlimit="10"
           inkscape:connector-curvature="0"
           style="fill:none;stroke:#ff9933;stroke-width:1;stroke-miterlimit:10;stroke-opacity:1" /><path
           id="path245-1"
           d="M 15.994923,6.457046"
           stroke-miterlimit="10"
           inkscape:connector-curvature="0"
           style="fill:none;stroke:#ff9933;stroke-width:1;stroke-miterlimit:10;stroke-opacity:1" /><path
           id="path247-1"
           d="m 15.994923,3.8677384 c 0,0.821 0.631539,1.4525384 1.452539,1.4525384 0.821,0 1.452538,-0.6315384 1.452538,-1.4525384"
           stroke-miterlimit="10"
           inkscape:connector-curvature="0"
           style="fill:none;stroke:#ff9933;stroke-width:1;stroke-miterlimit:10;stroke-opacity:1" /><path
           id="path249-8"
           d="m 7.9112309,12.077738 c 0,-0.821 0.6315385,-1.452538 1.4525384,-1.452538 0.8209997,0 1.4525387,0.631538 1.4525387,1.452538"
           stroke-miterlimit="10"
           inkscape:connector-curvature="0"
           style="fill:none;stroke:#ff9933;stroke-width:1;stroke-miterlimit:10;stroke-opacity:1" /><path
           id="path251-1"
           d="m 11.953077,12.077738 c 0,-0.821 0.631538,-1.452538 1.452538,-1.452538 0.821,0 1.452539,0.631538 1.452539,1.452538"
           stroke-miterlimit="10"
           inkscape:connector-curvature="0"
           style="fill:none;stroke:#ff9933;stroke-width:1;stroke-miterlimit:10;stroke-opacity:1" /><path
           id="path253-1"
           d="m 15.994923,12.077738 c 0,-0.821 0.631539,-1.452538 1.452539,-1.452538 0.821,0 1.452538,0.631538 1.452538,1.452538"
           stroke-miterlimit="10"
           inkscape:connector-curvature="0"
           style="fill:none;stroke:#ff9933;stroke-width:1;stroke-miterlimit:10;stroke-opacity:1" /><path
           style="fill:none;stroke:#ff9933;stroke-width:1;stroke-miterlimit:10;stroke-opacity:1"
           d="M 10.816308,7.9727383 A 1.4525384,1.4525384 0 0 1 9.3637695,9.4252766 1.4525384,1.4525384 0 0 1 7.9112312,7.9727383 1.4525384,1.4525384 0 0 1 9.3637695,6.5201999 1.4525384,1.4525384 0 0 1 10.816308,7.9727383 Z"
           id="circle255-5" /><path
           style="fill:none;stroke:#ff9933;stroke-width:1;stroke-miterlimit:10;stroke-opacity:1"
           d="M 14.858154,7.9727383 A 1.4525384,1.4525384 0 0 1 13.405616,9.4252766 1.4525384,1.4525384 0 0 1 11.953077,7.9727383 1.4525384,1.4525384 0 0 1 13.405616,6.5201999 1.4525384,1.4525384 0 0 1 14.858154,7.9727383 Z"
           id="circle257-0" /><path
           style="fill:#ff9933;fill-opacity:1;stroke:#ff9933;stroke-width:1;stroke-miterlimit:10;stroke-opacity:1"
           d="M 18.9,7.9727383 A 1.4525384,1.4525384 0 0 1 17.447462,9.4252766 1.4525384,1.4525384 0 0 1 15.994924,7.9727383 1.4525384,1.4525384 0 0 1 17.447462,6.5201999 1.4525384,1.4525384 0 0 1 18.9,7.9727383 Z"
           id="circle259-0" /></g></g></g></svg>