<?xml version="1.0" encoding="utf-8"?>
<!-- Generator: Adobe Illustrator 17.1.0, SVG Export Plug-In . SVG Version: 6.00 Build 0)  -->
<!DOCTYPE svg PUBLIC "-//W3C//DTD SVG 1.1//EN" "http://www.w3.org/Graphics/SVG/1.1/DTD/svg11.dtd">
<svg version="1.1" id="Secondary_Imagery_Background"
	 xmlns="http://www.w3.org/2000/svg" xmlns:xlink="http://www.w3.org/1999/xlink" x="0px" y="0px" width="2000px" height="5000px"
	 viewBox="0 0 2000 5000" enable-background="new 0 0 2000 5000" xml:space="preserve">
<polygon opacity="0.2" fill="#047E9B" stroke="#000000" stroke-width="2" stroke-miterlimit="10" points="332,825.9 390.6,792 
	449.3,825.9 449.3,893.7 390.6,927.5 332,893.7 "/>
<polyline opacity="0.2" fill="none" stroke="#231F20" stroke-width="2" stroke-miterlimit="10" points="311,1669.5 311,1601.7 
	369.7,1567.8 "/>
<line opacity="0.2" fill="none" stroke="#231F20" stroke-width="2" stroke-miterlimit="10" x1="71.5" y1="1353.7" x2="12.8" y2="1387.5"/>
<line opacity="0.2" fill="none" stroke="#231F20" stroke-width="2" stroke-miterlimit="10" x1="207.5" y1="1556.7" x2="148.8" y2="1590.5"/>
<line opacity="0.2" fill="none" stroke="#231F20" stroke-width="2" stroke-miterlimit="10" x1="248.2" y1="1252.3" x2="189.5" y2="1286.2"/>
<line opacity="0.2" fill="none" stroke="#231F20" stroke-width="2" stroke-miterlimit="10" stroke-dasharray="6,6" x1="69.8" y1="1286.2" x2="11.1" y2="1252.3"/>
<polyline opacity="0.2" fill="none" stroke="#231F20" stroke-width="2" stroke-miterlimit="10" stroke-dasharray="6,6" points="
	198.2,1506.4 108.3,1558.3 18.5,1506.4 18.5,1402.7 108.3,1350.8 "/>
<polyline opacity="0.2" fill="none" stroke="#231F20" stroke-width="2" stroke-miterlimit="10" points="305.2,1117.4 215.3,1169.3 
	125.5,1117.4 125.5,1013.7 215.3,961.8 "/>
<polyline opacity="0.2" fill="none" stroke="#231F20" stroke-width="2" stroke-miterlimit="10" points="306.2,1354.3 247.5,1388.2 
	188.8,1354.3 "/>
<polyline opacity="0.2" fill="none" stroke="#231F20" stroke-width="2" stroke-miterlimit="10" points="452.2,962.3 393.5,996.2 
	334.8,962.3 "/>
<polyline opacity="0.2" fill="none" stroke="#231F20" stroke-width="2" stroke-miterlimit="10" points="423.5,1354.3 364.8,1388.2 
	306.1,1354.3 "/>
<line opacity="0.2" fill="none" stroke="#231F20" stroke-width="2" stroke-miterlimit="10" x1="360.3" y1="1453" x2="360.3" y2="1385.2"/>
<line opacity="0.2" fill="none" stroke="#231F20" stroke-width="2" stroke-miterlimit="10" x1="369.6" y1="1453" x2="369.6" y2="1385.2"/>
<polyline opacity="0.2" fill="none" stroke="#231F20" stroke-width="2" stroke-miterlimit="10" points="158.2,1802 99.5,1768.1 
	40.8,1802 "/>
<polyline opacity="0.2" fill="none" stroke="#231F20" stroke-width="2" stroke-miterlimit="10" points="273.5,1802 214.8,1768.1 
	156.1,1802 "/>
<line opacity="0.2" fill="none" stroke="#231F20" stroke-width="2" stroke-miterlimit="10" x1="215.8" y1="1701.8" x2="215.8" y2="1769.6"/>
<line opacity="0.2" fill="none" stroke="#231F20" stroke-width="2" stroke-miterlimit="10" x1="269.3" y1="1060" x2="269.3" y2="992.2"/>
<line opacity="0.2" fill="none" stroke="#231F20" stroke-width="2" stroke-miterlimit="10" x1="280.6" y1="1060" x2="280.6" y2="992.2"/>
<polyline opacity="0.2" fill="none" stroke="#231F20" stroke-width="2" stroke-miterlimit="10" points="71.5,1354 71.5,1286.2 
	130.1,1252.3 188.8,1286.2 188.8,1354 "/>
<polygon opacity="0.2" fill="none" stroke="#FFFFFF" stroke-width="2" stroke-miterlimit="10" stroke-dasharray="6,6" points="
	402.4,1962.7 313.8,2013.8 225.3,1962.7 225.3,1860.4 313.8,1809.3 402.4,1860.4 "/>
<polygon opacity="0.2" fill="#FDBF0F" stroke="#231F20" stroke-width="2" stroke-miterlimit="10" points="157.6,1603 216.3,1569.1 
	275,1603 275,1670.7 216.3,1704.6 157.6,1670.7 "/>
<polygon opacity="0.2" fill="none" stroke="#231F20" stroke-width="2" stroke-miterlimit="10" stroke-dasharray="6,6" points="
	157.6,589 216.3,555.1 275,589 275,656.8 216.3,690.7 157.6,656.8 "/>
<polygon opacity="0.2" fill="none" stroke="#231F20" stroke-width="2" stroke-miterlimit="10" points="275.1,453 333.8,419.1 
	392.5,453 392.5,520.8 333.8,554.7 275.1,520.8 "/>
<polyline opacity="0.2" fill="none" stroke="#231F20" stroke-width="2" stroke-miterlimit="10" points="333.2,690.9 333.2,758.6 
	274.5,792.5 215.8,758.6 215.8,690.9 "/>
<polyline opacity="0.2" fill="none" stroke="#231F20" stroke-width="2" stroke-miterlimit="10" points="40.8,585.5 40.8,517.8 
	99.5,483.9 158.2,517.8 158.2,585.5 "/>
<polyline opacity="0.2" fill="none" stroke="#231F20" stroke-width="2" stroke-miterlimit="10" points="450.5,690.9 450.5,758.6 
	391.8,792.5 333.1,758.6 333.1,690.9 "/>
<polyline opacity="0.2" fill="none" stroke="#231F20" stroke-width="2" stroke-miterlimit="10" stroke-dasharray="6,6" points="
	275,792.3 275,860.1 216.3,894 157.6,860.1 157.6,792.3 "/>
<polygon opacity="0.2" fill="none" stroke="#231F20" stroke-width="2" stroke-miterlimit="10" stroke-dasharray="6,6" points="
	305.6,1114.3 364.3,1080.4 423,1114.3 423,1182.1 364.3,1216 305.6,1182.1 "/>
<polygon opacity="0.2" fill="none" stroke="#231F20" stroke-width="2" stroke-miterlimit="10" points="1398.2,800.8 1442.2,775.4 
	1486.3,800.8 1486.3,851.6 1442.2,877.1 1398.2,851.6 "/>
<polyline opacity="0.2" fill="none" stroke="#231F20" stroke-width="2" stroke-miterlimit="10" points="333.2,894.2 333.2,962 
	274.5,995.9 215.8,962 215.8,894.2 "/>
<circle opacity="0.2" fill="#231F20" cx="215.7" cy="1635.1" r="8.3"/>
<circle opacity="0.2" fill="#231F20" cx="307.1" cy="1354.1" r="8.3"/>
<circle opacity="0.2" fill="#231F20" cx="158.6" cy="861.5" r="8.3"/>
<circle opacity="0.2" fill="#231F20" cx="388.1" cy="853.8" r="8.3"/>
<circle opacity="0.2" fill="#231F20" cx="334.1" cy="553.9" r="8.3"/>
<g opacity="0.2">
	<g>
		<path fill="none" stroke="#231F20" stroke-width="2" stroke-miterlimit="10" d="M216.7,1554.1c0-24.6,16.9-45.3,39.8-51"/>
		<g>
			<polygon fill="#231F20" points="254.3,1507.9 269.2,1501.6 253.1,1499.6 			"/>
		</g>
	</g>
</g>
<g opacity="0.2">
	<g>
		<path fill="none" stroke="#231F20" stroke-width="2" stroke-miterlimit="10" d="M365.2,1227.6c0,24.6-16.9,45.3-39.8,51"/>
		<g>
			<polygon fill="#231F20" points="327.6,1273.9 312.7,1280.1 328.7,1282.2 			"/>
		</g>
	</g>
</g>
<line opacity="0.2" fill="none" stroke="#231F20" stroke-width="2" stroke-miterlimit="10" x1="1781.2" y1="1252.3" x2="1722.5" y2="1286.2"/>
<polyline opacity="0.2" fill="none" stroke="#231F20" stroke-width="2" stroke-miterlimit="10" points="1839.2,1354.3 
	1780.5,1388.2 1721.8,1354.3 "/>
<polyline opacity="0.2" fill="none" stroke="#231F20" stroke-width="2" stroke-miterlimit="10" points="1956.5,1354.3 
	1897.8,1388.2 1839.1,1354.3 "/>
<line opacity="0.2" fill="none" stroke="#231F20" stroke-width="2" stroke-miterlimit="10" x1="1893.3" y1="1453" x2="1893.3" y2="1385.2"/>
<line opacity="0.2" fill="none" stroke="#231F20" stroke-width="2" stroke-miterlimit="10" x1="1902.6" y1="1453" x2="1902.6" y2="1385.2"/>
<polyline opacity="0.2" fill="none" stroke="#231F20" stroke-width="2" stroke-miterlimit="10" points="1604.5,1354 1604.5,1286.2 
	1663.1,1252.3 1721.8,1286.2 1721.8,1354 "/>
<circle opacity="0.2" fill="#231F20" cx="1840.1" cy="1354.1" r="8.3"/>
<g opacity="0.2">
	<g>
		<path fill="none" stroke="#231F20" stroke-width="2" stroke-miterlimit="10" d="M1898.2,1227.6c0,24.6-16.9,45.3-39.8,51"/>
		<g>
			<polygon fill="#231F20" points="1860.6,1273.9 1845.7,1280.1 1861.7,1282.2 			"/>
		</g>
	</g>
</g>
<g opacity="0.2">
	<path fill="#FFFFFF" d="M700.4,2428.3h-3.1v-103.5c1.2-2.6,2.2-5.2,3.1-7.9V2428.3z"/>
	<path fill="#FFFFFF" d="M687.9,2428.3h-3.1v-83.4c1.1-1.4,2.1-2.7,3.1-4.1V2428.3z"/>
	<path fill="#FFFFFF" d="M675.4,2428.3h-3.1v-70c1.1-1,2.1-2,3.1-3V2428.3z"/>
	<path fill="#FFFFFF" d="M662.9,2428.3h-3.1v-59.6c1.1-0.8,2.1-1.6,3.1-2.4V2428.3z"/>
	<path fill="#FFFFFF" d="M650.4,2428.3h-3.1v-51c1.1-0.7,2.1-1.3,3.1-2V2428.3z"/>
	<path fill="#FFFFFF" d="M637.9,2428.3h-3.1v-43.8c1.1-0.6,2.1-1.1,3.1-1.7V2428.3z"/>
	<path fill="#FFFFFF" d="M625.4,2428.3h-3.1v-37.7c1-0.5,2.1-1,3.1-1.5V2428.3z"/>
	<path fill="#FFFFFF" d="M612.9,2428.3h-3.1v-32.3c1-0.4,2.1-0.8,3.1-1.3V2428.3z"/>
	<path fill="#FFFFFF" d="M600.4,2428.3h-3.1v-27.8c1-0.4,2.1-0.7,3.1-1.1V2428.3z"/>
	<path fill="#FFFFFF" d="M587.9,2428.3h-3.1v-23.8c1-0.3,2.1-0.6,3.1-0.9V2428.3z"/>
	<path fill="#FFFFFF" d="M575.4,2428.3h-3.1v-20.4c1-0.3,2.1-0.5,3.1-0.8V2428.3z"/>
	<path fill="#FFFFFF" d="M562.9,2428.3h-3.1v-17.6c1-0.2,2.1-0.4,3.1-0.7V2428.3z"/>
	<path fill="#FFFFFF" d="M550.4,2428.3h-3.1V2413c1-0.2,2.1-0.4,3.1-0.5V2428.3z"/>
	<path fill="#FFFFFF" d="M537.9,2428.3h-3.1v-13.4c1-0.1,2.1-0.3,3.1-0.4V2428.3z"/>
	<path fill="#FFFFFF" d="M525.4,2428.3h-3.1v-11.9c1-0.1,2.1-0.2,3.1-0.3V2428.3z"/>
	<path fill="#FFFFFF" d="M512.9,2428.3h-3.1v-10.9c1-0.1,2.1-0.1,3.1-0.2V2428.3z"/>
	<path fill="#FFFFFF" d="M500.4,2428.3h-3.1V2418c1,0,2.1-0.1,3.1-0.1V2428.3z"/>
	<path fill="#FFFFFF" d="M487.9,2428.3h-3.1v-10.1c1,0,2.1,0,3.1,0V2428.3z"/>
	<rect x="472.3" y="2418.2" fill="#FFFFFF" width="3.1" height="10.1"/>
	<rect x="459.8" y="2418.2" fill="#FFFFFF" width="3.1" height="10.1"/>
	<rect x="447.3" y="2418.2" fill="#FFFFFF" width="3.1" height="10.1"/>
	<rect x="434.8" y="2418.2" fill="#FFFFFF" width="3.1" height="10.1"/>
	<rect x="422.3" y="2418.2" fill="#FFFFFF" width="3.1" height="10.1"/>
	<rect x="409.8" y="2418.2" fill="#FFFFFF" width="3.1" height="10.1"/>
	<rect x="397.3" y="2418.2" fill="#FFFFFF" width="3.1" height="10.1"/>
	<rect x="384.8" y="2418.2" fill="#FFFFFF" width="3.1" height="10.1"/>
	<rect x="372.3" y="2418.2" fill="#FFFFFF" width="3.1" height="10.1"/>
	<rect x="359.8" y="2418.2" fill="#FFFFFF" width="3.1" height="10.1"/>
	<rect x="347.3" y="2418.2" fill="#FFFFFF" width="3.1" height="10.1"/>
	<rect x="334.8" y="2418.2" fill="#FFFFFF" width="3.1" height="10.1"/>
	<rect x="322.3" y="2418.2" fill="#FFFFFF" width="3.1" height="10.1"/>
	<rect x="309.8" y="2418.2" fill="#FFFFFF" width="3.1" height="10.1"/>
	<rect x="297.3" y="2418.2" fill="#FFFFFF" width="3.1" height="10.1"/>
	<rect x="284.8" y="2418.2" fill="#FFFFFF" width="3.1" height="10.1"/>
</g>
<g opacity="0.2">
	<path fill="#FFFFFF" d="M721.3,2428.3h3.1v-103.5c-1.2-2.6-2.2-5.2-3.1-7.9V2428.3z"/>
	<path fill="#FFFFFF" d="M733.8,2428.3h3.1v-83.4c-1.1-1.4-2.1-2.7-3.1-4.1V2428.3z"/>
	<path fill="#FFFFFF" d="M746.3,2428.3h3.1v-70c-1.1-1-2.1-2-3.1-3V2428.3z"/>
	<path fill="#FFFFFF" d="M758.8,2428.3h3.1v-59.6c-1.1-0.8-2.1-1.6-3.1-2.4V2428.3z"/>
	<path fill="#FFFFFF" d="M771.3,2428.3h3.1v-51c-1.1-0.7-2.1-1.3-3.1-2V2428.3z"/>
	<path fill="#FFFFFF" d="M783.8,2428.3h3.1v-43.8c-1.1-0.6-2.1-1.1-3.1-1.7V2428.3z"/>
	<path fill="#FFFFFF" d="M796.3,2428.3h3.1v-37.7c-1-0.5-2.1-1-3.1-1.5V2428.3z"/>
	<path fill="#FFFFFF" d="M808.8,2428.3h3.1v-32.3c-1-0.4-2.1-0.8-3.1-1.3V2428.3z"/>
	<path fill="#FFFFFF" d="M821.3,2428.3h3.1v-27.8c-1-0.4-2.1-0.7-3.1-1.1V2428.3z"/>
	<path fill="#FFFFFF" d="M833.8,2428.3h3.1v-23.8c-1-0.3-2.1-0.6-3.1-0.9V2428.3z"/>
	<path fill="#FFFFFF" d="M846.3,2428.3h3.1v-20.4c-1-0.3-2.1-0.5-3.1-0.8V2428.3z"/>
	<path fill="#FFFFFF" d="M858.8,2428.3h3.1v-17.6c-1-0.2-2.1-0.4-3.1-0.7V2428.3z"/>
	<path fill="#FFFFFF" d="M871.3,2428.3h3.1V2413c-1-0.2-2.1-0.4-3.1-0.5V2428.3z"/>
	<path fill="#FFFFFF" d="M883.8,2428.3h3.1v-13.4c-1-0.1-2.1-0.3-3.1-0.4V2428.3z"/>
	<path fill="#FFFFFF" d="M896.3,2428.3h3.1v-11.9c-1-0.1-2.1-0.2-3.1-0.3V2428.3z"/>
	<path fill="#FFFFFF" d="M908.8,2428.3h3.1v-10.9c-1-0.1-2.1-0.1-3.1-0.2V2428.3z"/>
	<path fill="#FFFFFF" d="M921.3,2428.3h3.1V2418c-1,0-2.1-0.1-3.1-0.1V2428.3z"/>
	<path fill="#FFFFFF" d="M933.8,2428.3h3.1v-10.1c-1,0-2.1,0-3.1,0V2428.3z"/>
	<rect x="946.3" y="2418.2" fill="#FFFFFF" width="3.1" height="10.1"/>
	<rect x="958.8" y="2418.2" fill="#FFFFFF" width="3.1" height="10.1"/>
	<rect x="971.3" y="2418.2" fill="#FFFFFF" width="3.1" height="10.1"/>
	<rect x="983.8" y="2418.2" fill="#FFFFFF" width="3.1" height="10.1"/>
	<rect x="996.3" y="2418.2" fill="#FFFFFF" width="3.1" height="10.1"/>
	<rect x="1008.8" y="2418.2" fill="#FFFFFF" width="3.1" height="10.1"/>
	<rect x="1021.3" y="2418.2" fill="#FFFFFF" width="3.1" height="10.1"/>
	<rect x="1033.8" y="2418.2" fill="#FFFFFF" width="3.1" height="10.1"/>
	<rect x="1046.3" y="2418.2" fill="#FFFFFF" width="3.1" height="10.1"/>
	<rect x="1058.8" y="2418.2" fill="#FFFFFF" width="3.1" height="10.1"/>
	<rect x="1071.3" y="2418.2" fill="#FFFFFF" width="3.1" height="10.1"/>
	<rect x="1083.8" y="2418.2" fill="#FFFFFF" width="3.1" height="10.1"/>
	<rect x="1096.3" y="2418.2" fill="#FFFFFF" width="3.1" height="10.1"/>
	<rect x="1108.8" y="2418.2" fill="#FFFFFF" width="3.1" height="10.1"/>
	<rect x="1121.3" y="2418.2" fill="#FFFFFF" width="3.1" height="10.1"/>
	<rect x="1133.8" y="2418.2" fill="#FFFFFF" width="3.1" height="10.1"/>
</g>
<g opacity="0.2">
	<line fill="none" stroke="#000000" stroke-width="3" stroke-miterlimit="10" x1="19" y1="2054.5" x2="46" y2="2054.5"/>
	<line fill="none" stroke="#000000" stroke-width="3" stroke-miterlimit="10" x1="19" y1="2087.5" x2="46" y2="2087.5"/>
	<line fill="none" stroke="#000000" stroke-width="3" stroke-miterlimit="10" x1="19" y1="2120.5" x2="46" y2="2120.5"/>
	<line fill="none" stroke="#000000" stroke-width="3" stroke-miterlimit="10" x1="19" y1="2152.5" x2="46" y2="2152.5"/>
	<line fill="none" stroke="#000000" stroke-width="3" stroke-miterlimit="10" x1="19" y1="2185.5" x2="46" y2="2185.5"/>
	<line fill="none" stroke="#000000" stroke-width="3" stroke-miterlimit="10" x1="19" y1="2218.5" x2="46" y2="2218.5"/>
	<line fill="none" stroke="#000000" stroke-width="3" stroke-miterlimit="10" x1="19" y1="2250.5" x2="46" y2="2250.5"/>
	<line fill="none" stroke="#000000" stroke-width="3" stroke-miterlimit="10" x1="19" y1="2283.5" x2="46" y2="2283.5"/>
	<line fill="none" stroke="#000000" stroke-width="3" stroke-miterlimit="10" x1="19" y1="2316.5" x2="46" y2="2316.5"/>
	<line fill="none" stroke="#000000" stroke-width="3" stroke-miterlimit="10" x1="19" y1="2348.5" x2="46" y2="2348.5"/>
	<line fill="none" stroke="#000000" stroke-width="3" stroke-miterlimit="10" x1="19" y1="2381.5" x2="46" y2="2381.5"/>
	<line fill="none" stroke="#000000" stroke-width="3" stroke-miterlimit="10" x1="19" y1="2414.5" x2="46" y2="2414.5"/>
	<line fill="none" stroke="#000000" stroke-width="3" stroke-miterlimit="10" x1="19" y1="2447.5" x2="46" y2="2447.5"/>
	<line fill="none" stroke="#000000" stroke-width="3" stroke-miterlimit="10" x1="19" y1="2480.5" x2="46" y2="2480.5"/>
	<line fill="none" stroke="#000000" stroke-width="3" stroke-miterlimit="10" x1="19" y1="2512.5" x2="46" y2="2512.5"/>
	<line fill="none" stroke="#000000" stroke-width="3" stroke-miterlimit="10" x1="19" y1="2545.5" x2="46" y2="2545.5"/>
	<line fill="none" stroke="#000000" stroke-width="3" stroke-miterlimit="10" x1="19" y1="2578.5" x2="46" y2="2578.5"/>
	<line fill="none" stroke="#000000" stroke-width="3" stroke-miterlimit="10" x1="19" y1="2610.5" x2="46" y2="2610.5"/>
	<line fill="none" stroke="#000000" stroke-width="3" stroke-miterlimit="10" x1="19" y1="2643.5" x2="46" y2="2643.5"/>
	<line fill="none" stroke="#000000" stroke-width="3" stroke-miterlimit="10" x1="19" y1="2676.5" x2="46" y2="2676.5"/>
	<line fill="none" stroke="#000000" stroke-width="3" stroke-miterlimit="10" x1="19" y1="2708.5" x2="46" y2="2708.5"/>
	<line fill="none" stroke="#000000" stroke-width="3" stroke-miterlimit="10" x1="19" y1="2741.5" x2="46" y2="2741.5"/>
	<line fill="none" stroke="#000000" stroke-width="3" stroke-miterlimit="10" x1="19" y1="2774.5" x2="46" y2="2774.5"/>
	<line fill="none" stroke="#000000" stroke-width="3" stroke-miterlimit="10" x1="19" y1="2807.5" x2="46" y2="2807.5"/>
	<line fill="none" stroke="#000000" stroke-width="3" stroke-miterlimit="10" x1="19" y1="2840.5" x2="46" y2="2840.5"/>
	<line fill="none" stroke="#000000" stroke-width="3" stroke-miterlimit="10" x1="19" y1="2872.5" x2="46" y2="2872.5"/>
	<line fill="none" stroke="#000000" stroke-width="3" stroke-miterlimit="10" x1="19" y1="2905.5" x2="46" y2="2905.5"/>
	<line fill="none" stroke="#000000" stroke-width="3" stroke-miterlimit="10" x1="19" y1="2938.5" x2="46" y2="2938.5"/>
	<line fill="none" stroke="#000000" stroke-width="3" stroke-miterlimit="10" x1="19" y1="2970.5" x2="46" y2="2970.5"/>
	<line fill="none" stroke="#000000" stroke-width="3" stroke-miterlimit="10" x1="19" y1="3003.5" x2="46" y2="3003.5"/>
	<line fill="none" stroke="#000000" stroke-width="3" stroke-miterlimit="10" x1="19" y1="3036.5" x2="46" y2="3036.5"/>
	<line fill="none" stroke="#000000" stroke-width="3" stroke-miterlimit="10" x1="19" y1="3068.5" x2="46" y2="3068.5"/>
	<line fill="none" stroke="#000000" stroke-width="3" stroke-miterlimit="10" x1="19" y1="3101.5" x2="46" y2="3101.5"/>
	<line fill="none" stroke="#000000" stroke-width="3" stroke-miterlimit="10" x1="19" y1="3134.5" x2="46" y2="3134.5"/>
</g>
<g opacity="0.2">
	<line fill="none" stroke="#FFFFFF" stroke-width="3" stroke-miterlimit="10" x1="1891" y1="1904.5" x2="1918" y2="1904.5"/>
	<line fill="none" stroke="#FFFFFF" stroke-width="3" stroke-miterlimit="10" x1="1891" y1="1937.5" x2="1918" y2="1937.5"/>
	<line fill="none" stroke="#FFFFFF" stroke-width="3" stroke-miterlimit="10" x1="1891" y1="1970.5" x2="1918" y2="1970.5"/>
	<line fill="none" stroke="#FFFFFF" stroke-width="3" stroke-miterlimit="10" x1="1891" y1="2002.5" x2="1918" y2="2002.5"/>
	<line fill="none" stroke="#FFFFFF" stroke-width="3" stroke-miterlimit="10" x1="1891" y1="2035.5" x2="1918" y2="2035.5"/>
	<line fill="none" stroke="#FFFFFF" stroke-width="3" stroke-miterlimit="10" x1="1891" y1="2068.5" x2="1918" y2="2068.5"/>
	<line fill="none" stroke="#FFFFFF" stroke-width="3" stroke-miterlimit="10" x1="1891" y1="2100.5" x2="1918" y2="2100.5"/>
	<line fill="none" stroke="#FFFFFF" stroke-width="3" stroke-miterlimit="10" x1="1891" y1="2133.5" x2="1918" y2="2133.5"/>
	<line fill="none" stroke="#FFFFFF" stroke-width="3" stroke-miterlimit="10" x1="1891" y1="2166.5" x2="1918" y2="2166.5"/>
	<line fill="none" stroke="#FFFFFF" stroke-width="3" stroke-miterlimit="10" x1="1891" y1="2198.5" x2="1918" y2="2198.5"/>
	<line fill="none" stroke="#FFFFFF" stroke-width="3" stroke-miterlimit="10" x1="1891" y1="2231.5" x2="1918" y2="2231.5"/>
	<line fill="none" stroke="#FFFFFF" stroke-width="3" stroke-miterlimit="10" x1="1891" y1="2264.5" x2="1918" y2="2264.5"/>
	<line fill="none" stroke="#FFFFFF" stroke-width="3" stroke-miterlimit="10" x1="1891" y1="2297.5" x2="1918" y2="2297.5"/>
	<line fill="none" stroke="#FFFFFF" stroke-width="3" stroke-miterlimit="10" x1="1891" y1="2330.5" x2="1918" y2="2330.5"/>
	<line fill="none" stroke="#FFFFFF" stroke-width="3" stroke-miterlimit="10" x1="1891" y1="2362.5" x2="1918" y2="2362.5"/>
	<line fill="none" stroke="#FFFFFF" stroke-width="3" stroke-miterlimit="10" x1="1891" y1="2395.5" x2="1918" y2="2395.5"/>
	<line fill="none" stroke="#FFFFFF" stroke-width="3" stroke-miterlimit="10" x1="1891" y1="2428.5" x2="1918" y2="2428.5"/>
	<line fill="none" stroke="#FFFFFF" stroke-width="3" stroke-miterlimit="10" x1="1891" y1="2460.5" x2="1918" y2="2460.5"/>
	<line fill="none" stroke="#FFFFFF" stroke-width="3" stroke-miterlimit="10" x1="1891" y1="2493.5" x2="1918" y2="2493.5"/>
	<line fill="none" stroke="#FFFFFF" stroke-width="3" stroke-miterlimit="10" x1="1891" y1="2526.5" x2="1918" y2="2526.5"/>
	<line fill="none" stroke="#FFFFFF" stroke-width="3" stroke-miterlimit="10" x1="1891" y1="2558.5" x2="1918" y2="2558.5"/>
	<line fill="none" stroke="#FFFFFF" stroke-width="3" stroke-miterlimit="10" x1="1891" y1="2591.5" x2="1918" y2="2591.5"/>
	<line fill="none" stroke="#FFFFFF" stroke-width="3" stroke-miterlimit="10" x1="1891" y1="2624.5" x2="1918" y2="2624.5"/>
	<line fill="none" stroke="#FFFFFF" stroke-width="3" stroke-miterlimit="10" x1="1891" y1="2657.5" x2="1918" y2="2657.5"/>
	<line fill="none" stroke="#FFFFFF" stroke-width="3" stroke-miterlimit="10" x1="1891" y1="2690.5" x2="1918" y2="2690.5"/>
	<line fill="none" stroke="#FFFFFF" stroke-width="3" stroke-miterlimit="10" x1="1891" y1="2722.5" x2="1918" y2="2722.5"/>
	<line fill="none" stroke="#FFFFFF" stroke-width="3" stroke-miterlimit="10" x1="1891" y1="2755.5" x2="1918" y2="2755.5"/>
	<line fill="none" stroke="#FFFFFF" stroke-width="3" stroke-miterlimit="10" x1="1891" y1="2788.5" x2="1918" y2="2788.5"/>
	<line fill="none" stroke="#FFFFFF" stroke-width="3" stroke-miterlimit="10" x1="1891" y1="2820.5" x2="1918" y2="2820.5"/>
	<line fill="none" stroke="#FFFFFF" stroke-width="3" stroke-miterlimit="10" x1="1891" y1="2853.5" x2="1918" y2="2853.5"/>
	<line fill="none" stroke="#FFFFFF" stroke-width="3" stroke-miterlimit="10" x1="1891" y1="2886.5" x2="1918" y2="2886.5"/>
	<line fill="none" stroke="#FFFFFF" stroke-width="3" stroke-miterlimit="10" x1="1891" y1="2918.5" x2="1918" y2="2918.5"/>
	<line fill="none" stroke="#FFFFFF" stroke-width="3" stroke-miterlimit="10" x1="1891" y1="2951.5" x2="1918" y2="2951.5"/>
	<line fill="none" stroke="#FFFFFF" stroke-width="3" stroke-miterlimit="10" x1="1891" y1="2984.5" x2="1918" y2="2984.5"/>
</g>
<g opacity="0.2">
	<line fill="none" stroke="#FFFFFF" stroke-width="3" stroke-miterlimit="10" x1="1365.5" y1="2452" x2="1365.5" y2="2479"/>
	<line fill="none" stroke="#FFFFFF" stroke-width="3" stroke-miterlimit="10" x1="1332.5" y1="2452" x2="1332.5" y2="2479"/>
	<line fill="none" stroke="#FFFFFF" stroke-width="3" stroke-miterlimit="10" x1="1299.5" y1="2452" x2="1299.5" y2="2479"/>
	<line fill="none" stroke="#FFFFFF" stroke-width="3" stroke-miterlimit="10" x1="1267.5" y1="2452" x2="1267.5" y2="2479"/>
	<line fill="none" stroke="#FFFFFF" stroke-width="3" stroke-miterlimit="10" x1="1234.5" y1="2452" x2="1234.5" y2="2479"/>
	<line fill="none" stroke="#FFFFFF" stroke-width="3" stroke-miterlimit="10" x1="1201.5" y1="2452" x2="1201.5" y2="2479"/>
	<line fill="none" stroke="#FFFFFF" stroke-width="3" stroke-miterlimit="10" x1="1169.5" y1="2452" x2="1169.5" y2="2479"/>
	<line fill="none" stroke="#FFFFFF" stroke-width="3" stroke-miterlimit="10" x1="1136.5" y1="2452" x2="1136.5" y2="2479"/>
	<line fill="none" stroke="#FFFFFF" stroke-width="3" stroke-miterlimit="10" x1="1103.5" y1="2452" x2="1103.5" y2="2479"/>
	<line fill="none" stroke="#FFFFFF" stroke-width="3" stroke-miterlimit="10" x1="1071.5" y1="2452" x2="1071.5" y2="2479"/>
	<line fill="none" stroke="#FFFFFF" stroke-width="3" stroke-miterlimit="10" x1="1038.5" y1="2452" x2="1038.5" y2="2479"/>
	<line fill="none" stroke="#FFFFFF" stroke-width="3" stroke-miterlimit="10" x1="1005.5" y1="2452" x2="1005.5" y2="2479"/>
	<line fill="none" stroke="#FFFFFF" stroke-width="3" stroke-miterlimit="10" x1="972.5" y1="2452" x2="972.5" y2="2479"/>
	<line fill="none" stroke="#FFFFFF" stroke-width="3" stroke-miterlimit="10" x1="939.5" y1="2452" x2="939.5" y2="2479"/>
	<line fill="none" stroke="#FFFFFF" stroke-width="3" stroke-miterlimit="10" x1="907.5" y1="2452" x2="907.5" y2="2479"/>
	<line fill="none" stroke="#FFFFFF" stroke-width="3" stroke-miterlimit="10" x1="874.5" y1="2452" x2="874.5" y2="2479"/>
	<line fill="none" stroke="#FFFFFF" stroke-width="3" stroke-miterlimit="10" x1="841.5" y1="2452" x2="841.5" y2="2479"/>
	<line fill="none" stroke="#FFFFFF" stroke-width="3" stroke-miterlimit="10" x1="809.5" y1="2452" x2="809.5" y2="2479"/>
	<line fill="none" stroke="#FFFFFF" stroke-width="3" stroke-miterlimit="10" x1="776.5" y1="2452" x2="776.5" y2="2479"/>
	<line fill="none" stroke="#FFFFFF" stroke-width="3" stroke-miterlimit="10" x1="743.5" y1="2452" x2="743.5" y2="2479"/>
	<line fill="none" stroke="#FFFFFF" stroke-width="3" stroke-miterlimit="10" x1="711.5" y1="2452" x2="711.5" y2="2479"/>
	<line fill="none" stroke="#FFFFFF" stroke-width="3" stroke-miterlimit="10" x1="678.5" y1="2452" x2="678.5" y2="2479"/>
	<line fill="none" stroke="#FFFFFF" stroke-width="3" stroke-miterlimit="10" x1="645.5" y1="2452" x2="645.5" y2="2479"/>
	<line fill="none" stroke="#FFFFFF" stroke-width="3" stroke-miterlimit="10" x1="612.5" y1="2452" x2="612.5" y2="2479"/>
	<line fill="none" stroke="#FFFFFF" stroke-width="3" stroke-miterlimit="10" x1="579.5" y1="2452" x2="579.5" y2="2479"/>
	<line fill="none" stroke="#FFFFFF" stroke-width="3" stroke-miterlimit="10" x1="547.5" y1="2452" x2="547.5" y2="2479"/>
	<line fill="none" stroke="#FFFFFF" stroke-width="3" stroke-miterlimit="10" x1="514.5" y1="2452" x2="514.5" y2="2479"/>
	<line fill="none" stroke="#FFFFFF" stroke-width="3" stroke-miterlimit="10" x1="481.5" y1="2452" x2="481.5" y2="2479"/>
	<line fill="none" stroke="#FFFFFF" stroke-width="3" stroke-miterlimit="10" x1="449.5" y1="2452" x2="449.5" y2="2479"/>
	<line fill="none" stroke="#FFFFFF" stroke-width="3" stroke-miterlimit="10" x1="416.5" y1="2452" x2="416.5" y2="2479"/>
	<line fill="none" stroke="#FFFFFF" stroke-width="3" stroke-miterlimit="10" x1="383.5" y1="2452" x2="383.5" y2="2479"/>
	<line fill="none" stroke="#FFFFFF" stroke-width="3" stroke-miterlimit="10" x1="351.5" y1="2452" x2="351.5" y2="2479"/>
	<line fill="none" stroke="#FFFFFF" stroke-width="3" stroke-miterlimit="10" x1="318.5" y1="2452" x2="318.5" y2="2479"/>
	<line fill="none" stroke="#FFFFFF" stroke-width="3" stroke-miterlimit="10" x1="285.5" y1="2452" x2="285.5" y2="2479"/>
</g>
<g opacity="0.2">
	<path fill="#FFFFFF" d="M700.4,3253.3h-3.1v-103.5c1.2-2.6,2.2-5.2,3.1-7.9V3253.3z"/>
	<path fill="#FFFFFF" d="M687.9,3253.3h-3.1v-83.4c1.1-1.4,2.1-2.7,3.1-4.1V3253.3z"/>
	<path fill="#FFFFFF" d="M675.4,3253.3h-3.1v-70c1.1-1,2.1-2,3.1-3V3253.3z"/>
	<path fill="#FFFFFF" d="M662.9,3253.3h-3.1v-59.6c1.1-0.8,2.1-1.6,3.1-2.4V3253.3z"/>
	<path fill="#FFFFFF" d="M650.4,3253.3h-3.1v-51c1.1-0.7,2.1-1.3,3.1-2V3253.3z"/>
	<path fill="#FFFFFF" d="M637.9,3253.3h-3.1v-43.8c1.1-0.6,2.1-1.1,3.1-1.7V3253.3z"/>
	<path fill="#FFFFFF" d="M625.4,3253.3h-3.1v-37.7c1-0.5,2.1-1,3.1-1.5V3253.3z"/>
	<path fill="#FFFFFF" d="M612.9,3253.3h-3.1v-32.3c1-0.4,2.1-0.8,3.1-1.3V3253.3z"/>
	<path fill="#FFFFFF" d="M600.4,3253.3h-3.1v-27.8c1-0.4,2.1-0.7,3.1-1.1V3253.3z"/>
	<path fill="#FFFFFF" d="M587.9,3253.3h-3.1v-23.8c1-0.3,2.1-0.6,3.1-0.9V3253.3z"/>
	<path fill="#FFFFFF" d="M575.4,3253.3h-3.1v-20.4c1-0.3,2.1-0.5,3.1-0.8V3253.3z"/>
	<path fill="#FFFFFF" d="M562.9,3253.3h-3.1v-17.6c1-0.2,2.1-0.4,3.1-0.7V3253.3z"/>
	<path fill="#FFFFFF" d="M550.4,3253.3h-3.1V3238c1-0.2,2.1-0.4,3.1-0.5V3253.3z"/>
	<path fill="#FFFFFF" d="M537.9,3253.3h-3.1v-13.4c1-0.1,2.1-0.3,3.1-0.4V3253.3z"/>
	<path fill="#FFFFFF" d="M525.4,3253.3h-3.1v-11.9c1-0.1,2.1-0.2,3.1-0.3V3253.3z"/>
	<path fill="#FFFFFF" d="M512.9,3253.3h-3.1v-10.9c1-0.1,2.1-0.1,3.1-0.2V3253.3z"/>
	<path fill="#FFFFFF" d="M500.4,3253.3h-3.1V3243c1,0,2.1-0.1,3.1-0.1V3253.3z"/>
	<path fill="#FFFFFF" d="M487.9,3253.3h-3.1v-10.1c1,0,2.1,0,3.1,0V3253.3z"/>
	<rect x="472.3" y="3243.2" fill="#FFFFFF" width="3.1" height="10.1"/>
	<rect x="459.8" y="3243.2" fill="#FFFFFF" width="3.1" height="10.1"/>
	<rect x="447.3" y="3243.2" fill="#FFFFFF" width="3.1" height="10.1"/>
	<rect x="434.8" y="3243.2" fill="#FFFFFF" width="3.1" height="10.1"/>
	<rect x="422.3" y="3243.2" fill="#FFFFFF" width="3.1" height="10.1"/>
	<rect x="409.8" y="3243.2" fill="#FFFFFF" width="3.1" height="10.1"/>
	<rect x="397.3" y="3243.2" fill="#FFFFFF" width="3.1" height="10.1"/>
	<rect x="384.8" y="3243.2" fill="#FFFFFF" width="3.1" height="10.1"/>
	<rect x="372.3" y="3243.2" fill="#FFFFFF" width="3.1" height="10.1"/>
	<rect x="359.8" y="3243.2" fill="#FFFFFF" width="3.1" height="10.1"/>
	<rect x="347.3" y="3243.2" fill="#FFFFFF" width="3.1" height="10.1"/>
	<rect x="334.8" y="3243.2" fill="#FFFFFF" width="3.1" height="10.1"/>
	<rect x="322.3" y="3243.2" fill="#FFFFFF" width="3.1" height="10.1"/>
	<rect x="309.8" y="3243.2" fill="#FFFFFF" width="3.1" height="10.1"/>
	<rect x="297.3" y="3243.2" fill="#FFFFFF" width="3.1" height="10.1"/>
	<rect x="284.8" y="3243.2" fill="#FFFFFF" width="3.1" height="10.1"/>
</g>
<g opacity="0.2">
	<path fill="#FFFFFF" d="M721.3,3253.3h3.1v-103.5c-1.2-2.6-2.2-5.2-3.1-7.9V3253.3z"/>
	<path fill="#FFFFFF" d="M733.8,3253.3h3.1v-83.4c-1.1-1.4-2.1-2.7-3.1-4.1V3253.3z"/>
	<path fill="#FFFFFF" d="M746.3,3253.3h3.1v-70c-1.1-1-2.1-2-3.1-3V3253.3z"/>
	<path fill="#FFFFFF" d="M758.8,3253.3h3.1v-59.6c-1.1-0.8-2.1-1.6-3.1-2.4V3253.3z"/>
	<path fill="#FFFFFF" d="M771.3,3253.3h3.1v-51c-1.1-0.7-2.1-1.3-3.1-2V3253.3z"/>
	<path fill="#FFFFFF" d="M783.8,3253.3h3.1v-43.8c-1.1-0.6-2.1-1.1-3.1-1.7V3253.3z"/>
	<path fill="#FFFFFF" d="M796.3,3253.3h3.1v-37.7c-1-0.5-2.1-1-3.1-1.5V3253.3z"/>
	<path fill="#FFFFFF" d="M808.8,3253.3h3.1v-32.3c-1-0.4-2.1-0.8-3.1-1.3V3253.3z"/>
	<path fill="#FFFFFF" d="M821.3,3253.3h3.1v-27.8c-1-0.4-2.1-0.7-3.1-1.1V3253.3z"/>
	<path fill="#FFFFFF" d="M833.8,3253.3h3.1v-23.8c-1-0.3-2.1-0.6-3.1-0.9V3253.3z"/>
	<path fill="#FFFFFF" d="M846.3,3253.3h3.1v-20.4c-1-0.3-2.1-0.5-3.1-0.8V3253.3z"/>
	<path fill="#FFFFFF" d="M858.8,3253.3h3.1v-17.6c-1-0.2-2.1-0.4-3.1-0.7V3253.3z"/>
	<path fill="#FFFFFF" d="M871.3,3253.3h3.1V3238c-1-0.2-2.1-0.4-3.1-0.5V3253.3z"/>
	<path fill="#FFFFFF" d="M883.8,3253.3h3.1v-13.4c-1-0.1-2.1-0.3-3.1-0.4V3253.3z"/>
	<path fill="#FFFFFF" d="M896.3,3253.3h3.1v-11.9c-1-0.1-2.1-0.2-3.1-0.3V3253.3z"/>
	<path fill="#FFFFFF" d="M908.8,3253.3h3.1v-10.9c-1-0.1-2.1-0.1-3.1-0.2V3253.3z"/>
	<path fill="#FFFFFF" d="M921.3,3253.3h3.1V3243c-1,0-2.1-0.1-3.1-0.1V3253.3z"/>
	<path fill="#FFFFFF" d="M933.8,3253.3h3.1v-10.1c-1,0-2.1,0-3.1,0V3253.3z"/>
	<rect x="946.3" y="3243.2" fill="#FFFFFF" width="3.1" height="10.1"/>
	<rect x="958.8" y="3243.2" fill="#FFFFFF" width="3.1" height="10.1"/>
	<rect x="971.3" y="3243.2" fill="#FFFFFF" width="3.1" height="10.1"/>
	<rect x="983.8" y="3243.2" fill="#FFFFFF" width="3.1" height="10.1"/>
	<rect x="996.3" y="3243.2" fill="#FFFFFF" width="3.1" height="10.1"/>
	<rect x="1008.8" y="3243.2" fill="#FFFFFF" width="3.1" height="10.1"/>
	<rect x="1021.3" y="3243.2" fill="#FFFFFF" width="3.1" height="10.1"/>
	<rect x="1033.8" y="3243.2" fill="#FFFFFF" width="3.1" height="10.1"/>
	<rect x="1046.3" y="3243.2" fill="#FFFFFF" width="3.1" height="10.1"/>
	<rect x="1058.8" y="3243.2" fill="#FFFFFF" width="3.1" height="10.1"/>
	<rect x="1071.3" y="3243.2" fill="#FFFFFF" width="3.1" height="10.1"/>
	<rect x="1083.8" y="3243.2" fill="#FFFFFF" width="3.1" height="10.1"/>
	<rect x="1096.3" y="3243.2" fill="#FFFFFF" width="3.1" height="10.1"/>
	<rect x="1108.8" y="3243.2" fill="#FFFFFF" width="3.1" height="10.1"/>
	<rect x="1121.3" y="3243.2" fill="#FFFFFF" width="3.1" height="10.1"/>
	<rect x="1133.8" y="3243.2" fill="#FFFFFF" width="3.1" height="10.1"/>
</g>
<g opacity="0.2">
	<line fill="none" stroke="#FFFFFF" stroke-width="3" stroke-miterlimit="10" x1="1365.5" y1="3277" x2="1365.5" y2="3304"/>
	<line fill="none" stroke="#FFFFFF" stroke-width="3" stroke-miterlimit="10" x1="1332.5" y1="3277" x2="1332.5" y2="3304"/>
	<line fill="none" stroke="#FFFFFF" stroke-width="3" stroke-miterlimit="10" x1="1299.5" y1="3277" x2="1299.5" y2="3304"/>
	<line fill="none" stroke="#FFFFFF" stroke-width="3" stroke-miterlimit="10" x1="1267.5" y1="3277" x2="1267.5" y2="3304"/>
	<line fill="none" stroke="#FFFFFF" stroke-width="3" stroke-miterlimit="10" x1="1234.5" y1="3277" x2="1234.5" y2="3304"/>
	<line fill="none" stroke="#FFFFFF" stroke-width="3" stroke-miterlimit="10" x1="1201.5" y1="3277" x2="1201.5" y2="3304"/>
	<line fill="none" stroke="#FFFFFF" stroke-width="3" stroke-miterlimit="10" x1="1169.5" y1="3277" x2="1169.5" y2="3304"/>
	<line fill="none" stroke="#FFFFFF" stroke-width="3" stroke-miterlimit="10" x1="1136.5" y1="3277" x2="1136.5" y2="3304"/>
	<line fill="none" stroke="#FFFFFF" stroke-width="3" stroke-miterlimit="10" x1="1103.5" y1="3277" x2="1103.5" y2="3304"/>
	<line fill="none" stroke="#FFFFFF" stroke-width="3" stroke-miterlimit="10" x1="1071.5" y1="3277" x2="1071.5" y2="3304"/>
	<line fill="none" stroke="#FFFFFF" stroke-width="3" stroke-miterlimit="10" x1="1038.5" y1="3277" x2="1038.5" y2="3304"/>
	<line fill="none" stroke="#FFFFFF" stroke-width="3" stroke-miterlimit="10" x1="1005.5" y1="3277" x2="1005.5" y2="3304"/>
	<line fill="none" stroke="#FFFFFF" stroke-width="3" stroke-miterlimit="10" x1="972.5" y1="3277" x2="972.5" y2="3304"/>
	<line fill="none" stroke="#FFFFFF" stroke-width="3" stroke-miterlimit="10" x1="939.5" y1="3277" x2="939.5" y2="3304"/>
	<line fill="none" stroke="#FFFFFF" stroke-width="3" stroke-miterlimit="10" x1="907.5" y1="3277" x2="907.5" y2="3304"/>
	<line fill="none" stroke="#FFFFFF" stroke-width="3" stroke-miterlimit="10" x1="874.5" y1="3277" x2="874.5" y2="3304"/>
	<line fill="none" stroke="#FFFFFF" stroke-width="3" stroke-miterlimit="10" x1="841.5" y1="3277" x2="841.5" y2="3304"/>
	<line fill="none" stroke="#FFFFFF" stroke-width="3" stroke-miterlimit="10" x1="809.5" y1="3277" x2="809.5" y2="3304"/>
	<line fill="none" stroke="#FFFFFF" stroke-width="3" stroke-miterlimit="10" x1="776.5" y1="3277" x2="776.5" y2="3304"/>
	<line fill="none" stroke="#FFFFFF" stroke-width="3" stroke-miterlimit="10" x1="743.5" y1="3277" x2="743.5" y2="3304"/>
	<line fill="none" stroke="#FFFFFF" stroke-width="3" stroke-miterlimit="10" x1="711.5" y1="3277" x2="711.5" y2="3304"/>
	<line fill="none" stroke="#FFFFFF" stroke-width="3" stroke-miterlimit="10" x1="678.5" y1="3277" x2="678.5" y2="3304"/>
	<line fill="none" stroke="#FFFFFF" stroke-width="3" stroke-miterlimit="10" x1="645.5" y1="3277" x2="645.5" y2="3304"/>
	<line fill="none" stroke="#FFFFFF" stroke-width="3" stroke-miterlimit="10" x1="612.5" y1="3277" x2="612.5" y2="3304"/>
	<line fill="none" stroke="#FFFFFF" stroke-width="3" stroke-miterlimit="10" x1="579.5" y1="3277" x2="579.5" y2="3304"/>
	<line fill="none" stroke="#FFFFFF" stroke-width="3" stroke-miterlimit="10" x1="547.5" y1="3277" x2="547.5" y2="3304"/>
	<line fill="none" stroke="#FFFFFF" stroke-width="3" stroke-miterlimit="10" x1="514.5" y1="3277" x2="514.5" y2="3304"/>
	<line fill="none" stroke="#FFFFFF" stroke-width="3" stroke-miterlimit="10" x1="481.5" y1="3277" x2="481.5" y2="3304"/>
	<line fill="none" stroke="#FFFFFF" stroke-width="3" stroke-miterlimit="10" x1="449.5" y1="3277" x2="449.5" y2="3304"/>
	<line fill="none" stroke="#FFFFFF" stroke-width="3" stroke-miterlimit="10" x1="416.5" y1="3277" x2="416.5" y2="3304"/>
	<line fill="none" stroke="#FFFFFF" stroke-width="3" stroke-miterlimit="10" x1="383.5" y1="3277" x2="383.5" y2="3304"/>
	<line fill="none" stroke="#FFFFFF" stroke-width="3" stroke-miterlimit="10" x1="351.5" y1="3277" x2="351.5" y2="3304"/>
	<line fill="none" stroke="#FFFFFF" stroke-width="3" stroke-miterlimit="10" x1="318.5" y1="3277" x2="318.5" y2="3304"/>
	<line fill="none" stroke="#FFFFFF" stroke-width="3" stroke-miterlimit="10" x1="285.5" y1="3277" x2="285.5" y2="3304"/>
</g>
<g opacity="0.2">
	<path fill="#FFFFFF" d="M1795.4,3253.3h-3.1v-103.5c1.2-2.6,2.2-5.2,3.1-7.9V3253.3z"/>
	<path fill="#FFFFFF" d="M1782.9,3253.3h-3.1v-83.4c1.1-1.4,2.1-2.7,3.1-4.1V3253.3z"/>
	<path fill="#FFFFFF" d="M1770.4,3253.3h-3.1v-70c1.1-1,2.1-2,3.1-3V3253.3z"/>
	<path fill="#FFFFFF" d="M1757.9,3253.3h-3.1v-59.6c1.1-0.8,2.1-1.6,3.1-2.4V3253.3z"/>
	<path fill="#FFFFFF" d="M1745.4,3253.3h-3.1v-51c1.1-0.7,2.1-1.3,3.1-2V3253.3z"/>
	<path fill="#FFFFFF" d="M1732.9,3253.3h-3.1v-43.8c1.1-0.6,2.1-1.1,3.1-1.7V3253.3z"/>
	<path fill="#FFFFFF" d="M1720.4,3253.3h-3.1v-37.7c1-0.5,2.1-1,3.1-1.5V3253.3z"/>
	<path fill="#FFFFFF" d="M1707.9,3253.3h-3.1v-32.3c1-0.4,2.1-0.8,3.1-1.3V3253.3z"/>
	<path fill="#FFFFFF" d="M1695.4,3253.3h-3.1v-27.8c1-0.4,2.1-0.7,3.1-1.1V3253.3z"/>
	<path fill="#FFFFFF" d="M1682.9,3253.3h-3.1v-23.8c1-0.3,2.1-0.6,3.1-0.9V3253.3z"/>
	<path fill="#FFFFFF" d="M1670.4,3253.3h-3.1v-20.4c1-0.3,2.1-0.5,3.1-0.8V3253.3z"/>
	<path fill="#FFFFFF" d="M1657.9,3253.3h-3.1v-17.6c1-0.2,2.1-0.4,3.1-0.7V3253.3z"/>
	<path fill="#FFFFFF" d="M1645.4,3253.3h-3.1V3238c1-0.2,2.1-0.4,3.1-0.5V3253.3z"/>
	<path fill="#FFFFFF" d="M1632.9,3253.3h-3.1v-13.4c1-0.1,2.1-0.3,3.1-0.4V3253.3z"/>
	<path fill="#FFFFFF" d="M1620.4,3253.3h-3.1v-11.9c1-0.1,2.1-0.2,3.1-0.3V3253.3z"/>
	<path fill="#FFFFFF" d="M1607.9,3253.3h-3.1v-10.9c1-0.1,2.1-0.1,3.1-0.2V3253.3z"/>
	<path fill="#FFFFFF" d="M1595.4,3253.3h-3.1V3243c1,0,2.1-0.1,3.1-0.1V3253.3z"/>
	<path fill="#FFFFFF" d="M1582.9,3253.3h-3.1v-10.1c1,0,2.1,0,3.1,0V3253.3z"/>
	<rect x="1567.3" y="3243.2" fill="#FFFFFF" width="3.1" height="10.1"/>
	<rect x="1554.8" y="3243.2" fill="#FFFFFF" width="3.1" height="10.1"/>
	<rect x="1542.3" y="3243.2" fill="#FFFFFF" width="3.1" height="10.1"/>
	<rect x="1529.8" y="3243.2" fill="#FFFFFF" width="3.1" height="10.1"/>
	<rect x="1517.3" y="3243.2" fill="#FFFFFF" width="3.1" height="10.1"/>
	<rect x="1504.8" y="3243.2" fill="#FFFFFF" width="3.1" height="10.1"/>
	<rect x="1492.3" y="3243.2" fill="#FFFFFF" width="3.1" height="10.1"/>
	<rect x="1479.8" y="3243.2" fill="#FFFFFF" width="3.1" height="10.1"/>
	<rect x="1467.3" y="3243.2" fill="#FFFFFF" width="3.1" height="10.1"/>
	<rect x="1454.8" y="3243.2" fill="#FFFFFF" width="3.1" height="10.1"/>
	<rect x="1442.3" y="3243.2" fill="#FFFFFF" width="3.1" height="10.1"/>
	<rect x="1429.8" y="3243.2" fill="#FFFFFF" width="3.1" height="10.1"/>
	<rect x="1417.3" y="3243.2" fill="#FFFFFF" width="3.1" height="10.1"/>
	<rect x="1404.8" y="3243.2" fill="#FFFFFF" width="3.1" height="10.1"/>
	<rect x="1392.3" y="3243.2" fill="#FFFFFF" width="3.1" height="10.1"/>
	<rect x="1379.8" y="3243.2" fill="#FFFFFF" width="3.1" height="10.1"/>
</g>
<g opacity="0.2">
	<path fill="#FFFFFF" d="M1816.3,3253.3h3.1v-103.5c-1.2-2.6-2.2-5.2-3.1-7.9V3253.3z"/>
	<path fill="#FFFFFF" d="M1828.8,3253.3h3.1v-83.4c-1.1-1.4-2.1-2.7-3.1-4.1V3253.3z"/>
	<path fill="#FFFFFF" d="M1841.3,3253.3h3.1v-70c-1.1-1-2.1-2-3.1-3V3253.3z"/>
	<path fill="#FFFFFF" d="M1853.8,3253.3h3.1v-59.6c-1.1-0.8-2.1-1.6-3.1-2.4V3253.3z"/>
	<path fill="#FFFFFF" d="M1866.3,3253.3h3.1v-51c-1.1-0.7-2.1-1.3-3.1-2V3253.3z"/>
	<path fill="#FFFFFF" d="M1878.8,3253.3h3.1v-43.8c-1.1-0.6-2.1-1.1-3.1-1.7V3253.3z"/>
	<path fill="#FFFFFF" d="M1891.3,3253.3h3.1v-37.7c-1-0.5-2.1-1-3.1-1.5V3253.3z"/>
	<path fill="#FFFFFF" d="M1903.8,3253.3h3.1v-32.3c-1-0.4-2.1-0.8-3.1-1.3V3253.3z"/>
	<path fill="#FFFFFF" d="M1916.3,3253.3h3.1v-27.8c-1-0.4-2.1-0.7-3.1-1.1V3253.3z"/>
	<path fill="#FFFFFF" d="M1928.8,3253.3h3.1v-23.8c-1-0.3-2.1-0.6-3.1-0.9V3253.3z"/>
	<path fill="#FFFFFF" d="M1941.3,3253.3h3.1v-20.4c-1-0.3-2.1-0.5-3.1-0.8V3253.3z"/>
	<path fill="#FFFFFF" d="M1953.8,3253.3h3.1v-17.6c-1-0.2-2.1-0.4-3.1-0.7V3253.3z"/>
	<path fill="#FFFFFF" d="M1966.3,3253.3h3.1V3238c-1-0.2-2.1-0.4-3.1-0.5V3253.3z"/>
	<path fill="#FFFFFF" d="M1978.8,3253.3h3.1v-13.4c-1-0.1-2.1-0.3-3.1-0.4V3253.3z"/>
	<path fill="#FFFFFF" d="M1991.3,3253.3h3.1v-11.9c-1-0.1-2.1-0.2-3.1-0.3V3253.3z"/>
	<path fill="#FFFFFF" d="M2003.8,3253.3h3.1v-10.9c-1-0.1-2.1-0.1-3.1-0.2V3253.3z"/>
	<path fill="#FFFFFF" d="M2016.3,3253.3h3.1V3243c-1,0-2.1-0.1-3.1-0.1V3253.3z"/>
	<path fill="#FFFFFF" d="M2028.8,3253.3h3.1v-10.1c-1,0-2.1,0-3.1,0V3253.3z"/>
	<rect x="2041.3" y="3243.2" fill="#FFFFFF" width="3.1" height="10.1"/>
	<rect x="2053.8" y="3243.2" fill="#FFFFFF" width="3.1" height="10.1"/>
	<rect x="2066.3" y="3243.2" fill="#FFFFFF" width="3.1" height="10.1"/>
	<rect x="2078.8" y="3243.2" fill="#FFFFFF" width="3.1" height="10.1"/>
	<rect x="2091.3" y="3243.2" fill="#FFFFFF" width="3.1" height="10.1"/>
	<rect x="2103.8" y="3243.2" fill="#FFFFFF" width="3.1" height="10.1"/>
	<rect x="2116.3" y="3243.2" fill="#FFFFFF" width="3.1" height="10.1"/>
	<rect x="2128.8" y="3243.2" fill="#FFFFFF" width="3.1" height="10.1"/>
	<rect x="2141.3" y="3243.2" fill="#FFFFFF" width="3.1" height="10.1"/>
	<rect x="2153.8" y="3243.2" fill="#FFFFFF" width="3.1" height="10.1"/>
	<rect x="2166.3" y="3243.2" fill="#FFFFFF" width="3.1" height="10.1"/>
	<rect x="2178.8" y="3243.2" fill="#FFFFFF" width="3.1" height="10.1"/>
	<rect x="2191.3" y="3243.2" fill="#FFFFFF" width="3.1" height="10.1"/>
	<rect x="2203.8" y="3243.2" fill="#FFFFFF" width="3.1" height="10.1"/>
	<rect x="2216.3" y="3243.2" fill="#FFFFFF" width="3.1" height="10.1"/>
	<rect x="2228.8" y="3243.2" fill="#FFFFFF" width="3.1" height="10.1"/>
</g>
<g opacity="0.2">
	<line fill="none" stroke="#FFFFFF" stroke-width="3" stroke-miterlimit="10" x1="2460.5" y1="3277" x2="2460.5" y2="3304"/>
	<line fill="none" stroke="#FFFFFF" stroke-width="3" stroke-miterlimit="10" x1="2427.5" y1="3277" x2="2427.5" y2="3304"/>
	<line fill="none" stroke="#FFFFFF" stroke-width="3" stroke-miterlimit="10" x1="2394.5" y1="3277" x2="2394.5" y2="3304"/>
	<line fill="none" stroke="#FFFFFF" stroke-width="3" stroke-miterlimit="10" x1="2362.5" y1="3277" x2="2362.5" y2="3304"/>
	<line fill="none" stroke="#FFFFFF" stroke-width="3" stroke-miterlimit="10" x1="2329.5" y1="3277" x2="2329.5" y2="3304"/>
	<line fill="none" stroke="#FFFFFF" stroke-width="3" stroke-miterlimit="10" x1="2296.5" y1="3277" x2="2296.5" y2="3304"/>
	<line fill="none" stroke="#FFFFFF" stroke-width="3" stroke-miterlimit="10" x1="2264.5" y1="3277" x2="2264.5" y2="3304"/>
	<line fill="none" stroke="#FFFFFF" stroke-width="3" stroke-miterlimit="10" x1="2231.5" y1="3277" x2="2231.5" y2="3304"/>
	<line fill="none" stroke="#FFFFFF" stroke-width="3" stroke-miterlimit="10" x1="2198.5" y1="3277" x2="2198.5" y2="3304"/>
	<line fill="none" stroke="#FFFFFF" stroke-width="3" stroke-miterlimit="10" x1="2166.5" y1="3277" x2="2166.5" y2="3304"/>
	<line fill="none" stroke="#FFFFFF" stroke-width="3" stroke-miterlimit="10" x1="2133.5" y1="3277" x2="2133.5" y2="3304"/>
	<line fill="none" stroke="#FFFFFF" stroke-width="3" stroke-miterlimit="10" x1="2100.5" y1="3277" x2="2100.5" y2="3304"/>
	<line fill="none" stroke="#FFFFFF" stroke-width="3" stroke-miterlimit="10" x1="2067.5" y1="3277" x2="2067.5" y2="3304"/>
	<line fill="none" stroke="#FFFFFF" stroke-width="3" stroke-miterlimit="10" x1="2034.5" y1="3277" x2="2034.5" y2="3304"/>
	<line fill="none" stroke="#FFFFFF" stroke-width="3" stroke-miterlimit="10" x1="2002.5" y1="3277" x2="2002.5" y2="3304"/>
	<line fill="none" stroke="#FFFFFF" stroke-width="3" stroke-miterlimit="10" x1="1969.5" y1="3277" x2="1969.5" y2="3304"/>
	<line fill="none" stroke="#FFFFFF" stroke-width="3" stroke-miterlimit="10" x1="1936.5" y1="3277" x2="1936.5" y2="3304"/>
	<line fill="none" stroke="#FFFFFF" stroke-width="3" stroke-miterlimit="10" x1="1904.5" y1="3277" x2="1904.5" y2="3304"/>
	<line fill="none" stroke="#FFFFFF" stroke-width="3" stroke-miterlimit="10" x1="1871.5" y1="3277" x2="1871.5" y2="3304"/>
	<line fill="none" stroke="#FFFFFF" stroke-width="3" stroke-miterlimit="10" x1="1838.5" y1="3277" x2="1838.5" y2="3304"/>
	<line fill="none" stroke="#FFFFFF" stroke-width="3" stroke-miterlimit="10" x1="1806.5" y1="3277" x2="1806.5" y2="3304"/>
	<line fill="none" stroke="#FFFFFF" stroke-width="3" stroke-miterlimit="10" x1="1773.5" y1="3277" x2="1773.5" y2="3304"/>
	<line fill="none" stroke="#FFFFFF" stroke-width="3" stroke-miterlimit="10" x1="1740.5" y1="3277" x2="1740.5" y2="3304"/>
	<line fill="none" stroke="#FFFFFF" stroke-width="3" stroke-miterlimit="10" x1="1707.5" y1="3277" x2="1707.5" y2="3304"/>
	<line fill="none" stroke="#FFFFFF" stroke-width="3" stroke-miterlimit="10" x1="1674.5" y1="3277" x2="1674.5" y2="3304"/>
	<line fill="none" stroke="#FFFFFF" stroke-width="3" stroke-miterlimit="10" x1="1642.5" y1="3277" x2="1642.5" y2="3304"/>
	<line fill="none" stroke="#FFFFFF" stroke-width="3" stroke-miterlimit="10" x1="1609.5" y1="3277" x2="1609.5" y2="3304"/>
	<line fill="none" stroke="#FFFFFF" stroke-width="3" stroke-miterlimit="10" x1="1576.5" y1="3277" x2="1576.5" y2="3304"/>
	<line fill="none" stroke="#FFFFFF" stroke-width="3" stroke-miterlimit="10" x1="1544.5" y1="3277" x2="1544.5" y2="3304"/>
	<line fill="none" stroke="#FFFFFF" stroke-width="3" stroke-miterlimit="10" x1="1511.5" y1="3277" x2="1511.5" y2="3304"/>
	<line fill="none" stroke="#FFFFFF" stroke-width="3" stroke-miterlimit="10" x1="1478.5" y1="3277" x2="1478.5" y2="3304"/>
	<line fill="none" stroke="#FFFFFF" stroke-width="3" stroke-miterlimit="10" x1="1446.5" y1="3277" x2="1446.5" y2="3304"/>
	<line fill="none" stroke="#FFFFFF" stroke-width="3" stroke-miterlimit="10" x1="1413.5" y1="3277" x2="1413.5" y2="3304"/>
	<line fill="none" stroke="#FFFFFF" stroke-width="3" stroke-miterlimit="10" x1="1380.5" y1="3277" x2="1380.5" y2="3304"/>
</g>
<circle opacity="0.2" fill="none" stroke="#FFFFFF" stroke-width="1.3333" stroke-miterlimit="10" cx="312.6" cy="1911.8" r="24"/>
<polygon opacity="0.2" fill="none" stroke="#FFFFFF" stroke-width="2" stroke-miterlimit="10" stroke-dasharray="6,6" points="
	1857.4,1962.7 1768.8,2013.8 1680.3,1962.7 1680.3,1860.4 1768.8,1809.3 1857.4,1860.4 "/>
<circle opacity="0.2" fill="none" stroke="#FFFFFF" stroke-width="1.3333" stroke-miterlimit="10" cx="1767.6" cy="1911.8" r="24"/>
<circle opacity="0.2" fill="#FFFFFF" stroke="#231F20" stroke-width="2" stroke-miterlimit="10" cx="96.6" cy="1908.8" r="24"/>
<circle opacity="0.4" fill="none" stroke="#FFFFFF" stroke-width="1.3333" stroke-miterlimit="10" cx="219.6" cy="2265.8" r="24"/>
<circle opacity="0.4" fill="none" stroke="#FFFFFF" stroke-width="1.3333" stroke-miterlimit="10" cx="219.6" cy="2355.8" r="24"/>
<circle opacity="0.4" fill="none" stroke="#FFFFFF" stroke-width="1.3333" stroke-miterlimit="10" cx="219.6" cy="2445.8" r="24"/>
<circle opacity="0.4" fill="none" stroke="#FFFFFF" stroke-width="1.3333" stroke-miterlimit="10" cx="219.6" cy="2535.8" r="24"/>
<circle opacity="0.2" fill="#FFFFFF" stroke="#000000" stroke-width="2" stroke-miterlimit="10" cx="219.6" cy="2625.8" r="24"/>
<circle opacity="0.4" fill="none" stroke="#FFFFFF" stroke-width="1.3333" stroke-miterlimit="10" cx="219.6" cy="2715.8" r="24"/>
<circle opacity="0.4" fill="none" stroke="#FFFFFF" stroke-width="1.3333" stroke-miterlimit="10" cx="219.6" cy="2805.8" r="24"/>
</svg>
