<?xml version="1.0" encoding="UTF-8" standalone="no"?>
<!-- Created with Inkscape (http://www.inkscape.org/) -->

<svg
   xmlns:dc="http://purl.org/dc/elements/1.1/"
   xmlns:cc="http://creativecommons.org/ns#"
   xmlns:rdf="http://www.w3.org/1999/02/22-rdf-syntax-ns#"
   xmlns:svg="http://www.w3.org/2000/svg"
   xmlns="http://www.w3.org/2000/svg"
   xmlns:sodipodi="http://sodipodi.sourceforge.net/DTD/sodipodi-0.dtd"
   xmlns:inkscape="http://www.inkscape.org/namespaces/inkscape"
   version="1.1"
   id="svg2"
   xml:space="preserve"
   width="73.789963"
   height="32.088703"
   viewBox="0 0 73.789964 32.088702"
   sodipodi:docname="teams-off.svg"
   inkscape:version="0.92.2 5c3e80d, 2017-08-06"
   inkscape:export-filename="/Users/adam/Dropbox/NMRBox/web-graphics/community-tab/teams-off.png"
   inkscape:export-xdpi="198.99001"
   inkscape:export-ydpi="198.99001"><metadata
     id="metadata8"><rdf:RDF><cc:Work
         rdf:about=""><dc:format>image/svg+xml</dc:format><dc:type
           rdf:resource="http://purl.org/dc/dcmitype/StillImage" /><dc:title></dc:title></cc:Work></rdf:RDF></metadata><defs
     id="defs6"><clipPath
       clipPathUnits="userSpaceOnUse"
       id="clipPath18"><path
         d="M 0,40 H 240 V 0 H 0 Z"
         id="path16"
         inkscape:connector-curvature="0" /></clipPath><clipPath
       clipPathUnits="userSpaceOnUse"
       id="clipPath70"><path
         d="M 0,40 H 240 V 0 H 0 Z"
         id="path68"
         inkscape:connector-curvature="0" /></clipPath></defs><sodipodi:namedview
     pagecolor="#ffffff"
     bordercolor="#666666"
     borderopacity="1"
     objecttolerance="10"
     gridtolerance="10"
     guidetolerance="10"
     inkscape:pageopacity="0"
     inkscape:pageshadow="2"
     inkscape:window-width="1935"
     inkscape:window-height="1121"
     id="namedview4"
     showgrid="false"
     inkscape:pagecheckerboard="true"
     inkscape:zoom="6.9412996"
     inkscape:cx="-24.093575"
     inkscape:cy="8.6483342"
     inkscape:window-x="159"
     inkscape:window-y="138"
     inkscape:window-maximized="0"
     inkscape:current-layer="g10"
     fit-margin-top="2"
     fit-margin-left="2"
     fit-margin-right="2"
     fit-margin-bottom="2" /><g
     id="g10"
     inkscape:groupmode="layer"
     inkscape:label="co-icon-events-240x40"
     transform="matrix(1.3333333,0,0,-1.3333333,-159.05974,52.943918)"><g
       aria-label="Teams"
       transform="scale(1,-1)"
       style="font-style:normal;font-variant:normal;font-weight:normal;font-stretch:normal;font-size:18px;line-height:125%;font-family:Calibri;-inkscape-font-specification:'Calibri, Normal';text-align:justify;letter-spacing:0px;word-spacing:0px;writing-mode:lr-tb;text-anchor:start;fill:#d3e6ea;fill-opacity:1;stroke:none;stroke-width:0.75px;stroke-linecap:butt;stroke-linejoin:miter;stroke-opacity:1"
       id="text948"><path
         d="m 146.23641,-28.672001 h -2.508 v -0.99 h 6.072 v 0.99 h -2.508 v 6.798 h -1.056 z"
         style="font-style:normal;font-variant:normal;font-weight:500;font-stretch:normal;font-size:11px;font-family:Avenir;-inkscape-font-specification:'Avenir, Medium';font-variant-ligatures:normal;font-variant-caps:normal;font-variant-numeric:normal;font-feature-settings:normal;text-align:justify;letter-spacing:-0.30000001px;writing-mode:lr-tb;text-anchor:start;fill:#d3e6ea;fill-opacity:1;stroke-width:0.75px"
         id="path832" /><path
         d="m 149.8952,-24.118001 q 0,0.341 0.143,0.627 0.154,0.275 0.396,0.473 0.242,0.198 0.561,0.308 0.319,0.11 0.66,0.11 0.462,0 0.803,-0.209 0.341,-0.22 0.627,-0.572 l 0.748,0.572 q -0.825,1.067 -2.31,1.067 -0.616,0 -1.122,-0.209 -0.495,-0.209 -0.847,-0.572 -0.341,-0.374 -0.528,-0.869 -0.187,-0.506 -0.187,-1.089 0,-0.583 0.198,-1.078 0.209,-0.506 0.561,-0.869 0.363,-0.374 0.858,-0.583 0.495,-0.209 1.078,-0.209 0.693,0 1.166,0.242 0.484,0.242 0.792,0.638 0.308,0.385 0.44,0.88 0.143,0.484 0.143,0.99 v 0.352 z m 3.124,-0.792 q -0.011,-0.33 -0.11,-0.605 -0.088,-0.275 -0.275,-0.473 -0.187,-0.209 -0.473,-0.319 -0.275,-0.121 -0.649,-0.121 -0.363,0 -0.671,0.143 -0.297,0.132 -0.506,0.352 -0.209,0.22 -0.33,0.495 -0.11,0.264 -0.11,0.528 z"
         style="font-style:normal;font-variant:normal;font-weight:500;font-stretch:normal;font-size:11px;font-family:Avenir;-inkscape-font-specification:'Avenir, Medium';font-variant-ligatures:normal;font-variant-caps:normal;font-variant-numeric:normal;font-feature-settings:normal;text-align:justify;letter-spacing:-0.30000001px;writing-mode:lr-tb;text-anchor:start;fill:#d3e6ea;fill-opacity:1;stroke-width:0.75px"
         id="path834" /><path
         d="m 154.99225,-26.450001 q 0.418,-0.385 0.968,-0.572 0.55,-0.198 1.1,-0.198 0.572,0 0.979,0.143 0.418,0.143 0.682,0.385 0.264,0.242 0.385,0.561 0.132,0.308 0.132,0.649 v 2.662 q 0,0.275 0.011,0.506 0.011,0.231 0.033,0.44 h -0.88 q -0.033,-0.396 -0.033,-0.792 h -0.022 q -0.33,0.506 -0.781,0.715 -0.451,0.209 -1.045,0.209 -0.363,0 -0.693,-0.099 -0.33,-0.099 -0.583,-0.297 -0.242,-0.198 -0.385,-0.484 -0.143,-0.297 -0.143,-0.682 0,-0.506 0.22,-0.847 0.231,-0.341 0.616,-0.55 0.396,-0.22 0.913,-0.308 0.528,-0.099 1.122,-0.099 h 0.726 v -0.22 q 0,-0.198 -0.077,-0.396 -0.077,-0.198 -0.231,-0.352 -0.154,-0.165 -0.385,-0.253 -0.231,-0.099 -0.55,-0.099 -0.286,0 -0.506,0.055 -0.209,0.055 -0.385,0.143 -0.176,0.077 -0.319,0.187 -0.143,0.11 -0.275,0.209 z m 2.794,2.068 q -0.352,0 -0.726,0.044 -0.363,0.033 -0.671,0.143 -0.297,0.11 -0.495,0.308 -0.187,0.198 -0.187,0.506 0,0.451 0.297,0.649 0.308,0.198 0.825,0.198 0.407,0 0.693,-0.132 0.286,-0.143 0.462,-0.363 0.176,-0.22 0.253,-0.484 0.077,-0.275 0.077,-0.539 v -0.33 z"
         style="font-style:normal;font-variant:normal;font-weight:500;font-stretch:normal;font-size:11px;font-family:Avenir;-inkscape-font-specification:'Avenir, Medium';font-variant-ligatures:normal;font-variant-caps:normal;font-variant-numeric:normal;font-feature-settings:normal;text-align:justify;letter-spacing:-0.30000001px;writing-mode:lr-tb;text-anchor:start;fill:#d3e6ea;fill-opacity:1;stroke-width:0.75px"
         id="path836" /><path
         d="m 160.38509,-27.088001 h 0.924 v 0.814 h 0.022 q 0.033,-0.11 0.165,-0.275 0.143,-0.165 0.352,-0.308 0.22,-0.154 0.506,-0.253 0.297,-0.11 0.649,-0.11 0.583,0 0.979,0.242 0.396,0.242 0.649,0.726 0.253,-0.484 0.715,-0.726 0.462,-0.242 0.935,-0.242 0.605,0 0.99,0.198 0.385,0.198 0.605,0.528 0.22,0.319 0.297,0.737 0.088,0.407 0.088,0.847 v 3.036 h -0.99 v -2.904 q 0,-0.297 -0.044,-0.572 -0.033,-0.275 -0.154,-0.484 -0.121,-0.209 -0.341,-0.33 -0.22,-0.132 -0.583,-0.132 -0.715,0 -1.023,0.44 -0.308,0.44 -0.308,1.133 v 2.849 h -0.99 v -2.728 q 0,-0.374 -0.044,-0.682 -0.033,-0.308 -0.154,-0.528 -0.11,-0.231 -0.33,-0.352 -0.209,-0.132 -0.572,-0.132 -0.264,0 -0.517,0.11 -0.242,0.099 -0.429,0.308 -0.187,0.209 -0.297,0.539 -0.11,0.319 -0.11,0.759 v 2.706 h -0.99 z"
         style="font-style:normal;font-variant:normal;font-weight:500;font-stretch:normal;font-size:11px;font-family:Avenir;-inkscape-font-specification:'Avenir, Medium';font-variant-ligatures:normal;font-variant-caps:normal;font-variant-numeric:normal;font-feature-settings:normal;text-align:justify;letter-spacing:-0.30000001px;writing-mode:lr-tb;text-anchor:start;fill:#d3e6ea;fill-opacity:1;stroke-width:0.75px"
         id="path838" /><path
         d="m 172.22428,-25.779001 q -0.176,-0.22 -0.44,-0.363 -0.253,-0.154 -0.627,-0.154 -0.352,0 -0.616,0.154 -0.253,0.143 -0.253,0.429 0,0.231 0.143,0.374 0.154,0.143 0.352,0.231 0.209,0.088 0.44,0.132 0.231,0.044 0.396,0.077 0.319,0.077 0.594,0.187 0.286,0.11 0.484,0.286 0.209,0.176 0.319,0.429 0.121,0.253 0.121,0.616 0,0.44 -0.187,0.759 -0.187,0.308 -0.484,0.506 -0.297,0.198 -0.682,0.286 -0.374,0.088 -0.759,0.088 -0.649,0 -1.144,-0.198 -0.484,-0.198 -0.869,-0.726 l 0.748,-0.616 q 0.242,0.242 0.539,0.429 0.297,0.187 0.726,0.187 0.187,0 0.374,-0.033 0.198,-0.044 0.341,-0.121 0.154,-0.088 0.242,-0.209 0.099,-0.132 0.099,-0.297 0,-0.22 -0.143,-0.363 -0.132,-0.143 -0.33,-0.22 -0.187,-0.088 -0.407,-0.132 -0.209,-0.055 -0.374,-0.088 -0.319,-0.077 -0.605,-0.176 -0.286,-0.099 -0.506,-0.264 -0.22,-0.165 -0.352,-0.418 -0.132,-0.253 -0.132,-0.627 0,-0.407 0.165,-0.704 0.176,-0.308 0.451,-0.506 0.286,-0.198 0.638,-0.297 0.363,-0.099 0.726,-0.099 0.528,0 1.012,0.198 0.484,0.198 0.77,0.66 z"
         style="font-style:normal;font-variant:normal;font-weight:500;font-stretch:normal;font-size:11px;font-family:Avenir;-inkscape-font-specification:'Avenir, Medium';font-variant-ligatures:normal;font-variant-caps:normal;font-variant-numeric:normal;font-feature-settings:normal;text-align:justify;letter-spacing:-0.30000001px;writing-mode:lr-tb;text-anchor:start;fill:#d3e6ea;fill-opacity:1;stroke-width:0.75px"
         id="path840" /></g><g
       id="g76"
       transform="translate(131.0443,27.9577)"><path
         d="m 0,0 c 0.585,-1.298 0.627,-2.613 0.125,-3.943 -0.502,-1.329 -1.403,-2.287 -2.701,-2.873 -1.298,-0.585 -2.615,-0.627 -3.95,-0.125 -1.335,0.501 -2.296,1.401 -2.881,2.7 -0.585,1.298 -0.625,2.615 -0.118,3.951 0.507,1.335 1.409,2.296 2.708,2.881 1.298,0.586 2.613,0.625 3.943,0.117 C -1.543,2.201 -0.585,1.298 0,0 Z"
         style="fill:none;stroke:#d3e6ea;stroke-width:0.75;stroke-linecap:butt;stroke-linejoin:miter;stroke-miterlimit:4;stroke-dasharray:none;stroke-opacity:1"
         id="path78"
         inkscape:connector-curvature="0" /></g><g
       id="g80"
       transform="translate(137.2914,32.0896)"><path
         d="m 0,0 c -0.646,-0.683 -1.438,-1.038 -2.375,-1.065 -0.938,-0.027 -1.749,0.282 -2.432,0.928 -0.683,0.646 -1.039,1.439 -1.067,2.38 -0.029,0.941 0.279,1.753 0.925,2.436 0.646,0.683 1.44,1.037 2.383,1.063 0.942,0.025 1.755,-0.285 2.438,-0.93 C 0.555,4.166 0.909,3.373 0.933,2.434 0.957,1.494 0.646,0.683 0,0 Z"
         style="fill:none;stroke:#d3e6ea;stroke-width:0.75;stroke-linecap:butt;stroke-linejoin:miter;stroke-miterlimit:4;stroke-dasharray:none;stroke-opacity:1"
         id="path82"
         inkscape:connector-curvature="0" /></g><g
       id="g84"
       transform="translate(139.1961,23.5342)"><path
         d="M 0,0 C -0.651,0.054 -1.187,0.329 -1.609,0.826 -2.03,1.323 -2.214,1.897 -2.16,2.547 -2.107,3.198 -1.831,3.735 -1.333,4.159 -0.835,4.583 -0.261,4.768 0.39,4.714 1.04,4.661 1.577,4.384 2,3.884 2.423,3.384 2.607,2.808 2.554,2.158 2.5,1.507 2.224,0.971 1.724,0.55 1.226,0.13 0.651,-0.054 0,0 Z"
         style="fill:none;stroke:#d3e6ea;stroke-width:0.75;stroke-linecap:butt;stroke-linejoin:miter;stroke-miterlimit:4;stroke-dasharray:none;stroke-opacity:1"
         id="path86"
         inkscape:connector-curvature="0" /></g><g
       id="g88"
       transform="translate(133.4954,17.8289)"><path
         d="m 0,0 c -0.337,0.256 -0.535,0.592 -0.593,1.011 -0.058,0.418 0.041,0.795 0.296,1.133 0.256,0.337 0.593,0.535 1.013,0.594 C 1.135,2.797 1.514,2.698 1.851,2.443 2.188,2.187 2.385,1.85 2.443,1.429 2.5,1.009 2.401,0.63 2.146,0.293 1.891,-0.044 1.553,-0.241 1.134,-0.298 0.715,-0.355 0.337,-0.255 0,0 Z"
         style="fill:none;stroke:#d3e6ea;stroke-width:0.75;stroke-linecap:butt;stroke-linejoin:miter;stroke-miterlimit:4;stroke-dasharray:none;stroke-opacity:1"
         id="path90"
         inkscape:connector-curvature="0" /></g><g
       id="g92"
       transform="translate(131.3892,25.885)"><path
         d="M 0,0 H 5.517"
         style="fill:none;stroke:#d3e6ea;stroke-width:0.75;stroke-linecap:butt;stroke-linejoin:miter;stroke-miterlimit:4;stroke-dasharray:none;stroke-opacity:1"
         id="path94"
         inkscape:connector-curvature="0" /></g><g
       id="g96"
       transform="translate(136.3257,31.5033)"><path
         d="M 0,0 1.95,-3.791"
         style="fill:none;stroke:#d3e6ea;stroke-width:0.75;stroke-linecap:butt;stroke-linejoin:miter;stroke-miterlimit:4;stroke-dasharray:none;stroke-opacity:1"
         id="path98"
         inkscape:connector-curvature="0" /></g><g
       id="g100"
       transform="translate(137.9398,24.2429)"><path
         d="M 0,0 -2.698,-4.142"
         style="fill:none;stroke:#d3e6ea;stroke-width:0.75;stroke-linecap:butt;stroke-linejoin:miter;stroke-miterlimit:4;stroke-dasharray:none;stroke-opacity:1"
         id="path102"
         inkscape:connector-curvature="0" /></g></g></svg>