<?xml version="1.0" encoding="UTF-8" standalone="no"?>
<!-- Generator: Adobe Illustrator 17.1.0, SVG Export Plug-In . SVG Version: 6.00 Build 0)  -->

<svg
   xmlns:dc="http://purl.org/dc/elements/1.1/"
   xmlns:cc="http://creativecommons.org/ns#"
   xmlns:rdf="http://www.w3.org/1999/02/22-rdf-syntax-ns#"
   xmlns:svg="http://www.w3.org/2000/svg"
   xmlns="http://www.w3.org/2000/svg"
   xmlns:sodipodi="http://sodipodi.sourceforge.net/DTD/sodipodi-0.dtd"
   xmlns:inkscape="http://www.inkscape.org/namespaces/inkscape"
   version="1.1"
   id="Layer_1"
   x="0px"
   y="0px"
   width="113.81709"
   height="19.533894"
   viewBox="0 0 113.81709 19.533894"
   enable-background="new 0 0 240 40"
   xml:space="preserve"
   sodipodi:docname="rp-icon-intrinsically-menu.svg"
   inkscape:version="0.92.3 (2405546, 2018-03-11)"><metadata
   id="metadata237"><rdf:RDF><cc:Work
       rdf:about=""><dc:format>image/svg+xml</dc:format><dc:type
         rdf:resource="http://purl.org/dc/dcmitype/StillImage" /><dc:title></dc:title></cc:Work></rdf:RDF></metadata><defs
   id="defs235" /><sodipodi:namedview
   pagecolor="#ffffff"
   bordercolor="#666666"
   borderopacity="1"
   objecttolerance="10"
   gridtolerance="10"
   guidetolerance="10"
   inkscape:pageopacity="0"
   inkscape:pageshadow="2"
   inkscape:window-width="721"
   inkscape:window-height="480"
   id="namedview233"
   showgrid="false"
   fit-margin-top="0"
   fit-margin-left="0"
   fit-margin-right="0"
   fit-margin-bottom="0"
   inkscape:zoom="1.425"
   inkscape:cx="140.58095"
   inkscape:cy="2.2044504"
   inkscape:window-x="3548"
   inkscape:window-y="735"
   inkscape:window-maximized="0"
   inkscape:current-layer="Layer_1" />
































<g
   id="g1108"
   transform="translate(-0.96025427,-2.6705564)"><path
     id="path2"
     d="M 13.241828,19.988323"
     stroke-miterlimit="10"
     inkscape:connector-curvature="0"
     style="fill:none;stroke:#42bdae;stroke-width:0.98938167;stroke-miterlimit:10" /><polyline
     id="polyline4"
     points="1.1495405,13.094594   4.7058163,13.094594 7.2280388,17.4632168 4.7058163,21.8318577 1.1495405,21.8318577 "
     stroke-miterlimit="10"
     style="fill:none;stroke:#37b34a;stroke-width:0.74518532;stroke-miterlimit:10" /><polyline
     id="polyline6"
     points="12.5072298,7.8368979   8.9509535,7.8368979 6.4287314,12.2055216 8.9509535,16.5741615 12.5072298,16.5741615 "
     stroke-miterlimit="10"
     style="fill:none;stroke:#37b34a;stroke-width:0.74518532;stroke-miterlimit:10" /><g
     id="g28">
	<g
   id="g26">
		
			<line
   id="line8"
   y2="3.1706064"
   x2="1.4673755"
   y1="3.1706064"
   x1="1.4673755"
   stroke-miterlimit="10"
   style="fill:none;stroke:#37b34a;stroke-linecap:round;stroke-miterlimit:10" />
		
			<line
   id="line10"
   y2="3.1706064"
   x2="3.9951184"
   y1="3.1706064"
   x1="3.1525373"
   stroke-miterlimit="10"
   style="fill:none;stroke:#37b34a;stroke-linecap:round;stroke-miterlimit:10;stroke-dasharray:0, 1.6851619" />
		
			<line
   id="line12"
   y2="3.1706064"
   x2="4.8376994"
   y1="3.1706064"
   x1="4.8376994"
   stroke-miterlimit="10"
   style="fill:none;stroke:#37b34a;stroke-linecap:round;stroke-miterlimit:10" />
		
			<line
   id="line14"
   y2="6.620769"
   x2="6.829649"
   y1="4.5506716"
   x1="5.6344795"
   stroke-miterlimit="10"
   style="fill:none;stroke:#37b34a;stroke-linecap:round;stroke-miterlimit:10;stroke-dasharray:0, 1.5935614" />
		
			<line
   id="line16"
   y2="7.3108015"
   x2="7.2280393"
   y1="7.3108015"
   x1="7.2280393"
   stroke-miterlimit="10"
   style="fill:none;stroke:#37b34a;stroke-linecap:round;stroke-miterlimit:10" />
		
			<line
   id="line18"
   y2="10.760978"
   x2="5.2360897"
   y1="8.6908722"
   x1="6.4312592"
   stroke-miterlimit="10"
   style="fill:none;stroke:#37b34a;stroke-linecap:round;stroke-miterlimit:10;stroke-dasharray:0, 1.5935658" />
		
			<line
   id="line20"
   y2="11.451013"
   x2="4.8376994"
   y1="11.451013"
   x1="4.8376994"
   stroke-miterlimit="10"
   style="fill:none;stroke:#37b34a;stroke-linecap:round;stroke-miterlimit:10" />
		
			<line
   id="line22"
   y2="11.451013"
   x2="2.3099566"
   y1="11.451013"
   x1="3.1525373"
   stroke-miterlimit="10"
   style="fill:none;stroke:#37b34a;stroke-linecap:round;stroke-miterlimit:10;stroke-dasharray:0, 1.6851619" />
		
			<line
   id="line24"
   y2="11.451013"
   x2="1.4673755"
   y1="11.451013"
   x1="1.4673755"
   stroke-miterlimit="10"
   style="fill:none;stroke:#37b34a;stroke-linecap:round;stroke-miterlimit:10" />
	</g>
</g><path
     id="path30"
     d="M 2.7575917,12.770997"
     stroke-miterlimit="10"
     inkscape:connector-curvature="0"
     style="fill:none;stroke:#000000;stroke-width:0.50046808;stroke-miterlimit:10" /><g
     id="g94">
	<path
   id="path32"
   d="m 15.107422,3.5043945 h 1.056152 V 11.29248 h -1.056152 z"
   inkscape:connector-curvature="0"
   style="fill:#777777" />
	<path
   id="path34"
   d="m 17.362305,6.0786133 h 0.989746 v 0.8027344 h 0.02197 c 0.125,-0.2783203 0.341309,-0.5039062 0.649415,-0.6767578 0.307617,-0.171875 0.663574,-0.2578125 1.066894,-0.2578125 0.249023,0 0.489258,0.038086 0.720215,0.1152344 0.231445,0.077148 0.432617,0.1962891 0.60498,0.3574219 0.172364,0.1611328 0.310059,0.3681641 0.412598,0.6210938 0.102539,0.2539062 0.154297,0.5527344 0.154297,0.8964844 V 11.292481 H 20.992188 V 8.2124023 c 0,-0.2421875 -0.03271,-0.4492188 -0.09912,-0.6210938 C 20.827148,7.4184569 20.739258,7.2797851 20.629395,7.1733397 20.519043,7.0668945 20.392578,6.9897461 20.25,6.9418945 c -0.143066,-0.047852 -0.291504,-0.071289 -0.445801,-0.071289 -0.205566,0 -0.395996,0.033203 -0.571777,0.098633 -0.17627,0.066406 -0.330078,0.1708984 -0.462402,0.3134766 -0.131836,0.1435547 -0.234375,0.3251953 -0.307618,0.5449219 -0.07373,0.2197266 -0.110351,0.4804688 -0.110351,0.78125 v 2.683594 h -0.989746 z"
   inkscape:connector-curvature="0"
   style="fill:#777777" />
	<path
   id="path36"
   d="m 25.722656,6.9360352 h -1.418945 v 2.3652344 c 0,0.1474609 0.0034,0.2919922 0.01074,0.4345703 0.0073,0.1435547 0.03516,0.2714841 0.08252,0.3847661 0.04785,0.114257 0.121093,0.206054 0.220214,0.27539 0.09912,0.06934 0.243653,0.104492 0.434571,0.104492 0.117187,0 0.238281,-0.01074 0.362793,-0.0332 0.124511,-0.02148 0.238281,-0.0625 0.341308,-0.121094 v 0.902344 c -0.117676,0.06641 -0.269531,0.111328 -0.456543,0.137696 -0.187011,0.02539 -0.332031,0.03808 -0.43457,0.03808 -0.381348,0 -0.676758,-0.05273 -0.885742,-0.159179 -0.208985,-0.106446 -0.362793,-0.244141 -0.461914,-0.413086 -0.09912,-0.167969 -0.157715,-0.357422 -0.175782,-0.566406 -0.01855,-0.208985 -0.02783,-0.4189457 -0.02783,-0.6318363 V 6.9360352 H 22.169433 V 6.0786133 h 1.144043 V 4.6157227 h 0.990235 v 1.4628906 h 1.418945 z"
   inkscape:connector-curvature="0"
   style="fill:#777777" />
	<path
   id="path38"
   d="m 26.448242,6.0786133 h 0.989746 v 0.8027344 h 0.02197 c 0.06641,-0.1386719 0.154297,-0.265625 0.26416,-0.3789062 0.109863,-0.1142578 0.23291,-0.2109375 0.368652,-0.2919922 0.135743,-0.081055 0.28418,-0.1445312 0.445313,-0.1923828 0.161133,-0.047852 0.322754,-0.071289 0.483887,-0.071289 0.161621,0 0.308105,0.021484 0.440429,0.06543 l -0.04443,1.0673828 c -0.08057,-0.022461 -0.161133,-0.040039 -0.241699,-0.054687 -0.08105,-0.014648 -0.161622,-0.022461 -0.242188,-0.022461 -0.483887,0 -0.854492,0.1357422 -1.11084,0.4072266 -0.256836,0.2714844 -0.385254,0.6923828 -0.385254,1.2646484 v 2.6181637 h -0.989746 z"
   inkscape:connector-curvature="0"
   style="fill:#777777" />
	<path
   id="path40"
   d="m 29.814453,4.2084961 c 0,-0.1982422 0.07129,-0.3681641 0.214356,-0.5117188 0.143066,-0.1425781 0.313476,-0.2138672 0.51123,-0.2138672 0.198242,0 0.368652,0.071289 0.511719,0.2138672 0.143066,0.1435547 0.214355,0.3134766 0.214355,0.5117188 0,0.1982422 -0.07129,0.3681641 -0.214355,0.5117188 -0.143067,0.1425781 -0.313477,0.2138671 -0.511719,0.2138671 -0.197754,0 -0.368164,-0.071289 -0.51123,-0.2138672 C 29.885742,4.5766602 29.814453,4.4067383 29.814453,4.2084961 Z m 0.230957,1.8701172 h 0.989746 V 11.292481 H 30.04541 Z"
   inkscape:connector-curvature="0"
   style="fill:#777777" />
	<path
   id="path42"
   d="m 32.058106,6.0786133 h 0.989746 v 0.8027344 h 0.02197 c 0.125,-0.2783203 0.341309,-0.5039062 0.649414,-0.6767578 0.307618,-0.171875 0.663575,-0.2578125 1.066895,-0.2578125 0.249023,0 0.489258,0.038086 0.720215,0.1152344 0.231445,0.077148 0.432617,0.1962891 0.60498,0.3574219 0.172364,0.1611328 0.310059,0.3681641 0.412598,0.6210938 0.102539,0.2539062 0.154297,0.5527344 0.154297,0.8964844 V 11.292481 H 35.687988 V 8.2124023 c 0,-0.2421875 -0.03271,-0.4492188 -0.09912,-0.6210938 C 35.522949,7.4184569 35.435059,7.2797851 35.325195,7.1733397 35.214844,7.0668944 35.088379,6.9897459 34.945801,6.9418944 34.802734,6.894043 34.654297,6.8706055 34.5,6.8706055 c -0.205566,0 -0.395996,0.033203 -0.571777,0.098633 -0.17627,0.066406 -0.330078,0.1708984 -0.462403,0.3134766 -0.131836,0.1435547 -0.234375,0.3251953 -0.307617,0.5449219 -0.07373,0.2197266 -0.110351,0.4804688 -0.110351,0.78125 v 2.683594 H 32.058105 V 6.0786133 Z"
   inkscape:connector-curvature="0"
   style="fill:#777777" />
	<path
   id="path44"
   d="M 40.396484,7.387207 C 40.279297,7.2407226 40.134277,7.1176758 39.961914,7.0190429 39.789551,6.92041 39.578613,6.8706054 39.32959,6.8706054 c -0.234863,0 -0.438477,0.049805 -0.61084,0.1484375 -0.172363,0.098633 -0.258301,0.2441406 -0.258301,0.4345703 0,0.1542969 0.04932,0.2783203 0.148438,0.3740234 0.09912,0.095703 0.216308,0.171875 0.352051,0.2304688 0.135742,0.05957 0.280761,0.1035156 0.43457,0.1328125 0.153808,0.029297 0.286133,0.054687 0.395996,0.076172 0.212402,0.051758 0.412598,0.1142578 0.599609,0.1875 0.187012,0.073242 0.348145,0.1689454 0.483887,0.2861329 0.135742,0.1171875 0.242187,0.2597656 0.318848,0.4287109 0.07715,0.1689453 0.115722,0.3740234 0.115722,0.6162109 0,0.2929684 -0.0625,0.5439454 -0.187011,0.7529294 -0.125,0.208985 -0.286133,0.379883 -0.483887,0.511719 -0.198242,0.131836 -0.423828,0.227539 -0.676758,0.286133 -0.252929,0.05859 -0.507812,0.08789 -0.764648,0.08789 -0.432617,0 -0.812012,-0.06543 -1.138184,-0.198242 -0.32666,-0.131836 -0.618164,-0.374023 -0.874511,-0.725586 l 0.748046,-0.6162105 c 0.161133,0.1611325 0.340821,0.3046875 0.539063,0.4296875 0.197754,0.124023 0.439941,0.186523 0.725586,0.186523 0.125,0 0.251465,-0.0127 0.379883,-0.03809 0.127929,-0.02637 0.241699,-0.06641 0.34082,-0.121093 0.09912,-0.05566 0.179687,-0.125 0.242187,-0.208985 0.06201,-0.08496 0.09326,-0.1816403 0.09326,-0.2919919 0,-0.1464844 -0.0459,-0.2675781 -0.137695,-0.3632812 C 40.024411,9.3823199 39.914061,9.307125 39.786131,9.2524375 39.657715,9.1967773 39.521973,9.152832 39.378906,9.1196289 39.23584,9.0874023 39.109375,9.059082 38.999512,9.0375977 38.786621,8.9858399 38.584961,8.9272461 38.394531,8.8618165 38.203613,8.7954103 38.035156,8.7075196 37.888672,8.5971681 37.741699,8.4877931 37.624512,8.3481447 37.536621,8.1791993 37.448242,8.0112305 37.404297,7.8022462 37.404297,7.5522462 c 0,-0.2705078 0.05713,-0.5078125 0.170898,-0.7089844 0.113282,-0.2021484 0.263672,-0.3691406 0.450684,-0.5009766 0.187012,-0.131836 0.399902,-0.2304688 0.638184,-0.296875 0.238281,-0.066406 0.478515,-0.098633 0.720214,-0.098633 0.352051,0 0.689453,0.06543 1.012207,0.1972656 0.322754,0.1328125 0.579102,0.3525391 0.77002,0.6601562 z"
   inkscape:connector-curvature="0"
   style="fill:#777777" />
	<path
   id="path46"
   d="m 41.804199,4.2084961 c 0,-0.1982422 0.07129,-0.3681641 0.214356,-0.5117188 0.143066,-0.1425781 0.313476,-0.2138672 0.51123,-0.2138672 0.198242,0 0.368653,0.071289 0.511719,0.2138672 0.143066,0.1435547 0.214356,0.3134766 0.214356,0.5117188 0,0.1982422 -0.07129,0.3681641 -0.214356,0.5117188 -0.143067,0.1425781 -0.313477,0.2138671 -0.511719,0.2138671 -0.197754,0 -0.368164,-0.071289 -0.51123,-0.2138672 C 41.875488,4.5766602 41.804199,4.4067383 41.804199,4.2084961 Z m 0.230957,1.8701172 h 0.989746 v 5.2138677 h -0.989746 z"
   inkscape:connector-curvature="0"
   style="fill:#777777" />
	<path
   id="path48"
   d="M 47.776856,7.4643555 C 47.593262,7.2739258 47.400879,7.1293946 47.199219,7.0297852 46.997559,6.9311524 46.757324,6.8813477 46.479004,6.8813477 c -0.271484,0 -0.508301,0.049805 -0.709473,0.1484375 -0.202148,0.099609 -0.370605,0.2353516 -0.506347,0.4072266 -0.135743,0.171875 -0.238282,0.3701172 -0.308106,0.59375 -0.06934,0.2236328 -0.104492,0.4570312 -0.104492,0.6982422 0,0.2421875 0.04053,0.4716797 0.121094,0.6875 0.08057,0.2167969 0.194336,0.4052734 0.341308,0.5673828 0.146485,0.1611332 0.322266,0.2871092 0.527832,0.3789062 0.205078,0.0918 0.436035,0.137695 0.692871,0.137695 0.278809,0 0.51709,-0.0498 0.715332,-0.148437 0.197754,-0.09863 0.38086,-0.244141 0.549805,-0.4345705 l 0.704102,0.7041015 c -0.256836,0.286133 -0.555664,0.491211 -0.896485,0.616211 -0.341308,0.124023 -0.702636,0.186523 -1.083496,0.186523 -0.40332,0 -0.771973,-0.06543 -1.105469,-0.198242 C 45.083496,11.094238 44.795898,10.909668 44.553711,10.671387 44.312012,10.433106 44.125,10.146973 43.992676,9.8129883 43.86084,9.4790039 43.794922,9.1108399 43.794922,8.7075195 c 0,-0.4033204 0.06592,-0.7734375 0.197754,-1.1113281 0.132324,-0.3369141 0.317383,-0.6269531 0.555664,-0.8691406 0.238281,-0.2412109 0.524414,-0.4306641 0.85791,-0.5664062 0.333496,-0.1357421 0.705566,-0.203125 1.116699,-0.203125 0.38086,0 0.746094,0.067383 1.094238,0.203125 0.348145,0.1357422 0.650879,0.3427734 0.907715,0.6220703 z"
   inkscape:connector-curvature="0"
   style="fill:#777777" />
	<path
   id="path50"
   d="m 48.821777,6.7163086 c 0.278809,-0.2568359 0.601074,-0.4492188 0.967774,-0.5771484 0.366699,-0.1279296 0.733398,-0.1923828 1.100097,-0.1923828 0.381348,0 0.709473,0.047852 0.984375,0.1425781 0.275391,0.095703 0.500977,0.2236328 0.676758,0.3847656 0.175781,0.1621094 0.306153,0.3466797 0.390625,0.5556641 0.08398,0.2089844 0.126465,0.4277344 0.126465,0.6542969 v 2.6621099 c 0,0.183593 0.0034,0.352539 0.01074,0.505859 0.0073,0.154297 0.01856,0.300781 0.0332,0.44043 h -0.879882 c -0.02197,-0.263672 -0.0332,-0.528321 -0.0332,-0.791993 h -0.02197 c -0.220215,0.336915 -0.480469,0.576172 -0.780762,0.714844 -0.300781,0.139649 -0.649414,0.208985 -1.04541,0.208985 -0.241699,0 -0.472656,-0.0332 -0.692871,-0.09863 -0.219727,-0.06641 -0.412598,-0.165039 -0.577637,-0.296875 -0.165039,-0.132813 -0.294922,-0.295899 -0.390137,-0.490235 -0.0957,-0.193359 -0.143066,-0.418945 -0.143066,-0.6757808 0,-0.3378906 0.0752,-0.6201172 0.225586,-0.8476562 0.149902,-0.2265625 0.355469,-0.4121094 0.615723,-0.5546875 0.260253,-0.1435547 0.564453,-0.2460938 0.913085,-0.3085938 0.348145,-0.0625 0.720704,-0.09375 1.1167,-0.09375 h 0.725586 V 7.8383789 c 0,-0.1318359 -0.02539,-0.2636719 -0.07666,-0.3955078 C 52.015137,7.3100586 51.938476,7.190918 51.835937,7.0854492 51.73291,6.9790039 51.60498,6.894043 51.450683,6.831543 51.296875,6.77002 51.113281,6.73877 50.900879,6.73877 c -0.190918,0 -0.357422,0.018555 -0.500489,0.054687 -0.143066,0.037109 -0.273437,0.083008 -0.390625,0.1376953 -0.117187,0.054687 -0.223632,0.1191406 -0.318847,0.1923828 -0.0957,0.073242 -0.187012,0.1425781 -0.275391,0.2089844 z m 2.793946,2.0683594 c -0.234864,0 -0.475098,0.012695 -0.720703,0.038086 -0.245606,0.026367 -0.469239,0.075195 -0.670899,0.1484375 -0.20166,0.073242 -0.366699,0.1767578 -0.494629,0.3085938 -0.128418,0.1318359 -0.192871,0.3007812 -0.192871,0.5058594 0,0.3007813 0.101074,0.5166013 0.302735,0.6484373 0.20166,0.132813 0.474609,0.198242 0.819335,0.198242 0.271485,0 0.502442,-0.0459 0.692872,-0.137695 0.190918,-0.09082 0.344726,-0.209961 0.462402,-0.357422 0.117187,-0.1464842 0.201172,-0.3095701 0.25293,-0.4892576 0.05127,-0.1796875 0.07666,-0.3574219 0.07666,-0.5332031 V 8.784668 Z"
   inkscape:connector-curvature="0"
   style="fill:#777777" />
	<path
   id="path52"
   d="m 54.036133,2.9760742 h 0.989746 V 11.29248 h -0.989746 z"
   inkscape:connector-curvature="0"
   style="fill:#777777" />
	<path
   id="path54"
   d="m 56.125977,2.9760742 h 0.989746 V 11.29248 h -0.989746 z"
   inkscape:connector-curvature="0"
   style="fill:#777777" />
	<path
   id="path56"
   d="m 57.522461,6.0786133 h 1.144043 l 1.543945,4.0703127 h 0.02246 l 1.480957,-4.0703127 h 1.055664 l -2.475098,6.3359377 c -0.0874,0.227539 -0.17871,0.43457 -0.273925,0.621094 -0.09473,0.1875 -0.208008,0.346679 -0.339356,0.478515 -0.131348,0.131836 -0.290039,0.235352 -0.476562,0.308594 -0.186524,0.07324 -0.414551,0.109375 -0.684571,0.109375 -0.145996,0 -0.293945,-0.0088 -0.443847,-0.02734 -0.149414,-0.01855 -0.293946,-0.05664 -0.432618,-0.115234 l 0.120606,-0.902344 c 0.196289,0.08105 0.393066,0.121094 0.589844,0.121094 0.15332,0 0.282226,-0.02051 0.388183,-0.06055 0.105469,-0.04004 0.196289,-0.09863 0.27295,-0.175781 0.07666,-0.07715 0.140625,-0.166992 0.191406,-0.269531 0.05078,-0.102539 0.102051,-0.219727 0.15332,-0.351563 l 0.320313,-0.825195 z"
   inkscape:connector-curvature="0"
   style="fill:#777777" />
	<path
   id="path58"
   d="m 65.673828,3.5043945 h 2.716797 c 0.549805,0 1.032227,0.0625 1.446289,0.1875 0.414551,0.1240234 0.773926,0.2910156 1.078125,0.5 0.304199,0.2089844 0.557129,0.4492188 0.759277,0.7207031 0.201661,0.2714844 0.36084,0.5498047 0.478516,0.8359375 0.117187,0.2861328 0.201172,0.5722656 0.25293,0.8583984 0.05127,0.2851562 0.07666,0.5498047 0.07666,0.7919922 0,0.4980469 -0.0918,0.9804688 -0.274902,1.4462891 -0.183106,0.4658203 -0.45459,0.8798828 -0.813965,1.2431642 -0.359375,0.362305 -0.804688,0.654297 -1.336426,0.874023 -0.531738,0.219727 -1.145996,0.330078 -1.842285,0.330078 h -2.541016 z m 1.055664,6.7978515 h 1.331055 c 0.447265,0 0.870605,-0.06055 1.270508,-0.18164 0.399902,-0.1210942 0.75,-0.3017583 1.050781,-0.5439458 0.300293,-0.2421875 0.538574,-0.5449219 0.714844,-0.9072266 0.175781,-0.3632812 0.26416,-0.7871094 0.26416,-1.2705078 0,-0.25 -0.04053,-0.5410156 -0.121094,-0.875 C 71.158691,6.1899414 71.006836,5.8735352 70.783203,5.5727539 70.55957,5.2719726 70.249512,5.0170898 69.853516,4.8081055 69.45752,4.5991212 68.944336,4.4946289 68.313477,4.4946289 h -1.583985 z"
   inkscape:connector-curvature="0"
   style="fill:#777777" />
	<path
   id="path60"
   d="m 73.043945,4.2084961 c 0,-0.1982422 0.07129,-0.3681641 0.214356,-0.5117188 0.143066,-0.1425781 0.313476,-0.2138672 0.51123,-0.2138672 0.198242,0 0.368653,0.071289 0.511719,0.2138672 0.143066,0.1435547 0.214356,0.3134766 0.214356,0.5117188 0,0.1982422 -0.07129,0.3681641 -0.214356,0.5117187 -0.143066,0.1425782 -0.313477,0.2138672 -0.511719,0.2138672 -0.197754,0 -0.368164,-0.071289 -0.51123,-0.2138672 C 73.115234,4.5766602 73.043945,4.4067383 73.043945,4.2084961 Z m 0.230957,1.8701172 h 0.989746 v 5.2138677 h -0.989746 z"
   inkscape:connector-curvature="0"
   style="fill:#777777" />
	<path
   id="path62"
   d="M 78.05957,7.387207 C 77.942383,7.2407227 77.797363,7.1176758 77.625,7.019043 77.452637,6.9204102 77.241699,6.8706055 76.992676,6.8706055 c -0.234864,0 -0.438477,0.049805 -0.61084,0.1484375 -0.172363,0.098633 -0.258301,0.2441406 -0.258301,0.4345703 0,0.1542969 0.04932,0.2783203 0.148438,0.3740234 0.09912,0.095703 0.216308,0.171875 0.352051,0.2304688 0.135742,0.05957 0.280761,0.1035156 0.43457,0.1328125 0.153808,0.029297 0.286133,0.054687 0.395996,0.076172 0.212402,0.051758 0.412598,0.1142578 0.599609,0.1875 0.187012,0.073242 0.348145,0.1689453 0.483887,0.2861328 0.135742,0.1171875 0.242188,0.2597656 0.318848,0.4287109 0.07715,0.1689453 0.115722,0.3740234 0.115722,0.6162109 0,0.2929684 -0.0625,0.5439454 -0.187011,0.7529294 -0.125,0.208985 -0.286133,0.379883 -0.483887,0.511719 -0.198242,0.131836 -0.423828,0.227539 -0.676758,0.286133 -0.252929,0.05859 -0.507812,0.08789 -0.764648,0.08789 -0.432617,0 -0.812012,-0.06543 -1.138184,-0.198242 -0.32666,-0.131836 -0.618164,-0.374023 -0.874511,-0.725586 l 0.748046,-0.6162105 c 0.161133,0.1611325 0.340821,0.3046875 0.539063,0.4296875 0.197754,0.124023 0.439941,0.186523 0.725586,0.186523 0.125,0 0.251465,-0.0127 0.379883,-0.03809 0.127929,-0.02637 0.241699,-0.06641 0.34082,-0.121093 0.09912,-0.05566 0.179687,-0.125 0.242187,-0.208985 0.06201,-0.08496 0.09326,-0.1816403 0.09326,-0.2919919 0,-0.1464844 -0.0459,-0.2675781 -0.137695,-0.3632812 C 77.6875,9.3823242 77.577148,9.3071289 77.449219,9.2524414 77.320801,9.1967773 77.185059,9.152832 77.041992,9.1196289 76.898926,9.0874023 76.772461,9.059082 76.662598,9.0375977 76.449707,8.9858399 76.248047,8.9272461 76.057617,8.8618165 75.866699,8.7954103 75.698242,8.7075196 75.551758,8.5971681 75.404785,8.4877931 75.287598,8.3481447 75.199707,8.1791993 75.111328,8.0112305 75.067383,7.8022462 75.067383,7.5522462 c 0,-0.2705078 0.05713,-0.5078125 0.170898,-0.7089844 0.113281,-0.2021484 0.263672,-0.3691406 0.450684,-0.5009766 0.187011,-0.131836 0.399902,-0.2304688 0.638183,-0.296875 0.238282,-0.066406 0.478516,-0.098633 0.720215,-0.098633 0.352051,0 0.689453,0.06543 1.012207,0.1972656 0.322754,0.1328125 0.579102,0.3525391 0.77002,0.6601562 z"
   inkscape:connector-curvature="0"
   style="fill:#777777" />
	<path
   id="path64"
   d="m 79.368652,8.6850586 c 0,-0.3808594 0.07129,-0.7363281 0.214356,-1.0664062 0.143066,-0.3300781 0.339355,-0.6201172 0.588379,-0.8691406 0.249511,-0.2490234 0.542968,-0.4453125 0.880371,-0.5888672 0.336914,-0.1425781 0.700195,-0.2138672 1.088867,-0.2138672 0.388672,0 0.751953,0.071289 1.089844,0.2138672 0.335937,0.1435547 0.628906,0.3398438 0.878906,0.5888672 0.25,0.2490234 0.445312,0.5390625 0.587891,0.8691406 0.144531,0.3300781 0.214843,0.6855469 0.214843,1.0664062 0,0.3818359 -0.07031,0.7392578 -0.214843,1.0732422 -0.142579,0.3330082 -0.337891,0.6230472 -0.587891,0.8691402 -0.25,0.245118 -0.542969,0.439453 -0.878906,0.583008 -0.337891,0.142578 -0.701172,0.213867 -1.089844,0.213867 -0.388672,0 -0.751953,-0.07129 -1.088867,-0.213867 -0.337403,-0.143554 -0.63086,-0.33789 -0.880371,-0.583008 C 79.922363,10.381348 79.726074,10.091309 79.583008,9.7583008 79.439941,9.4243164 79.368652,9.0668945 79.368652,8.6850586 Z m 1.055664,0 c 0,0.2646484 0.04053,0.5087891 0.121094,0.7314453 0.08057,0.2246094 0.194336,0.4150391 0.341309,0.5722656 0.146484,0.1582035 0.326172,0.2822265 0.538574,0.3740235 0.212891,0.0918 0.451172,0.137695 0.715332,0.137695 0.263672,0 0.501953,-0.0459 0.714844,-0.137695 0.21289,-0.0918 0.392578,-0.21582 0.539062,-0.3740235 0.146485,-0.1572266 0.259766,-0.3476562 0.341797,-0.5722656 0.08008,-0.2226562 0.121094,-0.4667969 0.121094,-0.7314453 0,-0.2636719 -0.04102,-0.5068359 -0.121094,-0.7314453 C 83.654297,7.7299805 83.541016,7.5395508 83.394531,7.3823242 83.248047,7.2241211 83.068359,7.1000976 82.855469,7.0083008 82.642578,6.916504 82.404297,6.8706055 82.140625,6.8706055 c -0.26416,0 -0.502441,0.045898 -0.715332,0.1376953 -0.212402,0.091797 -0.39209,0.2158203 -0.538574,0.3740234 -0.146973,0.1572266 -0.260742,0.3476562 -0.341309,0.5712891 -0.08057,0.2246094 -0.121094,0.4677734 -0.121094,0.7314453 z"
   inkscape:connector-curvature="0"
   style="fill:#777777" />
	<path
   id="path66"
   d="m 85.605469,6.0786133 h 0.990234 v 0.8027344 h 0.02148 c 0.06641,-0.1386719 0.154297,-0.265625 0.264648,-0.3789062 0.109375,-0.1142579 0.232422,-0.2109376 0.368164,-0.2919923 0.135742,-0.081055 0.28418,-0.1445312 0.445312,-0.1923828 0.161133,-0.047852 0.322266,-0.071289 0.484375,-0.071289 0.161133,0 0.307618,0.021484 0.439454,0.06543 l -0.04395,1.0673828 c -0.08008,-0.022461 -0.161133,-0.040039 -0.242187,-0.054687 -0.08008,-0.014648 -0.161133,-0.022461 -0.241211,-0.022461 -0.484375,0 -0.854492,0.1357422 -1.111328,0.4072266 -0.256836,0.2714844 -0.384766,0.6923828 -0.384766,1.2646484 V 11.292482 H 85.60546 Z"
   inkscape:connector-curvature="0"
   style="fill:#777777" />
	<path
   id="path68"
   d="m 94.152344,11.292481 h -0.989258 v -0.748047 h -0.02246 c -0.19043,0.279297 -0.453125,0.495117 -0.786133,0.649414 -0.333984,0.15332 -0.676758,0.230469 -1.02832,0.230469 -0.404297,0 -0.768555,-0.06934 -1.094727,-0.208985 -0.326172,-0.138672 -0.605469,-0.333008 -0.835937,-0.583008 -0.231446,-0.249023 -0.40918,-0.539062 -0.53418,-0.8691403 -0.124023,-0.3300781 -0.186523,-0.6884766 -0.186523,-1.078125 0,-0.3886719 0.0625,-0.7490234 0.186523,-1.0830078 0.125,-0.3339844 0.302734,-0.6230469 0.53418,-0.8691406 0.230469,-0.2451172 0.509765,-0.4384766 0.835937,-0.5771484 0.326172,-0.1396484 0.69043,-0.2089844 1.094727,-0.2089844 0.373047,0 0.725586,0.078125 1.055664,0.2363281 0.330078,0.1572266 0.583008,0.3720703 0.758789,0.6435547 h 0.02246 V 2.9760742 h 0.989258 z m -2.706055,-0.791993 c 0.264648,0 0.50293,-0.0459 0.71582,-0.137695 0.211915,-0.0918 0.391602,-0.21582 0.539063,-0.3740234 0.146484,-0.1572266 0.259765,-0.3476562 0.34082,-0.5722656 0.08008,-0.2226562 0.121094,-0.4667969 0.121094,-0.7314453 0,-0.2636719 -0.04102,-0.5068359 -0.121094,-0.7314453 C 92.960938,7.7299806 92.847656,7.5395509 92.701172,7.3823243 92.553711,7.2241212 92.374024,7.1000977 92.162109,7.0083009 91.949219,6.916504 91.710937,6.8706056 91.446289,6.8706056 c -0.263672,0 -0.501953,0.045898 -0.714844,0.1376953 -0.21289,0.091797 -0.392578,0.2158203 -0.539062,0.3740234 -0.146485,0.1572266 -0.259766,0.3476562 -0.340821,0.5712891 -0.08105,0.2246094 -0.121093,0.4677734 -0.121093,0.7314453 0,0.2646484 0.04004,0.5087891 0.121093,0.7314453 0.08105,0.2246094 0.194336,0.4150391 0.340821,0.5722656 0.146484,0.1582034 0.326172,0.2822264 0.539062,0.3740234 0.212891,0.0918 0.451172,0.137695 0.714844,0.137695 z"
   inkscape:connector-curvature="0"
   style="fill:#777777" />
	<path
   id="path70"
   d="m 95.84668,9.0483398 c 0,0.2275391 0.0498,0.4345703 0.148437,0.6220703 0.09863,0.1865234 0.229492,0.3457029 0.390625,0.4785159 0.161133,0.131836 0.347656,0.234375 0.560547,0.307617 0.212891,0.07324 0.432617,0.110352 0.660156,0.110352 0.308594,0 0.576172,-0.07227 0.802735,-0.214844 0.227539,-0.143555 0.436523,-0.332031 0.626953,-0.5664065 L 99.78418,10.35791 c -0.549805,0.710938 -1.319336,1.066406 -2.309571,1.066406 -0.411132,0 -0.783203,-0.06934 -1.11621,-0.208984 -0.333985,-0.138672 -0.616211,-0.332031 -0.847657,-0.577149 -0.230468,-0.246093 -0.408203,-0.535156 -0.533203,-0.8691401 -0.125,-0.3339844 -0.186523,-0.6943359 -0.186523,-1.0839844 0,-0.3886719 0.06738,-0.7490234 0.203125,-1.0830078 0.135742,-0.3339844 0.322265,-0.6230469 0.560547,-0.8691406 0.238281,-0.2451172 0.522461,-0.4384766 0.852539,-0.5771484 0.330078,-0.1396484 0.689453,-0.2089844 1.078125,-0.2089844 0.461914,0 0.852539,0.080078 1.171875,0.2421875 0.319336,0.1611328 0.581055,0.3720703 0.786133,0.6318359 0.205078,0.2607422 0.353515,0.5537109 0.445312,0.8798828 0.0918,0.3271484 0.137698,0.6582031 0.137698,0.9960938 v 0.3515625 z m 3.124023,-0.7919921 c -0.0078,-0.2197266 -0.04199,-0.421875 -0.104492,-0.6044922 -0.0625,-0.1835938 -0.15625,-0.3427734 -0.280274,-0.4785156 -0.125,-0.1357422 -0.28125,-0.2421875 -0.467773,-0.3193359 -0.1875,-0.077148 -0.405273,-0.1152344 -0.654297,-0.1152344 -0.242187,0 -0.463867,0.045898 -0.666015,0.1376953 -0.201172,0.09082 -0.372071,0.2099609 -0.511719,0.3574219 -0.138672,0.1464844 -0.247071,0.3095703 -0.324219,0.4892578 -0.07715,0.1796875 -0.115234,0.3574219 -0.115234,0.5332031 z"
   inkscape:connector-curvature="0"
   style="fill:#777777" />
	<path
   id="path72"
   d="m 100.66406,6.0786133 h 0.99024 v 0.8027344 h 0.0215 c 0.0664,-0.1386719 0.1543,-0.265625 0.26465,-0.3789062 0.10937,-0.1142578 0.23242,-0.2109375 0.36816,-0.2919922 0.13575,-0.081055 0.28418,-0.1445312 0.44532,-0.1923828 0.16113,-0.047852 0.32226,-0.071289 0.48437,-0.071289 0.16113,0 0.30762,0.021484 0.43945,0.06543 l -0.0439,1.0673828 c -0.0801,-0.022461 -0.16113,-0.040039 -0.24219,-0.054687 -0.0801,-0.014648 -0.16113,-0.022461 -0.24121,-0.022461 -0.48437,0 -0.85449,0.1357422 -1.11133,0.4072266 -0.25683,0.2714844 -0.38476,0.6923828 -0.38476,1.2646484 v 2.6181647 h -0.99024 V 6.0786133 Z"
   inkscape:connector-curvature="0"
   style="fill:#777777" />
	<path
   id="path74"
   d="m 104.73438,9.0483398 c 0,0.2275391 0.0498,0.4345703 0.14843,0.6220703 0.0986,0.1865234 0.22949,0.3457029 0.39063,0.4785159 0.16113,0.131836 0.34765,0.234375 0.56054,0.307617 0.2129,0.07324 0.43262,0.110352 0.66016,0.110352 0.30859,0 0.57617,-0.07227 0.80274,-0.214844 0.22753,-0.143555 0.43652,-0.332031 0.62695,-0.5664065 l 0.74805,0.5722655 c -0.54981,0.710938 -1.31934,1.066406 -2.30958,1.066406 -0.41113,0 -0.7832,-0.06934 -1.11621,-0.208984 -0.33398,-0.138672 -0.61621,-0.332031 -0.84765,-0.577149 -0.23047,-0.246093 -0.40821,-0.535156 -0.53321,-0.8691401 -0.125,-0.3339844 -0.18652,-0.6943359 -0.18652,-1.0839844 0,-0.3886719 0.0674,-0.7490234 0.20313,-1.0830078 0.13574,-0.3339844 0.32226,-0.6230469 0.56054,-0.8691406 0.23828,-0.2451172 0.52246,-0.4384766 0.85254,-0.5771484 0.33008,-0.1396484 0.68946,-0.2089844 1.07813,-0.2089844 0.46191,0 0.85254,0.080078 1.17187,0.2421875 0.31934,0.1611328 0.58106,0.3720703 0.78613,0.6318359 0.20508,0.2607422 0.35352,0.5537109 0.44532,0.8798828 0.0918,0.3271484 0.13769,0.6582031 0.13769,0.9960938 v 0.3515625 z m 3.12402,-0.7919921 c -0.008,-0.2197266 -0.042,-0.421875 -0.10449,-0.6044922 -0.0625,-0.1835938 -0.15625,-0.3427734 -0.28028,-0.4785156 -0.125,-0.1357422 -0.28125,-0.2421875 -0.46777,-0.3193359 -0.1875,-0.077148 -0.40527,-0.1152344 -0.6543,-0.1152344 -0.24218,0 -0.46386,0.045898 -0.66601,0.1376953 -0.20117,0.09082 -0.37207,0.2099609 -0.51172,0.3574219 -0.13867,0.1464844 -0.24707,0.3095703 -0.32422,0.4892578 -0.0772,0.1796875 -0.11524,0.3574219 -0.11524,0.5332031 z"
   inkscape:connector-curvature="0"
   style="fill:#777777" />
	<path
   id="path76"
   d="m 114.77734,11.292481 h -0.98925 v -0.748047 h -0.0225 c -0.19043,0.279297 -0.45313,0.495117 -0.78614,0.649414 -0.33398,0.15332 -0.67676,0.230469 -1.02832,0.230469 -0.40429,0 -0.76855,-0.06934 -1.09472,-0.208985 -0.32618,-0.138672 -0.60547,-0.333008 -0.83594,-0.583008 -0.23145,-0.249023 -0.40918,-0.539062 -0.53418,-0.8691403 -0.12403,-0.3300781 -0.18653,-0.6884766 -0.18653,-1.078125 0,-0.3886719 0.0625,-0.7490234 0.18653,-1.0830078 0.125,-0.3339844 0.30273,-0.6230469 0.53418,-0.8691406 0.23047,-0.2451172 0.50976,-0.4384766 0.83594,-0.5771484 0.32617,-0.1396484 0.69043,-0.2089844 1.09472,-0.2089844 0.37305,0 0.72559,0.078125 1.05567,0.2363281 0.33007,0.1572266 0.583,0.3720703 0.75879,0.6435547 h 0.0225 V 2.9760742 h 0.98925 z m -2.70605,-0.791993 c 0.26465,0 0.50293,-0.0459 0.71582,-0.137695 0.21191,-0.0918 0.3916,-0.21582 0.53906,-0.3740234 0.14649,-0.1572266 0.25977,-0.3476562 0.34082,-0.5722656 0.0801,-0.2226562 0.1211,-0.4667969 0.1211,-0.7314453 0,-0.2636719 -0.041,-0.5068359 -0.1211,-0.7314453 -0.0811,-0.2236328 -0.19433,-0.4140625 -0.34082,-0.5712891 -0.14746,-0.1582031 -0.32715,-0.2822266 -0.53906,-0.3740234 -0.21289,-0.091797 -0.45117,-0.1376953 -0.71582,-0.1376953 -0.26367,0 -0.50195,0.045898 -0.71484,0.1376953 -0.2129,0.091797 -0.39258,0.2158203 -0.53907,0.3740234 -0.14648,0.1572266 -0.25976,0.3476562 -0.34082,0.5712891 -0.0811,0.2246094 -0.12109,0.4677734 -0.12109,0.7314453 0,0.2646484 0.04,0.5087891 0.12109,0.7314453 0.0811,0.2246094 0.19434,0.4150391 0.34082,0.5722656 0.14649,0.1582034 0.32617,0.2822264 0.53907,0.3740234 0.21289,0.0918 0.45117,0.137695 0.71484,0.137695 z"
   inkscape:connector-curvature="0"
   style="fill:#777777" />
	<path
   id="path78"
   d="m 15.107422,14.004395 h 2.739258 c 0.498535,0 0.909179,0.06836 1.231933,0.203125 0.322266,0.136718 0.577149,0.308593 0.76416,0.517578 0.187012,0.208984 0.317383,0.443359 0.390625,0.704101 0.07324,0.259766 0.109864,0.511719 0.109864,0.75293 0,0.242187 -0.03662,0.493164 -0.109864,0.753906 -0.07324,0.260742 -0.203613,0.495117 -0.390625,0.704102 -0.187011,0.208984 -0.441894,0.380859 -0.76416,0.516601 -0.322754,0.135742 -0.733398,0.204102 -1.231933,0.204102 h -1.683106 v 3.431152 h -1.056152 z m 1.056152,3.43164 h 1.385742 c 0.205567,0 0.408692,-0.01563 0.61084,-0.04883 0.201172,-0.0332 0.38086,-0.09375 0.538574,-0.181641 0.157715,-0.08789 0.28418,-0.214843 0.379883,-0.379882 0.09521,-0.165039 0.143067,-0.378907 0.143067,-0.643555 0,-0.263672 -0.04785,-0.478516 -0.143067,-0.643555 -0.0957,-0.165039 -0.222168,-0.291015 -0.379883,-0.378906 -0.157714,-0.08789 -0.337402,-0.148437 -0.538574,-0.181641 -0.202148,-0.0332 -0.405273,-0.0498 -0.61084,-0.0498 h -1.385742 z"
   inkscape:connector-curvature="0"
   style="fill:#777777" />
	<path
   id="path80"
   d="m 20.387207,16.578613 h 0.989746 v 0.802735 h 0.02197 c 0.06641,-0.138672 0.154297,-0.265625 0.26416,-0.378907 0.109863,-0.114257 0.23291,-0.210937 0.368652,-0.291992 0.135742,-0.08105 0.28418,-0.144531 0.445313,-0.192383 0.161133,-0.04785 0.322754,-0.07129 0.483886,-0.07129 0.161622,0 0.308106,0.02148 0.44043,0.06543 l -0.04443,1.067383 c -0.08057,-0.02246 -0.161133,-0.04004 -0.2417,-0.05469 -0.08105,-0.01465 -0.161621,-0.02246 -0.242187,-0.02246 -0.483887,0 -0.854492,0.135743 -1.11084,0.407227 -0.256836,0.271484 -0.385254,0.692383 -0.385254,1.264648 v 2.617676 h -0.989746 z"
   inkscape:connector-curvature="0"
   style="fill:#777777" />
	<path
   id="path82"
   d="m 23.280273,19.185059 c 0,-0.38086 0.07129,-0.736329 0.214356,-1.066407 0.143066,-0.330078 0.339355,-0.620117 0.588379,-0.86914 0.249511,-0.249024 0.542969,-0.445313 0.880371,-0.588867 0.336914,-0.142579 0.700195,-0.213868 1.088867,-0.213868 0.388672,0 0.751465,0.07129 1.088867,0.213868 0.337403,0.143554 0.63086,0.339843 0.879883,0.588867 0.249512,0.249023 0.445801,0.539062 0.588867,0.86914 0.142578,0.330079 0.214356,0.685547 0.214356,1.066407 0,0.381835 -0.07178,0.739257 -0.214356,1.073242 -0.143066,0.333008 -0.339355,0.623047 -0.588867,0.868652 -0.249023,0.245117 -0.54248,0.439453 -0.879883,0.583008 -0.337402,0.142578 -0.700195,0.213867 -1.088867,0.213867 -0.388672,0 -0.751953,-0.07129 -1.088867,-0.213867 -0.337402,-0.143555 -0.63086,-0.337891 -0.880371,-0.583008 -0.249024,-0.245605 -0.445313,-0.535644 -0.588379,-0.868652 -0.143067,-0.333985 -0.214356,-0.691407 -0.214356,-1.073242 z m 1.055664,0 c 0,0.264648 0.04053,0.508789 0.121094,0.731445 0.08057,0.224609 0.194336,0.415039 0.341309,0.572266 0.146484,0.158203 0.326172,0.282226 0.538574,0.374023 C 25.549805,20.95459 25.788086,21 26.052246,21 c 0.263672,0 0.501953,-0.04541 0.714844,-0.137207 0.212891,-0.0918 0.39209,-0.21582 0.539062,-0.374023 0.146485,-0.157227 0.260254,-0.347657 0.340821,-0.572266 0.08057,-0.222656 0.121094,-0.466797 0.121094,-0.731445 0,-0.263672 -0.04053,-0.506836 -0.121094,-0.731446 -0.08057,-0.223632 -0.194336,-0.414062 -0.340821,-0.571289 -0.146972,-0.158203 -0.326171,-0.282226 -0.539062,-0.374023 -0.212891,-0.0918 -0.451172,-0.137695 -0.714844,-0.137695 -0.26416,0 -0.502441,0.0459 -0.715332,0.137695 -0.212402,0.0918 -0.39209,0.21582 -0.538574,0.374023 -0.146973,0.157227 -0.260742,0.347656 -0.341309,0.571289 -0.08057,0.22461 -0.121094,0.467774 -0.121094,0.731446 z"
   inkscape:connector-curvature="0"
   style="fill:#777777" />
	<path
   id="path84"
   d="m 32.003418,17.436035 h -1.418945 v 2.365235 c 0,0.14746 0.0034,0.291992 0.01074,0.43457 0.0073,0.143555 0.03516,0.271484 0.08252,0.384765 0.04785,0.114258 0.121094,0.206055 0.220215,0.275391 C 30.99707,20.965332 31.141602,21 31.332519,21 c 0.117188,0 0.238282,-0.01025 0.362793,-0.03271 0.124512,-0.02148 0.238282,-0.0625 0.341309,-0.121094 v 0.901856 c -0.117676,0.06641 -0.269531,0.111328 -0.456543,0.137695 -0.187012,0.02539 -0.332031,0.03809 -0.43457,0.03809 -0.381348,0 -0.676758,-0.05273 -0.885742,-0.15918 -0.208985,-0.106445 -0.362793,-0.24414 -0.461915,-0.413086 -0.09912,-0.167968 -0.157714,-0.356933 -0.175781,-0.565918 -0.01855,-0.208984 -0.02783,-0.418945 -0.02783,-0.631835 v -2.717774 h -1.144043 v -0.857422 h 1.144043 v -1.46289 h 0.990235 v 1.46289 h 1.418945 v 0.857422 z"
   inkscape:connector-curvature="0"
   style="fill:#777777" />
	<path
   id="path86"
   d="m 33.103027,19.54834 c 0,0.227539 0.04932,0.43457 0.148438,0.62207 0.09912,0.186523 0.229004,0.345703 0.390625,0.478516 0.161133,0.131836 0.348144,0.234375 0.561035,0.307617 0.212402,0.07275 0.432617,0.109863 0.659668,0.109863 0.308106,0 0.575684,-0.07178 0.803223,-0.214355 0.227051,-0.143555 0.436035,-0.332031 0.626953,-0.566406 l 0.748047,0.572265 c -0.550293,0.710449 -1.320313,1.065918 -2.310059,1.065918 -0.410644,0 -0.782715,-0.06934 -1.116699,-0.208984 -0.333496,-0.138672 -0.615723,-0.332031 -0.84668,-0.577149 -0.230957,-0.245605 -0.40918,-0.534668 -0.533691,-0.868652 -0.124512,-0.333984 -0.187012,-0.694336 -0.187012,-1.083984 0,-0.388672 0.06787,-0.749024 0.203613,-1.083008 0.135743,-0.333985 0.322754,-0.623047 0.561036,-0.869141 0.238281,-0.245117 0.52246,-0.438476 0.852539,-0.577148 0.330078,-0.139649 0.688965,-0.208985 1.077636,-0.208985 0.462403,0 0.85254,0.08008 1.171875,0.242188 0.318848,0.161133 0.581055,0.37207 0.786133,0.631836 0.205567,0.260742 0.354004,0.553711 0.445801,0.879883 0.09131,0.327148 0.137207,0.658203 0.137207,0.996093 v 0.351563 z m 3.124024,-0.791992 c -0.0073,-0.219727 -0.04248,-0.421875 -0.104492,-0.604493 -0.0625,-0.183593 -0.15625,-0.342773 -0.280762,-0.478515 -0.124512,-0.135742 -0.280274,-0.242188 -0.467285,-0.319336 -0.187012,-0.07715 -0.405274,-0.115234 -0.654786,-0.115234 -0.241699,0 -0.463867,0.0459 -0.665527,0.137695 -0.20166,0.09082 -0.37207,0.209961 -0.51123,0.357422 -0.139649,0.146484 -0.247559,0.30957 -0.324707,0.489258 -0.07666,0.179687 -0.115235,0.357421 -0.115235,0.533203 z"
   inkscape:connector-curvature="0"
   style="fill:#777777" />
	<path
   id="path88"
   d="m 37.767578,14.708496 c 0,-0.198242 0.07129,-0.368164 0.214356,-0.511719 0.143066,-0.142578 0.313476,-0.213867 0.51123,-0.213867 0.198242,0 0.368652,0.07129 0.511719,0.213867 0.143066,0.143555 0.214355,0.313477 0.214355,0.511719 0,0.198242 -0.07129,0.368164 -0.214355,0.511719 -0.143066,0.142578 -0.313477,0.213867 -0.511719,0.213867 -0.197754,0 -0.368164,-0.07129 -0.51123,-0.213867 -0.143067,-0.143555 -0.214356,-0.313477 -0.214356,-0.511719 z m 0.230957,1.870117 h 0.989746 v 5.213379 h -0.989746 z"
   inkscape:connector-curvature="0"
   style="fill:#777777" />
	<path
   id="path90"
   d="m 40.011231,16.578613 h 0.989746 v 0.802735 h 0.02197 c 0.125,-0.278321 0.341309,-0.503907 0.649414,-0.676758 0.307618,-0.171875 0.663575,-0.257813 1.066895,-0.257813 0.249023,0 0.489258,0.03809 0.720215,0.115235 0.231445,0.07715 0.432617,0.196289 0.60498,0.357422 0.172364,0.161132 0.310059,0.368164 0.412598,0.621093 0.102539,0.253907 0.154297,0.552735 0.154297,0.896485 v 3.35498 h -0.990235 v -3.079589 c 0,-0.242188 -0.03271,-0.449219 -0.09912,-0.621094 -0.06592,-0.172852 -0.153808,-0.311524 -0.263672,-0.417969 -0.110351,-0.106445 -0.236816,-0.183594 -0.379394,-0.231445 -0.143066,-0.04785 -0.291504,-0.07129 -0.445801,-0.07129 -0.205566,0 -0.395996,0.0332 -0.571777,0.09863 -0.17627,0.06641 -0.330078,0.170899 -0.462402,0.313477 -0.131836,0.143555 -0.234375,0.325195 -0.307618,0.544922 -0.07373,0.219726 -0.110351,0.480469 -0.110351,0.78125 v 2.683105 H 40.01123 V 16.57861 Z"
   inkscape:connector-curvature="0"
   style="fill:#777777" />
	<path
   id="path92"
   d="m 48.349121,17.887207 c -0.117187,-0.146484 -0.262207,-0.269531 -0.43457,-0.368164 -0.172364,-0.09863 -0.383301,-0.148438 -0.632324,-0.148438 -0.234864,0 -0.438477,0.0498 -0.61084,0.148438 -0.172363,0.09863 -0.258301,0.24414 -0.258301,0.43457 0,0.154297 0.04932,0.27832 0.148437,0.374024 0.09912,0.0957 0.216309,0.171875 0.352051,0.230468 0.135743,0.05957 0.280762,0.103516 0.434571,0.132813 0.153808,0.0293 0.286132,0.05469 0.395996,0.07617 0.212402,0.05176 0.412597,0.114258 0.599609,0.1875 0.187012,0.07324 0.348145,0.168945 0.483887,0.286133 0.135742,0.117187 0.242187,0.259765 0.318847,0.42871 0.07715,0.168946 0.115723,0.374024 0.115723,0.616211 0,0.292969 -0.0625,0.543946 -0.187012,0.752442 -0.125,0.208984 -0.286132,0.379883 -0.483886,0.511719 -0.198242,0.131835 -0.423828,0.227539 -0.676758,0.286132 -0.25293,0.05859 -0.507813,0.08789 -0.764648,0.08789 -0.432618,0 -0.812012,-0.06543 -1.138184,-0.198242 C 45.685059,21.59375 45.393555,21.351562 45.137207,21 l 0.748047,-0.615723 c 0.161133,0.161133 0.34082,0.304688 0.539062,0.429688 C 46.62207,20.937988 46.864258,21 47.149902,21 c 0.125,0 0.251465,-0.01221 0.379883,-0.0376 0.12793,-0.02637 0.241699,-0.06641 0.34082,-0.121094 0.09912,-0.05566 0.179688,-0.125 0.242188,-0.208984 0.06201,-0.08496 0.09326,-0.181641 0.09326,-0.291992 0,-0.146484 -0.0459,-0.267578 -0.137696,-0.363281 -0.09131,-0.09473 -0.20166,-0.169922 -0.32959,-0.22461 -0.128418,-0.05566 -0.26416,-0.09961 -0.407226,-0.132812 -0.143067,-0.03223 -0.269531,-0.06055 -0.379395,-0.08203 -0.21289,-0.05176 -0.41455,-0.110352 -0.60498,-0.175782 -0.190918,-0.06641 -0.359375,-0.154296 -0.50586,-0.264648 -0.146972,-0.109375 -0.26416,-0.249023 -0.35205,-0.417969 -0.08838,-0.167969 -0.132325,-0.376953 -0.132325,-0.626953 0,-0.270508 0.05713,-0.507812 0.170899,-0.708984 0.113281,-0.202149 0.263672,-0.369141 0.450683,-0.500977 0.187012,-0.131836 0.399903,-0.230469 0.638184,-0.296875 0.238281,-0.06641 0.478516,-0.09863 0.720215,-0.09863 0.352051,0 0.689453,0.06543 1.012207,0.197266 0.322754,0.132812 0.579101,0.352539 0.770019,0.660156 z"
   inkscape:connector-curvature="0"
   style="fill:#777777" />
</g><circle
     id="circle96"
     r="1.1422229"
     cy="12.112974"
     cx="10.901957"
     style="fill:#37b34a" /><path
     id="path98"
     d="M 2.2592747,14.154531"
     stroke-miterlimit="10"
     inkscape:connector-curvature="0"
     style="fill:none;stroke:#000000;stroke-width:0.57337219;stroke-miterlimit:10" /><g
     id="g202">
</g><g
     id="g204">
</g><g
     id="g206">
</g><g
     id="g208">
</g><g
     id="g210">
</g><g
     id="g212">
</g><g
     id="g214">
</g><g
     id="g216">
</g><g
     id="g218">
</g><g
     id="g220">
</g><g
     id="g222">
</g><g
     id="g224">
</g><g
     id="g226">
</g><g
     id="g228">
</g><g
     id="g230">
</g></g>
</svg>