<?xml version="1.0" encoding="UTF-8" standalone="no"?>
<!-- Generator: Adobe Illustrator 17.1.0, SVG Export Plug-In . SVG Version: 6.00 Build 0)  -->

<svg
   xmlns:dc="http://purl.org/dc/elements/1.1/"
   xmlns:cc="http://creativecommons.org/ns#"
   xmlns:rdf="http://www.w3.org/1999/02/22-rdf-syntax-ns#"
   xmlns:svg="http://www.w3.org/2000/svg"
   xmlns="http://www.w3.org/2000/svg"
   xmlns:sodipodi="http://sodipodi.sourceforge.net/DTD/sodipodi-0.dtd"
   xmlns:inkscape="http://www.inkscape.org/namespaces/inkscape"
   version="1.1"
   id="Layer_1"
   x="0px"
   y="0px"
   width="93.522171"
   height="19.533894"
   viewBox="0 0 93.522171 19.533894"
   enable-background="new 0 0 240 40"
   xml:space="preserve"
   sodipodi:docname="rp-icon-protein-structure-menu.svg"
   inkscape:version="0.92.3 (2405546, 2018-03-11)"><metadata
   id="metadata177"><rdf:RDF><cc:Work
       rdf:about=""><dc:format>image/svg+xml</dc:format><dc:type
         rdf:resource="http://purl.org/dc/dcmitype/StillImage" /><dc:title></dc:title></cc:Work></rdf:RDF></metadata><defs
   id="defs175" /><sodipodi:namedview
   pagecolor="#ffffff"
   bordercolor="#666666"
   borderopacity="1"
   objecttolerance="10"
   gridtolerance="10"
   guidetolerance="10"
   inkscape:pageopacity="0"
   inkscape:pageshadow="2"
   inkscape:window-width="1267"
   inkscape:window-height="561"
   id="namedview173"
   showgrid="false"
   fit-margin-top="0"
   fit-margin-left="0"
   fit-margin-right="0"
   fit-margin-bottom="0"
   inkscape:zoom="4.0305086"
   inkscape:cx="108.3569"
   inkscape:cy="-2.6908244"
   inkscape:window-x="3234"
   inkscape:window-y="645"
   inkscape:window-maximized="0"
   inkscape:current-layer="Layer_1" />
































<g
   id="g3233"
   transform="translate(-0.96025427,-2.6705564)"><path
     id="path2"
     d="M 13.241828,19.988323"
     stroke-miterlimit="10"
     inkscape:connector-curvature="0"
     style="fill:none;stroke:#42bdae;stroke-width:0.98938167;stroke-miterlimit:10" /><polyline
     id="polyline4"
     points="1.1495405,13.094594   4.7058163,13.094594 7.2280388,17.4632168 4.7058163,21.8318577 1.1495405,21.8318577 "
     stroke-miterlimit="10"
     style="fill:none;stroke:#48b0e3;stroke-width:0.74518532;stroke-miterlimit:10" /><polyline
     id="polyline6"
     points="12.5072298,7.8368979   8.9509535,7.8368979 6.4287314,12.2055216 8.9509535,16.5741615 12.5072298,16.5741615 "
     stroke-miterlimit="10"
     style="fill:none;stroke:#48b0e3;stroke-width:0.74518532;stroke-miterlimit:10" /><g
     id="g28">
	<g
   id="g26">
		
			<line
   id="line8"
   y2="3.1706064"
   x2="1.4673755"
   y1="3.1706064"
   x1="1.4673755"
   stroke-miterlimit="10"
   style="fill:none;stroke:#48b0e3;stroke-linecap:round;stroke-miterlimit:10" />
		
			<line
   id="line10"
   y2="3.1706064"
   x2="3.9951184"
   y1="3.1706064"
   x1="3.1525376"
   stroke-miterlimit="10"
   style="fill:none;stroke:#48b0e3;stroke-linecap:round;stroke-miterlimit:10;stroke-dasharray:0, 1.6851619" />
		
			<line
   id="line12"
   y2="3.1706064"
   x2="4.8376994"
   y1="3.1706064"
   x1="4.8376994"
   stroke-miterlimit="10"
   style="fill:none;stroke:#48b0e3;stroke-linecap:round;stroke-miterlimit:10" />
		
			<line
   id="line14"
   y2="6.620769"
   x2="6.829649"
   y1="4.5506716"
   x1="5.6344795"
   stroke-miterlimit="10"
   style="fill:none;stroke:#48b0e3;stroke-linecap:round;stroke-miterlimit:10;stroke-dasharray:0, 1.5935614" />
		
			<line
   id="line16"
   y2="7.3108015"
   x2="7.2280388"
   y1="7.3108015"
   x1="7.2280388"
   stroke-miterlimit="10"
   style="fill:none;stroke:#48b0e3;stroke-linecap:round;stroke-miterlimit:10" />
		
			<line
   id="line18"
   y2="10.760978"
   x2="5.2360892"
   y1="8.6908722"
   x1="6.4312592"
   stroke-miterlimit="10"
   style="fill:none;stroke:#48b0e3;stroke-linecap:round;stroke-miterlimit:10;stroke-dasharray:0, 1.5935658" />
		
			<line
   id="line20"
   y2="11.451013"
   x2="4.8376994"
   y1="11.451013"
   x1="4.8376994"
   stroke-miterlimit="10"
   style="fill:none;stroke:#48b0e3;stroke-linecap:round;stroke-miterlimit:10" />
		
			<line
   id="line22"
   y2="11.451013"
   x2="2.3099566"
   y1="11.451013"
   x1="3.1525376"
   stroke-miterlimit="10"
   style="fill:none;stroke:#48b0e3;stroke-linecap:round;stroke-miterlimit:10;stroke-dasharray:0, 1.6851619" />
		
			<line
   id="line24"
   y2="11.451013"
   x2="1.4673755"
   y1="11.451013"
   x1="1.4673755"
   stroke-miterlimit="10"
   style="fill:none;stroke:#48b0e3;stroke-linecap:round;stroke-miterlimit:10" />
	</g>
</g><path
     id="path30"
     d="M 2.7575917,12.770997"
     stroke-miterlimit="10"
     inkscape:connector-curvature="0"
     style="fill:none;stroke:#48b0e3;stroke-width:0.50046808;stroke-miterlimit:10" /><g
     id="g64">
	<path
   id="path32"
   d="m 15.107422,8.2583008 h 2.739258 c 0.498535,0 0.909179,0.068359 1.231933,0.203125 0.322266,0.1367188 0.577149,0.3085938 0.76416,0.5175781 0.187012,0.2089843 0.317383,0.4433594 0.390625,0.7041016 0.07324,0.2597656 0.109864,0.5117185 0.109864,0.7529295 0,0.242188 -0.03662,0.493164 -0.109864,0.753906 -0.07324,0.260742 -0.203613,0.495118 -0.390625,0.704102 -0.187011,0.208984 -0.441894,0.380859 -0.76416,0.516602 -0.322754,0.135742 -0.733398,0.204101 -1.231933,0.204101 h -1.683106 v 3.431641 h -1.056152 z m 1.056152,3.4316402 h 1.385742 c 0.205567,0 0.408692,-0.01563 0.61084,-0.04883 0.201172,-0.0332 0.38086,-0.09375 0.538574,-0.18164 0.157715,-0.08789 0.28418,-0.214844 0.379883,-0.379883 0.09521,-0.165039 0.143067,-0.378906 0.143067,-0.643555 0,-0.263672 -0.04785,-0.4785154 -0.143067,-0.6435545 C 18.98291,9.6274414 18.856445,9.5014649 18.69873,9.4135743 18.541016,9.3256837 18.361328,9.2651368 18.160156,9.2319337 17.958008,9.1987306 17.754883,9.182129 17.549316,9.182129 h -1.385742 z"
   inkscape:connector-curvature="0"
   style="fill:#777777" />
	<path
   id="path34"
   d="m 21.102539,10.83252 h 0.989746 v 0.802734 h 0.02197 c 0.06641,-0.138672 0.154297,-0.265625 0.26416,-0.378906 0.109863,-0.114258 0.23291,-0.210938 0.368652,-0.291992 0.135743,-0.08106 0.28418,-0.144532 0.445313,-0.192383 0.161133,-0.04785 0.322754,-0.07129 0.483887,-0.07129 0.161621,0 0.308105,0.02148 0.440429,0.06543 l -0.04443,1.067383 c -0.08057,-0.02246 -0.161133,-0.04004 -0.2417,-0.05469 -0.08105,-0.01465 -0.161621,-0.02246 -0.242187,-0.02246 -0.483887,0 -0.854492,0.135742 -1.11084,0.407226 -0.256836,0.271485 -0.385254,0.692383 -0.385254,1.264649 v 2.618164 h -0.989746 z"
   inkscape:connector-curvature="0"
   style="fill:#777777" />
	<path
   id="path36"
   d="m 24.446289,13.438965 c 0,-0.38086 0.07129,-0.736328 0.214356,-1.066406 0.143066,-0.330078 0.339355,-0.620118 0.588378,-0.869141 0.249512,-0.249023 0.542969,-0.445312 0.880371,-0.588867 0.336915,-0.142578 0.700196,-0.213867 1.088868,-0.213867 0.388672,0 0.751464,0.07129 1.088867,0.213867 0.337402,0.143555 0.630859,0.339844 0.879883,0.588867 0.249511,0.249023 0.4458,0.539063 0.588867,0.869141 0.142578,0.330078 0.214355,0.685547 0.214355,1.066406 0,0.381836 -0.07178,0.739258 -0.214355,1.073242 -0.143067,0.333008 -0.339356,0.623047 -0.588867,0.869141 -0.249024,0.245117 -0.542481,0.439453 -0.879883,0.583007 -0.337402,0.142578 -0.700195,0.213868 -1.088867,0.213868 -0.388672,0 -0.751953,-0.07129 -1.088868,-0.213868 -0.337402,-0.143554 -0.630859,-0.33789 -0.880371,-0.583007 C 25,15.135254 24.803711,14.845215 24.660644,14.512207 24.517578,14.178223 24.446289,13.820801 24.446289,13.438965 Z m 1.055664,0 c 0,0.264648 0.04053,0.508789 0.121094,0.731445 0.08057,0.22461 0.194336,0.415039 0.341309,0.572266 0.146484,0.158203 0.326171,0.282226 0.538574,0.374023 0.21289,0.0918 0.451172,0.137695 0.715332,0.137695 0.263672,0 0.501953,-0.0459 0.714844,-0.137695 0.21289,-0.0918 0.392089,-0.21582 0.539062,-0.374023 0.146484,-0.157227 0.260254,-0.347656 0.34082,-0.572266 0.08057,-0.222656 0.121094,-0.466797 0.121094,-0.731445 0,-0.263672 -0.04053,-0.506836 -0.121094,-0.731445 -0.08057,-0.223633 -0.194336,-0.414063 -0.34082,-0.57129 -0.146973,-0.158203 -0.326172,-0.282226 -0.539062,-0.374023 -0.212891,-0.0918 -0.451172,-0.137695 -0.714844,-0.137695 -0.26416,0 -0.502442,0.0459 -0.715332,0.137695 -0.212403,0.0918 -0.39209,0.21582 -0.538574,0.374023 -0.146973,0.157227 -0.260743,0.347657 -0.341309,0.57129 -0.08057,0.224609 -0.121094,0.467773 -0.121094,0.731445 z"
   inkscape:connector-curvature="0"
   style="fill:#777777" />
	<path
   id="path38"
   d="m 33.752441,11.689941 h -1.418945 v 2.365235 c 0,0.147461 0.0034,0.291992 0.01074,0.43457 0.0073,0.143555 0.03516,0.271485 0.08252,0.384766 0.04785,0.114258 0.121094,0.206054 0.220215,0.27539 0.09912,0.06934 0.243652,0.104493 0.43457,0.104493 0.117187,0 0.238281,-0.01074 0.362793,-0.0332 0.124512,-0.02148 0.238281,-0.0625 0.341309,-0.121093 v 0.902343 c -0.117676,0.06641 -0.269532,0.111328 -0.456544,0.137696 -0.187011,0.02539 -0.332031,0.03809 -0.43457,0.03809 -0.381347,0 -0.676758,-0.05273 -0.885742,-0.15918 -0.208984,-0.106445 -0.362793,-0.244141 -0.461914,-0.413086 -0.09912,-0.167969 -0.157715,-0.357422 -0.175781,-0.566406 -0.01855,-0.208985 -0.02783,-0.418946 -0.02783,-0.631836 V 11.689941 H 30.199219 V 10.83252 h 1.144043 V 9.3696289 h 0.990234 V 10.83252 h 1.418945 z"
   inkscape:connector-curvature="0"
   style="fill:#777777" />
	<path
   id="path40"
   d="m 35.501465,13.802246 c 0,0.227539 0.04932,0.43457 0.148437,0.62207 0.09912,0.186524 0.229004,0.345704 0.390625,0.478516 0.161133,0.131836 0.348145,0.234375 0.561035,0.307617 0.212403,0.07324 0.432618,0.110352 0.659669,0.110352 0.308105,0 0.575683,-0.07227 0.803222,-0.214844 0.227051,-0.143555 0.436035,-0.332031 0.626953,-0.566406 l 0.748047,0.572265 c -0.550293,0.710938 -1.320312,1.066407 -2.310058,1.066407 -0.410645,0 -0.782715,-0.06934 -1.1167,-0.208985 -0.333496,-0.138672 -0.615722,-0.332031 -0.846679,-0.577148 -0.230957,-0.246094 -0.40918,-0.535156 -0.533692,-0.869141 -0.124511,-0.333984 -0.187011,-0.694336 -0.187011,-1.083984 0,-0.388672 0.06787,-0.749024 0.203613,-1.083008 0.135742,-0.333984 0.322754,-0.623047 0.561035,-0.869141 0.238281,-0.245117 0.522461,-0.438476 0.852539,-0.577148 0.330078,-0.139648 0.688965,-0.208984 1.077637,-0.208984 0.462402,0 0.852539,0.08008 1.171875,0.242187 0.318848,0.161133 0.581055,0.37207 0.786133,0.631836 0.205566,0.260742 0.354004,0.553711 0.4458,0.879883 0.09131,0.327148 0.137207,0.658203 0.137207,0.996094 v 0.351562 z m 3.124023,-0.791992 c -0.0073,-0.219727 -0.04248,-0.421875 -0.104492,-0.604492 -0.0625,-0.183594 -0.15625,-0.342774 -0.280762,-0.478516 -0.124511,-0.135742 -0.280273,-0.242187 -0.467285,-0.319336 -0.187012,-0.07715 -0.405273,-0.115234 -0.654785,-0.115234 -0.241699,0 -0.463867,0.0459 -0.665527,0.137695 -0.201661,0.09082 -0.372071,0.209961 -0.511231,0.357422 -0.139648,0.146484 -0.247558,0.30957 -0.324707,0.489258 -0.07666,0.179687 -0.115234,0.357422 -0.115234,0.533203 z"
   inkscape:connector-curvature="0"
   style="fill:#777777" />
	<path
   id="path42"
   d="m 40.44043,8.9624023 c 0,-0.1982422 0.07129,-0.3681641 0.214355,-0.5117188 0.143067,-0.1425781 0.313477,-0.2138672 0.511231,-0.2138672 0.198242,0 0.368652,0.071289 0.511719,0.2138672 0.143066,0.1435547 0.214355,0.3134766 0.214355,0.5117188 0,0.1982422 -0.07129,0.3681641 -0.214355,0.5117188 -0.143067,0.1425781 -0.313477,0.2138672 -0.511719,0.2138672 -0.197754,0 -0.368164,-0.071289 -0.511231,-0.2138672 C 40.511719,9.3305664 40.44043,9.1606445 40.44043,8.9624023 Z m 0.230957,1.8701177 h 0.989746 v 5.213867 h -0.989746 z"
   inkscape:connector-curvature="0"
   style="fill:#777777" />
	<path
   id="path44"
   d="m 42.958984,10.83252 h 0.989746 v 0.802734 h 0.02197 c 0.125,-0.27832 0.341309,-0.503906 0.649414,-0.676758 0.307617,-0.171875 0.663574,-0.257812 1.066895,-0.257812 0.249023,0 0.489258,0.03809 0.720215,0.115234 0.231445,0.07715 0.432617,0.196289 0.60498,0.357422 0.172363,0.161133 0.310059,0.368164 0.412598,0.621094 0.102539,0.253906 0.154297,0.552734 0.154297,0.896484 v 3.355469 h -0.990235 v -3.080078 c 0,-0.242188 -0.03272,-0.449219 -0.09912,-0.621094 -0.06592,-0.172852 -0.153808,-0.311523 -0.263672,-0.417969 -0.110351,-0.106445 -0.236816,-0.183594 -0.379394,-0.231445 -0.143067,-0.04785 -0.291504,-0.07129 -0.445801,-0.07129 -0.205566,0 -0.395996,0.0332 -0.571777,0.09863 -0.17627,0.06641 -0.330078,0.170898 -0.462403,0.313476 -0.131835,0.143555 -0.234375,0.325196 -0.307617,0.544922 -0.07373,0.219727 -0.110351,0.480469 -0.110351,0.78125 v 2.683594 h -0.989745 z"
   inkscape:connector-curvature="0"
   style="fill:#777777" />
	<path
   id="path46"
   d="m 52.066894,14.418457 c 0.190918,0.286133 0.434571,0.49707 0.731446,0.632813 0.297363,0.135742 0.603027,0.203125 0.918457,0.203125 0.176269,0 0.355957,-0.02734 0.539062,-0.08203 0.183106,-0.05566 0.350098,-0.137695 0.500489,-0.248047 0.15039,-0.110351 0.273437,-0.245117 0.368652,-0.407226 0.09522,-0.161133 0.143066,-0.347656 0.143066,-0.560547 0,-0.300781 -0.0957,-0.530273 -0.286133,-0.6875 -0.190918,-0.158203 -0.427246,-0.290039 -0.709472,-0.396484 -0.282227,-0.105469 -0.590332,-0.208985 -0.923828,-0.307618 -0.333985,-0.09863 -0.64209,-0.236328 -0.924317,-0.412109 -0.282226,-0.176758 -0.518554,-0.413086 -0.709472,-0.709961 -0.19043,-0.296875 -0.285645,-0.698242 -0.285645,-1.204102 0,-0.227539 0.04932,-0.4697262 0.148438,-0.7265621 0.09863,-0.2568359 0.254394,-0.4912109 0.467285,-0.7041016 0.21289,-0.2119141 0.48584,-0.390625 0.819336,-0.5332031 0.333984,-0.1425781 0.735351,-0.2148438 1.204589,-0.2148438 0.425293,0 0.83252,0.05957 1.221192,0.1767578 0.388672,0.1171875 0.729492,0.3554688 1.022949,0.7148438 l -0.85791,0.7802734 C 55.322754,9.5268553 55.135742,9.3618162 54.894043,9.2377928 c -0.242188,-0.125 -0.51709,-0.1875 -0.825196,-0.1875 -0.293457,0 -0.537109,0.039063 -0.731445,0.1152344 -0.194336,0.077148 -0.350098,0.1767578 -0.467285,0.296875 -0.117676,0.1210938 -0.200195,0.2519531 -0.247559,0.390625 -0.04785,0.1396484 -0.07178,0.2685548 -0.07178,0.3857418 0,0.330079 0.09521,0.583008 0.286133,0.75879 0.19043,0.175781 0.427246,0.318359 0.709473,0.42871 0.282226,0.110352 0.590331,0.208985 0.924316,0.296875 0.333496,0.08789 0.641602,0.210938 0.923828,0.369141 0.282227,0.157227 0.518555,0.370117 0.709473,0.637695 0.190429,0.267578 0.286133,0.635743 0.286133,1.105469 0,0.374024 -0.07178,0.710938 -0.214844,1.011719 -0.143067,0.300781 -0.335449,0.553711 -0.577149,0.758789 -0.242187,0.206055 -0.52832,0.363281 -0.858398,0.473633 -0.32959,0.109375 -0.681641,0.165039 -1.055664,0.165039 -0.499024,0 -0.97168,-0.08789 -1.418945,-0.264648 -0.447754,-0.175782 -0.803223,-0.447266 -1.067383,-0.813477 z"
   inkscape:connector-curvature="0"
   style="fill:#777777" />
	<path
   id="path48"
   d="m 60.218262,11.689941 h -1.418946 v 2.365235 c 0,0.147461 0.0034,0.291992 0.01074,0.43457 0.0073,0.143555 0.03516,0.271485 0.08252,0.384766 0.04785,0.114258 0.121094,0.206054 0.220215,0.27539 0.09912,0.06934 0.243652,0.104493 0.43457,0.104493 0.117188,0 0.238281,-0.01074 0.362793,-0.0332 0.124512,-0.02148 0.238281,-0.0625 0.341309,-0.121093 v 0.902343 c -0.117676,0.06641 -0.269531,0.111328 -0.456543,0.137696 -0.187012,0.02539 -0.332031,0.03809 -0.434571,0.03809 -0.381347,0 -0.676757,-0.05273 -0.885742,-0.15918 -0.208984,-0.106445 -0.362793,-0.244141 -0.461914,-0.413086 -0.09912,-0.167969 -0.157715,-0.357422 -0.175781,-0.566406 -0.01855,-0.208985 -0.02783,-0.418946 -0.02783,-0.631836 V 11.689941 H 56.665039 V 10.83252 h 1.144043 V 9.3696289 h 0.990234 V 10.83252 h 1.418946 z"
   inkscape:connector-curvature="0"
   style="fill:#777777" />
	<path
   id="path50"
   d="m 61.219238,10.83252 h 0.989746 v 0.802734 h 0.02197 c 0.06641,-0.138672 0.154297,-0.265625 0.26416,-0.378906 0.109864,-0.114258 0.23291,-0.210938 0.368653,-0.291992 0.135742,-0.08106 0.284179,-0.144532 0.445312,-0.192383 0.161133,-0.04785 0.322754,-0.07129 0.483887,-0.07129 0.161621,0 0.308105,0.02148 0.440429,0.06543 l -0.04443,1.067383 c -0.08057,-0.02246 -0.161133,-0.04004 -0.241699,-0.05469 -0.08105,-0.01465 -0.161621,-0.02246 -0.242188,-0.02246 -0.483887,0 -0.854492,0.135742 -1.11084,0.407226 -0.256836,0.271485 -0.385254,0.692383 -0.385254,1.264649 v 2.618164 h -0.989746 z"
   inkscape:connector-curvature="0"
   style="fill:#777777" />
	<path
   id="path52"
   d="m 69.634277,16.046387 h -0.990234 v -0.802735 h -0.02197 c -0.124511,0.278321 -0.34082,0.503906 -0.648926,0.675781 -0.308105,0.172852 -0.663574,0.25879 -1.066894,0.25879 -0.256836,0 -0.499023,-0.03809 -0.726074,-0.115235 -0.227539,-0.07715 -0.427246,-0.196289 -0.59961,-0.357422 -0.172363,-0.161133 -0.310058,-0.36914 -0.412597,-0.62207 -0.102539,-0.25293 -0.153809,-0.551758 -0.153809,-0.896484 v -3.354493 h 0.989746 v 3.080078 c 0,0.242188 0.0332,0.449219 0.09912,0.621094 0.06592,0.172852 0.154297,0.311524 0.26416,0.417969 0.109864,0.106446 0.236329,0.183594 0.379395,0.231445 0.143066,0.04785 0.291504,0.07129 0.445312,0.07129 0.205567,0 0.395997,-0.0332 0.572266,-0.09863 0.175781,-0.06641 0.330078,-0.170899 0.461914,-0.313477 0.131836,-0.143555 0.234863,-0.325195 0.308106,-0.544922 0.07324,-0.219726 0.109863,-0.480469 0.109863,-0.78125 v -2.683594 h 0.990234 v 5.213868 z"
   inkscape:connector-curvature="0"
   style="fill:#777777" />
	<path
   id="path54"
   d="m 74.583984,12.218262 c -0.183593,-0.19043 -0.375976,-0.334961 -0.577636,-0.434571 -0.201661,-0.09863 -0.441895,-0.148437 -0.720215,-0.148437 -0.271484,0 -0.508301,0.04981 -0.709473,0.148437 -0.202148,0.09961 -0.370605,0.235352 -0.506348,0.407227 -0.135742,0.171875 -0.238281,0.370117 -0.308105,0.59375 -0.06934,0.223633 -0.104492,0.457031 -0.104492,0.698242 0,0.242188 0.04053,0.47168 0.121094,0.6875 0.08057,0.216797 0.194336,0.405274 0.341308,0.567383 0.146485,0.161133 0.322266,0.287109 0.527832,0.378906 0.205078,0.0918 0.436035,0.137695 0.692871,0.137695 0.278809,0 0.51709,-0.0498 0.715332,-0.148437 0.197754,-0.09863 0.38086,-0.244141 0.549805,-0.43457 l 0.704102,0.704101 c -0.256836,0.286133 -0.555664,0.491211 -0.896485,0.616211 -0.341308,0.124024 -0.702636,0.186524 -1.083496,0.186524 -0.40332,0 -0.771973,-0.06543 -1.105469,-0.198243 -0.333984,-0.131836 -0.621582,-0.316406 -0.863769,-0.554687 -0.241699,-0.238281 -0.428711,-0.524414 -0.561035,-0.858399 -0.131836,-0.333984 -0.197754,-0.702148 -0.197754,-1.105468 0,-0.403321 0.06592,-0.773438 0.197754,-1.111328 0.132324,-0.336915 0.317382,-0.626954 0.555664,-0.869141 0.238281,-0.241211 0.524414,-0.430664 0.85791,-0.566406 0.333496,-0.135742 0.705566,-0.203125 1.116699,-0.203125 0.38086,0 0.746094,0.06738 1.094238,0.203125 0.348145,0.135742 0.650879,0.342773 0.907715,0.62207 z"
   inkscape:connector-curvature="0"
   style="fill:#777777" />
	<path
   id="path56"
   d="m 79.115723,11.689941 h -1.418946 v 2.365235 c 0,0.147461 0.0034,0.291992 0.01074,0.43457 0.0073,0.143555 0.03516,0.271485 0.08252,0.384766 0.04785,0.114258 0.121094,0.206054 0.220215,0.27539 0.09912,0.06934 0.243652,0.104493 0.43457,0.104493 0.117188,0 0.238281,-0.01074 0.362793,-0.0332 0.124512,-0.02148 0.238281,-0.0625 0.341309,-0.121093 v 0.902343 c -0.117676,0.06641 -0.269531,0.111328 -0.456543,0.137696 -0.187012,0.02539 -0.332031,0.03809 -0.434571,0.03809 -0.381347,0 -0.676757,-0.05273 -0.885742,-0.15918 -0.208984,-0.106445 -0.362793,-0.244141 -0.461914,-0.413086 -0.09912,-0.167969 -0.157715,-0.357422 -0.175781,-0.566406 -0.01856,-0.208985 -0.02783,-0.418946 -0.02783,-0.631836 V 11.689941 H 75.5625 V 10.83252 h 1.144043 V 9.3696289 h 0.990234 V 10.83252 h 1.418946 z"
   inkscape:connector-curvature="0"
   style="fill:#777777" />
	<path
   id="path58"
   d="M 84.737305,16.046387 H 83.74707 v -0.802735 h -0.02148 c -0.125,0.278321 -0.341797,0.503906 -0.649414,0.675781 -0.308594,0.172852 -0.663574,0.25879 -1.066895,0.25879 -0.256836,0 -0.499023,-0.03809 -0.726074,-0.115235 -0.227539,-0.07715 -0.427246,-0.196289 -0.599609,-0.357422 -0.172364,-0.161133 -0.310059,-0.36914 -0.412598,-0.62207 -0.102539,-0.25293 -0.153809,-0.551758 -0.153809,-0.896484 v -3.354493 h 0.989746 v 3.080078 c 0,0.242188 0.0332,0.449219 0.09912,0.621094 0.06592,0.172852 0.154296,0.311524 0.26416,0.417969 0.109863,0.106446 0.236328,0.183594 0.379394,0.231445 0.143067,0.04785 0.291504,0.07129 0.445313,0.07129 0.205566,0 0.396484,-0.0332 0.572265,-0.09863 0.175782,-0.06641 0.330078,-0.170899 0.461914,-0.313477 0.131836,-0.143555 0.234375,-0.325195 0.307618,-0.544922 0.07324,-0.219726 0.110351,-0.480469 0.110351,-0.78125 v -2.683594 h 0.990235 v 5.213868 z"
   inkscape:connector-curvature="0"
   style="fill:#777777" />
	<path
   id="path60"
   d="m 85.958008,10.83252 h 0.990234 v 0.802734 h 0.02149 c 0.06641,-0.138672 0.154297,-0.265625 0.264648,-0.378906 0.109375,-0.114258 0.232422,-0.210938 0.368164,-0.291992 0.135742,-0.08106 0.28418,-0.144532 0.445313,-0.192383 0.161132,-0.04785 0.322265,-0.07129 0.484375,-0.07129 0.161132,0 0.307617,0.02148 0.439453,0.06543 l -0.04395,1.067383 c -0.08008,-0.02246 -0.161132,-0.04004 -0.242187,-0.05469 -0.08008,-0.01465 -0.161133,-0.02246 -0.241211,-0.02246 -0.484375,0 -0.854492,0.135742 -1.111328,0.407226 -0.256836,0.271485 -0.384766,0.692383 -0.384766,1.264649 v 2.618164 h -0.990235 z"
   inkscape:connector-curvature="0"
   style="fill:#777777" />
	<path
   id="path62"
   d="m 90.302734,13.802246 c 0,0.227539 0.0498,0.43457 0.148438,0.62207 0.09863,0.186524 0.229492,0.345704 0.390625,0.478516 0.161133,0.131836 0.347656,0.234375 0.560547,0.307617 0.212891,0.07324 0.432617,0.110352 0.660156,0.110352 0.308594,0 0.576172,-0.07227 0.802734,-0.214844 0.22754,-0.143555 0.436524,-0.332031 0.626954,-0.566406 l 0.748046,0.572265 c -0.549804,0.710938 -1.319335,1.066407 -2.30957,1.066407 -0.411133,0 -0.783203,-0.06934 -1.116211,-0.208985 -0.333984,-0.138672 -0.616211,-0.332031 -0.847656,-0.577148 -0.230469,-0.246094 -0.408203,-0.535156 -0.533203,-0.869141 -0.125,-0.333984 -0.186523,-0.694336 -0.186523,-1.083984 0,-0.388672 0.06738,-0.749024 0.203125,-1.083008 0.135742,-0.333984 0.322265,-0.623047 0.560546,-0.869141 0.238282,-0.245117 0.522461,-0.438476 0.85254,-0.577148 0.330078,-0.139648 0.689453,-0.208984 1.078125,-0.208984 0.461914,0 0.852539,0.08008 1.171875,0.242187 0.319335,0.161133 0.581054,0.37207 0.786132,0.631836 0.205078,0.260742 0.353516,0.553711 0.445313,0.879883 0.0918,0.327148 0.137695,0.658203 0.137695,0.996094 v 0.351562 z m 3.124024,-0.791992 c -0.0078,-0.219727 -0.04199,-0.421875 -0.104492,-0.604492 -0.0625,-0.183594 -0.15625,-0.342774 -0.280274,-0.478516 -0.125,-0.135742 -0.28125,-0.242187 -0.467773,-0.319336 -0.1875,-0.07715 -0.405274,-0.115234 -0.654297,-0.115234 -0.242188,0 -0.463867,0.0459 -0.666016,0.137695 -0.201172,0.09082 -0.37207,0.209961 -0.511718,0.357422 -0.138672,0.146484 -0.247071,0.30957 -0.324219,0.489258 -0.07715,0.179687 -0.115235,0.357422 -0.115235,0.533203 z"
   inkscape:connector-curvature="0"
   style="fill:#777777" />
</g><circle
     id="circle66"
     r="1.1422229"
     cy="12.112974"
     cx="10.901957"
     style="fill:#48b0e3" /><path
     id="path68"
     d="M 2.2592747,14.154531"
     stroke-miterlimit="10"
     inkscape:connector-curvature="0"
     style="fill:none;stroke:#48b0e3;stroke-width:0.57337219;stroke-miterlimit:10" /><g
     id="g142">
</g><g
     id="g144">
</g><g
     id="g146">
</g><g
     id="g148">
</g><g
     id="g150">
</g><g
     id="g152">
</g><g
     id="g154">
</g><g
     id="g156">
</g><g
     id="g158">
</g><g
     id="g160">
</g><g
     id="g162">
</g><g
     id="g164">
</g><g
     id="g166">
</g><g
     id="g168">
</g><g
     id="g170">
</g></g>
</svg>