<?xml version="1.0" encoding="UTF-8" standalone="no"?>
<!-- Generator: Adobe Illustrator 17.1.0, SVG Export Plug-In . SVG Version: 6.00 Build 0)  -->

<svg
   xmlns:dc="http://purl.org/dc/elements/1.1/"
   xmlns:cc="http://creativecommons.org/ns#"
   xmlns:rdf="http://www.w3.org/1999/02/22-rdf-syntax-ns#"
   xmlns:svg="http://www.w3.org/2000/svg"
   xmlns="http://www.w3.org/2000/svg"
   xmlns:sodipodi="http://sodipodi.sourceforge.net/DTD/sodipodi-0.dtd"
   xmlns:inkscape="http://www.inkscape.org/namespaces/inkscape"
   version="1.1"
   id="Layer_1"
   x="0px"
   y="0px"
   width="73.207573"
   height="13"
   viewBox="0 0 73.207573 13"
   enable-background="new 0 0 240 40"
   xml:space="preserve"
   sodipodi:docname="sw-icon-relaxation-menusvg.svg"
   inkscape:version="0.92.3 (2405546, 2018-03-11)"><metadata
   id="metadata503"><rdf:RDF><cc:Work
       rdf:about=""><dc:format>image/svg+xml</dc:format><dc:type
         rdf:resource="http://purl.org/dc/dcmitype/StillImage" /><dc:title></dc:title></cc:Work></rdf:RDF></metadata><defs
   id="defs501" /><sodipodi:namedview
   pagecolor="#ffffff"
   bordercolor="#666666"
   borderopacity="1"
   objecttolerance="10"
   gridtolerance="10"
   guidetolerance="10"
   inkscape:pageopacity="0"
   inkscape:pageshadow="2"
   inkscape:window-width="1181"
   inkscape:window-height="581"
   id="namedview499"
   showgrid="false"
   fit-margin-top="0"
   fit-margin-left="0"
   fit-margin-right="0"
   fit-margin-bottom="0"
   inkscape:zoom="4.0305086"
   inkscape:cx="117.66335"
   inkscape:cy="-25.402161"
   inkscape:window-x="3263"
   inkscape:window-y="701"
   inkscape:window-maximized="0"
   inkscape:current-layer="Layer_1" />












































<g
   id="g8353"
   transform="translate(-1,-1)"><path
     style="fill:none;stroke:#979797;stroke-width:0.99150002;stroke-miterlimit:10"
     inkscape:connector-curvature="0"
     id="path364"
     d="M 23.407569,7.3984026"
     stroke-miterlimit="10" /><path
     style="fill:none;stroke:#979797;stroke-width:0.99150002;stroke-miterlimit:10"
     inkscape:connector-curvature="0"
     id="path370"
     d="M 23.507569,7.3984026"
     stroke-miterlimit="10" /><g
     transform="translate(-0.99243057,-12.901597)"
     id="g392">
	<path
   style="fill:#d9a4fc"
   inkscape:connector-curvature="0"
   id="path372"
   d="m 22.5,16.6 h 3 c 0.6,0 1,0.1 1.4,0.2 0.4,0.1 0.6,0.3 0.8,0.6 0.2,0.2 0.4,0.5 0.4,0.8 0.1,0.3 0.1,0.6 0.1,0.8 0,0.3 0,0.5 -0.1,0.8 -0.1,0.3 -0.2,0.5 -0.4,0.7 -0.2,0.2 -0.4,0.4 -0.7,0.5 -0.3,0.1 -0.6,0.2 -0.9,0.3 l 2.4,3.9 H 27 l -2.2,-3.8 h -1.3 v 3.8 h -1.2 v -8.6 z m 1.1,3.8 h 1.5 c 0.2,0 0.5,0 0.7,-0.1 0.2,0 0.4,-0.1 0.6,-0.2 0.2,-0.1 0.3,-0.2 0.4,-0.4 C 26.9,19.5 27,19.3 27,19 27,18.7 26.9,18.5 26.8,18.3 26.7,18.1 26.6,18 26.4,17.9 26.2,17.8 26,17.7 25.8,17.7 c -0.2,0 -0.4,-0.1 -0.7,-0.1 h -1.5 z" />
	<path
   style="fill:#d9a4fc"
   inkscape:connector-curvature="0"
   id="path374"
   d="m 30.1,22.7 c 0,0.3 0.1,0.5 0.2,0.7 0.1,0.2 0.3,0.4 0.4,0.5 0.2,0.1 0.4,0.3 0.6,0.3 0.2,0.1 0.5,0.1 0.7,0.1 0.3,0 0.6,-0.1 0.9,-0.2 0.3,-0.2 0.5,-0.4 0.7,-0.6 l 0.8,0.6 c -0.6,0.8 -1.5,1.2 -2.5,1.2 -0.5,0 -0.9,-0.1 -1.2,-0.2 C 30.4,25 30,24.7 29.8,24.5 29.5,24.2 29.3,23.9 29.2,23.5 29,23.1 29,22.7 29,22.3 c 0,-0.4 0.1,-0.8 0.2,-1.2 0.1,-0.4 0.4,-0.7 0.6,-1 0.2,-0.3 0.6,-0.5 0.9,-0.6 0.4,-0.2 0.8,-0.2 1.2,-0.2 0.5,0 0.9,0.1 1.3,0.3 0.4,0.2 0.6,0.4 0.9,0.7 0.2,0.3 0.4,0.6 0.5,1 0.1,0.4 0.2,0.7 0.2,1.1 v 0.4 h -4.7 z m 3.5,-0.9 c 0,-0.2 0,-0.5 -0.1,-0.7 -0.1,-0.2 -0.2,-0.4 -0.3,-0.5 -0.1,-0.1 -0.3,-0.3 -0.5,-0.4 -0.2,-0.1 -0.4,-0.1 -0.7,-0.1 -0.3,0 -0.5,0.1 -0.7,0.2 -0.2,0.1 -0.4,0.2 -0.6,0.4 -0.2,0.2 -0.3,0.3 -0.4,0.5 -0.1,0.2 -0.1,0.4 -0.1,0.6 z" />
	<path
   style="fill:#d9a4fc"
   inkscape:connector-curvature="0"
   id="path376"
   d="m 35.8,16 h 1.1 v 9.2 h -1.1 z" />
	<path
   style="fill:#d9a4fc"
   inkscape:connector-curvature="0"
   id="path378"
   d="m 38.4,20.1 c 0.3,-0.3 0.7,-0.5 1.1,-0.6 0.4,-0.1 0.8,-0.2 1.2,-0.2 0.4,0 0.8,0.1 1.1,0.2 0.3,0.1 0.6,0.2 0.7,0.4 0.2,0.2 0.3,0.4 0.4,0.6 0.1,0.2 0.1,0.5 0.1,0.7 v 2.9 c 0,0.2 0,0.4 0,0.6 0,0.2 0,0.3 0,0.5 h -1 c 0,-0.3 0,-0.6 0,-0.9 v 0 c -0.2,0.4 -0.5,0.6 -0.9,0.8 -0.3,0.2 -0.7,0.2 -1.2,0.2 -0.3,0 -0.5,0 -0.8,-0.1 -0.2,-0.1 -0.5,-0.2 -0.6,-0.3 -0.1,-0.1 -0.3,-0.3 -0.4,-0.5 -0.1,-0.2 -0.2,-0.5 -0.2,-0.7 0,-0.4 0.1,-0.7 0.2,-0.9 0.1,-0.2 0.4,-0.5 0.7,-0.6 0.3,-0.2 0.6,-0.3 1,-0.3 0.4,-0.1 0.8,-0.1 1.2,-0.1 h 1 v -0.2 c 0,-0.1 0,-0.3 -0.1,-0.4 -0.1,-0.1 -0.1,-0.3 -0.3,-0.4 -0.1,-0.1 -0.3,-0.2 -0.4,-0.3 -0.2,-0.1 -0.4,-0.1 -0.6,-0.1 -0.2,0 -0.4,0 -0.6,0.1 -0.2,0 -0.3,0.1 -0.4,0.2 -0.1,0.1 -0.2,0.1 -0.4,0.2 -0.1,0.1 -0.2,0.2 -0.3,0.2 z m 3.1,2.3 c -0.3,0 -0.5,0 -0.8,0 -0.3,0 -0.5,0.1 -0.7,0.2 -0.2,0.1 -0.4,0.2 -0.5,0.3 -0.1,0.1 -0.2,0.3 -0.2,0.6 0,0.3 0.1,0.6 0.3,0.7 0.2,0.1 0.5,0.2 0.9,0.2 0.3,0 0.6,0 0.8,-0.2 0.2,-0.2 0.4,-0.2 0.5,-0.4 0.1,-0.2 0.2,-0.3 0.3,-0.5 0.1,-0.2 0.1,-0.4 0.1,-0.6 v -0.4 h -0.7 z" />
	<path
   style="fill:#d9a4fc"
   inkscape:connector-curvature="0"
   id="path380"
   d="m 45.9,22.1 -2,-2.7 h 1.4 l 1.4,2 1.4,-2 h 1.3 l -2,2.7 2.3,3.1 h -1.4 l -1.7,-2.4 -1.7,2.4 h -1.3 z" />
	<path
   style="fill:#d9a4fc"
   inkscape:connector-curvature="0"
   id="path382"
   d="m 50.4,20.1 c 0.3,-0.3 0.7,-0.5 1.1,-0.6 0.4,-0.1 0.8,-0.2 1.2,-0.2 0.4,0 0.8,0.1 1.1,0.2 0.3,0.1 0.6,0.2 0.7,0.4 0.2,0.2 0.3,0.4 0.4,0.6 0.1,0.2 0.1,0.5 0.1,0.7 v 2.9 c 0,0.2 0,0.4 0,0.6 0,0.2 0,0.3 0,0.5 h -1 c 0,-0.3 0,-0.6 0,-0.9 v 0 c -0.2,0.4 -0.5,0.6 -0.9,0.8 -0.3,0.2 -0.7,0.2 -1.2,0.2 -0.3,0 -0.5,0 -0.8,-0.1 -0.2,-0.1 -0.5,-0.2 -0.6,-0.3 -0.1,-0.1 -0.3,-0.3 -0.4,-0.5 -0.1,-0.2 -0.2,-0.5 -0.2,-0.7 0,-0.4 0.1,-0.7 0.2,-0.9 0.1,-0.2 0.4,-0.5 0.7,-0.6 0.3,-0.2 0.6,-0.3 1,-0.3 0.4,-0.1 0.8,-0.1 1.2,-0.1 h 1 v -0.2 c 0,-0.1 0,-0.3 -0.1,-0.4 -0.1,-0.1 -0.1,-0.3 -0.3,-0.4 -0.1,-0.1 -0.3,-0.2 -0.4,-0.3 -0.2,-0.1 -0.4,-0.1 -0.6,-0.1 -0.2,0 -0.4,0 -0.6,0.1 -0.2,0 -0.3,0.1 -0.4,0.2 -0.1,0.1 -0.2,0.1 -0.4,0.2 -0.1,0.1 -0.2,0.2 -0.3,0.2 z m 3,2.3 c -0.3,0 -0.5,0 -0.8,0 -0.3,0 -0.5,0.1 -0.7,0.2 -0.2,0.1 -0.4,0.2 -0.5,0.3 -0.1,0.1 -0.2,0.3 -0.2,0.6 0,0.3 0.1,0.6 0.3,0.7 0.2,0.1 0.5,0.2 0.9,0.2 0.3,0 0.6,0 0.8,-0.2 0.2,-0.2 0.4,-0.2 0.5,-0.4 0.1,-0.2 0.2,-0.3 0.3,-0.5 0.1,-0.2 0.1,-0.4 0.1,-0.6 v -0.4 h -0.7 z" />
	<path
   style="fill:#d9a4fc"
   inkscape:connector-curvature="0"
   id="path384"
   d="M 59.4,20.4 H 57.8 V 23 c 0,0.2 0,0.3 0,0.5 0,0.2 0,0.3 0.1,0.4 0.1,0.1 0.1,0.2 0.2,0.3 0.1,0.1 0.3,0.1 0.5,0.1 0.1,0 0.3,0 0.4,0 0.1,0 0.3,-0.1 0.4,-0.1 v 1 c -0.1,0.1 -0.3,0.1 -0.5,0.2 -0.2,0 -0.4,0 -0.5,0 -0.4,0 -0.7,-0.1 -1,-0.2 -0.2,-0.1 -0.4,-0.3 -0.5,-0.5 -0.1,-0.2 -0.2,-0.4 -0.2,-0.6 0,-0.2 0,-0.5 0,-0.7 v -3 h -1.3 v -0.9 h 1.3 v -1.6 h 1.1 v 1.6 h 1.6 z" />
	<path
   style="fill:#d9a4fc"
   inkscape:connector-curvature="0"
   id="path386"
   d="m 60.4,17.3 c 0,-0.2 0.1,-0.4 0.2,-0.6 0.2,-0.2 0.3,-0.2 0.6,-0.2 0.2,0 0.4,0.1 0.6,0.2 0.2,0.2 0.2,0.3 0.2,0.6 0,0.2 -0.1,0.4 -0.2,0.6 -0.1,0.2 -0.3,0.2 -0.6,0.2 -0.2,0 -0.4,-0.1 -0.6,-0.2 -0.2,-0.1 -0.2,-0.3 -0.2,-0.6 z m 0.2,2.1 h 1.1 v 5.8 h -1.1 z" />
	<path
   style="fill:#d9a4fc"
   inkscape:connector-curvature="0"
   id="path388"
   d="m 62.9,22.3 c 0,-0.4 0.1,-0.8 0.2,-1.2 0.2,-0.4 0.4,-0.7 0.6,-1 0.3,-0.3 0.6,-0.5 1,-0.6 0.4,-0.1 0.8,-0.2 1.2,-0.2 0.4,0 0.8,0.1 1.2,0.2 0.4,0.2 0.7,0.4 1,0.6 0.3,0.3 0.5,0.6 0.6,1 0.2,0.4 0.2,0.8 0.2,1.2 0,0.4 -0.1,0.8 -0.2,1.2 -0.1,0.4 -0.4,0.7 -0.6,1 -0.2,0.3 -0.6,0.5 -1,0.6 -0.4,0.2 -0.8,0.2 -1.2,0.2 -0.4,0 -0.8,-0.1 -1.2,-0.2 -0.4,-0.2 -0.7,-0.4 -1,-0.6 -0.3,-0.3 -0.5,-0.6 -0.6,-1 -0.2,-0.4 -0.2,-0.8 -0.2,-1.2 z m 1.1,0 c 0,0.3 0,0.6 0.1,0.8 0.1,0.2 0.2,0.5 0.4,0.6 0.2,0.2 0.4,0.3 0.6,0.4 0.2,0.1 0.5,0.2 0.8,0.2 0.3,0 0.6,-0.1 0.8,-0.2 0.2,-0.1 0.4,-0.2 0.6,-0.4 0.2,-0.2 0.3,-0.4 0.4,-0.6 0.1,-0.2 0.1,-0.5 0.1,-0.8 0,-0.3 0,-0.6 -0.1,-0.8 -0.1,-0.2 -0.2,-0.5 -0.4,-0.6 -0.2,-0.2 -0.4,-0.3 -0.6,-0.4 -0.2,-0.1 -0.5,-0.2 -0.8,-0.2 -0.3,0 -0.6,0.1 -0.8,0.2 -0.2,0.1 -0.4,0.2 -0.6,0.4 -0.2,0.2 -0.3,0.4 -0.4,0.6 0,0.2 -0.1,0.5 -0.1,0.8 z" />
	<path
   style="fill:#d9a4fc"
   inkscape:connector-curvature="0"
   id="path390"
   d="m 70,19.4 h 1.1 v 0.9 0 c 0.1,-0.3 0.4,-0.6 0.7,-0.7 0.3,-0.2 0.7,-0.3 1.2,-0.3 0.3,0 0.5,0 0.8,0.1 0.3,0.1 0.5,0.2 0.7,0.4 0.2,0.2 0.3,0.4 0.5,0.7 0.1,0.3 0.2,0.6 0.2,1 v 3.7 H 74 v -3.4 c 0,-0.3 0,-0.5 -0.1,-0.7 -0.1,-0.2 -0.2,-0.3 -0.3,-0.5 -0.1,-0.1 -0.3,-0.2 -0.4,-0.3 -0.1,-0.1 -0.3,-0.1 -0.5,-0.1 -0.2,0 -0.4,0 -0.6,0.1 -0.2,0.1 -0.4,0.2 -0.5,0.3 -0.1,0.2 -0.3,0.4 -0.3,0.6 -0.1,0.2 -0.1,0.5 -0.1,0.9 v 3 H 70 Z" />
</g><path
     id="path394"
     d="m 1.5,1 c 0,1.3 1,2.3 2.3,2.3 1.3,0 2.3,-1 2.3,-2.3"
     stroke-miterlimit="10"
     inkscape:connector-curvature="0"
     style="fill:none;stroke:#d9a4fc;stroke-miterlimit:10" /><path
     id="path396"
     d="M 7.9,5.1"
     stroke-miterlimit="10"
     inkscape:connector-curvature="0"
     style="fill:none;stroke:#d9a4fc;stroke-miterlimit:10" /><path
     id="path398"
     d="m 7.9,1 c 0,1.3 1,2.3 2.3,2.3 1.3,0 2.3,-1 2.3,-2.3"
     stroke-miterlimit="10"
     inkscape:connector-curvature="0"
     style="fill:none;stroke:#d9a4fc;stroke-miterlimit:10" /><path
     id="path400"
     d="M 14.3,5.1"
     stroke-miterlimit="10"
     inkscape:connector-curvature="0"
     style="fill:none;stroke:#37b34a;stroke-miterlimit:10" /><path
     id="path402"
     d="m 14.3,1 c 0,1.3 1,2.3 2.3,2.3 1.3,0 2.3,-1 2.3,-2.3"
     stroke-miterlimit="10"
     inkscape:connector-curvature="0"
     style="fill:none;stroke:#d9a4fc;stroke-miterlimit:10" /><path
     id="path404"
     d="m 1.5,14 c 0,-1.3 1,-2.3 2.3,-2.3 1.3,0 2.3,1 2.3,2.3"
     stroke-miterlimit="10"
     inkscape:connector-curvature="0"
     style="fill:none;stroke:#d9a4fc;stroke-miterlimit:10" /><path
     id="path406"
     d="m 7.9,14 c 0,-1.3 1,-2.3 2.3,-2.3 1.3,0 2.3,1 2.3,2.3"
     stroke-miterlimit="10"
     inkscape:connector-curvature="0"
     style="fill:none;stroke:#d9a4fc;stroke-miterlimit:10" /><path
     id="path408"
     d="m 14.3,14 c 0,-1.3 1,-2.3 2.3,-2.3 1.3,0 2.3,1 2.3,2.3"
     stroke-miterlimit="10"
     inkscape:connector-curvature="0"
     style="fill:none;stroke:#d9a4fc;stroke-miterlimit:10" /><circle
     id="circle410"
     r="2.3"
     cy="7.5"
     cx="3.8"
     stroke-miterlimit="10"
     style="fill:none;stroke:#d9a4fc;stroke-miterlimit:10" /><circle
     id="circle412"
     r="2.3"
     cy="7.5"
     cx="10.2"
     stroke-miterlimit="10"
     style="fill:none;stroke:#d9a4fc;stroke-miterlimit:10" /><circle
     id="circle414"
     r="2.3"
     cy="7.5"
     cx="16.6"
     stroke-miterlimit="10"
     style="fill:#d9a4fc;stroke:#d9a4fc;stroke-miterlimit:10" /><g
     id="g468">
</g><g
     id="g470">
</g><g
     id="g472">
</g><g
     id="g474">
</g><g
     id="g476">
</g><g
     id="g478">
</g><g
     id="g480">
</g><g
     id="g482">
</g><g
     id="g484">
</g><g
     id="g486">
</g><g
     id="g488">
</g><g
     id="g490">
</g><g
     id="g492">
</g><g
     id="g494">
</g><g
     id="g496">
</g></g>
</svg>