<?xml version="1.0" encoding="UTF-8" standalone="no"?>
<!-- Generator: Adobe Illustrator 17.1.0, SVG Export Plug-In . SVG Version: 6.00 Build 0)  -->

<svg
   xmlns:dc="http://purl.org/dc/elements/1.1/"
   xmlns:cc="http://creativecommons.org/ns#"
   xmlns:rdf="http://www.w3.org/1999/02/22-rdf-syntax-ns#"
   xmlns:svg="http://www.w3.org/2000/svg"
   xmlns="http://www.w3.org/2000/svg"
   xmlns:sodipodi="http://sodipodi.sourceforge.net/DTD/sodipodi-0.dtd"
   xmlns:inkscape="http://www.inkscape.org/namespaces/inkscape"
   version="1.1"
   id="Layer_1"
   x="0px"
   y="0px"
   width="81.635109"
   height="13.036201"
   viewBox="0 0 81.635109 13.036201"
   enable-background="new 0 0 240 40"
   xml:space="preserve"
   sodipodi:docname="sw-icon-assignment-menu.svg"
   inkscape:version="0.92.3 (2405546, 2018-03-11)"><metadata
   id="metadata974"><rdf:RDF><cc:Work
       rdf:about=""><dc:format>image/svg+xml</dc:format><dc:type
         rdf:resource="http://purl.org/dc/dcmitype/StillImage" /><dc:title></dc:title></cc:Work></rdf:RDF></metadata><defs
   id="defs972" /><sodipodi:namedview
   pagecolor="#ffffff"
   bordercolor="#666666"
   borderopacity="1"
   objecttolerance="10"
   gridtolerance="10"
   guidetolerance="10"
   inkscape:pageopacity="0"
   inkscape:pageshadow="2"
   inkscape:window-width="1574"
   inkscape:window-height="657"
   id="namedview970"
   showgrid="false"
   fit-margin-top="0"
   fit-margin-left="0"
   fit-margin-right="0"
   fit-margin-bottom="0"
   inkscape:zoom="5.7"
   inkscape:cx="71.130687"
   inkscape:cy="-15.295613"
   inkscape:window-x="3199"
   inkscape:window-y="721"
   inkscape:window-maximized="0"
   inkscape:current-layer="Layer_1" />














<g
   id="g8223"
   transform="translate(-1,-1)"><path
     style="fill:none;stroke:#979797;stroke-width:0.99153382;stroke-miterlimit:10"
     inkscape:connector-curvature="0"
     id="path835"
     d="M 24.255361,6.2916774"
     stroke-miterlimit="10" /><path
     style="fill:none;stroke:#979797;stroke-width:0.99153382;stroke-miterlimit:10"
     inkscape:connector-curvature="0"
     id="path841"
     d="M 24.368791,6.2587889"
     stroke-miterlimit="10" /><g
     transform="translate(-0.1754386,-14.035088)"
     id="g863">
	<path
   style="fill:#37b34a"
   inkscape:connector-curvature="0"
   id="path843"
   d="m 25.153809,16.563477 h 1.056152 l 3.677734,8.594726 H 28.52832 L 27.666504,23.03418 h -4.09082 l -0.84961,2.124023 h -1.359375 z m 2.08789,5.451171 -1.602539,-3.9458 h -0.02393 l -1.626465,3.9458 z" />
	<path
   style="fill:#37b34a"
   inkscape:connector-curvature="0"
   id="path845"
   d="m 33.480957,20.848144 c -0.129395,-0.161621 -0.289551,-0.296875 -0.479492,-0.40625 -0.189942,-0.109375 -0.422852,-0.164062 -0.697754,-0.164062 -0.259277,0 -0.483887,0.05469 -0.673828,0.164062 -0.19043,0.109375 -0.285156,0.269043 -0.285156,0.479493 0,0.17041 0.05469,0.308105 0.163574,0.413574 0.109375,0.104492 0.238769,0.189453 0.388672,0.254883 0.149414,0.06445 0.30957,0.113281 0.479492,0.145507 0.169922,0.03223 0.31543,0.06055 0.437012,0.08496 0.234375,0.05664 0.455078,0.125 0.661621,0.206055 0.206054,0.08105 0.384277,0.186523 0.534179,0.31543 0.149414,0.129883 0.266602,0.288086 0.351563,0.473633 0.08496,0.186523 0.127441,0.413085 0.127441,0.679687 0,0.324219 -0.06885,0.600586 -0.206054,0.832031 -0.137696,0.230469 -0.31543,0.417969 -0.53418,0.564453 -0.218262,0.145508 -0.467285,0.25 -0.746582,0.31543 -0.279297,0.06445 -0.560547,0.09668 -0.84375,0.09668 -0.477539,0 -0.895996,-0.07227 -1.256348,-0.21875 -0.359863,-0.145508 -0.68164,-0.41211 -0.964844,-0.800781 l 0.825684,-0.679688 c 0.177734,0.177734 0.375977,0.335938 0.594727,0.473633 0.218261,0.137695 0.485351,0.206055 0.800781,0.206055 0.137695,0 0.277344,-0.01367 0.418945,-0.04199 0.141602,-0.02832 0.26709,-0.07324 0.376465,-0.133789 0.108887,-0.06055 0.198242,-0.137695 0.26709,-0.230469 0.06836,-0.09375 0.103027,-0.200195 0.103027,-0.322265 0,-0.161133 -0.05078,-0.294922 -0.151856,-0.400391 -0.101074,-0.105468 -0.222656,-0.188476 -0.364257,-0.249023 -0.141602,-0.06055 -0.291016,-0.109375 -0.448731,-0.145508 -0.158203,-0.03613 -0.297363,-0.06641 -0.418945,-0.09082 -0.234863,-0.05664 -0.45752,-0.121094 -0.667481,-0.194336 -0.210937,-0.07324 -0.396972,-0.169922 -0.558593,-0.291016 -0.16211,-0.12207 -0.291504,-0.27539 -0.388184,-0.461914 -0.09717,-0.185547 -0.145996,-0.416015 -0.145996,-0.691406 0,-0.299805 0.0625,-0.561035 0.188476,-0.783691 0.125,-0.222168 0.291016,-0.406739 0.497559,-0.552247 0.206055,-0.145507 0.440918,-0.254882 0.704102,-0.327636 0.262695,-0.07275 0.527832,-0.109375 0.794922,-0.109375 0.388671,0 0.760742,0.07275 1.116699,0.21875 0.355957,0.145508 0.63916,0.388183 0.849609,0.728027 z" />
	<path
   style="fill:#37b34a"
   inkscape:connector-curvature="0"
   id="path847"
   d="m 38.566406,20.848144 c -0.129394,-0.161621 -0.289551,-0.296875 -0.479492,-0.40625 -0.189941,-0.109375 -0.422852,-0.164062 -0.697754,-0.164062 -0.259277,0 -0.483887,0.05469 -0.673828,0.164062 -0.19043,0.109375 -0.285156,0.269043 -0.285156,0.479493 0,0.17041 0.05469,0.308105 0.163574,0.413574 0.109375,0.104492 0.238769,0.189453 0.388672,0.254883 0.149414,0.06445 0.30957,0.113281 0.479492,0.145507 0.169922,0.03223 0.31543,0.06055 0.437012,0.08496 0.234375,0.05664 0.455078,0.125 0.661621,0.206055 0.206055,0.08105 0.384277,0.186523 0.53418,0.31543 0.149414,0.129883 0.266601,0.288086 0.351562,0.473633 0.08496,0.186523 0.127441,0.413085 0.127441,0.679687 0,0.324219 -0.06885,0.600586 -0.206054,0.832031 -0.137696,0.230469 -0.31543,0.417969 -0.53418,0.564453 -0.218262,0.145508 -0.467285,0.25 -0.746582,0.31543 -0.279297,0.06445 -0.560547,0.09668 -0.84375,0.09668 -0.477539,0 -0.895996,-0.07227 -1.256348,-0.21875 -0.359863,-0.145508 -0.68164,-0.41211 -0.964843,-0.800781 l 0.825683,-0.679688 c 0.177735,0.177734 0.375977,0.335938 0.594727,0.473633 0.218261,0.137695 0.485351,0.206055 0.800781,0.206055 0.137695,0 0.277344,-0.01367 0.418945,-0.04199 0.141602,-0.02832 0.26709,-0.07324 0.376465,-0.133789 0.108887,-0.06055 0.198242,-0.137695 0.26709,-0.230469 0.06836,-0.09375 0.103027,-0.200195 0.103027,-0.322265 0,-0.161133 -0.05078,-0.294922 -0.151855,-0.400391 -0.101075,-0.105468 -0.222657,-0.188476 -0.364258,-0.249023 -0.141602,-0.06055 -0.291016,-0.109375 -0.448731,-0.145508 -0.158203,-0.03613 -0.297363,-0.06641 -0.418945,-0.09082 -0.234863,-0.05664 -0.457519,-0.121094 -0.66748,-0.194336 -0.210938,-0.07324 -0.396973,-0.169922 -0.558594,-0.291016 -0.16211,-0.12207 -0.291504,-0.27539 -0.388184,-0.461914 -0.09717,-0.185547 -0.145996,-0.416015 -0.145996,-0.691406 0,-0.299805 0.0625,-0.561035 0.188477,-0.783691 0.125,-0.222168 0.291015,-0.406739 0.497558,-0.552247 0.206055,-0.145507 0.440918,-0.254882 0.704102,-0.327636 0.262695,-0.07275 0.527832,-0.109375 0.794922,-0.109375 0.388672,0 0.760742,0.07275 1.116699,0.21875 0.355957,0.145508 0.63916,0.388183 0.849609,0.728027 z" />
	<path
   style="fill:#37b34a"
   inkscape:connector-curvature="0"
   id="path849"
   d="m 40.42334,17.340332 c 0,-0.218262 0.0791,-0.40625 0.236816,-0.564453 0.157715,-0.157715 0.346192,-0.236328 0.564453,-0.236328 0.21875,0 0.406739,0.07861 0.564453,0.236328 0.157715,0.158203 0.236817,0.346191 0.236817,0.564453 0,0.21875 -0.0791,0.406738 -0.236817,0.564453 -0.157714,0.157715 -0.345703,0.236816 -0.564453,0.236816 -0.218261,0 -0.406738,-0.0791 -0.564453,-0.236816 C 40.502441,17.74707 40.42334,17.559082 40.42334,17.340332 Z m 0.254883,2.063477 h 1.092773 v 5.754394 h -1.092773 z" />
	<path
   style="fill:#37b34a"
   inkscape:connector-curvature="0"
   id="path851"
   d="m 48.96875,25.109375 c 0,0.4375 -0.0752,0.835937 -0.224609,1.196289 -0.149903,0.359375 -0.362305,0.670898 -0.637207,0.93457 -0.275391,0.262696 -0.606934,0.466797 -0.995606,0.612305 -0.388183,0.146484 -0.817383,0.21875 -1.286621,0.21875 -0.550293,0 -1.054199,-0.07715 -1.51123,-0.230469 -0.457032,-0.154297 -0.89209,-0.420898 -1.304688,-0.800781 l 0.740234,-0.922852 c 0.283204,0.307618 0.590821,0.54004 0.922364,0.698243 0.332031,0.157226 0.708496,0.236328 1.128906,0.236328 0.404785,0 0.740723,-0.05859 1.007812,-0.175781 0.26709,-0.117188 0.479493,-0.269532 0.637207,-0.455079 0.157715,-0.186523 0.269043,-0.399414 0.333985,-0.637695 0.06445,-0.238281 0.09668,-0.479492 0.09668,-0.72168 v -0.850585 h -0.03613 c -0.210449,0.348632 -0.495606,0.605468 -0.855957,0.771484 -0.359864,0.166016 -0.738281,0.249023 -1.134766,0.249023 -0.420898,0 -0.811523,-0.0752 -1.171387,-0.224609 -0.360351,-0.150391 -0.669921,-0.356445 -0.92871,-0.619141 C 43.490235,24.125 43.287598,23.8125 43.14209,23.453125 42.996582,23.092773 42.923828,22.702148 42.923828,22.28125 c 0,-0.420898 0.06836,-0.81543 0.206055,-1.183594 0.137695,-0.368652 0.333984,-0.689941 0.588867,-0.965332 0.254883,-0.274902 0.5625,-0.489258 0.922363,-0.643555 0.360352,-0.15332 0.762696,-0.230468 1.208008,-0.230468 0.388184,0 0.766602,0.08496 1.134766,0.254882 0.368164,0.169922 0.657715,0.408692 0.868164,0.716309 h 0.02393 v -0.825684 h 1.092773 z m -2.986328,-4.831543 c -0.291016,0 -0.554199,0.05078 -0.789063,0.151855 -0.234375,0.101563 -0.432617,0.23877 -0.594726,0.412598 -0.161621,0.174317 -0.28711,0.385254 -0.375977,0.632324 -0.08935,0.246094 -0.133789,0.515625 -0.133789,0.806641 0,0.583008 0.169922,1.049805 0.509766,1.402344 0.339843,0.351562 0.801269,0.527344 1.383789,0.527344 0.583008,0 1.043945,-0.175782 1.383789,-0.527344 0.339844,-0.352539 0.509765,-0.819336 0.509765,-1.402344 0,-0.291016 -0.04443,-0.560547 -0.1333,-0.806641 -0.08936,-0.24707 -0.214356,-0.458007 -0.376465,-0.632324 -0.161621,-0.173828 -0.359863,-0.311035 -0.594727,-0.412598 -0.234863,-0.101074 -0.497558,-0.151855 -0.789062,-0.151855 z" />
	<path
   style="fill:#37b34a"
   inkscape:connector-curvature="0"
   id="path853"
   d="m 50.315918,19.403809 h 1.092773 v 0.88623 h 0.02442 c 0.137206,-0.307129 0.375976,-0.556152 0.71582,-0.746582 0.339844,-0.189941 0.732422,-0.285156 1.177734,-0.285156 0.274902,0 0.540039,0.04248 0.794922,0.127441 0.254883,0.08496 0.477539,0.216797 0.667481,0.394531 0.190429,0.178223 0.341796,0.406739 0.455566,0.686036 0.112793,0.278808 0.169922,0.608886 0.169922,0.989746 v 3.702148 h -1.092773 v -3.398437 c 0,-0.267578 -0.03613,-0.496094 -0.109375,-0.686524 -0.07275,-0.189941 -0.169922,-0.344238 -0.291016,-0.461426 -0.121582,-0.117187 -0.261231,-0.202148 -0.418945,-0.254882 -0.157715,-0.05273 -0.321778,-0.0791 -0.4917,-0.0791 -0.226562,0 -0.437011,0.03662 -0.630859,0.109375 -0.194336,0.07275 -0.364258,0.187988 -0.509766,0.346191 -0.145996,0.157715 -0.259277,0.358399 -0.340332,0.601563 -0.08057,0.242187 -0.121093,0.529297 -0.121093,0.861328 v 2.961914 h -1.092774 z" />
	<path
   style="fill:#37b34a"
   inkscape:connector-curvature="0"
   id="path855"
   d="m 56.761231,19.403809 h 1.020019 v 0.898437 h 0.02393 c 0.02441,-0.08057 0.08691,-0.182129 0.188476,-0.303223 0.101075,-0.121582 0.230469,-0.236816 0.388184,-0.346191 0.157715,-0.109375 0.34375,-0.202148 0.558594,-0.279297 0.214355,-0.07666 0.450683,-0.115234 0.709961,-0.115234 0.428711,0 0.789062,0.08936 1.080566,0.26709 0.291016,0.178222 0.529785,0.445312 0.71582,0.801269 0.186036,-0.355957 0.449219,-0.623047 0.789063,-0.801269 0.339844,-0.177735 0.684082,-0.26709 1.031738,-0.26709 0.445313,0 0.809082,0.07275 1.092774,0.21875 0.283203,0.145508 0.505371,0.33789 0.66748,0.576172 0.161621,0.239257 0.272949,0.510254 0.333985,0.813476 0.06055,0.304199 0.09082,0.617676 0.09082,0.940918 v 3.350586 h -1.092285 v -3.204101 c 0,-0.21875 -0.01416,-0.429688 -0.04248,-0.631836 -0.02881,-0.202149 -0.0874,-0.380371 -0.176269,-0.534668 -0.08887,-0.153321 -0.214356,-0.276856 -0.375977,-0.370118 -0.162109,-0.09277 -0.376465,-0.139648 -0.643555,-0.139648 -0.526367,0 -0.902344,0.162109 -1.128906,0.48584 -0.226562,0.324219 -0.339844,0.741211 -0.339844,1.250976 v 3.143555 H 60.56104 v -3.010742 c 0,-0.274414 -0.01465,-0.525391 -0.04248,-0.751953 -0.02881,-0.226563 -0.08496,-0.42334 -0.169922,-0.589356 -0.08496,-0.166015 -0.206543,-0.29541 -0.364258,-0.388672 -0.157715,-0.09277 -0.370117,-0.139648 -0.637207,-0.139648 -0.194336,0 -0.382324,0.03857 -0.564453,0.115723 -0.182129,0.07666 -0.342285,0.191894 -0.479492,0.345703 -0.137696,0.153808 -0.247071,0.350586 -0.328125,0.588867 -0.08057,0.239258 -0.121094,0.520508 -0.121094,0.84375 v 2.986328 H 56.76123 v -5.754394 z" />
	<path
   style="fill:#37b34a"
   inkscape:connector-curvature="0"
   id="path857"
   d="m 67.625488,22.681641 c 0,0.250976 0.05469,0.479492 0.164063,0.686523 0.108886,0.206055 0.252441,0.381836 0.430664,0.527344 0.177734,0.145508 0.384277,0.259765 0.61914,0.339844 0.234375,0.08105 0.47754,0.12207 0.728028,0.12207 0.340332,0 0.635254,-0.0791 0.88623,-0.237305 0.250977,-0.157226 0.481446,-0.366211 0.691895,-0.625 l 0.825683,0.63086 c -0.606933,0.785156 -1.456543,1.177734 -2.549316,1.177734 -0.453125,0 -0.86377,-0.07715 -1.231934,-0.230469 -0.368164,-0.15332 -0.679687,-0.366211 -0.93457,-0.637695 -0.254883,-0.270508 -0.451172,-0.589844 -0.588867,-0.958985 -0.137695,-0.368164 -0.206543,-0.766601 -0.206543,-1.195312 0,-0.428711 0.07471,-0.827148 0.224609,-1.195313 0.149903,-0.368652 0.355957,-0.688476 0.619141,-0.959472 0.263183,-0.270996 0.57666,-0.483399 0.940918,-0.637696 0.364258,-0.15332 0.760254,-0.230468 1.189453,-0.230468 0.509766,0 0.940918,0.08936 1.292969,0.267089 0.352051,0.178223 0.641113,0.410645 0.867676,0.698243 0.226562,0.287109 0.390136,0.610839 0.491699,0.971679 0.101074,0.359375 0.151855,0.725586 0.151855,1.098633 v 0.387695 z m 3.447266,-0.874024 c -0.0083,-0.242187 -0.04639,-0.464844 -0.115235,-0.667969 -0.06885,-0.20166 -0.171875,-0.377929 -0.30957,-0.527832 -0.137695,-0.149414 -0.30957,-0.267089 -0.516113,-0.35205 -0.206055,-0.08496 -0.446777,-0.127442 -0.722168,-0.127442 -0.26709,0 -0.511719,0.05078 -0.734375,0.151856 -0.222656,0.101074 -0.410645,0.232422 -0.564453,0.394531 -0.153809,0.161621 -0.272949,0.341797 -0.35791,0.541015 -0.08496,0.198243 -0.127442,0.393555 -0.127442,0.587891 z" />
	<path
   style="fill:#37b34a"
   inkscape:connector-curvature="0"
   id="path859"
   d="m 73.245117,19.403809 h 1.092774 v 0.88623 h 0.02441 c 0.137207,-0.307129 0.375976,-0.556152 0.71582,-0.746582 0.339844,-0.189941 0.732422,-0.285156 1.177734,-0.285156 0.274903,0 0.54004,0.04248 0.794922,0.127441 0.254883,0.08496 0.477539,0.216797 0.667481,0.394531 0.19043,0.178223 0.341797,0.406739 0.455566,0.686036 0.112793,0.278808 0.169922,0.608886 0.169922,0.989746 v 3.702148 h -1.092773 v -3.398437 c 0,-0.267578 -0.03613,-0.496094 -0.109375,-0.686524 -0.07275,-0.189941 -0.169922,-0.344238 -0.291016,-0.461426 -0.121582,-0.117187 -0.26123,-0.202148 -0.418945,-0.254882 -0.157715,-0.05273 -0.321777,-0.0791 -0.491699,-0.0791 -0.226563,0 -0.437012,0.03662 -0.63086,0.109375 -0.194336,0.07275 -0.364258,0.187988 -0.509765,0.346191 -0.145996,0.157715 -0.259278,0.358399 -0.340332,0.601563 -0.08057,0.242187 -0.121094,0.529297 -0.121094,0.861328 v 2.961914 h -1.092774 v -5.754394 z" />
	<path
   style="fill:#37b34a"
   inkscape:connector-curvature="0"
   id="path861"
   d="m 82.774414,20.351074 h -1.565918 v 2.609863 c 0,0.16211 0.0039,0.322266 0.01221,0.479493 0.0078,0.158203 0.03809,0.299804 0.09082,0.424804 0.05274,0.125977 0.13379,0.226563 0.242676,0.303711 0.109375,0.07715 0.269043,0.115235 0.479492,0.115235 0.129395,0 0.263184,-0.01172 0.400879,-0.03613 0.137207,-0.02441 0.262696,-0.06934 0.375977,-0.133789 v 0.995117 c -0.129395,0.07324 -0.297363,0.124023 -0.503418,0.152344 -0.206543,0.02832 -0.366211,0.04199 -0.479492,0.04199 -0.420899,0 -0.746582,-0.05859 -0.977051,-0.175781 -0.230957,-0.117188 -0.400879,-0.268555 -0.510254,-0.455078 -0.108887,-0.186524 -0.173828,-0.394532 -0.193848,-0.625 -0.02051,-0.231446 -0.03027,-0.463868 -0.03027,-0.698243 V 20.351075 H 78.853522 V 19.40381 h 1.262695 v -1.614258 h 1.092285 v 1.614258 h 1.565918 v 0.947265 z" />
</g><path
     id="path865"
     d="m 1.5000036,1 c 0,1.2611165 1.0223334,2.2834499 2.2834394,2.2834499 1.261106,0 2.2834396,-1.0223334 2.2834396,-2.2834499"
     stroke-miterlimit="10"
     inkscape:connector-curvature="0"
     style="fill:none;stroke:#37b34a;stroke-miterlimit:10" /><path
     id="path867"
     d="M 7.8936405,5.0551014"
     stroke-miterlimit="10"
     inkscape:connector-curvature="0"
     style="fill:none;stroke:#37b34a;stroke-miterlimit:10" /><path
     id="path869"
     d="m 7.8936405,1 c 0,1.2611165 1.0223331,2.2834499 2.2834395,2.2834499 1.261116,0 2.28345,-1.0223334 2.28345,-2.2834499"
     stroke-miterlimit="10"
     inkscape:connector-curvature="0"
     style="fill:none;stroke:#37b34a;stroke-miterlimit:10" /><path
     id="path871"
     d="M 14.287277,5.0551014"
     stroke-miterlimit="10"
     inkscape:connector-curvature="0"
     style="fill:none;stroke:#37b34a;stroke-miterlimit:10" /><path
     id="path873"
     d="m 14.287277,1 c 0,1.2611165 1.022333,2.2834499 2.283449,2.2834499 1.261107,0 2.28344,-1.0223334 2.28344,-2.2834499"
     stroke-miterlimit="10"
     inkscape:connector-curvature="0"
     style="fill:none;stroke:#37b34a;stroke-miterlimit:10" /><path
     id="path875"
     d="m 1.5000036,13.987089 c 0,-1.261117 1.0223334,-2.28345 2.2834394,-2.28345 1.261106,0 2.2834396,1.022333 2.2834396,2.28345"
     stroke-miterlimit="10"
     inkscape:connector-curvature="0"
     style="fill:none;stroke:#37b34a;stroke-miterlimit:10" /><path
     id="path877"
     d="m 7.8936405,13.987089 c 0,-1.261117 1.0223331,-2.28345 2.2834395,-2.28345 1.261116,0 2.28345,1.022333 2.28345,2.28345"
     stroke-miterlimit="10"
     inkscape:connector-curvature="0"
     style="fill:none;stroke:#37b34a;stroke-miterlimit:10" /><path
     id="path879"
     d="m 14.287277,13.987089 c 0,-1.261117 1.022333,-2.28345 2.283449,-2.28345 1.261107,0 2.28344,1.022333 2.28344,2.28345"
     stroke-miterlimit="10"
     inkscape:connector-curvature="0"
     style="fill:none;stroke:#37b34a;stroke-miterlimit:10" /><circle
     id="circle881"
     r="2.283443"
     cy="7.5078197"
     cx="3.783443"
     stroke-miterlimit="10"
     style="fill:none;stroke:#37b34a;stroke-miterlimit:10" /><circle
     id="circle883"
     r="2.283443"
     cy="7.5078197"
     cx="10.177083"
     stroke-miterlimit="10"
     style="fill:none;stroke:#37b34a;stroke-miterlimit:10" /><circle
     id="circle885"
     r="2.283443"
     cy="7.5078197"
     cx="16.570723"
     stroke-miterlimit="10"
     style="fill:#37b34a;stroke:#37b34a;stroke-miterlimit:10" /></g>















<g
   id="g939"
   transform="translate(-1,-1)">
</g>
<g
   id="g941"
   transform="translate(-1,-1)">
</g>
<g
   id="g943"
   transform="translate(-1,-1)">
</g>
<g
   id="g945"
   transform="translate(-1,-1)">
</g>
<g
   id="g947"
   transform="translate(-1,-1)">
</g>
<g
   id="g949"
   transform="translate(-1,-1)">
</g>
<g
   id="g951"
   transform="translate(-1,-1)">
</g>
<g
   id="g953"
   transform="translate(-1,-1)">
</g>
<g
   id="g955"
   transform="translate(-1,-1)">
</g>
<g
   id="g957"
   transform="translate(-1,-1)">
</g>
<g
   id="g959"
   transform="translate(-1,-1)">
</g>
<g
   id="g961"
   transform="translate(-1,-1)">
</g>
<g
   id="g963"
   transform="translate(-1,-1)">
</g>
<g
   id="g965"
   transform="translate(-1,-1)">
</g>
<g
   id="g967"
   transform="translate(-1,-1)">
</g>
</svg>