<?xml version="1.0" encoding="UTF-8" standalone="no"?>
<!-- Generator: Adobe Illustrator 17.1.0, SVG Export Plug-In . SVG Version: 6.00 Build 0)  -->

<svg
   xmlns:dc="http://purl.org/dc/elements/1.1/"
   xmlns:cc="http://creativecommons.org/ns#"
   xmlns:rdf="http://www.w3.org/1999/02/22-rdf-syntax-ns#"
   xmlns:svg="http://www.w3.org/2000/svg"
   xmlns="http://www.w3.org/2000/svg"
   xmlns:sodipodi="http://sodipodi.sourceforge.net/DTD/sodipodi-0.dtd"
   xmlns:inkscape="http://www.inkscape.org/namespaces/inkscape"
   version="1.1"
   id="Layer_1"
   x="0px"
   y="0px"
   width="113.75439"
   height="14.417544"
   viewBox="0 0 113.75439 14.417544"
   enable-background="new 0 0 240 40"
   xml:space="preserve"
   sodipodi:docname="sw-icon-spectral-menu.svg"
   inkscape:version="0.92.3 (2405546, 2018-03-11)"><metadata
   id="metadata362"><rdf:RDF><cc:Work
       rdf:about=""><dc:format>image/svg+xml</dc:format><dc:type
         rdf:resource="http://purl.org/dc/dcmitype/StillImage" /><dc:title></dc:title></cc:Work></rdf:RDF></metadata><defs
   id="defs360" /><sodipodi:namedview
   pagecolor="#ffffff"
   bordercolor="#666666"
   borderopacity="1"
   objecttolerance="10"
   gridtolerance="10"
   guidetolerance="10"
   inkscape:pageopacity="0"
   inkscape:pageshadow="2"
   inkscape:window-width="1377"
   inkscape:window-height="650"
   id="namedview358"
   showgrid="false"
   fit-margin-top="0"
   fit-margin-left="0"
   fit-margin-right="0"
   fit-margin-bottom="0"
   inkscape:zoom="5.7"
   inkscape:cx="97.670328"
   inkscape:cy="-5.56876"
   inkscape:window-x="3165"
   inkscape:window-y="671"
   inkscape:window-maximized="0"
   inkscape:current-layer="Layer_1" />












































<g
   id="g8621"
   transform="translate(-1,-1)"><path
     d="m 21.998246,10.417544 c 0.2,0.3 0.5,0.5 0.8,0.7 0.3,0.2 0.7,0.2 1,0.2 0.2,0 0.4,0 0.6,-0.1 0.2,-0.1 0.4,-0.2 0.6,-0.3 0.2,-0.1 0.3,-0.3 0.4,-0.4 0.1,-0.2 0.2,-0.4 0.2,-0.6 0,-0.3 -0.1,-0.6 -0.3,-0.8 -0.2,-0.2 -0.5,-0.3 -0.8,-0.4 -0.3,-0.1 -0.7,-0.2 -1,-0.3 -0.3,-0.1 -0.7,-0.3 -1,-0.5 -0.3,-0.2 -0.6,-0.5 -0.8,-0.8 -0.2,-0.3 -0.4,-0.8 -0.4,-1.4 0,-0.3 0.1,-0.5 0.2,-0.8 0.1,-0.3 0.3,-0.5 0.5,-0.8 0.2,-0.2 0.5,-0.4 0.9,-0.6 0.4,-0.2 0.8,-0.2 1.3,-0.2 0.5,0 0.9,0.1 1.3,0.2 0.4,0.1 0.8,0.4 1.1,0.8 l -0.9,0.9 c -0.1,-0.2 -0.4,-0.4 -0.6,-0.5 -0.2,-0.1 -0.6,-0.2 -0.9,-0.2 -0.3,0 -0.6,0 -0.8,0.1 -0.2,0.1 -0.4,0.2 -0.5,0.3 -0.1,0.1 -0.2,0.3 -0.3,0.4 -0.1,0.2 -0.1,0.3 -0.1,0.4 0,0.4 0.1,0.6 0.3,0.8 0.2,0.2 0.5,0.4 0.8,0.5 0.3,0.1 0.7,0.2 1,0.3 0.3,0.1 0.7,0.2 1,0.4 0.3,0.2 0.6,0.4 0.8,0.7 0.2,0.3 0.3,0.7 0.3,1.2 0,0.4 -0.1,0.8 -0.2,1.1 -0.2,0.3 -0.4,0.6 -0.6,0.8 -0.2,0.2 -0.6,0.4 -0.9,0.5 -0.4,0.1 -0.8,0.2 -1.2,0.2 -0.6,0 -1.1,-0.1 -1.6,-0.3 -0.5,-0.2 -0.9,-0.5 -1.2,-0.9 z"
     id="path205"
     inkscape:connector-curvature="0"
     style="fill:#48b0e3" /><path
     d="m 27.898246,6.417544 h 1.1 v 0.8 0 c 0.2,-0.3 0.5,-0.5 0.9,-0.7 0.4,-0.2 0.7,-0.3 1.1,-0.3 0.4,0 0.8,0.1 1.2,0.2 0.4,0.2 0.7,0.4 0.9,0.6 0.3,0.3 0.5,0.6 0.6,1 0.1,0.4 0.2,0.8 0.2,1.2 0,0.4 -0.1,0.8 -0.2,1.2 -0.1,0.4 -0.3,0.7 -0.6,1 -0.3,0.3 -0.6,0.5 -0.9,0.6 -0.4,0.2 -0.8,0.2 -1.2,0.2 -0.4,0 -0.8,-0.1 -1.2,-0.3 -0.4,-0.2 -0.6,-0.4 -0.8,-0.7 v 0 4.2 h -1.1 z m 3,0.9 c -0.3,0 -0.6,0.1 -0.8,0.2 -0.2,0.1 -0.4,0.2 -0.6,0.4 -0.2,0.2 -0.3,0.4 -0.4,0.6 -0.1,0.2 -0.1,0.5 -0.1,0.8 0,0.3 0,0.6 0.1,0.8 0.1,0.2 0.2,0.5 0.4,0.6 0.2,0.2 0.4,0.3 0.6,0.4 0.2,0.1 0.5,0.2 0.8,0.2 0.3,0 0.6,-0.1 0.8,-0.2 0.2,-0.1 0.4,-0.2 0.6,-0.4 0.2,-0.2 0.3,-0.4 0.4,-0.6 0.1,-0.2 0.1,-0.5 0.1,-0.8 0,-0.3 0,-0.6 -0.1,-0.8 -0.1,-0.2 -0.2,-0.5 -0.4,-0.6 -0.2,-0.2 -0.4,-0.3 -0.6,-0.4 -0.2,-0.2 -0.5,-0.2 -0.8,-0.2 z"
     id="path207"
     inkscape:connector-curvature="0"
     style="fill:#48b0e3" /><path
     d="m 35.898246,9.717544 c 0,0.3 0.1,0.5 0.2,0.7 0.1,0.2 0.3,0.4 0.4,0.5 0.2,0.1 0.4,0.3 0.6,0.3 0.2,0.1 0.5,0.1 0.7,0.1 0.3,0 0.6,-0.1 0.9,-0.2 0.3,-0.2 0.5,-0.4 0.7,-0.6 l 0.8,0.6 c -0.6,0.8 -1.5,1.2 -2.5,1.2 -0.5,0 -0.9,-0.1 -1.2,-0.2 -0.3,-0.1 -0.7,-0.4 -0.9,-0.6 -0.3,-0.3 -0.5,-0.6 -0.6,-1 -0.1,-0.4 -0.2,-0.8 -0.2,-1.2 0,-0.4 0.1,-0.8 0.2,-1.2 0.1,-0.4 0.4,-0.7 0.6,-1 0.2,-0.3 0.6,-0.5 0.9,-0.6 0.4,-0.2 0.8,-0.2 1.2,-0.2 0.5,0 0.9,0.1 1.3,0.3 0.4,0.2 0.6,0.4 0.9,0.7 0.2,0.3 0.4,0.6 0.5,1 0.1,0.4 0.2,0.7 0.2,1.1 v 0.4 h -4.7 z m 3.4,-0.9 c 0,-0.2 0,-0.5 -0.1,-0.7 -0.1,-0.2 -0.2,-0.4 -0.3,-0.5 -0.1,-0.1 -0.3,-0.3 -0.5,-0.4 -0.2,-0.1 -0.4,-0.1 -0.7,-0.1 -0.3,0 -0.5,0.1 -0.7,0.2 -0.2,0.1 -0.4,0.2 -0.6,0.4 -0.2,0.2 -0.3,0.3 -0.4,0.5 -0.1,0.2 -0.1,0.4 -0.1,0.6 z"
     id="path209"
     inkscape:connector-curvature="0"
     style="fill:#48b0e3" /><path
     d="m 45.598246,7.917544 c -0.2,-0.2 -0.4,-0.4 -0.6,-0.5 -0.2,-0.1 -0.5,-0.2 -0.8,-0.2 -0.3,0 -0.6,0.1 -0.8,0.2 -0.2,0.1 -0.4,0.3 -0.6,0.4 -0.1,0.2 -0.3,0.4 -0.3,0.7 -0.1,0.2 -0.1,0.5 -0.1,0.8 0,0.3 0,0.5 0.1,0.8 0.1,0.2 0.2,0.4 0.4,0.6 0.2,0.2 0.4,0.3 0.6,0.4 0.2,0.1 0.5,0.2 0.8,0.2 0.3,0 0.6,-0.1 0.8,-0.2 0.2,-0.1 0.4,-0.3 0.6,-0.5 l 0.8,0.8 c -0.3,0.3 -0.6,0.5 -1,0.7 -0.4,0.1 -0.8,0.2 -1.2,0.2 -0.4,0 -0.9,-0.1 -1.2,-0.2 -0.4,-0.1 -0.7,-0.3 -1,-0.6 -0.3,-0.3 -0.5,-0.6 -0.6,-0.9 -0.1,-0.3 -0.2,-0.8 -0.2,-1.2 0,-0.4 0.1,-0.9 0.2,-1.2 0.1,-0.4 0.4,-0.7 0.6,-1 0.3,-0.3 0.6,-0.5 0.9,-0.6 0.4,-0.1 0.8,-0.2 1.2,-0.2 0.4,0 0.8,0.1 1.2,0.2 0.4,0.1 0.7,0.4 1,0.7 z"
     id="path211"
     inkscape:connector-curvature="0"
     style="fill:#48b0e3" /><path
     d="m 50.598246,7.417544 h -1.6 v 2.6 c 0,0.2 0,0.3 0,0.5 0,0.2 0,0.3 0.1,0.4 0.1,0.1 0.1,0.2 0.2,0.3 0.1,0.1 0.3,0.1 0.5,0.1 0.1,0 0.3,0 0.4,0 0.1,0 0.3,-0.1 0.4,-0.1 v 1 c -0.1,0.1 -0.3,0.1 -0.5,0.2 -0.2,0 -0.4,0 -0.5,0 -0.4,0 -0.7,-0.1 -1,-0.2 -0.2,-0.1 -0.4,-0.3 -0.5,-0.5 -0.1,-0.2 -0.2,-0.4 -0.2,-0.6 0,-0.2 0,-0.5 0,-0.7 v -3 h -1.3 v -0.9 h 1.3 v -1.6 h 1.1 v 1.6 h 1.6 z"
     id="path213"
     inkscape:connector-curvature="0"
     style="fill:#48b0e3" /><path
     d="m 51.698246,6.417544 h 1.1 v 0.9 0 c 0.1,-0.2 0.2,-0.3 0.3,-0.4 0.1,-0.1 0.3,-0.2 0.4,-0.3 0.1,-0.1 0.3,-0.2 0.5,-0.2 0.2,-0.1 0.4,-0.1 0.5,-0.1 0.2,0 0.3,0 0.5,0.1 v 1.2 c -0.1,0 -0.2,0 -0.3,-0.1 -0.1,0 -0.2,0 -0.3,0 -0.5,0 -0.9,0.1 -1.2,0.4 -0.3,0.3 -0.4,0.8 -0.4,1.4 v 2.9 h -1.1 z"
     id="path215"
     inkscape:connector-curvature="0"
     style="fill:#48b0e3" /><path
     d="m 60.998246,12.217544 h -1.1 v -0.9 0 c -0.1,0.3 -0.4,0.6 -0.7,0.7 -0.3,0.1 -0.7,0.3 -1.2,0.3 -0.3,0 -0.6,0 -0.8,-0.1 -0.3,-0.1 -0.5,-0.2 -0.7,-0.4 -0.2,-0.2 -0.3,-0.4 -0.5,-0.7 -0.1,-0.3 -0.2,-0.6 -0.2,-1 v -3.7 h 1.1 v 3.4 c 0,0.3 0,0.5 0.1,0.7 0.1,0.2 0.2,0.3 0.3,0.5 0.1,0.1 0.3,0.2 0.4,0.3 0.1,0.1 0.3,0.1 0.5,0.1 0.2,0 0.4,0 0.6,-0.1 0.2,-0.1 0.4,-0.2 0.5,-0.3 0.1,-0.2 0.3,-0.4 0.3,-0.6 0.1,-0.2 0.1,-0.5 0.1,-0.9 v -3 h 1.1 v 5.7 z"
     id="path217"
     inkscape:connector-curvature="0"
     style="fill:#48b0e3" /><path
     d="m 62.298246,6.417544 h 1 v 0.9 0 c 0,-0.1 0.1,-0.2 0.2,-0.3 0.1,-0.1 0.2,-0.2 0.4,-0.3 0.2,-0.1 0.3,-0.2 0.6,-0.3 0.2,-0.1 0.5,-0.1 0.7,-0.1 0.4,0 0.8,0.1 1.1,0.3 0.3,0.2 0.5,0.4 0.7,0.8 0.2,-0.4 0.4,-0.6 0.8,-0.8 0.3,-0.2 0.7,-0.3 1,-0.3 0.4,0 0.8,0.1 1.1,0.2 0.3,0.1 0.5,0.3 0.7,0.6 0.2,0.2 0.3,0.5 0.3,0.8 0.1,0.3 0.1,0.6 0.1,0.9 v 3.4 h -1.1 v -3.2 c 0,-0.2 0,-0.4 0,-0.6 0,-0.2 -0.1,-0.4 -0.2,-0.5 -0.1,-0.2 -0.2,-0.3 -0.4,-0.4 -0.2,-0.1 -0.4,-0.1 -0.6,-0.1 -0.5,0 -0.9,0.2 -1.1,0.5 -0.2,0.3 -0.3,0.7 -0.3,1.3 v 3.1 h -1.1 v -3 c 0,-0.3 0,-0.5 0,-0.8 0,-0.2 -0.1,-0.4 -0.2,-0.6 -0.1,-0.2 -0.2,-0.3 -0.4,-0.4 -0.2,-0.1 -0.4,-0.1 -0.6,-0.1 -0.2,0 -0.4,0 -0.6,0.1 -0.2,0.1 -0.3,0.2 -0.5,0.3 -0.1,0.2 -0.2,0.4 -0.3,0.6 -0.1,0.2 -0.1,0.5 -0.1,0.8 v 3 h -1.2 z"
     id="path219"
     inkscape:connector-curvature="0"
     style="fill:#48b0e3" /><g
     transform="translate(52.45614,-10.877193)"
     id="g8574"><path
       style="fill:none;stroke:#979797;stroke-width:0.99150002;stroke-miterlimit:10"
       inkscape:connector-curvature="0"
       stroke-miterlimit="10"
       d="M 24.4,20.3"
       id="path195" /><path
       style="fill:none;stroke:#979797;stroke-width:0.99150002;stroke-miterlimit:10"
       inkscape:connector-curvature="0"
       stroke-miterlimit="10"
       d="M 24.5,20.3"
       id="path203" /><path
       style="fill:#48b0e3"
       inkscape:connector-curvature="0"
       id="path221"
       d="m 24.498246,14.717544 h 1.1 l 3.7,8.6 h -1.4 l -0.9,-2.1 h -4.1 l -0.8,2.1 h -1.4 z m 2,5.4 -1.6,-3.9 v 0 l -1.6,3.9 z" /><path
       style="fill:#48b0e3"
       inkscape:connector-curvature="0"
       id="path223"
       d="m 29.698246,17.517544 h 1.1 v 0.9 0 c 0.1,-0.3 0.4,-0.6 0.7,-0.7 0.3,-0.2 0.7,-0.3 1.2,-0.3 0.3,0 0.5,0 0.8,0.1 0.3,0.1 0.5,0.2 0.7,0.4 0.2,0.2 0.3,0.4 0.5,0.7 0.1,0.3 0.2,0.6 0.2,1 v 3.7 h -1.1 v -3.4 c 0,-0.3 0,-0.5 -0.1,-0.7 -0.1,-0.2 -0.2,-0.3 -0.3,-0.5 -0.1,-0.1 -0.3,-0.2 -0.4,-0.3 -0.1,-0.1 -0.3,-0.1 -0.5,-0.1 -0.2,0 -0.4,0 -0.6,0.1 -0.2,0.1 -0.4,0.2 -0.5,0.3 -0.1,0.2 -0.3,0.4 -0.3,0.6 -0.1,0.2 -0.1,0.5 -0.1,0.9 v 3 h -1.1 v -5.7 z" /><path
       style="fill:#48b0e3"
       inkscape:connector-curvature="0"
       id="path225"
       d="m 36.198246,18.217544 c 0.3,-0.3 0.7,-0.5 1.1,-0.6 0.4,-0.1 0.8,-0.2 1.2,-0.2 0.4,0 0.8,0.1 1.1,0.2 0.3,0.1 0.6,0.2 0.7,0.4 0.2,0.2 0.3,0.4 0.4,0.6 0.1,0.2 0.1,0.5 0.1,0.7 v 2.9 c 0,0.2 0,0.4 0,0.6 0,0.2 0,0.3 0,0.5 h -1 c 0,-0.3 0,-0.6 0,-0.9 v 0 c -0.2,0.4 -0.5,0.6 -0.9,0.8 -0.3,0.2 -0.7,0.2 -1.2,0.2 -0.3,0 -0.5,0 -0.8,-0.1 -0.2,-0.1 -0.5,-0.2 -0.6,-0.3 -0.1,-0.1 -0.3,-0.3 -0.4,-0.5 -0.1,-0.2 -0.2,-0.5 -0.2,-0.7 0,-0.4 0.1,-0.7 0.2,-0.9 0.1,-0.2 0.4,-0.5 0.7,-0.6 0.3,-0.2 0.6,-0.3 1,-0.3 0.4,-0.1 0.8,-0.1 1.2,-0.1 h 0.8 v -0.2 c 0,-0.1 0,-0.3 -0.1,-0.4 -0.1,-0.1 -0.1,-0.3 -0.3,-0.4 -0.1,-0.1 -0.3,-0.2 -0.4,-0.3 -0.2,-0.1 -0.4,-0.1 -0.6,-0.1 -0.2,0 -0.4,0 -0.6,0.1 -0.2,0 -0.3,0.1 -0.4,0.2 -0.1,0.1 -0.2,0.1 -0.4,0.2 -0.2,0.1 -0.2,0.2 -0.3,0.2 z m 3.1,2.3 c -0.3,0 -0.5,0 -0.8,0 -0.3,0 -0.5,0.1 -0.7,0.2 -0.2,0.1 -0.4,0.2 -0.5,0.3 -0.1,0.1 -0.2,0.3 -0.2,0.6 0,0.3 0.1,0.6 0.3,0.7 0.2,0.1 0.5,0.2 0.9,0.2 0.3,0 0.6,0 0.8,-0.2 0.2,-0.2 0.4,-0.2 0.5,-0.4 0.1,-0.2 0.2,-0.3 0.3,-0.5 0.1,-0.2 0.1,-0.4 0.1,-0.6 v -0.4 h -0.7 z" /><path
       style="fill:#48b0e3"
       inkscape:connector-curvature="0"
       id="path227"
       d="m 42.198246,14.117544 h 1.1 v 9.2 h -1.1 z" /><path
       style="fill:#48b0e3"
       inkscape:connector-curvature="0"
       id="path229"
       d="m 44.098246,17.517544 h 1.3 l 1.7,4.5 v 0 l 1.6,-4.5 h 1.2 l -2.7,7 c -0.1,0.3 -0.2,0.5 -0.3,0.7 -0.1,0.2 -0.2,0.4 -0.4,0.5 -0.1,0.1 -0.3,0.3 -0.5,0.3 -0.2,0.1 -0.5,0.1 -0.8,0.1 -0.2,0 -0.3,0 -0.5,0 -0.2,0 -0.3,-0.1 -0.5,-0.1 l 0.1,-1 c 0.2,0.1 0.4,0.1 0.7,0.1 0.2,0 0.3,0 0.4,-0.1 0.1,0 0.2,-0.1 0.3,-0.2 0.1,-0.1 0.2,-0.2 0.2,-0.3 0,-0.1 0.1,-0.2 0.2,-0.4 l 0.4,-0.9 z" /><path
       style="fill:#48b0e3"
       inkscape:connector-curvature="0"
       id="path231"
       d="m 53.598246,19.017544 c -0.1,-0.2 -0.3,-0.3 -0.5,-0.4 -0.2,-0.1 -0.4,-0.2 -0.7,-0.2 -0.3,0 -0.5,0.1 -0.7,0.2 -0.2,0.1 -0.3,0.3 -0.3,0.5 0,0.2 0.1,0.3 0.2,0.4 0.1,0.1 0.2,0.2 0.4,0.3 0.1,0.1 0.3,0.1 0.5,0.1 0.2,0 0.3,0.1 0.4,0.1 0.2,0.1 0.5,0.1 0.7,0.2 0.2,0.1 0.4,0.2 0.5,0.3 0.1,0.1 0.3,0.3 0.4,0.5 0.1,0.2 0.1,0.4 0.1,0.7 0,0.3 -0.1,0.6 -0.2,0.8 -0.1,0.2 -0.3,0.4 -0.5,0.6 -0.2,0.1 -0.5,0.2 -0.7,0.3 -0.3,0.1 -0.6,0.1 -0.8,0.1 -0.5,0 -0.9,-0.1 -1.3,-0.2 -0.4,-0.1 -0.7,-0.4 -1,-0.8 l 0.8,-0.7 c 0.2,0.2 0.4,0.3 0.6,0.5 0.2,0.1 0.5,0.2 0.8,0.2 0.1,0 0.3,0 0.4,0 0.1,0 0.3,-0.1 0.4,-0.1 0.1,-0.1 0.2,-0.1 0.3,-0.2 0.1,-0.1 0.1,-0.2 0.1,-0.3 0,-0.2 -0.1,-0.3 -0.2,-0.4 -0.1,-0.1 -0.2,-0.2 -0.4,-0.2 -0.2,0 -0.3,-0.1 -0.4,-0.1 -0.2,0 -0.3,-0.1 -0.4,-0.1 -0.2,-0.1 -0.5,-0.1 -0.7,-0.2 -0.2,-0.1 -0.4,-0.2 -0.6,-0.3 -0.2,-0.1 -0.3,-0.3 -0.4,-0.5 -0.1,-0.4 -0.1,-0.7 -0.1,-0.9 0,-0.3 0.1,-0.6 0.2,-0.8 0.1,-0.2 0.3,-0.4 0.5,-0.6 0.2,-0.1 0.4,-0.3 0.7,-0.3 0.3,-0.1 0.5,-0.1 0.8,-0.1 0.4,0 0.8,0.1 1.1,0.2 0.3,0.1 0.6,0.4 0.8,0.7 z" /><path
       style="fill:#48b0e3"
       inkscape:connector-curvature="0"
       id="path233"
       d="m 55.498246,15.517544 c 0,-0.2 0.1,-0.4 0.2,-0.6 0.2,-0.2 0.3,-0.2 0.6,-0.2 0.2,0 0.4,0.1 0.6,0.2 0.2,0.2 0.2,0.3 0.2,0.6 0,0.3 -0.1,0.4 -0.2,0.6 -0.2,0.2 -0.3,0.2 -0.6,0.2 -0.2,0 -0.4,-0.1 -0.6,-0.2 -0.2,-0.2 -0.2,-0.4 -0.2,-0.6 z m 0.2,2 h 1.1 v 5.8 h -1.1 z" /><path
       style="fill:#48b0e3"
       inkscape:connector-curvature="0"
       id="path235"
       d="m 61.298246,19.017544 c -0.1,-0.2 -0.3,-0.3 -0.5,-0.4 -0.2,-0.1 -0.4,-0.2 -0.7,-0.2 -0.3,0 -0.5,0.1 -0.7,0.2 -0.2,0.1 -0.3,0.3 -0.3,0.5 0,0.2 0.1,0.3 0.2,0.4 0.1,0.1 0.2,0.2 0.4,0.3 0.1,0.1 0.3,0.1 0.5,0.1 0.2,0 0.3,0.1 0.4,0.1 0.2,0.1 0.5,0.1 0.7,0.2 0.2,0.1 0.4,0.2 0.5,0.3 0.1,0.1 0.3,0.3 0.4,0.5 0.1,0.2 0.1,0.4 0.1,0.7 0,0.3 -0.1,0.6 -0.2,0.8 -0.1,0.2 -0.3,0.4 -0.5,0.6 -0.2,0.1 -0.5,0.2 -0.7,0.3 -0.3,0.1 -0.6,0.1 -0.8,0.1 -0.5,0 -0.9,-0.1 -1.3,-0.2 -0.4,-0.1 -0.7,-0.4 -1,-0.8 l 0.8,-0.7 c 0.2,0.2 0.4,0.3 0.6,0.5 0.2,0.1 0.5,0.2 0.8,0.2 0.1,0 0.3,0 0.4,0 0.1,0 0.3,-0.1 0.4,-0.1 0.1,-0.1 0.2,-0.1 0.3,-0.2 0.1,-0.1 0.1,-0.2 0.1,-0.3 0,-0.2 -0.1,-0.3 -0.2,-0.4 -0.1,-0.1 -0.2,-0.2 -0.4,-0.2 -0.2,0 -0.3,-0.1 -0.4,-0.1 -0.2,0 -0.3,-0.1 -0.4,-0.1 -0.2,-0.1 -0.5,-0.1 -0.7,-0.2 -0.2,-0.1 -0.4,-0.2 -0.6,-0.3 -0.2,-0.1 -0.3,-0.3 -0.4,-0.5 -0.1,-0.2 -0.1,-0.4 -0.1,-0.7 0,-0.3 0.1,-0.6 0.2,-0.8 0.1,-0.2 0.3,-0.4 0.5,-0.6 0.2,-0.1 0.4,-0.3 0.7,-0.3 0.3,-0.1 0.5,-0.1 0.8,-0.1 0.4,0 0.8,0.1 1.1,0.2 0.3,0.1 0.6,0.4 0.8,0.7 z" /></g><path
     id="path239"
     d="m 1.5,1 c 0,1.3 1,2.3 2.3,2.3 1.3,0 2.3,-1 2.3,-2.3"
     stroke-miterlimit="10"
     inkscape:connector-curvature="0"
     style="fill:none;stroke:#48b0e3;stroke-miterlimit:10" /><path
     id="path241"
     d="M 7.9,5.1"
     stroke-miterlimit="10"
     inkscape:connector-curvature="0"
     style="fill:none;stroke:#48b0e3;stroke-miterlimit:10" /><path
     id="path243"
     d="m 7.9,1 c 0,1.3 1,2.3 2.3,2.3 1.3,0 2.3,-1 2.3,-2.3"
     stroke-miterlimit="10"
     inkscape:connector-curvature="0"
     style="fill:none;stroke:#48b0e3;stroke-miterlimit:10" /><path
     id="path245"
     d="M 14.3,5.1"
     stroke-miterlimit="10"
     inkscape:connector-curvature="0"
     style="fill:none;stroke:#37b34a;stroke-miterlimit:10" /><path
     id="path247"
     d="m 14.3,1 c 0,1.3 1,2.3 2.3,2.3 1.3,0 2.3,-1 2.3,-2.3"
     stroke-miterlimit="10"
     inkscape:connector-curvature="0"
     style="fill:none;stroke:#48b0e3;stroke-miterlimit:10" /><path
     id="path249"
     d="m 1.5,14 c 0,-1.3 1,-2.3 2.3,-2.3 1.3,0 2.3,1 2.3,2.3"
     stroke-miterlimit="10"
     inkscape:connector-curvature="0"
     style="fill:none;stroke:#48b0e3;stroke-miterlimit:10" /><path
     id="path251"
     d="m 7.9,14 c 0,-1.3 1,-2.3 2.3,-2.3 1.3,0 2.3,1 2.3,2.3"
     stroke-miterlimit="10"
     inkscape:connector-curvature="0"
     style="fill:none;stroke:#48b0e3;stroke-miterlimit:10" /><path
     id="path253"
     d="m 14.3,14 c 0,-1.3 1,-2.3 2.3,-2.3 1.3,0 2.3,1 2.3,2.3"
     stroke-miterlimit="10"
     inkscape:connector-curvature="0"
     style="fill:none;stroke:#48b0e3;stroke-miterlimit:10" /><circle
     id="circle255"
     r="2.3"
     cy="7.5"
     cx="3.8"
     stroke-miterlimit="10"
     style="fill:none;stroke:#48b0e3;stroke-miterlimit:10" /><circle
     id="circle257"
     r="2.3"
     cy="7.5"
     cx="10.2"
     stroke-miterlimit="10"
     style="fill:none;stroke:#48b0e3;stroke-miterlimit:10" /><circle
     id="circle259"
     r="2.3"
     cy="7.5"
     cx="16.6"
     stroke-miterlimit="10"
     style="fill:#48b0e3;stroke:#48b0e3;stroke-miterlimit:10" /><g
     id="g327">
</g><g
     id="g329">
</g><g
     id="g331">
</g><g
     id="g333">
</g><g
     id="g335">
</g><g
     id="g337">
</g><g
     id="g339">
</g><g
     id="g341">
</g><g
     id="g343">
</g><g
     id="g345">
</g><g
     id="g347">
</g><g
     id="g349">
</g><g
     id="g351">
</g><g
     id="g353">
</g><g
     id="g355">
</g></g>
</svg>