<?xml version="1.0" encoding="UTF-8" standalone="no"?>
<!-- Generator: Adobe Illustrator 17.1.0, SVG Export Plug-In . SVG Version: 6.00 Build 0)  -->

<svg
   xmlns:dc="http://purl.org/dc/elements/1.1/"
   xmlns:cc="http://creativecommons.org/ns#"
   xmlns:rdf="http://www.w3.org/1999/02/22-rdf-syntax-ns#"
   xmlns:svg="http://www.w3.org/2000/svg"
   xmlns="http://www.w3.org/2000/svg"
   xmlns:sodipodi="http://sodipodi.sourceforge.net/DTD/sodipodi-0.dtd"
   xmlns:inkscape="http://www.inkscape.org/namespaces/inkscape"
   version="1.1"
   id="Layer_1"
   x="0px"
   y="0px"
   width="117.82456"
   height="14.064912"
   viewBox="0 0 117.82456 14.064912"
   enable-background="new 0 0 240 40"
   xml:space="preserve"
   sodipodi:docname="sw-icon-molecular-menu.svg"
   inkscape:version="0.92.3 (2405546, 2018-03-11)"><metadata
   id="metadata676"><rdf:RDF><cc:Work
       rdf:about=""><dc:format>image/svg+xml</dc:format><dc:type
         rdf:resource="http://purl.org/dc/dcmitype/StillImage" /><dc:title></dc:title></cc:Work></rdf:RDF></metadata><defs
   id="defs674" /><sodipodi:namedview
   pagecolor="#ffffff"
   bordercolor="#666666"
   borderopacity="1"
   objecttolerance="10"
   gridtolerance="10"
   guidetolerance="10"
   inkscape:pageopacity="0"
   inkscape:pageshadow="2"
   inkscape:window-width="1281"
   inkscape:window-height="677"
   id="namedview672"
   showgrid="false"
   fit-margin-top="0"
   fit-margin-left="0"
   fit-margin-right="0"
   fit-margin-bottom="0"
   inkscape:zoom="5.7"
   inkscape:cx="59.875893"
   inkscape:cy="-3.2639909"
   inkscape:window-x="3228"
   inkscape:window-y="657"
   inkscape:window-maximized="0"
   inkscape:current-layer="Layer_1" />



<path
   style="fill:#42bdae"
   inkscape:connector-curvature="0"
   id="path515"
   d="m 20.522807,2.442105 h 1.7 l 2.7,6.5 v 0 l 2.7,-6.5 h 1.7 v 8.6 h -1.2 v -7.1 0 l -2.9,7.1 h -0.8 l -2.9,-7.1 v 0 7.1 h -1.2 v -8.6 z" /><path
   style="fill:#42bdae"
   inkscape:connector-curvature="0"
   id="path517"
   d="m 30.222807,8.142105 c 0,-0.4 0.1,-0.8 0.2,-1.2 0.2,-0.4 0.4,-0.7 0.6,-1 0.3,-0.3 0.6,-0.5 1,-0.6 0.4,-0.1 0.8,-0.2 1.2,-0.2 0.4,0 0.8,0.1 1.2,0.2 0.4,0.2 0.7,0.4 1,0.6 0.3,0.3 0.5,0.6 0.6,1 0.2,0.4 0.2,0.8 0.2,1.2 0,0.4 -0.1,0.8 -0.2,1.2 -0.1,0.4 -0.4,0.7 -0.6,1 -0.2,0.3 -0.6,0.5 -1,0.6 -0.4,0.2 -0.8,0.2 -1.2,0.2 -0.4,0 -0.8,-0.1 -1.2,-0.2 -0.4,-0.2 -0.7,-0.4 -1,-0.6 -0.3,-0.3 -0.5,-0.6 -0.6,-1 -0.1,-0.4 -0.2,-0.8 -0.2,-1.2 z m 1.2,0 c 0,0.3 0,0.6 0.1,0.8 0.1,0.2 0.2,0.5 0.4,0.6 0.2,0.2 0.4,0.3 0.6,0.4 0.2,0.1 0.5,0.2 0.8,0.2 0.3,0 0.6,-0.1 0.8,-0.2 0.2,-0.1 0.4,-0.2 0.6,-0.4 0.2,-0.2 0.3,-0.4 0.4,-0.6 0.1,-0.2 0.1,-0.5 0.1,-0.8 0,-0.3 0,-0.6 -0.1,-0.8 -0.1,-0.2 -0.2,-0.5 -0.4,-0.6 -0.2,-0.2 -0.4,-0.3 -0.6,-0.4 -0.2,-0.1 -0.5,-0.2 -0.8,-0.2 -0.3,0 -0.6,0.1 -0.8,0.2 -0.2,0.1 -0.4,0.2 -0.6,0.4 -0.2,0.2 -0.3,0.4 -0.4,0.6 -0.1,0.2 -0.1,0.5 -0.1,0.8 z" /><path
   style="fill:#42bdae"
   inkscape:connector-curvature="0"
   id="path519"
   d="m 37.022807,1.842105 h 1.1 v 9.2 h -1.1 z" /><path
   style="fill:#42bdae"
   inkscape:connector-curvature="0"
   id="path521"
   d="m 39.922807,8.542105 c 0,0.3 0.1,0.5 0.2,0.7 0.1,0.2 0.3,0.4 0.4,0.5 0.2,0.1 0.4,0.3 0.6,0.3 0.2,0.1 0.5,0.1 0.7,0.1 0.3,0 0.6,-0.1 0.9,-0.2 0.3,-0.2 0.5,-0.4 0.7,-0.6 l 0.8,0.6 c -0.6,0.8 -1.5,1.2 -2.5,1.2 -0.5,0 -0.9,-0.1 -1.2,-0.2 -0.3,-0.1 -0.7,-0.4 -0.9,-0.6 -0.3,-0.3 -0.5,-0.6 -0.6,-1 -0.1,-0.4 -0.2,-0.8 -0.2,-1.2 0,-0.4 0.1,-0.8 0.2,-1.2 0.1,-0.4 0.4,-0.7 0.6,-1 0.2,-0.3 0.6,-0.5 0.9,-0.6 0.4,-0.2 0.8,-0.2 1.2,-0.2 0.5,0 0.9,0.1 1.3,0.3 0.4,0.2 0.6,0.4 0.9,0.7 0.2,0.3 0.4,0.6 0.5,1 0.1,0.4 0.2,0.7 0.2,1.1 v 0.4 h -4.7 z m 3.5,-0.9 c 0,-0.2 0,-0.5 -0.1,-0.7 -0.1,-0.2 -0.2,-0.4 -0.3,-0.5 -0.1,-0.1 -0.3,-0.3 -0.5,-0.4 -0.2,-0.1 -0.4,-0.1 -0.7,-0.1 -0.3,0 -0.5,0.1 -0.7,0.2 -0.2,0.1 -0.4,0.2 -0.6,0.4 -0.2,0.1 -0.4,0.3 -0.4,0.5 -0.1,0.2 -0.1,0.4 -0.1,0.6 z" /><path
   style="fill:#42bdae"
   inkscape:connector-curvature="0"
   id="path523"
   d="m 49.422807,6.742105 c -0.2,-0.2 -0.4,-0.4 -0.6,-0.5 -0.2,-0.1 -0.5,-0.2 -0.8,-0.2 -0.3,0 -0.6,0.1 -0.8,0.2 -0.2,0.1 -0.4,0.3 -0.6,0.4 -0.1,0.2 -0.3,0.4 -0.3,0.7 -0.1,0.2 -0.1,0.5 -0.1,0.8 0,0.3 0,0.5 0.1,0.8 0.1,0.2 0.2,0.4 0.4,0.6 0.2,0.2 0.4,0.3 0.6,0.4 0.2,0.1 0.5,0.2 0.8,0.2 0.3,0 0.6,-0.1 0.8,-0.2 0.2,-0.1 0.4,-0.3 0.6,-0.5 l 0.8,0.8 c -0.3,0.3 -0.6,0.5 -1,0.7 -0.4,0.1 -0.8,0.2 -1.2,0.2 -0.4,0 -0.9,-0.1 -1.2,-0.2 -0.4,-0.1 -0.7,-0.3 -1,-0.6 -0.3,-0.3 -0.5,-0.6 -0.6,-0.9 -0.1,-0.3 -0.2,-0.8 -0.2,-1.3 0,-0.5 0.1,-0.9 0.2,-1.2 0.1,-0.4 0.4,-0.7 0.6,-1 0.3,-0.3 0.6,-0.5 0.9,-0.6 0.4,-0.1 0.8,-0.2 1.2,-0.2 0.4,0 0.8,0.1 1.2,0.2 0.4,0.1 0.7,0.4 1,0.7 z" /><path
   style="fill:#42bdae"
   inkscape:connector-curvature="0"
   id="path525"
   d="m 55.822807,11.042105 h -1.1 v -0.9 0 c -0.1,0.3 -0.4,0.6 -0.7,0.7 -0.3,0.1 -0.7,0.3 -1.2,0.3 -0.3,0 -0.6,0 -0.8,-0.1 -0.3,-0.1 -0.5,-0.2 -0.7,-0.4 -0.2,-0.2 -0.3,-0.4 -0.5,-0.7 -0.1,-0.3 -0.2,-0.6 -0.2,-1 v -3.7 h 1.1 v 3.4 c 0,0.3 0,0.5 0.1,0.7 0.1,0.2 0.2,0.3 0.3,0.5 0.1,0.1 0.3,0.2 0.4,0.3 0.1,0.1 0.3,0.1 0.5,0.1 0.2,0 0.4,0 0.6,-0.1 0.2,-0.1 0.4,-0.2 0.5,-0.3 0.1,-0.2 0.3,-0.4 0.3,-0.6 0.1,-0.2 0.1,-0.5 0.1,-0.9 v -3 h 1.1 v 5.7 z" /><path
   style="fill:#42bdae"
   inkscape:connector-curvature="0"
   id="path527"
   d="m 57.022807,1.842105 h 1.1 v 9.2 h -1.1 z" /><path
   style="fill:#42bdae"
   inkscape:connector-curvature="0"
   id="path529"
   d="m 59.322807,5.942105 c 0.3,-0.3 0.7,-0.5 1.1,-0.6 0.4,-0.1 0.8,-0.2 1.2,-0.2 0.4,0 0.8,0.1 1.1,0.2 0.3,0.1 0.6,0.2 0.7,0.4 0.2,0.2 0.3,0.4 0.4,0.6 0.1,0.2 0.1,0.5 0.1,0.7 v 2.9 c 0,0.2 0,0.4 0,0.6 0,0.2 0,0.3 0,0.5 h -1 c 0,-0.3 0,-0.6 0,-0.9 v 0 c -0.2,0.4 -0.5,0.6 -0.9,0.8 -0.3,0.2 -0.7,0.2 -1.2,0.2 -0.3,0 -0.5,0 -0.8,-0.1 -0.2,-0.1 -0.5,-0.2 -0.6,-0.3 -0.1,-0.1 -0.3,-0.3 -0.4,-0.5 -0.1,-0.2 -0.2,-0.5 -0.2,-0.7 0,-0.4 0.1,-0.7 0.2,-0.9 0.1,-0.2 0.4,-0.5 0.7,-0.6 0.3,-0.2 0.6,-0.3 1,-0.3 0.4,-0.1 0.8,-0.1 1.2,-0.1 h 0.8 v -0.2 c 0,-0.1 0,-0.3 -0.1,-0.4 -0.1,-0.1 -0.1,-0.3 -0.3,-0.4 -0.1,-0.1 -0.3,-0.2 -0.4,-0.3 -0.2,-0.1 -0.4,-0.1 -0.6,-0.1 -0.2,0 -0.4,0 -0.6,0.1 -0.2,0 -0.3,0.1 -0.4,0.2 -0.1,0.1 -0.2,0.1 -0.4,0.2 -0.1,0.1 -0.2,0.2 -0.3,0.2 z m 3.1,2.3 c -0.3,0 -0.5,0 -0.8,0 -0.3,0 -0.5,0.1 -0.7,0.2 -0.2,0.1 -0.4,0.2 -0.5,0.3 -0.1,0.1 -0.3,0.4 -0.3,0.6 0,0.3 0.1,0.6 0.3,0.7 0.2,0.1 0.5,0.2 0.9,0.2 0.3,0 0.6,0 0.8,-0.2 0.2,-0.2 0.4,-0.2 0.5,-0.4 0.1,-0.2 0.2,-0.3 0.3,-0.5 0.1,-0.2 0.1,-0.4 0.1,-0.6 v -0.4 h -0.6 z" /><path
   style="fill:#42bdae"
   inkscape:connector-curvature="0"
   id="path531"
   d="m 65.122807,5.242105 h 1.1 v 0.9 0 c 0.1,-0.2 0.2,-0.3 0.3,-0.4 0.1,-0.1 0.3,-0.2 0.4,-0.3 0.1,-0.1 0.3,-0.2 0.5,-0.2 0.2,-0.1 0.4,-0.1 0.5,-0.1 0.2,0 0.3,0 0.5,0.1 v 1.2 c -0.1,0 -0.2,0 -0.3,-0.1 -0.1,0 -0.2,0 -0.3,0 -0.5,0 -0.9,0.1 -1.2,0.4 -0.3,0.3 -0.4,0.8 -0.4,1.4 v 2.9 h -1.1 z" /><g
   id="g8669"
   transform="translate(49.701754,-11.877193)"><path
     id="path505"
     d="M 24.4,20.3"
     stroke-miterlimit="10"
     inkscape:connector-curvature="0"
     style="fill:none;stroke:#979797;stroke-width:0.99150002;stroke-miterlimit:10" /><path
     id="path513"
     d="M 24.5,20.3"
     stroke-miterlimit="10"
     inkscape:connector-curvature="0"
     style="fill:none;stroke:#979797;stroke-width:0.99150002;stroke-miterlimit:10" /><path
     d="m 21.522807,14.542105 h 1.7 l 2.7,6.5 v 0 l 2.7,-6.5 h 1.7 v 8.6 h -1.2 v -7.1 0 l -2.9,7.1 h -0.8 l -2.9,-7.1 v 0 7.1 h -1.2 v -8.6 z"
     id="path533"
     inkscape:connector-curvature="0"
     style="fill:#42bdae" /><path
     d="m 31.222807,20.242105 c 0,-0.4 0.1,-0.8 0.2,-1.2 0.2,-0.4 0.4,-0.7 0.6,-1 0.3,-0.3 0.6,-0.5 1,-0.6 0.4,-0.2 0.8,-0.2 1.2,-0.2 0.4,0 0.8,0.1 1.2,0.2 0.4,0.2 0.7,0.4 1,0.6 0.3,0.3 0.5,0.6 0.6,1 0.2,0.4 0.2,0.8 0.2,1.2 0,0.4 -0.1,0.8 -0.2,1.2 -0.1,0.4 -0.4,0.7 -0.6,1 -0.2,0.3 -0.6,0.5 -1,0.6 -0.4,0.2 -0.8,0.2 -1.2,0.2 -0.4,0 -0.8,-0.1 -1.2,-0.2 -0.4,-0.2 -0.7,-0.4 -1,-0.6 -0.3,-0.3 -0.5,-0.6 -0.6,-1 -0.1,-0.4 -0.2,-0.8 -0.2,-1.2 z m 1.2,0 c 0,0.3 0,0.6 0.1,0.8 0.1,0.2 0.2,0.5 0.4,0.6 0.2,0.2 0.4,0.3 0.6,0.4 0.2,0.1 0.5,0.2 0.8,0.2 0.3,0 0.6,-0.1 0.8,-0.2 0.2,-0.1 0.4,-0.2 0.6,-0.4 0.2,-0.2 0.3,-0.4 0.4,-0.6 0.1,-0.2 0.1,-0.5 0.1,-0.8 0,-0.3 0,-0.6 -0.1,-0.8 -0.1,-0.2 -0.2,-0.5 -0.4,-0.6 -0.2,-0.2 -0.4,-0.3 -0.6,-0.4 -0.2,-0.1 -0.5,-0.2 -0.8,-0.2 -0.3,0 -0.6,0.1 -0.8,0.2 -0.2,0.1 -0.4,0.2 -0.6,0.4 -0.2,0.2 -0.3,0.4 -0.4,0.6 -0.1,0.2 -0.1,0.5 -0.1,0.8 z"
     id="path535"
     inkscape:connector-curvature="0"
     style="fill:#42bdae" /><path
     d="m 44.022807,23.142105 h -1.1 v -0.8 0 c -0.2,0.3 -0.5,0.5 -0.9,0.7 -0.4,0.2 -0.7,0.3 -1.1,0.3 -0.4,0 -0.8,-0.1 -1.2,-0.2 -0.4,-0.2 -0.7,-0.4 -0.9,-0.6 -0.3,-0.3 -0.5,-0.6 -0.6,-1 -0.1,-0.4 -0.2,-0.8 -0.2,-1.2 0,-0.4 0.1,-0.8 0.2,-1.2 0.1,-0.4 0.3,-0.7 0.6,-1 0.3,-0.3 0.6,-0.5 0.9,-0.6 0.4,-0.2 0.8,-0.2 1.2,-0.2 0.4,0 0.8,0.1 1.2,0.3 0.4,0.2 0.6,0.4 0.8,0.7 v 0 -4.2 h 1.1 z m -3,-0.9 c 0.3,0 0.6,-0.1 0.8,-0.2 0.2,-0.1 0.4,-0.2 0.6,-0.4 0.2,-0.2 0.3,-0.4 0.4,-0.6 0.1,-0.2 0.1,-0.5 0.1,-0.8 0,-0.3 0,-0.6 -0.1,-0.8 -0.1,-0.2 -0.2,-0.5 -0.4,-0.6 -0.2,-0.2 -0.4,-0.3 -0.6,-0.4 -0.2,-0.1 -0.5,-0.2 -0.8,-0.2 -0.3,0 -0.6,0.1 -0.8,0.2 -0.2,0.1 -0.4,0.2 -0.6,0.4 -0.2,0.2 -0.3,0.4 -0.4,0.6 -0.1,0.2 -0.1,0.5 -0.1,0.8 0,0.3 0,0.6 0.1,0.8 0.1,0.2 0.2,0.5 0.4,0.6 0.2,0.2 0.4,0.3 0.6,0.4 0.2,0.2 0.5,0.2 0.8,0.2 z"
     id="path537"
     inkscape:connector-curvature="0"
     style="fill:#42bdae" /><path
     d="m 45.922807,20.642105 c 0,0.3 0.1,0.5 0.2,0.7 0.1,0.2 0.3,0.4 0.4,0.5 0.2,0.1 0.4,0.3 0.6,0.3 0.2,0.1 0.5,0.1 0.7,0.1 0.3,0 0.6,-0.1 0.9,-0.2 0.3,-0.2 0.5,-0.4 0.7,-0.6 l 0.8,0.6 c -0.6,0.8 -1.5,1.2 -2.5,1.2 -0.5,0 -0.9,-0.1 -1.2,-0.2 -0.3,-0.1 -0.7,-0.4 -0.9,-0.6 -0.3,-0.3 -0.5,-0.6 -0.6,-1 -0.1,-0.4 -0.2,-0.8 -0.2,-1.2 0,-0.4 0.1,-0.8 0.2,-1.2 0.1,-0.4 0.4,-0.7 0.6,-1 0.2,-0.3 0.6,-0.5 0.9,-0.6 0.4,-0.2 0.8,-0.2 1.2,-0.2 0.5,0 0.9,0.1 1.3,0.3 0.4,0.2 0.6,0.4 0.9,0.7 0.3,0.3 0.4,0.6 0.5,1 0.1,0.4 0.2,0.7 0.2,1.1 v 0.4 h -4.7 z m 3.5,-0.9 c 0,-0.2 0,-0.5 -0.1,-0.7 -0.1,-0.2 -0.2,-0.4 -0.3,-0.5 -0.1,-0.1 -0.3,-0.3 -0.5,-0.4 -0.2,-0.1 -0.4,-0.1 -0.7,-0.1 -0.3,0 -0.5,0.1 -0.7,0.2 -0.2,0.1 -0.4,0.2 -0.6,0.4 -0.2,0.2 -0.3,0.3 -0.4,0.5 -0.1,0.2 -0.1,0.4 -0.1,0.6 z"
     id="path539"
     inkscape:connector-curvature="0"
     style="fill:#42bdae" /><path
     d="m 51.422807,13.942105 h 1.1 v 9.2 h -1.1 z"
     id="path541"
     inkscape:connector-curvature="0"
     style="fill:#42bdae" /><path
     d="m 53.522807,15.342105 c 0,-0.2 0.1,-0.4 0.2,-0.6 0.2,-0.2 0.3,-0.2 0.6,-0.2 0.2,0 0.4,0.1 0.6,0.2 0.2,0.2 0.2,0.3 0.2,0.6 0,0.3 0,0.4 -0.2,0.5 -0.2,0.2 -0.3,0.2 -0.6,0.2 -0.2,0 -0.4,-0.1 -0.6,-0.2 -0.1,-0.1 -0.2,-0.3 -0.2,-0.5 z m 0.3,2 h 1.1 v 5.8 h -1.1 z"
     id="path543"
     inkscape:connector-curvature="0"
     style="fill:#42bdae" /><path
     d="m 56.122807,17.342105 h 1.1 v 0.9 0 c 0.1,-0.3 0.4,-0.6 0.7,-0.7 0.3,-0.2 0.7,-0.3 1.2,-0.3 0.3,0 0.5,0 0.8,0.1 0.3,0.1 0.5,0.2 0.7,0.4 0.2,0.2 0.3,0.4 0.5,0.7 0.1,0.3 0.2,0.6 0.2,1 v 3.7 h -1.2 v -3.4 c 0,-0.3 0,-0.5 -0.1,-0.7 -0.1,-0.2 -0.2,-0.3 -0.3,-0.5 -0.1,-0.1 -0.3,-0.2 -0.4,-0.3 -0.1,-0.1 -0.3,-0.1 -0.5,-0.1 -0.2,0 -0.4,0 -0.6,0.1 -0.2,0.1 -0.4,0.2 -0.5,0.3 -0.1,0.2 -0.3,0.4 -0.3,0.6 -0.1,0.2 -0.1,0.5 -0.1,0.9 v 3 h -1.2 z"
     id="path545"
     inkscape:connector-curvature="0"
     style="fill:#42bdae" /><path
     d="m 68.122807,23.042105 c 0,0.4 -0.1,0.8 -0.2,1.2 -0.1,0.4 -0.4,0.7 -0.6,0.9 -0.3,0.3 -0.6,0.5 -1,0.6 -0.4,0.1 -0.8,0.2 -1.3,0.2 -0.6,0 -1.1,-0.1 -1.5,-0.2 -0.5,-0.2 -0.9,-0.4 -1.3,-0.8 l 0.7,-0.9 c 0.3,0.3 0.6,0.5 0.9,0.7 0.3,0.2 0.7,0.2 1.1,0.2 0.4,0 0.7,-0.1 1,-0.2 0.3,-0.1 0.5,-0.3 0.6,-0.5 0.2,-0.2 0.3,-0.4 0.3,-0.6 0.1,-0.2 0.1,-0.5 0.1,-0.7 v -0.9 0 c -0.2,0.3 -0.5,0.6 -0.9,0.8 -0.4,0.2 -0.7,0.2 -1.1,0.2 -0.4,0 -0.8,-0.1 -1.2,-0.2 -0.4,-0.2 -0.7,-0.4 -0.9,-0.6 -0.2,-0.2 -0.5,-0.6 -0.6,-0.9 -0.1,-0.3 -0.1,-0.7 -0.1,-1.1 0,-0.4 0.1,-0.8 0.2,-1.2 0.1,-0.4 0.3,-0.7 0.6,-1 0.3,-0.3 0.6,-0.5 0.9,-0.6 0.4,-0.2 0.8,-0.2 1.2,-0.2 0.4,0 0.8,0.1 1.1,0.3 0.3,0.2 0.7,0.4 0.9,0.7 v 0 -0.8 h 1.1 z m -3,-4.8 c -0.3,0 -0.6,0.1 -0.8,0.2 -0.2,0.1 -0.4,0.2 -0.6,0.4 -0.2,0.2 -0.3,0.4 -0.4,0.6 -0.1,0.2 -0.1,0.5 -0.1,0.8 0,0.6 0.2,1 0.5,1.4 0.3,0.4 0.8,0.5 1.4,0.5 0.6,0 1,-0.2 1.4,-0.5 0.3,-0.4 0.5,-0.8 0.5,-1.4 0,-0.3 0,-0.6 -0.1,-0.8 -0.1,-0.2 -0.2,-0.5 -0.4,-0.6 -0.2,-0.2 -0.4,-0.3 -0.6,-0.4 -0.2,-0.1 -0.5,-0.2 -0.8,-0.2 z"
     id="path547"
     inkscape:connector-curvature="0"
     style="fill:#42bdae" /></g>
<path
   stroke-miterlimit="10"
   d="m 0.5,0 c 0,1.3 1,2.3 2.3,2.3 1.3,0 2.3,-1 2.3,-2.3"
   id="path551"
   inkscape:connector-curvature="0"
   style="fill:none;stroke:#42bdae;stroke-miterlimit:10" />
<path
   stroke-miterlimit="10"
   d="M 6.9,4.1"
   id="path553"
   inkscape:connector-curvature="0"
   style="fill:none;stroke:#42bdae;stroke-miterlimit:10" />
<path
   stroke-miterlimit="10"
   d="m 6.9,0 c 0,1.3 1,2.3 2.3,2.3 1.3,0 2.3,-1 2.3,-2.3"
   id="path555"
   inkscape:connector-curvature="0"
   style="fill:none;stroke:#42bdae;stroke-miterlimit:10" />
<path
   stroke-miterlimit="10"
   d="M 13.3,4.1"
   id="path557"
   inkscape:connector-curvature="0"
   style="fill:none;stroke:#37b34a;stroke-miterlimit:10" />
<path
   stroke-miterlimit="10"
   d="m 13.3,0 c 0,1.3 1,2.3 2.3,2.3 1.3,0 2.3,-1 2.3,-2.3"
   id="path559"
   inkscape:connector-curvature="0"
   style="fill:none;stroke:#42bdae;stroke-miterlimit:10" />
<path
   stroke-miterlimit="10"
   d="m 0.5,13 c 0,-1.3 1,-2.3 2.3,-2.3 1.3,0 2.3,1 2.3,2.3"
   id="path561"
   inkscape:connector-curvature="0"
   style="fill:none;stroke:#42bdae;stroke-miterlimit:10" />
<path
   stroke-miterlimit="10"
   d="m 6.9,13 c 0,-1.3 1,-2.3 2.3,-2.3 1.3,0 2.3,1 2.3,2.3"
   id="path563"
   inkscape:connector-curvature="0"
   style="fill:none;stroke:#42bdae;stroke-miterlimit:10" />
<path
   stroke-miterlimit="10"
   d="m 13.3,13 c 0,-1.3 1,-2.3 2.3,-2.3 1.3,0 2.3,1 2.3,2.3"
   id="path565"
   inkscape:connector-curvature="0"
   style="fill:none;stroke:#42bdae;stroke-miterlimit:10" />
<circle
   stroke-miterlimit="10"
   cx="2.8"
   cy="6.5"
   r="2.3"
   id="circle567"
   style="fill:none;stroke:#42bdae;stroke-miterlimit:10" />
<circle
   stroke-miterlimit="10"
   cx="9.1999998"
   cy="6.5"
   r="2.3"
   id="circle569"
   style="fill:none;stroke:#42bdae;stroke-miterlimit:10" />
<circle
   stroke-miterlimit="10"
   cx="15.6"
   cy="6.5"
   r="2.3"
   id="circle571"
   style="fill:#42bdae;stroke:#42bdae;stroke-miterlimit:10" />















<g
   id="g641"
   transform="translate(-1,-1)">
</g>
<g
   id="g643"
   transform="translate(-1,-1)">
</g>
<g
   id="g645"
   transform="translate(-1,-1)">
</g>
<g
   id="g647"
   transform="translate(-1,-1)">
</g>
<g
   id="g649"
   transform="translate(-1,-1)">
</g>
<g
   id="g651"
   transform="translate(-1,-1)">
</g>
<g
   id="g653"
   transform="translate(-1,-1)">
</g>
<g
   id="g655"
   transform="translate(-1,-1)">
</g>
<g
   id="g657"
   transform="translate(-1,-1)">
</g>
<g
   id="g659"
   transform="translate(-1,-1)">
</g>
<g
   id="g661"
   transform="translate(-1,-1)">
</g>
<g
   id="g663"
   transform="translate(-1,-1)">
</g>
<g
   id="g665"
   transform="translate(-1,-1)">
</g>
<g
   id="g667"
   transform="translate(-1,-1)">
</g>
<g
   id="g669"
   transform="translate(-1,-1)">
</g>
</svg>