<?xml version="1.0" encoding="UTF-8" standalone="no"?>
<!-- Generator: Adobe Illustrator 17.1.0, SVG Export Plug-In . SVG Version: 6.00 Build 0)  -->

<svg
   xmlns:dc="http://purl.org/dc/elements/1.1/"
   xmlns:cc="http://creativecommons.org/ns#"
   xmlns:rdf="http://www.w3.org/1999/02/22-rdf-syntax-ns#"
   xmlns:svg="http://www.w3.org/2000/svg"
   xmlns="http://www.w3.org/2000/svg"
   xmlns:sodipodi="http://sodipodi.sourceforge.net/DTD/sodipodi-0.dtd"
   xmlns:inkscape="http://www.inkscape.org/namespaces/inkscape"
   version="1.1"
   id="Layer_1"
   x="0px"
   y="0px"
   width="149.3075"
   height="13.903533"
   viewBox="0 0 149.3075 13.903533"
   enable-background="new 0 0 240 40"
   xml:space="preserve"
   sodipodi:docname="sw-icon-rdc-menu.svg"
   inkscape:version="0.92.3 (2405546, 2018-03-11)"><metadata
   id="metadata193"><rdf:RDF><cc:Work
       rdf:about=""><dc:format>image/svg+xml</dc:format><dc:type
         rdf:resource="http://purl.org/dc/dcmitype/StillImage" /><dc:title></dc:title></cc:Work></rdf:RDF></metadata><defs
   id="defs191" /><sodipodi:namedview
   pagecolor="#ffffff"
   bordercolor="#666666"
   borderopacity="1"
   objecttolerance="10"
   gridtolerance="10"
   guidetolerance="10"
   inkscape:pageopacity="0"
   inkscape:pageshadow="2"
   inkscape:window-width="1362"
   inkscape:window-height="565"
   id="namedview189"
   showgrid="false"
   inkscape:zoom="3.6203867"
   inkscape:cx="86.493568"
   inkscape:cy="6.6830582"
   inkscape:window-x="3127"
   inkscape:window-y="698"
   inkscape:window-maximized="0"
   inkscape:current-layer="Layer_1"
   fit-margin-top="0"
   fit-margin-left="0"
   fit-margin-right="0"
   fit-margin-bottom="0" />
<path
   stroke-miterlimit="10"
   d="M 23.4,19.3"
   id="path2"
   inkscape:connector-curvature="0"
   style="fill:none;stroke:#979797;stroke-width:0.99150002;stroke-miterlimit:10" />

<path
   stroke-miterlimit="10"
   d="M 23.5,19.3"
   id="path12"
   inkscape:connector-curvature="0"
   style="fill:none;stroke:#979797;stroke-width:0.99150002;stroke-miterlimit:10" />
<g
   id="g56"
   transform="translate(40,-15.3)">
	
	
	
	
	
	
	
	
	
	
	
	
	
	
	
	
	
	
	
	
	
</g>











<path
   stroke-miterlimit="10"
   d="M 137.42271,19.3"
   id="path80"
   inkscape:connector-curvature="0"
   style="fill:none;stroke:#979797;stroke-width:0.99150002;stroke-miterlimit:10" />

<path
   stroke-miterlimit="10"
   d="M 137.52271,19.3"
   id="path90"
   inkscape:connector-curvature="0"
   style="fill:none;stroke:#979797;stroke-width:0.99150002;stroke-miterlimit:10" />




<g
   id="g4823"
   transform="translate(-1,-1)"><path
     style="fill:#f6a330"
     inkscape:connector-curvature="0"
     id="path14"
     d="m -20.174515,17.344323 h 3 c 0.6,0 1,0.1 1.4,0.2 0.4,0.1 0.6,0.3 0.8,0.6 0.2,0.2 0.4,0.5 0.4,0.8 0.1,0.3 0.1,0.6 0.1,0.8 0,0.3 0,0.5 -0.1,0.8 -0.1,0.3 -0.2,0.5 -0.4,0.7 -0.2,0.2 -0.4,0.4 -0.7,0.5 -0.3,0.1 -0.6,0.2 -0.9,0.3 l 2.4,3.9 h -1.5 l -2.2,-3.8 h -1.3 v 3.8 h -1.2 v -8.6 z m 1.1,3.8 h 1.5 c 0.2,0 0.5,0 0.7,-0.1 0.2,0 0.4,-0.1 0.6,-0.2 0.2,-0.1 0.3,-0.2 0.4,-0.4 0.1,-0.2 0.2,-0.4 0.2,-0.7 0,-0.3 -0.1,-0.5 -0.2,-0.7 -0.1,-0.2 -0.2,-0.3 -0.4,-0.4 -0.2,-0.1 -0.4,-0.2 -0.6,-0.2 -0.2,0 -0.4,-0.1 -0.7,-0.1 h -1.5 z"
     transform="translate(41,-14.3)" /><path
     style="fill:#f6a330"
     inkscape:connector-curvature="0"
     id="path16"
     d="m -12.774515,23.444323 c 0,0.3 0.1,0.5 0.2,0.7 0.1,0.2 0.3,0.4 0.4,0.5 0.2,0.1 0.4,0.3 0.6,0.3 0.2,0.1 0.5,0.1 0.7,0.1 0.3,0 0.6,-0.1 0.9000005,-0.2 0.3,-0.2 0.5,-0.4 0.7,-0.6 l 0.8,0.6 c -0.6,0.8 -1.5,1.2 -2.5000005,1.2 -0.5,0 -0.9,-0.1 -1.2,-0.2 -0.3,-0.1 -0.7,-0.4 -0.9,-0.6 -0.3,-0.3 -0.5,-0.6 -0.6,-1 -0.1,-0.4 -0.2,-0.8 -0.2,-1.2 0,-0.4 0.1,-0.8 0.2,-1.2 0.1,-0.4 0.4,-0.7 0.6,-1 0.2,-0.3 0.6,-0.5 0.9,-0.6 0.4,-0.2 0.8,-0.2 1.2,-0.2 0.5,0 0.9,0.1 1.3000005,0.3 0.4,0.2 0.6,0.4 0.9,0.7 0.2,0.3 0.4,0.6 0.5,1 0.1,0.4 0.2,0.7 0.2,1.1 v 0.4 h -4.7000005 z m 3.4000005,-0.9 c 0,-0.2 0,-0.5 -0.1,-0.7 -0.1,-0.2 -0.2,-0.4 -0.3,-0.5 -0.1,-0.1 -0.3000005,-0.3 -0.5000005,-0.4 -0.2,-0.1 -0.4,-0.1 -0.7,-0.1 -0.3,0 -0.5,0.1 -0.7,0.2 -0.2,0.1 -0.4,0.2 -0.6,0.4 -0.2,0.2 -0.3,0.3 -0.4,0.5 -0.1,0.2 -0.1,0.4 -0.1,0.6 z"
     transform="translate(41,-14.3)" /><path
     style="fill:#f6a330"
     inkscape:connector-curvature="0"
     id="path20"
     d="m -2.0391066,18.044323 c 0,-0.2 0.1,-0.4 0.2,-0.6 0.2,-0.2 0.3,-0.2 0.6,-0.2 0.2,0 0.40000001,0.1 0.60000001,0.2 0.2,0.2 0.2,0.3 0.2,0.6 0,0.2 -0.1,0.4 -0.2,0.6 -0.1,0.2 -0.3,0.2 -0.60000001,0.2 -0.2,0 -0.4,-0.1 -0.6,-0.2 -0.2,-0.1 -0.2,-0.3 -0.2,-0.6 z m 0.3,2.1 h 1.10000001 v 5.8 H -1.7391066 Z"
     transform="translate(41,-14.3)" /><path
     style="fill:#f6a330;fill-opacity:1"
     inkscape:connector-curvature="0"
     id="path22"
     d="m 6.7330549,25.944323 h -1.1 v -0.8 0 c -0.2,0.3 -0.5,0.5 -0.9,0.7 -0.4,0.2 -0.7,0.3 -1.1,0.3 -0.4,0 -0.8,-0.1 -1.2,-0.2 -0.4,-0.2 -0.7,-0.4 -0.9,-0.6 -0.3,-0.3 -0.5,-0.6 -0.59999997,-1 -0.1,-0.4 -0.2,-0.8 -0.2,-1.2 0,-0.4 0.1,-0.8 0.2,-1.2 0.1,-0.4 0.29999997,-0.7 0.59999997,-1 0.3,-0.3 0.6,-0.5 0.9,-0.6 0.4,-0.2 0.8,-0.2 1.2,-0.2 0.4,0 0.8,0.1 1.2,0.3 0.4,0.2 0.6,0.4 0.8,0.7 v 0 -4.4 h 1.1 z m -3,-0.9 c 0.3,0 0.6,-0.1 0.8,-0.2 0.2,-0.1 0.4,-0.2 0.6,-0.4 0.2,-0.2 0.3,-0.4 0.4,-0.6 0.1,-0.2 0.1,-0.5 0.1,-0.8 0,-0.3 0,-0.6 -0.1,-0.8 -0.1,-0.2 -0.2,-0.5 -0.4,-0.6 -0.2,-0.2 -0.4,-0.3 -0.6,-0.4 -0.2,-0.1 -0.5,-0.2 -0.8,-0.2 -0.3,0 -0.6,0.1 -0.8,0.2 -0.2,0.1 -0.4,0.2 -0.6,0.4 -0.2,0.2 -0.3,0.4 -0.4,0.6 -0.1,0.2 -0.1,0.5 -0.1,0.8 0,0.3 0,0.6 0.1,0.8 0.1,0.2 0.2,0.5 0.4,0.6 0.2,0.2 0.4,0.3 0.6,0.4 0.2,0.1 0.5,0.2 0.8,0.2 z"
     transform="translate(41,-14.3)" /><path
     style="fill:#f6a330"
     inkscape:connector-curvature="0"
     id="path24"
     d="m 12.933054,25.944323 h -1.1 v -0.9 0 c -0.1,0.3 -0.4,0.6 -0.7,0.7 -0.3,0.1 -0.7,0.3 -1.1999996,0.3 -0.3,0 -0.6,0 -0.8,-0.1 -0.2999995,-0.1 -0.4999995,-0.2 -0.6999995,-0.4 -0.2,-0.2 -0.3,-0.4 -0.5,-0.7 -0.1,-0.3 -0.2,-0.6 -0.2,-1 v -3.7 h 1.1 v 3.4 c 0,0.3 0,0.5 0.1,0.7 0.099999,0.2 0.1999995,0.3 0.2999995,0.5 0.1,0.1 0.3,0.2 0.4,0.3 0.1,0.1 0.3,0.1 0.4999996,0.1 0.2,0 0.4,0 0.6,-0.1 0.2,-0.1 0.4,-0.2 0.5,-0.3 0.1,-0.2 0.3,-0.4 0.3,-0.6 0.1,-0.2 0.1,-0.5 0.1,-0.9 v -3 h 1.1 v 5.7 z"
     transform="translate(41,-14.3)" /><path
     style="fill:#f6a330"
     inkscape:connector-curvature="0"
     id="path26"
     d="m 14.033054,20.844323 c 0.3,-0.3 0.7,-0.5 1.1,-0.6 0.4,-0.1 0.8,-0.2 1.2,-0.2 0.4,0 0.8,0.1 1.1,0.2 0.3,0.1 0.6,0.2 0.7,0.4 0.2,0.2 0.3,0.4 0.4,0.6 0.1,0.2 0.1,0.5 0.1,0.7 v 2.9 c 0,0.2 0,0.4 0,0.6 0,0.2 0,0.3 0,0.5 h -1 c 0,-0.3 0,-0.6 0,-0.9 v 0 c -0.2,0.4 -0.5,0.6 -0.9,0.8 -0.3,0.2 -0.7,0.2 -1.2,0.2 -0.3,0 -0.5,0 -0.8,-0.1 -0.2,-0.1 -0.5,-0.2 -0.6,-0.3 -0.1,-0.1 -0.3,-0.3 -0.4,-0.5 -0.1,-0.2 -0.2,-0.5 -0.2,-0.7 0,-0.4 0.1,-0.7 0.2,-0.9 0.1,-0.2 0.4,-0.5 0.7,-0.6 0.3,-0.2 0.6,-0.3 1,-0.3 0.4,-0.1 0.8,-0.1 1.2,-0.1 h 0.8 v -0.2 c 0,-0.1 0,-0.3 -0.1,-0.4 -0.1,-0.1 -0.1,-0.3 -0.3,-0.4 -0.1,-0.1 -0.3,-0.2 -0.4,-0.3 -0.2,-0.1 -0.4,-0.1 -0.6,-0.1 -0.2,0 -0.4,0 -0.6,0.1 -0.2,0 -0.3,0.1 -0.4,0.2 -0.1,0.1 -0.2,0.1 -0.4,0.2 -0.1,0.1 -0.2,0.2 -0.3,0.2 z m 3.1,2.3 c -0.3,0 -0.5,0 -0.8,0 -0.3,0 -0.5,0.1 -0.7,0.2 -0.2,0.1 -0.4,0.2 -0.5,0.3 -0.1,0.1 -0.2,0.3 -0.2,0.6 0,0.3 0.1,0.6 0.3,0.7 0.2,0.1 0.5,0.2 0.9,0.2 0.3,0 0.6,0 0.8,-0.2 0.2,-0.2 0.4,-0.2 0.5,-0.4 0.1,-0.2 0.2,-0.3 0.3,-0.5 0.1,-0.2 0.1,-0.4 0.1,-0.6 v -0.4 h -0.7 z"
     transform="translate(41,-14.3)" /><path
     style="fill:#f6a330"
     inkscape:connector-curvature="0"
     id="path28"
     d="m 19.933054,16.744323 h 1.1 v 9.2 h -1.1 z"
     transform="translate(41,-14.3)" /><path
     style="fill:#f6a330"
     inkscape:connector-curvature="0"
     id="path30"
     d="m 24.140624,17.344323 h 3 c 0.6,0 1.1,0.1 1.6,0.2 0.5,0.1 0.9,0.3 1.2,0.6 0.3,0.3 0.6,0.5 0.8,0.8 0.2,0.3 0.4,0.6 0.5,0.9 0.1,0.3 0.2,0.6 0.3,0.9 0.1,0.3 0.1,0.6 0.1,0.9 0,0.6 -0.1,1.1 -0.3,1.6 -0.2,0.5 -0.5,1 -0.9,1.4 -0.4,0.4 -0.9,0.7 -1.5,1 -0.6,0.2 -1.3,0.4 -2,0.4 h -2.8 z m 1.2,7.5 h 1.5 c 0.5,0 1,-0.1 1.4,-0.2 0.4,-0.1 0.8,-0.3 1.2,-0.6 0.3,-0.3 0.6,-0.6 0.8,-1 0.2,-0.4 0.3,-0.9 0.3,-1.4 0,-0.3 0,-0.6 -0.1,-1 -0.1,-0.4 -0.3,-0.7 -0.5,-1 -0.2,-0.3 -0.6,-0.6 -1,-0.8 -0.4,-0.2 -1,-0.3 -1.7,-0.3 h -1.9 z"
     transform="translate(41,-14.3)" /><path
     style="fill:#f6a330"
     inkscape:connector-curvature="0"
     id="path32"
     d="m 32.340624,18.044323 c 0,-0.2 0.1,-0.4 0.2,-0.6 0.2,-0.2 0.3,-0.2 0.6,-0.2 0.2,0 0.4,0.1 0.6,0.2 0.2,0.2 0.2,0.3 0.2,0.6 0,0.2 -0.1,0.4 -0.2,0.6 -0.1,0.2 -0.3,0.2 -0.6,0.2 -0.2,0 -0.4,-0.1 -0.6,-0.2 -0.2,-0.1 -0.2,-0.3 -0.2,-0.6 z m 0.3,2.1 h 1.1 v 5.8 h -1.1 z"
     transform="translate(41,-14.3)" /><path
     style="fill:#f6a330"
     inkscape:connector-curvature="0"
     id="path34"
     d="m 34.940624,20.144323 h 1.1 v 0.8 0 c 0.2,-0.3 0.5,-0.5 0.9,-0.7 0.4,-0.2 0.7,-0.3 1.1,-0.3 0.4,0 0.8,0.1 1.2,0.2 0.4,0.2 0.7,0.4 0.9,0.6 0.3,0.3 0.5,0.6 0.6,1 0.1,0.4 0.2,0.8 0.2,1.2 0,0.4 -0.1,0.8 -0.2,1.2 -0.1,0.4 -0.3,0.7 -0.6,1 -0.3,0.3 -0.6,0.5 -0.9,0.6 -0.4,0.2 -0.8,0.2 -1.2,0.2 -0.4,0 -0.8,-0.1 -1.2,-0.3 -0.4,-0.2 -0.6,-0.4 -0.8,-0.7 v 0 4.2 h -1.1 z m 3,0.9 c -0.3,0 -0.6,0.1 -0.8,0.2 -0.2,0.1 -0.4,0.2 -0.6,0.4 -0.2,0.2 -0.3,0.4 -0.4,0.6 -0.1,0.2 -0.1,0.5 -0.1,0.8 0,0.3 0,0.6 0.1,0.8 0.1,0.2 0.2,0.5 0.4,0.6 0.2,0.2 0.4,0.3 0.6,0.4 0.2,0.1 0.5,0.2 0.8,0.2 0.3,0 0.6,-0.1 0.8,-0.2 0.2,-0.1 0.4,-0.2 0.6,-0.4 0.2,-0.2 0.3,-0.4 0.4,-0.6 0.1,-0.2 0.1,-0.5 0.1,-0.8 0,-0.3 0,-0.6 -0.1,-0.8 -0.1,-0.2 -0.2,-0.5 -0.4,-0.6 -0.2,-0.2 -0.4,-0.3 -0.6,-0.4 -0.3,-0.2 -0.5,-0.2 -0.8,-0.2 z"
     transform="translate(41,-14.3)" /><path
     style="fill:#f6a330"
     inkscape:connector-curvature="0"
     id="path36"
     d="m 41.540624,23.044323 c 0,-0.4 0.1,-0.8 0.2,-1.2 0.2,-0.4 0.4,-0.7 0.6,-1 0.3,-0.3 0.6,-0.5 1,-0.6 0.4,-0.1 0.8,-0.2 1.2,-0.2 0.4,0 0.8,0.1 1.2,0.2 0.4,0.2 0.7,0.4 1,0.6 0.3,0.3 0.5,0.6 0.6,1 0.2,0.4 0.2,0.8 0.2,1.2 0,0.4 -0.1,0.8 -0.2,1.2 -0.1,0.4 -0.4,0.7 -0.6,1 -0.2,0.3 -0.6,0.5 -1,0.6 -0.4,0.2 -0.8,0.2 -1.2,0.2 -0.4,0 -0.8,-0.1 -1.2,-0.2 -0.4,-0.2 -0.7,-0.4 -1,-0.6 -0.3,-0.3 -0.5,-0.6 -0.6,-1 -0.1,-0.4 -0.2,-0.8 -0.2,-1.2 z m 1.2,0 c 0,0.3 0,0.6 0.1,0.8 0.1,0.2 0.2,0.5 0.4,0.6 0.2,0.2 0.4,0.3 0.6,0.4 0.2,0.1 0.5,0.2 0.8,0.2 0.3,0 0.6,-0.1 0.8,-0.2 0.2,-0.1 0.4,-0.2 0.6,-0.4 0.2,-0.2 0.3,-0.4 0.4,-0.6 0.1,-0.2 0.1,-0.5 0.1,-0.8 0,-0.3 0,-0.6 -0.1,-0.8 -0.1,-0.2 -0.2,-0.5 -0.4,-0.6 -0.2,-0.2 -0.4,-0.3 -0.6,-0.4 -0.2,-0.1 -0.5,-0.2 -0.8,-0.2 -0.3,0 -0.6,0.1 -0.8,0.2 -0.2,0.1 -0.4,0.2 -0.6,0.4 -0.2,0.2 -0.3,0.4 -0.4,0.6 -0.1,0.2 -0.1,0.5 -0.1,0.8 z"
     transform="translate(41,-14.3)" /><path
     style="fill:#f6a330"
     inkscape:connector-curvature="0"
     id="path38"
     d="m 48.640624,16.744323 h 1.1 v 9.2 h -1.1 z"
     transform="translate(41,-14.3)" /><path
     style="fill:#f6a330"
     inkscape:connector-curvature="0"
     id="path42"
     d="m 70.950459,19.203533 c -0.2,-0.3 -0.6,-0.6 -0.9,-0.7 -0.4,-0.2 -0.8,-0.3 -1.2,-0.3 -0.5,0 -0.9,0.1 -1.3,0.3 -0.4,0.2 -0.7,0.4 -1,0.7 -0.3,0.3 -0.5,0.7 -0.6,1.1 -0.1,0.4 -0.2,0.9 -0.2,1.4 0,0.5 0.1,0.9 0.2,1.3 0.1,0.4 0.4,0.8 0.6,1.1 0.3,0.3 0.6,0.5 1,0.7 0.4,0.2 0.8,0.3 1.3,0.3 0.5,0 0.9,-0.1 1.3,-0.3 0.4,-0.2 0.7,-0.5 0.9,-0.8 l 1,0.7 c -0.1,0.1 -0.2,0.2 -0.3,0.4 -0.2,0.2 -0.4,0.3 -0.6,0.5 -0.2,0.2 -0.6,0.3 -1,0.4 -0.4,0.1 -0.8,0.2 -1.3,0.2 -0.7,0 -1.3,-0.1 -1.8,-0.4 -0.5,-0.3 -1,-0.6 -1.4,-1 -0.4,-0.4 -0.7,-0.9 -0.9,-1.4 -0.2,-0.5 -0.3,-1.1 -0.3,-1.6 0,-0.7 0.1,-1.3 0.3,-1.8 0.2,-0.6 0.5,-1 0.9,-1.5 0.4,-0.4 0.9,-0.7 1.4,-1 0.6,-0.2 1.2,-0.3 1.8,-0.3 0.6,0 1.1,0.1 1.7,0.3 0.5,0.2 1,0.6 1.3,1 z"
     transform="translate(41,-14.3)" /><path
     style="fill:#f6a330"
     inkscape:connector-curvature="0"
     id="path44"
     d="m 72.450459,23.103533 c 0,-0.4 0.1,-0.8 0.2,-1.2 0.2,-0.4 0.4,-0.7 0.6,-1 0.3,-0.3 0.6,-0.5 1,-0.6 0.4,-0.2 0.8,-0.2 1.2,-0.2 0.4,0 0.8,0.1 1.2,0.2 0.4,0.2 0.7,0.4 1,0.6 0.3,0.3 0.5,0.6 0.6,1 0.3,0.4 0.3,0.8 0.3,1.2 0,0.4 -0.1,0.8 -0.2,1.2 -0.1,0.4 -0.4,0.7 -0.6,1 -0.2,0.3 -0.6,0.5 -1,0.6 -0.4,0.2 -0.8,0.2 -1.2,0.2 -0.4,0 -0.8,-0.1 -1.2,-0.2 -0.4,-0.2 -0.7,-0.4 -1,-0.6 -0.3,-0.3 -0.5,-0.6 -0.6,-1 -0.2,-0.4 -0.3,-0.8 -0.3,-1.2 z m 1.2,0 c 0,0.3 0,0.6 0.1,0.8 0.1,0.2 0.2,0.5 0.4,0.6 0.2,0.2 0.4,0.3 0.6,0.4 0.2,0.1 0.5,0.2 0.8,0.2 0.3,0 0.6,-0.1 0.8,-0.2 0.2,-0.1 0.4,-0.2 0.6,-0.4 0.2,-0.2 0.3,-0.4 0.4,-0.6 0.1,-0.2 0.1,-0.5 0.1,-0.8 0,-0.3 0,-0.6 -0.1,-0.8 -0.1,-0.2 -0.2,-0.5 -0.4,-0.6 -0.2,-0.2 -0.4,-0.3 -0.6,-0.4 -0.2,-0.1 -0.5,-0.2 -0.8,-0.2 -0.3,0 -0.6,0.1 -0.8,0.2 -0.2,0.1 -0.4,0.2 -0.6,0.4 -0.2,0.2 -0.3,0.4 -0.4,0.6 -0.1,0.2 -0.1,0.5 -0.1,0.8 z"
     transform="translate(41,-14.3)" /><path
     style="fill:#f6a330"
     inkscape:connector-curvature="0"
     id="path46"
     d="m 84.550459,26.003533 h -1.1 v -0.9 0 c -0.1,0.3 -0.4,0.6 -0.7,0.7 -0.3,0.1 -0.7,0.3 -1.2,0.3 -0.3,0 -0.6,0 -0.8,-0.1 -0.3,-0.1 -0.5,-0.2 -0.7,-0.4 -0.2,-0.2 -0.3,-0.4 -0.5,-0.7 -0.1,-0.3 -0.2,-0.6 -0.2,-1 v -3.7 h 1.2 v 3.4 c 0,0.3 0,0.5 0.1,0.7 0.1,0.2 0.2,0.3 0.3,0.5 0.1,0.1 0.3,0.2 0.4,0.3 0.1,0.1 0.3,0.1 0.5,0.1 0.2,0 0.4,0 0.6,-0.1 0.2,-0.1 0.4,-0.2 0.5,-0.3 0.1,-0.2 0.3,-0.4 0.3,-0.6 0.1,-0.2 0.1,-0.5 0.1,-0.9 v -3 h 1.2 z"
     transform="translate(41,-14.3)" /><path
     style="fill:#f6a330"
     inkscape:connector-curvature="0"
     id="path48"
     d="m 85.650459,20.203533 h 1.1 v 0.8 0 c 0.2,-0.3 0.5,-0.5 0.9,-0.7 0.4,-0.2 0.7,-0.3 1.1,-0.3 0.4,0 0.8,0.1 1.2,0.2 0.4,0.2 0.7,0.4 0.9,0.6 0.2,0.2 0.5,0.6 0.6,1 0.1,0.4 0.2,0.8 0.2,1.2 0,0.4 -0.1,0.8 -0.2,1.2 -0.1,0.4 -0.3,0.7 -0.6,1 -0.3,0.3 -0.6,0.5 -0.9,0.6 -0.4,0.2 -0.8,0.2 -1.2,0.2 -0.4,0 -0.8,-0.1 -1.2,-0.3 -0.4,-0.2 -0.6,-0.4 -0.8,-0.7 v 0 4.2 h -1.1 z m 3,0.9 c -0.3,0 -0.6,0.1 -0.8,0.2 -0.2,0.1 -0.4,0.2 -0.6,0.4 -0.2,0.2 -0.3,0.4 -0.4,0.6 -0.1,0.2 -0.1,0.5 -0.1,0.8 0,0.3 0,0.6 0.1,0.8 0.1,0.2 0.2,0.5 0.4,0.6 0.2,0.2 0.4,0.3 0.6,0.4 0.2,0.1 0.5,0.2 0.8,0.2 0.3,0 0.6,-0.1 0.8,-0.2 0.2,-0.1 0.4,-0.2 0.6,-0.4 0.2,-0.2 0.3,-0.4 0.4,-0.6 0.1,-0.2 0.1,-0.5 0.1,-0.8 0,-0.3 0,-0.6 -0.1,-0.8 -0.1,-0.2 -0.2,-0.5 -0.4,-0.6 -0.2,-0.2 -0.4,-0.3 -0.6,-0.4 -0.2,-0.1 -0.5,-0.2 -0.8,-0.2 z"
     transform="translate(41,-14.3)" /><path
     style="fill:#f6a330"
     inkscape:connector-curvature="0"
     id="path50"
     d="m 94.707482,18.079479 c 0,-0.2 0.1,-0.4 0.2,-0.6 0.2,-0.2 0.3,-0.2 0.6,-0.2 0.2,0 0.4,0.1 0.6,0.2 0.2,0.2 0.2,0.3 0.2,0.6 0,0.3 -0.1,0.4 -0.2,0.6 -0.2,0.2 -0.3,0.2 -0.6,0.2 -0.2,0 -0.4,-0.1 -0.6,-0.2 -0.1,-0.2 -0.2,-0.4 -0.2,-0.6 z m 0.3,2 h 1.1 v 5.8 h -1.1 z"
     transform="translate(41,-14.3)" /><path
     style="fill:#f6a330"
     inkscape:connector-curvature="0"
     id="path52"
     d="m 97.307478,20.079479 h 1.1 v 0.9 0 c 0.1,-0.3 0.4,-0.6 0.7,-0.7 0.3,-0.2 0.7,-0.3 1.200002,-0.3 0.3,0 0.5,0 0.8,0.1 0.3,0.1 0.5,0.2 0.7,0.4 0.2,0.2 0.3,0.4 0.5,0.7 0.1,0.3 0.2,0.6 0.2,1 v 3.7 h -1.1 v -3.4 c 0,-0.3 0,-0.5 -0.1,-0.7 -0.1,-0.2 -0.2,-0.3 -0.3,-0.5 -0.1,-0.1 -0.3,-0.2 -0.4,-0.3 -0.1,-0.1 -0.3,-0.1 -0.5,-0.1 -0.200002,0 -0.400002,0 -0.600002,0.1 -0.2,0.1 -0.4,0.2 -0.5,0.3 -0.1,0.2 -0.3,0.4 -0.3,0.6 -0.1,0.2 -0.1,0.5 -0.1,0.9 v 3 h -1.1 v -5.7 z"
     transform="translate(41,-14.3)" /><path
     style="fill:#f6a330"
     inkscape:connector-curvature="0"
     id="path54"
     d="m 109.30749,25.779479 c 0,0.4 -0.1,0.8 -0.2,1.2 -0.1,0.4 -0.4,0.7 -0.6,0.9 -0.3,0.3 -0.6,0.5 -1,0.6 -0.4,0.1 -0.8,0.2 -1.3,0.2 -0.6,0 -1.1,-0.1 -1.5,-0.2 -0.50001,-0.2 -0.90001,-0.4 -1.30001,-0.8 l 0.7,-0.9 c 0.30001,0.3 0.60001,0.5 0.90001,0.7 0.3,0.2 0.7,0.2 1.1,0.2 0.4,0 0.7,-0.1 1,-0.2 0.3,-0.1 0.5,-0.3 0.6,-0.5 0.2,-0.2 0.3,-0.4 0.3,-0.6 0.1,-0.2 0.1,-0.5 0.1,-0.7 v -0.9 0 c -0.2,0.3 -0.5,0.6 -0.9,0.8 -0.4,0.2 -0.7,0.2 -1.1,0.2 -0.4,0 -0.8,-0.1 -1.2,-0.2 -0.4,-0.2 -0.70001,-0.4 -0.90001,-0.6 -0.2,-0.2 -0.5,-0.6 -0.6,-0.9 -0.1,-0.4 -0.2,-0.8 -0.2,-1.2 0,-0.4 0.1,-0.8 0.2,-1.2 0.1,-0.4 0.3,-0.7 0.6,-1 0.3,-0.3 0.60001,-0.5 0.90001,-0.6 0.4,-0.2 0.8,-0.2 1.2,-0.2 0.4,0 0.8,0.1 1.1,0.3 0.3,0.2 0.7,0.4 0.9,0.7 v 0 -0.8 h 1.1 v 5.7 z m -3,-4.8 c -0.3,0 -0.6,0.1 -0.8,0.2 -0.2,0.1 -0.4,0.2 -0.6,0.4 -0.2,0.2 -0.3,0.4 -0.4,0.6 -0.1,0.2 -0.1,0.5 -0.1,0.8 0,0.6 0.2,1 0.5,1.4 0.3,0.4 0.8,0.5 1.4,0.5 0.6,0 1,-0.2 1.4,-0.5 0.3,-0.4 0.5,-0.8 0.5,-1.4 0,-0.3 0,-0.6 -0.1,-0.8 -0.1,-0.2 -0.2,-0.5 -0.4,-0.6 -0.2,-0.2 -0.4,-0.3 -0.6,-0.4 -0.2,-0.1 -0.5,-0.2 -0.8,-0.2 z"
     transform="translate(41,-14.3)" /><path
     style="fill:#f6a330"
     inkscape:connector-curvature="0"
     id="path28-3"
     d="m 92.552181,16.825737 h 1.1 v 9.2 h -1.1 z"
     transform="translate(41,-14.3)" /><path
     id="path14-6"
     d="m -3.6317833,21.605575 c -0.129394,-0.161621 -0.289551,-0.296875 -0.479492,-0.40625 -0.189941,-0.109375 -0.422852,-0.164062 -0.697754,-0.164062 -0.259277,0 -0.483887,0.05469 -0.673828,0.164062 -0.19043,0.109375 -0.285156,0.269043 -0.285156,0.479493 0,0.17041 0.05469,0.308105 0.163574,0.413574 0.109375,0.104492 0.238769,0.189453 0.388672,0.254883 0.149414,0.06445 0.30957,0.113281 0.479492,0.145507 0.169922,0.03223 0.31543,0.06055 0.437012,0.08496 0.234375,0.05664 0.455078,0.125 0.661621,0.206055 0.206055,0.08105 0.384277,0.186523 0.53418,0.31543 0.149414,0.129883 0.266601,0.288086 0.351562,0.473633 0.08496,0.186523 0.127441,0.413085 0.127441,0.679687 0,0.324219 -0.06885,0.600586 -0.206054,0.832031 -0.137696,0.230469 -0.31543,0.417969 -0.53418,0.564453 -0.218262,0.145508 -0.467285,0.25 -0.746582,0.31543 -0.279297,0.06445 -0.560547,0.09668 -0.84375,0.09668 -0.477539,0 -0.895996,-0.07227 -1.256348,-0.21875 -0.359863,-0.145508 -0.68164,-0.41211 -0.964843,-0.800781 l 0.825683,-0.679688 c 0.177735,0.177734 0.375977,0.335938 0.594727,0.473633 0.218261,0.137695 0.485351,0.206055 0.800781,0.206055 0.137695,0 0.277344,-0.01367 0.418945,-0.04199 0.141602,-0.02832 0.26709,-0.07324 0.376465,-0.133789 0.108887,-0.06055 0.198242,-0.137695 0.26709,-0.230469 0.06836,-0.09375 0.103027,-0.200195 0.103027,-0.322265 0,-0.161133 -0.05078,-0.294922 -0.151855,-0.400391 -0.101075,-0.105468 -0.222657,-0.188476 -0.364258,-0.249023 -0.141602,-0.06055 -0.291016,-0.109375 -0.448731,-0.145508 -0.158203,-0.03613 -0.297363,-0.06641 -0.418945,-0.09082 -0.234863,-0.05664 -0.457519,-0.121094 -0.66748,-0.194336 -0.210938,-0.07324 -0.396973,-0.169922 -0.558594,-0.291016 -0.16211,-0.12207 -0.291504,-0.27539 -0.388184,-0.461914 -0.09717,-0.185547 -0.145996,-0.416015 -0.145996,-0.691406 0,-0.299805 0.0625,-0.561035 0.188477,-0.783691 0.125,-0.222168 0.291015,-0.406739 0.497558,-0.552247 0.206055,-0.145507 0.440918,-0.254882 0.704102,-0.327636 0.262695,-0.07275 0.527832,-0.109375 0.794922,-0.109375 0.388672,0 0.760742,0.07275 1.116699,0.21875 0.355957,0.145508 0.63916,0.388183 0.849609,0.728027 z"
     style="fill:#f6a330;fill-opacity:1"
     inkscape:connector-curvature="0"
     transform="translate(41,-14.3)" /><path
     id="path28-7"
     d="m 57.833595,20.312491 h 1.1 v 0.9 0 c 0.1,-0.2 0.2,-0.3 0.3,-0.4 0.1,-0.1 0.3,-0.2 0.4,-0.3 0.1,-0.1 0.3,-0.2 0.5,-0.2 0.2,-0.1 0.4,-0.1 0.5,-0.1 0.199997,0 0.299997,0 0.499997,0.1 v 1.2 c -0.1,0 -0.2,0 -0.3,-0.1 -0.1,0 -0.199997,0 -0.299997,0 -0.5,0 -0.9,0.1 -1.2,0.4 -0.3,0.3 -0.4,0.8 -0.4,1.4 v 2.9 h -1.1 z"
     style="fill:#f6a330;fill-opacity:1"
     inkscape:connector-curvature="0"
     transform="translate(41,-14.3)" /><path
     style="fill:#f6a330"
     inkscape:connector-curvature="0"
     id="path26-5"
     d="m 51.851173,20.962491 c 0.3,-0.3 0.7,-0.5 1.1,-0.6 0.4,-0.1 0.8,-0.2 1.2,-0.2 0.4,0 0.8,0.1 1.1,0.2 0.3,0.1 0.6,0.2 0.7,0.4 0.2,0.2 0.3,0.4 0.4,0.6 0.1,0.2 0.1,0.5 0.1,0.7 v 2.9 c 0,0.2 0,0.4 0,0.6 0,0.2 0,0.3 0,0.5 h -1 c 0,-0.3 0,-0.6 0,-0.9 v 0 c -0.2,0.4 -0.5,0.6 -0.9,0.8 -0.3,0.2 -0.7,0.2 -1.2,0.2 -0.3,0 -0.5,0 -0.8,-0.1 -0.2,-0.1 -0.5,-0.2 -0.6,-0.3 -0.1,-0.1 -0.3,-0.3 -0.4,-0.5 -0.1,-0.2 -0.2,-0.5 -0.2,-0.7 0,-0.4 0.1,-0.7 0.2,-0.9 0.1,-0.2 0.4,-0.5 0.7,-0.6 0.3,-0.2 0.6,-0.3 1,-0.3 0.4,-0.1 0.8,-0.1 1.2,-0.1 h 0.8 v -0.2 c 0,-0.1 0,-0.3 -0.1,-0.4 -0.1,-0.1 -0.1,-0.3 -0.3,-0.4 -0.1,-0.1 -0.3,-0.2 -0.4,-0.3 -0.2,-0.1 -0.4,-0.1 -0.6,-0.1 -0.2,0 -0.4,0 -0.6,0.1 -0.2,0 -0.3,0.1 -0.4,0.2 -0.1,0.1 -0.2,0.1 -0.4,0.2 -0.1,0.1 -0.2,0.2 -0.3,0.2 z m 3.1,2.3 c -0.3,0 -0.5,0 -0.8,0 -0.3,0 -0.5,0.1 -0.7,0.2 -0.2,0.1 -0.4,0.2 -0.5,0.3 -0.1,0.1 -0.2,0.3 -0.2,0.6 0,0.3 0.1,0.6 0.3,0.7 0.2,0.1 0.5,0.2 0.9,0.2 0.3,0 0.6,0 0.8,-0.2 0.2,-0.2 0.4,-0.2 0.5,-0.4 0.1,-0.2 0.2,-0.3 0.3,-0.5 0.1,-0.2 0.1,-0.4 0.1,-0.6 v -0.4 h -0.7 z"
     transform="translate(41,-14.3)" /><path
     id="path58"
     d="m 1.5,1 c 0,1.3 1,2.3 2.3,2.3 1.3,0 2.3,-1 2.3,-2.3"
     stroke-miterlimit="10"
     inkscape:connector-curvature="0"
     style="fill:none;stroke:#f6a330;stroke-miterlimit:10" /><path
     id="path60"
     d="M 7.9,5.1"
     stroke-miterlimit="10"
     inkscape:connector-curvature="0"
     style="fill:none;stroke:#f6a330;stroke-miterlimit:10" /><path
     id="path62"
     d="m 7.9,1 c 0,1.3 1,2.3 2.3,2.3 1.3,0 2.3,-1 2.3,-2.3"
     stroke-miterlimit="10"
     inkscape:connector-curvature="0"
     style="fill:none;stroke:#f6a330;stroke-miterlimit:10" /><path
     id="path64"
     d="M 14.3,5.1"
     stroke-miterlimit="10"
     inkscape:connector-curvature="0"
     style="fill:none;stroke:#37b34a;stroke-miterlimit:10" /><path
     id="path66"
     d="m 14.3,1 c 0,1.3 1,2.3 2.3,2.3 1.3,0 2.3,-1 2.3,-2.3"
     stroke-miterlimit="10"
     inkscape:connector-curvature="0"
     style="fill:none;stroke:#f6a330;stroke-miterlimit:10" /><path
     id="path68"
     d="m 1.5,14 c 0,-1.3 1,-2.3 2.3,-2.3 1.3,0 2.3,1 2.3,2.3"
     stroke-miterlimit="10"
     inkscape:connector-curvature="0"
     style="fill:none;stroke:#f6a330;stroke-miterlimit:10" /><path
     id="path70"
     d="m 7.9,14 c 0,-1.3 1,-2.3 2.3,-2.3 1.3,0 2.3,1 2.3,2.3"
     stroke-miterlimit="10"
     inkscape:connector-curvature="0"
     style="fill:none;stroke:#f6a330;stroke-miterlimit:10" /><path
     id="path72"
     d="m 14.3,14 c 0,-1.3 1,-2.3 2.3,-2.3 1.3,0 2.3,1 2.3,2.3"
     stroke-miterlimit="10"
     inkscape:connector-curvature="0"
     style="fill:none;stroke:#f6a330;stroke-miterlimit:10" /><circle
     id="circle74"
     r="2.3"
     cy="7.5"
     cx="3.8"
     stroke-miterlimit="10"
     style="fill:none;stroke:#f6a330;stroke-miterlimit:10" /><circle
     id="circle76"
     r="2.3"
     cy="7.5"
     cx="10.2"
     stroke-miterlimit="10"
     style="fill:none;stroke:#f6a330;stroke-miterlimit:10" /><circle
     id="circle78"
     r="2.3"
     cy="7.5"
     cx="16.6"
     stroke-miterlimit="10"
     style="fill:#f6a330;stroke:#f6a330;stroke-miterlimit:10" /><path
     style="fill:none;stroke:#cccccc;stroke-miterlimit:10"
     inkscape:connector-curvature="0"
     id="path138"
     d="M 80.240624,5.8443229"
     stroke-miterlimit="10" /><path
     style="fill:none;stroke:#37b34a;stroke-miterlimit:10"
     inkscape:connector-curvature="0"
     id="path142"
     d="M 86.640624,5.8443229"
     stroke-miterlimit="10" /></g>







<g
   id="g158"
   transform="translate(-1,-1)">
</g>
<g
   id="g160"
   transform="translate(-1,-1)">
</g>
<g
   id="g162"
   transform="translate(-1,-1)">
</g>
<g
   id="g164"
   transform="translate(-1,-1)">
</g>
<g
   id="g166"
   transform="translate(-1,-1)">
</g>
<g
   id="g168"
   transform="translate(-1,-1)">
</g>
<g
   id="g170"
   transform="translate(-1,-1)">
</g>
<g
   id="g172"
   transform="translate(-1,-1)">
</g>
<g
   id="g174"
   transform="translate(-1,-1)">
</g>
<g
   id="g176"
   transform="translate(-1,-1)">
</g>
<g
   id="g178"
   transform="translate(-1,-1)">
</g>
<g
   id="g180"
   transform="translate(-1,-1)">
</g>
<g
   id="g182"
   transform="translate(-1,-1)">
</g>
<g
   id="g184"
   transform="translate(-1,-1)">
</g>
<g
   id="g186"
   transform="translate(-1,-1)">
</g>
</svg>